<?xml version="1.0" encoding="utf-8" standalone="no"?>
<!DOCTYPE svg PUBLIC "-//W3C//DTD SVG 1.1//EN"
  "http://www.w3.org/Graphics/SVG/1.1/DTD/svg11.dtd">
<svg xmlns:xlink="http://www.w3.org/1999/xlink" width="84.5148pt" height="137.14pt" viewBox="0 0 84.5148 137.14" xmlns="http://www.w3.org/2000/svg" version="1.1">
 <metadata>
  <rdf:RDF xmlns:dc="http://purl.org/dc/elements/1.1/" xmlns:cc="http://creativecommons.org/ns#" xmlns:rdf="http://www.w3.org/1999/02/22-rdf-syntax-ns#">
   <cc:Work>
    <dc:type rdf:resource="http://purl.org/dc/dcmitype/StillImage"/>
    <dc:date>2022-11-18T16:39:30.325095</dc:date>
    <dc:format>image/svg+xml</dc:format>
    <dc:creator>
     <cc:Agent>
      <dc:title>Matplotlib v3.5.2, https://matplotlib.org/</dc:title>
     </cc:Agent>
    </dc:creator>
   </cc:Work>
  </rdf:RDF>
 </metadata>
 <defs>
  <style type="text/css">*{stroke-linejoin: round; stroke-linecap: butt}</style>
 </defs>
 <g id="figure_1">
  <g id="patch_1">
   <path d="M 0 137.14 
L 84.5148 137.14 
L 84.5148 0 
L 0 0 
z
" style="fill: #ffffff"/>
  </g>
  <g id="axes_1">
   <g id="line2d_1">
    <path d="M 48.9486 126.88 
L 48.9486 96.28 
L 33.6486 80.98 
L 48.9486 65.68 
L 64.2486 80.98 
L 48.9486 96.28 
M 48.9486 65.68 
L 48.9486 35.08 
" clip-path="url(#p71aa0d3888)" style="fill: none; stroke: #000000; stroke-width: 2; stroke-linecap: round"/>
   </g>
   <g id="line2d_2">
    <path d="M 48.9486 88.63 
L 48.9486 80.98 
" clip-path="url(#p71aa0d3888)" style="fill: none; stroke: #000000; stroke-width: 2; stroke-linecap: round"/>
   </g>
   <g id="patch_2">
    <path d="M 46.6536 80.98 
L 48.9486 73.33 
L 51.2436 80.98 
z
" clip-path="url(#p71aa0d3888)"/>
   </g>
   <g id="line2d_3">
    <path d="M 48.9486 126.88 
L 48.9486 96.28 
L 33.6486 80.98 
L 48.9486 65.68 
L 64.2486 80.98 
L 48.9486 96.28 
M 48.9486 65.68 
L 48.9486 35.08 
" clip-path="url(#p71aa0d3888)" style="fill: none; stroke: #000000; stroke-width: 2; stroke-linecap: round"/>
   </g>
   <g id="line2d_4">
    <path d="M 48.9486 88.63 
L 48.9486 80.98 
" clip-path="url(#p71aa0d3888)" style="fill: none; stroke: #000000; stroke-width: 2; stroke-linecap: round"/>
   </g>
   <g id="patch_3">
    <path d="M 46.6536 80.98 
L 48.9486 73.33 
L 51.2436 80.98 
z
" clip-path="url(#p71aa0d3888)"/>
   </g>
   <g id="text_1">
    <g clip-path="url(#p71aa0d3888)">
     <!-- $I_S$ -->
     <g transform="translate(20.9636 84.429219)scale(0.125 -0.125)">
      <defs>
       <path id="DejaVuSans-Oblique-49" d="M 1081 4666 
L 1716 4666 
L 806 0 
L 172 0 
L 1081 4666 
z
" transform="scale(0.015625)"/>
       <path id="DejaVuSans-Oblique-53" d="M 3859 4513 
L 3738 3897 
Q 3422 4066 3111 4152 
Q 2800 4238 2509 4238 
Q 1944 4238 1609 3991 
Q 1275 3744 1275 3334 
Q 1275 3109 1398 2989 
Q 1522 2869 2034 2731 
L 2413 2638 
Q 3053 2472 3303 2217 
Q 3553 1963 3553 1503 
Q 3553 797 2998 353 
Q 2444 -91 1538 -91 
Q 1166 -91 791 -17 
Q 416 56 38 206 
L 166 856 
Q 513 641 861 531 
Q 1209 422 1556 422 
Q 2147 422 2503 684 
Q 2859 947 2859 1369 
Q 2859 1650 2717 1795 
Q 2575 1941 2106 2059 
L 1728 2156 
Q 1081 2325 845 2545 
Q 609 2766 609 3163 
Q 609 3859 1145 4304 
Q 1681 4750 2541 4750 
Q 2875 4750 3203 4690 
Q 3531 4631 3859 4513 
z
" transform="scale(0.015625)"/>
      </defs>
      <use xlink:href="#DejaVuSans-Oblique-49" transform="translate(0 0.09375)"/>
      <use xlink:href="#DejaVuSans-Oblique-53" transform="translate(29.492188 -16.3125)scale(0.7)"/>
     </g>
    </g>
   </g>
   <g id="text_2">
    <g clip-path="url(#p71aa0d3888)">
     <!-- 4 $V_x$ -->
     <g transform="translate(35.9486 29.420391)scale(0.125 -0.125)">
      <defs>
       <path id="DejaVuSans-34" d="M 2419 4116 
L 825 1625 
L 2419 1625 
L 2419 4116 
z
M 2253 4666 
L 3047 4666 
L 3047 1625 
L 3713 1625 
L 3713 1100 
L 3047 1100 
L 3047 0 
L 2419 0 
L 2419 1100 
L 313 1100 
L 313 1709 
L 2253 4666 
z
" transform="scale(0.015625)"/>
       <path id="DejaVuSans-20" transform="scale(0.015625)"/>
       <path id="DejaVuSans-Oblique-56" d="M 1319 0 
L 500 4666 
L 1119 4666 
L 1797 653 
L 4063 4666 
L 4750 4666 
L 2053 0 
L 1319 0 
z
" transform="scale(0.015625)"/>
       <path id="DejaVuSans-Oblique-78" d="M 3841 3500 
L 2234 1784 
L 3219 0 
L 2559 0 
L 1819 1388 
L 531 0 
L -166 0 
L 1556 1844 
L 641 3500 
L 1300 3500 
L 1972 2234 
L 3144 3500 
L 3841 3500 
z
" transform="scale(0.015625)"/>
      </defs>
      <use xlink:href="#DejaVuSans-34" transform="translate(0 0.09375)"/>
      <use xlink:href="#DejaVuSans-20" transform="translate(63.623047 0.09375)"/>
      <use xlink:href="#DejaVuSans-Oblique-56" transform="translate(95.410156 0.09375)"/>
      <use xlink:href="#DejaVuSans-Oblique-78" transform="translate(163.818359 -16.3125)scale(0.7)"/>
     </g>
    </g>
   </g>
   <g id="text_3">
    <g clip-path="url(#p71aa0d3888)">
     <!-- $I_S$ -->
     <g transform="translate(20.9636 84.429219)scale(0.125 -0.125)">
      <use xlink:href="#DejaVuSans-Oblique-49" transform="translate(0 0.09375)"/>
      <use xlink:href="#DejaVuSans-Oblique-53" transform="translate(29.492188 -16.3125)scale(0.7)"/>
     </g>
    </g>
   </g>
   <g id="text_4">
    <g clip-path="url(#p71aa0d3888)">
     <!-- 4 $V_x$ -->
     <g transform="translate(35.9486 29.420391)scale(0.125 -0.125)">
      <use xlink:href="#DejaVuSans-34" transform="translate(0 0.09375)"/>
      <use xlink:href="#DejaVuSans-20" transform="translate(63.623047 0.09375)"/>
      <use xlink:href="#DejaVuSans-Oblique-56" transform="translate(95.410156 0.09375)"/>
      <use xlink:href="#DejaVuSans-Oblique-78" transform="translate(163.818359 -16.3125)scale(0.7)"/>
     </g>
    </g>
   </g>
  </g>
 </g>
 <defs>
  <clipPath id="p71aa0d3888">
   <rect x="7.2" y="7.2" width="70.1148" height="122.74"/>
  </clipPath>
 </defs>
</svg>
