<?xml version="1.0" encoding="utf-8" standalone="no"?>
<!DOCTYPE svg PUBLIC "-//W3C//DTD SVG 1.1//EN"
  "http://www.w3.org/Graphics/SVG/1.1/DTD/svg11.dtd">
<svg xmlns:xlink="http://www.w3.org/1999/xlink" width="117.2262pt" height="112.32pt" viewBox="0 0 117.2262 112.32" xmlns="http://www.w3.org/2000/svg" version="1.1">
 <metadata>
  <rdf:RDF xmlns:dc="http://purl.org/dc/elements/1.1/" xmlns:cc="http://creativecommons.org/ns#" xmlns:rdf="http://www.w3.org/1999/02/22-rdf-syntax-ns#">
   <cc:Work>
    <dc:type rdf:resource="http://purl.org/dc/dcmitype/StillImage"/>
    <dc:date>2022-11-20T11:27:15.171714</dc:date>
    <dc:format>image/svg+xml</dc:format>
    <dc:creator>
     <cc:Agent>
      <dc:title>Matplotlib v3.5.2, https://matplotlib.org/</dc:title>
     </cc:Agent>
    </dc:creator>
   </cc:Work>
  </rdf:RDF>
 </metadata>
 <defs>
  <style type="text/css">*{stroke-linejoin: round; stroke-linecap: butt}</style>
 </defs>
 <g id="figure_1">
  <g id="patch_1">
   <path d="M 0 112.32 
L 117.2262 112.32 
L 117.2262 0 
L 0 0 
z
" style="fill: #ffffff"/>
  </g>
  <g id="axes_1">
   <g id="patch_2">
    <path d="M 48.9486 71.46 
C 53.006207 71.46 56.898172 69.847895 59.767334 66.978734 
C 62.636495 64.109572 64.2486 60.217607 64.2486 56.16 
C 64.2486 52.102393 62.636495 48.210428 59.767334 45.341266 
C 56.898172 42.472105 53.006207 40.86 48.9486 40.86 
C 44.890993 40.86 40.999028 42.472105 38.129866 45.341266 
C 35.260705 48.210428 33.6486 52.102393 33.6486 56.16 
C 33.6486 60.217607 35.260705 64.109572 38.129866 66.978734 
C 40.999028 69.847895 44.890993 71.46 48.9486 71.46 
L 48.9486 71.46 
z
" clip-path="url(#p8cba4f11f2)" style="fill: none; stroke: #000000; stroke-width: 2; stroke-linejoin: miter"/>
   </g>
   <g id="patch_3">
    <path d="M 48.9486 71.46 
C 53.006207 71.46 56.898172 69.847895 59.767334 66.978734 
C 62.636495 64.109572 64.2486 60.217607 64.2486 56.16 
C 64.2486 52.102393 62.636495 48.210428 59.767334 45.341266 
C 56.898172 42.472105 53.006207 40.86 48.9486 40.86 
C 44.890993 40.86 40.999028 42.472105 38.129866 45.341266 
C 35.260705 48.210428 33.6486 52.102393 33.6486 56.16 
C 33.6486 60.217607 35.260705 64.109572 38.129866 66.978734 
C 40.999028 69.847895 44.890993 71.46 48.9486 71.46 
L 48.9486 71.46 
z
" clip-path="url(#p8cba4f11f2)" style="fill: none; stroke: #000000; stroke-width: 2; stroke-linejoin: miter"/>
   </g>
   <g id="line2d_1">
    <path d="M 48.9486 102.06 
L 48.9486 71.46 
L 48.9486 71.46 
M 48.9486 40.86 
L 48.9486 40.86 
L 48.9486 10.26 
" clip-path="url(#p8cba4f11f2)" style="fill: none; stroke: #000000; stroke-width: 2; stroke-linecap: round"/>
   </g>
   <g id="line2d_2">
    <path d="M 48.9486 63.81 
L 48.9486 56.16 
" clip-path="url(#p8cba4f11f2)" style="fill: none; stroke: #000000; stroke-width: 2; stroke-linecap: round"/>
   </g>
   <g id="patch_4">
    <path d="M 46.6536 56.16 
L 48.9486 48.51 
L 51.2436 56.16 
z
" clip-path="url(#p8cba4f11f2)"/>
   </g>
   <g id="line2d_3">
    <path d="M 48.9486 102.06 
L 48.9486 71.46 
L 48.9486 71.46 
M 48.9486 40.86 
L 48.9486 40.86 
L 48.9486 10.26 
" clip-path="url(#p8cba4f11f2)" style="fill: none; stroke: #000000; stroke-width: 2; stroke-linecap: round"/>
   </g>
   <g id="line2d_4">
    <path d="M 48.9486 63.81 
L 48.9486 56.16 
" clip-path="url(#p8cba4f11f2)" style="fill: none; stroke: #000000; stroke-width: 2; stroke-linecap: round"/>
   </g>
   <g id="patch_5">
    <path d="M 46.6536 56.16 
L 48.9486 48.51 
L 51.2436 56.16 
z
" clip-path="url(#p8cba4f11f2)"/>
   </g>
   <g id="text_1">
    <g clip-path="url(#p8cba4f11f2)">
     <!-- $I_S$ -->
     <g transform="translate(20.9636 59.609219)scale(0.125 -0.125)">
      <defs>
       <path id="DejaVuSans-Oblique-49" d="M 1081 4666 
L 1716 4666 
L 806 0 
L 172 0 
L 1081 4666 
z
" transform="scale(0.015625)"/>
       <path id="DejaVuSans-Oblique-53" d="M 3859 4513 
L 3738 3897 
Q 3422 4066 3111 4152 
Q 2800 4238 2509 4238 
Q 1944 4238 1609 3991 
Q 1275 3744 1275 3334 
Q 1275 3109 1398 2989 
Q 1522 2869 2034 2731 
L 2413 2638 
Q 3053 2472 3303 2217 
Q 3553 1963 3553 1503 
Q 3553 797 2998 353 
Q 2444 -91 1538 -91 
Q 1166 -91 791 -17 
Q 416 56 38 206 
L 166 856 
Q 513 641 861 531 
Q 1209 422 1556 422 
Q 2147 422 2503 684 
Q 2859 947 2859 1369 
Q 2859 1650 2717 1795 
Q 2575 1941 2106 2059 
L 1728 2156 
Q 1081 2325 845 2545 
Q 609 2766 609 3163 
Q 609 3859 1145 4304 
Q 1681 4750 2541 4750 
Q 2875 4750 3203 4690 
Q 3531 4631 3859 4513 
z
" transform="scale(0.015625)"/>
      </defs>
      <use xlink:href="#DejaVuSans-Oblique-49" transform="translate(0 0.09375)"/>
      <use xlink:href="#DejaVuSans-Oblique-53" transform="translate(29.492188 -16.3125)scale(0.7)"/>
     </g>
    </g>
   </g>
   <g id="text_2">
    <g clip-path="url(#p8cba4f11f2)">
     <!-- 2 mA -->
     <g transform="translate(67.3086 59.609219)scale(0.125 -0.125)">
      <defs>
       <path id="DejaVuSans-32" d="M 1228 531 
L 3431 531 
L 3431 0 
L 469 0 
L 469 531 
Q 828 903 1448 1529 
Q 2069 2156 2228 2338 
Q 2531 2678 2651 2914 
Q 2772 3150 2772 3378 
Q 2772 3750 2511 3984 
Q 2250 4219 1831 4219 
Q 1534 4219 1204 4116 
Q 875 4013 500 3803 
L 500 4441 
Q 881 4594 1212 4672 
Q 1544 4750 1819 4750 
Q 2544 4750 2975 4387 
Q 3406 4025 3406 3419 
Q 3406 3131 3298 2873 
Q 3191 2616 2906 2266 
Q 2828 2175 2409 1742 
Q 1991 1309 1228 531 
z
" transform="scale(0.015625)"/>
       <path id="DejaVuSans-20" transform="scale(0.015625)"/>
       <path id="DejaVuSans-6d" d="M 3328 2828 
Q 3544 3216 3844 3400 
Q 4144 3584 4550 3584 
Q 5097 3584 5394 3201 
Q 5691 2819 5691 2113 
L 5691 0 
L 5113 0 
L 5113 2094 
Q 5113 2597 4934 2840 
Q 4756 3084 4391 3084 
Q 3944 3084 3684 2787 
Q 3425 2491 3425 1978 
L 3425 0 
L 2847 0 
L 2847 2094 
Q 2847 2600 2669 2842 
Q 2491 3084 2119 3084 
Q 1678 3084 1418 2786 
Q 1159 2488 1159 1978 
L 1159 0 
L 581 0 
L 581 3500 
L 1159 3500 
L 1159 2956 
Q 1356 3278 1631 3431 
Q 1906 3584 2284 3584 
Q 2666 3584 2933 3390 
Q 3200 3197 3328 2828 
z
" transform="scale(0.015625)"/>
       <path id="DejaVuSans-41" d="M 2188 4044 
L 1331 1722 
L 3047 1722 
L 2188 4044 
z
M 1831 4666 
L 2547 4666 
L 4325 0 
L 3669 0 
L 3244 1197 
L 1141 1197 
L 716 0 
L 50 0 
L 1831 4666 
z
" transform="scale(0.015625)"/>
      </defs>
      <use xlink:href="#DejaVuSans-32"/>
      <use xlink:href="#DejaVuSans-20" x="63.623047"/>
      <use xlink:href="#DejaVuSans-6d" x="95.410156"/>
      <use xlink:href="#DejaVuSans-41" x="192.822266"/>
     </g>
    </g>
   </g>
   <g id="text_3">
    <g clip-path="url(#p8cba4f11f2)">
     <!-- $I_S$ -->
     <g transform="translate(20.9636 59.609219)scale(0.125 -0.125)">
      <use xlink:href="#DejaVuSans-Oblique-49" transform="translate(0 0.09375)"/>
      <use xlink:href="#DejaVuSans-Oblique-53" transform="translate(29.492188 -16.3125)scale(0.7)"/>
     </g>
    </g>
   </g>
   <g id="text_4">
    <g clip-path="url(#p8cba4f11f2)">
     <!-- 2 mA -->
     <g transform="translate(67.3086 59.609219)scale(0.125 -0.125)">
      <use xlink:href="#DejaVuSans-32"/>
      <use xlink:href="#DejaVuSans-20" x="63.623047"/>
      <use xlink:href="#DejaVuSans-6d" x="95.410156"/>
      <use xlink:href="#DejaVuSans-41" x="192.822266"/>
     </g>
    </g>
   </g>
  </g>
 </g>
 <defs>
  <clipPath id="p8cba4f11f2">
   <rect x="7.2" y="7.2" width="102.8262" height="97.92"/>
  </clipPath>
 </defs>
</svg>
