<?xml version="1.0" encoding="utf-8" standalone="no"?>
<!DOCTYPE svg PUBLIC "-//W3C//DTD SVG 1.1//EN"
  "http://www.w3.org/Graphics/SVG/1.1/DTD/svg11.dtd">
<svg xmlns:xlink="http://www.w3.org/1999/xlink" width="308.6802pt" height="244.24pt" viewBox="0 0 308.6802 244.24" xmlns="http://www.w3.org/2000/svg" version="1.1">
 <metadata>
  <rdf:RDF xmlns:dc="http://purl.org/dc/elements/1.1/" xmlns:cc="http://creativecommons.org/ns#" xmlns:rdf="http://www.w3.org/1999/02/22-rdf-syntax-ns#">
   <cc:Work>
    <dc:type rdf:resource="http://purl.org/dc/dcmitype/StillImage"/>
    <dc:date>2023-02-10T11:29:02.833888</dc:date>
    <dc:format>image/svg+xml</dc:format>
    <dc:creator>
     <cc:Agent>
      <dc:title>Matplotlib v3.6.2, https://matplotlib.org/</dc:title>
     </cc:Agent>
    </dc:creator>
   </cc:Work>
  </rdf:RDF>
 </metadata>
 <defs>
  <style type="text/css">*{stroke-linejoin: round; stroke-linecap: butt}</style>
 </defs>
 <g id="figure_1">
  <g id="patch_1">
   <path d="M 0 244.24 
L 308.6802 244.24 
L 308.6802 0 
L 0 0 
z
" style="fill: #ffffff"/>
  </g>
  <g id="axes_1">
   <g id="patch_2">
    <path d="M 52.1616 203.38 
C 56.219207 203.38 60.111172 201.767895 62.980334 198.898734 
C 65.849495 196.029572 67.4616 192.137607 67.4616 188.08 
C 67.4616 184.022393 65.849495 180.130428 62.980334 177.261266 
C 60.111172 174.392105 56.219207 172.78 52.1616 172.78 
C 48.103993 172.78 44.212028 174.392105 41.342866 177.261266 
C 38.473705 180.130428 36.8616 184.022393 36.8616 188.08 
C 36.8616 192.137607 38.473705 196.029572 41.342866 198.898734 
C 44.212028 201.767895 48.103993 203.38 52.1616 203.38 
L 52.1616 203.38 
z
" clip-path="url(#p000c525978)" style="fill: none; stroke: #000000; stroke-linejoin: miter"/>
   </g>
   <g id="patch_3">
    <path d="M 235.7616 203.38 
C 239.819207 203.38 243.711172 201.767895 246.580334 198.898734 
C 249.449495 196.029572 251.0616 192.137607 251.0616 188.08 
C 251.0616 184.022393 249.449495 180.130428 246.580334 177.261266 
C 243.711172 174.392105 239.819207 172.78 235.7616 172.78 
C 231.703993 172.78 227.812028 174.392105 224.942866 177.261266 
C 222.073705 180.130428 220.4616 184.022393 220.4616 188.08 
C 220.4616 192.137607 222.073705 196.029572 224.942866 198.898734 
C 227.812028 201.767895 231.703993 203.38 235.7616 203.38 
L 235.7616 203.38 
z
" clip-path="url(#p000c525978)" style="fill: none; stroke: #000000; stroke-linejoin: miter"/>
   </g>
   <g id="patch_4">
    <path d="M 143.9616 65.68 
C 148.019207 65.68 151.911172 64.067895 154.780334 61.198734 
C 157.649495 58.329572 159.2616 54.437607 159.2616 50.38 
C 159.2616 46.322393 157.649495 42.430428 154.780334 39.561266 
C 151.911172 36.692105 148.019207 35.08 143.9616 35.08 
C 139.903993 35.08 136.012028 36.692105 133.142866 39.561266 
C 130.273705 42.430428 128.6616 46.322393 128.6616 50.38 
C 128.6616 54.437607 130.273705 58.329572 133.142866 61.198734 
C 136.012028 64.067895 139.903993 65.68 143.9616 65.68 
L 143.9616 65.68 
z
" clip-path="url(#p000c525978)" style="fill: none; stroke: #000000; stroke-linejoin: miter"/>
   </g>
   <g id="patch_5">
    <path d="M 52.1616 203.38 
C 56.219207 203.38 60.111172 201.767895 62.980334 198.898734 
C 65.849495 196.029572 67.4616 192.137607 67.4616 188.08 
C 67.4616 184.022393 65.849495 180.130428 62.980334 177.261266 
C 60.111172 174.392105 56.219207 172.78 52.1616 172.78 
C 48.103993 172.78 44.212028 174.392105 41.342866 177.261266 
C 38.473705 180.130428 36.8616 184.022393 36.8616 188.08 
C 36.8616 192.137607 38.473705 196.029572 41.342866 198.898734 
C 44.212028 201.767895 48.103993 203.38 52.1616 203.38 
L 52.1616 203.38 
z
" clip-path="url(#p000c525978)" style="fill: none; stroke: #000000; stroke-linejoin: miter"/>
   </g>
   <g id="patch_6">
    <path d="M 235.7616 203.38 
C 239.819207 203.38 243.711172 201.767895 246.580334 198.898734 
C 249.449495 196.029572 251.0616 192.137607 251.0616 188.08 
C 251.0616 184.022393 249.449495 180.130428 246.580334 177.261266 
C 243.711172 174.392105 239.819207 172.78 235.7616 172.78 
C 231.703993 172.78 227.812028 174.392105 224.942866 177.261266 
C 222.073705 180.130428 220.4616 184.022393 220.4616 188.08 
C 220.4616 192.137607 222.073705 196.029572 224.942866 198.898734 
C 227.812028 201.767895 231.703993 203.38 235.7616 203.38 
L 235.7616 203.38 
z
" clip-path="url(#p000c525978)" style="fill: none; stroke: #000000; stroke-linejoin: miter"/>
   </g>
   <g id="patch_7">
    <path d="M 143.9616 65.68 
C 148.019207 65.68 151.911172 64.067895 154.780334 61.198734 
C 157.649495 58.329572 159.2616 54.437607 159.2616 50.38 
C 159.2616 46.322393 157.649495 42.430428 154.780334 39.561266 
C 151.911172 36.692105 148.019207 35.08 143.9616 35.08 
C 139.903993 35.08 136.012028 36.692105 133.142866 39.561266 
C 130.273705 42.430428 128.6616 46.322393 128.6616 50.38 
C 128.6616 54.437607 130.273705 58.329572 133.142866 61.198734 
C 136.012028 64.067895 139.903993 65.68 143.9616 65.68 
L 143.9616 65.68 
z
" clip-path="url(#p000c525978)" style="fill: none; stroke: #000000; stroke-linejoin: miter"/>
   </g>
   <g id="line2d_1">
    <path d="M 52.1616 233.98 
L 52.1616 203.38 
L 52.1616 203.38 
M 52.1616 172.78 
L 52.1616 172.78 
L 52.1616 142.18 
" clip-path="url(#p000c525978)" style="fill: none; stroke: #000000; stroke-linecap: round"/>
   </g>
   <g id="line2d_2">
    <path d="M 52.1616 195.73 
L 52.1616 188.08 
" clip-path="url(#p000c525978)" style="fill: none; stroke: #000000; stroke-linecap: round"/>
   </g>
   <g id="patch_8">
    <path d="M 49.8666 188.08 
L 52.1616 180.43 
L 54.4566 188.08 
z
" clip-path="url(#p000c525978)"/>
   </g>
   <g id="line2d_3">
    <path d="M 52.1616 142.18 
L 82.7616 142.18 
L 85.3116 134.53 
L 90.4116 149.83 
L 95.5116 134.53 
L 100.6116 149.83 
L 105.7116 134.53 
L 110.8116 149.83 
L 113.3616 142.18 
L 143.9616 142.18 
" clip-path="url(#p000c525978)" style="fill: none; stroke: #000000; stroke-linecap: round"/>
   </g>
   <g id="line2d_4">
    <path d="M 143.9616 142.18 
L 174.5616 142.18 
L 177.1116 134.53 
L 182.2116 149.83 
L 187.3116 134.53 
L 192.4116 149.83 
L 197.5116 134.53 
L 202.6116 149.83 
L 205.1616 142.18 
L 235.7616 142.18 
" clip-path="url(#p000c525978)" style="fill: none; stroke: #000000; stroke-linecap: round"/>
   </g>
   <g id="line2d_5">
    <path d="M 235.7616 142.18 
L 235.7616 172.78 
L 235.7616 172.78 
M 235.7616 203.38 
L 235.7616 203.38 
L 235.7616 233.98 
" clip-path="url(#p000c525978)" style="fill: none; stroke: #000000; stroke-linecap: round"/>
   </g>
   <g id="line2d_6">
    <path d="M 235.7616 188.08 
L 235.7616 195.73 
" clip-path="url(#p000c525978)" style="fill: none; stroke: #000000; stroke-linecap: round"/>
   </g>
   <g id="patch_9">
    <path d="M 233.4666 188.08 
L 235.7616 180.43 
L 238.0566 188.08 
z
" clip-path="url(#p000c525978)"/>
   </g>
   <g id="line2d_7">
    <path d="M 143.9616 142.18 
L 143.9616 172.78 
L 151.6116 175.33 
L 136.3116 180.43 
L 151.6116 185.53 
L 136.3116 190.63 
L 151.6116 195.73 
L 136.3116 200.83 
L 143.9616 203.38 
L 143.9616 233.98 
" clip-path="url(#p000c525978)" style="fill: none; stroke: #000000; stroke-linecap: round"/>
   </g>
   <g id="line2d_8">
    <path d="M 52.1616 233.98 
L 143.9616 233.98 
L 235.7616 233.98 
" clip-path="url(#p000c525978)" style="fill: none; stroke: #000000; stroke-linecap: round"/>
   </g>
   <g id="line2d_9">
    <path d="M 52.1616 142.18 
L 52.1616 96.28 
L 52.1616 50.38 
" clip-path="url(#p000c525978)" style="fill: none; stroke: #000000; stroke-linecap: round"/>
   </g>
   <g id="line2d_10">
    <path d="M 52.1616 50.38 
L 75.1116 50.38 
L 98.0616 50.38 
" clip-path="url(#p000c525978)" style="fill: none; stroke: #000000; stroke-linecap: round"/>
   </g>
   <g id="line2d_11">
    <path d="M 98.0616 50.38 
L 128.6616 50.38 
L 128.6616 50.38 
M 159.2616 50.38 
L 159.2616 50.38 
L 189.8616 50.38 
" clip-path="url(#p000c525978)" style="fill: none; stroke: #000000; stroke-linecap: round"/>
   </g>
   <g id="line2d_12">
    <path d="M 136.3116 50.38 
L 143.9616 50.38 
" clip-path="url(#p000c525978)" style="fill: none; stroke: #000000; stroke-linecap: round"/>
   </g>
   <g id="patch_10">
    <path d="M 143.9616 48.085 
L 151.6116 50.38 
L 143.9616 52.675 
z
" clip-path="url(#p000c525978)"/>
   </g>
   <g id="line2d_13">
    <path d="M 189.8616 50.38 
L 212.8116 50.38 
L 235.7616 50.38 
" clip-path="url(#p000c525978)" style="fill: none; stroke: #000000; stroke-linecap: round"/>
   </g>
   <g id="line2d_14">
    <path d="M 235.7616 50.38 
L 235.7616 96.28 
L 235.7616 142.18 
" clip-path="url(#p000c525978)" style="fill: none; stroke: #000000; stroke-linecap: round"/>
   </g>
   <g id="line2d_15">
    <path d="M 52.1616 233.98 
L 52.1616 203.38 
L 52.1616 203.38 
M 52.1616 172.78 
L 52.1616 172.78 
L 52.1616 142.18 
" clip-path="url(#p000c525978)" style="fill: none; stroke: #000000; stroke-linecap: round"/>
   </g>
   <g id="line2d_16">
    <path d="M 52.1616 195.73 
L 52.1616 188.08 
" clip-path="url(#p000c525978)" style="fill: none; stroke: #000000; stroke-linecap: round"/>
   </g>
   <g id="patch_11">
    <path d="M 49.8666 188.08 
L 52.1616 180.43 
L 54.4566 188.08 
z
" clip-path="url(#p000c525978)"/>
   </g>
   <g id="line2d_17">
    <path d="M 52.1616 142.18 
L 82.7616 142.18 
L 85.3116 134.53 
L 90.4116 149.83 
L 95.5116 134.53 
L 100.6116 149.83 
L 105.7116 134.53 
L 110.8116 149.83 
L 113.3616 142.18 
L 143.9616 142.18 
" clip-path="url(#p000c525978)" style="fill: none; stroke: #000000; stroke-linecap: round"/>
   </g>
   <g id="line2d_18">
    <path d="M 143.9616 142.18 
L 174.5616 142.18 
L 177.1116 134.53 
L 182.2116 149.83 
L 187.3116 134.53 
L 192.4116 149.83 
L 197.5116 134.53 
L 202.6116 149.83 
L 205.1616 142.18 
L 235.7616 142.18 
" clip-path="url(#p000c525978)" style="fill: none; stroke: #000000; stroke-linecap: round"/>
   </g>
   <g id="line2d_19">
    <path d="M 235.7616 142.18 
L 235.7616 172.78 
L 235.7616 172.78 
M 235.7616 203.38 
L 235.7616 203.38 
L 235.7616 233.98 
" clip-path="url(#p000c525978)" style="fill: none; stroke: #000000; stroke-linecap: round"/>
   </g>
   <g id="line2d_20">
    <path d="M 235.7616 188.08 
L 235.7616 195.73 
" clip-path="url(#p000c525978)" style="fill: none; stroke: #000000; stroke-linecap: round"/>
   </g>
   <g id="patch_12">
    <path d="M 233.4666 188.08 
L 235.7616 180.43 
L 238.0566 188.08 
z
" clip-path="url(#p000c525978)"/>
   </g>
   <g id="line2d_21">
    <path d="M 143.9616 142.18 
L 143.9616 172.78 
L 151.6116 175.33 
L 136.3116 180.43 
L 151.6116 185.53 
L 136.3116 190.63 
L 151.6116 195.73 
L 136.3116 200.83 
L 143.9616 203.38 
L 143.9616 233.98 
" clip-path="url(#p000c525978)" style="fill: none; stroke: #000000; stroke-linecap: round"/>
   </g>
   <g id="line2d_22">
    <path d="M 52.1616 233.98 
L 143.9616 233.98 
L 235.7616 233.98 
" clip-path="url(#p000c525978)" style="fill: none; stroke: #000000; stroke-linecap: round"/>
   </g>
   <g id="line2d_23">
    <path d="M 52.1616 142.18 
L 52.1616 96.28 
L 52.1616 50.38 
" clip-path="url(#p000c525978)" style="fill: none; stroke: #000000; stroke-linecap: round"/>
   </g>
   <g id="line2d_24">
    <path d="M 52.1616 50.38 
L 75.1116 50.38 
L 98.0616 50.38 
" clip-path="url(#p000c525978)" style="fill: none; stroke: #000000; stroke-linecap: round"/>
   </g>
   <g id="line2d_25">
    <path d="M 98.0616 50.38 
L 128.6616 50.38 
L 128.6616 50.38 
M 159.2616 50.38 
L 159.2616 50.38 
L 189.8616 50.38 
" clip-path="url(#p000c525978)" style="fill: none; stroke: #000000; stroke-linecap: round"/>
   </g>
   <g id="line2d_26">
    <path d="M 136.3116 50.38 
L 143.9616 50.38 
" clip-path="url(#p000c525978)" style="fill: none; stroke: #000000; stroke-linecap: round"/>
   </g>
   <g id="patch_13">
    <path d="M 143.9616 48.085 
L 151.6116 50.38 
L 143.9616 52.675 
z
" clip-path="url(#p000c525978)"/>
   </g>
   <g id="line2d_27">
    <path d="M 189.8616 50.38 
L 212.8116 50.38 
L 235.7616 50.38 
" clip-path="url(#p000c525978)" style="fill: none; stroke: #000000; stroke-linecap: round"/>
   </g>
   <g id="line2d_28">
    <path d="M 235.7616 50.38 
L 235.7616 96.28 
L 235.7616 142.18 
" clip-path="url(#p000c525978)" style="fill: none; stroke: #000000; stroke-linecap: round"/>
   </g>
   <g id="text_1">
    <g clip-path="url(#p000c525978)">
     <!-- 3 A -->
     <g transform="translate(13.325038 191.529219) scale(0.125 -0.125)">
      <defs>
       <path id="DejaVuSans-33" d="M 2597 2516 
Q 3050 2419 3304 2112 
Q 3559 1806 3559 1356 
Q 3559 666 3084 287 
Q 2609 -91 1734 -91 
Q 1441 -91 1130 -33 
Q 819 25 488 141 
L 488 750 
Q 750 597 1062 519 
Q 1375 441 1716 441 
Q 2309 441 2620 675 
Q 2931 909 2931 1356 
Q 2931 1769 2642 2001 
Q 2353 2234 1838 2234 
L 1294 2234 
L 1294 2753 
L 1863 2753 
Q 2328 2753 2575 2939 
Q 2822 3125 2822 3475 
Q 2822 3834 2567 4026 
Q 2313 4219 1838 4219 
Q 1578 4219 1281 4162 
Q 984 4106 628 3988 
L 628 4550 
Q 988 4650 1302 4700 
Q 1616 4750 1894 4750 
Q 2613 4750 3031 4423 
Q 3450 4097 3450 3541 
Q 3450 3153 3228 2886 
Q 3006 2619 2597 2516 
z
" transform="scale(0.015625)"/>
       <path id="DejaVuSans-20" transform="scale(0.015625)"/>
       <path id="DejaVuSans-41" d="M 2188 4044 
L 1331 1722 
L 3047 1722 
L 2188 4044 
z
M 1831 4666 
L 2547 4666 
L 4325 0 
L 3669 0 
L 3244 1197 
L 1141 1197 
L 716 0 
L 50 0 
L 1831 4666 
z
" transform="scale(0.015625)"/>
      </defs>
      <use xlink:href="#DejaVuSans-33"/>
      <use xlink:href="#DejaVuSans-20" x="63.623047"/>
      <use xlink:href="#DejaVuSans-41" x="95.410156"/>
     </g>
    </g>
   </g>
   <g id="text_2">
    <g clip-path="url(#p000c525978)">
     <!-- + -->
     <g transform="translate(69.874295 128.870391) scale(0.125 -0.125)">
      <defs>
       <path id="DejaVuSans-2b" d="M 2944 4013 
L 2944 2272 
L 4684 2272 
L 4684 1741 
L 2944 1741 
L 2944 0 
L 2419 0 
L 2419 1741 
L 678 1741 
L 678 2272 
L 2419 2272 
L 2419 4013 
L 2944 4013 
z
" transform="scale(0.015625)"/>
      </defs>
      <use xlink:href="#DejaVuSans-2b"/>
     </g>
    </g>
   </g>
   <g id="text_3">
    <g clip-path="url(#p000c525978)">
     <!-- $4V$ -->
     <g transform="translate(91.0616 128.870391) scale(0.125 -0.125)">
      <defs>
       <path id="STIXGeneral-Regular-34" d="M 3027 1069 
L 2368 1069 
L 2368 0 
L 1869 0 
L 1869 1069 
L 77 1069 
L 77 1478 
L 2086 4326 
L 2368 4326 
L 2368 1478 
L 3027 1478 
L 3027 1069 
z
M 1869 1478 
L 1869 3674 
L 333 1478 
L 1869 1478 
z
" transform="scale(0.015625)"/>
       <path id="STIXGeneral-Italic-56" d="M 4403 4179 
L 4403 4077 
Q 4198 4070 4045 3821 
L 1658 -115 
L 1536 -115 
L 1011 3104 
Q 902 3776 828 3910 
Q 755 4045 486 4077 
L 486 4179 
L 2022 4179 
L 2022 4077 
Q 1722 4045 1629 3981 
Q 1536 3917 1536 3750 
Q 1536 3686 1542 3654 
L 1958 819 
L 3302 3123 
Q 3616 3661 3616 3859 
Q 3616 4032 3219 4077 
L 3219 4179 
L 4403 4179 
z
" transform="scale(0.015625)"/>
      </defs>
      <use xlink:href="#STIXGeneral-Regular-34" transform="translate(0 0.40625)"/>
      <use xlink:href="#STIXGeneral-Italic-56" transform="translate(49.999985 0.40625)"/>
     </g>
    </g>
   </g>
   <g id="text_4">
    <g clip-path="url(#p000c525978)">
     <!-- - -->
     <g transform="translate(118.756717 128.870391) scale(0.125 -0.125)">
      <defs>
       <path id="DejaVuSans-2d" d="M 313 2009 
L 1997 2009 
L 1997 1497 
L 313 1497 
L 313 2009 
z
" transform="scale(0.015625)"/>
      </defs>
      <use xlink:href="#DejaVuSans-2d"/>
     </g>
    </g>
   </g>
   <g id="text_5">
    <g clip-path="url(#p000c525978)">
     <!-- + -->
     <g transform="translate(161.674295 128.870391) scale(0.125 -0.125)">
      <use xlink:href="#DejaVuSans-2b"/>
     </g>
    </g>
   </g>
   <g id="text_6">
    <g clip-path="url(#p000c525978)">
     <!-- $-3V$ -->
     <g transform="translate(178.6116 128.870391) scale(0.125 -0.125)">
      <defs>
       <path id="STIXGeneral-Regular-2212" d="M 3974 1408 
L 410 1408 
L 410 1830 
L 3974 1830 
L 3974 1408 
z
" transform="scale(0.015625)"/>
       <path id="STIXGeneral-Regular-33" d="M 390 3264 
L 288 3290 
Q 435 3770 748 4048 
Q 1062 4326 1542 4326 
Q 1990 4326 2265 4083 
Q 2541 3840 2541 3450 
Q 2541 2925 1946 2566 
Q 2298 2413 2477 2227 
Q 2758 1914 2758 1402 
Q 2758 890 2464 506 
Q 2246 211 1840 60 
Q 1434 -90 979 -90 
Q 262 -90 262 275 
Q 262 378 339 442 
Q 416 506 525 506 
Q 685 506 915 339 
Q 1197 141 1466 141 
Q 1818 141 2058 425 
Q 2298 710 2298 1120 
Q 2298 1856 1632 2048 
Q 1434 2112 979 2112 
L 979 2202 
Q 1338 2323 1517 2432 
Q 2035 2726 2035 3290 
Q 2035 3610 1852 3776 
Q 1670 3942 1344 3942 
Q 768 3942 390 3264 
z
" transform="scale(0.015625)"/>
      </defs>
      <use xlink:href="#STIXGeneral-Regular-2212" transform="translate(0 0.40625)"/>
      <use xlink:href="#STIXGeneral-Regular-33" transform="translate(68.499985 0.40625)"/>
      <use xlink:href="#STIXGeneral-Italic-56" transform="translate(118.499969 0.40625)"/>
     </g>
    </g>
   </g>
   <g id="text_7">
    <g clip-path="url(#p000c525978)">
     <!-- - -->
     <g transform="translate(210.556717 128.870391) scale(0.125 -0.125)">
      <use xlink:href="#DejaVuSans-2d"/>
     </g>
    </g>
   </g>
   <g id="text_8">
    <g clip-path="url(#p000c525978)">
     <!-- -1.5 A -->
     <g transform="translate(254.1216 191.529219) scale(0.125 -0.125)">
      <defs>
       <path id="DejaVuSans-31" d="M 794 531 
L 1825 531 
L 1825 4091 
L 703 3866 
L 703 4441 
L 1819 4666 
L 2450 4666 
L 2450 531 
L 3481 531 
L 3481 0 
L 794 0 
L 794 531 
z
" transform="scale(0.015625)"/>
       <path id="DejaVuSans-2e" d="M 684 794 
L 1344 794 
L 1344 0 
L 684 0 
L 684 794 
z
" transform="scale(0.015625)"/>
       <path id="DejaVuSans-35" d="M 691 4666 
L 3169 4666 
L 3169 4134 
L 1269 4134 
L 1269 2991 
Q 1406 3038 1543 3061 
Q 1681 3084 1819 3084 
Q 2600 3084 3056 2656 
Q 3513 2228 3513 1497 
Q 3513 744 3044 326 
Q 2575 -91 1722 -91 
Q 1428 -91 1123 -41 
Q 819 9 494 109 
L 494 744 
Q 775 591 1075 516 
Q 1375 441 1709 441 
Q 2250 441 2565 725 
Q 2881 1009 2881 1497 
Q 2881 1984 2565 2268 
Q 2250 2553 1709 2553 
Q 1456 2553 1204 2497 
Q 953 2441 691 2322 
L 691 4666 
z
" transform="scale(0.015625)"/>
      </defs>
      <use xlink:href="#DejaVuSans-2d"/>
      <use xlink:href="#DejaVuSans-31" x="36.083984"/>
      <use xlink:href="#DejaVuSans-2e" x="99.707031"/>
      <use xlink:href="#DejaVuSans-35" x="131.494141"/>
      <use xlink:href="#DejaVuSans-20" x="195.117188"/>
      <use xlink:href="#DejaVuSans-41" x="226.904297"/>
     </g>
    </g>
   </g>
   <g id="text_9">
    <g clip-path="url(#p000c525978)">
     <!-- + -->
     <g transform="translate(122.776991 168.579219) scale(0.125 -0.125)">
      <use xlink:href="#DejaVuSans-2b"/>
     </g>
    </g>
   </g>
   <g id="text_10">
    <g clip-path="url(#p000c525978)">
     <!-- $12V$ -->
     <g transform="translate(113.0016 191.529219) scale(0.125 -0.125)">
      <defs>
       <path id="STIXGeneral-Regular-31" d="M 2522 0 
L 755 0 
L 755 96 
Q 1107 115 1235 227 
Q 1363 339 1363 608 
L 1363 3482 
Q 1363 3795 1171 3795 
Q 1082 3795 883 3718 
L 710 3654 
L 710 3744 
L 1856 4326 
L 1914 4307 
L 1914 486 
Q 1914 275 2042 185 
Q 2170 96 2522 96 
L 2522 0 
z
" transform="scale(0.015625)"/>
       <path id="STIXGeneral-Regular-32" d="M 3034 877 
L 2688 0 
L 186 0 
L 186 77 
L 1325 1286 
Q 1773 1754 1965 2144 
Q 2157 2534 2157 2950 
Q 2157 3379 1920 3616 
Q 1683 3853 1267 3853 
Q 922 3853 720 3673 
Q 518 3494 326 3021 
L 192 3053 
Q 301 3648 630 3987 
Q 960 4326 1523 4326 
Q 2054 4326 2380 4006 
Q 2707 3686 2707 3200 
Q 2707 2477 1888 1613 
L 832 486 
L 2330 486 
Q 2541 486 2665 569 
Q 2790 653 2944 915 
L 3034 877 
z
" transform="scale(0.015625)"/>
      </defs>
      <use xlink:href="#STIXGeneral-Regular-31" transform="translate(0 0.40625)"/>
      <use xlink:href="#STIXGeneral-Regular-32" transform="translate(49.999985 0.40625)"/>
      <use xlink:href="#STIXGeneral-Italic-56" transform="translate(99.999969 0.40625)"/>
     </g>
    </g>
   </g>
   <g id="text_11">
    <g clip-path="url(#p000c525978)">
     <!-- - -->
     <g transform="translate(128.741834 214.479219) scale(0.125 -0.125)">
      <use xlink:href="#DejaVuSans-2d"/>
     </g>
    </g>
   </g>
   <g id="text_12">
    <g clip-path="url(#p000c525978)">
     <!-- 2 A -->
     <g transform="translate(133.723319 29.420391) scale(0.125 -0.125)">
      <defs>
       <path id="DejaVuSans-32" d="M 1228 531 
L 3431 531 
L 3431 0 
L 469 0 
L 469 531 
Q 828 903 1448 1529 
Q 2069 2156 2228 2338 
Q 2531 2678 2651 2914 
Q 2772 3150 2772 3378 
Q 2772 3750 2511 3984 
Q 2250 4219 1831 4219 
Q 1534 4219 1204 4116 
Q 875 4013 500 3803 
L 500 4441 
Q 881 4594 1212 4672 
Q 1544 4750 1819 4750 
Q 2544 4750 2975 4387 
Q 3406 4025 3406 3419 
Q 3406 3131 3298 2873 
Q 3191 2616 2906 2266 
Q 2828 2175 2409 1742 
Q 1991 1309 1228 531 
z
" transform="scale(0.015625)"/>
      </defs>
      <use xlink:href="#DejaVuSans-32"/>
      <use xlink:href="#DejaVuSans-20" x="63.623047"/>
      <use xlink:href="#DejaVuSans-41" x="95.410156"/>
     </g>
    </g>
   </g>
   <g id="text_13">
    <g clip-path="url(#p000c525978)">
     <!-- 3 A -->
     <g transform="translate(13.325038 191.529219) scale(0.125 -0.125)">
      <use xlink:href="#DejaVuSans-33"/>
      <use xlink:href="#DejaVuSans-20" x="63.623047"/>
      <use xlink:href="#DejaVuSans-41" x="95.410156"/>
     </g>
    </g>
   </g>
   <g id="text_14">
    <g clip-path="url(#p000c525978)">
     <!-- + -->
     <g transform="translate(69.874295 128.870391) scale(0.125 -0.125)">
      <use xlink:href="#DejaVuSans-2b"/>
     </g>
    </g>
   </g>
   <g id="text_15">
    <g clip-path="url(#p000c525978)">
     <!-- $4V$ -->
     <g transform="translate(91.0616 128.870391) scale(0.125 -0.125)">
      <use xlink:href="#STIXGeneral-Regular-34" transform="translate(0 0.40625)"/>
      <use xlink:href="#STIXGeneral-Italic-56" transform="translate(49.999985 0.40625)"/>
     </g>
    </g>
   </g>
   <g id="text_16">
    <g clip-path="url(#p000c525978)">
     <!-- - -->
     <g transform="translate(118.756717 128.870391) scale(0.125 -0.125)">
      <use xlink:href="#DejaVuSans-2d"/>
     </g>
    </g>
   </g>
   <g id="text_17">
    <g clip-path="url(#p000c525978)">
     <!-- + -->
     <g transform="translate(161.674295 128.870391) scale(0.125 -0.125)">
      <use xlink:href="#DejaVuSans-2b"/>
     </g>
    </g>
   </g>
   <g id="text_18">
    <g clip-path="url(#p000c525978)">
     <!-- $-3V$ -->
     <g transform="translate(178.6116 128.870391) scale(0.125 -0.125)">
      <use xlink:href="#STIXGeneral-Regular-2212" transform="translate(0 0.40625)"/>
      <use xlink:href="#STIXGeneral-Regular-33" transform="translate(68.499985 0.40625)"/>
      <use xlink:href="#STIXGeneral-Italic-56" transform="translate(118.499969 0.40625)"/>
     </g>
    </g>
   </g>
   <g id="text_19">
    <g clip-path="url(#p000c525978)">
     <!-- - -->
     <g transform="translate(210.556717 128.870391) scale(0.125 -0.125)">
      <use xlink:href="#DejaVuSans-2d"/>
     </g>
    </g>
   </g>
   <g id="text_20">
    <g clip-path="url(#p000c525978)">
     <!-- -1.5 A -->
     <g transform="translate(254.1216 191.529219) scale(0.125 -0.125)">
      <use xlink:href="#DejaVuSans-2d"/>
      <use xlink:href="#DejaVuSans-31" x="36.083984"/>
      <use xlink:href="#DejaVuSans-2e" x="99.707031"/>
      <use xlink:href="#DejaVuSans-35" x="131.494141"/>
      <use xlink:href="#DejaVuSans-20" x="195.117188"/>
      <use xlink:href="#DejaVuSans-41" x="226.904297"/>
     </g>
    </g>
   </g>
   <g id="text_21">
    <g clip-path="url(#p000c525978)">
     <!-- + -->
     <g transform="translate(122.776991 168.579219) scale(0.125 -0.125)">
      <use xlink:href="#DejaVuSans-2b"/>
     </g>
    </g>
   </g>
   <g id="text_22">
    <g clip-path="url(#p000c525978)">
     <!-- $12V$ -->
     <g transform="translate(113.0016 191.529219) scale(0.125 -0.125)">
      <use xlink:href="#STIXGeneral-Regular-31" transform="translate(0 0.40625)"/>
      <use xlink:href="#STIXGeneral-Regular-32" transform="translate(49.999985 0.40625)"/>
      <use xlink:href="#STIXGeneral-Italic-56" transform="translate(99.999969 0.40625)"/>
     </g>
    </g>
   </g>
   <g id="text_23">
    <g clip-path="url(#p000c525978)">
     <!-- - -->
     <g transform="translate(128.741834 214.479219) scale(0.125 -0.125)">
      <use xlink:href="#DejaVuSans-2d"/>
     </g>
    </g>
   </g>
   <g id="text_24">
    <g clip-path="url(#p000c525978)">
     <!-- 2 A -->
     <g transform="translate(133.723319 29.420391) scale(0.125 -0.125)">
      <use xlink:href="#DejaVuSans-32"/>
      <use xlink:href="#DejaVuSans-20" x="63.623047"/>
      <use xlink:href="#DejaVuSans-41" x="95.410156"/>
     </g>
    </g>
   </g>
  </g>
 </g>
 <defs>
  <clipPath id="p000c525978">
   <rect x="7.2" y="7.2" width="294.2802" height="229.84"/>
  </clipPath>
 </defs>
</svg>
