<?xml version="1.0" encoding="utf-8" standalone="no"?>
<!DOCTYPE svg PUBLIC "-//W3C//DTD SVG 1.1//EN"
  "http://www.w3.org/Graphics/SVG/1.1/DTD/svg11.dtd">
<svg xmlns:xlink="http://www.w3.org/1999/xlink" width="308.6802pt" height="244.24pt" viewBox="0 0 308.6802 244.24" xmlns="http://www.w3.org/2000/svg" version="1.1">
 <metadata>
  <rdf:RDF xmlns:dc="http://purl.org/dc/elements/1.1/" xmlns:cc="http://creativecommons.org/ns#" xmlns:rdf="http://www.w3.org/1999/02/22-rdf-syntax-ns#">
   <cc:Work>
    <dc:type rdf:resource="http://purl.org/dc/dcmitype/StillImage"/>
    <dc:date>2022-11-20T16:46:53.009257</dc:date>
    <dc:format>image/svg+xml</dc:format>
    <dc:creator>
     <cc:Agent>
      <dc:title>Matplotlib v3.5.2, https://matplotlib.org/</dc:title>
     </cc:Agent>
    </dc:creator>
   </cc:Work>
  </rdf:RDF>
 </metadata>
 <defs>
  <style type="text/css">*{stroke-linejoin: round; stroke-linecap: butt}</style>
 </defs>
 <g id="figure_1">
  <g id="patch_1">
   <path d="M 0 244.24 
L 308.6802 244.24 
L 308.6802 0 
L 0 0 
z
" style="fill: #ffffff"/>
  </g>
  <g id="axes_1">
   <g id="patch_2">
    <path d="M 52.1616 203.38 
C 56.219207 203.38 60.111172 201.767895 62.980334 198.898734 
C 65.849495 196.029572 67.4616 192.137607 67.4616 188.08 
C 67.4616 184.022393 65.849495 180.130428 62.980334 177.261266 
C 60.111172 174.392105 56.219207 172.78 52.1616 172.78 
C 48.103993 172.78 44.212028 174.392105 41.342866 177.261266 
C 38.473705 180.130428 36.8616 184.022393 36.8616 188.08 
C 36.8616 192.137607 38.473705 196.029572 41.342866 198.898734 
C 44.212028 201.767895 48.103993 203.38 52.1616 203.38 
L 52.1616 203.38 
z
" clip-path="url(#pfa8c6e7cc8)" style="fill: none; stroke: #000000; stroke-linejoin: miter"/>
   </g>
   <g id="patch_3">
    <path d="M 235.7616 203.38 
C 239.819207 203.38 243.711172 201.767895 246.580334 198.898734 
C 249.449495 196.029572 251.0616 192.137607 251.0616 188.08 
C 251.0616 184.022393 249.449495 180.130428 246.580334 177.261266 
C 243.711172 174.392105 239.819207 172.78 235.7616 172.78 
C 231.703993 172.78 227.812028 174.392105 224.942866 177.261266 
C 222.073705 180.130428 220.4616 184.022393 220.4616 188.08 
C 220.4616 192.137607 222.073705 196.029572 224.942866 198.898734 
C 227.812028 201.767895 231.703993 203.38 235.7616 203.38 
L 235.7616 203.38 
z
" clip-path="url(#pfa8c6e7cc8)" style="fill: none; stroke: #000000; stroke-linejoin: miter"/>
   </g>
   <g id="patch_4">
    <path d="M 143.9616 65.68 
C 148.019207 65.68 151.911172 64.067895 154.780334 61.198734 
C 157.649495 58.329572 159.2616 54.437607 159.2616 50.38 
C 159.2616 46.322393 157.649495 42.430428 154.780334 39.561266 
C 151.911172 36.692105 148.019207 35.08 143.9616 35.08 
C 139.903993 35.08 136.012028 36.692105 133.142866 39.561266 
C 130.273705 42.430428 128.6616 46.322393 128.6616 50.38 
C 128.6616 54.437607 130.273705 58.329572 133.142866 61.198734 
C 136.012028 64.067895 139.903993 65.68 143.9616 65.68 
L 143.9616 65.68 
z
" clip-path="url(#pfa8c6e7cc8)" style="fill: none; stroke: #000000; stroke-linejoin: miter"/>
   </g>
   <g id="patch_5">
    <path d="M 52.1616 203.38 
C 56.219207 203.38 60.111172 201.767895 62.980334 198.898734 
C 65.849495 196.029572 67.4616 192.137607 67.4616 188.08 
C 67.4616 184.022393 65.849495 180.130428 62.980334 177.261266 
C 60.111172 174.392105 56.219207 172.78 52.1616 172.78 
C 48.103993 172.78 44.212028 174.392105 41.342866 177.261266 
C 38.473705 180.130428 36.8616 184.022393 36.8616 188.08 
C 36.8616 192.137607 38.473705 196.029572 41.342866 198.898734 
C 44.212028 201.767895 48.103993 203.38 52.1616 203.38 
L 52.1616 203.38 
z
" clip-path="url(#pfa8c6e7cc8)" style="fill: none; stroke: #000000; stroke-linejoin: miter"/>
   </g>
   <g id="patch_6">
    <path d="M 235.7616 203.38 
C 239.819207 203.38 243.711172 201.767895 246.580334 198.898734 
C 249.449495 196.029572 251.0616 192.137607 251.0616 188.08 
C 251.0616 184.022393 249.449495 180.130428 246.580334 177.261266 
C 243.711172 174.392105 239.819207 172.78 235.7616 172.78 
C 231.703993 172.78 227.812028 174.392105 224.942866 177.261266 
C 222.073705 180.130428 220.4616 184.022393 220.4616 188.08 
C 220.4616 192.137607 222.073705 196.029572 224.942866 198.898734 
C 227.812028 201.767895 231.703993 203.38 235.7616 203.38 
L 235.7616 203.38 
z
" clip-path="url(#pfa8c6e7cc8)" style="fill: none; stroke: #000000; stroke-linejoin: miter"/>
   </g>
   <g id="patch_7">
    <path d="M 143.9616 65.68 
C 148.019207 65.68 151.911172 64.067895 154.780334 61.198734 
C 157.649495 58.329572 159.2616 54.437607 159.2616 50.38 
C 159.2616 46.322393 157.649495 42.430428 154.780334 39.561266 
C 151.911172 36.692105 148.019207 35.08 143.9616 35.08 
C 139.903993 35.08 136.012028 36.692105 133.142866 39.561266 
C 130.273705 42.430428 128.6616 46.322393 128.6616 50.38 
C 128.6616 54.437607 130.273705 58.329572 133.142866 61.198734 
C 136.012028 64.067895 139.903993 65.68 143.9616 65.68 
L 143.9616 65.68 
z
" clip-path="url(#pfa8c6e7cc8)" style="fill: none; stroke: #000000; stroke-linejoin: miter"/>
   </g>
   <g id="line2d_1">
    <path d="M 52.1616 233.98 
L 52.1616 203.38 
L 52.1616 203.38 
M 52.1616 172.78 
L 52.1616 172.78 
L 52.1616 142.18 
" clip-path="url(#pfa8c6e7cc8)" style="fill: none; stroke: #000000; stroke-linecap: round"/>
   </g>
   <g id="line2d_2">
    <path d="M 52.1616 195.73 
L 52.1616 188.08 
" clip-path="url(#pfa8c6e7cc8)" style="fill: none; stroke: #000000; stroke-linecap: round"/>
   </g>
   <g id="patch_8">
    <path d="M 49.8666 188.08 
L 52.1616 180.43 
L 54.4566 188.08 
z
" clip-path="url(#pfa8c6e7cc8)"/>
   </g>
   <g id="line2d_3">
    <path d="M 52.1616 142.18 
L 82.7616 142.18 
L 85.3116 134.53 
L 90.4116 149.83 
L 95.5116 134.53 
L 100.6116 149.83 
L 105.7116 134.53 
L 110.8116 149.83 
L 113.3616 142.18 
L 143.9616 142.18 
" clip-path="url(#pfa8c6e7cc8)" style="fill: none; stroke: #000000; stroke-linecap: round"/>
   </g>
   <g id="line2d_4">
    <path d="M 143.9616 142.18 
L 174.5616 142.18 
L 177.1116 134.53 
L 182.2116 149.83 
L 187.3116 134.53 
L 192.4116 149.83 
L 197.5116 134.53 
L 202.6116 149.83 
L 205.1616 142.18 
L 235.7616 142.18 
" clip-path="url(#pfa8c6e7cc8)" style="fill: none; stroke: #000000; stroke-linecap: round"/>
   </g>
   <g id="line2d_5">
    <path d="M 235.7616 142.18 
L 235.7616 172.78 
L 235.7616 172.78 
M 235.7616 203.38 
L 235.7616 203.38 
L 235.7616 233.98 
" clip-path="url(#pfa8c6e7cc8)" style="fill: none; stroke: #000000; stroke-linecap: round"/>
   </g>
   <g id="line2d_6">
    <path d="M 235.7616 188.08 
L 235.7616 195.73 
" clip-path="url(#pfa8c6e7cc8)" style="fill: none; stroke: #000000; stroke-linecap: round"/>
   </g>
   <g id="patch_9">
    <path d="M 233.4666 188.08 
L 235.7616 180.43 
L 238.0566 188.08 
z
" clip-path="url(#pfa8c6e7cc8)"/>
   </g>
   <g id="line2d_7">
    <path d="M 143.9616 142.18 
L 143.9616 172.78 
L 151.6116 175.33 
L 136.3116 180.43 
L 151.6116 185.53 
L 136.3116 190.63 
L 151.6116 195.73 
L 136.3116 200.83 
L 143.9616 203.38 
L 143.9616 233.98 
" clip-path="url(#pfa8c6e7cc8)" style="fill: none; stroke: #000000; stroke-linecap: round"/>
   </g>
   <g id="line2d_8">
    <path d="M 52.1616 233.98 
L 143.9616 233.98 
L 235.7616 233.98 
" clip-path="url(#pfa8c6e7cc8)" style="fill: none; stroke: #000000; stroke-linecap: round"/>
   </g>
   <g id="line2d_9">
    <path d="M 52.1616 142.18 
L 52.1616 96.28 
L 52.1616 50.38 
" clip-path="url(#pfa8c6e7cc8)" style="fill: none; stroke: #000000; stroke-linecap: round"/>
   </g>
   <g id="line2d_10">
    <path d="M 52.1616 50.38 
L 75.1116 50.38 
L 98.0616 50.38 
" clip-path="url(#pfa8c6e7cc8)" style="fill: none; stroke: #000000; stroke-linecap: round"/>
   </g>
   <g id="line2d_11">
    <path d="M 98.0616 50.38 
L 128.6616 50.38 
L 128.6616 50.38 
M 159.2616 50.38 
L 159.2616 50.38 
L 189.8616 50.38 
" clip-path="url(#pfa8c6e7cc8)" style="fill: none; stroke: #000000; stroke-linecap: round"/>
   </g>
   <g id="line2d_12">
    <path d="M 136.3116 50.38 
L 143.9616 50.38 
" clip-path="url(#pfa8c6e7cc8)" style="fill: none; stroke: #000000; stroke-linecap: round"/>
   </g>
   <g id="patch_10">
    <path d="M 143.9616 48.085 
L 151.6116 50.38 
L 143.9616 52.675 
z
" clip-path="url(#pfa8c6e7cc8)"/>
   </g>
   <g id="line2d_13">
    <path d="M 189.8616 50.38 
L 212.8116 50.38 
L 235.7616 50.38 
" clip-path="url(#pfa8c6e7cc8)" style="fill: none; stroke: #000000; stroke-linecap: round"/>
   </g>
   <g id="line2d_14">
    <path d="M 235.7616 50.38 
L 235.7616 96.28 
L 235.7616 142.18 
" clip-path="url(#pfa8c6e7cc8)" style="fill: none; stroke: #000000; stroke-linecap: round"/>
   </g>
   <g id="line2d_15">
    <path d="M 52.1616 233.98 
L 52.1616 203.38 
L 52.1616 203.38 
M 52.1616 172.78 
L 52.1616 172.78 
L 52.1616 142.18 
" clip-path="url(#pfa8c6e7cc8)" style="fill: none; stroke: #000000; stroke-linecap: round"/>
   </g>
   <g id="line2d_16">
    <path d="M 52.1616 195.73 
L 52.1616 188.08 
" clip-path="url(#pfa8c6e7cc8)" style="fill: none; stroke: #000000; stroke-linecap: round"/>
   </g>
   <g id="patch_11">
    <path d="M 49.8666 188.08 
L 52.1616 180.43 
L 54.4566 188.08 
z
" clip-path="url(#pfa8c6e7cc8)"/>
   </g>
   <g id="line2d_17">
    <path d="M 52.1616 142.18 
L 82.7616 142.18 
L 85.3116 134.53 
L 90.4116 149.83 
L 95.5116 134.53 
L 100.6116 149.83 
L 105.7116 134.53 
L 110.8116 149.83 
L 113.3616 142.18 
L 143.9616 142.18 
" clip-path="url(#pfa8c6e7cc8)" style="fill: none; stroke: #000000; stroke-linecap: round"/>
   </g>
   <g id="line2d_18">
    <path d="M 143.9616 142.18 
L 174.5616 142.18 
L 177.1116 134.53 
L 182.2116 149.83 
L 187.3116 134.53 
L 192.4116 149.83 
L 197.5116 134.53 
L 202.6116 149.83 
L 205.1616 142.18 
L 235.7616 142.18 
" clip-path="url(#pfa8c6e7cc8)" style="fill: none; stroke: #000000; stroke-linecap: round"/>
   </g>
   <g id="line2d_19">
    <path d="M 235.7616 142.18 
L 235.7616 172.78 
L 235.7616 172.78 
M 235.7616 203.38 
L 235.7616 203.38 
L 235.7616 233.98 
" clip-path="url(#pfa8c6e7cc8)" style="fill: none; stroke: #000000; stroke-linecap: round"/>
   </g>
   <g id="line2d_20">
    <path d="M 235.7616 188.08 
L 235.7616 195.73 
" clip-path="url(#pfa8c6e7cc8)" style="fill: none; stroke: #000000; stroke-linecap: round"/>
   </g>
   <g id="patch_12">
    <path d="M 233.4666 188.08 
L 235.7616 180.43 
L 238.0566 188.08 
z
" clip-path="url(#pfa8c6e7cc8)"/>
   </g>
   <g id="line2d_21">
    <path d="M 143.9616 142.18 
L 143.9616 172.78 
L 151.6116 175.33 
L 136.3116 180.43 
L 151.6116 185.53 
L 136.3116 190.63 
L 151.6116 195.73 
L 136.3116 200.83 
L 143.9616 203.38 
L 143.9616 233.98 
" clip-path="url(#pfa8c6e7cc8)" style="fill: none; stroke: #000000; stroke-linecap: round"/>
   </g>
   <g id="line2d_22">
    <path d="M 52.1616 233.98 
L 143.9616 233.98 
L 235.7616 233.98 
" clip-path="url(#pfa8c6e7cc8)" style="fill: none; stroke: #000000; stroke-linecap: round"/>
   </g>
   <g id="line2d_23">
    <path d="M 52.1616 142.18 
L 52.1616 96.28 
L 52.1616 50.38 
" clip-path="url(#pfa8c6e7cc8)" style="fill: none; stroke: #000000; stroke-linecap: round"/>
   </g>
   <g id="line2d_24">
    <path d="M 52.1616 50.38 
L 75.1116 50.38 
L 98.0616 50.38 
" clip-path="url(#pfa8c6e7cc8)" style="fill: none; stroke: #000000; stroke-linecap: round"/>
   </g>
   <g id="line2d_25">
    <path d="M 98.0616 50.38 
L 128.6616 50.38 
L 128.6616 50.38 
M 159.2616 50.38 
L 159.2616 50.38 
L 189.8616 50.38 
" clip-path="url(#pfa8c6e7cc8)" style="fill: none; stroke: #000000; stroke-linecap: round"/>
   </g>
   <g id="line2d_26">
    <path d="M 136.3116 50.38 
L 143.9616 50.38 
" clip-path="url(#pfa8c6e7cc8)" style="fill: none; stroke: #000000; stroke-linecap: round"/>
   </g>
   <g id="patch_13">
    <path d="M 143.9616 48.085 
L 151.6116 50.38 
L 143.9616 52.675 
z
" clip-path="url(#pfa8c6e7cc8)"/>
   </g>
   <g id="line2d_27">
    <path d="M 189.8616 50.38 
L 212.8116 50.38 
L 235.7616 50.38 
" clip-path="url(#pfa8c6e7cc8)" style="fill: none; stroke: #000000; stroke-linecap: round"/>
   </g>
   <g id="line2d_28">
    <path d="M 235.7616 50.38 
L 235.7616 96.28 
L 235.7616 142.18 
" clip-path="url(#pfa8c6e7cc8)" style="fill: none; stroke: #000000; stroke-linecap: round"/>
   </g>
   <g id="text_1">
    <g clip-path="url(#pfa8c6e7cc8)">
     <!-- 3 A -->
     <g transform="translate(15.399256 191.003828)scale(0.125 -0.125)">
      <defs>
       <path id="Times-Roman-33" d="M 497 544 
Q 669 544 951 366 
Q 1234 188 1431 188 
Q 1869 188 2081 483 
Q 2294 778 2294 1125 
Q 2294 1459 2122 1713 
Q 1831 2141 1141 2141 
Q 1100 2141 1062 2139 
Q 1025 2138 975 2131 
L 969 2213 
Q 1469 2394 1756 2628 
Q 2044 2863 2044 3247 
Q 2044 3588 1817 3766 
Q 1591 3944 1300 3944 
Q 956 3944 694 3691 
Q 550 3553 384 3266 
L 288 3288 
Q 413 3763 753 4047 
Q 1094 4331 1541 4331 
Q 2019 4331 2280 4068 
Q 2541 3806 2541 3463 
Q 2541 3159 2325 2906 
Q 2203 2763 1947 2584 
Q 2247 2456 2428 2284 
Q 2769 1956 2769 1453 
Q 2769 859 2301 406 
Q 1834 -47 972 -47 
Q 588 -47 433 67 
Q 278 181 278 313 
Q 278 394 329 469 
Q 381 544 497 544 
z
" transform="scale(0.015625)"/>
       <path id="Times-Roman-20" transform="scale(0.015625)"/>
       <path id="Times-Roman-41" d="M 2856 1644 
L 2116 3406 
L 1384 1644 
L 2856 1644 
z
M 94 0 
L 94 116 
Q 341 144 464 303 
Q 588 463 888 1169 
L 2222 4309 
L 2347 4309 
L 3941 681 
Q 4100 319 4195 233 
Q 4291 147 4516 116 
L 4516 0 
L 2888 0 
L 2888 116 
Q 3169 141 3250 177 
Q 3331 213 3331 353 
Q 3331 400 3300 519 
Q 3269 638 3213 769 
L 2947 1384 
L 1272 1384 
Q 1022 756 973 617 
Q 925 478 925 397 
Q 925 234 1056 172 
Q 1138 134 1363 116 
L 1363 0 
L 94 0 
z
M 2284 4309 
L 2284 4309 
z
" transform="scale(0.015625)"/>
      </defs>
      <use xlink:href="#Times-Roman-33"/>
      <use xlink:href="#Times-Roman-20" x="50"/>
      <use xlink:href="#Times-Roman-41" x="75"/>
     </g>
    </g>
   </g>
   <g id="text_2">
    <g clip-path="url(#pfa8c6e7cc8)">
     <!-- + -->
     <g transform="translate(71.587186 128.747344)scale(0.125 -0.125)">
      <defs>
       <path id="Times-Roman-2b" d="M 1591 3234 
L 2028 3234 
L 2028 1834 
L 3422 1834 
L 3422 1397 
L 2028 1397 
L 2028 0 
L 1591 0 
L 1591 1397 
L 191 1397 
L 191 1834 
L 1591 1834 
L 1591 3234 
z
" transform="scale(0.015625)"/>
      </defs>
      <use xlink:href="#Times-Roman-2b"/>
     </g>
    </g>
   </g>
   <g id="text_3">
    <g clip-path="url(#pfa8c6e7cc8)">
     <!-- $4V$ -->
     <g transform="translate(91.0616 128.747344)scale(0.125 -0.125)">
      <defs>
       <path id="STIXGeneral-Regular-34" d="M 3027 1069 
L 2368 1069 
L 2368 0 
L 1869 0 
L 1869 1069 
L 77 1069 
L 77 1478 
L 2086 4326 
L 2368 4326 
L 2368 1478 
L 3027 1478 
L 3027 1069 
z
M 1869 1478 
L 1869 3674 
L 333 1478 
L 1869 1478 
z
" transform="scale(0.015625)"/>
       <path id="STIXGeneral-Italic-56" d="M 4403 4179 
L 4403 4077 
Q 4198 4070 4045 3821 
L 1658 -115 
L 1536 -115 
L 1011 3104 
Q 902 3776 828 3910 
Q 755 4045 486 4077 
L 486 4179 
L 2022 4179 
L 2022 4077 
Q 1722 4045 1629 3981 
Q 1536 3917 1536 3750 
Q 1536 3686 1542 3654 
L 1958 819 
L 3302 3123 
Q 3616 3661 3616 3859 
Q 3616 4032 3219 4077 
L 3219 4179 
L 4403 4179 
z
" transform="scale(0.015625)"/>
      </defs>
      <use xlink:href="#STIXGeneral-Regular-34" transform="translate(0 0.40625)"/>
      <use xlink:href="#STIXGeneral-Italic-56" transform="translate(49.999985 0.40625)"/>
     </g>
    </g>
   </g>
   <g id="text_4">
    <g clip-path="url(#pfa8c6e7cc8)">
     <!-- - -->
     <g transform="translate(118.930545 128.747344)scale(0.125 -0.125)">
      <defs>
       <path id="Times-Roman-2d" d="M 250 1644 
L 1822 1644 
L 1822 1244 
L 250 1244 
L 250 1644 
z
" transform="scale(0.015625)"/>
      </defs>
      <use xlink:href="#Times-Roman-2d"/>
     </g>
    </g>
   </g>
   <g id="text_5">
    <g clip-path="url(#pfa8c6e7cc8)">
     <!-- + -->
     <g transform="translate(163.387186 128.747344)scale(0.125 -0.125)">
      <use xlink:href="#Times-Roman-2b"/>
     </g>
    </g>
   </g>
   <g id="text_6">
    <g clip-path="url(#pfa8c6e7cc8)">
     <!-- $-3V$ -->
     <g transform="translate(178.6116 128.747344)scale(0.125 -0.125)">
      <defs>
       <path id="STIXGeneral-Regular-2212" d="M 3974 1408 
L 410 1408 
L 410 1830 
L 3974 1830 
L 3974 1408 
z
" transform="scale(0.015625)"/>
       <path id="STIXGeneral-Regular-33" d="M 390 3264 
L 288 3290 
Q 435 3770 748 4048 
Q 1062 4326 1542 4326 
Q 1990 4326 2265 4083 
Q 2541 3840 2541 3450 
Q 2541 2925 1946 2566 
Q 2298 2413 2477 2227 
Q 2758 1914 2758 1402 
Q 2758 890 2464 506 
Q 2246 211 1840 60 
Q 1434 -90 979 -90 
Q 262 -90 262 275 
Q 262 378 339 442 
Q 416 506 525 506 
Q 685 506 915 339 
Q 1197 141 1466 141 
Q 1818 141 2058 425 
Q 2298 710 2298 1120 
Q 2298 1856 1632 2048 
Q 1434 2112 979 2112 
L 979 2202 
Q 1338 2323 1517 2432 
Q 2035 2726 2035 3290 
Q 2035 3610 1852 3776 
Q 1670 3942 1344 3942 
Q 768 3942 390 3264 
z
" transform="scale(0.015625)"/>
      </defs>
      <use xlink:href="#STIXGeneral-Regular-2212" transform="translate(0 0.40625)"/>
      <use xlink:href="#STIXGeneral-Regular-33" transform="translate(68.499985 0.40625)"/>
      <use xlink:href="#STIXGeneral-Italic-56" transform="translate(118.499969 0.40625)"/>
     </g>
    </g>
   </g>
   <g id="text_7">
    <g clip-path="url(#pfa8c6e7cc8)">
     <!-- - -->
     <g transform="translate(210.730545 128.747344)scale(0.125 -0.125)">
      <use xlink:href="#Times-Roman-2d"/>
     </g>
    </g>
   </g>
   <g id="text_8">
    <g clip-path="url(#pfa8c6e7cc8)">
     <!-- -1.5 A -->
     <g transform="translate(254.1216 191.003828)scale(0.125 -0.125)">
      <defs>
       <path id="Times-Roman-31" d="M 1894 4294 
Q 1906 4278 1907 4270 
Q 1909 4263 1909 4234 
L 1909 472 
Q 1909 231 2037 165 
Q 2166 100 2516 88 
L 2516 0 
L 753 0 
L 753 94 
Q 1131 113 1247 197 
Q 1363 281 1363 563 
L 1363 3456 
Q 1363 3606 1325 3684 
Q 1288 3763 1163 3763 
Q 1081 3763 951 3717 
Q 822 3672 709 3622 
L 709 3709 
L 1856 4294 
L 1894 4294 
z
" transform="scale(0.015625)"/>
       <path id="Times-Roman-2e" d="M 1044 -75 
Q 894 -75 791 29 
Q 688 134 688 281 
Q 688 428 792 531 
Q 897 634 1044 634 
Q 1191 634 1294 531 
Q 1397 428 1397 281 
Q 1397 134 1295 29 
Q 1194 -75 1044 -75 
z
" transform="scale(0.015625)"/>
       <path id="Times-Roman-35" d="M 478 572 
Q 656 572 945 370 
Q 1234 169 1391 169 
Q 1750 169 2019 486 
Q 2288 803 2288 1266 
Q 2288 2075 1425 2431 
Q 947 2628 534 2628 
Q 466 2628 448 2633 
Q 431 2638 406 2666 
Q 413 2691 417 2708 
Q 422 2725 428 2741 
L 1109 4234 
L 2450 4234 
Q 2550 4234 2604 4268 
Q 2659 4303 2747 4397 
L 2797 4353 
L 2553 3775 
Q 2541 3747 2484 3739 
Q 2428 3731 2363 3731 
L 1153 3731 
L 888 3184 
Q 1400 3097 1638 3019 
Q 2028 2888 2291 2631 
Q 2516 2409 2631 2132 
Q 2747 1856 2747 1547 
Q 2747 856 2255 393 
Q 1763 -69 1009 -69 
Q 703 -69 516 -9 
Q 203 88 203 338 
Q 203 431 270 501 
Q 338 572 478 572 
z
" transform="scale(0.015625)"/>
      </defs>
      <use xlink:href="#Times-Roman-2d"/>
      <use xlink:href="#Times-Roman-31" x="33.300781"/>
      <use xlink:href="#Times-Roman-2e" x="83.300781"/>
      <use xlink:href="#Times-Roman-35" x="108.300781"/>
      <use xlink:href="#Times-Roman-20" x="158.300781"/>
      <use xlink:href="#Times-Roman-41" x="183.300781"/>
     </g>
    </g>
   </g>
   <g id="text_9">
    <g clip-path="url(#pfa8c6e7cc8)">
     <!-- + -->
     <g transform="translate(126.202772 168.053828)scale(0.125 -0.125)">
      <use xlink:href="#Times-Roman-2b"/>
     </g>
    </g>
   </g>
   <g id="text_10">
    <g clip-path="url(#pfa8c6e7cc8)">
     <!-- $12V$ -->
     <g transform="translate(113.0016 191.003828)scale(0.125 -0.125)">
      <defs>
       <path id="STIXGeneral-Regular-31" d="M 2522 0 
L 755 0 
L 755 96 
Q 1107 115 1235 227 
Q 1363 339 1363 608 
L 1363 3482 
Q 1363 3795 1171 3795 
Q 1082 3795 883 3718 
L 710 3654 
L 710 3744 
L 1856 4326 
L 1914 4307 
L 1914 486 
Q 1914 275 2042 185 
Q 2170 96 2522 96 
L 2522 0 
z
" transform="scale(0.015625)"/>
       <path id="STIXGeneral-Regular-32" d="M 3034 877 
L 2688 0 
L 186 0 
L 186 77 
L 1325 1286 
Q 1773 1754 1965 2144 
Q 2157 2534 2157 2950 
Q 2157 3379 1920 3616 
Q 1683 3853 1267 3853 
Q 922 3853 720 3673 
Q 518 3494 326 3021 
L 192 3053 
Q 301 3648 630 3987 
Q 960 4326 1523 4326 
Q 2054 4326 2380 4006 
Q 2707 3686 2707 3200 
Q 2707 2477 1888 1613 
L 832 486 
L 2330 486 
Q 2541 486 2665 569 
Q 2790 653 2944 915 
L 3034 877 
z
" transform="scale(0.015625)"/>
      </defs>
      <use xlink:href="#STIXGeneral-Regular-31" transform="translate(0 0.40625)"/>
      <use xlink:href="#STIXGeneral-Regular-32" transform="translate(49.999985 0.40625)"/>
      <use xlink:href="#STIXGeneral-Italic-56" transform="translate(99.999969 0.40625)"/>
     </g>
    </g>
   </g>
   <g id="text_11">
    <g clip-path="url(#pfa8c6e7cc8)">
     <!-- - -->
     <g transform="translate(129.089491 213.953828)scale(0.125 -0.125)">
      <use xlink:href="#Times-Roman-2d"/>
     </g>
    </g>
   </g>
   <g id="text_12">
    <g clip-path="url(#pfa8c6e7cc8)">
     <!-- 2 A -->
     <g transform="translate(134.760428 29.297344)scale(0.125 -0.125)">
      <defs>
       <path id="Times-Roman-32" d="M 191 72 
Q 1334 1259 1743 1815 
Q 2153 2372 2153 2900 
Q 2153 3363 1903 3605 
Q 1653 3847 1306 3847 
Q 878 3847 613 3534 
Q 466 3363 331 3006 
L 197 3034 
Q 353 3753 726 4033 
Q 1100 4313 1528 4313 
Q 2056 4313 2382 3980 
Q 2709 3647 2709 3166 
Q 2709 2653 2356 2178 
Q 2003 1703 822 488 
L 2256 488 
Q 2556 488 2678 559 
Q 2800 631 2953 909 
L 3034 872 
L 2688 0 
L 191 0 
L 191 72 
z
" transform="scale(0.015625)"/>
      </defs>
      <use xlink:href="#Times-Roman-32"/>
      <use xlink:href="#Times-Roman-20" x="50"/>
      <use xlink:href="#Times-Roman-41" x="75"/>
     </g>
    </g>
   </g>
   <g id="text_13">
    <g clip-path="url(#pfa8c6e7cc8)">
     <!-- 3 A -->
     <g transform="translate(15.399256 191.003828)scale(0.125 -0.125)">
      <use xlink:href="#Times-Roman-33"/>
      <use xlink:href="#Times-Roman-20" x="50"/>
      <use xlink:href="#Times-Roman-41" x="75"/>
     </g>
    </g>
   </g>
   <g id="text_14">
    <g clip-path="url(#pfa8c6e7cc8)">
     <!-- + -->
     <g transform="translate(71.587186 128.747344)scale(0.125 -0.125)">
      <use xlink:href="#Times-Roman-2b"/>
     </g>
    </g>
   </g>
   <g id="text_15">
    <g clip-path="url(#pfa8c6e7cc8)">
     <!-- $4V$ -->
     <g transform="translate(91.0616 128.747344)scale(0.125 -0.125)">
      <use xlink:href="#STIXGeneral-Regular-34" transform="translate(0 0.40625)"/>
      <use xlink:href="#STIXGeneral-Italic-56" transform="translate(49.999985 0.40625)"/>
     </g>
    </g>
   </g>
   <g id="text_16">
    <g clip-path="url(#pfa8c6e7cc8)">
     <!-- - -->
     <g transform="translate(118.930545 128.747344)scale(0.125 -0.125)">
      <use xlink:href="#Times-Roman-2d"/>
     </g>
    </g>
   </g>
   <g id="text_17">
    <g clip-path="url(#pfa8c6e7cc8)">
     <!-- + -->
     <g transform="translate(163.387186 128.747344)scale(0.125 -0.125)">
      <use xlink:href="#Times-Roman-2b"/>
     </g>
    </g>
   </g>
   <g id="text_18">
    <g clip-path="url(#pfa8c6e7cc8)">
     <!-- $-3V$ -->
     <g transform="translate(178.6116 128.747344)scale(0.125 -0.125)">
      <use xlink:href="#STIXGeneral-Regular-2212" transform="translate(0 0.40625)"/>
      <use xlink:href="#STIXGeneral-Regular-33" transform="translate(68.499985 0.40625)"/>
      <use xlink:href="#STIXGeneral-Italic-56" transform="translate(118.499969 0.40625)"/>
     </g>
    </g>
   </g>
   <g id="text_19">
    <g clip-path="url(#pfa8c6e7cc8)">
     <!-- - -->
     <g transform="translate(210.730545 128.747344)scale(0.125 -0.125)">
      <use xlink:href="#Times-Roman-2d"/>
     </g>
    </g>
   </g>
   <g id="text_20">
    <g clip-path="url(#pfa8c6e7cc8)">
     <!-- -1.5 A -->
     <g transform="translate(254.1216 191.003828)scale(0.125 -0.125)">
      <use xlink:href="#Times-Roman-2d"/>
      <use xlink:href="#Times-Roman-31" x="33.300781"/>
      <use xlink:href="#Times-Roman-2e" x="83.300781"/>
      <use xlink:href="#Times-Roman-35" x="108.300781"/>
      <use xlink:href="#Times-Roman-20" x="158.300781"/>
      <use xlink:href="#Times-Roman-41" x="183.300781"/>
     </g>
    </g>
   </g>
   <g id="text_21">
    <g clip-path="url(#pfa8c6e7cc8)">
     <!-- + -->
     <g transform="translate(126.202772 168.053828)scale(0.125 -0.125)">
      <use xlink:href="#Times-Roman-2b"/>
     </g>
    </g>
   </g>
   <g id="text_22">
    <g clip-path="url(#pfa8c6e7cc8)">
     <!-- $12V$ -->
     <g transform="translate(113.0016 191.003828)scale(0.125 -0.125)">
      <use xlink:href="#STIXGeneral-Regular-31" transform="translate(0 0.40625)"/>
      <use xlink:href="#STIXGeneral-Regular-32" transform="translate(49.999985 0.40625)"/>
      <use xlink:href="#STIXGeneral-Italic-56" transform="translate(99.999969 0.40625)"/>
     </g>
    </g>
   </g>
   <g id="text_23">
    <g clip-path="url(#pfa8c6e7cc8)">
     <!-- - -->
     <g transform="translate(129.089491 213.953828)scale(0.125 -0.125)">
      <use xlink:href="#Times-Roman-2d"/>
     </g>
    </g>
   </g>
   <g id="text_24">
    <g clip-path="url(#pfa8c6e7cc8)">
     <!-- 2 A -->
     <g transform="translate(134.760428 29.297344)scale(0.125 -0.125)">
      <use xlink:href="#Times-Roman-32"/>
      <use xlink:href="#Times-Roman-20" x="50"/>
      <use xlink:href="#Times-Roman-41" x="75"/>
     </g>
    </g>
   </g>
  </g>
 </g>
 <defs>
  <clipPath id="pfa8c6e7cc8">
   <rect x="7.2" y="7.2" width="294.2802" height="229.84"/>
  </clipPath>
 </defs>
</svg>
