<?xml version="1.0" encoding="utf-8" standalone="no"?>
<!DOCTYPE svg PUBLIC "-//W3C//DTD SVG 1.1//EN"
  "http://www.w3.org/Graphics/SVG/1.1/DTD/svg11.dtd">
<svg xmlns:xlink="http://www.w3.org/1999/xlink" width="709.02pt" height="211.77pt" viewBox="0 0 709.02 211.77" xmlns="http://www.w3.org/2000/svg" version="1.1">
 <metadata>
  <rdf:RDF xmlns:dc="http://purl.org/dc/elements/1.1/" xmlns:cc="http://creativecommons.org/ns#" xmlns:rdf="http://www.w3.org/1999/02/22-rdf-syntax-ns#">
   <cc:Work>
    <dc:type rdf:resource="http://purl.org/dc/dcmitype/StillImage"/>
    <dc:date>2023-02-28T15:18:25.546024</dc:date>
    <dc:format>image/svg+xml</dc:format>
    <dc:creator>
     <cc:Agent>
      <dc:title>Matplotlib v3.5.2, https://matplotlib.org/</dc:title>
     </cc:Agent>
    </dc:creator>
   </cc:Work>
  </rdf:RDF>
 </metadata>
 <defs>
  <style type="text/css">*{stroke-linejoin: round; stroke-linecap: butt}</style>
 </defs>
 <g id="figure_1">
  <g id="patch_1">
   <path d="M 0 211.77 
L 709.02 211.77 
L 709.02 0 
L 0 0 
L 0 211.77 
z
" style="fill: none"/>
  </g>
  <g id="axes_1">
   <g id="patch_2">
    <path d="M 83.487918 145.656373 
C 82.205149 143.162839 80.58269 140.929704 78.684399 139.044859 
C 76.786108 137.160014 74.637221 135.648518 72.322315 134.56986 
C 70.007408 133.491202 67.557257 132.859722 65.068294 132.700274 
C 62.579332 132.540826 60.084648 132.85553 57.682428 133.632 
C 55.280208 134.40847 53.002388 135.636383 50.938619 137.26741 
C 48.874851 138.898438 47.052569 140.910897 45.543497 143.22558 
C 44.034425 145.540263 42.858623 148.126399 42.062371 150.882201 
C 41.266118 153.638004 40.86 156.526837 40.86 159.435 
C 40.86 162.343163 41.266118 165.231996 42.062371 167.987799 
C 42.858623 170.743601 44.034425 173.329737 45.543497 175.64442 
C 47.052569 177.959103 48.874851 179.971562 50.938619 181.60259 
C 53.002388 183.233617 55.280208 184.46153 57.682428 185.238 
C 60.084648 186.01447 62.579332 186.329174 65.068294 186.169726 
C 67.557257 186.010278 70.007408 185.378798 72.322315 184.30014 
C 74.637221 183.221482 76.786108 181.709986 78.684399 179.825141 
C 80.58269 177.940296 82.205149 175.707161 83.487918 173.213627 
" clip-path="url(#p3936029cba)" style="fill: none; stroke: #0000ff; stroke-width: 2; stroke-linejoin: miter"/>
   </g>
   <g id="patch_3">
    <path d="M 87.582139 152.478052 
L 81.677596 147.099771 
L 83.63227 145.926619 
L 83.4748 145.664247 
L 83.501037 145.6485 
L 83.658507 145.910872 
L 85.61318 144.73772 
z
" clip-path="url(#p3936029cba)" style="fill: #0000ff; stroke: #0000ff; stroke-linejoin: miter"/>
   </g>
   <g id="patch_4">
    <path d="M 175.287918 145.656373 
C 174.005149 143.162839 172.38269 140.929704 170.484399 139.044859 
C 168.586108 137.160014 166.437221 135.648518 164.122315 134.56986 
C 161.807408 133.491202 159.357257 132.859722 156.868294 132.700274 
C 154.379332 132.540826 151.884648 132.85553 149.482428 133.632 
C 147.080208 134.40847 144.802388 135.636383 142.738619 137.26741 
C 140.674851 138.898438 138.852569 140.910897 137.343497 143.22558 
C 135.834425 145.540263 134.658623 148.126399 133.862371 150.882201 
C 133.066118 153.638004 132.66 156.526837 132.66 159.435 
C 132.66 162.343163 133.066118 165.231996 133.862371 167.987799 
C 134.658623 170.743601 135.834425 173.329737 137.343497 175.64442 
C 138.852569 177.959103 140.674851 179.971562 142.738619 181.60259 
C 144.802388 183.233617 147.080208 184.46153 149.482428 185.238 
C 151.884648 186.01447 154.379332 186.329174 156.868294 186.169726 
C 159.357257 186.010278 161.807408 185.378798 164.122315 184.30014 
C 166.437221 183.221482 168.586108 181.709986 170.484399 179.825141 
C 172.38269 177.940296 174.005149 175.707161 175.287918 173.213627 
" clip-path="url(#p3936029cba)" style="fill: none; stroke: #ff0000; stroke-width: 2; stroke-linejoin: miter"/>
   </g>
   <g id="patch_5">
    <path d="M 179.382139 152.478052 
L 173.477596 147.099771 
L 175.43227 145.926619 
L 175.2748 145.664247 
L 175.301037 145.6485 
L 175.458507 145.910872 
L 177.41318 144.73772 
z
" clip-path="url(#p3936029cba)" style="fill: #ff0000; stroke: #ff0000; stroke-linejoin: miter"/>
   </g>
   <g id="patch_6">
    <path d="M 139.83728 42.714651 
C 128.202227 41.219159 115.509803 40.613119 102.902047 40.95106 
C 90.294292 41.289 78.161038 42.560474 67.594011 44.651075 
C 57.026984 46.741676 48.352917 49.586764 42.352286 52.930342 
C 36.351655 56.273921 33.21 60.012606 33.21 63.81 
C 33.21 67.607394 36.351655 71.346079 42.352286 74.689658 
C 48.352917 78.033236 57.026984 80.878324 67.594011 82.968925 
C 78.161038 85.059526 90.294292 86.331 102.902047 86.66894 
C 115.509803 87.006881 128.202227 86.400841 139.83728 84.905349 
" clip-path="url(#p3936029cba)" style="fill: none; stroke: #008000; stroke-width: 2; stroke-linejoin: miter"/>
   </g>
   <g id="patch_7">
    <path d="M 147.150334 45.847889 
L 139.214733 44.944695 
L 140.112526 42.849224 
L 139.831255 42.728715 
L 139.843305 42.700588 
L 140.124577 42.821097 
L 141.02237 40.725626 
z
" clip-path="url(#p3936029cba)" style="fill: #008000; stroke: #008000; stroke-linejoin: miter"/>
   </g>
   <g id="patch_8">
    <path d="M 417.866875 71.850332 
C 413.462209 65.559818 408.088207 60.007011 401.945177 55.398883 
C 395.802147 50.790756 388.967374 47.185283 381.695613 44.716853 
C 374.423852 42.248423 366.806589 40.94809 359.127746 40.864324 
C 351.448902 40.780557 343.805085 41.91441 336.481206 44.223621 
C 329.157327 46.532831 322.245527 49.988346 316.003433 54.461367 
C 309.76134 58.934388 304.267483 64.368641 299.726638 70.561571 
C 295.185794 76.754502 291.65509 83.628197 289.266127 90.926451 
C 286.877165 98.224705 285.66 105.8557 285.66 113.535 
C 285.66 121.2143 286.877165 128.845295 289.266127 136.143549 
C 291.65509 143.441803 295.185794 150.315498 299.726638 156.508429 
C 304.267483 162.701359 309.76134 168.135612 316.003433 172.608633 
C 322.245527 177.081654 329.157327 180.537169 336.481206 182.846379 
C 343.805085 185.15559 351.448902 186.289443 359.127746 186.205676 
C 366.806589 186.12191 374.423852 184.821577 381.695613 182.353147 
C 388.967374 179.884717 395.802147 176.279244 401.945177 171.671117 
C 408.088207 167.062989 413.462209 161.510182 417.866875 155.219668 
" clip-path="url(#p3936029cba)" style="fill: none; stroke: #800080; stroke-width: 2; stroke-linejoin: miter"/>
   </g>
   <g id="patch_9">
    <path d="M 422.430249 78.367506 
L 416.162435 73.417351 
L 418.029856 72.109769 
L 417.854342 71.859108 
L 417.879408 71.841557 
L 418.054922 72.092217 
L 419.922343 70.784635 
z
" clip-path="url(#p3936029cba)" style="fill: #800080; stroke: #800080; stroke-linejoin: miter"/>
   </g>
   <g id="patch_10">
    <path d="M 392.175265 135.739791 
C 381.100194 133.592907 368.705456 132.535915 356.196319 132.671596 
C 343.687183 132.807278 331.482696 134.131088 320.769628 136.514299 
C 310.05656 138.897511 301.193791 142.260287 295.04314 146.275631 
C 288.89249 150.290974 285.66 154.824374 285.66 159.435 
C 285.66 164.045626 288.89249 168.579026 295.04314 172.594369 
C 301.193791 176.609713 310.05656 179.972489 320.769628 182.355701 
C 331.482696 184.738912 343.687183 186.062722 356.196319 186.198404 
C 368.705456 186.334085 381.100194 185.277093 392.175265 183.130209 
" clip-path="url(#p3936029cba)" style="fill: none; stroke: #ffa500; stroke-width: 2; stroke-linejoin: miter"/>
   </g>
   <g id="patch_11">
    <path d="M 399.216127 139.44441 
L 391.377427 137.913295 
L 392.438943 135.895817 
L 392.168141 135.753331 
L 392.182389 135.726251 
L 392.453192 135.868737 
L 393.514707 133.851259 
z
" clip-path="url(#p3936029cba)" style="fill: #ffa500; stroke: #ffa500; stroke-linejoin: miter"/>
   </g>
   <g id="patch_12">
    <path d="M 575.81872 97.844245 
C 575.213368 89.174919 574.111415 80.929821 572.567564 73.518278 
C 571.023714 66.106735 569.063946 59.653458 566.785551 54.47882 
C 564.507156 49.304181 561.948473 45.495253 559.236526 43.241127 
C 556.52458 40.987002 553.705003 40.32561 550.917774 41.289784 
C 548.130544 42.253959 545.422562 44.827477 542.928263 48.882578 
C 540.433965 52.937678 538.195321 58.406126 536.323469 65.016442 
C 534.451617 71.626758 532.978054 79.267713 531.975934 87.559973 
C 530.973814 95.852233 530.46 104.656266 530.46 113.535 
C 530.46 122.413734 530.973814 131.217767 531.975934 139.510027 
C 532.978054 147.802287 534.451617 155.443242 536.323469 162.053558 
C 538.195321 168.663874 540.433965 174.132322 542.928263 178.187422 
C 545.422562 182.242523 548.130544 184.816041 550.917774 185.780216 
C 553.705003 186.74439 556.52458 186.082998 559.236526 183.828873 
C 561.948473 181.574747 564.507156 177.765819 566.785551 172.59118 
C 569.063946 167.416542 571.023714 160.963265 572.567564 153.551722 
C 574.111415 146.140179 575.213368 137.895081 575.81872 129.225755 
" clip-path="url(#p3936029cba)" style="fill: none; stroke: #00ffff; stroke-width: 2; stroke-linejoin: miter"/>
   </g>
   <g id="patch_13">
    <path d="M 577.536444 105.612602 
L 573.643914 98.638526 
L 575.869847 98.146332 
L 575.803781 97.847549 
L 575.833659 97.840942 
L 575.899725 98.139725 
L 578.125658 97.647531 
z
" clip-path="url(#p3936029cba)" style="fill: #00ffff; stroke: #00ffff; stroke-linejoin: miter"/>
   </g>
   <g id="patch_14">
    <path d="M 674.961211 95.381272 
C 674.1539 86.887026 672.786601 78.859289 670.925599 71.687236 
C 669.064597 64.515184 666.740458 58.316617 664.065853 53.392034 
C 661.391249 48.467451 658.41011 44.897739 655.266958 42.855953 
C 652.123806 40.814166 648.870268 40.333842 645.66407 41.438265 
C 642.457873 42.542688 639.351678 45.213719 636.49607 49.321869 
C 633.640462 53.430018 631.082345 58.907811 628.945733 65.48969 
C 626.809121 72.071569 625.129108 79.649427 623.987138 87.855898 
C 622.845169 96.06237 622.26 104.762663 622.26 113.535 
C 622.26 122.307337 622.845169 131.00763 623.987138 139.214102 
C 625.129108 147.420573 626.809121 154.998431 628.945733 161.58031 
C 631.082345 168.162189 633.640462 173.639982 636.49607 177.748131 
C 639.351678 181.856281 642.457873 184.527312 645.66407 185.631735 
C 648.870268 186.736158 652.123806 186.255834 655.266958 184.214047 
C 658.41011 182.172261 661.391249 178.602549 664.065853 173.677966 
C 666.740458 168.753383 669.064597 162.554816 670.925599 155.382764 
C 672.786601 148.210711 674.1539 140.182974 674.961211 131.688728 
" clip-path="url(#p3936029cba)" style="fill: none; stroke: #ff00ff; stroke-width: 2; stroke-linejoin: miter"/>
   </g>
   <g id="patch_15">
    <path d="M 676.948566 103.08506 
L 672.815401 96.250847 
L 675.022832 95.681393 
L 674.946396 95.385094 
L 674.976026 95.37745 
L 675.052462 95.67375 
L 677.259894 95.104296 
z
" clip-path="url(#p3936029cba)" style="fill: #ff00ff; stroke: #ff00ff; stroke-linejoin: miter"/>
   </g>
   <g id="patch_16">
    <path d="M 83.487918 145.656373 
C 82.205149 143.162839 80.58269 140.929704 78.684399 139.044859 
C 76.786108 137.160014 74.637221 135.648518 72.322315 134.56986 
C 70.007408 133.491202 67.557257 132.859722 65.068294 132.700274 
C 62.579332 132.540826 60.084648 132.85553 57.682428 133.632 
C 55.280208 134.40847 53.002388 135.636383 50.938619 137.26741 
C 48.874851 138.898438 47.052569 140.910897 45.543497 143.22558 
C 44.034425 145.540263 42.858623 148.126399 42.062371 150.882201 
C 41.266118 153.638004 40.86 156.526837 40.86 159.435 
C 40.86 162.343163 41.266118 165.231996 42.062371 167.987799 
C 42.858623 170.743601 44.034425 173.329737 45.543497 175.64442 
C 47.052569 177.959103 48.874851 179.971562 50.938619 181.60259 
C 53.002388 183.233617 55.280208 184.46153 57.682428 185.238 
C 60.084648 186.01447 62.579332 186.329174 65.068294 186.169726 
C 67.557257 186.010278 70.007408 185.378798 72.322315 184.30014 
C 74.637221 183.221482 76.786108 181.709986 78.684399 179.825141 
C 80.58269 177.940296 82.205149 175.707161 83.487918 173.213627 
" clip-path="url(#p3936029cba)" style="fill: none; stroke: #0000ff; stroke-width: 2; stroke-linejoin: miter"/>
   </g>
   <g id="patch_17">
    <path d="M 87.582139 152.478052 
L 81.677596 147.099771 
L 83.63227 145.926619 
L 83.4748 145.664247 
L 83.501037 145.6485 
L 83.658507 145.910872 
L 85.61318 144.73772 
z
" clip-path="url(#p3936029cba)" style="fill: #0000ff; stroke: #0000ff; stroke-linejoin: miter"/>
   </g>
   <g id="patch_18">
    <path d="M 175.287918 145.656373 
C 174.005149 143.162839 172.38269 140.929704 170.484399 139.044859 
C 168.586108 137.160014 166.437221 135.648518 164.122315 134.56986 
C 161.807408 133.491202 159.357257 132.859722 156.868294 132.700274 
C 154.379332 132.540826 151.884648 132.85553 149.482428 133.632 
C 147.080208 134.40847 144.802388 135.636383 142.738619 137.26741 
C 140.674851 138.898438 138.852569 140.910897 137.343497 143.22558 
C 135.834425 145.540263 134.658623 148.126399 133.862371 150.882201 
C 133.066118 153.638004 132.66 156.526837 132.66 159.435 
C 132.66 162.343163 133.066118 165.231996 133.862371 167.987799 
C 134.658623 170.743601 135.834425 173.329737 137.343497 175.64442 
C 138.852569 177.959103 140.674851 179.971562 142.738619 181.60259 
C 144.802388 183.233617 147.080208 184.46153 149.482428 185.238 
C 151.884648 186.01447 154.379332 186.329174 156.868294 186.169726 
C 159.357257 186.010278 161.807408 185.378798 164.122315 184.30014 
C 166.437221 183.221482 168.586108 181.709986 170.484399 179.825141 
C 172.38269 177.940296 174.005149 175.707161 175.287918 173.213627 
" clip-path="url(#p3936029cba)" style="fill: none; stroke: #ff0000; stroke-width: 2; stroke-linejoin: miter"/>
   </g>
   <g id="patch_19">
    <path d="M 179.382139 152.478052 
L 173.477596 147.099771 
L 175.43227 145.926619 
L 175.2748 145.664247 
L 175.301037 145.6485 
L 175.458507 145.910872 
L 177.41318 144.73772 
z
" clip-path="url(#p3936029cba)" style="fill: #ff0000; stroke: #ff0000; stroke-linejoin: miter"/>
   </g>
   <g id="patch_20">
    <path d="M 139.83728 42.714651 
C 128.202227 41.219159 115.509803 40.613119 102.902047 40.95106 
C 90.294292 41.289 78.161038 42.560474 67.594011 44.651075 
C 57.026984 46.741676 48.352917 49.586764 42.352286 52.930342 
C 36.351655 56.273921 33.21 60.012606 33.21 63.81 
C 33.21 67.607394 36.351655 71.346079 42.352286 74.689658 
C 48.352917 78.033236 57.026984 80.878324 67.594011 82.968925 
C 78.161038 85.059526 90.294292 86.331 102.902047 86.66894 
C 115.509803 87.006881 128.202227 86.400841 139.83728 84.905349 
" clip-path="url(#p3936029cba)" style="fill: none; stroke: #008000; stroke-width: 2; stroke-linejoin: miter"/>
   </g>
   <g id="patch_21">
    <path d="M 147.150334 45.847889 
L 139.214733 44.944695 
L 140.112526 42.849224 
L 139.831255 42.728715 
L 139.843305 42.700588 
L 140.124577 42.821097 
L 141.02237 40.725626 
z
" clip-path="url(#p3936029cba)" style="fill: #008000; stroke: #008000; stroke-linejoin: miter"/>
   </g>
   <g id="patch_22">
    <path d="M 417.866875 71.850332 
C 413.462209 65.559818 408.088207 60.007011 401.945177 55.398883 
C 395.802147 50.790756 388.967374 47.185283 381.695613 44.716853 
C 374.423852 42.248423 366.806589 40.94809 359.127746 40.864324 
C 351.448902 40.780557 343.805085 41.91441 336.481206 44.223621 
C 329.157327 46.532831 322.245527 49.988346 316.003433 54.461367 
C 309.76134 58.934388 304.267483 64.368641 299.726638 70.561571 
C 295.185794 76.754502 291.65509 83.628197 289.266127 90.926451 
C 286.877165 98.224705 285.66 105.8557 285.66 113.535 
C 285.66 121.2143 286.877165 128.845295 289.266127 136.143549 
C 291.65509 143.441803 295.185794 150.315498 299.726638 156.508429 
C 304.267483 162.701359 309.76134 168.135612 316.003433 172.608633 
C 322.245527 177.081654 329.157327 180.537169 336.481206 182.846379 
C 343.805085 185.15559 351.448902 186.289443 359.127746 186.205676 
C 366.806589 186.12191 374.423852 184.821577 381.695613 182.353147 
C 388.967374 179.884717 395.802147 176.279244 401.945177 171.671117 
C 408.088207 167.062989 413.462209 161.510182 417.866875 155.219668 
" clip-path="url(#p3936029cba)" style="fill: none; stroke: #800080; stroke-width: 2; stroke-linejoin: miter"/>
   </g>
   <g id="patch_23">
    <path d="M 422.430249 78.367506 
L 416.162435 73.417351 
L 418.029856 72.109769 
L 417.854342 71.859108 
L 417.879408 71.841557 
L 418.054922 72.092217 
L 419.922343 70.784635 
z
" clip-path="url(#p3936029cba)" style="fill: #800080; stroke: #800080; stroke-linejoin: miter"/>
   </g>
   <g id="patch_24">
    <path d="M 392.175265 135.739791 
C 381.100194 133.592907 368.705456 132.535915 356.196319 132.671596 
C 343.687183 132.807278 331.482696 134.131088 320.769628 136.514299 
C 310.05656 138.897511 301.193791 142.260287 295.04314 146.275631 
C 288.89249 150.290974 285.66 154.824374 285.66 159.435 
C 285.66 164.045626 288.89249 168.579026 295.04314 172.594369 
C 301.193791 176.609713 310.05656 179.972489 320.769628 182.355701 
C 331.482696 184.738912 343.687183 186.062722 356.196319 186.198404 
C 368.705456 186.334085 381.100194 185.277093 392.175265 183.130209 
" clip-path="url(#p3936029cba)" style="fill: none; stroke: #ffa500; stroke-width: 2; stroke-linejoin: miter"/>
   </g>
   <g id="patch_25">
    <path d="M 399.216127 139.44441 
L 391.377427 137.913295 
L 392.438943 135.895817 
L 392.168141 135.753331 
L 392.182389 135.726251 
L 392.453192 135.868737 
L 393.514707 133.851259 
z
" clip-path="url(#p3936029cba)" style="fill: #ffa500; stroke: #ffa500; stroke-linejoin: miter"/>
   </g>
   <g id="patch_26">
    <path d="M 575.81872 97.844245 
C 575.213368 89.174919 574.111415 80.929821 572.567564 73.518278 
C 571.023714 66.106735 569.063946 59.653458 566.785551 54.47882 
C 564.507156 49.304181 561.948473 45.495253 559.236526 43.241127 
C 556.52458 40.987002 553.705003 40.32561 550.917774 41.289784 
C 548.130544 42.253959 545.422562 44.827477 542.928263 48.882578 
C 540.433965 52.937678 538.195321 58.406126 536.323469 65.016442 
C 534.451617 71.626758 532.978054 79.267713 531.975934 87.559973 
C 530.973814 95.852233 530.46 104.656266 530.46 113.535 
C 530.46 122.413734 530.973814 131.217767 531.975934 139.510027 
C 532.978054 147.802287 534.451617 155.443242 536.323469 162.053558 
C 538.195321 168.663874 540.433965 174.132322 542.928263 178.187422 
C 545.422562 182.242523 548.130544 184.816041 550.917774 185.780216 
C 553.705003 186.74439 556.52458 186.082998 559.236526 183.828873 
C 561.948473 181.574747 564.507156 177.765819 566.785551 172.59118 
C 569.063946 167.416542 571.023714 160.963265 572.567564 153.551722 
C 574.111415 146.140179 575.213368 137.895081 575.81872 129.225755 
" clip-path="url(#p3936029cba)" style="fill: none; stroke: #00ffff; stroke-width: 2; stroke-linejoin: miter"/>
   </g>
   <g id="patch_27">
    <path d="M 577.536444 105.612602 
L 573.643914 98.638526 
L 575.869847 98.146332 
L 575.803781 97.847549 
L 575.833659 97.840942 
L 575.899725 98.139725 
L 578.125658 97.647531 
z
" clip-path="url(#p3936029cba)" style="fill: #00ffff; stroke: #00ffff; stroke-linejoin: miter"/>
   </g>
   <g id="patch_28">
    <path d="M 674.961211 95.381272 
C 674.1539 86.887026 672.786601 78.859289 670.925599 71.687236 
C 669.064597 64.515184 666.740458 58.316617 664.065853 53.392034 
C 661.391249 48.467451 658.41011 44.897739 655.266958 42.855953 
C 652.123806 40.814166 648.870268 40.333842 645.66407 41.438265 
C 642.457873 42.542688 639.351678 45.213719 636.49607 49.321869 
C 633.640462 53.430018 631.082345 58.907811 628.945733 65.48969 
C 626.809121 72.071569 625.129108 79.649427 623.987138 87.855898 
C 622.845169 96.06237 622.26 104.762663 622.26 113.535 
C 622.26 122.307337 622.845169 131.00763 623.987138 139.214102 
C 625.129108 147.420573 626.809121 154.998431 628.945733 161.58031 
C 631.082345 168.162189 633.640462 173.639982 636.49607 177.748131 
C 639.351678 181.856281 642.457873 184.527312 645.66407 185.631735 
C 648.870268 186.736158 652.123806 186.255834 655.266958 184.214047 
C 658.41011 182.172261 661.391249 178.602549 664.065853 173.677966 
C 666.740458 168.753383 669.064597 162.554816 670.925599 155.382764 
C 672.786601 148.210711 674.1539 140.182974 674.961211 131.688728 
" clip-path="url(#p3936029cba)" style="fill: none; stroke: #ff00ff; stroke-width: 2; stroke-linejoin: miter"/>
   </g>
   <g id="patch_29">
    <path d="M 676.948566 103.08506 
L 672.815401 96.250847 
L 675.022832 95.681393 
L 674.946396 95.385094 
L 674.976026 95.37745 
L 675.052462 95.67375 
L 677.259894 95.104296 
z
" clip-path="url(#p3936029cba)" style="fill: #ff00ff; stroke: #ff00ff; stroke-linejoin: miter"/>
   </g>
   <g id="line2d_1">
    <path d="M 17.91 201.51 
L 17.91 170.91 
L 10.26 170.91 
L 10.26 140.31 
L 25.56 140.31 
L 25.56 170.91 
L 17.91 170.91 
M 17.91 140.31 
L 17.91 109.71 
" clip-path="url(#p3936029cba)" style="fill: none; stroke: #808080; stroke-width: 2; stroke-linecap: round"/>
   </g>
   <g id="line2d_2">
    <path d="M 17.91 109.71 
L 48.51 109.71 
L 48.51 102.06 
L 79.11 102.06 
L 79.11 117.36 
L 48.51 117.36 
L 48.51 109.71 
M 79.11 109.71 
L 109.71 109.71 
" clip-path="url(#p3936029cba)" style="fill: none; stroke: #808080; stroke-width: 2; stroke-linecap: round"/>
   </g>
   <g id="line2d_3">
    <path d="M 109.71 109.71 
L 140.31 109.71 
L 140.31 102.06 
L 170.91 102.06 
L 170.91 117.36 
L 140.31 117.36 
L 140.31 109.71 
M 170.91 109.71 
L 201.51 109.71 
" clip-path="url(#p3936029cba)" style="fill: none; stroke: #808080; stroke-width: 2; stroke-linecap: round"/>
   </g>
   <g id="line2d_4">
    <path d="M 201.51 109.71 
L 201.51 140.31 
L 209.16 140.31 
L 209.16 170.91 
L 193.86 170.91 
L 193.86 140.31 
L 201.51 140.31 
M 201.51 170.91 
L 201.51 201.51 
" clip-path="url(#p3936029cba)" style="fill: none; stroke: #808080; stroke-width: 2; stroke-linecap: round"/>
   </g>
   <g id="line2d_5">
    <path d="M 109.71 109.71 
L 109.71 140.31 
L 117.36 140.31 
L 117.36 170.91 
L 102.06 170.91 
L 102.06 140.31 
L 109.71 140.31 
M 109.71 170.91 
L 109.71 201.51 
" clip-path="url(#p3936029cba)" style="fill: none; stroke: #808080; stroke-width: 2; stroke-linecap: round"/>
   </g>
   <g id="line2d_6">
    <path d="M 17.91 201.51 
L 109.71 201.51 
L 201.51 201.51 
" clip-path="url(#p3936029cba)" style="fill: none; stroke: #808080; stroke-width: 2; stroke-linecap: round"/>
   </g>
   <g id="line2d_7">
    <path d="M 17.91 109.71 
L 17.91 63.81 
L 17.91 17.91 
" clip-path="url(#p3936029cba)" style="fill: none; stroke: #808080; stroke-width: 2; stroke-linecap: round"/>
   </g>
   <g id="line2d_8">
    <path d="M 17.91 17.91 
L 40.86 17.91 
L 63.81 17.91 
" clip-path="url(#p3936029cba)" style="fill: none; stroke: #808080; stroke-width: 2; stroke-linecap: round"/>
   </g>
   <g id="line2d_9">
    <path d="M 63.81 17.91 
L 94.41 17.91 
L 94.41 10.26 
L 125.01 10.26 
L 125.01 25.56 
L 94.41 25.56 
L 94.41 17.91 
M 125.01 17.91 
L 155.61 17.91 
" clip-path="url(#p3936029cba)" style="fill: none; stroke: #808080; stroke-width: 2; stroke-linecap: round"/>
   </g>
   <g id="line2d_10">
    <path d="M 155.61 17.91 
L 178.56 17.91 
L 201.51 17.91 
" clip-path="url(#p3936029cba)" style="fill: none; stroke: #808080; stroke-width: 2; stroke-linecap: round"/>
   </g>
   <g id="line2d_11">
    <path d="M 201.51 17.91 
L 201.51 63.81 
L 201.51 109.71 
" clip-path="url(#p3936029cba)" style="fill: none; stroke: #808080; stroke-width: 2; stroke-linecap: round"/>
   </g>
   <g id="line2d_12">
    <path d="M 262.71 201.51 
L 262.71 170.91 
L 255.06 170.91 
L 255.06 140.31 
L 270.36 140.31 
L 270.36 170.91 
L 262.71 170.91 
M 262.71 140.31 
L 262.71 109.71 
" clip-path="url(#p3936029cba)" style="fill: none; stroke: #808080; stroke-width: 2; stroke-linecap: round"/>
   </g>
   <g id="line2d_13">
    <path d="M 262.71 109.71 
L 293.31 109.71 
L 293.31 102.06 
L 323.91 102.06 
L 323.91 117.36 
L 293.31 117.36 
L 293.31 109.71 
M 323.91 109.71 
L 354.51 109.71 
" clip-path="url(#p3936029cba)" style="fill: none; stroke: #808080; stroke-width: 2; stroke-linecap: round"/>
   </g>
   <g id="line2d_14">
    <path d="M 354.51 109.71 
L 385.11 109.71 
L 385.11 102.06 
L 415.71 102.06 
L 415.71 117.36 
L 385.11 117.36 
L 385.11 109.71 
M 415.71 109.71 
L 446.31 109.71 
" clip-path="url(#p3936029cba)" style="fill: none; stroke: #808080; stroke-width: 2; stroke-linecap: round"/>
   </g>
   <g id="line2d_15">
    <path d="M 446.31 109.71 
L 446.31 140.31 
L 453.96 140.31 
L 453.96 170.91 
L 438.66 170.91 
L 438.66 140.31 
L 446.31 140.31 
M 446.31 170.91 
L 446.31 201.51 
" clip-path="url(#p3936029cba)" style="fill: none; stroke: #808080; stroke-width: 2; stroke-linecap: round"/>
   </g>
   <g id="line2d_16">
    <path d="M 354.51 109.71 
L 354.51 140.31 
L 362.16 140.31 
L 362.16 170.91 
L 346.86 170.91 
L 346.86 140.31 
L 354.51 140.31 
M 354.51 170.91 
L 354.51 201.51 
" clip-path="url(#p3936029cba)" style="fill: none; stroke: #808080; stroke-width: 2; stroke-linecap: round"/>
   </g>
   <g id="line2d_17">
    <path d="M 262.71 201.51 
L 354.51 201.51 
L 446.31 201.51 
" clip-path="url(#p3936029cba)" style="fill: none; stroke: #808080; stroke-width: 2; stroke-linecap: round"/>
   </g>
   <g id="line2d_18">
    <path d="M 262.71 109.71 
L 262.71 63.81 
L 262.71 17.91 
" clip-path="url(#p3936029cba)" style="fill: none; stroke: #808080; stroke-width: 2; stroke-linecap: round"/>
   </g>
   <g id="line2d_19">
    <path d="M 262.71 17.91 
L 285.66 17.91 
L 308.61 17.91 
" clip-path="url(#p3936029cba)" style="fill: none; stroke: #808080; stroke-width: 2; stroke-linecap: round"/>
   </g>
   <g id="line2d_20">
    <path d="M 308.61 17.91 
L 339.21 17.91 
L 339.21 10.26 
L 369.81 10.26 
L 369.81 25.56 
L 339.21 25.56 
L 339.21 17.91 
M 369.81 17.91 
L 400.41 17.91 
" clip-path="url(#p3936029cba)" style="fill: none; stroke: #808080; stroke-width: 2; stroke-linecap: round"/>
   </g>
   <g id="line2d_21">
    <path d="M 400.41 17.91 
L 423.36 17.91 
L 446.31 17.91 
" clip-path="url(#p3936029cba)" style="fill: none; stroke: #808080; stroke-width: 2; stroke-linecap: round"/>
   </g>
   <g id="line2d_22">
    <path d="M 446.31 17.91 
L 446.31 63.81 
L 446.31 109.71 
" clip-path="url(#p3936029cba)" style="fill: none; stroke: #808080; stroke-width: 2; stroke-linecap: round"/>
   </g>
   <g id="line2d_23">
    <path d="M 507.51 201.51 
L 507.51 170.91 
L 499.86 170.91 
L 499.86 140.31 
L 515.16 140.31 
L 515.16 170.91 
L 507.51 170.91 
M 507.51 140.31 
L 507.51 109.71 
" clip-path="url(#p3936029cba)" style="fill: none; stroke: #808080; stroke-width: 2; stroke-linecap: round"/>
   </g>
   <g id="line2d_24">
    <path d="M 507.51 109.71 
L 538.11 109.71 
L 538.11 102.06 
L 568.71 102.06 
L 568.71 117.36 
L 538.11 117.36 
L 538.11 109.71 
M 568.71 109.71 
L 599.31 109.71 
" clip-path="url(#p3936029cba)" style="fill: none; stroke: #808080; stroke-width: 2; stroke-linecap: round"/>
   </g>
   <g id="line2d_25">
    <path d="M 599.31 109.71 
L 629.91 109.71 
L 629.91 102.06 
L 660.51 102.06 
L 660.51 117.36 
L 629.91 117.36 
L 629.91 109.71 
M 660.51 109.71 
L 691.11 109.71 
" clip-path="url(#p3936029cba)" style="fill: none; stroke: #808080; stroke-width: 2; stroke-linecap: round"/>
   </g>
   <g id="line2d_26">
    <path d="M 691.11 109.71 
L 691.11 140.31 
L 698.76 140.31 
L 698.76 170.91 
L 683.46 170.91 
L 683.46 140.31 
L 691.11 140.31 
M 691.11 170.91 
L 691.11 201.51 
" clip-path="url(#p3936029cba)" style="fill: none; stroke: #808080; stroke-width: 2; stroke-linecap: round"/>
   </g>
   <g id="line2d_27">
    <path d="M 599.31 109.71 
L 599.31 140.31 
L 606.96 140.31 
L 606.96 170.91 
L 591.66 170.91 
L 591.66 140.31 
L 599.31 140.31 
M 599.31 170.91 
L 599.31 201.51 
" clip-path="url(#p3936029cba)" style="fill: none; stroke: #808080; stroke-width: 2; stroke-linecap: round"/>
   </g>
   <g id="line2d_28">
    <path d="M 507.51 201.51 
L 599.31 201.51 
L 691.11 201.51 
" clip-path="url(#p3936029cba)" style="fill: none; stroke: #808080; stroke-width: 2; stroke-linecap: round"/>
   </g>
   <g id="line2d_29">
    <path d="M 507.51 109.71 
L 507.51 63.81 
L 507.51 17.91 
" clip-path="url(#p3936029cba)" style="fill: none; stroke: #808080; stroke-width: 2; stroke-linecap: round"/>
   </g>
   <g id="line2d_30">
    <path d="M 507.51 17.91 
L 530.46 17.91 
L 553.41 17.91 
" clip-path="url(#p3936029cba)" style="fill: none; stroke: #808080; stroke-width: 2; stroke-linecap: round"/>
   </g>
   <g id="line2d_31">
    <path d="M 553.41 17.91 
L 584.01 17.91 
L 584.01 10.26 
L 614.61 10.26 
L 614.61 25.56 
L 584.01 25.56 
L 584.01 17.91 
M 614.61 17.91 
L 645.21 17.91 
" clip-path="url(#p3936029cba)" style="fill: none; stroke: #808080; stroke-width: 2; stroke-linecap: round"/>
   </g>
   <g id="line2d_32">
    <path d="M 645.21 17.91 
L 668.16 17.91 
L 691.11 17.91 
" clip-path="url(#p3936029cba)" style="fill: none; stroke: #808080; stroke-width: 2; stroke-linecap: round"/>
   </g>
   <g id="line2d_33">
    <path d="M 691.11 17.91 
L 691.11 63.81 
L 691.11 109.71 
" clip-path="url(#p3936029cba)" style="fill: none; stroke: #808080; stroke-width: 2; stroke-linecap: round"/>
   </g>
   <g id="line2d_34">
    <path d="M 17.91 201.51 
L 17.91 170.91 
L 10.26 170.91 
L 10.26 140.31 
L 25.56 140.31 
L 25.56 170.91 
L 17.91 170.91 
M 17.91 140.31 
L 17.91 109.71 
" clip-path="url(#p3936029cba)" style="fill: none; stroke: #808080; stroke-width: 2; stroke-linecap: round"/>
   </g>
   <g id="line2d_35">
    <path d="M 17.91 109.71 
L 48.51 109.71 
L 48.51 102.06 
L 79.11 102.06 
L 79.11 117.36 
L 48.51 117.36 
L 48.51 109.71 
M 79.11 109.71 
L 109.71 109.71 
" clip-path="url(#p3936029cba)" style="fill: none; stroke: #808080; stroke-width: 2; stroke-linecap: round"/>
   </g>
   <g id="line2d_36">
    <path d="M 109.71 109.71 
L 140.31 109.71 
L 140.31 102.06 
L 170.91 102.06 
L 170.91 117.36 
L 140.31 117.36 
L 140.31 109.71 
M 170.91 109.71 
L 201.51 109.71 
" clip-path="url(#p3936029cba)" style="fill: none; stroke: #808080; stroke-width: 2; stroke-linecap: round"/>
   </g>
   <g id="line2d_37">
    <path d="M 201.51 109.71 
L 201.51 140.31 
L 209.16 140.31 
L 209.16 170.91 
L 193.86 170.91 
L 193.86 140.31 
L 201.51 140.31 
M 201.51 170.91 
L 201.51 201.51 
" clip-path="url(#p3936029cba)" style="fill: none; stroke: #808080; stroke-width: 2; stroke-linecap: round"/>
   </g>
   <g id="line2d_38">
    <path d="M 109.71 109.71 
L 109.71 140.31 
L 117.36 140.31 
L 117.36 170.91 
L 102.06 170.91 
L 102.06 140.31 
L 109.71 140.31 
M 109.71 170.91 
L 109.71 201.51 
" clip-path="url(#p3936029cba)" style="fill: none; stroke: #808080; stroke-width: 2; stroke-linecap: round"/>
   </g>
   <g id="line2d_39">
    <path d="M 17.91 201.51 
L 109.71 201.51 
L 201.51 201.51 
" clip-path="url(#p3936029cba)" style="fill: none; stroke: #808080; stroke-width: 2; stroke-linecap: round"/>
   </g>
   <g id="line2d_40">
    <path d="M 17.91 109.71 
L 17.91 63.81 
L 17.91 17.91 
" clip-path="url(#p3936029cba)" style="fill: none; stroke: #808080; stroke-width: 2; stroke-linecap: round"/>
   </g>
   <g id="line2d_41">
    <path d="M 17.91 17.91 
L 40.86 17.91 
L 63.81 17.91 
" clip-path="url(#p3936029cba)" style="fill: none; stroke: #808080; stroke-width: 2; stroke-linecap: round"/>
   </g>
   <g id="line2d_42">
    <path d="M 63.81 17.91 
L 94.41 17.91 
L 94.41 10.26 
L 125.01 10.26 
L 125.01 25.56 
L 94.41 25.56 
L 94.41 17.91 
M 125.01 17.91 
L 155.61 17.91 
" clip-path="url(#p3936029cba)" style="fill: none; stroke: #808080; stroke-width: 2; stroke-linecap: round"/>
   </g>
   <g id="line2d_43">
    <path d="M 155.61 17.91 
L 178.56 17.91 
L 201.51 17.91 
" clip-path="url(#p3936029cba)" style="fill: none; stroke: #808080; stroke-width: 2; stroke-linecap: round"/>
   </g>
   <g id="line2d_44">
    <path d="M 201.51 17.91 
L 201.51 63.81 
L 201.51 109.71 
" clip-path="url(#p3936029cba)" style="fill: none; stroke: #808080; stroke-width: 2; stroke-linecap: round"/>
   </g>
   <g id="line2d_45">
    <path d="M 262.71 201.51 
L 262.71 170.91 
L 255.06 170.91 
L 255.06 140.31 
L 270.36 140.31 
L 270.36 170.91 
L 262.71 170.91 
M 262.71 140.31 
L 262.71 109.71 
" clip-path="url(#p3936029cba)" style="fill: none; stroke: #808080; stroke-width: 2; stroke-linecap: round"/>
   </g>
   <g id="line2d_46">
    <path d="M 262.71 109.71 
L 293.31 109.71 
L 293.31 102.06 
L 323.91 102.06 
L 323.91 117.36 
L 293.31 117.36 
L 293.31 109.71 
M 323.91 109.71 
L 354.51 109.71 
" clip-path="url(#p3936029cba)" style="fill: none; stroke: #808080; stroke-width: 2; stroke-linecap: round"/>
   </g>
   <g id="line2d_47">
    <path d="M 354.51 109.71 
L 385.11 109.71 
L 385.11 102.06 
L 415.71 102.06 
L 415.71 117.36 
L 385.11 117.36 
L 385.11 109.71 
M 415.71 109.71 
L 446.31 109.71 
" clip-path="url(#p3936029cba)" style="fill: none; stroke: #808080; stroke-width: 2; stroke-linecap: round"/>
   </g>
   <g id="line2d_48">
    <path d="M 446.31 109.71 
L 446.31 140.31 
L 453.96 140.31 
L 453.96 170.91 
L 438.66 170.91 
L 438.66 140.31 
L 446.31 140.31 
M 446.31 170.91 
L 446.31 201.51 
" clip-path="url(#p3936029cba)" style="fill: none; stroke: #808080; stroke-width: 2; stroke-linecap: round"/>
   </g>
   <g id="line2d_49">
    <path d="M 354.51 109.71 
L 354.51 140.31 
L 362.16 140.31 
L 362.16 170.91 
L 346.86 170.91 
L 346.86 140.31 
L 354.51 140.31 
M 354.51 170.91 
L 354.51 201.51 
" clip-path="url(#p3936029cba)" style="fill: none; stroke: #808080; stroke-width: 2; stroke-linecap: round"/>
   </g>
   <g id="line2d_50">
    <path d="M 262.71 201.51 
L 354.51 201.51 
L 446.31 201.51 
" clip-path="url(#p3936029cba)" style="fill: none; stroke: #808080; stroke-width: 2; stroke-linecap: round"/>
   </g>
   <g id="line2d_51">
    <path d="M 262.71 109.71 
L 262.71 63.81 
L 262.71 17.91 
" clip-path="url(#p3936029cba)" style="fill: none; stroke: #808080; stroke-width: 2; stroke-linecap: round"/>
   </g>
   <g id="line2d_52">
    <path d="M 262.71 17.91 
L 285.66 17.91 
L 308.61 17.91 
" clip-path="url(#p3936029cba)" style="fill: none; stroke: #808080; stroke-width: 2; stroke-linecap: round"/>
   </g>
   <g id="line2d_53">
    <path d="M 308.61 17.91 
L 339.21 17.91 
L 339.21 10.26 
L 369.81 10.26 
L 369.81 25.56 
L 339.21 25.56 
L 339.21 17.91 
M 369.81 17.91 
L 400.41 17.91 
" clip-path="url(#p3936029cba)" style="fill: none; stroke: #808080; stroke-width: 2; stroke-linecap: round"/>
   </g>
   <g id="line2d_54">
    <path d="M 400.41 17.91 
L 423.36 17.91 
L 446.31 17.91 
" clip-path="url(#p3936029cba)" style="fill: none; stroke: #808080; stroke-width: 2; stroke-linecap: round"/>
   </g>
   <g id="line2d_55">
    <path d="M 446.31 17.91 
L 446.31 63.81 
L 446.31 109.71 
" clip-path="url(#p3936029cba)" style="fill: none; stroke: #808080; stroke-width: 2; stroke-linecap: round"/>
   </g>
   <g id="line2d_56">
    <path d="M 507.51 201.51 
L 507.51 170.91 
L 499.86 170.91 
L 499.86 140.31 
L 515.16 140.31 
L 515.16 170.91 
L 507.51 170.91 
M 507.51 140.31 
L 507.51 109.71 
" clip-path="url(#p3936029cba)" style="fill: none; stroke: #808080; stroke-width: 2; stroke-linecap: round"/>
   </g>
   <g id="line2d_57">
    <path d="M 507.51 109.71 
L 538.11 109.71 
L 538.11 102.06 
L 568.71 102.06 
L 568.71 117.36 
L 538.11 117.36 
L 538.11 109.71 
M 568.71 109.71 
L 599.31 109.71 
" clip-path="url(#p3936029cba)" style="fill: none; stroke: #808080; stroke-width: 2; stroke-linecap: round"/>
   </g>
   <g id="line2d_58">
    <path d="M 599.31 109.71 
L 629.91 109.71 
L 629.91 102.06 
L 660.51 102.06 
L 660.51 117.36 
L 629.91 117.36 
L 629.91 109.71 
M 660.51 109.71 
L 691.11 109.71 
" clip-path="url(#p3936029cba)" style="fill: none; stroke: #808080; stroke-width: 2; stroke-linecap: round"/>
   </g>
   <g id="line2d_59">
    <path d="M 691.11 109.71 
L 691.11 140.31 
L 698.76 140.31 
L 698.76 170.91 
L 683.46 170.91 
L 683.46 140.31 
L 691.11 140.31 
M 691.11 170.91 
L 691.11 201.51 
" clip-path="url(#p3936029cba)" style="fill: none; stroke: #808080; stroke-width: 2; stroke-linecap: round"/>
   </g>
   <g id="line2d_60">
    <path d="M 599.31 109.71 
L 599.31 140.31 
L 606.96 140.31 
L 606.96 170.91 
L 591.66 170.91 
L 591.66 140.31 
L 599.31 140.31 
M 599.31 170.91 
L 599.31 201.51 
" clip-path="url(#p3936029cba)" style="fill: none; stroke: #808080; stroke-width: 2; stroke-linecap: round"/>
   </g>
   <g id="line2d_61">
    <path d="M 507.51 201.51 
L 599.31 201.51 
L 691.11 201.51 
" clip-path="url(#p3936029cba)" style="fill: none; stroke: #808080; stroke-width: 2; stroke-linecap: round"/>
   </g>
   <g id="line2d_62">
    <path d="M 507.51 109.71 
L 507.51 63.81 
L 507.51 17.91 
" clip-path="url(#p3936029cba)" style="fill: none; stroke: #808080; stroke-width: 2; stroke-linecap: round"/>
   </g>
   <g id="line2d_63">
    <path d="M 507.51 17.91 
L 530.46 17.91 
L 553.41 17.91 
" clip-path="url(#p3936029cba)" style="fill: none; stroke: #808080; stroke-width: 2; stroke-linecap: round"/>
   </g>
   <g id="line2d_64">
    <path d="M 553.41 17.91 
L 584.01 17.91 
L 584.01 10.26 
L 614.61 10.26 
L 614.61 25.56 
L 584.01 25.56 
L 584.01 17.91 
M 614.61 17.91 
L 645.21 17.91 
" clip-path="url(#p3936029cba)" style="fill: none; stroke: #808080; stroke-width: 2; stroke-linecap: round"/>
   </g>
   <g id="line2d_65">
    <path d="M 645.21 17.91 
L 668.16 17.91 
L 691.11 17.91 
" clip-path="url(#p3936029cba)" style="fill: none; stroke: #808080; stroke-width: 2; stroke-linecap: round"/>
   </g>
   <g id="line2d_66">
    <path d="M 691.11 17.91 
L 691.11 63.81 
L 691.11 109.71 
" clip-path="url(#p3936029cba)" style="fill: none; stroke: #808080; stroke-width: 2; stroke-linecap: round"/>
   </g>
   <g id="text_1">
    <g clip-path="url(#p3936029cba)">
     <!-- $I_1$ -->
     <g style="fill: #0000ff" transform="translate(59.2475 162.884219)scale(0.125 -0.125)">
      <defs>
       <path id="STIXGeneral-Italic-49" d="M 2458 4179 
L 2458 4077 
Q 2189 4045 2102 3961 
Q 2016 3878 1933 3584 
L 1165 838 
Q 1069 499 1069 352 
Q 1069 224 1149 179 
Q 1229 134 1510 102 
L 1510 0 
L -51 0 
L -51 102 
Q 218 154 317 237 
Q 416 320 486 582 
L 1254 3405 
Q 1338 3699 1338 3802 
Q 1338 3930 1235 3997 
Q 1133 4064 877 4077 
L 877 4179 
L 2458 4179 
z
" transform="scale(0.015625)"/>
       <path id="STIXGeneral-Regular-31" d="M 2522 0 
L 755 0 
L 755 96 
Q 1107 115 1235 227 
Q 1363 339 1363 608 
L 1363 3482 
Q 1363 3795 1171 3795 
Q 1082 3795 883 3718 
L 710 3654 
L 710 3744 
L 1856 4326 
L 1914 4307 
L 1914 486 
Q 1914 275 2042 185 
Q 2170 96 2522 96 
L 2522 0 
z
" transform="scale(0.015625)"/>
      </defs>
      <use xlink:href="#STIXGeneral-Italic-49" transform="translate(0 0.703125)"/>
      <use xlink:href="#STIXGeneral-Regular-31" transform="translate(33.299988 -12.525)scale(0.7)"/>
     </g>
    </g>
   </g>
   <g id="text_2">
    <g clip-path="url(#p3936029cba)">
     <!-- $I_2$ -->
     <g style="fill: #ff0000" transform="translate(151.0475 162.884219)scale(0.125 -0.125)">
      <defs>
       <path id="STIXGeneral-Regular-32" d="M 3034 877 
L 2688 0 
L 186 0 
L 186 77 
L 1325 1286 
Q 1773 1754 1965 2144 
Q 2157 2534 2157 2950 
Q 2157 3379 1920 3616 
Q 1683 3853 1267 3853 
Q 922 3853 720 3673 
Q 518 3494 326 3021 
L 192 3053 
Q 301 3648 630 3987 
Q 960 4326 1523 4326 
Q 2054 4326 2380 4006 
Q 2707 3686 2707 3200 
Q 2707 2477 1888 1613 
L 832 486 
L 2330 486 
Q 2541 486 2665 569 
Q 2790 653 2944 915 
L 3034 877 
z
" transform="scale(0.015625)"/>
      </defs>
      <use xlink:href="#STIXGeneral-Italic-49" transform="translate(0 0.703125)"/>
      <use xlink:href="#STIXGeneral-Regular-32" transform="translate(33.299988 -12.525)scale(0.7)"/>
     </g>
    </g>
   </g>
   <g id="text_3">
    <g clip-path="url(#p3936029cba)">
     <!-- $I_3$ -->
     <g style="fill: #008000" transform="translate(105.1475 67.259219)scale(0.125 -0.125)">
      <defs>
       <path id="STIXGeneral-Regular-33" d="M 390 3264 
L 288 3290 
Q 435 3770 748 4048 
Q 1062 4326 1542 4326 
Q 1990 4326 2265 4083 
Q 2541 3840 2541 3450 
Q 2541 2925 1946 2566 
Q 2298 2413 2477 2227 
Q 2758 1914 2758 1402 
Q 2758 890 2464 506 
Q 2246 211 1840 60 
Q 1434 -90 979 -90 
Q 262 -90 262 275 
Q 262 378 339 442 
Q 416 506 525 506 
Q 685 506 915 339 
Q 1197 141 1466 141 
Q 1818 141 2058 425 
Q 2298 710 2298 1120 
Q 2298 1856 1632 2048 
Q 1434 2112 979 2112 
L 979 2202 
Q 1338 2323 1517 2432 
Q 2035 2726 2035 3290 
Q 2035 3610 1852 3776 
Q 1670 3942 1344 3942 
Q 768 3942 390 3264 
z
" transform="scale(0.015625)"/>
      </defs>
      <use xlink:href="#STIXGeneral-Italic-49" transform="translate(0 0.703125)"/>
      <use xlink:href="#STIXGeneral-Regular-33" transform="translate(33.299988 -12.525)scale(0.7)"/>
     </g>
    </g>
   </g>
   <g id="text_4">
    <g clip-path="url(#p3936029cba)">
     <!-- $I_4$ -->
     <g style="fill: #800080" transform="translate(353.7725 116.984219)scale(0.125 -0.125)">
      <defs>
       <path id="STIXGeneral-Regular-34" d="M 3027 1069 
L 2368 1069 
L 2368 0 
L 1869 0 
L 1869 1069 
L 77 1069 
L 77 1478 
L 2086 4326 
L 2368 4326 
L 2368 1478 
L 3027 1478 
L 3027 1069 
z
M 1869 1478 
L 1869 3674 
L 333 1478 
L 1869 1478 
z
" transform="scale(0.015625)"/>
      </defs>
      <use xlink:href="#STIXGeneral-Italic-49" transform="translate(0 0.703125)"/>
      <use xlink:href="#STIXGeneral-Regular-34" transform="translate(33.299988 -12.525)scale(0.7)"/>
     </g>
    </g>
   </g>
   <g id="text_5">
    <g clip-path="url(#p3936029cba)">
     <!-- $I_5$ -->
     <g style="fill: #ffa500" transform="translate(353.7725 162.884219)scale(0.125 -0.125)">
      <defs>
       <path id="STIXGeneral-Regular-35" d="M 2803 4358 
L 2573 3814 
Q 2534 3731 2400 3731 
L 1158 3731 
L 902 3187 
Q 1606 3053 1920 2896 
Q 2234 2739 2502 2368 
Q 2726 2061 2726 1555 
Q 2726 1094 2576 780 
Q 2426 467 2099 224 
Q 1664 -90 1011 -90 
Q 646 -90 422 19 
Q 198 128 198 307 
Q 198 550 486 550 
Q 717 550 960 352 
Q 1210 147 1414 147 
Q 1747 147 2012 480 
Q 2278 813 2278 1229 
Q 2278 1843 1850 2189 
Q 1293 2637 486 2637 
Q 410 2637 410 2688 
L 416 2720 
L 1114 4237 
L 2438 4237 
Q 2547 4237 2608 4269 
Q 2669 4301 2746 4403 
L 2803 4358 
z
" transform="scale(0.015625)"/>
      </defs>
      <use xlink:href="#STIXGeneral-Italic-49" transform="translate(0 0.703125)"/>
      <use xlink:href="#STIXGeneral-Regular-35" transform="translate(33.299988 -12.525)scale(0.7)"/>
     </g>
    </g>
   </g>
   <g id="text_6">
    <g clip-path="url(#p3936029cba)">
     <!-- $I_6$ -->
     <g style="fill: #00ffff" transform="translate(548.8475 116.984219)scale(0.125 -0.125)">
      <defs>
       <path id="STIXGeneral-Regular-36" d="M 2854 4378 
L 2867 4275 
Q 2112 4154 1606 3664 
Q 1101 3174 973 2451 
Q 1344 2739 1786 2739 
Q 2349 2739 2672 2380 
Q 2995 2022 2995 1402 
Q 2995 774 2669 378 
Q 2291 -90 1651 -90 
Q 870 -90 518 557 
Q 218 1107 218 1786 
Q 218 2835 915 3552 
Q 1312 3962 1731 4131 
Q 2150 4301 2854 4378 
z
M 2419 1203 
Q 2419 2445 1555 2445 
Q 1235 2445 1024 2275 
Q 813 2106 813 1702 
Q 813 954 1046 522 
Q 1280 90 1722 90 
Q 2061 90 2240 394 
Q 2419 698 2419 1203 
z
" transform="scale(0.015625)"/>
      </defs>
      <use xlink:href="#STIXGeneral-Italic-49" transform="translate(0 0.703125)"/>
      <use xlink:href="#STIXGeneral-Regular-36" transform="translate(33.299988 -12.525)scale(0.7)"/>
     </g>
    </g>
   </g>
   <g id="text_7">
    <g clip-path="url(#p3936029cba)">
     <!-- $I_7$ -->
     <g style="fill: #ff00ff" transform="translate(644.4725 116.984219)scale(0.125 -0.125)">
      <defs>
       <path id="STIXGeneral-Regular-37" d="M 2874 4134 
L 1517 -51 
L 1101 -51 
L 2368 3763 
L 992 3763 
Q 717 3763 582 3667 
Q 448 3571 243 3238 
L 128 3296 
L 512 4237 
L 2874 4237 
L 2874 4134 
z
" transform="scale(0.015625)"/>
      </defs>
      <use xlink:href="#STIXGeneral-Italic-49" transform="translate(0 0.703125)"/>
      <use xlink:href="#STIXGeneral-Regular-37" transform="translate(33.299988 -12.525)scale(0.7)"/>
     </g>
    </g>
   </g>
   <g id="text_8">
    <g clip-path="url(#p3936029cba)">
     <!-- $I_1$ -->
     <g style="fill: #0000ff" transform="translate(59.2475 162.884219)scale(0.125 -0.125)">
      <use xlink:href="#STIXGeneral-Italic-49" transform="translate(0 0.703125)"/>
      <use xlink:href="#STIXGeneral-Regular-31" transform="translate(33.299988 -12.525)scale(0.7)"/>
     </g>
    </g>
   </g>
   <g id="text_9">
    <g clip-path="url(#p3936029cba)">
     <!-- $I_2$ -->
     <g style="fill: #ff0000" transform="translate(151.0475 162.884219)scale(0.125 -0.125)">
      <use xlink:href="#STIXGeneral-Italic-49" transform="translate(0 0.703125)"/>
      <use xlink:href="#STIXGeneral-Regular-32" transform="translate(33.299988 -12.525)scale(0.7)"/>
     </g>
    </g>
   </g>
   <g id="text_10">
    <g clip-path="url(#p3936029cba)">
     <!-- $I_3$ -->
     <g style="fill: #008000" transform="translate(105.1475 67.259219)scale(0.125 -0.125)">
      <use xlink:href="#STIXGeneral-Italic-49" transform="translate(0 0.703125)"/>
      <use xlink:href="#STIXGeneral-Regular-33" transform="translate(33.299988 -12.525)scale(0.7)"/>
     </g>
    </g>
   </g>
   <g id="text_11">
    <g clip-path="url(#p3936029cba)">
     <!-- $I_4$ -->
     <g style="fill: #800080" transform="translate(353.7725 116.984219)scale(0.125 -0.125)">
      <use xlink:href="#STIXGeneral-Italic-49" transform="translate(0 0.703125)"/>
      <use xlink:href="#STIXGeneral-Regular-34" transform="translate(33.299988 -12.525)scale(0.7)"/>
     </g>
    </g>
   </g>
   <g id="text_12">
    <g clip-path="url(#p3936029cba)">
     <!-- $I_5$ -->
     <g style="fill: #ffa500" transform="translate(353.7725 162.884219)scale(0.125 -0.125)">
      <use xlink:href="#STIXGeneral-Italic-49" transform="translate(0 0.703125)"/>
      <use xlink:href="#STIXGeneral-Regular-35" transform="translate(33.299988 -12.525)scale(0.7)"/>
     </g>
    </g>
   </g>
   <g id="text_13">
    <g clip-path="url(#p3936029cba)">
     <!-- $I_6$ -->
     <g style="fill: #00ffff" transform="translate(548.8475 116.984219)scale(0.125 -0.125)">
      <use xlink:href="#STIXGeneral-Italic-49" transform="translate(0 0.703125)"/>
      <use xlink:href="#STIXGeneral-Regular-36" transform="translate(33.299988 -12.525)scale(0.7)"/>
     </g>
    </g>
   </g>
   <g id="text_14">
    <g clip-path="url(#p3936029cba)">
     <!-- $I_7$ -->
     <g style="fill: #ff00ff" transform="translate(644.4725 116.984219)scale(0.125 -0.125)">
      <use xlink:href="#STIXGeneral-Italic-49" transform="translate(0 0.703125)"/>
      <use xlink:href="#STIXGeneral-Regular-37" transform="translate(33.299988 -12.525)scale(0.7)"/>
     </g>
    </g>
   </g>
  </g>
 </g>
 <defs>
  <clipPath id="p3936029cba">
   <rect x="7.2" y="7.2" width="694.62" height="197.37"/>
  </clipPath>
 </defs>
</svg>
