<?xml version="1.0" encoding="utf-8" standalone="no"?>
<!DOCTYPE svg PUBLIC "-//W3C//DTD SVG 1.1//EN"
  "http://www.w3.org/Graphics/SVG/1.1/DTD/svg11.dtd">
<svg xmlns:xlink="http://www.w3.org/1999/xlink" width="208.71pt" height="122.265pt" viewBox="0 0 208.71 122.265" xmlns="http://www.w3.org/2000/svg" version="1.1">
 <metadata>
  <rdf:RDF xmlns:dc="http://purl.org/dc/elements/1.1/" xmlns:cc="http://creativecommons.org/ns#" xmlns:rdf="http://www.w3.org/1999/02/22-rdf-syntax-ns#">
   <cc:Work>
    <dc:type rdf:resource="http://purl.org/dc/dcmitype/StillImage"/>
    <dc:date>2023-03-04T09:17:40.464210</dc:date>
    <dc:format>image/svg+xml</dc:format>
    <dc:creator>
     <cc:Agent>
      <dc:title>Matplotlib v3.5.2, https://matplotlib.org/</dc:title>
     </cc:Agent>
    </dc:creator>
   </cc:Work>
  </rdf:RDF>
 </metadata>
 <defs>
  <style type="text/css">*{stroke-linejoin: round; stroke-linecap: butt}</style>
 </defs>
 <g id="figure_1">
  <g id="patch_1">
   <path d="M 0 122.265 
L 208.71 122.265 
L 208.71 0 
L 0 0 
L 0 122.265 
z
" style="fill: none"/>
  </g>
  <g id="axes_1">
   <g id="line2d_1">
    <path d="M 12.555 17.91 
L 43.155 17.91 
L 45.705 10.26 
L 50.805 25.56 
L 55.905 10.26 
L 61.005 25.56 
L 66.105 10.26 
L 71.205 25.56 
L 73.755 17.91 
L 104.355 17.91 
" clip-path="url(#p63d797d7b2)" style="fill: none; stroke: #0000ff; stroke-width: 2; stroke-linecap: round"/>
   </g>
   <g id="line2d_2">
    <path d="M 104.355 17.91 
L 104.355 48.51 
L 112.005 51.06 
L 96.705 56.16 
L 112.005 61.26 
L 96.705 66.36 
L 112.005 71.46 
L 96.705 76.56 
L 104.355 79.11 
L 104.355 109.71 
" clip-path="url(#p63d797d7b2)" style="fill: none; stroke: #008000; stroke-width: 2; stroke-linecap: round"/>
   </g>
   <g id="line2d_3">
    <path d="M 104.355 17.91 
L 134.955 17.91 
L 137.505 10.26 
L 142.605 25.56 
L 147.705 10.26 
L 152.805 25.56 
L 157.905 10.26 
L 163.005 25.56 
L 165.555 17.91 
L 196.155 17.91 
" clip-path="url(#p63d797d7b2)" style="fill: none; stroke: #800080; stroke-width: 2; stroke-linecap: round"/>
   </g>
   <g id="line2d_4">
    <path d="M 12.555 17.91 
L 43.155 17.91 
L 45.705 10.26 
L 50.805 25.56 
L 55.905 10.26 
L 61.005 25.56 
L 66.105 10.26 
L 71.205 25.56 
L 73.755 17.91 
L 104.355 17.91 
" clip-path="url(#p63d797d7b2)" style="fill: none; stroke: #0000ff; stroke-width: 2; stroke-linecap: round"/>
   </g>
   <g id="line2d_5">
    <path d="M 104.355 17.91 
L 104.355 48.51 
L 112.005 51.06 
L 96.705 56.16 
L 112.005 61.26 
L 96.705 66.36 
L 112.005 71.46 
L 96.705 76.56 
L 104.355 79.11 
L 104.355 109.71 
" clip-path="url(#p63d797d7b2)" style="fill: none; stroke: #008000; stroke-width: 2; stroke-linecap: round"/>
   </g>
   <g id="line2d_6">
    <path d="M 104.355 17.91 
L 134.955 17.91 
L 137.505 10.26 
L 142.605 25.56 
L 147.705 10.26 
L 152.805 25.56 
L 157.905 10.26 
L 163.005 25.56 
L 165.555 17.91 
L 196.155 17.91 
" clip-path="url(#p63d797d7b2)" style="fill: none; stroke: #800080; stroke-width: 2; stroke-linecap: round"/>
   </g>
   <g id="patch_2">
    <path d="M 12.555 20.205 
C 13.163641 20.205 13.747436 19.963184 14.17781 19.53281 
C 14.608184 19.102436 14.85 18.518641 14.85 17.91 
C 14.85 17.301359 14.608184 16.717564 14.17781 16.28719 
C 13.747436 15.856816 13.163641 15.615 12.555 15.615 
C 11.946359 15.615 11.362564 15.856816 10.93219 16.28719 
C 10.501816 16.717564 10.26 17.301359 10.26 17.91 
C 10.26 18.518641 10.501816 19.102436 10.93219 19.53281 
C 11.362564 19.963184 11.946359 20.205 12.555 20.205 
z
" clip-path="url(#p63d797d7b2)" style="stroke: #000000; stroke-width: 2; stroke-linejoin: miter"/>
   </g>
   <g id="patch_3">
    <path d="M 104.355 20.205 
C 104.963641 20.205 105.547436 19.963184 105.97781 19.53281 
C 106.408184 19.102436 106.65 18.518641 106.65 17.91 
C 106.65 17.301359 106.408184 16.717564 105.97781 16.28719 
C 105.547436 15.856816 104.963641 15.615 104.355 15.615 
C 103.746359 15.615 103.162564 15.856816 102.73219 16.28719 
C 102.301816 16.717564 102.06 17.301359 102.06 17.91 
C 102.06 18.518641 102.301816 19.102436 102.73219 19.53281 
C 103.162564 19.963184 103.746359 20.205 104.355 20.205 
z
" clip-path="url(#p63d797d7b2)" style="stroke: #000000; stroke-width: 2; stroke-linejoin: miter"/>
   </g>
   <g id="patch_4">
    <path d="M 104.355 112.005 
C 104.963641 112.005 105.547436 111.763184 105.97781 111.33281 
C 106.408184 110.902436 106.65 110.318641 106.65 109.71 
C 106.65 109.101359 106.408184 108.517564 105.97781 108.08719 
C 105.547436 107.656816 104.963641 107.415 104.355 107.415 
C 103.746359 107.415 103.162564 107.656816 102.73219 108.08719 
C 102.301816 108.517564 102.06 109.101359 102.06 109.71 
C 102.06 110.318641 102.301816 110.902436 102.73219 111.33281 
C 103.162564 111.763184 103.746359 112.005 104.355 112.005 
z
" clip-path="url(#p63d797d7b2)" style="stroke: #000000; stroke-width: 2; stroke-linejoin: miter"/>
   </g>
   <g id="patch_5">
    <path d="M 196.155 20.205 
C 196.763641 20.205 197.347436 19.963184 197.77781 19.53281 
C 198.208184 19.102436 198.45 18.518641 198.45 17.91 
C 198.45 17.301359 198.208184 16.717564 197.77781 16.28719 
C 197.347436 15.856816 196.763641 15.615 196.155 15.615 
C 195.546359 15.615 194.962564 15.856816 194.53219 16.28719 
C 194.101816 16.717564 193.86 17.301359 193.86 17.91 
C 193.86 18.518641 194.101816 19.102436 194.53219 19.53281 
C 194.962564 19.963184 195.546359 20.205 196.155 20.205 
z
" clip-path="url(#p63d797d7b2)" style="stroke: #000000; stroke-width: 2; stroke-linejoin: miter"/>
   </g>
   <g id="patch_6">
    <path d="M 12.555 20.205 
C 13.163641 20.205 13.747436 19.963184 14.17781 19.53281 
C 14.608184 19.102436 14.85 18.518641 14.85 17.91 
C 14.85 17.301359 14.608184 16.717564 14.17781 16.28719 
C 13.747436 15.856816 13.163641 15.615 12.555 15.615 
C 11.946359 15.615 11.362564 15.856816 10.93219 16.28719 
C 10.501816 16.717564 10.26 17.301359 10.26 17.91 
C 10.26 18.518641 10.501816 19.102436 10.93219 19.53281 
C 11.362564 19.963184 11.946359 20.205 12.555 20.205 
z
" clip-path="url(#p63d797d7b2)" style="stroke: #000000; stroke-width: 2; stroke-linejoin: miter"/>
   </g>
   <g id="patch_7">
    <path d="M 104.355 20.205 
C 104.963641 20.205 105.547436 19.963184 105.97781 19.53281 
C 106.408184 19.102436 106.65 18.518641 106.65 17.91 
C 106.65 17.301359 106.408184 16.717564 105.97781 16.28719 
C 105.547436 15.856816 104.963641 15.615 104.355 15.615 
C 103.746359 15.615 103.162564 15.856816 102.73219 16.28719 
C 102.301816 16.717564 102.06 17.301359 102.06 17.91 
C 102.06 18.518641 102.301816 19.102436 102.73219 19.53281 
C 103.162564 19.963184 103.746359 20.205 104.355 20.205 
z
" clip-path="url(#p63d797d7b2)" style="stroke: #000000; stroke-width: 2; stroke-linejoin: miter"/>
   </g>
   <g id="patch_8">
    <path d="M 104.355 112.005 
C 104.963641 112.005 105.547436 111.763184 105.97781 111.33281 
C 106.408184 110.902436 106.65 110.318641 106.65 109.71 
C 106.65 109.101359 106.408184 108.517564 105.97781 108.08719 
C 105.547436 107.656816 104.963641 107.415 104.355 107.415 
C 103.746359 107.415 103.162564 107.656816 102.73219 108.08719 
C 102.301816 108.517564 102.06 109.101359 102.06 109.71 
C 102.06 110.318641 102.301816 110.902436 102.73219 111.33281 
C 103.162564 111.763184 103.746359 112.005 104.355 112.005 
z
" clip-path="url(#p63d797d7b2)" style="stroke: #000000; stroke-width: 2; stroke-linejoin: miter"/>
   </g>
   <g id="patch_9">
    <path d="M 196.155 20.205 
C 196.763641 20.205 197.347436 19.963184 197.77781 19.53281 
C 198.208184 19.102436 198.45 18.518641 198.45 17.91 
C 198.45 17.301359 198.208184 16.717564 197.77781 16.28719 
C 197.347436 15.856816 196.763641 15.615 196.155 15.615 
C 195.546359 15.615 194.962564 15.856816 194.53219 16.28719 
C 194.101816 16.717564 193.86 17.301359 193.86 17.91 
C 193.86 18.518641 194.101816 19.102436 194.53219 19.53281 
C 194.962564 19.963184 195.546359 20.205 196.155 20.205 
z
" clip-path="url(#p63d797d7b2)" style="stroke: #000000; stroke-width: 2; stroke-linejoin: miter"/>
   </g>
  </g>
 </g>
 <defs>
  <clipPath id="p63d797d7b2">
   <rect x="7.2" y="7.2" width="194.31" height="107.865"/>
  </clipPath>
 </defs>
</svg>
