<?xml version="1.0" encoding="utf-8" standalone="no"?>
<!DOCTYPE svg PUBLIC "-//W3C//DTD SVG 1.1//EN"
  "http://www.w3.org/Graphics/SVG/1.1/DTD/svg11.dtd">
<svg xmlns:xlink="http://www.w3.org/1999/xlink" width="219.42pt" height="211.77pt" viewBox="0 0 219.42 211.77" xmlns="http://www.w3.org/2000/svg" version="1.1">
 <metadata>
  <rdf:RDF xmlns:dc="http://purl.org/dc/elements/1.1/" xmlns:cc="http://creativecommons.org/ns#" xmlns:rdf="http://www.w3.org/1999/02/22-rdf-syntax-ns#">
   <cc:Work>
    <dc:type rdf:resource="http://purl.org/dc/dcmitype/StillImage"/>
    <dc:date>2023-10-21T16:48:52.309151</dc:date>
    <dc:format>image/svg+xml</dc:format>
    <dc:creator>
     <cc:Agent>
      <dc:title>Matplotlib v3.5.2, https://matplotlib.org/</dc:title>
     </cc:Agent>
    </dc:creator>
   </cc:Work>
  </rdf:RDF>
 </metadata>
 <defs>
  <style type="text/css">*{stroke-linejoin: round; stroke-linecap: butt}</style>
 </defs>
 <g id="figure_1">
  <g id="patch_1">
   <path d="M 0 211.77 
L 219.42 211.77 
L 219.42 0 
L 0 0 
L 0 211.77 
z
" style="fill: none"/>
  </g>
  <g id="axes_1">
   <g id="patch_2">
    <path d="M 83.487918 145.656373 
C 82.205149 143.162839 80.58269 140.929704 78.684399 139.044859 
C 76.786108 137.160014 74.637221 135.648518 72.322315 134.56986 
C 70.007408 133.491202 67.557257 132.859722 65.068294 132.700274 
C 62.579332 132.540826 60.084648 132.85553 57.682428 133.632 
C 55.280208 134.40847 53.002388 135.636383 50.938619 137.26741 
C 48.874851 138.898438 47.052569 140.910897 45.543497 143.22558 
C 44.034425 145.540263 42.858623 148.126399 42.062371 150.882201 
C 41.266118 153.638004 40.86 156.526837 40.86 159.435 
C 40.86 162.343163 41.266118 165.231996 42.062371 167.987799 
C 42.858623 170.743601 44.034425 173.329737 45.543497 175.64442 
C 47.052569 177.959103 48.874851 179.971562 50.938619 181.60259 
C 53.002388 183.233617 55.280208 184.46153 57.682428 185.238 
C 60.084648 186.01447 62.579332 186.329174 65.068294 186.169726 
C 67.557257 186.010278 70.007408 185.378798 72.322315 184.30014 
C 74.637221 183.221482 76.786108 181.709986 78.684399 179.825141 
C 80.58269 177.940296 82.205149 175.707161 83.487918 173.213627 
" clip-path="url(#p746529db97)" style="fill: none; stroke: #0000ff; stroke-width: 2; stroke-linejoin: miter"/>
   </g>
   <g id="patch_3">
    <path d="M 87.582139 152.478052 
L 81.677596 147.099771 
L 83.63227 145.926619 
L 83.4748 145.664247 
L 83.501037 145.6485 
L 83.658507 145.910872 
L 85.61318 144.73772 
z
" clip-path="url(#p746529db97)" style="fill: #0000ff; stroke: #0000ff; stroke-linejoin: miter"/>
   </g>
   <g id="patch_4">
    <path d="M 175.287918 145.656373 
C 174.005149 143.162839 172.38269 140.929704 170.484399 139.044859 
C 168.586108 137.160014 166.437221 135.648518 164.122315 134.56986 
C 161.807408 133.491202 159.357257 132.859722 156.868294 132.700274 
C 154.379332 132.540826 151.884648 132.85553 149.482428 133.632 
C 147.080208 134.40847 144.802388 135.636383 142.738619 137.26741 
C 140.674851 138.898438 138.852569 140.910897 137.343497 143.22558 
C 135.834425 145.540263 134.658623 148.126399 133.862371 150.882201 
C 133.066118 153.638004 132.66 156.526837 132.66 159.435 
C 132.66 162.343163 133.066118 165.231996 133.862371 167.987799 
C 134.658623 170.743601 135.834425 173.329737 137.343497 175.64442 
C 138.852569 177.959103 140.674851 179.971562 142.738619 181.60259 
C 144.802388 183.233617 147.080208 184.46153 149.482428 185.238 
C 151.884648 186.01447 154.379332 186.329174 156.868294 186.169726 
C 159.357257 186.010278 161.807408 185.378798 164.122315 184.30014 
C 166.437221 183.221482 168.586108 181.709986 170.484399 179.825141 
C 172.38269 177.940296 174.005149 175.707161 175.287918 173.213627 
" clip-path="url(#p746529db97)" style="fill: none; stroke: #ff0000; stroke-width: 2; stroke-linejoin: miter"/>
   </g>
   <g id="patch_5">
    <path d="M 179.382139 152.478052 
L 173.477596 147.099771 
L 175.43227 145.926619 
L 175.2748 145.664247 
L 175.301037 145.6485 
L 175.458507 145.910872 
L 177.41318 144.73772 
z
" clip-path="url(#p746529db97)" style="fill: #ff0000; stroke: #ff0000; stroke-linejoin: miter"/>
   </g>
   <g id="patch_6">
    <path d="M 139.83728 42.714651 
C 128.202227 41.219159 115.509803 40.613119 102.902047 40.95106 
C 90.294292 41.289 78.161038 42.560474 67.594011 44.651075 
C 57.026984 46.741676 48.352917 49.586764 42.352286 52.930342 
C 36.351655 56.273921 33.21 60.012606 33.21 63.81 
C 33.21 67.607394 36.351655 71.346079 42.352286 74.689658 
C 48.352917 78.033236 57.026984 80.878324 67.594011 82.968925 
C 78.161038 85.059526 90.294292 86.331 102.902047 86.66894 
C 115.509803 87.006881 128.202227 86.400841 139.83728 84.905349 
" clip-path="url(#p746529db97)" style="fill: none; stroke: #008000; stroke-width: 2; stroke-linejoin: miter"/>
   </g>
   <g id="patch_7">
    <path d="M 147.150334 45.847889 
L 139.214733 44.944695 
L 140.112526 42.849224 
L 139.831255 42.728715 
L 139.843305 42.700588 
L 140.124577 42.821097 
L 141.02237 40.725626 
z
" clip-path="url(#p746529db97)" style="fill: #008000; stroke: #008000; stroke-linejoin: miter"/>
   </g>
   <g id="patch_8">
    <path d="M 83.487918 145.656373 
C 82.205149 143.162839 80.58269 140.929704 78.684399 139.044859 
C 76.786108 137.160014 74.637221 135.648518 72.322315 134.56986 
C 70.007408 133.491202 67.557257 132.859722 65.068294 132.700274 
C 62.579332 132.540826 60.084648 132.85553 57.682428 133.632 
C 55.280208 134.40847 53.002388 135.636383 50.938619 137.26741 
C 48.874851 138.898438 47.052569 140.910897 45.543497 143.22558 
C 44.034425 145.540263 42.858623 148.126399 42.062371 150.882201 
C 41.266118 153.638004 40.86 156.526837 40.86 159.435 
C 40.86 162.343163 41.266118 165.231996 42.062371 167.987799 
C 42.858623 170.743601 44.034425 173.329737 45.543497 175.64442 
C 47.052569 177.959103 48.874851 179.971562 50.938619 181.60259 
C 53.002388 183.233617 55.280208 184.46153 57.682428 185.238 
C 60.084648 186.01447 62.579332 186.329174 65.068294 186.169726 
C 67.557257 186.010278 70.007408 185.378798 72.322315 184.30014 
C 74.637221 183.221482 76.786108 181.709986 78.684399 179.825141 
C 80.58269 177.940296 82.205149 175.707161 83.487918 173.213627 
" clip-path="url(#p746529db97)" style="fill: none; stroke: #0000ff; stroke-width: 2; stroke-linejoin: miter"/>
   </g>
   <g id="patch_9">
    <path d="M 87.582139 152.478052 
L 81.677596 147.099771 
L 83.63227 145.926619 
L 83.4748 145.664247 
L 83.501037 145.6485 
L 83.658507 145.910872 
L 85.61318 144.73772 
z
" clip-path="url(#p746529db97)" style="fill: #0000ff; stroke: #0000ff; stroke-linejoin: miter"/>
   </g>
   <g id="patch_10">
    <path d="M 175.287918 145.656373 
C 174.005149 143.162839 172.38269 140.929704 170.484399 139.044859 
C 168.586108 137.160014 166.437221 135.648518 164.122315 134.56986 
C 161.807408 133.491202 159.357257 132.859722 156.868294 132.700274 
C 154.379332 132.540826 151.884648 132.85553 149.482428 133.632 
C 147.080208 134.40847 144.802388 135.636383 142.738619 137.26741 
C 140.674851 138.898438 138.852569 140.910897 137.343497 143.22558 
C 135.834425 145.540263 134.658623 148.126399 133.862371 150.882201 
C 133.066118 153.638004 132.66 156.526837 132.66 159.435 
C 132.66 162.343163 133.066118 165.231996 133.862371 167.987799 
C 134.658623 170.743601 135.834425 173.329737 137.343497 175.64442 
C 138.852569 177.959103 140.674851 179.971562 142.738619 181.60259 
C 144.802388 183.233617 147.080208 184.46153 149.482428 185.238 
C 151.884648 186.01447 154.379332 186.329174 156.868294 186.169726 
C 159.357257 186.010278 161.807408 185.378798 164.122315 184.30014 
C 166.437221 183.221482 168.586108 181.709986 170.484399 179.825141 
C 172.38269 177.940296 174.005149 175.707161 175.287918 173.213627 
" clip-path="url(#p746529db97)" style="fill: none; stroke: #ff0000; stroke-width: 2; stroke-linejoin: miter"/>
   </g>
   <g id="patch_11">
    <path d="M 179.382139 152.478052 
L 173.477596 147.099771 
L 175.43227 145.926619 
L 175.2748 145.664247 
L 175.301037 145.6485 
L 175.458507 145.910872 
L 177.41318 144.73772 
z
" clip-path="url(#p746529db97)" style="fill: #ff0000; stroke: #ff0000; stroke-linejoin: miter"/>
   </g>
   <g id="patch_12">
    <path d="M 139.83728 42.714651 
C 128.202227 41.219159 115.509803 40.613119 102.902047 40.95106 
C 90.294292 41.289 78.161038 42.560474 67.594011 44.651075 
C 57.026984 46.741676 48.352917 49.586764 42.352286 52.930342 
C 36.351655 56.273921 33.21 60.012606 33.21 63.81 
C 33.21 67.607394 36.351655 71.346079 42.352286 74.689658 
C 48.352917 78.033236 57.026984 80.878324 67.594011 82.968925 
C 78.161038 85.059526 90.294292 86.331 102.902047 86.66894 
C 115.509803 87.006881 128.202227 86.400841 139.83728 84.905349 
" clip-path="url(#p746529db97)" style="fill: none; stroke: #008000; stroke-width: 2; stroke-linejoin: miter"/>
   </g>
   <g id="patch_13">
    <path d="M 147.150334 45.847889 
L 139.214733 44.944695 
L 140.112526 42.849224 
L 139.831255 42.728715 
L 139.843305 42.700588 
L 140.124577 42.821097 
L 141.02237 40.725626 
z
" clip-path="url(#p746529db97)" style="fill: #008000; stroke: #008000; stroke-linejoin: miter"/>
   </g>
   <g id="line2d_1">
    <path d="M 17.91 201.51 
L 17.91 170.91 
L 10.26 170.91 
L 10.26 140.31 
L 25.56 140.31 
L 25.56 170.91 
L 17.91 170.91 
M 17.91 140.31 
L 17.91 109.71 
" clip-path="url(#p746529db97)" style="fill: none; stroke: #808080; stroke-width: 2; stroke-linecap: round"/>
   </g>
   <g id="line2d_2">
    <path d="M 17.91 109.71 
L 48.51 109.71 
L 48.51 102.06 
L 79.11 102.06 
L 79.11 117.36 
L 48.51 117.36 
L 48.51 109.71 
M 79.11 109.71 
L 109.71 109.71 
" clip-path="url(#p746529db97)" style="fill: none; stroke: #808080; stroke-width: 2; stroke-linecap: round"/>
   </g>
   <g id="line2d_3">
    <path d="M 109.71 109.71 
L 140.31 109.71 
L 140.31 102.06 
L 170.91 102.06 
L 170.91 117.36 
L 140.31 117.36 
L 140.31 109.71 
M 170.91 109.71 
L 201.51 109.71 
" clip-path="url(#p746529db97)" style="fill: none; stroke: #808080; stroke-width: 2; stroke-linecap: round"/>
   </g>
   <g id="line2d_4">
    <path d="M 201.51 109.71 
L 201.51 140.31 
L 209.16 140.31 
L 209.16 170.91 
L 193.86 170.91 
L 193.86 140.31 
L 201.51 140.31 
M 201.51 170.91 
L 201.51 201.51 
" clip-path="url(#p746529db97)" style="fill: none; stroke: #808080; stroke-width: 2; stroke-linecap: round"/>
   </g>
   <g id="line2d_5">
    <path d="M 109.71 109.71 
L 109.71 140.31 
L 117.36 140.31 
L 117.36 170.91 
L 102.06 170.91 
L 102.06 140.31 
L 109.71 140.31 
M 109.71 170.91 
L 109.71 201.51 
" clip-path="url(#p746529db97)" style="fill: none; stroke: #808080; stroke-width: 2; stroke-linecap: round"/>
   </g>
   <g id="line2d_6">
    <path d="M 17.91 201.51 
L 109.71 201.51 
L 201.51 201.51 
" clip-path="url(#p746529db97)" style="fill: none; stroke: #808080; stroke-width: 2; stroke-linecap: round"/>
   </g>
   <g id="line2d_7">
    <path d="M 17.91 109.71 
L 17.91 63.81 
L 17.91 17.91 
" clip-path="url(#p746529db97)" style="fill: none; stroke: #808080; stroke-width: 2; stroke-linecap: round"/>
   </g>
   <g id="line2d_8">
    <path d="M 17.91 17.91 
L 40.86 17.91 
L 63.81 17.91 
" clip-path="url(#p746529db97)" style="fill: none; stroke: #808080; stroke-width: 2; stroke-linecap: round"/>
   </g>
   <g id="line2d_9">
    <path d="M 63.81 17.91 
L 94.41 17.91 
L 94.41 10.26 
L 125.01 10.26 
L 125.01 25.56 
L 94.41 25.56 
L 94.41 17.91 
M 125.01 17.91 
L 155.61 17.91 
" clip-path="url(#p746529db97)" style="fill: none; stroke: #808080; stroke-width: 2; stroke-linecap: round"/>
   </g>
   <g id="line2d_10">
    <path d="M 155.61 17.91 
L 178.56 17.91 
L 201.51 17.91 
" clip-path="url(#p746529db97)" style="fill: none; stroke: #808080; stroke-width: 2; stroke-linecap: round"/>
   </g>
   <g id="line2d_11">
    <path d="M 201.51 17.91 
L 201.51 63.81 
L 201.51 109.71 
" clip-path="url(#p746529db97)" style="fill: none; stroke: #808080; stroke-width: 2; stroke-linecap: round"/>
   </g>
   <g id="line2d_12">
    <path d="M 17.91 201.51 
L 17.91 170.91 
L 10.26 170.91 
L 10.26 140.31 
L 25.56 140.31 
L 25.56 170.91 
L 17.91 170.91 
M 17.91 140.31 
L 17.91 109.71 
" clip-path="url(#p746529db97)" style="fill: none; stroke: #808080; stroke-width: 2; stroke-linecap: round"/>
   </g>
   <g id="line2d_13">
    <path d="M 17.91 109.71 
L 48.51 109.71 
L 48.51 102.06 
L 79.11 102.06 
L 79.11 117.36 
L 48.51 117.36 
L 48.51 109.71 
M 79.11 109.71 
L 109.71 109.71 
" clip-path="url(#p746529db97)" style="fill: none; stroke: #808080; stroke-width: 2; stroke-linecap: round"/>
   </g>
   <g id="line2d_14">
    <path d="M 109.71 109.71 
L 140.31 109.71 
L 140.31 102.06 
L 170.91 102.06 
L 170.91 117.36 
L 140.31 117.36 
L 140.31 109.71 
M 170.91 109.71 
L 201.51 109.71 
" clip-path="url(#p746529db97)" style="fill: none; stroke: #808080; stroke-width: 2; stroke-linecap: round"/>
   </g>
   <g id="line2d_15">
    <path d="M 201.51 109.71 
L 201.51 140.31 
L 209.16 140.31 
L 209.16 170.91 
L 193.86 170.91 
L 193.86 140.31 
L 201.51 140.31 
M 201.51 170.91 
L 201.51 201.51 
" clip-path="url(#p746529db97)" style="fill: none; stroke: #808080; stroke-width: 2; stroke-linecap: round"/>
   </g>
   <g id="line2d_16">
    <path d="M 109.71 109.71 
L 109.71 140.31 
L 117.36 140.31 
L 117.36 170.91 
L 102.06 170.91 
L 102.06 140.31 
L 109.71 140.31 
M 109.71 170.91 
L 109.71 201.51 
" clip-path="url(#p746529db97)" style="fill: none; stroke: #808080; stroke-width: 2; stroke-linecap: round"/>
   </g>
   <g id="line2d_17">
    <path d="M 17.91 201.51 
L 109.71 201.51 
L 201.51 201.51 
" clip-path="url(#p746529db97)" style="fill: none; stroke: #808080; stroke-width: 2; stroke-linecap: round"/>
   </g>
   <g id="line2d_18">
    <path d="M 17.91 109.71 
L 17.91 63.81 
L 17.91 17.91 
" clip-path="url(#p746529db97)" style="fill: none; stroke: #808080; stroke-width: 2; stroke-linecap: round"/>
   </g>
   <g id="line2d_19">
    <path d="M 17.91 17.91 
L 40.86 17.91 
L 63.81 17.91 
" clip-path="url(#p746529db97)" style="fill: none; stroke: #808080; stroke-width: 2; stroke-linecap: round"/>
   </g>
   <g id="line2d_20">
    <path d="M 63.81 17.91 
L 94.41 17.91 
L 94.41 10.26 
L 125.01 10.26 
L 125.01 25.56 
L 94.41 25.56 
L 94.41 17.91 
M 125.01 17.91 
L 155.61 17.91 
" clip-path="url(#p746529db97)" style="fill: none; stroke: #808080; stroke-width: 2; stroke-linecap: round"/>
   </g>
   <g id="line2d_21">
    <path d="M 155.61 17.91 
L 178.56 17.91 
L 201.51 17.91 
" clip-path="url(#p746529db97)" style="fill: none; stroke: #808080; stroke-width: 2; stroke-linecap: round"/>
   </g>
   <g id="line2d_22">
    <path d="M 201.51 17.91 
L 201.51 63.81 
L 201.51 109.71 
" clip-path="url(#p746529db97)" style="fill: none; stroke: #808080; stroke-width: 2; stroke-linecap: round"/>
   </g>
   <g id="text_1">
    <g clip-path="url(#p746529db97)">
     <!-- $I_1$ -->
     <g style="fill: #0000ff" transform="translate(59.2475 162.884219)scale(0.125 -0.125)">
      <defs>
       <path id="STIXGeneral-Italic-49" d="M 2458 4179 
L 2458 4077 
Q 2189 4045 2102 3961 
Q 2016 3878 1933 3584 
L 1165 838 
Q 1069 499 1069 352 
Q 1069 224 1149 179 
Q 1229 134 1510 102 
L 1510 0 
L -51 0 
L -51 102 
Q 218 154 317 237 
Q 416 320 486 582 
L 1254 3405 
Q 1338 3699 1338 3802 
Q 1338 3930 1235 3997 
Q 1133 4064 877 4077 
L 877 4179 
L 2458 4179 
z
" transform="scale(0.015625)"/>
       <path id="STIXGeneral-Regular-31" d="M 2522 0 
L 755 0 
L 755 96 
Q 1107 115 1235 227 
Q 1363 339 1363 608 
L 1363 3482 
Q 1363 3795 1171 3795 
Q 1082 3795 883 3718 
L 710 3654 
L 710 3744 
L 1856 4326 
L 1914 4307 
L 1914 486 
Q 1914 275 2042 185 
Q 2170 96 2522 96 
L 2522 0 
z
" transform="scale(0.015625)"/>
      </defs>
      <use xlink:href="#STIXGeneral-Italic-49" transform="translate(0 0.703125)"/>
      <use xlink:href="#STIXGeneral-Regular-31" transform="translate(33.299988 -12.525)scale(0.7)"/>
     </g>
    </g>
   </g>
   <g id="text_2">
    <g clip-path="url(#p746529db97)">
     <!-- $I_2$ -->
     <g style="fill: #ff0000" transform="translate(151.0475 162.884219)scale(0.125 -0.125)">
      <defs>
       <path id="STIXGeneral-Regular-32" d="M 3034 877 
L 2688 0 
L 186 0 
L 186 77 
L 1325 1286 
Q 1773 1754 1965 2144 
Q 2157 2534 2157 2950 
Q 2157 3379 1920 3616 
Q 1683 3853 1267 3853 
Q 922 3853 720 3673 
Q 518 3494 326 3021 
L 192 3053 
Q 301 3648 630 3987 
Q 960 4326 1523 4326 
Q 2054 4326 2380 4006 
Q 2707 3686 2707 3200 
Q 2707 2477 1888 1613 
L 832 486 
L 2330 486 
Q 2541 486 2665 569 
Q 2790 653 2944 915 
L 3034 877 
z
" transform="scale(0.015625)"/>
      </defs>
      <use xlink:href="#STIXGeneral-Italic-49" transform="translate(0 0.703125)"/>
      <use xlink:href="#STIXGeneral-Regular-32" transform="translate(33.299988 -12.525)scale(0.7)"/>
     </g>
    </g>
   </g>
   <g id="text_3">
    <g clip-path="url(#p746529db97)">
     <!-- $I_3$ -->
     <g style="fill: #008000" transform="translate(105.1475 67.259219)scale(0.125 -0.125)">
      <defs>
       <path id="STIXGeneral-Regular-33" d="M 390 3264 
L 288 3290 
Q 435 3770 748 4048 
Q 1062 4326 1542 4326 
Q 1990 4326 2265 4083 
Q 2541 3840 2541 3450 
Q 2541 2925 1946 2566 
Q 2298 2413 2477 2227 
Q 2758 1914 2758 1402 
Q 2758 890 2464 506 
Q 2246 211 1840 60 
Q 1434 -90 979 -90 
Q 262 -90 262 275 
Q 262 378 339 442 
Q 416 506 525 506 
Q 685 506 915 339 
Q 1197 141 1466 141 
Q 1818 141 2058 425 
Q 2298 710 2298 1120 
Q 2298 1856 1632 2048 
Q 1434 2112 979 2112 
L 979 2202 
Q 1338 2323 1517 2432 
Q 2035 2726 2035 3290 
Q 2035 3610 1852 3776 
Q 1670 3942 1344 3942 
Q 768 3942 390 3264 
z
" transform="scale(0.015625)"/>
      </defs>
      <use xlink:href="#STIXGeneral-Italic-49" transform="translate(0 0.703125)"/>
      <use xlink:href="#STIXGeneral-Regular-33" transform="translate(33.299988 -12.525)scale(0.7)"/>
     </g>
    </g>
   </g>
   <g id="text_4">
    <g clip-path="url(#p746529db97)">
     <!-- $I_1$ -->
     <g style="fill: #0000ff" transform="translate(59.2475 162.884219)scale(0.125 -0.125)">
      <use xlink:href="#STIXGeneral-Italic-49" transform="translate(0 0.703125)"/>
      <use xlink:href="#STIXGeneral-Regular-31" transform="translate(33.299988 -12.525)scale(0.7)"/>
     </g>
    </g>
   </g>
   <g id="text_5">
    <g clip-path="url(#p746529db97)">
     <!-- $I_2$ -->
     <g style="fill: #ff0000" transform="translate(151.0475 162.884219)scale(0.125 -0.125)">
      <use xlink:href="#STIXGeneral-Italic-49" transform="translate(0 0.703125)"/>
      <use xlink:href="#STIXGeneral-Regular-32" transform="translate(33.299988 -12.525)scale(0.7)"/>
     </g>
    </g>
   </g>
   <g id="text_6">
    <g clip-path="url(#p746529db97)">
     <!-- $I_3$ -->
     <g style="fill: #008000" transform="translate(105.1475 67.259219)scale(0.125 -0.125)">
      <use xlink:href="#STIXGeneral-Italic-49" transform="translate(0 0.703125)"/>
      <use xlink:href="#STIXGeneral-Regular-33" transform="translate(33.299988 -12.525)scale(0.7)"/>
     </g>
    </g>
   </g>
  </g>
 </g>
 <defs>
  <clipPath id="p746529db97">
   <rect x="7.2" y="7.2" width="205.02" height="197.37"/>
  </clipPath>
 </defs>
</svg>
