<?xml version="1.0" encoding="utf-8" standalone="no"?>
<!DOCTYPE svg PUBLIC "-//W3C//DTD SVG 1.1//EN"
  "http://www.w3.org/Graphics/SVG/1.1/DTD/svg11.dtd">
<svg xmlns:xlink="http://www.w3.org/1999/xlink" width="150.1518pt" height="112.32pt" viewBox="0 0 150.1518 112.32" xmlns="http://www.w3.org/2000/svg" version="1.1">
 <metadata>
  <rdf:RDF xmlns:dc="http://purl.org/dc/elements/1.1/" xmlns:cc="http://creativecommons.org/ns#" xmlns:rdf="http://www.w3.org/1999/02/22-rdf-syntax-ns#">
   <cc:Work>
    <dc:type rdf:resource="http://purl.org/dc/dcmitype/StillImage"/>
    <dc:date>2023-06-27T11:50:21.604869</dc:date>
    <dc:format>image/svg+xml</dc:format>
    <dc:creator>
     <cc:Agent>
      <dc:title>Matplotlib v3.5.2, https://matplotlib.org/</dc:title>
     </cc:Agent>
    </dc:creator>
   </cc:Work>
  </rdf:RDF>
 </metadata>
 <defs>
  <style type="text/css">*{stroke-linejoin: round; stroke-linecap: butt}</style>
 </defs>
 <g id="figure_1">
  <g id="patch_1">
   <path d="M 0 112.32 
L 150.1518 112.32 
L 150.1518 0 
L 0 0 
L 0 112.32 
z
" style="fill: none"/>
  </g>
  <g id="axes_1">
   <g id="line2d_1">
    <path d="M 40.4418 102.06 
L 40.4418 58.914 
M 32.7918 58.914 
L 48.0918 58.914 
M 32.7918 53.406 
L 48.0918 53.406 
M 40.4418 53.406 
L 40.4418 10.26 
" clip-path="url(#p6c66d7f4b1)" style="fill: none; stroke: #000000; stroke-width: 2; stroke-linecap: round"/>
   </g>
   <g id="line2d_2">
    <path d="M 40.4418 10.26 
L 86.3418 10.26 
L 132.2418 10.26 
" clip-path="url(#p6c66d7f4b1)" style="fill: none; stroke: #000000; stroke-width: 2; stroke-linecap: round"/>
   </g>
   <g id="line2d_3">
    <path d="M 132.2418 10.26 
L 132.2418 53.406 
M 139.8918 53.406 
L 124.5918 53.406 
M 139.8918 58.914 
L 124.5918 58.914 
M 132.2418 58.914 
L 132.2418 102.06 
" clip-path="url(#p6c66d7f4b1)" style="fill: none; stroke: #000000; stroke-width: 2; stroke-linecap: round"/>
   </g>
   <g id="line2d_4">
    <path d="M 132.2418 102.06 
L 86.3418 102.06 
L 40.4418 102.06 
" clip-path="url(#p6c66d7f4b1)" style="fill: none; stroke: #000000; stroke-width: 2; stroke-linecap: round"/>
   </g>
   <g id="line2d_5">
    <path d="M 40.4418 102.06 
L 40.4418 58.914 
M 32.7918 58.914 
L 48.0918 58.914 
M 32.7918 53.406 
L 48.0918 53.406 
M 40.4418 53.406 
L 40.4418 10.26 
" clip-path="url(#p6c66d7f4b1)" style="fill: none; stroke: #000000; stroke-width: 2; stroke-linecap: round"/>
   </g>
   <g id="line2d_6">
    <path d="M 40.4418 10.26 
L 86.3418 10.26 
L 132.2418 10.26 
" clip-path="url(#p6c66d7f4b1)" style="fill: none; stroke: #000000; stroke-width: 2; stroke-linecap: round"/>
   </g>
   <g id="line2d_7">
    <path d="M 132.2418 10.26 
L 132.2418 53.406 
M 139.8918 53.406 
L 124.5918 53.406 
M 139.8918 58.914 
L 124.5918 58.914 
M 132.2418 58.914 
L 132.2418 102.06 
" clip-path="url(#p6c66d7f4b1)" style="fill: none; stroke: #000000; stroke-width: 2; stroke-linecap: round"/>
   </g>
   <g id="line2d_8">
    <path d="M 132.2418 102.06 
L 86.3418 102.06 
L 40.4418 102.06 
" clip-path="url(#p6c66d7f4b1)" style="fill: none; stroke: #000000; stroke-width: 2; stroke-linecap: round"/>
   </g>
   <g id="text_1">
    <g clip-path="url(#p6c66d7f4b1)">
     <!-- $C_1$ -->
     <g transform="translate(16.3568 59.609219)scale(0.125 -0.125)">
      <defs>
       <path id="STIXGeneral-Italic-43" d="M 4410 4250 
L 4173 2970 
L 4058 2989 
Q 3942 4032 3104 4032 
Q 2406 4032 1830 3411 
Q 1491 3053 1315 2541 
Q 1139 2029 1139 1485 
Q 1139 173 2259 173 
Q 2656 173 2985 339 
Q 3315 506 3725 934 
L 3840 838 
Q 3411 333 2998 109 
Q 2586 -115 2093 -115 
Q 1344 -115 883 329 
Q 422 774 422 1555 
Q 422 2214 748 2812 
Q 1075 3411 1619 3795 
Q 2272 4262 3021 4262 
Q 3462 4262 3770 4154 
Q 3898 4109 4032 4109 
Q 4205 4109 4275 4250 
L 4410 4250 
z
" transform="scale(0.015625)"/>
       <path id="STIXGeneral-Regular-31" d="M 2522 0 
L 755 0 
L 755 96 
Q 1107 115 1235 227 
Q 1363 339 1363 608 
L 1363 3482 
Q 1363 3795 1171 3795 
Q 1082 3795 883 3718 
L 710 3654 
L 710 3744 
L 1856 4326 
L 1914 4307 
L 1914 486 
Q 1914 275 2042 185 
Q 2170 96 2522 96 
L 2522 0 
z
" transform="scale(0.015625)"/>
      </defs>
      <use xlink:href="#STIXGeneral-Italic-43" transform="translate(0 0.40625)"/>
      <use xlink:href="#STIXGeneral-Regular-31" transform="translate(66.699997 -12.821875)scale(0.7)"/>
     </g>
    </g>
   </g>
   <g id="text_2">
    <g clip-path="url(#p6c66d7f4b1)">
     <!-- $C_2$ -->
     <g transform="translate(108.1568 59.609219)scale(0.125 -0.125)">
      <defs>
       <path id="STIXGeneral-Regular-32" d="M 3034 877 
L 2688 0 
L 186 0 
L 186 77 
L 1325 1286 
Q 1773 1754 1965 2144 
Q 2157 2534 2157 2950 
Q 2157 3379 1920 3616 
Q 1683 3853 1267 3853 
Q 922 3853 720 3673 
Q 518 3494 326 3021 
L 192 3053 
Q 301 3648 630 3987 
Q 960 4326 1523 4326 
Q 2054 4326 2380 4006 
Q 2707 3686 2707 3200 
Q 2707 2477 1888 1613 
L 832 486 
L 2330 486 
Q 2541 486 2665 569 
Q 2790 653 2944 915 
L 3034 877 
z
" transform="scale(0.015625)"/>
      </defs>
      <use xlink:href="#STIXGeneral-Italic-43" transform="translate(0 0.40625)"/>
      <use xlink:href="#STIXGeneral-Regular-32" transform="translate(66.699997 -12.821875)scale(0.7)"/>
     </g>
    </g>
   </g>
   <g id="text_3">
    <g clip-path="url(#p6c66d7f4b1)">
     <!-- $C_1$ -->
     <g transform="translate(16.3568 59.609219)scale(0.125 -0.125)">
      <use xlink:href="#STIXGeneral-Italic-43" transform="translate(0 0.40625)"/>
      <use xlink:href="#STIXGeneral-Regular-31" transform="translate(66.699997 -12.821875)scale(0.7)"/>
     </g>
    </g>
   </g>
   <g id="text_4">
    <g clip-path="url(#p6c66d7f4b1)">
     <!-- $C_2$ -->
     <g transform="translate(108.1568 59.609219)scale(0.125 -0.125)">
      <use xlink:href="#STIXGeneral-Italic-43" transform="translate(0 0.40625)"/>
      <use xlink:href="#STIXGeneral-Regular-32" transform="translate(66.699997 -12.821875)scale(0.7)"/>
     </g>
    </g>
   </g>
  </g>
 </g>
 <defs>
  <clipPath id="p6c66d7f4b1">
   <rect x="7.2" y="7.2" width="135.7518" height="97.92"/>
  </clipPath>
 </defs>
</svg>
