<?xml version="1.0" encoding="utf-8" standalone="no"?>
<!DOCTYPE svg PUBLIC "-//W3C//DTD SVG 1.1//EN"
  "http://www.w3.org/Graphics/SVG/1.1/DTD/svg11.dtd">
<svg xmlns:xlink="http://www.w3.org/1999/xlink" width="313.6884pt" height="208.285pt" viewBox="0 0 313.6884 208.285" xmlns="http://www.w3.org/2000/svg" version="1.1">
 <metadata>
  <rdf:RDF xmlns:dc="http://purl.org/dc/elements/1.1/" xmlns:cc="http://creativecommons.org/ns#" xmlns:rdf="http://www.w3.org/1999/02/22-rdf-syntax-ns#">
   <cc:Work>
    <dc:type rdf:resource="http://purl.org/dc/dcmitype/StillImage"/>
    <dc:date>2023-05-23T07:59:55.554979</dc:date>
    <dc:format>image/svg+xml</dc:format>
    <dc:creator>
     <cc:Agent>
      <dc:title>Matplotlib v3.5.2, https://matplotlib.org/</dc:title>
     </cc:Agent>
    </dc:creator>
   </cc:Work>
  </rdf:RDF>
 </metadata>
 <defs>
  <style type="text/css">*{stroke-linejoin: round; stroke-linecap: butt}</style>
 </defs>
 <g id="figure_1">
  <g id="patch_1">
   <path d="M 0 208.285 
L 313.6884 208.285 
L 313.6884 0 
L 0 0 
L 0 208.285 
z
" style="fill: none"/>
  </g>
  <g id="axes_1">
   <g id="patch_2">
    <path d="M 160.637946 114.860628 
Q 178.997946 136.280628 151.457946 130.160628 
" clip-path="url(#pe4e0a9b24e)" style="fill: none; stroke: #000000; stroke-width: 2; stroke-linejoin: miter; stroke-linecap: round"/>
   </g>
   <g id="patch_3">
    <path d="M 160.637946 114.860628 
Q 178.997946 136.280628 151.457946 130.160628 
" clip-path="url(#pe4e0a9b24e)" style="fill: none; stroke: #000000; stroke-width: 2; stroke-linejoin: miter; stroke-linecap: round"/>
   </g>
   <g id="line2d_1">
    <path d="M 20.3784 42.73 
L 50.9784 42.73 
L 53.5284 35.08 
L 58.6284 50.38 
L 63.7284 35.08 
L 68.8284 50.38 
L 73.9284 35.08 
L 79.0284 50.38 
L 81.5784 42.73 
L 112.1784 42.73 
" clip-path="url(#pe4e0a9b24e)" style="fill: none; stroke: #000000; stroke-width: 2; stroke-linecap: round"/>
   </g>
   <g id="line2d_2">
    <path d="M 112.1784 42.73 
L 142.7784 42.73 
L 145.3284 35.08 
L 150.4284 50.38 
L 155.5284 35.08 
L 160.6284 50.38 
L 165.7284 35.08 
L 170.8284 50.38 
L 173.3784 42.73 
L 203.9784 42.73 
" clip-path="url(#pe4e0a9b24e)" style="fill: none; stroke: #000000; stroke-width: 2; stroke-linecap: round"/>
   </g>
   <g id="line2d_3">
    <path d="M 203.9784 42.73 
L 234.5784 42.73 
L 237.1284 35.08 
L 242.2284 50.38 
L 247.3284 35.08 
L 252.4284 50.38 
L 257.5284 35.08 
L 262.6284 50.38 
L 265.1784 42.73 
L 295.7784 42.73 
" clip-path="url(#pe4e0a9b24e)" style="fill: none; stroke: #000000; stroke-width: 2; stroke-linecap: round"/>
   </g>
   <g id="line2d_4">
    <path d="M 295.7784 42.73 
L 295.7784 103.93 
L 303.4284 106.48 
L 288.1284 111.58 
L 303.4284 116.68 
L 288.1284 121.78 
L 303.4284 126.88 
L 288.1284 131.98 
L 295.7784 134.53 
L 295.7784 195.73 
" clip-path="url(#pe4e0a9b24e)" style="fill: none; stroke: #000000; stroke-width: 2; stroke-linecap: round"/>
   </g>
   <g id="line2d_5">
    <path d="M 295.7784 195.73 
L 249.8784 195.73 
L 203.9784 195.73 
" clip-path="url(#pe4e0a9b24e)" style="fill: none; stroke: #000000; stroke-width: 2; stroke-linecap: round"/>
   </g>
   <g id="line2d_6">
    <path d="M 203.9784 195.73 
L 158.0784 195.73 
L 112.1784 195.73 
" clip-path="url(#pe4e0a9b24e)" style="fill: none; stroke: #000000; stroke-width: 2; stroke-linecap: round"/>
   </g>
   <g id="line2d_7">
    <path d="M 112.1784 195.73 
L 66.2784 195.73 
L 20.3784 195.73 
" clip-path="url(#pe4e0a9b24e)" style="fill: none; stroke: #000000; stroke-width: 2; stroke-linecap: round"/>
   </g>
   <g id="line2d_8">
    <path d="M 203.9784 42.73 
L 203.9784 103.93 
L 211.6284 106.48 
L 196.3284 111.58 
L 211.6284 116.68 
L 196.3284 121.78 
L 211.6284 126.88 
L 196.3284 131.98 
L 203.9784 134.53 
L 203.9784 195.73 
" clip-path="url(#pe4e0a9b24e)" style="fill: none; stroke: #000000; stroke-width: 2; stroke-linecap: round"/>
   </g>
   <g id="line2d_9">
    <path d="M 112.1784 42.73 
L 112.1784 103.93 
L 119.8284 106.48 
L 104.5284 111.58 
L 119.8284 116.68 
L 104.5284 121.78 
L 119.8284 126.88 
L 104.5284 131.98 
L 112.1784 134.53 
L 112.1784 195.73 
" clip-path="url(#pe4e0a9b24e)" style="fill: none; stroke: #000000; stroke-width: 2; stroke-linecap: round"/>
   </g>
   <g id="line2d_10">
    <path d="M 112.1784 42.73 
L 127.4784 69.230377 
L 135.378494 67.613742 
L 124.678306 79.680472 
L 140.478494 76.447201 
L 129.778306 88.513931 
L 145.578494 85.28066 
L 134.878306 97.34739 
L 142.7784 95.730755 
L 158.0784 122.231132 
" clip-path="url(#pe4e0a9b24e)" style="fill: none; stroke: #000000; stroke-width: 2; stroke-linecap: round"/>
   </g>
   <g id="line2d_11">
    <path d="M 158.0784 122.231132 
L 181.0284 158.980566 
L 203.9784 195.73 
" clip-path="url(#pe4e0a9b24e)" style="fill: none; stroke: #000000; stroke-width: 2; stroke-linecap: round"/>
   </g>
   <g id="line2d_12">
    <path d="M 203.9784 42.73 
L 190.188256 65.680654 
L 195.432238 71.806472 
L 179.690884 68.297943 
L 190.17885 80.549579 
L 174.437496 77.04105 
L 184.925462 89.292685 
L 169.184108 85.784156 
L 174.42809 91.909974 
L 160.637946 114.860628 
" clip-path="url(#pe4e0a9b24e)" style="fill: none; stroke: #000000; stroke-width: 2; stroke-linecap: round"/>
   </g>
   <g id="line2d_13">
    <path d="M 151.457946 130.160628 
L 131.818173 162.945314 
L 112.1784 195.73 
" clip-path="url(#pe4e0a9b24e)" style="fill: none; stroke: #000000; stroke-width: 2; stroke-linecap: round"/>
   </g>
   <g id="line2d_14">
    <path d="M 20.3784 42.73 
L 50.9784 42.73 
L 53.5284 35.08 
L 58.6284 50.38 
L 63.7284 35.08 
L 68.8284 50.38 
L 73.9284 35.08 
L 79.0284 50.38 
L 81.5784 42.73 
L 112.1784 42.73 
" clip-path="url(#pe4e0a9b24e)" style="fill: none; stroke: #000000; stroke-width: 2; stroke-linecap: round"/>
   </g>
   <g id="line2d_15">
    <path d="M 112.1784 42.73 
L 142.7784 42.73 
L 145.3284 35.08 
L 150.4284 50.38 
L 155.5284 35.08 
L 160.6284 50.38 
L 165.7284 35.08 
L 170.8284 50.38 
L 173.3784 42.73 
L 203.9784 42.73 
" clip-path="url(#pe4e0a9b24e)" style="fill: none; stroke: #000000; stroke-width: 2; stroke-linecap: round"/>
   </g>
   <g id="line2d_16">
    <path d="M 203.9784 42.73 
L 234.5784 42.73 
L 237.1284 35.08 
L 242.2284 50.38 
L 247.3284 35.08 
L 252.4284 50.38 
L 257.5284 35.08 
L 262.6284 50.38 
L 265.1784 42.73 
L 295.7784 42.73 
" clip-path="url(#pe4e0a9b24e)" style="fill: none; stroke: #000000; stroke-width: 2; stroke-linecap: round"/>
   </g>
   <g id="line2d_17">
    <path d="M 295.7784 42.73 
L 295.7784 103.93 
L 303.4284 106.48 
L 288.1284 111.58 
L 303.4284 116.68 
L 288.1284 121.78 
L 303.4284 126.88 
L 288.1284 131.98 
L 295.7784 134.53 
L 295.7784 195.73 
" clip-path="url(#pe4e0a9b24e)" style="fill: none; stroke: #000000; stroke-width: 2; stroke-linecap: round"/>
   </g>
   <g id="line2d_18">
    <path d="M 295.7784 195.73 
L 249.8784 195.73 
L 203.9784 195.73 
" clip-path="url(#pe4e0a9b24e)" style="fill: none; stroke: #000000; stroke-width: 2; stroke-linecap: round"/>
   </g>
   <g id="line2d_19">
    <path d="M 203.9784 195.73 
L 158.0784 195.73 
L 112.1784 195.73 
" clip-path="url(#pe4e0a9b24e)" style="fill: none; stroke: #000000; stroke-width: 2; stroke-linecap: round"/>
   </g>
   <g id="line2d_20">
    <path d="M 112.1784 195.73 
L 66.2784 195.73 
L 20.3784 195.73 
" clip-path="url(#pe4e0a9b24e)" style="fill: none; stroke: #000000; stroke-width: 2; stroke-linecap: round"/>
   </g>
   <g id="line2d_21">
    <path d="M 203.9784 42.73 
L 203.9784 103.93 
L 211.6284 106.48 
L 196.3284 111.58 
L 211.6284 116.68 
L 196.3284 121.78 
L 211.6284 126.88 
L 196.3284 131.98 
L 203.9784 134.53 
L 203.9784 195.73 
" clip-path="url(#pe4e0a9b24e)" style="fill: none; stroke: #000000; stroke-width: 2; stroke-linecap: round"/>
   </g>
   <g id="line2d_22">
    <path d="M 112.1784 42.73 
L 112.1784 103.93 
L 119.8284 106.48 
L 104.5284 111.58 
L 119.8284 116.68 
L 104.5284 121.78 
L 119.8284 126.88 
L 104.5284 131.98 
L 112.1784 134.53 
L 112.1784 195.73 
" clip-path="url(#pe4e0a9b24e)" style="fill: none; stroke: #000000; stroke-width: 2; stroke-linecap: round"/>
   </g>
   <g id="line2d_23">
    <path d="M 112.1784 42.73 
L 127.4784 69.230377 
L 135.378494 67.613742 
L 124.678306 79.680472 
L 140.478494 76.447201 
L 129.778306 88.513931 
L 145.578494 85.28066 
L 134.878306 97.34739 
L 142.7784 95.730755 
L 158.0784 122.231132 
" clip-path="url(#pe4e0a9b24e)" style="fill: none; stroke: #000000; stroke-width: 2; stroke-linecap: round"/>
   </g>
   <g id="line2d_24">
    <path d="M 158.0784 122.231132 
L 181.0284 158.980566 
L 203.9784 195.73 
" clip-path="url(#pe4e0a9b24e)" style="fill: none; stroke: #000000; stroke-width: 2; stroke-linecap: round"/>
   </g>
   <g id="line2d_25">
    <path d="M 203.9784 42.73 
L 190.188256 65.680654 
L 195.432238 71.806472 
L 179.690884 68.297943 
L 190.17885 80.549579 
L 174.437496 77.04105 
L 184.925462 89.292685 
L 169.184108 85.784156 
L 174.42809 91.909974 
L 160.637946 114.860628 
" clip-path="url(#pe4e0a9b24e)" style="fill: none; stroke: #000000; stroke-width: 2; stroke-linecap: round"/>
   </g>
   <g id="line2d_26">
    <path d="M 151.457946 130.160628 
L 131.818173 162.945314 
L 112.1784 195.73 
" clip-path="url(#pe4e0a9b24e)" style="fill: none; stroke: #000000; stroke-width: 2; stroke-linecap: round"/>
   </g>
   <g id="text_1">
    <g clip-path="url(#pe4e0a9b24e)">
     <!-- $10\Omega$ -->
     <g transform="translate(55.3409 29.420391)scale(0.125 -0.125)">
      <defs>
       <path id="STIXGeneral-Regular-31" d="M 2522 0 
L 755 0 
L 755 96 
Q 1107 115 1235 227 
Q 1363 339 1363 608 
L 1363 3482 
Q 1363 3795 1171 3795 
Q 1082 3795 883 3718 
L 710 3654 
L 710 3744 
L 1856 4326 
L 1914 4307 
L 1914 486 
Q 1914 275 2042 185 
Q 2170 96 2522 96 
L 2522 0 
z
" transform="scale(0.015625)"/>
       <path id="STIXGeneral-Regular-30" d="M 3046 2112 
Q 3046 1683 2963 1302 
Q 2880 922 2717 602 
Q 2554 282 2266 96 
Q 1978 -90 1600 -90 
Q 1210 -90 915 108 
Q 621 307 461 640 
Q 301 973 227 1350 
Q 154 1728 154 2150 
Q 154 2746 301 3222 
Q 448 3699 790 4012 
Q 1133 4326 1626 4326 
Q 2253 4326 2649 3712 
Q 3046 3098 3046 2112 
z
M 2432 2080 
Q 2432 3091 2217 3625 
Q 2003 4160 1587 4160 
Q 1190 4160 979 3622 
Q 768 3085 768 2106 
Q 768 1120 979 598 
Q 1190 77 1600 77 
Q 2003 77 2217 598 
Q 2432 1120 2432 2080 
z
" transform="scale(0.015625)"/>
       <path id="STIXGeneral-Regular-3a9" d="M 4576 0 
L 2746 0 
L 2790 1030 
Q 3187 1126 3440 1574 
Q 3693 2022 3693 2554 
Q 3693 3251 3344 3673 
Q 2995 4096 2380 4096 
Q 1766 4096 1417 3635 
Q 1069 3174 1069 2554 
Q 1069 2054 1315 1600 
Q 1562 1146 1965 1030 
L 2022 0 
L 186 0 
L 186 1094 
L 346 1094 
Q 352 806 438 707 
Q 525 608 742 608 
L 1709 608 
L 1696 845 
Q 1018 1037 678 1446 
Q 339 1856 339 2541 
Q 339 3238 899 3782 
Q 1459 4326 2380 4326 
Q 3302 4326 3862 3804 
Q 4422 3283 4422 2541 
Q 4422 1235 3046 845 
L 3034 608 
L 4019 608 
Q 4397 608 4416 1082 
L 4576 1082 
L 4576 0 
z
" transform="scale(0.015625)"/>
      </defs>
      <use xlink:href="#STIXGeneral-Regular-31" transform="translate(0 0.40625)"/>
      <use xlink:href="#STIXGeneral-Regular-30" transform="translate(49.999985 0.40625)"/>
      <use xlink:href="#STIXGeneral-Regular-3a9" transform="translate(99.999969 0.40625)"/>
     </g>
    </g>
   </g>
   <g id="text_2">
    <g clip-path="url(#pe4e0a9b24e)">
     <!-- $1\Omega$ -->
     <g transform="translate(150.2659 29.420391)scale(0.125 -0.125)">
      <use xlink:href="#STIXGeneral-Regular-31" transform="translate(0 0.40625)"/>
      <use xlink:href="#STIXGeneral-Regular-3a9" transform="translate(49.999985 0.40625)"/>
     </g>
    </g>
   </g>
   <g id="text_3">
    <g clip-path="url(#pe4e0a9b24e)">
     <!-- $1\Omega$ -->
     <g transform="translate(242.0659 29.420391)scale(0.125 -0.125)">
      <use xlink:href="#STIXGeneral-Regular-31" transform="translate(0 0.40625)"/>
      <use xlink:href="#STIXGeneral-Regular-3a9" transform="translate(49.999985 0.40625)"/>
     </g>
    </g>
   </g>
   <g id="text_4">
    <g clip-path="url(#pe4e0a9b24e)">
     <!-- $5\Omega$ -->
     <g transform="translate(269.4434 122.679219)scale(0.125 -0.125)">
      <defs>
       <path id="STIXGeneral-Regular-35" d="M 2803 4358 
L 2573 3814 
Q 2534 3731 2400 3731 
L 1158 3731 
L 902 3187 
Q 1606 3053 1920 2896 
Q 2234 2739 2502 2368 
Q 2726 2061 2726 1555 
Q 2726 1094 2576 780 
Q 2426 467 2099 224 
Q 1664 -90 1011 -90 
Q 646 -90 422 19 
Q 198 128 198 307 
Q 198 550 486 550 
Q 717 550 960 352 
Q 1210 147 1414 147 
Q 1747 147 2012 480 
Q 2278 813 2278 1229 
Q 2278 1843 1850 2189 
Q 1293 2637 486 2637 
Q 410 2637 410 2688 
L 416 2720 
L 1114 4237 
L 2438 4237 
Q 2547 4237 2608 4269 
Q 2669 4301 2746 4403 
L 2803 4358 
z
" transform="scale(0.015625)"/>
      </defs>
      <use xlink:href="#STIXGeneral-Regular-35" transform="translate(0 0.203125)"/>
      <use xlink:href="#STIXGeneral-Regular-3a9" transform="translate(49.999985 0.203125)"/>
     </g>
    </g>
   </g>
   <g id="text_5">
    <g clip-path="url(#pe4e0a9b24e)">
     <!-- $4\Omega$ -->
     <g transform="translate(214.6884 122.679219)scale(0.125 -0.125)">
      <defs>
       <path id="STIXGeneral-Regular-34" d="M 3027 1069 
L 2368 1069 
L 2368 0 
L 1869 0 
L 1869 1069 
L 77 1069 
L 77 1478 
L 2086 4326 
L 2368 4326 
L 2368 1478 
L 3027 1478 
L 3027 1069 
z
M 1869 1478 
L 1869 3674 
L 333 1478 
L 1869 1478 
z
" transform="scale(0.015625)"/>
      </defs>
      <use xlink:href="#STIXGeneral-Regular-34" transform="translate(0 0.40625)"/>
      <use xlink:href="#STIXGeneral-Regular-3a9" transform="translate(49.999985 0.40625)"/>
     </g>
    </g>
   </g>
   <g id="text_6">
    <g clip-path="url(#pe4e0a9b24e)">
     <!-- $3\Omega$ -->
     <g transform="translate(85.8434 122.679219)scale(0.125 -0.125)">
      <defs>
       <path id="STIXGeneral-Regular-33" d="M 390 3264 
L 288 3290 
Q 435 3770 748 4048 
Q 1062 4326 1542 4326 
Q 1990 4326 2265 4083 
Q 2541 3840 2541 3450 
Q 2541 2925 1946 2566 
Q 2298 2413 2477 2227 
Q 2758 1914 2758 1402 
Q 2758 890 2464 506 
Q 2246 211 1840 60 
Q 1434 -90 979 -90 
Q 262 -90 262 275 
Q 262 378 339 442 
Q 416 506 525 506 
Q 685 506 915 339 
Q 1197 141 1466 141 
Q 1818 141 2058 425 
Q 2298 710 2298 1120 
Q 2298 1856 1632 2048 
Q 1434 2112 979 2112 
L 979 2202 
Q 1338 2323 1517 2432 
Q 2035 2726 2035 3290 
Q 2035 3610 1852 3776 
Q 1670 3942 1344 3942 
Q 768 3942 390 3264 
z
" transform="scale(0.015625)"/>
      </defs>
      <use xlink:href="#STIXGeneral-Regular-33" transform="translate(0 0.40625)"/>
      <use xlink:href="#STIXGeneral-Regular-3a9" transform="translate(49.999985 0.40625)"/>
     </g>
    </g>
   </g>
   <g id="text_7">
    <g clip-path="url(#pe4e0a9b24e)">
     <!-- $6\Omega$ -->
     <g transform="translate(135.19319 64.238821)rotate(-315)scale(0.125 -0.125)">
      <defs>
       <path id="STIXGeneral-Regular-36" d="M 2854 4378 
L 2867 4275 
Q 2112 4154 1606 3664 
Q 1101 3174 973 2451 
Q 1344 2739 1786 2739 
Q 2349 2739 2672 2380 
Q 2995 2022 2995 1402 
Q 2995 774 2669 378 
Q 2291 -90 1651 -90 
Q 870 -90 518 557 
Q 218 1107 218 1786 
Q 218 2835 915 3552 
Q 1312 3962 1731 4131 
Q 2150 4301 2854 4378 
z
M 2419 1203 
Q 2419 2445 1555 2445 
Q 1235 2445 1024 2275 
Q 813 2106 813 1702 
Q 813 954 1046 522 
Q 1280 90 1722 90 
Q 2061 90 2240 394 
Q 2419 698 2419 1203 
z
" transform="scale(0.015625)"/>
      </defs>
      <use xlink:href="#STIXGeneral-Regular-36" transform="translate(0 0.59375)"/>
      <use xlink:href="#STIXGeneral-Regular-3a9" transform="translate(49.999985 0.59375)"/>
     </g>
    </g>
   </g>
   <g id="text_8">
    <g clip-path="url(#pe4e0a9b24e)">
     <!-- $12\Omega$ -->
     <g transform="translate(163.555729 79.175035)rotate(-45)scale(0.125 -0.125)">
      <defs>
       <path id="STIXGeneral-Regular-32" d="M 3034 877 
L 2688 0 
L 186 0 
L 186 77 
L 1325 1286 
Q 1773 1754 1965 2144 
Q 2157 2534 2157 2950 
Q 2157 3379 1920 3616 
Q 1683 3853 1267 3853 
Q 922 3853 720 3673 
Q 518 3494 326 3021 
L 192 3053 
Q 301 3648 630 3987 
Q 960 4326 1523 4326 
Q 2054 4326 2380 4006 
Q 2707 3686 2707 3200 
Q 2707 2477 1888 1613 
L 832 486 
L 2330 486 
Q 2541 486 2665 569 
Q 2790 653 2944 915 
L 3034 877 
z
" transform="scale(0.015625)"/>
      </defs>
      <use xlink:href="#STIXGeneral-Regular-31" transform="translate(0 0.40625)"/>
      <use xlink:href="#STIXGeneral-Regular-32" transform="translate(49.999985 0.40625)"/>
      <use xlink:href="#STIXGeneral-Regular-3a9" transform="translate(99.999969 0.40625)"/>
     </g>
    </g>
   </g>
   <g id="text_9">
    <g clip-path="url(#pe4e0a9b24e)">
     <!-- $10\Omega$ -->
     <g transform="translate(55.3409 29.420391)scale(0.125 -0.125)">
      <use xlink:href="#STIXGeneral-Regular-31" transform="translate(0 0.40625)"/>
      <use xlink:href="#STIXGeneral-Regular-30" transform="translate(49.999985 0.40625)"/>
      <use xlink:href="#STIXGeneral-Regular-3a9" transform="translate(99.999969 0.40625)"/>
     </g>
    </g>
   </g>
   <g id="text_10">
    <g clip-path="url(#pe4e0a9b24e)">
     <!-- $1\Omega$ -->
     <g transform="translate(150.2659 29.420391)scale(0.125 -0.125)">
      <use xlink:href="#STIXGeneral-Regular-31" transform="translate(0 0.40625)"/>
      <use xlink:href="#STIXGeneral-Regular-3a9" transform="translate(49.999985 0.40625)"/>
     </g>
    </g>
   </g>
   <g id="text_11">
    <g clip-path="url(#pe4e0a9b24e)">
     <!-- $1\Omega$ -->
     <g transform="translate(242.0659 29.420391)scale(0.125 -0.125)">
      <use xlink:href="#STIXGeneral-Regular-31" transform="translate(0 0.40625)"/>
      <use xlink:href="#STIXGeneral-Regular-3a9" transform="translate(49.999985 0.40625)"/>
     </g>
    </g>
   </g>
   <g id="text_12">
    <g clip-path="url(#pe4e0a9b24e)">
     <!-- $5\Omega$ -->
     <g transform="translate(269.4434 122.679219)scale(0.125 -0.125)">
      <use xlink:href="#STIXGeneral-Regular-35" transform="translate(0 0.203125)"/>
      <use xlink:href="#STIXGeneral-Regular-3a9" transform="translate(49.999985 0.203125)"/>
     </g>
    </g>
   </g>
   <g id="text_13">
    <g clip-path="url(#pe4e0a9b24e)">
     <!-- $4\Omega$ -->
     <g transform="translate(214.6884 122.679219)scale(0.125 -0.125)">
      <use xlink:href="#STIXGeneral-Regular-34" transform="translate(0 0.40625)"/>
      <use xlink:href="#STIXGeneral-Regular-3a9" transform="translate(49.999985 0.40625)"/>
     </g>
    </g>
   </g>
   <g id="text_14">
    <g clip-path="url(#pe4e0a9b24e)">
     <!-- $3\Omega$ -->
     <g transform="translate(85.8434 122.679219)scale(0.125 -0.125)">
      <use xlink:href="#STIXGeneral-Regular-33" transform="translate(0 0.40625)"/>
      <use xlink:href="#STIXGeneral-Regular-3a9" transform="translate(49.999985 0.40625)"/>
     </g>
    </g>
   </g>
   <g id="text_15">
    <g clip-path="url(#pe4e0a9b24e)">
     <!-- $6\Omega$ -->
     <g transform="translate(135.19319 64.238821)rotate(-315)scale(0.125 -0.125)">
      <use xlink:href="#STIXGeneral-Regular-36" transform="translate(0 0.59375)"/>
      <use xlink:href="#STIXGeneral-Regular-3a9" transform="translate(49.999985 0.59375)"/>
     </g>
    </g>
   </g>
   <g id="text_16">
    <g clip-path="url(#pe4e0a9b24e)">
     <!-- $12\Omega$ -->
     <g transform="translate(163.555729 79.175035)rotate(-45)scale(0.125 -0.125)">
      <use xlink:href="#STIXGeneral-Regular-31" transform="translate(0 0.40625)"/>
      <use xlink:href="#STIXGeneral-Regular-32" transform="translate(49.999985 0.40625)"/>
      <use xlink:href="#STIXGeneral-Regular-3a9" transform="translate(99.999969 0.40625)"/>
     </g>
    </g>
   </g>
   <g id="patch_4">
    <path d="M 20.3784 45.025 
C 20.987041 45.025 21.570836 44.783184 22.00121 44.35281 
C 22.431584 43.922436 22.6734 43.338641 22.6734 42.73 
C 22.6734 42.121359 22.431584 41.537564 22.00121 41.10719 
C 21.570836 40.676816 20.987041 40.435 20.3784 40.435 
C 19.769759 40.435 19.185964 40.676816 18.75559 41.10719 
C 18.325216 41.537564 18.0834 42.121359 18.0834 42.73 
C 18.0834 43.338641 18.325216 43.922436 18.75559 44.35281 
C 19.185964 44.783184 19.769759 45.025 20.3784 45.025 
z
" clip-path="url(#pe4e0a9b24e)" style="stroke: #000000; stroke-width: 2; stroke-linejoin: miter"/>
   </g>
   <g id="text_17">
    <g clip-path="url(#pe4e0a9b24e)">
     <!-- A -->
     <g transform="translate(16.103009 34.775391)scale(0.125 -0.125)">
      <defs>
       <path id="DejaVuSans-41" d="M 2188 4044 
L 1331 1722 
L 3047 1722 
L 2188 4044 
z
M 1831 4666 
L 2547 4666 
L 4325 0 
L 3669 0 
L 3244 1197 
L 1141 1197 
L 716 0 
L 50 0 
L 1831 4666 
z
" transform="scale(0.015625)"/>
      </defs>
      <use xlink:href="#DejaVuSans-41"/>
     </g>
    </g>
   </g>
   <g id="patch_5">
    <path d="M 20.3784 198.025 
C 20.987041 198.025 21.570836 197.783184 22.00121 197.35281 
C 22.431584 196.922436 22.6734 196.338641 22.6734 195.73 
C 22.6734 195.121359 22.431584 194.537564 22.00121 194.10719 
C 21.570836 193.676816 20.987041 193.435 20.3784 193.435 
C 19.769759 193.435 19.185964 193.676816 18.75559 194.10719 
C 18.325216 194.537564 18.0834 195.121359 18.0834 195.73 
C 18.0834 196.338641 18.325216 196.922436 18.75559 197.35281 
C 19.185964 197.783184 19.769759 198.025 20.3784 198.025 
z
" clip-path="url(#pe4e0a9b24e)" style="stroke: #000000; stroke-width: 2; stroke-linejoin: miter"/>
   </g>
   <g id="text_18">
    <g clip-path="url(#pe4e0a9b24e)">
     <!-- B -->
     <g transform="translate(16.090314 187.775391)scale(0.125 -0.125)">
      <defs>
       <path id="DejaVuSans-42" d="M 1259 2228 
L 1259 519 
L 2272 519 
Q 2781 519 3026 730 
Q 3272 941 3272 1375 
Q 3272 1813 3026 2020 
Q 2781 2228 2272 2228 
L 1259 2228 
z
M 1259 4147 
L 1259 2741 
L 2194 2741 
Q 2656 2741 2882 2914 
Q 3109 3088 3109 3444 
Q 3109 3797 2882 3972 
Q 2656 4147 2194 4147 
L 1259 4147 
z
M 628 4666 
L 2241 4666 
Q 2963 4666 3353 4366 
Q 3744 4066 3744 3513 
Q 3744 3084 3544 2831 
Q 3344 2578 2956 2516 
Q 3422 2416 3680 2098 
Q 3938 1781 3938 1306 
Q 3938 681 3513 340 
Q 3088 0 2303 0 
L 628 0 
L 628 4666 
z
" transform="scale(0.015625)"/>
      </defs>
      <use xlink:href="#DejaVuSans-42"/>
     </g>
    </g>
   </g>
   <g id="patch_6">
    <path d="M 20.3784 45.025 
C 20.987041 45.025 21.570836 44.783184 22.00121 44.35281 
C 22.431584 43.922436 22.6734 43.338641 22.6734 42.73 
C 22.6734 42.121359 22.431584 41.537564 22.00121 41.10719 
C 21.570836 40.676816 20.987041 40.435 20.3784 40.435 
C 19.769759 40.435 19.185964 40.676816 18.75559 41.10719 
C 18.325216 41.537564 18.0834 42.121359 18.0834 42.73 
C 18.0834 43.338641 18.325216 43.922436 18.75559 44.35281 
C 19.185964 44.783184 19.769759 45.025 20.3784 45.025 
z
" clip-path="url(#pe4e0a9b24e)" style="stroke: #000000; stroke-width: 2; stroke-linejoin: miter"/>
   </g>
   <g id="text_19">
    <g clip-path="url(#pe4e0a9b24e)">
     <!-- A -->
     <g transform="translate(16.103009 34.775391)scale(0.125 -0.125)">
      <use xlink:href="#DejaVuSans-41"/>
     </g>
    </g>
   </g>
   <g id="patch_7">
    <path d="M 20.3784 198.025 
C 20.987041 198.025 21.570836 197.783184 22.00121 197.35281 
C 22.431584 196.922436 22.6734 196.338641 22.6734 195.73 
C 22.6734 195.121359 22.431584 194.537564 22.00121 194.10719 
C 21.570836 193.676816 20.987041 193.435 20.3784 193.435 
C 19.769759 193.435 19.185964 193.676816 18.75559 194.10719 
C 18.325216 194.537564 18.0834 195.121359 18.0834 195.73 
C 18.0834 196.338641 18.325216 196.922436 18.75559 197.35281 
C 19.185964 197.783184 19.769759 198.025 20.3784 198.025 
z
" clip-path="url(#pe4e0a9b24e)" style="stroke: #000000; stroke-width: 2; stroke-linejoin: miter"/>
   </g>
   <g id="text_20">
    <g clip-path="url(#pe4e0a9b24e)">
     <!-- B -->
     <g transform="translate(16.090314 187.775391)scale(0.125 -0.125)">
      <use xlink:href="#DejaVuSans-42"/>
     </g>
    </g>
   </g>
  </g>
 </g>
 <defs>
  <clipPath id="pe4e0a9b24e">
   <rect x="7.2" y="7.2" width="299.2884" height="193.885"/>
  </clipPath>
 </defs>
</svg>
