<?xml version="1.0" encoding="utf-8" standalone="no"?>
<!DOCTYPE svg PUBLIC "-//W3C//DTD SVG 1.1//EN"
  "http://www.w3.org/Graphics/SVG/1.1/DTD/svg11.dtd">
<svg xmlns:xlink="http://www.w3.org/1999/xlink" width="280.16961pt" height="280.16961pt" viewBox="0 0 280.16961 280.16961" xmlns="http://www.w3.org/2000/svg" version="1.1">
 <metadata>
  <rdf:RDF xmlns:dc="http://purl.org/dc/elements/1.1/" xmlns:cc="http://creativecommons.org/ns#" xmlns:rdf="http://www.w3.org/1999/02/22-rdf-syntax-ns#">
   <cc:Work>
    <dc:type rdf:resource="http://purl.org/dc/dcmitype/StillImage"/>
    <dc:date>2023-05-23T07:59:55.879611</dc:date>
    <dc:format>image/svg+xml</dc:format>
    <dc:creator>
     <cc:Agent>
      <dc:title>Matplotlib v3.5.2, https://matplotlib.org/</dc:title>
     </cc:Agent>
    </dc:creator>
   </cc:Work>
  </rdf:RDF>
 </metadata>
 <defs>
  <style type="text/css">*{stroke-linejoin: round; stroke-linecap: butt}</style>
 </defs>
 <g id="figure_1">
  <g id="patch_1">
   <path d="M 0 280.16961 
L 280.16961 280.16961 
L 280.16961 0 
L 0 0 
L 0 280.16961 
z
" style="fill: none"/>
  </g>
  <g id="axes_1">
   <g id="line2d_1">
    <path d="M 71.46 140.084805 
L 40.86 140.084805 
L 10.26 140.084805 
" clip-path="url(#p9e738e194c)" style="fill: none; stroke: #000000; stroke-width: 2; stroke-linecap: round"/>
   </g>
   <g id="line2d_2">
    <path d="M 10.26 140.084805 
L 64.353669 85.991136 
L 60.747424 78.778647 
L 75.172403 85.991136 
L 67.959913 71.566158 
L 82.384892 78.778647 
L 75.172403 64.353669 
L 89.597381 71.566158 
L 85.991136 64.353669 
L 140.084805 10.26 
" clip-path="url(#p9e738e194c)" style="fill: none; stroke: #000000; stroke-width: 2; stroke-linecap: round"/>
   </g>
   <g id="line2d_3">
    <path d="M 140.084805 10.26 
L 194.178474 64.353669 
L 201.390963 60.747424 
L 194.178474 75.172403 
L 208.603452 67.959913 
L 201.390963 82.384892 
L 215.815941 75.172403 
L 208.603452 89.597381 
L 215.815941 85.991136 
L 269.90961 140.084805 
" clip-path="url(#p9e738e194c)" style="fill: none; stroke: #000000; stroke-width: 2; stroke-linecap: round"/>
   </g>
   <g id="line2d_4">
    <path d="M 269.90961 140.084805 
L 239.30961 140.084805 
L 208.70961 140.084805 
" clip-path="url(#p9e738e194c)" style="fill: none; stroke: #000000; stroke-width: 2; stroke-linecap: round"/>
   </g>
   <g id="line2d_5">
    <path d="M 269.90961 140.084805 
L 215.815941 194.178474 
L 219.422186 201.390963 
L 204.997208 194.178474 
L 212.209697 208.603452 
L 197.784718 201.390963 
L 204.997208 215.815941 
L 190.572229 208.603452 
L 194.178474 215.815941 
L 140.084805 269.90961 
" clip-path="url(#p9e738e194c)" style="fill: none; stroke: #000000; stroke-width: 2; stroke-linecap: round"/>
   </g>
   <g id="line2d_6">
    <path d="M 140.084805 269.90961 
L 85.991136 215.815941 
L 78.778647 219.422186 
L 85.991136 204.997208 
L 71.566158 212.209697 
L 78.778647 197.784718 
L 64.353669 204.997208 
L 71.566158 190.572229 
L 64.353669 194.178474 
L 10.26 140.084805 
" clip-path="url(#p9e738e194c)" style="fill: none; stroke: #000000; stroke-width: 2; stroke-linecap: round"/>
   </g>
   <g id="line2d_7">
    <path d="M 71.46 140.084805 
L 40.86 140.084805 
L 10.26 140.084805 
" clip-path="url(#p9e738e194c)" style="fill: none; stroke: #000000; stroke-width: 2; stroke-linecap: round"/>
   </g>
   <g id="line2d_8">
    <path d="M 10.26 140.084805 
L 64.353669 85.991136 
L 60.747424 78.778647 
L 75.172403 85.991136 
L 67.959913 71.566158 
L 82.384892 78.778647 
L 75.172403 64.353669 
L 89.597381 71.566158 
L 85.991136 64.353669 
L 140.084805 10.26 
" clip-path="url(#p9e738e194c)" style="fill: none; stroke: #000000; stroke-width: 2; stroke-linecap: round"/>
   </g>
   <g id="line2d_9">
    <path d="M 140.084805 10.26 
L 194.178474 64.353669 
L 201.390963 60.747424 
L 194.178474 75.172403 
L 208.603452 67.959913 
L 201.390963 82.384892 
L 215.815941 75.172403 
L 208.603452 89.597381 
L 215.815941 85.991136 
L 269.90961 140.084805 
" clip-path="url(#p9e738e194c)" style="fill: none; stroke: #000000; stroke-width: 2; stroke-linecap: round"/>
   </g>
   <g id="line2d_10">
    <path d="M 269.90961 140.084805 
L 239.30961 140.084805 
L 208.70961 140.084805 
" clip-path="url(#p9e738e194c)" style="fill: none; stroke: #000000; stroke-width: 2; stroke-linecap: round"/>
   </g>
   <g id="line2d_11">
    <path d="M 269.90961 140.084805 
L 215.815941 194.178474 
L 219.422186 201.390963 
L 204.997208 194.178474 
L 212.209697 208.603452 
L 197.784718 201.390963 
L 204.997208 215.815941 
L 190.572229 208.603452 
L 194.178474 215.815941 
L 140.084805 269.90961 
" clip-path="url(#p9e738e194c)" style="fill: none; stroke: #000000; stroke-width: 2; stroke-linecap: round"/>
   </g>
   <g id="line2d_12">
    <path d="M 140.084805 269.90961 
L 85.991136 215.815941 
L 78.778647 219.422186 
L 85.991136 204.997208 
L 71.566158 212.209697 
L 78.778647 197.784718 
L 64.353669 204.997208 
L 71.566158 190.572229 
L 64.353669 194.178474 
L 10.26 140.084805 
" clip-path="url(#p9e738e194c)" style="fill: none; stroke: #000000; stroke-width: 2; stroke-linecap: round"/>
   </g>
   <g id="text_1">
    <g clip-path="url(#p9e738e194c)">
     <!-- $3k\Omega$ -->
     <g transform="translate(46.474289 64.99968)scale(0.125 -0.125)">
      <defs>
       <path id="STIXGeneral-Regular-33" d="M 390 3264 
L 288 3290 
Q 435 3770 748 4048 
Q 1062 4326 1542 4326 
Q 1990 4326 2265 4083 
Q 2541 3840 2541 3450 
Q 2541 2925 1946 2566 
Q 2298 2413 2477 2227 
Q 2758 1914 2758 1402 
Q 2758 890 2464 506 
Q 2246 211 1840 60 
Q 1434 -90 979 -90 
Q 262 -90 262 275 
Q 262 378 339 442 
Q 416 506 525 506 
Q 685 506 915 339 
Q 1197 141 1466 141 
Q 1818 141 2058 425 
Q 2298 710 2298 1120 
Q 2298 1856 1632 2048 
Q 1434 2112 979 2112 
L 979 2202 
Q 1338 2323 1517 2432 
Q 2035 2726 2035 3290 
Q 2035 3610 1852 3776 
Q 1670 3942 1344 3942 
Q 768 3942 390 3264 
z
" transform="scale(0.015625)"/>
       <path id="STIXGeneral-Italic-6b" d="M 2950 2739 
L 2950 2637 
Q 2720 2624 2464 2448 
Q 2208 2272 1510 1651 
L 1747 1088 
Q 2099 262 2266 262 
Q 2400 262 2554 531 
Q 2586 582 2650 698 
L 2746 627 
Q 2522 224 2374 77 
Q 2227 -70 2035 -70 
Q 1894 -70 1782 42 
Q 1670 154 1517 454 
Q 1325 826 1133 1357 
L 877 1152 
L 570 0 
L 90 0 
L 992 3379 
Q 1082 3699 1107 3942 
Q 1088 4096 781 4096 
L 666 4096 
L 666 4198 
Q 1146 4256 1670 4371 
L 1709 4333 
L 941 1414 
L 1216 1626 
Q 2131 2330 2131 2522 
Q 2131 2637 1894 2637 
L 1805 2637 
L 1805 2739 
L 2950 2739 
z
" transform="scale(0.015625)"/>
       <path id="STIXGeneral-Regular-3a9" d="M 4576 0 
L 2746 0 
L 2790 1030 
Q 3187 1126 3440 1574 
Q 3693 2022 3693 2554 
Q 3693 3251 3344 3673 
Q 2995 4096 2380 4096 
Q 1766 4096 1417 3635 
Q 1069 3174 1069 2554 
Q 1069 2054 1315 1600 
Q 1562 1146 1965 1030 
L 2022 0 
L 186 0 
L 186 1094 
L 346 1094 
Q 352 806 438 707 
Q 525 608 742 608 
L 1709 608 
L 1696 845 
Q 1018 1037 678 1446 
Q 339 1856 339 2541 
Q 339 3238 899 3782 
Q 1459 4326 2380 4326 
Q 3302 4326 3862 3804 
Q 4422 3283 4422 2541 
Q 4422 1235 3046 845 
L 3034 608 
L 4019 608 
Q 4397 608 4416 1082 
L 4576 1082 
L 4576 0 
z
" transform="scale(0.015625)"/>
      </defs>
      <use xlink:href="#STIXGeneral-Regular-33" transform="translate(0 0.703125)"/>
      <use xlink:href="#STIXGeneral-Italic-6b" transform="translate(49.999985 0.703125)"/>
      <use xlink:href="#STIXGeneral-Regular-3a9" transform="translate(94.399979 0.703125)"/>
     </g>
    </g>
   </g>
   <g id="text_2">
    <g clip-path="url(#p9e738e194c)">
     <!-- $5k\Omega$ -->
     <g transform="translate(212.570321 64.99968)scale(0.125 -0.125)">
      <defs>
       <path id="STIXGeneral-Regular-35" d="M 2803 4358 
L 2573 3814 
Q 2534 3731 2400 3731 
L 1158 3731 
L 902 3187 
Q 1606 3053 1920 2896 
Q 2234 2739 2502 2368 
Q 2726 2061 2726 1555 
Q 2726 1094 2576 780 
Q 2426 467 2099 224 
Q 1664 -90 1011 -90 
Q 646 -90 422 19 
Q 198 128 198 307 
Q 198 550 486 550 
Q 717 550 960 352 
Q 1210 147 1414 147 
Q 1747 147 2012 480 
Q 2278 813 2278 1229 
Q 2278 1843 1850 2189 
Q 1293 2637 486 2637 
Q 410 2637 410 2688 
L 416 2720 
L 1114 4237 
L 2438 4237 
Q 2547 4237 2608 4269 
Q 2669 4301 2746 4403 
L 2803 4358 
z
" transform="scale(0.015625)"/>
      </defs>
      <use xlink:href="#STIXGeneral-Regular-35" transform="translate(0 0.203125)"/>
      <use xlink:href="#STIXGeneral-Italic-6b" transform="translate(49.999985 0.203125)"/>
      <use xlink:href="#STIXGeneral-Regular-3a9" transform="translate(94.399979 0.203125)"/>
     </g>
    </g>
   </g>
   <g id="text_3">
    <g clip-path="url(#p9e738e194c)">
     <!-- $6k\Omega$ -->
     <g transform="translate(176.299094 194.824485)scale(0.125 -0.125)">
      <defs>
       <path id="STIXGeneral-Regular-36" d="M 2854 4378 
L 2867 4275 
Q 2112 4154 1606 3664 
Q 1101 3174 973 2451 
Q 1344 2739 1786 2739 
Q 2349 2739 2672 2380 
Q 2995 2022 2995 1402 
Q 2995 774 2669 378 
Q 2291 -90 1651 -90 
Q 870 -90 518 557 
Q 218 1107 218 1786 
Q 218 2835 915 3552 
Q 1312 3962 1731 4131 
Q 2150 4301 2854 4378 
z
M 2419 1203 
Q 2419 2445 1555 2445 
Q 1235 2445 1024 2275 
Q 813 2106 813 1702 
Q 813 954 1046 522 
Q 1280 90 1722 90 
Q 2061 90 2240 394 
Q 2419 698 2419 1203 
z
" transform="scale(0.015625)"/>
      </defs>
      <use xlink:href="#STIXGeneral-Regular-36" transform="translate(0 0.59375)"/>
      <use xlink:href="#STIXGeneral-Italic-6b" transform="translate(49.999985 0.59375)"/>
      <use xlink:href="#STIXGeneral-Regular-3a9" transform="translate(94.399979 0.59375)"/>
     </g>
    </g>
   </g>
   <g id="text_4">
    <g clip-path="url(#p9e738e194c)">
     <!-- $2k\Omega$ -->
     <g transform="translate(82.745516 194.824485)scale(0.125 -0.125)">
      <defs>
       <path id="STIXGeneral-Regular-32" d="M 3034 877 
L 2688 0 
L 186 0 
L 186 77 
L 1325 1286 
Q 1773 1754 1965 2144 
Q 2157 2534 2157 2950 
Q 2157 3379 1920 3616 
Q 1683 3853 1267 3853 
Q 922 3853 720 3673 
Q 518 3494 326 3021 
L 192 3053 
Q 301 3648 630 3987 
Q 960 4326 1523 4326 
Q 2054 4326 2380 4006 
Q 2707 3686 2707 3200 
Q 2707 2477 1888 1613 
L 832 486 
L 2330 486 
Q 2541 486 2665 569 
Q 2790 653 2944 915 
L 3034 877 
z
" transform="scale(0.015625)"/>
      </defs>
      <use xlink:href="#STIXGeneral-Regular-32" transform="translate(0 0.703125)"/>
      <use xlink:href="#STIXGeneral-Italic-6b" transform="translate(49.999985 0.703125)"/>
      <use xlink:href="#STIXGeneral-Regular-3a9" transform="translate(94.399979 0.703125)"/>
     </g>
    </g>
   </g>
   <g id="text_5">
    <g clip-path="url(#p9e738e194c)">
     <!-- $3k\Omega$ -->
     <g transform="translate(46.474289 64.99968)scale(0.125 -0.125)">
      <use xlink:href="#STIXGeneral-Regular-33" transform="translate(0 0.703125)"/>
      <use xlink:href="#STIXGeneral-Italic-6b" transform="translate(49.999985 0.703125)"/>
      <use xlink:href="#STIXGeneral-Regular-3a9" transform="translate(94.399979 0.703125)"/>
     </g>
    </g>
   </g>
   <g id="text_6">
    <g clip-path="url(#p9e738e194c)">
     <!-- $5k\Omega$ -->
     <g transform="translate(212.570321 64.99968)scale(0.125 -0.125)">
      <use xlink:href="#STIXGeneral-Regular-35" transform="translate(0 0.203125)"/>
      <use xlink:href="#STIXGeneral-Italic-6b" transform="translate(49.999985 0.203125)"/>
      <use xlink:href="#STIXGeneral-Regular-3a9" transform="translate(94.399979 0.203125)"/>
     </g>
    </g>
   </g>
   <g id="text_7">
    <g clip-path="url(#p9e738e194c)">
     <!-- $6k\Omega$ -->
     <g transform="translate(176.299094 194.824485)scale(0.125 -0.125)">
      <use xlink:href="#STIXGeneral-Regular-36" transform="translate(0 0.59375)"/>
      <use xlink:href="#STIXGeneral-Italic-6b" transform="translate(49.999985 0.59375)"/>
      <use xlink:href="#STIXGeneral-Regular-3a9" transform="translate(94.399979 0.59375)"/>
     </g>
    </g>
   </g>
   <g id="text_8">
    <g clip-path="url(#p9e738e194c)">
     <!-- $2k\Omega$ -->
     <g transform="translate(82.745516 194.824485)scale(0.125 -0.125)">
      <use xlink:href="#STIXGeneral-Regular-32" transform="translate(0 0.703125)"/>
      <use xlink:href="#STIXGeneral-Italic-6b" transform="translate(49.999985 0.703125)"/>
      <use xlink:href="#STIXGeneral-Regular-3a9" transform="translate(94.399979 0.703125)"/>
     </g>
    </g>
   </g>
   <g id="patch_2">
    <path d="M 71.46 142.379805 
C 72.068641 142.379805 72.652436 142.137989 73.08281 141.707615 
C 73.513184 141.277241 73.755 140.693446 73.755 140.084805 
C 73.755 139.476164 73.513184 138.892369 73.08281 138.461995 
C 72.652436 138.031621 72.068641 137.789805 71.46 137.789805 
C 70.851359 137.789805 70.267564 138.031621 69.83719 138.461995 
C 69.406816 138.892369 69.165 139.476164 69.165 140.084805 
C 69.165 140.693446 69.406816 141.277241 69.83719 141.707615 
C 70.267564 142.137989 70.851359 142.379805 71.46 142.379805 
z
" clip-path="url(#p9e738e194c)" style="stroke: #000000; stroke-width: 2; stroke-linejoin: miter"/>
   </g>
   <g id="text_9">
    <g clip-path="url(#p9e738e194c)">
     <!-- A -->
     <g transform="translate(67.184609 132.130196)scale(0.125 -0.125)">
      <defs>
       <path id="DejaVuSans-41" d="M 2188 4044 
L 1331 1722 
L 3047 1722 
L 2188 4044 
z
M 1831 4666 
L 2547 4666 
L 4325 0 
L 3669 0 
L 3244 1197 
L 1141 1197 
L 716 0 
L 50 0 
L 1831 4666 
z
" transform="scale(0.015625)"/>
      </defs>
      <use xlink:href="#DejaVuSans-41"/>
     </g>
    </g>
   </g>
   <g id="patch_3">
    <path d="M 208.70961 142.379805 
C 209.318251 142.379805 209.902046 142.137989 210.33242 141.707615 
C 210.762794 141.277241 211.00461 140.693446 211.00461 140.084805 
C 211.00461 139.476164 210.762794 138.892369 210.33242 138.461995 
C 209.902046 138.031621 209.318251 137.789805 208.70961 137.789805 
C 208.100969 137.789805 207.517174 138.031621 207.0868 138.461995 
C 206.656426 138.892369 206.41461 139.476164 206.41461 140.084805 
C 206.41461 140.693446 206.656426 141.277241 207.0868 141.707615 
C 207.517174 142.137989 208.100969 142.379805 208.70961 142.379805 
z
" clip-path="url(#p9e738e194c)" style="stroke: #000000; stroke-width: 2; stroke-linejoin: miter"/>
   </g>
   <g id="text_10">
    <g clip-path="url(#p9e738e194c)">
     <!-- B -->
     <g transform="translate(204.421524 132.130196)scale(0.125 -0.125)">
      <defs>
       <path id="DejaVuSans-42" d="M 1259 2228 
L 1259 519 
L 2272 519 
Q 2781 519 3026 730 
Q 3272 941 3272 1375 
Q 3272 1813 3026 2020 
Q 2781 2228 2272 2228 
L 1259 2228 
z
M 1259 4147 
L 1259 2741 
L 2194 2741 
Q 2656 2741 2882 2914 
Q 3109 3088 3109 3444 
Q 3109 3797 2882 3972 
Q 2656 4147 2194 4147 
L 1259 4147 
z
M 628 4666 
L 2241 4666 
Q 2963 4666 3353 4366 
Q 3744 4066 3744 3513 
Q 3744 3084 3544 2831 
Q 3344 2578 2956 2516 
Q 3422 2416 3680 2098 
Q 3938 1781 3938 1306 
Q 3938 681 3513 340 
Q 3088 0 2303 0 
L 628 0 
L 628 4666 
z
" transform="scale(0.015625)"/>
      </defs>
      <use xlink:href="#DejaVuSans-42"/>
     </g>
    </g>
   </g>
   <g id="patch_4">
    <path d="M 71.46 142.379805 
C 72.068641 142.379805 72.652436 142.137989 73.08281 141.707615 
C 73.513184 141.277241 73.755 140.693446 73.755 140.084805 
C 73.755 139.476164 73.513184 138.892369 73.08281 138.461995 
C 72.652436 138.031621 72.068641 137.789805 71.46 137.789805 
C 70.851359 137.789805 70.267564 138.031621 69.83719 138.461995 
C 69.406816 138.892369 69.165 139.476164 69.165 140.084805 
C 69.165 140.693446 69.406816 141.277241 69.83719 141.707615 
C 70.267564 142.137989 70.851359 142.379805 71.46 142.379805 
z
" clip-path="url(#p9e738e194c)" style="stroke: #000000; stroke-width: 2; stroke-linejoin: miter"/>
   </g>
   <g id="text_11">
    <g clip-path="url(#p9e738e194c)">
     <!-- A -->
     <g transform="translate(67.184609 132.130196)scale(0.125 -0.125)">
      <use xlink:href="#DejaVuSans-41"/>
     </g>
    </g>
   </g>
   <g id="patch_5">
    <path d="M 208.70961 142.379805 
C 209.318251 142.379805 209.902046 142.137989 210.33242 141.707615 
C 210.762794 141.277241 211.00461 140.693446 211.00461 140.084805 
C 211.00461 139.476164 210.762794 138.892369 210.33242 138.461995 
C 209.902046 138.031621 209.318251 137.789805 208.70961 137.789805 
C 208.100969 137.789805 207.517174 138.031621 207.0868 138.461995 
C 206.656426 138.892369 206.41461 139.476164 206.41461 140.084805 
C 206.41461 140.693446 206.656426 141.277241 207.0868 141.707615 
C 207.517174 142.137989 208.100969 142.379805 208.70961 142.379805 
z
" clip-path="url(#p9e738e194c)" style="stroke: #000000; stroke-width: 2; stroke-linejoin: miter"/>
   </g>
   <g id="text_12">
    <g clip-path="url(#p9e738e194c)">
     <!-- B -->
     <g transform="translate(204.421524 132.130196)scale(0.125 -0.125)">
      <use xlink:href="#DejaVuSans-42"/>
     </g>
    </g>
   </g>
  </g>
 </g>
 <defs>
  <clipPath id="p9e738e194c">
   <rect x="7.2" y="7.2" width="265.76961" height="265.76961"/>
  </clipPath>
 </defs>
</svg>
