<?xml version="1.0" encoding="utf-8" standalone="no"?>
<!DOCTYPE svg PUBLIC "-//W3C//DTD SVG 1.1//EN"
  "http://www.w3.org/Graphics/SVG/1.1/DTD/svg11.dtd">
<svg xmlns:xlink="http://www.w3.org/1999/xlink" width="316.741797pt" height="267.792969pt" viewBox="0 0 316.741797 267.792969" xmlns="http://www.w3.org/2000/svg" version="1.1">
 <metadata>
  <rdf:RDF xmlns:dc="http://purl.org/dc/elements/1.1/" xmlns:cc="http://creativecommons.org/ns#" xmlns:rdf="http://www.w3.org/1999/02/22-rdf-syntax-ns#">
   <cc:Work>
    <dc:type rdf:resource="http://purl.org/dc/dcmitype/StillImage"/>
    <dc:date>2024-03-15T17:35:44.240332</dc:date>
    <dc:format>image/svg+xml</dc:format>
    <dc:creator>
     <cc:Agent>
      <dc:title>Matplotlib v3.8.2, https://matplotlib.org/</dc:title>
     </cc:Agent>
    </dc:creator>
   </cc:Work>
  </rdf:RDF>
 </metadata>
 <defs>
  <style type="text/css">*{stroke-linejoin: round; stroke-linecap: butt}</style>
 </defs>
 <g id="figure_1">
  <g id="patch_1">
   <path d="M 0 267.792969 
L 316.741797 267.792969 
L 316.741797 0 
L 0 0 
L 0 267.792969 
z
" style="fill: none"/>
  </g>
  <g id="axes_1">
   <g id="patch_2">
    <path d="M 43.602344 216.492969 
C 48.376 216.492969 52.954781 214.596375 56.330266 211.220891 
C 59.70575 207.845406 61.602344 203.266625 61.602344 198.492969 
C 61.602344 193.719313 59.70575 189.140531 56.330266 185.765047 
C 52.954781 182.389562 48.376 180.492969 43.602344 180.492969 
C 38.828688 180.492969 34.249906 182.389562 30.874422 185.765047 
C 27.498937 189.140531 25.602344 193.719313 25.602344 198.492969 
C 25.602344 203.266625 27.498937 207.845406 30.874422 211.220891 
C 34.249906 214.596375 38.828688 216.492969 43.602344 216.492969 
L 43.602344 216.492969 
z
" clip-path="url(#pa4b16d5642)" style="fill: none; stroke: #000000; stroke-linejoin: miter"/>
   </g>
   <g id="patch_3">
    <path d="M 259.602344 216.492969 
C 264.376 216.492969 268.954781 214.596375 272.330266 211.220891 
C 275.70575 207.845406 277.602344 203.266625 277.602344 198.492969 
C 277.602344 193.719313 275.70575 189.140531 272.330266 185.765047 
C 268.954781 182.389562 264.376 180.492969 259.602344 180.492969 
C 254.828688 180.492969 250.249906 182.389562 246.874422 185.765047 
C 243.498937 189.140531 241.602344 193.719313 241.602344 198.492969 
C 241.602344 203.266625 243.498937 207.845406 246.874422 211.220891 
C 250.249906 214.596375 254.828688 216.492969 259.602344 216.492969 
L 259.602344 216.492969 
z
" clip-path="url(#pa4b16d5642)" style="fill: none; stroke: #000000; stroke-linejoin: miter"/>
   </g>
   <g id="patch_4">
    <path d="M 151.602344 54.492969 
C 156.376 54.492969 160.954781 52.596375 164.330266 49.220891 
C 167.70575 45.845406 169.602344 41.266625 169.602344 36.492969 
C 169.602344 31.719313 167.70575 27.140531 164.330266 23.765047 
C 160.954781 20.389562 156.376 18.492969 151.602344 18.492969 
C 146.828688 18.492969 142.249906 20.389562 138.874422 23.765047 
C 135.498937 27.140531 133.602344 31.719313 133.602344 36.492969 
C 133.602344 41.266625 135.498937 45.845406 138.874422 49.220891 
C 142.249906 52.596375 146.828688 54.492969 151.602344 54.492969 
L 151.602344 54.492969 
z
" clip-path="url(#pa4b16d5642)" style="fill: none; stroke: #000000; stroke-linejoin: miter"/>
   </g>
   <g id="line2d_1">
    <path d="M 43.602344 252.492969 
L 43.602344 216.492969 
L 43.602344 216.492969 
M 43.602344 180.492969 
L 43.602344 180.492969 
L 43.602344 144.492969 
" clip-path="url(#pa4b16d5642)" style="fill: none; stroke: #000000; stroke-linecap: round"/>
   </g>
   <g id="line2d_2">
    <path d="M 43.602344 207.492969 
L 43.602344 198.492969 
" clip-path="url(#pa4b16d5642)" style="fill: none; stroke: #000000; stroke-linecap: round"/>
   </g>
   <g id="patch_5">
    <path d="M 40.902344 198.492969 
L 43.602344 189.492969 
L 46.302344 198.492969 
z
" clip-path="url(#pa4b16d5642)"/>
   </g>
   <g id="line2d_3">
    <path d="M 43.602344 144.492969 
L 79.602344 144.492969 
L 82.602344 135.492969 
L 88.602344 153.492969 
L 94.602344 135.492969 
L 100.602344 153.492969 
L 106.602344 135.492969 
L 112.602344 153.492969 
L 115.602344 144.492969 
L 151.602344 144.492969 
" clip-path="url(#pa4b16d5642)" style="fill: none; stroke: #000000; stroke-linecap: round"/>
   </g>
   <g id="line2d_4">
    <path d="M 151.602344 144.492969 
L 187.602344 144.492969 
L 190.602344 135.492969 
L 196.602344 153.492969 
L 202.602344 135.492969 
L 208.602344 153.492969 
L 214.602344 135.492969 
L 220.602344 153.492969 
L 223.602344 144.492969 
L 259.602344 144.492969 
" clip-path="url(#pa4b16d5642)" style="fill: none; stroke: #000000; stroke-linecap: round"/>
   </g>
   <g id="line2d_5">
    <path d="M 259.602344 144.492969 
L 259.602344 180.492969 
L 259.602344 180.492969 
M 259.602344 216.492969 
L 259.602344 216.492969 
L 259.602344 252.492969 
" clip-path="url(#pa4b16d5642)" style="fill: none; stroke: #000000; stroke-linecap: round"/>
   </g>
   <g id="line2d_6">
    <path d="M 259.602344 198.492969 
L 259.602344 207.492969 
" clip-path="url(#pa4b16d5642)" style="fill: none; stroke: #000000; stroke-linecap: round"/>
   </g>
   <g id="patch_6">
    <path d="M 256.902344 198.492969 
L 259.602344 189.492969 
L 262.302344 198.492969 
z
" clip-path="url(#pa4b16d5642)"/>
   </g>
   <g id="line2d_7">
    <path d="M 151.602344 144.492969 
L 151.602344 180.492969 
L 160.602344 183.492969 
L 142.602344 189.492969 
L 160.602344 195.492969 
L 142.602344 201.492969 
L 160.602344 207.492969 
L 142.602344 213.492969 
L 151.602344 216.492969 
L 151.602344 252.492969 
" clip-path="url(#pa4b16d5642)" style="fill: none; stroke: #000000; stroke-linecap: round"/>
   </g>
   <g id="line2d_8">
    <path d="M 43.602344 252.492969 
L 151.602344 252.492969 
L 259.602344 252.492969 
" clip-path="url(#pa4b16d5642)" style="fill: none; stroke: #000000; stroke-linecap: round"/>
   </g>
   <g id="line2d_9">
    <path d="M 43.602344 144.492969 
L 43.602344 90.492969 
L 43.602344 36.492969 
" clip-path="url(#pa4b16d5642)" style="fill: none; stroke: #000000; stroke-linecap: round"/>
   </g>
   <g id="line2d_10">
    <path d="M 43.602344 36.492969 
L 70.602344 36.492969 
L 97.602344 36.492969 
" clip-path="url(#pa4b16d5642)" style="fill: none; stroke: #000000; stroke-linecap: round"/>
   </g>
   <g id="line2d_11">
    <path d="M 97.602344 36.492969 
L 133.602344 36.492969 
L 133.602344 36.492969 
M 169.602344 36.492969 
L 169.602344 36.492969 
L 205.602344 36.492969 
" clip-path="url(#pa4b16d5642)" style="fill: none; stroke: #000000; stroke-linecap: round"/>
   </g>
   <g id="line2d_12">
    <path d="M 142.602344 36.492969 
L 151.602344 36.492969 
" clip-path="url(#pa4b16d5642)" style="fill: none; stroke: #000000; stroke-linecap: round"/>
   </g>
   <g id="patch_7">
    <path d="M 151.602344 33.792969 
L 160.602344 36.492969 
L 151.602344 39.192969 
z
" clip-path="url(#pa4b16d5642)"/>
   </g>
   <g id="line2d_13">
    <path d="M 205.602344 36.492969 
L 232.602344 36.492969 
L 259.602344 36.492969 
" clip-path="url(#pa4b16d5642)" style="fill: none; stroke: #000000; stroke-linecap: round"/>
   </g>
   <g id="line2d_14">
    <path d="M 259.602344 36.492969 
L 259.602344 90.492969 
L 259.602344 144.492969 
" clip-path="url(#pa4b16d5642)" style="fill: none; stroke: #000000; stroke-linecap: round"/>
   </g>
   <g id="text_1">
    <!-- 3 A -->
    <g transform="translate(3.6 201.416797) scale(0.125 -0.125)">
     <defs>
      <path id="Times-Roman-33" d="M 497 544 
Q 669 544 951 366 
Q 1234 188 1431 188 
Q 1869 188 2081 483 
Q 2294 778 2294 1125 
Q 2294 1459 2122 1713 
Q 1831 2141 1141 2141 
Q 1100 2141 1062 2139 
Q 1025 2138 975 2131 
L 969 2213 
Q 1469 2394 1756 2628 
Q 2044 2863 2044 3247 
Q 2044 3588 1817 3766 
Q 1591 3944 1300 3944 
Q 956 3944 694 3691 
Q 550 3553 384 3266 
L 288 3288 
Q 413 3763 753 4047 
Q 1094 4331 1541 4331 
Q 2019 4331 2280 4068 
Q 2541 3806 2541 3463 
Q 2541 3159 2325 2906 
Q 2203 2763 1947 2584 
Q 2247 2456 2428 2284 
Q 2769 1956 2769 1453 
Q 2769 859 2301 406 
Q 1834 -47 972 -47 
Q 588 -47 433 67 
Q 278 181 278 313 
Q 278 394 329 469 
Q 381 544 497 544 
z
" transform="scale(0.015625)"/>
      <path id="Times-Roman-20" transform="scale(0.015625)"/>
      <path id="Times-Roman-41" d="M 2856 1644 
L 2116 3406 
L 1384 1644 
L 2856 1644 
z
M 94 0 
L 94 116 
Q 341 144 464 303 
Q 588 463 888 1169 
L 2222 4309 
L 2347 4309 
L 3941 681 
Q 4100 319 4195 233 
Q 4291 147 4516 116 
L 4516 0 
L 2888 0 
L 2888 116 
Q 3169 141 3250 177 
Q 3331 213 3331 353 
Q 3331 400 3300 519 
Q 3269 638 3213 769 
L 2947 1384 
L 1272 1384 
Q 1022 756 973 617 
Q 925 478 925 397 
Q 925 234 1056 172 
Q 1138 134 1363 116 
L 1363 0 
L 94 0 
z
M 2284 4309 
L 2284 4309 
z
" transform="scale(0.015625)"/>
     </defs>
     <use xlink:href="#Times-Roman-33"/>
     <use xlink:href="#Times-Roman-20" x="50"/>
     <use xlink:href="#Times-Roman-41" x="75"/>
    </g>
   </g>
   <g id="text_2">
    <!-- + -->
    <g transform="translate(67.07793 129.170312) scale(0.125 -0.125)">
     <defs>
      <path id="Times-Roman-2b" d="M 1591 3234 
L 2028 3234 
L 2028 1834 
L 3422 1834 
L 3422 1397 
L 2028 1397 
L 2028 0 
L 1591 0 
L 1591 1397 
L 191 1397 
L 191 1834 
L 1591 1834 
L 1591 3234 
z
" transform="scale(0.015625)"/>
     </defs>
     <use xlink:href="#Times-Roman-2b"/>
    </g>
   </g>
   <g id="text_3">
    <!-- $4V$ -->
    <g transform="translate(90.602344 129.170312) scale(0.125 -0.125)">
     <defs>
      <path id="STIXGeneral-Regular-34" d="M 3027 1069 
L 2368 1069 
L 2368 0 
L 1869 0 
L 1869 1069 
L 77 1069 
L 77 1478 
L 2086 4326 
L 2368 4326 
L 2368 1478 
L 3027 1478 
L 3027 1069 
z
M 1869 1478 
L 1869 3674 
L 333 1478 
L 1869 1478 
z
" transform="scale(0.015625)"/>
      <path id="STIXGeneral-Italic-56" d="M 4403 4179 
L 4403 4077 
Q 4198 4070 4045 3821 
L 1658 -115 
L 1536 -115 
L 1011 3104 
Q 902 3776 828 3910 
Q 755 4045 486 4077 
L 486 4179 
L 2022 4179 
L 2022 4077 
Q 1722 4045 1629 3981 
Q 1536 3917 1536 3750 
Q 1536 3686 1542 3654 
L 1958 819 
L 3302 3123 
Q 3616 3661 3616 3859 
Q 3616 4032 3219 4077 
L 3219 4179 
L 4403 4179 
z
" transform="scale(0.015625)"/>
     </defs>
     <use xlink:href="#STIXGeneral-Regular-34" transform="translate(0 0.40625)"/>
     <use xlink:href="#STIXGeneral-Italic-56" transform="translate(49.999985 0.40625)"/>
    </g>
   </g>
   <g id="text_4">
    <!-- - -->
    <g transform="translate(122.521289 129.170312) scale(0.125 -0.125)">
     <defs>
      <path id="Times-Roman-2d" d="M 250 1644 
L 1822 1644 
L 1822 1244 
L 250 1244 
L 250 1644 
z
" transform="scale(0.015625)"/>
     </defs>
     <use xlink:href="#Times-Roman-2d"/>
    </g>
   </g>
   <g id="text_5">
    <!-- + -->
    <g transform="translate(175.07793 129.170312) scale(0.125 -0.125)">
     <use xlink:href="#Times-Roman-2b"/>
    </g>
   </g>
   <g id="text_6">
    <!-- $-3V$ -->
    <g transform="translate(194.352344 129.170312) scale(0.125 -0.125)">
     <defs>
      <path id="STIXGeneral-Regular-2212" d="M 3974 1408 
L 410 1408 
L 410 1830 
L 3974 1830 
L 3974 1408 
z
" transform="scale(0.015625)"/>
      <path id="STIXGeneral-Regular-33" d="M 390 3264 
L 288 3290 
Q 435 3770 748 4048 
Q 1062 4326 1542 4326 
Q 1990 4326 2265 4083 
Q 2541 3840 2541 3450 
Q 2541 2925 1946 2566 
Q 2298 2413 2477 2227 
Q 2758 1914 2758 1402 
Q 2758 890 2464 506 
Q 2246 211 1840 60 
Q 1434 -90 979 -90 
Q 262 -90 262 275 
Q 262 378 339 442 
Q 416 506 525 506 
Q 685 506 915 339 
Q 1197 141 1466 141 
Q 1818 141 2058 425 
Q 2298 710 2298 1120 
Q 2298 1856 1632 2048 
Q 1434 2112 979 2112 
L 979 2202 
Q 1338 2323 1517 2432 
Q 2035 2726 2035 3290 
Q 2035 3610 1852 3776 
Q 1670 3942 1344 3942 
Q 768 3942 390 3264 
z
" transform="scale(0.015625)"/>
     </defs>
     <use xlink:href="#STIXGeneral-Regular-2212" transform="translate(0 0.40625)"/>
     <use xlink:href="#STIXGeneral-Regular-33" transform="translate(68.499985 0.40625)"/>
     <use xlink:href="#STIXGeneral-Italic-56" transform="translate(118.499969 0.40625)"/>
    </g>
   </g>
   <g id="text_7">
    <!-- - -->
    <g transform="translate(230.521289 129.170312) scale(0.125 -0.125)">
     <use xlink:href="#Times-Roman-2d"/>
    </g>
   </g>
   <g id="text_8">
    <!-- -1.5 A -->
    <g transform="translate(281.202344 201.416797) scale(0.125 -0.125)">
     <defs>
      <path id="Times-Roman-31" d="M 1894 4294 
Q 1906 4278 1907 4270 
Q 1909 4263 1909 4234 
L 1909 472 
Q 1909 231 2037 165 
Q 2166 100 2516 88 
L 2516 0 
L 753 0 
L 753 94 
Q 1131 113 1247 197 
Q 1363 281 1363 563 
L 1363 3456 
Q 1363 3606 1325 3684 
Q 1288 3763 1163 3763 
Q 1081 3763 951 3717 
Q 822 3672 709 3622 
L 709 3709 
L 1856 4294 
L 1894 4294 
z
" transform="scale(0.015625)"/>
      <path id="Times-Roman-2e" d="M 1044 -75 
Q 894 -75 791 29 
Q 688 134 688 281 
Q 688 428 792 531 
Q 897 634 1044 634 
Q 1191 634 1294 531 
Q 1397 428 1397 281 
Q 1397 134 1295 29 
Q 1194 -75 1044 -75 
z
" transform="scale(0.015625)"/>
      <path id="Times-Roman-35" d="M 478 572 
Q 656 572 945 370 
Q 1234 169 1391 169 
Q 1750 169 2019 486 
Q 2288 803 2288 1266 
Q 2288 2075 1425 2431 
Q 947 2628 534 2628 
Q 466 2628 448 2633 
Q 431 2638 406 2666 
Q 413 2691 417 2708 
Q 422 2725 428 2741 
L 1109 4234 
L 2450 4234 
Q 2550 4234 2604 4268 
Q 2659 4303 2747 4397 
L 2797 4353 
L 2553 3775 
Q 2541 3747 2484 3739 
Q 2428 3731 2363 3731 
L 1153 3731 
L 888 3184 
Q 1400 3097 1638 3019 
Q 2028 2888 2291 2631 
Q 2516 2409 2631 2132 
Q 2747 1856 2747 1547 
Q 2747 856 2255 393 
Q 1763 -69 1009 -69 
Q 703 -69 516 -9 
Q 203 88 203 338 
Q 203 431 270 501 
Q 338 572 478 572 
z
" transform="scale(0.015625)"/>
     </defs>
     <use xlink:href="#Times-Roman-2d"/>
     <use xlink:href="#Times-Roman-31" x="33.300781"/>
     <use xlink:href="#Times-Roman-2e" x="83.300781"/>
     <use xlink:href="#Times-Roman-35" x="108.300781"/>
     <use xlink:href="#Times-Roman-20" x="158.300781"/>
     <use xlink:href="#Times-Roman-41" x="183.300781"/>
    </g>
   </g>
   <g id="text_9">
    <!-- + -->
    <g transform="translate(131.953516 174.416797) scale(0.125 -0.125)">
     <use xlink:href="#Times-Roman-2b"/>
    </g>
   </g>
   <g id="text_10">
    <!-- $12V$ -->
    <g transform="translate(118.752344 201.416797) scale(0.125 -0.125)">
     <defs>
      <path id="STIXGeneral-Regular-31" d="M 2522 0 
L 755 0 
L 755 96 
Q 1107 115 1235 227 
Q 1363 339 1363 608 
L 1363 3482 
Q 1363 3795 1171 3795 
Q 1082 3795 883 3718 
L 710 3654 
L 710 3744 
L 1856 4326 
L 1914 4307 
L 1914 486 
Q 1914 275 2042 185 
Q 2170 96 2522 96 
L 2522 0 
z
" transform="scale(0.015625)"/>
      <path id="STIXGeneral-Regular-32" d="M 3034 877 
L 2688 0 
L 186 0 
L 186 77 
L 1325 1286 
Q 1773 1754 1965 2144 
Q 2157 2534 2157 2950 
Q 2157 3379 1920 3616 
Q 1683 3853 1267 3853 
Q 922 3853 720 3673 
Q 518 3494 326 3021 
L 192 3053 
Q 301 3648 630 3987 
Q 960 4326 1523 4326 
Q 2054 4326 2380 4006 
Q 2707 3686 2707 3200 
Q 2707 2477 1888 1613 
L 832 486 
L 2330 486 
Q 2541 486 2665 569 
Q 2790 653 2944 915 
L 3034 877 
z
" transform="scale(0.015625)"/>
     </defs>
     <use xlink:href="#STIXGeneral-Regular-31" transform="translate(0 0.40625)"/>
     <use xlink:href="#STIXGeneral-Regular-32" transform="translate(49.999985 0.40625)"/>
     <use xlink:href="#STIXGeneral-Italic-56" transform="translate(99.999969 0.40625)"/>
    </g>
   </g>
   <g id="text_11">
    <!-- - -->
    <g transform="translate(134.840234 228.416797) scale(0.125 -0.125)">
     <use xlink:href="#Times-Roman-2d"/>
    </g>
   </g>
   <g id="text_12">
    <!-- 2 A -->
    <g transform="translate(142.401172 12.170312) scale(0.125 -0.125)">
     <defs>
      <path id="Times-Roman-32" d="M 191 72 
Q 1334 1259 1743 1815 
Q 2153 2372 2153 2900 
Q 2153 3363 1903 3605 
Q 1653 3847 1306 3847 
Q 878 3847 613 3534 
Q 466 3363 331 3006 
L 197 3034 
Q 353 3753 726 4033 
Q 1100 4313 1528 4313 
Q 2056 4313 2382 3980 
Q 2709 3647 2709 3166 
Q 2709 2653 2356 2178 
Q 2003 1703 822 488 
L 2256 488 
Q 2556 488 2678 559 
Q 2800 631 2953 909 
L 3034 872 
L 2688 0 
L 191 0 
L 191 72 
z
" transform="scale(0.015625)"/>
     </defs>
     <use xlink:href="#Times-Roman-32"/>
     <use xlink:href="#Times-Roman-20" x="50"/>
     <use xlink:href="#Times-Roman-41" x="75"/>
    </g>
   </g>
  </g>
 </g>
 <defs>
  <clipPath id="pa4b16d5642">
   <rect x="13.002344" y="6.792969" width="277.2" height="257.4"/>
  </clipPath>
 </defs>
</svg>
