<?xml version="1.0" encoding="utf-8" standalone="no"?>
<!DOCTYPE svg PUBLIC "-//W3C//DTD SVG 1.1//EN"
  "http://www.w3.org/Graphics/SVG/1.1/DTD/svg11.dtd">
<svg xmlns:xlink="http://www.w3.org/1999/xlink" width="311.2404pt" height="142.92pt" viewBox="0 0 311.2404 142.92" xmlns="http://www.w3.org/2000/svg" version="1.1">
 <metadata>
  <rdf:RDF xmlns:dc="http://purl.org/dc/elements/1.1/" xmlns:cc="http://creativecommons.org/ns#" xmlns:rdf="http://www.w3.org/1999/02/22-rdf-syntax-ns#">
   <cc:Work>
    <dc:type rdf:resource="http://purl.org/dc/dcmitype/StillImage"/>
    <dc:date>2023-05-23T08:00:04.426533</dc:date>
    <dc:format>image/svg+xml</dc:format>
    <dc:creator>
     <cc:Agent>
      <dc:title>Matplotlib v3.5.2, https://matplotlib.org/</dc:title>
     </cc:Agent>
    </dc:creator>
   </cc:Work>
  </rdf:RDF>
 </metadata>
 <defs>
  <style type="text/css">*{stroke-linejoin: round; stroke-linecap: butt}</style>
 </defs>
 <g id="figure_1">
  <g id="patch_1">
   <path d="M 0 142.92 
L 311.2404 142.92 
L 311.2404 0 
L 0 0 
L 0 142.92 
z
" style="fill: none"/>
  </g>
  <g id="axes_1">
   <g id="patch_2">
    <path d="M 62.1576 86.76 
C 66.215207 86.76 70.107172 85.147895 72.976334 82.278734 
C 75.845495 79.409572 77.4576 75.517607 77.4576 71.46 
C 77.4576 67.402393 75.845495 63.510428 72.976334 60.641266 
C 70.107172 57.772105 66.215207 56.16 62.1576 56.16 
C 58.099993 56.16 54.208028 57.772105 51.338866 60.641266 
C 48.469705 63.510428 46.8576 67.402393 46.8576 71.46 
C 46.8576 75.517607 48.469705 79.409572 51.338866 82.278734 
C 54.208028 85.147895 58.099993 86.76 62.1576 86.76 
L 62.1576 86.76 
z
" clip-path="url(#p69f4a7d72f)" style="fill: none; stroke: #000000; stroke-width: 2; stroke-linejoin: miter"/>
   </g>
   <g id="patch_3">
    <path d="M 62.1576 86.76 
C 66.215207 86.76 70.107172 85.147895 72.976334 82.278734 
C 75.845495 79.409572 77.4576 75.517607 77.4576 71.46 
C 77.4576 67.402393 75.845495 63.510428 72.976334 60.641266 
C 70.107172 57.772105 66.215207 56.16 62.1576 56.16 
C 58.099993 56.16 54.208028 57.772105 51.338866 60.641266 
C 48.469705 63.510428 46.8576 67.402393 46.8576 71.46 
C 46.8576 75.517607 48.469705 79.409572 51.338866 82.278734 
C 54.208028 85.147895 58.099993 86.76 62.1576 86.76 
L 62.1576 86.76 
z
" clip-path="url(#p69f4a7d72f)" style="fill: none; stroke: #000000; stroke-width: 2; stroke-linejoin: miter"/>
   </g>
   <g id="line2d_1">
    <path d="M 62.1576 132.66 
L 62.1576 86.76 
L 62.1576 86.76 
M 62.1576 56.16 
L 62.1576 56.16 
L 62.1576 10.26 
" clip-path="url(#p69f4a7d72f)" style="fill: none; stroke: #000000; stroke-width: 2; stroke-linecap: round"/>
   </g>
   <g id="line2d_2">
    <path d="M 62.1576 79.11 
L 62.1576 71.46 
" clip-path="url(#p69f4a7d72f)" style="fill: none; stroke: #000000; stroke-width: 2; stroke-linecap: round"/>
   </g>
   <g id="patch_4">
    <path d="M 59.8626 71.46 
L 62.1576 63.81 
L 64.4526 71.46 
z
" clip-path="url(#p69f4a7d72f)"/>
   </g>
   <g id="line2d_3">
    <path d="M 62.1576 10.26 
L 108.0576 10.26 
L 153.9576 10.26 
" clip-path="url(#p69f4a7d72f)" style="fill: none; stroke: #000000; stroke-width: 2; stroke-linecap: round"/>
   </g>
   <g id="line2d_4">
    <path d="M 153.9576 10.26 
L 153.9576 56.16 
L 161.6076 58.71 
L 146.3076 63.81 
L 161.6076 68.91 
L 146.3076 74.01 
L 161.6076 79.11 
L 146.3076 84.21 
L 153.9576 86.76 
L 153.9576 132.66 
" clip-path="url(#p69f4a7d72f)" style="fill: none; stroke: #000000; stroke-width: 2; stroke-linecap: round"/>
   </g>
   <g id="line2d_5">
    <path d="M 153.9576 10.26 
L 199.8576 10.26 
L 245.7576 10.26 
" clip-path="url(#p69f4a7d72f)" style="fill: none; stroke: #000000; stroke-width: 2; stroke-linecap: round"/>
   </g>
   <g id="line2d_6">
    <path d="M 245.7576 10.26 
L 245.7576 56.16 
L 253.4076 58.71 
L 238.1076 63.81 
L 253.4076 68.91 
L 238.1076 74.01 
L 253.4076 79.11 
L 238.1076 84.21 
L 245.7576 86.76 
L 245.7576 132.66 
" clip-path="url(#p69f4a7d72f)" style="fill: none; stroke: #000000; stroke-width: 2; stroke-linecap: round"/>
   </g>
   <g id="line2d_7">
    <path d="M 245.7576 132.66 
L 199.8576 132.66 
L 153.9576 132.66 
" clip-path="url(#p69f4a7d72f)" style="fill: none; stroke: #000000; stroke-width: 2; stroke-linecap: round"/>
   </g>
   <g id="line2d_8">
    <path d="M 153.9576 132.66 
L 108.0576 132.66 
L 62.1576 132.66 
" clip-path="url(#p69f4a7d72f)" style="fill: none; stroke: #000000; stroke-width: 2; stroke-linecap: round"/>
   </g>
   <g id="line2d_9">
    <path d="M 62.1576 132.66 
L 62.1576 86.76 
L 62.1576 86.76 
M 62.1576 56.16 
L 62.1576 56.16 
L 62.1576 10.26 
" clip-path="url(#p69f4a7d72f)" style="fill: none; stroke: #000000; stroke-width: 2; stroke-linecap: round"/>
   </g>
   <g id="line2d_10">
    <path d="M 62.1576 79.11 
L 62.1576 71.46 
" clip-path="url(#p69f4a7d72f)" style="fill: none; stroke: #000000; stroke-width: 2; stroke-linecap: round"/>
   </g>
   <g id="patch_5">
    <path d="M 59.8626 71.46 
L 62.1576 63.81 
L 64.4526 71.46 
z
" clip-path="url(#p69f4a7d72f)"/>
   </g>
   <g id="line2d_11">
    <path d="M 62.1576 10.26 
L 108.0576 10.26 
L 153.9576 10.26 
" clip-path="url(#p69f4a7d72f)" style="fill: none; stroke: #000000; stroke-width: 2; stroke-linecap: round"/>
   </g>
   <g id="line2d_12">
    <path d="M 153.9576 10.26 
L 153.9576 56.16 
L 161.6076 58.71 
L 146.3076 63.81 
L 161.6076 68.91 
L 146.3076 74.01 
L 161.6076 79.11 
L 146.3076 84.21 
L 153.9576 86.76 
L 153.9576 132.66 
" clip-path="url(#p69f4a7d72f)" style="fill: none; stroke: #000000; stroke-width: 2; stroke-linecap: round"/>
   </g>
   <g id="line2d_13">
    <path d="M 153.9576 10.26 
L 199.8576 10.26 
L 245.7576 10.26 
" clip-path="url(#p69f4a7d72f)" style="fill: none; stroke: #000000; stroke-width: 2; stroke-linecap: round"/>
   </g>
   <g id="line2d_14">
    <path d="M 245.7576 10.26 
L 245.7576 56.16 
L 253.4076 58.71 
L 238.1076 63.81 
L 253.4076 68.91 
L 238.1076 74.01 
L 253.4076 79.11 
L 238.1076 84.21 
L 245.7576 86.76 
L 245.7576 132.66 
" clip-path="url(#p69f4a7d72f)" style="fill: none; stroke: #000000; stroke-width: 2; stroke-linecap: round"/>
   </g>
   <g id="line2d_15">
    <path d="M 245.7576 132.66 
L 199.8576 132.66 
L 153.9576 132.66 
" clip-path="url(#p69f4a7d72f)" style="fill: none; stroke: #000000; stroke-width: 2; stroke-linecap: round"/>
   </g>
   <g id="line2d_16">
    <path d="M 153.9576 132.66 
L 108.0576 132.66 
L 62.1576 132.66 
" clip-path="url(#p69f4a7d72f)" style="fill: none; stroke: #000000; stroke-width: 2; stroke-linecap: round"/>
   </g>
   <g id="text_1">
    <g clip-path="url(#p69f4a7d72f)">
     <!-- $I_S$ -->
     <g transform="translate(34.6726 67.910586)scale(0.125 -0.125)">
      <defs>
       <path id="STIXGeneral-Italic-49" d="M 2458 4179 
L 2458 4077 
Q 2189 4045 2102 3961 
Q 2016 3878 1933 3584 
L 1165 838 
Q 1069 499 1069 352 
Q 1069 224 1149 179 
Q 1229 134 1510 102 
L 1510 0 
L -51 0 
L -51 102 
Q 218 154 317 237 
Q 416 320 486 582 
L 1254 3405 
Q 1338 3699 1338 3802 
Q 1338 3930 1235 3997 
Q 1133 4064 877 4077 
L 877 4179 
L 2458 4179 
z
" transform="scale(0.015625)"/>
       <path id="STIXGeneral-Italic-53" d="M 3251 4269 
L 2995 2989 
L 2880 3008 
Q 2880 3539 2720 3795 
Q 2560 4051 2118 4051 
Q 1786 4051 1594 3881 
Q 1402 3712 1402 3411 
Q 1402 3168 1504 3005 
Q 1606 2842 2035 2413 
Q 2464 1978 2611 1715 
Q 2758 1453 2758 1133 
Q 2758 589 2390 237 
Q 2022 -115 1466 -115 
Q 1222 -115 800 32 
Q 595 109 499 109 
Q 288 109 224 -96 
L 109 -96 
L 326 1338 
L 454 1325 
Q 442 1267 442 1178 
Q 442 710 701 409 
Q 960 109 1363 109 
Q 1734 109 1968 336 
Q 2202 563 2202 928 
Q 2202 1139 2118 1308 
Q 2035 1478 1818 1715 
L 1568 1984 
Q 1549 2003 1459 2102 
Q 1370 2202 1318 2253 
Q 1030 2560 934 2755 
Q 838 2950 838 3213 
Q 838 3699 1168 3980 
Q 1498 4262 1978 4262 
Q 2310 4262 2522 4173 
Q 2707 4102 2816 4102 
Q 2925 4102 2982 4134 
Q 3040 4166 3104 4269 
L 3251 4269 
z
" transform="scale(0.015625)"/>
      </defs>
      <use xlink:href="#STIXGeneral-Italic-49" transform="translate(0 0.703125)"/>
      <use xlink:href="#STIXGeneral-Italic-53" transform="translate(33.299988 -12.525)scale(0.7)"/>
     </g>
    </g>
    <g clip-path="url(#p69f4a7d72f)">
     <!-- 3 mA -->
     <g transform="translate(11.145256 81.907852)scale(0.125 -0.125)">
      <defs>
       <path id="DejaVuSans-33" d="M 2597 2516 
Q 3050 2419 3304 2112 
Q 3559 1806 3559 1356 
Q 3559 666 3084 287 
Q 2609 -91 1734 -91 
Q 1441 -91 1130 -33 
Q 819 25 488 141 
L 488 750 
Q 750 597 1062 519 
Q 1375 441 1716 441 
Q 2309 441 2620 675 
Q 2931 909 2931 1356 
Q 2931 1769 2642 2001 
Q 2353 2234 1838 2234 
L 1294 2234 
L 1294 2753 
L 1863 2753 
Q 2328 2753 2575 2939 
Q 2822 3125 2822 3475 
Q 2822 3834 2567 4026 
Q 2313 4219 1838 4219 
Q 1578 4219 1281 4162 
Q 984 4106 628 3988 
L 628 4550 
Q 988 4650 1302 4700 
Q 1616 4750 1894 4750 
Q 2613 4750 3031 4423 
Q 3450 4097 3450 3541 
Q 3450 3153 3228 2886 
Q 3006 2619 2597 2516 
z
" transform="scale(0.015625)"/>
       <path id="DejaVuSans-20" transform="scale(0.015625)"/>
       <path id="DejaVuSans-6d" d="M 3328 2828 
Q 3544 3216 3844 3400 
Q 4144 3584 4550 3584 
Q 5097 3584 5394 3201 
Q 5691 2819 5691 2113 
L 5691 0 
L 5113 0 
L 5113 2094 
Q 5113 2597 4934 2840 
Q 4756 3084 4391 3084 
Q 3944 3084 3684 2787 
Q 3425 2491 3425 1978 
L 3425 0 
L 2847 0 
L 2847 2094 
Q 2847 2600 2669 2842 
Q 2491 3084 2119 3084 
Q 1678 3084 1418 2786 
Q 1159 2488 1159 1978 
L 1159 0 
L 581 0 
L 581 3500 
L 1159 3500 
L 1159 2956 
Q 1356 3278 1631 3431 
Q 1906 3584 2284 3584 
Q 2666 3584 2933 3390 
Q 3200 3197 3328 2828 
z
" transform="scale(0.015625)"/>
       <path id="DejaVuSans-41" d="M 2188 4044 
L 1331 1722 
L 3047 1722 
L 2188 4044 
z
M 1831 4666 
L 2547 4666 
L 4325 0 
L 3669 0 
L 3244 1197 
L 1141 1197 
L 716 0 
L 50 0 
L 1831 4666 
z
" transform="scale(0.015625)"/>
      </defs>
      <use xlink:href="#DejaVuSans-33"/>
      <use xlink:href="#DejaVuSans-20" x="63.623047"/>
      <use xlink:href="#DejaVuSans-6d" x="95.410156"/>
      <use xlink:href="#DejaVuSans-41" x="192.822266"/>
     </g>
    </g>
   </g>
   <g id="text_2">
    <g clip-path="url(#p69f4a7d72f)">
     <!-- - -->
     <g transform="translate(80.5176 105.509219)scale(0.125 -0.125)">
      <defs>
       <path id="DejaVuSans-2d" d="M 313 2009 
L 1997 2009 
L 1997 1497 
L 313 1497 
L 313 2009 
z
" transform="scale(0.015625)"/>
      </defs>
      <use xlink:href="#DejaVuSans-2d"/>
     </g>
    </g>
   </g>
   <g id="text_3">
    <g clip-path="url(#p69f4a7d72f)">
     <!-- V -->
     <g transform="translate(80.5176 74.909219)scale(0.125 -0.125)">
      <defs>
       <path id="DejaVuSans-56" d="M 1831 0 
L 50 4666 
L 709 4666 
L 2188 738 
L 3669 4666 
L 4325 4666 
L 2547 0 
L 1831 0 
z
" transform="scale(0.015625)"/>
      </defs>
      <use xlink:href="#DejaVuSans-56"/>
     </g>
    </g>
   </g>
   <g id="text_4">
    <g clip-path="url(#p69f4a7d72f)">
     <!-- + -->
     <g transform="translate(80.5176 44.309219)scale(0.125 -0.125)">
      <defs>
       <path id="DejaVuSans-2b" d="M 2944 4013 
L 2944 2272 
L 4684 2272 
L 4684 1741 
L 2944 1741 
L 2944 0 
L 2419 0 
L 2419 1741 
L 678 1741 
L 678 2272 
L 2419 2272 
L 2419 4013 
L 2944 4013 
z
" transform="scale(0.015625)"/>
      </defs>
      <use xlink:href="#DejaVuSans-2b"/>
     </g>
    </g>
   </g>
   <g id="text_5">
    <g clip-path="url(#p69f4a7d72f)">
     <!-- $R_1$ -->
     <g transform="translate(164.6676 67.910586)scale(0.125 -0.125)">
      <defs>
       <path id="STIXGeneral-Italic-52" d="M 845 4179 
L 2458 4179 
Q 3078 4179 3420 3936 
Q 3763 3693 3763 3277 
Q 3763 2778 3341 2458 
Q 3091 2266 2502 2131 
L 3072 627 
Q 3181 333 3299 217 
Q 3418 102 3629 102 
L 3629 0 
L 2688 0 
L 1901 2074 
L 1478 2106 
L 1126 806 
Q 1043 512 1043 403 
Q 1043 256 1126 192 
Q 1210 128 1472 102 
L 1472 0 
L -83 0 
L -83 102 
Q 173 134 278 243 
Q 384 352 461 646 
L 1222 3405 
Q 1299 3699 1299 3808 
Q 1299 3923 1210 3987 
Q 1133 4038 845 4077 
L 845 4179 
z
M 1958 3795 
L 1555 2342 
Q 1754 2310 1882 2310 
Q 2451 2310 2771 2566 
Q 3091 2822 3091 3270 
Q 3091 3603 2892 3795 
Q 2694 3987 2323 3987 
Q 2010 3987 1958 3795 
z
" transform="scale(0.015625)"/>
       <path id="STIXGeneral-Regular-31" d="M 2522 0 
L 755 0 
L 755 96 
Q 1107 115 1235 227 
Q 1363 339 1363 608 
L 1363 3482 
Q 1363 3795 1171 3795 
Q 1082 3795 883 3718 
L 710 3654 
L 710 3744 
L 1856 4326 
L 1914 4307 
L 1914 486 
Q 1914 275 2042 185 
Q 2170 96 2522 96 
L 2522 0 
z
" transform="scale(0.015625)"/>
      </defs>
      <use xlink:href="#STIXGeneral-Italic-52" transform="translate(0 0.703125)"/>
      <use xlink:href="#STIXGeneral-Regular-31" transform="translate(61.099991 -12.525)scale(0.7)"/>
     </g>
    </g>
    <g clip-path="url(#p69f4a7d72f)">
     <!-- $5 k\Omega$ -->
     <g transform="translate(164.6676 81.907852)scale(0.125 -0.125)">
      <defs>
       <path id="STIXGeneral-Regular-35" d="M 2803 4358 
L 2573 3814 
Q 2534 3731 2400 3731 
L 1158 3731 
L 902 3187 
Q 1606 3053 1920 2896 
Q 2234 2739 2502 2368 
Q 2726 2061 2726 1555 
Q 2726 1094 2576 780 
Q 2426 467 2099 224 
Q 1664 -90 1011 -90 
Q 646 -90 422 19 
Q 198 128 198 307 
Q 198 550 486 550 
Q 717 550 960 352 
Q 1210 147 1414 147 
Q 1747 147 2012 480 
Q 2278 813 2278 1229 
Q 2278 1843 1850 2189 
Q 1293 2637 486 2637 
Q 410 2637 410 2688 
L 416 2720 
L 1114 4237 
L 2438 4237 
Q 2547 4237 2608 4269 
Q 2669 4301 2746 4403 
L 2803 4358 
z
" transform="scale(0.015625)"/>
       <path id="STIXGeneral-Italic-6b" d="M 2950 2739 
L 2950 2637 
Q 2720 2624 2464 2448 
Q 2208 2272 1510 1651 
L 1747 1088 
Q 2099 262 2266 262 
Q 2400 262 2554 531 
Q 2586 582 2650 698 
L 2746 627 
Q 2522 224 2374 77 
Q 2227 -70 2035 -70 
Q 1894 -70 1782 42 
Q 1670 154 1517 454 
Q 1325 826 1133 1357 
L 877 1152 
L 570 0 
L 90 0 
L 992 3379 
Q 1082 3699 1107 3942 
Q 1088 4096 781 4096 
L 666 4096 
L 666 4198 
Q 1146 4256 1670 4371 
L 1709 4333 
L 941 1414 
L 1216 1626 
Q 2131 2330 2131 2522 
Q 2131 2637 1894 2637 
L 1805 2637 
L 1805 2739 
L 2950 2739 
z
" transform="scale(0.015625)"/>
       <path id="STIXGeneral-Regular-3a9" d="M 4576 0 
L 2746 0 
L 2790 1030 
Q 3187 1126 3440 1574 
Q 3693 2022 3693 2554 
Q 3693 3251 3344 3673 
Q 2995 4096 2380 4096 
Q 1766 4096 1417 3635 
Q 1069 3174 1069 2554 
Q 1069 2054 1315 1600 
Q 1562 1146 1965 1030 
L 2022 0 
L 186 0 
L 186 1094 
L 346 1094 
Q 352 806 438 707 
Q 525 608 742 608 
L 1709 608 
L 1696 845 
Q 1018 1037 678 1446 
Q 339 1856 339 2541 
Q 339 3238 899 3782 
Q 1459 4326 2380 4326 
Q 3302 4326 3862 3804 
Q 4422 3283 4422 2541 
Q 4422 1235 3046 845 
L 3034 608 
L 4019 608 
Q 4397 608 4416 1082 
L 4576 1082 
L 4576 0 
z
" transform="scale(0.015625)"/>
      </defs>
      <use xlink:href="#STIXGeneral-Regular-35" transform="translate(0 0.203125)"/>
      <use xlink:href="#STIXGeneral-Italic-6b" transform="translate(49.999985 0.203125)"/>
      <use xlink:href="#STIXGeneral-Regular-3a9" transform="translate(94.399979 0.203125)"/>
     </g>
    </g>
   </g>
   <g id="text_6">
    <g clip-path="url(#p69f4a7d72f)">
     <!-- $R_2$ -->
     <g transform="translate(256.4676 67.910586)scale(0.125 -0.125)">
      <defs>
       <path id="STIXGeneral-Regular-32" d="M 3034 877 
L 2688 0 
L 186 0 
L 186 77 
L 1325 1286 
Q 1773 1754 1965 2144 
Q 2157 2534 2157 2950 
Q 2157 3379 1920 3616 
Q 1683 3853 1267 3853 
Q 922 3853 720 3673 
Q 518 3494 326 3021 
L 192 3053 
Q 301 3648 630 3987 
Q 960 4326 1523 4326 
Q 2054 4326 2380 4006 
Q 2707 3686 2707 3200 
Q 2707 2477 1888 1613 
L 832 486 
L 2330 486 
Q 2541 486 2665 569 
Q 2790 653 2944 915 
L 3034 877 
z
" transform="scale(0.015625)"/>
      </defs>
      <use xlink:href="#STIXGeneral-Italic-52" transform="translate(0 0.703125)"/>
      <use xlink:href="#STIXGeneral-Regular-32" transform="translate(61.099991 -12.525)scale(0.7)"/>
     </g>
    </g>
    <g clip-path="url(#p69f4a7d72f)">
     <!-- $10 k\Omega$ -->
     <g transform="translate(256.4676 81.907852)scale(0.125 -0.125)">
      <defs>
       <path id="STIXGeneral-Regular-30" d="M 3046 2112 
Q 3046 1683 2963 1302 
Q 2880 922 2717 602 
Q 2554 282 2266 96 
Q 1978 -90 1600 -90 
Q 1210 -90 915 108 
Q 621 307 461 640 
Q 301 973 227 1350 
Q 154 1728 154 2150 
Q 154 2746 301 3222 
Q 448 3699 790 4012 
Q 1133 4326 1626 4326 
Q 2253 4326 2649 3712 
Q 3046 3098 3046 2112 
z
M 2432 2080 
Q 2432 3091 2217 3625 
Q 2003 4160 1587 4160 
Q 1190 4160 979 3622 
Q 768 3085 768 2106 
Q 768 1120 979 598 
Q 1190 77 1600 77 
Q 2003 77 2217 598 
Q 2432 1120 2432 2080 
z
" transform="scale(0.015625)"/>
      </defs>
      <use xlink:href="#STIXGeneral-Regular-31" transform="translate(0 0.703125)"/>
      <use xlink:href="#STIXGeneral-Regular-30" transform="translate(49.999985 0.703125)"/>
      <use xlink:href="#STIXGeneral-Italic-6b" transform="translate(99.999969 0.703125)"/>
      <use xlink:href="#STIXGeneral-Regular-3a9" transform="translate(144.399963 0.703125)"/>
     </g>
    </g>
   </g>
   <g id="text_7">
    <g clip-path="url(#p69f4a7d72f)">
     <!-- $I_S$ -->
     <g transform="translate(34.6726 67.910586)scale(0.125 -0.125)">
      <use xlink:href="#STIXGeneral-Italic-49" transform="translate(0 0.703125)"/>
      <use xlink:href="#STIXGeneral-Italic-53" transform="translate(33.299988 -12.525)scale(0.7)"/>
     </g>
    </g>
    <g clip-path="url(#p69f4a7d72f)">
     <!-- 3 mA -->
     <g transform="translate(11.145256 81.907852)scale(0.125 -0.125)">
      <use xlink:href="#DejaVuSans-33"/>
      <use xlink:href="#DejaVuSans-20" x="63.623047"/>
      <use xlink:href="#DejaVuSans-6d" x="95.410156"/>
      <use xlink:href="#DejaVuSans-41" x="192.822266"/>
     </g>
    </g>
   </g>
   <g id="text_8">
    <g clip-path="url(#p69f4a7d72f)">
     <!-- - -->
     <g transform="translate(80.5176 105.509219)scale(0.125 -0.125)">
      <use xlink:href="#DejaVuSans-2d"/>
     </g>
    </g>
   </g>
   <g id="text_9">
    <g clip-path="url(#p69f4a7d72f)">
     <!-- V -->
     <g transform="translate(80.5176 74.909219)scale(0.125 -0.125)">
      <use xlink:href="#DejaVuSans-56"/>
     </g>
    </g>
   </g>
   <g id="text_10">
    <g clip-path="url(#p69f4a7d72f)">
     <!-- + -->
     <g transform="translate(80.5176 44.309219)scale(0.125 -0.125)">
      <use xlink:href="#DejaVuSans-2b"/>
     </g>
    </g>
   </g>
   <g id="text_11">
    <g clip-path="url(#p69f4a7d72f)">
     <!-- $R_1$ -->
     <g transform="translate(164.6676 67.910586)scale(0.125 -0.125)">
      <use xlink:href="#STIXGeneral-Italic-52" transform="translate(0 0.703125)"/>
      <use xlink:href="#STIXGeneral-Regular-31" transform="translate(61.099991 -12.525)scale(0.7)"/>
     </g>
    </g>
    <g clip-path="url(#p69f4a7d72f)">
     <!-- $5 k\Omega$ -->
     <g transform="translate(164.6676 81.907852)scale(0.125 -0.125)">
      <use xlink:href="#STIXGeneral-Regular-35" transform="translate(0 0.203125)"/>
      <use xlink:href="#STIXGeneral-Italic-6b" transform="translate(49.999985 0.203125)"/>
      <use xlink:href="#STIXGeneral-Regular-3a9" transform="translate(94.399979 0.203125)"/>
     </g>
    </g>
   </g>
   <g id="text_12">
    <g clip-path="url(#p69f4a7d72f)">
     <!-- $R_2$ -->
     <g transform="translate(256.4676 67.910586)scale(0.125 -0.125)">
      <use xlink:href="#STIXGeneral-Italic-52" transform="translate(0 0.703125)"/>
      <use xlink:href="#STIXGeneral-Regular-32" transform="translate(61.099991 -12.525)scale(0.7)"/>
     </g>
    </g>
    <g clip-path="url(#p69f4a7d72f)">
     <!-- $10 k\Omega$ -->
     <g transform="translate(256.4676 81.907852)scale(0.125 -0.125)">
      <use xlink:href="#STIXGeneral-Regular-31" transform="translate(0 0.703125)"/>
      <use xlink:href="#STIXGeneral-Regular-30" transform="translate(49.999985 0.703125)"/>
      <use xlink:href="#STIXGeneral-Italic-6b" transform="translate(99.999969 0.703125)"/>
      <use xlink:href="#STIXGeneral-Regular-3a9" transform="translate(144.399963 0.703125)"/>
     </g>
    </g>
   </g>
   <g id="line2d_17">
    <path d="M 153.9576 99 
L 153.9576 99 
" clip-path="url(#p69f4a7d72f)" style="fill: none; stroke: #000000; stroke-width: 2; stroke-linecap: round"/>
   </g>
   <g id="patch_6">
    <path d="M 158.5476 99 
L 153.9576 108.18 
L 149.3676 99 
z
" clip-path="url(#p69f4a7d72f)"/>
   </g>
   <g id="text_13">
    <g clip-path="url(#p69f4a7d72f)">
     <!-- $I_{R_1}$ -->
     <g transform="translate(131.1526 106.763828)scale(0.125 -0.125)">
      <use xlink:href="#STIXGeneral-Italic-49" transform="translate(0 0.703125)"/>
      <use xlink:href="#STIXGeneral-Italic-52" transform="translate(33.299988 -12.525)scale(0.7)"/>
      <use xlink:href="#STIXGeneral-Regular-31" transform="translate(76.069981 -21.784688)scale(0.49)"/>
     </g>
    </g>
   </g>
   <g id="line2d_18">
    <path d="M 245.7576 99 
L 245.7576 99 
" clip-path="url(#p69f4a7d72f)" style="fill: none; stroke: #000000; stroke-width: 2; stroke-linecap: round"/>
   </g>
   <g id="patch_7">
    <path d="M 250.3476 99 
L 245.7576 108.18 
L 241.1676 99 
z
" clip-path="url(#p69f4a7d72f)"/>
   </g>
   <g id="text_14">
    <g clip-path="url(#p69f4a7d72f)">
     <!-- $I_{R_2}$ -->
     <g transform="translate(222.9526 106.763828)scale(0.125 -0.125)">
      <use xlink:href="#STIXGeneral-Italic-49" transform="translate(0 0.703125)"/>
      <use xlink:href="#STIXGeneral-Italic-52" transform="translate(33.299988 -12.525)scale(0.7)"/>
      <use xlink:href="#STIXGeneral-Regular-32" transform="translate(76.069981 -21.784688)scale(0.49)"/>
     </g>
    </g>
   </g>
   <g id="line2d_19">
    <path d="M 153.9576 99 
L 153.9576 99 
" clip-path="url(#p69f4a7d72f)" style="fill: none; stroke: #000000; stroke-width: 2; stroke-linecap: round"/>
   </g>
   <g id="patch_8">
    <path d="M 158.5476 99 
L 153.9576 108.18 
L 149.3676 99 
z
" clip-path="url(#p69f4a7d72f)"/>
   </g>
   <g id="text_15">
    <g clip-path="url(#p69f4a7d72f)">
     <!-- $I_{R_1}$ -->
     <g transform="translate(131.1526 106.763828)scale(0.125 -0.125)">
      <use xlink:href="#STIXGeneral-Italic-49" transform="translate(0 0.703125)"/>
      <use xlink:href="#STIXGeneral-Italic-52" transform="translate(33.299988 -12.525)scale(0.7)"/>
      <use xlink:href="#STIXGeneral-Regular-31" transform="translate(76.069981 -21.784688)scale(0.49)"/>
     </g>
    </g>
   </g>
   <g id="line2d_20">
    <path d="M 245.7576 99 
L 245.7576 99 
" clip-path="url(#p69f4a7d72f)" style="fill: none; stroke: #000000; stroke-width: 2; stroke-linecap: round"/>
   </g>
   <g id="patch_9">
    <path d="M 250.3476 99 
L 245.7576 108.18 
L 241.1676 99 
z
" clip-path="url(#p69f4a7d72f)"/>
   </g>
   <g id="text_16">
    <g clip-path="url(#p69f4a7d72f)">
     <!-- $I_{R_2}$ -->
     <g transform="translate(222.9526 106.763828)scale(0.125 -0.125)">
      <use xlink:href="#STIXGeneral-Italic-49" transform="translate(0 0.703125)"/>
      <use xlink:href="#STIXGeneral-Italic-52" transform="translate(33.299988 -12.525)scale(0.7)"/>
      <use xlink:href="#STIXGeneral-Regular-32" transform="translate(76.069981 -21.784688)scale(0.49)"/>
     </g>
    </g>
   </g>
  </g>
 </g>
 <defs>
  <clipPath id="p69f4a7d72f">
   <rect x="7.2" y="7.2" width="296.8404" height="128.52"/>
  </clipPath>
 </defs>
</svg>
