<?xml version="1.0" encoding="utf-8" standalone="no"?>
<!DOCTYPE svg PUBLIC "-//W3C//DTD SVG 1.1//EN"
  "http://www.w3.org/Graphics/SVG/1.1/DTD/svg11.dtd">
<svg xmlns:xlink="http://www.w3.org/1999/xlink" width="259.8834pt" height="112.32pt" viewBox="0 0 259.8834 112.32" xmlns="http://www.w3.org/2000/svg" version="1.1">
 <metadata>
  <rdf:RDF xmlns:dc="http://purl.org/dc/elements/1.1/" xmlns:cc="http://creativecommons.org/ns#" xmlns:rdf="http://www.w3.org/1999/02/22-rdf-syntax-ns#">
   <cc:Work>
    <dc:type rdf:resource="http://purl.org/dc/dcmitype/StillImage"/>
    <dc:date>2023-10-21T16:48:25.418695</dc:date>
    <dc:format>image/svg+xml</dc:format>
    <dc:creator>
     <cc:Agent>
      <dc:title>Matplotlib v3.5.2, https://matplotlib.org/</dc:title>
     </cc:Agent>
    </dc:creator>
   </cc:Work>
  </rdf:RDF>
 </metadata>
 <defs>
  <style type="text/css">*{stroke-linejoin: round; stroke-linecap: butt}</style>
 </defs>
 <g id="figure_1">
  <g id="patch_1">
   <path d="M 0 112.32 
L 259.8834 112.32 
L 259.8834 0 
L 0 0 
L 0 112.32 
z
" style="fill: none"/>
  </g>
  <g id="axes_1">
   <g id="patch_2">
    <path d="M 58.3734 71.46 
C 62.431007 71.46 66.322972 69.847895 69.192134 66.978734 
C 72.061295 64.109572 73.6734 60.217607 73.6734 56.16 
C 73.6734 52.102393 72.061295 48.210428 69.192134 45.341266 
C 66.322972 42.472105 62.431007 40.86 58.3734 40.86 
C 54.315793 40.86 50.423828 42.472105 47.554666 45.341266 
C 44.685505 48.210428 43.0734 52.102393 43.0734 56.16 
C 43.0734 60.217607 44.685505 64.109572 47.554666 66.978734 
C 50.423828 69.847895 54.315793 71.46 58.3734 71.46 
L 58.3734 71.46 
z
" clip-path="url(#p7d3837b89a)" style="fill: none; stroke: #000000; stroke-width: 2; stroke-linejoin: miter"/>
   </g>
   <g id="patch_3">
    <path d="M 58.3734 71.46 
C 62.431007 71.46 66.322972 69.847895 69.192134 66.978734 
C 72.061295 64.109572 73.6734 60.217607 73.6734 56.16 
C 73.6734 52.102393 72.061295 48.210428 69.192134 45.341266 
C 66.322972 42.472105 62.431007 40.86 58.3734 40.86 
C 54.315793 40.86 50.423828 42.472105 47.554666 45.341266 
C 44.685505 48.210428 43.0734 52.102393 43.0734 56.16 
C 43.0734 60.217607 44.685505 64.109572 47.554666 66.978734 
C 50.423828 69.847895 54.315793 71.46 58.3734 71.46 
L 58.3734 71.46 
z
" clip-path="url(#p7d3837b89a)" style="fill: none; stroke: #000000; stroke-width: 2; stroke-linejoin: miter"/>
   </g>
   <g id="line2d_1">
    <path d="M 58.3734 102.06 
L 58.3734 71.46 
L 58.3734 71.46 
M 58.3734 40.86 
L 58.3734 40.86 
L 58.3734 10.26 
" clip-path="url(#p7d3837b89a)" style="fill: none; stroke: #000000; stroke-width: 2; stroke-linecap: round"/>
   </g>
   <g id="line2d_2">
    <path d="M 58.3734 63.81 
L 58.3734 56.16 
" clip-path="url(#p7d3837b89a)" style="fill: none; stroke: #000000; stroke-width: 2; stroke-linecap: round"/>
   </g>
   <g id="patch_4">
    <path d="M 56.0784 56.16 
L 58.3734 48.51 
L 60.6684 56.16 
z
" clip-path="url(#p7d3837b89a)"/>
   </g>
   <g id="line2d_3">
    <path d="M 58.3734 10.26 
L 104.2734 10.26 
L 150.1734 10.26 
" clip-path="url(#p7d3837b89a)" style="fill: none; stroke: #000000; stroke-width: 2; stroke-linecap: round"/>
   </g>
   <g id="line2d_4">
    <path d="M 150.1734 10.26 
L 196.0734 10.26 
L 241.9734 10.26 
" clip-path="url(#p7d3837b89a)" style="fill: none; stroke: #000000; stroke-width: 2; stroke-linecap: round"/>
   </g>
   <g id="line2d_5">
    <path d="M 241.9734 10.26 
L 241.9734 53.406 
M 249.6234 53.406 
L 234.3234 53.406 
M 249.6234 58.914 
L 234.3234 58.914 
M 241.9734 58.914 
L 241.9734 102.06 
" clip-path="url(#p7d3837b89a)" style="fill: none; stroke: #000000; stroke-width: 2; stroke-linecap: round"/>
   </g>
   <g id="line2d_6">
    <path d="M 241.9734 102.06 
L 150.1734 102.06 
L 58.3734 102.06 
" clip-path="url(#p7d3837b89a)" style="fill: none; stroke: #000000; stroke-width: 2; stroke-linecap: round"/>
   </g>
   <g id="line2d_7">
    <path d="M 150.1734 10.26 
L 150.1734 40.86 
L 157.8234 43.41 
L 142.5234 48.51 
L 157.8234 53.61 
L 142.5234 58.71 
L 157.8234 63.81 
L 142.5234 68.91 
L 150.1734 71.46 
L 150.1734 102.06 
" clip-path="url(#p7d3837b89a)" style="fill: none; stroke: #000000; stroke-width: 2; stroke-linecap: round"/>
   </g>
   <g id="line2d_8">
    <path d="M 58.3734 102.06 
L 58.3734 71.46 
L 58.3734 71.46 
M 58.3734 40.86 
L 58.3734 40.86 
L 58.3734 10.26 
" clip-path="url(#p7d3837b89a)" style="fill: none; stroke: #000000; stroke-width: 2; stroke-linecap: round"/>
   </g>
   <g id="line2d_9">
    <path d="M 58.3734 63.81 
L 58.3734 56.16 
" clip-path="url(#p7d3837b89a)" style="fill: none; stroke: #000000; stroke-width: 2; stroke-linecap: round"/>
   </g>
   <g id="patch_5">
    <path d="M 56.0784 56.16 
L 58.3734 48.51 
L 60.6684 56.16 
z
" clip-path="url(#p7d3837b89a)"/>
   </g>
   <g id="line2d_10">
    <path d="M 58.3734 10.26 
L 104.2734 10.26 
L 150.1734 10.26 
" clip-path="url(#p7d3837b89a)" style="fill: none; stroke: #000000; stroke-width: 2; stroke-linecap: round"/>
   </g>
   <g id="line2d_11">
    <path d="M 150.1734 10.26 
L 196.0734 10.26 
L 241.9734 10.26 
" clip-path="url(#p7d3837b89a)" style="fill: none; stroke: #000000; stroke-width: 2; stroke-linecap: round"/>
   </g>
   <g id="line2d_12">
    <path d="M 241.9734 10.26 
L 241.9734 53.406 
M 249.6234 53.406 
L 234.3234 53.406 
M 249.6234 58.914 
L 234.3234 58.914 
M 241.9734 58.914 
L 241.9734 102.06 
" clip-path="url(#p7d3837b89a)" style="fill: none; stroke: #000000; stroke-width: 2; stroke-linecap: round"/>
   </g>
   <g id="line2d_13">
    <path d="M 241.9734 102.06 
L 150.1734 102.06 
L 58.3734 102.06 
" clip-path="url(#p7d3837b89a)" style="fill: none; stroke: #000000; stroke-width: 2; stroke-linecap: round"/>
   </g>
   <g id="line2d_14">
    <path d="M 150.1734 10.26 
L 150.1734 40.86 
L 157.8234 43.41 
L 142.5234 48.51 
L 157.8234 53.61 
L 142.5234 58.71 
L 157.8234 63.81 
L 142.5234 68.91 
L 150.1734 71.46 
L 150.1734 102.06 
" clip-path="url(#p7d3837b89a)" style="fill: none; stroke: #000000; stroke-width: 2; stroke-linecap: round"/>
   </g>
   <g id="text_1">
    <g clip-path="url(#p7d3837b89a)">
     <!-- $i_I(t)$ -->
     <g transform="translate(21.2634 59.609219)scale(0.125 -0.125)">
      <defs>
       <path id="STIXGeneral-Italic-69" d="M 1690 3834 
Q 1690 3699 1597 3603 
Q 1504 3507 1376 3507 
Q 1235 3507 1152 3600 
Q 1069 3693 1069 3846 
Q 1069 3994 1155 4090 
Q 1242 4186 1370 4186 
Q 1498 4186 1594 4080 
Q 1690 3974 1690 3834 
z
M 1421 730 
L 1504 659 
Q 1235 243 1049 86 
Q 864 -70 627 -70 
Q 314 -70 314 282 
Q 314 467 454 992 
L 762 2125 
Q 819 2330 819 2406 
Q 819 2502 745 2528 
Q 672 2554 410 2560 
L 410 2662 
Q 704 2688 1434 2822 
L 1459 2803 
L 858 608 
Q 794 390 794 326 
Q 794 230 883 230 
Q 1043 230 1421 730 
z
" transform="scale(0.015625)"/>
       <path id="STIXGeneral-Italic-49" d="M 2458 4179 
L 2458 4077 
Q 2189 4045 2102 3961 
Q 2016 3878 1933 3584 
L 1165 838 
Q 1069 499 1069 352 
Q 1069 224 1149 179 
Q 1229 134 1510 102 
L 1510 0 
L -51 0 
L -51 102 
Q 218 154 317 237 
Q 416 320 486 582 
L 1254 3405 
Q 1338 3699 1338 3802 
Q 1338 3930 1235 3997 
Q 1133 4064 877 4077 
L 877 4179 
L 2458 4179 
z
" transform="scale(0.015625)"/>
       <path id="STIXGeneral-Regular-28" d="M 1946 -1030 
L 1869 -1133 
Q 1126 -710 716 32 
Q 307 774 307 1613 
Q 307 3386 1888 4326 
L 1946 4224 
Q 1293 3667 1075 3126 
Q 858 2586 858 1632 
Q 858 685 1082 96 
Q 1306 -493 1946 -1030 
z
" transform="scale(0.015625)"/>
       <path id="STIXGeneral-Italic-74" d="M 1894 2739 
L 1862 2534 
L 1325 2534 
L 768 435 
Q 755 384 755 346 
Q 755 243 851 243 
Q 928 243 1030 342 
Q 1133 442 1370 749 
L 1453 704 
Q 1158 256 969 93 
Q 781 -70 538 -70 
Q 243 -70 243 166 
Q 243 230 346 640 
L 845 2534 
L 365 2534 
L 358 2573 
Q 358 2688 570 2733 
Q 730 2771 992 2979 
Q 1254 3187 1421 3437 
Q 1459 3494 1510 3494 
Q 1568 3494 1568 3443 
Q 1568 3411 1562 3398 
L 1382 2739 
L 1894 2739 
z
" transform="scale(0.015625)"/>
       <path id="STIXGeneral-Regular-29" d="M 186 4224 
L 262 4326 
Q 992 3891 1408 3148 
Q 1824 2406 1824 1581 
Q 1824 -166 243 -1133 
L 186 -1030 
Q 845 -486 1059 54 
Q 1274 595 1274 1562 
Q 1274 2534 1059 3120 
Q 845 3706 186 4224 
z
" transform="scale(0.015625)"/>
      </defs>
      <use xlink:href="#STIXGeneral-Italic-69" transform="translate(0 0.40625)"/>
      <use xlink:href="#STIXGeneral-Italic-49" transform="translate(27.799988 -12.821875)scale(0.7)"/>
      <use xlink:href="#STIXGeneral-Regular-28" transform="translate(55.519354 0.40625)"/>
      <use xlink:href="#STIXGeneral-Italic-74" transform="translate(88.819342 0.40625)"/>
      <use xlink:href="#STIXGeneral-Regular-29" transform="translate(116.61933 0.40625)"/>
     </g>
    </g>
   </g>
   <g id="text_2">
    <g clip-path="url(#p7d3837b89a)">
     <!-- $C$ -->
     <g transform="translate(222.8884 52.597891)scale(0.125 -0.125)">
      <defs>
       <path id="STIXGeneral-Italic-43" d="M 4410 4250 
L 4173 2970 
L 4058 2989 
Q 3942 4032 3104 4032 
Q 2406 4032 1830 3411 
Q 1491 3053 1315 2541 
Q 1139 2029 1139 1485 
Q 1139 173 2259 173 
Q 2656 173 2985 339 
Q 3315 506 3725 934 
L 3840 838 
Q 3411 333 2998 109 
Q 2586 -115 2093 -115 
Q 1344 -115 883 329 
Q 422 774 422 1555 
Q 422 2214 748 2812 
Q 1075 3411 1619 3795 
Q 2272 4262 3021 4262 
Q 3462 4262 3770 4154 
Q 3898 4109 4032 4109 
Q 4205 4109 4275 4250 
L 4410 4250 
z
" transform="scale(0.015625)"/>
      </defs>
      <use xlink:href="#STIXGeneral-Italic-43" transform="translate(0 0.40625)"/>
     </g>
    </g>
    <g clip-path="url(#p7d3837b89a)">
     <!-- $1 \mu F$ -->
     <g transform="translate(210.7634 66.595156)scale(0.125 -0.125)">
      <defs>
       <path id="STIXGeneral-Regular-31" d="M 2522 0 
L 755 0 
L 755 96 
Q 1107 115 1235 227 
Q 1363 339 1363 608 
L 1363 3482 
Q 1363 3795 1171 3795 
Q 1082 3795 883 3718 
L 710 3654 
L 710 3744 
L 1856 4326 
L 1914 4307 
L 1914 486 
Q 1914 275 2042 185 
Q 2170 96 2522 96 
L 2522 0 
z
" transform="scale(0.015625)"/>
       <path id="STIXGeneral-Italic-3bc" d="M 3002 749 
L 3091 691 
Q 2797 237 2614 83 
Q 2432 -70 2214 -70 
Q 2080 -70 1990 6 
Q 1901 83 1901 218 
Q 1901 416 1997 704 
L 2208 1370 
L 2202 1370 
Q 1766 595 1475 268 
Q 1184 -58 902 -58 
Q 723 -58 672 122 
Q 614 -109 547 -374 
Q 480 -640 451 -758 
Q 422 -877 384 -1005 
Q 346 -1133 314 -1197 
Q 282 -1261 243 -1312 
L -211 -1312 
Q -58 -1088 70 -595 
L 909 2739 
L 1389 2739 
L 909 832 
Q 883 717 883 659 
Q 883 352 1139 352 
Q 1395 352 1811 969 
Q 2227 1587 2323 1958 
L 2534 2739 
L 3027 2739 
L 2522 819 
Q 2400 333 2400 326 
Q 2400 230 2470 230 
Q 2547 230 2652 329 
Q 2758 429 3002 749 
z
" transform="scale(0.015625)"/>
       <path id="STIXGeneral-Italic-46" d="M 4128 4179 
L 3923 3194 
L 3789 3206 
Q 3808 3347 3808 3418 
Q 3808 3667 3718 3772 
Q 3629 3878 3373 3923 
Q 3117 3968 2534 3968 
Q 2310 3968 2220 3926 
Q 2131 3885 2099 3763 
L 1690 2310 
Q 2003 2317 2147 2317 
Q 2291 2317 2457 2345 
Q 2624 2374 2678 2396 
Q 2733 2419 2822 2505 
Q 2912 2592 2950 2665 
Q 2989 2739 3072 2912 
L 3187 2880 
L 2701 1376 
L 2592 1408 
Q 2643 1670 2643 1798 
Q 2643 1978 2531 2029 
Q 2419 2080 2163 2080 
Q 1984 2080 1632 2099 
L 1254 736 
Q 1165 416 1165 352 
Q 1165 237 1273 179 
Q 1382 122 1658 102 
L 1658 0 
L 51 0 
L 51 102 
Q 314 122 410 224 
Q 506 326 582 602 
L 1370 3430 
Q 1434 3661 1434 3821 
Q 1434 3955 1347 4003 
Q 1261 4051 947 4077 
L 947 4179 
L 4128 4179 
z
" transform="scale(0.015625)"/>
      </defs>
      <use xlink:href="#STIXGeneral-Regular-31" transform="translate(0 0.40625)"/>
      <use xlink:href="#STIXGeneral-Italic-3bc" transform="translate(49.999985 0.40625)"/>
      <use xlink:href="#STIXGeneral-Italic-46" transform="translate(102.599976 0.40625)"/>
     </g>
    </g>
   </g>
   <g id="text_3">
    <g clip-path="url(#p7d3837b89a)">
     <!-- $R$ -->
     <g transform="translate(131.7134 52.610586)scale(0.125 -0.125)">
      <defs>
       <path id="STIXGeneral-Italic-52" d="M 845 4179 
L 2458 4179 
Q 3078 4179 3420 3936 
Q 3763 3693 3763 3277 
Q 3763 2778 3341 2458 
Q 3091 2266 2502 2131 
L 3072 627 
Q 3181 333 3299 217 
Q 3418 102 3629 102 
L 3629 0 
L 2688 0 
L 1901 2074 
L 1478 2106 
L 1126 806 
Q 1043 512 1043 403 
Q 1043 256 1126 192 
Q 1210 128 1472 102 
L 1472 0 
L -83 0 
L -83 102 
Q 173 134 278 243 
Q 384 352 461 646 
L 1222 3405 
Q 1299 3699 1299 3808 
Q 1299 3923 1210 3987 
Q 1133 4038 845 4077 
L 845 4179 
z
M 1958 3795 
L 1555 2342 
Q 1754 2310 1882 2310 
Q 2451 2310 2771 2566 
Q 3091 2822 3091 3270 
Q 3091 3603 2892 3795 
Q 2694 3987 2323 3987 
Q 2010 3987 1958 3795 
z
" transform="scale(0.015625)"/>
      </defs>
      <use xlink:href="#STIXGeneral-Italic-52" transform="translate(0 0.703125)"/>
     </g>
    </g>
    <g clip-path="url(#p7d3837b89a)">
     <!-- $500 \Omega$ -->
     <g transform="translate(111.3384 66.607852)scale(0.125 -0.125)">
      <defs>
       <path id="STIXGeneral-Regular-35" d="M 2803 4358 
L 2573 3814 
Q 2534 3731 2400 3731 
L 1158 3731 
L 902 3187 
Q 1606 3053 1920 2896 
Q 2234 2739 2502 2368 
Q 2726 2061 2726 1555 
Q 2726 1094 2576 780 
Q 2426 467 2099 224 
Q 1664 -90 1011 -90 
Q 646 -90 422 19 
Q 198 128 198 307 
Q 198 550 486 550 
Q 717 550 960 352 
Q 1210 147 1414 147 
Q 1747 147 2012 480 
Q 2278 813 2278 1229 
Q 2278 1843 1850 2189 
Q 1293 2637 486 2637 
Q 410 2637 410 2688 
L 416 2720 
L 1114 4237 
L 2438 4237 
Q 2547 4237 2608 4269 
Q 2669 4301 2746 4403 
L 2803 4358 
z
" transform="scale(0.015625)"/>
       <path id="STIXGeneral-Regular-30" d="M 3046 2112 
Q 3046 1683 2963 1302 
Q 2880 922 2717 602 
Q 2554 282 2266 96 
Q 1978 -90 1600 -90 
Q 1210 -90 915 108 
Q 621 307 461 640 
Q 301 973 227 1350 
Q 154 1728 154 2150 
Q 154 2746 301 3222 
Q 448 3699 790 4012 
Q 1133 4326 1626 4326 
Q 2253 4326 2649 3712 
Q 3046 3098 3046 2112 
z
M 2432 2080 
Q 2432 3091 2217 3625 
Q 2003 4160 1587 4160 
Q 1190 4160 979 3622 
Q 768 3085 768 2106 
Q 768 1120 979 598 
Q 1190 77 1600 77 
Q 2003 77 2217 598 
Q 2432 1120 2432 2080 
z
" transform="scale(0.015625)"/>
       <path id="STIXGeneral-Regular-3a9" d="M 4576 0 
L 2746 0 
L 2790 1030 
Q 3187 1126 3440 1574 
Q 3693 2022 3693 2554 
Q 3693 3251 3344 3673 
Q 2995 4096 2380 4096 
Q 1766 4096 1417 3635 
Q 1069 3174 1069 2554 
Q 1069 2054 1315 1600 
Q 1562 1146 1965 1030 
L 2022 0 
L 186 0 
L 186 1094 
L 346 1094 
Q 352 806 438 707 
Q 525 608 742 608 
L 1709 608 
L 1696 845 
Q 1018 1037 678 1446 
Q 339 1856 339 2541 
Q 339 3238 899 3782 
Q 1459 4326 2380 4326 
Q 3302 4326 3862 3804 
Q 4422 3283 4422 2541 
Q 4422 1235 3046 845 
L 3034 608 
L 4019 608 
Q 4397 608 4416 1082 
L 4576 1082 
L 4576 0 
z
" transform="scale(0.015625)"/>
      </defs>
      <use xlink:href="#STIXGeneral-Regular-35" transform="translate(0 0.203125)"/>
      <use xlink:href="#STIXGeneral-Regular-30" transform="translate(49.999985 0.203125)"/>
      <use xlink:href="#STIXGeneral-Regular-30" transform="translate(99.999969 0.203125)"/>
      <use xlink:href="#STIXGeneral-Regular-3a9" transform="translate(149.999954 0.203125)"/>
     </g>
    </g>
   </g>
   <g id="text_4">
    <g clip-path="url(#p7d3837b89a)">
     <!-- $i_I(t)$ -->
     <g transform="translate(21.2634 59.609219)scale(0.125 -0.125)">
      <use xlink:href="#STIXGeneral-Italic-69" transform="translate(0 0.40625)"/>
      <use xlink:href="#STIXGeneral-Italic-49" transform="translate(27.799988 -12.821875)scale(0.7)"/>
      <use xlink:href="#STIXGeneral-Regular-28" transform="translate(55.519354 0.40625)"/>
      <use xlink:href="#STIXGeneral-Italic-74" transform="translate(88.819342 0.40625)"/>
      <use xlink:href="#STIXGeneral-Regular-29" transform="translate(116.61933 0.40625)"/>
     </g>
    </g>
   </g>
   <g id="text_5">
    <g clip-path="url(#p7d3837b89a)">
     <!-- $C$ -->
     <g transform="translate(222.8884 52.597891)scale(0.125 -0.125)">
      <use xlink:href="#STIXGeneral-Italic-43" transform="translate(0 0.40625)"/>
     </g>
    </g>
    <g clip-path="url(#p7d3837b89a)">
     <!-- $1 \mu F$ -->
     <g transform="translate(210.7634 66.595156)scale(0.125 -0.125)">
      <use xlink:href="#STIXGeneral-Regular-31" transform="translate(0 0.40625)"/>
      <use xlink:href="#STIXGeneral-Italic-3bc" transform="translate(49.999985 0.40625)"/>
      <use xlink:href="#STIXGeneral-Italic-46" transform="translate(102.599976 0.40625)"/>
     </g>
    </g>
   </g>
   <g id="text_6">
    <g clip-path="url(#p7d3837b89a)">
     <!-- $R$ -->
     <g transform="translate(131.7134 52.610586)scale(0.125 -0.125)">
      <use xlink:href="#STIXGeneral-Italic-52" transform="translate(0 0.703125)"/>
     </g>
    </g>
    <g clip-path="url(#p7d3837b89a)">
     <!-- $500 \Omega$ -->
     <g transform="translate(111.3384 66.607852)scale(0.125 -0.125)">
      <use xlink:href="#STIXGeneral-Regular-35" transform="translate(0 0.203125)"/>
      <use xlink:href="#STIXGeneral-Regular-30" transform="translate(49.999985 0.203125)"/>
      <use xlink:href="#STIXGeneral-Regular-30" transform="translate(99.999969 0.203125)"/>
      <use xlink:href="#STIXGeneral-Regular-3a9" transform="translate(149.999954 0.203125)"/>
     </g>
    </g>
   </g>
   <g id="line2d_15">
    <path d="M 241.9734 83.7 
L 241.9734 83.7 
" clip-path="url(#p7d3837b89a)" style="fill: none; stroke: #000000; stroke-width: 2; stroke-linecap: round"/>
   </g>
   <g id="patch_6">
    <path d="M 246.5634 83.7 
L 241.9734 92.88 
L 237.3834 83.7 
z
" clip-path="url(#p7d3837b89a)"/>
   </g>
   <g id="text_7">
    <g clip-path="url(#p7d3837b89a)">
     <!-- $i_O(t)$ -->
     <g transform="translate(210.5434 91.739219)scale(0.125 -0.125)">
      <defs>
       <path id="STIXGeneral-Italic-4f" d="M 4474 2675 
Q 4474 1990 4106 1363 
Q 3738 736 3149 339 
Q 2477 -115 1779 -115 
Q 1146 -115 765 281 
Q 384 678 384 1382 
Q 384 1965 697 2582 
Q 1011 3200 1517 3642 
Q 2234 4262 3034 4262 
Q 3718 4269 4096 3840 
Q 4474 3411 4474 2675 
z
M 3802 3078 
Q 3802 3533 3581 3792 
Q 3360 4051 2976 4051 
Q 2342 4051 1786 3302 
Q 1446 2842 1251 2259 
Q 1056 1677 1056 1178 
Q 1056 653 1270 374 
Q 1485 96 1888 96 
Q 2477 96 2976 704 
Q 3354 1178 3578 1862 
Q 3802 2547 3802 3078 
z
" transform="scale(0.015625)"/>
      </defs>
      <use xlink:href="#STIXGeneral-Italic-69" transform="translate(0 0.40625)"/>
      <use xlink:href="#STIXGeneral-Italic-4f" transform="translate(27.799988 -12.821875)scale(0.7)"/>
      <use xlink:href="#STIXGeneral-Regular-28" transform="translate(82.74935 0.40625)"/>
      <use xlink:href="#STIXGeneral-Italic-74" transform="translate(116.049338 0.40625)"/>
      <use xlink:href="#STIXGeneral-Regular-29" transform="translate(143.849326 0.40625)"/>
     </g>
    </g>
   </g>
   <g id="line2d_16">
    <path d="M 241.9734 83.7 
L 241.9734 83.7 
" clip-path="url(#p7d3837b89a)" style="fill: none; stroke: #000000; stroke-width: 2; stroke-linecap: round"/>
   </g>
   <g id="patch_7">
    <path d="M 246.5634 83.7 
L 241.9734 92.88 
L 237.3834 83.7 
z
" clip-path="url(#p7d3837b89a)"/>
   </g>
   <g id="text_8">
    <g clip-path="url(#p7d3837b89a)">
     <!-- $i_O(t)$ -->
     <g transform="translate(210.5434 91.739219)scale(0.125 -0.125)">
      <use xlink:href="#STIXGeneral-Italic-69" transform="translate(0 0.40625)"/>
      <use xlink:href="#STIXGeneral-Italic-4f" transform="translate(27.799988 -12.821875)scale(0.7)"/>
      <use xlink:href="#STIXGeneral-Regular-28" transform="translate(82.74935 0.40625)"/>
      <use xlink:href="#STIXGeneral-Italic-74" transform="translate(116.049338 0.40625)"/>
      <use xlink:href="#STIXGeneral-Regular-29" transform="translate(143.849326 0.40625)"/>
     </g>
    </g>
   </g>
  </g>
 </g>
 <defs>
  <clipPath id="p7d3837b89a">
   <rect x="7.2" y="7.2" width="245.4834" height="97.92"/>
  </clipPath>
 </defs>
</svg>
