<?xml version="1.0" encoding="utf-8" standalone="no"?>
<!DOCTYPE svg PUBLIC "-//W3C//DTD SVG 1.1//EN"
  "http://www.w3.org/Graphics/SVG/1.1/DTD/svg11.dtd">
<svg xmlns:xlink="http://www.w3.org/1999/xlink" width="230.4768pt" height="232.987264pt" viewBox="0 0 230.4768 232.987264" xmlns="http://www.w3.org/2000/svg" version="1.1">
 <metadata>
  <rdf:RDF xmlns:dc="http://purl.org/dc/elements/1.1/" xmlns:cc="http://creativecommons.org/ns#" xmlns:rdf="http://www.w3.org/1999/02/22-rdf-syntax-ns#">
   <cc:Work>
    <dc:type rdf:resource="http://purl.org/dc/dcmitype/StillImage"/>
    <dc:date>2023-02-10T14:55:17.203395</dc:date>
    <dc:format>image/svg+xml</dc:format>
    <dc:creator>
     <cc:Agent>
      <dc:title>Matplotlib v3.5.2, https://matplotlib.org/</dc:title>
     </cc:Agent>
    </dc:creator>
   </cc:Work>
  </rdf:RDF>
 </metadata>
 <defs>
  <style type="text/css">*{stroke-linejoin: round; stroke-linecap: butt}</style>
 </defs>
 <g id="figure_1">
  <g id="patch_1">
   <path d="M 0 232.987264 
L 230.4768 232.987264 
L 230.4768 0 
L 0 0 
L 0 232.987264 
z
" style="fill: none"/>
  </g>
  <g id="axes_1">
   <g id="line2d_1">
    <path d="M 20.3784 42.73 
L 96.8784 42.73 
L 99.4284 35.08 
L 104.5284 50.38 
L 109.6284 35.08 
L 114.7284 50.38 
L 119.8284 35.08 
L 124.9284 50.38 
L 127.4784 42.73 
L 203.9784 42.73 
" clip-path="url(#p9002568136)" style="fill: none; stroke: #000000; stroke-width: 2; stroke-linecap: round"/>
   </g>
   <g id="line2d_2">
    <path d="M 203.9784 42.73 
L 165.7284 108.980943 
L 171.078494 115.014308 
L 155.278306 111.781038 
L 165.978494 123.847767 
L 150.178306 120.614497 
L 160.878494 132.681226 
L 145.078306 129.447956 
L 150.4284 135.481321 
L 112.1784 201.732264 
" clip-path="url(#p9002568136)" style="fill: none; stroke: #000000; stroke-width: 2; stroke-linecap: round"/>
   </g>
   <g id="line2d_3">
    <path d="M 112.1784 201.732264 
L 73.9284 135.481321 
L 66.028306 137.097956 
L 76.728494 125.031226 
L 60.928306 128.264497 
L 71.628494 116.197767 
L 55.828306 119.431038 
L 66.528494 107.364308 
L 58.6284 108.980943 
L 20.3784 42.73 
" clip-path="url(#p9002568136)" style="fill: none; stroke: #000000; stroke-width: 2; stroke-linecap: round"/>
   </g>
   <g id="line2d_4">
    <path d="M 20.3784 42.73 
L 96.8784 42.73 
L 99.4284 35.08 
L 104.5284 50.38 
L 109.6284 35.08 
L 114.7284 50.38 
L 119.8284 35.08 
L 124.9284 50.38 
L 127.4784 42.73 
L 203.9784 42.73 
" clip-path="url(#p9002568136)" style="fill: none; stroke: #000000; stroke-width: 2; stroke-linecap: round"/>
   </g>
   <g id="line2d_5">
    <path d="M 203.9784 42.73 
L 165.7284 108.980943 
L 171.078494 115.014308 
L 155.278306 111.781038 
L 165.978494 123.847767 
L 150.178306 120.614497 
L 160.878494 132.681226 
L 145.078306 129.447956 
L 150.4284 135.481321 
L 112.1784 201.732264 
" clip-path="url(#p9002568136)" style="fill: none; stroke: #000000; stroke-width: 2; stroke-linecap: round"/>
   </g>
   <g id="line2d_6">
    <path d="M 112.1784 201.732264 
L 73.9284 135.481321 
L 66.028306 137.097956 
L 76.728494 125.031226 
L 60.928306 128.264497 
L 71.628494 116.197767 
L 55.828306 119.431038 
L 66.528494 107.364308 
L 58.6284 108.980943 
L 20.3784 42.73 
" clip-path="url(#p9002568136)" style="fill: none; stroke: #000000; stroke-width: 2; stroke-linecap: round"/>
   </g>
   <g id="text_1">
    <g clip-path="url(#p9002568136)">
     <!-- $R_1$ -->
     <g transform="translate(105.8659 29.420391)scale(0.125 -0.125)">
      <defs>
       <path id="STIXGeneral-Italic-52" d="M 845 4179 
L 2458 4179 
Q 3078 4179 3420 3936 
Q 3763 3693 3763 3277 
Q 3763 2778 3341 2458 
Q 3091 2266 2502 2131 
L 3072 627 
Q 3181 333 3299 217 
Q 3418 102 3629 102 
L 3629 0 
L 2688 0 
L 1901 2074 
L 1478 2106 
L 1126 806 
Q 1043 512 1043 403 
Q 1043 256 1126 192 
Q 1210 128 1472 102 
L 1472 0 
L -83 0 
L -83 102 
Q 173 134 278 243 
Q 384 352 461 646 
L 1222 3405 
Q 1299 3699 1299 3808 
Q 1299 3923 1210 3987 
Q 1133 4038 845 4077 
L 845 4179 
z
M 1958 3795 
L 1555 2342 
Q 1754 2310 1882 2310 
Q 2451 2310 2771 2566 
Q 3091 2822 3091 3270 
Q 3091 3603 2892 3795 
Q 2694 3987 2323 3987 
Q 2010 3987 1958 3795 
z
" transform="scale(0.015625)"/>
       <path id="STIXGeneral-Regular-31" d="M 2522 0 
L 755 0 
L 755 96 
Q 1107 115 1235 227 
Q 1363 339 1363 608 
L 1363 3482 
Q 1363 3795 1171 3795 
Q 1082 3795 883 3718 
L 710 3654 
L 710 3744 
L 1856 4326 
L 1914 4307 
L 1914 486 
Q 1914 275 2042 185 
Q 2170 96 2522 96 
L 2522 0 
z
" transform="scale(0.015625)"/>
      </defs>
      <use xlink:href="#STIXGeneral-Italic-52" transform="translate(0 0.703125)"/>
      <use xlink:href="#STIXGeneral-Regular-31" transform="translate(61.099991 -12.525)scale(0.7)"/>
     </g>
    </g>
   </g>
   <g id="text_2">
    <g clip-path="url(#p9002568136)">
     <!-- $R_3$ -->
     <g transform="translate(136.178268 114.276523)scale(0.125 -0.125)">
      <defs>
       <path id="STIXGeneral-Regular-33" d="M 390 3264 
L 288 3290 
Q 435 3770 748 4048 
Q 1062 4326 1542 4326 
Q 1990 4326 2265 4083 
Q 2541 3840 2541 3450 
Q 2541 2925 1946 2566 
Q 2298 2413 2477 2227 
Q 2758 1914 2758 1402 
Q 2758 890 2464 506 
Q 2246 211 1840 60 
Q 1434 -90 979 -90 
Q 262 -90 262 275 
Q 262 378 339 442 
Q 416 506 525 506 
Q 685 506 915 339 
Q 1197 141 1466 141 
Q 1818 141 2058 425 
Q 2298 710 2298 1120 
Q 2298 1856 1632 2048 
Q 1434 2112 979 2112 
L 979 2202 
Q 1338 2323 1517 2432 
Q 2035 2726 2035 3290 
Q 2035 3610 1852 3776 
Q 1670 3942 1344 3942 
Q 768 3942 390 3264 
z
" transform="scale(0.015625)"/>
      </defs>
      <use xlink:href="#STIXGeneral-Italic-52" transform="translate(0 0.703125)"/>
      <use xlink:href="#STIXGeneral-Regular-33" transform="translate(61.099991 -12.525)scale(0.7)"/>
     </g>
    </g>
   </g>
   <g id="text_3">
    <g clip-path="url(#p9002568136)">
     <!-- $R_2$ -->
     <g transform="translate(75.553532 114.276523)scale(0.125 -0.125)">
      <defs>
       <path id="STIXGeneral-Regular-32" d="M 3034 877 
L 2688 0 
L 186 0 
L 186 77 
L 1325 1286 
Q 1773 1754 1965 2144 
Q 2157 2534 2157 2950 
Q 2157 3379 1920 3616 
Q 1683 3853 1267 3853 
Q 922 3853 720 3673 
Q 518 3494 326 3021 
L 192 3053 
Q 301 3648 630 3987 
Q 960 4326 1523 4326 
Q 2054 4326 2380 4006 
Q 2707 3686 2707 3200 
Q 2707 2477 1888 1613 
L 832 486 
L 2330 486 
Q 2541 486 2665 569 
Q 2790 653 2944 915 
L 3034 877 
z
" transform="scale(0.015625)"/>
      </defs>
      <use xlink:href="#STIXGeneral-Italic-52" transform="translate(0 0.703125)"/>
      <use xlink:href="#STIXGeneral-Regular-32" transform="translate(61.099991 -12.525)scale(0.7)"/>
     </g>
    </g>
   </g>
   <g id="text_4">
    <g clip-path="url(#p9002568136)">
     <!-- $R_1$ -->
     <g transform="translate(105.8659 29.420391)scale(0.125 -0.125)">
      <use xlink:href="#STIXGeneral-Italic-52" transform="translate(0 0.703125)"/>
      <use xlink:href="#STIXGeneral-Regular-31" transform="translate(61.099991 -12.525)scale(0.7)"/>
     </g>
    </g>
   </g>
   <g id="text_5">
    <g clip-path="url(#p9002568136)">
     <!-- $R_3$ -->
     <g transform="translate(136.178268 114.276523)scale(0.125 -0.125)">
      <use xlink:href="#STIXGeneral-Italic-52" transform="translate(0 0.703125)"/>
      <use xlink:href="#STIXGeneral-Regular-33" transform="translate(61.099991 -12.525)scale(0.7)"/>
     </g>
    </g>
   </g>
   <g id="text_6">
    <g clip-path="url(#p9002568136)">
     <!-- $R_2$ -->
     <g transform="translate(75.553532 114.276523)scale(0.125 -0.125)">
      <use xlink:href="#STIXGeneral-Italic-52" transform="translate(0 0.703125)"/>
      <use xlink:href="#STIXGeneral-Regular-32" transform="translate(61.099991 -12.525)scale(0.7)"/>
     </g>
    </g>
   </g>
   <g id="patch_2">
    <path d="M 20.3784 45.025 
C 20.987041 45.025 21.570836 44.783184 22.00121 44.35281 
C 22.431584 43.922436 22.6734 43.338641 22.6734 42.73 
C 22.6734 42.121359 22.431584 41.537564 22.00121 41.10719 
C 21.570836 40.676816 20.987041 40.435 20.3784 40.435 
C 19.769759 40.435 19.185964 40.676816 18.75559 41.10719 
C 18.325216 41.537564 18.0834 42.121359 18.0834 42.73 
C 18.0834 43.338641 18.325216 43.922436 18.75559 44.35281 
C 19.185964 44.783184 19.769759 45.025 20.3784 45.025 
z
" clip-path="url(#p9002568136)" style="stroke: #000000; stroke-width: 2; stroke-linejoin: miter"/>
   </g>
   <g id="text_7">
    <g clip-path="url(#p9002568136)">
     <!-- A -->
     <g transform="translate(16.103009 34.775391)scale(0.125 -0.125)">
      <defs>
       <path id="DejaVuSans-41" d="M 2188 4044 
L 1331 1722 
L 3047 1722 
L 2188 4044 
z
M 1831 4666 
L 2547 4666 
L 4325 0 
L 3669 0 
L 3244 1197 
L 1141 1197 
L 716 0 
L 50 0 
L 1831 4666 
z
" transform="scale(0.015625)"/>
      </defs>
      <use xlink:href="#DejaVuSans-41"/>
     </g>
    </g>
   </g>
   <g id="patch_3">
    <path d="M 203.9784 45.025 
C 204.587041 45.025 205.170836 44.783184 205.60121 44.35281 
C 206.031584 43.922436 206.2734 43.338641 206.2734 42.73 
C 206.2734 42.121359 206.031584 41.537564 205.60121 41.10719 
C 205.170836 40.676816 204.587041 40.435 203.9784 40.435 
C 203.369759 40.435 202.785964 40.676816 202.35559 41.10719 
C 201.925216 41.537564 201.6834 42.121359 201.6834 42.73 
C 201.6834 43.338641 201.925216 43.922436 202.35559 44.35281 
C 202.785964 44.783184 203.369759 45.025 203.9784 45.025 
z
" clip-path="url(#p9002568136)" style="stroke: #000000; stroke-width: 2; stroke-linejoin: miter"/>
   </g>
   <g id="text_8">
    <g clip-path="url(#p9002568136)">
     <!-- B -->
     <g transform="translate(199.690314 34.775391)scale(0.125 -0.125)">
      <defs>
       <path id="DejaVuSans-42" d="M 1259 2228 
L 1259 519 
L 2272 519 
Q 2781 519 3026 730 
Q 3272 941 3272 1375 
Q 3272 1813 3026 2020 
Q 2781 2228 2272 2228 
L 1259 2228 
z
M 1259 4147 
L 1259 2741 
L 2194 2741 
Q 2656 2741 2882 2914 
Q 3109 3088 3109 3444 
Q 3109 3797 2882 3972 
Q 2656 4147 2194 4147 
L 1259 4147 
z
M 628 4666 
L 2241 4666 
Q 2963 4666 3353 4366 
Q 3744 4066 3744 3513 
Q 3744 3084 3544 2831 
Q 3344 2578 2956 2516 
Q 3422 2416 3680 2098 
Q 3938 1781 3938 1306 
Q 3938 681 3513 340 
Q 3088 0 2303 0 
L 628 0 
L 628 4666 
z
" transform="scale(0.015625)"/>
      </defs>
      <use xlink:href="#DejaVuSans-42"/>
     </g>
    </g>
   </g>
   <g id="patch_4">
    <path d="M 112.1784 204.027264 
C 112.787041 204.027264 113.370836 203.785448 113.80121 203.355074 
C 114.231584 202.9247 114.4734 202.340905 114.4734 201.732264 
C 114.4734 201.123623 114.231584 200.539828 113.80121 200.109454 
C 113.370836 199.67908 112.787041 199.437264 112.1784 199.437264 
C 111.569759 199.437264 110.985964 199.67908 110.55559 200.109454 
C 110.125216 200.539828 109.8834 201.123623 109.8834 201.732264 
C 109.8834 202.340905 110.125216 202.9247 110.55559 203.355074 
C 110.985964 203.785448 111.569759 204.027264 112.1784 204.027264 
z
" clip-path="url(#p9002568136)" style="stroke: #000000; stroke-width: 2; stroke-linejoin: miter"/>
   </g>
   <g id="text_9">
    <g clip-path="url(#p9002568136)">
     <!-- C -->
     <g transform="translate(107.814142 216.585311)scale(0.125 -0.125)">
      <defs>
       <path id="DejaVuSans-43" d="M 4122 4306 
L 4122 3641 
Q 3803 3938 3442 4084 
Q 3081 4231 2675 4231 
Q 1875 4231 1450 3742 
Q 1025 3253 1025 2328 
Q 1025 1406 1450 917 
Q 1875 428 2675 428 
Q 3081 428 3442 575 
Q 3803 722 4122 1019 
L 4122 359 
Q 3791 134 3420 21 
Q 3050 -91 2638 -91 
Q 1578 -91 968 557 
Q 359 1206 359 2328 
Q 359 3453 968 4101 
Q 1578 4750 2638 4750 
Q 3056 4750 3426 4639 
Q 3797 4528 4122 4306 
z
" transform="scale(0.015625)"/>
      </defs>
      <use xlink:href="#DejaVuSans-43"/>
     </g>
    </g>
   </g>
   <g id="patch_5">
    <path d="M 20.3784 45.025 
C 20.987041 45.025 21.570836 44.783184 22.00121 44.35281 
C 22.431584 43.922436 22.6734 43.338641 22.6734 42.73 
C 22.6734 42.121359 22.431584 41.537564 22.00121 41.10719 
C 21.570836 40.676816 20.987041 40.435 20.3784 40.435 
C 19.769759 40.435 19.185964 40.676816 18.75559 41.10719 
C 18.325216 41.537564 18.0834 42.121359 18.0834 42.73 
C 18.0834 43.338641 18.325216 43.922436 18.75559 44.35281 
C 19.185964 44.783184 19.769759 45.025 20.3784 45.025 
z
" clip-path="url(#p9002568136)" style="stroke: #000000; stroke-width: 2; stroke-linejoin: miter"/>
   </g>
   <g id="text_10">
    <g clip-path="url(#p9002568136)">
     <!-- A -->
     <g transform="translate(16.103009 34.775391)scale(0.125 -0.125)">
      <use xlink:href="#DejaVuSans-41"/>
     </g>
    </g>
   </g>
   <g id="patch_6">
    <path d="M 203.9784 45.025 
C 204.587041 45.025 205.170836 44.783184 205.60121 44.35281 
C 206.031584 43.922436 206.2734 43.338641 206.2734 42.73 
C 206.2734 42.121359 206.031584 41.537564 205.60121 41.10719 
C 205.170836 40.676816 204.587041 40.435 203.9784 40.435 
C 203.369759 40.435 202.785964 40.676816 202.35559 41.10719 
C 201.925216 41.537564 201.6834 42.121359 201.6834 42.73 
C 201.6834 43.338641 201.925216 43.922436 202.35559 44.35281 
C 202.785964 44.783184 203.369759 45.025 203.9784 45.025 
z
" clip-path="url(#p9002568136)" style="stroke: #000000; stroke-width: 2; stroke-linejoin: miter"/>
   </g>
   <g id="text_11">
    <g clip-path="url(#p9002568136)">
     <!-- B -->
     <g transform="translate(199.690314 34.775391)scale(0.125 -0.125)">
      <use xlink:href="#DejaVuSans-42"/>
     </g>
    </g>
   </g>
   <g id="patch_7">
    <path d="M 112.1784 204.027264 
C 112.787041 204.027264 113.370836 203.785448 113.80121 203.355074 
C 114.231584 202.9247 114.4734 202.340905 114.4734 201.732264 
C 114.4734 201.123623 114.231584 200.539828 113.80121 200.109454 
C 113.370836 199.67908 112.787041 199.437264 112.1784 199.437264 
C 111.569759 199.437264 110.985964 199.67908 110.55559 200.109454 
C 110.125216 200.539828 109.8834 201.123623 109.8834 201.732264 
C 109.8834 202.340905 110.125216 202.9247 110.55559 203.355074 
C 110.985964 203.785448 111.569759 204.027264 112.1784 204.027264 
z
" clip-path="url(#p9002568136)" style="stroke: #000000; stroke-width: 2; stroke-linejoin: miter"/>
   </g>
   <g id="text_12">
    <g clip-path="url(#p9002568136)">
     <!-- C -->
     <g transform="translate(107.814142 216.585311)scale(0.125 -0.125)">
      <use xlink:href="#DejaVuSans-43"/>
     </g>
    </g>
   </g>
  </g>
 </g>
 <defs>
  <clipPath id="p9002568136">
   <rect x="7.2" y="7.2" width="216.0768" height="218.587264"/>
  </clipPath>
 </defs>
</svg>
