<?xml version="1.0" encoding="utf-8" standalone="no"?>
<!DOCTYPE svg PUBLIC "-//W3C//DTD SVG 1.1//EN"
  "http://www.w3.org/Graphics/SVG/1.1/DTD/svg11.dtd">
<svg xmlns:xlink="http://www.w3.org/1999/xlink" width="341.666406pt" height="276.247656pt" viewBox="0 0 341.666406 276.247656" xmlns="http://www.w3.org/2000/svg" version="1.1">
 <metadata>
  <rdf:RDF xmlns:dc="http://purl.org/dc/elements/1.1/" xmlns:cc="http://creativecommons.org/ns#" xmlns:rdf="http://www.w3.org/1999/02/22-rdf-syntax-ns#">
   <cc:Work>
    <dc:type rdf:resource="http://purl.org/dc/dcmitype/StillImage"/>
    <dc:date>2024-03-15T17:19:54.996142</dc:date>
    <dc:format>image/svg+xml</dc:format>
    <dc:creator>
     <cc:Agent>
      <dc:title>Matplotlib v3.8.2, https://matplotlib.org/</dc:title>
     </cc:Agent>
    </dc:creator>
   </cc:Work>
  </rdf:RDF>
 </metadata>
 <defs>
  <style type="text/css">*{stroke-linejoin: round; stroke-linecap: butt}</style>
 </defs>
 <g id="figure_1">
  <g id="patch_1">
   <path d="M 0 276.247656 
L 341.666406 276.247656 
L 341.666406 0 
L 0 0 
L 0 276.247656 
z
" style="fill: none"/>
  </g>
  <g id="axes_1">
   <g id="patch_2">
    <path d="M 177.166898 176.787507 
C 175.657758 173.853938 173.748983 171.226719 171.5157 169.009255 
C 169.282416 166.791791 166.754313 165.01356 164.030894 163.74455 
C 161.307475 162.475541 158.424943 161.732623 155.496753 161.545037 
C 152.568562 161.357452 149.633639 161.727692 146.807498 162.641186 
C 143.981357 163.55468 141.301569 164.999283 138.873605 166.918139 
C 136.445642 168.836995 134.301782 171.204594 132.526402 173.92775 
C 130.751023 176.650907 129.367728 179.69342 128.43096 182.93554 
C 127.494193 186.17766 127.016406 189.576287 127.016406 192.997656 
C 127.016406 196.419025 127.494193 199.817652 128.43096 203.059772 
C 129.367728 206.301893 130.751023 209.344406 132.526402 212.067562 
C 134.301782 214.790719 136.445642 217.158318 138.873605 219.077173 
C 141.301569 220.996029 143.981357 222.440633 146.807498 223.354127 
C 149.633639 224.26762 152.568562 224.637861 155.496753 224.450275 
C 158.424943 224.262689 161.307475 223.519772 164.030894 222.250762 
C 166.754313 220.981753 169.282416 219.203522 171.5157 216.986057 
C 173.748983 214.768593 175.657758 212.141374 177.166898 209.207805 
" clip-path="url(#pb45d453716)" style="fill: none; stroke: #0000ff; stroke-width: 2; stroke-linejoin: miter"/>
   </g>
   <g id="patch_3">
    <path d="M 181.983628 184.813011 
L 175.037108 178.485622 
L 177.336723 177.105443 
L 177.151465 176.79677 
L 177.182332 176.778244 
L 177.367591 177.086918 
L 179.667206 175.706739 
z
" clip-path="url(#pb45d453716)" style="fill: #0000ff; stroke: #0000ff; stroke-linejoin: miter"/>
   </g>
   <g id="patch_4">
    <path d="M 285.166898 176.787507 
C 283.657758 173.853938 281.748983 171.226719 279.5157 169.009255 
C 277.282416 166.791791 274.754313 165.01356 272.030894 163.74455 
C 269.307475 162.475541 266.424943 161.732623 263.496753 161.545037 
C 260.568562 161.357452 257.633639 161.727692 254.807498 162.641186 
C 251.981357 163.55468 249.301569 164.999283 246.873605 166.918139 
C 244.445642 168.836995 242.301782 171.204594 240.526402 173.92775 
C 238.751023 176.650907 237.367728 179.69342 236.43096 182.93554 
C 235.494193 186.17766 235.016406 189.576287 235.016406 192.997656 
C 235.016406 196.419025 235.494193 199.817652 236.43096 203.059772 
C 237.367728 206.301893 238.751023 209.344406 240.526402 212.067562 
C 242.301782 214.790719 244.445642 217.158318 246.873605 219.077173 
C 249.301569 220.996029 251.981357 222.440633 254.807498 223.354127 
C 257.633639 224.26762 260.568562 224.637861 263.496753 224.450275 
C 266.424943 224.262689 269.307475 223.519772 272.030894 222.250762 
C 274.754313 220.981753 277.282416 219.203522 279.5157 216.986057 
C 281.748983 214.768593 283.657758 212.141374 285.166898 209.207805 
" clip-path="url(#pb45d453716)" style="fill: none; stroke: #ff0000; stroke-width: 2; stroke-linejoin: miter"/>
   </g>
   <g id="patch_5">
    <path d="M 289.983628 184.813011 
L 283.037108 178.485622 
L 285.336723 177.105443 
L 285.151465 176.79677 
L 285.182332 176.778244 
L 285.367591 177.086918 
L 287.667206 175.706739 
z
" clip-path="url(#pb45d453716)" style="fill: #ff0000; stroke: #ff0000; stroke-linejoin: miter"/>
   </g>
   <g id="patch_6">
    <path d="M 243.460265 55.679599 
C 229.771967 53.920197 214.839703 53.207208 200.00705 53.604785 
C 185.174397 54.002363 170.89998 55.498214 158.468184 57.957744 
C 146.036387 60.417275 135.831603 63.764437 128.772037 67.698059 
C 121.712471 71.63168 118.016406 76.030134 118.016406 80.497656 
C 118.016406 84.965178 121.712471 89.363632 128.772037 93.297254 
C 135.831603 97.230876 146.036387 100.578037 158.468184 103.037568 
C 170.89998 105.497099 185.174397 106.99295 200.00705 107.390527 
C 214.839703 107.788105 229.771967 107.075116 243.460265 105.315713 
" clip-path="url(#pb45d453716)" style="fill: none; stroke: #008000; stroke-width: 2; stroke-linejoin: miter"/>
   </g>
   <g id="patch_7">
    <path d="M 252.063858 59.36576 
L 242.727857 58.30318 
L 243.784084 55.83792 
L 243.453176 55.696145 
L 243.467354 55.663054 
L 243.798261 55.804829 
L 244.854488 53.339569 
z
" clip-path="url(#pb45d453716)" style="fill: #008000; stroke: #008000; stroke-linejoin: miter"/>
   </g>
   <g id="patch_8">
    <path d="M 97.890843 246.464012 
C 93.028292 255.537655 91.016406 260.497656 64.016406 260.497656 
" clip-path="url(#pb45d453716)" style="fill: none; stroke: #000000; stroke-width: 2; stroke-linejoin: miter; stroke-linecap: round"/>
   </g>
   <g id="patch_9">
    <path d="M 92.592194 248.729917 
L 100.016406 242.497656 
L 98.938364 252.130819 
z
" clip-path="url(#pb45d453716)"/>
   </g>
   <g id="line2d_1">
    <path d="M 100.016406 242.497656 
L 100.016406 206.497656 
L 91.016406 206.497656 
L 91.016406 170.497656 
L 109.016406 170.497656 
L 109.016406 206.497656 
L 100.016406 206.497656 
M 100.016406 170.497656 
L 100.016406 134.497656 
" clip-path="url(#pb45d453716)" style="fill: none; stroke: #000000; stroke-width: 2; stroke-linecap: round"/>
   </g>
   <g id="line2d_2">
    <path d="M 100.016406 134.497656 
L 136.016406 134.497656 
L 136.016406 125.497656 
L 172.016406 125.497656 
L 172.016406 143.497656 
L 136.016406 143.497656 
L 136.016406 134.497656 
M 172.016406 134.497656 
L 208.016406 134.497656 
" clip-path="url(#pb45d453716)" style="fill: none; stroke: #000000; stroke-width: 2; stroke-linecap: round"/>
   </g>
   <g id="line2d_3">
    <path d="M 208.016406 134.497656 
L 244.016406 134.497656 
L 244.016406 125.497656 
L 280.016406 125.497656 
L 280.016406 143.497656 
L 244.016406 143.497656 
L 244.016406 134.497656 
M 280.016406 134.497656 
L 316.016406 134.497656 
" clip-path="url(#pb45d453716)" style="fill: none; stroke: #000000; stroke-width: 2; stroke-linecap: round"/>
   </g>
   <g id="line2d_4">
    <path d="M 316.016406 134.497656 
L 316.016406 170.497656 
L 325.016406 170.497656 
L 325.016406 206.497656 
L 307.016406 206.497656 
L 307.016406 170.497656 
L 316.016406 170.497656 
M 316.016406 206.497656 
L 316.016406 242.497656 
" clip-path="url(#pb45d453716)" style="fill: none; stroke: #000000; stroke-width: 2; stroke-linecap: round"/>
   </g>
   <g id="line2d_5">
    <path d="M 208.016406 134.497656 
L 208.016406 170.497656 
L 217.016406 170.497656 
L 217.016406 206.497656 
L 199.016406 206.497656 
L 199.016406 170.497656 
L 208.016406 170.497656 
M 208.016406 206.497656 
L 208.016406 242.497656 
" clip-path="url(#pb45d453716)" style="fill: none; stroke: #000000; stroke-width: 2; stroke-linecap: round"/>
   </g>
   <g id="line2d_6">
    <path d="M 100.016406 242.497656 
L 154.016406 242.497656 
L 208.016406 242.497656 
" clip-path="url(#pb45d453716)" style="fill: none; stroke: #000000; stroke-width: 2; stroke-linecap: round"/>
   </g>
   <g id="line2d_7">
    <path d="M 208.016406 242.497656 
L 262.016406 242.497656 
L 316.016406 242.497656 
" clip-path="url(#pb45d453716)" style="fill: none; stroke: #000000; stroke-width: 2; stroke-linecap: round"/>
   </g>
   <g id="line2d_8">
    <path d="M 100.016406 134.497656 
L 100.016406 80.497656 
L 100.016406 26.497656 
" clip-path="url(#pb45d453716)" style="fill: none; stroke: #000000; stroke-width: 2; stroke-linecap: round"/>
   </g>
   <g id="line2d_9">
    <path d="M 100.016406 26.497656 
L 127.016406 26.497656 
L 154.016406 26.497656 
" clip-path="url(#pb45d453716)" style="fill: none; stroke: #000000; stroke-width: 2; stroke-linecap: round"/>
   </g>
   <g id="line2d_10">
    <path d="M 154.016406 26.497656 
L 190.016406 26.497656 
L 190.016406 17.497656 
L 226.016406 17.497656 
L 226.016406 35.497656 
L 190.016406 35.497656 
L 190.016406 26.497656 
M 226.016406 26.497656 
L 262.016406 26.497656 
" clip-path="url(#pb45d453716)" style="fill: none; stroke: #000000; stroke-width: 2; stroke-linecap: round"/>
   </g>
   <g id="line2d_11">
    <path d="M 262.016406 26.497656 
L 289.016406 26.497656 
L 316.016406 26.497656 
" clip-path="url(#pb45d453716)" style="fill: none; stroke: #000000; stroke-width: 2; stroke-linecap: round"/>
   </g>
   <g id="line2d_12">
    <path d="M 316.016406 26.497656 
L 316.016406 80.497656 
L 316.016406 134.497656 
" clip-path="url(#pb45d453716)" style="fill: none; stroke: #000000; stroke-width: 2; stroke-linecap: round"/>
   </g>
   <g id="text_1">
    <!-- $I_1$ -->
    <g style="fill: #0000ff" transform="translate(149.453906 196.446875) scale(0.125 -0.125)">
     <defs>
      <path id="STIXGeneral-Italic-49" d="M 2458 4179 
L 2458 4077 
Q 2189 4045 2102 3961 
Q 2016 3878 1933 3584 
L 1165 838 
Q 1069 499 1069 352 
Q 1069 224 1149 179 
Q 1229 134 1510 102 
L 1510 0 
L -51 0 
L -51 102 
Q 218 154 317 237 
Q 416 320 486 582 
L 1254 3405 
Q 1338 3699 1338 3802 
Q 1338 3930 1235 3997 
Q 1133 4064 877 4077 
L 877 4179 
L 2458 4179 
z
" transform="scale(0.015625)"/>
      <path id="STIXGeneral-Regular-31" d="M 2522 0 
L 755 0 
L 755 96 
Q 1107 115 1235 227 
Q 1363 339 1363 608 
L 1363 3482 
Q 1363 3795 1171 3795 
Q 1082 3795 883 3718 
L 710 3654 
L 710 3744 
L 1856 4326 
L 1914 4307 
L 1914 486 
Q 1914 275 2042 185 
Q 2170 96 2522 96 
L 2522 0 
z
" transform="scale(0.015625)"/>
     </defs>
     <use xlink:href="#STIXGeneral-Italic-49" transform="translate(0 0.703125)"/>
     <use xlink:href="#STIXGeneral-Regular-31" transform="translate(33.299988 -12.525) scale(0.7)"/>
    </g>
   </g>
   <g id="text_2">
    <!-- $I_2$ -->
    <g style="fill: #ff0000" transform="translate(257.453906 196.446875) scale(0.125 -0.125)">
     <defs>
      <path id="STIXGeneral-Regular-32" d="M 3034 877 
L 2688 0 
L 186 0 
L 186 77 
L 1325 1286 
Q 1773 1754 1965 2144 
Q 2157 2534 2157 2950 
Q 2157 3379 1920 3616 
Q 1683 3853 1267 3853 
Q 922 3853 720 3673 
Q 518 3494 326 3021 
L 192 3053 
Q 301 3648 630 3987 
Q 960 4326 1523 4326 
Q 2054 4326 2380 4006 
Q 2707 3686 2707 3200 
Q 2707 2477 1888 1613 
L 832 486 
L 2330 486 
Q 2541 486 2665 569 
Q 2790 653 2944 915 
L 3034 877 
z
" transform="scale(0.015625)"/>
     </defs>
     <use xlink:href="#STIXGeneral-Italic-49" transform="translate(0 0.703125)"/>
     <use xlink:href="#STIXGeneral-Regular-32" transform="translate(33.299988 -12.525) scale(0.7)"/>
    </g>
   </g>
   <g id="text_3">
    <!-- $I_3$ -->
    <g style="fill: #008000" transform="translate(203.453906 83.946875) scale(0.125 -0.125)">
     <defs>
      <path id="STIXGeneral-Regular-33" d="M 390 3264 
L 288 3290 
Q 435 3770 748 4048 
Q 1062 4326 1542 4326 
Q 1990 4326 2265 4083 
Q 2541 3840 2541 3450 
Q 2541 2925 1946 2566 
Q 2298 2413 2477 2227 
Q 2758 1914 2758 1402 
Q 2758 890 2464 506 
Q 2246 211 1840 60 
Q 1434 -90 979 -90 
Q 262 -90 262 275 
Q 262 378 339 442 
Q 416 506 525 506 
Q 685 506 915 339 
Q 1197 141 1466 141 
Q 1818 141 2058 425 
Q 2298 710 2298 1120 
Q 2298 1856 1632 2048 
Q 1434 2112 979 2112 
L 979 2202 
Q 1338 2323 1517 2432 
Q 2035 2726 2035 3290 
Q 2035 3610 1852 3776 
Q 1670 3942 1344 3942 
Q 768 3942 390 3264 
z
" transform="scale(0.015625)"/>
     </defs>
     <use xlink:href="#STIXGeneral-Italic-49" transform="translate(0 0.703125)"/>
     <use xlink:href="#STIXGeneral-Regular-33" transform="translate(33.299988 -12.525) scale(0.7)"/>
    </g>
   </g>
   <g id="text_4">
    <!-- KCL Here -->
    <g transform="translate(3.6 263.946875) scale(0.125 -0.125)">
     <defs>
      <path id="DejaVuSans-4b" d="M 628 4666 
L 1259 4666 
L 1259 2694 
L 3353 4666 
L 4166 4666 
L 1850 2491 
L 4331 0 
L 3500 0 
L 1259 2247 
L 1259 0 
L 628 0 
L 628 4666 
z
" transform="scale(0.015625)"/>
      <path id="DejaVuSans-43" d="M 4122 4306 
L 4122 3641 
Q 3803 3938 3442 4084 
Q 3081 4231 2675 4231 
Q 1875 4231 1450 3742 
Q 1025 3253 1025 2328 
Q 1025 1406 1450 917 
Q 1875 428 2675 428 
Q 3081 428 3442 575 
Q 3803 722 4122 1019 
L 4122 359 
Q 3791 134 3420 21 
Q 3050 -91 2638 -91 
Q 1578 -91 968 557 
Q 359 1206 359 2328 
Q 359 3453 968 4101 
Q 1578 4750 2638 4750 
Q 3056 4750 3426 4639 
Q 3797 4528 4122 4306 
z
" transform="scale(0.015625)"/>
      <path id="DejaVuSans-4c" d="M 628 4666 
L 1259 4666 
L 1259 531 
L 3531 531 
L 3531 0 
L 628 0 
L 628 4666 
z
" transform="scale(0.015625)"/>
      <path id="DejaVuSans-20" transform="scale(0.015625)"/>
      <path id="DejaVuSans-48" d="M 628 4666 
L 1259 4666 
L 1259 2753 
L 3553 2753 
L 3553 4666 
L 4184 4666 
L 4184 0 
L 3553 0 
L 3553 2222 
L 1259 2222 
L 1259 0 
L 628 0 
L 628 4666 
z
" transform="scale(0.015625)"/>
      <path id="DejaVuSans-65" d="M 3597 1894 
L 3597 1613 
L 953 1613 
Q 991 1019 1311 708 
Q 1631 397 2203 397 
Q 2534 397 2845 478 
Q 3156 559 3463 722 
L 3463 178 
Q 3153 47 2828 -22 
Q 2503 -91 2169 -91 
Q 1331 -91 842 396 
Q 353 884 353 1716 
Q 353 2575 817 3079 
Q 1281 3584 2069 3584 
Q 2775 3584 3186 3129 
Q 3597 2675 3597 1894 
z
M 3022 2063 
Q 3016 2534 2758 2815 
Q 2500 3097 2075 3097 
Q 1594 3097 1305 2825 
Q 1016 2553 972 2059 
L 3022 2063 
z
" transform="scale(0.015625)"/>
      <path id="DejaVuSans-72" d="M 2631 2963 
Q 2534 3019 2420 3045 
Q 2306 3072 2169 3072 
Q 1681 3072 1420 2755 
Q 1159 2438 1159 1844 
L 1159 0 
L 581 0 
L 581 3500 
L 1159 3500 
L 1159 2956 
Q 1341 3275 1631 3429 
Q 1922 3584 2338 3584 
Q 2397 3584 2469 3576 
Q 2541 3569 2628 3553 
L 2631 2963 
z
" transform="scale(0.015625)"/>
     </defs>
     <use xlink:href="#DejaVuSans-4b"/>
     <use xlink:href="#DejaVuSans-43" x="60.076172"/>
     <use xlink:href="#DejaVuSans-4c" x="129.900391"/>
     <use xlink:href="#DejaVuSans-20" x="185.613281"/>
     <use xlink:href="#DejaVuSans-48" x="217.400391"/>
     <use xlink:href="#DejaVuSans-65" x="292.595703"/>
     <use xlink:href="#DejaVuSans-72" x="354.119141"/>
     <use xlink:href="#DejaVuSans-65" x="392.982422"/>
    </g>
   </g>
   <g id="patch_10">
    <path d="M 100.016406 245.197656 
C 100.732455 245.197656 101.419272 244.913167 101.925595 244.406845 
C 102.431917 243.900522 102.716406 243.213705 102.716406 242.497656 
C 102.716406 241.781608 102.431917 241.094791 101.925595 240.588468 
C 101.419272 240.082145 100.732455 239.797656 100.016406 239.797656 
C 99.300358 239.797656 98.613541 240.082145 98.107218 240.588468 
C 97.600895 241.094791 97.316406 241.781608 97.316406 242.497656 
C 97.316406 243.213705 97.600895 243.900522 98.107218 244.406845 
C 98.613541 244.913167 99.300358 245.197656 100.016406 245.197656 
z
" clip-path="url(#pb45d453716)" style="stroke: #000000; stroke-width: 2; stroke-linejoin: miter"/>
   </g>
   <g id="line2d_13">
    <path d="M 100.016406 228.097656 
L 100.016406 228.097656 
" clip-path="url(#pb45d453716)" style="fill: none; stroke: #000000; stroke-width: 2; stroke-linecap: round"/>
   </g>
   <g id="patch_11">
    <path d="M 94.616406 228.097656 
L 100.016406 217.297656 
L 105.416406 228.097656 
z
" clip-path="url(#pb45d453716)"/>
   </g>
   <g id="text_5">
    <!-- $I_a$ -->
    <g transform="translate(80.091406 226.146875) scale(0.125 -0.125)">
     <defs>
      <path id="STIXGeneral-Italic-61" d="M 2963 710 
L 3046 640 
Q 2688 205 2518 70 
Q 2349 -64 2157 -64 
Q 1901 -64 1901 198 
Q 1901 358 2048 934 
Q 1690 397 1389 163 
Q 1088 -70 749 -70 
Q 467 -70 288 125 
Q 109 320 109 672 
Q 109 1158 387 1664 
Q 666 2170 1094 2496 
Q 1523 2822 1939 2822 
Q 2368 2822 2451 2451 
L 2522 2758 
L 2541 2778 
L 2931 2822 
L 2976 2803 
Q 2970 2778 2938 2669 
Q 2368 595 2368 346 
Q 2368 262 2458 262 
Q 2554 262 2790 525 
L 2963 710 
z
M 2336 2310 
Q 2336 2477 2240 2579 
Q 2144 2682 1978 2682 
Q 1542 2682 1139 2093 
Q 928 1779 787 1395 
Q 646 1011 646 717 
Q 646 243 1030 243 
Q 1408 243 1843 870 
Q 2336 1581 2336 2310 
z
" transform="scale(0.015625)"/>
     </defs>
     <use xlink:href="#STIXGeneral-Italic-49" transform="translate(0 0.703125)"/>
     <use xlink:href="#STIXGeneral-Italic-61" transform="translate(33.299988 -12.525) scale(0.7)"/>
    </g>
   </g>
   <g id="line2d_14">
    <path d="M 114.416406 134.497656 
L 114.416406 134.497656 
" clip-path="url(#pb45d453716)" style="fill: none; stroke: #000000; stroke-width: 2; stroke-linecap: round"/>
   </g>
   <g id="patch_12">
    <path d="M 114.416406 129.097656 
L 125.216406 134.497656 
L 114.416406 139.897656 
z
" clip-path="url(#pb45d453716)"/>
   </g>
   <g id="text_6">
    <!-- $I_b$ -->
    <g transform="translate(115.253906 121.098047) scale(0.125 -0.125)">
     <defs>
      <path id="STIXGeneral-Italic-62" d="M 1043 1856 
L 1050 1856 
Q 1370 2387 1654 2604 
Q 1939 2822 2285 2822 
Q 2618 2822 2822 2617 
Q 3027 2413 3027 2054 
Q 3027 1562 2726 1062 
Q 2426 563 1942 246 
Q 1459 -70 979 -70 
Q 685 -70 416 32 
Q 147 134 147 269 
L 147 307 
L 1056 3654 
Q 1114 3885 1114 3955 
Q 1114 4058 1053 4080 
Q 992 4102 704 4115 
L 704 4224 
Q 1184 4282 1683 4371 
L 1715 4339 
L 1581 3814 
L 1043 1856 
z
M 2483 1958 
Q 2483 2509 2035 2509 
Q 1594 2509 1158 1773 
Q 954 1427 826 1008 
Q 698 589 698 294 
Q 698 77 992 77 
Q 1414 77 1779 454 
Q 2074 762 2278 1187 
Q 2483 1613 2483 1958 
z
" transform="scale(0.015625)"/>
     </defs>
     <use xlink:href="#STIXGeneral-Italic-49" transform="translate(0 0.703125)"/>
     <use xlink:href="#STIXGeneral-Italic-62" transform="translate(33.299988 -12.525) scale(0.7)"/>
    </g>
   </g>
   <g id="line2d_15">
    <path d="M 233.216406 134.497656 
L 233.216406 134.497656 
" clip-path="url(#pb45d453716)" style="fill: none; stroke: #000000; stroke-width: 2; stroke-linecap: round"/>
   </g>
   <g id="patch_13">
    <path d="M 233.216406 139.897656 
L 222.416406 134.497656 
L 233.216406 129.097656 
z
" clip-path="url(#pb45d453716)"/>
   </g>
   <g id="text_7">
    <!-- $I_c$ -->
    <g transform="translate(223.503906 121.098047) scale(0.125 -0.125)">
     <defs>
      <path id="STIXGeneral-Italic-63" d="M 2240 685 
L 2342 621 
Q 2048 250 1769 90 
Q 1491 -70 1133 -70 
Q 678 -70 435 179 
Q 192 429 192 915 
Q 192 1344 409 1744 
Q 627 2144 979 2432 
Q 1472 2822 2048 2822 
Q 2342 2822 2531 2675 
Q 2720 2528 2720 2304 
Q 2720 2176 2630 2086 
Q 2541 1997 2413 1997 
Q 2285 1997 2224 2070 
Q 2163 2144 2163 2253 
Q 2163 2310 2211 2403 
Q 2259 2496 2259 2560 
Q 2259 2688 2022 2688 
Q 1619 2688 1325 2381 
Q 742 1766 742 890 
Q 742 544 889 352 
Q 1037 160 1312 160 
Q 1562 160 1766 281 
Q 1971 403 2240 685 
z
" transform="scale(0.015625)"/>
     </defs>
     <use xlink:href="#STIXGeneral-Italic-49" transform="translate(0 0.703125)"/>
     <use xlink:href="#STIXGeneral-Italic-63" transform="translate(33.299988 -12.525) scale(0.7)"/>
    </g>
   </g>
   <g id="line2d_16">
    <path d="M 316.016406 148.897656 
L 316.016406 148.897656 
" clip-path="url(#pb45d453716)" style="fill: none; stroke: #000000; stroke-width: 2; stroke-linecap: round"/>
   </g>
   <g id="patch_14">
    <path d="M 321.416406 148.897656 
L 316.016406 159.697656 
L 310.616406 148.897656 
z
" clip-path="url(#pb45d453716)"/>
   </g>
   <g id="text_8">
    <!-- $I_d$ -->
    <g transform="translate(296.091406 157.746875) scale(0.125 -0.125)">
     <defs>
      <path id="STIXGeneral-Italic-64" d="M 3334 4371 
L 3373 4333 
L 3123 3360 
L 2739 1958 
Q 2323 429 2323 384 
Q 2323 256 2438 256 
Q 2522 256 2614 336 
Q 2707 416 2963 710 
L 3040 646 
Q 2547 -83 2099 -83 
Q 1978 -83 1907 -6 
Q 1837 70 1837 205 
Q 1837 397 1920 774 
Q 1645 307 1379 118 
Q 1114 -70 781 -70 
Q 461 -70 278 125 
Q 96 320 96 678 
Q 96 1440 713 2131 
Q 1331 2822 1965 2822 
Q 2163 2822 2256 2732 
Q 2349 2643 2381 2451 
L 2387 2451 
L 2675 3494 
Q 2765 3808 2765 3949 
Q 2765 4051 2694 4076 
Q 2624 4102 2355 4115 
L 2355 4224 
Q 2848 4269 3334 4371 
z
M 2278 2310 
Q 2278 2477 2185 2576 
Q 2093 2675 1978 2675 
Q 1677 2675 1395 2381 
Q 1075 2042 864 1571 
Q 653 1101 653 704 
Q 653 486 752 361 
Q 851 237 1024 237 
Q 1312 237 1606 550 
Q 1901 864 2089 1350 
Q 2278 1837 2278 2310 
z
" transform="scale(0.015625)"/>
     </defs>
     <use xlink:href="#STIXGeneral-Italic-49" transform="translate(0 0.703125)"/>
     <use xlink:href="#STIXGeneral-Italic-64" transform="translate(33.299988 -12.525) scale(0.7)"/>
    </g>
   </g>
   <g id="line2d_17">
    <path d="M 208.016406 148.897656 
L 208.016406 148.897656 
" clip-path="url(#pb45d453716)" style="fill: none; stroke: #000000; stroke-width: 2; stroke-linecap: round"/>
   </g>
   <g id="patch_15">
    <path d="M 213.416406 148.897656 
L 208.016406 159.697656 
L 202.616406 148.897656 
z
" clip-path="url(#pb45d453716)"/>
   </g>
   <g id="text_9">
    <!-- $I_e$ -->
    <g transform="translate(188.591406 157.746875) scale(0.125 -0.125)">
     <defs>
      <path id="STIXGeneral-Italic-65" d="M 2291 698 
L 2368 621 
Q 1805 -70 1062 -70 
Q 672 -70 435 170 
Q 198 410 198 806 
Q 198 1555 796 2188 
Q 1395 2822 2112 2822 
Q 2362 2822 2499 2707 
Q 2637 2592 2637 2387 
Q 2637 1965 2147 1632 
Q 1658 1299 819 1190 
Q 755 1062 755 800 
Q 755 538 918 378 
Q 1082 218 1350 218 
Q 1562 218 1754 317 
Q 1946 416 2291 698 
z
M 973 1613 
L 864 1331 
Q 1581 1504 1894 1805 
Q 2214 2112 2214 2426 
Q 2214 2675 1990 2675 
Q 1722 2675 1430 2364 
Q 1139 2054 973 1613 
z
" transform="scale(0.015625)"/>
     </defs>
     <use xlink:href="#STIXGeneral-Italic-49" transform="translate(0 0.703125)"/>
     <use xlink:href="#STIXGeneral-Italic-65" transform="translate(33.299988 -12.525) scale(0.7)"/>
    </g>
   </g>
   <g id="line2d_18">
    <path d="M 125.216406 242.497656 
L 125.216406 242.497656 
" clip-path="url(#pb45d453716)" style="fill: none; stroke: #0000ff; stroke-width: 2; stroke-linecap: round"/>
   </g>
   <g id="patch_16">
    <path d="M 125.216406 247.897656 
L 114.416406 242.497656 
L 125.216406 237.097656 
z
" clip-path="url(#pb45d453716)" style="fill: #0000ff"/>
   </g>
   <g id="text_10">
    <!-- $I_1$ -->
    <g style="fill: #0000ff" transform="translate(115.253906 229.098047) scale(0.125 -0.125)">
     <use xlink:href="#STIXGeneral-Italic-49" transform="translate(0 0.703125)"/>
     <use xlink:href="#STIXGeneral-Regular-31" transform="translate(33.299988 -12.525) scale(0.7)"/>
    </g>
   </g>
   <g id="line2d_19">
    <path d="M 168.416406 26.497656 
L 168.416406 26.497656 
" clip-path="url(#pb45d453716)" style="fill: none; stroke: #000000; stroke-width: 2; stroke-linecap: round"/>
   </g>
   <g id="patch_17">
    <path d="M 168.416406 21.097656 
L 179.216406 26.497656 
L 168.416406 31.897656 
z
" clip-path="url(#pb45d453716)"/>
   </g>
   <g id="text_11">
    <!-- $I_f$ -->
    <g transform="translate(170.191406 12.197656) scale(0.125 -0.125)">
     <defs>
      <path id="STIXGeneral-Italic-66" d="M 262 2739 
L 858 2739 
Q 1107 3546 1318 3846 
Q 1664 4339 2163 4339 
Q 2400 4339 2557 4227 
Q 2714 4115 2714 3942 
Q 2714 3834 2634 3750 
Q 2554 3667 2445 3667 
Q 2355 3667 2281 3737 
Q 2208 3808 2208 3917 
Q 2208 3981 2240 4038 
Q 2272 4096 2272 4115 
Q 2272 4198 2131 4198 
Q 1862 4198 1676 3849 
Q 1491 3501 1350 2739 
L 2035 2739 
L 1997 2534 
L 1306 2534 
L 845 486 
Q 435 -1325 -435 -1325 
Q -653 -1325 -797 -1213 
Q -941 -1101 -941 -934 
Q -941 -826 -870 -746 
Q -800 -666 -698 -666 
Q -589 -666 -521 -733 
Q -454 -800 -454 -902 
Q -454 -947 -483 -1001 
Q -512 -1056 -512 -1088 
Q -512 -1190 -384 -1190 
Q 13 -1190 237 -154 
L 800 2534 
L 218 2534 
L 262 2739 
z
" transform="scale(0.015625)"/>
     </defs>
     <use xlink:href="#STIXGeneral-Italic-49" transform="translate(0 0.703125)"/>
     <use xlink:href="#STIXGeneral-Italic-66" transform="translate(33.299988 -12.525) scale(0.7)"/>
    </g>
   </g>
  </g>
 </g>
 <defs>
  <clipPath id="pb45d453716">
   <rect x="50.966406" y="5.347656" width="287.1" height="267.3"/>
  </clipPath>
 </defs>
</svg>
