<?xml version="1.0" encoding="utf-8" standalone="no"?>
<!DOCTYPE svg PUBLIC "-//W3C//DTD SVG 1.1//EN"
  "http://www.w3.org/Graphics/SVG/1.1/DTD/svg11.dtd">
<svg xmlns:xlink="http://www.w3.org/1999/xlink" width="230.450516pt" height="237.165516pt" viewBox="0 0 230.450516 237.165516" xmlns="http://www.w3.org/2000/svg" version="1.1">
 <metadata>
  <rdf:RDF xmlns:dc="http://purl.org/dc/elements/1.1/" xmlns:cc="http://creativecommons.org/ns#" xmlns:rdf="http://www.w3.org/1999/02/22-rdf-syntax-ns#">
   <cc:Work>
    <dc:type rdf:resource="http://purl.org/dc/dcmitype/StillImage"/>
    <dc:date>2023-03-16T22:06:26.399328</dc:date>
    <dc:format>image/svg+xml</dc:format>
    <dc:creator>
     <cc:Agent>
      <dc:title>Matplotlib v3.5.2, https://matplotlib.org/</dc:title>
     </cc:Agent>
    </dc:creator>
   </cc:Work>
  </rdf:RDF>
 </metadata>
 <defs>
  <style type="text/css">*{stroke-linejoin: round; stroke-linecap: butt}</style>
 </defs>
 <g id="figure_1">
  <g id="patch_1">
   <path d="M 0 237.165516 
L 230.450516 237.165516 
L 230.450516 0 
L 0 0 
L 0 237.165516 
z
" style="fill: none"/>
  </g>
  <g id="axes_1">
   <g id="line2d_1">
    <path d="M 97.790516 104.505516 
L 65.334315 136.961717 
L 70.743682 142.371084 
L 49.106214 164.008552 
L 38.287481 153.189818 
L 59.924948 131.552351 
L 65.334315 136.961717 
M 43.696847 158.599185 
L 11.240646 191.055386 
" clip-path="url(#p8dde902f57)" style="fill: none; stroke: #000000; stroke-width: 2; stroke-linecap: round"/>
   </g>
   <g id="line2d_2">
    <path d="M 97.790516 104.505516 
L 65.334315 72.049315 
L 59.924948 77.458682 
L 38.287481 55.821214 
L 49.106214 45.002481 
L 70.743682 66.639948 
L 65.334315 72.049315 
M 43.696847 50.411847 
L 11.240646 17.955646 
" clip-path="url(#p8dde902f57)" style="fill: none; stroke: #000000; stroke-width: 2; stroke-linecap: round"/>
   </g>
   <g id="line2d_3">
    <path d="M 97.790516 104.505516 
L 130.246717 72.049315 
L 124.837351 66.639948 
L 146.474818 45.002481 
L 157.293552 55.821214 
L 135.656084 77.458682 
L 130.246717 72.049315 
M 151.884185 50.411847 
L 184.340386 17.955646 
" clip-path="url(#p8dde902f57)" style="fill: none; stroke: #000000; stroke-width: 2; stroke-linecap: round"/>
   </g>
   <g id="line2d_4">
    <path d="M 97.790516 104.505516 
L 143.690516 104.505516 
L 143.690516 96.855516 
L 174.290516 96.855516 
L 174.290516 112.155516 
L 143.690516 112.155516 
L 143.690516 104.505516 
M 174.290516 104.505516 
L 220.190516 104.505516 
" clip-path="url(#p8dde902f57)" style="fill: none; stroke: #000000; stroke-width: 2; stroke-linecap: round"/>
   </g>
   <g id="line2d_5">
    <path d="M 97.790516 104.505516 
L 97.790516 150.405516 
L 105.440516 150.405516 
L 105.440516 181.005516 
L 90.140516 181.005516 
L 90.140516 150.405516 
L 97.790516 150.405516 
M 97.790516 181.005516 
L 97.790516 226.905516 
" clip-path="url(#p8dde902f57)" style="fill: none; stroke: #000000; stroke-width: 2; stroke-linecap: round"/>
   </g>
   <g id="line2d_6">
    <path d="M 97.790516 104.505516 
L 65.334315 136.961717 
L 70.743682 142.371084 
L 49.106214 164.008552 
L 38.287481 153.189818 
L 59.924948 131.552351 
L 65.334315 136.961717 
M 43.696847 158.599185 
L 11.240646 191.055386 
" clip-path="url(#p8dde902f57)" style="fill: none; stroke: #000000; stroke-width: 2; stroke-linecap: round"/>
   </g>
   <g id="line2d_7">
    <path d="M 97.790516 104.505516 
L 65.334315 72.049315 
L 59.924948 77.458682 
L 38.287481 55.821214 
L 49.106214 45.002481 
L 70.743682 66.639948 
L 65.334315 72.049315 
M 43.696847 50.411847 
L 11.240646 17.955646 
" clip-path="url(#p8dde902f57)" style="fill: none; stroke: #000000; stroke-width: 2; stroke-linecap: round"/>
   </g>
   <g id="line2d_8">
    <path d="M 97.790516 104.505516 
L 130.246717 72.049315 
L 124.837351 66.639948 
L 146.474818 45.002481 
L 157.293552 55.821214 
L 135.656084 77.458682 
L 130.246717 72.049315 
M 151.884185 50.411847 
L 184.340386 17.955646 
" clip-path="url(#p8dde902f57)" style="fill: none; stroke: #000000; stroke-width: 2; stroke-linecap: round"/>
   </g>
   <g id="line2d_9">
    <path d="M 97.790516 104.505516 
L 143.690516 104.505516 
L 143.690516 96.855516 
L 174.290516 96.855516 
L 174.290516 112.155516 
L 143.690516 112.155516 
L 143.690516 104.505516 
M 174.290516 104.505516 
L 220.190516 104.505516 
" clip-path="url(#p8dde902f57)" style="fill: none; stroke: #000000; stroke-width: 2; stroke-linecap: round"/>
   </g>
   <g id="line2d_10">
    <path d="M 97.790516 104.505516 
L 97.790516 150.405516 
L 105.440516 150.405516 
L 105.440516 181.005516 
L 90.140516 181.005516 
L 90.140516 150.405516 
L 97.790516 150.405516 
M 97.790516 181.005516 
L 97.790516 226.905516 
" clip-path="url(#p8dde902f57)" style="fill: none; stroke: #000000; stroke-width: 2; stroke-linecap: round"/>
   </g>
   <g id="patch_2">
    <path d="M 97.790516 111.390516 
C 99.616439 111.390516 101.367824 110.665069 102.658946 109.373946 
C 103.950069 108.082824 104.675516 106.331439 104.675516 104.505516 
C 104.675516 102.679593 103.950069 100.928209 102.658946 99.637086 
C 101.367824 98.345963 99.616439 97.620516 97.790516 97.620516 
C 95.964593 97.620516 94.213209 98.345963 92.922086 99.637086 
C 91.630963 100.928209 90.905516 102.679593 90.905516 104.505516 
C 90.905516 106.331439 91.630963 108.082824 92.922086 109.373946 
C 94.213209 110.665069 95.964593 111.390516 97.790516 111.390516 
z
" clip-path="url(#p8dde902f57)" style="stroke: #000000; stroke-width: 2; stroke-linejoin: miter"/>
   </g>
   <g id="line2d_11">
    <path d="M 28.55062 173.745412 
L 28.55062 173.745412 
" clip-path="url(#p8dde902f57)" style="fill: none; stroke: #000000; stroke-width: 2; stroke-linecap: round"/>
   </g>
   <g id="patch_3">
    <path d="M 25.305 170.499792 
L 35.04186 167.254172 
L 31.79624 176.991032 
z
" clip-path="url(#p8dde902f57)"/>
   </g>
   <g id="text_1">
    <g clip-path="url(#p8dde902f57)">
     <!-- $I_1$ -->
     <g transform="translate(16.18 161.408942)scale(0.125 -0.125)">
      <defs>
       <path id="STIXGeneral-Italic-49" d="M 2458 4179 
L 2458 4077 
Q 2189 4045 2102 3961 
Q 2016 3878 1933 3584 
L 1165 838 
Q 1069 499 1069 352 
Q 1069 224 1149 179 
Q 1229 134 1510 102 
L 1510 0 
L -51 0 
L -51 102 
Q 218 154 317 237 
Q 416 320 486 582 
L 1254 3405 
Q 1338 3699 1338 3802 
Q 1338 3930 1235 3997 
Q 1133 4064 877 4077 
L 877 4179 
L 2458 4179 
z
" transform="scale(0.015625)"/>
       <path id="STIXGeneral-Regular-31" d="M 2522 0 
L 755 0 
L 755 96 
Q 1107 115 1235 227 
Q 1363 339 1363 608 
L 1363 3482 
Q 1363 3795 1171 3795 
Q 1082 3795 883 3718 
L 710 3654 
L 710 3744 
L 1856 4326 
L 1914 4307 
L 1914 486 
Q 1914 275 2042 185 
Q 2170 96 2522 96 
L 2522 0 
z
" transform="scale(0.015625)"/>
      </defs>
      <use xlink:href="#STIXGeneral-Italic-49" transform="translate(0 0.703125)"/>
      <use xlink:href="#STIXGeneral-Regular-31" transform="translate(33.299988 -12.525)scale(0.7)"/>
     </g>
    </g>
   </g>
   <g id="line2d_12">
    <path d="M 28.55062 35.26562 
L 28.55062 35.26562 
" clip-path="url(#p8dde902f57)" style="fill: none; stroke: #000000; stroke-width: 2; stroke-linecap: round"/>
   </g>
   <g id="patch_4">
    <path d="M 31.79624 32.02 
L 35.04186 41.75686 
L 25.305 38.51124 
z
" clip-path="url(#p8dde902f57)"/>
   </g>
   <g id="text_2">
    <g clip-path="url(#p8dde902f57)">
     <!-- $I_3$ -->
     <g transform="translate(38.287481 29.420391)scale(0.125 -0.125)">
      <defs>
       <path id="STIXGeneral-Regular-33" d="M 390 3264 
L 288 3290 
Q 435 3770 748 4048 
Q 1062 4326 1542 4326 
Q 1990 4326 2265 4083 
Q 2541 3840 2541 3450 
Q 2541 2925 1946 2566 
Q 2298 2413 2477 2227 
Q 2758 1914 2758 1402 
Q 2758 890 2464 506 
Q 2246 211 1840 60 
Q 1434 -90 979 -90 
Q 262 -90 262 275 
Q 262 378 339 442 
Q 416 506 525 506 
Q 685 506 915 339 
Q 1197 141 1466 141 
Q 1818 141 2058 425 
Q 2298 710 2298 1120 
Q 2298 1856 1632 2048 
Q 1434 2112 979 2112 
L 979 2202 
Q 1338 2323 1517 2432 
Q 2035 2726 2035 3290 
Q 2035 3610 1852 3776 
Q 1670 3942 1344 3942 
Q 768 3942 390 3264 
z
" transform="scale(0.015625)"/>
      </defs>
      <use xlink:href="#STIXGeneral-Italic-49" transform="translate(0 0.703125)"/>
      <use xlink:href="#STIXGeneral-Regular-33" transform="translate(33.299988 -12.525)scale(0.7)"/>
     </g>
    </g>
   </g>
   <g id="line2d_13">
    <path d="M 167.030412 35.26562 
L 167.030412 35.26562 
" clip-path="url(#p8dde902f57)" style="fill: none; stroke: #000000; stroke-width: 2; stroke-linecap: round"/>
   </g>
   <g id="patch_5">
    <path d="M 170.276032 38.51124 
L 160.539172 41.75686 
L 163.784792 32.02 
z
" clip-path="url(#p8dde902f57)"/>
   </g>
   <g id="text_3">
    <g clip-path="url(#p8dde902f57)">
     <!-- $I_2$ -->
     <g transform="translate(148.168552 29.420391)scale(0.125 -0.125)">
      <defs>
       <path id="STIXGeneral-Regular-32" d="M 3034 877 
L 2688 0 
L 186 0 
L 186 77 
L 1325 1286 
Q 1773 1754 1965 2144 
Q 2157 2534 2157 2950 
Q 2157 3379 1920 3616 
Q 1683 3853 1267 3853 
Q 922 3853 720 3673 
Q 518 3494 326 3021 
L 192 3053 
Q 301 3648 630 3987 
Q 960 4326 1523 4326 
Q 2054 4326 2380 4006 
Q 2707 3686 2707 3200 
Q 2707 2477 1888 1613 
L 832 486 
L 2330 486 
Q 2541 486 2665 569 
Q 2790 653 2944 915 
L 3034 877 
z
" transform="scale(0.015625)"/>
      </defs>
      <use xlink:href="#STIXGeneral-Italic-49" transform="translate(0 0.703125)"/>
      <use xlink:href="#STIXGeneral-Regular-32" transform="translate(33.299988 -12.525)scale(0.7)"/>
     </g>
    </g>
   </g>
   <g id="line2d_14">
    <path d="M 195.710516 104.505516 
L 195.710516 104.505516 
" clip-path="url(#p8dde902f57)" style="fill: none; stroke: #000000; stroke-width: 2; stroke-linecap: round"/>
   </g>
   <g id="patch_6">
    <path d="M 195.710516 109.095516 
L 186.530516 104.505516 
L 195.710516 99.915516 
z
" clip-path="url(#p8dde902f57)"/>
   </g>
   <g id="text_4">
    <g clip-path="url(#p8dde902f57)">
     <!-- $I_4$ -->
     <g transform="translate(186.558016 92.725907)scale(0.125 -0.125)">
      <defs>
       <path id="STIXGeneral-Regular-34" d="M 3027 1069 
L 2368 1069 
L 2368 0 
L 1869 0 
L 1869 1069 
L 77 1069 
L 77 1478 
L 2086 4326 
L 2368 4326 
L 2368 1478 
L 3027 1478 
L 3027 1069 
z
M 1869 1478 
L 1869 3674 
L 333 1478 
L 1869 1478 
z
" transform="scale(0.015625)"/>
      </defs>
      <use xlink:href="#STIXGeneral-Italic-49" transform="translate(0 0.703125)"/>
      <use xlink:href="#STIXGeneral-Regular-34" transform="translate(33.299988 -12.525)scale(0.7)"/>
     </g>
    </g>
   </g>
   <g id="line2d_15">
    <path d="M 97.790516 193.245516 
L 97.790516 193.245516 
" clip-path="url(#p8dde902f57)" style="fill: none; stroke: #000000; stroke-width: 2; stroke-linecap: round"/>
   </g>
   <g id="patch_7">
    <path d="M 102.380516 193.245516 
L 97.790516 202.425516 
L 93.200516 193.245516 
z
" clip-path="url(#p8dde902f57)"/>
   </g>
   <g id="text_5">
    <g clip-path="url(#p8dde902f57)">
     <!-- $I_5$ -->
     <g transform="translate(79.485516 201.284735)scale(0.125 -0.125)">
      <defs>
       <path id="STIXGeneral-Regular-35" d="M 2803 4358 
L 2573 3814 
Q 2534 3731 2400 3731 
L 1158 3731 
L 902 3187 
Q 1606 3053 1920 2896 
Q 2234 2739 2502 2368 
Q 2726 2061 2726 1555 
Q 2726 1094 2576 780 
Q 2426 467 2099 224 
Q 1664 -90 1011 -90 
Q 646 -90 422 19 
Q 198 128 198 307 
Q 198 550 486 550 
Q 717 550 960 352 
Q 1210 147 1414 147 
Q 1747 147 2012 480 
Q 2278 813 2278 1229 
Q 2278 1843 1850 2189 
Q 1293 2637 486 2637 
Q 410 2637 410 2688 
L 416 2720 
L 1114 4237 
L 2438 4237 
Q 2547 4237 2608 4269 
Q 2669 4301 2746 4403 
L 2803 4358 
z
" transform="scale(0.015625)"/>
      </defs>
      <use xlink:href="#STIXGeneral-Italic-49" transform="translate(0 0.703125)"/>
      <use xlink:href="#STIXGeneral-Regular-35" transform="translate(33.299988 -12.525)scale(0.7)"/>
     </g>
    </g>
   </g>
   <g id="patch_8">
    <path d="M 97.790516 111.390516 
C 99.616439 111.390516 101.367824 110.665069 102.658946 109.373946 
C 103.950069 108.082824 104.675516 106.331439 104.675516 104.505516 
C 104.675516 102.679593 103.950069 100.928209 102.658946 99.637086 
C 101.367824 98.345963 99.616439 97.620516 97.790516 97.620516 
C 95.964593 97.620516 94.213209 98.345963 92.922086 99.637086 
C 91.630963 100.928209 90.905516 102.679593 90.905516 104.505516 
C 90.905516 106.331439 91.630963 108.082824 92.922086 109.373946 
C 94.213209 110.665069 95.964593 111.390516 97.790516 111.390516 
z
" clip-path="url(#p8dde902f57)" style="stroke: #000000; stroke-width: 2; stroke-linejoin: miter"/>
   </g>
   <g id="line2d_16">
    <path d="M 28.55062 173.745412 
L 28.55062 173.745412 
" clip-path="url(#p8dde902f57)" style="fill: none; stroke: #000000; stroke-width: 2; stroke-linecap: round"/>
   </g>
   <g id="patch_9">
    <path d="M 25.305 170.499792 
L 35.04186 167.254172 
L 31.79624 176.991032 
z
" clip-path="url(#p8dde902f57)"/>
   </g>
   <g id="text_6">
    <g clip-path="url(#p8dde902f57)">
     <!-- $I_1$ -->
     <g transform="translate(16.18 161.408942)scale(0.125 -0.125)">
      <use xlink:href="#STIXGeneral-Italic-49" transform="translate(0 0.703125)"/>
      <use xlink:href="#STIXGeneral-Regular-31" transform="translate(33.299988 -12.525)scale(0.7)"/>
     </g>
    </g>
   </g>
   <g id="line2d_17">
    <path d="M 28.55062 35.26562 
L 28.55062 35.26562 
" clip-path="url(#p8dde902f57)" style="fill: none; stroke: #000000; stroke-width: 2; stroke-linecap: round"/>
   </g>
   <g id="patch_10">
    <path d="M 31.79624 32.02 
L 35.04186 41.75686 
L 25.305 38.51124 
z
" clip-path="url(#p8dde902f57)"/>
   </g>
   <g id="text_7">
    <g clip-path="url(#p8dde902f57)">
     <!-- $I_3$ -->
     <g transform="translate(38.287481 29.420391)scale(0.125 -0.125)">
      <use xlink:href="#STIXGeneral-Italic-49" transform="translate(0 0.703125)"/>
      <use xlink:href="#STIXGeneral-Regular-33" transform="translate(33.299988 -12.525)scale(0.7)"/>
     </g>
    </g>
   </g>
   <g id="line2d_18">
    <path d="M 167.030412 35.26562 
L 167.030412 35.26562 
" clip-path="url(#p8dde902f57)" style="fill: none; stroke: #000000; stroke-width: 2; stroke-linecap: round"/>
   </g>
   <g id="patch_11">
    <path d="M 170.276032 38.51124 
L 160.539172 41.75686 
L 163.784792 32.02 
z
" clip-path="url(#p8dde902f57)"/>
   </g>
   <g id="text_8">
    <g clip-path="url(#p8dde902f57)">
     <!-- $I_2$ -->
     <g transform="translate(148.168552 29.420391)scale(0.125 -0.125)">
      <use xlink:href="#STIXGeneral-Italic-49" transform="translate(0 0.703125)"/>
      <use xlink:href="#STIXGeneral-Regular-32" transform="translate(33.299988 -12.525)scale(0.7)"/>
     </g>
    </g>
   </g>
   <g id="line2d_19">
    <path d="M 195.710516 104.505516 
L 195.710516 104.505516 
" clip-path="url(#p8dde902f57)" style="fill: none; stroke: #000000; stroke-width: 2; stroke-linecap: round"/>
   </g>
   <g id="patch_12">
    <path d="M 195.710516 109.095516 
L 186.530516 104.505516 
L 195.710516 99.915516 
z
" clip-path="url(#p8dde902f57)"/>
   </g>
   <g id="text_9">
    <g clip-path="url(#p8dde902f57)">
     <!-- $I_4$ -->
     <g transform="translate(186.558016 92.725907)scale(0.125 -0.125)">
      <use xlink:href="#STIXGeneral-Italic-49" transform="translate(0 0.703125)"/>
      <use xlink:href="#STIXGeneral-Regular-34" transform="translate(33.299988 -12.525)scale(0.7)"/>
     </g>
    </g>
   </g>
   <g id="line2d_20">
    <path d="M 97.790516 193.245516 
L 97.790516 193.245516 
" clip-path="url(#p8dde902f57)" style="fill: none; stroke: #000000; stroke-width: 2; stroke-linecap: round"/>
   </g>
   <g id="patch_13">
    <path d="M 102.380516 193.245516 
L 97.790516 202.425516 
L 93.200516 193.245516 
z
" clip-path="url(#p8dde902f57)"/>
   </g>
   <g id="text_10">
    <g clip-path="url(#p8dde902f57)">
     <!-- $I_5$ -->
     <g transform="translate(79.485516 201.284735)scale(0.125 -0.125)">
      <use xlink:href="#STIXGeneral-Italic-49" transform="translate(0 0.703125)"/>
      <use xlink:href="#STIXGeneral-Regular-35" transform="translate(33.299988 -12.525)scale(0.7)"/>
     </g>
    </g>
   </g>
  </g>
 </g>
 <defs>
  <clipPath id="p8dde902f57">
   <rect x="7.2" y="7.2" width="216.050516" height="222.765516"/>
  </clipPath>
 </defs>
</svg>
