<?xml version="1.0" encoding="utf-8" standalone="no"?>
<!DOCTYPE svg PUBLIC "-//W3C//DTD SVG 1.1//EN"
  "http://www.w3.org/Graphics/SVG/1.1/DTD/svg11.dtd">
<svg xmlns:xlink="http://www.w3.org/1999/xlink" width="273.174pt" height="257.585pt" viewBox="0 0 273.174 257.585" xmlns="http://www.w3.org/2000/svg" version="1.1">
 <metadata>
  <rdf:RDF xmlns:dc="http://purl.org/dc/elements/1.1/" xmlns:cc="http://creativecommons.org/ns#" xmlns:rdf="http://www.w3.org/1999/02/22-rdf-syntax-ns#">
   <cc:Work>
    <dc:type rdf:resource="http://purl.org/dc/dcmitype/StillImage"/>
    <dc:date>2023-03-16T22:06:25.294052</dc:date>
    <dc:format>image/svg+xml</dc:format>
    <dc:creator>
     <cc:Agent>
      <dc:title>Matplotlib v3.5.2, https://matplotlib.org/</dc:title>
     </cc:Agent>
    </dc:creator>
   </cc:Work>
  </rdf:RDF>
 </metadata>
 <defs>
  <style type="text/css">*{stroke-linejoin: round; stroke-linecap: butt}</style>
 </defs>
 <g id="figure_1">
  <g id="patch_1">
   <path d="M 0 257.585 
L 273.174 257.585 
L 273.174 0 
L 0 0 
L 0 257.585 
z
" style="fill: none"/>
  </g>
  <g id="axes_1">
   <g id="line2d_1">
    <path d="M 53.7222 226.33 
L 53.7222 149.83 
L 46.0722 149.83 
L 46.0722 119.23 
L 61.3722 119.23 
L 61.3722 149.83 
L 53.7222 149.83 
M 53.7222 119.23 
L 53.7222 42.73 
" clip-path="url(#pa1e845c9d4)" style="fill: none; stroke: #000000; stroke-width: 2; stroke-linecap: round"/>
   </g>
   <g id="line2d_2">
    <path d="M 53.7222 42.73 
L 130.2222 42.73 
L 130.2222 35.08 
L 160.8222 35.08 
L 160.8222 50.38 
L 130.2222 50.38 
L 130.2222 42.73 
M 160.8222 42.73 
L 237.3222 42.73 
" clip-path="url(#pa1e845c9d4)" style="fill: none; stroke: #000000; stroke-width: 2; stroke-linecap: round"/>
   </g>
   <g id="line2d_3">
    <path d="M 237.3222 42.73 
L 237.3222 73.33 
L 244.9722 73.33 
L 244.9722 103.93 
L 229.6722 103.93 
L 229.6722 73.33 
L 237.3222 73.33 
M 237.3222 103.93 
L 237.3222 134.53 
" clip-path="url(#pa1e845c9d4)" style="fill: none; stroke: #000000; stroke-width: 2; stroke-linecap: round"/>
   </g>
   <g id="line2d_4">
    <path d="M 237.3222 134.53 
L 237.3222 165.13 
L 244.9722 165.13 
L 244.9722 195.73 
L 229.6722 195.73 
L 229.6722 165.13 
L 237.3222 165.13 
M 237.3222 195.73 
L 237.3222 226.33 
" clip-path="url(#pa1e845c9d4)" style="fill: none; stroke: #000000; stroke-width: 2; stroke-linecap: round"/>
   </g>
   <g id="line2d_5">
    <path d="M 237.3222 226.33 
L 160.8222 226.33 
L 160.8222 233.98 
L 130.2222 233.98 
L 130.2222 218.68 
L 160.8222 218.68 
L 160.8222 226.33 
M 130.2222 226.33 
L 53.7222 226.33 
" clip-path="url(#pa1e845c9d4)" style="fill: none; stroke: #000000; stroke-width: 2; stroke-linecap: round"/>
   </g>
   <g id="line2d_6">
    <path d="M 229.6722 218.68 
L 143.12233 132.13013 
L 61.981827 50.989627 
" clip-path="url(#pa1e845c9d4)" style="fill: none; stroke: #d3d3d3; stroke-width: 2; stroke-linecap: round"/>
   </g>
   <g id="patch_2">
    <path d="M 60.359017 52.612437 
L 56.57246 45.58026 
L 63.604637 49.366817 
z
" clip-path="url(#pa1e845c9d4)" style="fill: #d3d3d3"/>
   </g>
   <g id="line2d_7">
    <path d="M 53.7222 226.33 
L 53.7222 149.83 
L 46.0722 149.83 
L 46.0722 119.23 
L 61.3722 119.23 
L 61.3722 149.83 
L 53.7222 149.83 
M 53.7222 119.23 
L 53.7222 42.73 
" clip-path="url(#pa1e845c9d4)" style="fill: none; stroke: #000000; stroke-width: 2; stroke-linecap: round"/>
   </g>
   <g id="line2d_8">
    <path d="M 53.7222 42.73 
L 130.2222 42.73 
L 130.2222 35.08 
L 160.8222 35.08 
L 160.8222 50.38 
L 130.2222 50.38 
L 130.2222 42.73 
M 160.8222 42.73 
L 237.3222 42.73 
" clip-path="url(#pa1e845c9d4)" style="fill: none; stroke: #000000; stroke-width: 2; stroke-linecap: round"/>
   </g>
   <g id="line2d_9">
    <path d="M 237.3222 42.73 
L 237.3222 73.33 
L 244.9722 73.33 
L 244.9722 103.93 
L 229.6722 103.93 
L 229.6722 73.33 
L 237.3222 73.33 
M 237.3222 103.93 
L 237.3222 134.53 
" clip-path="url(#pa1e845c9d4)" style="fill: none; stroke: #000000; stroke-width: 2; stroke-linecap: round"/>
   </g>
   <g id="line2d_10">
    <path d="M 237.3222 134.53 
L 237.3222 165.13 
L 244.9722 165.13 
L 244.9722 195.73 
L 229.6722 195.73 
L 229.6722 165.13 
L 237.3222 165.13 
M 237.3222 195.73 
L 237.3222 226.33 
" clip-path="url(#pa1e845c9d4)" style="fill: none; stroke: #000000; stroke-width: 2; stroke-linecap: round"/>
   </g>
   <g id="line2d_11">
    <path d="M 237.3222 226.33 
L 160.8222 226.33 
L 160.8222 233.98 
L 130.2222 233.98 
L 130.2222 218.68 
L 160.8222 218.68 
L 160.8222 226.33 
M 130.2222 226.33 
L 53.7222 226.33 
" clip-path="url(#pa1e845c9d4)" style="fill: none; stroke: #000000; stroke-width: 2; stroke-linecap: round"/>
   </g>
   <g id="line2d_12">
    <path d="M 229.6722 218.68 
L 143.12233 132.13013 
L 61.981827 50.989627 
" clip-path="url(#pa1e845c9d4)" style="fill: none; stroke: #d3d3d3; stroke-width: 2; stroke-linecap: round"/>
   </g>
   <g id="patch_3">
    <path d="M 60.359017 52.612437 
L 56.57246 45.58026 
L 63.604637 49.366817 
z
" clip-path="url(#pa1e845c9d4)" style="fill: #d3d3d3"/>
   </g>
   <g id="text_1">
    <g clip-path="url(#pa1e845c9d4)">
     <!-- - -->
     <g transform="translate(38.502434 183.879219)scale(0.125 -0.125)">
      <defs>
       <path id="DejaVuSans-2d" d="M 313 2009 
L 1997 2009 
L 1997 1497 
L 313 1497 
L 313 2009 
z
" transform="scale(0.015625)"/>
      </defs>
      <use xlink:href="#DejaVuSans-2d"/>
     </g>
    </g>
   </g>
   <g id="text_2">
    <g clip-path="url(#pa1e845c9d4)">
     <!-- $V_{AE}$ -->
     <g transform="translate(24.0122 137.979219)scale(0.125 -0.125)">
      <defs>
       <path id="STIXGeneral-Italic-56" d="M 4403 4179 
L 4403 4077 
Q 4198 4070 4045 3821 
L 1658 -115 
L 1536 -115 
L 1011 3104 
Q 902 3776 828 3910 
Q 755 4045 486 4077 
L 486 4179 
L 2022 4179 
L 2022 4077 
Q 1722 4045 1629 3981 
Q 1536 3917 1536 3750 
Q 1536 3686 1542 3654 
L 1958 819 
L 3302 3123 
Q 3616 3661 3616 3859 
Q 3616 4032 3219 4077 
L 3219 4179 
L 4403 4179 
z
" transform="scale(0.015625)"/>
       <path id="STIXGeneral-Italic-41" d="M 3610 0 
L 2042 0 
L 2042 102 
Q 2330 115 2432 192 
Q 2534 269 2534 442 
Q 2534 493 2522 608 
L 2394 1446 
L 986 1446 
L 608 736 
Q 467 474 467 314 
Q 467 122 864 102 
L 864 0 
L -326 0 
L -326 102 
Q -109 147 28 307 
Q 166 467 531 1101 
L 2355 4275 
L 2522 4275 
L 3110 736 
Q 3174 339 3264 230 
Q 3354 122 3610 102 
L 3610 0 
z
M 2362 1677 
L 2074 3360 
L 1120 1677 
L 2362 1677 
z
" transform="scale(0.015625)"/>
       <path id="STIXGeneral-Italic-45" d="M 4058 4179 
L 3859 3194 
L 3718 3206 
Q 3738 3366 3738 3501 
Q 3738 3789 3501 3878 
Q 3264 3968 2509 3968 
Q 2240 3968 2157 3939 
Q 2074 3910 2042 3802 
L 1619 2310 
L 2118 2310 
Q 2541 2310 2681 2412 
Q 2822 2515 3008 2931 
L 3123 2906 
L 2688 1421 
L 2560 1453 
Q 2605 1651 2605 1786 
Q 2605 1939 2560 1984 
Q 2451 2080 2061 2080 
L 1562 2080 
L 1357 1363 
Q 1126 550 1126 429 
Q 1126 211 1632 211 
Q 2458 211 2931 461 
Q 3174 589 3533 1088 
L 3635 1037 
L 3238 0 
L -6 0 
L -6 102 
Q 269 154 352 227 
Q 435 301 512 576 
L 1299 3405 
Q 1370 3642 1370 3814 
Q 1370 3942 1270 3996 
Q 1171 4051 877 4077 
L 877 4179 
L 4058 4179 
z
" transform="scale(0.015625)"/>
      </defs>
      <use xlink:href="#STIXGeneral-Italic-56" transform="translate(0 0.703125)"/>
      <use xlink:href="#STIXGeneral-Italic-41" transform="translate(61.099991 -12.525)scale(0.7)"/>
      <use xlink:href="#STIXGeneral-Italic-45" transform="translate(103.869984 -12.525)scale(0.7)"/>
     </g>
    </g>
   </g>
   <g id="text_3">
    <g clip-path="url(#pa1e845c9d4)">
     <!-- + -->
     <g transform="translate(32.537591 92.079219)scale(0.125 -0.125)">
      <defs>
       <path id="DejaVuSans-2b" d="M 2944 4013 
L 2944 2272 
L 4684 2272 
L 4684 1741 
L 2944 1741 
L 2944 0 
L 2419 0 
L 2419 1741 
L 678 1741 
L 678 2272 
L 2419 2272 
L 2419 4013 
L 2944 4013 
z
" transform="scale(0.015625)"/>
      </defs>
      <use xlink:href="#DejaVuSans-2b"/>
     </g>
    </g>
   </g>
   <g id="text_4">
    <g clip-path="url(#pa1e845c9d4)">
     <!-- + -->
     <g transform="translate(94.384895 29.420391)scale(0.125 -0.125)">
      <use xlink:href="#DejaVuSans-2b"/>
     </g>
    </g>
   </g>
   <g id="text_5">
    <g clip-path="url(#pa1e845c9d4)">
     <!-- $V_{AB}$ -->
     <g transform="translate(136.0222 29.420391)scale(0.125 -0.125)">
      <defs>
       <path id="STIXGeneral-Italic-42" d="M 832 4179 
L 2432 4179 
Q 3763 4179 3763 3219 
Q 3763 2771 3354 2496 
Q 3136 2349 2643 2246 
L 2643 2240 
Q 3450 1997 3450 1280 
Q 3450 653 2973 326 
Q 2496 0 1690 0 
L -51 0 
L -51 102 
Q 211 141 304 230 
Q 397 320 480 614 
L 1254 3405 
Q 1325 3654 1325 3814 
Q 1325 3955 1229 4003 
Q 1133 4051 832 4077 
L 832 4179 
z
M 1587 2323 
L 1830 2323 
Q 2458 2323 2787 2572 
Q 3117 2822 3117 3296 
Q 3117 3654 2937 3820 
Q 2758 3987 2368 3987 
Q 2221 3987 2166 3977 
Q 2112 3968 2067 3920 
Q 2022 3872 1990 3757 
L 1587 2323 
z
M 1523 2118 
L 1318 1357 
Q 1094 506 1094 461 
Q 1094 192 1523 192 
Q 2086 192 2422 473 
Q 2758 755 2758 1280 
Q 2758 1568 2636 1773 
Q 2515 1978 2330 2042 
Q 2112 2118 1523 2118 
z
" transform="scale(0.015625)"/>
      </defs>
      <use xlink:href="#STIXGeneral-Italic-56" transform="translate(0 0.703125)"/>
      <use xlink:href="#STIXGeneral-Italic-41" transform="translate(61.099991 -12.525)scale(0.7)"/>
      <use xlink:href="#STIXGeneral-Italic-42" transform="translate(103.869984 -12.525)scale(0.7)"/>
     </g>
    </g>
   </g>
   <g id="text_6">
    <g clip-path="url(#pa1e845c9d4)">
     <!-- - -->
     <g transform="translate(189.167317 29.420391)scale(0.125 -0.125)">
      <use xlink:href="#DejaVuSans-2d"/>
     </g>
    </g>
   </g>
   <g id="text_7">
    <g clip-path="url(#pa1e845c9d4)">
     <!-- + -->
     <g transform="translate(216.137591 69.129219)scale(0.125 -0.125)">
      <use xlink:href="#DejaVuSans-2b"/>
     </g>
    </g>
   </g>
   <g id="text_8">
    <g clip-path="url(#pa1e845c9d4)">
     <!-- $V_{BC}$ -->
     <g transform="translate(207.2372 92.079219)scale(0.125 -0.125)">
      <defs>
       <path id="STIXGeneral-Italic-43" d="M 4410 4250 
L 4173 2970 
L 4058 2989 
Q 3942 4032 3104 4032 
Q 2406 4032 1830 3411 
Q 1491 3053 1315 2541 
Q 1139 2029 1139 1485 
Q 1139 173 2259 173 
Q 2656 173 2985 339 
Q 3315 506 3725 934 
L 3840 838 
Q 3411 333 2998 109 
Q 2586 -115 2093 -115 
Q 1344 -115 883 329 
Q 422 774 422 1555 
Q 422 2214 748 2812 
Q 1075 3411 1619 3795 
Q 2272 4262 3021 4262 
Q 3462 4262 3770 4154 
Q 3898 4109 4032 4109 
Q 4205 4109 4275 4250 
L 4410 4250 
z
" transform="scale(0.015625)"/>
      </defs>
      <use xlink:href="#STIXGeneral-Italic-56" transform="translate(0 0.703125)"/>
      <use xlink:href="#STIXGeneral-Italic-42" transform="translate(61.099991 -12.525)scale(0.7)"/>
      <use xlink:href="#STIXGeneral-Italic-43" transform="translate(103.869984 -12.525)scale(0.7)"/>
     </g>
    </g>
   </g>
   <g id="text_9">
    <g clip-path="url(#pa1e845c9d4)">
     <!-- - -->
     <g transform="translate(222.102434 115.029219)scale(0.125 -0.125)">
      <use xlink:href="#DejaVuSans-2d"/>
     </g>
    </g>
   </g>
   <g id="text_10">
    <g clip-path="url(#pa1e845c9d4)">
     <!-- + -->
     <g transform="translate(216.137591 160.929219)scale(0.125 -0.125)">
      <use xlink:href="#DejaVuSans-2b"/>
     </g>
    </g>
   </g>
   <g id="text_11">
    <g clip-path="url(#pa1e845c9d4)">
     <!-- $V_{CD}$ -->
     <g transform="translate(206.2372 183.879219)scale(0.125 -0.125)">
      <defs>
       <path id="STIXGeneral-Italic-44" d="M 838 4179 
L 2611 4179 
Q 3469 4179 3974 3731 
Q 4480 3283 4480 2458 
Q 4480 1325 3456 531 
Q 2778 0 1594 0 
L -51 0 
L -51 102 
Q 224 154 310 230 
Q 397 307 474 589 
L 1254 3437 
Q 1325 3686 1325 3814 
Q 1325 3949 1222 4009 
Q 1120 4070 838 4077 
L 838 4179 
z
M 1984 3738 
L 1229 1037 
Q 1088 525 1088 429 
Q 1088 192 1523 192 
Q 2470 192 3066 768 
Q 3398 1088 3584 1597 
Q 3770 2106 3770 2611 
Q 3770 3386 3270 3763 
Q 2970 3987 2432 3987 
Q 2227 3987 2128 3939 
Q 2029 3891 1984 3738 
z
" transform="scale(0.015625)"/>
      </defs>
      <use xlink:href="#STIXGeneral-Italic-56" transform="translate(0 0.703125)"/>
      <use xlink:href="#STIXGeneral-Italic-43" transform="translate(61.099991 -12.525)scale(0.7)"/>
      <use xlink:href="#STIXGeneral-Italic-44" transform="translate(107.789989 -12.525)scale(0.7)"/>
     </g>
    </g>
   </g>
   <g id="text_12">
    <g clip-path="url(#pa1e845c9d4)">
     <!-- - -->
     <g transform="translate(222.102434 206.829219)scale(0.125 -0.125)">
      <use xlink:href="#DejaVuSans-2d"/>
     </g>
    </g>
   </g>
   <g id="text_13">
    <g clip-path="url(#pa1e845c9d4)">
     <!-- + -->
     <g transform="translate(186.184895 213.020391)scale(0.125 -0.125)">
      <use xlink:href="#DejaVuSans-2b"/>
     </g>
    </g>
   </g>
   <g id="text_14">
    <g clip-path="url(#pa1e845c9d4)">
     <!-- $V_{DE}$ -->
     <g transform="translate(135.5847 213.020391)scale(0.125 -0.125)">
      <use xlink:href="#STIXGeneral-Italic-56" transform="translate(0 0.703125)"/>
      <use xlink:href="#STIXGeneral-Italic-44" transform="translate(61.099991 -12.525)scale(0.7)"/>
      <use xlink:href="#STIXGeneral-Italic-45" transform="translate(111.639978 -12.525)scale(0.7)"/>
     </g>
    </g>
   </g>
   <g id="text_15">
    <g clip-path="url(#pa1e845c9d4)">
     <!-- - -->
     <g transform="translate(97.367317 213.020391)scale(0.125 -0.125)">
      <use xlink:href="#DejaVuSans-2d"/>
     </g>
    </g>
   </g>
   <g id="text_16">
    <g clip-path="url(#pa1e845c9d4)">
     <!-- - -->
     <g style="fill: #d3d3d3" transform="translate(188.561012 170.641709)scale(0.125 -0.125)">
      <use xlink:href="#DejaVuSans-2d"/>
     </g>
    </g>
   </g>
   <g id="text_17">
    <g clip-path="url(#pa1e845c9d4)">
     <!-- $V_{AD}$ -->
     <g style="fill: #d3d3d3" transform="translate(145.286077 127.366774)scale(0.125 -0.125)">
      <use xlink:href="#STIXGeneral-Italic-56" transform="translate(0 0.703125)"/>
      <use xlink:href="#STIXGeneral-Italic-41" transform="translate(61.099991 -12.525)scale(0.7)"/>
      <use xlink:href="#STIXGeneral-Italic-44" transform="translate(103.869984 -12.525)scale(0.7)"/>
     </g>
    </g>
   </g>
   <g id="text_18">
    <g clip-path="url(#pa1e845c9d4)">
     <!-- + -->
     <g style="fill: #d3d3d3" transform="translate(102.011142 84.091839)scale(0.125 -0.125)">
      <use xlink:href="#DejaVuSans-2b"/>
     </g>
    </g>
   </g>
   <g id="text_19">
    <g clip-path="url(#pa1e845c9d4)">
     <!-- - -->
     <g transform="translate(38.502434 183.879219)scale(0.125 -0.125)">
      <use xlink:href="#DejaVuSans-2d"/>
     </g>
    </g>
   </g>
   <g id="text_20">
    <g clip-path="url(#pa1e845c9d4)">
     <!-- $V_{AE}$ -->
     <g transform="translate(24.0122 137.979219)scale(0.125 -0.125)">
      <use xlink:href="#STIXGeneral-Italic-56" transform="translate(0 0.703125)"/>
      <use xlink:href="#STIXGeneral-Italic-41" transform="translate(61.099991 -12.525)scale(0.7)"/>
      <use xlink:href="#STIXGeneral-Italic-45" transform="translate(103.869984 -12.525)scale(0.7)"/>
     </g>
    </g>
   </g>
   <g id="text_21">
    <g clip-path="url(#pa1e845c9d4)">
     <!-- + -->
     <g transform="translate(32.537591 92.079219)scale(0.125 -0.125)">
      <use xlink:href="#DejaVuSans-2b"/>
     </g>
    </g>
   </g>
   <g id="text_22">
    <g clip-path="url(#pa1e845c9d4)">
     <!-- + -->
     <g transform="translate(94.384895 29.420391)scale(0.125 -0.125)">
      <use xlink:href="#DejaVuSans-2b"/>
     </g>
    </g>
   </g>
   <g id="text_23">
    <g clip-path="url(#pa1e845c9d4)">
     <!-- $V_{AB}$ -->
     <g transform="translate(136.0222 29.420391)scale(0.125 -0.125)">
      <use xlink:href="#STIXGeneral-Italic-56" transform="translate(0 0.703125)"/>
      <use xlink:href="#STIXGeneral-Italic-41" transform="translate(61.099991 -12.525)scale(0.7)"/>
      <use xlink:href="#STIXGeneral-Italic-42" transform="translate(103.869984 -12.525)scale(0.7)"/>
     </g>
    </g>
   </g>
   <g id="text_24">
    <g clip-path="url(#pa1e845c9d4)">
     <!-- - -->
     <g transform="translate(189.167317 29.420391)scale(0.125 -0.125)">
      <use xlink:href="#DejaVuSans-2d"/>
     </g>
    </g>
   </g>
   <g id="text_25">
    <g clip-path="url(#pa1e845c9d4)">
     <!-- + -->
     <g transform="translate(216.137591 69.129219)scale(0.125 -0.125)">
      <use xlink:href="#DejaVuSans-2b"/>
     </g>
    </g>
   </g>
   <g id="text_26">
    <g clip-path="url(#pa1e845c9d4)">
     <!-- $V_{BC}$ -->
     <g transform="translate(207.2372 92.079219)scale(0.125 -0.125)">
      <use xlink:href="#STIXGeneral-Italic-56" transform="translate(0 0.703125)"/>
      <use xlink:href="#STIXGeneral-Italic-42" transform="translate(61.099991 -12.525)scale(0.7)"/>
      <use xlink:href="#STIXGeneral-Italic-43" transform="translate(103.869984 -12.525)scale(0.7)"/>
     </g>
    </g>
   </g>
   <g id="text_27">
    <g clip-path="url(#pa1e845c9d4)">
     <!-- - -->
     <g transform="translate(222.102434 115.029219)scale(0.125 -0.125)">
      <use xlink:href="#DejaVuSans-2d"/>
     </g>
    </g>
   </g>
   <g id="text_28">
    <g clip-path="url(#pa1e845c9d4)">
     <!-- + -->
     <g transform="translate(216.137591 160.929219)scale(0.125 -0.125)">
      <use xlink:href="#DejaVuSans-2b"/>
     </g>
    </g>
   </g>
   <g id="text_29">
    <g clip-path="url(#pa1e845c9d4)">
     <!-- $V_{CD}$ -->
     <g transform="translate(206.2372 183.879219)scale(0.125 -0.125)">
      <use xlink:href="#STIXGeneral-Italic-56" transform="translate(0 0.703125)"/>
      <use xlink:href="#STIXGeneral-Italic-43" transform="translate(61.099991 -12.525)scale(0.7)"/>
      <use xlink:href="#STIXGeneral-Italic-44" transform="translate(107.789989 -12.525)scale(0.7)"/>
     </g>
    </g>
   </g>
   <g id="text_30">
    <g clip-path="url(#pa1e845c9d4)">
     <!-- - -->
     <g transform="translate(222.102434 206.829219)scale(0.125 -0.125)">
      <use xlink:href="#DejaVuSans-2d"/>
     </g>
    </g>
   </g>
   <g id="text_31">
    <g clip-path="url(#pa1e845c9d4)">
     <!-- + -->
     <g transform="translate(186.184895 213.020391)scale(0.125 -0.125)">
      <use xlink:href="#DejaVuSans-2b"/>
     </g>
    </g>
   </g>
   <g id="text_32">
    <g clip-path="url(#pa1e845c9d4)">
     <!-- $V_{DE}$ -->
     <g transform="translate(135.5847 213.020391)scale(0.125 -0.125)">
      <use xlink:href="#STIXGeneral-Italic-56" transform="translate(0 0.703125)"/>
      <use xlink:href="#STIXGeneral-Italic-44" transform="translate(61.099991 -12.525)scale(0.7)"/>
      <use xlink:href="#STIXGeneral-Italic-45" transform="translate(111.639978 -12.525)scale(0.7)"/>
     </g>
    </g>
   </g>
   <g id="text_33">
    <g clip-path="url(#pa1e845c9d4)">
     <!-- - -->
     <g transform="translate(97.367317 213.020391)scale(0.125 -0.125)">
      <use xlink:href="#DejaVuSans-2d"/>
     </g>
    </g>
   </g>
   <g id="text_34">
    <g clip-path="url(#pa1e845c9d4)">
     <!-- - -->
     <g style="fill: #d3d3d3" transform="translate(188.561012 170.641709)scale(0.125 -0.125)">
      <use xlink:href="#DejaVuSans-2d"/>
     </g>
    </g>
   </g>
   <g id="text_35">
    <g clip-path="url(#pa1e845c9d4)">
     <!-- $V_{AD}$ -->
     <g style="fill: #d3d3d3" transform="translate(145.286077 127.366774)scale(0.125 -0.125)">
      <use xlink:href="#STIXGeneral-Italic-56" transform="translate(0 0.703125)"/>
      <use xlink:href="#STIXGeneral-Italic-41" transform="translate(61.099991 -12.525)scale(0.7)"/>
      <use xlink:href="#STIXGeneral-Italic-44" transform="translate(103.869984 -12.525)scale(0.7)"/>
     </g>
    </g>
   </g>
   <g id="text_36">
    <g clip-path="url(#pa1e845c9d4)">
     <!-- + -->
     <g style="fill: #d3d3d3" transform="translate(102.011142 84.091839)scale(0.125 -0.125)">
      <use xlink:href="#DejaVuSans-2b"/>
     </g>
    </g>
   </g>
   <g id="patch_4">
    <path d="M 53.7222 228.625 
C 54.330841 228.625 54.914636 228.383184 55.34501 227.95281 
C 55.775384 227.522436 56.0172 226.938641 56.0172 226.33 
C 56.0172 225.721359 55.775384 225.137564 55.34501 224.70719 
C 54.914636 224.276816 54.330841 224.035 53.7222 224.035 
C 53.113559 224.035 52.529764 224.276816 52.09939 224.70719 
C 51.669016 225.137564 51.4272 225.721359 51.4272 226.33 
C 51.4272 226.938641 51.669016 227.522436 52.09939 227.95281 
C 52.529764 228.383184 53.113559 228.625 53.7222 228.625 
z
" clip-path="url(#pa1e845c9d4)" style="stroke: #000000; stroke-width: 2; stroke-linejoin: miter"/>
   </g>
   <g id="text_37">
    <g clip-path="url(#pa1e845c9d4)">
     <!-- E -->
     <g transform="translate(49.772981 241.183047)scale(0.125 -0.125)">
      <defs>
       <path id="DejaVuSans-45" d="M 628 4666 
L 3578 4666 
L 3578 4134 
L 1259 4134 
L 1259 2753 
L 3481 2753 
L 3481 2222 
L 1259 2222 
L 1259 531 
L 3634 531 
L 3634 0 
L 628 0 
L 628 4666 
z
" transform="scale(0.015625)"/>
      </defs>
      <use xlink:href="#DejaVuSans-45"/>
     </g>
    </g>
   </g>
   <g id="patch_5">
    <path d="M 53.7222 45.025 
C 54.330841 45.025 54.914636 44.783184 55.34501 44.35281 
C 55.775384 43.922436 56.0172 43.338641 56.0172 42.73 
C 56.0172 42.121359 55.775384 41.537564 55.34501 41.10719 
C 54.914636 40.676816 54.330841 40.435 53.7222 40.435 
C 53.113559 40.435 52.529764 40.676816 52.09939 41.10719 
C 51.669016 41.537564 51.4272 42.121359 51.4272 42.73 
C 51.4272 43.338641 51.669016 43.922436 52.09939 44.35281 
C 52.529764 44.783184 53.113559 45.025 53.7222 45.025 
z
" clip-path="url(#pa1e845c9d4)" style="stroke: #000000; stroke-width: 2; stroke-linejoin: miter"/>
   </g>
   <g id="text_38">
    <g clip-path="url(#pa1e845c9d4)">
     <!-- A -->
     <g transform="translate(49.446809 34.775391)scale(0.125 -0.125)">
      <defs>
       <path id="DejaVuSans-41" d="M 2188 4044 
L 1331 1722 
L 3047 1722 
L 2188 4044 
z
M 1831 4666 
L 2547 4666 
L 4325 0 
L 3669 0 
L 3244 1197 
L 1141 1197 
L 716 0 
L 50 0 
L 1831 4666 
z
" transform="scale(0.015625)"/>
      </defs>
      <use xlink:href="#DejaVuSans-41"/>
     </g>
    </g>
   </g>
   <g id="patch_6">
    <path d="M 237.3222 45.025 
C 237.930841 45.025 238.514636 44.783184 238.94501 44.35281 
C 239.375384 43.922436 239.6172 43.338641 239.6172 42.73 
C 239.6172 42.121359 239.375384 41.537564 238.94501 41.10719 
C 238.514636 40.676816 237.930841 40.435 237.3222 40.435 
C 236.713559 40.435 236.129764 40.676816 235.69939 41.10719 
C 235.269016 41.537564 235.0272 42.121359 235.0272 42.73 
C 235.0272 43.338641 235.269016 43.922436 235.69939 44.35281 
C 236.129764 44.783184 236.713559 45.025 237.3222 45.025 
z
" clip-path="url(#pa1e845c9d4)" style="stroke: #000000; stroke-width: 2; stroke-linejoin: miter"/>
   </g>
   <g id="text_39">
    <g clip-path="url(#pa1e845c9d4)">
     <!-- B -->
     <g transform="translate(233.034114 34.775391)scale(0.125 -0.125)">
      <defs>
       <path id="DejaVuSans-42" d="M 1259 2228 
L 1259 519 
L 2272 519 
Q 2781 519 3026 730 
Q 3272 941 3272 1375 
Q 3272 1813 3026 2020 
Q 2781 2228 2272 2228 
L 1259 2228 
z
M 1259 4147 
L 1259 2741 
L 2194 2741 
Q 2656 2741 2882 2914 
Q 3109 3088 3109 3444 
Q 3109 3797 2882 3972 
Q 2656 4147 2194 4147 
L 1259 4147 
z
M 628 4666 
L 2241 4666 
Q 2963 4666 3353 4366 
Q 3744 4066 3744 3513 
Q 3744 3084 3544 2831 
Q 3344 2578 2956 2516 
Q 3422 2416 3680 2098 
Q 3938 1781 3938 1306 
Q 3938 681 3513 340 
Q 3088 0 2303 0 
L 628 0 
L 628 4666 
z
" transform="scale(0.015625)"/>
      </defs>
      <use xlink:href="#DejaVuSans-42"/>
     </g>
    </g>
   </g>
   <g id="patch_7">
    <path d="M 237.3222 136.825 
C 237.930841 136.825 238.514636 136.583184 238.94501 136.15281 
C 239.375384 135.722436 239.6172 135.138641 239.6172 134.53 
C 239.6172 133.921359 239.375384 133.337564 238.94501 132.90719 
C 238.514636 132.476816 237.930841 132.235 237.3222 132.235 
C 236.713559 132.235 236.129764 132.476816 235.69939 132.90719 
C 235.269016 133.337564 235.0272 133.921359 235.0272 134.53 
C 235.0272 135.138641 235.269016 135.722436 235.69939 136.15281 
C 236.129764 136.583184 236.713559 136.825 237.3222 136.825 
z
" clip-path="url(#pa1e845c9d4)" style="stroke: #000000; stroke-width: 2; stroke-linejoin: miter"/>
   </g>
   <g id="text_40">
    <g clip-path="url(#pa1e845c9d4)">
     <!-- C -->
     <g transform="translate(242.6772 137.979219)scale(0.125 -0.125)">
      <defs>
       <path id="DejaVuSans-43" d="M 4122 4306 
L 4122 3641 
Q 3803 3938 3442 4084 
Q 3081 4231 2675 4231 
Q 1875 4231 1450 3742 
Q 1025 3253 1025 2328 
Q 1025 1406 1450 917 
Q 1875 428 2675 428 
Q 3081 428 3442 575 
Q 3803 722 4122 1019 
L 4122 359 
Q 3791 134 3420 21 
Q 3050 -91 2638 -91 
Q 1578 -91 968 557 
Q 359 1206 359 2328 
Q 359 3453 968 4101 
Q 1578 4750 2638 4750 
Q 3056 4750 3426 4639 
Q 3797 4528 4122 4306 
z
" transform="scale(0.015625)"/>
      </defs>
      <use xlink:href="#DejaVuSans-43"/>
     </g>
    </g>
   </g>
   <g id="patch_8">
    <path d="M 237.3222 228.625 
C 237.930841 228.625 238.514636 228.383184 238.94501 227.95281 
C 239.375384 227.522436 239.6172 226.938641 239.6172 226.33 
C 239.6172 225.721359 239.375384 225.137564 238.94501 224.70719 
C 238.514636 224.276816 237.930841 224.035 237.3222 224.035 
C 236.713559 224.035 236.129764 224.276816 235.69939 224.70719 
C 235.269016 225.137564 235.0272 225.721359 235.0272 226.33 
C 235.0272 226.938641 235.269016 227.522436 235.69939 227.95281 
C 236.129764 228.383184 236.713559 228.625 237.3222 228.625 
z
" clip-path="url(#pa1e845c9d4)" style="stroke: #000000; stroke-width: 2; stroke-linejoin: miter"/>
   </g>
   <g id="text_41">
    <g clip-path="url(#pa1e845c9d4)">
     <!-- D -->
     <g transform="translate(232.5097 241.183047)scale(0.125 -0.125)">
      <defs>
       <path id="DejaVuSans-44" d="M 1259 4147 
L 1259 519 
L 2022 519 
Q 2988 519 3436 956 
Q 3884 1394 3884 2338 
Q 3884 3275 3436 3711 
Q 2988 4147 2022 4147 
L 1259 4147 
z
M 628 4666 
L 1925 4666 
Q 3281 4666 3915 4102 
Q 4550 3538 4550 2338 
Q 4550 1131 3912 565 
Q 3275 0 1925 0 
L 628 0 
L 628 4666 
z
" transform="scale(0.015625)"/>
      </defs>
      <use xlink:href="#DejaVuSans-44"/>
     </g>
    </g>
   </g>
   <g id="patch_9">
    <path d="M 53.7222 228.625 
C 54.330841 228.625 54.914636 228.383184 55.34501 227.95281 
C 55.775384 227.522436 56.0172 226.938641 56.0172 226.33 
C 56.0172 225.721359 55.775384 225.137564 55.34501 224.70719 
C 54.914636 224.276816 54.330841 224.035 53.7222 224.035 
C 53.113559 224.035 52.529764 224.276816 52.09939 224.70719 
C 51.669016 225.137564 51.4272 225.721359 51.4272 226.33 
C 51.4272 226.938641 51.669016 227.522436 52.09939 227.95281 
C 52.529764 228.383184 53.113559 228.625 53.7222 228.625 
z
" clip-path="url(#pa1e845c9d4)" style="stroke: #000000; stroke-width: 2; stroke-linejoin: miter"/>
   </g>
   <g id="text_42">
    <g clip-path="url(#pa1e845c9d4)">
     <!-- E -->
     <g transform="translate(49.772981 241.183047)scale(0.125 -0.125)">
      <use xlink:href="#DejaVuSans-45"/>
     </g>
    </g>
   </g>
   <g id="patch_10">
    <path d="M 53.7222 45.025 
C 54.330841 45.025 54.914636 44.783184 55.34501 44.35281 
C 55.775384 43.922436 56.0172 43.338641 56.0172 42.73 
C 56.0172 42.121359 55.775384 41.537564 55.34501 41.10719 
C 54.914636 40.676816 54.330841 40.435 53.7222 40.435 
C 53.113559 40.435 52.529764 40.676816 52.09939 41.10719 
C 51.669016 41.537564 51.4272 42.121359 51.4272 42.73 
C 51.4272 43.338641 51.669016 43.922436 52.09939 44.35281 
C 52.529764 44.783184 53.113559 45.025 53.7222 45.025 
z
" clip-path="url(#pa1e845c9d4)" style="stroke: #000000; stroke-width: 2; stroke-linejoin: miter"/>
   </g>
   <g id="text_43">
    <g clip-path="url(#pa1e845c9d4)">
     <!-- A -->
     <g transform="translate(49.446809 34.775391)scale(0.125 -0.125)">
      <use xlink:href="#DejaVuSans-41"/>
     </g>
    </g>
   </g>
   <g id="patch_11">
    <path d="M 237.3222 45.025 
C 237.930841 45.025 238.514636 44.783184 238.94501 44.35281 
C 239.375384 43.922436 239.6172 43.338641 239.6172 42.73 
C 239.6172 42.121359 239.375384 41.537564 238.94501 41.10719 
C 238.514636 40.676816 237.930841 40.435 237.3222 40.435 
C 236.713559 40.435 236.129764 40.676816 235.69939 41.10719 
C 235.269016 41.537564 235.0272 42.121359 235.0272 42.73 
C 235.0272 43.338641 235.269016 43.922436 235.69939 44.35281 
C 236.129764 44.783184 236.713559 45.025 237.3222 45.025 
z
" clip-path="url(#pa1e845c9d4)" style="stroke: #000000; stroke-width: 2; stroke-linejoin: miter"/>
   </g>
   <g id="text_44">
    <g clip-path="url(#pa1e845c9d4)">
     <!-- B -->
     <g transform="translate(233.034114 34.775391)scale(0.125 -0.125)">
      <use xlink:href="#DejaVuSans-42"/>
     </g>
    </g>
   </g>
   <g id="patch_12">
    <path d="M 237.3222 136.825 
C 237.930841 136.825 238.514636 136.583184 238.94501 136.15281 
C 239.375384 135.722436 239.6172 135.138641 239.6172 134.53 
C 239.6172 133.921359 239.375384 133.337564 238.94501 132.90719 
C 238.514636 132.476816 237.930841 132.235 237.3222 132.235 
C 236.713559 132.235 236.129764 132.476816 235.69939 132.90719 
C 235.269016 133.337564 235.0272 133.921359 235.0272 134.53 
C 235.0272 135.138641 235.269016 135.722436 235.69939 136.15281 
C 236.129764 136.583184 236.713559 136.825 237.3222 136.825 
z
" clip-path="url(#pa1e845c9d4)" style="stroke: #000000; stroke-width: 2; stroke-linejoin: miter"/>
   </g>
   <g id="text_45">
    <g clip-path="url(#pa1e845c9d4)">
     <!-- C -->
     <g transform="translate(242.6772 137.979219)scale(0.125 -0.125)">
      <use xlink:href="#DejaVuSans-43"/>
     </g>
    </g>
   </g>
   <g id="patch_13">
    <path d="M 237.3222 228.625 
C 237.930841 228.625 238.514636 228.383184 238.94501 227.95281 
C 239.375384 227.522436 239.6172 226.938641 239.6172 226.33 
C 239.6172 225.721359 239.375384 225.137564 238.94501 224.70719 
C 238.514636 224.276816 237.930841 224.035 237.3222 224.035 
C 236.713559 224.035 236.129764 224.276816 235.69939 224.70719 
C 235.269016 225.137564 235.0272 225.721359 235.0272 226.33 
C 235.0272 226.938641 235.269016 227.522436 235.69939 227.95281 
C 236.129764 228.383184 236.713559 228.625 237.3222 228.625 
z
" clip-path="url(#pa1e845c9d4)" style="stroke: #000000; stroke-width: 2; stroke-linejoin: miter"/>
   </g>
   <g id="text_46">
    <g clip-path="url(#pa1e845c9d4)">
     <!-- D -->
     <g transform="translate(232.5097 241.183047)scale(0.125 -0.125)">
      <use xlink:href="#DejaVuSans-44"/>
     </g>
    </g>
   </g>
  </g>
 </g>
 <defs>
  <clipPath id="pa1e845c9d4">
   <rect x="7.2" y="7.2" width="258.774" height="243.185"/>
  </clipPath>
 </defs>
</svg>
