<?xml version="1.0" encoding="utf-8" standalone="no"?>
<!DOCTYPE svg PUBLIC "-//W3C//DTD SVG 1.1//EN"
  "http://www.w3.org/Graphics/SVG/1.1/DTD/svg11.dtd">
<svg xmlns:xlink="http://www.w3.org/1999/xlink" width="492.3pt" height="63.036pt" viewBox="0 0 492.3 63.036" xmlns="http://www.w3.org/2000/svg" version="1.1">
 <metadata>
  <rdf:RDF xmlns:dc="http://purl.org/dc/elements/1.1/" xmlns:cc="http://creativecommons.org/ns#" xmlns:rdf="http://www.w3.org/1999/02/22-rdf-syntax-ns#">
   <cc:Work>
    <dc:type rdf:resource="http://purl.org/dc/dcmitype/StillImage"/>
    <dc:date>2024-03-15T17:35:43.182273</dc:date>
    <dc:format>image/svg+xml</dc:format>
    <dc:creator>
     <cc:Agent>
      <dc:title>Matplotlib v3.8.2, https://matplotlib.org/</dc:title>
     </cc:Agent>
    </dc:creator>
   </cc:Work>
  </rdf:RDF>
 </metadata>
 <defs>
  <style type="text/css">*{stroke-linejoin: round; stroke-linecap: butt}</style>
 </defs>
 <g id="figure_1">
  <g id="patch_1">
   <path d="M 0 63.036 
L 492.3 63.036 
L 492.3 0 
L 0 0 
L 0 63.036 
z
" style="fill: none"/>
  </g>
  <g id="axes_1">
   <g id="patch_2">
    <path d="M 30.15 36.018 
C 31.343414 36.018 32.488109 35.543852 33.331981 34.699981 
C 34.175852 33.856109 34.65 32.711414 34.65 31.518 
C 34.65 30.324586 34.175852 29.179891 33.331981 28.336019 
C 32.488109 27.492148 31.343414 27.018 30.15 27.018 
C 28.956586 27.018 27.811891 27.492148 26.968019 28.336019 
C 26.124148 29.179891 25.65 30.324586 25.65 31.518 
C 25.65 32.711414 26.124148 33.856109 26.968019 34.699981 
C 27.811891 35.543852 28.956586 36.018 30.15 36.018 
L 30.15 36.018 
z
" clip-path="url(#p1648aeb105)" style="fill: none; stroke: #000000; stroke-width: 2; stroke-linejoin: miter"/>
   </g>
   <g id="patch_3">
    <path d="M 246.15 36.018 
C 247.343414 36.018 248.488109 35.543852 249.331981 34.699981 
C 250.175852 33.856109 250.65 32.711414 250.65 31.518 
C 250.65 30.324586 250.175852 29.179891 249.331981 28.336019 
C 248.488109 27.492148 247.343414 27.018 246.15 27.018 
C 244.956586 27.018 243.811891 27.492148 242.968019 28.336019 
C 242.124148 29.179891 241.65 30.324586 241.65 31.518 
C 241.65 32.711414 242.124148 33.856109 242.968019 34.699981 
C 243.811891 35.543852 244.956586 36.018 246.15 36.018 
L 246.15 36.018 
z
" clip-path="url(#p1648aeb105)" style="fill: none; stroke: #000000; stroke-width: 2; stroke-linejoin: miter"/>
   </g>
   <g id="patch_4">
    <path d="M 462.15 36.018 
C 463.343414 36.018 464.488109 35.543852 465.331981 34.699981 
C 466.175852 33.856109 466.65 32.711414 466.65 31.518 
C 466.65 30.324586 466.175852 29.179891 465.331981 28.336019 
C 464.488109 27.492148 463.343414 27.018 462.15 27.018 
C 460.956586 27.018 459.811891 27.492148 458.968019 28.336019 
C 458.124148 29.179891 457.65 30.324586 457.65 31.518 
C 457.65 32.711414 458.124148 33.856109 458.968019 34.699981 
C 459.811891 35.543852 460.956586 36.018 462.15 36.018 
L 462.15 36.018 
z
" clip-path="url(#p1648aeb105)" style="fill: none; stroke: #000000; stroke-width: 2; stroke-linejoin: miter"/>
   </g>
   <g id="line2d_1">
    <path d="M 30.15 36.018 
L 30.15 56.898 
" clip-path="url(#p1648aeb105)" style="fill: none; stroke: #000000; stroke-width: 2; stroke-linecap: round"/>
   </g>
   <g id="line2d_2">
    <path d="M 246.15 36.018 
L 246.15 56.898 
" clip-path="url(#p1648aeb105)" style="fill: none; stroke: #000000; stroke-width: 2; stroke-linecap: round"/>
   </g>
   <g id="line2d_3">
    <path d="M 462.15 27.018 
L 462.15 6.138 
" clip-path="url(#p1648aeb105)" style="fill: none; stroke: #000000; stroke-width: 2; stroke-linecap: round"/>
   </g>
   <g id="text_1">
    <!-- $+5 V$ -->
    <g transform="translate(18.9 20.818391) scale(0.125 -0.125)">
     <defs>
      <path id="STIXGeneral-Regular-2b" d="M 4070 1408 
L 2400 1408 
L 2400 -262 
L 1978 -262 
L 1978 1408 
L 307 1408 
L 307 1830 
L 1978 1830 
L 1978 3501 
L 2400 3501 
L 2400 1830 
L 4070 1830 
L 4070 1408 
z
" transform="scale(0.015625)"/>
      <path id="STIXGeneral-Regular-35" d="M 2803 4358 
L 2573 3814 
Q 2534 3731 2400 3731 
L 1158 3731 
L 902 3187 
Q 1606 3053 1920 2896 
Q 2234 2739 2502 2368 
Q 2726 2061 2726 1555 
Q 2726 1094 2576 780 
Q 2426 467 2099 224 
Q 1664 -90 1011 -90 
Q 646 -90 422 19 
Q 198 128 198 307 
Q 198 550 486 550 
Q 717 550 960 352 
Q 1210 147 1414 147 
Q 1747 147 2012 480 
Q 2278 813 2278 1229 
Q 2278 1843 1850 2189 
Q 1293 2637 486 2637 
Q 410 2637 410 2688 
L 416 2720 
L 1114 4237 
L 2438 4237 
Q 2547 4237 2608 4269 
Q 2669 4301 2746 4403 
L 2803 4358 
z
" transform="scale(0.015625)"/>
      <path id="STIXGeneral-Italic-56" d="M 4403 4179 
L 4403 4077 
Q 4198 4070 4045 3821 
L 1658 -115 
L 1536 -115 
L 1011 3104 
Q 902 3776 828 3910 
Q 755 4045 486 4077 
L 486 4179 
L 2022 4179 
L 2022 4077 
Q 1722 4045 1629 3981 
Q 1536 3917 1536 3750 
Q 1536 3686 1542 3654 
L 1958 819 
L 3302 3123 
Q 3616 3661 3616 3859 
Q 3616 4032 3219 4077 
L 3219 4179 
L 4403 4179 
z
" transform="scale(0.015625)"/>
     </defs>
     <use xlink:href="#STIXGeneral-Regular-2b" transform="translate(0 0.203125)"/>
     <use xlink:href="#STIXGeneral-Regular-35" transform="translate(68.499985 0.203125)"/>
     <use xlink:href="#STIXGeneral-Italic-56" transform="translate(118.499969 0.203125)"/>
    </g>
   </g>
   <g id="text_2">
    <!-- $+12 V$ -->
    <g transform="translate(231.775 20.818391) scale(0.125 -0.125)">
     <defs>
      <path id="STIXGeneral-Regular-31" d="M 2522 0 
L 755 0 
L 755 96 
Q 1107 115 1235 227 
Q 1363 339 1363 608 
L 1363 3482 
Q 1363 3795 1171 3795 
Q 1082 3795 883 3718 
L 710 3654 
L 710 3744 
L 1856 4326 
L 1914 4307 
L 1914 486 
Q 1914 275 2042 185 
Q 2170 96 2522 96 
L 2522 0 
z
" transform="scale(0.015625)"/>
      <path id="STIXGeneral-Regular-32" d="M 3034 877 
L 2688 0 
L 186 0 
L 186 77 
L 1325 1286 
Q 1773 1754 1965 2144 
Q 2157 2534 2157 2950 
Q 2157 3379 1920 3616 
Q 1683 3853 1267 3853 
Q 922 3853 720 3673 
Q 518 3494 326 3021 
L 192 3053 
Q 301 3648 630 3987 
Q 960 4326 1523 4326 
Q 2054 4326 2380 4006 
Q 2707 3686 2707 3200 
Q 2707 2477 1888 1613 
L 832 486 
L 2330 486 
Q 2541 486 2665 569 
Q 2790 653 2944 915 
L 3034 877 
z
" transform="scale(0.015625)"/>
     </defs>
     <use xlink:href="#STIXGeneral-Regular-2b" transform="translate(0 0.40625)"/>
     <use xlink:href="#STIXGeneral-Regular-31" transform="translate(68.499985 0.40625)"/>
     <use xlink:href="#STIXGeneral-Regular-32" transform="translate(118.499969 0.40625)"/>
     <use xlink:href="#STIXGeneral-Italic-56" transform="translate(168.499954 0.40625)"/>
    </g>
   </g>
   <g id="text_3">
    <!-- $-12 V$ -->
    <g transform="translate(447.775 49.116047) scale(0.125 -0.125)">
     <defs>
      <path id="STIXGeneral-Regular-2212" d="M 3974 1408 
L 410 1408 
L 410 1830 
L 3974 1830 
L 3974 1408 
z
" transform="scale(0.015625)"/>
     </defs>
     <use xlink:href="#STIXGeneral-Regular-2212" transform="translate(0 0.40625)"/>
     <use xlink:href="#STIXGeneral-Regular-31" transform="translate(68.499985 0.40625)"/>
     <use xlink:href="#STIXGeneral-Regular-32" transform="translate(118.499969 0.40625)"/>
     <use xlink:href="#STIXGeneral-Italic-56" transform="translate(168.499954 0.40625)"/>
    </g>
   </g>
  </g>
 </g>
 <defs>
  <clipPath id="p1648aeb105">
   <rect x="3.6" y="3.6" width="485.1" height="55.836"/>
  </clipPath>
 </defs>
</svg>
