<?xml version="1.0" encoding="utf-8" standalone="no"?>
<!DOCTYPE svg PUBLIC "-//W3C//DTD SVG 1.1//EN"
  "http://www.w3.org/Graphics/SVG/1.1/DTD/svg11.dtd">
<svg xmlns:xlink="http://www.w3.org/1999/xlink" width="321.7923pt" height="182.428pt" viewBox="0 0 321.7923 182.428" xmlns="http://www.w3.org/2000/svg" version="1.1">
 <metadata>
  <rdf:RDF xmlns:dc="http://purl.org/dc/elements/1.1/" xmlns:cc="http://creativecommons.org/ns#" xmlns:rdf="http://www.w3.org/1999/02/22-rdf-syntax-ns#">
   <cc:Work>
    <dc:type rdf:resource="http://purl.org/dc/dcmitype/StillImage"/>
    <dc:date>2023-06-27T11:49:53.259047</dc:date>
    <dc:format>image/svg+xml</dc:format>
    <dc:creator>
     <cc:Agent>
      <dc:title>Matplotlib v3.5.2, https://matplotlib.org/</dc:title>
     </cc:Agent>
    </dc:creator>
   </cc:Work>
  </rdf:RDF>
 </metadata>
 <defs>
  <style type="text/css">*{stroke-linejoin: round; stroke-linecap: butt}</style>
 </defs>
 <g id="figure_1">
  <g id="patch_1">
   <path d="M 0 182.428 
L 321.7923 182.428 
L 321.7923 0 
L 0 0 
L 0 182.428 
z
" style="fill: none"/>
  </g>
  <g id="axes_1">
   <g id="patch_2">
    <path d="M 28.4823 42.73 
C 29.496702 42.73 30.469693 42.326974 31.186983 41.609683 
C 31.904274 40.892393 32.3073 39.919402 32.3073 38.905 
C 32.3073 37.890598 31.904274 36.917607 31.186983 36.200317 
C 30.469693 35.483026 29.496702 35.08 28.4823 35.08 
C 27.467898 35.08 26.494907 35.483026 25.777617 36.200317 
C 25.060326 36.917607 24.6573 37.890598 24.6573 38.905 
C 24.6573 39.919402 25.060326 40.892393 25.777617 41.609683 
C 26.494907 42.326974 27.467898 42.73 28.4823 42.73 
L 28.4823 42.73 
z
" clip-path="url(#pc8e48e61cd)" style="fill: none; stroke: #000000; stroke-width: 2; stroke-linejoin: miter"/>
   </g>
   <g id="patch_3">
    <path d="M 212.0823 121.678 
C 216.139907 121.678 220.031872 120.065895 222.901034 117.196734 
C 225.770195 114.327572 227.3823 110.435607 227.3823 106.378 
C 227.3823 102.320393 225.770195 98.428428 222.901034 95.559266 
C 220.031872 92.690105 216.139907 91.078 212.0823 91.078 
C 208.024693 91.078 204.132728 92.690105 201.263566 95.559266 
C 198.394405 98.428428 196.7823 102.320393 196.7823 106.378 
C 196.7823 110.435607 198.394405 114.327572 201.263566 117.196734 
C 204.132728 120.065895 208.024693 121.678 212.0823 121.678 
L 212.0823 121.678 
z
" clip-path="url(#pc8e48e61cd)" style="fill: none; stroke: #000000; stroke-width: 2; stroke-linejoin: miter"/>
   </g>
   <g id="patch_4">
    <path d="M 28.4823 42.73 
C 29.496702 42.73 30.469693 42.326974 31.186983 41.609683 
C 31.904274 40.892393 32.3073 39.919402 32.3073 38.905 
C 32.3073 37.890598 31.904274 36.917607 31.186983 36.200317 
C 30.469693 35.483026 29.496702 35.08 28.4823 35.08 
C 27.467898 35.08 26.494907 35.483026 25.777617 36.200317 
C 25.060326 36.917607 24.6573 37.890598 24.6573 38.905 
C 24.6573 39.919402 25.060326 40.892393 25.777617 41.609683 
C 26.494907 42.326974 27.467898 42.73 28.4823 42.73 
L 28.4823 42.73 
z
" clip-path="url(#pc8e48e61cd)" style="fill: none; stroke: #000000; stroke-width: 2; stroke-linejoin: miter"/>
   </g>
   <g id="patch_5">
    <path d="M 212.0823 121.678 
C 216.139907 121.678 220.031872 120.065895 222.901034 117.196734 
C 225.770195 114.327572 227.3823 110.435607 227.3823 106.378 
C 227.3823 102.320393 225.770195 98.428428 222.901034 95.559266 
C 220.031872 92.690105 216.139907 91.078 212.0823 91.078 
C 208.024693 91.078 204.132728 92.690105 201.263566 95.559266 
C 198.394405 98.428428 196.7823 102.320393 196.7823 106.378 
C 196.7823 110.435607 198.394405 114.327572 201.263566 117.196734 
C 204.132728 120.065895 208.024693 121.678 212.0823 121.678 
L 212.0823 121.678 
z
" clip-path="url(#pc8e48e61cd)" style="fill: none; stroke: #000000; stroke-width: 2; stroke-linejoin: miter"/>
   </g>
   <g id="line2d_1">
    <path d="M 28.4823 42.73 
L 28.4823 60.478 
" clip-path="url(#pc8e48e61cd)" style="fill: none; stroke: #000000; stroke-width: 2; stroke-linecap: round"/>
   </g>
   <g id="line2d_2">
    <path d="M 28.4823 60.478 
L 28.4823 91.078 
L 36.1323 93.628 
L 20.8323 98.728 
L 36.1323 103.828 
L 20.8323 108.928 
L 36.1323 114.028 
L 20.8323 119.128 
L 28.4823 121.678 
L 28.4823 152.278 
" clip-path="url(#pc8e48e61cd)" style="fill: none; stroke: #000000; stroke-width: 2; stroke-linecap: round"/>
   </g>
   <g id="line2d_3">
    <path d="M 28.4823 152.278 
L 28.4823 164.518 
L 20.8323 164.518 
L 28.4823 172.168 
L 36.1323 164.518 
L 28.4823 164.518 
" clip-path="url(#pc8e48e61cd)" style="fill: none; stroke: #000000; stroke-width: 2; stroke-linecap: round"/>
   </g>
   <g id="line2d_4">
    <path d="M 212.0823 152.278 
L 212.0823 121.678 
L 212.0823 121.678 
M 212.0823 91.078 
L 212.0823 91.078 
L 212.0823 60.478 
" clip-path="url(#pc8e48e61cd)" style="fill: none; stroke: #000000; stroke-width: 2; stroke-linecap: round"/>
   </g>
   <g id="line2d_5">
    <path d="M 215.1423 114.028 
L 209.0223 114.028 
" clip-path="url(#pc8e48e61cd)" style="fill: none; stroke: #000000; stroke-width: 2; stroke-linecap: round"/>
   </g>
   <g id="line2d_6">
    <path d="M 212.0823 101.788 
L 212.0823 95.668 
" clip-path="url(#pc8e48e61cd)" style="fill: none; stroke: #000000; stroke-width: 2; stroke-linecap: round"/>
   </g>
   <g id="line2d_7">
    <path d="M 215.1423 98.728 
L 209.0223 98.728 
" clip-path="url(#pc8e48e61cd)" style="fill: none; stroke: #000000; stroke-width: 2; stroke-linecap: round"/>
   </g>
   <g id="line2d_8">
    <path d="M 212.0823 60.478 
L 257.9823 60.478 
L 303.8823 60.478 
" clip-path="url(#pc8e48e61cd)" style="fill: none; stroke: #000000; stroke-width: 2; stroke-linecap: round"/>
   </g>
   <g id="line2d_9">
    <path d="M 212.0823 152.278 
L 212.0823 164.518 
L 204.4323 164.518 
L 212.0823 172.168 
L 219.7323 164.518 
L 212.0823 164.518 
" clip-path="url(#pc8e48e61cd)" style="fill: none; stroke: #000000; stroke-width: 2; stroke-linecap: round"/>
   </g>
   <g id="line2d_10">
    <path d="M 212.0823 152.278 
L 257.9823 152.278 
L 303.8823 152.278 
" clip-path="url(#pc8e48e61cd)" style="fill: none; stroke: #000000; stroke-width: 2; stroke-linecap: round"/>
   </g>
   <g id="line2d_11">
    <path d="M 303.8823 60.478 
L 303.8823 91.078 
L 311.5323 93.628 
L 296.2323 98.728 
L 311.5323 103.828 
L 296.2323 108.928 
L 311.5323 114.028 
L 296.2323 119.128 
L 303.8823 121.678 
L 303.8823 152.278 
" clip-path="url(#pc8e48e61cd)" style="fill: none; stroke: #000000; stroke-width: 2; stroke-linecap: round"/>
   </g>
   <g id="line2d_12">
    <path d="M 28.4823 42.73 
L 28.4823 60.478 
" clip-path="url(#pc8e48e61cd)" style="fill: none; stroke: #000000; stroke-width: 2; stroke-linecap: round"/>
   </g>
   <g id="line2d_13">
    <path d="M 28.4823 60.478 
L 28.4823 91.078 
L 36.1323 93.628 
L 20.8323 98.728 
L 36.1323 103.828 
L 20.8323 108.928 
L 36.1323 114.028 
L 20.8323 119.128 
L 28.4823 121.678 
L 28.4823 152.278 
" clip-path="url(#pc8e48e61cd)" style="fill: none; stroke: #000000; stroke-width: 2; stroke-linecap: round"/>
   </g>
   <g id="line2d_14">
    <path d="M 28.4823 152.278 
L 28.4823 164.518 
L 20.8323 164.518 
L 28.4823 172.168 
L 36.1323 164.518 
L 28.4823 164.518 
" clip-path="url(#pc8e48e61cd)" style="fill: none; stroke: #000000; stroke-width: 2; stroke-linecap: round"/>
   </g>
   <g id="line2d_15">
    <path d="M 212.0823 152.278 
L 212.0823 121.678 
L 212.0823 121.678 
M 212.0823 91.078 
L 212.0823 91.078 
L 212.0823 60.478 
" clip-path="url(#pc8e48e61cd)" style="fill: none; stroke: #000000; stroke-width: 2; stroke-linecap: round"/>
   </g>
   <g id="line2d_16">
    <path d="M 215.1423 114.028 
L 209.0223 114.028 
" clip-path="url(#pc8e48e61cd)" style="fill: none; stroke: #000000; stroke-width: 2; stroke-linecap: round"/>
   </g>
   <g id="line2d_17">
    <path d="M 212.0823 101.788 
L 212.0823 95.668 
" clip-path="url(#pc8e48e61cd)" style="fill: none; stroke: #000000; stroke-width: 2; stroke-linecap: round"/>
   </g>
   <g id="line2d_18">
    <path d="M 215.1423 98.728 
L 209.0223 98.728 
" clip-path="url(#pc8e48e61cd)" style="fill: none; stroke: #000000; stroke-width: 2; stroke-linecap: round"/>
   </g>
   <g id="line2d_19">
    <path d="M 212.0823 60.478 
L 257.9823 60.478 
L 303.8823 60.478 
" clip-path="url(#pc8e48e61cd)" style="fill: none; stroke: #000000; stroke-width: 2; stroke-linecap: round"/>
   </g>
   <g id="line2d_20">
    <path d="M 212.0823 152.278 
L 212.0823 164.518 
L 204.4323 164.518 
L 212.0823 172.168 
L 219.7323 164.518 
L 212.0823 164.518 
" clip-path="url(#pc8e48e61cd)" style="fill: none; stroke: #000000; stroke-width: 2; stroke-linecap: round"/>
   </g>
   <g id="line2d_21">
    <path d="M 212.0823 152.278 
L 257.9823 152.278 
L 303.8823 152.278 
" clip-path="url(#pc8e48e61cd)" style="fill: none; stroke: #000000; stroke-width: 2; stroke-linecap: round"/>
   </g>
   <g id="line2d_22">
    <path d="M 303.8823 60.478 
L 303.8823 91.078 
L 311.5323 93.628 
L 296.2323 98.728 
L 311.5323 103.828 
L 296.2323 108.928 
L 311.5323 114.028 
L 296.2323 119.128 
L 303.8823 121.678 
L 303.8823 152.278 
" clip-path="url(#pc8e48e61cd)" style="fill: none; stroke: #000000; stroke-width: 2; stroke-linecap: round"/>
   </g>
   <g id="text_1">
    <g clip-path="url(#pc8e48e61cd)">
     <!-- $+5 V$ -->
     <g transform="translate(17.2323 29.420391)scale(0.125 -0.125)">
      <defs>
       <path id="STIXGeneral-Regular-2b" d="M 4070 1408 
L 2400 1408 
L 2400 -262 
L 1978 -262 
L 1978 1408 
L 307 1408 
L 307 1830 
L 1978 1830 
L 1978 3501 
L 2400 3501 
L 2400 1830 
L 4070 1830 
L 4070 1408 
z
" transform="scale(0.015625)"/>
       <path id="STIXGeneral-Regular-35" d="M 2803 4358 
L 2573 3814 
Q 2534 3731 2400 3731 
L 1158 3731 
L 902 3187 
Q 1606 3053 1920 2896 
Q 2234 2739 2502 2368 
Q 2726 2061 2726 1555 
Q 2726 1094 2576 780 
Q 2426 467 2099 224 
Q 1664 -90 1011 -90 
Q 646 -90 422 19 
Q 198 128 198 307 
Q 198 550 486 550 
Q 717 550 960 352 
Q 1210 147 1414 147 
Q 1747 147 2012 480 
Q 2278 813 2278 1229 
Q 2278 1843 1850 2189 
Q 1293 2637 486 2637 
Q 410 2637 410 2688 
L 416 2720 
L 1114 4237 
L 2438 4237 
Q 2547 4237 2608 4269 
Q 2669 4301 2746 4403 
L 2803 4358 
z
" transform="scale(0.015625)"/>
       <path id="STIXGeneral-Italic-56" d="M 4403 4179 
L 4403 4077 
Q 4198 4070 4045 3821 
L 1658 -115 
L 1536 -115 
L 1011 3104 
Q 902 3776 828 3910 
Q 755 4045 486 4077 
L 486 4179 
L 2022 4179 
L 2022 4077 
Q 1722 4045 1629 3981 
Q 1536 3917 1536 3750 
Q 1536 3686 1542 3654 
L 1958 819 
L 3302 3123 
Q 3616 3661 3616 3859 
Q 3616 4032 3219 4077 
L 3219 4179 
L 4403 4179 
z
" transform="scale(0.015625)"/>
      </defs>
      <use xlink:href="#STIXGeneral-Regular-2b" transform="translate(0 0.203125)"/>
      <use xlink:href="#STIXGeneral-Regular-35" transform="translate(68.499985 0.203125)"/>
      <use xlink:href="#STIXGeneral-Italic-56" transform="translate(118.499969 0.203125)"/>
     </g>
    </g>
   </g>
   <g id="text_2">
    <g clip-path="url(#pc8e48e61cd)">
     <!-- $5 V$ -->
     <g transform="translate(179.7223 109.827219)scale(0.125 -0.125)">
      <use xlink:href="#STIXGeneral-Regular-35" transform="translate(0 0.203125)"/>
      <use xlink:href="#STIXGeneral-Italic-56" transform="translate(49.999985 0.203125)"/>
     </g>
    </g>
   </g>
   <g id="text_3">
    <g clip-path="url(#pc8e48e61cd)">
     <!-- $+5 V$ -->
     <g transform="translate(17.2323 29.420391)scale(0.125 -0.125)">
      <use xlink:href="#STIXGeneral-Regular-2b" transform="translate(0 0.203125)"/>
      <use xlink:href="#STIXGeneral-Regular-35" transform="translate(68.499985 0.203125)"/>
      <use xlink:href="#STIXGeneral-Italic-56" transform="translate(118.499969 0.203125)"/>
     </g>
    </g>
   </g>
   <g id="text_4">
    <g clip-path="url(#pc8e48e61cd)">
     <!-- $5 V$ -->
     <g transform="translate(179.7223 109.827219)scale(0.125 -0.125)">
      <use xlink:href="#STIXGeneral-Regular-35" transform="translate(0 0.203125)"/>
      <use xlink:href="#STIXGeneral-Italic-56" transform="translate(49.999985 0.203125)"/>
     </g>
    </g>
   </g>
  </g>
 </g>
 <defs>
  <clipPath id="pc8e48e61cd">
   <rect x="7.2" y="7.2" width="307.3923" height="168.028"/>
  </clipPath>
 </defs>
</svg>
