<?xml version="1.0" encoding="utf-8" standalone="no"?>
<!DOCTYPE svg PUBLIC "-//W3C//DTD SVG 1.1//EN"
  "http://www.w3.org/Graphics/SVG/1.1/DTD/svg11.dtd">
<svg xmlns:xlink="http://www.w3.org/1999/xlink" width="383.4pt" height="192.241656pt" viewBox="0 0 383.4 192.241656" xmlns="http://www.w3.org/2000/svg" version="1.1">
 <metadata>
  <rdf:RDF xmlns:dc="http://purl.org/dc/elements/1.1/" xmlns:cc="http://creativecommons.org/ns#" xmlns:rdf="http://www.w3.org/1999/02/22-rdf-syntax-ns#">
   <cc:Work>
    <dc:type rdf:resource="http://purl.org/dc/dcmitype/StillImage"/>
    <dc:date>2024-03-15T17:27:40.201202</dc:date>
    <dc:format>image/svg+xml</dc:format>
    <dc:creator>
     <cc:Agent>
      <dc:title>Matplotlib v3.8.2, https://matplotlib.org/</dc:title>
     </cc:Agent>
    </dc:creator>
   </cc:Work>
  </rdf:RDF>
 </metadata>
 <defs>
  <style type="text/css">*{stroke-linejoin: round; stroke-linecap: butt}</style>
 </defs>
 <g id="figure_1">
  <g id="patch_1">
   <path d="M -0 192.241656 
L 383.4 192.241656 
L 383.4 -0 
L -0 -0 
L -0 192.241656 
z
" style="fill: none"/>
  </g>
  <g id="axes_1">
   <g id="patch_2">
    <path d="M 29.7 28.297656 
C 30.893414 28.297656 32.038109 27.823508 32.881981 26.979637 
C 33.725852 26.135766 34.2 24.99107 34.2 23.797656 
C 34.2 22.604242 33.725852 21.459547 32.881981 20.615676 
C 32.038109 19.771805 30.893414 19.297656 29.7 19.297656 
C 28.506586 19.297656 27.361891 19.771805 26.518019 20.615676 
C 25.674148 21.459547 25.2 22.604242 25.2 23.797656 
C 25.2 24.99107 25.674148 26.135766 26.518019 26.979637 
C 27.361891 27.823508 28.506586 28.297656 29.7 28.297656 
L 29.7 28.297656 
z
" clip-path="url(#p62c641bed2)" style="fill: none; stroke: #000000; stroke-width: 2; stroke-linejoin: miter"/>
   </g>
   <g id="patch_3">
    <path d="M 245.7 121.177656 
C 250.473656 121.177656 255.052438 119.281063 258.427922 115.905578 
C 261.803406 112.530094 263.7 107.951312 263.7 103.177656 
C 263.7 98.404 261.803406 93.825219 258.427922 90.449734 
C 255.052438 87.07425 250.473656 85.177656 245.7 85.177656 
C 240.926344 85.177656 236.347562 87.07425 232.972078 90.449734 
C 229.596594 93.825219 227.7 98.404 227.7 103.177656 
C 227.7 107.951312 229.596594 112.530094 232.972078 115.905578 
C 236.347562 119.281063 240.926344 121.177656 245.7 121.177656 
L 245.7 121.177656 
z
" clip-path="url(#p62c641bed2)" style="fill: none; stroke: #000000; stroke-width: 2; stroke-linejoin: miter"/>
   </g>
   <g id="line2d_1">
    <path d="M 29.7 28.297656 
L 29.7 49.177656 
" clip-path="url(#p62c641bed2)" style="fill: none; stroke: #000000; stroke-width: 2; stroke-linecap: round"/>
   </g>
   <g id="line2d_2">
    <path d="M 29.7 49.177656 
L 29.7 85.177656 
L 38.7 88.177656 
L 20.7 94.177656 
L 38.7 100.177656 
L 20.7 106.177656 
L 38.7 112.177656 
L 20.7 118.177656 
L 29.7 121.177656 
L 29.7 157.177656 
" clip-path="url(#p62c641bed2)" style="fill: none; stroke: #000000; stroke-width: 2; stroke-linecap: round"/>
   </g>
   <g id="line2d_3">
    <path d="M 29.7 157.177656 
L 29.7 171.577656 
L 20.7 171.577656 
L 29.7 180.577656 
L 38.7 171.577656 
L 29.7 171.577656 
" clip-path="url(#p62c641bed2)" style="fill: none; stroke: #000000; stroke-width: 2; stroke-linecap: round"/>
   </g>
   <g id="line2d_4">
    <path d="M 245.7 157.177656 
L 245.7 121.177656 
L 245.7 121.177656 
M 245.7 85.177656 
L 245.7 85.177656 
L 245.7 49.177656 
" clip-path="url(#p62c641bed2)" style="fill: none; stroke: #000000; stroke-width: 2; stroke-linecap: round"/>
   </g>
   <g id="line2d_5">
    <path d="M 249.3 112.177656 
L 242.1 112.177656 
" clip-path="url(#p62c641bed2)" style="fill: none; stroke: #000000; stroke-width: 2; stroke-linecap: round"/>
   </g>
   <g id="line2d_6">
    <path d="M 245.7 97.777656 
L 245.7 90.577656 
" clip-path="url(#p62c641bed2)" style="fill: none; stroke: #000000; stroke-width: 2; stroke-linecap: round"/>
   </g>
   <g id="line2d_7">
    <path d="M 249.3 94.177656 
L 242.1 94.177656 
" clip-path="url(#p62c641bed2)" style="fill: none; stroke: #000000; stroke-width: 2; stroke-linecap: round"/>
   </g>
   <g id="line2d_8">
    <path d="M 245.7 49.177656 
L 299.7 49.177656 
L 353.7 49.177656 
" clip-path="url(#p62c641bed2)" style="fill: none; stroke: #000000; stroke-width: 2; stroke-linecap: round"/>
   </g>
   <g id="line2d_9">
    <path d="M 245.7 157.177656 
L 245.7 171.577656 
L 236.7 171.577656 
L 245.7 180.577656 
L 254.7 171.577656 
L 245.7 171.577656 
" clip-path="url(#p62c641bed2)" style="fill: none; stroke: #000000; stroke-width: 2; stroke-linecap: round"/>
   </g>
   <g id="line2d_10">
    <path d="M 245.7 157.177656 
L 299.7 157.177656 
L 353.7 157.177656 
" clip-path="url(#p62c641bed2)" style="fill: none; stroke: #000000; stroke-width: 2; stroke-linecap: round"/>
   </g>
   <g id="line2d_11">
    <path d="M 353.7 49.177656 
L 353.7 85.177656 
L 362.7 88.177656 
L 344.7 94.177656 
L 362.7 100.177656 
L 344.7 106.177656 
L 362.7 112.177656 
L 344.7 118.177656 
L 353.7 121.177656 
L 353.7 157.177656 
" clip-path="url(#p62c641bed2)" style="fill: none; stroke: #000000; stroke-width: 2; stroke-linecap: round"/>
   </g>
   <g id="text_1">
    <!-- $+5 V$ -->
    <g transform="translate(18.45 13.098047) scale(0.125 -0.125)">
     <defs>
      <path id="STIXGeneral-Regular-2b" d="M 4070 1408 
L 2400 1408 
L 2400 -262 
L 1978 -262 
L 1978 1408 
L 307 1408 
L 307 1830 
L 1978 1830 
L 1978 3501 
L 2400 3501 
L 2400 1830 
L 4070 1830 
L 4070 1408 
z
" transform="scale(0.015625)"/>
      <path id="STIXGeneral-Regular-35" d="M 2803 4358 
L 2573 3814 
Q 2534 3731 2400 3731 
L 1158 3731 
L 902 3187 
Q 1606 3053 1920 2896 
Q 2234 2739 2502 2368 
Q 2726 2061 2726 1555 
Q 2726 1094 2576 780 
Q 2426 467 2099 224 
Q 1664 -90 1011 -90 
Q 646 -90 422 19 
Q 198 128 198 307 
Q 198 550 486 550 
Q 717 550 960 352 
Q 1210 147 1414 147 
Q 1747 147 2012 480 
Q 2278 813 2278 1229 
Q 2278 1843 1850 2189 
Q 1293 2637 486 2637 
Q 410 2637 410 2688 
L 416 2720 
L 1114 4237 
L 2438 4237 
Q 2547 4237 2608 4269 
Q 2669 4301 2746 4403 
L 2803 4358 
z
" transform="scale(0.015625)"/>
      <path id="STIXGeneral-Italic-56" d="M 4403 4179 
L 4403 4077 
Q 4198 4070 4045 3821 
L 1658 -115 
L 1536 -115 
L 1011 3104 
Q 902 3776 828 3910 
Q 755 4045 486 4077 
L 486 4179 
L 2022 4179 
L 2022 4077 
Q 1722 4045 1629 3981 
Q 1536 3917 1536 3750 
Q 1536 3686 1542 3654 
L 1958 819 
L 3302 3123 
Q 3616 3661 3616 3859 
Q 3616 4032 3219 4077 
L 3219 4179 
L 4403 4179 
z
" transform="scale(0.015625)"/>
     </defs>
     <use xlink:href="#STIXGeneral-Regular-2b" transform="translate(0 0.203125)"/>
     <use xlink:href="#STIXGeneral-Regular-35" transform="translate(68.499985 0.203125)"/>
     <use xlink:href="#STIXGeneral-Italic-56" transform="translate(118.499969 0.203125)"/>
    </g>
   </g>
   <g id="text_2">
    <!-- $5 V$ -->
    <g transform="translate(210.1 106.626875) scale(0.125 -0.125)">
     <use xlink:href="#STIXGeneral-Regular-35" transform="translate(0 0.203125)"/>
     <use xlink:href="#STIXGeneral-Italic-56" transform="translate(49.999985 0.203125)"/>
    </g>
   </g>
  </g>
 </g>
 <defs>
  <clipPath id="p62c641bed2">
   <rect x="3.6" y="11.233656" width="376.2" height="177.408"/>
  </clipPath>
 </defs>
</svg>
