<?xml version="1.0" encoding="utf-8" standalone="no"?>
<!DOCTYPE svg PUBLIC "-//W3C//DTD SVG 1.1//EN"
  "http://www.w3.org/Graphics/SVG/1.1/DTD/svg11.dtd">
<svg xmlns:xlink="http://www.w3.org/1999/xlink" width="432.4266pt" height="71.69pt" viewBox="0 0 432.4266 71.69" xmlns="http://www.w3.org/2000/svg" version="1.1">
 <metadata>
  <rdf:RDF xmlns:dc="http://purl.org/dc/elements/1.1/" xmlns:cc="http://creativecommons.org/ns#" xmlns:rdf="http://www.w3.org/1999/02/22-rdf-syntax-ns#">
   <cc:Work>
    <dc:type rdf:resource="http://purl.org/dc/dcmitype/StillImage"/>
    <dc:date>2023-05-23T15:10:17.836762</dc:date>
    <dc:format>image/svg+xml</dc:format>
    <dc:creator>
     <cc:Agent>
      <dc:title>Matplotlib v3.5.2, https://matplotlib.org/</dc:title>
     </cc:Agent>
    </dc:creator>
   </cc:Work>
  </rdf:RDF>
 </metadata>
 <defs>
  <style type="text/css">*{stroke-linejoin: round; stroke-linecap: butt}</style>
 </defs>
 <g id="figure_1">
  <g id="patch_1">
   <path d="M 0 71.69 
L 432.4266 71.69 
L 432.4266 0 
L 0 0 
L 0 71.69 
z
" style="fill: none"/>
  </g>
  <g id="axes_1">
   <g id="patch_2">
    <path d="M 28.4823 42.73 
C 29.496702 42.73 30.469693 42.326974 31.186983 41.609683 
C 31.904274 40.892393 32.3073 39.919402 32.3073 38.905 
C 32.3073 37.890598 31.904274 36.917607 31.186983 36.200317 
C 30.469693 35.483026 29.496702 35.08 28.4823 35.08 
C 27.467898 35.08 26.494907 35.483026 25.777617 36.200317 
C 25.060326 36.917607 24.6573 37.890598 24.6573 38.905 
C 24.6573 39.919402 25.060326 40.892393 25.777617 41.609683 
C 26.494907 42.326974 27.467898 42.73 28.4823 42.73 
L 28.4823 42.73 
z
" clip-path="url(#p956d057dd8)" style="fill: none; stroke: #000000; stroke-width: 2; stroke-linejoin: miter"/>
   </g>
   <g id="patch_3">
    <path d="M 212.0823 42.73 
C 213.096702 42.73 214.069693 42.326974 214.786983 41.609683 
C 215.504274 40.892393 215.9073 39.919402 215.9073 38.905 
C 215.9073 37.890598 215.504274 36.917607 214.786983 36.200317 
C 214.069693 35.483026 213.096702 35.08 212.0823 35.08 
C 211.067898 35.08 210.094907 35.483026 209.377617 36.200317 
C 208.660326 36.917607 208.2573 37.890598 208.2573 38.905 
C 208.2573 39.919402 208.660326 40.892393 209.377617 41.609683 
C 210.094907 42.326974 211.067898 42.73 212.0823 42.73 
L 212.0823 42.73 
z
" clip-path="url(#p956d057dd8)" style="fill: none; stroke: #000000; stroke-width: 2; stroke-linejoin: miter"/>
   </g>
   <g id="patch_4">
    <path d="M 395.6823 42.73 
C 396.696702 42.73 397.669693 42.326974 398.386983 41.609683 
C 399.104274 40.892393 399.5073 39.919402 399.5073 38.905 
C 399.5073 37.890598 399.104274 36.917607 398.386983 36.200317 
C 397.669693 35.483026 396.696702 35.08 395.6823 35.08 
C 394.667898 35.08 393.694907 35.483026 392.977617 36.200317 
C 392.260326 36.917607 391.8573 37.890598 391.8573 38.905 
C 391.8573 39.919402 392.260326 40.892393 392.977617 41.609683 
C 393.694907 42.326974 394.667898 42.73 395.6823 42.73 
L 395.6823 42.73 
z
" clip-path="url(#p956d057dd8)" style="fill: none; stroke: #000000; stroke-width: 2; stroke-linejoin: miter"/>
   </g>
   <g id="patch_5">
    <path d="M 28.4823 42.73 
C 29.496702 42.73 30.469693 42.326974 31.186983 41.609683 
C 31.904274 40.892393 32.3073 39.919402 32.3073 38.905 
C 32.3073 37.890598 31.904274 36.917607 31.186983 36.200317 
C 30.469693 35.483026 29.496702 35.08 28.4823 35.08 
C 27.467898 35.08 26.494907 35.483026 25.777617 36.200317 
C 25.060326 36.917607 24.6573 37.890598 24.6573 38.905 
C 24.6573 39.919402 25.060326 40.892393 25.777617 41.609683 
C 26.494907 42.326974 27.467898 42.73 28.4823 42.73 
L 28.4823 42.73 
z
" clip-path="url(#p956d057dd8)" style="fill: none; stroke: #000000; stroke-width: 2; stroke-linejoin: miter"/>
   </g>
   <g id="patch_6">
    <path d="M 212.0823 42.73 
C 213.096702 42.73 214.069693 42.326974 214.786983 41.609683 
C 215.504274 40.892393 215.9073 39.919402 215.9073 38.905 
C 215.9073 37.890598 215.504274 36.917607 214.786983 36.200317 
C 214.069693 35.483026 213.096702 35.08 212.0823 35.08 
C 211.067898 35.08 210.094907 35.483026 209.377617 36.200317 
C 208.660326 36.917607 208.2573 37.890598 208.2573 38.905 
C 208.2573 39.919402 208.660326 40.892393 209.377617 41.609683 
C 210.094907 42.326974 211.067898 42.73 212.0823 42.73 
L 212.0823 42.73 
z
" clip-path="url(#p956d057dd8)" style="fill: none; stroke: #000000; stroke-width: 2; stroke-linejoin: miter"/>
   </g>
   <g id="patch_7">
    <path d="M 395.6823 42.73 
C 396.696702 42.73 397.669693 42.326974 398.386983 41.609683 
C 399.104274 40.892393 399.5073 39.919402 399.5073 38.905 
C 399.5073 37.890598 399.104274 36.917607 398.386983 36.200317 
C 397.669693 35.483026 396.696702 35.08 395.6823 35.08 
C 394.667898 35.08 393.694907 35.483026 392.977617 36.200317 
C 392.260326 36.917607 391.8573 37.890598 391.8573 38.905 
C 391.8573 39.919402 392.260326 40.892393 392.977617 41.609683 
C 393.694907 42.326974 394.667898 42.73 395.6823 42.73 
L 395.6823 42.73 
z
" clip-path="url(#p956d057dd8)" style="fill: none; stroke: #000000; stroke-width: 2; stroke-linejoin: miter"/>
   </g>
   <g id="line2d_1">
    <path d="M 28.4823 42.73 
L 28.4823 60.478 
" clip-path="url(#p956d057dd8)" style="fill: none; stroke: #000000; stroke-width: 2; stroke-linecap: round"/>
   </g>
   <g id="line2d_2">
    <path d="M 212.0823 42.73 
L 212.0823 60.478 
" clip-path="url(#p956d057dd8)" style="fill: none; stroke: #000000; stroke-width: 2; stroke-linecap: round"/>
   </g>
   <g id="line2d_3">
    <path d="M 395.6823 35.08 
L 395.6823 17.332 
" clip-path="url(#p956d057dd8)" style="fill: none; stroke: #000000; stroke-width: 2; stroke-linecap: round"/>
   </g>
   <g id="line2d_4">
    <path d="M 28.4823 42.73 
L 28.4823 60.478 
" clip-path="url(#p956d057dd8)" style="fill: none; stroke: #000000; stroke-width: 2; stroke-linecap: round"/>
   </g>
   <g id="line2d_5">
    <path d="M 212.0823 42.73 
L 212.0823 60.478 
" clip-path="url(#p956d057dd8)" style="fill: none; stroke: #000000; stroke-width: 2; stroke-linecap: round"/>
   </g>
   <g id="line2d_6">
    <path d="M 395.6823 35.08 
L 395.6823 17.332 
" clip-path="url(#p956d057dd8)" style="fill: none; stroke: #000000; stroke-width: 2; stroke-linecap: round"/>
   </g>
   <g id="text_1">
    <g clip-path="url(#p956d057dd8)">
     <!-- $+5 V$ -->
     <g transform="translate(17.2323 29.420391)scale(0.125 -0.125)">
      <defs>
       <path id="STIXGeneral-Regular-2b" d="M 4070 1408 
L 2400 1408 
L 2400 -262 
L 1978 -262 
L 1978 1408 
L 307 1408 
L 307 1830 
L 1978 1830 
L 1978 3501 
L 2400 3501 
L 2400 1830 
L 4070 1830 
L 4070 1408 
z
" transform="scale(0.015625)"/>
       <path id="STIXGeneral-Regular-35" d="M 2803 4358 
L 2573 3814 
Q 2534 3731 2400 3731 
L 1158 3731 
L 902 3187 
Q 1606 3053 1920 2896 
Q 2234 2739 2502 2368 
Q 2726 2061 2726 1555 
Q 2726 1094 2576 780 
Q 2426 467 2099 224 
Q 1664 -90 1011 -90 
Q 646 -90 422 19 
Q 198 128 198 307 
Q 198 550 486 550 
Q 717 550 960 352 
Q 1210 147 1414 147 
Q 1747 147 2012 480 
Q 2278 813 2278 1229 
Q 2278 1843 1850 2189 
Q 1293 2637 486 2637 
Q 410 2637 410 2688 
L 416 2720 
L 1114 4237 
L 2438 4237 
Q 2547 4237 2608 4269 
Q 2669 4301 2746 4403 
L 2803 4358 
z
" transform="scale(0.015625)"/>
       <path id="STIXGeneral-Italic-56" d="M 4403 4179 
L 4403 4077 
Q 4198 4070 4045 3821 
L 1658 -115 
L 1536 -115 
L 1011 3104 
Q 902 3776 828 3910 
Q 755 4045 486 4077 
L 486 4179 
L 2022 4179 
L 2022 4077 
Q 1722 4045 1629 3981 
Q 1536 3917 1536 3750 
Q 1536 3686 1542 3654 
L 1958 819 
L 3302 3123 
Q 3616 3661 3616 3859 
Q 3616 4032 3219 4077 
L 3219 4179 
L 4403 4179 
z
" transform="scale(0.015625)"/>
      </defs>
      <use xlink:href="#STIXGeneral-Regular-2b" transform="translate(0 0.203125)"/>
      <use xlink:href="#STIXGeneral-Regular-35" transform="translate(68.499985 0.203125)"/>
      <use xlink:href="#STIXGeneral-Italic-56" transform="translate(118.499969 0.203125)"/>
     </g>
    </g>
   </g>
   <g id="text_2">
    <g clip-path="url(#p956d057dd8)">
     <!-- $+12 V$ -->
     <g transform="translate(197.7073 29.420391)scale(0.125 -0.125)">
      <defs>
       <path id="STIXGeneral-Regular-31" d="M 2522 0 
L 755 0 
L 755 96 
Q 1107 115 1235 227 
Q 1363 339 1363 608 
L 1363 3482 
Q 1363 3795 1171 3795 
Q 1082 3795 883 3718 
L 710 3654 
L 710 3744 
L 1856 4326 
L 1914 4307 
L 1914 486 
Q 1914 275 2042 185 
Q 2170 96 2522 96 
L 2522 0 
z
" transform="scale(0.015625)"/>
       <path id="STIXGeneral-Regular-32" d="M 3034 877 
L 2688 0 
L 186 0 
L 186 77 
L 1325 1286 
Q 1773 1754 1965 2144 
Q 2157 2534 2157 2950 
Q 2157 3379 1920 3616 
Q 1683 3853 1267 3853 
Q 922 3853 720 3673 
Q 518 3494 326 3021 
L 192 3053 
Q 301 3648 630 3987 
Q 960 4326 1523 4326 
Q 2054 4326 2380 4006 
Q 2707 3686 2707 3200 
Q 2707 2477 1888 1613 
L 832 486 
L 2330 486 
Q 2541 486 2665 569 
Q 2790 653 2944 915 
L 3034 877 
z
" transform="scale(0.015625)"/>
      </defs>
      <use xlink:href="#STIXGeneral-Regular-2b" transform="translate(0 0.40625)"/>
      <use xlink:href="#STIXGeneral-Regular-31" transform="translate(68.499985 0.40625)"/>
      <use xlink:href="#STIXGeneral-Regular-32" transform="translate(118.499969 0.40625)"/>
      <use xlink:href="#STIXGeneral-Italic-56" transform="translate(168.499954 0.40625)"/>
     </g>
    </g>
   </g>
   <g id="text_3">
    <g clip-path="url(#p956d057dd8)">
     <!-- $-12 V$ -->
     <g transform="translate(381.3073 55.288047)scale(0.125 -0.125)">
      <defs>
       <path id="STIXGeneral-Regular-2212" d="M 3974 1408 
L 410 1408 
L 410 1830 
L 3974 1830 
L 3974 1408 
z
" transform="scale(0.015625)"/>
      </defs>
      <use xlink:href="#STIXGeneral-Regular-2212" transform="translate(0 0.40625)"/>
      <use xlink:href="#STIXGeneral-Regular-31" transform="translate(68.499985 0.40625)"/>
      <use xlink:href="#STIXGeneral-Regular-32" transform="translate(118.499969 0.40625)"/>
      <use xlink:href="#STIXGeneral-Italic-56" transform="translate(168.499954 0.40625)"/>
     </g>
    </g>
   </g>
   <g id="text_4">
    <g clip-path="url(#p956d057dd8)">
     <!-- $+5 V$ -->
     <g transform="translate(17.2323 29.420391)scale(0.125 -0.125)">
      <use xlink:href="#STIXGeneral-Regular-2b" transform="translate(0 0.203125)"/>
      <use xlink:href="#STIXGeneral-Regular-35" transform="translate(68.499985 0.203125)"/>
      <use xlink:href="#STIXGeneral-Italic-56" transform="translate(118.499969 0.203125)"/>
     </g>
    </g>
   </g>
   <g id="text_5">
    <g clip-path="url(#p956d057dd8)">
     <!-- $+12 V$ -->
     <g transform="translate(197.7073 29.420391)scale(0.125 -0.125)">
      <use xlink:href="#STIXGeneral-Regular-2b" transform="translate(0 0.40625)"/>
      <use xlink:href="#STIXGeneral-Regular-31" transform="translate(68.499985 0.40625)"/>
      <use xlink:href="#STIXGeneral-Regular-32" transform="translate(118.499969 0.40625)"/>
      <use xlink:href="#STIXGeneral-Italic-56" transform="translate(168.499954 0.40625)"/>
     </g>
    </g>
   </g>
   <g id="text_6">
    <g clip-path="url(#p956d057dd8)">
     <!-- $-12 V$ -->
     <g transform="translate(381.3073 55.288047)scale(0.125 -0.125)">
      <use xlink:href="#STIXGeneral-Regular-2212" transform="translate(0 0.40625)"/>
      <use xlink:href="#STIXGeneral-Regular-31" transform="translate(68.499985 0.40625)"/>
      <use xlink:href="#STIXGeneral-Regular-32" transform="translate(118.499969 0.40625)"/>
      <use xlink:href="#STIXGeneral-Italic-56" transform="translate(168.499954 0.40625)"/>
     </g>
    </g>
   </g>
  </g>
 </g>
 <defs>
  <clipPath id="p956d057dd8">
   <rect x="7.2" y="7.2" width="418.0266" height="57.29"/>
  </clipPath>
 </defs>
</svg>
