<?xml version="1.0" encoding="utf-8" standalone="no"?>
<!DOCTYPE svg PUBLIC "-//W3C//DTD SVG 1.1//EN"
  "http://www.w3.org/Graphics/SVG/1.1/DTD/svg11.dtd">
<svg xmlns:xlink="http://www.w3.org/1999/xlink" width="307.360937pt" height="159.744922pt" viewBox="0 0 307.360937 159.744922" xmlns="http://www.w3.org/2000/svg" version="1.1">
 <metadata>
  <rdf:RDF xmlns:dc="http://purl.org/dc/elements/1.1/" xmlns:cc="http://creativecommons.org/ns#" xmlns:rdf="http://www.w3.org/1999/02/22-rdf-syntax-ns#">
   <cc:Work>
    <dc:type rdf:resource="http://purl.org/dc/dcmitype/StillImage"/>
    <dc:date>2024-03-15T17:19:58.901386</dc:date>
    <dc:format>image/svg+xml</dc:format>
    <dc:creator>
     <cc:Agent>
      <dc:title>Matplotlib v3.8.2, https://matplotlib.org/</dc:title>
     </cc:Agent>
    </dc:creator>
   </cc:Work>
  </rdf:RDF>
 </metadata>
 <defs>
  <style type="text/css">*{stroke-linejoin: round; stroke-linecap: butt}</style>
 </defs>
 <g id="figure_1">
  <g id="patch_1">
   <path d="M 0 159.744922 
L 307.360937 159.744922 
L 307.360937 0 
L 0 0 
L 0 159.744922 
z
" style="fill: none"/>
  </g>
  <g id="axes_1">
   <g id="patch_2">
    <path d="M 49.657031 114.294922 
C 54.430687 114.294922 59.009469 112.398328 62.384953 109.022844 
C 65.760438 105.64736 67.657031 101.068578 67.657031 96.294922 
C 67.657031 91.521266 65.760438 86.942484 62.384953 83.567 
C 59.009469 80.191515 54.430687 78.294922 49.657031 78.294922 
C 44.883375 78.294922 40.304594 80.191515 36.929109 83.567 
C 33.553625 86.942484 31.657031 91.521266 31.657031 96.294922 
C 31.657031 101.068578 33.553625 105.64736 36.929109 109.022844 
C 40.304594 112.398328 44.883375 114.294922 49.657031 114.294922 
L 49.657031 114.294922 
z
" clip-path="url(#pf1e05a6283)" style="fill: none; stroke: #000000; stroke-width: 2; stroke-linejoin: miter"/>
   </g>
   <g id="patch_3">
    <path d="M 265.657031 114.294922 
C 270.430687 114.294922 275.009469 112.398328 278.384953 109.022844 
C 281.760438 105.64736 283.657031 101.068578 283.657031 96.294922 
C 283.657031 91.521266 281.760438 86.942484 278.384953 83.567 
C 275.009469 80.191515 270.430687 78.294922 265.657031 78.294922 
C 260.883375 78.294922 256.304594 80.191515 252.929109 83.567 
C 249.553625 86.942484 247.657031 91.521266 247.657031 96.294922 
C 247.657031 101.068578 249.553625 105.64736 252.929109 109.022844 
C 256.304594 112.398328 260.883375 114.294922 265.657031 114.294922 
L 265.657031 114.294922 
z
" clip-path="url(#pf1e05a6283)" style="fill: none; stroke: #000000; stroke-width: 2; stroke-linejoin: miter"/>
   </g>
   <g id="patch_4">
    <path d="M 120.603236 92.079995 
C 120.003962 89.702627 119.163907 87.514558 118.119835 85.611548 
C 117.075763 83.708538 115.843131 82.118758 114.475884 80.911784 
C 113.108637 79.704811 111.627016 78.898511 110.095862 78.528172 
C 108.564708 78.157833 107.006688 78.228937 105.489989 78.738373 
C 103.973289 79.247809 102.520362 80.188035 101.194794 81.517902 
C 99.869227 82.847769 98.690641 84.547591 97.710619 86.542976 
C 96.730596 88.538361 95.963643 90.79977 95.443327 93.228234 
C 94.92301 95.656698 94.657031 98.216266 94.657031 100.794922 
C 94.657031 103.373577 94.92301 105.933146 95.443327 108.36161 
C 95.963643 110.790074 96.730596 113.051482 97.710619 115.046867 
C 98.690641 117.042253 99.869227 118.742074 101.194794 120.071942 
C 102.520362 121.401809 103.973289 122.342035 105.489989 122.851471 
C 107.006688 123.360907 108.564708 123.432011 110.095862 123.061672 
C 111.627016 122.691333 113.108637 121.885033 114.475884 120.678059 
C 115.843131 119.471086 117.075763 117.881306 118.119835 115.978296 
C 119.163907 114.075286 120.003962 111.887217 120.603236 109.509848 
" clip-path="url(#pf1e05a6283)" style="fill: none; stroke: #0000ff; stroke-width: 2; stroke-linejoin: miter"/>
   </g>
   <g id="patch_5">
    <path d="M 124.228646 100.709364 
L 118.253434 93.457685 
L 120.72608 92.418866 
L 120.586641 92.086967 
L 120.619831 92.073023 
L 120.75927 92.404922 
L 123.231916 91.366103 
z
" clip-path="url(#pf1e05a6283)" style="fill: #0000ff; stroke: #0000ff; stroke-linejoin: miter"/>
   </g>
   <g id="patch_6">
    <path d="M 227.28045 86.704353 
C 226.154856 83.553624 224.659661 80.689452 222.857214 78.231271 
C 221.054767 75.773089 218.970473 73.755546 216.691245 72.262772 
C 214.412018 70.769998 211.969983 69.823033 209.466971 69.461365 
C 206.96396 69.099697 204.435252 69.328424 201.986292 70.138008 
C 199.537332 70.947592 197.20264 72.326621 195.079569 74.217593 
C 192.956498 76.108564 191.074974 78.484823 189.513454 81.247283 
C 187.951934 84.009742 186.732429 87.119464 185.90579 90.446776 
C 185.079152 93.774088 184.657031 97.272091 184.657031 100.794922 
C 184.657031 104.317753 185.079152 107.815755 185.90579 111.143068 
C 186.732429 114.47038 187.951934 117.580102 189.513454 120.342561 
C 191.074974 123.105021 192.956498 125.48128 195.079569 127.372251 
C 197.20264 129.263222 199.537332 130.642252 201.986292 131.451836 
C 204.435252 132.26142 206.96396 132.490147 209.466971 132.128479 
C 211.969983 131.766811 214.412018 130.819846 216.691245 129.327072 
C 218.970473 127.834297 221.054767 125.816755 222.857214 123.358573 
C 224.659661 120.900391 226.154856 118.03622 227.28045 114.885491 
" clip-path="url(#pf1e05a6283)" style="fill: none; stroke: #ff0000; stroke-width: 2; stroke-linejoin: miter"/>
   </g>
   <g id="patch_7">
    <path d="M 231.467362 95.075695 
L 225.026675 88.23409 
L 227.425386 87.034379 
L 227.264351 86.712404 
L 227.296548 86.696301 
L 227.457583 87.018276 
L 229.856295 85.818564 
z
" clip-path="url(#pf1e05a6283)" style="fill: #ff0000; stroke: #ff0000; stroke-linejoin: miter"/>
   </g>
   <g id="line2d_1">
    <path d="M 49.657031 150.294922 
L 49.657031 114.294922 
L 49.657031 114.294922 
M 49.657031 78.294922 
L 49.657031 78.294922 
L 49.657031 42.294922 
" clip-path="url(#pf1e05a6283)" style="fill: none; stroke: #000000; stroke-width: 2; stroke-linecap: round"/>
   </g>
   <g id="line2d_2">
    <path d="M 53.257031 105.294922 
L 46.057031 105.294922 
" clip-path="url(#pf1e05a6283)" style="fill: none; stroke: #000000; stroke-width: 2; stroke-linecap: round"/>
   </g>
   <g id="line2d_3">
    <path d="M 49.657031 90.894922 
L 49.657031 83.694922 
" clip-path="url(#pf1e05a6283)" style="fill: none; stroke: #000000; stroke-width: 2; stroke-linecap: round"/>
   </g>
   <g id="line2d_4">
    <path d="M 53.257031 87.294922 
L 46.057031 87.294922 
" clip-path="url(#pf1e05a6283)" style="fill: none; stroke: #000000; stroke-width: 2; stroke-linecap: round"/>
   </g>
   <g id="line2d_5">
    <path d="M 49.657031 42.294922 
L 85.657031 42.294922 
L 88.657031 33.294922 
L 94.657031 51.294922 
L 100.657031 33.294922 
L 106.657031 51.294922 
L 112.657031 33.294922 
L 118.657031 51.294922 
L 121.657031 42.294922 
L 157.657031 42.294922 
" clip-path="url(#pf1e05a6283)" style="fill: none; stroke: #000000; stroke-width: 2; stroke-linecap: round"/>
   </g>
   <g id="line2d_6">
    <path d="M 157.657031 42.294922 
L 193.657031 42.294922 
L 196.657031 33.294922 
L 202.657031 51.294922 
L 208.657031 33.294922 
L 214.657031 51.294922 
L 220.657031 33.294922 
L 226.657031 51.294922 
L 229.657031 42.294922 
L 265.657031 42.294922 
" clip-path="url(#pf1e05a6283)" style="fill: none; stroke: #000000; stroke-width: 2; stroke-linecap: round"/>
   </g>
   <g id="line2d_7">
    <path d="M 265.657031 42.294922 
L 265.657031 78.294922 
L 265.657031 78.294922 
M 265.657031 114.294922 
L 265.657031 114.294922 
L 265.657031 150.294922 
" clip-path="url(#pf1e05a6283)" style="fill: none; stroke: #000000; stroke-width: 2; stroke-linecap: round"/>
   </g>
   <g id="line2d_8">
    <path d="M 265.657031 96.294922 
L 265.657031 105.294922 
" clip-path="url(#pf1e05a6283)" style="fill: none; stroke: #000000; stroke-width: 2; stroke-linecap: round"/>
   </g>
   <g id="patch_8">
    <path d="M 262.957031 96.294922 
L 265.657031 87.294922 
L 268.357031 96.294922 
z
" clip-path="url(#pf1e05a6283)"/>
   </g>
   <g id="line2d_9">
    <path d="M 265.657031 150.294922 
L 157.657031 150.294922 
L 49.657031 150.294922 
" clip-path="url(#pf1e05a6283)" style="fill: none; stroke: #000000; stroke-width: 2; stroke-linecap: round"/>
   </g>
   <g id="line2d_10">
    <path d="M 157.657031 42.294922 
L 157.657031 78.294922 
L 166.657031 81.294922 
L 148.657031 87.294922 
L 166.657031 93.294922 
L 148.657031 99.294922 
L 166.657031 105.294922 
L 148.657031 111.294922 
L 157.657031 114.294922 
L 157.657031 150.294922 
" clip-path="url(#pf1e05a6283)" style="fill: none; stroke: #000000; stroke-width: 2; stroke-linecap: round"/>
   </g>
   <g id="text_1">
    <!-- $V_S$ -->
    <g transform="translate(15.432031 92.745508) scale(0.125 -0.125)">
     <defs>
      <path id="STIXGeneral-Italic-56" d="M 4403 4179 
L 4403 4077 
Q 4198 4070 4045 3821 
L 1658 -115 
L 1536 -115 
L 1011 3104 
Q 902 3776 828 3910 
Q 755 4045 486 4077 
L 486 4179 
L 2022 4179 
L 2022 4077 
Q 1722 4045 1629 3981 
Q 1536 3917 1536 3750 
Q 1536 3686 1542 3654 
L 1958 819 
L 3302 3123 
Q 3616 3661 3616 3859 
Q 3616 4032 3219 4077 
L 3219 4179 
L 4403 4179 
z
" transform="scale(0.015625)"/>
      <path id="STIXGeneral-Italic-53" d="M 3251 4269 
L 2995 2989 
L 2880 3008 
Q 2880 3539 2720 3795 
Q 2560 4051 2118 4051 
Q 1786 4051 1594 3881 
Q 1402 3712 1402 3411 
Q 1402 3168 1504 3005 
Q 1606 2842 2035 2413 
Q 2464 1978 2611 1715 
Q 2758 1453 2758 1133 
Q 2758 589 2390 237 
Q 2022 -115 1466 -115 
Q 1222 -115 800 32 
Q 595 109 499 109 
Q 288 109 224 -96 
L 109 -96 
L 326 1338 
L 454 1325 
Q 442 1267 442 1178 
Q 442 710 701 409 
Q 960 109 1363 109 
Q 1734 109 1968 336 
Q 2202 563 2202 928 
Q 2202 1139 2118 1308 
Q 2035 1478 1818 1715 
L 1568 1984 
Q 1549 2003 1459 2102 
Q 1370 2202 1318 2253 
Q 1030 2560 934 2755 
Q 838 2950 838 3213 
Q 838 3699 1168 3980 
Q 1498 4262 1978 4262 
Q 2310 4262 2522 4173 
Q 2707 4102 2816 4102 
Q 2925 4102 2982 4134 
Q 3040 4166 3104 4269 
L 3251 4269 
z
" transform="scale(0.015625)"/>
     </defs>
     <use xlink:href="#STIXGeneral-Italic-56" transform="translate(0 0.703125)"/>
     <use xlink:href="#STIXGeneral-Italic-53" transform="translate(61.099991 -12.525) scale(0.7)"/>
    </g>
    <!-- 10V -->
    <g transform="translate(3.6 106.742773) scale(0.125 -0.125)">
     <defs>
      <path id="DejaVuSans-31" d="M 794 531 
L 1825 531 
L 1825 4091 
L 703 3866 
L 703 4441 
L 1819 4666 
L 2450 4666 
L 2450 531 
L 3481 531 
L 3481 0 
L 794 0 
L 794 531 
z
" transform="scale(0.015625)"/>
      <path id="DejaVuSans-30" d="M 2034 4250 
Q 1547 4250 1301 3770 
Q 1056 3291 1056 2328 
Q 1056 1369 1301 889 
Q 1547 409 2034 409 
Q 2525 409 2770 889 
Q 3016 1369 3016 2328 
Q 3016 3291 2770 3770 
Q 2525 4250 2034 4250 
z
M 2034 4750 
Q 2819 4750 3233 4129 
Q 3647 3509 3647 2328 
Q 3647 1150 3233 529 
Q 2819 -91 2034 -91 
Q 1250 -91 836 529 
Q 422 1150 422 2328 
Q 422 3509 836 4129 
Q 1250 4750 2034 4750 
z
" transform="scale(0.015625)"/>
      <path id="DejaVuSans-56" d="M 1831 0 
L 50 4666 
L 709 4666 
L 2188 738 
L 3669 4666 
L 4325 4666 
L 2547 0 
L 1831 0 
z
" transform="scale(0.015625)"/>
     </defs>
     <use xlink:href="#DejaVuSans-31"/>
     <use xlink:href="#DejaVuSans-30" x="63.623047"/>
     <use xlink:href="#DejaVuSans-56" x="127.246094"/>
    </g>
   </g>
   <g id="text_2">
    <!-- $R_1$ -->
    <g transform="translate(97.344531 13.098047) scale(0.125 -0.125)">
     <defs>
      <path id="STIXGeneral-Italic-52" d="M 845 4179 
L 2458 4179 
Q 3078 4179 3420 3936 
Q 3763 3693 3763 3277 
Q 3763 2778 3341 2458 
Q 3091 2266 2502 2131 
L 3072 627 
Q 3181 333 3299 217 
Q 3418 102 3629 102 
L 3629 0 
L 2688 0 
L 1901 2074 
L 1478 2106 
L 1126 806 
Q 1043 512 1043 403 
Q 1043 256 1126 192 
Q 1210 128 1472 102 
L 1472 0 
L -83 0 
L -83 102 
Q 173 134 278 243 
Q 384 352 461 646 
L 1222 3405 
Q 1299 3699 1299 3808 
Q 1299 3923 1210 3987 
Q 1133 4038 845 4077 
L 845 4179 
z
M 1958 3795 
L 1555 2342 
Q 1754 2310 1882 2310 
Q 2451 2310 2771 2566 
Q 3091 2822 3091 3270 
Q 3091 3603 2892 3795 
Q 2694 3987 2323 3987 
Q 2010 3987 1958 3795 
z
" transform="scale(0.015625)"/>
      <path id="STIXGeneral-Regular-31" d="M 2522 0 
L 755 0 
L 755 96 
Q 1107 115 1235 227 
Q 1363 339 1363 608 
L 1363 3482 
Q 1363 3795 1171 3795 
Q 1082 3795 883 3718 
L 710 3654 
L 710 3744 
L 1856 4326 
L 1914 4307 
L 1914 486 
Q 1914 275 2042 185 
Q 2170 96 2522 96 
L 2522 0 
z
" transform="scale(0.015625)"/>
     </defs>
     <use xlink:href="#STIXGeneral-Italic-52" transform="translate(0 0.703125)"/>
     <use xlink:href="#STIXGeneral-Regular-31" transform="translate(61.099991 -12.525) scale(0.7)"/>
    </g>
    <!-- 4Ω -->
    <g transform="translate(94.904102 27.095312) scale(0.125 -0.125)">
     <defs>
      <path id="DejaVuSans-34" d="M 2419 4116 
L 825 1625 
L 2419 1625 
L 2419 4116 
z
M 2253 4666 
L 3047 4666 
L 3047 1625 
L 3713 1625 
L 3713 1100 
L 3047 1100 
L 3047 0 
L 2419 0 
L 2419 1100 
L 313 1100 
L 313 1709 
L 2253 4666 
z
" transform="scale(0.015625)"/>
      <path id="DejaVuSans-3a9" d="M 4647 556 
L 4647 0 
L 2772 0 
L 2772 556 
Q 3325 859 3634 1378 
Q 3944 1897 3944 2528 
Q 3944 3278 3531 3731 
Q 3119 4184 2444 4184 
Q 1769 4184 1355 3729 
Q 941 3275 941 2528 
Q 941 1897 1250 1378 
Q 1563 859 2119 556 
L 2119 0 
L 244 0 
L 244 556 
L 1241 556 
Q 747 991 519 1456 
Q 294 1922 294 2497 
Q 294 3491 894 4106 
Q 1491 4722 2444 4722 
Q 3391 4722 3994 4106 
Q 4594 3494 4594 2528 
Q 4594 1922 4372 1459 
Q 4150 997 3647 556 
L 4647 556 
z
" transform="scale(0.015625)"/>
     </defs>
     <use xlink:href="#DejaVuSans-34"/>
     <use xlink:href="#DejaVuSans-3a9" x="63.623047"/>
    </g>
   </g>
   <g id="text_3">
    <!-- + -->
    <g style="fill: #0000ff" transform="translate(71.419727 64.392969) scale(0.125 -0.125)">
     <defs>
      <path id="DejaVuSans-2b" d="M 2944 4013 
L 2944 2272 
L 4684 2272 
L 4684 1741 
L 2944 1741 
L 2944 0 
L 2419 0 
L 2419 1741 
L 678 1741 
L 678 2272 
L 2419 2272 
L 2419 4013 
L 2944 4013 
z
" transform="scale(0.015625)"/>
     </defs>
     <use xlink:href="#DejaVuSans-2b"/>
    </g>
   </g>
   <g id="text_4">
    <!-- - -->
    <g style="fill: #0000ff" transform="translate(128.402148 64.392969) scale(0.125 -0.125)">
     <defs>
      <path id="DejaVuSans-2d" d="M 313 2009 
L 1997 2009 
L 1997 1497 
L 313 1497 
L 313 2009 
z
" transform="scale(0.015625)"/>
     </defs>
     <use xlink:href="#DejaVuSans-2d"/>
    </g>
   </g>
   <g id="text_5">
    <!-- $R_3$ -->
    <g transform="translate(205.344531 13.098047) scale(0.125 -0.125)">
     <defs>
      <path id="STIXGeneral-Regular-33" d="M 390 3264 
L 288 3290 
Q 435 3770 748 4048 
Q 1062 4326 1542 4326 
Q 1990 4326 2265 4083 
Q 2541 3840 2541 3450 
Q 2541 2925 1946 2566 
Q 2298 2413 2477 2227 
Q 2758 1914 2758 1402 
Q 2758 890 2464 506 
Q 2246 211 1840 60 
Q 1434 -90 979 -90 
Q 262 -90 262 275 
Q 262 378 339 442 
Q 416 506 525 506 
Q 685 506 915 339 
Q 1197 141 1466 141 
Q 1818 141 2058 425 
Q 2298 710 2298 1120 
Q 2298 1856 1632 2048 
Q 1434 2112 979 2112 
L 979 2202 
Q 1338 2323 1517 2432 
Q 2035 2726 2035 3290 
Q 2035 3610 1852 3776 
Q 1670 3942 1344 3942 
Q 768 3942 390 3264 
z
" transform="scale(0.015625)"/>
     </defs>
     <use xlink:href="#STIXGeneral-Italic-52" transform="translate(0 0.703125)"/>
     <use xlink:href="#STIXGeneral-Regular-33" transform="translate(61.099991 -12.525) scale(0.7)"/>
    </g>
    <!-- 3Ω -->
    <g transform="translate(202.904102 27.095312) scale(0.125 -0.125)">
     <defs>
      <path id="DejaVuSans-33" d="M 2597 2516 
Q 3050 2419 3304 2112 
Q 3559 1806 3559 1356 
Q 3559 666 3084 287 
Q 2609 -91 1734 -91 
Q 1441 -91 1130 -33 
Q 819 25 488 141 
L 488 750 
Q 750 597 1062 519 
Q 1375 441 1716 441 
Q 2309 441 2620 675 
Q 2931 909 2931 1356 
Q 2931 1769 2642 2001 
Q 2353 2234 1838 2234 
L 1294 2234 
L 1294 2753 
L 1863 2753 
Q 2328 2753 2575 2939 
Q 2822 3125 2822 3475 
Q 2822 3834 2567 4026 
Q 2313 4219 1838 4219 
Q 1578 4219 1281 4162 
Q 984 4106 628 3988 
L 628 4550 
Q 988 4650 1302 4700 
Q 1616 4750 1894 4750 
Q 2613 4750 3031 4423 
Q 3450 4097 3450 3541 
Q 3450 3153 3228 2886 
Q 3006 2619 2597 2516 
z
" transform="scale(0.015625)"/>
     </defs>
     <use xlink:href="#DejaVuSans-33"/>
     <use xlink:href="#DejaVuSans-3a9" x="63.623047"/>
    </g>
   </g>
   <g id="text_6">
    <!-- + -->
    <g style="fill: #ff0000" transform="translate(179.419727 64.392969) scale(0.125 -0.125)">
     <use xlink:href="#DejaVuSans-2b"/>
    </g>
   </g>
   <g id="text_7">
    <!-- - -->
    <g style="fill: #ff0000" transform="translate(236.402148 64.392969) scale(0.125 -0.125)">
     <use xlink:href="#DejaVuSans-2d"/>
    </g>
   </g>
   <g id="text_8">
    <!-- $I_S$ -->
    <g transform="translate(287.257031 92.745508) scale(0.125 -0.125)">
     <defs>
      <path id="STIXGeneral-Italic-49" d="M 2458 4179 
L 2458 4077 
Q 2189 4045 2102 3961 
Q 2016 3878 1933 3584 
L 1165 838 
Q 1069 499 1069 352 
Q 1069 224 1149 179 
Q 1229 134 1510 102 
L 1510 0 
L -51 0 
L -51 102 
Q 218 154 317 237 
Q 416 320 486 582 
L 1254 3405 
Q 1338 3699 1338 3802 
Q 1338 3930 1235 3997 
Q 1133 4064 877 4077 
L 877 4179 
L 2458 4179 
z
" transform="scale(0.015625)"/>
     </defs>
     <use xlink:href="#STIXGeneral-Italic-49" transform="translate(0 0.703125)"/>
     <use xlink:href="#STIXGeneral-Italic-53" transform="translate(33.299988 -12.525) scale(0.7)"/>
    </g>
    <!-- 5A -->
    <g transform="translate(287.257031 106.742773) scale(0.125 -0.125)">
     <defs>
      <path id="DejaVuSans-35" d="M 691 4666 
L 3169 4666 
L 3169 4134 
L 1269 4134 
L 1269 2991 
Q 1406 3038 1543 3061 
Q 1681 3084 1819 3084 
Q 2600 3084 3056 2656 
Q 3513 2228 3513 1497 
Q 3513 744 3044 326 
Q 2575 -91 1722 -91 
Q 1428 -91 1123 -41 
Q 819 9 494 109 
L 494 744 
Q 775 591 1075 516 
Q 1375 441 1709 441 
Q 2250 441 2565 725 
Q 2881 1009 2881 1497 
Q 2881 1984 2565 2268 
Q 2250 2553 1709 2553 
Q 1456 2553 1204 2497 
Q 953 2441 691 2322 
L 691 4666 
z
" transform="scale(0.015625)"/>
      <path id="DejaVuSans-41" d="M 2188 4044 
L 1331 1722 
L 3047 1722 
L 2188 4044 
z
M 1831 4666 
L 2547 4666 
L 4325 0 
L 3669 0 
L 3244 1197 
L 1141 1197 
L 716 0 
L 50 0 
L 1831 4666 
z
" transform="scale(0.015625)"/>
     </defs>
     <use xlink:href="#DejaVuSans-35"/>
     <use xlink:href="#DejaVuSans-41" x="63.623047"/>
    </g>
   </g>
   <g id="text_9">
    <!-- $R_2$ -->
    <g transform="translate(132.432031 92.745508) scale(0.125 -0.125)">
     <defs>
      <path id="STIXGeneral-Regular-32" d="M 3034 877 
L 2688 0 
L 186 0 
L 186 77 
L 1325 1286 
Q 1773 1754 1965 2144 
Q 2157 2534 2157 2950 
Q 2157 3379 1920 3616 
Q 1683 3853 1267 3853 
Q 922 3853 720 3673 
Q 518 3494 326 3021 
L 192 3053 
Q 301 3648 630 3987 
Q 960 4326 1523 4326 
Q 2054 4326 2380 4006 
Q 2707 3686 2707 3200 
Q 2707 2477 1888 1613 
L 832 486 
L 2330 486 
Q 2541 486 2665 569 
Q 2790 653 2944 915 
L 3034 877 
z
" transform="scale(0.015625)"/>
     </defs>
     <use xlink:href="#STIXGeneral-Italic-52" transform="translate(0 0.703125)"/>
     <use xlink:href="#STIXGeneral-Regular-32" transform="translate(61.099991 -12.525) scale(0.7)"/>
    </g>
    <!-- 6Ω -->
    <g transform="translate(127.551172 106.742773) scale(0.125 -0.125)">
     <defs>
      <path id="DejaVuSans-36" d="M 2113 2584 
Q 1688 2584 1439 2293 
Q 1191 2003 1191 1497 
Q 1191 994 1439 701 
Q 1688 409 2113 409 
Q 2538 409 2786 701 
Q 3034 994 3034 1497 
Q 3034 2003 2786 2293 
Q 2538 2584 2113 2584 
z
M 3366 4563 
L 3366 3988 
Q 3128 4100 2886 4159 
Q 2644 4219 2406 4219 
Q 1781 4219 1451 3797 
Q 1122 3375 1075 2522 
Q 1259 2794 1537 2939 
Q 1816 3084 2150 3084 
Q 2853 3084 3261 2657 
Q 3669 2231 3669 1497 
Q 3669 778 3244 343 
Q 2819 -91 2113 -91 
Q 1303 -91 875 529 
Q 447 1150 447 2328 
Q 447 3434 972 4092 
Q 1497 4750 2381 4750 
Q 2619 4750 2861 4703 
Q 3103 4656 3366 4563 
z
" transform="scale(0.015625)"/>
     </defs>
     <use xlink:href="#DejaVuSans-36"/>
     <use xlink:href="#DejaVuSans-3a9" x="63.623047"/>
    </g>
   </g>
   <g id="text_10">
    <!-- + -->
    <g style="fill: #0000ff" transform="translate(134.582422 72.744141) scale(0.125 -0.125)">
     <use xlink:href="#DejaVuSans-2b"/>
    </g>
   </g>
   <g id="text_11">
    <!-- - -->
    <g style="fill: #0000ff" transform="translate(140.547266 126.744141) scale(0.125 -0.125)">
     <use xlink:href="#DejaVuSans-2d"/>
    </g>
   </g>
   <g id="text_12">
    <!-- - -->
    <g style="fill: #ff0000" transform="translate(170.257031 72.744141) scale(0.125 -0.125)">
     <use xlink:href="#DejaVuSans-2d"/>
    </g>
   </g>
   <g id="text_13">
    <!-- + -->
    <g style="fill: #ff0000" transform="translate(170.257031 126.744141) scale(0.125 -0.125)">
     <use xlink:href="#DejaVuSans-2b"/>
    </g>
   </g>
   <g id="text_14">
    <!-- $I_1$ -->
    <g style="fill: #0000ff" transform="translate(103.594531 104.244141) scale(0.125 -0.125)">
     <use xlink:href="#STIXGeneral-Italic-49" transform="translate(0 0.703125)"/>
     <use xlink:href="#STIXGeneral-Regular-31" transform="translate(33.299988 -12.525) scale(0.7)"/>
    </g>
   </g>
   <g id="text_15">
    <!-- $I_2$ -->
    <g style="fill: #ff0000" transform="translate(202.594531 104.244141) scale(0.125 -0.125)">
     <use xlink:href="#STIXGeneral-Italic-49" transform="translate(0 0.703125)"/>
     <use xlink:href="#STIXGeneral-Regular-32" transform="translate(33.299988 -12.525) scale(0.7)"/>
    </g>
   </g>
  </g>
 </g>
 <defs>
  <clipPath id="pf1e05a6283">
   <rect x="19.057031" y="27.444922" width="277.2" height="128.7"/>
  </clipPath>
 </defs>
</svg>
