<?xml version="1.0" encoding="utf-8" standalone="no"?>
<!DOCTYPE svg PUBLIC "-//W3C//DTD SVG 1.1//EN"
  "http://www.w3.org/Graphics/SVG/1.1/DTD/svg11.dtd">
<svg xmlns:xlink="http://www.w3.org/1999/xlink" width="299.362891pt" height="197.544922pt" viewBox="0 0 299.362891 197.544922" xmlns="http://www.w3.org/2000/svg" version="1.1">
 <metadata>
  <rdf:RDF xmlns:dc="http://purl.org/dc/elements/1.1/" xmlns:cc="http://creativecommons.org/ns#" xmlns:rdf="http://www.w3.org/1999/02/22-rdf-syntax-ns#">
   <cc:Work>
    <dc:type rdf:resource="http://purl.org/dc/dcmitype/StillImage"/>
    <dc:date>2024-03-15T17:20:05.597559</dc:date>
    <dc:format>image/svg+xml</dc:format>
    <dc:creator>
     <cc:Agent>
      <dc:title>Matplotlib v3.8.2, https://matplotlib.org/</dc:title>
     </cc:Agent>
    </dc:creator>
   </cc:Work>
  </rdf:RDF>
 </metadata>
 <defs>
  <style type="text/css">*{stroke-linejoin: round; stroke-linecap: butt}</style>
 </defs>
 <g id="figure_1">
  <g id="patch_1">
   <path d="M 0 197.544922 
L 299.362891 197.544922 
L 299.362891 0 
L 0 0 
L 0 197.544922 
z
" style="fill: none"/>
  </g>
  <g id="axes_1">
   <g id="patch_2">
    <path d="M 49.657031 132.294922 
C 54.430687 132.294922 59.009469 130.398328 62.384953 127.022844 
C 65.760438 123.64736 67.657031 119.068578 67.657031 114.294922 
C 67.657031 109.521266 65.760438 104.942484 62.384953 101.567 
C 59.009469 98.191515 54.430687 96.294922 49.657031 96.294922 
C 44.883375 96.294922 40.304594 98.191515 36.929109 101.567 
C 33.553625 104.942484 31.657031 109.521266 31.657031 114.294922 
C 31.657031 119.068578 33.553625 123.64736 36.929109 127.022844 
C 40.304594 130.398328 44.883375 132.294922 49.657031 132.294922 
L 49.657031 132.294922 
z
" clip-path="url(#p7597ea3db2)" style="fill: none; stroke: #000000; stroke-width: 2; stroke-linejoin: miter"/>
   </g>
   <g id="patch_3">
    <path d="M 157.657031 168.294922 
C 162.430687 168.294922 167.009469 166.398328 170.384953 163.022844 
C 173.760438 159.64736 175.657031 155.068578 175.657031 150.294922 
C 175.657031 145.521266 173.760438 140.942484 170.384953 137.567 
C 167.009469 134.191515 162.430687 132.294922 157.657031 132.294922 
C 152.883375 132.294922 148.304594 134.191515 144.929109 137.567 
C 141.553625 140.942484 139.657031 145.521266 139.657031 150.294922 
C 139.657031 155.068578 141.553625 159.64736 144.929109 163.022844 
C 148.304594 166.398328 152.883375 168.294922 157.657031 168.294922 
L 157.657031 168.294922 
z
" clip-path="url(#p7597ea3db2)" style="fill: none; stroke: #000000; stroke-width: 2; stroke-linejoin: miter"/>
   </g>
   <g id="patch_4">
    <path d="M 121.303686 109.589535 
C 120.930317 104.790493 120.268091 100.235945 119.349624 96.150212 
C 118.431157 92.064479 117.27178 88.51576 115.928595 85.678836 
C 114.58541 82.841912 113.080838 80.764137 111.48898 79.547845 
C 109.897123 78.331554 108.244553 77.997048 106.612661 78.560803 
C 104.98077 79.124559 103.396797 80.577165 101.938756 82.847078 
C 100.480716 85.116991 99.172945 88.166322 98.079854 91.844884 
C 96.986764 95.523447 96.126599 99.76984 95.541725 104.374919 
C 94.956852 108.979997 94.657031 113.866895 94.657031 118.794922 
C 94.657031 123.722948 94.956852 128.609847 95.541725 133.214925 
C 96.126599 137.820004 96.986764 142.066397 98.079854 145.744959 
C 99.172945 149.423522 100.480716 152.472853 101.938756 154.742766 
C 103.396797 157.012679 104.98077 158.465285 106.612661 159.02904 
C 108.244553 159.592796 109.897123 159.25829 111.48898 158.041999 
C 113.080838 156.825707 114.58541 154.747932 115.928595 151.911008 
C 117.27178 149.074084 118.431157 145.525364 119.349624 141.439632 
C 120.268091 137.353899 120.930317 132.799351 121.303686 128.000309 
" clip-path="url(#p7597ea3db2)" style="fill: none; stroke: #0000ff; stroke-width: 2; stroke-linejoin: miter"/>
   </g>
   <g id="patch_5">
    <path d="M 123.431154 118.704549 
L 118.756181 110.553805 
L 121.367983 109.944204 
L 121.286157 109.593626 
L 121.321215 109.585444 
L 121.403041 109.936021 
L 124.014843 109.32642 
z
" clip-path="url(#p7597ea3db2)" style="fill: #0000ff; stroke: #0000ff; stroke-linejoin: miter"/>
   </g>
   <g id="patch_6">
    <path d="M 236.879976 101.133626 
C 235.762614 95.770105 234.14473 90.803651 232.098823 86.456817 
C 230.052917 82.109982 227.61001 78.448681 224.879574 75.63698 
C 222.149138 72.825279 219.172576 70.905814 216.08327 69.964598 
C 212.993964 69.023383 209.838761 69.07469 206.759047 70.116219 
C 203.679334 71.157748 200.721811 73.173707 198.019008 76.073757 
C 195.316206 78.973808 192.909107 82.713975 190.905579 87.126657 
C 188.90205 91.539339 187.332472 96.557624 186.267179 101.956637 
C 185.201886 107.355649 184.657031 113.05352 184.657031 118.794922 
C 184.657031 124.536323 185.201886 130.234195 186.267179 135.633207 
C 187.332472 141.032219 188.90205 146.050504 190.905579 150.463187 
C 192.909107 154.875869 195.316206 158.616036 198.019008 161.516086 
C 200.721811 164.416137 203.679334 166.432096 206.759047 167.473625 
C 209.838761 168.515154 212.993964 168.566461 216.08327 167.625245 
C 219.172576 166.68403 222.149138 164.764565 224.879574 161.952864 
C 227.61001 159.141163 230.052917 155.479861 232.098823 151.133027 
C 234.14473 146.786192 235.762614 141.819738 236.879976 136.456218 
" clip-path="url(#p7597ea3db2)" style="fill: none; stroke: #ff0000; stroke-width: 2; stroke-linejoin: miter"/>
   </g>
   <g id="patch_7">
    <path d="M 240.219567 109.87758 
L 234.486127 102.433275 
L 236.991607 101.476354 
L 236.863161 101.140048 
L 236.896791 101.127203 
L 237.025237 101.463509 
L 239.530716 100.506588 
z
" clip-path="url(#p7597ea3db2)" style="fill: #ff0000; stroke: #ff0000; stroke-linejoin: miter"/>
   </g>
   <g id="line2d_1">
    <path d="M 49.657031 186.294922 
L 49.657031 132.294922 
L 49.657031 132.294922 
M 49.657031 96.294922 
L 49.657031 96.294922 
L 49.657031 42.294922 
" clip-path="url(#p7597ea3db2)" style="fill: none; stroke: #000000; stroke-width: 2; stroke-linecap: round"/>
   </g>
   <g id="line2d_2">
    <path d="M 53.257031 123.294922 
L 46.057031 123.294922 
" clip-path="url(#p7597ea3db2)" style="fill: none; stroke: #000000; stroke-width: 2; stroke-linecap: round"/>
   </g>
   <g id="line2d_3">
    <path d="M 49.657031 108.894922 
L 49.657031 101.694922 
" clip-path="url(#p7597ea3db2)" style="fill: none; stroke: #000000; stroke-width: 2; stroke-linecap: round"/>
   </g>
   <g id="line2d_4">
    <path d="M 53.257031 105.294922 
L 46.057031 105.294922 
" clip-path="url(#p7597ea3db2)" style="fill: none; stroke: #000000; stroke-width: 2; stroke-linecap: round"/>
   </g>
   <g id="line2d_5">
    <path d="M 49.657031 42.294922 
L 85.657031 42.294922 
L 88.657031 33.294922 
L 94.657031 51.294922 
L 100.657031 33.294922 
L 106.657031 51.294922 
L 112.657031 33.294922 
L 118.657031 51.294922 
L 121.657031 42.294922 
L 157.657031 42.294922 
" clip-path="url(#p7597ea3db2)" style="fill: none; stroke: #000000; stroke-width: 2; stroke-linecap: round"/>
   </g>
   <g id="line2d_6">
    <path d="M 157.657031 42.294922 
L 193.657031 42.294922 
L 196.657031 33.294922 
L 202.657031 51.294922 
L 208.657031 33.294922 
L 214.657031 51.294922 
L 220.657031 33.294922 
L 226.657031 51.294922 
L 229.657031 42.294922 
L 265.657031 42.294922 
" clip-path="url(#p7597ea3db2)" style="fill: none; stroke: #000000; stroke-width: 2; stroke-linecap: round"/>
   </g>
   <g id="line2d_7">
    <path d="M 265.657031 42.294922 
L 265.657031 96.294922 
L 274.657031 99.294922 
L 256.657031 105.294922 
L 274.657031 111.294922 
L 256.657031 117.294922 
L 274.657031 123.294922 
L 256.657031 129.294922 
L 265.657031 132.294922 
L 265.657031 186.294922 
" clip-path="url(#p7597ea3db2)" style="fill: none; stroke: #000000; stroke-width: 2; stroke-linecap: round"/>
   </g>
   <g id="line2d_8">
    <path d="M 265.657031 186.294922 
L 157.657031 186.294922 
L 49.657031 186.294922 
" clip-path="url(#p7597ea3db2)" style="fill: none; stroke: #000000; stroke-width: 2; stroke-linecap: round"/>
   </g>
   <g id="line2d_9">
    <path d="M 157.657031 42.294922 
L 157.657031 60.294922 
L 166.657031 63.294922 
L 148.657031 69.294922 
L 166.657031 75.294922 
L 148.657031 81.294922 
L 166.657031 87.294922 
L 148.657031 93.294922 
L 157.657031 96.294922 
L 157.657031 114.294922 
" clip-path="url(#p7597ea3db2)" style="fill: none; stroke: #000000; stroke-width: 2; stroke-linecap: round"/>
   </g>
   <g id="line2d_10">
    <path d="M 157.657031 114.294922 
L 157.657031 132.294922 
L 157.657031 132.294922 
M 157.657031 168.294922 
L 157.657031 168.294922 
L 157.657031 186.294922 
" clip-path="url(#p7597ea3db2)" style="fill: none; stroke: #000000; stroke-width: 2; stroke-linecap: round"/>
   </g>
   <g id="line2d_11">
    <path d="M 157.657031 150.294922 
L 157.657031 159.294922 
" clip-path="url(#p7597ea3db2)" style="fill: none; stroke: #000000; stroke-width: 2; stroke-linecap: round"/>
   </g>
   <g id="patch_8">
    <path d="M 154.957031 150.294922 
L 157.657031 141.294922 
L 160.357031 150.294922 
z
" clip-path="url(#p7597ea3db2)"/>
   </g>
   <g id="line2d_12">
    <path d="M 71.257031 175.494922 
L 71.257031 116.094922 
L 71.257031 56.694922 
" clip-path="url(#p7597ea3db2)" style="fill: none; stroke-dasharray: 7.4,3.2; stroke-dashoffset: 0; stroke: #008000; stroke-width: 2"/>
   </g>
   <g id="line2d_13">
    <path d="M 71.257031 56.694922 
L 159.457031 56.694922 
L 247.657031 56.694922 
" clip-path="url(#p7597ea3db2)" style="fill: none; stroke-dasharray: 7.4,3.2; stroke-dashoffset: 0; stroke: #008000; stroke-width: 2"/>
   </g>
   <g id="line2d_14">
    <path d="M 247.657031 56.694922 
L 247.657031 116.094922 
L 247.657031 175.494922 
" clip-path="url(#p7597ea3db2)" style="fill: none; stroke-dasharray: 7.4,3.2; stroke-dashoffset: 0; stroke: #008000; stroke-width: 2"/>
   </g>
   <g id="line2d_15">
    <path d="M 247.657031 175.494922 
L 166.657031 175.494922 
L 94.657031 175.494922 
" clip-path="url(#p7597ea3db2)" style="fill: none; stroke-dasharray: 7.4,3.2; stroke-dashoffset: 0; stroke: #008000; stroke-width: 2"/>
   </g>
   <g id="patch_9">
    <path d="M 94.657031 178.194922 
L 85.657031 175.494922 
L 94.657031 172.794922 
z
" clip-path="url(#p7597ea3db2)" style="fill: #008000"/>
   </g>
   <g id="text_1">
    <!-- $V_S$ -->
    <g transform="translate(15.432031 110.745508) scale(0.125 -0.125)">
     <defs>
      <path id="STIXGeneral-Italic-56" d="M 4403 4179 
L 4403 4077 
Q 4198 4070 4045 3821 
L 1658 -115 
L 1536 -115 
L 1011 3104 
Q 902 3776 828 3910 
Q 755 4045 486 4077 
L 486 4179 
L 2022 4179 
L 2022 4077 
Q 1722 4045 1629 3981 
Q 1536 3917 1536 3750 
Q 1536 3686 1542 3654 
L 1958 819 
L 3302 3123 
Q 3616 3661 3616 3859 
Q 3616 4032 3219 4077 
L 3219 4179 
L 4403 4179 
z
" transform="scale(0.015625)"/>
      <path id="STIXGeneral-Italic-53" d="M 3251 4269 
L 2995 2989 
L 2880 3008 
Q 2880 3539 2720 3795 
Q 2560 4051 2118 4051 
Q 1786 4051 1594 3881 
Q 1402 3712 1402 3411 
Q 1402 3168 1504 3005 
Q 1606 2842 2035 2413 
Q 2464 1978 2611 1715 
Q 2758 1453 2758 1133 
Q 2758 589 2390 237 
Q 2022 -115 1466 -115 
Q 1222 -115 800 32 
Q 595 109 499 109 
Q 288 109 224 -96 
L 109 -96 
L 326 1338 
L 454 1325 
Q 442 1267 442 1178 
Q 442 710 701 409 
Q 960 109 1363 109 
Q 1734 109 1968 336 
Q 2202 563 2202 928 
Q 2202 1139 2118 1308 
Q 2035 1478 1818 1715 
L 1568 1984 
Q 1549 2003 1459 2102 
Q 1370 2202 1318 2253 
Q 1030 2560 934 2755 
Q 838 2950 838 3213 
Q 838 3699 1168 3980 
Q 1498 4262 1978 4262 
Q 2310 4262 2522 4173 
Q 2707 4102 2816 4102 
Q 2925 4102 2982 4134 
Q 3040 4166 3104 4269 
L 3251 4269 
z
" transform="scale(0.015625)"/>
     </defs>
     <use xlink:href="#STIXGeneral-Italic-56" transform="translate(0 0.703125)"/>
     <use xlink:href="#STIXGeneral-Italic-53" transform="translate(61.099991 -12.525) scale(0.7)"/>
    </g>
    <!-- 10V -->
    <g transform="translate(3.6 124.742773) scale(0.125 -0.125)">
     <defs>
      <path id="DejaVuSans-31" d="M 794 531 
L 1825 531 
L 1825 4091 
L 703 3866 
L 703 4441 
L 1819 4666 
L 2450 4666 
L 2450 531 
L 3481 531 
L 3481 0 
L 794 0 
L 794 531 
z
" transform="scale(0.015625)"/>
      <path id="DejaVuSans-30" d="M 2034 4250 
Q 1547 4250 1301 3770 
Q 1056 3291 1056 2328 
Q 1056 1369 1301 889 
Q 1547 409 2034 409 
Q 2525 409 2770 889 
Q 3016 1369 3016 2328 
Q 3016 3291 2770 3770 
Q 2525 4250 2034 4250 
z
M 2034 4750 
Q 2819 4750 3233 4129 
Q 3647 3509 3647 2328 
Q 3647 1150 3233 529 
Q 2819 -91 2034 -91 
Q 1250 -91 836 529 
Q 422 1150 422 2328 
Q 422 3509 836 4129 
Q 1250 4750 2034 4750 
z
" transform="scale(0.015625)"/>
      <path id="DejaVuSans-56" d="M 1831 0 
L 50 4666 
L 709 4666 
L 2188 738 
L 3669 4666 
L 4325 4666 
L 2547 0 
L 1831 0 
z
" transform="scale(0.015625)"/>
     </defs>
     <use xlink:href="#DejaVuSans-31"/>
     <use xlink:href="#DejaVuSans-30" x="63.623047"/>
     <use xlink:href="#DejaVuSans-56" x="127.246094"/>
    </g>
   </g>
   <g id="text_2">
    <!-- $R_1$ -->
    <g transform="translate(97.344531 13.098047) scale(0.125 -0.125)">
     <defs>
      <path id="STIXGeneral-Italic-52" d="M 845 4179 
L 2458 4179 
Q 3078 4179 3420 3936 
Q 3763 3693 3763 3277 
Q 3763 2778 3341 2458 
Q 3091 2266 2502 2131 
L 3072 627 
Q 3181 333 3299 217 
Q 3418 102 3629 102 
L 3629 0 
L 2688 0 
L 1901 2074 
L 1478 2106 
L 1126 806 
Q 1043 512 1043 403 
Q 1043 256 1126 192 
Q 1210 128 1472 102 
L 1472 0 
L -83 0 
L -83 102 
Q 173 134 278 243 
Q 384 352 461 646 
L 1222 3405 
Q 1299 3699 1299 3808 
Q 1299 3923 1210 3987 
Q 1133 4038 845 4077 
L 845 4179 
z
M 1958 3795 
L 1555 2342 
Q 1754 2310 1882 2310 
Q 2451 2310 2771 2566 
Q 3091 2822 3091 3270 
Q 3091 3603 2892 3795 
Q 2694 3987 2323 3987 
Q 2010 3987 1958 3795 
z
" transform="scale(0.015625)"/>
      <path id="STIXGeneral-Regular-31" d="M 2522 0 
L 755 0 
L 755 96 
Q 1107 115 1235 227 
Q 1363 339 1363 608 
L 1363 3482 
Q 1363 3795 1171 3795 
Q 1082 3795 883 3718 
L 710 3654 
L 710 3744 
L 1856 4326 
L 1914 4307 
L 1914 486 
Q 1914 275 2042 185 
Q 2170 96 2522 96 
L 2522 0 
z
" transform="scale(0.015625)"/>
     </defs>
     <use xlink:href="#STIXGeneral-Italic-52" transform="translate(0 0.703125)"/>
     <use xlink:href="#STIXGeneral-Regular-31" transform="translate(61.099991 -12.525) scale(0.7)"/>
    </g>
    <!-- 6立 -->
    <g transform="translate(94.904102 27.095312) scale(0.125 -0.125)">
     <defs>
      <path id="DejaVuSans-36" d="M 2113 2584 
Q 1688 2584 1439 2293 
Q 1191 2003 1191 1497 
Q 1191 994 1439 701 
Q 1688 409 2113 409 
Q 2538 409 2786 701 
Q 3034 994 3034 1497 
Q 3034 2003 2786 2293 
Q 2538 2584 2113 2584 
z
M 3366 4563 
L 3366 3988 
Q 3128 4100 2886 4159 
Q 2644 4219 2406 4219 
Q 1781 4219 1451 3797 
Q 1122 3375 1075 2522 
Q 1259 2794 1537 2939 
Q 1816 3084 2150 3084 
Q 2853 3084 3261 2657 
Q 3669 2231 3669 1497 
Q 3669 778 3244 343 
Q 2819 -91 2113 -91 
Q 1303 -91 875 529 
Q 447 1150 447 2328 
Q 447 3434 972 4092 
Q 1497 4750 2381 4750 
Q 2619 4750 2861 4703 
Q 3103 4656 3366 4563 
z
" transform="scale(0.015625)"/>
      <path id="DejaVuSans-3a9" d="M 4647 556 
L 4647 0 
L 2772 0 
L 2772 556 
Q 3325 859 3634 1378 
Q 3944 1897 3944 2528 
Q 3944 3278 3531 3731 
Q 3119 4184 2444 4184 
Q 1769 4184 1355 3729 
Q 941 3275 941 2528 
Q 941 1897 1250 1378 
Q 1563 859 2119 556 
L 2119 0 
L 244 0 
L 244 556 
L 1241 556 
Q 747 991 519 1456 
Q 294 1922 294 2497 
Q 294 3491 894 4106 
Q 1491 4722 2444 4722 
Q 3391 4722 3994 4106 
Q 4594 3494 4594 2528 
Q 4594 1922 4372 1459 
Q 4150 997 3647 556 
L 4647 556 
z
" transform="scale(0.015625)"/>
     </defs>
     <use xlink:href="#DejaVuSans-36"/>
     <use xlink:href="#DejaVuSans-3a9" x="63.623047"/>
    </g>
   </g>
   <g id="text_3">
    <!-- $R_3$ -->
    <g transform="translate(205.344531 13.098047) scale(0.125 -0.125)">
     <defs>
      <path id="STIXGeneral-Regular-33" d="M 390 3264 
L 288 3290 
Q 435 3770 748 4048 
Q 1062 4326 1542 4326 
Q 1990 4326 2265 4083 
Q 2541 3840 2541 3450 
Q 2541 2925 1946 2566 
Q 2298 2413 2477 2227 
Q 2758 1914 2758 1402 
Q 2758 890 2464 506 
Q 2246 211 1840 60 
Q 1434 -90 979 -90 
Q 262 -90 262 275 
Q 262 378 339 442 
Q 416 506 525 506 
Q 685 506 915 339 
Q 1197 141 1466 141 
Q 1818 141 2058 425 
Q 2298 710 2298 1120 
Q 2298 1856 1632 2048 
Q 1434 2112 979 2112 
L 979 2202 
Q 1338 2323 1517 2432 
Q 2035 2726 2035 3290 
Q 2035 3610 1852 3776 
Q 1670 3942 1344 3942 
Q 768 3942 390 3264 
z
" transform="scale(0.015625)"/>
     </defs>
     <use xlink:href="#STIXGeneral-Italic-52" transform="translate(0 0.703125)"/>
     <use xlink:href="#STIXGeneral-Regular-33" transform="translate(61.099991 -12.525) scale(0.7)"/>
    </g>
    <!-- 10立 -->
    <g transform="translate(198.927539 27.095312) scale(0.125 -0.125)">
     <use xlink:href="#DejaVuSans-31"/>
     <use xlink:href="#DejaVuSans-30" x="63.623047"/>
     <use xlink:href="#DejaVuSans-3a9" x="127.246094"/>
    </g>
   </g>
   <g id="text_4">
    <!-- $R_4$ -->
    <g transform="translate(278.257031 110.745508) scale(0.125 -0.125)">
     <defs>
      <path id="STIXGeneral-Regular-34" d="M 3027 1069 
L 2368 1069 
L 2368 0 
L 1869 0 
L 1869 1069 
L 77 1069 
L 77 1478 
L 2086 4326 
L 2368 4326 
L 2368 1478 
L 3027 1478 
L 3027 1069 
z
M 1869 1478 
L 1869 3674 
L 333 1478 
L 1869 1478 
z
" transform="scale(0.015625)"/>
     </defs>
     <use xlink:href="#STIXGeneral-Italic-52" transform="translate(0 0.703125)"/>
     <use xlink:href="#STIXGeneral-Regular-34" transform="translate(61.099991 -12.525) scale(0.7)"/>
    </g>
    <!-- 4立 -->
    <g transform="translate(278.257031 124.742773) scale(0.125 -0.125)">
     <defs>
      <path id="DejaVuSans-34" d="M 2419 4116 
L 825 1625 
L 2419 1625 
L 2419 4116 
z
M 2253 4666 
L 3047 4666 
L 3047 1625 
L 3713 1625 
L 3713 1100 
L 3047 1100 
L 3047 0 
L 2419 0 
L 2419 1100 
L 313 1100 
L 313 1709 
L 2253 4666 
z
" transform="scale(0.015625)"/>
     </defs>
     <use xlink:href="#DejaVuSans-34"/>
     <use xlink:href="#DejaVuSans-3a9" x="63.623047"/>
    </g>
   </g>
   <g id="text_5">
    <!-- $R_2$ -->
    <g transform="translate(132.432031 74.745508) scale(0.125 -0.125)">
     <defs>
      <path id="STIXGeneral-Regular-32" d="M 3034 877 
L 2688 0 
L 186 0 
L 186 77 
L 1325 1286 
Q 1773 1754 1965 2144 
Q 2157 2534 2157 2950 
Q 2157 3379 1920 3616 
Q 1683 3853 1267 3853 
Q 922 3853 720 3673 
Q 518 3494 326 3021 
L 192 3053 
Q 301 3648 630 3987 
Q 960 4326 1523 4326 
Q 2054 4326 2380 4006 
Q 2707 3686 2707 3200 
Q 2707 2477 1888 1613 
L 832 486 
L 2330 486 
Q 2541 486 2665 569 
Q 2790 653 2944 915 
L 3034 877 
z
" transform="scale(0.015625)"/>
     </defs>
     <use xlink:href="#STIXGeneral-Italic-52" transform="translate(0 0.703125)"/>
     <use xlink:href="#STIXGeneral-Regular-32" transform="translate(61.099991 -12.525) scale(0.7)"/>
    </g>
    <!-- 2立 -->
    <g transform="translate(127.551172 88.742773) scale(0.125 -0.125)">
     <defs>
      <path id="DejaVuSans-32" d="M 1228 531 
L 3431 531 
L 3431 0 
L 469 0 
L 469 531 
Q 828 903 1448 1529 
Q 2069 2156 2228 2338 
Q 2531 2678 2651 2914 
Q 2772 3150 2772 3378 
Q 2772 3750 2511 3984 
Q 2250 4219 1831 4219 
Q 1534 4219 1204 4116 
Q 875 4013 500 3803 
L 500 4441 
Q 881 4594 1212 4672 
Q 1544 4750 1819 4750 
Q 2544 4750 2975 4387 
Q 3406 4025 3406 3419 
Q 3406 3131 3298 2873 
Q 3191 2616 2906 2266 
Q 2828 2175 2409 1742 
Q 1991 1309 1228 531 
z
" transform="scale(0.015625)"/>
     </defs>
     <use xlink:href="#DejaVuSans-32"/>
     <use xlink:href="#DejaVuSans-3a9" x="63.623047"/>
    </g>
   </g>
   <g id="text_6">
    <!-- $I_S$ -->
    <g transform="translate(126.932031 146.745508) scale(0.125 -0.125)">
     <defs>
      <path id="STIXGeneral-Italic-49" d="M 2458 4179 
L 2458 4077 
Q 2189 4045 2102 3961 
Q 2016 3878 1933 3584 
L 1165 838 
Q 1069 499 1069 352 
Q 1069 224 1149 179 
Q 1229 134 1510 102 
L 1510 0 
L -51 0 
L -51 102 
Q 218 154 317 237 
Q 416 320 486 582 
L 1254 3405 
Q 1338 3699 1338 3802 
Q 1338 3930 1235 3997 
Q 1133 4064 877 4077 
L 877 4179 
L 2458 4179 
z
" transform="scale(0.015625)"/>
     </defs>
     <use xlink:href="#STIXGeneral-Italic-49" transform="translate(0 0.703125)"/>
     <use xlink:href="#STIXGeneral-Italic-53" transform="translate(33.299988 -12.525) scale(0.7)"/>
    </g>
    <!-- 6A -->
    <g transform="translate(119.553125 160.742773) scale(0.125 -0.125)">
     <defs>
      <path id="DejaVuSans-41" d="M 2188 4044 
L 1331 1722 
L 3047 1722 
L 2188 4044 
z
M 1831 4666 
L 2547 4666 
L 4325 0 
L 3669 0 
L 3244 1197 
L 1141 1197 
L 716 0 
L 50 0 
L 1831 4666 
z
" transform="scale(0.015625)"/>
     </defs>
     <use xlink:href="#DejaVuSans-36"/>
     <use xlink:href="#DejaVuSans-41" x="63.623047"/>
    </g>
   </g>
   <g id="text_7">
    <!-- $I_1$ -->
    <g style="fill: #0000ff" transform="translate(103.594531 122.244141) scale(0.125 -0.125)">
     <use xlink:href="#STIXGeneral-Italic-49" transform="translate(0 0.703125)"/>
     <use xlink:href="#STIXGeneral-Regular-31" transform="translate(33.299988 -12.525) scale(0.7)"/>
    </g>
   </g>
   <g id="text_8">
    <!-- $I_2$ -->
    <g style="fill: #ff0000" transform="translate(207.094531 122.244141) scale(0.125 -0.125)">
     <use xlink:href="#STIXGeneral-Italic-49" transform="translate(0 0.703125)"/>
     <use xlink:href="#STIXGeneral-Regular-32" transform="translate(33.299988 -12.525) scale(0.7)"/>
    </g>
   </g>
  </g>
 </g>
 <defs>
  <clipPath id="p7597ea3db2">
   <rect x="19.507031" y="25.644922" width="267.3" height="168.3"/>
  </clipPath>
 </defs>
</svg>
