<?xml version="1.0" encoding="utf-8" standalone="no"?>
<!DOCTYPE svg PUBLIC "-//W3C//DTD SVG 1.1//EN"
  "http://www.w3.org/Graphics/SVG/1.1/DTD/svg11.dtd">
<svg xmlns:xlink="http://www.w3.org/1999/xlink" width="369.979688pt" height="222.114922pt" viewBox="0 0 369.979688 222.114922" xmlns="http://www.w3.org/2000/svg" version="1.1">
 <metadata>
  <rdf:RDF xmlns:dc="http://purl.org/dc/elements/1.1/" xmlns:cc="http://creativecommons.org/ns#" xmlns:rdf="http://www.w3.org/1999/02/22-rdf-syntax-ns#">
   <cc:Work>
    <dc:type rdf:resource="http://purl.org/dc/dcmitype/StillImage"/>
    <dc:date>2024-03-15T17:20:03.089233</dc:date>
    <dc:format>image/svg+xml</dc:format>
    <dc:creator>
     <cc:Agent>
      <dc:title>Matplotlib v3.8.2, https://matplotlib.org/</dc:title>
     </cc:Agent>
    </dc:creator>
   </cc:Work>
  </rdf:RDF>
 </metadata>
 <defs>
  <style type="text/css">*{stroke-linejoin: round; stroke-linecap: butt}</style>
 </defs>
 <g id="figure_1">
  <g id="patch_1">
   <path d="M 0 222.114922 
L 369.979688 222.114922 
L 369.979688 0 
L 0 0 
L 0 222.114922 
z
" style="fill: none"/>
  </g>
  <g id="axes_1">
   <g id="patch_2">
    <path d="M 53.629687 132.294922 
C 58.403343 132.294922 62.982125 130.398328 66.35761 127.022844 
C 69.733094 123.64736 71.629687 119.068578 71.629687 114.294922 
C 71.629687 109.521266 69.733094 104.942484 66.35761 101.567 
C 62.982125 98.191515 58.403343 96.294922 53.629687 96.294922 
C 48.856032 96.294922 44.27725 98.191515 40.901765 101.567 
C 37.526281 104.942484 35.629687 109.521266 35.629687 114.294922 
C 35.629687 119.068578 37.526281 123.64736 40.901765 127.022844 
C 44.27725 130.398328 48.856032 132.294922 53.629687 132.294922 
L 53.629687 132.294922 
z
" clip-path="url(#p9e6fe34aca)" style="fill: none; stroke: #000000; stroke-width: 2; stroke-linejoin: miter"/>
   </g>
   <g id="patch_3">
    <path d="M 150.253106 104.704353 
C 149.127512 101.553624 147.632317 98.689452 145.82987 96.231271 
C 144.027423 93.773089 141.943129 91.755546 139.663902 90.262772 
C 137.384674 88.769998 134.942639 87.823033 132.439628 87.461365 
C 129.936616 87.099697 127.407908 87.328424 124.958948 88.138008 
C 122.509989 88.947592 120.175296 90.326621 118.052225 92.217593 
C 115.929154 94.108564 114.04763 96.484823 112.48611 99.247283 
C 110.92459 102.009742 109.705085 105.119464 108.878447 108.446776 
C 108.051808 111.774088 107.629687 115.272091 107.629687 118.794922 
C 107.629687 122.317753 108.051808 125.815755 108.878447 129.143068 
C 109.705085 132.47038 110.92459 135.580102 112.48611 138.342561 
C 114.04763 141.105021 115.929154 143.48128 118.052225 145.372251 
C 120.175296 147.263222 122.509989 148.642252 124.958948 149.451836 
C 127.407908 150.26142 129.936616 150.490147 132.439628 150.128479 
C 134.942639 149.766811 137.384674 148.819846 139.663902 147.327072 
C 141.943129 145.834297 144.027423 143.816755 145.82987 141.358573 
C 147.632317 138.900391 149.127512 136.03622 150.253106 132.885491 
" clip-path="url(#p9e6fe34aca)" style="fill: none; stroke: #ff0000; stroke-width: 2; stroke-linejoin: miter"/>
   </g>
   <g id="patch_4">
    <path d="M 154.440018 113.075695 
L 147.999331 106.23409 
L 150.398042 105.034379 
L 150.237007 104.712404 
L 150.269205 104.696301 
L 150.43024 105.018276 
L 152.828951 103.818564 
z
" clip-path="url(#p9e6fe34aca)" style="fill: #ff0000; stroke: #ff0000; stroke-linejoin: miter"/>
   </g>
   <g id="patch_5">
    <path d="M 292.780179 102.584773 
C 291.271039 99.651204 289.362264 97.023985 287.128981 94.806521 
C 284.895697 92.589056 282.367595 90.810825 279.644175 89.541816 
C 276.920756 88.272806 274.038225 87.529889 271.110034 87.342303 
C 268.181843 87.154718 265.24692 87.524958 262.420779 88.438452 
C 259.594638 89.351945 256.91485 90.796549 254.486887 92.715405 
C 252.058924 94.634261 249.915063 97.001859 248.139684 99.725016 
C 246.364305 102.448173 244.981009 105.490686 244.044241 108.732806 
C 243.107474 111.974926 242.629687 115.373553 242.629687 118.794922 
C 242.629687 122.216291 243.107474 125.614918 244.044241 128.857038 
C 244.981009 132.099158 246.364305 135.141671 248.139684 137.864828 
C 249.915063 140.587984 252.058924 142.955583 254.486887 144.874439 
C 256.91485 146.793295 259.594638 148.237898 262.420779 149.151392 
C 265.24692 150.064886 268.181843 150.435126 271.110034 150.247541 
C 274.038225 150.059955 276.920756 149.317037 279.644175 148.048028 
C 282.367595 146.779018 284.895697 145.000787 287.128981 142.783323 
C 289.362264 140.565859 291.271039 137.93864 292.780179 135.005071 
" clip-path="url(#p9e6fe34aca)" style="fill: none; stroke: #0000ff; stroke-width: 2; stroke-linejoin: miter"/>
   </g>
   <g id="patch_6">
    <path d="M 297.596909 110.610277 
L 290.650389 104.282887 
L 292.950005 102.902709 
L 292.764746 102.594036 
L 292.795613 102.57551 
L 292.980872 102.884183 
L 295.280487 101.504005 
z
" clip-path="url(#p9e6fe34aca)" style="fill: #0000ff; stroke: #0000ff; stroke-linejoin: miter"/>
   </g>
   <g id="line2d_1">
    <path d="M 53.629687 186.294922 
L 53.629687 132.294922 
L 53.629687 132.294922 
M 53.629687 96.294922 
L 53.629687 96.294922 
L 53.629687 42.294922 
" clip-path="url(#p9e6fe34aca)" style="fill: none; stroke: #000000; stroke-width: 2; stroke-linecap: round"/>
   </g>
   <g id="line2d_2">
    <path d="M 57.229687 123.294922 
L 50.029687 123.294922 
" clip-path="url(#p9e6fe34aca)" style="fill: none; stroke: #000000; stroke-width: 2; stroke-linecap: round"/>
   </g>
   <g id="line2d_3">
    <path d="M 53.629687 108.894922 
L 53.629687 101.694922 
" clip-path="url(#p9e6fe34aca)" style="fill: none; stroke: #000000; stroke-width: 2; stroke-linecap: round"/>
   </g>
   <g id="line2d_4">
    <path d="M 57.229687 105.294922 
L 50.029687 105.294922 
" clip-path="url(#p9e6fe34aca)" style="fill: none; stroke: #000000; stroke-width: 2; stroke-linecap: round"/>
   </g>
   <g id="line2d_5">
    <path d="M 53.629687 42.294922 
L 107.629687 42.294922 
L 110.629687 33.294922 
L 116.629687 51.294922 
L 122.629687 33.294922 
L 128.629687 51.294922 
L 134.629687 33.294922 
L 140.629687 51.294922 
L 143.629687 42.294922 
L 197.629687 42.294922 
" clip-path="url(#p9e6fe34aca)" style="fill: none; stroke: #000000; stroke-width: 2; stroke-linecap: round"/>
   </g>
   <g id="line2d_6">
    <path d="M 197.629687 42.294922 
L 251.629687 42.294922 
L 254.629687 33.294922 
L 260.629687 51.294922 
L 266.629687 33.294922 
L 272.629687 51.294922 
L 278.629687 33.294922 
L 284.629687 51.294922 
L 287.629687 42.294922 
L 341.629687 42.294922 
" clip-path="url(#p9e6fe34aca)" style="fill: none; stroke: #000000; stroke-width: 2; stroke-linecap: round"/>
   </g>
   <g id="line2d_7">
    <path d="M 197.629687 42.294922 
L 197.629687 96.294922 
L 206.629687 99.294922 
L 188.629687 105.294922 
L 206.629687 111.294922 
L 188.629687 117.294922 
L 206.629687 123.294922 
L 188.629687 129.294922 
L 197.629687 132.294922 
L 197.629687 186.294922 
" clip-path="url(#p9e6fe34aca)" style="fill: none; stroke: #000000; stroke-width: 2; stroke-linecap: round"/>
   </g>
   <g id="line2d_8">
    <path d="M 341.629687 42.294922 
L 341.629687 96.294922 
L 350.629687 99.294922 
L 332.629687 105.294922 
L 350.629687 111.294922 
L 332.629687 117.294922 
L 350.629687 123.294922 
L 332.629687 129.294922 
L 341.629687 132.294922 
L 341.629687 186.294922 
" clip-path="url(#p9e6fe34aca)" style="fill: none; stroke: #000000; stroke-width: 2; stroke-linecap: round"/>
   </g>
   <g id="line2d_9">
    <path d="M 341.629687 186.294922 
L 197.629687 186.294922 
L 53.629687 186.294922 
" clip-path="url(#p9e6fe34aca)" style="fill: none; stroke: #000000; stroke-width: 2; stroke-linecap: round"/>
   </g>
   <g id="line2d_10">
    <path d="M 53.629687 186.294922 
L 53.629687 200.694922 
L 44.629687 200.694922 
L 53.629687 209.694922 
L 62.629687 200.694922 
L 53.629687 200.694922 
" clip-path="url(#p9e6fe34aca)" style="fill: none; stroke: #000000; stroke-width: 2; stroke-linecap: round"/>
   </g>
   <g id="line2d_11">
    <path d="M 78.829687 161.094922 
L 78.829687 114.294922 
L 78.829687 67.494922 
" clip-path="url(#p9e6fe34aca)" style="fill: none; stroke-dasharray: 7.4,3.2; stroke-dashoffset: 0; stroke: #ff0000; stroke-width: 2"/>
   </g>
   <g id="line2d_12">
    <path d="M 78.829687 67.494922 
L 125.629687 67.494922 
L 172.429688 67.494922 
" clip-path="url(#p9e6fe34aca)" style="fill: none; stroke-dasharray: 7.4,3.2; stroke-dashoffset: 0; stroke: #ff0000; stroke-width: 2"/>
   </g>
   <g id="line2d_13">
    <path d="M 172.429688 67.494922 
L 172.429687 114.294922 
L 172.429687 161.094922 
" clip-path="url(#p9e6fe34aca)" style="fill: none; stroke-dasharray: 7.4,3.2; stroke-dashoffset: 0; stroke: #ff0000; stroke-width: 2"/>
   </g>
   <g id="line2d_14">
    <path d="M 172.429687 161.094922 
L 140.029687 161.094922 
L 116.629687 161.094922 
" clip-path="url(#p9e6fe34aca)" style="fill: none; stroke-dasharray: 7.4,3.2; stroke-dashoffset: 0; stroke: #ff0000; stroke-width: 2"/>
   </g>
   <g id="patch_7">
    <path d="M 116.629687 163.794922 
L 107.629687 161.094922 
L 116.629687 158.394922 
z
" clip-path="url(#p9e6fe34aca)" style="fill: #ff0000"/>
   </g>
   <g id="text_1">
    <!-- $V_S$ -->
    <g transform="translate(19.404687 110.745508) scale(0.125 -0.125)">
     <defs>
      <path id="STIXGeneral-Italic-56" d="M 4403 4179 
L 4403 4077 
Q 4198 4070 4045 3821 
L 1658 -115 
L 1536 -115 
L 1011 3104 
Q 902 3776 828 3910 
Q 755 4045 486 4077 
L 486 4179 
L 2022 4179 
L 2022 4077 
Q 1722 4045 1629 3981 
Q 1536 3917 1536 3750 
Q 1536 3686 1542 3654 
L 1958 819 
L 3302 3123 
Q 3616 3661 3616 3859 
Q 3616 4032 3219 4077 
L 3219 4179 
L 4403 4179 
z
" transform="scale(0.015625)"/>
      <path id="STIXGeneral-Italic-53" d="M 3251 4269 
L 2995 2989 
L 2880 3008 
Q 2880 3539 2720 3795 
Q 2560 4051 2118 4051 
Q 1786 4051 1594 3881 
Q 1402 3712 1402 3411 
Q 1402 3168 1504 3005 
Q 1606 2842 2035 2413 
Q 2464 1978 2611 1715 
Q 2758 1453 2758 1133 
Q 2758 589 2390 237 
Q 2022 -115 1466 -115 
Q 1222 -115 800 32 
Q 595 109 499 109 
Q 288 109 224 -96 
L 109 -96 
L 326 1338 
L 454 1325 
Q 442 1267 442 1178 
Q 442 710 701 409 
Q 960 109 1363 109 
Q 1734 109 1968 336 
Q 2202 563 2202 928 
Q 2202 1139 2118 1308 
Q 2035 1478 1818 1715 
L 1568 1984 
Q 1549 2003 1459 2102 
Q 1370 2202 1318 2253 
Q 1030 2560 934 2755 
Q 838 2950 838 3213 
Q 838 3699 1168 3980 
Q 1498 4262 1978 4262 
Q 2310 4262 2522 4173 
Q 2707 4102 2816 4102 
Q 2925 4102 2982 4134 
Q 3040 4166 3104 4269 
L 3251 4269 
z
" transform="scale(0.015625)"/>
     </defs>
     <use xlink:href="#STIXGeneral-Italic-56" transform="translate(0 0.703125)"/>
     <use xlink:href="#STIXGeneral-Italic-53" transform="translate(61.099991 -12.525) scale(0.7)"/>
    </g>
    <!-- 21 V -->
    <g transform="translate(3.6 124.742773) scale(0.125 -0.125)">
     <defs>
      <path id="DejaVuSans-32" d="M 1228 531 
L 3431 531 
L 3431 0 
L 469 0 
L 469 531 
Q 828 903 1448 1529 
Q 2069 2156 2228 2338 
Q 2531 2678 2651 2914 
Q 2772 3150 2772 3378 
Q 2772 3750 2511 3984 
Q 2250 4219 1831 4219 
Q 1534 4219 1204 4116 
Q 875 4013 500 3803 
L 500 4441 
Q 881 4594 1212 4672 
Q 1544 4750 1819 4750 
Q 2544 4750 2975 4387 
Q 3406 4025 3406 3419 
Q 3406 3131 3298 2873 
Q 3191 2616 2906 2266 
Q 2828 2175 2409 1742 
Q 1991 1309 1228 531 
z
" transform="scale(0.015625)"/>
      <path id="DejaVuSans-31" d="M 794 531 
L 1825 531 
L 1825 4091 
L 703 3866 
L 703 4441 
L 1819 4666 
L 2450 4666 
L 2450 531 
L 3481 531 
L 3481 0 
L 794 0 
L 794 531 
z
" transform="scale(0.015625)"/>
      <path id="DejaVuSans-20" transform="scale(0.015625)"/>
      <path id="DejaVuSans-56" d="M 1831 0 
L 50 4666 
L 709 4666 
L 2188 738 
L 3669 4666 
L 4325 4666 
L 2547 0 
L 1831 0 
z
" transform="scale(0.015625)"/>
     </defs>
     <use xlink:href="#DejaVuSans-32"/>
     <use xlink:href="#DejaVuSans-31" x="63.623047"/>
     <use xlink:href="#DejaVuSans-20" x="127.246094"/>
     <use xlink:href="#DejaVuSans-56" x="159.033203"/>
    </g>
   </g>
   <g id="text_2">
    <!-- $R_1$ -->
    <g transform="translate(119.317188 13.098047) scale(0.125 -0.125)">
     <defs>
      <path id="STIXGeneral-Italic-52" d="M 845 4179 
L 2458 4179 
Q 3078 4179 3420 3936 
Q 3763 3693 3763 3277 
Q 3763 2778 3341 2458 
Q 3091 2266 2502 2131 
L 3072 627 
Q 3181 333 3299 217 
Q 3418 102 3629 102 
L 3629 0 
L 2688 0 
L 1901 2074 
L 1478 2106 
L 1126 806 
Q 1043 512 1043 403 
Q 1043 256 1126 192 
Q 1210 128 1472 102 
L 1472 0 
L -83 0 
L -83 102 
Q 173 134 278 243 
Q 384 352 461 646 
L 1222 3405 
Q 1299 3699 1299 3808 
Q 1299 3923 1210 3987 
Q 1133 4038 845 4077 
L 845 4179 
z
M 1958 3795 
L 1555 2342 
Q 1754 2310 1882 2310 
Q 2451 2310 2771 2566 
Q 3091 2822 3091 3270 
Q 3091 3603 2892 3795 
Q 2694 3987 2323 3987 
Q 2010 3987 1958 3795 
z
" transform="scale(0.015625)"/>
      <path id="STIXGeneral-Regular-31" d="M 2522 0 
L 755 0 
L 755 96 
Q 1107 115 1235 227 
Q 1363 339 1363 608 
L 1363 3482 
Q 1363 3795 1171 3795 
Q 1082 3795 883 3718 
L 710 3654 
L 710 3744 
L 1856 4326 
L 1914 4307 
L 1914 486 
Q 1914 275 2042 185 
Q 2170 96 2522 96 
L 2522 0 
z
" transform="scale(0.015625)"/>
     </defs>
     <use xlink:href="#STIXGeneral-Italic-52" transform="translate(0 0.703125)"/>
     <use xlink:href="#STIXGeneral-Regular-31" transform="translate(61.099991 -12.525) scale(0.7)"/>
    </g>
    <!-- 6立 -->
    <g transform="translate(116.876758 27.095312) scale(0.125 -0.125)">
     <defs>
      <path id="DejaVuSans-36" d="M 2113 2584 
Q 1688 2584 1439 2293 
Q 1191 2003 1191 1497 
Q 1191 994 1439 701 
Q 1688 409 2113 409 
Q 2538 409 2786 701 
Q 3034 994 3034 1497 
Q 3034 2003 2786 2293 
Q 2538 2584 2113 2584 
z
M 3366 4563 
L 3366 3988 
Q 3128 4100 2886 4159 
Q 2644 4219 2406 4219 
Q 1781 4219 1451 3797 
Q 1122 3375 1075 2522 
Q 1259 2794 1537 2939 
Q 1816 3084 2150 3084 
Q 2853 3084 3261 2657 
Q 3669 2231 3669 1497 
Q 3669 778 3244 343 
Q 2819 -91 2113 -91 
Q 1303 -91 875 529 
Q 447 1150 447 2328 
Q 447 3434 972 4092 
Q 1497 4750 2381 4750 
Q 2619 4750 2861 4703 
Q 3103 4656 3366 4563 
z
" transform="scale(0.015625)"/>
      <path id="DejaVuSans-3a9" d="M 4647 556 
L 4647 0 
L 2772 0 
L 2772 556 
Q 3325 859 3634 1378 
Q 3944 1897 3944 2528 
Q 3944 3278 3531 3731 
Q 3119 4184 2444 4184 
Q 1769 4184 1355 3729 
Q 941 3275 941 2528 
Q 941 1897 1250 1378 
Q 1563 859 2119 556 
L 2119 0 
L 244 0 
L 244 556 
L 1241 556 
Q 747 991 519 1456 
Q 294 1922 294 2497 
Q 294 3491 894 4106 
Q 1491 4722 2444 4722 
Q 3391 4722 3994 4106 
Q 4594 3494 4594 2528 
Q 4594 1922 4372 1459 
Q 4150 997 3647 556 
L 4647 556 
z
" transform="scale(0.015625)"/>
     </defs>
     <use xlink:href="#DejaVuSans-36"/>
     <use xlink:href="#DejaVuSans-3a9" x="63.623047"/>
    </g>
   </g>
   <g id="text_3">
    <!-- $R_3$ -->
    <g transform="translate(263.317187 13.098047) scale(0.125 -0.125)">
     <defs>
      <path id="STIXGeneral-Regular-33" d="M 390 3264 
L 288 3290 
Q 435 3770 748 4048 
Q 1062 4326 1542 4326 
Q 1990 4326 2265 4083 
Q 2541 3840 2541 3450 
Q 2541 2925 1946 2566 
Q 2298 2413 2477 2227 
Q 2758 1914 2758 1402 
Q 2758 890 2464 506 
Q 2246 211 1840 60 
Q 1434 -90 979 -90 
Q 262 -90 262 275 
Q 262 378 339 442 
Q 416 506 525 506 
Q 685 506 915 339 
Q 1197 141 1466 141 
Q 1818 141 2058 425 
Q 2298 710 2298 1120 
Q 2298 1856 1632 2048 
Q 1434 2112 979 2112 
L 979 2202 
Q 1338 2323 1517 2432 
Q 2035 2726 2035 3290 
Q 2035 3610 1852 3776 
Q 1670 3942 1344 3942 
Q 768 3942 390 3264 
z
" transform="scale(0.015625)"/>
     </defs>
     <use xlink:href="#STIXGeneral-Italic-52" transform="translate(0 0.703125)"/>
     <use xlink:href="#STIXGeneral-Regular-33" transform="translate(61.099991 -12.525) scale(0.7)"/>
    </g>
    <!-- 14立 -->
    <g transform="translate(256.900195 27.095312) scale(0.125 -0.125)">
     <defs>
      <path id="DejaVuSans-34" d="M 2419 4116 
L 825 1625 
L 2419 1625 
L 2419 4116 
z
M 2253 4666 
L 3047 4666 
L 3047 1625 
L 3713 1625 
L 3713 1100 
L 3047 1100 
L 3047 0 
L 2419 0 
L 2419 1100 
L 313 1100 
L 313 1709 
L 2253 4666 
z
" transform="scale(0.015625)"/>
     </defs>
     <use xlink:href="#DejaVuSans-31"/>
     <use xlink:href="#DejaVuSans-34" x="63.623047"/>
     <use xlink:href="#DejaVuSans-3a9" x="127.246094"/>
    </g>
   </g>
   <g id="text_4">
    <!-- $R_2$ -->
    <g transform="translate(210.229687 110.745508) scale(0.125 -0.125)">
     <defs>
      <path id="STIXGeneral-Regular-32" d="M 3034 877 
L 2688 0 
L 186 0 
L 186 77 
L 1325 1286 
Q 1773 1754 1965 2144 
Q 2157 2534 2157 2950 
Q 2157 3379 1920 3616 
Q 1683 3853 1267 3853 
Q 922 3853 720 3673 
Q 518 3494 326 3021 
L 192 3053 
Q 301 3648 630 3987 
Q 960 4326 1523 4326 
Q 2054 4326 2380 4006 
Q 2707 3686 2707 3200 
Q 2707 2477 1888 1613 
L 832 486 
L 2330 486 
Q 2541 486 2665 569 
Q 2790 653 2944 915 
L 3034 877 
z
" transform="scale(0.015625)"/>
     </defs>
     <use xlink:href="#STIXGeneral-Italic-52" transform="translate(0 0.703125)"/>
     <use xlink:href="#STIXGeneral-Regular-32" transform="translate(61.099991 -12.525) scale(0.7)"/>
    </g>
    <!-- 24立 -->
    <g transform="translate(210.229687 124.742773) scale(0.125 -0.125)">
     <use xlink:href="#DejaVuSans-32"/>
     <use xlink:href="#DejaVuSans-34" x="63.623047"/>
     <use xlink:href="#DejaVuSans-3a9" x="127.246094"/>
    </g>
   </g>
   <g id="text_5">
    <!-- $R_4$ -->
    <g transform="translate(316.404687 110.745508) scale(0.125 -0.125)">
     <defs>
      <path id="STIXGeneral-Regular-34" d="M 3027 1069 
L 2368 1069 
L 2368 0 
L 1869 0 
L 1869 1069 
L 77 1069 
L 77 1478 
L 2086 4326 
L 2368 4326 
L 2368 1478 
L 3027 1478 
L 3027 1069 
z
M 1869 1478 
L 1869 3674 
L 333 1478 
L 1869 1478 
z
" transform="scale(0.015625)"/>
     </defs>
     <use xlink:href="#STIXGeneral-Italic-52" transform="translate(0 0.703125)"/>
     <use xlink:href="#STIXGeneral-Regular-34" transform="translate(61.099991 -12.525) scale(0.7)"/>
    </g>
    <!-- 10立 -->
    <g transform="translate(303.570703 124.742773) scale(0.125 -0.125)">
     <defs>
      <path id="DejaVuSans-30" d="M 2034 4250 
Q 1547 4250 1301 3770 
Q 1056 3291 1056 2328 
Q 1056 1369 1301 889 
Q 1547 409 2034 409 
Q 2525 409 2770 889 
Q 3016 1369 3016 2328 
Q 3016 3291 2770 3770 
Q 2525 4250 2034 4250 
z
M 2034 4750 
Q 2819 4750 3233 4129 
Q 3647 3509 3647 2328 
Q 3647 1150 3233 529 
Q 2819 -91 2034 -91 
Q 1250 -91 836 529 
Q 422 1150 422 2328 
Q 422 3509 836 4129 
Q 1250 4750 2034 4750 
z
" transform="scale(0.015625)"/>
     </defs>
     <use xlink:href="#DejaVuSans-31"/>
     <use xlink:href="#DejaVuSans-30" x="63.623047"/>
     <use xlink:href="#DejaVuSans-3a9" x="127.246094"/>
    </g>
   </g>
   <g id="text_6">
    <!-- $I_1$ -->
    <g style="fill: #ff0000" transform="translate(125.567187 122.244141) scale(0.125 -0.125)">
     <defs>
      <path id="STIXGeneral-Italic-49" d="M 2458 4179 
L 2458 4077 
Q 2189 4045 2102 3961 
Q 2016 3878 1933 3584 
L 1165 838 
Q 1069 499 1069 352 
Q 1069 224 1149 179 
Q 1229 134 1510 102 
L 1510 0 
L -51 0 
L -51 102 
Q 218 154 317 237 
Q 416 320 486 582 
L 1254 3405 
Q 1338 3699 1338 3802 
Q 1338 3930 1235 3997 
Q 1133 4064 877 4077 
L 877 4179 
L 2458 4179 
z
" transform="scale(0.015625)"/>
     </defs>
     <use xlink:href="#STIXGeneral-Italic-49" transform="translate(0 0.703125)"/>
     <use xlink:href="#STIXGeneral-Regular-31" transform="translate(33.299988 -12.525) scale(0.7)"/>
    </g>
   </g>
   <g id="text_7">
    <!-- $I_2$ -->
    <g style="fill: #0000ff" transform="translate(265.067187 122.244141) scale(0.125 -0.125)">
     <use xlink:href="#STIXGeneral-Italic-49" transform="translate(0 0.703125)"/>
     <use xlink:href="#STIXGeneral-Regular-32" transform="translate(33.299988 -12.525) scale(0.7)"/>
    </g>
   </g>
   <g id="patch_8">
    <path d="M 197.629687 44.994922 
C 198.345736 44.994922 199.032553 44.710433 199.538876 44.20411 
C 200.045198 43.697788 200.329687 43.01097 200.329687 42.294922 
C 200.329687 41.578874 200.045198 40.892056 199.538876 40.385734 
C 199.032553 39.879411 198.345736 39.594922 197.629687 39.594922 
C 196.913639 39.594922 196.226822 39.879411 195.720499 40.385734 
C 195.214177 40.892056 194.929688 41.578874 194.929688 42.294922 
C 194.929688 43.01097 195.214177 43.697788 195.720499 44.20411 
C 196.226822 44.710433 196.913639 44.994922 197.629687 44.994922 
z
" clip-path="url(#p9e6fe34aca)" style="stroke: #000000; stroke-width: 2; stroke-linejoin: miter"/>
   </g>
   <g id="text_8">
    <!-- A -->
    <g transform="translate(193.354297 33.395312) scale(0.125 -0.125)">
     <defs>
      <path id="DejaVuSans-41" d="M 2188 4044 
L 1331 1722 
L 3047 1722 
L 2188 4044 
z
M 1831 4666 
L 2547 4666 
L 4325 0 
L 3669 0 
L 3244 1197 
L 1141 1197 
L 716 0 
L 50 0 
L 1831 4666 
z
" transform="scale(0.015625)"/>
     </defs>
     <use xlink:href="#DejaVuSans-41"/>
    </g>
   </g>
  </g>
 </g>
 <defs>
  <clipPath id="p9e6fe34aca">
   <rect x="19.879687" y="24.474922" width="346.5" height="194.04"/>
  </clipPath>
 </defs>
</svg>
