<?xml version="1.0" encoding="utf-8" standalone="no"?>
<!DOCTYPE svg PUBLIC "-//W3C//DTD SVG 1.1//EN"
  "http://www.w3.org/Graphics/SVG/1.1/DTD/svg11.dtd">
<svg xmlns:xlink="http://www.w3.org/1999/xlink" width="348.1644pt" height="285.21pt" viewBox="0 0 348.1644 285.21" xmlns="http://www.w3.org/2000/svg" version="1.1">
 <metadata>
  <rdf:RDF xmlns:dc="http://purl.org/dc/elements/1.1/" xmlns:cc="http://creativecommons.org/ns#" xmlns:rdf="http://www.w3.org/1999/02/22-rdf-syntax-ns#">
   <cc:Work>
    <dc:type rdf:resource="http://purl.org/dc/dcmitype/StillImage"/>
    <dc:date>2023-02-22T14:34:01.801979</dc:date>
    <dc:format>image/svg+xml</dc:format>
    <dc:creator>
     <cc:Agent>
      <dc:title>Matplotlib v3.5.2, https://matplotlib.org/</dc:title>
     </cc:Agent>
    </dc:creator>
   </cc:Work>
  </rdf:RDF>
 </metadata>
 <defs>
  <style type="text/css">*{stroke-linejoin: round; stroke-linecap: butt}</style>
 </defs>
 <g id="figure_1">
  <g id="patch_1">
   <path d="M 0 285.21 
L 348.1644 285.21 
L 348.1644 0 
L 0 0 
L 0 285.21 
z
" style="fill: none"/>
  </g>
  <g id="axes_1">
   <g id="patch_2">
    <path d="M 53.3754 147.96 
C 57.433007 147.96 61.324972 146.347895 64.194134 143.478734 
C 67.063295 140.609572 68.6754 136.717607 68.6754 132.66 
C 68.6754 128.602393 67.063295 124.710428 64.194134 121.841266 
C 61.324972 118.972105 57.433007 117.36 53.3754 117.36 
C 49.317793 117.36 45.425828 118.972105 42.556666 121.841266 
C 39.687505 124.710428 38.0754 128.602393 38.0754 132.66 
C 38.0754 136.717607 39.687505 140.609572 42.556666 143.478734 
C 45.425828 146.347895 49.317793 147.96 53.3754 147.96 
L 53.3754 147.96 
z
" clip-path="url(#p75dad2def7)" style="fill: none; stroke: #000000; stroke-width: 2; stroke-linejoin: miter"/>
   </g>
   <g id="patch_3">
    <path d="M 175.7754 178.56 
C 179.833007 178.56 183.724972 176.947895 186.594134 174.078734 
C 189.463295 171.209572 191.0754 167.317607 191.0754 163.26 
C 191.0754 159.202393 189.463295 155.310428 186.594134 152.441266 
C 183.724972 149.572105 179.833007 147.96 175.7754 147.96 
C 171.717793 147.96 167.825828 149.572105 164.956666 152.441266 
C 162.087505 155.310428 160.4754 159.202393 160.4754 163.26 
C 160.4754 167.317607 162.087505 171.209572 164.956666 174.078734 
C 167.825828 176.947895 171.717793 178.56 175.7754 178.56 
L 175.7754 178.56 
z
" clip-path="url(#p75dad2def7)" style="fill: none; stroke: #000000; stroke-width: 2; stroke-linejoin: miter"/>
   </g>
   <g id="patch_4">
    <path d="M 137.325101 119.408781 
C 136.979388 108.033254 136.191565 97.070003 135.002694 87.090461 
C 133.813823 77.110919 132.244926 68.291537 130.377777 61.092006 
C 128.510628 53.892474 126.378242 48.44009 124.091764 45.019044 
C 121.805285 41.597999 119.405142 40.268781 117.016436 41.100674 
C 114.627731 41.932566 112.292698 44.91086 110.133046 49.880318 
C 107.973394 54.849777 106.027308 61.722533 104.396223 70.140362 
C 102.765139 78.558191 101.477895 88.372254 100.601587 99.071017 
C 99.725279 109.76978 99.2754 121.164074 99.2754 132.66 
C 99.2754 144.155926 99.725279 155.55022 100.601587 166.248983 
C 101.477895 176.947746 102.765139 186.761809 104.396223 195.179638 
C 106.027308 203.597467 107.973394 210.470223 110.133046 215.439682 
C 112.292698 220.40914 114.627731 223.387434 117.016436 224.219326 
C 119.405142 225.051219 121.805285 223.722001 124.091764 220.300956 
C 126.378242 216.87991 128.510628 211.427526 130.377777 204.227994 
C 132.244926 197.028463 133.813823 188.209081 135.002694 178.229539 
C 136.191565 168.249997 136.979388 157.286746 137.325101 145.911219 
" clip-path="url(#p75dad2def7)" style="fill: none; stroke: #0000ff; stroke-width: 2; stroke-linejoin: miter"/>
   </g>
   <g id="patch_5">
    <path d="M 138.47354 127.281457 
L 135.098308 120.042857 
L 137.354132 119.713785 
L 137.309962 119.41099 
L 137.340241 119.406573 
L 137.384412 119.709368 
L 139.640236 119.380296 
z
" clip-path="url(#p75dad2def7)" style="fill: #0000ff; stroke: #0000ff; stroke-linejoin: miter"/>
   </g>
   <g id="patch_6">
    <path d="M 269.242694 45.041197 
C 267.03443 41.225187 264.281096 37.82576 261.088892 34.974038 
C 257.896688 32.122316 254.307192 29.855443 250.458858 28.260856 
C 246.610524 26.666269 242.553475 25.764736 238.444198 25.591032 
C 234.334922 25.417329 230.226941 25.973716 226.278707 27.238734 
C 222.330473 28.503751 218.593411 30.460923 215.211666 33.034756 
C 211.829921 35.608589 208.84754 38.765561 206.379559 42.383902 
C 203.911577 46.002242 201.99014 50.034823 200.68936 54.326101 
C 199.38858 58.617378 198.7254 63.11146 198.7254 67.635 
C 198.7254 72.15854 199.38858 76.652622 200.68936 80.943899 
C 201.99014 85.235177 203.911577 89.267758 206.379559 92.886098 
C 208.84754 96.504439 211.829921 99.661411 215.211666 102.235244 
C 218.593411 104.809077 222.330473 106.766249 226.278707 108.031266 
C 230.226941 109.296284 234.334922 109.852671 238.444198 109.678968 
C 242.553475 109.505264 246.610524 108.603731 250.458858 107.009144 
C 254.307192 105.414557 257.896688 103.147684 261.088892 100.295962 
C 264.281096 97.44424 267.03443 94.044813 269.242694 90.228803 
" clip-path="url(#p75dad2def7)" style="fill: none; stroke: #ff0000; stroke-width: 2; stroke-linejoin: miter"/>
   </g>
   <g id="patch_7">
    <path d="M 273.514977 51.752795 
L 267.470975 46.531725 
L 269.394106 45.307552 
L 269.229787 45.049413 
L 269.255601 45.032981 
L 269.41992 45.29112 
L 271.34305 44.066947 
z
" clip-path="url(#p75dad2def7)" style="fill: #ff0000; stroke: #ff0000; stroke-linejoin: miter"/>
   </g>
   <g id="patch_8">
    <path d="M 256.653318 183.906373 
C 255.370549 181.412839 253.74809 179.179704 251.849799 177.294859 
C 249.951508 175.410014 247.802621 173.898518 245.487715 172.81986 
C 243.172808 171.741202 240.722657 171.109722 238.233694 170.950274 
C 235.744732 170.790826 233.250048 171.10553 230.847828 171.882 
C 228.445608 172.65847 226.167788 173.886383 224.104019 175.51741 
C 222.040251 177.148438 220.217969 179.160897 218.708897 181.47558 
C 217.199825 183.790263 216.024023 186.376399 215.227771 189.132201 
C 214.431518 191.888004 214.0254 194.776837 214.0254 197.685 
C 214.0254 200.593163 214.431518 203.481996 215.227771 206.237799 
C 216.024023 208.993601 217.199825 211.579737 218.708897 213.89442 
C 220.217969 216.209103 222.040251 218.221562 224.104019 219.85259 
C 226.167788 221.483617 228.445608 222.71153 230.847828 223.488 
C 233.250048 224.26447 235.744732 224.579174 238.233694 224.419726 
C 240.722657 224.260278 243.172808 223.628798 245.487715 222.55014 
C 247.802621 221.471482 249.951508 219.959986 251.849799 218.075141 
C 253.74809 216.190296 255.370549 213.957161 256.653318 211.463627 
" clip-path="url(#p75dad2def7)" style="fill: none; stroke: #ffa500; stroke-width: 2; stroke-linejoin: miter"/>
   </g>
   <g id="patch_9">
    <path d="M 260.747539 190.728052 
L 254.842996 185.349771 
L 256.79767 184.176619 
L 256.6402 183.914247 
L 256.666437 183.8985 
L 256.823907 184.160872 
L 258.77858 182.98772 
z
" clip-path="url(#p75dad2def7)" style="fill: #ffa500; stroke: #ffa500; stroke-linejoin: miter"/>
   </g>
   <g id="patch_10">
    <path d="M 53.3754 147.96 
C 57.433007 147.96 61.324972 146.347895 64.194134 143.478734 
C 67.063295 140.609572 68.6754 136.717607 68.6754 132.66 
C 68.6754 128.602393 67.063295 124.710428 64.194134 121.841266 
C 61.324972 118.972105 57.433007 117.36 53.3754 117.36 
C 49.317793 117.36 45.425828 118.972105 42.556666 121.841266 
C 39.687505 124.710428 38.0754 128.602393 38.0754 132.66 
C 38.0754 136.717607 39.687505 140.609572 42.556666 143.478734 
C 45.425828 146.347895 49.317793 147.96 53.3754 147.96 
L 53.3754 147.96 
z
" clip-path="url(#p75dad2def7)" style="fill: none; stroke: #000000; stroke-width: 2; stroke-linejoin: miter"/>
   </g>
   <g id="patch_11">
    <path d="M 175.7754 178.56 
C 179.833007 178.56 183.724972 176.947895 186.594134 174.078734 
C 189.463295 171.209572 191.0754 167.317607 191.0754 163.26 
C 191.0754 159.202393 189.463295 155.310428 186.594134 152.441266 
C 183.724972 149.572105 179.833007 147.96 175.7754 147.96 
C 171.717793 147.96 167.825828 149.572105 164.956666 152.441266 
C 162.087505 155.310428 160.4754 159.202393 160.4754 163.26 
C 160.4754 167.317607 162.087505 171.209572 164.956666 174.078734 
C 167.825828 176.947895 171.717793 178.56 175.7754 178.56 
L 175.7754 178.56 
z
" clip-path="url(#p75dad2def7)" style="fill: none; stroke: #000000; stroke-width: 2; stroke-linejoin: miter"/>
   </g>
   <g id="patch_12">
    <path d="M 137.325101 119.408781 
C 136.979388 108.033254 136.191565 97.070003 135.002694 87.090461 
C 133.813823 77.110919 132.244926 68.291537 130.377777 61.092006 
C 128.510628 53.892474 126.378242 48.44009 124.091764 45.019044 
C 121.805285 41.597999 119.405142 40.268781 117.016436 41.100674 
C 114.627731 41.932566 112.292698 44.91086 110.133046 49.880318 
C 107.973394 54.849777 106.027308 61.722533 104.396223 70.140362 
C 102.765139 78.558191 101.477895 88.372254 100.601587 99.071017 
C 99.725279 109.76978 99.2754 121.164074 99.2754 132.66 
C 99.2754 144.155926 99.725279 155.55022 100.601587 166.248983 
C 101.477895 176.947746 102.765139 186.761809 104.396223 195.179638 
C 106.027308 203.597467 107.973394 210.470223 110.133046 215.439682 
C 112.292698 220.40914 114.627731 223.387434 117.016436 224.219326 
C 119.405142 225.051219 121.805285 223.722001 124.091764 220.300956 
C 126.378242 216.87991 128.510628 211.427526 130.377777 204.227994 
C 132.244926 197.028463 133.813823 188.209081 135.002694 178.229539 
C 136.191565 168.249997 136.979388 157.286746 137.325101 145.911219 
" clip-path="url(#p75dad2def7)" style="fill: none; stroke: #0000ff; stroke-width: 2; stroke-linejoin: miter"/>
   </g>
   <g id="patch_13">
    <path d="M 138.47354 127.281457 
L 135.098308 120.042857 
L 137.354132 119.713785 
L 137.309962 119.41099 
L 137.340241 119.406573 
L 137.384412 119.709368 
L 139.640236 119.380296 
z
" clip-path="url(#p75dad2def7)" style="fill: #0000ff; stroke: #0000ff; stroke-linejoin: miter"/>
   </g>
   <g id="patch_14">
    <path d="M 269.242694 45.041197 
C 267.03443 41.225187 264.281096 37.82576 261.088892 34.974038 
C 257.896688 32.122316 254.307192 29.855443 250.458858 28.260856 
C 246.610524 26.666269 242.553475 25.764736 238.444198 25.591032 
C 234.334922 25.417329 230.226941 25.973716 226.278707 27.238734 
C 222.330473 28.503751 218.593411 30.460923 215.211666 33.034756 
C 211.829921 35.608589 208.84754 38.765561 206.379559 42.383902 
C 203.911577 46.002242 201.99014 50.034823 200.68936 54.326101 
C 199.38858 58.617378 198.7254 63.11146 198.7254 67.635 
C 198.7254 72.15854 199.38858 76.652622 200.68936 80.943899 
C 201.99014 85.235177 203.911577 89.267758 206.379559 92.886098 
C 208.84754 96.504439 211.829921 99.661411 215.211666 102.235244 
C 218.593411 104.809077 222.330473 106.766249 226.278707 108.031266 
C 230.226941 109.296284 234.334922 109.852671 238.444198 109.678968 
C 242.553475 109.505264 246.610524 108.603731 250.458858 107.009144 
C 254.307192 105.414557 257.896688 103.147684 261.088892 100.295962 
C 264.281096 97.44424 267.03443 94.044813 269.242694 90.228803 
" clip-path="url(#p75dad2def7)" style="fill: none; stroke: #ff0000; stroke-width: 2; stroke-linejoin: miter"/>
   </g>
   <g id="patch_15">
    <path d="M 273.514977 51.752795 
L 267.470975 46.531725 
L 269.394106 45.307552 
L 269.229787 45.049413 
L 269.255601 45.032981 
L 269.41992 45.29112 
L 271.34305 44.066947 
z
" clip-path="url(#p75dad2def7)" style="fill: #ff0000; stroke: #ff0000; stroke-linejoin: miter"/>
   </g>
   <g id="patch_16">
    <path d="M 256.653318 183.906373 
C 255.370549 181.412839 253.74809 179.179704 251.849799 177.294859 
C 249.951508 175.410014 247.802621 173.898518 245.487715 172.81986 
C 243.172808 171.741202 240.722657 171.109722 238.233694 170.950274 
C 235.744732 170.790826 233.250048 171.10553 230.847828 171.882 
C 228.445608 172.65847 226.167788 173.886383 224.104019 175.51741 
C 222.040251 177.148438 220.217969 179.160897 218.708897 181.47558 
C 217.199825 183.790263 216.024023 186.376399 215.227771 189.132201 
C 214.431518 191.888004 214.0254 194.776837 214.0254 197.685 
C 214.0254 200.593163 214.431518 203.481996 215.227771 206.237799 
C 216.024023 208.993601 217.199825 211.579737 218.708897 213.89442 
C 220.217969 216.209103 222.040251 218.221562 224.104019 219.85259 
C 226.167788 221.483617 228.445608 222.71153 230.847828 223.488 
C 233.250048 224.26447 235.744732 224.579174 238.233694 224.419726 
C 240.722657 224.260278 243.172808 223.628798 245.487715 222.55014 
C 247.802621 221.471482 249.951508 219.959986 251.849799 218.075141 
C 253.74809 216.190296 255.370549 213.957161 256.653318 211.463627 
" clip-path="url(#p75dad2def7)" style="fill: none; stroke: #ffa500; stroke-width: 2; stroke-linejoin: miter"/>
   </g>
   <g id="patch_17">
    <path d="M 260.747539 190.728052 
L 254.842996 185.349771 
L 256.79767 184.176619 
L 256.6402 183.914247 
L 256.666437 183.8985 
L 256.823907 184.160872 
L 258.77858 182.98772 
z
" clip-path="url(#p75dad2def7)" style="fill: #ffa500; stroke: #ffa500; stroke-linejoin: miter"/>
   </g>
   <g id="line2d_1">
    <path d="M 53.3754 255.06 
L 53.3754 147.96 
L 53.3754 147.96 
M 53.3754 117.36 
L 53.3754 117.36 
L 53.3754 10.26 
" clip-path="url(#p75dad2def7)" style="fill: none; stroke: #000000; stroke-width: 2; stroke-linecap: round"/>
   </g>
   <g id="line2d_2">
    <path d="M 56.4354 140.31 
L 50.3154 140.31 
" clip-path="url(#p75dad2def7)" style="fill: none; stroke: #000000; stroke-width: 2; stroke-linecap: round"/>
   </g>
   <g id="line2d_3">
    <path d="M 53.3754 128.07 
L 53.3754 121.95 
" clip-path="url(#p75dad2def7)" style="fill: none; stroke: #000000; stroke-width: 2; stroke-linecap: round"/>
   </g>
   <g id="line2d_4">
    <path d="M 56.4354 125.01 
L 50.3154 125.01 
" clip-path="url(#p75dad2def7)" style="fill: none; stroke: #000000; stroke-width: 2; stroke-linecap: round"/>
   </g>
   <g id="line2d_5">
    <path d="M 53.3754 10.26 
L 114.5754 10.26 
L 175.7754 10.26 
" clip-path="url(#p75dad2def7)" style="fill: none; stroke: #000000; stroke-width: 2; stroke-linecap: round"/>
   </g>
   <g id="line2d_6">
    <path d="M 175.7754 10.26 
L 236.9754 10.26 
L 298.1754 10.26 
" clip-path="url(#p75dad2def7)" style="fill: none; stroke: #000000; stroke-width: 2; stroke-linecap: round"/>
   </g>
   <g id="line2d_7">
    <path d="M 298.1754 10.26 
L 298.1754 56.16 
L 305.8254 58.71 
L 290.5254 63.81 
L 305.8254 68.91 
L 290.5254 74.01 
L 305.8254 79.11 
L 290.5254 84.21 
L 298.1754 86.76 
L 298.1754 132.66 
" clip-path="url(#p75dad2def7)" style="fill: none; stroke: #000000; stroke-width: 2; stroke-linecap: round"/>
   </g>
   <g id="line2d_8">
    <path d="M 298.1754 132.66 
L 298.1754 178.56 
L 305.8254 181.11 
L 290.5254 186.21 
L 305.8254 191.31 
L 290.5254 196.41 
L 305.8254 201.51 
L 290.5254 206.61 
L 298.1754 209.16 
L 298.1754 255.06 
" clip-path="url(#p75dad2def7)" style="fill: none; stroke: #000000; stroke-width: 2; stroke-linecap: round"/>
   </g>
   <g id="line2d_9">
    <path d="M 298.1754 255.06 
L 175.7754 255.06 
L 53.3754 255.06 
" clip-path="url(#p75dad2def7)" style="fill: none; stroke: #000000; stroke-width: 2; stroke-linecap: round"/>
   </g>
   <g id="line2d_10">
    <path d="M 53.3754 255.06 
L 53.3754 267.3 
L 45.7254 267.3 
L 53.3754 274.95 
L 61.0254 267.3 
L 53.3754 267.3 
" clip-path="url(#p75dad2def7)" style="fill: none; stroke: #000000; stroke-width: 2; stroke-linecap: round"/>
   </g>
   <g id="line2d_11">
    <path d="M 175.7754 10.26 
L 175.7754 56.16 
L 183.4254 58.71 
L 168.1254 63.81 
L 183.4254 68.91 
L 168.1254 74.01 
L 183.4254 79.11 
L 168.1254 84.21 
L 175.7754 86.76 
L 175.7754 132.66 
" clip-path="url(#p75dad2def7)" style="fill: none; stroke: #000000; stroke-width: 2; stroke-linecap: round"/>
   </g>
   <g id="line2d_12">
    <path d="M 175.7754 132.66 
L 175.7754 147.96 
L 175.7754 147.96 
M 175.7754 178.56 
L 175.7754 178.56 
L 175.7754 193.86 
" clip-path="url(#p75dad2def7)" style="fill: none; stroke: #000000; stroke-width: 2; stroke-linecap: round"/>
   </g>
   <g id="line2d_13">
    <path d="M 175.7754 155.61 
L 175.7754 163.26 
" clip-path="url(#p75dad2def7)" style="fill: none; stroke: #000000; stroke-width: 2; stroke-linecap: round"/>
   </g>
   <g id="patch_18">
    <path d="M 178.0704 163.26 
L 175.7754 170.91 
L 173.4804 163.26 
z
" clip-path="url(#p75dad2def7)"/>
   </g>
   <g id="line2d_14">
    <path d="M 175.7754 193.86 
L 175.7754 209.16 
L 183.4254 211.71 
L 168.1254 216.81 
L 183.4254 221.91 
L 168.1254 227.01 
L 183.4254 232.11 
L 168.1254 237.21 
L 175.7754 239.76 
L 175.7754 255.06 
" clip-path="url(#p75dad2def7)" style="fill: none; stroke: #000000; stroke-width: 2; stroke-linecap: round"/>
   </g>
   <g id="line2d_15">
    <path d="M 175.7754 132.66 
L 221.6754 132.66 
L 224.2254 125.01 
L 229.3254 140.31 
L 234.4254 125.01 
L 239.5254 140.31 
L 244.6254 125.01 
L 249.7254 140.31 
L 252.2754 132.66 
L 298.1754 132.66 
" clip-path="url(#p75dad2def7)" style="fill: none; stroke: #000000; stroke-width: 2; stroke-linecap: round"/>
   </g>
   <g id="line2d_16">
    <path d="M 53.3754 255.06 
L 53.3754 147.96 
L 53.3754 147.96 
M 53.3754 117.36 
L 53.3754 117.36 
L 53.3754 10.26 
" clip-path="url(#p75dad2def7)" style="fill: none; stroke: #000000; stroke-width: 2; stroke-linecap: round"/>
   </g>
   <g id="line2d_17">
    <path d="M 56.4354 140.31 
L 50.3154 140.31 
" clip-path="url(#p75dad2def7)" style="fill: none; stroke: #000000; stroke-width: 2; stroke-linecap: round"/>
   </g>
   <g id="line2d_18">
    <path d="M 53.3754 128.07 
L 53.3754 121.95 
" clip-path="url(#p75dad2def7)" style="fill: none; stroke: #000000; stroke-width: 2; stroke-linecap: round"/>
   </g>
   <g id="line2d_19">
    <path d="M 56.4354 125.01 
L 50.3154 125.01 
" clip-path="url(#p75dad2def7)" style="fill: none; stroke: #000000; stroke-width: 2; stroke-linecap: round"/>
   </g>
   <g id="line2d_20">
    <path d="M 53.3754 10.26 
L 114.5754 10.26 
L 175.7754 10.26 
" clip-path="url(#p75dad2def7)" style="fill: none; stroke: #000000; stroke-width: 2; stroke-linecap: round"/>
   </g>
   <g id="line2d_21">
    <path d="M 175.7754 10.26 
L 236.9754 10.26 
L 298.1754 10.26 
" clip-path="url(#p75dad2def7)" style="fill: none; stroke: #000000; stroke-width: 2; stroke-linecap: round"/>
   </g>
   <g id="line2d_22">
    <path d="M 298.1754 10.26 
L 298.1754 56.16 
L 305.8254 58.71 
L 290.5254 63.81 
L 305.8254 68.91 
L 290.5254 74.01 
L 305.8254 79.11 
L 290.5254 84.21 
L 298.1754 86.76 
L 298.1754 132.66 
" clip-path="url(#p75dad2def7)" style="fill: none; stroke: #000000; stroke-width: 2; stroke-linecap: round"/>
   </g>
   <g id="line2d_23">
    <path d="M 298.1754 132.66 
L 298.1754 178.56 
L 305.8254 181.11 
L 290.5254 186.21 
L 305.8254 191.31 
L 290.5254 196.41 
L 305.8254 201.51 
L 290.5254 206.61 
L 298.1754 209.16 
L 298.1754 255.06 
" clip-path="url(#p75dad2def7)" style="fill: none; stroke: #000000; stroke-width: 2; stroke-linecap: round"/>
   </g>
   <g id="line2d_24">
    <path d="M 298.1754 255.06 
L 175.7754 255.06 
L 53.3754 255.06 
" clip-path="url(#p75dad2def7)" style="fill: none; stroke: #000000; stroke-width: 2; stroke-linecap: round"/>
   </g>
   <g id="line2d_25">
    <path d="M 53.3754 255.06 
L 53.3754 267.3 
L 45.7254 267.3 
L 53.3754 274.95 
L 61.0254 267.3 
L 53.3754 267.3 
" clip-path="url(#p75dad2def7)" style="fill: none; stroke: #000000; stroke-width: 2; stroke-linecap: round"/>
   </g>
   <g id="line2d_26">
    <path d="M 175.7754 10.26 
L 175.7754 56.16 
L 183.4254 58.71 
L 168.1254 63.81 
L 183.4254 68.91 
L 168.1254 74.01 
L 183.4254 79.11 
L 168.1254 84.21 
L 175.7754 86.76 
L 175.7754 132.66 
" clip-path="url(#p75dad2def7)" style="fill: none; stroke: #000000; stroke-width: 2; stroke-linecap: round"/>
   </g>
   <g id="line2d_27">
    <path d="M 175.7754 132.66 
L 175.7754 147.96 
L 175.7754 147.96 
M 175.7754 178.56 
L 175.7754 178.56 
L 175.7754 193.86 
" clip-path="url(#p75dad2def7)" style="fill: none; stroke: #000000; stroke-width: 2; stroke-linecap: round"/>
   </g>
   <g id="line2d_28">
    <path d="M 175.7754 155.61 
L 175.7754 163.26 
" clip-path="url(#p75dad2def7)" style="fill: none; stroke: #000000; stroke-width: 2; stroke-linecap: round"/>
   </g>
   <g id="patch_19">
    <path d="M 178.0704 163.26 
L 175.7754 170.91 
L 173.4804 163.26 
z
" clip-path="url(#p75dad2def7)"/>
   </g>
   <g id="line2d_29">
    <path d="M 175.7754 193.86 
L 175.7754 209.16 
L 183.4254 211.71 
L 168.1254 216.81 
L 183.4254 221.91 
L 168.1254 227.01 
L 183.4254 232.11 
L 168.1254 237.21 
L 175.7754 239.76 
L 175.7754 255.06 
" clip-path="url(#p75dad2def7)" style="fill: none; stroke: #000000; stroke-width: 2; stroke-linecap: round"/>
   </g>
   <g id="line2d_30">
    <path d="M 175.7754 132.66 
L 221.6754 132.66 
L 224.2254 125.01 
L 229.3254 140.31 
L 234.4254 125.01 
L 239.5254 140.31 
L 244.6254 125.01 
L 249.7254 140.31 
L 252.2754 132.66 
L 298.1754 132.66 
" clip-path="url(#p75dad2def7)" style="fill: none; stroke: #000000; stroke-width: 2; stroke-linecap: round"/>
   </g>
   <g id="text_1">
    <g clip-path="url(#p75dad2def7)">
     <!-- $V_S$ -->
     <g transform="translate(22.3904 129.110586)scale(0.125 -0.125)">
      <defs>
       <path id="STIXGeneral-Italic-56" d="M 4403 4179 
L 4403 4077 
Q 4198 4070 4045 3821 
L 1658 -115 
L 1536 -115 
L 1011 3104 
Q 902 3776 828 3910 
Q 755 4045 486 4077 
L 486 4179 
L 2022 4179 
L 2022 4077 
Q 1722 4045 1629 3981 
Q 1536 3917 1536 3750 
Q 1536 3686 1542 3654 
L 1958 819 
L 3302 3123 
Q 3616 3661 3616 3859 
Q 3616 4032 3219 4077 
L 3219 4179 
L 4403 4179 
z
" transform="scale(0.015625)"/>
       <path id="STIXGeneral-Italic-53" d="M 3251 4269 
L 2995 2989 
L 2880 3008 
Q 2880 3539 2720 3795 
Q 2560 4051 2118 4051 
Q 1786 4051 1594 3881 
Q 1402 3712 1402 3411 
Q 1402 3168 1504 3005 
Q 1606 2842 2035 2413 
Q 2464 1978 2611 1715 
Q 2758 1453 2758 1133 
Q 2758 589 2390 237 
Q 2022 -115 1466 -115 
Q 1222 -115 800 32 
Q 595 109 499 109 
Q 288 109 224 -96 
L 109 -96 
L 326 1338 
L 454 1325 
Q 442 1267 442 1178 
Q 442 710 701 409 
Q 960 109 1363 109 
Q 1734 109 1968 336 
Q 2202 563 2202 928 
Q 2202 1139 2118 1308 
Q 2035 1478 1818 1715 
L 1568 1984 
Q 1549 2003 1459 2102 
Q 1370 2202 1318 2253 
Q 1030 2560 934 2755 
Q 838 2950 838 3213 
Q 838 3699 1168 3980 
Q 1498 4262 1978 4262 
Q 2310 4262 2522 4173 
Q 2707 4102 2816 4102 
Q 2925 4102 2982 4134 
Q 3040 4166 3104 4269 
L 3251 4269 
z
" transform="scale(0.015625)"/>
      </defs>
      <use xlink:href="#STIXGeneral-Italic-56" transform="translate(0 0.703125)"/>
      <use xlink:href="#STIXGeneral-Italic-53" transform="translate(61.099991 -12.525)scale(0.7)"/>
     </g>
    </g>
    <g clip-path="url(#p75dad2def7)">
     <!-- 6V -->
     <g transform="translate(18.511494 143.107852)scale(0.125 -0.125)">
      <defs>
       <path id="DejaVuSans-36" d="M 2113 2584 
Q 1688 2584 1439 2293 
Q 1191 2003 1191 1497 
Q 1191 994 1439 701 
Q 1688 409 2113 409 
Q 2538 409 2786 701 
Q 3034 994 3034 1497 
Q 3034 2003 2786 2293 
Q 2538 2584 2113 2584 
z
M 3366 4563 
L 3366 3988 
Q 3128 4100 2886 4159 
Q 2644 4219 2406 4219 
Q 1781 4219 1451 3797 
Q 1122 3375 1075 2522 
Q 1259 2794 1537 2939 
Q 1816 3084 2150 3084 
Q 2853 3084 3261 2657 
Q 3669 2231 3669 1497 
Q 3669 778 3244 343 
Q 2819 -91 2113 -91 
Q 1303 -91 875 529 
Q 447 1150 447 2328 
Q 447 3434 972 4092 
Q 1497 4750 2381 4750 
Q 2619 4750 2861 4703 
Q 3103 4656 3366 4563 
z
" transform="scale(0.015625)"/>
       <path id="DejaVuSans-56" d="M 1831 0 
L 50 4666 
L 709 4666 
L 2188 738 
L 3669 4666 
L 4325 4666 
L 2547 0 
L 1831 0 
z
" transform="scale(0.015625)"/>
      </defs>
      <use xlink:href="#DejaVuSans-36"/>
      <use xlink:href="#DejaVuSans-56" x="63.623047"/>
     </g>
    </g>
   </g>
   <g id="text_2">
    <g clip-path="url(#p75dad2def7)">
     <!-- $R_2$ -->
     <g transform="translate(308.8854 67.910586)scale(0.125 -0.125)">
      <defs>
       <path id="STIXGeneral-Italic-52" d="M 845 4179 
L 2458 4179 
Q 3078 4179 3420 3936 
Q 3763 3693 3763 3277 
Q 3763 2778 3341 2458 
Q 3091 2266 2502 2131 
L 3072 627 
Q 3181 333 3299 217 
Q 3418 102 3629 102 
L 3629 0 
L 2688 0 
L 1901 2074 
L 1478 2106 
L 1126 806 
Q 1043 512 1043 403 
Q 1043 256 1126 192 
Q 1210 128 1472 102 
L 1472 0 
L -83 0 
L -83 102 
Q 173 134 278 243 
Q 384 352 461 646 
L 1222 3405 
Q 1299 3699 1299 3808 
Q 1299 3923 1210 3987 
Q 1133 4038 845 4077 
L 845 4179 
z
M 1958 3795 
L 1555 2342 
Q 1754 2310 1882 2310 
Q 2451 2310 2771 2566 
Q 3091 2822 3091 3270 
Q 3091 3603 2892 3795 
Q 2694 3987 2323 3987 
Q 2010 3987 1958 3795 
z
" transform="scale(0.015625)"/>
       <path id="STIXGeneral-Regular-32" d="M 3034 877 
L 2688 0 
L 186 0 
L 186 77 
L 1325 1286 
Q 1773 1754 1965 2144 
Q 2157 2534 2157 2950 
Q 2157 3379 1920 3616 
Q 1683 3853 1267 3853 
Q 922 3853 720 3673 
Q 518 3494 326 3021 
L 192 3053 
Q 301 3648 630 3987 
Q 960 4326 1523 4326 
Q 2054 4326 2380 4006 
Q 2707 3686 2707 3200 
Q 2707 2477 1888 1613 
L 832 486 
L 2330 486 
Q 2541 486 2665 569 
Q 2790 653 2944 915 
L 3034 877 
z
" transform="scale(0.015625)"/>
      </defs>
      <use xlink:href="#STIXGeneral-Italic-52" transform="translate(0 0.703125)"/>
      <use xlink:href="#STIXGeneral-Regular-32" transform="translate(61.099991 -12.525)scale(0.7)"/>
     </g>
    </g>
    <g clip-path="url(#p75dad2def7)">
     <!-- 2Ω -->
     <g transform="translate(308.8854 81.907852)scale(0.125 -0.125)">
      <defs>
       <path id="DejaVuSans-32" d="M 1228 531 
L 3431 531 
L 3431 0 
L 469 0 
L 469 531 
Q 828 903 1448 1529 
Q 2069 2156 2228 2338 
Q 2531 2678 2651 2914 
Q 2772 3150 2772 3378 
Q 2772 3750 2511 3984 
Q 2250 4219 1831 4219 
Q 1534 4219 1204 4116 
Q 875 4013 500 3803 
L 500 4441 
Q 881 4594 1212 4672 
Q 1544 4750 1819 4750 
Q 2544 4750 2975 4387 
Q 3406 4025 3406 3419 
Q 3406 3131 3298 2873 
Q 3191 2616 2906 2266 
Q 2828 2175 2409 1742 
Q 1991 1309 1228 531 
z
" transform="scale(0.015625)"/>
       <path id="DejaVuSans-3a9" d="M 4647 556 
L 4647 0 
L 2772 0 
L 2772 556 
Q 3325 859 3634 1378 
Q 3944 1897 3944 2528 
Q 3944 3278 3531 3731 
Q 3119 4184 2444 4184 
Q 1769 4184 1355 3729 
Q 941 3275 941 2528 
Q 941 1897 1250 1378 
Q 1563 859 2119 556 
L 2119 0 
L 244 0 
L 244 556 
L 1241 556 
Q 747 991 519 1456 
Q 294 1922 294 2497 
Q 294 3491 894 4106 
Q 1491 4722 2444 4722 
Q 3391 4722 3994 4106 
Q 4594 3494 4594 2528 
Q 4594 1922 4372 1459 
Q 4150 997 3647 556 
L 4647 556 
z
" transform="scale(0.015625)"/>
      </defs>
      <use xlink:href="#DejaVuSans-32"/>
      <use xlink:href="#DejaVuSans-3a9" x="63.623047"/>
     </g>
    </g>
   </g>
   <g id="text_3">
    <g clip-path="url(#p75dad2def7)">
     <!-- + -->
     <g style="fill: #ff0000" transform="translate(276.990791 44.309219)scale(0.125 -0.125)">
      <defs>
       <path id="DejaVuSans-2b" d="M 2944 4013 
L 2944 2272 
L 4684 2272 
L 4684 1741 
L 2944 1741 
L 2944 0 
L 2419 0 
L 2419 1741 
L 678 1741 
L 678 2272 
L 2419 2272 
L 2419 4013 
L 2944 4013 
z
" transform="scale(0.015625)"/>
      </defs>
      <use xlink:href="#DejaVuSans-2b"/>
     </g>
    </g>
   </g>
   <g id="text_4">
    <g clip-path="url(#p75dad2def7)">
     <!-- - -->
     <g style="fill: #ff0000" transform="translate(282.955634 105.509219)scale(0.125 -0.125)">
      <defs>
       <path id="DejaVuSans-2d" d="M 313 2009 
L 1997 2009 
L 1997 1497 
L 313 1497 
L 313 2009 
z
" transform="scale(0.015625)"/>
      </defs>
      <use xlink:href="#DejaVuSans-2d"/>
     </g>
    </g>
   </g>
   <g id="text_5">
    <g clip-path="url(#p75dad2def7)">
     <!-- $R_5$ -->
     <g transform="translate(308.8854 190.310586)scale(0.125 -0.125)">
      <defs>
       <path id="STIXGeneral-Regular-35" d="M 2803 4358 
L 2573 3814 
Q 2534 3731 2400 3731 
L 1158 3731 
L 902 3187 
Q 1606 3053 1920 2896 
Q 2234 2739 2502 2368 
Q 2726 2061 2726 1555 
Q 2726 1094 2576 780 
Q 2426 467 2099 224 
Q 1664 -90 1011 -90 
Q 646 -90 422 19 
Q 198 128 198 307 
Q 198 550 486 550 
Q 717 550 960 352 
Q 1210 147 1414 147 
Q 1747 147 2012 480 
Q 2278 813 2278 1229 
Q 2278 1843 1850 2189 
Q 1293 2637 486 2637 
Q 410 2637 410 2688 
L 416 2720 
L 1114 4237 
L 2438 4237 
Q 2547 4237 2608 4269 
Q 2669 4301 2746 4403 
L 2803 4358 
z
" transform="scale(0.015625)"/>
      </defs>
      <use xlink:href="#STIXGeneral-Italic-52" transform="translate(0 0.703125)"/>
      <use xlink:href="#STIXGeneral-Regular-35" transform="translate(61.099991 -12.525)scale(0.7)"/>
     </g>
    </g>
    <g clip-path="url(#p75dad2def7)">
     <!-- 8Ω -->
     <g transform="translate(308.8854 204.307852)scale(0.125 -0.125)">
      <defs>
       <path id="DejaVuSans-38" d="M 2034 2216 
Q 1584 2216 1326 1975 
Q 1069 1734 1069 1313 
Q 1069 891 1326 650 
Q 1584 409 2034 409 
Q 2484 409 2743 651 
Q 3003 894 3003 1313 
Q 3003 1734 2745 1975 
Q 2488 2216 2034 2216 
z
M 1403 2484 
Q 997 2584 770 2862 
Q 544 3141 544 3541 
Q 544 4100 942 4425 
Q 1341 4750 2034 4750 
Q 2731 4750 3128 4425 
Q 3525 4100 3525 3541 
Q 3525 3141 3298 2862 
Q 3072 2584 2669 2484 
Q 3125 2378 3379 2068 
Q 3634 1759 3634 1313 
Q 3634 634 3220 271 
Q 2806 -91 2034 -91 
Q 1263 -91 848 271 
Q 434 634 434 1313 
Q 434 1759 690 2068 
Q 947 2378 1403 2484 
z
M 1172 3481 
Q 1172 3119 1398 2916 
Q 1625 2713 2034 2713 
Q 2441 2713 2670 2916 
Q 2900 3119 2900 3481 
Q 2900 3844 2670 4047 
Q 2441 4250 2034 4250 
Q 1625 4250 1398 4047 
Q 1172 3844 1172 3481 
z
" transform="scale(0.015625)"/>
      </defs>
      <use xlink:href="#DejaVuSans-38"/>
      <use xlink:href="#DejaVuSans-3a9" x="63.623047"/>
     </g>
    </g>
   </g>
   <g id="text_6">
    <g clip-path="url(#p75dad2def7)">
     <!-- + -->
     <g style="fill: #ffa500" transform="translate(276.990791 166.709219)scale(0.125 -0.125)">
      <use xlink:href="#DejaVuSans-2b"/>
     </g>
    </g>
   </g>
   <g id="text_7">
    <g clip-path="url(#p75dad2def7)">
     <!-- - -->
     <g style="fill: #ffa500" transform="translate(282.955634 227.909219)scale(0.125 -0.125)">
      <use xlink:href="#DejaVuSans-2d"/>
     </g>
    </g>
   </g>
   <g id="text_8">
    <g clip-path="url(#p75dad2def7)">
     <!-- $R_1$ -->
     <g transform="translate(152.4404 67.910586)scale(0.125 -0.125)">
      <defs>
       <path id="STIXGeneral-Regular-31" d="M 2522 0 
L 755 0 
L 755 96 
Q 1107 115 1235 227 
Q 1363 339 1363 608 
L 1363 3482 
Q 1363 3795 1171 3795 
Q 1082 3795 883 3718 
L 710 3654 
L 710 3744 
L 1856 4326 
L 1914 4307 
L 1914 486 
Q 1914 275 2042 185 
Q 2170 96 2522 96 
L 2522 0 
z
" transform="scale(0.015625)"/>
      </defs>
      <use xlink:href="#STIXGeneral-Italic-52" transform="translate(0 0.703125)"/>
      <use xlink:href="#STIXGeneral-Regular-31" transform="translate(61.099991 -12.525)scale(0.7)"/>
     </g>
    </g>
    <g clip-path="url(#p75dad2def7)">
     <!-- 2Ω -->
     <g transform="translate(147.559541 81.907852)scale(0.125 -0.125)">
      <use xlink:href="#DejaVuSans-32"/>
      <use xlink:href="#DejaVuSans-3a9" x="63.623047"/>
     </g>
    </g>
   </g>
   <g id="text_9">
    <g clip-path="url(#p75dad2def7)">
     <!-- + -->
     <g style="fill: #0000ff" transform="translate(154.590791 44.309219)scale(0.125 -0.125)">
      <use xlink:href="#DejaVuSans-2b"/>
     </g>
    </g>
   </g>
   <g id="text_10">
    <g clip-path="url(#p75dad2def7)">
     <!-- - -->
     <g style="fill: #0000ff" transform="translate(160.555634 105.509219)scale(0.125 -0.125)">
      <use xlink:href="#DejaVuSans-2d"/>
     </g>
    </g>
   </g>
   <g id="text_11">
    <g clip-path="url(#p75dad2def7)">
     <!-- - -->
     <g style="fill: #ff0000" transform="translate(186.4854 44.309219)scale(0.125 -0.125)">
      <use xlink:href="#DejaVuSans-2d"/>
     </g>
    </g>
   </g>
   <g id="text_12">
    <g clip-path="url(#p75dad2def7)">
     <!-- + -->
     <g style="fill: #ff0000" transform="translate(186.4854 105.509219)scale(0.125 -0.125)">
      <use xlink:href="#DejaVuSans-2b"/>
     </g>
    </g>
   </g>
   <g id="text_13">
    <g clip-path="url(#p75dad2def7)">
     <!-- $I_S$ -->
     <g transform="translate(148.2904 159.710586)scale(0.125 -0.125)">
      <defs>
       <path id="STIXGeneral-Italic-49" d="M 2458 4179 
L 2458 4077 
Q 2189 4045 2102 3961 
Q 2016 3878 1933 3584 
L 1165 838 
Q 1069 499 1069 352 
Q 1069 224 1149 179 
Q 1229 134 1510 102 
L 1510 0 
L -51 0 
L -51 102 
Q 218 154 317 237 
Q 416 320 486 582 
L 1254 3405 
Q 1338 3699 1338 3802 
Q 1338 3930 1235 3997 
Q 1133 4064 877 4077 
L 877 4179 
L 2458 4179 
z
" transform="scale(0.015625)"/>
      </defs>
      <use xlink:href="#STIXGeneral-Italic-49" transform="translate(0 0.703125)"/>
      <use xlink:href="#STIXGeneral-Italic-53" transform="translate(33.299988 -12.525)scale(0.7)"/>
     </g>
    </g>
    <g clip-path="url(#p75dad2def7)">
     <!-- 6A -->
     <g transform="translate(140.911494 173.707852)scale(0.125 -0.125)">
      <defs>
       <path id="DejaVuSans-41" d="M 2188 4044 
L 1331 1722 
L 3047 1722 
L 2188 4044 
z
M 1831 4666 
L 2547 4666 
L 4325 0 
L 3669 0 
L 3244 1197 
L 1141 1197 
L 716 0 
L 50 0 
L 1831 4666 
z
" transform="scale(0.015625)"/>
      </defs>
      <use xlink:href="#DejaVuSans-36"/>
      <use xlink:href="#DejaVuSans-41" x="63.623047"/>
     </g>
    </g>
   </g>
   <g id="text_14">
    <g clip-path="url(#p75dad2def7)">
     <!-- $R_4$ -->
     <g transform="translate(186.4854 220.910586)scale(0.125 -0.125)">
      <defs>
       <path id="STIXGeneral-Regular-34" d="M 3027 1069 
L 2368 1069 
L 2368 0 
L 1869 0 
L 1869 1069 
L 77 1069 
L 77 1478 
L 2086 4326 
L 2368 4326 
L 2368 1478 
L 3027 1478 
L 3027 1069 
z
M 1869 1478 
L 1869 3674 
L 333 1478 
L 1869 1478 
z
" transform="scale(0.015625)"/>
      </defs>
      <use xlink:href="#STIXGeneral-Italic-52" transform="translate(0 0.703125)"/>
      <use xlink:href="#STIXGeneral-Regular-34" transform="translate(61.099991 -12.525)scale(0.7)"/>
     </g>
    </g>
    <g clip-path="url(#p75dad2def7)">
     <!-- 1Ω -->
     <g transform="translate(186.4854 234.907852)scale(0.125 -0.125)">
      <defs>
       <path id="DejaVuSans-31" d="M 794 531 
L 1825 531 
L 1825 4091 
L 703 3866 
L 703 4441 
L 1819 4666 
L 2450 4666 
L 2450 531 
L 3481 531 
L 3481 0 
L 794 0 
L 794 531 
z
" transform="scale(0.015625)"/>
      </defs>
      <use xlink:href="#DejaVuSans-31"/>
      <use xlink:href="#DejaVuSans-3a9" x="63.623047"/>
     </g>
    </g>
   </g>
   <g id="text_15">
    <g clip-path="url(#p75dad2def7)">
     <!-- + -->
     <g style="fill: #0000ff" transform="translate(154.590791 212.609219)scale(0.125 -0.125)">
      <use xlink:href="#DejaVuSans-2b"/>
     </g>
    </g>
   </g>
   <g id="text_16">
    <g clip-path="url(#p75dad2def7)">
     <!-- - -->
     <g style="fill: #0000ff" transform="translate(160.555634 243.209219)scale(0.125 -0.125)">
      <use xlink:href="#DejaVuSans-2d"/>
     </g>
    </g>
   </g>
   <g id="text_17">
    <g clip-path="url(#p75dad2def7)">
     <!-- - -->
     <g style="fill: #ffa500" transform="translate(186.4854 212.609219)scale(0.125 -0.125)">
      <use xlink:href="#DejaVuSans-2d"/>
     </g>
    </g>
   </g>
   <g id="text_18">
    <g clip-path="url(#p75dad2def7)">
     <!-- + -->
     <g style="fill: #ffa500" transform="translate(186.4854 243.209219)scale(0.125 -0.125)">
      <use xlink:href="#DejaVuSans-2b"/>
     </g>
    </g>
   </g>
   <g id="text_19">
    <g clip-path="url(#p75dad2def7)">
     <!-- $R_3$ -->
     <g transform="translate(230.6629 152.868047)scale(0.125 -0.125)">
      <defs>
       <path id="STIXGeneral-Regular-33" d="M 390 3264 
L 288 3290 
Q 435 3770 748 4048 
Q 1062 4326 1542 4326 
Q 1990 4326 2265 4083 
Q 2541 3840 2541 3450 
Q 2541 2925 1946 2566 
Q 2298 2413 2477 2227 
Q 2758 1914 2758 1402 
Q 2758 890 2464 506 
Q 2246 211 1840 60 
Q 1434 -90 979 -90 
Q 262 -90 262 275 
Q 262 378 339 442 
Q 416 506 525 506 
Q 685 506 915 339 
Q 1197 141 1466 141 
Q 1818 141 2058 425 
Q 2298 710 2298 1120 
Q 2298 1856 1632 2048 
Q 1434 2112 979 2112 
L 979 2202 
Q 1338 2323 1517 2432 
Q 2035 2726 2035 3290 
Q 2035 3610 1852 3776 
Q 1670 3942 1344 3942 
Q 768 3942 390 3264 
z
" transform="scale(0.015625)"/>
      </defs>
      <use xlink:href="#STIXGeneral-Italic-52" transform="translate(0 0.703125)"/>
      <use xlink:href="#STIXGeneral-Regular-33" transform="translate(61.099991 -12.525)scale(0.7)"/>
     </g>
    </g>
    <g clip-path="url(#p75dad2def7)">
     <!-- 4Ω -->
     <g transform="translate(228.22247 166.865312)scale(0.125 -0.125)">
      <defs>
       <path id="DejaVuSans-34" d="M 2419 4116 
L 825 1625 
L 2419 1625 
L 2419 4116 
z
M 2253 4666 
L 3047 4666 
L 3047 1625 
L 3713 1625 
L 3713 1100 
L 3047 1100 
L 3047 0 
L 2419 0 
L 2419 1100 
L 313 1100 
L 313 1709 
L 2253 4666 
z
" transform="scale(0.015625)"/>
      </defs>
      <use xlink:href="#DejaVuSans-34"/>
      <use xlink:href="#DejaVuSans-3a9" x="63.623047"/>
     </g>
    </g>
   </g>
   <g id="text_20">
    <g clip-path="url(#p75dad2def7)">
     <!-- - -->
     <g style="fill: #ff0000" transform="translate(204.120517 119.350391)scale(0.125 -0.125)">
      <use xlink:href="#DejaVuSans-2d"/>
     </g>
    </g>
   </g>
   <g id="text_21">
    <g clip-path="url(#p75dad2def7)">
     <!-- + -->
     <g style="fill: #ff0000" transform="translate(262.338095 119.350391)scale(0.125 -0.125)">
      <use xlink:href="#DejaVuSans-2b"/>
     </g>
    </g>
   </g>
   <g id="text_22">
    <g clip-path="url(#p75dad2def7)">
     <!-- + -->
     <g style="fill: #ffa500" transform="translate(201.138095 152.868047)scale(0.125 -0.125)">
      <use xlink:href="#DejaVuSans-2b"/>
     </g>
    </g>
   </g>
   <g id="text_23">
    <g clip-path="url(#p75dad2def7)">
     <!-- - -->
     <g style="fill: #ffa500" transform="translate(265.320517 152.868047)scale(0.125 -0.125)">
      <use xlink:href="#DejaVuSans-2d"/>
     </g>
    </g>
   </g>
   <g id="text_24">
    <g clip-path="url(#p75dad2def7)">
     <!-- $I_1$ -->
     <g style="fill: #0000ff" transform="translate(113.8379 136.109219)scale(0.125 -0.125)">
      <use xlink:href="#STIXGeneral-Italic-49" transform="translate(0 0.703125)"/>
      <use xlink:href="#STIXGeneral-Regular-31" transform="translate(33.299988 -12.525)scale(0.7)"/>
     </g>
    </g>
   </g>
   <g id="text_25">
    <g clip-path="url(#p75dad2def7)">
     <!-- $I_2$ -->
     <g style="fill: #ff0000" transform="translate(232.4129 71.084219)scale(0.125 -0.125)">
      <use xlink:href="#STIXGeneral-Italic-49" transform="translate(0 0.703125)"/>
      <use xlink:href="#STIXGeneral-Regular-32" transform="translate(33.299988 -12.525)scale(0.7)"/>
     </g>
    </g>
   </g>
   <g id="text_26">
    <g clip-path="url(#p75dad2def7)">
     <!-- $I_3$ -->
     <g style="fill: #ffa500" transform="translate(232.4129 201.134219)scale(0.125 -0.125)">
      <use xlink:href="#STIXGeneral-Italic-49" transform="translate(0 0.703125)"/>
      <use xlink:href="#STIXGeneral-Regular-33" transform="translate(33.299988 -12.525)scale(0.7)"/>
     </g>
    </g>
   </g>
   <g id="text_27">
    <g clip-path="url(#p75dad2def7)">
     <!-- $V_S$ -->
     <g transform="translate(22.3904 129.110586)scale(0.125 -0.125)">
      <use xlink:href="#STIXGeneral-Italic-56" transform="translate(0 0.703125)"/>
      <use xlink:href="#STIXGeneral-Italic-53" transform="translate(61.099991 -12.525)scale(0.7)"/>
     </g>
    </g>
    <g clip-path="url(#p75dad2def7)">
     <!-- 6V -->
     <g transform="translate(18.511494 143.107852)scale(0.125 -0.125)">
      <use xlink:href="#DejaVuSans-36"/>
      <use xlink:href="#DejaVuSans-56" x="63.623047"/>
     </g>
    </g>
   </g>
   <g id="text_28">
    <g clip-path="url(#p75dad2def7)">
     <!-- $R_2$ -->
     <g transform="translate(308.8854 67.910586)scale(0.125 -0.125)">
      <use xlink:href="#STIXGeneral-Italic-52" transform="translate(0 0.703125)"/>
      <use xlink:href="#STIXGeneral-Regular-32" transform="translate(61.099991 -12.525)scale(0.7)"/>
     </g>
    </g>
    <g clip-path="url(#p75dad2def7)">
     <!-- 2Ω -->
     <g transform="translate(308.8854 81.907852)scale(0.125 -0.125)">
      <use xlink:href="#DejaVuSans-32"/>
      <use xlink:href="#DejaVuSans-3a9" x="63.623047"/>
     </g>
    </g>
   </g>
   <g id="text_29">
    <g clip-path="url(#p75dad2def7)">
     <!-- + -->
     <g style="fill: #ff0000" transform="translate(276.990791 44.309219)scale(0.125 -0.125)">
      <use xlink:href="#DejaVuSans-2b"/>
     </g>
    </g>
   </g>
   <g id="text_30">
    <g clip-path="url(#p75dad2def7)">
     <!-- - -->
     <g style="fill: #ff0000" transform="translate(282.955634 105.509219)scale(0.125 -0.125)">
      <use xlink:href="#DejaVuSans-2d"/>
     </g>
    </g>
   </g>
   <g id="text_31">
    <g clip-path="url(#p75dad2def7)">
     <!-- $R_5$ -->
     <g transform="translate(308.8854 190.310586)scale(0.125 -0.125)">
      <use xlink:href="#STIXGeneral-Italic-52" transform="translate(0 0.703125)"/>
      <use xlink:href="#STIXGeneral-Regular-35" transform="translate(61.099991 -12.525)scale(0.7)"/>
     </g>
    </g>
    <g clip-path="url(#p75dad2def7)">
     <!-- 8Ω -->
     <g transform="translate(308.8854 204.307852)scale(0.125 -0.125)">
      <use xlink:href="#DejaVuSans-38"/>
      <use xlink:href="#DejaVuSans-3a9" x="63.623047"/>
     </g>
    </g>
   </g>
   <g id="text_32">
    <g clip-path="url(#p75dad2def7)">
     <!-- + -->
     <g style="fill: #ffa500" transform="translate(276.990791 166.709219)scale(0.125 -0.125)">
      <use xlink:href="#DejaVuSans-2b"/>
     </g>
    </g>
   </g>
   <g id="text_33">
    <g clip-path="url(#p75dad2def7)">
     <!-- - -->
     <g style="fill: #ffa500" transform="translate(282.955634 227.909219)scale(0.125 -0.125)">
      <use xlink:href="#DejaVuSans-2d"/>
     </g>
    </g>
   </g>
   <g id="text_34">
    <g clip-path="url(#p75dad2def7)">
     <!-- $R_1$ -->
     <g transform="translate(152.4404 67.910586)scale(0.125 -0.125)">
      <use xlink:href="#STIXGeneral-Italic-52" transform="translate(0 0.703125)"/>
      <use xlink:href="#STIXGeneral-Regular-31" transform="translate(61.099991 -12.525)scale(0.7)"/>
     </g>
    </g>
    <g clip-path="url(#p75dad2def7)">
     <!-- 2Ω -->
     <g transform="translate(147.559541 81.907852)scale(0.125 -0.125)">
      <use xlink:href="#DejaVuSans-32"/>
      <use xlink:href="#DejaVuSans-3a9" x="63.623047"/>
     </g>
    </g>
   </g>
   <g id="text_35">
    <g clip-path="url(#p75dad2def7)">
     <!-- + -->
     <g style="fill: #0000ff" transform="translate(154.590791 44.309219)scale(0.125 -0.125)">
      <use xlink:href="#DejaVuSans-2b"/>
     </g>
    </g>
   </g>
   <g id="text_36">
    <g clip-path="url(#p75dad2def7)">
     <!-- - -->
     <g style="fill: #0000ff" transform="translate(160.555634 105.509219)scale(0.125 -0.125)">
      <use xlink:href="#DejaVuSans-2d"/>
     </g>
    </g>
   </g>
   <g id="text_37">
    <g clip-path="url(#p75dad2def7)">
     <!-- - -->
     <g style="fill: #ff0000" transform="translate(186.4854 44.309219)scale(0.125 -0.125)">
      <use xlink:href="#DejaVuSans-2d"/>
     </g>
    </g>
   </g>
   <g id="text_38">
    <g clip-path="url(#p75dad2def7)">
     <!-- + -->
     <g style="fill: #ff0000" transform="translate(186.4854 105.509219)scale(0.125 -0.125)">
      <use xlink:href="#DejaVuSans-2b"/>
     </g>
    </g>
   </g>
   <g id="text_39">
    <g clip-path="url(#p75dad2def7)">
     <!-- $I_S$ -->
     <g transform="translate(148.2904 159.710586)scale(0.125 -0.125)">
      <use xlink:href="#STIXGeneral-Italic-49" transform="translate(0 0.703125)"/>
      <use xlink:href="#STIXGeneral-Italic-53" transform="translate(33.299988 -12.525)scale(0.7)"/>
     </g>
    </g>
    <g clip-path="url(#p75dad2def7)">
     <!-- 6A -->
     <g transform="translate(140.911494 173.707852)scale(0.125 -0.125)">
      <use xlink:href="#DejaVuSans-36"/>
      <use xlink:href="#DejaVuSans-41" x="63.623047"/>
     </g>
    </g>
   </g>
   <g id="text_40">
    <g clip-path="url(#p75dad2def7)">
     <!-- $R_4$ -->
     <g transform="translate(186.4854 220.910586)scale(0.125 -0.125)">
      <use xlink:href="#STIXGeneral-Italic-52" transform="translate(0 0.703125)"/>
      <use xlink:href="#STIXGeneral-Regular-34" transform="translate(61.099991 -12.525)scale(0.7)"/>
     </g>
    </g>
    <g clip-path="url(#p75dad2def7)">
     <!-- 1Ω -->
     <g transform="translate(186.4854 234.907852)scale(0.125 -0.125)">
      <use xlink:href="#DejaVuSans-31"/>
      <use xlink:href="#DejaVuSans-3a9" x="63.623047"/>
     </g>
    </g>
   </g>
   <g id="text_41">
    <g clip-path="url(#p75dad2def7)">
     <!-- + -->
     <g style="fill: #0000ff" transform="translate(154.590791 212.609219)scale(0.125 -0.125)">
      <use xlink:href="#DejaVuSans-2b"/>
     </g>
    </g>
   </g>
   <g id="text_42">
    <g clip-path="url(#p75dad2def7)">
     <!-- - -->
     <g style="fill: #0000ff" transform="translate(160.555634 243.209219)scale(0.125 -0.125)">
      <use xlink:href="#DejaVuSans-2d"/>
     </g>
    </g>
   </g>
   <g id="text_43">
    <g clip-path="url(#p75dad2def7)">
     <!-- - -->
     <g style="fill: #ffa500" transform="translate(186.4854 212.609219)scale(0.125 -0.125)">
      <use xlink:href="#DejaVuSans-2d"/>
     </g>
    </g>
   </g>
   <g id="text_44">
    <g clip-path="url(#p75dad2def7)">
     <!-- + -->
     <g style="fill: #ffa500" transform="translate(186.4854 243.209219)scale(0.125 -0.125)">
      <use xlink:href="#DejaVuSans-2b"/>
     </g>
    </g>
   </g>
   <g id="text_45">
    <g clip-path="url(#p75dad2def7)">
     <!-- $R_3$ -->
     <g transform="translate(230.6629 152.868047)scale(0.125 -0.125)">
      <use xlink:href="#STIXGeneral-Italic-52" transform="translate(0 0.703125)"/>
      <use xlink:href="#STIXGeneral-Regular-33" transform="translate(61.099991 -12.525)scale(0.7)"/>
     </g>
    </g>
    <g clip-path="url(#p75dad2def7)">
     <!-- 4Ω -->
     <g transform="translate(228.22247 166.865312)scale(0.125 -0.125)">
      <use xlink:href="#DejaVuSans-34"/>
      <use xlink:href="#DejaVuSans-3a9" x="63.623047"/>
     </g>
    </g>
   </g>
   <g id="text_46">
    <g clip-path="url(#p75dad2def7)">
     <!-- - -->
     <g style="fill: #ff0000" transform="translate(204.120517 119.350391)scale(0.125 -0.125)">
      <use xlink:href="#DejaVuSans-2d"/>
     </g>
    </g>
   </g>
   <g id="text_47">
    <g clip-path="url(#p75dad2def7)">
     <!-- + -->
     <g style="fill: #ff0000" transform="translate(262.338095 119.350391)scale(0.125 -0.125)">
      <use xlink:href="#DejaVuSans-2b"/>
     </g>
    </g>
   </g>
   <g id="text_48">
    <g clip-path="url(#p75dad2def7)">
     <!-- + -->
     <g style="fill: #ffa500" transform="translate(201.138095 152.868047)scale(0.125 -0.125)">
      <use xlink:href="#DejaVuSans-2b"/>
     </g>
    </g>
   </g>
   <g id="text_49">
    <g clip-path="url(#p75dad2def7)">
     <!-- - -->
     <g style="fill: #ffa500" transform="translate(265.320517 152.868047)scale(0.125 -0.125)">
      <use xlink:href="#DejaVuSans-2d"/>
     </g>
    </g>
   </g>
   <g id="text_50">
    <g clip-path="url(#p75dad2def7)">
     <!-- $I_1$ -->
     <g style="fill: #0000ff" transform="translate(113.8379 136.109219)scale(0.125 -0.125)">
      <use xlink:href="#STIXGeneral-Italic-49" transform="translate(0 0.703125)"/>
      <use xlink:href="#STIXGeneral-Regular-31" transform="translate(33.299988 -12.525)scale(0.7)"/>
     </g>
    </g>
   </g>
   <g id="text_51">
    <g clip-path="url(#p75dad2def7)">
     <!-- $I_2$ -->
     <g style="fill: #ff0000" transform="translate(232.4129 71.084219)scale(0.125 -0.125)">
      <use xlink:href="#STIXGeneral-Italic-49" transform="translate(0 0.703125)"/>
      <use xlink:href="#STIXGeneral-Regular-32" transform="translate(33.299988 -12.525)scale(0.7)"/>
     </g>
    </g>
   </g>
   <g id="text_52">
    <g clip-path="url(#p75dad2def7)">
     <!-- $I_3$ -->
     <g style="fill: #ffa500" transform="translate(232.4129 201.134219)scale(0.125 -0.125)">
      <use xlink:href="#STIXGeneral-Italic-49" transform="translate(0 0.703125)"/>
      <use xlink:href="#STIXGeneral-Regular-33" transform="translate(33.299988 -12.525)scale(0.7)"/>
     </g>
    </g>
   </g>
  </g>
 </g>
 <defs>
  <clipPath id="p75dad2def7">
   <rect x="7.2" y="7.2" width="333.7644" height="270.81"/>
  </clipPath>
 </defs>
</svg>
