<?xml version="1.0" encoding="utf-8" standalone="no"?>
<!DOCTYPE svg PUBLIC "-//W3C//DTD SVG 1.1//EN"
  "http://www.w3.org/Graphics/SVG/1.1/DTD/svg11.dtd">
<svg xmlns:xlink="http://www.w3.org/1999/xlink" width="496.5642pt" height="209.56pt" viewBox="0 0 496.5642 209.56" xmlns="http://www.w3.org/2000/svg" version="1.1">
 <metadata>
  <rdf:RDF xmlns:dc="http://purl.org/dc/elements/1.1/" xmlns:cc="http://creativecommons.org/ns#" xmlns:rdf="http://www.w3.org/1999/02/22-rdf-syntax-ns#">
   <cc:Work>
    <dc:type rdf:resource="http://purl.org/dc/dcmitype/StillImage"/>
    <dc:date>2023-02-22T21:42:00.258488</dc:date>
    <dc:format>image/svg+xml</dc:format>
    <dc:creator>
     <cc:Agent>
      <dc:title>Matplotlib v3.5.2, https://matplotlib.org/</dc:title>
     </cc:Agent>
    </dc:creator>
   </cc:Work>
  </rdf:RDF>
 </metadata>
 <defs>
  <style type="text/css">*{stroke-linejoin: round; stroke-linecap: butt}</style>
 </defs>
 <g id="figure_1">
  <g id="patch_1">
   <path d="M 0 209.56 
L 496.5642 209.56 
L 496.5642 0 
L 0 0 
L 0 209.56 
z
" style="fill: none"/>
  </g>
  <g id="axes_1">
   <g id="patch_2">
    <path d="M 63.0858 133.51 
C 67.143407 133.51 71.035372 131.897895 73.904534 129.028734 
C 76.773695 126.159572 78.3858 122.267607 78.3858 118.21 
C 78.3858 114.152393 76.773695 110.260428 73.904534 107.391266 
C 71.035372 104.522105 67.143407 102.91 63.0858 102.91 
C 59.028193 102.91 55.136228 104.522105 52.267066 107.391266 
C 49.397905 110.260428 47.7858 114.152393 47.7858 118.21 
C 47.7858 122.267607 49.397905 126.159572 52.267066 129.028734 
C 55.136228 131.897895 59.028193 133.51 63.0858 133.51 
L 63.0858 133.51 
z
" clip-path="url(#p9ae86b88be)" style="fill: none; stroke: #000000; stroke-width: 2; stroke-linejoin: miter"/>
   </g>
   <g id="patch_3">
    <path d="M 430.2858 133.51 
C 434.343407 133.51 438.235372 131.897895 441.104534 129.028734 
C 443.973695 126.159572 445.5858 122.267607 445.5858 118.21 
C 445.5858 114.152393 443.973695 110.260428 441.104534 107.391266 
C 438.235372 104.522105 434.343407 102.91 430.2858 102.91 
C 426.228193 102.91 422.336228 104.522105 419.467066 107.391266 
C 416.597905 110.260428 414.9858 114.152393 414.9858 118.21 
C 414.9858 122.267607 416.597905 126.159572 419.467066 129.028734 
C 422.336228 131.897895 426.228193 133.51 430.2858 133.51 
L 430.2858 133.51 
z
" clip-path="url(#p9ae86b88be)" style="fill: none; stroke: #000000; stroke-width: 2; stroke-linejoin: miter"/>
   </g>
   <g id="patch_4">
    <path d="M 185.4858 133.51 
C 189.543407 133.51 193.435372 131.897895 196.304534 129.028734 
C 199.173695 126.159572 200.7858 122.267607 200.7858 118.21 
C 200.7858 114.152393 199.173695 110.260428 196.304534 107.391266 
C 193.435372 104.522105 189.543407 102.91 185.4858 102.91 
C 181.428193 102.91 177.536228 104.522105 174.667066 107.391266 
C 171.797905 110.260428 170.1858 114.152393 170.1858 118.21 
C 170.1858 122.267607 171.797905 126.159572 174.667066 129.028734 
C 177.536228 131.897895 181.428193 133.51 185.4858 133.51 
L 185.4858 133.51 
z
" clip-path="url(#p9ae86b88be)" style="fill: none; stroke: #000000; stroke-width: 2; stroke-linejoin: miter"/>
   </g>
   <g id="patch_5">
    <path d="M 146.383135 106.562279 
C 145.196632 102.906853 143.598143 99.571971 141.655261 96.698649 
C 139.712379 93.825326 137.45288 91.454641 134.972308 89.686837 
C 132.491735 87.919034 129.825552 86.779387 127.086498 86.316084 
C 124.347444 85.852782 121.574678 86.072449 118.885446 86.965796 
C 116.196215 87.859143 113.628964 89.413399 111.29225 91.562842 
C 108.955536 93.712285 106.882766 96.426185 105.161587 99.589786 
C 103.440408 102.753387 102.095426 106.321459 101.183515 110.143128 
C 100.271604 113.964796 99.8058 117.985425 99.8058 122.035 
C 99.8058 126.084575 100.271604 130.105204 101.183515 133.926872 
C 102.095426 137.748541 103.440408 141.316613 105.161587 144.480214 
C 106.882766 147.643815 108.955536 150.357715 111.29225 152.507158 
C 113.628964 154.656601 116.196215 156.210857 118.885446 157.104204 
C 121.574678 157.997551 124.347444 158.217218 127.086498 157.753916 
C 129.825552 157.290613 132.491735 156.150966 134.972308 154.383163 
C 137.45288 152.615359 139.712379 150.244674 141.655261 147.371351 
C 143.598143 144.498029 145.196632 141.163147 146.383135 137.507721 
" clip-path="url(#p9ae86b88be)" style="fill: none; stroke: #0000ff; stroke-width: 2; stroke-linejoin: miter"/>
   </g>
   <g id="patch_6">
    <path d="M 149.806886 113.743913 
L 144.443193 107.826117 
L 146.501007 106.84508 
L 146.369324 106.568864 
L 146.396946 106.555695 
L 146.528629 106.831912 
L 148.586443 105.850876 
z
" clip-path="url(#p9ae86b88be)" style="fill: #0000ff; stroke: #0000ff; stroke-linejoin: miter"/>
   </g>
   <g id="patch_7">
    <path d="M 268.783135 106.562279 
C 267.596632 102.906853 265.998143 99.571971 264.055261 96.698649 
C 262.112379 93.825326 259.85288 91.454641 257.372308 89.686837 
C 254.891735 87.919034 252.225552 86.779387 249.486498 86.316084 
C 246.747444 85.852782 243.974678 86.072449 241.285446 86.965796 
C 238.596215 87.859143 236.028964 89.413399 233.69225 91.562842 
C 231.355536 93.712285 229.282766 96.426185 227.561587 99.589786 
C 225.840408 102.753387 224.495426 106.321459 223.583515 110.143128 
C 222.671604 113.964796 222.2058 117.985425 222.2058 122.035 
C 222.2058 126.084575 222.671604 130.105204 223.583515 133.926872 
C 224.495426 137.748541 225.840408 141.316613 227.561587 144.480214 
C 229.282766 147.643815 231.355536 150.357715 233.69225 152.507158 
C 236.028964 154.656601 238.596215 156.210857 241.285446 157.104204 
C 243.974678 157.997551 246.747444 158.217218 249.486498 157.753916 
C 252.225552 157.290613 254.891735 156.150966 257.372308 154.383163 
C 259.85288 152.615359 262.112379 150.244674 264.055261 147.371351 
C 265.998143 144.498029 267.596632 141.163147 268.783135 137.507721 
" clip-path="url(#p9ae86b88be)" style="fill: none; stroke: #ff0000; stroke-width: 2; stroke-linejoin: miter"/>
   </g>
   <g id="patch_8">
    <path d="M 272.206886 113.743913 
L 266.843193 107.826117 
L 268.901007 106.84508 
L 268.769324 106.568864 
L 268.796946 106.555695 
L 268.928629 106.831912 
L 270.986443 105.850876 
z
" clip-path="url(#p9ae86b88be)" style="fill: #ff0000; stroke: #ff0000; stroke-linejoin: miter"/>
   </g>
   <g id="patch_9">
    <path d="M 391.183135 106.562279 
C 389.996632 102.906853 388.398143 99.571971 386.455261 96.698649 
C 384.512379 93.825326 382.25288 91.454641 379.772308 89.686837 
C 377.291735 87.919034 374.625552 86.779387 371.886498 86.316084 
C 369.147444 85.852782 366.374678 86.072449 363.685446 86.965796 
C 360.996215 87.859143 358.428964 89.413399 356.09225 91.562842 
C 353.755536 93.712285 351.682766 96.426185 349.961587 99.589786 
C 348.240408 102.753387 346.895426 106.321459 345.983515 110.143128 
C 345.071604 113.964796 344.6058 117.985425 344.6058 122.035 
C 344.6058 126.084575 345.071604 130.105204 345.983515 133.926872 
C 346.895426 137.748541 348.240408 141.316613 349.961587 144.480214 
C 351.682766 147.643815 353.755536 150.357715 356.09225 152.507158 
C 358.428964 154.656601 360.996215 156.210857 363.685446 157.104204 
C 366.374678 157.997551 369.147444 158.217218 371.886498 157.753916 
C 374.625552 157.290613 377.291735 156.150966 379.772308 154.383163 
C 382.25288 152.615359 384.512379 150.244674 386.455261 147.371351 
C 388.398143 144.498029 389.996632 141.163147 391.183135 137.507721 
" clip-path="url(#p9ae86b88be)" style="fill: none; stroke: #ffa500; stroke-width: 2; stroke-linejoin: miter"/>
   </g>
   <g id="patch_10">
    <path d="M 394.606886 113.743913 
L 389.243193 107.826117 
L 391.301007 106.84508 
L 391.169324 106.568864 
L 391.196946 106.555695 
L 391.328629 106.831912 
L 393.386443 105.850876 
z
" clip-path="url(#p9ae86b88be)" style="fill: #ffa500; stroke: #ffa500; stroke-linejoin: miter"/>
   </g>
   <g id="patch_11">
    <path d="M 63.0858 133.51 
C 67.143407 133.51 71.035372 131.897895 73.904534 129.028734 
C 76.773695 126.159572 78.3858 122.267607 78.3858 118.21 
C 78.3858 114.152393 76.773695 110.260428 73.904534 107.391266 
C 71.035372 104.522105 67.143407 102.91 63.0858 102.91 
C 59.028193 102.91 55.136228 104.522105 52.267066 107.391266 
C 49.397905 110.260428 47.7858 114.152393 47.7858 118.21 
C 47.7858 122.267607 49.397905 126.159572 52.267066 129.028734 
C 55.136228 131.897895 59.028193 133.51 63.0858 133.51 
L 63.0858 133.51 
z
" clip-path="url(#p9ae86b88be)" style="fill: none; stroke: #000000; stroke-width: 2; stroke-linejoin: miter"/>
   </g>
   <g id="patch_12">
    <path d="M 430.2858 133.51 
C 434.343407 133.51 438.235372 131.897895 441.104534 129.028734 
C 443.973695 126.159572 445.5858 122.267607 445.5858 118.21 
C 445.5858 114.152393 443.973695 110.260428 441.104534 107.391266 
C 438.235372 104.522105 434.343407 102.91 430.2858 102.91 
C 426.228193 102.91 422.336228 104.522105 419.467066 107.391266 
C 416.597905 110.260428 414.9858 114.152393 414.9858 118.21 
C 414.9858 122.267607 416.597905 126.159572 419.467066 129.028734 
C 422.336228 131.897895 426.228193 133.51 430.2858 133.51 
L 430.2858 133.51 
z
" clip-path="url(#p9ae86b88be)" style="fill: none; stroke: #000000; stroke-width: 2; stroke-linejoin: miter"/>
   </g>
   <g id="patch_13">
    <path d="M 185.4858 133.51 
C 189.543407 133.51 193.435372 131.897895 196.304534 129.028734 
C 199.173695 126.159572 200.7858 122.267607 200.7858 118.21 
C 200.7858 114.152393 199.173695 110.260428 196.304534 107.391266 
C 193.435372 104.522105 189.543407 102.91 185.4858 102.91 
C 181.428193 102.91 177.536228 104.522105 174.667066 107.391266 
C 171.797905 110.260428 170.1858 114.152393 170.1858 118.21 
C 170.1858 122.267607 171.797905 126.159572 174.667066 129.028734 
C 177.536228 131.897895 181.428193 133.51 185.4858 133.51 
L 185.4858 133.51 
z
" clip-path="url(#p9ae86b88be)" style="fill: none; stroke: #000000; stroke-width: 2; stroke-linejoin: miter"/>
   </g>
   <g id="patch_14">
    <path d="M 146.383135 106.562279 
C 145.196632 102.906853 143.598143 99.571971 141.655261 96.698649 
C 139.712379 93.825326 137.45288 91.454641 134.972308 89.686837 
C 132.491735 87.919034 129.825552 86.779387 127.086498 86.316084 
C 124.347444 85.852782 121.574678 86.072449 118.885446 86.965796 
C 116.196215 87.859143 113.628964 89.413399 111.29225 91.562842 
C 108.955536 93.712285 106.882766 96.426185 105.161587 99.589786 
C 103.440408 102.753387 102.095426 106.321459 101.183515 110.143128 
C 100.271604 113.964796 99.8058 117.985425 99.8058 122.035 
C 99.8058 126.084575 100.271604 130.105204 101.183515 133.926872 
C 102.095426 137.748541 103.440408 141.316613 105.161587 144.480214 
C 106.882766 147.643815 108.955536 150.357715 111.29225 152.507158 
C 113.628964 154.656601 116.196215 156.210857 118.885446 157.104204 
C 121.574678 157.997551 124.347444 158.217218 127.086498 157.753916 
C 129.825552 157.290613 132.491735 156.150966 134.972308 154.383163 
C 137.45288 152.615359 139.712379 150.244674 141.655261 147.371351 
C 143.598143 144.498029 145.196632 141.163147 146.383135 137.507721 
" clip-path="url(#p9ae86b88be)" style="fill: none; stroke: #0000ff; stroke-width: 2; stroke-linejoin: miter"/>
   </g>
   <g id="patch_15">
    <path d="M 149.806886 113.743913 
L 144.443193 107.826117 
L 146.501007 106.84508 
L 146.369324 106.568864 
L 146.396946 106.555695 
L 146.528629 106.831912 
L 148.586443 105.850876 
z
" clip-path="url(#p9ae86b88be)" style="fill: #0000ff; stroke: #0000ff; stroke-linejoin: miter"/>
   </g>
   <g id="patch_16">
    <path d="M 268.783135 106.562279 
C 267.596632 102.906853 265.998143 99.571971 264.055261 96.698649 
C 262.112379 93.825326 259.85288 91.454641 257.372308 89.686837 
C 254.891735 87.919034 252.225552 86.779387 249.486498 86.316084 
C 246.747444 85.852782 243.974678 86.072449 241.285446 86.965796 
C 238.596215 87.859143 236.028964 89.413399 233.69225 91.562842 
C 231.355536 93.712285 229.282766 96.426185 227.561587 99.589786 
C 225.840408 102.753387 224.495426 106.321459 223.583515 110.143128 
C 222.671604 113.964796 222.2058 117.985425 222.2058 122.035 
C 222.2058 126.084575 222.671604 130.105204 223.583515 133.926872 
C 224.495426 137.748541 225.840408 141.316613 227.561587 144.480214 
C 229.282766 147.643815 231.355536 150.357715 233.69225 152.507158 
C 236.028964 154.656601 238.596215 156.210857 241.285446 157.104204 
C 243.974678 157.997551 246.747444 158.217218 249.486498 157.753916 
C 252.225552 157.290613 254.891735 156.150966 257.372308 154.383163 
C 259.85288 152.615359 262.112379 150.244674 264.055261 147.371351 
C 265.998143 144.498029 267.596632 141.163147 268.783135 137.507721 
" clip-path="url(#p9ae86b88be)" style="fill: none; stroke: #ff0000; stroke-width: 2; stroke-linejoin: miter"/>
   </g>
   <g id="patch_17">
    <path d="M 272.206886 113.743913 
L 266.843193 107.826117 
L 268.901007 106.84508 
L 268.769324 106.568864 
L 268.796946 106.555695 
L 268.928629 106.831912 
L 270.986443 105.850876 
z
" clip-path="url(#p9ae86b88be)" style="fill: #ff0000; stroke: #ff0000; stroke-linejoin: miter"/>
   </g>
   <g id="patch_18">
    <path d="M 391.183135 106.562279 
C 389.996632 102.906853 388.398143 99.571971 386.455261 96.698649 
C 384.512379 93.825326 382.25288 91.454641 379.772308 89.686837 
C 377.291735 87.919034 374.625552 86.779387 371.886498 86.316084 
C 369.147444 85.852782 366.374678 86.072449 363.685446 86.965796 
C 360.996215 87.859143 358.428964 89.413399 356.09225 91.562842 
C 353.755536 93.712285 351.682766 96.426185 349.961587 99.589786 
C 348.240408 102.753387 346.895426 106.321459 345.983515 110.143128 
C 345.071604 113.964796 344.6058 117.985425 344.6058 122.035 
C 344.6058 126.084575 345.071604 130.105204 345.983515 133.926872 
C 346.895426 137.748541 348.240408 141.316613 349.961587 144.480214 
C 351.682766 147.643815 353.755536 150.357715 356.09225 152.507158 
C 358.428964 154.656601 360.996215 156.210857 363.685446 157.104204 
C 366.374678 157.997551 369.147444 158.217218 371.886498 157.753916 
C 374.625552 157.290613 377.291735 156.150966 379.772308 154.383163 
C 382.25288 152.615359 384.512379 150.244674 386.455261 147.371351 
C 388.398143 144.498029 389.996632 141.163147 391.183135 137.507721 
" clip-path="url(#p9ae86b88be)" style="fill: none; stroke: #ffa500; stroke-width: 2; stroke-linejoin: miter"/>
   </g>
   <g id="patch_19">
    <path d="M 394.606886 113.743913 
L 389.243193 107.826117 
L 391.301007 106.84508 
L 391.169324 106.568864 
L 391.196946 106.555695 
L 391.328629 106.831912 
L 393.386443 105.850876 
z
" clip-path="url(#p9ae86b88be)" style="fill: #ffa500; stroke: #ffa500; stroke-linejoin: miter"/>
   </g>
   <g id="line2d_1">
    <path d="M 63.0858 179.41 
L 63.0858 133.51 
L 63.0858 133.51 
M 63.0858 102.91 
L 63.0858 102.91 
L 63.0858 57.01 
" clip-path="url(#p9ae86b88be)" style="fill: none; stroke: #000000; stroke-width: 2; stroke-linecap: round"/>
   </g>
   <g id="line2d_2">
    <path d="M 66.1458 125.86 
L 60.0258 125.86 
" clip-path="url(#p9ae86b88be)" style="fill: none; stroke: #000000; stroke-width: 2; stroke-linecap: round"/>
   </g>
   <g id="line2d_3">
    <path d="M 63.0858 113.62 
L 63.0858 107.5 
" clip-path="url(#p9ae86b88be)" style="fill: none; stroke: #000000; stroke-width: 2; stroke-linecap: round"/>
   </g>
   <g id="line2d_4">
    <path d="M 66.1458 110.56 
L 60.0258 110.56 
" clip-path="url(#p9ae86b88be)" style="fill: none; stroke: #000000; stroke-width: 2; stroke-linecap: round"/>
   </g>
   <g id="line2d_5">
    <path d="M 63.0858 57.01 
L 108.9858 57.01 
L 111.5358 49.36 
L 116.6358 64.66 
L 121.7358 49.36 
L 126.8358 64.66 
L 131.9358 49.36 
L 137.0358 64.66 
L 139.5858 57.01 
L 185.4858 57.01 
" clip-path="url(#p9ae86b88be)" style="fill: none; stroke: #000000; stroke-width: 2; stroke-linecap: round"/>
   </g>
   <g id="line2d_6">
    <path d="M 185.4858 57.01 
L 231.3858 57.01 
L 233.9358 49.36 
L 239.0358 64.66 
L 244.1358 49.36 
L 249.2358 64.66 
L 254.3358 49.36 
L 259.4358 64.66 
L 261.9858 57.01 
L 307.8858 57.01 
" clip-path="url(#p9ae86b88be)" style="fill: none; stroke: #000000; stroke-width: 2; stroke-linecap: round"/>
   </g>
   <g id="line2d_7">
    <path d="M 307.8858 57.01 
L 353.7858 57.01 
L 356.3358 49.36 
L 361.4358 64.66 
L 366.5358 49.36 
L 371.6358 64.66 
L 376.7358 49.36 
L 381.8358 64.66 
L 384.3858 57.01 
L 430.2858 57.01 
" clip-path="url(#p9ae86b88be)" style="fill: none; stroke: #000000; stroke-width: 2; stroke-linecap: round"/>
   </g>
   <g id="line2d_8">
    <path d="M 430.2858 57.01 
L 430.2858 102.91 
L 430.2858 102.91 
M 430.2858 133.51 
L 430.2858 133.51 
L 430.2858 179.41 
" clip-path="url(#p9ae86b88be)" style="fill: none; stroke: #000000; stroke-width: 2; stroke-linecap: round"/>
   </g>
   <g id="line2d_9">
    <path d="M 433.3458 125.86 
L 427.2258 125.86 
" clip-path="url(#p9ae86b88be)" style="fill: none; stroke: #000000; stroke-width: 2; stroke-linecap: round"/>
   </g>
   <g id="line2d_10">
    <path d="M 430.2858 107.5 
L 430.2858 113.62 
" clip-path="url(#p9ae86b88be)" style="fill: none; stroke: #000000; stroke-width: 2; stroke-linecap: round"/>
   </g>
   <g id="line2d_11">
    <path d="M 433.3458 110.56 
L 427.2258 110.56 
" clip-path="url(#p9ae86b88be)" style="fill: none; stroke: #000000; stroke-width: 2; stroke-linecap: round"/>
   </g>
   <g id="line2d_12">
    <path d="M 430.2858 179.41 
L 246.6858 179.41 
L 63.0858 179.41 
" clip-path="url(#p9ae86b88be)" style="fill: none; stroke: #000000; stroke-width: 2; stroke-linecap: round"/>
   </g>
   <g id="line2d_13">
    <path d="M 63.0858 179.41 
L 63.0858 191.65 
L 55.4358 191.65 
L 63.0858 199.3 
L 70.7358 191.65 
L 63.0858 191.65 
" clip-path="url(#p9ae86b88be)" style="fill: none; stroke: #000000; stroke-width: 2; stroke-linecap: round"/>
   </g>
   <g id="line2d_14">
    <path d="M 185.4858 57.01 
L 185.4858 102.91 
L 185.4858 102.91 
M 185.4858 133.51 
L 185.4858 133.51 
L 185.4858 179.41 
" clip-path="url(#p9ae86b88be)" style="fill: none; stroke: #000000; stroke-width: 2; stroke-linecap: round"/>
   </g>
   <g id="line2d_15">
    <path d="M 185.4858 118.21 
L 185.4858 125.86 
" clip-path="url(#p9ae86b88be)" style="fill: none; stroke: #000000; stroke-width: 2; stroke-linecap: round"/>
   </g>
   <g id="patch_20">
    <path d="M 183.1908 118.21 
L 185.4858 110.56 
L 187.7808 118.21 
z
" clip-path="url(#p9ae86b88be)"/>
   </g>
   <g id="line2d_16">
    <path d="M 307.8858 57.01 
L 307.8858 102.91 
L 323.1858 118.21 
L 307.8858 133.51 
L 292.5858 118.21 
L 307.8858 102.91 
M 307.8858 133.51 
L 307.8858 179.41 
" clip-path="url(#p9ae86b88be)" style="fill: none; stroke: #000000; stroke-width: 2; stroke-linecap: round"/>
   </g>
   <g id="line2d_17">
    <path d="M 307.8858 110.56 
L 307.8858 118.21 
" clip-path="url(#p9ae86b88be)" style="fill: none; stroke: #000000; stroke-width: 2; stroke-linecap: round"/>
   </g>
   <g id="patch_21">
    <path d="M 310.1808 118.21 
L 307.8858 125.86 
L 305.5908 118.21 
z
" clip-path="url(#p9ae86b88be)"/>
   </g>
   <g id="line2d_18">
    <path d="M 81.4458 164.11 
L 81.4458 115.915 
L 81.4458 67.72 
" clip-path="url(#p9ae86b88be)" style="fill: none; stroke-dasharray: 7.4,3.2; stroke-dashoffset: 0; stroke: #008000; stroke-width: 2"/>
   </g>
   <g id="line2d_19">
    <path d="M 81.4458 67.72 
L 244.3908 67.72 
L 407.3358 67.72 
" clip-path="url(#p9ae86b88be)" style="fill: none; stroke-dasharray: 7.4,3.2; stroke-dashoffset: 0; stroke: #008000; stroke-width: 2"/>
   </g>
   <g id="line2d_20">
    <path d="M 407.3358 67.72 
L 407.3358 119.74 
L 407.3358 171.76 
" clip-path="url(#p9ae86b88be)" style="fill: none; stroke-dasharray: 7.4,3.2; stroke-dashoffset: 0; stroke: #008000; stroke-width: 2"/>
   </g>
   <g id="line2d_21">
    <path d="M 407.3358 171.76 
L 250.5108 171.76 
L 101.3358 171.76 
" clip-path="url(#p9ae86b88be)" style="fill: none; stroke-dasharray: 7.4,3.2; stroke-dashoffset: 0; stroke: #008000; stroke-width: 2"/>
   </g>
   <g id="patch_22">
    <path d="M 101.3358 174.055 
L 93.6858 171.76 
L 101.3358 169.465 
z
" clip-path="url(#p9ae86b88be)" style="fill: #008000"/>
   </g>
   <g id="line2d_22">
    <path d="M 63.0858 179.41 
L 63.0858 133.51 
L 63.0858 133.51 
M 63.0858 102.91 
L 63.0858 102.91 
L 63.0858 57.01 
" clip-path="url(#p9ae86b88be)" style="fill: none; stroke: #000000; stroke-width: 2; stroke-linecap: round"/>
   </g>
   <g id="line2d_23">
    <path d="M 66.1458 125.86 
L 60.0258 125.86 
" clip-path="url(#p9ae86b88be)" style="fill: none; stroke: #000000; stroke-width: 2; stroke-linecap: round"/>
   </g>
   <g id="line2d_24">
    <path d="M 63.0858 113.62 
L 63.0858 107.5 
" clip-path="url(#p9ae86b88be)" style="fill: none; stroke: #000000; stroke-width: 2; stroke-linecap: round"/>
   </g>
   <g id="line2d_25">
    <path d="M 66.1458 110.56 
L 60.0258 110.56 
" clip-path="url(#p9ae86b88be)" style="fill: none; stroke: #000000; stroke-width: 2; stroke-linecap: round"/>
   </g>
   <g id="line2d_26">
    <path d="M 63.0858 57.01 
L 108.9858 57.01 
L 111.5358 49.36 
L 116.6358 64.66 
L 121.7358 49.36 
L 126.8358 64.66 
L 131.9358 49.36 
L 137.0358 64.66 
L 139.5858 57.01 
L 185.4858 57.01 
" clip-path="url(#p9ae86b88be)" style="fill: none; stroke: #000000; stroke-width: 2; stroke-linecap: round"/>
   </g>
   <g id="line2d_27">
    <path d="M 185.4858 57.01 
L 231.3858 57.01 
L 233.9358 49.36 
L 239.0358 64.66 
L 244.1358 49.36 
L 249.2358 64.66 
L 254.3358 49.36 
L 259.4358 64.66 
L 261.9858 57.01 
L 307.8858 57.01 
" clip-path="url(#p9ae86b88be)" style="fill: none; stroke: #000000; stroke-width: 2; stroke-linecap: round"/>
   </g>
   <g id="line2d_28">
    <path d="M 307.8858 57.01 
L 353.7858 57.01 
L 356.3358 49.36 
L 361.4358 64.66 
L 366.5358 49.36 
L 371.6358 64.66 
L 376.7358 49.36 
L 381.8358 64.66 
L 384.3858 57.01 
L 430.2858 57.01 
" clip-path="url(#p9ae86b88be)" style="fill: none; stroke: #000000; stroke-width: 2; stroke-linecap: round"/>
   </g>
   <g id="line2d_29">
    <path d="M 430.2858 57.01 
L 430.2858 102.91 
L 430.2858 102.91 
M 430.2858 133.51 
L 430.2858 133.51 
L 430.2858 179.41 
" clip-path="url(#p9ae86b88be)" style="fill: none; stroke: #000000; stroke-width: 2; stroke-linecap: round"/>
   </g>
   <g id="line2d_30">
    <path d="M 433.3458 125.86 
L 427.2258 125.86 
" clip-path="url(#p9ae86b88be)" style="fill: none; stroke: #000000; stroke-width: 2; stroke-linecap: round"/>
   </g>
   <g id="line2d_31">
    <path d="M 430.2858 107.5 
L 430.2858 113.62 
" clip-path="url(#p9ae86b88be)" style="fill: none; stroke: #000000; stroke-width: 2; stroke-linecap: round"/>
   </g>
   <g id="line2d_32">
    <path d="M 433.3458 110.56 
L 427.2258 110.56 
" clip-path="url(#p9ae86b88be)" style="fill: none; stroke: #000000; stroke-width: 2; stroke-linecap: round"/>
   </g>
   <g id="line2d_33">
    <path d="M 430.2858 179.41 
L 246.6858 179.41 
L 63.0858 179.41 
" clip-path="url(#p9ae86b88be)" style="fill: none; stroke: #000000; stroke-width: 2; stroke-linecap: round"/>
   </g>
   <g id="line2d_34">
    <path d="M 63.0858 179.41 
L 63.0858 191.65 
L 55.4358 191.65 
L 63.0858 199.3 
L 70.7358 191.65 
L 63.0858 191.65 
" clip-path="url(#p9ae86b88be)" style="fill: none; stroke: #000000; stroke-width: 2; stroke-linecap: round"/>
   </g>
   <g id="line2d_35">
    <path d="M 185.4858 57.01 
L 185.4858 102.91 
L 185.4858 102.91 
M 185.4858 133.51 
L 185.4858 133.51 
L 185.4858 179.41 
" clip-path="url(#p9ae86b88be)" style="fill: none; stroke: #000000; stroke-width: 2; stroke-linecap: round"/>
   </g>
   <g id="line2d_36">
    <path d="M 185.4858 118.21 
L 185.4858 125.86 
" clip-path="url(#p9ae86b88be)" style="fill: none; stroke: #000000; stroke-width: 2; stroke-linecap: round"/>
   </g>
   <g id="patch_23">
    <path d="M 183.1908 118.21 
L 185.4858 110.56 
L 187.7808 118.21 
z
" clip-path="url(#p9ae86b88be)"/>
   </g>
   <g id="line2d_37">
    <path d="M 307.8858 57.01 
L 307.8858 102.91 
L 323.1858 118.21 
L 307.8858 133.51 
L 292.5858 118.21 
L 307.8858 102.91 
M 307.8858 133.51 
L 307.8858 179.41 
" clip-path="url(#p9ae86b88be)" style="fill: none; stroke: #000000; stroke-width: 2; stroke-linecap: round"/>
   </g>
   <g id="line2d_38">
    <path d="M 307.8858 110.56 
L 307.8858 118.21 
" clip-path="url(#p9ae86b88be)" style="fill: none; stroke: #000000; stroke-width: 2; stroke-linecap: round"/>
   </g>
   <g id="patch_24">
    <path d="M 310.1808 118.21 
L 307.8858 125.86 
L 305.5908 118.21 
z
" clip-path="url(#p9ae86b88be)"/>
   </g>
   <g id="line2d_39">
    <path d="M 81.4458 164.11 
L 81.4458 115.915 
L 81.4458 67.72 
" clip-path="url(#p9ae86b88be)" style="fill: none; stroke-dasharray: 7.4,3.2; stroke-dashoffset: 0; stroke: #008000; stroke-width: 2"/>
   </g>
   <g id="line2d_40">
    <path d="M 81.4458 67.72 
L 244.3908 67.72 
L 407.3358 67.72 
" clip-path="url(#p9ae86b88be)" style="fill: none; stroke-dasharray: 7.4,3.2; stroke-dashoffset: 0; stroke: #008000; stroke-width: 2"/>
   </g>
   <g id="line2d_41">
    <path d="M 407.3358 67.72 
L 407.3358 119.74 
L 407.3358 171.76 
" clip-path="url(#p9ae86b88be)" style="fill: none; stroke-dasharray: 7.4,3.2; stroke-dashoffset: 0; stroke: #008000; stroke-width: 2"/>
   </g>
   <g id="line2d_42">
    <path d="M 407.3358 171.76 
L 250.5108 171.76 
L 101.3358 171.76 
" clip-path="url(#p9ae86b88be)" style="fill: none; stroke-dasharray: 7.4,3.2; stroke-dashoffset: 0; stroke: #008000; stroke-width: 2"/>
   </g>
   <g id="patch_25">
    <path d="M 101.3358 174.055 
L 93.6858 171.76 
L 101.3358 169.465 
z
" clip-path="url(#p9ae86b88be)" style="fill: #008000"/>
   </g>
   <g id="text_1">
    <g clip-path="url(#p9ae86b88be)">
     <!-- $V_{S1}$ -->
     <g transform="translate(27.7258 114.660586)scale(0.125 -0.125)">
      <defs>
       <path id="STIXGeneral-Italic-56" d="M 4403 4179 
L 4403 4077 
Q 4198 4070 4045 3821 
L 1658 -115 
L 1536 -115 
L 1011 3104 
Q 902 3776 828 3910 
Q 755 4045 486 4077 
L 486 4179 
L 2022 4179 
L 2022 4077 
Q 1722 4045 1629 3981 
Q 1536 3917 1536 3750 
Q 1536 3686 1542 3654 
L 1958 819 
L 3302 3123 
Q 3616 3661 3616 3859 
Q 3616 4032 3219 4077 
L 3219 4179 
L 4403 4179 
z
" transform="scale(0.015625)"/>
       <path id="STIXGeneral-Italic-53" d="M 3251 4269 
L 2995 2989 
L 2880 3008 
Q 2880 3539 2720 3795 
Q 2560 4051 2118 4051 
Q 1786 4051 1594 3881 
Q 1402 3712 1402 3411 
Q 1402 3168 1504 3005 
Q 1606 2842 2035 2413 
Q 2464 1978 2611 1715 
Q 2758 1453 2758 1133 
Q 2758 589 2390 237 
Q 2022 -115 1466 -115 
Q 1222 -115 800 32 
Q 595 109 499 109 
Q 288 109 224 -96 
L 109 -96 
L 326 1338 
L 454 1325 
Q 442 1267 442 1178 
Q 442 710 701 409 
Q 960 109 1363 109 
Q 1734 109 1968 336 
Q 2202 563 2202 928 
Q 2202 1139 2118 1308 
Q 2035 1478 1818 1715 
L 1568 1984 
Q 1549 2003 1459 2102 
Q 1370 2202 1318 2253 
Q 1030 2560 934 2755 
Q 838 2950 838 3213 
Q 838 3699 1168 3980 
Q 1498 4262 1978 4262 
Q 2310 4262 2522 4173 
Q 2707 4102 2816 4102 
Q 2925 4102 2982 4134 
Q 3040 4166 3104 4269 
L 3251 4269 
z
" transform="scale(0.015625)"/>
       <path id="STIXGeneral-Regular-31" d="M 2522 0 
L 755 0 
L 755 96 
Q 1107 115 1235 227 
Q 1363 339 1363 608 
L 1363 3482 
Q 1363 3795 1171 3795 
Q 1082 3795 883 3718 
L 710 3654 
L 710 3744 
L 1856 4326 
L 1914 4307 
L 1914 486 
Q 1914 275 2042 185 
Q 2170 96 2522 96 
L 2522 0 
z
" transform="scale(0.015625)"/>
      </defs>
      <use xlink:href="#STIXGeneral-Italic-56" transform="translate(0 0.703125)"/>
      <use xlink:href="#STIXGeneral-Italic-53" transform="translate(61.099991 -12.525)scale(0.7)"/>
      <use xlink:href="#STIXGeneral-Regular-31" transform="translate(96.09998 -12.525)scale(0.7)"/>
     </g>
    </g>
    <g clip-path="url(#p9ae86b88be)">
     <!-- 100V -->
     <g transform="translate(12.315644 128.657852)scale(0.125 -0.125)">
      <defs>
       <path id="DejaVuSans-31" d="M 794 531 
L 1825 531 
L 1825 4091 
L 703 3866 
L 703 4441 
L 1819 4666 
L 2450 4666 
L 2450 531 
L 3481 531 
L 3481 0 
L 794 0 
L 794 531 
z
" transform="scale(0.015625)"/>
       <path id="DejaVuSans-30" d="M 2034 4250 
Q 1547 4250 1301 3770 
Q 1056 3291 1056 2328 
Q 1056 1369 1301 889 
Q 1547 409 2034 409 
Q 2525 409 2770 889 
Q 3016 1369 3016 2328 
Q 3016 3291 2770 3770 
Q 2525 4250 2034 4250 
z
M 2034 4750 
Q 2819 4750 3233 4129 
Q 3647 3509 3647 2328 
Q 3647 1150 3233 529 
Q 2819 -91 2034 -91 
Q 1250 -91 836 529 
Q 422 1150 422 2328 
Q 422 3509 836 4129 
Q 1250 4750 2034 4750 
z
" transform="scale(0.015625)"/>
       <path id="DejaVuSans-56" d="M 1831 0 
L 50 4666 
L 709 4666 
L 2188 738 
L 3669 4666 
L 4325 4666 
L 2547 0 
L 1831 0 
z
" transform="scale(0.015625)"/>
      </defs>
      <use xlink:href="#DejaVuSans-31"/>
      <use xlink:href="#DejaVuSans-30" x="63.623047"/>
      <use xlink:href="#DejaVuSans-30" x="127.246094"/>
      <use xlink:href="#DejaVuSans-56" x="190.869141"/>
     </g>
    </g>
   </g>
   <g id="text_2">
    <g clip-path="url(#p9ae86b88be)">
     <!-- $R_{1}$ -->
     <g transform="translate(117.9733 29.703125)scale(0.125 -0.125)">
      <defs>
       <path id="STIXGeneral-Italic-52" d="M 845 4179 
L 2458 4179 
Q 3078 4179 3420 3936 
Q 3763 3693 3763 3277 
Q 3763 2778 3341 2458 
Q 3091 2266 2502 2131 
L 3072 627 
Q 3181 333 3299 217 
Q 3418 102 3629 102 
L 3629 0 
L 2688 0 
L 1901 2074 
L 1478 2106 
L 1126 806 
Q 1043 512 1043 403 
Q 1043 256 1126 192 
Q 1210 128 1472 102 
L 1472 0 
L -83 0 
L -83 102 
Q 173 134 278 243 
Q 384 352 461 646 
L 1222 3405 
Q 1299 3699 1299 3808 
Q 1299 3923 1210 3987 
Q 1133 4038 845 4077 
L 845 4179 
z
M 1958 3795 
L 1555 2342 
Q 1754 2310 1882 2310 
Q 2451 2310 2771 2566 
Q 3091 2822 3091 3270 
Q 3091 3603 2892 3795 
Q 2694 3987 2323 3987 
Q 2010 3987 1958 3795 
z
" transform="scale(0.015625)"/>
      </defs>
      <use xlink:href="#STIXGeneral-Italic-52" transform="translate(0 0.703125)"/>
      <use xlink:href="#STIXGeneral-Regular-31" transform="translate(61.099991 -12.525)scale(0.7)"/>
     </g>
    </g>
    <g clip-path="url(#p9ae86b88be)">
     <!-- 4kΩ -->
     <g transform="translate(111.91373 43.700391)scale(0.125 -0.125)">
      <defs>
       <path id="DejaVuSans-34" d="M 2419 4116 
L 825 1625 
L 2419 1625 
L 2419 4116 
z
M 2253 4666 
L 3047 4666 
L 3047 1625 
L 3713 1625 
L 3713 1100 
L 3047 1100 
L 3047 0 
L 2419 0 
L 2419 1100 
L 313 1100 
L 313 1709 
L 2253 4666 
z
" transform="scale(0.015625)"/>
       <path id="DejaVuSans-6b" d="M 581 4863 
L 1159 4863 
L 1159 1991 
L 2875 3500 
L 3609 3500 
L 1753 1863 
L 3688 0 
L 2938 0 
L 1159 1709 
L 1159 0 
L 581 0 
L 581 4863 
z
" transform="scale(0.015625)"/>
       <path id="DejaVuSans-3a9" d="M 4647 556 
L 4647 0 
L 2772 0 
L 2772 556 
Q 3325 859 3634 1378 
Q 3944 1897 3944 2528 
Q 3944 3278 3531 3731 
Q 3119 4184 2444 4184 
Q 1769 4184 1355 3729 
Q 941 3275 941 2528 
Q 941 1897 1250 1378 
Q 1563 859 2119 556 
L 2119 0 
L 244 0 
L 244 556 
L 1241 556 
Q 747 991 519 1456 
Q 294 1922 294 2497 
Q 294 3491 894 4106 
Q 1491 4722 2444 4722 
Q 3391 4722 3994 4106 
Q 4594 3494 4594 2528 
Q 4594 1922 4372 1459 
Q 4150 997 3647 556 
L 4647 556 
z
" transform="scale(0.015625)"/>
      </defs>
      <use xlink:href="#DejaVuSans-34"/>
      <use xlink:href="#DejaVuSans-6b" x="63.623047"/>
      <use xlink:href="#DejaVuSans-3a9" x="121.533203"/>
     </g>
    </g>
   </g>
   <g id="text_3">
    <g clip-path="url(#p9ae86b88be)">
     <!-- + -->
     <g style="fill: #0000ff" transform="translate(88.448495 77.218047)scale(0.125 -0.125)">
      <defs>
       <path id="DejaVuSans-2b" d="M 2944 4013 
L 2944 2272 
L 4684 2272 
L 4684 1741 
L 2944 1741 
L 2944 0 
L 2419 0 
L 2419 1741 
L 678 1741 
L 678 2272 
L 2419 2272 
L 2419 4013 
L 2944 4013 
z
" transform="scale(0.015625)"/>
      </defs>
      <use xlink:href="#DejaVuSans-2b"/>
     </g>
    </g>
   </g>
   <g id="text_4">
    <g clip-path="url(#p9ae86b88be)">
     <!-- - -->
     <g style="fill: #0000ff" transform="translate(152.630917 77.218047)scale(0.125 -0.125)">
      <defs>
       <path id="DejaVuSans-2d" d="M 313 2009 
L 1997 2009 
L 1997 1497 
L 313 1497 
L 313 2009 
z
" transform="scale(0.015625)"/>
      </defs>
      <use xlink:href="#DejaVuSans-2d"/>
     </g>
    </g>
   </g>
   <g id="text_5">
    <g clip-path="url(#p9ae86b88be)">
     <!-- $R_{2}$ -->
     <g transform="translate(240.3733 29.703125)scale(0.125 -0.125)">
      <defs>
       <path id="STIXGeneral-Regular-32" d="M 3034 877 
L 2688 0 
L 186 0 
L 186 77 
L 1325 1286 
Q 1773 1754 1965 2144 
Q 2157 2534 2157 2950 
Q 2157 3379 1920 3616 
Q 1683 3853 1267 3853 
Q 922 3853 720 3673 
Q 518 3494 326 3021 
L 192 3053 
Q 301 3648 630 3987 
Q 960 4326 1523 4326 
Q 2054 4326 2380 4006 
Q 2707 3686 2707 3200 
Q 2707 2477 1888 1613 
L 832 486 
L 2330 486 
Q 2541 486 2665 569 
Q 2790 653 2944 915 
L 3034 877 
z
" transform="scale(0.015625)"/>
      </defs>
      <use xlink:href="#STIXGeneral-Italic-52" transform="translate(0 0.703125)"/>
      <use xlink:href="#STIXGeneral-Regular-32" transform="translate(61.099991 -12.525)scale(0.7)"/>
     </g>
    </g>
    <g clip-path="url(#p9ae86b88be)">
     <!-- 8kΩ -->
     <g transform="translate(234.31373 43.700391)scale(0.125 -0.125)">
      <defs>
       <path id="DejaVuSans-38" d="M 2034 2216 
Q 1584 2216 1326 1975 
Q 1069 1734 1069 1313 
Q 1069 891 1326 650 
Q 1584 409 2034 409 
Q 2484 409 2743 651 
Q 3003 894 3003 1313 
Q 3003 1734 2745 1975 
Q 2488 2216 2034 2216 
z
M 1403 2484 
Q 997 2584 770 2862 
Q 544 3141 544 3541 
Q 544 4100 942 4425 
Q 1341 4750 2034 4750 
Q 2731 4750 3128 4425 
Q 3525 4100 3525 3541 
Q 3525 3141 3298 2862 
Q 3072 2584 2669 2484 
Q 3125 2378 3379 2068 
Q 3634 1759 3634 1313 
Q 3634 634 3220 271 
Q 2806 -91 2034 -91 
Q 1263 -91 848 271 
Q 434 634 434 1313 
Q 434 1759 690 2068 
Q 947 2378 1403 2484 
z
M 1172 3481 
Q 1172 3119 1398 2916 
Q 1625 2713 2034 2713 
Q 2441 2713 2670 2916 
Q 2900 3119 2900 3481 
Q 2900 3844 2670 4047 
Q 2441 4250 2034 4250 
Q 1625 4250 1398 4047 
Q 1172 3844 1172 3481 
z
" transform="scale(0.015625)"/>
      </defs>
      <use xlink:href="#DejaVuSans-38"/>
      <use xlink:href="#DejaVuSans-6b" x="63.623047"/>
      <use xlink:href="#DejaVuSans-3a9" x="121.533203"/>
     </g>
    </g>
   </g>
   <g id="text_6">
    <g clip-path="url(#p9ae86b88be)">
     <!-- + -->
     <g style="fill: #ff0000" transform="translate(210.848495 77.218047)scale(0.125 -0.125)">
      <use xlink:href="#DejaVuSans-2b"/>
     </g>
    </g>
   </g>
   <g id="text_7">
    <g clip-path="url(#p9ae86b88be)">
     <!-- - -->
     <g style="fill: #ff0000" transform="translate(275.030917 77.218047)scale(0.125 -0.125)">
      <use xlink:href="#DejaVuSans-2d"/>
     </g>
    </g>
   </g>
   <g id="text_8">
    <g clip-path="url(#p9ae86b88be)">
     <!-- $R_{3}$ -->
     <g transform="translate(362.7733 29.703125)scale(0.125 -0.125)">
      <defs>
       <path id="STIXGeneral-Regular-33" d="M 390 3264 
L 288 3290 
Q 435 3770 748 4048 
Q 1062 4326 1542 4326 
Q 1990 4326 2265 4083 
Q 2541 3840 2541 3450 
Q 2541 2925 1946 2566 
Q 2298 2413 2477 2227 
Q 2758 1914 2758 1402 
Q 2758 890 2464 506 
Q 2246 211 1840 60 
Q 1434 -90 979 -90 
Q 262 -90 262 275 
Q 262 378 339 442 
Q 416 506 525 506 
Q 685 506 915 339 
Q 1197 141 1466 141 
Q 1818 141 2058 425 
Q 2298 710 2298 1120 
Q 2298 1856 1632 2048 
Q 1434 2112 979 2112 
L 979 2202 
Q 1338 2323 1517 2432 
Q 2035 2726 2035 3290 
Q 2035 3610 1852 3776 
Q 1670 3942 1344 3942 
Q 768 3942 390 3264 
z
" transform="scale(0.015625)"/>
      </defs>
      <use xlink:href="#STIXGeneral-Italic-52" transform="translate(0 0.703125)"/>
      <use xlink:href="#STIXGeneral-Regular-33" transform="translate(61.099991 -12.525)scale(0.7)"/>
     </g>
    </g>
    <g clip-path="url(#p9ae86b88be)">
     <!-- 2kΩ -->
     <g transform="translate(356.71373 43.700391)scale(0.125 -0.125)">
      <defs>
       <path id="DejaVuSans-32" d="M 1228 531 
L 3431 531 
L 3431 0 
L 469 0 
L 469 531 
Q 828 903 1448 1529 
Q 2069 2156 2228 2338 
Q 2531 2678 2651 2914 
Q 2772 3150 2772 3378 
Q 2772 3750 2511 3984 
Q 2250 4219 1831 4219 
Q 1534 4219 1204 4116 
Q 875 4013 500 3803 
L 500 4441 
Q 881 4594 1212 4672 
Q 1544 4750 1819 4750 
Q 2544 4750 2975 4387 
Q 3406 4025 3406 3419 
Q 3406 3131 3298 2873 
Q 3191 2616 2906 2266 
Q 2828 2175 2409 1742 
Q 1991 1309 1228 531 
z
" transform="scale(0.015625)"/>
      </defs>
      <use xlink:href="#DejaVuSans-32"/>
      <use xlink:href="#DejaVuSans-6b" x="63.623047"/>
      <use xlink:href="#DejaVuSans-3a9" x="121.533203"/>
     </g>
    </g>
   </g>
   <g id="text_9">
    <g clip-path="url(#p9ae86b88be)">
     <!-- + -->
     <g style="fill: #ffa500" transform="translate(333.248495 77.218047)scale(0.125 -0.125)">
      <use xlink:href="#DejaVuSans-2b"/>
     </g>
    </g>
   </g>
   <g id="text_10">
    <g clip-path="url(#p9ae86b88be)">
     <!-- - -->
     <g style="fill: #ffa500" transform="translate(397.430917 77.218047)scale(0.125 -0.125)">
      <use xlink:href="#DejaVuSans-2d"/>
     </g>
    </g>
   </g>
   <g id="text_11">
    <g clip-path="url(#p9ae86b88be)">
     <!-- $V_{S2}$ -->
     <g transform="translate(448.6458 114.660586)scale(0.125 -0.125)">
      <use xlink:href="#STIXGeneral-Italic-56" transform="translate(0 0.703125)"/>
      <use xlink:href="#STIXGeneral-Italic-53" transform="translate(61.099991 -12.525)scale(0.7)"/>
      <use xlink:href="#STIXGeneral-Regular-32" transform="translate(96.09998 -12.525)scale(0.7)"/>
     </g>
    </g>
    <g clip-path="url(#p9ae86b88be)">
     <!-- 40V -->
     <g transform="translate(448.6458 128.657852)scale(0.125 -0.125)">
      <use xlink:href="#DejaVuSans-34"/>
      <use xlink:href="#DejaVuSans-30" x="63.623047"/>
      <use xlink:href="#DejaVuSans-56" x="127.246094"/>
     </g>
    </g>
   </g>
   <g id="text_12">
    <g clip-path="url(#p9ae86b88be)">
     <!-- $I_{S1}$ -->
     <g transform="translate(153.6258 114.660586)scale(0.125 -0.125)">
      <defs>
       <path id="STIXGeneral-Italic-49" d="M 2458 4179 
L 2458 4077 
Q 2189 4045 2102 3961 
Q 2016 3878 1933 3584 
L 1165 838 
Q 1069 499 1069 352 
Q 1069 224 1149 179 
Q 1229 134 1510 102 
L 1510 0 
L -51 0 
L -51 102 
Q 218 154 317 237 
Q 416 320 486 582 
L 1254 3405 
Q 1338 3699 1338 3802 
Q 1338 3930 1235 3997 
Q 1133 4064 877 4077 
L 877 4179 
L 2458 4179 
z
" transform="scale(0.015625)"/>
      </defs>
      <use xlink:href="#STIXGeneral-Italic-49" transform="translate(0 0.703125)"/>
      <use xlink:href="#STIXGeneral-Italic-53" transform="translate(33.299988 -12.525)scale(0.7)"/>
      <use xlink:href="#STIXGeneral-Regular-31" transform="translate(68.299977 -12.525)scale(0.7)"/>
     </g>
    </g>
    <g clip-path="url(#p9ae86b88be)">
     <!-- 4mA -->
     <g transform="translate(138.446112 128.657852)scale(0.125 -0.125)">
      <defs>
       <path id="DejaVuSans-6d" d="M 3328 2828 
Q 3544 3216 3844 3400 
Q 4144 3584 4550 3584 
Q 5097 3584 5394 3201 
Q 5691 2819 5691 2113 
L 5691 0 
L 5113 0 
L 5113 2094 
Q 5113 2597 4934 2840 
Q 4756 3084 4391 3084 
Q 3944 3084 3684 2787 
Q 3425 2491 3425 1978 
L 3425 0 
L 2847 0 
L 2847 2094 
Q 2847 2600 2669 2842 
Q 2491 3084 2119 3084 
Q 1678 3084 1418 2786 
Q 1159 2488 1159 1978 
L 1159 0 
L 581 0 
L 581 3500 
L 1159 3500 
L 1159 2956 
Q 1356 3278 1631 3431 
Q 1906 3584 2284 3584 
Q 2666 3584 2933 3390 
Q 3200 3197 3328 2828 
z
" transform="scale(0.015625)"/>
       <path id="DejaVuSans-41" d="M 2188 4044 
L 1331 1722 
L 3047 1722 
L 2188 4044 
z
M 1831 4666 
L 2547 4666 
L 4325 0 
L 3669 0 
L 3244 1197 
L 1141 1197 
L 716 0 
L 50 0 
L 1831 4666 
z
" transform="scale(0.015625)"/>
      </defs>
      <use xlink:href="#DejaVuSans-34"/>
      <use xlink:href="#DejaVuSans-6d" x="63.623047"/>
      <use xlink:href="#DejaVuSans-41" x="161.035156"/>
     </g>
    </g>
   </g>
   <g id="text_13">
    <g clip-path="url(#p9ae86b88be)">
     <!-- $I_{S2}$ -->
     <g transform="translate(276.0258 114.660586)scale(0.125 -0.125)">
      <use xlink:href="#STIXGeneral-Italic-49" transform="translate(0 0.703125)"/>
      <use xlink:href="#STIXGeneral-Italic-53" transform="translate(33.299988 -12.525)scale(0.7)"/>
      <use xlink:href="#STIXGeneral-Regular-32" transform="translate(68.299977 -12.525)scale(0.7)"/>
     </g>
    </g>
    <g clip-path="url(#p9ae86b88be)">
     <!-- 2$I_x$ -->
     <g transform="translate(272.9008 128.657852)scale(0.125 -0.125)">
      <defs>
       <path id="STIXGeneral-Italic-78" d="M 1555 2272 
L 1632 1907 
Q 1971 2426 2179 2624 
Q 2387 2822 2598 2822 
Q 2714 2822 2787 2755 
Q 2861 2688 2861 2585 
Q 2861 2483 2800 2419 
Q 2739 2355 2643 2355 
Q 2586 2355 2490 2409 
Q 2394 2464 2310 2464 
Q 2125 2464 1683 1690 
Q 1683 1606 1734 1402 
L 1939 544 
Q 2003 282 2131 282 
Q 2234 282 2432 538 
Q 2451 563 2476 598 
Q 2502 634 2521 662 
Q 2541 691 2566 717 
L 2662 659 
Q 2387 230 2227 80 
Q 2067 -70 1882 -70 
Q 1728 -70 1645 26 
Q 1562 122 1504 365 
L 1318 1126 
L 755 365 
Q 557 96 432 13 
Q 307 -70 147 -70 
Q 0 -70 -86 0 
Q -173 70 -173 198 
Q -173 294 -112 361 
Q -51 429 45 429 
Q 122 429 250 358 
Q 346 301 416 301 
Q 525 301 742 614 
L 1267 1357 
L 1088 2150 
Q 1024 2432 969 2509 
Q 915 2586 794 2586 
Q 717 2586 544 2541 
L 429 2509 
L 410 2611 
L 480 2637 
Q 992 2822 1229 2822 
Q 1350 2822 1420 2707 
Q 1491 2592 1555 2272 
z
" transform="scale(0.015625)"/>
      </defs>
      <use xlink:href="#DejaVuSans-32" transform="translate(0 0.78125)"/>
      <use xlink:href="#STIXGeneral-Italic-49" transform="translate(63.623047 0.78125)"/>
      <use xlink:href="#STIXGeneral-Italic-78" transform="translate(96.923035 -12.446875)scale(0.7)"/>
     </g>
    </g>
   </g>
   <g id="text_14">
    <g clip-path="url(#p9ae86b88be)">
     <!-- $I_1$ -->
     <g style="fill: #0000ff" transform="translate(119.7233 125.484219)scale(0.125 -0.125)">
      <use xlink:href="#STIXGeneral-Italic-49" transform="translate(0 0.703125)"/>
      <use xlink:href="#STIXGeneral-Regular-31" transform="translate(33.299988 -12.525)scale(0.7)"/>
     </g>
    </g>
   </g>
   <g id="text_15">
    <g clip-path="url(#p9ae86b88be)">
     <!-- $I_2$ -->
     <g style="fill: #ff0000" transform="translate(242.1233 125.484219)scale(0.125 -0.125)">
      <use xlink:href="#STIXGeneral-Italic-49" transform="translate(0 0.703125)"/>
      <use xlink:href="#STIXGeneral-Regular-32" transform="translate(33.299988 -12.525)scale(0.7)"/>
     </g>
    </g>
   </g>
   <g id="text_16">
    <g clip-path="url(#p9ae86b88be)">
     <!-- $I_3$ -->
     <g style="fill: #ffa500" transform="translate(364.5233 125.484219)scale(0.125 -0.125)">
      <use xlink:href="#STIXGeneral-Italic-49" transform="translate(0 0.703125)"/>
      <use xlink:href="#STIXGeneral-Regular-33" transform="translate(33.299988 -12.525)scale(0.7)"/>
     </g>
    </g>
   </g>
   <g id="text_17">
    <g clip-path="url(#p9ae86b88be)">
     <!-- $V_{S1}$ -->
     <g transform="translate(27.7258 114.660586)scale(0.125 -0.125)">
      <use xlink:href="#STIXGeneral-Italic-56" transform="translate(0 0.703125)"/>
      <use xlink:href="#STIXGeneral-Italic-53" transform="translate(61.099991 -12.525)scale(0.7)"/>
      <use xlink:href="#STIXGeneral-Regular-31" transform="translate(96.09998 -12.525)scale(0.7)"/>
     </g>
    </g>
    <g clip-path="url(#p9ae86b88be)">
     <!-- 100V -->
     <g transform="translate(12.315644 128.657852)scale(0.125 -0.125)">
      <use xlink:href="#DejaVuSans-31"/>
      <use xlink:href="#DejaVuSans-30" x="63.623047"/>
      <use xlink:href="#DejaVuSans-30" x="127.246094"/>
      <use xlink:href="#DejaVuSans-56" x="190.869141"/>
     </g>
    </g>
   </g>
   <g id="text_18">
    <g clip-path="url(#p9ae86b88be)">
     <!-- $R_{1}$ -->
     <g transform="translate(117.9733 29.703125)scale(0.125 -0.125)">
      <use xlink:href="#STIXGeneral-Italic-52" transform="translate(0 0.703125)"/>
      <use xlink:href="#STIXGeneral-Regular-31" transform="translate(61.099991 -12.525)scale(0.7)"/>
     </g>
    </g>
    <g clip-path="url(#p9ae86b88be)">
     <!-- 4kΩ -->
     <g transform="translate(111.91373 43.700391)scale(0.125 -0.125)">
      <use xlink:href="#DejaVuSans-34"/>
      <use xlink:href="#DejaVuSans-6b" x="63.623047"/>
      <use xlink:href="#DejaVuSans-3a9" x="121.533203"/>
     </g>
    </g>
   </g>
   <g id="text_19">
    <g clip-path="url(#p9ae86b88be)">
     <!-- + -->
     <g style="fill: #0000ff" transform="translate(88.448495 77.218047)scale(0.125 -0.125)">
      <use xlink:href="#DejaVuSans-2b"/>
     </g>
    </g>
   </g>
   <g id="text_20">
    <g clip-path="url(#p9ae86b88be)">
     <!-- - -->
     <g style="fill: #0000ff" transform="translate(152.630917 77.218047)scale(0.125 -0.125)">
      <use xlink:href="#DejaVuSans-2d"/>
     </g>
    </g>
   </g>
   <g id="text_21">
    <g clip-path="url(#p9ae86b88be)">
     <!-- $R_{2}$ -->
     <g transform="translate(240.3733 29.703125)scale(0.125 -0.125)">
      <use xlink:href="#STIXGeneral-Italic-52" transform="translate(0 0.703125)"/>
      <use xlink:href="#STIXGeneral-Regular-32" transform="translate(61.099991 -12.525)scale(0.7)"/>
     </g>
    </g>
    <g clip-path="url(#p9ae86b88be)">
     <!-- 8kΩ -->
     <g transform="translate(234.31373 43.700391)scale(0.125 -0.125)">
      <use xlink:href="#DejaVuSans-38"/>
      <use xlink:href="#DejaVuSans-6b" x="63.623047"/>
      <use xlink:href="#DejaVuSans-3a9" x="121.533203"/>
     </g>
    </g>
   </g>
   <g id="text_22">
    <g clip-path="url(#p9ae86b88be)">
     <!-- + -->
     <g style="fill: #ff0000" transform="translate(210.848495 77.218047)scale(0.125 -0.125)">
      <use xlink:href="#DejaVuSans-2b"/>
     </g>
    </g>
   </g>
   <g id="text_23">
    <g clip-path="url(#p9ae86b88be)">
     <!-- - -->
     <g style="fill: #ff0000" transform="translate(275.030917 77.218047)scale(0.125 -0.125)">
      <use xlink:href="#DejaVuSans-2d"/>
     </g>
    </g>
   </g>
   <g id="text_24">
    <g clip-path="url(#p9ae86b88be)">
     <!-- $R_{3}$ -->
     <g transform="translate(362.7733 29.703125)scale(0.125 -0.125)">
      <use xlink:href="#STIXGeneral-Italic-52" transform="translate(0 0.703125)"/>
      <use xlink:href="#STIXGeneral-Regular-33" transform="translate(61.099991 -12.525)scale(0.7)"/>
     </g>
    </g>
    <g clip-path="url(#p9ae86b88be)">
     <!-- 2kΩ -->
     <g transform="translate(356.71373 43.700391)scale(0.125 -0.125)">
      <use xlink:href="#DejaVuSans-32"/>
      <use xlink:href="#DejaVuSans-6b" x="63.623047"/>
      <use xlink:href="#DejaVuSans-3a9" x="121.533203"/>
     </g>
    </g>
   </g>
   <g id="text_25">
    <g clip-path="url(#p9ae86b88be)">
     <!-- + -->
     <g style="fill: #ffa500" transform="translate(333.248495 77.218047)scale(0.125 -0.125)">
      <use xlink:href="#DejaVuSans-2b"/>
     </g>
    </g>
   </g>
   <g id="text_26">
    <g clip-path="url(#p9ae86b88be)">
     <!-- - -->
     <g style="fill: #ffa500" transform="translate(397.430917 77.218047)scale(0.125 -0.125)">
      <use xlink:href="#DejaVuSans-2d"/>
     </g>
    </g>
   </g>
   <g id="text_27">
    <g clip-path="url(#p9ae86b88be)">
     <!-- $V_{S2}$ -->
     <g transform="translate(448.6458 114.660586)scale(0.125 -0.125)">
      <use xlink:href="#STIXGeneral-Italic-56" transform="translate(0 0.703125)"/>
      <use xlink:href="#STIXGeneral-Italic-53" transform="translate(61.099991 -12.525)scale(0.7)"/>
      <use xlink:href="#STIXGeneral-Regular-32" transform="translate(96.09998 -12.525)scale(0.7)"/>
     </g>
    </g>
    <g clip-path="url(#p9ae86b88be)">
     <!-- 40V -->
     <g transform="translate(448.6458 128.657852)scale(0.125 -0.125)">
      <use xlink:href="#DejaVuSans-34"/>
      <use xlink:href="#DejaVuSans-30" x="63.623047"/>
      <use xlink:href="#DejaVuSans-56" x="127.246094"/>
     </g>
    </g>
   </g>
   <g id="text_28">
    <g clip-path="url(#p9ae86b88be)">
     <!-- $I_{S1}$ -->
     <g transform="translate(153.6258 114.660586)scale(0.125 -0.125)">
      <use xlink:href="#STIXGeneral-Italic-49" transform="translate(0 0.703125)"/>
      <use xlink:href="#STIXGeneral-Italic-53" transform="translate(33.299988 -12.525)scale(0.7)"/>
      <use xlink:href="#STIXGeneral-Regular-31" transform="translate(68.299977 -12.525)scale(0.7)"/>
     </g>
    </g>
    <g clip-path="url(#p9ae86b88be)">
     <!-- 4mA -->
     <g transform="translate(138.446112 128.657852)scale(0.125 -0.125)">
      <use xlink:href="#DejaVuSans-34"/>
      <use xlink:href="#DejaVuSans-6d" x="63.623047"/>
      <use xlink:href="#DejaVuSans-41" x="161.035156"/>
     </g>
    </g>
   </g>
   <g id="text_29">
    <g clip-path="url(#p9ae86b88be)">
     <!-- $I_{S2}$ -->
     <g transform="translate(276.0258 114.660586)scale(0.125 -0.125)">
      <use xlink:href="#STIXGeneral-Italic-49" transform="translate(0 0.703125)"/>
      <use xlink:href="#STIXGeneral-Italic-53" transform="translate(33.299988 -12.525)scale(0.7)"/>
      <use xlink:href="#STIXGeneral-Regular-32" transform="translate(68.299977 -12.525)scale(0.7)"/>
     </g>
    </g>
    <g clip-path="url(#p9ae86b88be)">
     <!-- 2$I_x$ -->
     <g transform="translate(272.9008 128.657852)scale(0.125 -0.125)">
      <use xlink:href="#DejaVuSans-32" transform="translate(0 0.78125)"/>
      <use xlink:href="#STIXGeneral-Italic-49" transform="translate(63.623047 0.78125)"/>
      <use xlink:href="#STIXGeneral-Italic-78" transform="translate(96.923035 -12.446875)scale(0.7)"/>
     </g>
    </g>
   </g>
   <g id="text_30">
    <g clip-path="url(#p9ae86b88be)">
     <!-- $I_1$ -->
     <g style="fill: #0000ff" transform="translate(119.7233 125.484219)scale(0.125 -0.125)">
      <use xlink:href="#STIXGeneral-Italic-49" transform="translate(0 0.703125)"/>
      <use xlink:href="#STIXGeneral-Regular-31" transform="translate(33.299988 -12.525)scale(0.7)"/>
     </g>
    </g>
   </g>
   <g id="text_31">
    <g clip-path="url(#p9ae86b88be)">
     <!-- $I_2$ -->
     <g style="fill: #ff0000" transform="translate(242.1233 125.484219)scale(0.125 -0.125)">
      <use xlink:href="#STIXGeneral-Italic-49" transform="translate(0 0.703125)"/>
      <use xlink:href="#STIXGeneral-Regular-32" transform="translate(33.299988 -12.525)scale(0.7)"/>
     </g>
    </g>
   </g>
   <g id="text_32">
    <g clip-path="url(#p9ae86b88be)">
     <!-- $I_3$ -->
     <g style="fill: #ffa500" transform="translate(364.5233 125.484219)scale(0.125 -0.125)">
      <use xlink:href="#STIXGeneral-Italic-49" transform="translate(0 0.703125)"/>
      <use xlink:href="#STIXGeneral-Regular-33" transform="translate(33.299988 -12.525)scale(0.7)"/>
     </g>
    </g>
   </g>
   <g id="line2d_43">
    <path d="M 90.6258 57.01 
L 90.6258 57.01 
" clip-path="url(#p9ae86b88be)" style="fill: none; stroke: #000000; stroke-width: 2; stroke-linecap: round"/>
   </g>
   <g id="patch_26">
    <path d="M 90.6258 52.42 
L 99.8058 57.01 
L 90.6258 61.6 
z
" clip-path="url(#p9ae86b88be)"/>
   </g>
   <g id="text_33">
    <g clip-path="url(#p9ae86b88be)">
     <!-- $I_x$ -->
     <g transform="translate(90.9033 45.230391)scale(0.125 -0.125)">
      <use xlink:href="#STIXGeneral-Italic-49" transform="translate(0 0.703125)"/>
      <use xlink:href="#STIXGeneral-Italic-78" transform="translate(33.299988 -12.525)scale(0.7)"/>
     </g>
    </g>
   </g>
   <g id="line2d_44">
    <path d="M 90.6258 57.01 
L 90.6258 57.01 
" clip-path="url(#p9ae86b88be)" style="fill: none; stroke: #000000; stroke-width: 2; stroke-linecap: round"/>
   </g>
   <g id="patch_27">
    <path d="M 90.6258 52.42 
L 99.8058 57.01 
L 90.6258 61.6 
z
" clip-path="url(#p9ae86b88be)"/>
   </g>
   <g id="text_34">
    <g clip-path="url(#p9ae86b88be)">
     <!-- $I_x$ -->
     <g transform="translate(90.9033 45.230391)scale(0.125 -0.125)">
      <use xlink:href="#STIXGeneral-Italic-49" transform="translate(0 0.703125)"/>
      <use xlink:href="#STIXGeneral-Italic-78" transform="translate(33.299988 -12.525)scale(0.7)"/>
     </g>
    </g>
   </g>
  </g>
 </g>
 <defs>
  <clipPath id="p9ae86b88be">
   <rect x="7.2" y="7.2" width="482.1642" height="195.16"/>
  </clipPath>
 </defs>
</svg>
