<?xml version="1.0" encoding="utf-8" standalone="no"?>
<!DOCTYPE svg PUBLIC "-//W3C//DTD SVG 1.1//EN"
  "http://www.w3.org/Graphics/SVG/1.1/DTD/svg11.dtd">
<svg xmlns:xlink="http://www.w3.org/1999/xlink" width="367.030859pt" height="222.114922pt" viewBox="0 0 367.030859 222.114922" xmlns="http://www.w3.org/2000/svg" version="1.1">
 <metadata>
  <rdf:RDF xmlns:dc="http://purl.org/dc/elements/1.1/" xmlns:cc="http://creativecommons.org/ns#" xmlns:rdf="http://www.w3.org/1999/02/22-rdf-syntax-ns#">
   <cc:Work>
    <dc:type rdf:resource="http://purl.org/dc/dcmitype/StillImage"/>
    <dc:date>2024-03-15T17:20:06.794081</dc:date>
    <dc:format>image/svg+xml</dc:format>
    <dc:creator>
     <cc:Agent>
      <dc:title>Matplotlib v3.8.2, https://matplotlib.org/</dc:title>
     </cc:Agent>
    </dc:creator>
   </cc:Work>
  </rdf:RDF>
 </metadata>
 <defs>
  <style type="text/css">*{stroke-linejoin: round; stroke-linecap: butt}</style>
 </defs>
 <g id="figure_1">
  <g id="patch_1">
   <path d="M 0 222.114922 
L 367.030859 222.114922 
L 367.030859 0 
L 0 0 
L 0 222.114922 
z
" style="fill: none"/>
  </g>
  <g id="axes_1">
   <g id="patch_2">
    <path d="M 177.705859 168.294922 
C 182.479515 168.294922 187.058297 166.398328 190.433781 163.022844 
C 193.809266 159.64736 195.705859 155.068578 195.705859 150.294922 
C 195.705859 145.521266 193.809266 140.942484 190.433781 137.567 
C 187.058297 134.191515 182.479515 132.294922 177.705859 132.294922 
C 172.932204 132.294922 168.353422 134.191515 164.977937 137.567 
C 161.602453 140.942484 159.705859 145.521266 159.705859 150.294922 
C 159.705859 155.068578 161.602453 159.64736 164.977937 163.022844 
C 168.353422 166.398328 172.932204 168.294922 177.705859 168.294922 
L 177.705859 168.294922 
z
" clip-path="url(#pe90d40bc14)" style="fill: none; stroke: #000000; stroke-width: 2; stroke-linejoin: miter"/>
   </g>
   <g id="patch_3">
    <path d="M 128.856351 102.584773 
C 127.347211 99.651204 125.438436 97.023985 123.205153 94.806521 
C 120.971869 92.589056 118.443767 90.810825 115.720347 89.541816 
C 112.996928 88.272806 110.114396 87.529889 107.186206 87.342303 
C 104.258015 87.154718 101.323092 87.524958 98.496951 88.438452 
C 95.67081 89.351945 92.991022 90.796549 90.563059 92.715405 
C 88.135095 94.634261 85.991235 97.001859 84.215856 99.725016 
C 82.440477 102.448173 81.057181 105.490686 80.120413 108.732806 
C 79.183646 111.974926 78.705859 115.373553 78.705859 118.794922 
C 78.705859 122.216291 79.183646 125.614918 80.120413 128.857038 
C 81.057181 132.099158 82.440477 135.141671 84.215856 137.864828 
C 85.991235 140.587984 88.135095 142.955583 90.563059 144.874439 
C 92.991022 146.793295 95.67081 148.237898 98.496951 149.151392 
C 101.323092 150.064886 104.258015 150.435126 107.186206 150.247541 
C 110.114396 150.059955 112.996928 149.317037 115.720347 148.048028 
C 118.443767 146.779018 120.971869 145.000787 123.205153 142.783323 
C 125.438436 140.565859 127.347211 137.93864 128.856351 135.005071 
" clip-path="url(#pe90d40bc14)" style="fill: none; stroke: #0000ff; stroke-width: 2; stroke-linejoin: miter"/>
   </g>
   <g id="patch_4">
    <path d="M 133.673081 110.610277 
L 126.726561 104.282887 
L 129.026176 102.902709 
L 128.840918 102.594036 
L 128.871785 102.57551 
L 129.057044 102.884183 
L 131.356659 101.504005 
z
" clip-path="url(#pe90d40bc14)" style="fill: #0000ff; stroke: #0000ff; stroke-linejoin: miter"/>
   </g>
   <g id="patch_5">
    <path d="M 272.856351 102.584773 
C 271.347211 99.651204 269.438436 97.023985 267.205153 94.806521 
C 264.971869 92.589056 262.443767 90.810825 259.720347 89.541816 
C 256.996928 88.272806 254.114396 87.529889 251.186206 87.342303 
C 248.258015 87.154718 245.323092 87.524958 242.496951 88.438452 
C 239.67081 89.351945 236.991022 90.796549 234.563059 92.715405 
C 232.135095 94.634261 229.991235 97.001859 228.215856 99.725016 
C 226.440477 102.448173 225.057181 105.490686 224.120413 108.732806 
C 223.183646 111.974926 222.705859 115.373553 222.705859 118.794922 
C 222.705859 122.216291 223.183646 125.614918 224.120413 128.857038 
C 225.057181 132.099158 226.440477 135.141671 228.215856 137.864828 
C 229.991235 140.587984 232.135095 142.955583 234.563059 144.874439 
C 236.991022 146.793295 239.67081 148.237898 242.496951 149.151392 
C 245.323092 150.064886 248.258015 150.435126 251.186206 150.247541 
C 254.114396 150.059955 256.996928 149.317037 259.720347 148.048028 
C 262.443767 146.779018 264.971869 145.000787 267.205153 142.783323 
C 269.438436 140.565859 271.347211 137.93864 272.856351 135.005071 
" clip-path="url(#pe90d40bc14)" style="fill: none; stroke: #ff0000; stroke-width: 2; stroke-linejoin: miter"/>
   </g>
   <g id="patch_6">
    <path d="M 277.673081 110.610277 
L 270.726561 104.282887 
L 273.026176 102.902709 
L 272.840918 102.594036 
L 272.871785 102.57551 
L 273.057044 102.884183 
L 275.356659 101.504005 
z
" clip-path="url(#pe90d40bc14)" style="fill: #ff0000; stroke: #ff0000; stroke-linejoin: miter"/>
   </g>
   <g id="line2d_1">
    <path d="M 33.705859 186.294922 
L 33.705859 132.294922 
L 24.705859 129.294922 
L 42.705859 123.294922 
L 24.705859 117.294922 
L 42.705859 111.294922 
L 24.705859 105.294922 
L 42.705859 99.294922 
L 33.705859 96.294922 
L 33.705859 42.294922 
" clip-path="url(#pe90d40bc14)" style="fill: none; stroke: #000000; stroke-width: 2; stroke-linecap: round"/>
   </g>
   <g id="line2d_2">
    <path d="M 33.705859 42.294922 
L 87.705859 42.294922 
L 90.705859 33.294922 
L 96.705859 51.294922 
L 102.705859 33.294922 
L 108.705859 51.294922 
L 114.705859 33.294922 
L 120.705859 51.294922 
L 123.705859 42.294922 
L 177.705859 42.294922 
" clip-path="url(#pe90d40bc14)" style="fill: none; stroke: #000000; stroke-width: 2; stroke-linecap: round"/>
   </g>
   <g id="line2d_3">
    <path d="M 177.705859 42.294922 
L 231.705859 42.294922 
L 234.705859 33.294922 
L 240.705859 51.294922 
L 246.705859 33.294922 
L 252.705859 51.294922 
L 258.705859 33.294922 
L 264.705859 51.294922 
L 267.705859 42.294922 
L 321.705859 42.294922 
" clip-path="url(#pe90d40bc14)" style="fill: none; stroke: #000000; stroke-width: 2; stroke-linecap: round"/>
   </g>
   <g id="line2d_4">
    <path d="M 321.705859 42.294922 
L 321.705859 60.294922 
L 330.705859 63.294922 
L 312.705859 69.294922 
L 330.705859 75.294922 
L 312.705859 81.294922 
L 330.705859 87.294922 
L 312.705859 93.294922 
L 321.705859 96.294922 
L 321.705859 114.294922 
" clip-path="url(#pe90d40bc14)" style="fill: none; stroke: #000000; stroke-width: 2; stroke-linecap: round"/>
   </g>
   <g id="line2d_5">
    <path d="M 321.705859 114.294922 
L 321.705859 132.294922 
L 339.705859 150.294922 
L 321.705859 168.294922 
L 303.705859 150.294922 
L 321.705859 132.294922 
M 321.705859 168.294922 
L 321.705859 186.294922 
" clip-path="url(#pe90d40bc14)" style="fill: none; stroke: #000000; stroke-width: 2; stroke-linecap: round"/>
   </g>
   <g id="line2d_6">
    <path d="M 318.105859 141.294922 
L 325.305859 141.294922 
" clip-path="url(#pe90d40bc14)" style="fill: none; stroke: #000000; stroke-width: 2; stroke-linecap: round"/>
   </g>
   <g id="line2d_7">
    <path d="M 321.705859 155.694922 
L 321.705859 162.894922 
" clip-path="url(#pe90d40bc14)" style="fill: none; stroke: #000000; stroke-width: 2; stroke-linecap: round"/>
   </g>
   <g id="line2d_8">
    <path d="M 318.105859 159.294922 
L 325.305859 159.294922 
" clip-path="url(#pe90d40bc14)" style="fill: none; stroke: #000000; stroke-width: 2; stroke-linecap: round"/>
   </g>
   <g id="line2d_9">
    <path d="M 321.705859 186.294922 
L 177.705859 186.294922 
L 33.705859 186.294922 
" clip-path="url(#pe90d40bc14)" style="fill: none; stroke: #000000; stroke-width: 2; stroke-linecap: round"/>
   </g>
   <g id="line2d_10">
    <path d="M 33.705859 186.294922 
L 33.705859 200.694922 
L 24.705859 200.694922 
L 33.705859 209.694922 
L 42.705859 200.694922 
L 33.705859 200.694922 
" clip-path="url(#pe90d40bc14)" style="fill: none; stroke: #000000; stroke-width: 2; stroke-linecap: round"/>
   </g>
   <g id="line2d_11">
    <path d="M 177.705859 42.294922 
L 177.705859 60.294922 
L 186.705859 63.294922 
L 168.705859 69.294922 
L 186.705859 75.294922 
L 168.705859 81.294922 
L 186.705859 87.294922 
L 168.705859 93.294922 
L 177.705859 96.294922 
L 177.705859 114.294922 
" clip-path="url(#pe90d40bc14)" style="fill: none; stroke: #000000; stroke-width: 2; stroke-linecap: round"/>
   </g>
   <g id="line2d_12">
    <path d="M 177.705859 114.294922 
L 177.705859 132.294922 
L 177.705859 132.294922 
M 177.705859 168.294922 
L 177.705859 168.294922 
L 177.705859 186.294922 
" clip-path="url(#pe90d40bc14)" style="fill: none; stroke: #000000; stroke-width: 2; stroke-linecap: round"/>
   </g>
   <g id="line2d_13">
    <path d="M 181.305859 159.294922 
L 174.105859 159.294922 
" clip-path="url(#pe90d40bc14)" style="fill: none; stroke: #000000; stroke-width: 2; stroke-linecap: round"/>
   </g>
   <g id="line2d_14">
    <path d="M 177.705859 137.694922 
L 177.705859 144.894922 
" clip-path="url(#pe90d40bc14)" style="fill: none; stroke: #000000; stroke-width: 2; stroke-linecap: round"/>
   </g>
   <g id="line2d_15">
    <path d="M 181.305859 141.294922 
L 174.105859 141.294922 
" clip-path="url(#pe90d40bc14)" style="fill: none; stroke: #000000; stroke-width: 2; stroke-linecap: round"/>
   </g>
   <g id="text_1">
    <!-- $R_1$ -->
    <g transform="translate(8.480859 110.745508) scale(0.125 -0.125)">
     <defs>
      <path id="STIXGeneral-Italic-52" d="M 845 4179 
L 2458 4179 
Q 3078 4179 3420 3936 
Q 3763 3693 3763 3277 
Q 3763 2778 3341 2458 
Q 3091 2266 2502 2131 
L 3072 627 
Q 3181 333 3299 217 
Q 3418 102 3629 102 
L 3629 0 
L 2688 0 
L 1901 2074 
L 1478 2106 
L 1126 806 
Q 1043 512 1043 403 
Q 1043 256 1126 192 
Q 1210 128 1472 102 
L 1472 0 
L -83 0 
L -83 102 
Q 173 134 278 243 
Q 384 352 461 646 
L 1222 3405 
Q 1299 3699 1299 3808 
Q 1299 3923 1210 3987 
Q 1133 4038 845 4077 
L 845 4179 
z
M 1958 3795 
L 1555 2342 
Q 1754 2310 1882 2310 
Q 2451 2310 2771 2566 
Q 3091 2822 3091 3270 
Q 3091 3603 2892 3795 
Q 2694 3987 2323 3987 
Q 2010 3987 1958 3795 
z
" transform="scale(0.015625)"/>
      <path id="STIXGeneral-Regular-31" d="M 2522 0 
L 755 0 
L 755 96 
Q 1107 115 1235 227 
Q 1363 339 1363 608 
L 1363 3482 
Q 1363 3795 1171 3795 
Q 1082 3795 883 3718 
L 710 3654 
L 710 3744 
L 1856 4326 
L 1914 4307 
L 1914 486 
Q 1914 275 2042 185 
Q 2170 96 2522 96 
L 2522 0 
z
" transform="scale(0.015625)"/>
     </defs>
     <use xlink:href="#STIXGeneral-Italic-52" transform="translate(0 0.703125)"/>
     <use xlink:href="#STIXGeneral-Regular-31" transform="translate(61.099991 -12.525) scale(0.7)"/>
    </g>
    <!-- 6Ω -->
    <g transform="translate(3.6 124.742773) scale(0.125 -0.125)">
     <defs>
      <path id="DejaVuSans-36" d="M 2113 2584 
Q 1688 2584 1439 2293 
Q 1191 2003 1191 1497 
Q 1191 994 1439 701 
Q 1688 409 2113 409 
Q 2538 409 2786 701 
Q 3034 994 3034 1497 
Q 3034 2003 2786 2293 
Q 2538 2584 2113 2584 
z
M 3366 4563 
L 3366 3988 
Q 3128 4100 2886 4159 
Q 2644 4219 2406 4219 
Q 1781 4219 1451 3797 
Q 1122 3375 1075 2522 
Q 1259 2794 1537 2939 
Q 1816 3084 2150 3084 
Q 2853 3084 3261 2657 
Q 3669 2231 3669 1497 
Q 3669 778 3244 343 
Q 2819 -91 2113 -91 
Q 1303 -91 875 529 
Q 447 1150 447 2328 
Q 447 3434 972 4092 
Q 1497 4750 2381 4750 
Q 2619 4750 2861 4703 
Q 3103 4656 3366 4563 
z
" transform="scale(0.015625)"/>
      <path id="DejaVuSans-3a9" d="M 4647 556 
L 4647 0 
L 2772 0 
L 2772 556 
Q 3325 859 3634 1378 
Q 3944 1897 3944 2528 
Q 3944 3278 3531 3731 
Q 3119 4184 2444 4184 
Q 1769 4184 1355 3729 
Q 941 3275 941 2528 
Q 941 1897 1250 1378 
Q 1563 859 2119 556 
L 2119 0 
L 244 0 
L 244 556 
L 1241 556 
Q 747 991 519 1456 
Q 294 1922 294 2497 
Q 294 3491 894 4106 
Q 1491 4722 2444 4722 
Q 3391 4722 3994 4106 
Q 4594 3494 4594 2528 
Q 4594 1922 4372 1459 
Q 4150 997 3647 556 
L 4647 556 
z
" transform="scale(0.015625)"/>
     </defs>
     <use xlink:href="#DejaVuSans-36"/>
     <use xlink:href="#DejaVuSans-3a9" x="63.623047"/>
    </g>
   </g>
   <g id="text_2">
    <!-- $R_2$ -->
    <g transform="translate(99.393359 13.098047) scale(0.125 -0.125)">
     <defs>
      <path id="STIXGeneral-Regular-32" d="M 3034 877 
L 2688 0 
L 186 0 
L 186 77 
L 1325 1286 
Q 1773 1754 1965 2144 
Q 2157 2534 2157 2950 
Q 2157 3379 1920 3616 
Q 1683 3853 1267 3853 
Q 922 3853 720 3673 
Q 518 3494 326 3021 
L 192 3053 
Q 301 3648 630 3987 
Q 960 4326 1523 4326 
Q 2054 4326 2380 4006 
Q 2707 3686 2707 3200 
Q 2707 2477 1888 1613 
L 832 486 
L 2330 486 
Q 2541 486 2665 569 
Q 2790 653 2944 915 
L 3034 877 
z
" transform="scale(0.015625)"/>
     </defs>
     <use xlink:href="#STIXGeneral-Italic-52" transform="translate(0 0.703125)"/>
     <use xlink:href="#STIXGeneral-Regular-32" transform="translate(61.099991 -12.525) scale(0.7)"/>
    </g>
    <!-- 2Ω -->
    <g transform="translate(96.95293 27.095312) scale(0.125 -0.125)">
     <defs>
      <path id="DejaVuSans-32" d="M 1228 531 
L 3431 531 
L 3431 0 
L 469 0 
L 469 531 
Q 828 903 1448 1529 
Q 2069 2156 2228 2338 
Q 2531 2678 2651 2914 
Q 2772 3150 2772 3378 
Q 2772 3750 2511 3984 
Q 2250 4219 1831 4219 
Q 1534 4219 1204 4116 
Q 875 4013 500 3803 
L 500 4441 
Q 881 4594 1212 4672 
Q 1544 4750 1819 4750 
Q 2544 4750 2975 4387 
Q 3406 4025 3406 3419 
Q 3406 3131 3298 2873 
Q 3191 2616 2906 2266 
Q 2828 2175 2409 1742 
Q 1991 1309 1228 531 
z
" transform="scale(0.015625)"/>
     </defs>
     <use xlink:href="#DejaVuSans-32"/>
     <use xlink:href="#DejaVuSans-3a9" x="63.623047"/>
    </g>
   </g>
   <g id="text_3">
    <!-- + -->
    <g transform="translate(64.468555 64.392969) scale(0.125 -0.125)">
     <defs>
      <path id="DejaVuSans-2b" d="M 2944 4013 
L 2944 2272 
L 4684 2272 
L 4684 1741 
L 2944 1741 
L 2944 0 
L 2419 0 
L 2419 1741 
L 678 1741 
L 678 2272 
L 2419 2272 
L 2419 4013 
L 2944 4013 
z
" transform="scale(0.015625)"/>
     </defs>
     <use xlink:href="#DejaVuSans-2b"/>
    </g>
   </g>
   <g id="text_4">
    <!-- $V_x$ -->
    <g transform="translate(99.643359 64.392969) scale(0.125 -0.125)">
     <defs>
      <path id="STIXGeneral-Italic-56" d="M 4403 4179 
L 4403 4077 
Q 4198 4070 4045 3821 
L 1658 -115 
L 1536 -115 
L 1011 3104 
Q 902 3776 828 3910 
Q 755 4045 486 4077 
L 486 4179 
L 2022 4179 
L 2022 4077 
Q 1722 4045 1629 3981 
Q 1536 3917 1536 3750 
Q 1536 3686 1542 3654 
L 1958 819 
L 3302 3123 
Q 3616 3661 3616 3859 
Q 3616 4032 3219 4077 
L 3219 4179 
L 4403 4179 
z
" transform="scale(0.015625)"/>
      <path id="STIXGeneral-Italic-78" d="M 1555 2272 
L 1632 1907 
Q 1971 2426 2179 2624 
Q 2387 2822 2598 2822 
Q 2714 2822 2787 2755 
Q 2861 2688 2861 2585 
Q 2861 2483 2800 2419 
Q 2739 2355 2643 2355 
Q 2586 2355 2490 2409 
Q 2394 2464 2310 2464 
Q 2125 2464 1683 1690 
Q 1683 1606 1734 1402 
L 1939 544 
Q 2003 282 2131 282 
Q 2234 282 2432 538 
Q 2451 563 2476 598 
Q 2502 634 2521 662 
Q 2541 691 2566 717 
L 2662 659 
Q 2387 230 2227 80 
Q 2067 -70 1882 -70 
Q 1728 -70 1645 26 
Q 1562 122 1504 365 
L 1318 1126 
L 755 365 
Q 557 96 432 13 
Q 307 -70 147 -70 
Q 0 -70 -86 0 
Q -173 70 -173 198 
Q -173 294 -112 361 
Q -51 429 45 429 
Q 122 429 250 358 
Q 346 301 416 301 
Q 525 301 742 614 
L 1267 1357 
L 1088 2150 
Q 1024 2432 969 2509 
Q 915 2586 794 2586 
Q 717 2586 544 2541 
L 429 2509 
L 410 2611 
L 480 2637 
Q 992 2822 1229 2822 
Q 1350 2822 1420 2707 
Q 1491 2592 1555 2272 
z
" transform="scale(0.015625)"/>
     </defs>
     <use xlink:href="#STIXGeneral-Italic-56" transform="translate(0 0.703125)"/>
     <use xlink:href="#STIXGeneral-Italic-78" transform="translate(61.099991 -12.525) scale(0.7)"/>
    </g>
   </g>
   <g id="text_5">
    <!-- - -->
    <g transform="translate(139.450977 64.392969) scale(0.125 -0.125)">
     <defs>
      <path id="DejaVuSans-2d" d="M 313 2009 
L 1997 2009 
L 1997 1497 
L 313 1497 
L 313 2009 
z
" transform="scale(0.015625)"/>
     </defs>
     <use xlink:href="#DejaVuSans-2d"/>
    </g>
   </g>
   <g id="text_6">
    <!-- $R_4$ -->
    <g transform="translate(243.393359 13.098047) scale(0.125 -0.125)">
     <defs>
      <path id="STIXGeneral-Regular-34" d="M 3027 1069 
L 2368 1069 
L 2368 0 
L 1869 0 
L 1869 1069 
L 77 1069 
L 77 1478 
L 2086 4326 
L 2368 4326 
L 2368 1478 
L 3027 1478 
L 3027 1069 
z
M 1869 1478 
L 1869 3674 
L 333 1478 
L 1869 1478 
z
" transform="scale(0.015625)"/>
     </defs>
     <use xlink:href="#STIXGeneral-Italic-52" transform="translate(0 0.703125)"/>
     <use xlink:href="#STIXGeneral-Regular-34" transform="translate(61.099991 -12.525) scale(0.7)"/>
    </g>
    <!-- 8Ω -->
    <g transform="translate(240.95293 27.095312) scale(0.125 -0.125)">
     <defs>
      <path id="DejaVuSans-38" d="M 2034 2216 
Q 1584 2216 1326 1975 
Q 1069 1734 1069 1313 
Q 1069 891 1326 650 
Q 1584 409 2034 409 
Q 2484 409 2743 651 
Q 3003 894 3003 1313 
Q 3003 1734 2745 1975 
Q 2488 2216 2034 2216 
z
M 1403 2484 
Q 997 2584 770 2862 
Q 544 3141 544 3541 
Q 544 4100 942 4425 
Q 1341 4750 2034 4750 
Q 2731 4750 3128 4425 
Q 3525 4100 3525 3541 
Q 3525 3141 3298 2862 
Q 3072 2584 2669 2484 
Q 3125 2378 3379 2068 
Q 3634 1759 3634 1313 
Q 3634 634 3220 271 
Q 2806 -91 2034 -91 
Q 1263 -91 848 271 
Q 434 634 434 1313 
Q 434 1759 690 2068 
Q 947 2378 1403 2484 
z
M 1172 3481 
Q 1172 3119 1398 2916 
Q 1625 2713 2034 2713 
Q 2441 2713 2670 2916 
Q 2900 3119 2900 3481 
Q 2900 3844 2670 4047 
Q 2441 4250 2034 4250 
Q 1625 4250 1398 4047 
Q 1172 3844 1172 3481 
z
" transform="scale(0.015625)"/>
     </defs>
     <use xlink:href="#DejaVuSans-38"/>
     <use xlink:href="#DejaVuSans-3a9" x="63.623047"/>
    </g>
   </g>
   <g id="text_7">
    <!-- $R_5$ -->
    <g transform="translate(334.305859 74.745508) scale(0.125 -0.125)">
     <defs>
      <path id="STIXGeneral-Regular-35" d="M 2803 4358 
L 2573 3814 
Q 2534 3731 2400 3731 
L 1158 3731 
L 902 3187 
Q 1606 3053 1920 2896 
Q 2234 2739 2502 2368 
Q 2726 2061 2726 1555 
Q 2726 1094 2576 780 
Q 2426 467 2099 224 
Q 1664 -90 1011 -90 
Q 646 -90 422 19 
Q 198 128 198 307 
Q 198 550 486 550 
Q 717 550 960 352 
Q 1210 147 1414 147 
Q 1747 147 2012 480 
Q 2278 813 2278 1229 
Q 2278 1843 1850 2189 
Q 1293 2637 486 2637 
Q 410 2637 410 2688 
L 416 2720 
L 1114 4237 
L 2438 4237 
Q 2547 4237 2608 4269 
Q 2669 4301 2746 4403 
L 2803 4358 
z
" transform="scale(0.015625)"/>
     </defs>
     <use xlink:href="#STIXGeneral-Italic-52" transform="translate(0 0.703125)"/>
     <use xlink:href="#STIXGeneral-Regular-35" transform="translate(61.099991 -12.525) scale(0.7)"/>
    </g>
    <!-- 4Ω -->
    <g transform="translate(334.305859 88.742773) scale(0.125 -0.125)">
     <defs>
      <path id="DejaVuSans-34" d="M 2419 4116 
L 825 1625 
L 2419 1625 
L 2419 4116 
z
M 2253 4666 
L 3047 4666 
L 3047 1625 
L 3713 1625 
L 3713 1100 
L 3047 1100 
L 3047 0 
L 2419 0 
L 2419 1100 
L 313 1100 
L 313 1709 
L 2253 4666 
z
" transform="scale(0.015625)"/>
     </defs>
     <use xlink:href="#DejaVuSans-34"/>
     <use xlink:href="#DejaVuSans-3a9" x="63.623047"/>
    </g>
   </g>
   <g id="text_8">
    <!-- + -->
    <g transform="translate(298.63125 63.744141) scale(0.125 -0.125)">
     <use xlink:href="#DejaVuSans-2b"/>
    </g>
   </g>
   <g id="text_9">
    <!-- $V_O$ -->
    <g transform="translate(294.480859 81.744141) scale(0.125 -0.125)">
     <defs>
      <path id="STIXGeneral-Italic-4f" d="M 4474 2675 
Q 4474 1990 4106 1363 
Q 3738 736 3149 339 
Q 2477 -115 1779 -115 
Q 1146 -115 765 281 
Q 384 678 384 1382 
Q 384 1965 697 2582 
Q 1011 3200 1517 3642 
Q 2234 4262 3034 4262 
Q 3718 4269 4096 3840 
Q 4474 3411 4474 2675 
z
M 3802 3078 
Q 3802 3533 3581 3792 
Q 3360 4051 2976 4051 
Q 2342 4051 1786 3302 
Q 1446 2842 1251 2259 
Q 1056 1677 1056 1178 
Q 1056 653 1270 374 
Q 1485 96 1888 96 
Q 2477 96 2976 704 
Q 3354 1178 3578 1862 
Q 3802 2547 3802 3078 
z
" transform="scale(0.015625)"/>
     </defs>
     <use xlink:href="#STIXGeneral-Italic-56" transform="translate(0 0.703125)"/>
     <use xlink:href="#STIXGeneral-Italic-4f" transform="translate(61.099991 -12.525) scale(0.7)"/>
    </g>
   </g>
   <g id="text_10">
    <!-- - -->
    <g transform="translate(304.596094 99.744141) scale(0.125 -0.125)">
     <use xlink:href="#DejaVuSans-2d"/>
    </g>
   </g>
   <g id="text_11">
    <!-- $V_{S2}$ -->
    <g transform="translate(343.305859 146.745508) scale(0.125 -0.125)">
     <defs>
      <path id="STIXGeneral-Italic-53" d="M 3251 4269 
L 2995 2989 
L 2880 3008 
Q 2880 3539 2720 3795 
Q 2560 4051 2118 4051 
Q 1786 4051 1594 3881 
Q 1402 3712 1402 3411 
Q 1402 3168 1504 3005 
Q 1606 2842 2035 2413 
Q 2464 1978 2611 1715 
Q 2758 1453 2758 1133 
Q 2758 589 2390 237 
Q 2022 -115 1466 -115 
Q 1222 -115 800 32 
Q 595 109 499 109 
Q 288 109 224 -96 
L 109 -96 
L 326 1338 
L 454 1325 
Q 442 1267 442 1178 
Q 442 710 701 409 
Q 960 109 1363 109 
Q 1734 109 1968 336 
Q 2202 563 2202 928 
Q 2202 1139 2118 1308 
Q 2035 1478 1818 1715 
L 1568 1984 
Q 1549 2003 1459 2102 
Q 1370 2202 1318 2253 
Q 1030 2560 934 2755 
Q 838 2950 838 3213 
Q 838 3699 1168 3980 
Q 1498 4262 1978 4262 
Q 2310 4262 2522 4173 
Q 2707 4102 2816 4102 
Q 2925 4102 2982 4134 
Q 3040 4166 3104 4269 
L 3251 4269 
z
" transform="scale(0.015625)"/>
     </defs>
     <use xlink:href="#STIXGeneral-Italic-56" transform="translate(0 0.703125)"/>
     <use xlink:href="#STIXGeneral-Italic-53" transform="translate(61.099991 -12.525) scale(0.7)"/>
     <use xlink:href="#STIXGeneral-Regular-32" transform="translate(96.09998 -12.525) scale(0.7)"/>
    </g>
    <!-- 3$V_x$ -->
    <g transform="translate(343.305859 160.742773) scale(0.125 -0.125)">
     <defs>
      <path id="DejaVuSans-33" d="M 2597 2516 
Q 3050 2419 3304 2112 
Q 3559 1806 3559 1356 
Q 3559 666 3084 287 
Q 2609 -91 1734 -91 
Q 1441 -91 1130 -33 
Q 819 25 488 141 
L 488 750 
Q 750 597 1062 519 
Q 1375 441 1716 441 
Q 2309 441 2620 675 
Q 2931 909 2931 1356 
Q 2931 1769 2642 2001 
Q 2353 2234 1838 2234 
L 1294 2234 
L 1294 2753 
L 1863 2753 
Q 2328 2753 2575 2939 
Q 2822 3125 2822 3475 
Q 2822 3834 2567 4026 
Q 2313 4219 1838 4219 
Q 1578 4219 1281 4162 
Q 984 4106 628 3988 
L 628 4550 
Q 988 4650 1302 4700 
Q 1616 4750 1894 4750 
Q 2613 4750 3031 4423 
Q 3450 4097 3450 3541 
Q 3450 3153 3228 2886 
Q 3006 2619 2597 2516 
z
" transform="scale(0.015625)"/>
     </defs>
     <use xlink:href="#DejaVuSans-33" transform="translate(0 0.78125)"/>
     <use xlink:href="#STIXGeneral-Italic-56" transform="translate(63.623047 0.78125)"/>
     <use xlink:href="#STIXGeneral-Italic-78" transform="translate(124.723038 -12.446875) scale(0.7)"/>
    </g>
   </g>
   <g id="text_12">
    <!-- $R_3$ -->
    <g transform="translate(190.305859 74.745508) scale(0.125 -0.125)">
     <defs>
      <path id="STIXGeneral-Regular-33" d="M 390 3264 
L 288 3290 
Q 435 3770 748 4048 
Q 1062 4326 1542 4326 
Q 1990 4326 2265 4083 
Q 2541 3840 2541 3450 
Q 2541 2925 1946 2566 
Q 2298 2413 2477 2227 
Q 2758 1914 2758 1402 
Q 2758 890 2464 506 
Q 2246 211 1840 60 
Q 1434 -90 979 -90 
Q 262 -90 262 275 
Q 262 378 339 442 
Q 416 506 525 506 
Q 685 506 915 339 
Q 1197 141 1466 141 
Q 1818 141 2058 425 
Q 2298 710 2298 1120 
Q 2298 1856 1632 2048 
Q 1434 2112 979 2112 
L 979 2202 
Q 1338 2323 1517 2432 
Q 2035 2726 2035 3290 
Q 2035 3610 1852 3776 
Q 1670 3942 1344 3942 
Q 768 3942 390 3264 
z
" transform="scale(0.015625)"/>
     </defs>
     <use xlink:href="#STIXGeneral-Italic-52" transform="translate(0 0.703125)"/>
     <use xlink:href="#STIXGeneral-Regular-33" transform="translate(61.099991 -12.525) scale(0.7)"/>
    </g>
    <!-- 4Ω -->
    <g transform="translate(190.305859 88.742773) scale(0.125 -0.125)">
     <use xlink:href="#DejaVuSans-34"/>
     <use xlink:href="#DejaVuSans-3a9" x="63.623047"/>
    </g>
   </g>
   <g id="text_13">
    <!-- $V_{S1}$ -->
    <g transform="translate(199.305859 146.745508) scale(0.125 -0.125)">
     <use xlink:href="#STIXGeneral-Italic-56" transform="translate(0 0.703125)"/>
     <use xlink:href="#STIXGeneral-Italic-53" transform="translate(61.099991 -12.525) scale(0.7)"/>
     <use xlink:href="#STIXGeneral-Regular-31" transform="translate(96.09998 -12.525) scale(0.7)"/>
    </g>
    <!-- 12V -->
    <g transform="translate(199.305859 160.742773) scale(0.125 -0.125)">
     <defs>
      <path id="DejaVuSans-31" d="M 794 531 
L 1825 531 
L 1825 4091 
L 703 3866 
L 703 4441 
L 1819 4666 
L 2450 4666 
L 2450 531 
L 3481 531 
L 3481 0 
L 794 0 
L 794 531 
z
" transform="scale(0.015625)"/>
      <path id="DejaVuSans-56" d="M 1831 0 
L 50 4666 
L 709 4666 
L 2188 738 
L 3669 4666 
L 4325 4666 
L 2547 0 
L 1831 0 
z
" transform="scale(0.015625)"/>
     </defs>
     <use xlink:href="#DejaVuSans-31"/>
     <use xlink:href="#DejaVuSans-32" x="63.623047"/>
     <use xlink:href="#DejaVuSans-56" x="127.246094"/>
    </g>
   </g>
   <g id="text_14">
    <!-- $I_1$ -->
    <g style="fill: #0000ff" transform="translate(101.143359 122.244141) scale(0.125 -0.125)">
     <defs>
      <path id="STIXGeneral-Italic-49" d="M 2458 4179 
L 2458 4077 
Q 2189 4045 2102 3961 
Q 2016 3878 1933 3584 
L 1165 838 
Q 1069 499 1069 352 
Q 1069 224 1149 179 
Q 1229 134 1510 102 
L 1510 0 
L -51 0 
L -51 102 
Q 218 154 317 237 
Q 416 320 486 582 
L 1254 3405 
Q 1338 3699 1338 3802 
Q 1338 3930 1235 3997 
Q 1133 4064 877 4077 
L 877 4179 
L 2458 4179 
z
" transform="scale(0.015625)"/>
     </defs>
     <use xlink:href="#STIXGeneral-Italic-49" transform="translate(0 0.703125)"/>
     <use xlink:href="#STIXGeneral-Regular-31" transform="translate(33.299988 -12.525) scale(0.7)"/>
    </g>
   </g>
   <g id="text_15">
    <!-- $I_2$ -->
    <g style="fill: #ff0000" transform="translate(245.143359 122.244141) scale(0.125 -0.125)">
     <use xlink:href="#STIXGeneral-Italic-49" transform="translate(0 0.703125)"/>
     <use xlink:href="#STIXGeneral-Regular-32" transform="translate(33.299988 -12.525) scale(0.7)"/>
    </g>
   </g>
  </g>
 </g>
 <defs>
  <clipPath id="pe90d40bc14">
   <rect x="8.955859" y="24.474922" width="346.5" height="194.04"/>
  </clipPath>
 </defs>
</svg>
