<?xml version="1.0" encoding="utf-8" standalone="no"?>
<!DOCTYPE svg PUBLIC "-//W3C//DTD SVG 1.1//EN"
  "http://www.w3.org/Graphics/SVG/1.1/DTD/svg11.dtd">
<svg xmlns:xlink="http://www.w3.org/1999/xlink" width="330.243pt" height="209.56pt" viewBox="0 0 330.243 209.56" xmlns="http://www.w3.org/2000/svg" version="1.1">
 <metadata>
  <rdf:RDF xmlns:dc="http://purl.org/dc/elements/1.1/" xmlns:cc="http://creativecommons.org/ns#" xmlns:rdf="http://www.w3.org/1999/02/22-rdf-syntax-ns#">
   <cc:Work>
    <dc:type rdf:resource="http://purl.org/dc/dcmitype/StillImage"/>
    <dc:date>2023-02-28T20:07:17.541674</dc:date>
    <dc:format>image/svg+xml</dc:format>
    <dc:creator>
     <cc:Agent>
      <dc:title>Matplotlib v3.5.2, https://matplotlib.org/</dc:title>
     </cc:Agent>
    </dc:creator>
   </cc:Work>
  </rdf:RDF>
 </metadata>
 <defs>
  <style type="text/css">*{stroke-linejoin: round; stroke-linecap: butt}</style>
 </defs>
 <g id="figure_1">
  <g id="patch_1">
   <path d="M 0 209.56 
L 330.243 209.56 
L 330.243 0 
L 0 0 
L 0 209.56 
z
" style="fill: none"/>
  </g>
  <g id="axes_1">
   <g id="patch_2">
    <path d="M 58.9446 133.51 
C 63.002207 133.51 66.894172 131.897895 69.763334 129.028734 
C 72.632495 126.159572 74.2446 122.267607 74.2446 118.21 
C 74.2446 114.152393 72.632495 110.260428 69.763334 107.391266 
C 66.894172 104.522105 63.002207 102.91 58.9446 102.91 
C 54.886993 102.91 50.995028 104.522105 48.125866 107.391266 
C 45.256705 110.260428 43.6446 114.152393 43.6446 118.21 
C 43.6446 122.267607 45.256705 126.159572 48.125866 129.028734 
C 50.995028 131.897895 54.886993 133.51 58.9446 133.51 
L 58.9446 133.51 
z
" clip-path="url(#p3414eefe0b)" style="fill: none; stroke: #000000; stroke-width: 2; stroke-linejoin: miter"/>
   </g>
   <g id="patch_3">
    <path d="M 147.483638 105.570293 
C 146.070245 102.233532 144.236892 99.220525 142.058063 96.65368 
C 139.879234 94.086835 137.384838 92.001389 134.676214 90.482067 
C 131.967589 88.962744 129.08192 88.030401 126.13644 87.722915 
C 123.19096 87.415429 120.226103 87.737022 117.362322 88.674629 
C 114.49854 89.612235 111.775147 91.152984 109.302783 93.23428 
C 106.830419 95.315576 104.643025 97.908847 102.829466 100.90874 
C 101.015907 103.908632 99.60108 107.273963 98.642463 110.868013 
C 97.683847 114.462062 97.1946 118.235491 97.1946 122.035 
C 97.1946 125.834509 97.683847 129.607938 98.642463 133.201987 
C 99.60108 136.796037 101.015907 140.161368 102.829466 143.16126 
C 104.643025 146.161153 106.830419 148.754424 109.302783 150.83572 
C 111.775147 152.917016 114.49854 154.457765 117.362322 155.395371 
C 120.226103 156.332978 123.19096 156.654571 126.13644 156.347085 
C 129.08192 156.039599 131.967589 155.107256 134.676214 153.587933 
C 137.384838 152.068611 139.879234 149.983165 142.058063 147.41632 
C 144.236892 144.849475 146.070245 141.836468 147.483638 138.499707 
" clip-path="url(#p3414eefe0b)" style="fill: none; stroke: #ff0000; stroke-width: 2; stroke-linejoin: miter"/>
   </g>
   <g id="patch_4">
    <path d="M 151.288815 112.557322 
L 145.614502 106.936672 
L 147.616554 105.846343 
L 147.470201 105.577611 
L 147.497075 105.562976 
L 147.643428 105.831708 
L 149.64548 104.741378 
z
" clip-path="url(#p3414eefe0b)" style="fill: #ff0000; stroke: #ff0000; stroke-linejoin: miter"/>
   </g>
   <g id="patch_5">
    <path d="M 268.523582 103.844321 
C 266.778308 100.689739 264.590499 97.873751 262.045202 95.505827 
C 259.499905 93.137903 256.630537 91.249129 253.548639 89.912928 
C 250.466741 88.576727 247.212773 87.81064 243.91323 87.64445 
C 240.613687 87.47826 237.311885 87.914147 234.136177 88.935167 
C 230.96047 89.956187 227.952548 91.548936 225.229341 93.651498 
C 222.506133 95.754059 220.103392 98.338831 218.114519 101.305333 
C 216.125646 104.271835 214.576752 107.581123 213.528049 111.104552 
C 212.479345 114.627981 211.9446 118.319296 211.9446 122.035 
C 211.9446 125.750704 212.479345 129.442019 213.528049 132.965448 
C 214.576752 136.488877 216.125646 139.798165 218.114519 142.764667 
C 220.103392 145.731169 222.506133 148.315941 225.229341 150.418502 
C 227.952548 152.521064 230.96047 154.113813 234.136177 155.134833 
C 237.311885 156.155853 240.613687 156.59174 243.91323 156.42555 
C 247.212773 156.25936 250.466741 155.493273 253.548639 154.157072 
C 256.630537 152.820871 259.499905 150.932097 262.045202 148.564173 
C 264.590499 146.196249 266.778308 143.380261 268.523582 140.225679 
" clip-path="url(#p3414eefe0b)" style="fill: none; stroke: #0000ff; stroke-width: 2; stroke-linejoin: miter"/>
   </g>
   <g id="patch_6">
    <path d="M 272.72765 110.598856 
L 266.736853 105.316823 
L 268.672288 104.112195 
L 268.510593 103.852406 
L 268.536572 103.836236 
L 268.698267 104.096026 
L 270.633701 102.891399 
z
" clip-path="url(#p3414eefe0b)" style="fill: #0000ff; stroke: #0000ff; stroke-linejoin: miter"/>
   </g>
   <g id="patch_7">
    <path d="M 58.9446 133.51 
C 63.002207 133.51 66.894172 131.897895 69.763334 129.028734 
C 72.632495 126.159572 74.2446 122.267607 74.2446 118.21 
C 74.2446 114.152393 72.632495 110.260428 69.763334 107.391266 
C 66.894172 104.522105 63.002207 102.91 58.9446 102.91 
C 54.886993 102.91 50.995028 104.522105 48.125866 107.391266 
C 45.256705 110.260428 43.6446 114.152393 43.6446 118.21 
C 43.6446 122.267607 45.256705 126.159572 48.125866 129.028734 
C 50.995028 131.897895 54.886993 133.51 58.9446 133.51 
L 58.9446 133.51 
z
" clip-path="url(#p3414eefe0b)" style="fill: none; stroke: #000000; stroke-width: 2; stroke-linejoin: miter"/>
   </g>
   <g id="patch_8">
    <path d="M 147.483638 105.570293 
C 146.070245 102.233532 144.236892 99.220525 142.058063 96.65368 
C 139.879234 94.086835 137.384838 92.001389 134.676214 90.482067 
C 131.967589 88.962744 129.08192 88.030401 126.13644 87.722915 
C 123.19096 87.415429 120.226103 87.737022 117.362322 88.674629 
C 114.49854 89.612235 111.775147 91.152984 109.302783 93.23428 
C 106.830419 95.315576 104.643025 97.908847 102.829466 100.90874 
C 101.015907 103.908632 99.60108 107.273963 98.642463 110.868013 
C 97.683847 114.462062 97.1946 118.235491 97.1946 122.035 
C 97.1946 125.834509 97.683847 129.607938 98.642463 133.201987 
C 99.60108 136.796037 101.015907 140.161368 102.829466 143.16126 
C 104.643025 146.161153 106.830419 148.754424 109.302783 150.83572 
C 111.775147 152.917016 114.49854 154.457765 117.362322 155.395371 
C 120.226103 156.332978 123.19096 156.654571 126.13644 156.347085 
C 129.08192 156.039599 131.967589 155.107256 134.676214 153.587933 
C 137.384838 152.068611 139.879234 149.983165 142.058063 147.41632 
C 144.236892 144.849475 146.070245 141.836468 147.483638 138.499707 
" clip-path="url(#p3414eefe0b)" style="fill: none; stroke: #ff0000; stroke-width: 2; stroke-linejoin: miter"/>
   </g>
   <g id="patch_9">
    <path d="M 151.288815 112.557322 
L 145.614502 106.936672 
L 147.616554 105.846343 
L 147.470201 105.577611 
L 147.497075 105.562976 
L 147.643428 105.831708 
L 149.64548 104.741378 
z
" clip-path="url(#p3414eefe0b)" style="fill: #ff0000; stroke: #ff0000; stroke-linejoin: miter"/>
   </g>
   <g id="patch_10">
    <path d="M 268.523582 103.844321 
C 266.778308 100.689739 264.590499 97.873751 262.045202 95.505827 
C 259.499905 93.137903 256.630537 91.249129 253.548639 89.912928 
C 250.466741 88.576727 247.212773 87.81064 243.91323 87.64445 
C 240.613687 87.47826 237.311885 87.914147 234.136177 88.935167 
C 230.96047 89.956187 227.952548 91.548936 225.229341 93.651498 
C 222.506133 95.754059 220.103392 98.338831 218.114519 101.305333 
C 216.125646 104.271835 214.576752 107.581123 213.528049 111.104552 
C 212.479345 114.627981 211.9446 118.319296 211.9446 122.035 
C 211.9446 125.750704 212.479345 129.442019 213.528049 132.965448 
C 214.576752 136.488877 216.125646 139.798165 218.114519 142.764667 
C 220.103392 145.731169 222.506133 148.315941 225.229341 150.418502 
C 227.952548 152.521064 230.96047 154.113813 234.136177 155.134833 
C 237.311885 156.155853 240.613687 156.59174 243.91323 156.42555 
C 247.212773 156.25936 250.466741 155.493273 253.548639 154.157072 
C 256.630537 152.820871 259.499905 150.932097 262.045202 148.564173 
C 264.590499 146.196249 266.778308 143.380261 268.523582 140.225679 
" clip-path="url(#p3414eefe0b)" style="fill: none; stroke: #0000ff; stroke-width: 2; stroke-linejoin: miter"/>
   </g>
   <g id="patch_11">
    <path d="M 272.72765 110.598856 
L 266.736853 105.316823 
L 268.672288 104.112195 
L 268.510593 103.852406 
L 268.536572 103.836236 
L 268.698267 104.096026 
L 270.633701 102.891399 
z
" clip-path="url(#p3414eefe0b)" style="fill: #0000ff; stroke: #0000ff; stroke-linejoin: miter"/>
   </g>
   <g id="line2d_1">
    <path d="M 58.9446 179.41 
L 58.9446 133.51 
L 58.9446 133.51 
M 58.9446 102.91 
L 58.9446 102.91 
L 58.9446 57.01 
" clip-path="url(#p3414eefe0b)" style="fill: none; stroke: #000000; stroke-width: 2; stroke-linecap: round"/>
   </g>
   <g id="line2d_2">
    <path d="M 62.0046 125.86 
L 55.8846 125.86 
" clip-path="url(#p3414eefe0b)" style="fill: none; stroke: #000000; stroke-width: 2; stroke-linecap: round"/>
   </g>
   <g id="line2d_3">
    <path d="M 58.9446 113.62 
L 58.9446 107.5 
" clip-path="url(#p3414eefe0b)" style="fill: none; stroke: #000000; stroke-width: 2; stroke-linecap: round"/>
   </g>
   <g id="line2d_4">
    <path d="M 62.0046 110.56 
L 55.8846 110.56 
" clip-path="url(#p3414eefe0b)" style="fill: none; stroke: #000000; stroke-width: 2; stroke-linecap: round"/>
   </g>
   <g id="line2d_5">
    <path d="M 58.9446 57.01 
L 104.8446 57.01 
L 107.3946 49.36 
L 112.4946 64.66 
L 117.5946 49.36 
L 122.6946 64.66 
L 127.7946 49.36 
L 132.8946 64.66 
L 135.4446 57.01 
L 181.3446 57.01 
" clip-path="url(#p3414eefe0b)" style="fill: none; stroke: #000000; stroke-width: 2; stroke-linecap: round"/>
   </g>
   <g id="line2d_6">
    <path d="M 181.3446 57.01 
L 227.2446 57.01 
L 229.7946 49.36 
L 234.8946 64.66 
L 239.9946 49.36 
L 245.0946 64.66 
L 250.1946 49.36 
L 255.2946 64.66 
L 257.8446 57.01 
L 303.7446 57.01 
" clip-path="url(#p3414eefe0b)" style="fill: none; stroke: #000000; stroke-width: 2; stroke-linecap: round"/>
   </g>
   <g id="line2d_7">
    <path d="M 181.3446 57.01 
L 181.3446 102.91 
L 188.9946 105.46 
L 173.6946 110.56 
L 188.9946 115.66 
L 173.6946 120.76 
L 188.9946 125.86 
L 173.6946 130.96 
L 181.3446 133.51 
L 181.3446 179.41 
" clip-path="url(#p3414eefe0b)" style="fill: none; stroke: #000000; stroke-width: 2; stroke-linecap: round"/>
   </g>
   <g id="line2d_8">
    <path d="M 303.7446 57.01 
L 303.7446 102.91 
L 311.3946 105.46 
L 296.0946 110.56 
L 311.3946 115.66 
L 296.0946 120.76 
L 311.3946 125.86 
L 296.0946 130.96 
L 303.7446 133.51 
L 303.7446 179.41 
" clip-path="url(#p3414eefe0b)" style="fill: none; stroke: #000000; stroke-width: 2; stroke-linecap: round"/>
   </g>
   <g id="line2d_9">
    <path d="M 303.7446 179.41 
L 181.3446 179.41 
L 58.9446 179.41 
" clip-path="url(#p3414eefe0b)" style="fill: none; stroke: #000000; stroke-width: 2; stroke-linecap: round"/>
   </g>
   <g id="line2d_10">
    <path d="M 58.9446 179.41 
L 58.9446 191.65 
L 51.2946 191.65 
L 58.9446 199.3 
L 66.5946 191.65 
L 58.9446 191.65 
" clip-path="url(#p3414eefe0b)" style="fill: none; stroke: #000000; stroke-width: 2; stroke-linecap: round"/>
   </g>
   <g id="line2d_11">
    <path d="M 58.9446 179.41 
L 58.9446 133.51 
L 58.9446 133.51 
M 58.9446 102.91 
L 58.9446 102.91 
L 58.9446 57.01 
" clip-path="url(#p3414eefe0b)" style="fill: none; stroke: #000000; stroke-width: 2; stroke-linecap: round"/>
   </g>
   <g id="line2d_12">
    <path d="M 62.0046 125.86 
L 55.8846 125.86 
" clip-path="url(#p3414eefe0b)" style="fill: none; stroke: #000000; stroke-width: 2; stroke-linecap: round"/>
   </g>
   <g id="line2d_13">
    <path d="M 58.9446 113.62 
L 58.9446 107.5 
" clip-path="url(#p3414eefe0b)" style="fill: none; stroke: #000000; stroke-width: 2; stroke-linecap: round"/>
   </g>
   <g id="line2d_14">
    <path d="M 62.0046 110.56 
L 55.8846 110.56 
" clip-path="url(#p3414eefe0b)" style="fill: none; stroke: #000000; stroke-width: 2; stroke-linecap: round"/>
   </g>
   <g id="line2d_15">
    <path d="M 58.9446 57.01 
L 104.8446 57.01 
L 107.3946 49.36 
L 112.4946 64.66 
L 117.5946 49.36 
L 122.6946 64.66 
L 127.7946 49.36 
L 132.8946 64.66 
L 135.4446 57.01 
L 181.3446 57.01 
" clip-path="url(#p3414eefe0b)" style="fill: none; stroke: #000000; stroke-width: 2; stroke-linecap: round"/>
   </g>
   <g id="line2d_16">
    <path d="M 181.3446 57.01 
L 227.2446 57.01 
L 229.7946 49.36 
L 234.8946 64.66 
L 239.9946 49.36 
L 245.0946 64.66 
L 250.1946 49.36 
L 255.2946 64.66 
L 257.8446 57.01 
L 303.7446 57.01 
" clip-path="url(#p3414eefe0b)" style="fill: none; stroke: #000000; stroke-width: 2; stroke-linecap: round"/>
   </g>
   <g id="line2d_17">
    <path d="M 181.3446 57.01 
L 181.3446 102.91 
L 188.9946 105.46 
L 173.6946 110.56 
L 188.9946 115.66 
L 173.6946 120.76 
L 188.9946 125.86 
L 173.6946 130.96 
L 181.3446 133.51 
L 181.3446 179.41 
" clip-path="url(#p3414eefe0b)" style="fill: none; stroke: #000000; stroke-width: 2; stroke-linecap: round"/>
   </g>
   <g id="line2d_18">
    <path d="M 303.7446 57.01 
L 303.7446 102.91 
L 311.3946 105.46 
L 296.0946 110.56 
L 311.3946 115.66 
L 296.0946 120.76 
L 311.3946 125.86 
L 296.0946 130.96 
L 303.7446 133.51 
L 303.7446 179.41 
" clip-path="url(#p3414eefe0b)" style="fill: none; stroke: #000000; stroke-width: 2; stroke-linecap: round"/>
   </g>
   <g id="line2d_19">
    <path d="M 303.7446 179.41 
L 181.3446 179.41 
L 58.9446 179.41 
" clip-path="url(#p3414eefe0b)" style="fill: none; stroke: #000000; stroke-width: 2; stroke-linecap: round"/>
   </g>
   <g id="line2d_20">
    <path d="M 58.9446 179.41 
L 58.9446 191.65 
L 51.2946 191.65 
L 58.9446 199.3 
L 66.5946 191.65 
L 58.9446 191.65 
" clip-path="url(#p3414eefe0b)" style="fill: none; stroke: #000000; stroke-width: 2; stroke-linecap: round"/>
   </g>
   <g id="text_1">
    <g clip-path="url(#p3414eefe0b)">
     <!-- $V_S$ -->
     <g transform="translate(27.9596 114.660586)scale(0.125 -0.125)">
      <defs>
       <path id="STIXGeneral-Italic-56" d="M 4403 4179 
L 4403 4077 
Q 4198 4070 4045 3821 
L 1658 -115 
L 1536 -115 
L 1011 3104 
Q 902 3776 828 3910 
Q 755 4045 486 4077 
L 486 4179 
L 2022 4179 
L 2022 4077 
Q 1722 4045 1629 3981 
Q 1536 3917 1536 3750 
Q 1536 3686 1542 3654 
L 1958 819 
L 3302 3123 
Q 3616 3661 3616 3859 
Q 3616 4032 3219 4077 
L 3219 4179 
L 4403 4179 
z
" transform="scale(0.015625)"/>
       <path id="STIXGeneral-Italic-53" d="M 3251 4269 
L 2995 2989 
L 2880 3008 
Q 2880 3539 2720 3795 
Q 2560 4051 2118 4051 
Q 1786 4051 1594 3881 
Q 1402 3712 1402 3411 
Q 1402 3168 1504 3005 
Q 1606 2842 2035 2413 
Q 2464 1978 2611 1715 
Q 2758 1453 2758 1133 
Q 2758 589 2390 237 
Q 2022 -115 1466 -115 
Q 1222 -115 800 32 
Q 595 109 499 109 
Q 288 109 224 -96 
L 109 -96 
L 326 1338 
L 454 1325 
Q 442 1267 442 1178 
Q 442 710 701 409 
Q 960 109 1363 109 
Q 1734 109 1968 336 
Q 2202 563 2202 928 
Q 2202 1139 2118 1308 
Q 2035 1478 1818 1715 
L 1568 1984 
Q 1549 2003 1459 2102 
Q 1370 2202 1318 2253 
Q 1030 2560 934 2755 
Q 838 2950 838 3213 
Q 838 3699 1168 3980 
Q 1498 4262 1978 4262 
Q 2310 4262 2522 4173 
Q 2707 4102 2816 4102 
Q 2925 4102 2982 4134 
Q 3040 4166 3104 4269 
L 3251 4269 
z
" transform="scale(0.015625)"/>
      </defs>
      <use xlink:href="#STIXGeneral-Italic-56" transform="translate(0 0.703125)"/>
      <use xlink:href="#STIXGeneral-Italic-53" transform="translate(61.099991 -12.525)scale(0.7)"/>
     </g>
    </g>
    <g clip-path="url(#p3414eefe0b)">
     <!-- 21 V -->
     <g transform="translate(12.154913 128.657852)scale(0.125 -0.125)">
      <defs>
       <path id="DejaVuSans-32" d="M 1228 531 
L 3431 531 
L 3431 0 
L 469 0 
L 469 531 
Q 828 903 1448 1529 
Q 2069 2156 2228 2338 
Q 2531 2678 2651 2914 
Q 2772 3150 2772 3378 
Q 2772 3750 2511 3984 
Q 2250 4219 1831 4219 
Q 1534 4219 1204 4116 
Q 875 4013 500 3803 
L 500 4441 
Q 881 4594 1212 4672 
Q 1544 4750 1819 4750 
Q 2544 4750 2975 4387 
Q 3406 4025 3406 3419 
Q 3406 3131 3298 2873 
Q 3191 2616 2906 2266 
Q 2828 2175 2409 1742 
Q 1991 1309 1228 531 
z
" transform="scale(0.015625)"/>
       <path id="DejaVuSans-31" d="M 794 531 
L 1825 531 
L 1825 4091 
L 703 3866 
L 703 4441 
L 1819 4666 
L 2450 4666 
L 2450 531 
L 3481 531 
L 3481 0 
L 794 0 
L 794 531 
z
" transform="scale(0.015625)"/>
       <path id="DejaVuSans-20" transform="scale(0.015625)"/>
       <path id="DejaVuSans-56" d="M 1831 0 
L 50 4666 
L 709 4666 
L 2188 738 
L 3669 4666 
L 4325 4666 
L 2547 0 
L 1831 0 
z
" transform="scale(0.015625)"/>
      </defs>
      <use xlink:href="#DejaVuSans-32"/>
      <use xlink:href="#DejaVuSans-31" x="63.623047"/>
      <use xlink:href="#DejaVuSans-20" x="127.246094"/>
      <use xlink:href="#DejaVuSans-56" x="159.033203"/>
     </g>
    </g>
   </g>
   <g id="text_2">
    <g clip-path="url(#p3414eefe0b)">
     <!-- $R_1$ -->
     <g transform="translate(113.8321 29.703125)scale(0.125 -0.125)">
      <defs>
       <path id="STIXGeneral-Italic-52" d="M 845 4179 
L 2458 4179 
Q 3078 4179 3420 3936 
Q 3763 3693 3763 3277 
Q 3763 2778 3341 2458 
Q 3091 2266 2502 2131 
L 3072 627 
Q 3181 333 3299 217 
Q 3418 102 3629 102 
L 3629 0 
L 2688 0 
L 1901 2074 
L 1478 2106 
L 1126 806 
Q 1043 512 1043 403 
Q 1043 256 1126 192 
Q 1210 128 1472 102 
L 1472 0 
L -83 0 
L -83 102 
Q 173 134 278 243 
Q 384 352 461 646 
L 1222 3405 
Q 1299 3699 1299 3808 
Q 1299 3923 1210 3987 
Q 1133 4038 845 4077 
L 845 4179 
z
M 1958 3795 
L 1555 2342 
Q 1754 2310 1882 2310 
Q 2451 2310 2771 2566 
Q 3091 2822 3091 3270 
Q 3091 3603 2892 3795 
Q 2694 3987 2323 3987 
Q 2010 3987 1958 3795 
z
" transform="scale(0.015625)"/>
       <path id="STIXGeneral-Regular-31" d="M 2522 0 
L 755 0 
L 755 96 
Q 1107 115 1235 227 
Q 1363 339 1363 608 
L 1363 3482 
Q 1363 3795 1171 3795 
Q 1082 3795 883 3718 
L 710 3654 
L 710 3744 
L 1856 4326 
L 1914 4307 
L 1914 486 
Q 1914 275 2042 185 
Q 2170 96 2522 96 
L 2522 0 
z
" transform="scale(0.015625)"/>
      </defs>
      <use xlink:href="#STIXGeneral-Italic-52" transform="translate(0 0.703125)"/>
      <use xlink:href="#STIXGeneral-Regular-31" transform="translate(61.099991 -12.525)scale(0.7)"/>
     </g>
    </g>
    <g clip-path="url(#p3414eefe0b)">
     <!-- 6Ω -->
     <g transform="translate(111.39167 43.700391)scale(0.125 -0.125)">
      <defs>
       <path id="DejaVuSans-36" d="M 2113 2584 
Q 1688 2584 1439 2293 
Q 1191 2003 1191 1497 
Q 1191 994 1439 701 
Q 1688 409 2113 409 
Q 2538 409 2786 701 
Q 3034 994 3034 1497 
Q 3034 2003 2786 2293 
Q 2538 2584 2113 2584 
z
M 3366 4563 
L 3366 3988 
Q 3128 4100 2886 4159 
Q 2644 4219 2406 4219 
Q 1781 4219 1451 3797 
Q 1122 3375 1075 2522 
Q 1259 2794 1537 2939 
Q 1816 3084 2150 3084 
Q 2853 3084 3261 2657 
Q 3669 2231 3669 1497 
Q 3669 778 3244 343 
Q 2819 -91 2113 -91 
Q 1303 -91 875 529 
Q 447 1150 447 2328 
Q 447 3434 972 4092 
Q 1497 4750 2381 4750 
Q 2619 4750 2861 4703 
Q 3103 4656 3366 4563 
z
" transform="scale(0.015625)"/>
       <path id="DejaVuSans-3a9" d="M 4647 556 
L 4647 0 
L 2772 0 
L 2772 556 
Q 3325 859 3634 1378 
Q 3944 1897 3944 2528 
Q 3944 3278 3531 3731 
Q 3119 4184 2444 4184 
Q 1769 4184 1355 3729 
Q 941 3275 941 2528 
Q 941 1897 1250 1378 
Q 1563 859 2119 556 
L 2119 0 
L 244 0 
L 244 556 
L 1241 556 
Q 747 991 519 1456 
Q 294 1922 294 2497 
Q 294 3491 894 4106 
Q 1491 4722 2444 4722 
Q 3391 4722 3994 4106 
Q 4594 3494 4594 2528 
Q 4594 1922 4372 1459 
Q 4150 997 3647 556 
L 4647 556 
z
" transform="scale(0.015625)"/>
      </defs>
      <use xlink:href="#DejaVuSans-36"/>
      <use xlink:href="#DejaVuSans-3a9" x="63.623047"/>
     </g>
    </g>
   </g>
   <g id="text_3">
    <g clip-path="url(#p3414eefe0b)">
     <!-- $R_3$ -->
     <g transform="translate(236.2321 29.703125)scale(0.125 -0.125)">
      <defs>
       <path id="STIXGeneral-Regular-33" d="M 390 3264 
L 288 3290 
Q 435 3770 748 4048 
Q 1062 4326 1542 4326 
Q 1990 4326 2265 4083 
Q 2541 3840 2541 3450 
Q 2541 2925 1946 2566 
Q 2298 2413 2477 2227 
Q 2758 1914 2758 1402 
Q 2758 890 2464 506 
Q 2246 211 1840 60 
Q 1434 -90 979 -90 
Q 262 -90 262 275 
Q 262 378 339 442 
Q 416 506 525 506 
Q 685 506 915 339 
Q 1197 141 1466 141 
Q 1818 141 2058 425 
Q 2298 710 2298 1120 
Q 2298 1856 1632 2048 
Q 1434 2112 979 2112 
L 979 2202 
Q 1338 2323 1517 2432 
Q 2035 2726 2035 3290 
Q 2035 3610 1852 3776 
Q 1670 3942 1344 3942 
Q 768 3942 390 3264 
z
" transform="scale(0.015625)"/>
      </defs>
      <use xlink:href="#STIXGeneral-Italic-52" transform="translate(0 0.703125)"/>
      <use xlink:href="#STIXGeneral-Regular-33" transform="translate(61.099991 -12.525)scale(0.7)"/>
     </g>
    </g>
    <g clip-path="url(#p3414eefe0b)">
     <!-- 14Ω -->
     <g transform="translate(229.815108 43.700391)scale(0.125 -0.125)">
      <defs>
       <path id="DejaVuSans-34" d="M 2419 4116 
L 825 1625 
L 2419 1625 
L 2419 4116 
z
M 2253 4666 
L 3047 4666 
L 3047 1625 
L 3713 1625 
L 3713 1100 
L 3047 1100 
L 3047 0 
L 2419 0 
L 2419 1100 
L 313 1100 
L 313 1709 
L 2253 4666 
z
" transform="scale(0.015625)"/>
      </defs>
      <use xlink:href="#DejaVuSans-31"/>
      <use xlink:href="#DejaVuSans-34" x="63.623047"/>
      <use xlink:href="#DejaVuSans-3a9" x="127.246094"/>
     </g>
    </g>
   </g>
   <g id="text_4">
    <g clip-path="url(#p3414eefe0b)">
     <!-- $R_2$ -->
     <g transform="translate(158.0096 114.660586)scale(0.125 -0.125)">
      <defs>
       <path id="STIXGeneral-Regular-32" d="M 3034 877 
L 2688 0 
L 186 0 
L 186 77 
L 1325 1286 
Q 1773 1754 1965 2144 
Q 2157 2534 2157 2950 
Q 2157 3379 1920 3616 
Q 1683 3853 1267 3853 
Q 922 3853 720 3673 
Q 518 3494 326 3021 
L 192 3053 
Q 301 3648 630 3987 
Q 960 4326 1523 4326 
Q 2054 4326 2380 4006 
Q 2707 3686 2707 3200 
Q 2707 2477 1888 1613 
L 832 486 
L 2330 486 
Q 2541 486 2665 569 
Q 2790 653 2944 915 
L 3034 877 
z
" transform="scale(0.015625)"/>
      </defs>
      <use xlink:href="#STIXGeneral-Italic-52" transform="translate(0 0.703125)"/>
      <use xlink:href="#STIXGeneral-Regular-32" transform="translate(61.099991 -12.525)scale(0.7)"/>
     </g>
    </g>
    <g clip-path="url(#p3414eefe0b)">
     <!-- 24Ω -->
     <g transform="translate(145.175616 128.657852)scale(0.125 -0.125)">
      <use xlink:href="#DejaVuSans-32"/>
      <use xlink:href="#DejaVuSans-34" x="63.623047"/>
      <use xlink:href="#DejaVuSans-3a9" x="127.246094"/>
     </g>
    </g>
   </g>
   <g id="text_5">
    <g clip-path="url(#p3414eefe0b)">
     <!-- $R_4$ -->
     <g transform="translate(280.4096 114.660586)scale(0.125 -0.125)">
      <defs>
       <path id="STIXGeneral-Regular-34" d="M 3027 1069 
L 2368 1069 
L 2368 0 
L 1869 0 
L 1869 1069 
L 77 1069 
L 77 1478 
L 2086 4326 
L 2368 4326 
L 2368 1478 
L 3027 1478 
L 3027 1069 
z
M 1869 1478 
L 1869 3674 
L 333 1478 
L 1869 1478 
z
" transform="scale(0.015625)"/>
      </defs>
      <use xlink:href="#STIXGeneral-Italic-52" transform="translate(0 0.703125)"/>
      <use xlink:href="#STIXGeneral-Regular-34" transform="translate(61.099991 -12.525)scale(0.7)"/>
     </g>
    </g>
    <g clip-path="url(#p3414eefe0b)">
     <!-- 10Ω -->
     <g transform="translate(267.575616 128.657852)scale(0.125 -0.125)">
      <defs>
       <path id="DejaVuSans-30" d="M 2034 4250 
Q 1547 4250 1301 3770 
Q 1056 3291 1056 2328 
Q 1056 1369 1301 889 
Q 1547 409 2034 409 
Q 2525 409 2770 889 
Q 3016 1369 3016 2328 
Q 3016 3291 2770 3770 
Q 2525 4250 2034 4250 
z
M 2034 4750 
Q 2819 4750 3233 4129 
Q 3647 3509 3647 2328 
Q 3647 1150 3233 529 
Q 2819 -91 2034 -91 
Q 1250 -91 836 529 
Q 422 1150 422 2328 
Q 422 3509 836 4129 
Q 1250 4750 2034 4750 
z
" transform="scale(0.015625)"/>
      </defs>
      <use xlink:href="#DejaVuSans-31"/>
      <use xlink:href="#DejaVuSans-30" x="63.623047"/>
      <use xlink:href="#DejaVuSans-3a9" x="127.246094"/>
     </g>
    </g>
   </g>
   <g id="text_6">
    <g clip-path="url(#p3414eefe0b)">
     <!-- $I_1$ -->
     <g style="fill: #ff0000" transform="translate(119.4071 125.484219)scale(0.125 -0.125)">
      <defs>
       <path id="STIXGeneral-Italic-49" d="M 2458 4179 
L 2458 4077 
Q 2189 4045 2102 3961 
Q 2016 3878 1933 3584 
L 1165 838 
Q 1069 499 1069 352 
Q 1069 224 1149 179 
Q 1229 134 1510 102 
L 1510 0 
L -51 0 
L -51 102 
Q 218 154 317 237 
Q 416 320 486 582 
L 1254 3405 
Q 1338 3699 1338 3802 
Q 1338 3930 1235 3997 
Q 1133 4064 877 4077 
L 877 4179 
L 2458 4179 
z
" transform="scale(0.015625)"/>
      </defs>
      <use xlink:href="#STIXGeneral-Italic-49" transform="translate(0 0.703125)"/>
      <use xlink:href="#STIXGeneral-Regular-31" transform="translate(33.299988 -12.525)scale(0.7)"/>
     </g>
    </g>
   </g>
   <g id="text_7">
    <g clip-path="url(#p3414eefe0b)">
     <!-- $I_2$ -->
     <g style="fill: #0000ff" transform="translate(237.9821 125.484219)scale(0.125 -0.125)">
      <use xlink:href="#STIXGeneral-Italic-49" transform="translate(0 0.703125)"/>
      <use xlink:href="#STIXGeneral-Regular-32" transform="translate(33.299988 -12.525)scale(0.7)"/>
     </g>
    </g>
   </g>
   <g id="text_8">
    <g clip-path="url(#p3414eefe0b)">
     <!-- $V_S$ -->
     <g transform="translate(27.9596 114.660586)scale(0.125 -0.125)">
      <use xlink:href="#STIXGeneral-Italic-56" transform="translate(0 0.703125)"/>
      <use xlink:href="#STIXGeneral-Italic-53" transform="translate(61.099991 -12.525)scale(0.7)"/>
     </g>
    </g>
    <g clip-path="url(#p3414eefe0b)">
     <!-- 21 V -->
     <g transform="translate(12.154913 128.657852)scale(0.125 -0.125)">
      <use xlink:href="#DejaVuSans-32"/>
      <use xlink:href="#DejaVuSans-31" x="63.623047"/>
      <use xlink:href="#DejaVuSans-20" x="127.246094"/>
      <use xlink:href="#DejaVuSans-56" x="159.033203"/>
     </g>
    </g>
   </g>
   <g id="text_9">
    <g clip-path="url(#p3414eefe0b)">
     <!-- $R_1$ -->
     <g transform="translate(113.8321 29.703125)scale(0.125 -0.125)">
      <use xlink:href="#STIXGeneral-Italic-52" transform="translate(0 0.703125)"/>
      <use xlink:href="#STIXGeneral-Regular-31" transform="translate(61.099991 -12.525)scale(0.7)"/>
     </g>
    </g>
    <g clip-path="url(#p3414eefe0b)">
     <!-- 6Ω -->
     <g transform="translate(111.39167 43.700391)scale(0.125 -0.125)">
      <use xlink:href="#DejaVuSans-36"/>
      <use xlink:href="#DejaVuSans-3a9" x="63.623047"/>
     </g>
    </g>
   </g>
   <g id="text_10">
    <g clip-path="url(#p3414eefe0b)">
     <!-- $R_3$ -->
     <g transform="translate(236.2321 29.703125)scale(0.125 -0.125)">
      <use xlink:href="#STIXGeneral-Italic-52" transform="translate(0 0.703125)"/>
      <use xlink:href="#STIXGeneral-Regular-33" transform="translate(61.099991 -12.525)scale(0.7)"/>
     </g>
    </g>
    <g clip-path="url(#p3414eefe0b)">
     <!-- 14Ω -->
     <g transform="translate(229.815108 43.700391)scale(0.125 -0.125)">
      <use xlink:href="#DejaVuSans-31"/>
      <use xlink:href="#DejaVuSans-34" x="63.623047"/>
      <use xlink:href="#DejaVuSans-3a9" x="127.246094"/>
     </g>
    </g>
   </g>
   <g id="text_11">
    <g clip-path="url(#p3414eefe0b)">
     <!-- $R_2$ -->
     <g transform="translate(158.0096 114.660586)scale(0.125 -0.125)">
      <use xlink:href="#STIXGeneral-Italic-52" transform="translate(0 0.703125)"/>
      <use xlink:href="#STIXGeneral-Regular-32" transform="translate(61.099991 -12.525)scale(0.7)"/>
     </g>
    </g>
    <g clip-path="url(#p3414eefe0b)">
     <!-- 24Ω -->
     <g transform="translate(145.175616 128.657852)scale(0.125 -0.125)">
      <use xlink:href="#DejaVuSans-32"/>
      <use xlink:href="#DejaVuSans-34" x="63.623047"/>
      <use xlink:href="#DejaVuSans-3a9" x="127.246094"/>
     </g>
    </g>
   </g>
   <g id="text_12">
    <g clip-path="url(#p3414eefe0b)">
     <!-- $R_4$ -->
     <g transform="translate(280.4096 114.660586)scale(0.125 -0.125)">
      <use xlink:href="#STIXGeneral-Italic-52" transform="translate(0 0.703125)"/>
      <use xlink:href="#STIXGeneral-Regular-34" transform="translate(61.099991 -12.525)scale(0.7)"/>
     </g>
    </g>
    <g clip-path="url(#p3414eefe0b)">
     <!-- 10Ω -->
     <g transform="translate(267.575616 128.657852)scale(0.125 -0.125)">
      <use xlink:href="#DejaVuSans-31"/>
      <use xlink:href="#DejaVuSans-30" x="63.623047"/>
      <use xlink:href="#DejaVuSans-3a9" x="127.246094"/>
     </g>
    </g>
   </g>
   <g id="text_13">
    <g clip-path="url(#p3414eefe0b)">
     <!-- $I_1$ -->
     <g style="fill: #ff0000" transform="translate(119.4071 125.484219)scale(0.125 -0.125)">
      <use xlink:href="#STIXGeneral-Italic-49" transform="translate(0 0.703125)"/>
      <use xlink:href="#STIXGeneral-Regular-31" transform="translate(33.299988 -12.525)scale(0.7)"/>
     </g>
    </g>
   </g>
   <g id="text_14">
    <g clip-path="url(#p3414eefe0b)">
     <!-- $I_2$ -->
     <g style="fill: #0000ff" transform="translate(237.9821 125.484219)scale(0.125 -0.125)">
      <use xlink:href="#STIXGeneral-Italic-49" transform="translate(0 0.703125)"/>
      <use xlink:href="#STIXGeneral-Regular-32" transform="translate(33.299988 -12.525)scale(0.7)"/>
     </g>
    </g>
   </g>
   <g id="patch_12">
    <path d="M 181.3446 59.305 
C 181.953241 59.305 182.537036 59.063184 182.96741 58.63281 
C 183.397784 58.202436 183.6396 57.618641 183.6396 57.01 
C 183.6396 56.401359 183.397784 55.817564 182.96741 55.38719 
C 182.537036 54.956816 181.953241 54.715 181.3446 54.715 
C 180.735959 54.715 180.152164 54.956816 179.72179 55.38719 
C 179.291416 55.817564 179.0496 56.401359 179.0496 57.01 
C 179.0496 57.618641 179.291416 58.202436 179.72179 58.63281 
C 180.152164 59.063184 180.735959 59.305 181.3446 59.305 
z
" clip-path="url(#p3414eefe0b)" style="stroke: #000000; stroke-width: 2; stroke-linejoin: miter"/>
   </g>
   <g id="text_15">
    <g clip-path="url(#p3414eefe0b)">
     <!-- A -->
     <g transform="translate(177.069209 49.055391)scale(0.125 -0.125)">
      <defs>
       <path id="DejaVuSans-41" d="M 2188 4044 
L 1331 1722 
L 3047 1722 
L 2188 4044 
z
M 1831 4666 
L 2547 4666 
L 4325 0 
L 3669 0 
L 3244 1197 
L 1141 1197 
L 716 0 
L 50 0 
L 1831 4666 
z
" transform="scale(0.015625)"/>
      </defs>
      <use xlink:href="#DejaVuSans-41"/>
     </g>
    </g>
   </g>
   <g id="patch_13">
    <path d="M 303.7446 59.305 
C 304.353241 59.305 304.937036 59.063184 305.36741 58.63281 
C 305.797784 58.202436 306.0396 57.618641 306.0396 57.01 
C 306.0396 56.401359 305.797784 55.817564 305.36741 55.38719 
C 304.937036 54.956816 304.353241 54.715 303.7446 54.715 
C 303.135959 54.715 302.552164 54.956816 302.12179 55.38719 
C 301.691416 55.817564 301.4496 56.401359 301.4496 57.01 
C 301.4496 57.618641 301.691416 58.202436 302.12179 58.63281 
C 302.552164 59.063184 303.135959 59.305 303.7446 59.305 
z
" clip-path="url(#p3414eefe0b)" style="stroke: #000000; stroke-width: 2; stroke-linejoin: miter"/>
   </g>
   <g id="text_16">
    <g clip-path="url(#p3414eefe0b)">
     <!-- B -->
     <g transform="translate(299.456514 49.055391)scale(0.125 -0.125)">
      <defs>
       <path id="DejaVuSans-42" d="M 1259 2228 
L 1259 519 
L 2272 519 
Q 2781 519 3026 730 
Q 3272 941 3272 1375 
Q 3272 1813 3026 2020 
Q 2781 2228 2272 2228 
L 1259 2228 
z
M 1259 4147 
L 1259 2741 
L 2194 2741 
Q 2656 2741 2882 2914 
Q 3109 3088 3109 3444 
Q 3109 3797 2882 3972 
Q 2656 4147 2194 4147 
L 1259 4147 
z
M 628 4666 
L 2241 4666 
Q 2963 4666 3353 4366 
Q 3744 4066 3744 3513 
Q 3744 3084 3544 2831 
Q 3344 2578 2956 2516 
Q 3422 2416 3680 2098 
Q 3938 1781 3938 1306 
Q 3938 681 3513 340 
Q 3088 0 2303 0 
L 628 0 
L 628 4666 
z
" transform="scale(0.015625)"/>
      </defs>
      <use xlink:href="#DejaVuSans-42"/>
     </g>
    </g>
   </g>
   <g id="patch_14">
    <path d="M 181.3446 59.305 
C 181.953241 59.305 182.537036 59.063184 182.96741 58.63281 
C 183.397784 58.202436 183.6396 57.618641 183.6396 57.01 
C 183.6396 56.401359 183.397784 55.817564 182.96741 55.38719 
C 182.537036 54.956816 181.953241 54.715 181.3446 54.715 
C 180.735959 54.715 180.152164 54.956816 179.72179 55.38719 
C 179.291416 55.817564 179.0496 56.401359 179.0496 57.01 
C 179.0496 57.618641 179.291416 58.202436 179.72179 58.63281 
C 180.152164 59.063184 180.735959 59.305 181.3446 59.305 
z
" clip-path="url(#p3414eefe0b)" style="stroke: #000000; stroke-width: 2; stroke-linejoin: miter"/>
   </g>
   <g id="text_17">
    <g clip-path="url(#p3414eefe0b)">
     <!-- A -->
     <g transform="translate(177.069209 49.055391)scale(0.125 -0.125)">
      <use xlink:href="#DejaVuSans-41"/>
     </g>
    </g>
   </g>
   <g id="patch_15">
    <path d="M 303.7446 59.305 
C 304.353241 59.305 304.937036 59.063184 305.36741 58.63281 
C 305.797784 58.202436 306.0396 57.618641 306.0396 57.01 
C 306.0396 56.401359 305.797784 55.817564 305.36741 55.38719 
C 304.937036 54.956816 304.353241 54.715 303.7446 54.715 
C 303.135959 54.715 302.552164 54.956816 302.12179 55.38719 
C 301.691416 55.817564 301.4496 56.401359 301.4496 57.01 
C 301.4496 57.618641 301.691416 58.202436 302.12179 58.63281 
C 302.552164 59.063184 303.135959 59.305 303.7446 59.305 
z
" clip-path="url(#p3414eefe0b)" style="stroke: #000000; stroke-width: 2; stroke-linejoin: miter"/>
   </g>
   <g id="text_18">
    <g clip-path="url(#p3414eefe0b)">
     <!-- B -->
     <g transform="translate(299.456514 49.055391)scale(0.125 -0.125)">
      <use xlink:href="#DejaVuSans-42"/>
     </g>
    </g>
   </g>
  </g>
 </g>
 <defs>
  <clipPath id="p3414eefe0b">
   <rect x="7.2" y="7.2" width="315.843" height="195.16"/>
  </clipPath>
 </defs>
</svg>
