<?xml version="1.0" encoding="utf-8" standalone="no"?>
<!DOCTYPE svg PUBLIC "-//W3C//DTD SVG 1.1//EN"
  "http://www.w3.org/Graphics/SVG/1.1/DTD/svg11.dtd">
<svg xmlns:xlink="http://www.w3.org/1999/xlink" width="369.979688pt" height="222.114922pt" viewBox="0 0 369.979688 222.114922" xmlns="http://www.w3.org/2000/svg" version="1.1">
 <metadata>
  <rdf:RDF xmlns:dc="http://purl.org/dc/elements/1.1/" xmlns:cc="http://creativecommons.org/ns#" xmlns:rdf="http://www.w3.org/1999/02/22-rdf-syntax-ns#">
   <cc:Work>
    <dc:type rdf:resource="http://purl.org/dc/dcmitype/StillImage"/>
    <dc:date>2024-03-15T17:19:56.859748</dc:date>
    <dc:format>image/svg+xml</dc:format>
    <dc:creator>
     <cc:Agent>
      <dc:title>Matplotlib v3.8.2, https://matplotlib.org/</dc:title>
     </cc:Agent>
    </dc:creator>
   </cc:Work>
  </rdf:RDF>
 </metadata>
 <defs>
  <style type="text/css">*{stroke-linejoin: round; stroke-linecap: butt}</style>
 </defs>
 <g id="figure_1">
  <g id="patch_1">
   <path d="M 0 222.114922 
L 369.979688 222.114922 
L 369.979688 0 
L 0 0 
L 0 222.114922 
z
" style="fill: none"/>
  </g>
  <g id="axes_1">
   <g id="patch_2">
    <path d="M 53.629687 132.294922 
C 58.403343 132.294922 62.982125 130.398328 66.35761 127.022844 
C 69.733094 123.64736 71.629687 119.068578 71.629687 114.294922 
C 71.629687 109.521266 69.733094 104.942484 66.35761 101.567 
C 62.982125 98.191515 58.403343 96.294922 53.629687 96.294922 
C 48.856032 96.294922 44.27725 98.191515 40.901765 101.567 
C 37.526281 104.942484 35.629687 109.521266 35.629687 114.294922 
C 35.629687 119.068578 37.526281 123.64736 40.901765 127.022844 
C 44.27725 130.398328 48.856032 132.294922 53.629687 132.294922 
L 53.629687 132.294922 
z
" clip-path="url(#p877fb3f032)" style="fill: none; stroke: #000000; stroke-width: 2; stroke-linejoin: miter"/>
   </g>
   <g id="patch_3">
    <path d="M 157.793262 99.424679 
C 156.130446 95.499077 153.973561 91.954363 151.410232 88.934546 
C 148.846904 85.914728 145.91232 83.461262 142.725704 81.673824 
C 139.539087 79.886385 136.144182 78.789511 132.678911 78.427763 
C 129.21364 78.066015 125.725574 78.44436 122.356419 79.547426 
C 118.987264 80.650493 115.783272 82.463138 112.874609 84.911721 
C 109.965945 87.360305 107.392541 90.411212 105.258942 93.940498 
C 103.125343 97.469783 101.460841 101.428996 100.333056 105.65729 
C 99.205272 109.885583 98.629687 114.324912 98.629687 118.794922 
C 98.629687 123.264932 99.205272 127.70426 100.333056 131.932554 
C 101.460841 136.160847 103.125343 140.120061 105.258942 143.649346 
C 107.392541 147.178631 109.965945 150.229539 112.874609 152.678122 
C 115.783272 155.126706 118.987264 156.939351 122.356419 158.042418 
C 125.725574 159.145484 129.21364 159.523829 132.678911 159.162081 
C 136.144182 158.800333 139.539087 157.703459 142.725704 155.91602 
C 145.91232 154.128581 148.846904 151.675116 151.410232 148.655298 
C 153.973561 145.635481 156.130446 142.090767 157.793262 138.165165 
" clip-path="url(#p877fb3f032)" style="fill: none; stroke: #ff0000; stroke-width: 2; stroke-linejoin: miter"/>
   </g>
   <g id="patch_4">
    <path d="M 162.26994 107.644712 
L 155.594278 101.032183 
L 157.949634 99.749443 
L 157.777454 99.433288 
L 157.809069 99.41607 
L 157.981249 99.732225 
L 160.336605 98.449484 
z
" clip-path="url(#p877fb3f032)" style="fill: #ff0000; stroke: #ff0000; stroke-linejoin: miter"/>
   </g>
   <g id="patch_5">
    <path d="M 300.193196 97.394123 
C 298.139932 93.68285 295.566039 90.369923 292.571572 87.584131 
C 289.577106 84.798338 286.201378 82.57625 282.575615 81.004249 
C 278.949853 79.432247 275.121656 78.530969 271.23984 78.335451 
C 267.358025 78.139933 263.473552 78.652742 259.737425 79.853942 
C 256.001299 81.055142 252.462567 82.928964 249.258794 85.402566 
C 246.055021 87.876168 243.228266 90.917076 240.888415 94.407079 
C 238.548565 97.897081 236.726337 101.790361 235.492568 105.935571 
C 234.2588 110.080782 233.629687 114.423505 233.629687 118.794922 
C 233.629687 123.166339 234.2588 127.509062 235.492568 131.654272 
C 236.726337 135.799483 238.548565 139.692763 240.888415 143.182765 
C 243.228266 146.672768 246.055021 149.713676 249.258794 152.187278 
C 252.462567 154.660879 256.001299 156.534702 259.737425 157.735902 
C 263.473552 158.937102 267.358025 159.44991 271.23984 159.254392 
C 275.121656 159.058874 278.949853 158.157597 282.575615 156.585595 
C 286.201378 155.013594 289.577106 152.791506 292.571572 150.005713 
C 295.566039 147.21992 298.139932 143.906994 300.193196 140.195721 
" clip-path="url(#p877fb3f032)" style="fill: none; stroke: #0000ff; stroke-width: 2; stroke-linejoin: miter"/>
   </g>
   <g id="patch_6">
    <path d="M 305.139158 105.340635 
L 298.091162 99.126478 
L 300.368143 97.709269 
L 300.177914 97.403634 
L 300.208478 97.384611 
L 300.398707 97.690247 
L 302.675688 96.273038 
z
" clip-path="url(#p877fb3f032)" style="fill: #0000ff; stroke: #0000ff; stroke-linejoin: miter"/>
   </g>
   <g id="line2d_1">
    <path d="M 53.629687 186.294922 
L 53.629687 132.294922 
L 53.629687 132.294922 
M 53.629687 96.294922 
L 53.629687 96.294922 
L 53.629687 42.294922 
" clip-path="url(#p877fb3f032)" style="fill: none; stroke: #000000; stroke-width: 2; stroke-linecap: round"/>
   </g>
   <g id="line2d_2">
    <path d="M 57.229687 123.294922 
L 50.029687 123.294922 
" clip-path="url(#p877fb3f032)" style="fill: none; stroke: #000000; stroke-width: 2; stroke-linecap: round"/>
   </g>
   <g id="line2d_3">
    <path d="M 53.629687 108.894922 
L 53.629687 101.694922 
" clip-path="url(#p877fb3f032)" style="fill: none; stroke: #000000; stroke-width: 2; stroke-linecap: round"/>
   </g>
   <g id="line2d_4">
    <path d="M 57.229687 105.294922 
L 50.029687 105.294922 
" clip-path="url(#p877fb3f032)" style="fill: none; stroke: #000000; stroke-width: 2; stroke-linecap: round"/>
   </g>
   <g id="line2d_5">
    <path d="M 53.629687 42.294922 
L 107.629687 42.294922 
L 110.629687 33.294922 
L 116.629687 51.294922 
L 122.629687 33.294922 
L 128.629687 51.294922 
L 134.629687 33.294922 
L 140.629687 51.294922 
L 143.629687 42.294922 
L 197.629687 42.294922 
" clip-path="url(#p877fb3f032)" style="fill: none; stroke: #000000; stroke-width: 2; stroke-linecap: round"/>
   </g>
   <g id="line2d_6">
    <path d="M 197.629687 42.294922 
L 251.629687 42.294922 
L 254.629687 33.294922 
L 260.629687 51.294922 
L 266.629687 33.294922 
L 272.629687 51.294922 
L 278.629687 33.294922 
L 284.629687 51.294922 
L 287.629687 42.294922 
L 341.629687 42.294922 
" clip-path="url(#p877fb3f032)" style="fill: none; stroke: #000000; stroke-width: 2; stroke-linecap: round"/>
   </g>
   <g id="line2d_7">
    <path d="M 197.629687 42.294922 
L 197.629687 96.294922 
L 206.629687 99.294922 
L 188.629687 105.294922 
L 206.629687 111.294922 
L 188.629687 117.294922 
L 206.629687 123.294922 
L 188.629687 129.294922 
L 197.629687 132.294922 
L 197.629687 186.294922 
" clip-path="url(#p877fb3f032)" style="fill: none; stroke: #000000; stroke-width: 2; stroke-linecap: round"/>
   </g>
   <g id="line2d_8">
    <path d="M 341.629687 42.294922 
L 341.629687 96.294922 
L 350.629687 99.294922 
L 332.629687 105.294922 
L 350.629687 111.294922 
L 332.629687 117.294922 
L 350.629687 123.294922 
L 332.629687 129.294922 
L 341.629687 132.294922 
L 341.629687 186.294922 
" clip-path="url(#p877fb3f032)" style="fill: none; stroke: #000000; stroke-width: 2; stroke-linecap: round"/>
   </g>
   <g id="line2d_9">
    <path d="M 341.629687 186.294922 
L 197.629687 186.294922 
L 53.629687 186.294922 
" clip-path="url(#p877fb3f032)" style="fill: none; stroke: #000000; stroke-width: 2; stroke-linecap: round"/>
   </g>
   <g id="line2d_10">
    <path d="M 53.629687 186.294922 
L 53.629687 200.694922 
L 44.629687 200.694922 
L 53.629687 209.694922 
L 62.629687 200.694922 
L 53.629687 200.694922 
" clip-path="url(#p877fb3f032)" style="fill: none; stroke: #000000; stroke-width: 2; stroke-linecap: round"/>
   </g>
   <g id="text_1">
    <!-- $V_S$ -->
    <g transform="translate(19.404687 110.745508) scale(0.125 -0.125)">
     <defs>
      <path id="STIXGeneral-Italic-56" d="M 4403 4179 
L 4403 4077 
Q 4198 4070 4045 3821 
L 1658 -115 
L 1536 -115 
L 1011 3104 
Q 902 3776 828 3910 
Q 755 4045 486 4077 
L 486 4179 
L 2022 4179 
L 2022 4077 
Q 1722 4045 1629 3981 
Q 1536 3917 1536 3750 
Q 1536 3686 1542 3654 
L 1958 819 
L 3302 3123 
Q 3616 3661 3616 3859 
Q 3616 4032 3219 4077 
L 3219 4179 
L 4403 4179 
z
" transform="scale(0.015625)"/>
      <path id="STIXGeneral-Italic-53" d="M 3251 4269 
L 2995 2989 
L 2880 3008 
Q 2880 3539 2720 3795 
Q 2560 4051 2118 4051 
Q 1786 4051 1594 3881 
Q 1402 3712 1402 3411 
Q 1402 3168 1504 3005 
Q 1606 2842 2035 2413 
Q 2464 1978 2611 1715 
Q 2758 1453 2758 1133 
Q 2758 589 2390 237 
Q 2022 -115 1466 -115 
Q 1222 -115 800 32 
Q 595 109 499 109 
Q 288 109 224 -96 
L 109 -96 
L 326 1338 
L 454 1325 
Q 442 1267 442 1178 
Q 442 710 701 409 
Q 960 109 1363 109 
Q 1734 109 1968 336 
Q 2202 563 2202 928 
Q 2202 1139 2118 1308 
Q 2035 1478 1818 1715 
L 1568 1984 
Q 1549 2003 1459 2102 
Q 1370 2202 1318 2253 
Q 1030 2560 934 2755 
Q 838 2950 838 3213 
Q 838 3699 1168 3980 
Q 1498 4262 1978 4262 
Q 2310 4262 2522 4173 
Q 2707 4102 2816 4102 
Q 2925 4102 2982 4134 
Q 3040 4166 3104 4269 
L 3251 4269 
z
" transform="scale(0.015625)"/>
     </defs>
     <use xlink:href="#STIXGeneral-Italic-56" transform="translate(0 0.703125)"/>
     <use xlink:href="#STIXGeneral-Italic-53" transform="translate(61.099991 -12.525) scale(0.7)"/>
    </g>
    <!-- 21 V -->
    <g transform="translate(3.6 124.742773) scale(0.125 -0.125)">
     <defs>
      <path id="DejaVuSans-32" d="M 1228 531 
L 3431 531 
L 3431 0 
L 469 0 
L 469 531 
Q 828 903 1448 1529 
Q 2069 2156 2228 2338 
Q 2531 2678 2651 2914 
Q 2772 3150 2772 3378 
Q 2772 3750 2511 3984 
Q 2250 4219 1831 4219 
Q 1534 4219 1204 4116 
Q 875 4013 500 3803 
L 500 4441 
Q 881 4594 1212 4672 
Q 1544 4750 1819 4750 
Q 2544 4750 2975 4387 
Q 3406 4025 3406 3419 
Q 3406 3131 3298 2873 
Q 3191 2616 2906 2266 
Q 2828 2175 2409 1742 
Q 1991 1309 1228 531 
z
" transform="scale(0.015625)"/>
      <path id="DejaVuSans-31" d="M 794 531 
L 1825 531 
L 1825 4091 
L 703 3866 
L 703 4441 
L 1819 4666 
L 2450 4666 
L 2450 531 
L 3481 531 
L 3481 0 
L 794 0 
L 794 531 
z
" transform="scale(0.015625)"/>
      <path id="DejaVuSans-20" transform="scale(0.015625)"/>
      <path id="DejaVuSans-56" d="M 1831 0 
L 50 4666 
L 709 4666 
L 2188 738 
L 3669 4666 
L 4325 4666 
L 2547 0 
L 1831 0 
z
" transform="scale(0.015625)"/>
     </defs>
     <use xlink:href="#DejaVuSans-32"/>
     <use xlink:href="#DejaVuSans-31" x="63.623047"/>
     <use xlink:href="#DejaVuSans-20" x="127.246094"/>
     <use xlink:href="#DejaVuSans-56" x="159.033203"/>
    </g>
   </g>
   <g id="text_2">
    <!-- $R_1$ -->
    <g transform="translate(119.317188 13.098047) scale(0.125 -0.125)">
     <defs>
      <path id="STIXGeneral-Italic-52" d="M 845 4179 
L 2458 4179 
Q 3078 4179 3420 3936 
Q 3763 3693 3763 3277 
Q 3763 2778 3341 2458 
Q 3091 2266 2502 2131 
L 3072 627 
Q 3181 333 3299 217 
Q 3418 102 3629 102 
L 3629 0 
L 2688 0 
L 1901 2074 
L 1478 2106 
L 1126 806 
Q 1043 512 1043 403 
Q 1043 256 1126 192 
Q 1210 128 1472 102 
L 1472 0 
L -83 0 
L -83 102 
Q 173 134 278 243 
Q 384 352 461 646 
L 1222 3405 
Q 1299 3699 1299 3808 
Q 1299 3923 1210 3987 
Q 1133 4038 845 4077 
L 845 4179 
z
M 1958 3795 
L 1555 2342 
Q 1754 2310 1882 2310 
Q 2451 2310 2771 2566 
Q 3091 2822 3091 3270 
Q 3091 3603 2892 3795 
Q 2694 3987 2323 3987 
Q 2010 3987 1958 3795 
z
" transform="scale(0.015625)"/>
      <path id="STIXGeneral-Regular-31" d="M 2522 0 
L 755 0 
L 755 96 
Q 1107 115 1235 227 
Q 1363 339 1363 608 
L 1363 3482 
Q 1363 3795 1171 3795 
Q 1082 3795 883 3718 
L 710 3654 
L 710 3744 
L 1856 4326 
L 1914 4307 
L 1914 486 
Q 1914 275 2042 185 
Q 2170 96 2522 96 
L 2522 0 
z
" transform="scale(0.015625)"/>
     </defs>
     <use xlink:href="#STIXGeneral-Italic-52" transform="translate(0 0.703125)"/>
     <use xlink:href="#STIXGeneral-Regular-31" transform="translate(61.099991 -12.525) scale(0.7)"/>
    </g>
    <!-- 6立 -->
    <g transform="translate(116.876758 27.095312) scale(0.125 -0.125)">
     <defs>
      <path id="DejaVuSans-36" d="M 2113 2584 
Q 1688 2584 1439 2293 
Q 1191 2003 1191 1497 
Q 1191 994 1439 701 
Q 1688 409 2113 409 
Q 2538 409 2786 701 
Q 3034 994 3034 1497 
Q 3034 2003 2786 2293 
Q 2538 2584 2113 2584 
z
M 3366 4563 
L 3366 3988 
Q 3128 4100 2886 4159 
Q 2644 4219 2406 4219 
Q 1781 4219 1451 3797 
Q 1122 3375 1075 2522 
Q 1259 2794 1537 2939 
Q 1816 3084 2150 3084 
Q 2853 3084 3261 2657 
Q 3669 2231 3669 1497 
Q 3669 778 3244 343 
Q 2819 -91 2113 -91 
Q 1303 -91 875 529 
Q 447 1150 447 2328 
Q 447 3434 972 4092 
Q 1497 4750 2381 4750 
Q 2619 4750 2861 4703 
Q 3103 4656 3366 4563 
z
" transform="scale(0.015625)"/>
      <path id="DejaVuSans-3a9" d="M 4647 556 
L 4647 0 
L 2772 0 
L 2772 556 
Q 3325 859 3634 1378 
Q 3944 1897 3944 2528 
Q 3944 3278 3531 3731 
Q 3119 4184 2444 4184 
Q 1769 4184 1355 3729 
Q 941 3275 941 2528 
Q 941 1897 1250 1378 
Q 1563 859 2119 556 
L 2119 0 
L 244 0 
L 244 556 
L 1241 556 
Q 747 991 519 1456 
Q 294 1922 294 2497 
Q 294 3491 894 4106 
Q 1491 4722 2444 4722 
Q 3391 4722 3994 4106 
Q 4594 3494 4594 2528 
Q 4594 1922 4372 1459 
Q 4150 997 3647 556 
L 4647 556 
z
" transform="scale(0.015625)"/>
     </defs>
     <use xlink:href="#DejaVuSans-36"/>
     <use xlink:href="#DejaVuSans-3a9" x="63.623047"/>
    </g>
   </g>
   <g id="text_3">
    <!-- + -->
    <g style="fill: #ff0000" transform="translate(84.392383 64.392969) scale(0.125 -0.125)">
     <defs>
      <path id="DejaVuSans-2b" d="M 2944 4013 
L 2944 2272 
L 4684 2272 
L 4684 1741 
L 2944 1741 
L 2944 0 
L 2419 0 
L 2419 1741 
L 678 1741 
L 678 2272 
L 2419 2272 
L 2419 4013 
L 2944 4013 
z
" transform="scale(0.015625)"/>
     </defs>
     <use xlink:href="#DejaVuSans-2b"/>
    </g>
   </g>
   <g id="text_4">
    <!-- - -->
    <g style="fill: #ff0000" transform="translate(159.374805 64.392969) scale(0.125 -0.125)">
     <defs>
      <path id="DejaVuSans-2d" d="M 313 2009 
L 1997 2009 
L 1997 1497 
L 313 1497 
L 313 2009 
z
" transform="scale(0.015625)"/>
     </defs>
     <use xlink:href="#DejaVuSans-2d"/>
    </g>
   </g>
   <g id="text_5">
    <!-- $R_3$ -->
    <g transform="translate(263.317187 13.098047) scale(0.125 -0.125)">
     <defs>
      <path id="STIXGeneral-Regular-33" d="M 390 3264 
L 288 3290 
Q 435 3770 748 4048 
Q 1062 4326 1542 4326 
Q 1990 4326 2265 4083 
Q 2541 3840 2541 3450 
Q 2541 2925 1946 2566 
Q 2298 2413 2477 2227 
Q 2758 1914 2758 1402 
Q 2758 890 2464 506 
Q 2246 211 1840 60 
Q 1434 -90 979 -90 
Q 262 -90 262 275 
Q 262 378 339 442 
Q 416 506 525 506 
Q 685 506 915 339 
Q 1197 141 1466 141 
Q 1818 141 2058 425 
Q 2298 710 2298 1120 
Q 2298 1856 1632 2048 
Q 1434 2112 979 2112 
L 979 2202 
Q 1338 2323 1517 2432 
Q 2035 2726 2035 3290 
Q 2035 3610 1852 3776 
Q 1670 3942 1344 3942 
Q 768 3942 390 3264 
z
" transform="scale(0.015625)"/>
     </defs>
     <use xlink:href="#STIXGeneral-Italic-52" transform="translate(0 0.703125)"/>
     <use xlink:href="#STIXGeneral-Regular-33" transform="translate(61.099991 -12.525) scale(0.7)"/>
    </g>
    <!-- 14立 -->
    <g transform="translate(256.900195 27.095312) scale(0.125 -0.125)">
     <defs>
      <path id="DejaVuSans-34" d="M 2419 4116 
L 825 1625 
L 2419 1625 
L 2419 4116 
z
M 2253 4666 
L 3047 4666 
L 3047 1625 
L 3713 1625 
L 3713 1100 
L 3047 1100 
L 3047 0 
L 2419 0 
L 2419 1100 
L 313 1100 
L 313 1709 
L 2253 4666 
z
" transform="scale(0.015625)"/>
     </defs>
     <use xlink:href="#DejaVuSans-31"/>
     <use xlink:href="#DejaVuSans-34" x="63.623047"/>
     <use xlink:href="#DejaVuSans-3a9" x="127.246094"/>
    </g>
   </g>
   <g id="text_6">
    <!-- + -->
    <g style="fill: #0000ff" transform="translate(228.392383 64.392969) scale(0.125 -0.125)">
     <use xlink:href="#DejaVuSans-2b"/>
    </g>
   </g>
   <g id="text_7">
    <!-- - -->
    <g style="fill: #0000ff" transform="translate(303.374805 64.392969) scale(0.125 -0.125)">
     <use xlink:href="#DejaVuSans-2d"/>
    </g>
   </g>
   <g id="text_8">
    <!-- $R_2$ -->
    <g transform="translate(172.404687 110.745508) scale(0.125 -0.125)">
     <defs>
      <path id="STIXGeneral-Regular-32" d="M 3034 877 
L 2688 0 
L 186 0 
L 186 77 
L 1325 1286 
Q 1773 1754 1965 2144 
Q 2157 2534 2157 2950 
Q 2157 3379 1920 3616 
Q 1683 3853 1267 3853 
Q 922 3853 720 3673 
Q 518 3494 326 3021 
L 192 3053 
Q 301 3648 630 3987 
Q 960 4326 1523 4326 
Q 2054 4326 2380 4006 
Q 2707 3686 2707 3200 
Q 2707 2477 1888 1613 
L 832 486 
L 2330 486 
Q 2541 486 2665 569 
Q 2790 653 2944 915 
L 3034 877 
z
" transform="scale(0.015625)"/>
     </defs>
     <use xlink:href="#STIXGeneral-Italic-52" transform="translate(0 0.703125)"/>
     <use xlink:href="#STIXGeneral-Regular-32" transform="translate(61.099991 -12.525) scale(0.7)"/>
    </g>
    <!-- 24立 -->
    <g transform="translate(159.570703 124.742773) scale(0.125 -0.125)">
     <use xlink:href="#DejaVuSans-32"/>
     <use xlink:href="#DejaVuSans-34" x="63.623047"/>
     <use xlink:href="#DejaVuSans-3a9" x="127.246094"/>
    </g>
   </g>
   <g id="text_9">
    <!-- + -->
    <g style="fill: #ff0000" transform="translate(174.555078 81.744141) scale(0.125 -0.125)">
     <use xlink:href="#DejaVuSans-2b"/>
    </g>
   </g>
   <g id="text_10">
    <!-- - -->
    <g style="fill: #ff0000" transform="translate(180.519922 153.744141) scale(0.125 -0.125)">
     <use xlink:href="#DejaVuSans-2d"/>
    </g>
   </g>
   <g id="text_11">
    <!-- $R_4$ -->
    <g transform="translate(316.404687 110.745508) scale(0.125 -0.125)">
     <defs>
      <path id="STIXGeneral-Regular-34" d="M 3027 1069 
L 2368 1069 
L 2368 0 
L 1869 0 
L 1869 1069 
L 77 1069 
L 77 1478 
L 2086 4326 
L 2368 4326 
L 2368 1478 
L 3027 1478 
L 3027 1069 
z
M 1869 1478 
L 1869 3674 
L 333 1478 
L 1869 1478 
z
" transform="scale(0.015625)"/>
     </defs>
     <use xlink:href="#STIXGeneral-Italic-52" transform="translate(0 0.703125)"/>
     <use xlink:href="#STIXGeneral-Regular-34" transform="translate(61.099991 -12.525) scale(0.7)"/>
    </g>
    <!-- 10立 -->
    <g transform="translate(303.570703 124.742773) scale(0.125 -0.125)">
     <defs>
      <path id="DejaVuSans-30" d="M 2034 4250 
Q 1547 4250 1301 3770 
Q 1056 3291 1056 2328 
Q 1056 1369 1301 889 
Q 1547 409 2034 409 
Q 2525 409 2770 889 
Q 3016 1369 3016 2328 
Q 3016 3291 2770 3770 
Q 2525 4250 2034 4250 
z
M 2034 4750 
Q 2819 4750 3233 4129 
Q 3647 3509 3647 2328 
Q 3647 1150 3233 529 
Q 2819 -91 2034 -91 
Q 1250 -91 836 529 
Q 422 1150 422 2328 
Q 422 3509 836 4129 
Q 1250 4750 2034 4750 
z
" transform="scale(0.015625)"/>
     </defs>
     <use xlink:href="#DejaVuSans-31"/>
     <use xlink:href="#DejaVuSans-30" x="63.623047"/>
     <use xlink:href="#DejaVuSans-3a9" x="127.246094"/>
    </g>
   </g>
   <g id="text_12">
    <!-- + -->
    <g style="fill: #0000ff" transform="translate(318.555078 81.744141) scale(0.125 -0.125)">
     <use xlink:href="#DejaVuSans-2b"/>
    </g>
   </g>
   <g id="text_13">
    <!-- - -->
    <g style="fill: #0000ff" transform="translate(324.519922 153.744141) scale(0.125 -0.125)">
     <use xlink:href="#DejaVuSans-2d"/>
    </g>
   </g>
   <g id="text_14">
    <!-- $I_1$ -->
    <g style="fill: #ff0000" transform="translate(125.567187 122.244141) scale(0.125 -0.125)">
     <defs>
      <path id="STIXGeneral-Italic-49" d="M 2458 4179 
L 2458 4077 
Q 2189 4045 2102 3961 
Q 2016 3878 1933 3584 
L 1165 838 
Q 1069 499 1069 352 
Q 1069 224 1149 179 
Q 1229 134 1510 102 
L 1510 0 
L -51 0 
L -51 102 
Q 218 154 317 237 
Q 416 320 486 582 
L 1254 3405 
Q 1338 3699 1338 3802 
Q 1338 3930 1235 3997 
Q 1133 4064 877 4077 
L 877 4179 
L 2458 4179 
z
" transform="scale(0.015625)"/>
     </defs>
     <use xlink:href="#STIXGeneral-Italic-49" transform="translate(0 0.703125)"/>
     <use xlink:href="#STIXGeneral-Regular-31" transform="translate(33.299988 -12.525) scale(0.7)"/>
    </g>
   </g>
   <g id="text_15">
    <!-- $I_2$ -->
    <g style="fill: #0000ff" transform="translate(265.067187 122.244141) scale(0.125 -0.125)">
     <use xlink:href="#STIXGeneral-Italic-49" transform="translate(0 0.703125)"/>
     <use xlink:href="#STIXGeneral-Regular-32" transform="translate(33.299988 -12.525) scale(0.7)"/>
    </g>
   </g>
   <g id="patch_7">
    <path d="M 197.629687 44.994922 
C 198.345736 44.994922 199.032553 44.710433 199.538876 44.20411 
C 200.045198 43.697788 200.329687 43.01097 200.329687 42.294922 
C 200.329687 41.578874 200.045198 40.892056 199.538876 40.385734 
C 199.032553 39.879411 198.345736 39.594922 197.629687 39.594922 
C 196.913639 39.594922 196.226822 39.879411 195.720499 40.385734 
C 195.214177 40.892056 194.929688 41.578874 194.929688 42.294922 
C 194.929688 43.01097 195.214177 43.697788 195.720499 44.20411 
C 196.226822 44.710433 196.913639 44.994922 197.629687 44.994922 
z
" clip-path="url(#p877fb3f032)" style="stroke: #000000; stroke-width: 2; stroke-linejoin: miter"/>
   </g>
   <g id="text_16">
    <!-- A -->
    <g transform="translate(193.354297 33.395312) scale(0.125 -0.125)">
     <defs>
      <path id="DejaVuSans-41" d="M 2188 4044 
L 1331 1722 
L 3047 1722 
L 2188 4044 
z
M 1831 4666 
L 2547 4666 
L 4325 0 
L 3669 0 
L 3244 1197 
L 1141 1197 
L 716 0 
L 50 0 
L 1831 4666 
z
" transform="scale(0.015625)"/>
     </defs>
     <use xlink:href="#DejaVuSans-41"/>
    </g>
   </g>
  </g>
 </g>
 <defs>
  <clipPath id="p877fb3f032">
   <rect x="19.879687" y="24.474922" width="346.5" height="194.04"/>
  </clipPath>
 </defs>
</svg>
