<?xml version="1.0" encoding="utf-8" standalone="no"?>
<!DOCTYPE svg PUBLIC "-//W3C//DTD SVG 1.1//EN"
  "http://www.w3.org/Graphics/SVG/1.1/DTD/svg11.dtd">
<svg xmlns:xlink="http://www.w3.org/1999/xlink" width="351.5202pt" height="155.67pt" viewBox="0 0 351.5202 155.67" xmlns="http://www.w3.org/2000/svg" version="1.1">
 <metadata>
  <rdf:RDF xmlns:dc="http://purl.org/dc/elements/1.1/" xmlns:cc="http://creativecommons.org/ns#" xmlns:rdf="http://www.w3.org/1999/02/22-rdf-syntax-ns#">
   <cc:Work>
    <dc:type rdf:resource="http://purl.org/dc/dcmitype/StillImage"/>
    <dc:date>2023-03-17T16:05:29.175103</dc:date>
    <dc:format>image/svg+xml</dc:format>
    <dc:creator>
     <cc:Agent>
      <dc:title>Matplotlib v3.5.2, https://matplotlib.org/</dc:title>
     </cc:Agent>
    </dc:creator>
   </cc:Work>
  </rdf:RDF>
 </metadata>
 <defs>
  <style type="text/css">*{stroke-linejoin: round; stroke-linecap: butt}</style>
 </defs>
 <g id="figure_1">
  <g id="patch_1">
   <path d="M 0 155.67 
L 351.5202 155.67 
L 351.5202 0 
L 0 0 
L 0 155.67 
z
" style="fill: none"/>
  </g>
  <g id="axes_1">
   <g id="patch_2">
    <path d="M 111.0666 103.93 
C 115.124207 103.93 119.016172 102.317895 121.885334 99.448734 
C 124.754495 96.579572 126.3666 92.687607 126.3666 88.63 
C 126.3666 84.572393 124.754495 80.680428 121.885334 77.811266 
C 119.016172 74.942105 115.124207 73.33 111.0666 73.33 
C 107.008993 73.33 103.117028 74.942105 100.247866 77.811266 
C 97.378705 80.680428 95.7666 84.572393 95.7666 88.63 
C 95.7666 92.687607 97.378705 96.579572 100.247866 99.448734 
C 103.117028 102.317895 107.008993 103.93 111.0666 103.93 
L 111.0666 103.93 
z
" clip-path="url(#p18ce7b0db2)" style="fill: none; stroke: #000000; stroke-width: 2; stroke-linejoin: miter"/>
   </g>
   <g id="patch_3">
    <path d="M 149.3166 42.73 
C 149.3166 41.715936 148.913335 40.742368 148.196283 40.025317 
C 147.479232 39.308265 146.505664 38.905 145.4916 38.905 
C 144.477536 38.905 143.503968 39.308265 142.786917 40.025317 
C 142.069865 40.742368 141.6666 41.715936 141.6666 42.73 
" clip-path="url(#p18ce7b0db2)" style="fill: none; stroke: #000000; stroke-width: 2; stroke-linejoin: miter"/>
   </g>
   <g id="patch_4">
    <path d="M 156.9666 42.73 
C 156.9666 41.715936 156.563335 40.742368 155.846283 40.025317 
C 155.129232 39.308265 154.155664 38.905 153.1416 38.905 
C 152.127536 38.905 151.153968 39.308265 150.436917 40.025317 
C 149.719865 40.742368 149.3166 41.715936 149.3166 42.73 
" clip-path="url(#p18ce7b0db2)" style="fill: none; stroke: #000000; stroke-width: 2; stroke-linejoin: miter"/>
   </g>
   <g id="patch_5">
    <path d="M 164.6166 42.73 
C 164.6166 41.715936 164.213335 40.742368 163.496283 40.025317 
C 162.779232 39.308265 161.805664 38.905 160.7916 38.905 
C 159.777536 38.905 158.803968 39.308265 158.086917 40.025317 
C 157.369865 40.742368 156.9666 41.715936 156.9666 42.73 
" clip-path="url(#p18ce7b0db2)" style="fill: none; stroke: #000000; stroke-width: 2; stroke-linejoin: miter"/>
   </g>
   <g id="patch_6">
    <path d="M 172.2666 42.73 
C 172.2666 41.715936 171.863335 40.742368 171.146283 40.025317 
C 170.429232 39.308265 169.455664 38.905 168.4416 38.905 
C 167.427536 38.905 166.453968 39.308265 165.736917 40.025317 
C 165.019865 40.742368 164.6166 41.715936 164.6166 42.73 
" clip-path="url(#p18ce7b0db2)" style="fill: none; stroke: #000000; stroke-width: 2; stroke-linejoin: miter"/>
   </g>
   <g id="patch_7">
    <path d="M 178.312274 76.361892 
C 177.438276 73.166503 176.229211 70.233608 174.737428 67.690193 
C 173.245646 65.146778 171.492991 63.030089 169.555349 61.431773 
C 167.617707 59.833456 165.523453 58.776918 163.363262 58.307903 
C 161.203071 57.838888 159.008576 57.964264 156.874795 58.678604 
C 154.741013 59.392944 152.699191 60.685786 150.837733 62.501154 
C 148.976276 64.316523 147.322442 66.627833 145.947838 69.335011 
C 144.573235 72.042189 143.497991 75.105592 142.768662 78.392583 
C 142.039334 81.679573 141.6666 85.142017 141.6666 88.63 
C 141.6666 92.117983 142.039334 95.580427 142.768662 98.867417 
C 143.497991 102.154408 144.573235 105.217811 145.947838 107.924989 
C 147.322442 110.632167 148.976276 112.943477 150.837733 114.758846 
C 152.699191 116.574214 154.741013 117.867056 156.874795 118.581396 
C 159.008576 119.295736 161.203071 119.421112 163.363262 118.952097 
C 165.523453 118.483082 167.617707 117.426544 169.555349 115.828227 
C 171.492991 114.229911 173.245646 112.113222 174.737428 109.569807 
C 176.229211 107.026392 177.438276 104.093497 178.312274 100.898108 
" clip-path="url(#p18ce7b0db2)" style="fill: none; stroke: #ff0000; stroke-width: 2; stroke-linejoin: miter"/>
   </g>
   <g id="patch_8">
    <path d="M 181.501983 83.650492 
L 176.332475 77.562331 
L 178.420939 76.648357 
L 178.298258 76.368026 
L 178.326291 76.355758 
L 178.448972 76.636088 
L 180.537436 75.722114 
z
" clip-path="url(#p18ce7b0db2)" style="fill: #ff0000; stroke: #ff0000; stroke-linejoin: miter"/>
   </g>
   <g id="patch_9">
    <path d="M 111.0666 103.93 
C 115.124207 103.93 119.016172 102.317895 121.885334 99.448734 
C 124.754495 96.579572 126.3666 92.687607 126.3666 88.63 
C 126.3666 84.572393 124.754495 80.680428 121.885334 77.811266 
C 119.016172 74.942105 115.124207 73.33 111.0666 73.33 
C 107.008993 73.33 103.117028 74.942105 100.247866 77.811266 
C 97.378705 80.680428 95.7666 84.572393 95.7666 88.63 
C 95.7666 92.687607 97.378705 96.579572 100.247866 99.448734 
C 103.117028 102.317895 107.008993 103.93 111.0666 103.93 
L 111.0666 103.93 
z
" clip-path="url(#p18ce7b0db2)" style="fill: none; stroke: #000000; stroke-width: 2; stroke-linejoin: miter"/>
   </g>
   <g id="patch_10">
    <path d="M 149.3166 42.73 
C 149.3166 41.715936 148.913335 40.742368 148.196283 40.025317 
C 147.479232 39.308265 146.505664 38.905 145.4916 38.905 
C 144.477536 38.905 143.503968 39.308265 142.786917 40.025317 
C 142.069865 40.742368 141.6666 41.715936 141.6666 42.73 
" clip-path="url(#p18ce7b0db2)" style="fill: none; stroke: #000000; stroke-width: 2; stroke-linejoin: miter"/>
   </g>
   <g id="patch_11">
    <path d="M 156.9666 42.73 
C 156.9666 41.715936 156.563335 40.742368 155.846283 40.025317 
C 155.129232 39.308265 154.155664 38.905 153.1416 38.905 
C 152.127536 38.905 151.153968 39.308265 150.436917 40.025317 
C 149.719865 40.742368 149.3166 41.715936 149.3166 42.73 
" clip-path="url(#p18ce7b0db2)" style="fill: none; stroke: #000000; stroke-width: 2; stroke-linejoin: miter"/>
   </g>
   <g id="patch_12">
    <path d="M 164.6166 42.73 
C 164.6166 41.715936 164.213335 40.742368 163.496283 40.025317 
C 162.779232 39.308265 161.805664 38.905 160.7916 38.905 
C 159.777536 38.905 158.803968 39.308265 158.086917 40.025317 
C 157.369865 40.742368 156.9666 41.715936 156.9666 42.73 
" clip-path="url(#p18ce7b0db2)" style="fill: none; stroke: #000000; stroke-width: 2; stroke-linejoin: miter"/>
   </g>
   <g id="patch_13">
    <path d="M 172.2666 42.73 
C 172.2666 41.715936 171.863335 40.742368 171.146283 40.025317 
C 170.429232 39.308265 169.455664 38.905 168.4416 38.905 
C 167.427536 38.905 166.453968 39.308265 165.736917 40.025317 
C 165.019865 40.742368 164.6166 41.715936 164.6166 42.73 
" clip-path="url(#p18ce7b0db2)" style="fill: none; stroke: #000000; stroke-width: 2; stroke-linejoin: miter"/>
   </g>
   <g id="patch_14">
    <path d="M 178.312274 76.361892 
C 177.438276 73.166503 176.229211 70.233608 174.737428 67.690193 
C 173.245646 65.146778 171.492991 63.030089 169.555349 61.431773 
C 167.617707 59.833456 165.523453 58.776918 163.363262 58.307903 
C 161.203071 57.838888 159.008576 57.964264 156.874795 58.678604 
C 154.741013 59.392944 152.699191 60.685786 150.837733 62.501154 
C 148.976276 64.316523 147.322442 66.627833 145.947838 69.335011 
C 144.573235 72.042189 143.497991 75.105592 142.768662 78.392583 
C 142.039334 81.679573 141.6666 85.142017 141.6666 88.63 
C 141.6666 92.117983 142.039334 95.580427 142.768662 98.867417 
C 143.497991 102.154408 144.573235 105.217811 145.947838 107.924989 
C 147.322442 110.632167 148.976276 112.943477 150.837733 114.758846 
C 152.699191 116.574214 154.741013 117.867056 156.874795 118.581396 
C 159.008576 119.295736 161.203071 119.421112 163.363262 118.952097 
C 165.523453 118.483082 167.617707 117.426544 169.555349 115.828227 
C 171.492991 114.229911 173.245646 112.113222 174.737428 109.569807 
C 176.229211 107.026392 177.438276 104.093497 178.312274 100.898108 
" clip-path="url(#p18ce7b0db2)" style="fill: none; stroke: #ff0000; stroke-width: 2; stroke-linejoin: miter"/>
   </g>
   <g id="patch_15">
    <path d="M 181.501983 83.650492 
L 176.332475 77.562331 
L 178.420939 76.648357 
L 178.298258 76.368026 
L 178.326291 76.355758 
L 178.448972 76.636088 
L 180.537436 75.722114 
z
" clip-path="url(#p18ce7b0db2)" style="fill: #ff0000; stroke: #ff0000; stroke-linejoin: miter"/>
   </g>
   <g id="line2d_1">
    <path d="M 111.0666 134.53 
L 111.0666 103.93 
L 111.0666 103.93 
M 111.0666 73.33 
L 111.0666 73.33 
L 111.0666 42.73 
" clip-path="url(#p18ce7b0db2)" style="fill: none; stroke: #000000; stroke-width: 2; stroke-linecap: round"/>
   </g>
   <g id="line2d_2">
    <path d="M 114.1266 96.28 
L 108.0066 96.28 
" clip-path="url(#p18ce7b0db2)" style="fill: none; stroke: #000000; stroke-width: 2; stroke-linecap: round"/>
   </g>
   <g id="line2d_3">
    <path d="M 111.0666 84.04 
L 111.0666 77.92 
" clip-path="url(#p18ce7b0db2)" style="fill: none; stroke: #000000; stroke-width: 2; stroke-linecap: round"/>
   </g>
   <g id="line2d_4">
    <path d="M 114.1266 80.98 
L 108.0066 80.98 
" clip-path="url(#p18ce7b0db2)" style="fill: none; stroke: #000000; stroke-width: 2; stroke-linecap: round"/>
   </g>
   <g id="line2d_5">
    <path d="M 111.0666 42.73 
L 141.6666 42.73 
M 172.2666 42.73 
L 202.8666 42.73 
" clip-path="url(#p18ce7b0db2)" style="fill: none; stroke: #000000; stroke-width: 2; stroke-linecap: round"/>
   </g>
   <g id="line2d_6">
    <path d="M 202.8666 42.73 
L 233.4666 42.73 
L 236.0166 35.08 
L 241.1166 50.38 
L 246.2166 35.08 
L 251.3166 50.38 
L 256.4166 35.08 
L 261.5166 50.38 
L 264.0666 42.73 
L 294.6666 42.73 
" clip-path="url(#p18ce7b0db2)" style="fill: none; stroke: #000000; stroke-width: 2; stroke-linecap: round"/>
   </g>
   <g id="line2d_7">
    <path d="M 202.8666 42.73 
L 202.8666 85.876 
M 210.5166 85.876 
L 195.2166 85.876 
M 210.5166 91.384 
L 195.2166 91.384 
M 202.8666 91.384 
L 202.8666 134.53 
" clip-path="url(#p18ce7b0db2)" style="fill: none; stroke: #000000; stroke-width: 2; stroke-linecap: round"/>
   </g>
   <g id="line2d_8">
    <path d="M 202.8666 134.53 
L 248.7666 134.53 
L 294.6666 134.53 
" clip-path="url(#p18ce7b0db2)" style="fill: none; stroke: #000000; stroke-width: 2; stroke-linecap: round"/>
   </g>
   <g id="line2d_9">
    <path d="M 202.8666 134.53 
L 156.9666 134.53 
L 111.0666 134.53 
" clip-path="url(#p18ce7b0db2)" style="fill: none; stroke: #000000; stroke-width: 2; stroke-linecap: round"/>
   </g>
   <g id="line2d_10">
    <path d="M 111.0666 134.53 
L 111.0666 103.93 
L 111.0666 103.93 
M 111.0666 73.33 
L 111.0666 73.33 
L 111.0666 42.73 
" clip-path="url(#p18ce7b0db2)" style="fill: none; stroke: #000000; stroke-width: 2; stroke-linecap: round"/>
   </g>
   <g id="line2d_11">
    <path d="M 114.1266 96.28 
L 108.0066 96.28 
" clip-path="url(#p18ce7b0db2)" style="fill: none; stroke: #000000; stroke-width: 2; stroke-linecap: round"/>
   </g>
   <g id="line2d_12">
    <path d="M 111.0666 84.04 
L 111.0666 77.92 
" clip-path="url(#p18ce7b0db2)" style="fill: none; stroke: #000000; stroke-width: 2; stroke-linecap: round"/>
   </g>
   <g id="line2d_13">
    <path d="M 114.1266 80.98 
L 108.0066 80.98 
" clip-path="url(#p18ce7b0db2)" style="fill: none; stroke: #000000; stroke-width: 2; stroke-linecap: round"/>
   </g>
   <g id="line2d_14">
    <path d="M 111.0666 42.73 
L 141.6666 42.73 
M 172.2666 42.73 
L 202.8666 42.73 
" clip-path="url(#p18ce7b0db2)" style="fill: none; stroke: #000000; stroke-width: 2; stroke-linecap: round"/>
   </g>
   <g id="line2d_15">
    <path d="M 202.8666 42.73 
L 233.4666 42.73 
L 236.0166 35.08 
L 241.1166 50.38 
L 246.2166 35.08 
L 251.3166 50.38 
L 256.4166 35.08 
L 261.5166 50.38 
L 264.0666 42.73 
L 294.6666 42.73 
" clip-path="url(#p18ce7b0db2)" style="fill: none; stroke: #000000; stroke-width: 2; stroke-linecap: round"/>
   </g>
   <g id="line2d_16">
    <path d="M 202.8666 42.73 
L 202.8666 85.876 
M 210.5166 85.876 
L 195.2166 85.876 
M 210.5166 91.384 
L 195.2166 91.384 
M 202.8666 91.384 
L 202.8666 134.53 
" clip-path="url(#p18ce7b0db2)" style="fill: none; stroke: #000000; stroke-width: 2; stroke-linecap: round"/>
   </g>
   <g id="line2d_17">
    <path d="M 202.8666 134.53 
L 248.7666 134.53 
L 294.6666 134.53 
" clip-path="url(#p18ce7b0db2)" style="fill: none; stroke: #000000; stroke-width: 2; stroke-linecap: round"/>
   </g>
   <g id="line2d_18">
    <path d="M 202.8666 134.53 
L 156.9666 134.53 
L 111.0666 134.53 
" clip-path="url(#p18ce7b0db2)" style="fill: none; stroke: #000000; stroke-width: 2; stroke-linecap: round"/>
   </g>
   <g id="text_1">
    <g clip-path="url(#p18ce7b0db2)">
     <!-- $v_S(t)$ -->
     <g transform="translate(70.3316 85.080586)scale(0.125 -0.125)">
      <defs>
       <path id="STIXGeneral-Italic-76" d="M 1325 448 
L 1523 653 
Q 1869 1005 2134 1456 
Q 2400 1907 2400 2131 
Q 2400 2208 2285 2317 
Q 2125 2458 2125 2605 
Q 2125 2701 2195 2761 
Q 2266 2822 2368 2822 
Q 2522 2822 2624 2704 
Q 2726 2586 2726 2445 
Q 2726 2074 2323 1453 
Q 1971 909 1562 474 
Q 1504 416 1421 326 
Q 1338 237 1299 192 
Q 1261 147 1200 86 
Q 1139 26 1110 -3 
Q 1082 -32 1043 -64 
Q 1005 -96 979 -105 
Q 954 -115 928 -115 
Q 870 -115 870 58 
L 870 211 
Q 870 1094 717 1990 
Q 653 2355 579 2470 
Q 506 2586 326 2586 
Q 198 2586 128 2579 
L 128 2662 
Q 480 2720 845 2797 
Q 915 2822 973 2822 
Q 1011 2822 1033 2739 
Q 1056 2656 1165 2093 
Q 1280 1510 1325 448 
z
" transform="scale(0.015625)"/>
       <path id="STIXGeneral-Italic-53" d="M 3251 4269 
L 2995 2989 
L 2880 3008 
Q 2880 3539 2720 3795 
Q 2560 4051 2118 4051 
Q 1786 4051 1594 3881 
Q 1402 3712 1402 3411 
Q 1402 3168 1504 3005 
Q 1606 2842 2035 2413 
Q 2464 1978 2611 1715 
Q 2758 1453 2758 1133 
Q 2758 589 2390 237 
Q 2022 -115 1466 -115 
Q 1222 -115 800 32 
Q 595 109 499 109 
Q 288 109 224 -96 
L 109 -96 
L 326 1338 
L 454 1325 
Q 442 1267 442 1178 
Q 442 710 701 409 
Q 960 109 1363 109 
Q 1734 109 1968 336 
Q 2202 563 2202 928 
Q 2202 1139 2118 1308 
Q 2035 1478 1818 1715 
L 1568 1984 
Q 1549 2003 1459 2102 
Q 1370 2202 1318 2253 
Q 1030 2560 934 2755 
Q 838 2950 838 3213 
Q 838 3699 1168 3980 
Q 1498 4262 1978 4262 
Q 2310 4262 2522 4173 
Q 2707 4102 2816 4102 
Q 2925 4102 2982 4134 
Q 3040 4166 3104 4269 
L 3251 4269 
z
" transform="scale(0.015625)"/>
       <path id="STIXGeneral-Regular-28" d="M 1946 -1030 
L 1869 -1133 
Q 1126 -710 716 32 
Q 307 774 307 1613 
Q 307 3386 1888 4326 
L 1946 4224 
Q 1293 3667 1075 3126 
Q 858 2586 858 1632 
Q 858 685 1082 96 
Q 1306 -493 1946 -1030 
z
" transform="scale(0.015625)"/>
       <path id="STIXGeneral-Italic-74" d="M 1894 2739 
L 1862 2534 
L 1325 2534 
L 768 435 
Q 755 384 755 346 
Q 755 243 851 243 
Q 928 243 1030 342 
Q 1133 442 1370 749 
L 1453 704 
Q 1158 256 969 93 
Q 781 -70 538 -70 
Q 243 -70 243 166 
Q 243 230 346 640 
L 845 2534 
L 365 2534 
L 358 2573 
Q 358 2688 570 2733 
Q 730 2771 992 2979 
Q 1254 3187 1421 3437 
Q 1459 3494 1510 3494 
Q 1568 3494 1568 3443 
Q 1568 3411 1562 3398 
L 1382 2739 
L 1894 2739 
z
" transform="scale(0.015625)"/>
       <path id="STIXGeneral-Regular-29" d="M 186 4224 
L 262 4326 
Q 992 3891 1408 3148 
Q 1824 2406 1824 1581 
Q 1824 -166 243 -1133 
L 186 -1030 
Q 845 -486 1059 54 
Q 1274 595 1274 1562 
Q 1274 2534 1059 3120 
Q 845 3706 186 4224 
z
" transform="scale(0.015625)"/>
      </defs>
      <use xlink:href="#STIXGeneral-Italic-76" transform="translate(0 0.40625)"/>
      <use xlink:href="#STIXGeneral-Italic-53" transform="translate(44.399994 -12.821875)scale(0.7)"/>
      <use xlink:href="#STIXGeneral-Regular-28" transform="translate(83.809358 0.40625)"/>
      <use xlink:href="#STIXGeneral-Italic-74" transform="translate(117.109346 0.40625)"/>
      <use xlink:href="#STIXGeneral-Regular-29" transform="translate(144.909334 0.40625)"/>
     </g>
    </g>
    <g clip-path="url(#p18ce7b0db2)">
     <!-- $50 \measuredangle 30^\circ$ V -->
     <g transform="translate(40.2066 99.077852)scale(0.125 -0.125)">
      <defs>
       <path id="STIXGeneral-Regular-35" d="M 2803 4358 
L 2573 3814 
Q 2534 3731 2400 3731 
L 1158 3731 
L 902 3187 
Q 1606 3053 1920 2896 
Q 2234 2739 2502 2368 
Q 2726 2061 2726 1555 
Q 2726 1094 2576 780 
Q 2426 467 2099 224 
Q 1664 -90 1011 -90 
Q 646 -90 422 19 
Q 198 128 198 307 
Q 198 550 486 550 
Q 717 550 960 352 
Q 1210 147 1414 147 
Q 1747 147 2012 480 
Q 2278 813 2278 1229 
Q 2278 1843 1850 2189 
Q 1293 2637 486 2637 
Q 410 2637 410 2688 
L 416 2720 
L 1114 4237 
L 2438 4237 
Q 2547 4237 2608 4269 
Q 2669 4301 2746 4403 
L 2803 4358 
z
" transform="scale(0.015625)"/>
       <path id="STIXGeneral-Regular-30" d="M 3046 2112 
Q 3046 1683 2963 1302 
Q 2880 922 2717 602 
Q 2554 282 2266 96 
Q 1978 -90 1600 -90 
Q 1210 -90 915 108 
Q 621 307 461 640 
Q 301 973 227 1350 
Q 154 1728 154 2150 
Q 154 2746 301 3222 
Q 448 3699 790 4012 
Q 1133 4326 1626 4326 
Q 2253 4326 2649 3712 
Q 3046 3098 3046 2112 
z
M 2432 2080 
Q 2432 3091 2217 3625 
Q 2003 4160 1587 4160 
Q 1190 4160 979 3622 
Q 768 3085 768 2106 
Q 768 1120 979 598 
Q 1190 77 1600 77 
Q 2003 77 2217 598 
Q 2432 1120 2432 2080 
z
" transform="scale(0.015625)"/>
       <path id="STIXGeneral-Regular-2221" d="M 4109 0 
L 3488 0 
Q 3488 -275 3456 -461 
L 3040 -397 
Q 3066 -224 3066 0 
L 141 0 
L 2208 2067 
Q 2061 2214 1901 2336 
L 2157 2675 
Q 2336 2541 2509 2368 
L 3635 3501 
L 3962 3232 
L 2784 2048 
Q 3347 1325 3462 422 
L 4109 422 
L 4109 0 
z
M 1158 422 
L 3034 422 
Q 2931 1152 2483 1747 
L 1158 422 
z
" transform="scale(0.015625)"/>
       <path id="STIXGeneral-Regular-33" d="M 390 3264 
L 288 3290 
Q 435 3770 748 4048 
Q 1062 4326 1542 4326 
Q 1990 4326 2265 4083 
Q 2541 3840 2541 3450 
Q 2541 2925 1946 2566 
Q 2298 2413 2477 2227 
Q 2758 1914 2758 1402 
Q 2758 890 2464 506 
Q 2246 211 1840 60 
Q 1434 -90 979 -90 
Q 262 -90 262 275 
Q 262 378 339 442 
Q 416 506 525 506 
Q 685 506 915 339 
Q 1197 141 1466 141 
Q 1818 141 2058 425 
Q 2298 710 2298 1120 
Q 2298 1856 1632 2048 
Q 1434 2112 979 2112 
L 979 2202 
Q 1338 2323 1517 2432 
Q 2035 2726 2035 3290 
Q 2035 3610 1852 3776 
Q 1670 3942 1344 3942 
Q 768 3942 390 3264 
z
" transform="scale(0.015625)"/>
       <path id="STIXGeneral-Regular-2218" d="M 1734 2224 
Q 1984 1971 1984 1612 
Q 1984 1254 1731 1001 
Q 1478 749 1120 749 
Q 755 749 505 1001 
Q 256 1254 256 1626 
Q 256 1984 509 2230 
Q 762 2477 1133 2477 
Q 1485 2477 1734 2224 
z
M 1434 1299 
Q 1562 1427 1562 1612 
Q 1562 1798 1434 1926 
Q 1306 2054 1133 2054 
Q 934 2054 806 1929 
Q 678 1805 678 1626 
Q 678 1427 803 1299 
Q 928 1171 1120 1171 
Q 1306 1171 1434 1299 
z
" transform="scale(0.015625)"/>
       <path id="DejaVuSans-20" transform="scale(0.015625)"/>
       <path id="DejaVuSans-56" d="M 1831 0 
L 50 4666 
L 709 4666 
L 2188 738 
L 3669 4666 
L 4325 4666 
L 2547 0 
L 1831 0 
z
" transform="scale(0.015625)"/>
      </defs>
      <use xlink:href="#STIXGeneral-Regular-35" transform="translate(0 0.09375)"/>
      <use xlink:href="#STIXGeneral-Regular-30" transform="translate(49.999985 0.09375)"/>
      <use xlink:href="#STIXGeneral-Regular-2221" transform="translate(99.999969 0.09375)"/>
      <use xlink:href="#STIXGeneral-Regular-33" transform="translate(168.499954 0.09375)"/>
      <use xlink:href="#STIXGeneral-Regular-30" transform="translate(218.499939 0.09375)"/>
      <use xlink:href="#STIXGeneral-Regular-2218" transform="translate(280.151202 35.36875)scale(0.7)"/>
      <use xlink:href="#DejaVuSans-20" transform="translate(319.168564 0.09375)"/>
      <use xlink:href="#DejaVuSans-56" transform="translate(350.955674 0.09375)"/>
     </g>
    </g>
   </g>
   <g id="text_2">
    <g clip-path="url(#p18ce7b0db2)">
     <!-- $L$ -->
     <g transform="translate(153.4666 33.24541)scale(0.125 -0.125)">
      <defs>
       <path id="STIXGeneral-Italic-4c" d="M 3578 1152 
L 3206 0 
L -51 0 
L -51 102 
Q 218 128 301 211 
Q 384 294 474 602 
L 1254 3405 
Q 1325 3642 1325 3802 
Q 1325 3942 1225 4000 
Q 1126 4058 832 4077 
L 832 4179 
L 2579 4179 
L 2579 4077 
Q 2285 4058 2147 3955 
Q 2010 3853 1933 3584 
L 1165 838 
Q 1101 595 1101 493 
Q 1101 346 1241 288 
Q 1382 230 1773 230 
Q 2266 230 2480 275 
Q 2694 320 2925 474 
Q 3187 646 3450 1190 
L 3578 1152 
z
" transform="scale(0.015625)"/>
      </defs>
      <use xlink:href="#STIXGeneral-Italic-4c" transform="translate(0 0.703125)"/>
     </g>
    </g>
   </g>
   <g id="patch_16">
    <path d="M 294.6666 45.025 
C 295.275241 45.025 295.859036 44.783184 296.28941 44.35281 
C 296.719784 43.922436 296.9616 43.338641 296.9616 42.73 
C 296.9616 42.121359 296.719784 41.537564 296.28941 41.10719 
C 295.859036 40.676816 295.275241 40.435 294.6666 40.435 
C 294.057959 40.435 293.474164 40.676816 293.04379 41.10719 
C 292.613416 41.537564 292.3716 42.121359 292.3716 42.73 
C 292.3716 43.338641 292.613416 43.922436 293.04379 44.35281 
C 293.474164 44.783184 294.057959 45.025 294.6666 45.025 
z
" clip-path="url(#p18ce7b0db2)" style="stroke: #000000; stroke-width: 2; stroke-linejoin: miter"/>
   </g>
   <g id="text_3">
    <g clip-path="url(#p18ce7b0db2)">
     <!-- $R$ -->
     <g transform="translate(246.0391 29.420391)scale(0.125 -0.125)">
      <defs>
       <path id="STIXGeneral-Italic-52" d="M 845 4179 
L 2458 4179 
Q 3078 4179 3420 3936 
Q 3763 3693 3763 3277 
Q 3763 2778 3341 2458 
Q 3091 2266 2502 2131 
L 3072 627 
Q 3181 333 3299 217 
Q 3418 102 3629 102 
L 3629 0 
L 2688 0 
L 1901 2074 
L 1478 2106 
L 1126 806 
Q 1043 512 1043 403 
Q 1043 256 1126 192 
Q 1210 128 1472 102 
L 1472 0 
L -83 0 
L -83 102 
Q 173 134 278 243 
Q 384 352 461 646 
L 1222 3405 
Q 1299 3699 1299 3808 
Q 1299 3923 1210 3987 
Q 1133 4038 845 4077 
L 845 4179 
z
M 1958 3795 
L 1555 2342 
Q 1754 2310 1882 2310 
Q 2451 2310 2771 2566 
Q 3091 2822 3091 3270 
Q 3091 3603 2892 3795 
Q 2694 3987 2323 3987 
Q 2010 3987 1958 3795 
z
" transform="scale(0.015625)"/>
      </defs>
      <use xlink:href="#STIXGeneral-Italic-52" transform="translate(0 0.703125)"/>
     </g>
    </g>
   </g>
   <g id="text_4">
    <g clip-path="url(#p18ce7b0db2)">
     <!-- A -->
     <g transform="translate(300.0216 46.179219)scale(0.125 -0.125)">
      <defs>
       <path id="DejaVuSans-41" d="M 2188 4044 
L 1331 1722 
L 3047 1722 
L 2188 4044 
z
M 1831 4666 
L 2547 4666 
L 4325 0 
L 3669 0 
L 3244 1197 
L 1141 1197 
L 716 0 
L 50 0 
L 1831 4666 
z
" transform="scale(0.015625)"/>
      </defs>
      <use xlink:href="#DejaVuSans-41"/>
     </g>
    </g>
   </g>
   <g id="text_5">
    <g clip-path="url(#p18ce7b0db2)">
     <!-- $C$ -->
     <g transform="translate(183.7816 92.079219)scale(0.125 -0.125)">
      <defs>
       <path id="STIXGeneral-Italic-43" d="M 4410 4250 
L 4173 2970 
L 4058 2989 
Q 3942 4032 3104 4032 
Q 2406 4032 1830 3411 
Q 1491 3053 1315 2541 
Q 1139 2029 1139 1485 
Q 1139 173 2259 173 
Q 2656 173 2985 339 
Q 3315 506 3725 934 
L 3840 838 
Q 3411 333 2998 109 
Q 2586 -115 2093 -115 
Q 1344 -115 883 329 
Q 422 774 422 1555 
Q 422 2214 748 2812 
Q 1075 3411 1619 3795 
Q 2272 4262 3021 4262 
Q 3462 4262 3770 4154 
Q 3898 4109 4032 4109 
Q 4205 4109 4275 4250 
L 4410 4250 
z
" transform="scale(0.015625)"/>
      </defs>
      <use xlink:href="#STIXGeneral-Italic-43" transform="translate(0 0.40625)"/>
     </g>
    </g>
   </g>
   <g id="text_6">
    <g clip-path="url(#p18ce7b0db2)">
     <!-- + -->
     <g transform="translate(302.3166 69.129219)scale(0.125 -0.125)">
      <defs>
       <path id="DejaVuSans-2b" d="M 2944 4013 
L 2944 2272 
L 4684 2272 
L 4684 1741 
L 2944 1741 
L 2944 0 
L 2419 0 
L 2419 1741 
L 678 1741 
L 678 2272 
L 2419 2272 
L 2419 4013 
L 2944 4013 
z
" transform="scale(0.015625)"/>
      </defs>
      <use xlink:href="#DejaVuSans-2b"/>
     </g>
    </g>
   </g>
   <g id="text_7">
    <g clip-path="url(#p18ce7b0db2)">
     <!-- $v_{OC}$ -->
     <g transform="translate(302.3166 92.079219)scale(0.125 -0.125)">
      <defs>
       <path id="STIXGeneral-Italic-4f" d="M 4474 2675 
Q 4474 1990 4106 1363 
Q 3738 736 3149 339 
Q 2477 -115 1779 -115 
Q 1146 -115 765 281 
Q 384 678 384 1382 
Q 384 1965 697 2582 
Q 1011 3200 1517 3642 
Q 2234 4262 3034 4262 
Q 3718 4269 4096 3840 
Q 4474 3411 4474 2675 
z
M 3802 3078 
Q 3802 3533 3581 3792 
Q 3360 4051 2976 4051 
Q 2342 4051 1786 3302 
Q 1446 2842 1251 2259 
Q 1056 1677 1056 1178 
Q 1056 653 1270 374 
Q 1485 96 1888 96 
Q 2477 96 2976 704 
Q 3354 1178 3578 1862 
Q 3802 2547 3802 3078 
z
" transform="scale(0.015625)"/>
      </defs>
      <use xlink:href="#STIXGeneral-Italic-76" transform="translate(0 0.90625)"/>
      <use xlink:href="#STIXGeneral-Italic-4f" transform="translate(44.399994 -12.321875)scale(0.7)"/>
      <use xlink:href="#STIXGeneral-Italic-43" transform="translate(94.939981 -12.321875)scale(0.7)"/>
     </g>
    </g>
   </g>
   <g id="text_8">
    <g clip-path="url(#p18ce7b0db2)">
     <!-- - -->
     <g transform="translate(302.3166 115.029219)scale(0.125 -0.125)">
      <defs>
       <path id="DejaVuSans-2d" d="M 313 2009 
L 1997 2009 
L 1997 1497 
L 313 1497 
L 313 2009 
z
" transform="scale(0.015625)"/>
      </defs>
      <use xlink:href="#DejaVuSans-2d"/>
     </g>
    </g>
   </g>
   <g id="patch_17">
    <path d="M 294.6666 136.825 
C 295.275241 136.825 295.859036 136.583184 296.28941 136.15281 
C 296.719784 135.722436 296.9616 135.138641 296.9616 134.53 
C 296.9616 133.921359 296.719784 133.337564 296.28941 132.90719 
C 295.859036 132.476816 295.275241 132.235 294.6666 132.235 
C 294.057959 132.235 293.474164 132.476816 293.04379 132.90719 
C 292.613416 133.337564 292.3716 133.921359 292.3716 134.53 
C 292.3716 135.138641 292.613416 135.722436 293.04379 136.15281 
C 293.474164 136.583184 294.057959 136.825 294.6666 136.825 
z
" clip-path="url(#p18ce7b0db2)" style="stroke: #000000; stroke-width: 2; stroke-linejoin: miter"/>
   </g>
   <g id="text_9">
    <g clip-path="url(#p18ce7b0db2)">
     <!-- B -->
     <g transform="translate(300.0216 137.979219)scale(0.125 -0.125)">
      <defs>
       <path id="DejaVuSans-42" d="M 1259 2228 
L 1259 519 
L 2272 519 
Q 2781 519 3026 730 
Q 3272 941 3272 1375 
Q 3272 1813 3026 2020 
Q 2781 2228 2272 2228 
L 1259 2228 
z
M 1259 4147 
L 1259 2741 
L 2194 2741 
Q 2656 2741 2882 2914 
Q 3109 3088 3109 3444 
Q 3109 3797 2882 3972 
Q 2656 4147 2194 4147 
L 1259 4147 
z
M 628 4666 
L 2241 4666 
Q 2963 4666 3353 4366 
Q 3744 4066 3744 3513 
Q 3744 3084 3544 2831 
Q 3344 2578 2956 2516 
Q 3422 2416 3680 2098 
Q 3938 1781 3938 1306 
Q 3938 681 3513 340 
Q 3088 0 2303 0 
L 628 0 
L 628 4666 
z
" transform="scale(0.015625)"/>
      </defs>
      <use xlink:href="#DejaVuSans-42"/>
     </g>
    </g>
   </g>
   <g id="text_10">
    <g clip-path="url(#p18ce7b0db2)">
     <!-- $I$ -->
     <g style="fill: #ff0000" transform="translate(158.6666 92.079219)scale(0.125 -0.125)">
      <defs>
       <path id="STIXGeneral-Italic-49" d="M 2458 4179 
L 2458 4077 
Q 2189 4045 2102 3961 
Q 2016 3878 1933 3584 
L 1165 838 
Q 1069 499 1069 352 
Q 1069 224 1149 179 
Q 1229 134 1510 102 
L 1510 0 
L -51 0 
L -51 102 
Q 218 154 317 237 
Q 416 320 486 582 
L 1254 3405 
Q 1338 3699 1338 3802 
Q 1338 3930 1235 3997 
Q 1133 4064 877 4077 
L 877 4179 
L 2458 4179 
z
" transform="scale(0.015625)"/>
      </defs>
      <use xlink:href="#STIXGeneral-Italic-49" transform="translate(0 0.703125)"/>
     </g>
    </g>
   </g>
   <g id="text_11">
    <g clip-path="url(#p18ce7b0db2)">
     <!-- $v_S(t)$ -->
     <g transform="translate(70.3316 85.080586)scale(0.125 -0.125)">
      <use xlink:href="#STIXGeneral-Italic-76" transform="translate(0 0.40625)"/>
      <use xlink:href="#STIXGeneral-Italic-53" transform="translate(44.399994 -12.821875)scale(0.7)"/>
      <use xlink:href="#STIXGeneral-Regular-28" transform="translate(83.809358 0.40625)"/>
      <use xlink:href="#STIXGeneral-Italic-74" transform="translate(117.109346 0.40625)"/>
      <use xlink:href="#STIXGeneral-Regular-29" transform="translate(144.909334 0.40625)"/>
     </g>
    </g>
    <g clip-path="url(#p18ce7b0db2)">
     <!-- $50 \measuredangle 30^\circ$ V -->
     <g transform="translate(40.2066 99.077852)scale(0.125 -0.125)">
      <use xlink:href="#STIXGeneral-Regular-35" transform="translate(0 0.09375)"/>
      <use xlink:href="#STIXGeneral-Regular-30" transform="translate(49.999985 0.09375)"/>
      <use xlink:href="#STIXGeneral-Regular-2221" transform="translate(99.999969 0.09375)"/>
      <use xlink:href="#STIXGeneral-Regular-33" transform="translate(168.499954 0.09375)"/>
      <use xlink:href="#STIXGeneral-Regular-30" transform="translate(218.499939 0.09375)"/>
      <use xlink:href="#STIXGeneral-Regular-2218" transform="translate(280.151202 35.36875)scale(0.7)"/>
      <use xlink:href="#DejaVuSans-20" transform="translate(319.168564 0.09375)"/>
      <use xlink:href="#DejaVuSans-56" transform="translate(350.955674 0.09375)"/>
     </g>
    </g>
   </g>
   <g id="text_12">
    <g clip-path="url(#p18ce7b0db2)">
     <!-- $L$ -->
     <g transform="translate(153.4666 33.24541)scale(0.125 -0.125)">
      <use xlink:href="#STIXGeneral-Italic-4c" transform="translate(0 0.703125)"/>
     </g>
    </g>
   </g>
   <g id="patch_18">
    <path d="M 294.6666 45.025 
C 295.275241 45.025 295.859036 44.783184 296.28941 44.35281 
C 296.719784 43.922436 296.9616 43.338641 296.9616 42.73 
C 296.9616 42.121359 296.719784 41.537564 296.28941 41.10719 
C 295.859036 40.676816 295.275241 40.435 294.6666 40.435 
C 294.057959 40.435 293.474164 40.676816 293.04379 41.10719 
C 292.613416 41.537564 292.3716 42.121359 292.3716 42.73 
C 292.3716 43.338641 292.613416 43.922436 293.04379 44.35281 
C 293.474164 44.783184 294.057959 45.025 294.6666 45.025 
z
" clip-path="url(#p18ce7b0db2)" style="stroke: #000000; stroke-width: 2; stroke-linejoin: miter"/>
   </g>
   <g id="text_13">
    <g clip-path="url(#p18ce7b0db2)">
     <!-- $R$ -->
     <g transform="translate(246.0391 29.420391)scale(0.125 -0.125)">
      <use xlink:href="#STIXGeneral-Italic-52" transform="translate(0 0.703125)"/>
     </g>
    </g>
   </g>
   <g id="text_14">
    <g clip-path="url(#p18ce7b0db2)">
     <!-- A -->
     <g transform="translate(300.0216 46.179219)scale(0.125 -0.125)">
      <use xlink:href="#DejaVuSans-41"/>
     </g>
    </g>
   </g>
   <g id="text_15">
    <g clip-path="url(#p18ce7b0db2)">
     <!-- $C$ -->
     <g transform="translate(183.7816 92.079219)scale(0.125 -0.125)">
      <use xlink:href="#STIXGeneral-Italic-43" transform="translate(0 0.40625)"/>
     </g>
    </g>
   </g>
   <g id="text_16">
    <g clip-path="url(#p18ce7b0db2)">
     <!-- + -->
     <g transform="translate(302.3166 69.129219)scale(0.125 -0.125)">
      <use xlink:href="#DejaVuSans-2b"/>
     </g>
    </g>
   </g>
   <g id="text_17">
    <g clip-path="url(#p18ce7b0db2)">
     <!-- $v_{OC}$ -->
     <g transform="translate(302.3166 92.079219)scale(0.125 -0.125)">
      <use xlink:href="#STIXGeneral-Italic-76" transform="translate(0 0.90625)"/>
      <use xlink:href="#STIXGeneral-Italic-4f" transform="translate(44.399994 -12.321875)scale(0.7)"/>
      <use xlink:href="#STIXGeneral-Italic-43" transform="translate(94.939981 -12.321875)scale(0.7)"/>
     </g>
    </g>
   </g>
   <g id="text_18">
    <g clip-path="url(#p18ce7b0db2)">
     <!-- - -->
     <g transform="translate(302.3166 115.029219)scale(0.125 -0.125)">
      <use xlink:href="#DejaVuSans-2d"/>
     </g>
    </g>
   </g>
   <g id="patch_19">
    <path d="M 294.6666 136.825 
C 295.275241 136.825 295.859036 136.583184 296.28941 136.15281 
C 296.719784 135.722436 296.9616 135.138641 296.9616 134.53 
C 296.9616 133.921359 296.719784 133.337564 296.28941 132.90719 
C 295.859036 132.476816 295.275241 132.235 294.6666 132.235 
C 294.057959 132.235 293.474164 132.476816 293.04379 132.90719 
C 292.613416 133.337564 292.3716 133.921359 292.3716 134.53 
C 292.3716 135.138641 292.613416 135.722436 293.04379 136.15281 
C 293.474164 136.583184 294.057959 136.825 294.6666 136.825 
z
" clip-path="url(#p18ce7b0db2)" style="stroke: #000000; stroke-width: 2; stroke-linejoin: miter"/>
   </g>
   <g id="text_19">
    <g clip-path="url(#p18ce7b0db2)">
     <!-- B -->
     <g transform="translate(300.0216 137.979219)scale(0.125 -0.125)">
      <use xlink:href="#DejaVuSans-42"/>
     </g>
    </g>
   </g>
   <g id="text_20">
    <g clip-path="url(#p18ce7b0db2)">
     <!-- $I$ -->
     <g style="fill: #ff0000" transform="translate(158.6666 92.079219)scale(0.125 -0.125)">
      <use xlink:href="#STIXGeneral-Italic-49" transform="translate(0 0.703125)"/>
     </g>
    </g>
   </g>
  </g>
 </g>
 <defs>
  <clipPath id="p18ce7b0db2">
   <rect x="7.2" y="7.2" width="337.1202" height="141.27"/>
  </clipPath>
 </defs>
</svg>
