<?xml version="1.0" encoding="utf-8" standalone="no"?>
<!DOCTYPE svg PUBLIC "-//W3C//DTD SVG 1.1//EN"
  "http://www.w3.org/Graphics/SVG/1.1/DTD/svg11.dtd">
<svg xmlns:xlink="http://www.w3.org/1999/xlink" width="295.5426pt" height="159.07pt" viewBox="0 0 295.5426 159.07" xmlns="http://www.w3.org/2000/svg" version="1.1">
 <metadata>
  <rdf:RDF xmlns:dc="http://purl.org/dc/elements/1.1/" xmlns:cc="http://creativecommons.org/ns#" xmlns:rdf="http://www.w3.org/1999/02/22-rdf-syntax-ns#">
   <cc:Work>
    <dc:type rdf:resource="http://purl.org/dc/dcmitype/StillImage"/>
    <dc:date>2023-03-02T11:14:35.770439</dc:date>
    <dc:format>image/svg+xml</dc:format>
    <dc:creator>
     <cc:Agent>
      <dc:title>Matplotlib v3.5.2, https://matplotlib.org/</dc:title>
     </cc:Agent>
    </dc:creator>
   </cc:Work>
  </rdf:RDF>
 </metadata>
 <defs>
  <style type="text/css">*{stroke-linejoin: round; stroke-linecap: butt}</style>
 </defs>
 <g id="figure_1">
  <g id="patch_1">
   <path d="M 0 159.07 
L 295.5426 159.07 
L 295.5426 0 
L 0 0 
L 0 159.07 
z
" style="fill: none"/>
  </g>
  <g id="axes_1">
   <g id="patch_2">
    <path d="M 56.3028 118.21 
C 60.360407 118.21 64.252372 116.597895 67.121534 113.728734 
C 69.990695 110.859572 71.6028 106.967607 71.6028 102.91 
C 71.6028 98.852393 69.990695 94.960428 67.121534 92.091266 
C 64.252372 89.222105 60.360407 87.61 56.3028 87.61 
C 52.245193 87.61 48.353228 89.222105 45.484066 92.091266 
C 42.614905 94.960428 41.0028 98.852393 41.0028 102.91 
C 41.0028 106.967607 42.614905 110.859572 45.484066 113.728734 
C 48.353228 116.597895 52.245193 118.21 56.3028 118.21 
L 56.3028 118.21 
z
" clip-path="url(#p7d3969af39)" style="fill: none; stroke: #000000; stroke-width: 2; stroke-linejoin: miter"/>
   </g>
   <g id="patch_3">
    <path d="M 239.9028 118.21 
C 243.960407 118.21 247.852372 116.597895 250.721534 113.728734 
C 253.590695 110.859572 255.2028 106.967607 255.2028 102.91 
C 255.2028 98.852393 253.590695 94.960428 250.721534 92.091266 
C 247.852372 89.222105 243.960407 87.61 239.9028 87.61 
C 235.845193 87.61 231.953228 89.222105 229.084066 92.091266 
C 226.214905 94.960428 224.6028 98.852393 224.6028 102.91 
C 224.6028 106.967607 226.214905 110.859572 229.084066 113.728734 
C 231.953228 116.597895 235.845193 118.21 239.9028 118.21 
L 239.9028 118.21 
z
" clip-path="url(#p7d3969af39)" style="fill: none; stroke: #000000; stroke-width: 2; stroke-linejoin: miter"/>
   </g>
   <g id="patch_4">
    <path d="M 116.607074 99.327312 
C 116.097691 97.306549 115.383644 95.446691 114.496183 93.829132 
C 113.608722 92.211573 112.560985 90.860261 111.398825 89.834333 
C 110.236665 88.808406 108.977287 88.123051 107.675806 87.808263 
C 106.374325 87.493474 105.050009 87.553913 103.760814 87.986934 
C 102.471619 88.419954 101.236631 89.219146 100.109899 90.349533 
C 98.983166 91.47992 97.981369 92.924769 97.148349 94.620846 
C 96.31533 96.316924 95.66342 98.239121 95.221151 100.303315 
C 94.778882 102.36751 94.5528 104.543143 94.5528 106.735 
C 94.5528 108.926857 94.778882 111.10249 95.221151 113.166685 
C 95.66342 115.230879 96.31533 117.153076 97.148349 118.849154 
C 97.981369 120.545231 98.983166 121.99008 100.109899 123.120467 
C 101.236631 124.250854 102.471619 125.050046 103.760814 125.483066 
C 105.050009 125.916087 106.374325 125.976526 107.675806 125.661737 
C 108.977287 125.346949 110.236665 124.661594 111.398825 123.635667 
C 112.560985 122.609739 113.608722 121.258427 114.496183 119.640868 
C 115.383644 118.023309 116.097691 116.163451 116.607074 114.142688 
" clip-path="url(#p7d3969af39)" style="fill: none; stroke: #0000ff; stroke-width: 2; stroke-linejoin: miter"/>
   </g>
   <g id="patch_5">
    <path d="M 119.688672 106.662276 
L 114.609742 100.498349 
L 116.711492 99.615353 
L 116.592969 99.333239 
L 116.62118 99.321386 
L 116.739703 99.6035 
L 118.841452 98.720504 
z
" clip-path="url(#p7d3969af39)" style="fill: #0000ff; stroke: #0000ff; stroke-linejoin: miter"/>
   </g>
   <g id="patch_6">
    <path d="M 207.282706 94.758016 
C 206.325951 92.079897 205.055035 89.645351 203.522955 87.555896 
C 201.990875 85.466442 200.219225 83.751531 198.281882 82.482673 
C 196.344539 81.213814 194.268809 80.408894 192.141249 80.101477 
C 190.013689 79.794059 187.864287 79.988477 185.782672 80.676623 
C 183.701056 81.364769 181.716568 82.536945 179.911957 84.14427 
C 178.107347 85.751596 176.508051 87.771416 175.180759 90.119507 
C 173.853468 92.467597 172.816888 95.110861 172.114245 97.939076 
C 171.411602 100.767291 171.0528 103.740594 171.0528 106.735 
C 171.0528 109.729406 171.411602 112.702709 172.114245 115.530924 
C 172.816888 118.359139 173.853468 121.002403 175.180759 123.350493 
C 176.508051 125.698584 178.107347 127.718404 179.911957 129.32573 
C 181.716568 130.933055 183.701056 132.105231 185.782672 132.793377 
C 187.864287 133.481523 190.013689 133.675941 192.141249 133.368523 
C 194.268809 133.061106 196.344539 132.256186 198.281882 130.987327 
C 200.219225 129.718469 201.990875 128.003558 203.522955 125.914104 
C 205.055035 123.824649 206.325951 121.390103 207.282706 118.711984 
" clip-path="url(#p7d3969af39)" style="fill: none; stroke: #ff0000; stroke-width: 2; stroke-linejoin: miter"/>
   </g>
   <g id="patch_7">
    <path d="M 210.841581 101.873657 
L 205.366997 96.058293 
L 207.405902 95.038539 
L 207.269022 94.76486 
L 207.29639 94.751172 
L 207.433269 95.024851 
L 209.472174 94.005096 
z
" clip-path="url(#p7d3969af39)" style="fill: #ff0000; stroke: #ff0000; stroke-linejoin: miter"/>
   </g>
   <g id="patch_8">
    <path d="M 56.3028 118.21 
C 60.360407 118.21 64.252372 116.597895 67.121534 113.728734 
C 69.990695 110.859572 71.6028 106.967607 71.6028 102.91 
C 71.6028 98.852393 69.990695 94.960428 67.121534 92.091266 
C 64.252372 89.222105 60.360407 87.61 56.3028 87.61 
C 52.245193 87.61 48.353228 89.222105 45.484066 92.091266 
C 42.614905 94.960428 41.0028 98.852393 41.0028 102.91 
C 41.0028 106.967607 42.614905 110.859572 45.484066 113.728734 
C 48.353228 116.597895 52.245193 118.21 56.3028 118.21 
L 56.3028 118.21 
z
" clip-path="url(#p7d3969af39)" style="fill: none; stroke: #000000; stroke-width: 2; stroke-linejoin: miter"/>
   </g>
   <g id="patch_9">
    <path d="M 239.9028 118.21 
C 243.960407 118.21 247.852372 116.597895 250.721534 113.728734 
C 253.590695 110.859572 255.2028 106.967607 255.2028 102.91 
C 255.2028 98.852393 253.590695 94.960428 250.721534 92.091266 
C 247.852372 89.222105 243.960407 87.61 239.9028 87.61 
C 235.845193 87.61 231.953228 89.222105 229.084066 92.091266 
C 226.214905 94.960428 224.6028 98.852393 224.6028 102.91 
C 224.6028 106.967607 226.214905 110.859572 229.084066 113.728734 
C 231.953228 116.597895 235.845193 118.21 239.9028 118.21 
L 239.9028 118.21 
z
" clip-path="url(#p7d3969af39)" style="fill: none; stroke: #000000; stroke-width: 2; stroke-linejoin: miter"/>
   </g>
   <g id="patch_10">
    <path d="M 116.607074 99.327312 
C 116.097691 97.306549 115.383644 95.446691 114.496183 93.829132 
C 113.608722 92.211573 112.560985 90.860261 111.398825 89.834333 
C 110.236665 88.808406 108.977287 88.123051 107.675806 87.808263 
C 106.374325 87.493474 105.050009 87.553913 103.760814 87.986934 
C 102.471619 88.419954 101.236631 89.219146 100.109899 90.349533 
C 98.983166 91.47992 97.981369 92.924769 97.148349 94.620846 
C 96.31533 96.316924 95.66342 98.239121 95.221151 100.303315 
C 94.778882 102.36751 94.5528 104.543143 94.5528 106.735 
C 94.5528 108.926857 94.778882 111.10249 95.221151 113.166685 
C 95.66342 115.230879 96.31533 117.153076 97.148349 118.849154 
C 97.981369 120.545231 98.983166 121.99008 100.109899 123.120467 
C 101.236631 124.250854 102.471619 125.050046 103.760814 125.483066 
C 105.050009 125.916087 106.374325 125.976526 107.675806 125.661737 
C 108.977287 125.346949 110.236665 124.661594 111.398825 123.635667 
C 112.560985 122.609739 113.608722 121.258427 114.496183 119.640868 
C 115.383644 118.023309 116.097691 116.163451 116.607074 114.142688 
" clip-path="url(#p7d3969af39)" style="fill: none; stroke: #0000ff; stroke-width: 2; stroke-linejoin: miter"/>
   </g>
   <g id="patch_11">
    <path d="M 119.688672 106.662276 
L 114.609742 100.498349 
L 116.711492 99.615353 
L 116.592969 99.333239 
L 116.62118 99.321386 
L 116.739703 99.6035 
L 118.841452 98.720504 
z
" clip-path="url(#p7d3969af39)" style="fill: #0000ff; stroke: #0000ff; stroke-linejoin: miter"/>
   </g>
   <g id="patch_12">
    <path d="M 207.282706 94.758016 
C 206.325951 92.079897 205.055035 89.645351 203.522955 87.555896 
C 201.990875 85.466442 200.219225 83.751531 198.281882 82.482673 
C 196.344539 81.213814 194.268809 80.408894 192.141249 80.101477 
C 190.013689 79.794059 187.864287 79.988477 185.782672 80.676623 
C 183.701056 81.364769 181.716568 82.536945 179.911957 84.14427 
C 178.107347 85.751596 176.508051 87.771416 175.180759 90.119507 
C 173.853468 92.467597 172.816888 95.110861 172.114245 97.939076 
C 171.411602 100.767291 171.0528 103.740594 171.0528 106.735 
C 171.0528 109.729406 171.411602 112.702709 172.114245 115.530924 
C 172.816888 118.359139 173.853468 121.002403 175.180759 123.350493 
C 176.508051 125.698584 178.107347 127.718404 179.911957 129.32573 
C 181.716568 130.933055 183.701056 132.105231 185.782672 132.793377 
C 187.864287 133.481523 190.013689 133.675941 192.141249 133.368523 
C 194.268809 133.061106 196.344539 132.256186 198.281882 130.987327 
C 200.219225 129.718469 201.990875 128.003558 203.522955 125.914104 
C 205.055035 123.824649 206.325951 121.390103 207.282706 118.711984 
" clip-path="url(#p7d3969af39)" style="fill: none; stroke: #ff0000; stroke-width: 2; stroke-linejoin: miter"/>
   </g>
   <g id="patch_13">
    <path d="M 210.841581 101.873657 
L 205.366997 96.058293 
L 207.405902 95.038539 
L 207.269022 94.76486 
L 207.29639 94.751172 
L 207.433269 95.024851 
L 209.472174 94.005096 
z
" clip-path="url(#p7d3969af39)" style="fill: #ff0000; stroke: #ff0000; stroke-linejoin: miter"/>
   </g>
   <g id="line2d_1">
    <path d="M 56.3028 148.81 
L 56.3028 118.21 
L 56.3028 118.21 
M 56.3028 87.61 
L 56.3028 87.61 
L 56.3028 57.01 
" clip-path="url(#p7d3969af39)" style="fill: none; stroke: #000000; stroke-width: 2; stroke-linecap: round"/>
   </g>
   <g id="line2d_2">
    <path d="M 59.3628 110.56 
L 53.2428 110.56 
" clip-path="url(#p7d3969af39)" style="fill: none; stroke: #000000; stroke-width: 2; stroke-linecap: round"/>
   </g>
   <g id="line2d_3">
    <path d="M 56.3028 98.32 
L 56.3028 92.2 
" clip-path="url(#p7d3969af39)" style="fill: none; stroke: #000000; stroke-width: 2; stroke-linecap: round"/>
   </g>
   <g id="line2d_4">
    <path d="M 59.3628 95.26 
L 53.2428 95.26 
" clip-path="url(#p7d3969af39)" style="fill: none; stroke: #000000; stroke-width: 2; stroke-linecap: round"/>
   </g>
   <g id="line2d_5">
    <path d="M 56.3028 57.01 
L 86.9028 57.01 
L 89.4528 49.36 
L 94.5528 64.66 
L 99.6528 49.36 
L 104.7528 64.66 
L 109.8528 49.36 
L 114.9528 64.66 
L 117.5028 57.01 
L 148.1028 57.01 
" clip-path="url(#p7d3969af39)" style="fill: none; stroke: #000000; stroke-width: 2; stroke-linecap: round"/>
   </g>
   <g id="line2d_6">
    <path d="M 148.1028 57.01 
L 178.7028 57.01 
L 181.2528 49.36 
L 186.3528 64.66 
L 191.4528 49.36 
L 196.5528 64.66 
L 201.6528 49.36 
L 206.7528 64.66 
L 209.3028 57.01 
L 239.9028 57.01 
" clip-path="url(#p7d3969af39)" style="fill: none; stroke: #000000; stroke-width: 2; stroke-linecap: round"/>
   </g>
   <g id="line2d_7">
    <path d="M 239.9028 57.01 
L 239.9028 87.61 
L 239.9028 87.61 
M 239.9028 118.21 
L 239.9028 118.21 
L 239.9028 148.81 
" clip-path="url(#p7d3969af39)" style="fill: none; stroke: #000000; stroke-width: 2; stroke-linecap: round"/>
   </g>
   <g id="line2d_8">
    <path d="M 239.9028 102.91 
L 239.9028 110.56 
" clip-path="url(#p7d3969af39)" style="fill: none; stroke: #000000; stroke-width: 2; stroke-linecap: round"/>
   </g>
   <g id="patch_14">
    <path d="M 237.6078 102.91 
L 239.9028 95.26 
L 242.1978 102.91 
z
" clip-path="url(#p7d3969af39)"/>
   </g>
   <g id="line2d_9">
    <path d="M 239.9028 148.81 
L 148.1028 148.81 
L 56.3028 148.81 
" clip-path="url(#p7d3969af39)" style="fill: none; stroke: #000000; stroke-width: 2; stroke-linecap: round"/>
   </g>
   <g id="line2d_10">
    <path d="M 148.1028 57.01 
L 148.1028 87.61 
L 155.7528 90.16 
L 140.4528 95.26 
L 155.7528 100.36 
L 140.4528 105.46 
L 155.7528 110.56 
L 140.4528 115.66 
L 148.1028 118.21 
L 148.1028 148.81 
" clip-path="url(#p7d3969af39)" style="fill: none; stroke: #000000; stroke-width: 2; stroke-linecap: round"/>
   </g>
   <g id="line2d_11">
    <path d="M 56.3028 148.81 
L 56.3028 118.21 
L 56.3028 118.21 
M 56.3028 87.61 
L 56.3028 87.61 
L 56.3028 57.01 
" clip-path="url(#p7d3969af39)" style="fill: none; stroke: #000000; stroke-width: 2; stroke-linecap: round"/>
   </g>
   <g id="line2d_12">
    <path d="M 59.3628 110.56 
L 53.2428 110.56 
" clip-path="url(#p7d3969af39)" style="fill: none; stroke: #000000; stroke-width: 2; stroke-linecap: round"/>
   </g>
   <g id="line2d_13">
    <path d="M 56.3028 98.32 
L 56.3028 92.2 
" clip-path="url(#p7d3969af39)" style="fill: none; stroke: #000000; stroke-width: 2; stroke-linecap: round"/>
   </g>
   <g id="line2d_14">
    <path d="M 59.3628 95.26 
L 53.2428 95.26 
" clip-path="url(#p7d3969af39)" style="fill: none; stroke: #000000; stroke-width: 2; stroke-linecap: round"/>
   </g>
   <g id="line2d_15">
    <path d="M 56.3028 57.01 
L 86.9028 57.01 
L 89.4528 49.36 
L 94.5528 64.66 
L 99.6528 49.36 
L 104.7528 64.66 
L 109.8528 49.36 
L 114.9528 64.66 
L 117.5028 57.01 
L 148.1028 57.01 
" clip-path="url(#p7d3969af39)" style="fill: none; stroke: #000000; stroke-width: 2; stroke-linecap: round"/>
   </g>
   <g id="line2d_16">
    <path d="M 148.1028 57.01 
L 178.7028 57.01 
L 181.2528 49.36 
L 186.3528 64.66 
L 191.4528 49.36 
L 196.5528 64.66 
L 201.6528 49.36 
L 206.7528 64.66 
L 209.3028 57.01 
L 239.9028 57.01 
" clip-path="url(#p7d3969af39)" style="fill: none; stroke: #000000; stroke-width: 2; stroke-linecap: round"/>
   </g>
   <g id="line2d_17">
    <path d="M 239.9028 57.01 
L 239.9028 87.61 
L 239.9028 87.61 
M 239.9028 118.21 
L 239.9028 118.21 
L 239.9028 148.81 
" clip-path="url(#p7d3969af39)" style="fill: none; stroke: #000000; stroke-width: 2; stroke-linecap: round"/>
   </g>
   <g id="line2d_18">
    <path d="M 239.9028 102.91 
L 239.9028 110.56 
" clip-path="url(#p7d3969af39)" style="fill: none; stroke: #000000; stroke-width: 2; stroke-linecap: round"/>
   </g>
   <g id="patch_15">
    <path d="M 237.6078 102.91 
L 239.9028 95.26 
L 242.1978 102.91 
z
" clip-path="url(#p7d3969af39)"/>
   </g>
   <g id="line2d_19">
    <path d="M 239.9028 148.81 
L 148.1028 148.81 
L 56.3028 148.81 
" clip-path="url(#p7d3969af39)" style="fill: none; stroke: #000000; stroke-width: 2; stroke-linecap: round"/>
   </g>
   <g id="line2d_20">
    <path d="M 148.1028 57.01 
L 148.1028 87.61 
L 155.7528 90.16 
L 140.4528 95.26 
L 155.7528 100.36 
L 140.4528 105.46 
L 155.7528 110.56 
L 140.4528 115.66 
L 148.1028 118.21 
L 148.1028 148.81 
" clip-path="url(#p7d3969af39)" style="fill: none; stroke: #000000; stroke-width: 2; stroke-linecap: round"/>
   </g>
   <g id="text_1">
    <g clip-path="url(#p7d3969af39)">
     <!-- $V_S$ -->
     <g transform="translate(25.3178 99.360586)scale(0.125 -0.125)">
      <defs>
       <path id="STIXGeneral-Italic-56" d="M 4403 4179 
L 4403 4077 
Q 4198 4070 4045 3821 
L 1658 -115 
L 1536 -115 
L 1011 3104 
Q 902 3776 828 3910 
Q 755 4045 486 4077 
L 486 4179 
L 2022 4179 
L 2022 4077 
Q 1722 4045 1629 3981 
Q 1536 3917 1536 3750 
Q 1536 3686 1542 3654 
L 1958 819 
L 3302 3123 
Q 3616 3661 3616 3859 
Q 3616 4032 3219 4077 
L 3219 4179 
L 4403 4179 
z
" transform="scale(0.015625)"/>
       <path id="STIXGeneral-Italic-53" d="M 3251 4269 
L 2995 2989 
L 2880 3008 
Q 2880 3539 2720 3795 
Q 2560 4051 2118 4051 
Q 1786 4051 1594 3881 
Q 1402 3712 1402 3411 
Q 1402 3168 1504 3005 
Q 1606 2842 2035 2413 
Q 2464 1978 2611 1715 
Q 2758 1453 2758 1133 
Q 2758 589 2390 237 
Q 2022 -115 1466 -115 
Q 1222 -115 800 32 
Q 595 109 499 109 
Q 288 109 224 -96 
L 109 -96 
L 326 1338 
L 454 1325 
Q 442 1267 442 1178 
Q 442 710 701 409 
Q 960 109 1363 109 
Q 1734 109 1968 336 
Q 2202 563 2202 928 
Q 2202 1139 2118 1308 
Q 2035 1478 1818 1715 
L 1568 1984 
Q 1549 2003 1459 2102 
Q 1370 2202 1318 2253 
Q 1030 2560 934 2755 
Q 838 2950 838 3213 
Q 838 3699 1168 3980 
Q 1498 4262 1978 4262 
Q 2310 4262 2522 4173 
Q 2707 4102 2816 4102 
Q 2925 4102 2982 4134 
Q 3040 4166 3104 4269 
L 3251 4269 
z
" transform="scale(0.015625)"/>
      </defs>
      <use xlink:href="#STIXGeneral-Italic-56" transform="translate(0 0.703125)"/>
      <use xlink:href="#STIXGeneral-Italic-53" transform="translate(61.099991 -12.525)scale(0.7)"/>
     </g>
    </g>
    <g clip-path="url(#p7d3969af39)">
     <!-- 10V -->
     <g transform="translate(13.485769 113.357852)scale(0.125 -0.125)">
      <defs>
       <path id="DejaVuSans-31" d="M 794 531 
L 1825 531 
L 1825 4091 
L 703 3866 
L 703 4441 
L 1819 4666 
L 2450 4666 
L 2450 531 
L 3481 531 
L 3481 0 
L 794 0 
L 794 531 
z
" transform="scale(0.015625)"/>
       <path id="DejaVuSans-30" d="M 2034 4250 
Q 1547 4250 1301 3770 
Q 1056 3291 1056 2328 
Q 1056 1369 1301 889 
Q 1547 409 2034 409 
Q 2525 409 2770 889 
Q 3016 1369 3016 2328 
Q 3016 3291 2770 3770 
Q 2525 4250 2034 4250 
z
M 2034 4750 
Q 2819 4750 3233 4129 
Q 3647 3509 3647 2328 
Q 3647 1150 3233 529 
Q 2819 -91 2034 -91 
Q 1250 -91 836 529 
Q 422 1150 422 2328 
Q 422 3509 836 4129 
Q 1250 4750 2034 4750 
z
" transform="scale(0.015625)"/>
       <path id="DejaVuSans-56" d="M 1831 0 
L 50 4666 
L 709 4666 
L 2188 738 
L 3669 4666 
L 4325 4666 
L 2547 0 
L 1831 0 
z
" transform="scale(0.015625)"/>
      </defs>
      <use xlink:href="#DejaVuSans-31"/>
      <use xlink:href="#DejaVuSans-30" x="63.623047"/>
      <use xlink:href="#DejaVuSans-56" x="127.246094"/>
     </g>
    </g>
   </g>
   <g id="text_2">
    <g clip-path="url(#p7d3969af39)">
     <!-- $R_1$ -->
     <g transform="translate(95.8903 29.703125)scale(0.125 -0.125)">
      <defs>
       <path id="STIXGeneral-Italic-52" d="M 845 4179 
L 2458 4179 
Q 3078 4179 3420 3936 
Q 3763 3693 3763 3277 
Q 3763 2778 3341 2458 
Q 3091 2266 2502 2131 
L 3072 627 
Q 3181 333 3299 217 
Q 3418 102 3629 102 
L 3629 0 
L 2688 0 
L 1901 2074 
L 1478 2106 
L 1126 806 
Q 1043 512 1043 403 
Q 1043 256 1126 192 
Q 1210 128 1472 102 
L 1472 0 
L -83 0 
L -83 102 
Q 173 134 278 243 
Q 384 352 461 646 
L 1222 3405 
Q 1299 3699 1299 3808 
Q 1299 3923 1210 3987 
Q 1133 4038 845 4077 
L 845 4179 
z
M 1958 3795 
L 1555 2342 
Q 1754 2310 1882 2310 
Q 2451 2310 2771 2566 
Q 3091 2822 3091 3270 
Q 3091 3603 2892 3795 
Q 2694 3987 2323 3987 
Q 2010 3987 1958 3795 
z
" transform="scale(0.015625)"/>
       <path id="STIXGeneral-Regular-31" d="M 2522 0 
L 755 0 
L 755 96 
Q 1107 115 1235 227 
Q 1363 339 1363 608 
L 1363 3482 
Q 1363 3795 1171 3795 
Q 1082 3795 883 3718 
L 710 3654 
L 710 3744 
L 1856 4326 
L 1914 4307 
L 1914 486 
Q 1914 275 2042 185 
Q 2170 96 2522 96 
L 2522 0 
z
" transform="scale(0.015625)"/>
      </defs>
      <use xlink:href="#STIXGeneral-Italic-52" transform="translate(0 0.703125)"/>
      <use xlink:href="#STIXGeneral-Regular-31" transform="translate(61.099991 -12.525)scale(0.7)"/>
     </g>
    </g>
    <g clip-path="url(#p7d3969af39)">
     <!-- 4Ω -->
     <g transform="translate(93.44987 43.700391)scale(0.125 -0.125)">
      <defs>
       <path id="DejaVuSans-34" d="M 2419 4116 
L 825 1625 
L 2419 1625 
L 2419 4116 
z
M 2253 4666 
L 3047 4666 
L 3047 1625 
L 3713 1625 
L 3713 1100 
L 3047 1100 
L 3047 0 
L 2419 0 
L 2419 1100 
L 313 1100 
L 313 1709 
L 2253 4666 
z
" transform="scale(0.015625)"/>
       <path id="DejaVuSans-3a9" d="M 4647 556 
L 4647 0 
L 2772 0 
L 2772 556 
Q 3325 859 3634 1378 
Q 3944 1897 3944 2528 
Q 3944 3278 3531 3731 
Q 3119 4184 2444 4184 
Q 1769 4184 1355 3729 
Q 941 3275 941 2528 
Q 941 1897 1250 1378 
Q 1563 859 2119 556 
L 2119 0 
L 244 0 
L 244 556 
L 1241 556 
Q 747 991 519 1456 
Q 294 1922 294 2497 
Q 294 3491 894 4106 
Q 1491 4722 2444 4722 
Q 3391 4722 3994 4106 
Q 4594 3494 4594 2528 
Q 4594 1922 4372 1459 
Q 4150 997 3647 556 
L 4647 556 
z
" transform="scale(0.015625)"/>
      </defs>
      <use xlink:href="#DejaVuSans-34"/>
      <use xlink:href="#DejaVuSans-3a9" x="63.623047"/>
     </g>
    </g>
   </g>
   <g id="text_3">
    <g clip-path="url(#p7d3969af39)">
     <!-- + -->
     <g style="fill: #0000ff" transform="translate(74.015495 77.218047)scale(0.125 -0.125)">
      <defs>
       <path id="DejaVuSans-2b" d="M 2944 4013 
L 2944 2272 
L 4684 2272 
L 4684 1741 
L 2944 1741 
L 2944 0 
L 2419 0 
L 2419 1741 
L 678 1741 
L 678 2272 
L 2419 2272 
L 2419 4013 
L 2944 4013 
z
" transform="scale(0.015625)"/>
      </defs>
      <use xlink:href="#DejaVuSans-2b"/>
     </g>
    </g>
   </g>
   <g id="text_4">
    <g clip-path="url(#p7d3969af39)">
     <!-- - -->
     <g style="fill: #0000ff" transform="translate(122.897917 77.218047)scale(0.125 -0.125)">
      <defs>
       <path id="DejaVuSans-2d" d="M 313 2009 
L 1997 2009 
L 1997 1497 
L 313 1497 
L 313 2009 
z
" transform="scale(0.015625)"/>
      </defs>
      <use xlink:href="#DejaVuSans-2d"/>
     </g>
    </g>
   </g>
   <g id="text_5">
    <g clip-path="url(#p7d3969af39)">
     <!-- $R_3$ -->
     <g transform="translate(187.6903 29.703125)scale(0.125 -0.125)">
      <defs>
       <path id="STIXGeneral-Regular-33" d="M 390 3264 
L 288 3290 
Q 435 3770 748 4048 
Q 1062 4326 1542 4326 
Q 1990 4326 2265 4083 
Q 2541 3840 2541 3450 
Q 2541 2925 1946 2566 
Q 2298 2413 2477 2227 
Q 2758 1914 2758 1402 
Q 2758 890 2464 506 
Q 2246 211 1840 60 
Q 1434 -90 979 -90 
Q 262 -90 262 275 
Q 262 378 339 442 
Q 416 506 525 506 
Q 685 506 915 339 
Q 1197 141 1466 141 
Q 1818 141 2058 425 
Q 2298 710 2298 1120 
Q 2298 1856 1632 2048 
Q 1434 2112 979 2112 
L 979 2202 
Q 1338 2323 1517 2432 
Q 2035 2726 2035 3290 
Q 2035 3610 1852 3776 
Q 1670 3942 1344 3942 
Q 768 3942 390 3264 
z
" transform="scale(0.015625)"/>
      </defs>
      <use xlink:href="#STIXGeneral-Italic-52" transform="translate(0 0.703125)"/>
      <use xlink:href="#STIXGeneral-Regular-33" transform="translate(61.099991 -12.525)scale(0.7)"/>
     </g>
    </g>
    <g clip-path="url(#p7d3969af39)">
     <!-- 3Ω -->
     <g transform="translate(185.24987 43.700391)scale(0.125 -0.125)">
      <defs>
       <path id="DejaVuSans-33" d="M 2597 2516 
Q 3050 2419 3304 2112 
Q 3559 1806 3559 1356 
Q 3559 666 3084 287 
Q 2609 -91 1734 -91 
Q 1441 -91 1130 -33 
Q 819 25 488 141 
L 488 750 
Q 750 597 1062 519 
Q 1375 441 1716 441 
Q 2309 441 2620 675 
Q 2931 909 2931 1356 
Q 2931 1769 2642 2001 
Q 2353 2234 1838 2234 
L 1294 2234 
L 1294 2753 
L 1863 2753 
Q 2328 2753 2575 2939 
Q 2822 3125 2822 3475 
Q 2822 3834 2567 4026 
Q 2313 4219 1838 4219 
Q 1578 4219 1281 4162 
Q 984 4106 628 3988 
L 628 4550 
Q 988 4650 1302 4700 
Q 1616 4750 1894 4750 
Q 2613 4750 3031 4423 
Q 3450 4097 3450 3541 
Q 3450 3153 3228 2886 
Q 3006 2619 2597 2516 
z
" transform="scale(0.015625)"/>
      </defs>
      <use xlink:href="#DejaVuSans-33"/>
      <use xlink:href="#DejaVuSans-3a9" x="63.623047"/>
     </g>
    </g>
   </g>
   <g id="text_6">
    <g clip-path="url(#p7d3969af39)">
     <!-- + -->
     <g style="fill: #ff0000" transform="translate(165.815495 77.218047)scale(0.125 -0.125)">
      <use xlink:href="#DejaVuSans-2b"/>
     </g>
    </g>
   </g>
   <g id="text_7">
    <g clip-path="url(#p7d3969af39)">
     <!-- - -->
     <g style="fill: #ff0000" transform="translate(214.697917 77.218047)scale(0.125 -0.125)">
      <use xlink:href="#DejaVuSans-2d"/>
     </g>
    </g>
   </g>
   <g id="text_8">
    <g clip-path="url(#p7d3969af39)">
     <!-- $I_S$ -->
     <g transform="translate(258.2628 99.360586)scale(0.125 -0.125)">
      <defs>
       <path id="STIXGeneral-Italic-49" d="M 2458 4179 
L 2458 4077 
Q 2189 4045 2102 3961 
Q 2016 3878 1933 3584 
L 1165 838 
Q 1069 499 1069 352 
Q 1069 224 1149 179 
Q 1229 134 1510 102 
L 1510 0 
L -51 0 
L -51 102 
Q 218 154 317 237 
Q 416 320 486 582 
L 1254 3405 
Q 1338 3699 1338 3802 
Q 1338 3930 1235 3997 
Q 1133 4064 877 4077 
L 877 4179 
L 2458 4179 
z
" transform="scale(0.015625)"/>
      </defs>
      <use xlink:href="#STIXGeneral-Italic-49" transform="translate(0 0.703125)"/>
      <use xlink:href="#STIXGeneral-Italic-53" transform="translate(33.299988 -12.525)scale(0.7)"/>
     </g>
    </g>
    <g clip-path="url(#p7d3969af39)">
     <!-- 5A -->
     <g transform="translate(258.2628 113.357852)scale(0.125 -0.125)">
      <defs>
       <path id="DejaVuSans-35" d="M 691 4666 
L 3169 4666 
L 3169 4134 
L 1269 4134 
L 1269 2991 
Q 1406 3038 1543 3061 
Q 1681 3084 1819 3084 
Q 2600 3084 3056 2656 
Q 3513 2228 3513 1497 
Q 3513 744 3044 326 
Q 2575 -91 1722 -91 
Q 1428 -91 1123 -41 
Q 819 9 494 109 
L 494 744 
Q 775 591 1075 516 
Q 1375 441 1709 441 
Q 2250 441 2565 725 
Q 2881 1009 2881 1497 
Q 2881 1984 2565 2268 
Q 2250 2553 1709 2553 
Q 1456 2553 1204 2497 
Q 953 2441 691 2322 
L 691 4666 
z
" transform="scale(0.015625)"/>
       <path id="DejaVuSans-41" d="M 2188 4044 
L 1331 1722 
L 3047 1722 
L 2188 4044 
z
M 1831 4666 
L 2547 4666 
L 4325 0 
L 3669 0 
L 3244 1197 
L 1141 1197 
L 716 0 
L 50 0 
L 1831 4666 
z
" transform="scale(0.015625)"/>
      </defs>
      <use xlink:href="#DejaVuSans-35"/>
      <use xlink:href="#DejaVuSans-41" x="63.623047"/>
     </g>
    </g>
   </g>
   <g id="text_9">
    <g clip-path="url(#p7d3969af39)">
     <!-- $R_2$ -->
     <g transform="translate(124.7678 99.360586)scale(0.125 -0.125)">
      <defs>
       <path id="STIXGeneral-Regular-32" d="M 3034 877 
L 2688 0 
L 186 0 
L 186 77 
L 1325 1286 
Q 1773 1754 1965 2144 
Q 2157 2534 2157 2950 
Q 2157 3379 1920 3616 
Q 1683 3853 1267 3853 
Q 922 3853 720 3673 
Q 518 3494 326 3021 
L 192 3053 
Q 301 3648 630 3987 
Q 960 4326 1523 4326 
Q 2054 4326 2380 4006 
Q 2707 3686 2707 3200 
Q 2707 2477 1888 1613 
L 832 486 
L 2330 486 
Q 2541 486 2665 569 
Q 2790 653 2944 915 
L 3034 877 
z
" transform="scale(0.015625)"/>
      </defs>
      <use xlink:href="#STIXGeneral-Italic-52" transform="translate(0 0.703125)"/>
      <use xlink:href="#STIXGeneral-Regular-32" transform="translate(61.099991 -12.525)scale(0.7)"/>
     </g>
    </g>
    <g clip-path="url(#p7d3969af39)">
     <!-- 6Ω -->
     <g transform="translate(119.886941 113.357852)scale(0.125 -0.125)">
      <defs>
       <path id="DejaVuSans-36" d="M 2113 2584 
Q 1688 2584 1439 2293 
Q 1191 2003 1191 1497 
Q 1191 994 1439 701 
Q 1688 409 2113 409 
Q 2538 409 2786 701 
Q 3034 994 3034 1497 
Q 3034 2003 2786 2293 
Q 2538 2584 2113 2584 
z
M 3366 4563 
L 3366 3988 
Q 3128 4100 2886 4159 
Q 2644 4219 2406 4219 
Q 1781 4219 1451 3797 
Q 1122 3375 1075 2522 
Q 1259 2794 1537 2939 
Q 1816 3084 2150 3084 
Q 2853 3084 3261 2657 
Q 3669 2231 3669 1497 
Q 3669 778 3244 343 
Q 2819 -91 2113 -91 
Q 1303 -91 875 529 
Q 447 1150 447 2328 
Q 447 3434 972 4092 
Q 1497 4750 2381 4750 
Q 2619 4750 2861 4703 
Q 3103 4656 3366 4563 
z
" transform="scale(0.015625)"/>
      </defs>
      <use xlink:href="#DejaVuSans-36"/>
      <use xlink:href="#DejaVuSans-3a9" x="63.623047"/>
     </g>
    </g>
   </g>
   <g id="text_10">
    <g clip-path="url(#p7d3969af39)">
     <!-- + -->
     <g style="fill: #0000ff" transform="translate(126.918191 83.409219)scale(0.125 -0.125)">
      <use xlink:href="#DejaVuSans-2b"/>
     </g>
    </g>
   </g>
   <g id="text_11">
    <g clip-path="url(#p7d3969af39)">
     <!-- - -->
     <g style="fill: #0000ff" transform="translate(132.883034 129.309219)scale(0.125 -0.125)">
      <use xlink:href="#DejaVuSans-2d"/>
     </g>
    </g>
   </g>
   <g id="text_12">
    <g clip-path="url(#p7d3969af39)">
     <!-- - -->
     <g style="fill: #ff0000" transform="translate(158.8128 83.409219)scale(0.125 -0.125)">
      <use xlink:href="#DejaVuSans-2d"/>
     </g>
    </g>
   </g>
   <g id="text_13">
    <g clip-path="url(#p7d3969af39)">
     <!-- + -->
     <g style="fill: #ff0000" transform="translate(158.8128 129.309219)scale(0.125 -0.125)">
      <use xlink:href="#DejaVuSans-2b"/>
     </g>
    </g>
   </g>
   <g id="text_14">
    <g clip-path="url(#p7d3969af39)">
     <!-- $I_1$ -->
     <g style="fill: #0000ff" transform="translate(101.4653 110.184219)scale(0.125 -0.125)">
      <use xlink:href="#STIXGeneral-Italic-49" transform="translate(0 0.703125)"/>
      <use xlink:href="#STIXGeneral-Regular-31" transform="translate(33.299988 -12.525)scale(0.7)"/>
     </g>
    </g>
   </g>
   <g id="text_15">
    <g clip-path="url(#p7d3969af39)">
     <!-- $I_2$ -->
     <g style="fill: #ff0000" transform="translate(185.6153 110.184219)scale(0.125 -0.125)">
      <use xlink:href="#STIXGeneral-Italic-49" transform="translate(0 0.703125)"/>
      <use xlink:href="#STIXGeneral-Regular-32" transform="translate(33.299988 -12.525)scale(0.7)"/>
     </g>
    </g>
   </g>
   <g id="text_16">
    <g clip-path="url(#p7d3969af39)">
     <!-- $V_S$ -->
     <g transform="translate(25.3178 99.360586)scale(0.125 -0.125)">
      <use xlink:href="#STIXGeneral-Italic-56" transform="translate(0 0.703125)"/>
      <use xlink:href="#STIXGeneral-Italic-53" transform="translate(61.099991 -12.525)scale(0.7)"/>
     </g>
    </g>
    <g clip-path="url(#p7d3969af39)">
     <!-- 10V -->
     <g transform="translate(13.485769 113.357852)scale(0.125 -0.125)">
      <use xlink:href="#DejaVuSans-31"/>
      <use xlink:href="#DejaVuSans-30" x="63.623047"/>
      <use xlink:href="#DejaVuSans-56" x="127.246094"/>
     </g>
    </g>
   </g>
   <g id="text_17">
    <g clip-path="url(#p7d3969af39)">
     <!-- $R_1$ -->
     <g transform="translate(95.8903 29.703125)scale(0.125 -0.125)">
      <use xlink:href="#STIXGeneral-Italic-52" transform="translate(0 0.703125)"/>
      <use xlink:href="#STIXGeneral-Regular-31" transform="translate(61.099991 -12.525)scale(0.7)"/>
     </g>
    </g>
    <g clip-path="url(#p7d3969af39)">
     <!-- 4Ω -->
     <g transform="translate(93.44987 43.700391)scale(0.125 -0.125)">
      <use xlink:href="#DejaVuSans-34"/>
      <use xlink:href="#DejaVuSans-3a9" x="63.623047"/>
     </g>
    </g>
   </g>
   <g id="text_18">
    <g clip-path="url(#p7d3969af39)">
     <!-- + -->
     <g style="fill: #0000ff" transform="translate(74.015495 77.218047)scale(0.125 -0.125)">
      <use xlink:href="#DejaVuSans-2b"/>
     </g>
    </g>
   </g>
   <g id="text_19">
    <g clip-path="url(#p7d3969af39)">
     <!-- - -->
     <g style="fill: #0000ff" transform="translate(122.897917 77.218047)scale(0.125 -0.125)">
      <use xlink:href="#DejaVuSans-2d"/>
     </g>
    </g>
   </g>
   <g id="text_20">
    <g clip-path="url(#p7d3969af39)">
     <!-- $R_3$ -->
     <g transform="translate(187.6903 29.703125)scale(0.125 -0.125)">
      <use xlink:href="#STIXGeneral-Italic-52" transform="translate(0 0.703125)"/>
      <use xlink:href="#STIXGeneral-Regular-33" transform="translate(61.099991 -12.525)scale(0.7)"/>
     </g>
    </g>
    <g clip-path="url(#p7d3969af39)">
     <!-- 3Ω -->
     <g transform="translate(185.24987 43.700391)scale(0.125 -0.125)">
      <use xlink:href="#DejaVuSans-33"/>
      <use xlink:href="#DejaVuSans-3a9" x="63.623047"/>
     </g>
    </g>
   </g>
   <g id="text_21">
    <g clip-path="url(#p7d3969af39)">
     <!-- + -->
     <g style="fill: #ff0000" transform="translate(165.815495 77.218047)scale(0.125 -0.125)">
      <use xlink:href="#DejaVuSans-2b"/>
     </g>
    </g>
   </g>
   <g id="text_22">
    <g clip-path="url(#p7d3969af39)">
     <!-- - -->
     <g style="fill: #ff0000" transform="translate(214.697917 77.218047)scale(0.125 -0.125)">
      <use xlink:href="#DejaVuSans-2d"/>
     </g>
    </g>
   </g>
   <g id="text_23">
    <g clip-path="url(#p7d3969af39)">
     <!-- $I_S$ -->
     <g transform="translate(258.2628 99.360586)scale(0.125 -0.125)">
      <use xlink:href="#STIXGeneral-Italic-49" transform="translate(0 0.703125)"/>
      <use xlink:href="#STIXGeneral-Italic-53" transform="translate(33.299988 -12.525)scale(0.7)"/>
     </g>
    </g>
    <g clip-path="url(#p7d3969af39)">
     <!-- 5A -->
     <g transform="translate(258.2628 113.357852)scale(0.125 -0.125)">
      <use xlink:href="#DejaVuSans-35"/>
      <use xlink:href="#DejaVuSans-41" x="63.623047"/>
     </g>
    </g>
   </g>
   <g id="text_24">
    <g clip-path="url(#p7d3969af39)">
     <!-- $R_2$ -->
     <g transform="translate(124.7678 99.360586)scale(0.125 -0.125)">
      <use xlink:href="#STIXGeneral-Italic-52" transform="translate(0 0.703125)"/>
      <use xlink:href="#STIXGeneral-Regular-32" transform="translate(61.099991 -12.525)scale(0.7)"/>
     </g>
    </g>
    <g clip-path="url(#p7d3969af39)">
     <!-- 6Ω -->
     <g transform="translate(119.886941 113.357852)scale(0.125 -0.125)">
      <use xlink:href="#DejaVuSans-36"/>
      <use xlink:href="#DejaVuSans-3a9" x="63.623047"/>
     </g>
    </g>
   </g>
   <g id="text_25">
    <g clip-path="url(#p7d3969af39)">
     <!-- + -->
     <g style="fill: #0000ff" transform="translate(126.918191 83.409219)scale(0.125 -0.125)">
      <use xlink:href="#DejaVuSans-2b"/>
     </g>
    </g>
   </g>
   <g id="text_26">
    <g clip-path="url(#p7d3969af39)">
     <!-- - -->
     <g style="fill: #0000ff" transform="translate(132.883034 129.309219)scale(0.125 -0.125)">
      <use xlink:href="#DejaVuSans-2d"/>
     </g>
    </g>
   </g>
   <g id="text_27">
    <g clip-path="url(#p7d3969af39)">
     <!-- - -->
     <g style="fill: #ff0000" transform="translate(158.8128 83.409219)scale(0.125 -0.125)">
      <use xlink:href="#DejaVuSans-2d"/>
     </g>
    </g>
   </g>
   <g id="text_28">
    <g clip-path="url(#p7d3969af39)">
     <!-- + -->
     <g style="fill: #ff0000" transform="translate(158.8128 129.309219)scale(0.125 -0.125)">
      <use xlink:href="#DejaVuSans-2b"/>
     </g>
    </g>
   </g>
   <g id="text_29">
    <g clip-path="url(#p7d3969af39)">
     <!-- $I_1$ -->
     <g style="fill: #0000ff" transform="translate(101.4653 110.184219)scale(0.125 -0.125)">
      <use xlink:href="#STIXGeneral-Italic-49" transform="translate(0 0.703125)"/>
      <use xlink:href="#STIXGeneral-Regular-31" transform="translate(33.299988 -12.525)scale(0.7)"/>
     </g>
    </g>
   </g>
   <g id="text_30">
    <g clip-path="url(#p7d3969af39)">
     <!-- $I_2$ -->
     <g style="fill: #ff0000" transform="translate(185.6153 110.184219)scale(0.125 -0.125)">
      <use xlink:href="#STIXGeneral-Italic-49" transform="translate(0 0.703125)"/>
      <use xlink:href="#STIXGeneral-Regular-32" transform="translate(33.299988 -12.525)scale(0.7)"/>
     </g>
    </g>
   </g>
  </g>
 </g>
 <defs>
  <clipPath id="p7d3969af39">
   <rect x="7.2" y="7.2" width="281.1426" height="144.67"/>
  </clipPath>
 </defs>
</svg>
