<?xml version="1.0" encoding="utf-8" standalone="no"?>
<!DOCTYPE svg PUBLIC "-//W3C//DTD SVG 1.1//EN"
  "http://www.w3.org/Graphics/SVG/1.1/DTD/svg11.dtd">
<svg xmlns:xlink="http://www.w3.org/1999/xlink" width="363.409766pt" height="349.74pt" viewBox="0 0 363.409766 349.74" xmlns="http://www.w3.org/2000/svg" version="1.1">
 <metadata>
  <rdf:RDF xmlns:dc="http://purl.org/dc/elements/1.1/" xmlns:cc="http://creativecommons.org/ns#" xmlns:rdf="http://www.w3.org/1999/02/22-rdf-syntax-ns#">
   <cc:Work>
    <dc:type rdf:resource="http://purl.org/dc/dcmitype/StillImage"/>
    <dc:date>2024-03-15T17:20:06.316938</dc:date>
    <dc:format>image/svg+xml</dc:format>
    <dc:creator>
     <cc:Agent>
      <dc:title>Matplotlib v3.8.2, https://matplotlib.org/</dc:title>
     </cc:Agent>
    </dc:creator>
   </cc:Work>
  </rdf:RDF>
 </metadata>
 <defs>
  <style type="text/css">*{stroke-linejoin: round; stroke-linecap: butt}</style>
 </defs>
 <g id="figure_1">
  <g id="patch_1">
   <path d="M 0 349.74 
L 363.409766 349.74 
L 363.409766 0 
L 0 0 
L 0 349.74 
z
" style="fill: none"/>
  </g>
  <g id="axes_1">
   <g id="patch_2">
    <path d="M 41.703906 181.17 
C 46.477562 181.17 51.056344 179.273406 54.431828 175.897922 
C 57.807313 172.522438 59.703906 167.943656 59.703906 163.17 
C 59.703906 158.396344 57.807313 153.817562 54.431828 150.442078 
C 51.056344 147.066594 46.477562 145.17 41.703906 145.17 
C 36.93025 145.17 32.351469 147.066594 28.975984 150.442078 
C 25.6005 153.817562 23.703906 158.396344 23.703906 163.17 
C 23.703906 167.943656 25.6005 172.522438 28.975984 175.897922 
C 32.351469 179.273406 36.93025 181.17 41.703906 181.17 
L 41.703906 181.17 
z
" clip-path="url(#p135ee05e0f)" style="fill: none; stroke: #000000; stroke-width: 2; stroke-linejoin: miter"/>
   </g>
   <g id="patch_3">
    <path d="M 185.703906 217.17 
C 190.477562 217.17 195.056344 215.273406 198.431828 211.897922 
C 201.807313 208.522438 203.703906 203.943656 203.703906 199.17 
C 203.703906 194.396344 201.807313 189.817562 198.431828 186.442078 
C 195.056344 183.066594 190.477562 181.17 185.703906 181.17 
C 180.93025 181.17 176.351469 183.066594 172.975984 186.442078 
C 169.6005 189.817562 167.703906 194.396344 167.703906 199.17 
C 167.703906 203.943656 169.6005 208.522438 172.975984 211.897922 
C 176.351469 215.273406 180.93025 217.17 185.703906 217.17 
L 185.703906 217.17 
z
" clip-path="url(#p135ee05e0f)" style="fill: none; stroke: #000000; stroke-width: 2; stroke-linejoin: miter"/>
   </g>
   <g id="patch_4">
    <path d="M 140.468261 147.580331 
C 140.06154 134.197357 139.134688 121.299415 137.736017 109.558777 
C 136.337345 97.818139 134.491584 87.442397 132.294938 78.97236 
C 130.098293 70.502323 127.589603 64.087753 124.899628 60.062993 
C 122.209653 56.038234 119.385956 54.474449 116.575714 55.453146 
C 113.765472 56.431843 111.018374 59.935717 108.477607 65.782139 
C 105.93684 71.628561 103.647327 79.714156 101.728404 89.617485 
C 99.809481 99.520813 98.295077 111.066769 97.264126 123.653549 
C 96.233175 136.240329 95.703906 149.645381 95.703906 163.17 
C 95.703906 176.694619 96.233175 190.099671 97.264126 202.686451 
C 98.295077 215.273231 99.809481 226.819187 101.728404 236.722515 
C 103.647327 246.625844 105.93684 254.711439 108.477607 260.557861 
C 111.018374 266.404283 113.765472 269.908157 116.575714 270.886854 
C 119.385956 271.865551 122.209653 270.301766 124.899628 266.277007 
C 127.589603 262.252247 130.098293 255.837677 132.294938 247.36764 
C 134.491584 238.897603 136.337345 228.521861 137.736017 216.781223 
C 139.134688 205.040585 140.06154 192.142643 140.468261 178.759669 
" clip-path="url(#p135ee05e0f)" style="fill: none; stroke: #0000ff; stroke-width: 2; stroke-linejoin: miter"/>
   </g>
   <g id="patch_5">
    <path d="M 141.819365 156.842303 
L 137.848504 148.326302 
L 140.502415 147.939159 
L 140.450449 147.582929 
L 140.486072 147.577733 
L 140.538038 147.933962 
L 143.191949 147.546819 
z
" clip-path="url(#p135ee05e0f)" style="fill: #0000ff; stroke: #0000ff; stroke-linejoin: miter"/>
   </g>
   <g id="patch_6">
    <path d="M 295.665429 60.089056 
C 293.067471 55.599632 289.828254 51.600305 286.07272 48.245339 
C 282.317186 44.890372 278.09425 42.223463 273.566798 40.347478 
C 269.039346 38.471492 264.266347 37.410866 259.431904 37.206509 
C 254.597461 37.002151 249.764542 37.656725 245.119561 39.144981 
C 240.47458 40.633237 236.078036 42.935791 232.099513 45.963831 
C 228.12099 48.99187 224.612307 52.705955 221.708799 56.962826 
C 218.805291 61.219697 216.544776 65.96391 215.014447 71.012472 
C 213.484118 76.061033 212.703906 81.348188 212.703906 86.67 
C 212.703906 91.991812 213.484118 97.278967 215.014447 102.327528 
C 216.544776 107.37609 218.805291 112.120303 221.708799 116.377174 
C 224.612307 120.634045 228.12099 124.34813 232.099513 127.376169 
C 236.078036 130.404209 240.47458 132.706763 245.119561 134.195019 
C 249.764542 135.683275 254.597461 136.337849 259.431904 136.133491 
C 264.266347 135.929134 269.039346 134.868508 273.566798 132.992522 
C 278.09425 131.116537 282.317186 128.449628 286.07272 125.094661 
C 289.828254 121.739695 293.067471 117.740368 295.665429 113.250944 
" clip-path="url(#p135ee05e0f)" style="fill: none; stroke: #ff0000; stroke-width: 2; stroke-linejoin: miter"/>
   </g>
   <g id="patch_7">
    <path d="M 300.691644 67.985052 
L 293.581053 61.842618 
L 295.84356 60.402414 
L 295.650244 60.098722 
L 295.680613 60.07939 
L 295.873929 60.383082 
L 298.136436 58.942878 
z
" clip-path="url(#p135ee05e0f)" style="fill: #ff0000; stroke: #ff0000; stroke-linejoin: miter"/>
   </g>
   <g id="patch_8">
    <path d="M 280.854398 223.459851 
C 279.345258 220.526282 277.436483 217.899063 275.2032 215.681599 
C 272.969916 213.464135 270.441813 211.685903 267.718394 210.416894 
C 264.994975 209.147884 262.112443 208.404967 259.184253 208.217381 
C 256.256062 208.029796 253.321139 208.400036 250.494998 209.31353 
C 247.668857 210.227024 244.989069 211.671627 242.561105 213.590483 
C 240.133142 215.509339 237.989282 217.876938 236.213902 220.600094 
C 234.438523 223.323251 233.055228 226.365764 232.11846 229.607884 
C 231.181693 232.850004 230.703906 236.248631 230.703906 239.67 
C 230.703906 243.091369 231.181693 246.489996 232.11846 249.732116 
C 233.055228 252.974236 234.438523 256.016749 236.213902 258.739906 
C 237.989282 261.463062 240.133142 263.830661 242.561105 265.749517 
C 244.989069 267.668373 247.668857 269.112976 250.494998 270.02647 
C 253.321139 270.939964 256.256062 271.310204 259.184253 271.122619 
C 262.112443 270.935033 264.994975 270.192116 267.718394 268.923106 
C 270.441813 267.654097 272.969916 265.875865 275.2032 263.658401 
C 277.436483 261.440937 279.345258 258.813718 280.854398 255.880149 
" clip-path="url(#p135ee05e0f)" style="fill: none; stroke: #ffa500; stroke-width: 2; stroke-linejoin: miter"/>
   </g>
   <g id="patch_9">
    <path d="M 285.671128 231.485355 
L 278.724608 225.157966 
L 281.024223 223.777787 
L 280.838965 223.469114 
L 280.869832 223.450588 
L 281.055091 223.759261 
L 283.354706 222.379083 
z
" clip-path="url(#p135ee05e0f)" style="fill: #ffa500; stroke: #ffa500; stroke-linejoin: miter"/>
   </g>
   <g id="line2d_1">
    <path d="M 41.703906 307.17 
L 41.703906 181.17 
L 41.703906 181.17 
M 41.703906 145.17 
L 41.703906 145.17 
L 41.703906 19.17 
" clip-path="url(#p135ee05e0f)" style="fill: none; stroke: #000000; stroke-width: 2; stroke-linecap: round"/>
   </g>
   <g id="line2d_2">
    <path d="M 45.303906 172.17 
L 38.103906 172.17 
" clip-path="url(#p135ee05e0f)" style="fill: none; stroke: #000000; stroke-width: 2; stroke-linecap: round"/>
   </g>
   <g id="line2d_3">
    <path d="M 41.703906 157.77 
L 41.703906 150.57 
" clip-path="url(#p135ee05e0f)" style="fill: none; stroke: #000000; stroke-width: 2; stroke-linecap: round"/>
   </g>
   <g id="line2d_4">
    <path d="M 45.303906 154.17 
L 38.103906 154.17 
" clip-path="url(#p135ee05e0f)" style="fill: none; stroke: #000000; stroke-width: 2; stroke-linecap: round"/>
   </g>
   <g id="line2d_5">
    <path d="M 41.703906 19.17 
L 113.703906 19.17 
L 185.703906 19.17 
" clip-path="url(#p135ee05e0f)" style="fill: none; stroke: #000000; stroke-width: 2; stroke-linecap: round"/>
   </g>
   <g id="line2d_6">
    <path d="M 185.703906 19.17 
L 257.703906 19.17 
L 329.703906 19.17 
" clip-path="url(#p135ee05e0f)" style="fill: none; stroke: #000000; stroke-width: 2; stroke-linecap: round"/>
   </g>
   <g id="line2d_7">
    <path d="M 329.703906 19.17 
L 329.703906 73.17 
L 338.703906 76.17 
L 320.703906 82.17 
L 338.703906 88.17 
L 320.703906 94.17 
L 338.703906 100.17 
L 320.703906 106.17 
L 329.703906 109.17 
L 329.703906 163.17 
" clip-path="url(#p135ee05e0f)" style="fill: none; stroke: #000000; stroke-width: 2; stroke-linecap: round"/>
   </g>
   <g id="line2d_8">
    <path d="M 329.703906 163.17 
L 329.703906 217.17 
L 338.703906 220.17 
L 320.703906 226.17 
L 338.703906 232.17 
L 320.703906 238.17 
L 338.703906 244.17 
L 320.703906 250.17 
L 329.703906 253.17 
L 329.703906 307.17 
" clip-path="url(#p135ee05e0f)" style="fill: none; stroke: #000000; stroke-width: 2; stroke-linecap: round"/>
   </g>
   <g id="line2d_9">
    <path d="M 329.703906 307.17 
L 185.703906 307.17 
L 41.703906 307.17 
" clip-path="url(#p135ee05e0f)" style="fill: none; stroke: #000000; stroke-width: 2; stroke-linecap: round"/>
   </g>
   <g id="line2d_10">
    <path d="M 41.703906 307.17 
L 41.703906 321.57 
L 32.703906 321.57 
L 41.703906 330.57 
L 50.703906 321.57 
L 41.703906 321.57 
" clip-path="url(#p135ee05e0f)" style="fill: none; stroke: #000000; stroke-width: 2; stroke-linecap: round"/>
   </g>
   <g id="line2d_11">
    <path d="M 185.703906 19.17 
L 185.703906 73.17 
L 194.703906 76.17 
L 176.703906 82.17 
L 194.703906 88.17 
L 176.703906 94.17 
L 194.703906 100.17 
L 176.703906 106.17 
L 185.703906 109.17 
L 185.703906 163.17 
" clip-path="url(#p135ee05e0f)" style="fill: none; stroke: #000000; stroke-width: 2; stroke-linecap: round"/>
   </g>
   <g id="line2d_12">
    <path d="M 185.703906 163.17 
L 185.703906 181.17 
L 185.703906 181.17 
M 185.703906 217.17 
L 185.703906 217.17 
L 185.703906 235.17 
" clip-path="url(#p135ee05e0f)" style="fill: none; stroke: #000000; stroke-width: 2; stroke-linecap: round"/>
   </g>
   <g id="line2d_13">
    <path d="M 185.703906 190.17 
L 185.703906 199.17 
" clip-path="url(#p135ee05e0f)" style="fill: none; stroke: #000000; stroke-width: 2; stroke-linecap: round"/>
   </g>
   <g id="patch_10">
    <path d="M 188.403906 199.17 
L 185.703906 208.17 
L 183.003906 199.17 
z
" clip-path="url(#p135ee05e0f)"/>
   </g>
   <g id="line2d_14">
    <path d="M 185.703906 235.17 
L 185.703906 253.17 
L 194.703906 256.17 
L 176.703906 262.17 
L 194.703906 268.17 
L 176.703906 274.17 
L 194.703906 280.17 
L 176.703906 286.17 
L 185.703906 289.17 
L 185.703906 307.17 
" clip-path="url(#p135ee05e0f)" style="fill: none; stroke: #000000; stroke-width: 2; stroke-linecap: round"/>
   </g>
   <g id="line2d_15">
    <path d="M 185.703906 163.17 
L 239.703906 163.17 
L 242.703906 154.17 
L 248.703906 172.17 
L 254.703906 154.17 
L 260.703906 172.17 
L 266.703906 154.17 
L 272.703906 172.17 
L 275.703906 163.17 
L 329.703906 163.17 
" clip-path="url(#p135ee05e0f)" style="fill: none; stroke: #000000; stroke-width: 2; stroke-linecap: round"/>
   </g>
   <g id="line2d_16">
    <path d="M 59.703906 289.17 
L 59.703906 163.17 
L 59.703906 37.17 
" clip-path="url(#p135ee05e0f)" style="fill: none; stroke-dasharray: 7.4,3.2; stroke-dashoffset: 0; stroke: #008000; stroke-width: 2"/>
   </g>
   <g id="line2d_17">
    <path d="M 59.703906 37.17 
L 104.703906 37.17 
L 149.703906 37.17 
" clip-path="url(#p135ee05e0f)" style="fill: none; stroke-dasharray: 7.4,3.2; stroke-dashoffset: 0; stroke: #008000; stroke-width: 2"/>
   </g>
   <g id="line2d_18">
    <path d="M 149.703906 37.17 
L 149.703906 104.67 
L 149.703906 172.17 
" clip-path="url(#p135ee05e0f)" style="fill: none; stroke-dasharray: 7.4,3.2; stroke-dashoffset: 0; stroke: #008000; stroke-width: 2"/>
   </g>
   <g id="line2d_19">
    <path d="M 149.703906 172.17 
L 235.203906 172.17 
L 320.703906 172.17 
" clip-path="url(#p135ee05e0f)" style="fill: none; stroke-dasharray: 7.4,3.2; stroke-dashoffset: 0; stroke: #008000; stroke-width: 2"/>
   </g>
   <g id="line2d_20">
    <path d="M 320.703906 172.17 
L 320.703906 235.17 
L 320.703906 298.17 
" clip-path="url(#p135ee05e0f)" style="fill: none; stroke-dasharray: 7.4,3.2; stroke-dashoffset: 0; stroke: #008000; stroke-width: 2"/>
   </g>
   <g id="line2d_21">
    <path d="M 320.703906 298.17 
L 208.203906 298.17 
L 104.703906 298.17 
" clip-path="url(#p135ee05e0f)" style="fill: none; stroke-dasharray: 7.4,3.2; stroke-dashoffset: 0; stroke: #008000; stroke-width: 2"/>
   </g>
   <g id="patch_11">
    <path d="M 104.703906 300.87 
L 95.703906 298.17 
L 104.703906 295.47 
z
" clip-path="url(#p135ee05e0f)" style="fill: #008000"/>
   </g>
   <g id="text_1">
    <!-- $V_S$ -->
    <g transform="translate(7.478906 159.620586) scale(0.125 -0.125)">
     <defs>
      <path id="STIXGeneral-Italic-56" d="M 4403 4179 
L 4403 4077 
Q 4198 4070 4045 3821 
L 1658 -115 
L 1536 -115 
L 1011 3104 
Q 902 3776 828 3910 
Q 755 4045 486 4077 
L 486 4179 
L 2022 4179 
L 2022 4077 
Q 1722 4045 1629 3981 
Q 1536 3917 1536 3750 
Q 1536 3686 1542 3654 
L 1958 819 
L 3302 3123 
Q 3616 3661 3616 3859 
Q 3616 4032 3219 4077 
L 3219 4179 
L 4403 4179 
z
" transform="scale(0.015625)"/>
      <path id="STIXGeneral-Italic-53" d="M 3251 4269 
L 2995 2989 
L 2880 3008 
Q 2880 3539 2720 3795 
Q 2560 4051 2118 4051 
Q 1786 4051 1594 3881 
Q 1402 3712 1402 3411 
Q 1402 3168 1504 3005 
Q 1606 2842 2035 2413 
Q 2464 1978 2611 1715 
Q 2758 1453 2758 1133 
Q 2758 589 2390 237 
Q 2022 -115 1466 -115 
Q 1222 -115 800 32 
Q 595 109 499 109 
Q 288 109 224 -96 
L 109 -96 
L 326 1338 
L 454 1325 
Q 442 1267 442 1178 
Q 442 710 701 409 
Q 960 109 1363 109 
Q 1734 109 1968 336 
Q 2202 563 2202 928 
Q 2202 1139 2118 1308 
Q 2035 1478 1818 1715 
L 1568 1984 
Q 1549 2003 1459 2102 
Q 1370 2202 1318 2253 
Q 1030 2560 934 2755 
Q 838 2950 838 3213 
Q 838 3699 1168 3980 
Q 1498 4262 1978 4262 
Q 2310 4262 2522 4173 
Q 2707 4102 2816 4102 
Q 2925 4102 2982 4134 
Q 3040 4166 3104 4269 
L 3251 4269 
z
" transform="scale(0.015625)"/>
     </defs>
     <use xlink:href="#STIXGeneral-Italic-56" transform="translate(0 0.703125)"/>
     <use xlink:href="#STIXGeneral-Italic-53" transform="translate(61.099991 -12.525) scale(0.7)"/>
    </g>
    <!-- 6V -->
    <g transform="translate(3.6 173.617852) scale(0.125 -0.125)">
     <defs>
      <path id="DejaVuSans-36" d="M 2113 2584 
Q 1688 2584 1439 2293 
Q 1191 2003 1191 1497 
Q 1191 994 1439 701 
Q 1688 409 2113 409 
Q 2538 409 2786 701 
Q 3034 994 3034 1497 
Q 3034 2003 2786 2293 
Q 2538 2584 2113 2584 
z
M 3366 4563 
L 3366 3988 
Q 3128 4100 2886 4159 
Q 2644 4219 2406 4219 
Q 1781 4219 1451 3797 
Q 1122 3375 1075 2522 
Q 1259 2794 1537 2939 
Q 1816 3084 2150 3084 
Q 2853 3084 3261 2657 
Q 3669 2231 3669 1497 
Q 3669 778 3244 343 
Q 2819 -91 2113 -91 
Q 1303 -91 875 529 
Q 447 1150 447 2328 
Q 447 3434 972 4092 
Q 1497 4750 2381 4750 
Q 2619 4750 2861 4703 
Q 3103 4656 3366 4563 
z
" transform="scale(0.015625)"/>
      <path id="DejaVuSans-56" d="M 1831 0 
L 50 4666 
L 709 4666 
L 2188 738 
L 3669 4666 
L 4325 4666 
L 2547 0 
L 1831 0 
z
" transform="scale(0.015625)"/>
     </defs>
     <use xlink:href="#DejaVuSans-36"/>
     <use xlink:href="#DejaVuSans-56" x="63.623047"/>
    </g>
   </g>
   <g id="text_2">
    <!-- $R_2$ -->
    <g transform="translate(342.303906 87.620586) scale(0.125 -0.125)">
     <defs>
      <path id="STIXGeneral-Italic-52" d="M 845 4179 
L 2458 4179 
Q 3078 4179 3420 3936 
Q 3763 3693 3763 3277 
Q 3763 2778 3341 2458 
Q 3091 2266 2502 2131 
L 3072 627 
Q 3181 333 3299 217 
Q 3418 102 3629 102 
L 3629 0 
L 2688 0 
L 1901 2074 
L 1478 2106 
L 1126 806 
Q 1043 512 1043 403 
Q 1043 256 1126 192 
Q 1210 128 1472 102 
L 1472 0 
L -83 0 
L -83 102 
Q 173 134 278 243 
Q 384 352 461 646 
L 1222 3405 
Q 1299 3699 1299 3808 
Q 1299 3923 1210 3987 
Q 1133 4038 845 4077 
L 845 4179 
z
M 1958 3795 
L 1555 2342 
Q 1754 2310 1882 2310 
Q 2451 2310 2771 2566 
Q 3091 2822 3091 3270 
Q 3091 3603 2892 3795 
Q 2694 3987 2323 3987 
Q 2010 3987 1958 3795 
z
" transform="scale(0.015625)"/>
      <path id="STIXGeneral-Regular-32" d="M 3034 877 
L 2688 0 
L 186 0 
L 186 77 
L 1325 1286 
Q 1773 1754 1965 2144 
Q 2157 2534 2157 2950 
Q 2157 3379 1920 3616 
Q 1683 3853 1267 3853 
Q 922 3853 720 3673 
Q 518 3494 326 3021 
L 192 3053 
Q 301 3648 630 3987 
Q 960 4326 1523 4326 
Q 2054 4326 2380 4006 
Q 2707 3686 2707 3200 
Q 2707 2477 1888 1613 
L 832 486 
L 2330 486 
Q 2541 486 2665 569 
Q 2790 653 2944 915 
L 3034 877 
z
" transform="scale(0.015625)"/>
     </defs>
     <use xlink:href="#STIXGeneral-Italic-52" transform="translate(0 0.703125)"/>
     <use xlink:href="#STIXGeneral-Regular-32" transform="translate(61.099991 -12.525) scale(0.7)"/>
    </g>
    <!-- 2Ω -->
    <g transform="translate(342.303906 101.617852) scale(0.125 -0.125)">
     <defs>
      <path id="DejaVuSans-32" d="M 1228 531 
L 3431 531 
L 3431 0 
L 469 0 
L 469 531 
Q 828 903 1448 1529 
Q 2069 2156 2228 2338 
Q 2531 2678 2651 2914 
Q 2772 3150 2772 3378 
Q 2772 3750 2511 3984 
Q 2250 4219 1831 4219 
Q 1534 4219 1204 4116 
Q 875 4013 500 3803 
L 500 4441 
Q 881 4594 1212 4672 
Q 1544 4750 1819 4750 
Q 2544 4750 2975 4387 
Q 3406 4025 3406 3419 
Q 3406 3131 3298 2873 
Q 3191 2616 2906 2266 
Q 2828 2175 2409 1742 
Q 1991 1309 1228 531 
z
" transform="scale(0.015625)"/>
      <path id="DejaVuSans-3a9" d="M 4647 556 
L 4647 0 
L 2772 0 
L 2772 556 
Q 3325 859 3634 1378 
Q 3944 1897 3944 2528 
Q 3944 3278 3531 3731 
Q 3119 4184 2444 4184 
Q 1769 4184 1355 3729 
Q 941 3275 941 2528 
Q 941 1897 1250 1378 
Q 1563 859 2119 556 
L 2119 0 
L 244 0 
L 244 556 
L 1241 556 
Q 747 991 519 1456 
Q 294 1922 294 2497 
Q 294 3491 894 4106 
Q 1491 4722 2444 4722 
Q 3391 4722 3994 4106 
Q 4594 3494 4594 2528 
Q 4594 1922 4372 1459 
Q 4150 997 3647 556 
L 4647 556 
z
" transform="scale(0.015625)"/>
     </defs>
     <use xlink:href="#DejaVuSans-32"/>
     <use xlink:href="#DejaVuSans-3a9" x="63.623047"/>
    </g>
   </g>
   <g id="text_3">
    <!-- $R_5$ -->
    <g transform="translate(342.303906 231.620586) scale(0.125 -0.125)">
     <defs>
      <path id="STIXGeneral-Regular-35" d="M 2803 4358 
L 2573 3814 
Q 2534 3731 2400 3731 
L 1158 3731 
L 902 3187 
Q 1606 3053 1920 2896 
Q 2234 2739 2502 2368 
Q 2726 2061 2726 1555 
Q 2726 1094 2576 780 
Q 2426 467 2099 224 
Q 1664 -90 1011 -90 
Q 646 -90 422 19 
Q 198 128 198 307 
Q 198 550 486 550 
Q 717 550 960 352 
Q 1210 147 1414 147 
Q 1747 147 2012 480 
Q 2278 813 2278 1229 
Q 2278 1843 1850 2189 
Q 1293 2637 486 2637 
Q 410 2637 410 2688 
L 416 2720 
L 1114 4237 
L 2438 4237 
Q 2547 4237 2608 4269 
Q 2669 4301 2746 4403 
L 2803 4358 
z
" transform="scale(0.015625)"/>
     </defs>
     <use xlink:href="#STIXGeneral-Italic-52" transform="translate(0 0.703125)"/>
     <use xlink:href="#STIXGeneral-Regular-35" transform="translate(61.099991 -12.525) scale(0.7)"/>
    </g>
    <!-- 8Ω -->
    <g transform="translate(342.303906 245.617852) scale(0.125 -0.125)">
     <defs>
      <path id="DejaVuSans-38" d="M 2034 2216 
Q 1584 2216 1326 1975 
Q 1069 1734 1069 1313 
Q 1069 891 1326 650 
Q 1584 409 2034 409 
Q 2484 409 2743 651 
Q 3003 894 3003 1313 
Q 3003 1734 2745 1975 
Q 2488 2216 2034 2216 
z
M 1403 2484 
Q 997 2584 770 2862 
Q 544 3141 544 3541 
Q 544 4100 942 4425 
Q 1341 4750 2034 4750 
Q 2731 4750 3128 4425 
Q 3525 4100 3525 3541 
Q 3525 3141 3298 2862 
Q 3072 2584 2669 2484 
Q 3125 2378 3379 2068 
Q 3634 1759 3634 1313 
Q 3634 634 3220 271 
Q 2806 -91 2034 -91 
Q 1263 -91 848 271 
Q 434 634 434 1313 
Q 434 1759 690 2068 
Q 947 2378 1403 2484 
z
M 1172 3481 
Q 1172 3119 1398 2916 
Q 1625 2713 2034 2713 
Q 2441 2713 2670 2916 
Q 2900 3119 2900 3481 
Q 2900 3844 2670 4047 
Q 2441 4250 2034 4250 
Q 1625 4250 1398 4047 
Q 1172 3844 1172 3481 
z
" transform="scale(0.015625)"/>
     </defs>
     <use xlink:href="#DejaVuSans-38"/>
     <use xlink:href="#DejaVuSans-3a9" x="63.623047"/>
    </g>
   </g>
   <g id="text_4">
    <!-- $R_1$ -->
    <g transform="translate(160.478906 87.620586) scale(0.125 -0.125)">
     <defs>
      <path id="STIXGeneral-Regular-31" d="M 2522 0 
L 755 0 
L 755 96 
Q 1107 115 1235 227 
Q 1363 339 1363 608 
L 1363 3482 
Q 1363 3795 1171 3795 
Q 1082 3795 883 3718 
L 710 3654 
L 710 3744 
L 1856 4326 
L 1914 4307 
L 1914 486 
Q 1914 275 2042 185 
Q 2170 96 2522 96 
L 2522 0 
z
" transform="scale(0.015625)"/>
     </defs>
     <use xlink:href="#STIXGeneral-Italic-52" transform="translate(0 0.703125)"/>
     <use xlink:href="#STIXGeneral-Regular-31" transform="translate(61.099991 -12.525) scale(0.7)"/>
    </g>
    <!-- 2Ω -->
    <g transform="translate(155.598047 101.617852) scale(0.125 -0.125)">
     <use xlink:href="#DejaVuSans-32"/>
     <use xlink:href="#DejaVuSans-3a9" x="63.623047"/>
    </g>
   </g>
   <g id="text_5">
    <!-- $I_S$ -->
    <g transform="translate(154.978906 195.620586) scale(0.125 -0.125)">
     <defs>
      <path id="STIXGeneral-Italic-49" d="M 2458 4179 
L 2458 4077 
Q 2189 4045 2102 3961 
Q 2016 3878 1933 3584 
L 1165 838 
Q 1069 499 1069 352 
Q 1069 224 1149 179 
Q 1229 134 1510 102 
L 1510 0 
L -51 0 
L -51 102 
Q 218 154 317 237 
Q 416 320 486 582 
L 1254 3405 
Q 1338 3699 1338 3802 
Q 1338 3930 1235 3997 
Q 1133 4064 877 4077 
L 877 4179 
L 2458 4179 
z
" transform="scale(0.015625)"/>
     </defs>
     <use xlink:href="#STIXGeneral-Italic-49" transform="translate(0 0.703125)"/>
     <use xlink:href="#STIXGeneral-Italic-53" transform="translate(33.299988 -12.525) scale(0.7)"/>
    </g>
    <!-- 6A -->
    <g transform="translate(147.6 209.617852) scale(0.125 -0.125)">
     <defs>
      <path id="DejaVuSans-41" d="M 2188 4044 
L 1331 1722 
L 3047 1722 
L 2188 4044 
z
M 1831 4666 
L 2547 4666 
L 4325 0 
L 3669 0 
L 3244 1197 
L 1141 1197 
L 716 0 
L 50 0 
L 1831 4666 
z
" transform="scale(0.015625)"/>
     </defs>
     <use xlink:href="#DejaVuSans-36"/>
     <use xlink:href="#DejaVuSans-41" x="63.623047"/>
    </g>
   </g>
   <g id="text_6">
    <!-- $R_4$ -->
    <g transform="translate(198.303906 267.620586) scale(0.125 -0.125)">
     <defs>
      <path id="STIXGeneral-Regular-34" d="M 3027 1069 
L 2368 1069 
L 2368 0 
L 1869 0 
L 1869 1069 
L 77 1069 
L 77 1478 
L 2086 4326 
L 2368 4326 
L 2368 1478 
L 3027 1478 
L 3027 1069 
z
M 1869 1478 
L 1869 3674 
L 333 1478 
L 1869 1478 
z
" transform="scale(0.015625)"/>
     </defs>
     <use xlink:href="#STIXGeneral-Italic-52" transform="translate(0 0.703125)"/>
     <use xlink:href="#STIXGeneral-Regular-34" transform="translate(61.099991 -12.525) scale(0.7)"/>
    </g>
    <!-- 1Ω -->
    <g transform="translate(198.303906 281.617852) scale(0.125 -0.125)">
     <defs>
      <path id="DejaVuSans-31" d="M 794 531 
L 1825 531 
L 1825 4091 
L 703 3866 
L 703 4441 
L 1819 4666 
L 2450 4666 
L 2450 531 
L 3481 531 
L 3481 0 
L 794 0 
L 794 531 
z
" transform="scale(0.015625)"/>
     </defs>
     <use xlink:href="#DejaVuSans-31"/>
     <use xlink:href="#DejaVuSans-3a9" x="63.623047"/>
    </g>
   </g>
   <g id="text_7">
    <!-- $R_3$ -->
    <g transform="translate(251.391406 185.268047) scale(0.125 -0.125)">
     <defs>
      <path id="STIXGeneral-Regular-33" d="M 390 3264 
L 288 3290 
Q 435 3770 748 4048 
Q 1062 4326 1542 4326 
Q 1990 4326 2265 4083 
Q 2541 3840 2541 3450 
Q 2541 2925 1946 2566 
Q 2298 2413 2477 2227 
Q 2758 1914 2758 1402 
Q 2758 890 2464 506 
Q 2246 211 1840 60 
Q 1434 -90 979 -90 
Q 262 -90 262 275 
Q 262 378 339 442 
Q 416 506 525 506 
Q 685 506 915 339 
Q 1197 141 1466 141 
Q 1818 141 2058 425 
Q 2298 710 2298 1120 
Q 2298 1856 1632 2048 
Q 1434 2112 979 2112 
L 979 2202 
Q 1338 2323 1517 2432 
Q 2035 2726 2035 3290 
Q 2035 3610 1852 3776 
Q 1670 3942 1344 3942 
Q 768 3942 390 3264 
z
" transform="scale(0.015625)"/>
     </defs>
     <use xlink:href="#STIXGeneral-Italic-52" transform="translate(0 0.703125)"/>
     <use xlink:href="#STIXGeneral-Regular-33" transform="translate(61.099991 -12.525) scale(0.7)"/>
    </g>
    <!-- 4Ω -->
    <g transform="translate(248.950977 199.265312) scale(0.125 -0.125)">
     <defs>
      <path id="DejaVuSans-34" d="M 2419 4116 
L 825 1625 
L 2419 1625 
L 2419 4116 
z
M 2253 4666 
L 3047 4666 
L 3047 1625 
L 3713 1625 
L 3713 1100 
L 3047 1100 
L 3047 0 
L 2419 0 
L 2419 1100 
L 313 1100 
L 313 1709 
L 2253 4666 
z
" transform="scale(0.015625)"/>
     </defs>
     <use xlink:href="#DejaVuSans-34"/>
     <use xlink:href="#DejaVuSans-3a9" x="63.623047"/>
    </g>
   </g>
   <g id="text_8">
    <!-- $I_1$ -->
    <g style="fill: #0000ff" transform="translate(113.641406 166.619219) scale(0.125 -0.125)">
     <use xlink:href="#STIXGeneral-Italic-49" transform="translate(0 0.703125)"/>
     <use xlink:href="#STIXGeneral-Regular-31" transform="translate(33.299988 -12.525) scale(0.7)"/>
    </g>
   </g>
   <g id="text_9">
    <!-- $I_2$ -->
    <g style="fill: #ff0000" transform="translate(253.141406 90.119219) scale(0.125 -0.125)">
     <use xlink:href="#STIXGeneral-Italic-49" transform="translate(0 0.703125)"/>
     <use xlink:href="#STIXGeneral-Regular-32" transform="translate(33.299988 -12.525) scale(0.7)"/>
    </g>
   </g>
   <g id="text_10">
    <!-- $I_3$ -->
    <g style="fill: #ffa500" transform="translate(253.141406 243.119219) scale(0.125 -0.125)">
     <use xlink:href="#STIXGeneral-Italic-49" transform="translate(0 0.703125)"/>
     <use xlink:href="#STIXGeneral-Regular-33" transform="translate(33.299988 -12.525) scale(0.7)"/>
    </g>
   </g>
  </g>
 </g>
 <defs>
  <clipPath id="p135ee05e0f">
   <rect x="7.953906" y="3.6" width="346.5" height="342.54"/>
  </clipPath>
 </defs>
</svg>
