<?xml version="1.0" encoding="utf-8" standalone="no"?>
<!DOCTYPE svg PUBLIC "-//W3C//DTD SVG 1.1//EN"
  "http://www.w3.org/Graphics/SVG/1.1/DTD/svg11.dtd">
<svg xmlns:xlink="http://www.w3.org/1999/xlink" width="377.841406pt" height="348.744922pt" viewBox="0 0 377.841406 348.744922" xmlns="http://www.w3.org/2000/svg" version="1.1">
 <metadata>
  <rdf:RDF xmlns:dc="http://purl.org/dc/elements/1.1/" xmlns:cc="http://creativecommons.org/ns#" xmlns:rdf="http://www.w3.org/1999/02/22-rdf-syntax-ns#">
   <cc:Work>
    <dc:type rdf:resource="http://purl.org/dc/dcmitype/StillImage"/>
    <dc:date>2024-03-15T17:19:58.314142</dc:date>
    <dc:format>image/svg+xml</dc:format>
    <dc:creator>
     <cc:Agent>
      <dc:title>Matplotlib v3.8.2, https://matplotlib.org/</dc:title>
     </cc:Agent>
    </dc:creator>
   </cc:Work>
  </rdf:RDF>
 </metadata>
 <defs>
  <style type="text/css">*{stroke-linejoin: round; stroke-linecap: butt}</style>
 </defs>
 <g id="figure_1">
  <g id="patch_1">
   <path d="M 0 348.744922 
L 377.841406 348.744922 
L 377.841406 0 
L 0 0 
L 0 348.744922 
z
" style="fill: none"/>
  </g>
  <g id="axes_1">
   <g id="patch_2">
    <path d="M 112.944141 204.294922 
C 117.717796 204.294922 122.296578 202.398328 125.672063 199.022844 
C 129.047547 195.64736 130.944141 191.068578 130.944141 186.294922 
C 130.944141 181.521266 129.047547 176.942484 125.672063 173.567 
C 122.296578 170.191515 117.717796 168.294922 112.944141 168.294922 
C 108.170485 168.294922 103.591703 170.191515 100.216219 173.567 
C 96.840734 176.942484 94.944141 181.521266 94.944141 186.294922 
C 94.944141 191.068578 96.840734 195.64736 100.216219 199.022844 
C 103.591703 202.398328 108.170485 204.294922 112.944141 204.294922 
L 112.944141 204.294922 
z
" clip-path="url(#p521e3d7758)" style="fill: none; stroke: #000000; stroke-width: 2; stroke-linejoin: miter"/>
   </g>
   <g id="patch_3">
    <path d="M 135.061246 251.808358 
C 133.424838 249.471325 131.428304 247.408362 129.146064 245.696365 
C 126.863824 243.984367 124.324589 242.644872 121.623006 241.727808 
C 118.921423 240.810745 116.09148 240.327649 113.238659 240.296528 
C 110.385838 240.265408 107.54603 240.686653 104.825084 241.544564 
C 102.104138 242.402475 99.536287 243.686258 97.217243 245.348061 
C 94.898199 247.009865 92.857137 249.028782 91.170136 251.329561 
C 89.483135 253.63034 88.171419 256.184035 87.283878 258.895461 
C 86.396338 261.606887 85.944141 264.441931 85.944141 267.294922 
C 85.944141 270.147913 86.396338 272.982957 87.283878 275.694383 
C 88.171419 278.405808 89.483135 280.959503 91.170136 283.260282 
C 92.857137 285.561061 94.898199 287.579979 97.217243 289.241782 
C 99.536287 290.903586 102.104138 292.187369 104.825084 293.04528 
C 107.54603 293.90319 110.385838 294.324436 113.238659 294.293316 
C 116.09148 294.262195 118.921423 293.779099 121.623006 292.862035 
C 124.324589 291.944972 126.863824 290.605477 129.146064 288.893479 
C 131.428304 287.181481 133.424838 285.118519 135.061246 282.781486 
" clip-path="url(#p521e3d7758)" style="fill: none; stroke: #ff0000; stroke-width: 2; stroke-linejoin: miter"/>
   </g>
   <g id="patch_4">
    <path d="M 140.429921 259.475621 
L 133.056023 253.651909 
L 135.252989 252.113577 
L 135.046501 251.818682 
L 135.075991 251.798034 
L 135.282478 252.092928 
L 137.479444 250.554596 
z
" clip-path="url(#p521e3d7758)" style="fill: #ff0000; stroke: #ff0000; stroke-linejoin: miter"/>
   </g>
   <g id="patch_5">
    <path d="M 280.094633 246.584773 
C 278.585492 243.651204 276.676717 241.023985 274.443434 238.806521 
C 272.21015 236.589056 269.682048 234.810825 266.958628 233.541816 
C 264.235209 232.272806 261.352678 231.529889 258.424487 231.342303 
C 255.496296 231.154718 252.561373 231.524958 249.735232 232.438452 
C 246.909091 233.351945 244.229303 234.796549 241.80134 236.715405 
C 239.373377 238.634261 237.229516 241.001859 235.454137 243.725016 
C 233.678758 246.448173 232.295462 249.490686 231.358695 252.732806 
C 230.421927 255.974926 229.944141 259.373553 229.944141 262.794922 
C 229.944141 266.216291 230.421927 269.614918 231.358695 272.857038 
C 232.295462 276.099158 233.678758 279.141671 235.454137 281.864828 
C 237.229516 284.587984 239.373377 286.955583 241.80134 288.874439 
C 244.229303 290.793295 246.909091 292.237898 249.735232 293.151392 
C 252.561373 294.064886 255.496296 294.435126 258.424487 294.247541 
C 261.352678 294.059955 264.235209 293.317037 266.958628 292.048028 
C 269.682048 290.779018 272.21015 289.000787 274.443434 286.783323 
C 276.676717 284.565859 278.585492 281.93864 280.094633 279.005071 
" clip-path="url(#p521e3d7758)" style="fill: none; stroke: #0000ff; stroke-width: 2; stroke-linejoin: miter"/>
   </g>
   <g id="patch_6">
    <path d="M 284.911363 254.610277 
L 277.964842 248.282887 
L 280.264458 246.902709 
L 280.079199 246.594036 
L 280.110066 246.57551 
L 280.295325 246.884183 
L 282.594941 245.504005 
z
" clip-path="url(#p521e3d7758)" style="fill: #0000ff; stroke: #0000ff; stroke-linejoin: miter"/>
   </g>
   <g id="patch_7">
    <path d="M 209.825668 96.872689 
C 195.191014 96.181765 179.878446 96.109511 165.066383 96.661487 
C 150.25432 97.213464 136.332732 98.375139 124.372989 100.057112 
C 112.413246 101.739085 102.730225 103.897074 96.069105 106.365006 
C 89.407985 108.832937 85.944141 111.545835 85.944141 114.294922 
C 85.944141 117.044009 89.407985 119.756907 96.069105 122.224838 
C 102.730225 124.692769 112.413246 126.850758 124.372989 128.532732 
C 136.332732 130.214705 150.25432 131.37638 165.066383 131.928356 
C 179.878446 132.480333 195.191014 132.408079 209.825668 131.717155 
" clip-path="url(#p521e3d7758)" style="fill: none; stroke: #ffa500; stroke-width: 2; stroke-linejoin: miter"/>
   </g>
   <g id="patch_8">
    <path d="M 218.885229 99.225124 
L 209.495525 99.576502 
L 210.169589 96.980589 
L 209.821144 96.890111 
L 209.830192 96.855267 
L 210.178636 96.945745 
L 210.8527 94.349832 
z
" clip-path="url(#p521e3d7758)" style="fill: #ffa500; stroke: #ffa500; stroke-linejoin: miter"/>
   </g>
   <g id="line2d_1">
    <path d="M 40.944141 330.294922 
L 40.944141 276.294922 
L 31.944141 273.294922 
L 49.944141 267.294922 
L 31.944141 261.294922 
L 49.944141 255.294922 
L 31.944141 249.294922 
L 49.944141 243.294922 
L 40.944141 240.294922 
L 40.944141 186.294922 
" clip-path="url(#p521e3d7758)" style="fill: none; stroke: #000000; stroke-width: 2; stroke-linecap: round"/>
   </g>
   <g id="line2d_2">
    <path d="M 40.944141 186.294922 
L 94.944141 186.294922 
L 94.944141 186.294922 
M 130.944141 186.294922 
L 130.944141 186.294922 
L 184.944141 186.294922 
" clip-path="url(#p521e3d7758)" style="fill: none; stroke: #000000; stroke-width: 2; stroke-linecap: round"/>
   </g>
   <g id="line2d_3">
    <path d="M 103.944141 189.894922 
L 103.944141 182.694922 
" clip-path="url(#p521e3d7758)" style="fill: none; stroke: #000000; stroke-width: 2; stroke-linecap: round"/>
   </g>
   <g id="line2d_4">
    <path d="M 118.344141 186.294922 
L 125.544141 186.294922 
" clip-path="url(#p521e3d7758)" style="fill: none; stroke: #000000; stroke-width: 2; stroke-linecap: round"/>
   </g>
   <g id="line2d_5">
    <path d="M 121.944141 189.894922 
L 121.944141 182.694922 
" clip-path="url(#p521e3d7758)" style="fill: none; stroke: #000000; stroke-width: 2; stroke-linecap: round"/>
   </g>
   <g id="line2d_6">
    <path d="M 184.944141 186.294922 
L 238.944141 186.294922 
L 241.944141 177.294922 
L 247.944141 195.294922 
L 253.944141 177.294922 
L 259.944141 195.294922 
L 265.944141 177.294922 
L 271.944141 195.294922 
L 274.944141 186.294922 
L 328.944141 186.294922 
" clip-path="url(#p521e3d7758)" style="fill: none; stroke: #000000; stroke-width: 2; stroke-linecap: round"/>
   </g>
   <g id="line2d_7">
    <path d="M 328.944141 186.294922 
L 328.944141 240.294922 
L 337.944141 243.294922 
L 319.944141 249.294922 
L 337.944141 255.294922 
L 319.944141 261.294922 
L 337.944141 267.294922 
L 319.944141 273.294922 
L 328.944141 276.294922 
L 328.944141 330.294922 
" clip-path="url(#p521e3d7758)" style="fill: none; stroke: #000000; stroke-width: 2; stroke-linecap: round"/>
   </g>
   <g id="line2d_8">
    <path d="M 328.944141 330.294922 
L 184.944141 330.294922 
L 40.944141 330.294922 
" clip-path="url(#p521e3d7758)" style="fill: none; stroke: #000000; stroke-width: 2; stroke-linecap: round"/>
   </g>
   <g id="line2d_9">
    <path d="M 184.944141 186.294922 
L 184.944141 240.294922 
L 193.944141 243.294922 
L 175.944141 249.294922 
L 193.944141 255.294922 
L 175.944141 261.294922 
L 193.944141 267.294922 
L 175.944141 273.294922 
L 184.944141 276.294922 
L 184.944141 330.294922 
" clip-path="url(#p521e3d7758)" style="fill: none; stroke: #000000; stroke-width: 2; stroke-linecap: round"/>
   </g>
   <g id="line2d_10">
    <path d="M 40.944141 186.294922 
L 40.944141 114.294922 
L 40.944141 42.294922 
" clip-path="url(#p521e3d7758)" style="fill: none; stroke: #000000; stroke-width: 2; stroke-linecap: round"/>
   </g>
   <g id="line2d_11">
    <path d="M 40.944141 42.294922 
L 166.944141 42.294922 
L 169.944141 33.294922 
L 175.944141 51.294922 
L 181.944141 33.294922 
L 187.944141 51.294922 
L 193.944141 33.294922 
L 199.944141 51.294922 
L 202.944141 42.294922 
L 328.944141 42.294922 
" clip-path="url(#p521e3d7758)" style="fill: none; stroke: #000000; stroke-width: 2; stroke-linecap: round"/>
   </g>
   <g id="line2d_12">
    <path d="M 328.944141 42.294922 
L 328.944141 114.294922 
L 328.944141 186.294922 
" clip-path="url(#p521e3d7758)" style="fill: none; stroke: #000000; stroke-width: 2; stroke-linecap: round"/>
   </g>
   <g id="text_1">
    <!-- $R_1$ -->
    <g transform="translate(15.719141 254.745508) scale(0.125 -0.125)">
     <defs>
      <path id="STIXGeneral-Italic-52" d="M 845 4179 
L 2458 4179 
Q 3078 4179 3420 3936 
Q 3763 3693 3763 3277 
Q 3763 2778 3341 2458 
Q 3091 2266 2502 2131 
L 3072 627 
Q 3181 333 3299 217 
Q 3418 102 3629 102 
L 3629 0 
L 2688 0 
L 1901 2074 
L 1478 2106 
L 1126 806 
Q 1043 512 1043 403 
Q 1043 256 1126 192 
Q 1210 128 1472 102 
L 1472 0 
L -83 0 
L -83 102 
Q 173 134 278 243 
Q 384 352 461 646 
L 1222 3405 
Q 1299 3699 1299 3808 
Q 1299 3923 1210 3987 
Q 1133 4038 845 4077 
L 845 4179 
z
M 1958 3795 
L 1555 2342 
Q 1754 2310 1882 2310 
Q 2451 2310 2771 2566 
Q 3091 2822 3091 3270 
Q 3091 3603 2892 3795 
Q 2694 3987 2323 3987 
Q 2010 3987 1958 3795 
z
" transform="scale(0.015625)"/>
      <path id="STIXGeneral-Regular-31" d="M 2522 0 
L 755 0 
L 755 96 
Q 1107 115 1235 227 
Q 1363 339 1363 608 
L 1363 3482 
Q 1363 3795 1171 3795 
Q 1082 3795 883 3718 
L 710 3654 
L 710 3744 
L 1856 4326 
L 1914 4307 
L 1914 486 
Q 1914 275 2042 185 
Q 2170 96 2522 96 
L 2522 0 
z
" transform="scale(0.015625)"/>
     </defs>
     <use xlink:href="#STIXGeneral-Italic-52" transform="translate(0 0.703125)"/>
     <use xlink:href="#STIXGeneral-Regular-31" transform="translate(61.099991 -12.525) scale(0.7)"/>
    </g>
    <!-- 9kΩ -->
    <g transform="translate(3.6 268.742773) scale(0.125 -0.125)">
     <defs>
      <path id="DejaVuSans-39" d="M 703 97 
L 703 672 
Q 941 559 1184 500 
Q 1428 441 1663 441 
Q 2288 441 2617 861 
Q 2947 1281 2994 2138 
Q 2813 1869 2534 1725 
Q 2256 1581 1919 1581 
Q 1219 1581 811 2004 
Q 403 2428 403 3163 
Q 403 3881 828 4315 
Q 1253 4750 1959 4750 
Q 2769 4750 3195 4129 
Q 3622 3509 3622 2328 
Q 3622 1225 3098 567 
Q 2575 -91 1691 -91 
Q 1453 -91 1209 -44 
Q 966 3 703 97 
z
M 1959 2075 
Q 2384 2075 2632 2365 
Q 2881 2656 2881 3163 
Q 2881 3666 2632 3958 
Q 2384 4250 1959 4250 
Q 1534 4250 1286 3958 
Q 1038 3666 1038 3163 
Q 1038 2656 1286 2365 
Q 1534 2075 1959 2075 
z
" transform="scale(0.015625)"/>
      <path id="DejaVuSans-6b" d="M 581 4863 
L 1159 4863 
L 1159 1991 
L 2875 3500 
L 3609 3500 
L 1753 1863 
L 3688 0 
L 2938 0 
L 1159 1709 
L 1159 0 
L 581 0 
L 581 4863 
z
" transform="scale(0.015625)"/>
      <path id="DejaVuSans-3a9" d="M 4647 556 
L 4647 0 
L 2772 0 
L 2772 556 
Q 3325 859 3634 1378 
Q 3944 1897 3944 2528 
Q 3944 3278 3531 3731 
Q 3119 4184 2444 4184 
Q 1769 4184 1355 3729 
Q 941 3275 941 2528 
Q 941 1897 1250 1378 
Q 1563 859 2119 556 
L 2119 0 
L 244 0 
L 244 556 
L 1241 556 
Q 747 991 519 1456 
Q 294 1922 294 2497 
Q 294 3491 894 4106 
Q 1491 4722 2444 4722 
Q 3391 4722 3994 4106 
Q 4594 3494 4594 2528 
Q 4594 1922 4372 1459 
Q 4150 997 3647 556 
L 4647 556 
z
" transform="scale(0.015625)"/>
     </defs>
     <use xlink:href="#DejaVuSans-39"/>
     <use xlink:href="#DejaVuSans-6b" x="63.623047"/>
     <use xlink:href="#DejaVuSans-3a9" x="121.533203"/>
    </g>
   </g>
   <g id="text_2">
    <!-- + -->
    <g style="fill: #ff0000" transform="translate(53.544141 297.744141) scale(0.125 -0.125)">
     <defs>
      <path id="DejaVuSans-2b" d="M 2944 4013 
L 2944 2272 
L 4684 2272 
L 4684 1741 
L 2944 1741 
L 2944 0 
L 2419 0 
L 2419 1741 
L 678 1741 
L 678 2272 
L 2419 2272 
L 2419 4013 
L 2944 4013 
z
" transform="scale(0.015625)"/>
     </defs>
     <use xlink:href="#DejaVuSans-2b"/>
    </g>
   </g>
   <g id="text_3">
    <!-- - -->
    <g style="fill: #ff0000" transform="translate(53.544141 225.744141) scale(0.125 -0.125)">
     <defs>
      <path id="DejaVuSans-2d" d="M 313 2009 
L 1997 2009 
L 1997 1497 
L 313 1497 
L 313 2009 
z
" transform="scale(0.015625)"/>
     </defs>
     <use xlink:href="#DejaVuSans-2d"/>
    </g>
   </g>
   <g id="text_4">
    <!-- $V_1$ -->
    <g transform="translate(106.631641 148.098047) scale(0.125 -0.125)">
     <defs>
      <path id="STIXGeneral-Italic-56" d="M 4403 4179 
L 4403 4077 
Q 4198 4070 4045 3821 
L 1658 -115 
L 1536 -115 
L 1011 3104 
Q 902 3776 828 3910 
Q 755 4045 486 4077 
L 486 4179 
L 2022 4179 
L 2022 4077 
Q 1722 4045 1629 3981 
Q 1536 3917 1536 3750 
Q 1536 3686 1542 3654 
L 1958 819 
L 3302 3123 
Q 3616 3661 3616 3859 
Q 3616 4032 3219 4077 
L 3219 4179 
L 4403 4179 
z
" transform="scale(0.015625)"/>
     </defs>
     <use xlink:href="#STIXGeneral-Italic-56" transform="translate(0 0.703125)"/>
     <use xlink:href="#STIXGeneral-Regular-31" transform="translate(61.099991 -12.525) scale(0.7)"/>
    </g>
    <!-- 6V -->
    <g transform="translate(104.692188 162.095312) scale(0.125 -0.125)">
     <defs>
      <path id="DejaVuSans-36" d="M 2113 2584 
Q 1688 2584 1439 2293 
Q 1191 2003 1191 1497 
Q 1191 994 1439 701 
Q 1688 409 2113 409 
Q 2538 409 2786 701 
Q 3034 994 3034 1497 
Q 3034 2003 2786 2293 
Q 2538 2584 2113 2584 
z
M 3366 4563 
L 3366 3988 
Q 3128 4100 2886 4159 
Q 2644 4219 2406 4219 
Q 1781 4219 1451 3797 
Q 1122 3375 1075 2522 
Q 1259 2794 1537 2939 
Q 1816 3084 2150 3084 
Q 2853 3084 3261 2657 
Q 3669 2231 3669 1497 
Q 3669 778 3244 343 
Q 2819 -91 2113 -91 
Q 1303 -91 875 529 
Q 447 1150 447 2328 
Q 447 3434 972 4092 
Q 1497 4750 2381 4750 
Q 2619 4750 2861 4703 
Q 3103 4656 3366 4563 
z
" transform="scale(0.015625)"/>
      <path id="DejaVuSans-56" d="M 1831 0 
L 50 4666 
L 709 4666 
L 2188 738 
L 3669 4666 
L 4325 4666 
L 2547 0 
L 1831 0 
z
" transform="scale(0.015625)"/>
     </defs>
     <use xlink:href="#DejaVuSans-36"/>
     <use xlink:href="#DejaVuSans-56" x="63.623047"/>
    </g>
   </g>
   <g id="text_5">
    <!-- $R_4$ -->
    <g transform="translate(250.631641 208.392969) scale(0.125 -0.125)">
     <defs>
      <path id="STIXGeneral-Regular-34" d="M 3027 1069 
L 2368 1069 
L 2368 0 
L 1869 0 
L 1869 1069 
L 77 1069 
L 77 1478 
L 2086 4326 
L 2368 4326 
L 2368 1478 
L 3027 1478 
L 3027 1069 
z
M 1869 1478 
L 1869 3674 
L 333 1478 
L 1869 1478 
z
" transform="scale(0.015625)"/>
     </defs>
     <use xlink:href="#STIXGeneral-Italic-52" transform="translate(0 0.703125)"/>
     <use xlink:href="#STIXGeneral-Regular-34" transform="translate(61.099991 -12.525) scale(0.7)"/>
    </g>
    <!-- 6kΩ -->
    <g transform="translate(244.57207 222.390234) scale(0.125 -0.125)">
     <use xlink:href="#DejaVuSans-36"/>
     <use xlink:href="#DejaVuSans-6b" x="63.623047"/>
     <use xlink:href="#DejaVuSans-3a9" x="121.533203"/>
    </g>
   </g>
   <g id="text_6">
    <!-- + -->
    <g style="fill: #0000ff" transform="translate(215.706836 208.392969) scale(0.125 -0.125)">
     <use xlink:href="#DejaVuSans-2b"/>
    </g>
   </g>
   <g id="text_7">
    <!-- - -->
    <g style="fill: #0000ff" transform="translate(290.689258 208.392969) scale(0.125 -0.125)">
     <use xlink:href="#DejaVuSans-2d"/>
    </g>
   </g>
   <g id="text_8">
    <!-- - -->
    <g style="fill: #ffa500" transform="translate(218.689258 171.095312) scale(0.125 -0.125)">
     <use xlink:href="#DejaVuSans-2d"/>
    </g>
   </g>
   <g id="text_9">
    <!-- + -->
    <g style="fill: #ffa500" transform="translate(287.706836 171.095312) scale(0.125 -0.125)">
     <use xlink:href="#DejaVuSans-2b"/>
    </g>
   </g>
   <g id="text_10">
    <!-- $V_O$ -->
    <g transform="translate(249.631641 171.095312) scale(0.125 -0.125)">
     <defs>
      <path id="STIXGeneral-Italic-4f" d="M 4474 2675 
Q 4474 1990 4106 1363 
Q 3738 736 3149 339 
Q 2477 -115 1779 -115 
Q 1146 -115 765 281 
Q 384 678 384 1382 
Q 384 1965 697 2582 
Q 1011 3200 1517 3642 
Q 2234 4262 3034 4262 
Q 3718 4269 4096 3840 
Q 4474 3411 4474 2675 
z
M 3802 3078 
Q 3802 3533 3581 3792 
Q 3360 4051 2976 4051 
Q 2342 4051 1786 3302 
Q 1446 2842 1251 2259 
Q 1056 1677 1056 1178 
Q 1056 653 1270 374 
Q 1485 96 1888 96 
Q 2477 96 2976 704 
Q 3354 1178 3578 1862 
Q 3802 2547 3802 3078 
z
" transform="scale(0.015625)"/>
     </defs>
     <use xlink:href="#STIXGeneral-Italic-56" transform="translate(0 0.703125)"/>
     <use xlink:href="#STIXGeneral-Italic-4f" transform="translate(61.099991 -12.525) scale(0.7)"/>
    </g>
   </g>
   <g id="text_11">
    <!-- $R_5$ -->
    <g transform="translate(341.544141 254.745508) scale(0.125 -0.125)">
     <defs>
      <path id="STIXGeneral-Regular-35" d="M 2803 4358 
L 2573 3814 
Q 2534 3731 2400 3731 
L 1158 3731 
L 902 3187 
Q 1606 3053 1920 2896 
Q 2234 2739 2502 2368 
Q 2726 2061 2726 1555 
Q 2726 1094 2576 780 
Q 2426 467 2099 224 
Q 1664 -90 1011 -90 
Q 646 -90 422 19 
Q 198 128 198 307 
Q 198 550 486 550 
Q 717 550 960 352 
Q 1210 147 1414 147 
Q 1747 147 2012 480 
Q 2278 813 2278 1229 
Q 2278 1843 1850 2189 
Q 1293 2637 486 2637 
Q 410 2637 410 2688 
L 416 2720 
L 1114 4237 
L 2438 4237 
Q 2547 4237 2608 4269 
Q 2669 4301 2746 4403 
L 2803 4358 
z
" transform="scale(0.015625)"/>
     </defs>
     <use xlink:href="#STIXGeneral-Italic-52" transform="translate(0 0.703125)"/>
     <use xlink:href="#STIXGeneral-Regular-35" transform="translate(61.099991 -12.525) scale(0.7)"/>
    </g>
    <!-- 12kΩ -->
    <g transform="translate(341.544141 268.742773) scale(0.125 -0.125)">
     <defs>
      <path id="DejaVuSans-31" d="M 794 531 
L 1825 531 
L 1825 4091 
L 703 3866 
L 703 4441 
L 1819 4666 
L 2450 4666 
L 2450 531 
L 3481 531 
L 3481 0 
L 794 0 
L 794 531 
z
" transform="scale(0.015625)"/>
      <path id="DejaVuSans-32" d="M 1228 531 
L 3431 531 
L 3431 0 
L 469 0 
L 469 531 
Q 828 903 1448 1529 
Q 2069 2156 2228 2338 
Q 2531 2678 2651 2914 
Q 2772 3150 2772 3378 
Q 2772 3750 2511 3984 
Q 2250 4219 1831 4219 
Q 1534 4219 1204 4116 
Q 875 4013 500 3803 
L 500 4441 
Q 881 4594 1212 4672 
Q 1544 4750 1819 4750 
Q 2544 4750 2975 4387 
Q 3406 4025 3406 3419 
Q 3406 3131 3298 2873 
Q 3191 2616 2906 2266 
Q 2828 2175 2409 1742 
Q 1991 1309 1228 531 
z
" transform="scale(0.015625)"/>
     </defs>
     <use xlink:href="#DejaVuSans-31"/>
     <use xlink:href="#DejaVuSans-32" x="63.623047"/>
     <use xlink:href="#DejaVuSans-6b" x="127.246094"/>
     <use xlink:href="#DejaVuSans-3a9" x="185.15625"/>
    </g>
   </g>
   <g id="text_12">
    <!-- + -->
    <g style="fill: #0000ff" transform="translate(305.869531 225.744141) scale(0.125 -0.125)">
     <use xlink:href="#DejaVuSans-2b"/>
    </g>
   </g>
   <g id="text_13">
    <!-- - -->
    <g style="fill: #0000ff" transform="translate(311.834375 297.744141) scale(0.125 -0.125)">
     <use xlink:href="#DejaVuSans-2d"/>
    </g>
   </g>
   <g id="text_14">
    <!-- $R_3$ -->
    <g transform="translate(197.544141 254.745508) scale(0.125 -0.125)">
     <defs>
      <path id="STIXGeneral-Regular-33" d="M 390 3264 
L 288 3290 
Q 435 3770 748 4048 
Q 1062 4326 1542 4326 
Q 1990 4326 2265 4083 
Q 2541 3840 2541 3450 
Q 2541 2925 1946 2566 
Q 2298 2413 2477 2227 
Q 2758 1914 2758 1402 
Q 2758 890 2464 506 
Q 2246 211 1840 60 
Q 1434 -90 979 -90 
Q 262 -90 262 275 
Q 262 378 339 442 
Q 416 506 525 506 
Q 685 506 915 339 
Q 1197 141 1466 141 
Q 1818 141 2058 425 
Q 2298 710 2298 1120 
Q 2298 1856 1632 2048 
Q 1434 2112 979 2112 
L 979 2202 
Q 1338 2323 1517 2432 
Q 2035 2726 2035 3290 
Q 2035 3610 1852 3776 
Q 1670 3942 1344 3942 
Q 768 3942 390 3264 
z
" transform="scale(0.015625)"/>
     </defs>
     <use xlink:href="#STIXGeneral-Italic-52" transform="translate(0 0.703125)"/>
     <use xlink:href="#STIXGeneral-Regular-33" transform="translate(61.099991 -12.525) scale(0.7)"/>
    </g>
    <!-- 6kΩ -->
    <g transform="translate(197.544141 268.742773) scale(0.125 -0.125)">
     <use xlink:href="#DejaVuSans-36"/>
     <use xlink:href="#DejaVuSans-6b" x="63.623047"/>
     <use xlink:href="#DejaVuSans-3a9" x="121.533203"/>
    </g>
   </g>
   <g id="text_15">
    <!-- + -->
    <g style="fill: #ff0000" transform="translate(161.869531 225.744141) scale(0.125 -0.125)">
     <use xlink:href="#DejaVuSans-2b"/>
    </g>
   </g>
   <g id="text_16">
    <!-- - -->
    <g style="fill: #ff0000" transform="translate(167.834375 297.744141) scale(0.125 -0.125)">
     <use xlink:href="#DejaVuSans-2d"/>
    </g>
   </g>
   <g id="text_17">
    <!-- - -->
    <g style="fill: #0000ff" transform="translate(197.544141 225.744141) scale(0.125 -0.125)">
     <use xlink:href="#DejaVuSans-2d"/>
    </g>
   </g>
   <g id="text_18">
    <!-- + -->
    <g style="fill: #0000ff" transform="translate(197.544141 297.744141) scale(0.125 -0.125)">
     <use xlink:href="#DejaVuSans-2b"/>
    </g>
   </g>
   <g id="text_19">
    <!-- $R_2$ -->
    <g transform="translate(178.631641 13.098047) scale(0.125 -0.125)">
     <defs>
      <path id="STIXGeneral-Regular-32" d="M 3034 877 
L 2688 0 
L 186 0 
L 186 77 
L 1325 1286 
Q 1773 1754 1965 2144 
Q 2157 2534 2157 2950 
Q 2157 3379 1920 3616 
Q 1683 3853 1267 3853 
Q 922 3853 720 3673 
Q 518 3494 326 3021 
L 192 3053 
Q 301 3648 630 3987 
Q 960 4326 1523 4326 
Q 2054 4326 2380 4006 
Q 2707 3686 2707 3200 
Q 2707 2477 1888 1613 
L 832 486 
L 2330 486 
Q 2541 486 2665 569 
Q 2790 653 2944 915 
L 3034 877 
z
" transform="scale(0.015625)"/>
     </defs>
     <use xlink:href="#STIXGeneral-Italic-52" transform="translate(0 0.703125)"/>
     <use xlink:href="#STIXGeneral-Regular-32" transform="translate(61.099991 -12.525) scale(0.7)"/>
    </g>
    <!-- 4kΩ -->
    <g transform="translate(172.57207 27.095313) scale(0.125 -0.125)">
     <defs>
      <path id="DejaVuSans-34" d="M 2419 4116 
L 825 1625 
L 2419 1625 
L 2419 4116 
z
M 2253 4666 
L 3047 4666 
L 3047 1625 
L 3713 1625 
L 3713 1100 
L 3047 1100 
L 3047 0 
L 2419 0 
L 2419 1100 
L 313 1100 
L 313 1709 
L 2253 4666 
z
" transform="scale(0.015625)"/>
     </defs>
     <use xlink:href="#DejaVuSans-34"/>
     <use xlink:href="#DejaVuSans-6b" x="63.623047"/>
     <use xlink:href="#DejaVuSans-3a9" x="121.533203"/>
    </g>
   </g>
   <g id="text_20">
    <!-- + -->
    <g style="fill: #ffa500" transform="translate(107.706836 64.392969) scale(0.125 -0.125)">
     <use xlink:href="#DejaVuSans-2b"/>
    </g>
   </g>
   <g id="text_21">
    <!-- - -->
    <g style="fill: #ffa500" transform="translate(254.689258 64.392969) scale(0.125 -0.125)">
     <use xlink:href="#DejaVuSans-2d"/>
    </g>
   </g>
   <g id="text_22">
    <!-- $I_1$ -->
    <g style="fill: #ff0000" transform="translate(108.381641 270.744141) scale(0.125 -0.125)">
     <defs>
      <path id="STIXGeneral-Italic-49" d="M 2458 4179 
L 2458 4077 
Q 2189 4045 2102 3961 
Q 2016 3878 1933 3584 
L 1165 838 
Q 1069 499 1069 352 
Q 1069 224 1149 179 
Q 1229 134 1510 102 
L 1510 0 
L -51 0 
L -51 102 
Q 218 154 317 237 
Q 416 320 486 582 
L 1254 3405 
Q 1338 3699 1338 3802 
Q 1338 3930 1235 3997 
Q 1133 4064 877 4077 
L 877 4179 
L 2458 4179 
z
" transform="scale(0.015625)"/>
     </defs>
     <use xlink:href="#STIXGeneral-Italic-49" transform="translate(0 0.703125)"/>
     <use xlink:href="#STIXGeneral-Regular-31" transform="translate(33.299988 -12.525) scale(0.7)"/>
    </g>
   </g>
   <g id="text_23">
    <!-- $I_2$ -->
    <g style="fill: #0000ff" transform="translate(252.381641 266.244141) scale(0.125 -0.125)">
     <use xlink:href="#STIXGeneral-Italic-49" transform="translate(0 0.703125)"/>
     <use xlink:href="#STIXGeneral-Regular-32" transform="translate(33.299988 -12.525) scale(0.7)"/>
    </g>
   </g>
   <g id="text_24">
    <!-- $I_3$ -->
    <g style="fill: #ffa500" transform="translate(180.381641 117.744141) scale(0.125 -0.125)">
     <use xlink:href="#STIXGeneral-Italic-49" transform="translate(0 0.703125)"/>
     <use xlink:href="#STIXGeneral-Regular-33" transform="translate(33.299988 -12.525) scale(0.7)"/>
    </g>
   </g>
  </g>
 </g>
 <defs>
  <clipPath id="p521e3d7758">
   <rect x="16.644141" y="18.444922" width="336.6" height="326.7"/>
  </clipPath>
 </defs>
</svg>
