<?xml version="1.0" encoding="utf-8" standalone="no"?>
<!DOCTYPE svg PUBLIC "-//W3C//DTD SVG 1.1//EN"
  "http://www.w3.org/Graphics/SVG/1.1/DTD/svg11.dtd">
<svg xmlns:xlink="http://www.w3.org/1999/xlink" width="329.3046pt" height="209.56pt" viewBox="0 0 329.3046 209.56" xmlns="http://www.w3.org/2000/svg" version="1.1">
 <metadata>
  <rdf:RDF xmlns:dc="http://purl.org/dc/elements/1.1/" xmlns:cc="http://creativecommons.org/ns#" xmlns:rdf="http://www.w3.org/1999/02/22-rdf-syntax-ns#">
   <cc:Work>
    <dc:type rdf:resource="http://purl.org/dc/dcmitype/StillImage"/>
    <dc:date>2023-09-18T16:29:19.567342</dc:date>
    <dc:format>image/svg+xml</dc:format>
    <dc:creator>
     <cc:Agent>
      <dc:title>Matplotlib v3.5.2, https://matplotlib.org/</dc:title>
     </cc:Agent>
    </dc:creator>
   </cc:Work>
  </rdf:RDF>
 </metadata>
 <defs>
  <style type="text/css">*{stroke-linejoin: round; stroke-linecap: butt}</style>
 </defs>
 <g id="figure_1">
  <g id="patch_1">
   <path d="M 0 209.56 
L 329.3046 209.56 
L 329.3046 0 
L 0 0 
L 0 209.56 
z
" style="fill: none"/>
  </g>
  <g id="axes_1">
   <g id="patch_2">
    <path d="M 58.9446 133.51 
C 63.002207 133.51 66.894172 131.897895 69.763334 129.028734 
C 72.632495 126.159572 74.2446 122.267607 74.2446 118.21 
C 74.2446 114.152393 72.632495 110.260428 69.763334 107.391266 
C 66.894172 104.522105 63.002207 102.91 58.9446 102.91 
C 54.886993 102.91 50.995028 104.522105 48.125866 107.391266 
C 45.256705 110.260428 43.6446 114.152393 43.6446 118.21 
C 43.6446 122.267607 45.256705 126.159572 48.125866 129.028734 
C 50.995028 131.897895 54.886993 133.51 58.9446 133.51 
L 58.9446 133.51 
z
" clip-path="url(#p1aaa547c94)" style="fill: none; stroke: #000000; stroke-width: 2; stroke-linejoin: miter"/>
   </g>
   <g id="patch_3">
    <path d="M 303.7446 133.51 
C 307.802207 133.51 311.694172 131.897895 314.563334 129.028734 
C 317.432495 126.159572 319.0446 122.267607 319.0446 118.21 
C 319.0446 114.152393 317.432495 110.260428 314.563334 107.391266 
C 311.694172 104.522105 307.802207 102.91 303.7446 102.91 
C 299.686993 102.91 295.795028 104.522105 292.925866 107.391266 
C 290.056705 110.260428 288.4446 114.152393 288.4446 118.21 
C 288.4446 122.267607 290.056705 126.159572 292.925866 129.028734 
C 295.795028 131.897895 299.686993 133.51 303.7446 133.51 
L 303.7446 133.51 
z
" clip-path="url(#p1aaa547c94)" style="fill: none; stroke: #000000; stroke-width: 2; stroke-linejoin: miter"/>
   </g>
   <g id="patch_4">
    <path d="M 141.074506 110.058016 
C 140.117751 107.379897 138.846835 104.945351 137.314755 102.855896 
C 135.782675 100.766442 134.011025 99.051531 132.073682 97.782673 
C 130.136339 96.513814 128.060609 95.708894 125.933049 95.401477 
C 123.805489 95.094059 121.656087 95.288477 119.574472 95.976623 
C 117.492856 96.664769 115.508368 97.836945 113.703757 99.44427 
C 111.899147 101.051596 110.299851 103.071416 108.972559 105.419507 
C 107.645268 107.767597 106.608688 110.410861 105.906045 113.239076 
C 105.203402 116.067291 104.8446 119.040594 104.8446 122.035 
C 104.8446 125.029406 105.203402 128.002709 105.906045 130.830924 
C 106.608688 133.659139 107.645268 136.302403 108.972559 138.650493 
C 110.299851 140.998584 111.899147 143.018404 113.703757 144.62573 
C 115.508368 146.233055 117.492856 147.405231 119.574472 148.093377 
C 121.656087 148.781523 123.805489 148.975941 125.933049 148.668523 
C 128.060609 148.361106 130.136339 147.556186 132.073682 146.287327 
C 134.011025 145.018469 135.782675 143.303558 137.314755 141.214104 
C 138.846835 139.124649 140.117751 136.690103 141.074506 134.011984 
" clip-path="url(#p1aaa547c94)" style="fill: none; stroke: #ff0000; stroke-width: 2; stroke-linejoin: miter"/>
   </g>
   <g id="patch_5">
    <path d="M 144.633381 117.173657 
L 139.158797 111.358293 
L 141.197702 110.338539 
L 141.060822 110.06486 
L 141.08819 110.051172 
L 141.225069 110.324851 
L 143.263974 109.305096 
z
" clip-path="url(#p1aaa547c94)" style="fill: #ff0000; stroke: #ff0000; stroke-linejoin: miter"/>
   </g>
   <g id="patch_6">
    <path d="M 255.824506 110.058016 
C 254.867751 107.379897 253.596835 104.945351 252.064755 102.855896 
C 250.532675 100.766442 248.761025 99.051531 246.823682 97.782673 
C 244.886339 96.513814 242.810609 95.708894 240.683049 95.401477 
C 238.555489 95.094059 236.406087 95.288477 234.324472 95.976623 
C 232.242856 96.664769 230.258368 97.836945 228.453757 99.44427 
C 226.649147 101.051596 225.049851 103.071416 223.722559 105.419507 
C 222.395268 107.767597 221.358688 110.410861 220.656045 113.239076 
C 219.953402 116.067291 219.5946 119.040594 219.5946 122.035 
C 219.5946 125.029406 219.953402 128.002709 220.656045 130.830924 
C 221.358688 133.659139 222.395268 136.302403 223.722559 138.650493 
C 225.049851 140.998584 226.649147 143.018404 228.453757 144.62573 
C 230.258368 146.233055 232.242856 147.405231 234.324472 148.093377 
C 236.406087 148.781523 238.555489 148.975941 240.683049 148.668523 
C 242.810609 148.361106 244.886339 147.556186 246.823682 146.287327 
C 248.761025 145.018469 250.532675 143.303558 252.064755 141.214104 
C 253.596835 139.124649 254.867751 136.690103 255.824506 134.011984 
" clip-path="url(#p1aaa547c94)" style="fill: none; stroke: #0000ff; stroke-width: 2; stroke-linejoin: miter"/>
   </g>
   <g id="patch_7">
    <path d="M 259.383381 117.173657 
L 253.908797 111.358293 
L 255.947702 110.338539 
L 255.810822 110.06486 
L 255.83819 110.051172 
L 255.975069 110.324851 
L 258.013974 109.305096 
z
" clip-path="url(#p1aaa547c94)" style="fill: #0000ff; stroke: #0000ff; stroke-linejoin: miter"/>
   </g>
   <g id="patch_8">
    <path d="M 58.9446 133.51 
C 63.002207 133.51 66.894172 131.897895 69.763334 129.028734 
C 72.632495 126.159572 74.2446 122.267607 74.2446 118.21 
C 74.2446 114.152393 72.632495 110.260428 69.763334 107.391266 
C 66.894172 104.522105 63.002207 102.91 58.9446 102.91 
C 54.886993 102.91 50.995028 104.522105 48.125866 107.391266 
C 45.256705 110.260428 43.6446 114.152393 43.6446 118.21 
C 43.6446 122.267607 45.256705 126.159572 48.125866 129.028734 
C 50.995028 131.897895 54.886993 133.51 58.9446 133.51 
L 58.9446 133.51 
z
" clip-path="url(#p1aaa547c94)" style="fill: none; stroke: #000000; stroke-width: 2; stroke-linejoin: miter"/>
   </g>
   <g id="patch_9">
    <path d="M 303.7446 133.51 
C 307.802207 133.51 311.694172 131.897895 314.563334 129.028734 
C 317.432495 126.159572 319.0446 122.267607 319.0446 118.21 
C 319.0446 114.152393 317.432495 110.260428 314.563334 107.391266 
C 311.694172 104.522105 307.802207 102.91 303.7446 102.91 
C 299.686993 102.91 295.795028 104.522105 292.925866 107.391266 
C 290.056705 110.260428 288.4446 114.152393 288.4446 118.21 
C 288.4446 122.267607 290.056705 126.159572 292.925866 129.028734 
C 295.795028 131.897895 299.686993 133.51 303.7446 133.51 
L 303.7446 133.51 
z
" clip-path="url(#p1aaa547c94)" style="fill: none; stroke: #000000; stroke-width: 2; stroke-linejoin: miter"/>
   </g>
   <g id="patch_10">
    <path d="M 141.074506 110.058016 
C 140.117751 107.379897 138.846835 104.945351 137.314755 102.855896 
C 135.782675 100.766442 134.011025 99.051531 132.073682 97.782673 
C 130.136339 96.513814 128.060609 95.708894 125.933049 95.401477 
C 123.805489 95.094059 121.656087 95.288477 119.574472 95.976623 
C 117.492856 96.664769 115.508368 97.836945 113.703757 99.44427 
C 111.899147 101.051596 110.299851 103.071416 108.972559 105.419507 
C 107.645268 107.767597 106.608688 110.410861 105.906045 113.239076 
C 105.203402 116.067291 104.8446 119.040594 104.8446 122.035 
C 104.8446 125.029406 105.203402 128.002709 105.906045 130.830924 
C 106.608688 133.659139 107.645268 136.302403 108.972559 138.650493 
C 110.299851 140.998584 111.899147 143.018404 113.703757 144.62573 
C 115.508368 146.233055 117.492856 147.405231 119.574472 148.093377 
C 121.656087 148.781523 123.805489 148.975941 125.933049 148.668523 
C 128.060609 148.361106 130.136339 147.556186 132.073682 146.287327 
C 134.011025 145.018469 135.782675 143.303558 137.314755 141.214104 
C 138.846835 139.124649 140.117751 136.690103 141.074506 134.011984 
" clip-path="url(#p1aaa547c94)" style="fill: none; stroke: #ff0000; stroke-width: 2; stroke-linejoin: miter"/>
   </g>
   <g id="patch_11">
    <path d="M 144.633381 117.173657 
L 139.158797 111.358293 
L 141.197702 110.338539 
L 141.060822 110.06486 
L 141.08819 110.051172 
L 141.225069 110.324851 
L 143.263974 109.305096 
z
" clip-path="url(#p1aaa547c94)" style="fill: #ff0000; stroke: #ff0000; stroke-linejoin: miter"/>
   </g>
   <g id="patch_12">
    <path d="M 255.824506 110.058016 
C 254.867751 107.379897 253.596835 104.945351 252.064755 102.855896 
C 250.532675 100.766442 248.761025 99.051531 246.823682 97.782673 
C 244.886339 96.513814 242.810609 95.708894 240.683049 95.401477 
C 238.555489 95.094059 236.406087 95.288477 234.324472 95.976623 
C 232.242856 96.664769 230.258368 97.836945 228.453757 99.44427 
C 226.649147 101.051596 225.049851 103.071416 223.722559 105.419507 
C 222.395268 107.767597 221.358688 110.410861 220.656045 113.239076 
C 219.953402 116.067291 219.5946 119.040594 219.5946 122.035 
C 219.5946 125.029406 219.953402 128.002709 220.656045 130.830924 
C 221.358688 133.659139 222.395268 136.302403 223.722559 138.650493 
C 225.049851 140.998584 226.649147 143.018404 228.453757 144.62573 
C 230.258368 146.233055 232.242856 147.405231 234.324472 148.093377 
C 236.406087 148.781523 238.555489 148.975941 240.683049 148.668523 
C 242.810609 148.361106 244.886339 147.556186 246.823682 146.287327 
C 248.761025 145.018469 250.532675 143.303558 252.064755 141.214104 
C 253.596835 139.124649 254.867751 136.690103 255.824506 134.011984 
" clip-path="url(#p1aaa547c94)" style="fill: none; stroke: #0000ff; stroke-width: 2; stroke-linejoin: miter"/>
   </g>
   <g id="patch_13">
    <path d="M 259.383381 117.173657 
L 253.908797 111.358293 
L 255.947702 110.338539 
L 255.810822 110.06486 
L 255.83819 110.051172 
L 255.975069 110.324851 
L 258.013974 109.305096 
z
" clip-path="url(#p1aaa547c94)" style="fill: #0000ff; stroke: #0000ff; stroke-linejoin: miter"/>
   </g>
   <g id="line2d_1">
    <path d="M 58.9446 179.41 
L 58.9446 133.51 
L 58.9446 133.51 
M 58.9446 102.91 
L 58.9446 102.91 
L 58.9446 57.01 
" clip-path="url(#p1aaa547c94)" style="fill: none; stroke: #000000; stroke-width: 2; stroke-linecap: round"/>
   </g>
   <g id="line2d_2">
    <path d="M 62.0046 125.86 
L 55.8846 125.86 
" clip-path="url(#p1aaa547c94)" style="fill: none; stroke: #000000; stroke-width: 2; stroke-linecap: round"/>
   </g>
   <g id="line2d_3">
    <path d="M 58.9446 113.62 
L 58.9446 107.5 
" clip-path="url(#p1aaa547c94)" style="fill: none; stroke: #000000; stroke-width: 2; stroke-linecap: round"/>
   </g>
   <g id="line2d_4">
    <path d="M 62.0046 110.56 
L 55.8846 110.56 
" clip-path="url(#p1aaa547c94)" style="fill: none; stroke: #000000; stroke-width: 2; stroke-linecap: round"/>
   </g>
   <g id="line2d_5">
    <path d="M 58.9446 57.01 
L 104.8446 57.01 
L 107.3946 49.36 
L 112.4946 64.66 
L 117.5946 49.36 
L 122.6946 64.66 
L 127.7946 49.36 
L 132.8946 64.66 
L 135.4446 57.01 
L 181.3446 57.01 
" clip-path="url(#p1aaa547c94)" style="fill: none; stroke: #000000; stroke-width: 2; stroke-linecap: round"/>
   </g>
   <g id="line2d_6">
    <path d="M 181.3446 57.01 
L 227.2446 57.01 
L 229.7946 49.36 
L 234.8946 64.66 
L 239.9946 49.36 
L 245.0946 64.66 
L 250.1946 49.36 
L 255.2946 64.66 
L 257.8446 57.01 
L 303.7446 57.01 
" clip-path="url(#p1aaa547c94)" style="fill: none; stroke: #000000; stroke-width: 2; stroke-linecap: round"/>
   </g>
   <g id="line2d_7">
    <path d="M 181.3446 57.01 
L 181.3446 102.91 
L 188.9946 105.46 
L 173.6946 110.56 
L 188.9946 115.66 
L 173.6946 120.76 
L 188.9946 125.86 
L 173.6946 130.96 
L 181.3446 133.51 
L 181.3446 179.41 
" clip-path="url(#p1aaa547c94)" style="fill: none; stroke: #000000; stroke-width: 2; stroke-linecap: round"/>
   </g>
   <g id="line2d_8">
    <path d="M 303.7446 57.01 
L 303.7446 102.91 
L 303.7446 102.91 
M 303.7446 133.51 
L 303.7446 133.51 
L 303.7446 179.41 
" clip-path="url(#p1aaa547c94)" style="fill: none; stroke: #000000; stroke-width: 2; stroke-linecap: round"/>
   </g>
   <g id="line2d_9">
    <path d="M 306.8046 125.86 
L 300.6846 125.86 
" clip-path="url(#p1aaa547c94)" style="fill: none; stroke: #000000; stroke-width: 2; stroke-linecap: round"/>
   </g>
   <g id="line2d_10">
    <path d="M 303.7446 107.5 
L 303.7446 113.62 
" clip-path="url(#p1aaa547c94)" style="fill: none; stroke: #000000; stroke-width: 2; stroke-linecap: round"/>
   </g>
   <g id="line2d_11">
    <path d="M 306.8046 110.56 
L 300.6846 110.56 
" clip-path="url(#p1aaa547c94)" style="fill: none; stroke: #000000; stroke-width: 2; stroke-linecap: round"/>
   </g>
   <g id="line2d_12">
    <path d="M 303.7446 179.41 
L 181.3446 179.41 
L 58.9446 179.41 
" clip-path="url(#p1aaa547c94)" style="fill: none; stroke: #000000; stroke-width: 2; stroke-linecap: round"/>
   </g>
   <g id="line2d_13">
    <path d="M 58.9446 179.41 
L 58.9446 191.65 
L 51.2946 191.65 
L 58.9446 199.3 
L 66.5946 191.65 
L 58.9446 191.65 
" clip-path="url(#p1aaa547c94)" style="fill: none; stroke: #000000; stroke-width: 2; stroke-linecap: round"/>
   </g>
   <g id="line2d_14">
    <path d="M 80.3646 157.99 
L 80.3646 118.21 
L 80.3646 78.43 
" clip-path="url(#p1aaa547c94)" style="fill: none; stroke-dasharray: 7.4,3.2; stroke-dashoffset: 0; stroke: #ff0000; stroke-width: 2"/>
   </g>
   <g id="line2d_15">
    <path d="M 80.3646 78.43 
L 120.1446 78.43 
L 159.9246 78.43 
" clip-path="url(#p1aaa547c94)" style="fill: none; stroke-dasharray: 7.4,3.2; stroke-dashoffset: 0; stroke: #ff0000; stroke-width: 2"/>
   </g>
   <g id="line2d_16">
    <path d="M 159.9246 78.43 
L 159.9246 118.21 
L 159.9246 157.99 
" clip-path="url(#p1aaa547c94)" style="fill: none; stroke-dasharray: 7.4,3.2; stroke-dashoffset: 0; stroke: #ff0000; stroke-width: 2"/>
   </g>
   <g id="line2d_17">
    <path d="M 159.9246 157.99 
L 132.3846 157.99 
L 112.4946 157.99 
" clip-path="url(#p1aaa547c94)" style="fill: none; stroke-dasharray: 7.4,3.2; stroke-dashoffset: 0; stroke: #ff0000; stroke-width: 2"/>
   </g>
   <g id="patch_14">
    <path d="M 112.4946 160.285 
L 104.8446 157.99 
L 112.4946 155.695 
z
" clip-path="url(#p1aaa547c94)" style="fill: #ff0000"/>
   </g>
   <g id="line2d_18">
    <path d="M 58.9446 179.41 
L 58.9446 133.51 
L 58.9446 133.51 
M 58.9446 102.91 
L 58.9446 102.91 
L 58.9446 57.01 
" clip-path="url(#p1aaa547c94)" style="fill: none; stroke: #000000; stroke-width: 2; stroke-linecap: round"/>
   </g>
   <g id="line2d_19">
    <path d="M 62.0046 125.86 
L 55.8846 125.86 
" clip-path="url(#p1aaa547c94)" style="fill: none; stroke: #000000; stroke-width: 2; stroke-linecap: round"/>
   </g>
   <g id="line2d_20">
    <path d="M 58.9446 113.62 
L 58.9446 107.5 
" clip-path="url(#p1aaa547c94)" style="fill: none; stroke: #000000; stroke-width: 2; stroke-linecap: round"/>
   </g>
   <g id="line2d_21">
    <path d="M 62.0046 110.56 
L 55.8846 110.56 
" clip-path="url(#p1aaa547c94)" style="fill: none; stroke: #000000; stroke-width: 2; stroke-linecap: round"/>
   </g>
   <g id="line2d_22">
    <path d="M 58.9446 57.01 
L 104.8446 57.01 
L 107.3946 49.36 
L 112.4946 64.66 
L 117.5946 49.36 
L 122.6946 64.66 
L 127.7946 49.36 
L 132.8946 64.66 
L 135.4446 57.01 
L 181.3446 57.01 
" clip-path="url(#p1aaa547c94)" style="fill: none; stroke: #000000; stroke-width: 2; stroke-linecap: round"/>
   </g>
   <g id="line2d_23">
    <path d="M 181.3446 57.01 
L 227.2446 57.01 
L 229.7946 49.36 
L 234.8946 64.66 
L 239.9946 49.36 
L 245.0946 64.66 
L 250.1946 49.36 
L 255.2946 64.66 
L 257.8446 57.01 
L 303.7446 57.01 
" clip-path="url(#p1aaa547c94)" style="fill: none; stroke: #000000; stroke-width: 2; stroke-linecap: round"/>
   </g>
   <g id="line2d_24">
    <path d="M 181.3446 57.01 
L 181.3446 102.91 
L 188.9946 105.46 
L 173.6946 110.56 
L 188.9946 115.66 
L 173.6946 120.76 
L 188.9946 125.86 
L 173.6946 130.96 
L 181.3446 133.51 
L 181.3446 179.41 
" clip-path="url(#p1aaa547c94)" style="fill: none; stroke: #000000; stroke-width: 2; stroke-linecap: round"/>
   </g>
   <g id="line2d_25">
    <path d="M 303.7446 57.01 
L 303.7446 102.91 
L 303.7446 102.91 
M 303.7446 133.51 
L 303.7446 133.51 
L 303.7446 179.41 
" clip-path="url(#p1aaa547c94)" style="fill: none; stroke: #000000; stroke-width: 2; stroke-linecap: round"/>
   </g>
   <g id="line2d_26">
    <path d="M 306.8046 125.86 
L 300.6846 125.86 
" clip-path="url(#p1aaa547c94)" style="fill: none; stroke: #000000; stroke-width: 2; stroke-linecap: round"/>
   </g>
   <g id="line2d_27">
    <path d="M 303.7446 107.5 
L 303.7446 113.62 
" clip-path="url(#p1aaa547c94)" style="fill: none; stroke: #000000; stroke-width: 2; stroke-linecap: round"/>
   </g>
   <g id="line2d_28">
    <path d="M 306.8046 110.56 
L 300.6846 110.56 
" clip-path="url(#p1aaa547c94)" style="fill: none; stroke: #000000; stroke-width: 2; stroke-linecap: round"/>
   </g>
   <g id="line2d_29">
    <path d="M 303.7446 179.41 
L 181.3446 179.41 
L 58.9446 179.41 
" clip-path="url(#p1aaa547c94)" style="fill: none; stroke: #000000; stroke-width: 2; stroke-linecap: round"/>
   </g>
   <g id="line2d_30">
    <path d="M 58.9446 179.41 
L 58.9446 191.65 
L 51.2946 191.65 
L 58.9446 199.3 
L 66.5946 191.65 
L 58.9446 191.65 
" clip-path="url(#p1aaa547c94)" style="fill: none; stroke: #000000; stroke-width: 2; stroke-linecap: round"/>
   </g>
   <g id="line2d_31">
    <path d="M 80.3646 157.99 
L 80.3646 118.21 
L 80.3646 78.43 
" clip-path="url(#p1aaa547c94)" style="fill: none; stroke-dasharray: 7.4,3.2; stroke-dashoffset: 0; stroke: #ff0000; stroke-width: 2"/>
   </g>
   <g id="line2d_32">
    <path d="M 80.3646 78.43 
L 120.1446 78.43 
L 159.9246 78.43 
" clip-path="url(#p1aaa547c94)" style="fill: none; stroke-dasharray: 7.4,3.2; stroke-dashoffset: 0; stroke: #ff0000; stroke-width: 2"/>
   </g>
   <g id="line2d_33">
    <path d="M 159.9246 78.43 
L 159.9246 118.21 
L 159.9246 157.99 
" clip-path="url(#p1aaa547c94)" style="fill: none; stroke-dasharray: 7.4,3.2; stroke-dashoffset: 0; stroke: #ff0000; stroke-width: 2"/>
   </g>
   <g id="line2d_34">
    <path d="M 159.9246 157.99 
L 132.3846 157.99 
L 112.4946 157.99 
" clip-path="url(#p1aaa547c94)" style="fill: none; stroke-dasharray: 7.4,3.2; stroke-dashoffset: 0; stroke: #ff0000; stroke-width: 2"/>
   </g>
   <g id="patch_15">
    <path d="M 112.4946 160.285 
L 104.8446 157.99 
L 112.4946 155.695 
z
" clip-path="url(#p1aaa547c94)" style="fill: #ff0000"/>
   </g>
   <g id="text_1">
    <g clip-path="url(#p1aaa547c94)">
     <!-- $V_S$ -->
     <g transform="translate(27.9596 114.660586)scale(0.125 -0.125)">
      <defs>
       <path id="STIXGeneral-Italic-56" d="M 4403 4179 
L 4403 4077 
Q 4198 4070 4045 3821 
L 1658 -115 
L 1536 -115 
L 1011 3104 
Q 902 3776 828 3910 
Q 755 4045 486 4077 
L 486 4179 
L 2022 4179 
L 2022 4077 
Q 1722 4045 1629 3981 
Q 1536 3917 1536 3750 
Q 1536 3686 1542 3654 
L 1958 819 
L 3302 3123 
Q 3616 3661 3616 3859 
Q 3616 4032 3219 4077 
L 3219 4179 
L 4403 4179 
z
" transform="scale(0.015625)"/>
       <path id="STIXGeneral-Italic-53" d="M 3251 4269 
L 2995 2989 
L 2880 3008 
Q 2880 3539 2720 3795 
Q 2560 4051 2118 4051 
Q 1786 4051 1594 3881 
Q 1402 3712 1402 3411 
Q 1402 3168 1504 3005 
Q 1606 2842 2035 2413 
Q 2464 1978 2611 1715 
Q 2758 1453 2758 1133 
Q 2758 589 2390 237 
Q 2022 -115 1466 -115 
Q 1222 -115 800 32 
Q 595 109 499 109 
Q 288 109 224 -96 
L 109 -96 
L 326 1338 
L 454 1325 
Q 442 1267 442 1178 
Q 442 710 701 409 
Q 960 109 1363 109 
Q 1734 109 1968 336 
Q 2202 563 2202 928 
Q 2202 1139 2118 1308 
Q 2035 1478 1818 1715 
L 1568 1984 
Q 1549 2003 1459 2102 
Q 1370 2202 1318 2253 
Q 1030 2560 934 2755 
Q 838 2950 838 3213 
Q 838 3699 1168 3980 
Q 1498 4262 1978 4262 
Q 2310 4262 2522 4173 
Q 2707 4102 2816 4102 
Q 2925 4102 2982 4134 
Q 3040 4166 3104 4269 
L 3251 4269 
z
" transform="scale(0.015625)"/>
      </defs>
      <use xlink:href="#STIXGeneral-Italic-56" transform="translate(0 0.703125)"/>
      <use xlink:href="#STIXGeneral-Italic-53" transform="translate(61.099991 -12.525)scale(0.7)"/>
     </g>
    </g>
    <g clip-path="url(#p1aaa547c94)">
     <!-- 12 V -->
     <g transform="translate(12.154913 128.657852)scale(0.125 -0.125)">
      <defs>
       <path id="DejaVuSans-31" d="M 794 531 
L 1825 531 
L 1825 4091 
L 703 3866 
L 703 4441 
L 1819 4666 
L 2450 4666 
L 2450 531 
L 3481 531 
L 3481 0 
L 794 0 
L 794 531 
z
" transform="scale(0.015625)"/>
       <path id="DejaVuSans-32" d="M 1228 531 
L 3431 531 
L 3431 0 
L 469 0 
L 469 531 
Q 828 903 1448 1529 
Q 2069 2156 2228 2338 
Q 2531 2678 2651 2914 
Q 2772 3150 2772 3378 
Q 2772 3750 2511 3984 
Q 2250 4219 1831 4219 
Q 1534 4219 1204 4116 
Q 875 4013 500 3803 
L 500 4441 
Q 881 4594 1212 4672 
Q 1544 4750 1819 4750 
Q 2544 4750 2975 4387 
Q 3406 4025 3406 3419 
Q 3406 3131 3298 2873 
Q 3191 2616 2906 2266 
Q 2828 2175 2409 1742 
Q 1991 1309 1228 531 
z
" transform="scale(0.015625)"/>
       <path id="DejaVuSans-20" transform="scale(0.015625)"/>
       <path id="DejaVuSans-56" d="M 1831 0 
L 50 4666 
L 709 4666 
L 2188 738 
L 3669 4666 
L 4325 4666 
L 2547 0 
L 1831 0 
z
" transform="scale(0.015625)"/>
      </defs>
      <use xlink:href="#DejaVuSans-31"/>
      <use xlink:href="#DejaVuSans-32" x="63.623047"/>
      <use xlink:href="#DejaVuSans-20" x="127.246094"/>
      <use xlink:href="#DejaVuSans-56" x="159.033203"/>
     </g>
    </g>
   </g>
   <g id="text_2">
    <g clip-path="url(#p1aaa547c94)">
     <!-- $R_1$ -->
     <g transform="translate(113.8321 29.703125)scale(0.125 -0.125)">
      <defs>
       <path id="STIXGeneral-Italic-52" d="M 845 4179 
L 2458 4179 
Q 3078 4179 3420 3936 
Q 3763 3693 3763 3277 
Q 3763 2778 3341 2458 
Q 3091 2266 2502 2131 
L 3072 627 
Q 3181 333 3299 217 
Q 3418 102 3629 102 
L 3629 0 
L 2688 0 
L 1901 2074 
L 1478 2106 
L 1126 806 
Q 1043 512 1043 403 
Q 1043 256 1126 192 
Q 1210 128 1472 102 
L 1472 0 
L -83 0 
L -83 102 
Q 173 134 278 243 
Q 384 352 461 646 
L 1222 3405 
Q 1299 3699 1299 3808 
Q 1299 3923 1210 3987 
Q 1133 4038 845 4077 
L 845 4179 
z
M 1958 3795 
L 1555 2342 
Q 1754 2310 1882 2310 
Q 2451 2310 2771 2566 
Q 3091 2822 3091 3270 
Q 3091 3603 2892 3795 
Q 2694 3987 2323 3987 
Q 2010 3987 1958 3795 
z
" transform="scale(0.015625)"/>
       <path id="STIXGeneral-Regular-31" d="M 2522 0 
L 755 0 
L 755 96 
Q 1107 115 1235 227 
Q 1363 339 1363 608 
L 1363 3482 
Q 1363 3795 1171 3795 
Q 1082 3795 883 3718 
L 710 3654 
L 710 3744 
L 1856 4326 
L 1914 4307 
L 1914 486 
Q 1914 275 2042 185 
Q 2170 96 2522 96 
L 2522 0 
z
" transform="scale(0.015625)"/>
      </defs>
      <use xlink:href="#STIXGeneral-Italic-52" transform="translate(0 0.703125)"/>
      <use xlink:href="#STIXGeneral-Regular-31" transform="translate(61.099991 -12.525)scale(0.7)"/>
     </g>
    </g>
    <g clip-path="url(#p1aaa547c94)">
     <!-- 6Ω -->
     <g transform="translate(111.39167 43.700391)scale(0.125 -0.125)">
      <defs>
       <path id="DejaVuSans-36" d="M 2113 2584 
Q 1688 2584 1439 2293 
Q 1191 2003 1191 1497 
Q 1191 994 1439 701 
Q 1688 409 2113 409 
Q 2538 409 2786 701 
Q 3034 994 3034 1497 
Q 3034 2003 2786 2293 
Q 2538 2584 2113 2584 
z
M 3366 4563 
L 3366 3988 
Q 3128 4100 2886 4159 
Q 2644 4219 2406 4219 
Q 1781 4219 1451 3797 
Q 1122 3375 1075 2522 
Q 1259 2794 1537 2939 
Q 1816 3084 2150 3084 
Q 2853 3084 3261 2657 
Q 3669 2231 3669 1497 
Q 3669 778 3244 343 
Q 2819 -91 2113 -91 
Q 1303 -91 875 529 
Q 447 1150 447 2328 
Q 447 3434 972 4092 
Q 1497 4750 2381 4750 
Q 2619 4750 2861 4703 
Q 3103 4656 3366 4563 
z
" transform="scale(0.015625)"/>
       <path id="DejaVuSans-3a9" d="M 4647 556 
L 4647 0 
L 2772 0 
L 2772 556 
Q 3325 859 3634 1378 
Q 3944 1897 3944 2528 
Q 3944 3278 3531 3731 
Q 3119 4184 2444 4184 
Q 1769 4184 1355 3729 
Q 941 3275 941 2528 
Q 941 1897 1250 1378 
Q 1563 859 2119 556 
L 2119 0 
L 244 0 
L 244 556 
L 1241 556 
Q 747 991 519 1456 
Q 294 1922 294 2497 
Q 294 3491 894 4106 
Q 1491 4722 2444 4722 
Q 3391 4722 3994 4106 
Q 4594 3494 4594 2528 
Q 4594 1922 4372 1459 
Q 4150 997 3647 556 
L 4647 556 
z
" transform="scale(0.015625)"/>
      </defs>
      <use xlink:href="#DejaVuSans-36"/>
      <use xlink:href="#DejaVuSans-3a9" x="63.623047"/>
     </g>
    </g>
   </g>
   <g id="text_3">
    <g clip-path="url(#p1aaa547c94)">
     <!-- $R_3$ -->
     <g transform="translate(236.2321 29.703125)scale(0.125 -0.125)">
      <defs>
       <path id="STIXGeneral-Regular-33" d="M 390 3264 
L 288 3290 
Q 435 3770 748 4048 
Q 1062 4326 1542 4326 
Q 1990 4326 2265 4083 
Q 2541 3840 2541 3450 
Q 2541 2925 1946 2566 
Q 2298 2413 2477 2227 
Q 2758 1914 2758 1402 
Q 2758 890 2464 506 
Q 2246 211 1840 60 
Q 1434 -90 979 -90 
Q 262 -90 262 275 
Q 262 378 339 442 
Q 416 506 525 506 
Q 685 506 915 339 
Q 1197 141 1466 141 
Q 1818 141 2058 425 
Q 2298 710 2298 1120 
Q 2298 1856 1632 2048 
Q 1434 2112 979 2112 
L 979 2202 
Q 1338 2323 1517 2432 
Q 2035 2726 2035 3290 
Q 2035 3610 1852 3776 
Q 1670 3942 1344 3942 
Q 768 3942 390 3264 
z
" transform="scale(0.015625)"/>
      </defs>
      <use xlink:href="#STIXGeneral-Italic-52" transform="translate(0 0.703125)"/>
      <use xlink:href="#STIXGeneral-Regular-33" transform="translate(61.099991 -12.525)scale(0.7)"/>
     </g>
    </g>
    <g clip-path="url(#p1aaa547c94)">
     <!-- 12Ω -->
     <g transform="translate(229.815108 43.700391)scale(0.125 -0.125)">
      <use xlink:href="#DejaVuSans-31"/>
      <use xlink:href="#DejaVuSans-32" x="63.623047"/>
      <use xlink:href="#DejaVuSans-3a9" x="127.246094"/>
     </g>
    </g>
   </g>
   <g id="text_4">
    <g clip-path="url(#p1aaa547c94)">
     <!-- $R_2$ -->
     <g transform="translate(192.0546 114.660586)scale(0.125 -0.125)">
      <defs>
       <path id="STIXGeneral-Regular-32" d="M 3034 877 
L 2688 0 
L 186 0 
L 186 77 
L 1325 1286 
Q 1773 1754 1965 2144 
Q 2157 2534 2157 2950 
Q 2157 3379 1920 3616 
Q 1683 3853 1267 3853 
Q 922 3853 720 3673 
Q 518 3494 326 3021 
L 192 3053 
Q 301 3648 630 3987 
Q 960 4326 1523 4326 
Q 2054 4326 2380 4006 
Q 2707 3686 2707 3200 
Q 2707 2477 1888 1613 
L 832 486 
L 2330 486 
Q 2541 486 2665 569 
Q 2790 653 2944 915 
L 3034 877 
z
" transform="scale(0.015625)"/>
      </defs>
      <use xlink:href="#STIXGeneral-Italic-52" transform="translate(0 0.703125)"/>
      <use xlink:href="#STIXGeneral-Regular-32" transform="translate(61.099991 -12.525)scale(0.7)"/>
     </g>
    </g>
    <g clip-path="url(#p1aaa547c94)">
     <!-- 12Ω -->
     <g transform="translate(192.0546 128.657852)scale(0.125 -0.125)">
      <use xlink:href="#DejaVuSans-31"/>
      <use xlink:href="#DejaVuSans-32" x="63.623047"/>
      <use xlink:href="#DejaVuSans-3a9" x="127.246094"/>
     </g>
    </g>
   </g>
   <g id="text_5">
    <g clip-path="url(#p1aaa547c94)">
     <!-- $I_S$ -->
     <g transform="translate(276.2596 114.660586)scale(0.125 -0.125)">
      <defs>
       <path id="STIXGeneral-Italic-49" d="M 2458 4179 
L 2458 4077 
Q 2189 4045 2102 3961 
Q 2016 3878 1933 3584 
L 1165 838 
Q 1069 499 1069 352 
Q 1069 224 1149 179 
Q 1229 134 1510 102 
L 1510 0 
L -51 0 
L -51 102 
Q 218 154 317 237 
Q 416 320 486 582 
L 1254 3405 
Q 1338 3699 1338 3802 
Q 1338 3930 1235 3997 
Q 1133 4064 877 4077 
L 877 4179 
L 2458 4179 
z
" transform="scale(0.015625)"/>
      </defs>
      <use xlink:href="#STIXGeneral-Italic-49" transform="translate(0 0.703125)"/>
      <use xlink:href="#STIXGeneral-Italic-53" transform="translate(33.299988 -12.525)scale(0.7)"/>
     </g>
    </g>
    <g clip-path="url(#p1aaa547c94)">
     <!-- 8V -->
     <g transform="translate(268.880694 128.657852)scale(0.125 -0.125)">
      <defs>
       <path id="DejaVuSans-38" d="M 2034 2216 
Q 1584 2216 1326 1975 
Q 1069 1734 1069 1313 
Q 1069 891 1326 650 
Q 1584 409 2034 409 
Q 2484 409 2743 651 
Q 3003 894 3003 1313 
Q 3003 1734 2745 1975 
Q 2488 2216 2034 2216 
z
M 1403 2484 
Q 997 2584 770 2862 
Q 544 3141 544 3541 
Q 544 4100 942 4425 
Q 1341 4750 2034 4750 
Q 2731 4750 3128 4425 
Q 3525 4100 3525 3541 
Q 3525 3141 3298 2862 
Q 3072 2584 2669 2484 
Q 3125 2378 3379 2068 
Q 3634 1759 3634 1313 
Q 3634 634 3220 271 
Q 2806 -91 2034 -91 
Q 1263 -91 848 271 
Q 434 634 434 1313 
Q 434 1759 690 2068 
Q 947 2378 1403 2484 
z
M 1172 3481 
Q 1172 3119 1398 2916 
Q 1625 2713 2034 2713 
Q 2441 2713 2670 2916 
Q 2900 3119 2900 3481 
Q 2900 3844 2670 4047 
Q 2441 4250 2034 4250 
Q 1625 4250 1398 4047 
Q 1172 3844 1172 3481 
z
" transform="scale(0.015625)"/>
      </defs>
      <use xlink:href="#DejaVuSans-38"/>
      <use xlink:href="#DejaVuSans-56" x="63.623047"/>
     </g>
    </g>
   </g>
   <g id="text_6">
    <g clip-path="url(#p1aaa547c94)">
     <!-- $I_1$ -->
     <g style="fill: #ff0000" transform="translate(119.4071 125.484219)scale(0.125 -0.125)">
      <use xlink:href="#STIXGeneral-Italic-49" transform="translate(0 0.703125)"/>
      <use xlink:href="#STIXGeneral-Regular-31" transform="translate(33.299988 -12.525)scale(0.7)"/>
     </g>
    </g>
   </g>
   <g id="text_7">
    <g clip-path="url(#p1aaa547c94)">
     <!-- $I_2$ -->
     <g style="fill: #0000ff" transform="translate(234.1571 125.484219)scale(0.125 -0.125)">
      <use xlink:href="#STIXGeneral-Italic-49" transform="translate(0 0.703125)"/>
      <use xlink:href="#STIXGeneral-Regular-32" transform="translate(33.299988 -12.525)scale(0.7)"/>
     </g>
    </g>
   </g>
   <g id="text_8">
    <g clip-path="url(#p1aaa547c94)">
     <!-- $V_S$ -->
     <g transform="translate(27.9596 114.660586)scale(0.125 -0.125)">
      <use xlink:href="#STIXGeneral-Italic-56" transform="translate(0 0.703125)"/>
      <use xlink:href="#STIXGeneral-Italic-53" transform="translate(61.099991 -12.525)scale(0.7)"/>
     </g>
    </g>
    <g clip-path="url(#p1aaa547c94)">
     <!-- 12 V -->
     <g transform="translate(12.154913 128.657852)scale(0.125 -0.125)">
      <use xlink:href="#DejaVuSans-31"/>
      <use xlink:href="#DejaVuSans-32" x="63.623047"/>
      <use xlink:href="#DejaVuSans-20" x="127.246094"/>
      <use xlink:href="#DejaVuSans-56" x="159.033203"/>
     </g>
    </g>
   </g>
   <g id="text_9">
    <g clip-path="url(#p1aaa547c94)">
     <!-- $R_1$ -->
     <g transform="translate(113.8321 29.703125)scale(0.125 -0.125)">
      <use xlink:href="#STIXGeneral-Italic-52" transform="translate(0 0.703125)"/>
      <use xlink:href="#STIXGeneral-Regular-31" transform="translate(61.099991 -12.525)scale(0.7)"/>
     </g>
    </g>
    <g clip-path="url(#p1aaa547c94)">
     <!-- 6Ω -->
     <g transform="translate(111.39167 43.700391)scale(0.125 -0.125)">
      <use xlink:href="#DejaVuSans-36"/>
      <use xlink:href="#DejaVuSans-3a9" x="63.623047"/>
     </g>
    </g>
   </g>
   <g id="text_10">
    <g clip-path="url(#p1aaa547c94)">
     <!-- $R_3$ -->
     <g transform="translate(236.2321 29.703125)scale(0.125 -0.125)">
      <use xlink:href="#STIXGeneral-Italic-52" transform="translate(0 0.703125)"/>
      <use xlink:href="#STIXGeneral-Regular-33" transform="translate(61.099991 -12.525)scale(0.7)"/>
     </g>
    </g>
    <g clip-path="url(#p1aaa547c94)">
     <!-- 12Ω -->
     <g transform="translate(229.815108 43.700391)scale(0.125 -0.125)">
      <use xlink:href="#DejaVuSans-31"/>
      <use xlink:href="#DejaVuSans-32" x="63.623047"/>
      <use xlink:href="#DejaVuSans-3a9" x="127.246094"/>
     </g>
    </g>
   </g>
   <g id="text_11">
    <g clip-path="url(#p1aaa547c94)">
     <!-- $R_2$ -->
     <g transform="translate(192.0546 114.660586)scale(0.125 -0.125)">
      <use xlink:href="#STIXGeneral-Italic-52" transform="translate(0 0.703125)"/>
      <use xlink:href="#STIXGeneral-Regular-32" transform="translate(61.099991 -12.525)scale(0.7)"/>
     </g>
    </g>
    <g clip-path="url(#p1aaa547c94)">
     <!-- 12Ω -->
     <g transform="translate(192.0546 128.657852)scale(0.125 -0.125)">
      <use xlink:href="#DejaVuSans-31"/>
      <use xlink:href="#DejaVuSans-32" x="63.623047"/>
      <use xlink:href="#DejaVuSans-3a9" x="127.246094"/>
     </g>
    </g>
   </g>
   <g id="text_12">
    <g clip-path="url(#p1aaa547c94)">
     <!-- $I_S$ -->
     <g transform="translate(276.2596 114.660586)scale(0.125 -0.125)">
      <use xlink:href="#STIXGeneral-Italic-49" transform="translate(0 0.703125)"/>
      <use xlink:href="#STIXGeneral-Italic-53" transform="translate(33.299988 -12.525)scale(0.7)"/>
     </g>
    </g>
    <g clip-path="url(#p1aaa547c94)">
     <!-- 8V -->
     <g transform="translate(268.880694 128.657852)scale(0.125 -0.125)">
      <use xlink:href="#DejaVuSans-38"/>
      <use xlink:href="#DejaVuSans-56" x="63.623047"/>
     </g>
    </g>
   </g>
   <g id="text_13">
    <g clip-path="url(#p1aaa547c94)">
     <!-- $I_1$ -->
     <g style="fill: #ff0000" transform="translate(119.4071 125.484219)scale(0.125 -0.125)">
      <use xlink:href="#STIXGeneral-Italic-49" transform="translate(0 0.703125)"/>
      <use xlink:href="#STIXGeneral-Regular-31" transform="translate(33.299988 -12.525)scale(0.7)"/>
     </g>
    </g>
   </g>
   <g id="text_14">
    <g clip-path="url(#p1aaa547c94)">
     <!-- $I_2$ -->
     <g style="fill: #0000ff" transform="translate(234.1571 125.484219)scale(0.125 -0.125)">
      <use xlink:href="#STIXGeneral-Italic-49" transform="translate(0 0.703125)"/>
      <use xlink:href="#STIXGeneral-Regular-32" transform="translate(33.299988 -12.525)scale(0.7)"/>
     </g>
    </g>
   </g>
   <g id="patch_16">
    <path d="M 181.3446 59.305 
C 181.953241 59.305 182.537036 59.063184 182.96741 58.63281 
C 183.397784 58.202436 183.6396 57.618641 183.6396 57.01 
C 183.6396 56.401359 183.397784 55.817564 182.96741 55.38719 
C 182.537036 54.956816 181.953241 54.715 181.3446 54.715 
C 180.735959 54.715 180.152164 54.956816 179.72179 55.38719 
C 179.291416 55.817564 179.0496 56.401359 179.0496 57.01 
C 179.0496 57.618641 179.291416 58.202436 179.72179 58.63281 
C 180.152164 59.063184 180.735959 59.305 181.3446 59.305 
z
" clip-path="url(#p1aaa547c94)" style="stroke: #000000; stroke-width: 2; stroke-linejoin: miter"/>
   </g>
   <g id="text_15">
    <g clip-path="url(#p1aaa547c94)">
     <!-- A -->
     <g transform="translate(177.069209 49.055391)scale(0.125 -0.125)">
      <defs>
       <path id="DejaVuSans-41" d="M 2188 4044 
L 1331 1722 
L 3047 1722 
L 2188 4044 
z
M 1831 4666 
L 2547 4666 
L 4325 0 
L 3669 0 
L 3244 1197 
L 1141 1197 
L 716 0 
L 50 0 
L 1831 4666 
z
" transform="scale(0.015625)"/>
      </defs>
      <use xlink:href="#DejaVuSans-41"/>
     </g>
    </g>
   </g>
   <g id="patch_17">
    <path d="M 181.3446 59.305 
C 181.953241 59.305 182.537036 59.063184 182.96741 58.63281 
C 183.397784 58.202436 183.6396 57.618641 183.6396 57.01 
C 183.6396 56.401359 183.397784 55.817564 182.96741 55.38719 
C 182.537036 54.956816 181.953241 54.715 181.3446 54.715 
C 180.735959 54.715 180.152164 54.956816 179.72179 55.38719 
C 179.291416 55.817564 179.0496 56.401359 179.0496 57.01 
C 179.0496 57.618641 179.291416 58.202436 179.72179 58.63281 
C 180.152164 59.063184 180.735959 59.305 181.3446 59.305 
z
" clip-path="url(#p1aaa547c94)" style="stroke: #000000; stroke-width: 2; stroke-linejoin: miter"/>
   </g>
   <g id="text_16">
    <g clip-path="url(#p1aaa547c94)">
     <!-- A -->
     <g transform="translate(177.069209 49.055391)scale(0.125 -0.125)">
      <use xlink:href="#DejaVuSans-41"/>
     </g>
    </g>
   </g>
  </g>
 </g>
 <defs>
  <clipPath id="p1aaa547c94">
   <rect x="7.2" y="7.2" width="314.9046" height="195.16"/>
  </clipPath>
 </defs>
</svg>
