<?xml version="1.0" encoding="utf-8" standalone="no"?>
<!DOCTYPE svg PUBLIC "-//W3C//DTD SVG 1.1//EN"
  "http://www.w3.org/Graphics/SVG/1.1/DTD/svg11.dtd">
<svg xmlns:xlink="http://www.w3.org/1999/xlink" width="317.3808pt" height="144.79pt" viewBox="0 0 317.3808 144.79" xmlns="http://www.w3.org/2000/svg" version="1.1">
 <metadata>
  <rdf:RDF xmlns:dc="http://purl.org/dc/elements/1.1/" xmlns:cc="http://creativecommons.org/ns#" xmlns:rdf="http://www.w3.org/1999/02/22-rdf-syntax-ns#">
   <cc:Work>
    <dc:type rdf:resource="http://purl.org/dc/dcmitype/StillImage"/>
    <dc:date>2023-03-19T14:05:42.704603</dc:date>
    <dc:format>image/svg+xml</dc:format>
    <dc:creator>
     <cc:Agent>
      <dc:title>Matplotlib v3.5.2, https://matplotlib.org/</dc:title>
     </cc:Agent>
    </dc:creator>
   </cc:Work>
  </rdf:RDF>
 </metadata>
 <defs>
  <style type="text/css">*{stroke-linejoin: round; stroke-linecap: butt}</style>
 </defs>
 <g id="figure_1">
  <g id="patch_1">
   <path d="M 0 144.79 
L 317.3808 144.79 
L 317.3808 0 
L 0 0 
L 0 144.79 
z
" style="fill: none"/>
  </g>
  <g id="axes_1">
   <g id="patch_2">
    <path d="M 92.574 103.93 
C 96.631607 103.93 100.523572 102.317895 103.392734 99.448734 
C 106.261895 96.579572 107.874 92.687607 107.874 88.63 
C 107.874 84.572393 106.261895 80.680428 103.392734 77.811266 
C 100.523572 74.942105 96.631607 73.33 92.574 73.33 
C 88.516393 73.33 84.624428 74.942105 81.755266 77.811266 
C 78.886105 80.680428 77.274 84.572393 77.274 88.63 
C 77.274 92.687607 78.886105 96.579572 81.755266 99.448734 
C 84.624428 102.317895 88.516393 103.93 92.574 103.93 
L 92.574 103.93 
z
" clip-path="url(#p82169a94c1)" style="fill: none; stroke: #000000; stroke-width: 2; stroke-linejoin: miter"/>
   </g>
   <g id="patch_3">
    <path d="M 130.824 42.73 
C 130.824 41.715936 130.420735 40.742368 129.703683 40.025317 
C 128.986632 39.308265 128.013064 38.905 126.999 38.905 
C 125.984936 38.905 125.011368 39.308265 124.294317 40.025317 
C 123.577265 40.742368 123.174 41.715936 123.174 42.73 
" clip-path="url(#p82169a94c1)" style="fill: none; stroke: #000000; stroke-width: 2; stroke-linejoin: miter"/>
   </g>
   <g id="patch_4">
    <path d="M 138.474 42.73 
C 138.474 41.715936 138.070735 40.742368 137.353683 40.025317 
C 136.636632 39.308265 135.663064 38.905 134.649 38.905 
C 133.634936 38.905 132.661368 39.308265 131.944317 40.025317 
C 131.227265 40.742368 130.824 41.715936 130.824 42.73 
" clip-path="url(#p82169a94c1)" style="fill: none; stroke: #000000; stroke-width: 2; stroke-linejoin: miter"/>
   </g>
   <g id="patch_5">
    <path d="M 146.124 42.73 
C 146.124 41.715936 145.720735 40.742368 145.003683 40.025317 
C 144.286632 39.308265 143.313064 38.905 142.299 38.905 
C 141.284936 38.905 140.311368 39.308265 139.594317 40.025317 
C 138.877265 40.742368 138.474 41.715936 138.474 42.73 
" clip-path="url(#p82169a94c1)" style="fill: none; stroke: #000000; stroke-width: 2; stroke-linejoin: miter"/>
   </g>
   <g id="patch_6">
    <path d="M 153.774 42.73 
C 153.774 41.715936 153.370735 40.742368 152.653683 40.025317 
C 151.936632 39.308265 150.963064 38.905 149.949 38.905 
C 148.934936 38.905 147.961368 39.308265 147.244317 40.025317 
C 146.527265 40.742368 146.124 41.715936 146.124 42.73 
" clip-path="url(#p82169a94c1)" style="fill: none; stroke: #000000; stroke-width: 2; stroke-linejoin: miter"/>
   </g>
   <g id="patch_7">
    <path d="M 184.374 103.93 
C 188.431607 103.93 192.323572 102.317895 195.192734 99.448734 
C 198.061895 96.579572 199.674 92.687607 199.674 88.63 
C 199.674 84.572393 198.061895 80.680428 195.192734 77.811266 
C 192.323572 74.942105 188.431607 73.33 184.374 73.33 
C 180.316393 73.33 176.424428 74.942105 173.555266 77.811266 
C 170.686105 80.680428 169.074 84.572393 169.074 88.63 
C 169.074 92.687607 170.686105 96.579572 173.555266 99.448734 
C 176.424428 102.317895 180.316393 103.93 184.374 103.93 
L 184.374 103.93 
z
" clip-path="url(#p82169a94c1)" style="fill: none; stroke: #000000; stroke-width: 2; stroke-linejoin: miter"/>
   </g>
   <g id="patch_8">
    <path d="M 92.574 103.93 
C 96.631607 103.93 100.523572 102.317895 103.392734 99.448734 
C 106.261895 96.579572 107.874 92.687607 107.874 88.63 
C 107.874 84.572393 106.261895 80.680428 103.392734 77.811266 
C 100.523572 74.942105 96.631607 73.33 92.574 73.33 
C 88.516393 73.33 84.624428 74.942105 81.755266 77.811266 
C 78.886105 80.680428 77.274 84.572393 77.274 88.63 
C 77.274 92.687607 78.886105 96.579572 81.755266 99.448734 
C 84.624428 102.317895 88.516393 103.93 92.574 103.93 
L 92.574 103.93 
z
" clip-path="url(#p82169a94c1)" style="fill: none; stroke: #000000; stroke-width: 2; stroke-linejoin: miter"/>
   </g>
   <g id="patch_9">
    <path d="M 130.824 42.73 
C 130.824 41.715936 130.420735 40.742368 129.703683 40.025317 
C 128.986632 39.308265 128.013064 38.905 126.999 38.905 
C 125.984936 38.905 125.011368 39.308265 124.294317 40.025317 
C 123.577265 40.742368 123.174 41.715936 123.174 42.73 
" clip-path="url(#p82169a94c1)" style="fill: none; stroke: #000000; stroke-width: 2; stroke-linejoin: miter"/>
   </g>
   <g id="patch_10">
    <path d="M 138.474 42.73 
C 138.474 41.715936 138.070735 40.742368 137.353683 40.025317 
C 136.636632 39.308265 135.663064 38.905 134.649 38.905 
C 133.634936 38.905 132.661368 39.308265 131.944317 40.025317 
C 131.227265 40.742368 130.824 41.715936 130.824 42.73 
" clip-path="url(#p82169a94c1)" style="fill: none; stroke: #000000; stroke-width: 2; stroke-linejoin: miter"/>
   </g>
   <g id="patch_11">
    <path d="M 146.124 42.73 
C 146.124 41.715936 145.720735 40.742368 145.003683 40.025317 
C 144.286632 39.308265 143.313064 38.905 142.299 38.905 
C 141.284936 38.905 140.311368 39.308265 139.594317 40.025317 
C 138.877265 40.742368 138.474 41.715936 138.474 42.73 
" clip-path="url(#p82169a94c1)" style="fill: none; stroke: #000000; stroke-width: 2; stroke-linejoin: miter"/>
   </g>
   <g id="patch_12">
    <path d="M 153.774 42.73 
C 153.774 41.715936 153.370735 40.742368 152.653683 40.025317 
C 151.936632 39.308265 150.963064 38.905 149.949 38.905 
C 148.934936 38.905 147.961368 39.308265 147.244317 40.025317 
C 146.527265 40.742368 146.124 41.715936 146.124 42.73 
" clip-path="url(#p82169a94c1)" style="fill: none; stroke: #000000; stroke-width: 2; stroke-linejoin: miter"/>
   </g>
   <g id="patch_13">
    <path d="M 184.374 103.93 
C 188.431607 103.93 192.323572 102.317895 195.192734 99.448734 
C 198.061895 96.579572 199.674 92.687607 199.674 88.63 
C 199.674 84.572393 198.061895 80.680428 195.192734 77.811266 
C 192.323572 74.942105 188.431607 73.33 184.374 73.33 
C 180.316393 73.33 176.424428 74.942105 173.555266 77.811266 
C 170.686105 80.680428 169.074 84.572393 169.074 88.63 
C 169.074 92.687607 170.686105 96.579572 173.555266 99.448734 
C 176.424428 102.317895 180.316393 103.93 184.374 103.93 
L 184.374 103.93 
z
" clip-path="url(#p82169a94c1)" style="fill: none; stroke: #000000; stroke-width: 2; stroke-linejoin: miter"/>
   </g>
   <g id="line2d_1">
    <path d="M 92.574 134.53 
L 92.574 103.93 
L 92.574 103.93 
M 92.574 73.33 
L 92.574 73.33 
L 92.574 42.73 
" clip-path="url(#p82169a94c1)" style="fill: none; stroke: #000000; stroke-width: 2; stroke-linecap: round"/>
   </g>
   <g id="line2d_2">
    <path d="M 95.634 96.28 
L 89.514 96.28 
" clip-path="url(#p82169a94c1)" style="fill: none; stroke: #000000; stroke-width: 2; stroke-linecap: round"/>
   </g>
   <g id="line2d_3">
    <path d="M 92.574 84.04 
L 92.574 77.92 
" clip-path="url(#p82169a94c1)" style="fill: none; stroke: #000000; stroke-width: 2; stroke-linecap: round"/>
   </g>
   <g id="line2d_4">
    <path d="M 95.634 80.98 
L 89.514 80.98 
" clip-path="url(#p82169a94c1)" style="fill: none; stroke: #000000; stroke-width: 2; stroke-linecap: round"/>
   </g>
   <g id="line2d_5">
    <path d="M 92.574 42.73 
L 123.174 42.73 
M 153.774 42.73 
L 184.374 42.73 
" clip-path="url(#p82169a94c1)" style="fill: none; stroke: #000000; stroke-width: 2; stroke-linecap: round"/>
   </g>
   <g id="line2d_6">
    <path d="M 184.374 42.73 
L 227.52 42.73 
M 227.52 35.08 
L 227.52 50.38 
M 233.028 35.08 
L 233.028 50.38 
M 233.028 42.73 
L 276.174 42.73 
" clip-path="url(#p82169a94c1)" style="fill: none; stroke: #000000; stroke-width: 2; stroke-linecap: round"/>
   </g>
   <g id="line2d_7">
    <path d="M 276.174 42.73 
L 276.174 73.33 
L 283.824 75.88 
L 268.524 80.98 
L 283.824 86.08 
L 268.524 91.18 
L 283.824 96.28 
L 268.524 101.38 
L 276.174 103.93 
L 276.174 134.53 
" clip-path="url(#p82169a94c1)" style="fill: none; stroke: #000000; stroke-width: 2; stroke-linecap: round"/>
   </g>
   <g id="line2d_8">
    <path d="M 276.174 134.53 
L 184.374 134.53 
L 92.574 134.53 
" clip-path="url(#p82169a94c1)" style="fill: none; stroke: #000000; stroke-width: 2; stroke-linecap: round"/>
   </g>
   <g id="line2d_9">
    <path d="M 184.374 42.73 
L 184.374 73.33 
L 184.374 73.33 
M 184.374 103.93 
L 184.374 103.93 
L 184.374 134.53 
" clip-path="url(#p82169a94c1)" style="fill: none; stroke: #000000; stroke-width: 2; stroke-linecap: round"/>
   </g>
   <g id="line2d_10">
    <path d="M 184.374 80.98 
L 184.374 88.63 
" clip-path="url(#p82169a94c1)" style="fill: none; stroke: #000000; stroke-width: 2; stroke-linecap: round"/>
   </g>
   <g id="patch_14">
    <path d="M 186.669 88.63 
L 184.374 96.28 
L 182.079 88.63 
z
" clip-path="url(#p82169a94c1)"/>
   </g>
   <g id="line2d_11">
    <path d="M 92.574 134.53 
L 92.574 103.93 
L 92.574 103.93 
M 92.574 73.33 
L 92.574 73.33 
L 92.574 42.73 
" clip-path="url(#p82169a94c1)" style="fill: none; stroke: #000000; stroke-width: 2; stroke-linecap: round"/>
   </g>
   <g id="line2d_12">
    <path d="M 95.634 96.28 
L 89.514 96.28 
" clip-path="url(#p82169a94c1)" style="fill: none; stroke: #000000; stroke-width: 2; stroke-linecap: round"/>
   </g>
   <g id="line2d_13">
    <path d="M 92.574 84.04 
L 92.574 77.92 
" clip-path="url(#p82169a94c1)" style="fill: none; stroke: #000000; stroke-width: 2; stroke-linecap: round"/>
   </g>
   <g id="line2d_14">
    <path d="M 95.634 80.98 
L 89.514 80.98 
" clip-path="url(#p82169a94c1)" style="fill: none; stroke: #000000; stroke-width: 2; stroke-linecap: round"/>
   </g>
   <g id="line2d_15">
    <path d="M 92.574 42.73 
L 123.174 42.73 
M 153.774 42.73 
L 184.374 42.73 
" clip-path="url(#p82169a94c1)" style="fill: none; stroke: #000000; stroke-width: 2; stroke-linecap: round"/>
   </g>
   <g id="line2d_16">
    <path d="M 184.374 42.73 
L 227.52 42.73 
M 227.52 35.08 
L 227.52 50.38 
M 233.028 35.08 
L 233.028 50.38 
M 233.028 42.73 
L 276.174 42.73 
" clip-path="url(#p82169a94c1)" style="fill: none; stroke: #000000; stroke-width: 2; stroke-linecap: round"/>
   </g>
   <g id="line2d_17">
    <path d="M 276.174 42.73 
L 276.174 73.33 
L 283.824 75.88 
L 268.524 80.98 
L 283.824 86.08 
L 268.524 91.18 
L 283.824 96.28 
L 268.524 101.38 
L 276.174 103.93 
L 276.174 134.53 
" clip-path="url(#p82169a94c1)" style="fill: none; stroke: #000000; stroke-width: 2; stroke-linecap: round"/>
   </g>
   <g id="line2d_18">
    <path d="M 276.174 134.53 
L 184.374 134.53 
L 92.574 134.53 
" clip-path="url(#p82169a94c1)" style="fill: none; stroke: #000000; stroke-width: 2; stroke-linecap: round"/>
   </g>
   <g id="line2d_19">
    <path d="M 184.374 42.73 
L 184.374 73.33 
L 184.374 73.33 
M 184.374 103.93 
L 184.374 103.93 
L 184.374 134.53 
" clip-path="url(#p82169a94c1)" style="fill: none; stroke: #000000; stroke-width: 2; stroke-linecap: round"/>
   </g>
   <g id="line2d_20">
    <path d="M 184.374 80.98 
L 184.374 88.63 
" clip-path="url(#p82169a94c1)" style="fill: none; stroke: #000000; stroke-width: 2; stroke-linecap: round"/>
   </g>
   <g id="patch_15">
    <path d="M 186.669 88.63 
L 184.374 96.28 
L 182.079 88.63 
z
" clip-path="url(#p82169a94c1)"/>
   </g>
   <g id="text_1">
    <g clip-path="url(#p82169a94c1)">
     <!-- $v_S(t)$ -->
     <g transform="translate(51.839 85.080586)scale(0.125 -0.125)">
      <defs>
       <path id="STIXGeneral-Italic-76" d="M 1325 448 
L 1523 653 
Q 1869 1005 2134 1456 
Q 2400 1907 2400 2131 
Q 2400 2208 2285 2317 
Q 2125 2458 2125 2605 
Q 2125 2701 2195 2761 
Q 2266 2822 2368 2822 
Q 2522 2822 2624 2704 
Q 2726 2586 2726 2445 
Q 2726 2074 2323 1453 
Q 1971 909 1562 474 
Q 1504 416 1421 326 
Q 1338 237 1299 192 
Q 1261 147 1200 86 
Q 1139 26 1110 -3 
Q 1082 -32 1043 -64 
Q 1005 -96 979 -105 
Q 954 -115 928 -115 
Q 870 -115 870 58 
L 870 211 
Q 870 1094 717 1990 
Q 653 2355 579 2470 
Q 506 2586 326 2586 
Q 198 2586 128 2579 
L 128 2662 
Q 480 2720 845 2797 
Q 915 2822 973 2822 
Q 1011 2822 1033 2739 
Q 1056 2656 1165 2093 
Q 1280 1510 1325 448 
z
" transform="scale(0.015625)"/>
       <path id="STIXGeneral-Italic-53" d="M 3251 4269 
L 2995 2989 
L 2880 3008 
Q 2880 3539 2720 3795 
Q 2560 4051 2118 4051 
Q 1786 4051 1594 3881 
Q 1402 3712 1402 3411 
Q 1402 3168 1504 3005 
Q 1606 2842 2035 2413 
Q 2464 1978 2611 1715 
Q 2758 1453 2758 1133 
Q 2758 589 2390 237 
Q 2022 -115 1466 -115 
Q 1222 -115 800 32 
Q 595 109 499 109 
Q 288 109 224 -96 
L 109 -96 
L 326 1338 
L 454 1325 
Q 442 1267 442 1178 
Q 442 710 701 409 
Q 960 109 1363 109 
Q 1734 109 1968 336 
Q 2202 563 2202 928 
Q 2202 1139 2118 1308 
Q 2035 1478 1818 1715 
L 1568 1984 
Q 1549 2003 1459 2102 
Q 1370 2202 1318 2253 
Q 1030 2560 934 2755 
Q 838 2950 838 3213 
Q 838 3699 1168 3980 
Q 1498 4262 1978 4262 
Q 2310 4262 2522 4173 
Q 2707 4102 2816 4102 
Q 2925 4102 2982 4134 
Q 3040 4166 3104 4269 
L 3251 4269 
z
" transform="scale(0.015625)"/>
       <path id="STIXGeneral-Regular-28" d="M 1946 -1030 
L 1869 -1133 
Q 1126 -710 716 32 
Q 307 774 307 1613 
Q 307 3386 1888 4326 
L 1946 4224 
Q 1293 3667 1075 3126 
Q 858 2586 858 1632 
Q 858 685 1082 96 
Q 1306 -493 1946 -1030 
z
" transform="scale(0.015625)"/>
       <path id="STIXGeneral-Italic-74" d="M 1894 2739 
L 1862 2534 
L 1325 2534 
L 768 435 
Q 755 384 755 346 
Q 755 243 851 243 
Q 928 243 1030 342 
Q 1133 442 1370 749 
L 1453 704 
Q 1158 256 969 93 
Q 781 -70 538 -70 
Q 243 -70 243 166 
Q 243 230 346 640 
L 845 2534 
L 365 2534 
L 358 2573 
Q 358 2688 570 2733 
Q 730 2771 992 2979 
Q 1254 3187 1421 3437 
Q 1459 3494 1510 3494 
Q 1568 3494 1568 3443 
Q 1568 3411 1562 3398 
L 1382 2739 
L 1894 2739 
z
" transform="scale(0.015625)"/>
       <path id="STIXGeneral-Regular-29" d="M 186 4224 
L 262 4326 
Q 992 3891 1408 3148 
Q 1824 2406 1824 1581 
Q 1824 -166 243 -1133 
L 186 -1030 
Q 845 -486 1059 54 
Q 1274 595 1274 1562 
Q 1274 2534 1059 3120 
Q 845 3706 186 4224 
z
" transform="scale(0.015625)"/>
      </defs>
      <use xlink:href="#STIXGeneral-Italic-76" transform="translate(0 0.40625)"/>
      <use xlink:href="#STIXGeneral-Italic-53" transform="translate(44.399994 -12.821875)scale(0.7)"/>
      <use xlink:href="#STIXGeneral-Regular-28" transform="translate(83.809358 0.40625)"/>
      <use xlink:href="#STIXGeneral-Italic-74" transform="translate(117.109346 0.40625)"/>
      <use xlink:href="#STIXGeneral-Regular-29" transform="translate(144.909334 0.40625)"/>
     </g>
    </g>
    <g clip-path="url(#p82169a94c1)">
     <!-- $6 \angle 0^\circ$ -->
     <g transform="translate(46.714 99.077852)scale(0.125 -0.125)">
      <defs>
       <path id="STIXGeneral-Regular-36" d="M 2854 4378 
L 2867 4275 
Q 2112 4154 1606 3664 
Q 1101 3174 973 2451 
Q 1344 2739 1786 2739 
Q 2349 2739 2672 2380 
Q 2995 2022 2995 1402 
Q 2995 774 2669 378 
Q 2291 -90 1651 -90 
Q 870 -90 518 557 
Q 218 1107 218 1786 
Q 218 2835 915 3552 
Q 1312 3962 1731 4131 
Q 2150 4301 2854 4378 
z
M 2419 1203 
Q 2419 2445 1555 2445 
Q 1235 2445 1024 2275 
Q 813 2106 813 1702 
Q 813 954 1046 522 
Q 1280 90 1722 90 
Q 2061 90 2240 394 
Q 2419 698 2419 1203 
z
" transform="scale(0.015625)"/>
       <path id="STIXGeneral-Regular-2220" d="M 4115 0 
L 147 0 
L 3642 3501 
L 3962 3232 
L 1165 422 
L 4115 422 
L 4115 0 
z
" transform="scale(0.015625)"/>
       <path id="STIXGeneral-Regular-30" d="M 3046 2112 
Q 3046 1683 2963 1302 
Q 2880 922 2717 602 
Q 2554 282 2266 96 
Q 1978 -90 1600 -90 
Q 1210 -90 915 108 
Q 621 307 461 640 
Q 301 973 227 1350 
Q 154 1728 154 2150 
Q 154 2746 301 3222 
Q 448 3699 790 4012 
Q 1133 4326 1626 4326 
Q 2253 4326 2649 3712 
Q 3046 3098 3046 2112 
z
M 2432 2080 
Q 2432 3091 2217 3625 
Q 2003 4160 1587 4160 
Q 1190 4160 979 3622 
Q 768 3085 768 2106 
Q 768 1120 979 598 
Q 1190 77 1600 77 
Q 2003 77 2217 598 
Q 2432 1120 2432 2080 
z
" transform="scale(0.015625)"/>
       <path id="STIXGeneral-Regular-2218" d="M 1734 2224 
Q 1984 1971 1984 1612 
Q 1984 1254 1731 1001 
Q 1478 749 1120 749 
Q 755 749 505 1001 
Q 256 1254 256 1626 
Q 256 1984 509 2230 
Q 762 2477 1133 2477 
Q 1485 2477 1734 2224 
z
M 1434 1299 
Q 1562 1427 1562 1612 
Q 1562 1798 1434 1926 
Q 1306 2054 1133 2054 
Q 934 2054 806 1929 
Q 678 1805 678 1626 
Q 678 1427 803 1299 
Q 928 1171 1120 1171 
Q 1306 1171 1434 1299 
z
" transform="scale(0.015625)"/>
      </defs>
      <use xlink:href="#STIXGeneral-Regular-36" transform="translate(0 0.59375)"/>
      <use xlink:href="#STIXGeneral-Regular-2220" transform="translate(49.999985 0.59375)"/>
      <use xlink:href="#STIXGeneral-Regular-30" transform="translate(118.499969 0.59375)"/>
      <use xlink:href="#STIXGeneral-Regular-2218" transform="translate(180.151233 35.86875)scale(0.7)"/>
     </g>
    </g>
   </g>
   <g id="text_2">
    <g clip-path="url(#p82169a94c1)">
     <!-- $L$ -->
     <g transform="translate(134.974 33.24541)scale(0.125 -0.125)">
      <defs>
       <path id="STIXGeneral-Italic-4c" d="M 3578 1152 
L 3206 0 
L -51 0 
L -51 102 
Q 218 128 301 211 
Q 384 294 474 602 
L 1254 3405 
Q 1325 3642 1325 3802 
Q 1325 3942 1225 4000 
Q 1126 4058 832 4077 
L 832 4179 
L 2579 4179 
L 2579 4077 
Q 2285 4058 2147 3955 
Q 2010 3853 1933 3584 
L 1165 838 
Q 1101 595 1101 493 
Q 1101 346 1241 288 
Q 1382 230 1773 230 
Q 2266 230 2480 275 
Q 2694 320 2925 474 
Q 3187 646 3450 1190 
L 3578 1152 
z
" transform="scale(0.015625)"/>
      </defs>
      <use xlink:href="#STIXGeneral-Italic-4c" transform="translate(0 0.703125)"/>
     </g>
    </g>
   </g>
   <g id="text_3">
    <g clip-path="url(#p82169a94c1)">
     <!-- $C$ -->
     <g transform="translate(226.0865 29.420391)scale(0.125 -0.125)">
      <defs>
       <path id="STIXGeneral-Italic-43" d="M 4410 4250 
L 4173 2970 
L 4058 2989 
Q 3942 4032 3104 4032 
Q 2406 4032 1830 3411 
Q 1491 3053 1315 2541 
Q 1139 2029 1139 1485 
Q 1139 173 2259 173 
Q 2656 173 2985 339 
Q 3315 506 3725 934 
L 3840 838 
Q 3411 333 2998 109 
Q 2586 -115 2093 -115 
Q 1344 -115 883 329 
Q 422 774 422 1555 
Q 422 2214 748 2812 
Q 1075 3411 1619 3795 
Q 2272 4262 3021 4262 
Q 3462 4262 3770 4154 
Q 3898 4109 4032 4109 
Q 4205 4109 4275 4250 
L 4410 4250 
z
" transform="scale(0.015625)"/>
      </defs>
      <use xlink:href="#STIXGeneral-Italic-43" transform="translate(0 0.40625)"/>
     </g>
    </g>
   </g>
   <g id="text_4">
    <g clip-path="url(#p82169a94c1)">
     <!-- + -->
     <g transform="translate(254.989391 69.129219)scale(0.125 -0.125)">
      <defs>
       <path id="DejaVuSans-2b" d="M 2944 4013 
L 2944 2272 
L 4684 2272 
L 4684 1741 
L 2944 1741 
L 2944 0 
L 2419 0 
L 2419 1741 
L 678 1741 
L 678 2272 
L 2419 2272 
L 2419 4013 
L 2944 4013 
z
" transform="scale(0.015625)"/>
      </defs>
      <use xlink:href="#DejaVuSans-2b"/>
     </g>
    </g>
   </g>
   <g id="text_5">
    <g clip-path="url(#p82169a94c1)">
     <!-- $v_O(t)$ -->
     <g transform="translate(241.214 92.079219)scale(0.125 -0.125)">
      <defs>
       <path id="STIXGeneral-Italic-4f" d="M 4474 2675 
Q 4474 1990 4106 1363 
Q 3738 736 3149 339 
Q 2477 -115 1779 -115 
Q 1146 -115 765 281 
Q 384 678 384 1382 
Q 384 1965 697 2582 
Q 1011 3200 1517 3642 
Q 2234 4262 3034 4262 
Q 3718 4269 4096 3840 
Q 4474 3411 4474 2675 
z
M 3802 3078 
Q 3802 3533 3581 3792 
Q 3360 4051 2976 4051 
Q 2342 4051 1786 3302 
Q 1446 2842 1251 2259 
Q 1056 1677 1056 1178 
Q 1056 653 1270 374 
Q 1485 96 1888 96 
Q 2477 96 2976 704 
Q 3354 1178 3578 1862 
Q 3802 2547 3802 3078 
z
" transform="scale(0.015625)"/>
      </defs>
      <use xlink:href="#STIXGeneral-Italic-76" transform="translate(0 0.40625)"/>
      <use xlink:href="#STIXGeneral-Italic-4f" transform="translate(44.399994 -12.821875)scale(0.7)"/>
      <use xlink:href="#STIXGeneral-Regular-28" transform="translate(99.349356 0.40625)"/>
      <use xlink:href="#STIXGeneral-Italic-74" transform="translate(132.649344 0.40625)"/>
      <use xlink:href="#STIXGeneral-Regular-29" transform="translate(160.449332 0.40625)"/>
     </g>
    </g>
   </g>
   <g id="text_6">
    <g clip-path="url(#p82169a94c1)">
     <!-- - -->
     <g transform="translate(260.954234 115.029219)scale(0.125 -0.125)">
      <defs>
       <path id="DejaVuSans-2d" d="M 313 2009 
L 1997 2009 
L 1997 1497 
L 313 1497 
L 313 2009 
z
" transform="scale(0.015625)"/>
      </defs>
      <use xlink:href="#DejaVuSans-2d"/>
     </g>
    </g>
   </g>
   <g id="text_7">
    <g clip-path="url(#p82169a94c1)">
     <!-- $R$ -->
     <g transform="translate(286.884 92.079219)scale(0.125 -0.125)">
      <defs>
       <path id="STIXGeneral-Italic-52" d="M 845 4179 
L 2458 4179 
Q 3078 4179 3420 3936 
Q 3763 3693 3763 3277 
Q 3763 2778 3341 2458 
Q 3091 2266 2502 2131 
L 3072 627 
Q 3181 333 3299 217 
Q 3418 102 3629 102 
L 3629 0 
L 2688 0 
L 1901 2074 
L 1478 2106 
L 1126 806 
Q 1043 512 1043 403 
Q 1043 256 1126 192 
Q 1210 128 1472 102 
L 1472 0 
L -83 0 
L -83 102 
Q 173 134 278 243 
Q 384 352 461 646 
L 1222 3405 
Q 1299 3699 1299 3808 
Q 1299 3923 1210 3987 
Q 1133 4038 845 4077 
L 845 4179 
z
M 1958 3795 
L 1555 2342 
Q 1754 2310 1882 2310 
Q 2451 2310 2771 2566 
Q 3091 2822 3091 3270 
Q 3091 3603 2892 3795 
Q 2694 3987 2323 3987 
Q 2010 3987 1958 3795 
z
" transform="scale(0.015625)"/>
      </defs>
      <use xlink:href="#STIXGeneral-Italic-52" transform="translate(0 0.703125)"/>
     </g>
    </g>
   </g>
   <g id="text_8">
    <g clip-path="url(#p82169a94c1)">
     <!-- $i_S(t)$ -->
     <g transform="translate(145.764 85.080586)scale(0.125 -0.125)">
      <defs>
       <path id="STIXGeneral-Italic-69" d="M 1690 3834 
Q 1690 3699 1597 3603 
Q 1504 3507 1376 3507 
Q 1235 3507 1152 3600 
Q 1069 3693 1069 3846 
Q 1069 3994 1155 4090 
Q 1242 4186 1370 4186 
Q 1498 4186 1594 4080 
Q 1690 3974 1690 3834 
z
M 1421 730 
L 1504 659 
Q 1235 243 1049 86 
Q 864 -70 627 -70 
Q 314 -70 314 282 
Q 314 467 454 992 
L 762 2125 
Q 819 2330 819 2406 
Q 819 2502 745 2528 
Q 672 2554 410 2560 
L 410 2662 
Q 704 2688 1434 2822 
L 1459 2803 
L 858 608 
Q 794 390 794 326 
Q 794 230 883 230 
Q 1043 230 1421 730 
z
" transform="scale(0.015625)"/>
      </defs>
      <use xlink:href="#STIXGeneral-Italic-69" transform="translate(0 0.40625)"/>
      <use xlink:href="#STIXGeneral-Italic-53" transform="translate(27.799988 -12.821875)scale(0.7)"/>
      <use xlink:href="#STIXGeneral-Regular-28" transform="translate(67.209352 0.40625)"/>
      <use xlink:href="#STIXGeneral-Italic-74" transform="translate(100.50934 0.40625)"/>
      <use xlink:href="#STIXGeneral-Regular-29" transform="translate(128.309328 0.40625)"/>
     </g>
    </g>
    <g clip-path="url(#p82169a94c1)">
     <!-- $4 \angle{45^\circ}$ -->
     <g transform="translate(132.264 99.077852)scale(0.125 -0.125)">
      <defs>
       <path id="STIXGeneral-Regular-34" d="M 3027 1069 
L 2368 1069 
L 2368 0 
L 1869 0 
L 1869 1069 
L 77 1069 
L 77 1478 
L 2086 4326 
L 2368 4326 
L 2368 1478 
L 3027 1478 
L 3027 1069 
z
M 1869 1478 
L 1869 3674 
L 333 1478 
L 1869 1478 
z
" transform="scale(0.015625)"/>
       <path id="STIXGeneral-Regular-35" d="M 2803 4358 
L 2573 3814 
Q 2534 3731 2400 3731 
L 1158 3731 
L 902 3187 
Q 1606 3053 1920 2896 
Q 2234 2739 2502 2368 
Q 2726 2061 2726 1555 
Q 2726 1094 2576 780 
Q 2426 467 2099 224 
Q 1664 -90 1011 -90 
Q 646 -90 422 19 
Q 198 128 198 307 
Q 198 550 486 550 
Q 717 550 960 352 
Q 1210 147 1414 147 
Q 1747 147 2012 480 
Q 2278 813 2278 1229 
Q 2278 1843 1850 2189 
Q 1293 2637 486 2637 
Q 410 2637 410 2688 
L 416 2720 
L 1114 4237 
L 2438 4237 
Q 2547 4237 2608 4269 
Q 2669 4301 2746 4403 
L 2803 4358 
z
" transform="scale(0.015625)"/>
      </defs>
      <use xlink:href="#STIXGeneral-Regular-34" transform="translate(0 0.203125)"/>
      <use xlink:href="#STIXGeneral-Regular-2220" transform="translate(49.999985 0.203125)"/>
      <use xlink:href="#STIXGeneral-Regular-34" transform="translate(118.499969 0.203125)"/>
      <use xlink:href="#STIXGeneral-Regular-35" transform="translate(168.499954 0.203125)"/>
      <use xlink:href="#STIXGeneral-Regular-2218" transform="translate(230.151218 35.478125)scale(0.7)"/>
     </g>
    </g>
   </g>
   <g id="text_9">
    <g clip-path="url(#p82169a94c1)">
     <!-- $v_S(t)$ -->
     <g transform="translate(51.839 85.080586)scale(0.125 -0.125)">
      <use xlink:href="#STIXGeneral-Italic-76" transform="translate(0 0.40625)"/>
      <use xlink:href="#STIXGeneral-Italic-53" transform="translate(44.399994 -12.821875)scale(0.7)"/>
      <use xlink:href="#STIXGeneral-Regular-28" transform="translate(83.809358 0.40625)"/>
      <use xlink:href="#STIXGeneral-Italic-74" transform="translate(117.109346 0.40625)"/>
      <use xlink:href="#STIXGeneral-Regular-29" transform="translate(144.909334 0.40625)"/>
     </g>
    </g>
    <g clip-path="url(#p82169a94c1)">
     <!-- $6 \angle 0^\circ$ -->
     <g transform="translate(46.714 99.077852)scale(0.125 -0.125)">
      <use xlink:href="#STIXGeneral-Regular-36" transform="translate(0 0.59375)"/>
      <use xlink:href="#STIXGeneral-Regular-2220" transform="translate(49.999985 0.59375)"/>
      <use xlink:href="#STIXGeneral-Regular-30" transform="translate(118.499969 0.59375)"/>
      <use xlink:href="#STIXGeneral-Regular-2218" transform="translate(180.151233 35.86875)scale(0.7)"/>
     </g>
    </g>
   </g>
   <g id="text_10">
    <g clip-path="url(#p82169a94c1)">
     <!-- $L$ -->
     <g transform="translate(134.974 33.24541)scale(0.125 -0.125)">
      <use xlink:href="#STIXGeneral-Italic-4c" transform="translate(0 0.703125)"/>
     </g>
    </g>
   </g>
   <g id="text_11">
    <g clip-path="url(#p82169a94c1)">
     <!-- $C$ -->
     <g transform="translate(226.0865 29.420391)scale(0.125 -0.125)">
      <use xlink:href="#STIXGeneral-Italic-43" transform="translate(0 0.40625)"/>
     </g>
    </g>
   </g>
   <g id="text_12">
    <g clip-path="url(#p82169a94c1)">
     <!-- + -->
     <g transform="translate(254.989391 69.129219)scale(0.125 -0.125)">
      <use xlink:href="#DejaVuSans-2b"/>
     </g>
    </g>
   </g>
   <g id="text_13">
    <g clip-path="url(#p82169a94c1)">
     <!-- $v_O(t)$ -->
     <g transform="translate(241.214 92.079219)scale(0.125 -0.125)">
      <use xlink:href="#STIXGeneral-Italic-76" transform="translate(0 0.40625)"/>
      <use xlink:href="#STIXGeneral-Italic-4f" transform="translate(44.399994 -12.821875)scale(0.7)"/>
      <use xlink:href="#STIXGeneral-Regular-28" transform="translate(99.349356 0.40625)"/>
      <use xlink:href="#STIXGeneral-Italic-74" transform="translate(132.649344 0.40625)"/>
      <use xlink:href="#STIXGeneral-Regular-29" transform="translate(160.449332 0.40625)"/>
     </g>
    </g>
   </g>
   <g id="text_14">
    <g clip-path="url(#p82169a94c1)">
     <!-- - -->
     <g transform="translate(260.954234 115.029219)scale(0.125 -0.125)">
      <use xlink:href="#DejaVuSans-2d"/>
     </g>
    </g>
   </g>
   <g id="text_15">
    <g clip-path="url(#p82169a94c1)">
     <!-- $R$ -->
     <g transform="translate(286.884 92.079219)scale(0.125 -0.125)">
      <use xlink:href="#STIXGeneral-Italic-52" transform="translate(0 0.703125)"/>
     </g>
    </g>
   </g>
   <g id="text_16">
    <g clip-path="url(#p82169a94c1)">
     <!-- $i_S(t)$ -->
     <g transform="translate(145.764 85.080586)scale(0.125 -0.125)">
      <use xlink:href="#STIXGeneral-Italic-69" transform="translate(0 0.40625)"/>
      <use xlink:href="#STIXGeneral-Italic-53" transform="translate(27.799988 -12.821875)scale(0.7)"/>
      <use xlink:href="#STIXGeneral-Regular-28" transform="translate(67.209352 0.40625)"/>
      <use xlink:href="#STIXGeneral-Italic-74" transform="translate(100.50934 0.40625)"/>
      <use xlink:href="#STIXGeneral-Regular-29" transform="translate(128.309328 0.40625)"/>
     </g>
    </g>
    <g clip-path="url(#p82169a94c1)">
     <!-- $4 \angle{45^\circ}$ -->
     <g transform="translate(132.264 99.077852)scale(0.125 -0.125)">
      <use xlink:href="#STIXGeneral-Regular-34" transform="translate(0 0.203125)"/>
      <use xlink:href="#STIXGeneral-Regular-2220" transform="translate(49.999985 0.203125)"/>
      <use xlink:href="#STIXGeneral-Regular-34" transform="translate(118.499969 0.203125)"/>
      <use xlink:href="#STIXGeneral-Regular-35" transform="translate(168.499954 0.203125)"/>
      <use xlink:href="#STIXGeneral-Regular-2218" transform="translate(230.151218 35.478125)scale(0.7)"/>
     </g>
    </g>
   </g>
  </g>
 </g>
 <defs>
  <clipPath id="p82169a94c1">
   <rect x="7.2" y="7.2" width="302.9808" height="130.39"/>
  </clipPath>
 </defs>
</svg>
