<?xml version="1.0" encoding="utf-8" standalone="no"?>
<!DOCTYPE svg PUBLIC "-//W3C//DTD SVG 1.1//EN"
  "http://www.w3.org/Graphics/SVG/1.1/DTD/svg11.dtd">
<svg xmlns:xlink="http://www.w3.org/1999/xlink" width="312.6786pt" height="178.96pt" viewBox="0 0 312.6786 178.96" xmlns="http://www.w3.org/2000/svg" version="1.1">
 <metadata>
  <rdf:RDF xmlns:dc="http://purl.org/dc/elements/1.1/" xmlns:cc="http://creativecommons.org/ns#" xmlns:rdf="http://www.w3.org/1999/02/22-rdf-syntax-ns#">
   <cc:Work>
    <dc:type rdf:resource="http://purl.org/dc/dcmitype/StillImage"/>
    <dc:date>2023-03-01T19:36:52.322733</dc:date>
    <dc:format>image/svg+xml</dc:format>
    <dc:creator>
     <cc:Agent>
      <dc:title>Matplotlib v3.5.2, https://matplotlib.org/</dc:title>
     </cc:Agent>
    </dc:creator>
   </cc:Work>
  </rdf:RDF>
 </metadata>
 <defs>
  <style type="text/css">*{stroke-linejoin: round; stroke-linecap: butt}</style>
 </defs>
 <g id="figure_1">
  <g id="patch_1">
   <path d="M 0 178.96 
L 312.6786 178.96 
L 312.6786 0 
L 0 0 
L 0 178.96 
z
" style="fill: none"/>
  </g>
  <g id="axes_1">
   <g id="patch_2">
    <path d="M 66.6558 118.21 
C 70.713407 118.21 74.605372 116.597895 77.474534 113.728734 
C 80.343695 110.859572 81.9558 106.967607 81.9558 102.91 
C 81.9558 98.852393 80.343695 94.960428 77.474534 92.091266 
C 74.605372 89.222105 70.713407 87.61 66.6558 87.61 
C 62.598193 87.61 58.706228 89.222105 55.837066 92.091266 
C 52.967905 94.960428 51.3558 98.852393 51.3558 102.91 
C 51.3558 106.967607 52.967905 110.859572 55.837066 113.728734 
C 58.706228 116.597895 62.598193 118.21 66.6558 118.21 
L 66.6558 118.21 
z
" clip-path="url(#p105c179e84)" style="fill: none; stroke: #000000; stroke-width: 2; stroke-linejoin: miter"/>
   </g>
   <g id="patch_3">
    <path d="M 250.2558 118.21 
C 254.313407 118.21 258.205372 116.597895 261.074534 113.728734 
C 263.943695 110.859572 265.5558 106.967607 265.5558 102.91 
C 265.5558 98.852393 263.943695 94.960428 261.074534 92.091266 
C 258.205372 89.222105 254.313407 87.61 250.2558 87.61 
C 246.198193 87.61 242.306228 89.222105 239.437066 92.091266 
C 236.567905 94.960428 234.9558 98.852393 234.9558 102.91 
C 234.9558 106.967607 236.567905 110.859572 239.437066 113.728734 
C 242.306228 116.597895 246.198193 118.21 250.2558 118.21 
L 250.2558 118.21 
z
" clip-path="url(#p105c179e84)" style="fill: none; stroke: #000000; stroke-width: 2; stroke-linejoin: miter"/>
   </g>
   <g id="patch_4">
    <path d="M 66.6558 118.21 
C 70.713407 118.21 74.605372 116.597895 77.474534 113.728734 
C 80.343695 110.859572 81.9558 106.967607 81.9558 102.91 
C 81.9558 98.852393 80.343695 94.960428 77.474534 92.091266 
C 74.605372 89.222105 70.713407 87.61 66.6558 87.61 
C 62.598193 87.61 58.706228 89.222105 55.837066 92.091266 
C 52.967905 94.960428 51.3558 98.852393 51.3558 102.91 
C 51.3558 106.967607 52.967905 110.859572 55.837066 113.728734 
C 58.706228 116.597895 62.598193 118.21 66.6558 118.21 
L 66.6558 118.21 
z
" clip-path="url(#p105c179e84)" style="fill: none; stroke: #000000; stroke-width: 2; stroke-linejoin: miter"/>
   </g>
   <g id="patch_5">
    <path d="M 250.2558 118.21 
C 254.313407 118.21 258.205372 116.597895 261.074534 113.728734 
C 263.943695 110.859572 265.5558 106.967607 265.5558 102.91 
C 265.5558 98.852393 263.943695 94.960428 261.074534 92.091266 
C 258.205372 89.222105 254.313407 87.61 250.2558 87.61 
C 246.198193 87.61 242.306228 89.222105 239.437066 92.091266 
C 236.567905 94.960428 234.9558 98.852393 234.9558 102.91 
C 234.9558 106.967607 236.567905 110.859572 239.437066 113.728734 
C 242.306228 116.597895 246.198193 118.21 250.2558 118.21 
L 250.2558 118.21 
z
" clip-path="url(#p105c179e84)" style="fill: none; stroke: #000000; stroke-width: 2; stroke-linejoin: miter"/>
   </g>
   <g id="line2d_1">
    <path d="M 66.6558 148.81 
L 66.6558 161.05 
L 59.0058 161.05 
L 66.6558 168.7 
L 74.3058 161.05 
L 66.6558 161.05 
" clip-path="url(#p105c179e84)" style="fill: none; stroke: #000000; stroke-width: 2; stroke-linecap: round"/>
   </g>
   <g id="line2d_2">
    <path d="M 66.6558 148.81 
L 66.6558 118.21 
L 66.6558 118.21 
M 66.6558 87.61 
L 66.6558 87.61 
L 66.6558 57.01 
" clip-path="url(#p105c179e84)" style="fill: none; stroke: #000000; stroke-width: 2; stroke-linecap: round"/>
   </g>
   <g id="line2d_3">
    <path d="M 66.6558 110.56 
L 66.6558 102.91 
" clip-path="url(#p105c179e84)" style="fill: none; stroke: #000000; stroke-width: 2; stroke-linecap: round"/>
   </g>
   <g id="patch_6">
    <path d="M 64.3608 102.91 
L 66.6558 95.26 
L 68.9508 102.91 
z
" clip-path="url(#p105c179e84)"/>
   </g>
   <g id="line2d_4">
    <path d="M 66.6558 57.01 
L 97.2558 57.01 
L 99.8058 49.36 
L 104.9058 64.66 
L 110.0058 49.36 
L 115.1058 64.66 
L 120.2058 49.36 
L 125.3058 64.66 
L 127.8558 57.01 
L 158.4558 57.01 
" clip-path="url(#p105c179e84)" style="fill: none; stroke: #000000; stroke-width: 2; stroke-linecap: round"/>
   </g>
   <g id="line2d_5">
    <path d="M 158.4558 57.01 
L 158.4558 87.61 
L 166.1058 90.16 
L 150.8058 95.26 
L 166.1058 100.36 
L 150.8058 105.46 
L 166.1058 110.56 
L 150.8058 115.66 
L 158.4558 118.21 
L 158.4558 148.81 
" clip-path="url(#p105c179e84)" style="fill: none; stroke: #000000; stroke-width: 2; stroke-linecap: round"/>
   </g>
   <g id="line2d_6">
    <path d="M 158.4558 57.01 
L 189.0558 57.01 
L 191.6058 49.36 
L 196.7058 64.66 
L 201.8058 49.36 
L 206.9058 64.66 
L 212.0058 49.36 
L 217.1058 64.66 
L 219.6558 57.01 
L 250.2558 57.01 
" clip-path="url(#p105c179e84)" style="fill: none; stroke: #000000; stroke-width: 2; stroke-linecap: round"/>
   </g>
   <g id="line2d_7">
    <path d="M 250.2558 57.01 
L 250.2558 87.61 
L 250.2558 87.61 
M 250.2558 118.21 
L 250.2558 118.21 
L 250.2558 148.81 
" clip-path="url(#p105c179e84)" style="fill: none; stroke: #000000; stroke-width: 2; stroke-linecap: round"/>
   </g>
   <g id="line2d_8">
    <path d="M 253.3158 110.56 
L 247.1958 110.56 
" clip-path="url(#p105c179e84)" style="fill: none; stroke: #000000; stroke-width: 2; stroke-linecap: round"/>
   </g>
   <g id="line2d_9">
    <path d="M 250.2558 92.2 
L 250.2558 98.32 
" clip-path="url(#p105c179e84)" style="fill: none; stroke: #000000; stroke-width: 2; stroke-linecap: round"/>
   </g>
   <g id="line2d_10">
    <path d="M 253.3158 95.26 
L 247.1958 95.26 
" clip-path="url(#p105c179e84)" style="fill: none; stroke: #000000; stroke-width: 2; stroke-linecap: round"/>
   </g>
   <g id="line2d_11">
    <path d="M 250.2558 148.81 
L 158.4558 148.81 
L 66.6558 148.81 
" clip-path="url(#p105c179e84)" style="fill: none; stroke: #000000; stroke-width: 2; stroke-linecap: round"/>
   </g>
   <g id="line2d_12">
    <path d="M 66.6558 148.81 
L 66.6558 161.05 
L 59.0058 161.05 
L 66.6558 168.7 
L 74.3058 161.05 
L 66.6558 161.05 
" clip-path="url(#p105c179e84)" style="fill: none; stroke: #000000; stroke-width: 2; stroke-linecap: round"/>
   </g>
   <g id="line2d_13">
    <path d="M 66.6558 148.81 
L 66.6558 118.21 
L 66.6558 118.21 
M 66.6558 87.61 
L 66.6558 87.61 
L 66.6558 57.01 
" clip-path="url(#p105c179e84)" style="fill: none; stroke: #000000; stroke-width: 2; stroke-linecap: round"/>
   </g>
   <g id="line2d_14">
    <path d="M 66.6558 110.56 
L 66.6558 102.91 
" clip-path="url(#p105c179e84)" style="fill: none; stroke: #000000; stroke-width: 2; stroke-linecap: round"/>
   </g>
   <g id="patch_7">
    <path d="M 64.3608 102.91 
L 66.6558 95.26 
L 68.9508 102.91 
z
" clip-path="url(#p105c179e84)"/>
   </g>
   <g id="line2d_15">
    <path d="M 66.6558 57.01 
L 97.2558 57.01 
L 99.8058 49.36 
L 104.9058 64.66 
L 110.0058 49.36 
L 115.1058 64.66 
L 120.2058 49.36 
L 125.3058 64.66 
L 127.8558 57.01 
L 158.4558 57.01 
" clip-path="url(#p105c179e84)" style="fill: none; stroke: #000000; stroke-width: 2; stroke-linecap: round"/>
   </g>
   <g id="line2d_16">
    <path d="M 158.4558 57.01 
L 158.4558 87.61 
L 166.1058 90.16 
L 150.8058 95.26 
L 166.1058 100.36 
L 150.8058 105.46 
L 166.1058 110.56 
L 150.8058 115.66 
L 158.4558 118.21 
L 158.4558 148.81 
" clip-path="url(#p105c179e84)" style="fill: none; stroke: #000000; stroke-width: 2; stroke-linecap: round"/>
   </g>
   <g id="line2d_17">
    <path d="M 158.4558 57.01 
L 189.0558 57.01 
L 191.6058 49.36 
L 196.7058 64.66 
L 201.8058 49.36 
L 206.9058 64.66 
L 212.0058 49.36 
L 217.1058 64.66 
L 219.6558 57.01 
L 250.2558 57.01 
" clip-path="url(#p105c179e84)" style="fill: none; stroke: #000000; stroke-width: 2; stroke-linecap: round"/>
   </g>
   <g id="line2d_18">
    <path d="M 250.2558 57.01 
L 250.2558 87.61 
L 250.2558 87.61 
M 250.2558 118.21 
L 250.2558 118.21 
L 250.2558 148.81 
" clip-path="url(#p105c179e84)" style="fill: none; stroke: #000000; stroke-width: 2; stroke-linecap: round"/>
   </g>
   <g id="line2d_19">
    <path d="M 253.3158 110.56 
L 247.1958 110.56 
" clip-path="url(#p105c179e84)" style="fill: none; stroke: #000000; stroke-width: 2; stroke-linecap: round"/>
   </g>
   <g id="line2d_20">
    <path d="M 250.2558 92.2 
L 250.2558 98.32 
" clip-path="url(#p105c179e84)" style="fill: none; stroke: #000000; stroke-width: 2; stroke-linecap: round"/>
   </g>
   <g id="line2d_21">
    <path d="M 253.3158 95.26 
L 247.1958 95.26 
" clip-path="url(#p105c179e84)" style="fill: none; stroke: #000000; stroke-width: 2; stroke-linecap: round"/>
   </g>
   <g id="line2d_22">
    <path d="M 250.2558 148.81 
L 158.4558 148.81 
L 66.6558 148.81 
" clip-path="url(#p105c179e84)" style="fill: none; stroke: #000000; stroke-width: 2; stroke-linecap: round"/>
   </g>
   <g id="text_1">
    <g clip-path="url(#p105c179e84)">
     <!-- $2/3~A$ -->
     <g transform="translate(21.6708 121.659219)scale(0.125 -0.125)">
      <defs>
       <path id="STIXGeneral-Regular-32" d="M 3034 877 
L 2688 0 
L 186 0 
L 186 77 
L 1325 1286 
Q 1773 1754 1965 2144 
Q 2157 2534 2157 2950 
Q 2157 3379 1920 3616 
Q 1683 3853 1267 3853 
Q 922 3853 720 3673 
Q 518 3494 326 3021 
L 192 3053 
Q 301 3648 630 3987 
Q 960 4326 1523 4326 
Q 2054 4326 2380 4006 
Q 2707 3686 2707 3200 
Q 2707 2477 1888 1613 
L 832 486 
L 2330 486 
Q 2541 486 2665 569 
Q 2790 653 2944 915 
L 3034 877 
z
" transform="scale(0.015625)"/>
       <path id="STIXGeneral-Regular-2f" d="M 1837 4326 
L 378 -90 
L -58 -90 
L 1408 4326 
L 1837 4326 
z
" transform="scale(0.015625)"/>
       <path id="STIXGeneral-Regular-33" d="M 390 3264 
L 288 3290 
Q 435 3770 748 4048 
Q 1062 4326 1542 4326 
Q 1990 4326 2265 4083 
Q 2541 3840 2541 3450 
Q 2541 2925 1946 2566 
Q 2298 2413 2477 2227 
Q 2758 1914 2758 1402 
Q 2758 890 2464 506 
Q 2246 211 1840 60 
Q 1434 -90 979 -90 
Q 262 -90 262 275 
Q 262 378 339 442 
Q 416 506 525 506 
Q 685 506 915 339 
Q 1197 141 1466 141 
Q 1818 141 2058 425 
Q 2298 710 2298 1120 
Q 2298 1856 1632 2048 
Q 1434 2112 979 2112 
L 979 2202 
Q 1338 2323 1517 2432 
Q 2035 2726 2035 3290 
Q 2035 3610 1852 3776 
Q 1670 3942 1344 3942 
Q 768 3942 390 3264 
z
" transform="scale(0.015625)"/>
       <path id="STIXGeneral-Italic-41" d="M 3610 0 
L 2042 0 
L 2042 102 
Q 2330 115 2432 192 
Q 2534 269 2534 442 
Q 2534 493 2522 608 
L 2394 1446 
L 986 1446 
L 608 736 
Q 467 474 467 314 
Q 467 122 864 102 
L 864 0 
L -326 0 
L -326 102 
Q -109 147 28 307 
Q 166 467 531 1101 
L 2355 4275 
L 2522 4275 
L 3110 736 
Q 3174 339 3264 230 
Q 3354 122 3610 102 
L 3610 0 
z
M 2362 1677 
L 2074 3360 
L 1120 1677 
L 2362 1677 
z
" transform="scale(0.015625)"/>
      </defs>
      <use xlink:href="#STIXGeneral-Regular-32" transform="translate(0 0.40625)"/>
      <use xlink:href="#STIXGeneral-Regular-2f" transform="translate(49.999985 0.40625)"/>
      <use xlink:href="#STIXGeneral-Regular-33" transform="translate(77.799973 0.40625)"/>
      <use xlink:href="#STIXGeneral-Italic-41" transform="translate(151.866377 0.40625)"/>
     </g>
    </g>
   </g>
   <g id="text_2">
    <g clip-path="url(#p105c179e84)">
     <!-- $I_S$ -->
     <g transform="translate(39.1708 91.059219)scale(0.125 -0.125)">
      <defs>
       <path id="STIXGeneral-Italic-49" d="M 2458 4179 
L 2458 4077 
Q 2189 4045 2102 3961 
Q 2016 3878 1933 3584 
L 1165 838 
Q 1069 499 1069 352 
Q 1069 224 1149 179 
Q 1229 134 1510 102 
L 1510 0 
L -51 0 
L -51 102 
Q 218 154 317 237 
Q 416 320 486 582 
L 1254 3405 
Q 1338 3699 1338 3802 
Q 1338 3930 1235 3997 
Q 1133 4064 877 4077 
L 877 4179 
L 2458 4179 
z
" transform="scale(0.015625)"/>
       <path id="STIXGeneral-Italic-53" d="M 3251 4269 
L 2995 2989 
L 2880 3008 
Q 2880 3539 2720 3795 
Q 2560 4051 2118 4051 
Q 1786 4051 1594 3881 
Q 1402 3712 1402 3411 
Q 1402 3168 1504 3005 
Q 1606 2842 2035 2413 
Q 2464 1978 2611 1715 
Q 2758 1453 2758 1133 
Q 2758 589 2390 237 
Q 2022 -115 1466 -115 
Q 1222 -115 800 32 
Q 595 109 499 109 
Q 288 109 224 -96 
L 109 -96 
L 326 1338 
L 454 1325 
Q 442 1267 442 1178 
Q 442 710 701 409 
Q 960 109 1363 109 
Q 1734 109 1968 336 
Q 2202 563 2202 928 
Q 2202 1139 2118 1308 
Q 2035 1478 1818 1715 
L 1568 1984 
Q 1549 2003 1459 2102 
Q 1370 2202 1318 2253 
Q 1030 2560 934 2755 
Q 838 2950 838 3213 
Q 838 3699 1168 3980 
Q 1498 4262 1978 4262 
Q 2310 4262 2522 4173 
Q 2707 4102 2816 4102 
Q 2925 4102 2982 4134 
Q 3040 4166 3104 4269 
L 3251 4269 
z
" transform="scale(0.015625)"/>
      </defs>
      <use xlink:href="#STIXGeneral-Italic-49" transform="translate(0 0.703125)"/>
      <use xlink:href="#STIXGeneral-Italic-53" transform="translate(33.299988 -12.525)scale(0.7)"/>
     </g>
    </g>
   </g>
   <g id="text_3">
    <g clip-path="url(#p105c179e84)">
     <!-- $R_1$ -->
     <g transform="translate(106.2433 29.703125)scale(0.125 -0.125)">
      <defs>
       <path id="STIXGeneral-Italic-52" d="M 845 4179 
L 2458 4179 
Q 3078 4179 3420 3936 
Q 3763 3693 3763 3277 
Q 3763 2778 3341 2458 
Q 3091 2266 2502 2131 
L 3072 627 
Q 3181 333 3299 217 
Q 3418 102 3629 102 
L 3629 0 
L 2688 0 
L 1901 2074 
L 1478 2106 
L 1126 806 
Q 1043 512 1043 403 
Q 1043 256 1126 192 
Q 1210 128 1472 102 
L 1472 0 
L -83 0 
L -83 102 
Q 173 134 278 243 
Q 384 352 461 646 
L 1222 3405 
Q 1299 3699 1299 3808 
Q 1299 3923 1210 3987 
Q 1133 4038 845 4077 
L 845 4179 
z
M 1958 3795 
L 1555 2342 
Q 1754 2310 1882 2310 
Q 2451 2310 2771 2566 
Q 3091 2822 3091 3270 
Q 3091 3603 2892 3795 
Q 2694 3987 2323 3987 
Q 2010 3987 1958 3795 
z
" transform="scale(0.015625)"/>
       <path id="STIXGeneral-Regular-31" d="M 2522 0 
L 755 0 
L 755 96 
Q 1107 115 1235 227 
Q 1363 339 1363 608 
L 1363 3482 
Q 1363 3795 1171 3795 
Q 1082 3795 883 3718 
L 710 3654 
L 710 3744 
L 1856 4326 
L 1914 4307 
L 1914 486 
Q 1914 275 2042 185 
Q 2170 96 2522 96 
L 2522 0 
z
" transform="scale(0.015625)"/>
      </defs>
      <use xlink:href="#STIXGeneral-Italic-52" transform="translate(0 0.703125)"/>
      <use xlink:href="#STIXGeneral-Regular-31" transform="translate(61.099991 -12.525)scale(0.7)"/>
     </g>
    </g>
    <g clip-path="url(#p105c179e84)">
     <!-- $6\Omega$ -->
     <g transform="translate(104.7433 43.700391)scale(0.125 -0.125)">
      <defs>
       <path id="STIXGeneral-Regular-36" d="M 2854 4378 
L 2867 4275 
Q 2112 4154 1606 3664 
Q 1101 3174 973 2451 
Q 1344 2739 1786 2739 
Q 2349 2739 2672 2380 
Q 2995 2022 2995 1402 
Q 2995 774 2669 378 
Q 2291 -90 1651 -90 
Q 870 -90 518 557 
Q 218 1107 218 1786 
Q 218 2835 915 3552 
Q 1312 3962 1731 4131 
Q 2150 4301 2854 4378 
z
M 2419 1203 
Q 2419 2445 1555 2445 
Q 1235 2445 1024 2275 
Q 813 2106 813 1702 
Q 813 954 1046 522 
Q 1280 90 1722 90 
Q 2061 90 2240 394 
Q 2419 698 2419 1203 
z
" transform="scale(0.015625)"/>
       <path id="STIXGeneral-Regular-3a9" d="M 4576 0 
L 2746 0 
L 2790 1030 
Q 3187 1126 3440 1574 
Q 3693 2022 3693 2554 
Q 3693 3251 3344 3673 
Q 2995 4096 2380 4096 
Q 1766 4096 1417 3635 
Q 1069 3174 1069 2554 
Q 1069 2054 1315 1600 
Q 1562 1146 1965 1030 
L 2022 0 
L 186 0 
L 186 1094 
L 346 1094 
Q 352 806 438 707 
Q 525 608 742 608 
L 1709 608 
L 1696 845 
Q 1018 1037 678 1446 
Q 339 1856 339 2541 
Q 339 3238 899 3782 
Q 1459 4326 2380 4326 
Q 3302 4326 3862 3804 
Q 4422 3283 4422 2541 
Q 4422 1235 3046 845 
L 3034 608 
L 4019 608 
Q 4397 608 4416 1082 
L 4576 1082 
L 4576 0 
z
" transform="scale(0.015625)"/>
      </defs>
      <use xlink:href="#STIXGeneral-Regular-36" transform="translate(0 0.59375)"/>
      <use xlink:href="#STIXGeneral-Regular-3a9" transform="translate(49.999985 0.59375)"/>
     </g>
    </g>
   </g>
   <g id="text_4">
    <g clip-path="url(#p105c179e84)">
     <!-- $R_2$ -->
     <g transform="translate(135.1208 99.360586)scale(0.125 -0.125)">
      <use xlink:href="#STIXGeneral-Italic-52" transform="translate(0 0.703125)"/>
      <use xlink:href="#STIXGeneral-Regular-32" transform="translate(61.099991 -12.525)scale(0.7)"/>
     </g>
    </g>
    <g clip-path="url(#p105c179e84)">
     <!-- $12\Omega$ -->
     <g transform="translate(125.8708 113.357852)scale(0.125 -0.125)">
      <use xlink:href="#STIXGeneral-Regular-31" transform="translate(0 0.40625)"/>
      <use xlink:href="#STIXGeneral-Regular-32" transform="translate(49.999985 0.40625)"/>
      <use xlink:href="#STIXGeneral-Regular-3a9" transform="translate(99.999969 0.40625)"/>
     </g>
    </g>
   </g>
   <g id="text_5">
    <g clip-path="url(#p105c179e84)">
     <!-- $R_3$ -->
     <g transform="translate(198.0433 29.703125)scale(0.125 -0.125)">
      <use xlink:href="#STIXGeneral-Italic-52" transform="translate(0 0.703125)"/>
      <use xlink:href="#STIXGeneral-Regular-33" transform="translate(61.099991 -12.525)scale(0.7)"/>
     </g>
    </g>
    <g clip-path="url(#p105c179e84)">
     <!-- $12\Omega$ -->
     <g transform="translate(193.4183 43.700391)scale(0.125 -0.125)">
      <use xlink:href="#STIXGeneral-Regular-31" transform="translate(0 0.40625)"/>
      <use xlink:href="#STIXGeneral-Regular-32" transform="translate(49.999985 0.40625)"/>
      <use xlink:href="#STIXGeneral-Regular-3a9" transform="translate(99.999969 0.40625)"/>
     </g>
    </g>
   </g>
   <g id="text_6">
    <g clip-path="url(#p105c179e84)">
     <!-- + -->
     <g transform="translate(176.168495 77.218047)scale(0.125 -0.125)">
      <defs>
       <path id="DejaVuSans-2b" d="M 2944 4013 
L 2944 2272 
L 4684 2272 
L 4684 1741 
L 2944 1741 
L 2944 0 
L 2419 0 
L 2419 1741 
L 678 1741 
L 678 2272 
L 2419 2272 
L 2419 4013 
L 2944 4013 
z
" transform="scale(0.015625)"/>
      </defs>
      <use xlink:href="#DejaVuSans-2b"/>
     </g>
    </g>
   </g>
   <g id="text_7">
    <g clip-path="url(#p105c179e84)">
     <!-- $V_O$ -->
     <g transform="translate(197.0433 77.218047)scale(0.125 -0.125)">
      <defs>
       <path id="STIXGeneral-Italic-56" d="M 4403 4179 
L 4403 4077 
Q 4198 4070 4045 3821 
L 1658 -115 
L 1536 -115 
L 1011 3104 
Q 902 3776 828 3910 
Q 755 4045 486 4077 
L 486 4179 
L 2022 4179 
L 2022 4077 
Q 1722 4045 1629 3981 
Q 1536 3917 1536 3750 
Q 1536 3686 1542 3654 
L 1958 819 
L 3302 3123 
Q 3616 3661 3616 3859 
Q 3616 4032 3219 4077 
L 3219 4179 
L 4403 4179 
z
" transform="scale(0.015625)"/>
       <path id="STIXGeneral-Italic-4f" d="M 4474 2675 
Q 4474 1990 4106 1363 
Q 3738 736 3149 339 
Q 2477 -115 1779 -115 
Q 1146 -115 765 281 
Q 384 678 384 1382 
Q 384 1965 697 2582 
Q 1011 3200 1517 3642 
Q 2234 4262 3034 4262 
Q 3718 4269 4096 3840 
Q 4474 3411 4474 2675 
z
M 3802 3078 
Q 3802 3533 3581 3792 
Q 3360 4051 2976 4051 
Q 2342 4051 1786 3302 
Q 1446 2842 1251 2259 
Q 1056 1677 1056 1178 
Q 1056 653 1270 374 
Q 1485 96 1888 96 
Q 2477 96 2976 704 
Q 3354 1178 3578 1862 
Q 3802 2547 3802 3078 
z
" transform="scale(0.015625)"/>
      </defs>
      <use xlink:href="#STIXGeneral-Italic-56" transform="translate(0 0.703125)"/>
      <use xlink:href="#STIXGeneral-Italic-4f" transform="translate(61.099991 -12.525)scale(0.7)"/>
     </g>
    </g>
   </g>
   <g id="text_8">
    <g clip-path="url(#p105c179e84)">
     <!-- - -->
     <g transform="translate(225.050917 77.218047)scale(0.125 -0.125)">
      <defs>
       <path id="DejaVuSans-2d" d="M 313 2009 
L 1997 2009 
L 1997 1497 
L 313 1497 
L 313 2009 
z
" transform="scale(0.015625)"/>
      </defs>
      <use xlink:href="#DejaVuSans-2d"/>
     </g>
    </g>
   </g>
   <g id="text_9">
    <g clip-path="url(#p105c179e84)">
     <!-- $V_S$ -->
     <g transform="translate(268.6158 99.360586)scale(0.125 -0.125)">
      <use xlink:href="#STIXGeneral-Italic-56" transform="translate(0 0.703125)"/>
      <use xlink:href="#STIXGeneral-Italic-53" transform="translate(61.099991 -12.525)scale(0.7)"/>
     </g>
    </g>
    <g clip-path="url(#p105c179e84)">
     <!-- 8$~V$ -->
     <g transform="translate(268.6158 113.357852)scale(0.125 -0.125)">
      <defs>
       <path id="DejaVuSans-38" d="M 2034 2216 
Q 1584 2216 1326 1975 
Q 1069 1734 1069 1313 
Q 1069 891 1326 650 
Q 1584 409 2034 409 
Q 2484 409 2743 651 
Q 3003 894 3003 1313 
Q 3003 1734 2745 1975 
Q 2488 2216 2034 2216 
z
M 1403 2484 
Q 997 2584 770 2862 
Q 544 3141 544 3541 
Q 544 4100 942 4425 
Q 1341 4750 2034 4750 
Q 2731 4750 3128 4425 
Q 3525 4100 3525 3541 
Q 3525 3141 3298 2862 
Q 3072 2584 2669 2484 
Q 3125 2378 3379 2068 
Q 3634 1759 3634 1313 
Q 3634 634 3220 271 
Q 2806 -91 2034 -91 
Q 1263 -91 848 271 
Q 434 634 434 1313 
Q 434 1759 690 2068 
Q 947 2378 1403 2484 
z
M 1172 3481 
Q 1172 3119 1398 2916 
Q 1625 2713 2034 2713 
Q 2441 2713 2670 2916 
Q 2900 3119 2900 3481 
Q 2900 3844 2670 4047 
Q 2441 4250 2034 4250 
Q 1625 4250 1398 4047 
Q 1172 3844 1172 3481 
z
" transform="scale(0.015625)"/>
      </defs>
      <use xlink:href="#DejaVuSans-38" transform="translate(0 0.78125)"/>
      <use xlink:href="#STIXGeneral-Italic-56" transform="translate(87.689467 0.78125)"/>
     </g>
    </g>
   </g>
   <g id="text_10">
    <g clip-path="url(#p105c179e84)">
     <!-- $2/3~A$ -->
     <g transform="translate(21.6708 121.659219)scale(0.125 -0.125)">
      <use xlink:href="#STIXGeneral-Regular-32" transform="translate(0 0.40625)"/>
      <use xlink:href="#STIXGeneral-Regular-2f" transform="translate(49.999985 0.40625)"/>
      <use xlink:href="#STIXGeneral-Regular-33" transform="translate(77.799973 0.40625)"/>
      <use xlink:href="#STIXGeneral-Italic-41" transform="translate(151.866377 0.40625)"/>
     </g>
    </g>
   </g>
   <g id="text_11">
    <g clip-path="url(#p105c179e84)">
     <!-- $I_S$ -->
     <g transform="translate(39.1708 91.059219)scale(0.125 -0.125)">
      <use xlink:href="#STIXGeneral-Italic-49" transform="translate(0 0.703125)"/>
      <use xlink:href="#STIXGeneral-Italic-53" transform="translate(33.299988 -12.525)scale(0.7)"/>
     </g>
    </g>
   </g>
   <g id="text_12">
    <g clip-path="url(#p105c179e84)">
     <!-- $R_1$ -->
     <g transform="translate(106.2433 29.703125)scale(0.125 -0.125)">
      <use xlink:href="#STIXGeneral-Italic-52" transform="translate(0 0.703125)"/>
      <use xlink:href="#STIXGeneral-Regular-31" transform="translate(61.099991 -12.525)scale(0.7)"/>
     </g>
    </g>
    <g clip-path="url(#p105c179e84)">
     <!-- $6\Omega$ -->
     <g transform="translate(104.7433 43.700391)scale(0.125 -0.125)">
      <use xlink:href="#STIXGeneral-Regular-36" transform="translate(0 0.59375)"/>
      <use xlink:href="#STIXGeneral-Regular-3a9" transform="translate(49.999985 0.59375)"/>
     </g>
    </g>
   </g>
   <g id="text_13">
    <g clip-path="url(#p105c179e84)">
     <!-- $R_2$ -->
     <g transform="translate(135.1208 99.360586)scale(0.125 -0.125)">
      <use xlink:href="#STIXGeneral-Italic-52" transform="translate(0 0.703125)"/>
      <use xlink:href="#STIXGeneral-Regular-32" transform="translate(61.099991 -12.525)scale(0.7)"/>
     </g>
    </g>
    <g clip-path="url(#p105c179e84)">
     <!-- $12\Omega$ -->
     <g transform="translate(125.8708 113.357852)scale(0.125 -0.125)">
      <use xlink:href="#STIXGeneral-Regular-31" transform="translate(0 0.40625)"/>
      <use xlink:href="#STIXGeneral-Regular-32" transform="translate(49.999985 0.40625)"/>
      <use xlink:href="#STIXGeneral-Regular-3a9" transform="translate(99.999969 0.40625)"/>
     </g>
    </g>
   </g>
   <g id="text_14">
    <g clip-path="url(#p105c179e84)">
     <!-- $R_3$ -->
     <g transform="translate(198.0433 29.703125)scale(0.125 -0.125)">
      <use xlink:href="#STIXGeneral-Italic-52" transform="translate(0 0.703125)"/>
      <use xlink:href="#STIXGeneral-Regular-33" transform="translate(61.099991 -12.525)scale(0.7)"/>
     </g>
    </g>
    <g clip-path="url(#p105c179e84)">
     <!-- $12\Omega$ -->
     <g transform="translate(193.4183 43.700391)scale(0.125 -0.125)">
      <use xlink:href="#STIXGeneral-Regular-31" transform="translate(0 0.40625)"/>
      <use xlink:href="#STIXGeneral-Regular-32" transform="translate(49.999985 0.40625)"/>
      <use xlink:href="#STIXGeneral-Regular-3a9" transform="translate(99.999969 0.40625)"/>
     </g>
    </g>
   </g>
   <g id="text_15">
    <g clip-path="url(#p105c179e84)">
     <!-- + -->
     <g transform="translate(176.168495 77.218047)scale(0.125 -0.125)">
      <use xlink:href="#DejaVuSans-2b"/>
     </g>
    </g>
   </g>
   <g id="text_16">
    <g clip-path="url(#p105c179e84)">
     <!-- $V_O$ -->
     <g transform="translate(197.0433 77.218047)scale(0.125 -0.125)">
      <use xlink:href="#STIXGeneral-Italic-56" transform="translate(0 0.703125)"/>
      <use xlink:href="#STIXGeneral-Italic-4f" transform="translate(61.099991 -12.525)scale(0.7)"/>
     </g>
    </g>
   </g>
   <g id="text_17">
    <g clip-path="url(#p105c179e84)">
     <!-- - -->
     <g transform="translate(225.050917 77.218047)scale(0.125 -0.125)">
      <use xlink:href="#DejaVuSans-2d"/>
     </g>
    </g>
   </g>
   <g id="text_18">
    <g clip-path="url(#p105c179e84)">
     <!-- $V_S$ -->
     <g transform="translate(268.6158 99.360586)scale(0.125 -0.125)">
      <use xlink:href="#STIXGeneral-Italic-56" transform="translate(0 0.703125)"/>
      <use xlink:href="#STIXGeneral-Italic-53" transform="translate(61.099991 -12.525)scale(0.7)"/>
     </g>
    </g>
    <g clip-path="url(#p105c179e84)">
     <!-- 8$~V$ -->
     <g transform="translate(268.6158 113.357852)scale(0.125 -0.125)">
      <use xlink:href="#DejaVuSans-38" transform="translate(0 0.78125)"/>
      <use xlink:href="#STIXGeneral-Italic-56" transform="translate(87.689467 0.78125)"/>
     </g>
    </g>
   </g>
   <g id="line2d_23">
    <path d="M 158.4558 130.45 
L 158.4558 130.45 
" clip-path="url(#p105c179e84)" style="fill: none; stroke: #000000; stroke-width: 2; stroke-linecap: round"/>
   </g>
   <g id="patch_8">
    <path d="M 163.0458 130.45 
L 158.4558 139.63 
L 153.8658 130.45 
z
" clip-path="url(#p105c179e84)"/>
   </g>
   <g id="text_19">
    <g clip-path="url(#p105c179e84)">
     <!-- $I_O$ -->
     <g transform="translate(138.1508 138.489219)scale(0.125 -0.125)">
      <use xlink:href="#STIXGeneral-Italic-49" transform="translate(0 0.703125)"/>
      <use xlink:href="#STIXGeneral-Italic-4f" transform="translate(33.299988 -12.525)scale(0.7)"/>
     </g>
    </g>
   </g>
   <g id="line2d_24">
    <path d="M 158.4558 130.45 
L 158.4558 130.45 
" clip-path="url(#p105c179e84)" style="fill: none; stroke: #000000; stroke-width: 2; stroke-linecap: round"/>
   </g>
   <g id="patch_9">
    <path d="M 163.0458 130.45 
L 158.4558 139.63 
L 153.8658 130.45 
z
" clip-path="url(#p105c179e84)"/>
   </g>
   <g id="text_20">
    <g clip-path="url(#p105c179e84)">
     <!-- $I_O$ -->
     <g transform="translate(138.1508 138.489219)scale(0.125 -0.125)">
      <use xlink:href="#STIXGeneral-Italic-49" transform="translate(0 0.703125)"/>
      <use xlink:href="#STIXGeneral-Italic-4f" transform="translate(33.299988 -12.525)scale(0.7)"/>
     </g>
    </g>
   </g>
  </g>
 </g>
 <defs>
  <clipPath id="p105c179e84">
   <rect x="7.2" y="7.2" width="298.2786" height="164.56"/>
  </clipPath>
 </defs>
</svg>
