<?xml version="1.0" encoding="utf-8" standalone="no"?>
<!DOCTYPE svg PUBLIC "-//W3C//DTD SVG 1.1//EN"
  "http://www.w3.org/Graphics/SVG/1.1/DTD/svg11.dtd">
<svg xmlns:xlink="http://www.w3.org/1999/xlink" width="270.3996pt" height="178.96pt" viewBox="0 0 270.3996 178.96" xmlns="http://www.w3.org/2000/svg" version="1.1">
 <metadata>
  <rdf:RDF xmlns:dc="http://purl.org/dc/elements/1.1/" xmlns:cc="http://creativecommons.org/ns#" xmlns:rdf="http://www.w3.org/1999/02/22-rdf-syntax-ns#">
   <cc:Work>
    <dc:type rdf:resource="http://purl.org/dc/dcmitype/StillImage"/>
    <dc:date>2023-03-16T22:07:06.675996</dc:date>
    <dc:format>image/svg+xml</dc:format>
    <dc:creator>
     <cc:Agent>
      <dc:title>Matplotlib v3.5.2, https://matplotlib.org/</dc:title>
     </cc:Agent>
    </dc:creator>
   </cc:Work>
  </rdf:RDF>
 </metadata>
 <defs>
  <style type="text/css">*{stroke-linejoin: round; stroke-linecap: butt}</style>
 </defs>
 <g id="figure_1">
  <g id="patch_1">
   <path d="M 0 178.96 
L 270.3996 178.96 
L 270.3996 0 
L 0 0 
L 0 178.96 
z
" style="fill: none"/>
  </g>
  <g id="axes_1">
   <g id="patch_2">
    <path d="M 56.3028 118.21 
C 60.360407 118.21 64.252372 116.597895 67.121534 113.728734 
C 69.990695 110.859572 71.6028 106.967607 71.6028 102.91 
C 71.6028 98.852393 69.990695 94.960428 67.121534 92.091266 
C 64.252372 89.222105 60.360407 87.61 56.3028 87.61 
C 52.245193 87.61 48.353228 89.222105 45.484066 92.091266 
C 42.614905 94.960428 41.0028 98.852393 41.0028 102.91 
C 41.0028 106.967607 42.614905 110.859572 45.484066 113.728734 
C 48.353228 116.597895 52.245193 118.21 56.3028 118.21 
L 56.3028 118.21 
z
" clip-path="url(#p344cb5113a)" style="fill: none; stroke: #000000; stroke-width: 2; stroke-linejoin: miter"/>
   </g>
   <g id="patch_3">
    <path d="M 56.3028 118.21 
C 60.360407 118.21 64.252372 116.597895 67.121534 113.728734 
C 69.990695 110.859572 71.6028 106.967607 71.6028 102.91 
C 71.6028 98.852393 69.990695 94.960428 67.121534 92.091266 
C 64.252372 89.222105 60.360407 87.61 56.3028 87.61 
C 52.245193 87.61 48.353228 89.222105 45.484066 92.091266 
C 42.614905 94.960428 41.0028 98.852393 41.0028 102.91 
C 41.0028 106.967607 42.614905 110.859572 45.484066 113.728734 
C 48.353228 116.597895 52.245193 118.21 56.3028 118.21 
L 56.3028 118.21 
z
" clip-path="url(#p344cb5113a)" style="fill: none; stroke: #000000; stroke-width: 2; stroke-linejoin: miter"/>
   </g>
   <g id="line2d_1">
    <path d="M 56.3028 148.81 
L 56.3028 161.05 
L 48.6528 161.05 
L 56.3028 168.7 
L 63.9528 161.05 
L 56.3028 161.05 
" clip-path="url(#p344cb5113a)" style="fill: none; stroke: #000000; stroke-width: 2; stroke-linecap: round"/>
   </g>
   <g id="line2d_2">
    <path d="M 56.3028 148.81 
L 56.3028 118.21 
L 56.3028 118.21 
M 56.3028 87.61 
L 56.3028 87.61 
L 56.3028 57.01 
" clip-path="url(#p344cb5113a)" style="fill: none; stroke: #000000; stroke-width: 2; stroke-linecap: round"/>
   </g>
   <g id="line2d_3">
    <path d="M 56.3028 110.56 
L 56.3028 102.91 
" clip-path="url(#p344cb5113a)" style="fill: none; stroke: #000000; stroke-width: 2; stroke-linecap: round"/>
   </g>
   <g id="patch_4">
    <path d="M 54.0078 102.91 
L 56.3028 95.26 
L 58.5978 102.91 
z
" clip-path="url(#p344cb5113a)"/>
   </g>
   <g id="line2d_4">
    <path d="M 56.3028 57.01 
L 86.9028 57.01 
L 89.4528 49.36 
L 94.5528 64.66 
L 99.6528 49.36 
L 104.7528 64.66 
L 109.8528 49.36 
L 114.9528 64.66 
L 117.5028 57.01 
L 148.1028 57.01 
" clip-path="url(#p344cb5113a)" style="fill: none; stroke: #000000; stroke-width: 2; stroke-linecap: round"/>
   </g>
   <g id="line2d_5">
    <path d="M 148.1028 57.01 
L 148.1028 87.61 
L 155.7528 90.16 
L 140.4528 95.26 
L 155.7528 100.36 
L 140.4528 105.46 
L 155.7528 110.56 
L 140.4528 115.66 
L 148.1028 118.21 
L 148.1028 148.81 
" clip-path="url(#p344cb5113a)" style="fill: none; stroke: #000000; stroke-width: 2; stroke-linecap: round"/>
   </g>
   <g id="line2d_6">
    <path d="M 148.1028 57.01 
L 178.7028 57.01 
L 181.2528 49.36 
L 186.3528 64.66 
L 191.4528 49.36 
L 196.5528 64.66 
L 201.6528 49.36 
L 206.7528 64.66 
L 209.3028 57.01 
L 239.9028 57.01 
" clip-path="url(#p344cb5113a)" style="fill: none; stroke: #000000; stroke-width: 2; stroke-linecap: round"/>
   </g>
   <g id="line2d_7">
    <path d="M 239.9028 57.01 
L 239.9028 87.61 
L 247.5528 90.16 
L 232.2528 95.26 
L 247.5528 100.36 
L 232.2528 105.46 
L 247.5528 110.56 
L 232.2528 115.66 
L 239.9028 118.21 
L 239.9028 148.81 
" clip-path="url(#p344cb5113a)" style="fill: none; stroke: #000000; stroke-width: 2; stroke-linecap: round"/>
   </g>
   <g id="line2d_8">
    <path d="M 239.9028 148.81 
L 148.1028 148.81 
L 56.3028 148.81 
" clip-path="url(#p344cb5113a)" style="fill: none; stroke: #000000; stroke-width: 2; stroke-linecap: round"/>
   </g>
   <g id="line2d_9">
    <path d="M 86.9028 72.31 
L 102.2028 72.31 
L 109.8528 72.31 
" clip-path="url(#p344cb5113a)" style="fill: none; stroke: #0000ff; stroke-width: 2; stroke-linecap: round"/>
   </g>
   <g id="patch_5">
    <path d="M 109.8528 70.015 
L 117.5028 72.31 
L 109.8528 74.605 
z
" clip-path="url(#p344cb5113a)" style="fill: #0000ff"/>
   </g>
   <g id="line2d_10">
    <path d="M 163.4028 87.61 
L 163.4028 102.91 
L 163.4028 110.56 
" clip-path="url(#p344cb5113a)" style="fill: none; stroke: #0000ff; stroke-width: 2; stroke-linecap: round"/>
   </g>
   <g id="patch_6">
    <path d="M 165.6978 110.56 
L 163.4028 118.21 
L 161.1078 110.56 
z
" clip-path="url(#p344cb5113a)" style="fill: #0000ff"/>
   </g>
   <g id="line2d_11">
    <path d="M 178.7028 72.31 
L 194.0028 72.31 
L 201.6528 72.31 
" clip-path="url(#p344cb5113a)" style="fill: none; stroke: #0000ff; stroke-width: 2; stroke-linecap: round"/>
   </g>
   <g id="patch_7">
    <path d="M 201.6528 70.015 
L 209.3028 72.31 
L 201.6528 74.605 
z
" clip-path="url(#p344cb5113a)" style="fill: #0000ff"/>
   </g>
   <g id="line2d_12">
    <path d="M 255.2028 87.61 
L 255.2028 102.91 
L 255.2028 110.56 
" clip-path="url(#p344cb5113a)" style="fill: none; stroke: #0000ff; stroke-width: 2; stroke-linecap: round"/>
   </g>
   <g id="patch_8">
    <path d="M 257.4978 110.56 
L 255.2028 118.21 
L 252.9078 110.56 
z
" clip-path="url(#p344cb5113a)" style="fill: #0000ff"/>
   </g>
   <g id="line2d_13">
    <path d="M 56.3028 148.81 
L 56.3028 161.05 
L 48.6528 161.05 
L 56.3028 168.7 
L 63.9528 161.05 
L 56.3028 161.05 
" clip-path="url(#p344cb5113a)" style="fill: none; stroke: #000000; stroke-width: 2; stroke-linecap: round"/>
   </g>
   <g id="line2d_14">
    <path d="M 56.3028 148.81 
L 56.3028 118.21 
L 56.3028 118.21 
M 56.3028 87.61 
L 56.3028 87.61 
L 56.3028 57.01 
" clip-path="url(#p344cb5113a)" style="fill: none; stroke: #000000; stroke-width: 2; stroke-linecap: round"/>
   </g>
   <g id="line2d_15">
    <path d="M 56.3028 110.56 
L 56.3028 102.91 
" clip-path="url(#p344cb5113a)" style="fill: none; stroke: #000000; stroke-width: 2; stroke-linecap: round"/>
   </g>
   <g id="patch_9">
    <path d="M 54.0078 102.91 
L 56.3028 95.26 
L 58.5978 102.91 
z
" clip-path="url(#p344cb5113a)"/>
   </g>
   <g id="line2d_16">
    <path d="M 56.3028 57.01 
L 86.9028 57.01 
L 89.4528 49.36 
L 94.5528 64.66 
L 99.6528 49.36 
L 104.7528 64.66 
L 109.8528 49.36 
L 114.9528 64.66 
L 117.5028 57.01 
L 148.1028 57.01 
" clip-path="url(#p344cb5113a)" style="fill: none; stroke: #000000; stroke-width: 2; stroke-linecap: round"/>
   </g>
   <g id="line2d_17">
    <path d="M 148.1028 57.01 
L 148.1028 87.61 
L 155.7528 90.16 
L 140.4528 95.26 
L 155.7528 100.36 
L 140.4528 105.46 
L 155.7528 110.56 
L 140.4528 115.66 
L 148.1028 118.21 
L 148.1028 148.81 
" clip-path="url(#p344cb5113a)" style="fill: none; stroke: #000000; stroke-width: 2; stroke-linecap: round"/>
   </g>
   <g id="line2d_18">
    <path d="M 148.1028 57.01 
L 178.7028 57.01 
L 181.2528 49.36 
L 186.3528 64.66 
L 191.4528 49.36 
L 196.5528 64.66 
L 201.6528 49.36 
L 206.7528 64.66 
L 209.3028 57.01 
L 239.9028 57.01 
" clip-path="url(#p344cb5113a)" style="fill: none; stroke: #000000; stroke-width: 2; stroke-linecap: round"/>
   </g>
   <g id="line2d_19">
    <path d="M 239.9028 57.01 
L 239.9028 87.61 
L 247.5528 90.16 
L 232.2528 95.26 
L 247.5528 100.36 
L 232.2528 105.46 
L 247.5528 110.56 
L 232.2528 115.66 
L 239.9028 118.21 
L 239.9028 148.81 
" clip-path="url(#p344cb5113a)" style="fill: none; stroke: #000000; stroke-width: 2; stroke-linecap: round"/>
   </g>
   <g id="line2d_20">
    <path d="M 239.9028 148.81 
L 148.1028 148.81 
L 56.3028 148.81 
" clip-path="url(#p344cb5113a)" style="fill: none; stroke: #000000; stroke-width: 2; stroke-linecap: round"/>
   </g>
   <g id="line2d_21">
    <path d="M 86.9028 72.31 
L 102.2028 72.31 
L 109.8528 72.31 
" clip-path="url(#p344cb5113a)" style="fill: none; stroke: #0000ff; stroke-width: 2; stroke-linecap: round"/>
   </g>
   <g id="patch_10">
    <path d="M 109.8528 70.015 
L 117.5028 72.31 
L 109.8528 74.605 
z
" clip-path="url(#p344cb5113a)" style="fill: #0000ff"/>
   </g>
   <g id="line2d_22">
    <path d="M 163.4028 87.61 
L 163.4028 102.91 
L 163.4028 110.56 
" clip-path="url(#p344cb5113a)" style="fill: none; stroke: #0000ff; stroke-width: 2; stroke-linecap: round"/>
   </g>
   <g id="patch_11">
    <path d="M 165.6978 110.56 
L 163.4028 118.21 
L 161.1078 110.56 
z
" clip-path="url(#p344cb5113a)" style="fill: #0000ff"/>
   </g>
   <g id="line2d_23">
    <path d="M 178.7028 72.31 
L 194.0028 72.31 
L 201.6528 72.31 
" clip-path="url(#p344cb5113a)" style="fill: none; stroke: #0000ff; stroke-width: 2; stroke-linecap: round"/>
   </g>
   <g id="patch_12">
    <path d="M 201.6528 70.015 
L 209.3028 72.31 
L 201.6528 74.605 
z
" clip-path="url(#p344cb5113a)" style="fill: #0000ff"/>
   </g>
   <g id="line2d_24">
    <path d="M 255.2028 87.61 
L 255.2028 102.91 
L 255.2028 110.56 
" clip-path="url(#p344cb5113a)" style="fill: none; stroke: #0000ff; stroke-width: 2; stroke-linecap: round"/>
   </g>
   <g id="patch_13">
    <path d="M 257.4978 110.56 
L 255.2028 118.21 
L 252.9078 110.56 
z
" clip-path="url(#p344cb5113a)" style="fill: #0000ff"/>
   </g>
   <g id="text_1">
    <g clip-path="url(#p344cb5113a)">
     <!-- $6~A$ -->
     <g transform="translate(20.9428 121.659219)scale(0.125 -0.125)">
      <defs>
       <path id="STIXGeneral-Regular-36" d="M 2854 4378 
L 2867 4275 
Q 2112 4154 1606 3664 
Q 1101 3174 973 2451 
Q 1344 2739 1786 2739 
Q 2349 2739 2672 2380 
Q 2995 2022 2995 1402 
Q 2995 774 2669 378 
Q 2291 -90 1651 -90 
Q 870 -90 518 557 
Q 218 1107 218 1786 
Q 218 2835 915 3552 
Q 1312 3962 1731 4131 
Q 2150 4301 2854 4378 
z
M 2419 1203 
Q 2419 2445 1555 2445 
Q 1235 2445 1024 2275 
Q 813 2106 813 1702 
Q 813 954 1046 522 
Q 1280 90 1722 90 
Q 2061 90 2240 394 
Q 2419 698 2419 1203 
z
" transform="scale(0.015625)"/>
       <path id="STIXGeneral-Italic-41" d="M 3610 0 
L 2042 0 
L 2042 102 
Q 2330 115 2432 192 
Q 2534 269 2534 442 
Q 2534 493 2522 608 
L 2394 1446 
L 986 1446 
L 608 736 
Q 467 474 467 314 
Q 467 122 864 102 
L 864 0 
L -326 0 
L -326 102 
Q -109 147 28 307 
Q 166 467 531 1101 
L 2355 4275 
L 2522 4275 
L 3110 736 
Q 3174 339 3264 230 
Q 3354 122 3610 102 
L 3610 0 
z
M 2362 1677 
L 2074 3360 
L 1120 1677 
L 2362 1677 
z
" transform="scale(0.015625)"/>
      </defs>
      <use xlink:href="#STIXGeneral-Regular-36" transform="translate(0 0.59375)"/>
      <use xlink:href="#STIXGeneral-Italic-41" transform="translate(74.066405 0.59375)"/>
     </g>
    </g>
   </g>
   <g id="text_2">
    <g clip-path="url(#p344cb5113a)">
     <!-- $I_S$ -->
     <g transform="translate(28.8178 91.059219)scale(0.125 -0.125)">
      <defs>
       <path id="STIXGeneral-Italic-49" d="M 2458 4179 
L 2458 4077 
Q 2189 4045 2102 3961 
Q 2016 3878 1933 3584 
L 1165 838 
Q 1069 499 1069 352 
Q 1069 224 1149 179 
Q 1229 134 1510 102 
L 1510 0 
L -51 0 
L -51 102 
Q 218 154 317 237 
Q 416 320 486 582 
L 1254 3405 
Q 1338 3699 1338 3802 
Q 1338 3930 1235 3997 
Q 1133 4064 877 4077 
L 877 4179 
L 2458 4179 
z
" transform="scale(0.015625)"/>
       <path id="STIXGeneral-Italic-53" d="M 3251 4269 
L 2995 2989 
L 2880 3008 
Q 2880 3539 2720 3795 
Q 2560 4051 2118 4051 
Q 1786 4051 1594 3881 
Q 1402 3712 1402 3411 
Q 1402 3168 1504 3005 
Q 1606 2842 2035 2413 
Q 2464 1978 2611 1715 
Q 2758 1453 2758 1133 
Q 2758 589 2390 237 
Q 2022 -115 1466 -115 
Q 1222 -115 800 32 
Q 595 109 499 109 
Q 288 109 224 -96 
L 109 -96 
L 326 1338 
L 454 1325 
Q 442 1267 442 1178 
Q 442 710 701 409 
Q 960 109 1363 109 
Q 1734 109 1968 336 
Q 2202 563 2202 928 
Q 2202 1139 2118 1308 
Q 2035 1478 1818 1715 
L 1568 1984 
Q 1549 2003 1459 2102 
Q 1370 2202 1318 2253 
Q 1030 2560 934 2755 
Q 838 2950 838 3213 
Q 838 3699 1168 3980 
Q 1498 4262 1978 4262 
Q 2310 4262 2522 4173 
Q 2707 4102 2816 4102 
Q 2925 4102 2982 4134 
Q 3040 4166 3104 4269 
L 3251 4269 
z
" transform="scale(0.015625)"/>
      </defs>
      <use xlink:href="#STIXGeneral-Italic-49" transform="translate(0 0.703125)"/>
      <use xlink:href="#STIXGeneral-Italic-53" transform="translate(33.299988 -12.525)scale(0.7)"/>
     </g>
    </g>
   </g>
   <g id="text_3">
    <g clip-path="url(#p344cb5113a)">
     <!-- A -->
     <g transform="translate(52.027409 51.350391)scale(0.125 -0.125)">
      <defs>
       <path id="DejaVuSans-41" d="M 2188 4044 
L 1331 1722 
L 3047 1722 
L 2188 4044 
z
M 1831 4666 
L 2547 4666 
L 4325 0 
L 3669 0 
L 3244 1197 
L 1141 1197 
L 716 0 
L 50 0 
L 1831 4666 
z
" transform="scale(0.015625)"/>
      </defs>
      <use xlink:href="#DejaVuSans-41"/>
     </g>
    </g>
   </g>
   <g id="text_4">
    <g clip-path="url(#p344cb5113a)">
     <!-- $R_1$ -->
     <g transform="translate(95.8903 29.703125)scale(0.125 -0.125)">
      <defs>
       <path id="STIXGeneral-Italic-52" d="M 845 4179 
L 2458 4179 
Q 3078 4179 3420 3936 
Q 3763 3693 3763 3277 
Q 3763 2778 3341 2458 
Q 3091 2266 2502 2131 
L 3072 627 
Q 3181 333 3299 217 
Q 3418 102 3629 102 
L 3629 0 
L 2688 0 
L 1901 2074 
L 1478 2106 
L 1126 806 
Q 1043 512 1043 403 
Q 1043 256 1126 192 
Q 1210 128 1472 102 
L 1472 0 
L -83 0 
L -83 102 
Q 173 134 278 243 
Q 384 352 461 646 
L 1222 3405 
Q 1299 3699 1299 3808 
Q 1299 3923 1210 3987 
Q 1133 4038 845 4077 
L 845 4179 
z
M 1958 3795 
L 1555 2342 
Q 1754 2310 1882 2310 
Q 2451 2310 2771 2566 
Q 3091 2822 3091 3270 
Q 3091 3603 2892 3795 
Q 2694 3987 2323 3987 
Q 2010 3987 1958 3795 
z
" transform="scale(0.015625)"/>
       <path id="STIXGeneral-Regular-31" d="M 2522 0 
L 755 0 
L 755 96 
Q 1107 115 1235 227 
Q 1363 339 1363 608 
L 1363 3482 
Q 1363 3795 1171 3795 
Q 1082 3795 883 3718 
L 710 3654 
L 710 3744 
L 1856 4326 
L 1914 4307 
L 1914 486 
Q 1914 275 2042 185 
Q 2170 96 2522 96 
L 2522 0 
z
" transform="scale(0.015625)"/>
      </defs>
      <use xlink:href="#STIXGeneral-Italic-52" transform="translate(0 0.703125)"/>
      <use xlink:href="#STIXGeneral-Regular-31" transform="translate(61.099991 -12.525)scale(0.7)"/>
     </g>
    </g>
    <g clip-path="url(#p344cb5113a)">
     <!-- $2\Omega$ -->
     <g transform="translate(94.3903 43.700391)scale(0.125 -0.125)">
      <defs>
       <path id="STIXGeneral-Regular-32" d="M 3034 877 
L 2688 0 
L 186 0 
L 186 77 
L 1325 1286 
Q 1773 1754 1965 2144 
Q 2157 2534 2157 2950 
Q 2157 3379 1920 3616 
Q 1683 3853 1267 3853 
Q 922 3853 720 3673 
Q 518 3494 326 3021 
L 192 3053 
Q 301 3648 630 3987 
Q 960 4326 1523 4326 
Q 2054 4326 2380 4006 
Q 2707 3686 2707 3200 
Q 2707 2477 1888 1613 
L 832 486 
L 2330 486 
Q 2541 486 2665 569 
Q 2790 653 2944 915 
L 3034 877 
z
" transform="scale(0.015625)"/>
       <path id="STIXGeneral-Regular-3a9" d="M 4576 0 
L 2746 0 
L 2790 1030 
Q 3187 1126 3440 1574 
Q 3693 2022 3693 2554 
Q 3693 3251 3344 3673 
Q 2995 4096 2380 4096 
Q 1766 4096 1417 3635 
Q 1069 3174 1069 2554 
Q 1069 2054 1315 1600 
Q 1562 1146 1965 1030 
L 2022 0 
L 186 0 
L 186 1094 
L 346 1094 
Q 352 806 438 707 
Q 525 608 742 608 
L 1709 608 
L 1696 845 
Q 1018 1037 678 1446 
Q 339 1856 339 2541 
Q 339 3238 899 3782 
Q 1459 4326 2380 4326 
Q 3302 4326 3862 3804 
Q 4422 3283 4422 2541 
Q 4422 1235 3046 845 
L 3034 608 
L 4019 608 
Q 4397 608 4416 1082 
L 4576 1082 
L 4576 0 
z
" transform="scale(0.015625)"/>
      </defs>
      <use xlink:href="#STIXGeneral-Regular-32" transform="translate(0 0.40625)"/>
      <use xlink:href="#STIXGeneral-Regular-3a9" transform="translate(49.999985 0.40625)"/>
     </g>
    </g>
   </g>
   <g id="text_5">
    <g clip-path="url(#p344cb5113a)">
     <!-- B -->
     <g transform="translate(148.1028 52.809219)scale(0.125 -0.125)">
      <defs>
       <path id="DejaVuSans-42" d="M 1259 2228 
L 1259 519 
L 2272 519 
Q 2781 519 3026 730 
Q 3272 941 3272 1375 
Q 3272 1813 3026 2020 
Q 2781 2228 2272 2228 
L 1259 2228 
z
M 1259 4147 
L 1259 2741 
L 2194 2741 
Q 2656 2741 2882 2914 
Q 3109 3088 3109 3444 
Q 3109 3797 2882 3972 
Q 2656 4147 2194 4147 
L 1259 4147 
z
M 628 4666 
L 2241 4666 
Q 2963 4666 3353 4366 
Q 3744 4066 3744 3513 
Q 3744 3084 3544 2831 
Q 3344 2578 2956 2516 
Q 3422 2416 3680 2098 
Q 3938 1781 3938 1306 
Q 3938 681 3513 340 
Q 3088 0 2303 0 
L 628 0 
L 628 4666 
z
" transform="scale(0.015625)"/>
      </defs>
      <use xlink:href="#DejaVuSans-42"/>
     </g>
    </g>
   </g>
   <g id="text_6">
    <g clip-path="url(#p344cb5113a)">
     <!-- $R_2$ -->
     <g transform="translate(124.7678 99.360586)scale(0.125 -0.125)">
      <use xlink:href="#STIXGeneral-Italic-52" transform="translate(0 0.703125)"/>
      <use xlink:href="#STIXGeneral-Regular-32" transform="translate(61.099991 -12.525)scale(0.7)"/>
     </g>
    </g>
    <g clip-path="url(#p344cb5113a)">
     <!-- $4\Omega$ -->
     <g transform="translate(121.7678 113.357852)scale(0.125 -0.125)">
      <defs>
       <path id="STIXGeneral-Regular-34" d="M 3027 1069 
L 2368 1069 
L 2368 0 
L 1869 0 
L 1869 1069 
L 77 1069 
L 77 1478 
L 2086 4326 
L 2368 4326 
L 2368 1478 
L 3027 1478 
L 3027 1069 
z
M 1869 1478 
L 1869 3674 
L 333 1478 
L 1869 1478 
z
" transform="scale(0.015625)"/>
      </defs>
      <use xlink:href="#STIXGeneral-Regular-34" transform="translate(0 0.40625)"/>
      <use xlink:href="#STIXGeneral-Regular-3a9" transform="translate(49.999985 0.40625)"/>
     </g>
    </g>
   </g>
   <g id="text_7">
    <g clip-path="url(#p344cb5113a)">
     <!-- $R_3$ -->
     <g transform="translate(187.6903 29.703125)scale(0.125 -0.125)">
      <defs>
       <path id="STIXGeneral-Regular-33" d="M 390 3264 
L 288 3290 
Q 435 3770 748 4048 
Q 1062 4326 1542 4326 
Q 1990 4326 2265 4083 
Q 2541 3840 2541 3450 
Q 2541 2925 1946 2566 
Q 2298 2413 2477 2227 
Q 2758 1914 2758 1402 
Q 2758 890 2464 506 
Q 2246 211 1840 60 
Q 1434 -90 979 -90 
Q 262 -90 262 275 
Q 262 378 339 442 
Q 416 506 525 506 
Q 685 506 915 339 
Q 1197 141 1466 141 
Q 1818 141 2058 425 
Q 2298 710 2298 1120 
Q 2298 1856 1632 2048 
Q 1434 2112 979 2112 
L 979 2202 
Q 1338 2323 1517 2432 
Q 2035 2726 2035 3290 
Q 2035 3610 1852 3776 
Q 1670 3942 1344 3942 
Q 768 3942 390 3264 
z
" transform="scale(0.015625)"/>
      </defs>
      <use xlink:href="#STIXGeneral-Italic-52" transform="translate(0 0.703125)"/>
      <use xlink:href="#STIXGeneral-Regular-33" transform="translate(61.099991 -12.525)scale(0.7)"/>
     </g>
    </g>
    <g clip-path="url(#p344cb5113a)">
     <!-- $4\Omega$ -->
     <g transform="translate(186.1903 43.700391)scale(0.125 -0.125)">
      <use xlink:href="#STIXGeneral-Regular-34" transform="translate(0 0.40625)"/>
      <use xlink:href="#STIXGeneral-Regular-3a9" transform="translate(49.999985 0.40625)"/>
     </g>
    </g>
   </g>
   <g id="text_8">
    <g clip-path="url(#p344cb5113a)">
     <!-- C -->
     <g transform="translate(239.9028 52.809219)scale(0.125 -0.125)">
      <defs>
       <path id="DejaVuSans-43" d="M 4122 4306 
L 4122 3641 
Q 3803 3938 3442 4084 
Q 3081 4231 2675 4231 
Q 1875 4231 1450 3742 
Q 1025 3253 1025 2328 
Q 1025 1406 1450 917 
Q 1875 428 2675 428 
Q 3081 428 3442 575 
Q 3803 722 4122 1019 
L 4122 359 
Q 3791 134 3420 21 
Q 3050 -91 2638 -91 
Q 1578 -91 968 557 
Q 359 1206 359 2328 
Q 359 3453 968 4101 
Q 1578 4750 2638 4750 
Q 3056 4750 3426 4639 
Q 3797 4528 4122 4306 
z
" transform="scale(0.015625)"/>
      </defs>
      <use xlink:href="#DejaVuSans-43"/>
     </g>
    </g>
   </g>
   <g id="text_9">
    <g clip-path="url(#p344cb5113a)">
     <!-- $R_4$ -->
     <g transform="translate(216.5678 99.360586)scale(0.125 -0.125)">
      <use xlink:href="#STIXGeneral-Italic-52" transform="translate(0 0.703125)"/>
      <use xlink:href="#STIXGeneral-Regular-34" transform="translate(61.099991 -12.525)scale(0.7)"/>
     </g>
    </g>
    <g clip-path="url(#p344cb5113a)">
     <!-- $2\Omega$ -->
     <g transform="translate(213.5678 113.357852)scale(0.125 -0.125)">
      <use xlink:href="#STIXGeneral-Regular-32" transform="translate(0 0.40625)"/>
      <use xlink:href="#STIXGeneral-Regular-3a9" transform="translate(49.999985 0.40625)"/>
     </g>
    </g>
   </g>
   <g id="text_10">
    <g clip-path="url(#p344cb5113a)">
     <!-- $6~A$ -->
     <g transform="translate(20.9428 121.659219)scale(0.125 -0.125)">
      <use xlink:href="#STIXGeneral-Regular-36" transform="translate(0 0.59375)"/>
      <use xlink:href="#STIXGeneral-Italic-41" transform="translate(74.066405 0.59375)"/>
     </g>
    </g>
   </g>
   <g id="text_11">
    <g clip-path="url(#p344cb5113a)">
     <!-- $I_S$ -->
     <g transform="translate(28.8178 91.059219)scale(0.125 -0.125)">
      <use xlink:href="#STIXGeneral-Italic-49" transform="translate(0 0.703125)"/>
      <use xlink:href="#STIXGeneral-Italic-53" transform="translate(33.299988 -12.525)scale(0.7)"/>
     </g>
    </g>
   </g>
   <g id="text_12">
    <g clip-path="url(#p344cb5113a)">
     <!-- A -->
     <g transform="translate(52.027409 51.350391)scale(0.125 -0.125)">
      <use xlink:href="#DejaVuSans-41"/>
     </g>
    </g>
   </g>
   <g id="text_13">
    <g clip-path="url(#p344cb5113a)">
     <!-- $R_1$ -->
     <g transform="translate(95.8903 29.703125)scale(0.125 -0.125)">
      <use xlink:href="#STIXGeneral-Italic-52" transform="translate(0 0.703125)"/>
      <use xlink:href="#STIXGeneral-Regular-31" transform="translate(61.099991 -12.525)scale(0.7)"/>
     </g>
    </g>
    <g clip-path="url(#p344cb5113a)">
     <!-- $2\Omega$ -->
     <g transform="translate(94.3903 43.700391)scale(0.125 -0.125)">
      <use xlink:href="#STIXGeneral-Regular-32" transform="translate(0 0.40625)"/>
      <use xlink:href="#STIXGeneral-Regular-3a9" transform="translate(49.999985 0.40625)"/>
     </g>
    </g>
   </g>
   <g id="text_14">
    <g clip-path="url(#p344cb5113a)">
     <!-- B -->
     <g transform="translate(148.1028 52.809219)scale(0.125 -0.125)">
      <use xlink:href="#DejaVuSans-42"/>
     </g>
    </g>
   </g>
   <g id="text_15">
    <g clip-path="url(#p344cb5113a)">
     <!-- $R_2$ -->
     <g transform="translate(124.7678 99.360586)scale(0.125 -0.125)">
      <use xlink:href="#STIXGeneral-Italic-52" transform="translate(0 0.703125)"/>
      <use xlink:href="#STIXGeneral-Regular-32" transform="translate(61.099991 -12.525)scale(0.7)"/>
     </g>
    </g>
    <g clip-path="url(#p344cb5113a)">
     <!-- $4\Omega$ -->
     <g transform="translate(121.7678 113.357852)scale(0.125 -0.125)">
      <use xlink:href="#STIXGeneral-Regular-34" transform="translate(0 0.40625)"/>
      <use xlink:href="#STIXGeneral-Regular-3a9" transform="translate(49.999985 0.40625)"/>
     </g>
    </g>
   </g>
   <g id="text_16">
    <g clip-path="url(#p344cb5113a)">
     <!-- $R_3$ -->
     <g transform="translate(187.6903 29.703125)scale(0.125 -0.125)">
      <use xlink:href="#STIXGeneral-Italic-52" transform="translate(0 0.703125)"/>
      <use xlink:href="#STIXGeneral-Regular-33" transform="translate(61.099991 -12.525)scale(0.7)"/>
     </g>
    </g>
    <g clip-path="url(#p344cb5113a)">
     <!-- $4\Omega$ -->
     <g transform="translate(186.1903 43.700391)scale(0.125 -0.125)">
      <use xlink:href="#STIXGeneral-Regular-34" transform="translate(0 0.40625)"/>
      <use xlink:href="#STIXGeneral-Regular-3a9" transform="translate(49.999985 0.40625)"/>
     </g>
    </g>
   </g>
   <g id="text_17">
    <g clip-path="url(#p344cb5113a)">
     <!-- C -->
     <g transform="translate(239.9028 52.809219)scale(0.125 -0.125)">
      <use xlink:href="#DejaVuSans-43"/>
     </g>
    </g>
   </g>
   <g id="text_18">
    <g clip-path="url(#p344cb5113a)">
     <!-- $R_4$ -->
     <g transform="translate(216.5678 99.360586)scale(0.125 -0.125)">
      <use xlink:href="#STIXGeneral-Italic-52" transform="translate(0 0.703125)"/>
      <use xlink:href="#STIXGeneral-Regular-34" transform="translate(61.099991 -12.525)scale(0.7)"/>
     </g>
    </g>
    <g clip-path="url(#p344cb5113a)">
     <!-- $2\Omega$ -->
     <g transform="translate(213.5678 113.357852)scale(0.125 -0.125)">
      <use xlink:href="#STIXGeneral-Regular-32" transform="translate(0 0.40625)"/>
      <use xlink:href="#STIXGeneral-Regular-3a9" transform="translate(49.999985 0.40625)"/>
     </g>
    </g>
   </g>
   <g id="patch_14">
    <path d="M 56.3028 59.305 
C 56.911441 59.305 57.495236 59.063184 57.92561 58.63281 
C 58.355984 58.202436 58.5978 57.618641 58.5978 57.01 
C 58.5978 56.401359 58.355984 55.817564 57.92561 55.38719 
C 57.495236 54.956816 56.911441 54.715 56.3028 54.715 
C 55.694159 54.715 55.110364 54.956816 54.67999 55.38719 
C 54.249616 55.817564 54.0078 56.401359 54.0078 57.01 
C 54.0078 57.618641 54.249616 58.202436 54.67999 58.63281 
C 55.110364 59.063184 55.694159 59.305 56.3028 59.305 
z
" clip-path="url(#p344cb5113a)" style="fill: #ff0000; stroke: #ff0000; stroke-width: 2; stroke-linejoin: miter"/>
   </g>
   <g id="patch_15">
    <path d="M 148.1028 59.305 
C 148.711441 59.305 149.295236 59.063184 149.72561 58.63281 
C 150.155984 58.202436 150.3978 57.618641 150.3978 57.01 
C 150.3978 56.401359 150.155984 55.817564 149.72561 55.38719 
C 149.295236 54.956816 148.711441 54.715 148.1028 54.715 
C 147.494159 54.715 146.910364 54.956816 146.47999 55.38719 
C 146.049616 55.817564 145.8078 56.401359 145.8078 57.01 
C 145.8078 57.618641 146.049616 58.202436 146.47999 58.63281 
C 146.910364 59.063184 147.494159 59.305 148.1028 59.305 
z
" clip-path="url(#p344cb5113a)" style="fill: #ff0000; stroke: #ff0000; stroke-width: 2; stroke-linejoin: miter"/>
   </g>
   <g id="line2d_25">
    <path d="M 148.1028 130.45 
L 148.1028 130.45 
" clip-path="url(#p344cb5113a)" style="fill: none; stroke: #000000; stroke-width: 2; stroke-linecap: round"/>
   </g>
   <g id="patch_16">
    <path d="M 152.6928 130.45 
L 148.1028 139.63 
L 143.5128 130.45 
z
" clip-path="url(#p344cb5113a)"/>
   </g>
   <g id="text_19">
    <g clip-path="url(#p344cb5113a)">
     <!-- $I_O$ -->
     <g transform="translate(127.7978 138.489219)scale(0.125 -0.125)">
      <defs>
       <path id="STIXGeneral-Italic-4f" d="M 4474 2675 
Q 4474 1990 4106 1363 
Q 3738 736 3149 339 
Q 2477 -115 1779 -115 
Q 1146 -115 765 281 
Q 384 678 384 1382 
Q 384 1965 697 2582 
Q 1011 3200 1517 3642 
Q 2234 4262 3034 4262 
Q 3718 4269 4096 3840 
Q 4474 3411 4474 2675 
z
M 3802 3078 
Q 3802 3533 3581 3792 
Q 3360 4051 2976 4051 
Q 2342 4051 1786 3302 
Q 1446 2842 1251 2259 
Q 1056 1677 1056 1178 
Q 1056 653 1270 374 
Q 1485 96 1888 96 
Q 2477 96 2976 704 
Q 3354 1178 3578 1862 
Q 3802 2547 3802 3078 
z
" transform="scale(0.015625)"/>
      </defs>
      <use xlink:href="#STIXGeneral-Italic-49" transform="translate(0 0.703125)"/>
      <use xlink:href="#STIXGeneral-Italic-4f" transform="translate(33.299988 -12.525)scale(0.7)"/>
     </g>
    </g>
   </g>
   <g id="patch_17">
    <path d="M 239.9028 59.305 
C 240.511441 59.305 241.095236 59.063184 241.52561 58.63281 
C 241.955984 58.202436 242.1978 57.618641 242.1978 57.01 
C 242.1978 56.401359 241.955984 55.817564 241.52561 55.38719 
C 241.095236 54.956816 240.511441 54.715 239.9028 54.715 
C 239.294159 54.715 238.710364 54.956816 238.27999 55.38719 
C 237.849616 55.817564 237.6078 56.401359 237.6078 57.01 
C 237.6078 57.618641 237.849616 58.202436 238.27999 58.63281 
C 238.710364 59.063184 239.294159 59.305 239.9028 59.305 
z
" clip-path="url(#p344cb5113a)" style="fill: #ff0000; stroke: #ff0000; stroke-width: 2; stroke-linejoin: miter"/>
   </g>
   <g id="patch_18">
    <path d="M 56.3028 59.305 
C 56.911441 59.305 57.495236 59.063184 57.92561 58.63281 
C 58.355984 58.202436 58.5978 57.618641 58.5978 57.01 
C 58.5978 56.401359 58.355984 55.817564 57.92561 55.38719 
C 57.495236 54.956816 56.911441 54.715 56.3028 54.715 
C 55.694159 54.715 55.110364 54.956816 54.67999 55.38719 
C 54.249616 55.817564 54.0078 56.401359 54.0078 57.01 
C 54.0078 57.618641 54.249616 58.202436 54.67999 58.63281 
C 55.110364 59.063184 55.694159 59.305 56.3028 59.305 
z
" clip-path="url(#p344cb5113a)" style="fill: #ff0000; stroke: #ff0000; stroke-width: 2; stroke-linejoin: miter"/>
   </g>
   <g id="patch_19">
    <path d="M 148.1028 59.305 
C 148.711441 59.305 149.295236 59.063184 149.72561 58.63281 
C 150.155984 58.202436 150.3978 57.618641 150.3978 57.01 
C 150.3978 56.401359 150.155984 55.817564 149.72561 55.38719 
C 149.295236 54.956816 148.711441 54.715 148.1028 54.715 
C 147.494159 54.715 146.910364 54.956816 146.47999 55.38719 
C 146.049616 55.817564 145.8078 56.401359 145.8078 57.01 
C 145.8078 57.618641 146.049616 58.202436 146.47999 58.63281 
C 146.910364 59.063184 147.494159 59.305 148.1028 59.305 
z
" clip-path="url(#p344cb5113a)" style="fill: #ff0000; stroke: #ff0000; stroke-width: 2; stroke-linejoin: miter"/>
   </g>
   <g id="line2d_26">
    <path d="M 148.1028 130.45 
L 148.1028 130.45 
" clip-path="url(#p344cb5113a)" style="fill: none; stroke: #000000; stroke-width: 2; stroke-linecap: round"/>
   </g>
   <g id="patch_20">
    <path d="M 152.6928 130.45 
L 148.1028 139.63 
L 143.5128 130.45 
z
" clip-path="url(#p344cb5113a)"/>
   </g>
   <g id="text_20">
    <g clip-path="url(#p344cb5113a)">
     <!-- $I_O$ -->
     <g transform="translate(127.7978 138.489219)scale(0.125 -0.125)">
      <use xlink:href="#STIXGeneral-Italic-49" transform="translate(0 0.703125)"/>
      <use xlink:href="#STIXGeneral-Italic-4f" transform="translate(33.299988 -12.525)scale(0.7)"/>
     </g>
    </g>
   </g>
   <g id="patch_21">
    <path d="M 239.9028 59.305 
C 240.511441 59.305 241.095236 59.063184 241.52561 58.63281 
C 241.955984 58.202436 242.1978 57.618641 242.1978 57.01 
C 242.1978 56.401359 241.955984 55.817564 241.52561 55.38719 
C 241.095236 54.956816 240.511441 54.715 239.9028 54.715 
C 239.294159 54.715 238.710364 54.956816 238.27999 55.38719 
C 237.849616 55.817564 237.6078 56.401359 237.6078 57.01 
C 237.6078 57.618641 237.849616 58.202436 238.27999 58.63281 
C 238.710364 59.063184 239.294159 59.305 239.9028 59.305 
z
" clip-path="url(#p344cb5113a)" style="fill: #ff0000; stroke: #ff0000; stroke-width: 2; stroke-linejoin: miter"/>
   </g>
  </g>
 </g>
 <defs>
  <clipPath id="p344cb5113a">
   <rect x="7.2" y="7.2" width="255.9996" height="164.56"/>
  </clipPath>
 </defs>
</svg>
