<?xml version="1.0" encoding="utf-8" standalone="no"?>
<!DOCTYPE svg PUBLIC "-//W3C//DTD SVG 1.1//EN"
  "http://www.w3.org/Graphics/SVG/1.1/DTD/svg11.dtd">
<svg xmlns:xlink="http://www.w3.org/1999/xlink" width="211.77pt" height="247.504pt" viewBox="0 0 211.77 247.504" xmlns="http://www.w3.org/2000/svg" version="1.1">
 <metadata>
  <rdf:RDF xmlns:dc="http://purl.org/dc/elements/1.1/" xmlns:cc="http://creativecommons.org/ns#" xmlns:rdf="http://www.w3.org/1999/02/22-rdf-syntax-ns#">
   <cc:Work>
    <dc:type rdf:resource="http://purl.org/dc/dcmitype/StillImage"/>
    <dc:date>2023-05-23T15:10:26.221903</dc:date>
    <dc:format>image/svg+xml</dc:format>
    <dc:creator>
     <cc:Agent>
      <dc:title>Matplotlib v3.5.2, https://matplotlib.org/</dc:title>
     </cc:Agent>
    </dc:creator>
   </cc:Work>
  </rdf:RDF>
 </metadata>
 <defs>
  <style type="text/css">*{stroke-linejoin: round; stroke-linecap: butt}</style>
 </defs>
 <g id="figure_1">
  <g id="patch_1">
   <path d="M 0 247.504 
L 211.77 247.504 
L 211.77 0 
L 0 0 
L 0 247.504 
z
" style="fill: none"/>
  </g>
  <g id="axes_1">
   <g id="patch_2">
    <path d="M 102.06 79.96 
C 106.117607 79.96 110.009572 78.347895 112.878734 75.478734 
C 115.747895 72.609572 117.36 68.717607 117.36 64.66 
C 117.36 60.602393 115.747895 56.710428 112.878734 53.841266 
C 110.009572 50.972105 106.117607 49.36 102.06 49.36 
C 98.002393 49.36 94.110428 50.972105 91.241266 53.841266 
C 88.372105 56.710428 86.76 60.602393 86.76 64.66 
C 86.76 68.717607 88.372105 72.609572 91.241266 75.478734 
C 94.110428 78.347895 98.002393 79.96 102.06 79.96 
L 102.06 79.96 
z
" clip-path="url(#p6b260b47a1)" style="fill: none; stroke: #000000; stroke-width: 2; stroke-linejoin: miter"/>
   </g>
   <g id="patch_3">
    <path d="M 155.61 217.66 
C 155.61 218.674064 156.013265 219.647632 156.730317 220.364683 
C 157.447368 221.081735 158.420936 221.485 159.435 221.485 
C 160.449064 221.485 161.422632 221.081735 162.139683 220.364683 
C 162.856735 219.647632 163.26 218.674064 163.26 217.66 
" clip-path="url(#p6b260b47a1)" style="fill: none; stroke: #000000; stroke-width: 2; stroke-linejoin: miter"/>
   </g>
   <g id="patch_4">
    <path d="M 147.96 217.66 
C 147.96 218.674064 148.363265 219.647632 149.080317 220.364683 
C 149.797368 221.081735 150.770936 221.485 151.785 221.485 
C 152.799064 221.485 153.772632 221.081735 154.489683 220.364683 
C 155.206735 219.647632 155.61 218.674064 155.61 217.66 
" clip-path="url(#p6b260b47a1)" style="fill: none; stroke: #000000; stroke-width: 2; stroke-linejoin: miter"/>
   </g>
   <g id="patch_5">
    <path d="M 140.31 217.66 
C 140.31 218.674064 140.713265 219.647632 141.430317 220.364683 
C 142.147368 221.081735 143.120936 221.485 144.135 221.485 
C 145.149064 221.485 146.122632 221.081735 146.839683 220.364683 
C 147.556735 219.647632 147.96 218.674064 147.96 217.66 
" clip-path="url(#p6b260b47a1)" style="fill: none; stroke: #000000; stroke-width: 2; stroke-linejoin: miter"/>
   </g>
   <g id="patch_6">
    <path d="M 132.66 217.66 
C 132.66 218.674064 133.063265 219.647632 133.780317 220.364683 
C 134.497368 221.081735 135.470936 221.485 136.485 221.485 
C 137.499064 221.485 138.472632 221.081735 139.189683 220.364683 
C 139.906735 219.647632 140.31 218.674064 140.31 217.66 
" clip-path="url(#p6b260b47a1)" style="fill: none; stroke: #000000; stroke-width: 2; stroke-linejoin: miter"/>
   </g>
   <g id="patch_7">
    <path d="M 102.06 79.96 
C 106.117607 79.96 110.009572 78.347895 112.878734 75.478734 
C 115.747895 72.609572 117.36 68.717607 117.36 64.66 
C 117.36 60.602393 115.747895 56.710428 112.878734 53.841266 
C 110.009572 50.972105 106.117607 49.36 102.06 49.36 
C 98.002393 49.36 94.110428 50.972105 91.241266 53.841266 
C 88.372105 56.710428 86.76 60.602393 86.76 64.66 
C 86.76 68.717607 88.372105 72.609572 91.241266 75.478734 
C 94.110428 78.347895 98.002393 79.96 102.06 79.96 
L 102.06 79.96 
z
" clip-path="url(#p6b260b47a1)" style="fill: none; stroke: #000000; stroke-width: 2; stroke-linejoin: miter"/>
   </g>
   <g id="patch_8">
    <path d="M 155.61 217.66 
C 155.61 218.674064 156.013265 219.647632 156.730317 220.364683 
C 157.447368 221.081735 158.420936 221.485 159.435 221.485 
C 160.449064 221.485 161.422632 221.081735 162.139683 220.364683 
C 162.856735 219.647632 163.26 218.674064 163.26 217.66 
" clip-path="url(#p6b260b47a1)" style="fill: none; stroke: #000000; stroke-width: 2; stroke-linejoin: miter"/>
   </g>
   <g id="patch_9">
    <path d="M 147.96 217.66 
C 147.96 218.674064 148.363265 219.647632 149.080317 220.364683 
C 149.797368 221.081735 150.770936 221.485 151.785 221.485 
C 152.799064 221.485 153.772632 221.081735 154.489683 220.364683 
C 155.206735 219.647632 155.61 218.674064 155.61 217.66 
" clip-path="url(#p6b260b47a1)" style="fill: none; stroke: #000000; stroke-width: 2; stroke-linejoin: miter"/>
   </g>
   <g id="patch_10">
    <path d="M 140.31 217.66 
C 140.31 218.674064 140.713265 219.647632 141.430317 220.364683 
C 142.147368 221.081735 143.120936 221.485 144.135 221.485 
C 145.149064 221.485 146.122632 221.081735 146.839683 220.364683 
C 147.556735 219.647632 147.96 218.674064 147.96 217.66 
" clip-path="url(#p6b260b47a1)" style="fill: none; stroke: #000000; stroke-width: 2; stroke-linejoin: miter"/>
   </g>
   <g id="patch_11">
    <path d="M 132.66 217.66 
C 132.66 218.674064 133.063265 219.647632 133.780317 220.364683 
C 134.497368 221.081735 135.470936 221.485 136.485 221.485 
C 137.499064 221.485 138.472632 221.081735 139.189683 220.364683 
C 139.906735 219.647632 140.31 218.674064 140.31 217.66 
" clip-path="url(#p6b260b47a1)" style="fill: none; stroke: #000000; stroke-width: 2; stroke-linejoin: miter"/>
   </g>
   <g id="line2d_1">
    <path d="M 10.26 217.66 
L 10.26 171.76 
L 10.26 125.86 
" clip-path="url(#p6b260b47a1)" style="fill: none; stroke: #000000; stroke-width: 2; stroke-linecap: round"/>
   </g>
   <g id="line2d_2">
    <path d="M 10.26 125.86 
L 10.26 95.26 
L 10.26 64.66 
" clip-path="url(#p6b260b47a1)" style="fill: none; stroke: #000000; stroke-width: 2; stroke-linecap: round"/>
   </g>
   <g id="line2d_3">
    <path d="M 10.26 64.66 
L 86.76 64.66 
L 86.76 64.66 
M 117.36 64.66 
L 117.36 64.66 
L 193.86 64.66 
" clip-path="url(#p6b260b47a1)" style="fill: none; stroke: #000000; stroke-width: 2; stroke-linecap: round"/>
   </g>
   <g id="line2d_4">
    <path d="M 94.41 67.72 
L 94.41 61.6 
" clip-path="url(#p6b260b47a1)" style="fill: none; stroke: #000000; stroke-width: 2; stroke-linecap: round"/>
   </g>
   <g id="line2d_5">
    <path d="M 106.65 64.66 
L 112.77 64.66 
" clip-path="url(#p6b260b47a1)" style="fill: none; stroke: #000000; stroke-width: 2; stroke-linecap: round"/>
   </g>
   <g id="line2d_6">
    <path d="M 109.71 67.72 
L 109.71 61.6 
" clip-path="url(#p6b260b47a1)" style="fill: none; stroke: #000000; stroke-width: 2; stroke-linecap: round"/>
   </g>
   <g id="line2d_7">
    <path d="M 193.86 64.66 
L 193.86 95.26 
L 193.86 125.86 
" clip-path="url(#p6b260b47a1)" style="fill: none; stroke: #000000; stroke-width: 2; stroke-linecap: round"/>
   </g>
   <g id="line2d_8">
    <path d="M 193.86 125.86 
L 193.86 156.46 
L 201.51 159.01 
L 186.21 164.11 
L 201.51 169.21 
L 186.21 174.31 
L 201.51 179.41 
L 186.21 184.51 
L 193.86 187.06 
L 193.86 217.66 
" clip-path="url(#p6b260b47a1)" style="fill: none; stroke: #000000; stroke-width: 2; stroke-linecap: round"/>
   </g>
   <g id="line2d_9">
    <path d="M 193.86 217.66 
L 163.26 217.66 
M 132.66 217.66 
L 102.06 217.66 
" clip-path="url(#p6b260b47a1)" style="fill: none; stroke: #000000; stroke-width: 2; stroke-linecap: round"/>
   </g>
   <g id="line2d_10">
    <path d="M 102.06 217.66 
L 102.06 229.9 
L 94.41 229.9 
L 109.71 229.9 
M 96.705 233.572 
L 107.415 233.572 
M 100.53 237.244 
L 103.59 237.244 
" clip-path="url(#p6b260b47a1)" style="fill: none; stroke: #000000; stroke-width: 2; stroke-linecap: round"/>
   </g>
   <g id="line2d_11">
    <path d="M 102.06 217.66 
L 102.06 187.06 
L 94.41 184.51 
L 109.71 179.41 
L 94.41 174.31 
L 109.71 169.21 
L 94.41 164.11 
L 109.71 159.01 
L 102.06 156.46 
L 102.06 125.86 
" clip-path="url(#p6b260b47a1)" style="fill: none; stroke: #000000; stroke-width: 2; stroke-linecap: round"/>
   </g>
   <g id="line2d_12">
    <path d="M 102.06 217.66 
L 56.16 217.66 
L 10.26 217.66 
" clip-path="url(#p6b260b47a1)" style="fill: none; stroke: #000000; stroke-width: 2; stroke-linecap: round"/>
   </g>
   <g id="line2d_13">
    <path d="M 193.86 125.86 
L 150.714 125.86 
M 150.714 133.51 
L 150.714 118.21 
M 145.206 133.51 
L 145.206 118.21 
M 145.206 125.86 
L 102.06 125.86 
" clip-path="url(#p6b260b47a1)" style="fill: none; stroke: #000000; stroke-width: 2; stroke-linecap: round"/>
   </g>
   <g id="line2d_14">
    <path d="M 102.06 125.86 
L 71.46 125.86 
L 68.91 133.51 
L 63.81 118.21 
L 58.71 133.51 
L 53.61 118.21 
L 48.51 133.51 
L 43.41 118.21 
L 40.86 125.86 
L 10.26 125.86 
" clip-path="url(#p6b260b47a1)" style="fill: none; stroke: #000000; stroke-width: 2; stroke-linecap: round"/>
   </g>
   <g id="line2d_15">
    <path d="M 10.26 217.66 
L 10.26 171.76 
L 10.26 125.86 
" clip-path="url(#p6b260b47a1)" style="fill: none; stroke: #000000; stroke-width: 2; stroke-linecap: round"/>
   </g>
   <g id="line2d_16">
    <path d="M 10.26 125.86 
L 10.26 95.26 
L 10.26 64.66 
" clip-path="url(#p6b260b47a1)" style="fill: none; stroke: #000000; stroke-width: 2; stroke-linecap: round"/>
   </g>
   <g id="line2d_17">
    <path d="M 10.26 64.66 
L 86.76 64.66 
L 86.76 64.66 
M 117.36 64.66 
L 117.36 64.66 
L 193.86 64.66 
" clip-path="url(#p6b260b47a1)" style="fill: none; stroke: #000000; stroke-width: 2; stroke-linecap: round"/>
   </g>
   <g id="line2d_18">
    <path d="M 94.41 67.72 
L 94.41 61.6 
" clip-path="url(#p6b260b47a1)" style="fill: none; stroke: #000000; stroke-width: 2; stroke-linecap: round"/>
   </g>
   <g id="line2d_19">
    <path d="M 106.65 64.66 
L 112.77 64.66 
" clip-path="url(#p6b260b47a1)" style="fill: none; stroke: #000000; stroke-width: 2; stroke-linecap: round"/>
   </g>
   <g id="line2d_20">
    <path d="M 109.71 67.72 
L 109.71 61.6 
" clip-path="url(#p6b260b47a1)" style="fill: none; stroke: #000000; stroke-width: 2; stroke-linecap: round"/>
   </g>
   <g id="line2d_21">
    <path d="M 193.86 64.66 
L 193.86 95.26 
L 193.86 125.86 
" clip-path="url(#p6b260b47a1)" style="fill: none; stroke: #000000; stroke-width: 2; stroke-linecap: round"/>
   </g>
   <g id="line2d_22">
    <path d="M 193.86 125.86 
L 193.86 156.46 
L 201.51 159.01 
L 186.21 164.11 
L 201.51 169.21 
L 186.21 174.31 
L 201.51 179.41 
L 186.21 184.51 
L 193.86 187.06 
L 193.86 217.66 
" clip-path="url(#p6b260b47a1)" style="fill: none; stroke: #000000; stroke-width: 2; stroke-linecap: round"/>
   </g>
   <g id="line2d_23">
    <path d="M 193.86 217.66 
L 163.26 217.66 
M 132.66 217.66 
L 102.06 217.66 
" clip-path="url(#p6b260b47a1)" style="fill: none; stroke: #000000; stroke-width: 2; stroke-linecap: round"/>
   </g>
   <g id="line2d_24">
    <path d="M 102.06 217.66 
L 102.06 229.9 
L 94.41 229.9 
L 109.71 229.9 
M 96.705 233.572 
L 107.415 233.572 
M 100.53 237.244 
L 103.59 237.244 
" clip-path="url(#p6b260b47a1)" style="fill: none; stroke: #000000; stroke-width: 2; stroke-linecap: round"/>
   </g>
   <g id="line2d_25">
    <path d="M 102.06 217.66 
L 102.06 187.06 
L 94.41 184.51 
L 109.71 179.41 
L 94.41 174.31 
L 109.71 169.21 
L 94.41 164.11 
L 109.71 159.01 
L 102.06 156.46 
L 102.06 125.86 
" clip-path="url(#p6b260b47a1)" style="fill: none; stroke: #000000; stroke-width: 2; stroke-linecap: round"/>
   </g>
   <g id="line2d_26">
    <path d="M 102.06 217.66 
L 56.16 217.66 
L 10.26 217.66 
" clip-path="url(#p6b260b47a1)" style="fill: none; stroke: #000000; stroke-width: 2; stroke-linecap: round"/>
   </g>
   <g id="line2d_27">
    <path d="M 193.86 125.86 
L 150.714 125.86 
M 150.714 133.51 
L 150.714 118.21 
M 145.206 133.51 
L 145.206 118.21 
M 145.206 125.86 
L 102.06 125.86 
" clip-path="url(#p6b260b47a1)" style="fill: none; stroke: #000000; stroke-width: 2; stroke-linecap: round"/>
   </g>
   <g id="line2d_28">
    <path d="M 102.06 125.86 
L 71.46 125.86 
L 68.91 133.51 
L 63.81 118.21 
L 58.71 133.51 
L 53.61 118.21 
L 48.51 133.51 
L 43.41 118.21 
L 40.86 125.86 
L 10.26 125.86 
" clip-path="url(#p6b260b47a1)" style="fill: none; stroke: #000000; stroke-width: 2; stroke-linecap: round"/>
   </g>
   <g id="text_1">
    <g clip-path="url(#p6b260b47a1)">
     <!-- $v_S(t)$ -->
     <g transform="translate(90.8725 29.703125)scale(0.125 -0.125)">
      <defs>
       <path id="STIXGeneral-Italic-76" d="M 1325 448 
L 1523 653 
Q 1869 1005 2134 1456 
Q 2400 1907 2400 2131 
Q 2400 2208 2285 2317 
Q 2125 2458 2125 2605 
Q 2125 2701 2195 2761 
Q 2266 2822 2368 2822 
Q 2522 2822 2624 2704 
Q 2726 2586 2726 2445 
Q 2726 2074 2323 1453 
Q 1971 909 1562 474 
Q 1504 416 1421 326 
Q 1338 237 1299 192 
Q 1261 147 1200 86 
Q 1139 26 1110 -3 
Q 1082 -32 1043 -64 
Q 1005 -96 979 -105 
Q 954 -115 928 -115 
Q 870 -115 870 58 
L 870 211 
Q 870 1094 717 1990 
Q 653 2355 579 2470 
Q 506 2586 326 2586 
Q 198 2586 128 2579 
L 128 2662 
Q 480 2720 845 2797 
Q 915 2822 973 2822 
Q 1011 2822 1033 2739 
Q 1056 2656 1165 2093 
Q 1280 1510 1325 448 
z
" transform="scale(0.015625)"/>
       <path id="STIXGeneral-Italic-53" d="M 3251 4269 
L 2995 2989 
L 2880 3008 
Q 2880 3539 2720 3795 
Q 2560 4051 2118 4051 
Q 1786 4051 1594 3881 
Q 1402 3712 1402 3411 
Q 1402 3168 1504 3005 
Q 1606 2842 2035 2413 
Q 2464 1978 2611 1715 
Q 2758 1453 2758 1133 
Q 2758 589 2390 237 
Q 2022 -115 1466 -115 
Q 1222 -115 800 32 
Q 595 109 499 109 
Q 288 109 224 -96 
L 109 -96 
L 326 1338 
L 454 1325 
Q 442 1267 442 1178 
Q 442 710 701 409 
Q 960 109 1363 109 
Q 1734 109 1968 336 
Q 2202 563 2202 928 
Q 2202 1139 2118 1308 
Q 2035 1478 1818 1715 
L 1568 1984 
Q 1549 2003 1459 2102 
Q 1370 2202 1318 2253 
Q 1030 2560 934 2755 
Q 838 2950 838 3213 
Q 838 3699 1168 3980 
Q 1498 4262 1978 4262 
Q 2310 4262 2522 4173 
Q 2707 4102 2816 4102 
Q 2925 4102 2982 4134 
Q 3040 4166 3104 4269 
L 3251 4269 
z
" transform="scale(0.015625)"/>
       <path id="STIXGeneral-Regular-28" d="M 1946 -1030 
L 1869 -1133 
Q 1126 -710 716 32 
Q 307 774 307 1613 
Q 307 3386 1888 4326 
L 1946 4224 
Q 1293 3667 1075 3126 
Q 858 2586 858 1632 
Q 858 685 1082 96 
Q 1306 -493 1946 -1030 
z
" transform="scale(0.015625)"/>
       <path id="STIXGeneral-Italic-74" d="M 1894 2739 
L 1862 2534 
L 1325 2534 
L 768 435 
Q 755 384 755 346 
Q 755 243 851 243 
Q 928 243 1030 342 
Q 1133 442 1370 749 
L 1453 704 
Q 1158 256 969 93 
Q 781 -70 538 -70 
Q 243 -70 243 166 
Q 243 230 346 640 
L 845 2534 
L 365 2534 
L 358 2573 
Q 358 2688 570 2733 
Q 730 2771 992 2979 
Q 1254 3187 1421 3437 
Q 1459 3494 1510 3494 
Q 1568 3494 1568 3443 
Q 1568 3411 1562 3398 
L 1382 2739 
L 1894 2739 
z
" transform="scale(0.015625)"/>
       <path id="STIXGeneral-Regular-29" d="M 186 4224 
L 262 4326 
Q 992 3891 1408 3148 
Q 1824 2406 1824 1581 
Q 1824 -166 243 -1133 
L 186 -1030 
Q 845 -486 1059 54 
Q 1274 595 1274 1562 
Q 1274 2534 1059 3120 
Q 845 3706 186 4224 
z
" transform="scale(0.015625)"/>
      </defs>
      <use xlink:href="#STIXGeneral-Italic-76" transform="translate(0 0.40625)"/>
      <use xlink:href="#STIXGeneral-Italic-53" transform="translate(44.399994 -12.821875)scale(0.7)"/>
      <use xlink:href="#STIXGeneral-Regular-28" transform="translate(83.809358 0.40625)"/>
      <use xlink:href="#STIXGeneral-Italic-74" transform="translate(117.109346 0.40625)"/>
      <use xlink:href="#STIXGeneral-Regular-29" transform="translate(144.909334 0.40625)"/>
     </g>
    </g>
    <g clip-path="url(#p6b260b47a1)">
     <!-- $12 \angle 0^\circ$ -->
     <g transform="translate(85.185 43.700391)scale(0.125 -0.125)">
      <defs>
       <path id="STIXGeneral-Regular-31" d="M 2522 0 
L 755 0 
L 755 96 
Q 1107 115 1235 227 
Q 1363 339 1363 608 
L 1363 3482 
Q 1363 3795 1171 3795 
Q 1082 3795 883 3718 
L 710 3654 
L 710 3744 
L 1856 4326 
L 1914 4307 
L 1914 486 
Q 1914 275 2042 185 
Q 2170 96 2522 96 
L 2522 0 
z
" transform="scale(0.015625)"/>
       <path id="STIXGeneral-Regular-32" d="M 3034 877 
L 2688 0 
L 186 0 
L 186 77 
L 1325 1286 
Q 1773 1754 1965 2144 
Q 2157 2534 2157 2950 
Q 2157 3379 1920 3616 
Q 1683 3853 1267 3853 
Q 922 3853 720 3673 
Q 518 3494 326 3021 
L 192 3053 
Q 301 3648 630 3987 
Q 960 4326 1523 4326 
Q 2054 4326 2380 4006 
Q 2707 3686 2707 3200 
Q 2707 2477 1888 1613 
L 832 486 
L 2330 486 
Q 2541 486 2665 569 
Q 2790 653 2944 915 
L 3034 877 
z
" transform="scale(0.015625)"/>
       <path id="STIXGeneral-Regular-2220" d="M 4115 0 
L 147 0 
L 3642 3501 
L 3962 3232 
L 1165 422 
L 4115 422 
L 4115 0 
z
" transform="scale(0.015625)"/>
       <path id="STIXGeneral-Regular-30" d="M 3046 2112 
Q 3046 1683 2963 1302 
Q 2880 922 2717 602 
Q 2554 282 2266 96 
Q 1978 -90 1600 -90 
Q 1210 -90 915 108 
Q 621 307 461 640 
Q 301 973 227 1350 
Q 154 1728 154 2150 
Q 154 2746 301 3222 
Q 448 3699 790 4012 
Q 1133 4326 1626 4326 
Q 2253 4326 2649 3712 
Q 3046 3098 3046 2112 
z
M 2432 2080 
Q 2432 3091 2217 3625 
Q 2003 4160 1587 4160 
Q 1190 4160 979 3622 
Q 768 3085 768 2106 
Q 768 1120 979 598 
Q 1190 77 1600 77 
Q 2003 77 2217 598 
Q 2432 1120 2432 2080 
z
" transform="scale(0.015625)"/>
       <path id="STIXGeneral-Regular-2218" d="M 1734 2224 
Q 1984 1971 1984 1612 
Q 1984 1254 1731 1001 
Q 1478 749 1120 749 
Q 755 749 505 1001 
Q 256 1254 256 1626 
Q 256 1984 509 2230 
Q 762 2477 1133 2477 
Q 1485 2477 1734 2224 
z
M 1434 1299 
Q 1562 1427 1562 1612 
Q 1562 1798 1434 1926 
Q 1306 2054 1133 2054 
Q 934 2054 806 1929 
Q 678 1805 678 1626 
Q 678 1427 803 1299 
Q 928 1171 1120 1171 
Q 1306 1171 1434 1299 
z
" transform="scale(0.015625)"/>
      </defs>
      <use xlink:href="#STIXGeneral-Regular-31" transform="translate(0 0.40625)"/>
      <use xlink:href="#STIXGeneral-Regular-32" transform="translate(49.999985 0.40625)"/>
      <use xlink:href="#STIXGeneral-Regular-2220" transform="translate(99.999969 0.40625)"/>
      <use xlink:href="#STIXGeneral-Regular-30" transform="translate(168.499954 0.40625)"/>
      <use xlink:href="#STIXGeneral-Regular-2218" transform="translate(230.151218 35.68125)scale(0.7)"/>
     </g>
    </g>
   </g>
   <g id="text_2">
    <g clip-path="url(#p6b260b47a1)">
     <!-- $R_3$ -->
     <g transform="translate(170.525 175.209219)scale(0.125 -0.125)">
      <defs>
       <path id="STIXGeneral-Italic-52" d="M 845 4179 
L 2458 4179 
Q 3078 4179 3420 3936 
Q 3763 3693 3763 3277 
Q 3763 2778 3341 2458 
Q 3091 2266 2502 2131 
L 3072 627 
Q 3181 333 3299 217 
Q 3418 102 3629 102 
L 3629 0 
L 2688 0 
L 1901 2074 
L 1478 2106 
L 1126 806 
Q 1043 512 1043 403 
Q 1043 256 1126 192 
Q 1210 128 1472 102 
L 1472 0 
L -83 0 
L -83 102 
Q 173 134 278 243 
Q 384 352 461 646 
L 1222 3405 
Q 1299 3699 1299 3808 
Q 1299 3923 1210 3987 
Q 1133 4038 845 4077 
L 845 4179 
z
M 1958 3795 
L 1555 2342 
Q 1754 2310 1882 2310 
Q 2451 2310 2771 2566 
Q 3091 2822 3091 3270 
Q 3091 3603 2892 3795 
Q 2694 3987 2323 3987 
Q 2010 3987 1958 3795 
z
" transform="scale(0.015625)"/>
       <path id="STIXGeneral-Regular-33" d="M 390 3264 
L 288 3290 
Q 435 3770 748 4048 
Q 1062 4326 1542 4326 
Q 1990 4326 2265 4083 
Q 2541 3840 2541 3450 
Q 2541 2925 1946 2566 
Q 2298 2413 2477 2227 
Q 2758 1914 2758 1402 
Q 2758 890 2464 506 
Q 2246 211 1840 60 
Q 1434 -90 979 -90 
Q 262 -90 262 275 
Q 262 378 339 442 
Q 416 506 525 506 
Q 685 506 915 339 
Q 1197 141 1466 141 
Q 1818 141 2058 425 
Q 2298 710 2298 1120 
Q 2298 1856 1632 2048 
Q 1434 2112 979 2112 
L 979 2202 
Q 1338 2323 1517 2432 
Q 2035 2726 2035 3290 
Q 2035 3610 1852 3776 
Q 1670 3942 1344 3942 
Q 768 3942 390 3264 
z
" transform="scale(0.015625)"/>
      </defs>
      <use xlink:href="#STIXGeneral-Italic-52" transform="translate(0 0.703125)"/>
      <use xlink:href="#STIXGeneral-Regular-33" transform="translate(61.099991 -12.525)scale(0.7)"/>
     </g>
    </g>
   </g>
   <g id="text_3">
    <g clip-path="url(#p6b260b47a1)">
     <!-- $L$ -->
     <g transform="translate(144.46 212.000391)scale(0.125 -0.125)">
      <defs>
       <path id="STIXGeneral-Italic-4c" d="M 3578 1152 
L 3206 0 
L -51 0 
L -51 102 
Q 218 128 301 211 
Q 384 294 474 602 
L 1254 3405 
Q 1325 3642 1325 3802 
Q 1325 3942 1225 4000 
Q 1126 4058 832 4077 
L 832 4179 
L 2579 4179 
L 2579 4077 
Q 2285 4058 2147 3955 
Q 2010 3853 1933 3584 
L 1165 838 
Q 1101 595 1101 493 
Q 1101 346 1241 288 
Q 1382 230 1773 230 
Q 2266 230 2480 275 
Q 2694 320 2925 474 
Q 3187 646 3450 1190 
L 3578 1152 
z
" transform="scale(0.015625)"/>
      </defs>
      <use xlink:href="#STIXGeneral-Italic-4c" transform="translate(0 0.703125)"/>
     </g>
    </g>
   </g>
   <g id="text_4">
    <g clip-path="url(#p6b260b47a1)">
     <!-- $R_2$ -->
     <g transform="translate(78.725 175.209219)scale(0.125 -0.125)">
      <use xlink:href="#STIXGeneral-Italic-52" transform="translate(0 0.703125)"/>
      <use xlink:href="#STIXGeneral-Regular-32" transform="translate(61.099991 -12.525)scale(0.7)"/>
     </g>
    </g>
   </g>
   <g id="text_5">
    <g clip-path="url(#p6b260b47a1)">
     <!-- $C$ -->
     <g transform="translate(143.7725 146.068047)scale(0.125 -0.125)">
      <defs>
       <path id="STIXGeneral-Italic-43" d="M 4410 4250 
L 4173 2970 
L 4058 2989 
Q 3942 4032 3104 4032 
Q 2406 4032 1830 3411 
Q 1491 3053 1315 2541 
Q 1139 2029 1139 1485 
Q 1139 173 2259 173 
Q 2656 173 2985 339 
Q 3315 506 3725 934 
L 3840 838 
Q 3411 333 2998 109 
Q 2586 -115 2093 -115 
Q 1344 -115 883 329 
Q 422 774 422 1555 
Q 422 2214 748 2812 
Q 1075 3411 1619 3795 
Q 2272 4262 3021 4262 
Q 3462 4262 3770 4154 
Q 3898 4109 4032 4109 
Q 4205 4109 4275 4250 
L 4410 4250 
z
" transform="scale(0.015625)"/>
      </defs>
      <use xlink:href="#STIXGeneral-Italic-43" transform="translate(0 0.40625)"/>
     </g>
    </g>
   </g>
   <g id="text_6">
    <g clip-path="url(#p6b260b47a1)">
     <!-- $R_1$ -->
     <g transform="translate(49.8475 146.068047)scale(0.125 -0.125)">
      <use xlink:href="#STIXGeneral-Italic-52" transform="translate(0 0.703125)"/>
      <use xlink:href="#STIXGeneral-Regular-31" transform="translate(61.099991 -12.525)scale(0.7)"/>
     </g>
    </g>
   </g>
   <g id="text_7">
    <g clip-path="url(#p6b260b47a1)">
     <!-- $v_S(t)$ -->
     <g transform="translate(90.8725 29.703125)scale(0.125 -0.125)">
      <use xlink:href="#STIXGeneral-Italic-76" transform="translate(0 0.40625)"/>
      <use xlink:href="#STIXGeneral-Italic-53" transform="translate(44.399994 -12.821875)scale(0.7)"/>
      <use xlink:href="#STIXGeneral-Regular-28" transform="translate(83.809358 0.40625)"/>
      <use xlink:href="#STIXGeneral-Italic-74" transform="translate(117.109346 0.40625)"/>
      <use xlink:href="#STIXGeneral-Regular-29" transform="translate(144.909334 0.40625)"/>
     </g>
    </g>
    <g clip-path="url(#p6b260b47a1)">
     <!-- $12 \angle 0^\circ$ -->
     <g transform="translate(85.185 43.700391)scale(0.125 -0.125)">
      <use xlink:href="#STIXGeneral-Regular-31" transform="translate(0 0.40625)"/>
      <use xlink:href="#STIXGeneral-Regular-32" transform="translate(49.999985 0.40625)"/>
      <use xlink:href="#STIXGeneral-Regular-2220" transform="translate(99.999969 0.40625)"/>
      <use xlink:href="#STIXGeneral-Regular-30" transform="translate(168.499954 0.40625)"/>
      <use xlink:href="#STIXGeneral-Regular-2218" transform="translate(230.151218 35.68125)scale(0.7)"/>
     </g>
    </g>
   </g>
   <g id="text_8">
    <g clip-path="url(#p6b260b47a1)">
     <!-- $R_3$ -->
     <g transform="translate(170.525 175.209219)scale(0.125 -0.125)">
      <use xlink:href="#STIXGeneral-Italic-52" transform="translate(0 0.703125)"/>
      <use xlink:href="#STIXGeneral-Regular-33" transform="translate(61.099991 -12.525)scale(0.7)"/>
     </g>
    </g>
   </g>
   <g id="text_9">
    <g clip-path="url(#p6b260b47a1)">
     <!-- $L$ -->
     <g transform="translate(144.46 212.000391)scale(0.125 -0.125)">
      <use xlink:href="#STIXGeneral-Italic-4c" transform="translate(0 0.703125)"/>
     </g>
    </g>
   </g>
   <g id="text_10">
    <g clip-path="url(#p6b260b47a1)">
     <!-- $R_2$ -->
     <g transform="translate(78.725 175.209219)scale(0.125 -0.125)">
      <use xlink:href="#STIXGeneral-Italic-52" transform="translate(0 0.703125)"/>
      <use xlink:href="#STIXGeneral-Regular-32" transform="translate(61.099991 -12.525)scale(0.7)"/>
     </g>
    </g>
   </g>
   <g id="text_11">
    <g clip-path="url(#p6b260b47a1)">
     <!-- $C$ -->
     <g transform="translate(143.7725 146.068047)scale(0.125 -0.125)">
      <use xlink:href="#STIXGeneral-Italic-43" transform="translate(0 0.40625)"/>
     </g>
    </g>
   </g>
   <g id="text_12">
    <g clip-path="url(#p6b260b47a1)">
     <!-- $R_1$ -->
     <g transform="translate(49.8475 146.068047)scale(0.125 -0.125)">
      <use xlink:href="#STIXGeneral-Italic-52" transform="translate(0 0.703125)"/>
      <use xlink:href="#STIXGeneral-Regular-31" transform="translate(61.099991 -12.525)scale(0.7)"/>
     </g>
    </g>
   </g>
   <g id="line2d_29">
    <path d="M 102.06 144.22 
L 102.06 144.22 
" clip-path="url(#p6b260b47a1)" style="fill: none; stroke: #000000; stroke-width: 2; stroke-linecap: round"/>
   </g>
   <g id="patch_12">
    <path d="M 97.47 144.22 
L 102.06 135.04 
L 106.65 144.22 
z
" clip-path="url(#p6b260b47a1)"/>
   </g>
   <g id="text_13">
    <g clip-path="url(#p6b260b47a1)">
     <!-- $i_O(t)$ -->
     <g transform="translate(111.24 143.079219)scale(0.125 -0.125)">
      <defs>
       <path id="STIXGeneral-Italic-69" d="M 1690 3834 
Q 1690 3699 1597 3603 
Q 1504 3507 1376 3507 
Q 1235 3507 1152 3600 
Q 1069 3693 1069 3846 
Q 1069 3994 1155 4090 
Q 1242 4186 1370 4186 
Q 1498 4186 1594 4080 
Q 1690 3974 1690 3834 
z
M 1421 730 
L 1504 659 
Q 1235 243 1049 86 
Q 864 -70 627 -70 
Q 314 -70 314 282 
Q 314 467 454 992 
L 762 2125 
Q 819 2330 819 2406 
Q 819 2502 745 2528 
Q 672 2554 410 2560 
L 410 2662 
Q 704 2688 1434 2822 
L 1459 2803 
L 858 608 
Q 794 390 794 326 
Q 794 230 883 230 
Q 1043 230 1421 730 
z
" transform="scale(0.015625)"/>
       <path id="STIXGeneral-Italic-4f" d="M 4474 2675 
Q 4474 1990 4106 1363 
Q 3738 736 3149 339 
Q 2477 -115 1779 -115 
Q 1146 -115 765 281 
Q 384 678 384 1382 
Q 384 1965 697 2582 
Q 1011 3200 1517 3642 
Q 2234 4262 3034 4262 
Q 3718 4269 4096 3840 
Q 4474 3411 4474 2675 
z
M 3802 3078 
Q 3802 3533 3581 3792 
Q 3360 4051 2976 4051 
Q 2342 4051 1786 3302 
Q 1446 2842 1251 2259 
Q 1056 1677 1056 1178 
Q 1056 653 1270 374 
Q 1485 96 1888 96 
Q 2477 96 2976 704 
Q 3354 1178 3578 1862 
Q 3802 2547 3802 3078 
z
" transform="scale(0.015625)"/>
      </defs>
      <use xlink:href="#STIXGeneral-Italic-69" transform="translate(0 0.40625)"/>
      <use xlink:href="#STIXGeneral-Italic-4f" transform="translate(27.799988 -12.821875)scale(0.7)"/>
      <use xlink:href="#STIXGeneral-Regular-28" transform="translate(82.74935 0.40625)"/>
      <use xlink:href="#STIXGeneral-Italic-74" transform="translate(116.049338 0.40625)"/>
      <use xlink:href="#STIXGeneral-Regular-29" transform="translate(143.849326 0.40625)"/>
     </g>
    </g>
   </g>
   <g id="line2d_30">
    <path d="M 102.06 144.22 
L 102.06 144.22 
" clip-path="url(#p6b260b47a1)" style="fill: none; stroke: #000000; stroke-width: 2; stroke-linecap: round"/>
   </g>
   <g id="patch_13">
    <path d="M 97.47 144.22 
L 102.06 135.04 
L 106.65 144.22 
z
" clip-path="url(#p6b260b47a1)"/>
   </g>
   <g id="text_14">
    <g clip-path="url(#p6b260b47a1)">
     <!-- $i_O(t)$ -->
     <g transform="translate(111.24 143.079219)scale(0.125 -0.125)">
      <use xlink:href="#STIXGeneral-Italic-69" transform="translate(0 0.40625)"/>
      <use xlink:href="#STIXGeneral-Italic-4f" transform="translate(27.799988 -12.821875)scale(0.7)"/>
      <use xlink:href="#STIXGeneral-Regular-28" transform="translate(82.74935 0.40625)"/>
      <use xlink:href="#STIXGeneral-Italic-74" transform="translate(116.049338 0.40625)"/>
      <use xlink:href="#STIXGeneral-Regular-29" transform="translate(143.849326 0.40625)"/>
     </g>
    </g>
   </g>
  </g>
 </g>
 <defs>
  <clipPath id="p6b260b47a1">
   <rect x="7.2" y="7.2" width="197.37" height="233.104"/>
  </clipPath>
 </defs>
</svg>
