<?xml version="1.0" encoding="utf-8" standalone="no"?>
<!DOCTYPE svg PUBLIC "-//W3C//DTD SVG 1.1//EN"
  "http://www.w3.org/Graphics/SVG/1.1/DTD/svg11.dtd">
<svg xmlns:xlink="http://www.w3.org/1999/xlink" width="262.4538pt" height="270.76pt" viewBox="0 0 262.4538 270.76" xmlns="http://www.w3.org/2000/svg" version="1.1">
 <metadata>
  <rdf:RDF xmlns:dc="http://purl.org/dc/elements/1.1/" xmlns:cc="http://creativecommons.org/ns#" xmlns:rdf="http://www.w3.org/1999/02/22-rdf-syntax-ns#">
   <cc:Work>
    <dc:type rdf:resource="http://purl.org/dc/dcmitype/StillImage"/>
    <dc:date>2023-03-02T13:49:33.467245</dc:date>
    <dc:format>image/svg+xml</dc:format>
    <dc:creator>
     <cc:Agent>
      <dc:title>Matplotlib v3.5.2, https://matplotlib.org/</dc:title>
     </cc:Agent>
    </dc:creator>
   </cc:Work>
  </rdf:RDF>
 </metadata>
 <defs>
  <style type="text/css">*{stroke-linejoin: round; stroke-linecap: butt}</style>
 </defs>
 <g id="figure_1">
  <g id="patch_1">
   <path d="M 0 270.76 
L 262.4538 270.76 
L 262.4538 0 
L 0 0 
L 0 270.76 
z
" style="fill: none"/>
  </g>
  <g id="axes_1">
   <g id="patch_2">
    <path d="M 99.1938 164.11 
C 103.251407 164.11 107.143372 162.497895 110.012534 159.628734 
C 112.881695 156.759572 114.4938 152.867607 114.4938 148.81 
C 114.4938 144.752393 112.881695 140.860428 110.012534 137.991266 
C 107.143372 135.122105 103.251407 133.51 99.1938 133.51 
C 95.136193 133.51 91.244228 135.122105 88.375066 137.991266 
C 85.505905 140.860428 83.8938 144.752393 83.8938 148.81 
C 83.8938 152.867607 85.505905 156.759572 88.375066 159.628734 
C 91.244228 162.497895 95.136193 164.11 99.1938 164.11 
L 99.1938 164.11 
z
" clip-path="url(#p1535b2dfa7)" style="fill: none; stroke: #000000; stroke-width: 2; stroke-linejoin: miter"/>
   </g>
   <g id="patch_3">
    <path d="M 99.1938 164.11 
C 103.251407 164.11 107.143372 162.497895 110.012534 159.628734 
C 112.881695 156.759572 114.4938 152.867607 114.4938 148.81 
C 114.4938 144.752393 112.881695 140.860428 110.012534 137.991266 
C 107.143372 135.122105 103.251407 133.51 99.1938 133.51 
C 95.136193 133.51 91.244228 135.122105 88.375066 137.991266 
C 85.505905 140.860428 83.8938 144.752393 83.8938 148.81 
C 83.8938 152.867607 85.505905 156.759572 88.375066 159.628734 
C 91.244228 162.497895 95.136193 164.11 99.1938 164.11 
L 99.1938 164.11 
z
" clip-path="url(#p1535b2dfa7)" style="fill: none; stroke: #000000; stroke-width: 2; stroke-linejoin: miter"/>
   </g>
   <g id="line2d_1">
    <path d="M 53.2938 240.61 
L 53.2938 252.85 
L 45.6438 252.85 
L 53.2938 260.5 
L 60.9438 252.85 
L 53.2938 252.85 
" clip-path="url(#p1535b2dfa7)" style="fill: none; stroke: #000000; stroke-width: 2; stroke-linecap: round"/>
   </g>
   <g id="line2d_2">
    <path d="M 53.2938 240.61 
L 53.2938 210.01 
L 45.6438 207.46 
L 60.9438 202.36 
L 45.6438 197.26 
L 60.9438 192.16 
L 45.6438 187.06 
L 60.9438 181.96 
L 53.2938 179.41 
L 53.2938 148.81 
" clip-path="url(#p1535b2dfa7)" style="fill: none; stroke: #000000; stroke-width: 2; stroke-linecap: round"/>
   </g>
   <g id="line2d_3">
    <path d="M 53.2938 148.81 
L 83.8938 148.81 
L 83.8938 148.81 
M 114.4938 148.81 
L 114.4938 148.81 
L 145.0938 148.81 
" clip-path="url(#p1535b2dfa7)" style="fill: none; stroke: #000000; stroke-width: 2; stroke-linecap: round"/>
   </g>
   <g id="line2d_4">
    <path d="M 91.5438 148.81 
L 99.1938 148.81 
" clip-path="url(#p1535b2dfa7)" style="fill: none; stroke: #000000; stroke-width: 2; stroke-linecap: round"/>
   </g>
   <g id="patch_4">
    <path d="M 99.1938 146.515 
L 106.8438 148.81 
L 99.1938 151.105 
z
" clip-path="url(#p1535b2dfa7)"/>
   </g>
   <g id="line2d_5">
    <path d="M 145.0938 148.81 
L 145.0938 179.41 
L 152.7438 181.96 
L 137.4438 187.06 
L 152.7438 192.16 
L 137.4438 197.26 
L 152.7438 202.36 
L 137.4438 207.46 
L 145.0938 210.01 
L 145.0938 240.61 
" clip-path="url(#p1535b2dfa7)" style="fill: none; stroke: #000000; stroke-width: 2; stroke-linecap: round"/>
   </g>
   <g id="line2d_6">
    <path d="M 145.0938 148.81 
L 175.6938 148.81 
L 190.9938 133.51 
L 206.2938 148.81 
L 190.9938 164.11 
L 175.6938 148.81 
M 206.2938 148.81 
L 236.8938 148.81 
" clip-path="url(#p1535b2dfa7)" style="fill: none; stroke: #000000; stroke-width: 2; stroke-linecap: round"/>
   </g>
   <g id="line2d_7">
    <path d="M 183.3438 148.81 
L 190.9938 148.81 
" clip-path="url(#p1535b2dfa7)" style="fill: none; stroke: #000000; stroke-width: 2; stroke-linecap: round"/>
   </g>
   <g id="patch_5">
    <path d="M 190.9938 146.515 
L 198.6438 148.81 
L 190.9938 151.105 
z
" clip-path="url(#p1535b2dfa7)"/>
   </g>
   <g id="line2d_8">
    <path d="M 236.8938 148.81 
L 236.8938 179.41 
L 244.5438 181.96 
L 229.2438 187.06 
L 244.5438 192.16 
L 229.2438 197.26 
L 244.5438 202.36 
L 229.2438 207.46 
L 236.8938 210.01 
L 236.8938 240.61 
" clip-path="url(#p1535b2dfa7)" style="fill: none; stroke: #000000; stroke-width: 2; stroke-linecap: round"/>
   </g>
   <g id="line2d_9">
    <path d="M 236.8938 240.61 
L 145.0938 240.61 
L 53.2938 240.61 
" clip-path="url(#p1535b2dfa7)" style="fill: none; stroke: #000000; stroke-width: 2; stroke-linecap: round"/>
   </g>
   <g id="line2d_10">
    <path d="M 53.2938 148.81 
L 53.2938 102.91 
L 53.2938 57.01 
" clip-path="url(#p1535b2dfa7)" style="fill: none; stroke: #000000; stroke-width: 2; stroke-linecap: round"/>
   </g>
   <g id="line2d_11">
    <path d="M 53.2938 57.01 
L 129.7938 57.01 
L 132.3438 49.36 
L 137.4438 64.66 
L 142.5438 49.36 
L 147.6438 64.66 
L 152.7438 49.36 
L 157.8438 64.66 
L 160.3938 57.01 
L 236.8938 57.01 
" clip-path="url(#p1535b2dfa7)" style="fill: none; stroke: #000000; stroke-width: 2; stroke-linecap: round"/>
   </g>
   <g id="line2d_12">
    <path d="M 236.8938 57.01 
L 236.8938 102.91 
L 236.8938 148.81 
" clip-path="url(#p1535b2dfa7)" style="fill: none; stroke: #000000; stroke-width: 2; stroke-linecap: round"/>
   </g>
   <g id="line2d_13">
    <path d="M 68.5938 179.41 
L 68.5938 194.71 
L 68.5938 202.36 
" clip-path="url(#p1535b2dfa7)" style="fill: none; stroke: #0000ff; stroke-width: 2; stroke-linecap: round"/>
   </g>
   <g id="patch_6">
    <path d="M 70.8888 202.36 
L 68.5938 210.01 
L 66.2988 202.36 
z
" clip-path="url(#p1535b2dfa7)" style="fill: #0000ff"/>
   </g>
   <g id="line2d_14">
    <path d="M 160.3938 179.41 
L 160.3938 194.71 
L 160.3938 202.36 
" clip-path="url(#p1535b2dfa7)" style="fill: none; stroke: #0000ff; stroke-width: 2; stroke-linecap: round"/>
   </g>
   <g id="patch_7">
    <path d="M 162.6888 202.36 
L 160.3938 210.01 
L 158.0988 202.36 
z
" clip-path="url(#p1535b2dfa7)" style="fill: #0000ff"/>
   </g>
   <g id="line2d_15">
    <path d="M 252.1938 179.41 
L 252.1938 194.71 
L 252.1938 202.36 
" clip-path="url(#p1535b2dfa7)" style="fill: none; stroke: #0000ff; stroke-width: 2; stroke-linecap: round"/>
   </g>
   <g id="patch_8">
    <path d="M 254.4888 202.36 
L 252.1938 210.01 
L 249.8988 202.36 
z
" clip-path="url(#p1535b2dfa7)" style="fill: #0000ff"/>
   </g>
   <g id="line2d_16">
    <path d="M 129.7938 72.31 
L 145.0938 72.31 
L 152.7438 72.31 
" clip-path="url(#p1535b2dfa7)" style="fill: none; stroke: #0000ff; stroke-width: 2; stroke-linecap: round"/>
   </g>
   <g id="patch_9">
    <path d="M 152.7438 70.015 
L 160.3938 72.31 
L 152.7438 74.605 
z
" clip-path="url(#p1535b2dfa7)" style="fill: #0000ff"/>
   </g>
   <g id="line2d_17">
    <path d="M 53.2938 240.61 
L 53.2938 252.85 
L 45.6438 252.85 
L 53.2938 260.5 
L 60.9438 252.85 
L 53.2938 252.85 
" clip-path="url(#p1535b2dfa7)" style="fill: none; stroke: #000000; stroke-width: 2; stroke-linecap: round"/>
   </g>
   <g id="line2d_18">
    <path d="M 53.2938 240.61 
L 53.2938 210.01 
L 45.6438 207.46 
L 60.9438 202.36 
L 45.6438 197.26 
L 60.9438 192.16 
L 45.6438 187.06 
L 60.9438 181.96 
L 53.2938 179.41 
L 53.2938 148.81 
" clip-path="url(#p1535b2dfa7)" style="fill: none; stroke: #000000; stroke-width: 2; stroke-linecap: round"/>
   </g>
   <g id="line2d_19">
    <path d="M 53.2938 148.81 
L 83.8938 148.81 
L 83.8938 148.81 
M 114.4938 148.81 
L 114.4938 148.81 
L 145.0938 148.81 
" clip-path="url(#p1535b2dfa7)" style="fill: none; stroke: #000000; stroke-width: 2; stroke-linecap: round"/>
   </g>
   <g id="line2d_20">
    <path d="M 91.5438 148.81 
L 99.1938 148.81 
" clip-path="url(#p1535b2dfa7)" style="fill: none; stroke: #000000; stroke-width: 2; stroke-linecap: round"/>
   </g>
   <g id="patch_10">
    <path d="M 99.1938 146.515 
L 106.8438 148.81 
L 99.1938 151.105 
z
" clip-path="url(#p1535b2dfa7)"/>
   </g>
   <g id="line2d_21">
    <path d="M 145.0938 148.81 
L 145.0938 179.41 
L 152.7438 181.96 
L 137.4438 187.06 
L 152.7438 192.16 
L 137.4438 197.26 
L 152.7438 202.36 
L 137.4438 207.46 
L 145.0938 210.01 
L 145.0938 240.61 
" clip-path="url(#p1535b2dfa7)" style="fill: none; stroke: #000000; stroke-width: 2; stroke-linecap: round"/>
   </g>
   <g id="line2d_22">
    <path d="M 145.0938 148.81 
L 175.6938 148.81 
L 190.9938 133.51 
L 206.2938 148.81 
L 190.9938 164.11 
L 175.6938 148.81 
M 206.2938 148.81 
L 236.8938 148.81 
" clip-path="url(#p1535b2dfa7)" style="fill: none; stroke: #000000; stroke-width: 2; stroke-linecap: round"/>
   </g>
   <g id="line2d_23">
    <path d="M 183.3438 148.81 
L 190.9938 148.81 
" clip-path="url(#p1535b2dfa7)" style="fill: none; stroke: #000000; stroke-width: 2; stroke-linecap: round"/>
   </g>
   <g id="patch_11">
    <path d="M 190.9938 146.515 
L 198.6438 148.81 
L 190.9938 151.105 
z
" clip-path="url(#p1535b2dfa7)"/>
   </g>
   <g id="line2d_24">
    <path d="M 236.8938 148.81 
L 236.8938 179.41 
L 244.5438 181.96 
L 229.2438 187.06 
L 244.5438 192.16 
L 229.2438 197.26 
L 244.5438 202.36 
L 229.2438 207.46 
L 236.8938 210.01 
L 236.8938 240.61 
" clip-path="url(#p1535b2dfa7)" style="fill: none; stroke: #000000; stroke-width: 2; stroke-linecap: round"/>
   </g>
   <g id="line2d_25">
    <path d="M 236.8938 240.61 
L 145.0938 240.61 
L 53.2938 240.61 
" clip-path="url(#p1535b2dfa7)" style="fill: none; stroke: #000000; stroke-width: 2; stroke-linecap: round"/>
   </g>
   <g id="line2d_26">
    <path d="M 53.2938 148.81 
L 53.2938 102.91 
L 53.2938 57.01 
" clip-path="url(#p1535b2dfa7)" style="fill: none; stroke: #000000; stroke-width: 2; stroke-linecap: round"/>
   </g>
   <g id="line2d_27">
    <path d="M 53.2938 57.01 
L 129.7938 57.01 
L 132.3438 49.36 
L 137.4438 64.66 
L 142.5438 49.36 
L 147.6438 64.66 
L 152.7438 49.36 
L 157.8438 64.66 
L 160.3938 57.01 
L 236.8938 57.01 
" clip-path="url(#p1535b2dfa7)" style="fill: none; stroke: #000000; stroke-width: 2; stroke-linecap: round"/>
   </g>
   <g id="line2d_28">
    <path d="M 236.8938 57.01 
L 236.8938 102.91 
L 236.8938 148.81 
" clip-path="url(#p1535b2dfa7)" style="fill: none; stroke: #000000; stroke-width: 2; stroke-linecap: round"/>
   </g>
   <g id="line2d_29">
    <path d="M 68.5938 179.41 
L 68.5938 194.71 
L 68.5938 202.36 
" clip-path="url(#p1535b2dfa7)" style="fill: none; stroke: #0000ff; stroke-width: 2; stroke-linecap: round"/>
   </g>
   <g id="patch_12">
    <path d="M 70.8888 202.36 
L 68.5938 210.01 
L 66.2988 202.36 
z
" clip-path="url(#p1535b2dfa7)" style="fill: #0000ff"/>
   </g>
   <g id="line2d_30">
    <path d="M 160.3938 179.41 
L 160.3938 194.71 
L 160.3938 202.36 
" clip-path="url(#p1535b2dfa7)" style="fill: none; stroke: #0000ff; stroke-width: 2; stroke-linecap: round"/>
   </g>
   <g id="patch_13">
    <path d="M 162.6888 202.36 
L 160.3938 210.01 
L 158.0988 202.36 
z
" clip-path="url(#p1535b2dfa7)" style="fill: #0000ff"/>
   </g>
   <g id="line2d_31">
    <path d="M 252.1938 179.41 
L 252.1938 194.71 
L 252.1938 202.36 
" clip-path="url(#p1535b2dfa7)" style="fill: none; stroke: #0000ff; stroke-width: 2; stroke-linecap: round"/>
   </g>
   <g id="patch_14">
    <path d="M 254.4888 202.36 
L 252.1938 210.01 
L 249.8988 202.36 
z
" clip-path="url(#p1535b2dfa7)" style="fill: #0000ff"/>
   </g>
   <g id="line2d_32">
    <path d="M 129.7938 72.31 
L 145.0938 72.31 
L 152.7438 72.31 
" clip-path="url(#p1535b2dfa7)" style="fill: none; stroke: #0000ff; stroke-width: 2; stroke-linecap: round"/>
   </g>
   <g id="patch_15">
    <path d="M 152.7438 70.015 
L 160.3938 72.31 
L 152.7438 74.605 
z
" clip-path="url(#p1535b2dfa7)" style="fill: #0000ff"/>
   </g>
   <g id="text_1">
    <g clip-path="url(#p1535b2dfa7)">
     <!-- $R_1$ -->
     <g transform="translate(29.9588 191.160586)scale(0.125 -0.125)">
      <defs>
       <path id="STIXGeneral-Italic-52" d="M 845 4179 
L 2458 4179 
Q 3078 4179 3420 3936 
Q 3763 3693 3763 3277 
Q 3763 2778 3341 2458 
Q 3091 2266 2502 2131 
L 3072 627 
Q 3181 333 3299 217 
Q 3418 102 3629 102 
L 3629 0 
L 2688 0 
L 1901 2074 
L 1478 2106 
L 1126 806 
Q 1043 512 1043 403 
Q 1043 256 1126 192 
Q 1210 128 1472 102 
L 1472 0 
L -83 0 
L -83 102 
Q 173 134 278 243 
Q 384 352 461 646 
L 1222 3405 
Q 1299 3699 1299 3808 
Q 1299 3923 1210 3987 
Q 1133 4038 845 4077 
L 845 4179 
z
M 1958 3795 
L 1555 2342 
Q 1754 2310 1882 2310 
Q 2451 2310 2771 2566 
Q 3091 2822 3091 3270 
Q 3091 3603 2892 3795 
Q 2694 3987 2323 3987 
Q 2010 3987 1958 3795 
z
" transform="scale(0.015625)"/>
       <path id="STIXGeneral-Regular-31" d="M 2522 0 
L 755 0 
L 755 96 
Q 1107 115 1235 227 
Q 1363 339 1363 608 
L 1363 3482 
Q 1363 3795 1171 3795 
Q 1082 3795 883 3718 
L 710 3654 
L 710 3744 
L 1856 4326 
L 1914 4307 
L 1914 486 
Q 1914 275 2042 185 
Q 2170 96 2522 96 
L 2522 0 
z
" transform="scale(0.015625)"/>
      </defs>
      <use xlink:href="#STIXGeneral-Italic-52" transform="translate(0 0.703125)"/>
      <use xlink:href="#STIXGeneral-Regular-31" transform="translate(61.099991 -12.525)scale(0.7)"/>
     </g>
    </g>
    <g clip-path="url(#p1535b2dfa7)">
     <!--  8$~\Omega$ -->
     <g transform="translate(18.3338 205.157852)scale(0.125 -0.125)">
      <defs>
       <path id="DejaVuSans-20" transform="scale(0.015625)"/>
       <path id="DejaVuSans-38" d="M 2034 2216 
Q 1584 2216 1326 1975 
Q 1069 1734 1069 1313 
Q 1069 891 1326 650 
Q 1584 409 2034 409 
Q 2484 409 2743 651 
Q 3003 894 3003 1313 
Q 3003 1734 2745 1975 
Q 2488 2216 2034 2216 
z
M 1403 2484 
Q 997 2584 770 2862 
Q 544 3141 544 3541 
Q 544 4100 942 4425 
Q 1341 4750 2034 4750 
Q 2731 4750 3128 4425 
Q 3525 4100 3525 3541 
Q 3525 3141 3298 2862 
Q 3072 2584 2669 2484 
Q 3125 2378 3379 2068 
Q 3634 1759 3634 1313 
Q 3634 634 3220 271 
Q 2806 -91 2034 -91 
Q 1263 -91 848 271 
Q 434 634 434 1313 
Q 434 1759 690 2068 
Q 947 2378 1403 2484 
z
M 1172 3481 
Q 1172 3119 1398 2916 
Q 1625 2713 2034 2713 
Q 2441 2713 2670 2916 
Q 2900 3119 2900 3481 
Q 2900 3844 2670 4047 
Q 2441 4250 2034 4250 
Q 1625 4250 1398 4047 
Q 1172 3844 1172 3481 
z
" transform="scale(0.015625)"/>
       <path id="STIXGeneral-Regular-3a9" d="M 4576 0 
L 2746 0 
L 2790 1030 
Q 3187 1126 3440 1574 
Q 3693 2022 3693 2554 
Q 3693 3251 3344 3673 
Q 2995 4096 2380 4096 
Q 1766 4096 1417 3635 
Q 1069 3174 1069 2554 
Q 1069 2054 1315 1600 
Q 1562 1146 1965 1030 
L 2022 0 
L 186 0 
L 186 1094 
L 346 1094 
Q 352 806 438 707 
Q 525 608 742 608 
L 1709 608 
L 1696 845 
Q 1018 1037 678 1446 
Q 339 1856 339 2541 
Q 339 3238 899 3782 
Q 1459 4326 2380 4326 
Q 3302 4326 3862 3804 
Q 4422 3283 4422 2541 
Q 4422 1235 3046 845 
L 3034 608 
L 4019 608 
Q 4397 608 4416 1082 
L 4576 1082 
L 4576 0 
z
" transform="scale(0.015625)"/>
      </defs>
      <use xlink:href="#DejaVuSans-20" transform="translate(0 0.78125)"/>
      <use xlink:href="#DejaVuSans-38" transform="translate(31.787109 0.78125)"/>
      <use xlink:href="#STIXGeneral-Regular-3a9" transform="translate(119.476576 0.78125)"/>
     </g>
    </g>
   </g>
   <g id="text_2">
    <g clip-path="url(#p1535b2dfa7)">
     <!-- $I_{S1}$ -->
     <g transform="translate(92.4438 113.853125)scale(0.125 -0.125)">
      <defs>
       <path id="STIXGeneral-Italic-49" d="M 2458 4179 
L 2458 4077 
Q 2189 4045 2102 3961 
Q 2016 3878 1933 3584 
L 1165 838 
Q 1069 499 1069 352 
Q 1069 224 1149 179 
Q 1229 134 1510 102 
L 1510 0 
L -51 0 
L -51 102 
Q 218 154 317 237 
Q 416 320 486 582 
L 1254 3405 
Q 1338 3699 1338 3802 
Q 1338 3930 1235 3997 
Q 1133 4064 877 4077 
L 877 4179 
L 2458 4179 
z
" transform="scale(0.015625)"/>
       <path id="STIXGeneral-Italic-53" d="M 3251 4269 
L 2995 2989 
L 2880 3008 
Q 2880 3539 2720 3795 
Q 2560 4051 2118 4051 
Q 1786 4051 1594 3881 
Q 1402 3712 1402 3411 
Q 1402 3168 1504 3005 
Q 1606 2842 2035 2413 
Q 2464 1978 2611 1715 
Q 2758 1453 2758 1133 
Q 2758 589 2390 237 
Q 2022 -115 1466 -115 
Q 1222 -115 800 32 
Q 595 109 499 109 
Q 288 109 224 -96 
L 109 -96 
L 326 1338 
L 454 1325 
Q 442 1267 442 1178 
Q 442 710 701 409 
Q 960 109 1363 109 
Q 1734 109 1968 336 
Q 2202 563 2202 928 
Q 2202 1139 2118 1308 
Q 2035 1478 1818 1715 
L 1568 1984 
Q 1549 2003 1459 2102 
Q 1370 2202 1318 2253 
Q 1030 2560 934 2755 
Q 838 2950 838 3213 
Q 838 3699 1168 3980 
Q 1498 4262 1978 4262 
Q 2310 4262 2522 4173 
Q 2707 4102 2816 4102 
Q 2925 4102 2982 4134 
Q 3040 4166 3104 4269 
L 3251 4269 
z
" transform="scale(0.015625)"/>
      </defs>
      <use xlink:href="#STIXGeneral-Italic-49" transform="translate(0 0.703125)"/>
      <use xlink:href="#STIXGeneral-Italic-53" transform="translate(33.299988 -12.525)scale(0.7)"/>
      <use xlink:href="#STIXGeneral-Regular-31" transform="translate(68.299977 -12.525)scale(0.7)"/>
     </g>
    </g>
    <g clip-path="url(#p1535b2dfa7)">
     <!-- 4$~A$ -->
     <g transform="translate(89.8813 127.850391)scale(0.125 -0.125)">
      <defs>
       <path id="DejaVuSans-34" d="M 2419 4116 
L 825 1625 
L 2419 1625 
L 2419 4116 
z
M 2253 4666 
L 3047 4666 
L 3047 1625 
L 3713 1625 
L 3713 1100 
L 3047 1100 
L 3047 0 
L 2419 0 
L 2419 1100 
L 313 1100 
L 313 1709 
L 2253 4666 
z
" transform="scale(0.015625)"/>
       <path id="STIXGeneral-Italic-41" d="M 3610 0 
L 2042 0 
L 2042 102 
Q 2330 115 2432 192 
Q 2534 269 2534 442 
Q 2534 493 2522 608 
L 2394 1446 
L 986 1446 
L 608 736 
Q 467 474 467 314 
Q 467 122 864 102 
L 864 0 
L -326 0 
L -326 102 
Q -109 147 28 307 
Q 166 467 531 1101 
L 2355 4275 
L 2522 4275 
L 3110 736 
Q 3174 339 3264 230 
Q 3354 122 3610 102 
L 3610 0 
z
M 2362 1677 
L 2074 3360 
L 1120 1677 
L 2362 1677 
z
" transform="scale(0.015625)"/>
      </defs>
      <use xlink:href="#DejaVuSans-34" transform="translate(0 0.09375)"/>
      <use xlink:href="#STIXGeneral-Italic-41" transform="translate(87.689467 0.09375)"/>
     </g>
    </g>
   </g>
   <g id="text_3">
    <g clip-path="url(#p1535b2dfa7)">
     <!-- $R_2$ -->
     <g transform="translate(121.7588 191.160586)scale(0.125 -0.125)">
      <defs>
       <path id="STIXGeneral-Regular-32" d="M 3034 877 
L 2688 0 
L 186 0 
L 186 77 
L 1325 1286 
Q 1773 1754 1965 2144 
Q 2157 2534 2157 2950 
Q 2157 3379 1920 3616 
Q 1683 3853 1267 3853 
Q 922 3853 720 3673 
Q 518 3494 326 3021 
L 192 3053 
Q 301 3648 630 3987 
Q 960 4326 1523 4326 
Q 2054 4326 2380 4006 
Q 2707 3686 2707 3200 
Q 2707 2477 1888 1613 
L 832 486 
L 2330 486 
Q 2541 486 2665 569 
Q 2790 653 2944 915 
L 3034 877 
z
" transform="scale(0.015625)"/>
      </defs>
      <use xlink:href="#STIXGeneral-Italic-52" transform="translate(0 0.703125)"/>
      <use xlink:href="#STIXGeneral-Regular-32" transform="translate(61.099991 -12.525)scale(0.7)"/>
     </g>
    </g>
    <g clip-path="url(#p1535b2dfa7)">
     <!--  2$~\Omega$ -->
     <g transform="translate(110.1338 205.157852)scale(0.125 -0.125)">
      <defs>
       <path id="DejaVuSans-32" d="M 1228 531 
L 3431 531 
L 3431 0 
L 469 0 
L 469 531 
Q 828 903 1448 1529 
Q 2069 2156 2228 2338 
Q 2531 2678 2651 2914 
Q 2772 3150 2772 3378 
Q 2772 3750 2511 3984 
Q 2250 4219 1831 4219 
Q 1534 4219 1204 4116 
Q 875 4013 500 3803 
L 500 4441 
Q 881 4594 1212 4672 
Q 1544 4750 1819 4750 
Q 2544 4750 2975 4387 
Q 3406 4025 3406 3419 
Q 3406 3131 3298 2873 
Q 3191 2616 2906 2266 
Q 2828 2175 2409 1742 
Q 1991 1309 1228 531 
z
" transform="scale(0.015625)"/>
      </defs>
      <use xlink:href="#DejaVuSans-20" transform="translate(0 0.78125)"/>
      <use xlink:href="#DejaVuSans-32" transform="translate(31.787109 0.78125)"/>
      <use xlink:href="#STIXGeneral-Regular-3a9" transform="translate(119.476576 0.78125)"/>
     </g>
    </g>
   </g>
   <g id="text_4">
    <g clip-path="url(#p1535b2dfa7)">
     <!-- $I_{S2}$ -->
     <g transform="translate(184.2438 113.853125)scale(0.125 -0.125)">
      <use xlink:href="#STIXGeneral-Italic-49" transform="translate(0 0.703125)"/>
      <use xlink:href="#STIXGeneral-Italic-53" transform="translate(33.299988 -12.525)scale(0.7)"/>
      <use xlink:href="#STIXGeneral-Regular-32" transform="translate(68.299977 -12.525)scale(0.7)"/>
     </g>
    </g>
    <g clip-path="url(#p1535b2dfa7)">
     <!-- $2I_O$ -->
     <g transform="translate(182.3063 127.850391)scale(0.125 -0.125)">
      <defs>
       <path id="STIXGeneral-Italic-4f" d="M 4474 2675 
Q 4474 1990 4106 1363 
Q 3738 736 3149 339 
Q 2477 -115 1779 -115 
Q 1146 -115 765 281 
Q 384 678 384 1382 
Q 384 1965 697 2582 
Q 1011 3200 1517 3642 
Q 2234 4262 3034 4262 
Q 3718 4269 4096 3840 
Q 4474 3411 4474 2675 
z
M 3802 3078 
Q 3802 3533 3581 3792 
Q 3360 4051 2976 4051 
Q 2342 4051 1786 3302 
Q 1446 2842 1251 2259 
Q 1056 1677 1056 1178 
Q 1056 653 1270 374 
Q 1485 96 1888 96 
Q 2477 96 2976 704 
Q 3354 1178 3578 1862 
Q 3802 2547 3802 3078 
z
" transform="scale(0.015625)"/>
      </defs>
      <use xlink:href="#STIXGeneral-Regular-32" transform="translate(0 0.40625)"/>
      <use xlink:href="#STIXGeneral-Italic-49" transform="translate(49.999985 0.40625)"/>
      <use xlink:href="#STIXGeneral-Italic-4f" transform="translate(83.299973 -12.821875)scale(0.7)"/>
     </g>
    </g>
   </g>
   <g id="text_5">
    <g clip-path="url(#p1535b2dfa7)">
     <!-- $R_3$ -->
     <g transform="translate(213.5588 191.160586)scale(0.125 -0.125)">
      <defs>
       <path id="STIXGeneral-Regular-33" d="M 390 3264 
L 288 3290 
Q 435 3770 748 4048 
Q 1062 4326 1542 4326 
Q 1990 4326 2265 4083 
Q 2541 3840 2541 3450 
Q 2541 2925 1946 2566 
Q 2298 2413 2477 2227 
Q 2758 1914 2758 1402 
Q 2758 890 2464 506 
Q 2246 211 1840 60 
Q 1434 -90 979 -90 
Q 262 -90 262 275 
Q 262 378 339 442 
Q 416 506 525 506 
Q 685 506 915 339 
Q 1197 141 1466 141 
Q 1818 141 2058 425 
Q 2298 710 2298 1120 
Q 2298 1856 1632 2048 
Q 1434 2112 979 2112 
L 979 2202 
Q 1338 2323 1517 2432 
Q 2035 2726 2035 3290 
Q 2035 3610 1852 3776 
Q 1670 3942 1344 3942 
Q 768 3942 390 3264 
z
" transform="scale(0.015625)"/>
      </defs>
      <use xlink:href="#STIXGeneral-Italic-52" transform="translate(0 0.703125)"/>
      <use xlink:href="#STIXGeneral-Regular-33" transform="translate(61.099991 -12.525)scale(0.7)"/>
     </g>
    </g>
    <g clip-path="url(#p1535b2dfa7)">
     <!--  4$~\Omega$ -->
     <g transform="translate(201.9338 205.157852)scale(0.125 -0.125)">
      <use xlink:href="#DejaVuSans-20" transform="translate(0 0.09375)"/>
      <use xlink:href="#DejaVuSans-34" transform="translate(31.787109 0.09375)"/>
      <use xlink:href="#STIXGeneral-Regular-3a9" transform="translate(119.476576 0.09375)"/>
     </g>
    </g>
   </g>
   <g id="text_6">
    <g clip-path="url(#p1535b2dfa7)">
     <!-- $R_4$ -->
     <g transform="translate(138.7813 29.703125)scale(0.125 -0.125)">
      <defs>
       <path id="STIXGeneral-Regular-34" d="M 3027 1069 
L 2368 1069 
L 2368 0 
L 1869 0 
L 1869 1069 
L 77 1069 
L 77 1478 
L 2086 4326 
L 2368 4326 
L 2368 1478 
L 3027 1478 
L 3027 1069 
z
M 1869 1478 
L 1869 3674 
L 333 1478 
L 1869 1478 
z
" transform="scale(0.015625)"/>
      </defs>
      <use xlink:href="#STIXGeneral-Italic-52" transform="translate(0 0.703125)"/>
      <use xlink:href="#STIXGeneral-Regular-34" transform="translate(61.099991 -12.525)scale(0.7)"/>
     </g>
    </g>
    <g clip-path="url(#p1535b2dfa7)">
     <!--  1$~\Omega$ -->
     <g transform="translate(132.9688 43.700391)scale(0.125 -0.125)">
      <defs>
       <path id="DejaVuSans-31" d="M 794 531 
L 1825 531 
L 1825 4091 
L 703 3866 
L 703 4441 
L 1819 4666 
L 2450 4666 
L 2450 531 
L 3481 531 
L 3481 0 
L 794 0 
L 794 531 
z
" transform="scale(0.015625)"/>
      </defs>
      <use xlink:href="#DejaVuSans-20" transform="translate(0 0.09375)"/>
      <use xlink:href="#DejaVuSans-31" transform="translate(31.787109 0.09375)"/>
      <use xlink:href="#STIXGeneral-Regular-3a9" transform="translate(119.476576 0.09375)"/>
     </g>
    </g>
   </g>
   <g id="text_7">
    <g clip-path="url(#p1535b2dfa7)">
     <!-- $R_1$ -->
     <g transform="translate(29.9588 191.160586)scale(0.125 -0.125)">
      <use xlink:href="#STIXGeneral-Italic-52" transform="translate(0 0.703125)"/>
      <use xlink:href="#STIXGeneral-Regular-31" transform="translate(61.099991 -12.525)scale(0.7)"/>
     </g>
    </g>
    <g clip-path="url(#p1535b2dfa7)">
     <!--  8$~\Omega$ -->
     <g transform="translate(18.3338 205.157852)scale(0.125 -0.125)">
      <use xlink:href="#DejaVuSans-20" transform="translate(0 0.78125)"/>
      <use xlink:href="#DejaVuSans-38" transform="translate(31.787109 0.78125)"/>
      <use xlink:href="#STIXGeneral-Regular-3a9" transform="translate(119.476576 0.78125)"/>
     </g>
    </g>
   </g>
   <g id="text_8">
    <g clip-path="url(#p1535b2dfa7)">
     <!-- $I_{S1}$ -->
     <g transform="translate(92.4438 113.853125)scale(0.125 -0.125)">
      <use xlink:href="#STIXGeneral-Italic-49" transform="translate(0 0.703125)"/>
      <use xlink:href="#STIXGeneral-Italic-53" transform="translate(33.299988 -12.525)scale(0.7)"/>
      <use xlink:href="#STIXGeneral-Regular-31" transform="translate(68.299977 -12.525)scale(0.7)"/>
     </g>
    </g>
    <g clip-path="url(#p1535b2dfa7)">
     <!-- 4$~A$ -->
     <g transform="translate(89.8813 127.850391)scale(0.125 -0.125)">
      <use xlink:href="#DejaVuSans-34" transform="translate(0 0.09375)"/>
      <use xlink:href="#STIXGeneral-Italic-41" transform="translate(87.689467 0.09375)"/>
     </g>
    </g>
   </g>
   <g id="text_9">
    <g clip-path="url(#p1535b2dfa7)">
     <!-- $R_2$ -->
     <g transform="translate(121.7588 191.160586)scale(0.125 -0.125)">
      <use xlink:href="#STIXGeneral-Italic-52" transform="translate(0 0.703125)"/>
      <use xlink:href="#STIXGeneral-Regular-32" transform="translate(61.099991 -12.525)scale(0.7)"/>
     </g>
    </g>
    <g clip-path="url(#p1535b2dfa7)">
     <!--  2$~\Omega$ -->
     <g transform="translate(110.1338 205.157852)scale(0.125 -0.125)">
      <use xlink:href="#DejaVuSans-20" transform="translate(0 0.78125)"/>
      <use xlink:href="#DejaVuSans-32" transform="translate(31.787109 0.78125)"/>
      <use xlink:href="#STIXGeneral-Regular-3a9" transform="translate(119.476576 0.78125)"/>
     </g>
    </g>
   </g>
   <g id="text_10">
    <g clip-path="url(#p1535b2dfa7)">
     <!-- $I_{S2}$ -->
     <g transform="translate(184.2438 113.853125)scale(0.125 -0.125)">
      <use xlink:href="#STIXGeneral-Italic-49" transform="translate(0 0.703125)"/>
      <use xlink:href="#STIXGeneral-Italic-53" transform="translate(33.299988 -12.525)scale(0.7)"/>
      <use xlink:href="#STIXGeneral-Regular-32" transform="translate(68.299977 -12.525)scale(0.7)"/>
     </g>
    </g>
    <g clip-path="url(#p1535b2dfa7)">
     <!-- $2I_O$ -->
     <g transform="translate(182.3063 127.850391)scale(0.125 -0.125)">
      <use xlink:href="#STIXGeneral-Regular-32" transform="translate(0 0.40625)"/>
      <use xlink:href="#STIXGeneral-Italic-49" transform="translate(49.999985 0.40625)"/>
      <use xlink:href="#STIXGeneral-Italic-4f" transform="translate(83.299973 -12.821875)scale(0.7)"/>
     </g>
    </g>
   </g>
   <g id="text_11">
    <g clip-path="url(#p1535b2dfa7)">
     <!-- $R_3$ -->
     <g transform="translate(213.5588 191.160586)scale(0.125 -0.125)">
      <use xlink:href="#STIXGeneral-Italic-52" transform="translate(0 0.703125)"/>
      <use xlink:href="#STIXGeneral-Regular-33" transform="translate(61.099991 -12.525)scale(0.7)"/>
     </g>
    </g>
    <g clip-path="url(#p1535b2dfa7)">
     <!--  4$~\Omega$ -->
     <g transform="translate(201.9338 205.157852)scale(0.125 -0.125)">
      <use xlink:href="#DejaVuSans-20" transform="translate(0 0.09375)"/>
      <use xlink:href="#DejaVuSans-34" transform="translate(31.787109 0.09375)"/>
      <use xlink:href="#STIXGeneral-Regular-3a9" transform="translate(119.476576 0.09375)"/>
     </g>
    </g>
   </g>
   <g id="text_12">
    <g clip-path="url(#p1535b2dfa7)">
     <!-- $R_4$ -->
     <g transform="translate(138.7813 29.703125)scale(0.125 -0.125)">
      <use xlink:href="#STIXGeneral-Italic-52" transform="translate(0 0.703125)"/>
      <use xlink:href="#STIXGeneral-Regular-34" transform="translate(61.099991 -12.525)scale(0.7)"/>
     </g>
    </g>
    <g clip-path="url(#p1535b2dfa7)">
     <!--  1$~\Omega$ -->
     <g transform="translate(132.9688 43.700391)scale(0.125 -0.125)">
      <use xlink:href="#DejaVuSans-20" transform="translate(0 0.09375)"/>
      <use xlink:href="#DejaVuSans-31" transform="translate(31.787109 0.09375)"/>
      <use xlink:href="#STIXGeneral-Regular-3a9" transform="translate(119.476576 0.09375)"/>
     </g>
    </g>
   </g>
   <g id="line2d_33">
    <path d="M 53.2938 164.11 
L 53.2938 164.11 
" clip-path="url(#p1535b2dfa7)" style="fill: none; stroke: #000000; stroke-width: 2; stroke-linecap: round"/>
   </g>
   <g id="patch_16">
    <path d="M 57.8838 164.11 
L 53.2938 173.29 
L 48.7038 164.11 
z
" clip-path="url(#p1535b2dfa7)"/>
   </g>
   <g id="text_13">
    <g clip-path="url(#p1535b2dfa7)">
     <!-- $I_O$ -->
     <g transform="translate(32.9888 172.149219)scale(0.125 -0.125)">
      <use xlink:href="#STIXGeneral-Italic-49" transform="translate(0 0.703125)"/>
      <use xlink:href="#STIXGeneral-Italic-4f" transform="translate(33.299988 -12.525)scale(0.7)"/>
     </g>
    </g>
   </g>
   <g id="line2d_34">
    <path d="M 53.2938 164.11 
L 53.2938 164.11 
" clip-path="url(#p1535b2dfa7)" style="fill: none; stroke: #000000; stroke-width: 2; stroke-linecap: round"/>
   </g>
   <g id="patch_17">
    <path d="M 57.8838 164.11 
L 53.2938 173.29 
L 48.7038 164.11 
z
" clip-path="url(#p1535b2dfa7)"/>
   </g>
   <g id="text_14">
    <g clip-path="url(#p1535b2dfa7)">
     <!-- $I_O$ -->
     <g transform="translate(32.9888 172.149219)scale(0.125 -0.125)">
      <use xlink:href="#STIXGeneral-Italic-49" transform="translate(0 0.703125)"/>
      <use xlink:href="#STIXGeneral-Italic-4f" transform="translate(33.299988 -12.525)scale(0.7)"/>
     </g>
    </g>
   </g>
  </g>
 </g>
 <defs>
  <clipPath id="p1535b2dfa7">
   <rect x="7.2" y="7.2" width="248.0538" height="256.36"/>
  </clipPath>
 </defs>
</svg>
