<?xml version="1.0" encoding="utf-8" standalone="no"?>
<!DOCTYPE svg PUBLIC "-//W3C//DTD SVG 1.1//EN"
  "http://www.w3.org/Graphics/SVG/1.1/DTD/svg11.dtd">
<svg xmlns:xlink="http://www.w3.org/1999/xlink" width="451.165943pt" height="224.01pt" viewBox="0 0 451.165943 224.01" xmlns="http://www.w3.org/2000/svg" version="1.1">
 <metadata>
  <rdf:RDF xmlns:dc="http://purl.org/dc/elements/1.1/" xmlns:cc="http://creativecommons.org/ns#" xmlns:rdf="http://www.w3.org/1999/02/22-rdf-syntax-ns#">
   <cc:Work>
    <dc:type rdf:resource="http://purl.org/dc/dcmitype/StillImage"/>
    <dc:date>2023-03-03T20:52:24.398443</dc:date>
    <dc:format>image/svg+xml</dc:format>
    <dc:creator>
     <cc:Agent>
      <dc:title>Matplotlib v3.5.2, https://matplotlib.org/</dc:title>
     </cc:Agent>
    </dc:creator>
   </cc:Work>
  </rdf:RDF>
 </metadata>
 <defs>
  <style type="text/css">*{stroke-linejoin: round; stroke-linecap: butt}</style>
 </defs>
 <g id="figure_1">
  <g id="patch_1">
   <path d="M 0 224.01 
L 451.165943 224.01 
L 451.165943 0 
L 0 0 
L 0 224.01 
z
" style="fill: none"/>
  </g>
  <g id="axes_1">
   <g id="patch_2">
    <path d="M 53.3754 163.26 
C 57.433007 163.26 61.324972 161.647895 64.194134 158.778734 
C 67.063295 155.909572 68.6754 152.017607 68.6754 147.96 
C 68.6754 143.902393 67.063295 140.010428 64.194134 137.141266 
C 61.324972 134.272105 57.433007 132.66 53.3754 132.66 
C 49.317793 132.66 45.425828 134.272105 42.556666 137.141266 
C 39.687505 140.010428 38.0754 143.902393 38.0754 147.96 
C 38.0754 152.017607 39.687505 155.909572 42.556666 158.778734 
C 45.425828 161.647895 49.317793 163.26 53.3754 163.26 
L 53.3754 163.26 
z
" clip-path="url(#pd58d9f627e)" style="fill: none; stroke: #000000; stroke-width: 2; stroke-linejoin: miter"/>
   </g>
   <g id="patch_3">
    <path d="M 53.3754 163.26 
C 57.433007 163.26 61.324972 161.647895 64.194134 158.778734 
C 67.063295 155.909572 68.6754 152.017607 68.6754 147.96 
C 68.6754 143.902393 67.063295 140.010428 64.194134 137.141266 
C 61.324972 134.272105 57.433007 132.66 53.3754 132.66 
C 49.317793 132.66 45.425828 134.272105 42.556666 137.141266 
C 39.687505 140.010428 38.0754 143.902393 38.0754 147.96 
C 38.0754 152.017607 39.687505 155.909572 42.556666 158.778734 
C 45.425828 161.647895 49.317793 163.26 53.3754 163.26 
L 53.3754 163.26 
z
" clip-path="url(#pd58d9f627e)" style="fill: none; stroke: #000000; stroke-width: 2; stroke-linejoin: miter"/>
   </g>
   <g id="line2d_1">
    <path d="M 286.7004 121.185 
L 286.7004 82.935 
L 352.951343 121.185 
L 286.7004 159.435 
L 286.7004 121.185 
M 352.951343 121.185 
" clip-path="url(#pd58d9f627e)" style="fill: none; stroke: #000000; stroke-width: 2; stroke-linecap: round"/>
   </g>
   <g id="line2d_2">
    <path d="M 291.921768 102.06 
L 298.041768 102.06 
" clip-path="url(#pd58d9f627e)" style="fill: none; stroke: #000000; stroke-width: 2; stroke-linecap: round"/>
   </g>
   <g id="line2d_3">
    <path d="M 291.921768 140.31 
L 298.041768 140.31 
" clip-path="url(#pd58d9f627e)" style="fill: none; stroke: #000000; stroke-width: 2; stroke-linecap: round"/>
   </g>
   <g id="line2d_4">
    <path d="M 294.981768 143.37 
L 294.981768 137.25 
" clip-path="url(#pd58d9f627e)" style="fill: none; stroke: #000000; stroke-width: 2; stroke-linecap: round"/>
   </g>
   <g id="line2d_5">
    <path d="M 267.5754 102.06 
L 286.7004 102.06 
" clip-path="url(#pd58d9f627e)" style="fill: none; stroke: #000000; stroke-width: 2; stroke-linecap: round"/>
   </g>
   <g id="line2d_6">
    <path d="M 267.5754 140.31 
L 286.7004 140.31 
" clip-path="url(#pd58d9f627e)" style="fill: none; stroke: #000000; stroke-width: 2; stroke-linecap: round"/>
   </g>
   <g id="line2d_7">
    <path d="M 352.951343 121.185 
L 372.076343 121.185 
" clip-path="url(#pd58d9f627e)" style="fill: none; stroke: #000000; stroke-width: 2; stroke-linecap: round"/>
   </g>
   <g id="line2d_8">
    <path d="M 267.5754 102.06 
L 252.2754 102.06 
L 236.9754 102.06 
" clip-path="url(#pd58d9f627e)" style="fill: none; stroke: #000000; stroke-width: 2; stroke-linecap: round"/>
   </g>
   <g id="line2d_9">
    <path d="M 236.9754 102.06 
L 206.3754 102.06 
L 203.8254 109.71 
L 198.7254 94.41 
L 193.6254 109.71 
L 188.5254 94.41 
L 183.4254 109.71 
L 178.3254 94.41 
L 175.7754 102.06 
L 145.1754 102.06 
" clip-path="url(#pd58d9f627e)" style="fill: none; stroke: #000000; stroke-width: 2; stroke-linecap: round"/>
   </g>
   <g id="line2d_10">
    <path d="M 145.1754 102.06 
L 114.5754 102.06 
L 112.0254 109.71 
L 106.9254 94.41 
L 101.8254 109.71 
L 96.7254 94.41 
L 91.6254 109.71 
L 86.5254 94.41 
L 83.9754 102.06 
L 53.3754 102.06 
" clip-path="url(#pd58d9f627e)" style="fill: none; stroke: #000000; stroke-width: 2; stroke-linecap: round"/>
   </g>
   <g id="line2d_11">
    <path d="M 53.3754 102.06 
L 53.3754 132.66 
L 53.3754 132.66 
M 53.3754 163.26 
L 53.3754 163.26 
L 53.3754 193.86 
" clip-path="url(#pd58d9f627e)" style="fill: none; stroke: #000000; stroke-width: 2; stroke-linecap: round"/>
   </g>
   <g id="line2d_12">
    <path d="M 56.4354 155.61 
L 50.3154 155.61 
" clip-path="url(#pd58d9f627e)" style="fill: none; stroke: #000000; stroke-width: 2; stroke-linecap: round"/>
   </g>
   <g id="line2d_13">
    <path d="M 53.3754 137.25 
L 53.3754 143.37 
" clip-path="url(#pd58d9f627e)" style="fill: none; stroke: #000000; stroke-width: 2; stroke-linecap: round"/>
   </g>
   <g id="line2d_14">
    <path d="M 56.4354 140.31 
L 50.3154 140.31 
" clip-path="url(#pd58d9f627e)" style="fill: none; stroke: #000000; stroke-width: 2; stroke-linecap: round"/>
   </g>
   <g id="line2d_15">
    <path d="M 53.3754 193.86 
L 53.3754 206.1 
L 45.7254 206.1 
L 53.3754 213.75 
L 61.0254 206.1 
L 53.3754 206.1 
" clip-path="url(#pd58d9f627e)" style="fill: none; stroke: #000000; stroke-width: 2; stroke-linecap: round"/>
   </g>
   <g id="line2d_16">
    <path d="M 236.9754 102.06 
L 236.9754 132.66 
L 244.6254 135.21 
L 229.3254 140.31 
L 244.6254 145.41 
L 229.3254 150.51 
L 244.6254 155.61 
L 229.3254 160.71 
L 236.9754 163.26 
L 236.9754 193.86 
" clip-path="url(#pd58d9f627e)" style="fill: none; stroke: #000000; stroke-width: 2; stroke-linecap: round"/>
   </g>
   <g id="line2d_17">
    <path d="M 236.9754 193.86 
L 145.1754 193.86 
L 53.3754 193.86 
" clip-path="url(#pd58d9f627e)" style="fill: none; stroke: #000000; stroke-width: 2; stroke-linecap: round"/>
   </g>
   <g id="line2d_18">
    <path d="M 267.5754 140.31 
L 267.5754 167.085 
L 267.5754 193.86 
" clip-path="url(#pd58d9f627e)" style="fill: none; stroke: #000000; stroke-width: 2; stroke-linecap: round"/>
   </g>
   <g id="line2d_19">
    <path d="M 145.1754 102.06 
L 145.1754 71.46 
L 137.5254 68.91 
L 152.8254 63.81 
L 137.5254 58.71 
L 152.8254 53.61 
L 137.5254 48.51 
L 152.8254 43.41 
L 145.1754 40.86 
L 145.1754 10.26 
" clip-path="url(#pd58d9f627e)" style="fill: none; stroke: #000000; stroke-width: 2; stroke-linecap: round"/>
   </g>
   <g id="line2d_20">
    <path d="M 145.1754 10.26 
L 258.625872 10.26 
L 372.076343 10.26 
" clip-path="url(#pd58d9f627e)" style="fill: none; stroke: #000000; stroke-width: 2; stroke-linecap: round"/>
   </g>
   <g id="line2d_21">
    <path d="M 372.076343 10.26 
L 372.076343 102.06 
L 372.076343 193.86 
" clip-path="url(#pd58d9f627e)" style="fill: none; stroke: #000000; stroke-width: 2; stroke-linecap: round"/>
   </g>
   <g id="line2d_22">
    <path d="M 372.076343 193.86 
L 319.825872 193.86 
L 267.5754 193.86 
" clip-path="url(#pd58d9f627e)" style="fill: none; stroke: #000000; stroke-width: 2; stroke-linecap: round"/>
   </g>
   <g id="line2d_23">
    <path d="M 372.076343 121.185 
L 387.376343 121.185 
L 402.676343 121.185 
" clip-path="url(#pd58d9f627e)" style="fill: none; stroke: #000000; stroke-width: 2; stroke-linecap: round"/>
   </g>
   <g id="line2d_24">
    <path d="M 83.9754 117.36 
L 99.2754 117.36 
L 106.9254 117.36 
" clip-path="url(#pd58d9f627e)" style="fill: none; stroke: #0000ff; stroke-width: 2; stroke-linecap: round"/>
   </g>
   <g id="patch_4">
    <path d="M 106.9254 115.065 
L 114.5754 117.36 
L 106.9254 119.655 
z
" clip-path="url(#pd58d9f627e)" style="fill: #0000ff"/>
   </g>
   <g id="line2d_25">
    <path d="M 175.7754 117.36 
L 191.0754 117.36 
L 198.7254 117.36 
" clip-path="url(#pd58d9f627e)" style="fill: none; stroke: #0000ff; stroke-width: 2; stroke-linecap: round"/>
   </g>
   <g id="patch_5">
    <path d="M 198.7254 115.065 
L 206.3754 117.36 
L 198.7254 119.655 
z
" clip-path="url(#pd58d9f627e)" style="fill: #0000ff"/>
   </g>
   <g id="line2d_26">
    <path d="M 160.4754 40.86 
L 160.4754 56.16 
L 160.4754 63.81 
" clip-path="url(#pd58d9f627e)" style="fill: none; stroke: #0000ff; stroke-width: 2; stroke-linecap: round"/>
   </g>
   <g id="patch_6">
    <path d="M 162.7704 63.81 
L 160.4754 71.46 
L 158.1804 63.81 
z
" clip-path="url(#pd58d9f627e)" style="fill: #0000ff"/>
   </g>
   <g id="line2d_27">
    <path d="M 252.2754 132.66 
L 252.2754 147.96 
L 252.2754 155.61 
" clip-path="url(#pd58d9f627e)" style="fill: none; stroke: #0000ff; stroke-width: 2; stroke-linecap: round"/>
   </g>
   <g id="patch_7">
    <path d="M 254.5704 155.61 
L 252.2754 163.26 
L 249.9804 155.61 
z
" clip-path="url(#pd58d9f627e)" style="fill: #0000ff"/>
   </g>
   <g id="line2d_28">
    <path d="M 286.7004 121.185 
L 286.7004 82.935 
L 352.951343 121.185 
L 286.7004 159.435 
L 286.7004 121.185 
M 352.951343 121.185 
" clip-path="url(#pd58d9f627e)" style="fill: none; stroke: #000000; stroke-width: 2; stroke-linecap: round"/>
   </g>
   <g id="line2d_29">
    <path d="M 291.921768 102.06 
L 298.041768 102.06 
" clip-path="url(#pd58d9f627e)" style="fill: none; stroke: #000000; stroke-width: 2; stroke-linecap: round"/>
   </g>
   <g id="line2d_30">
    <path d="M 291.921768 140.31 
L 298.041768 140.31 
" clip-path="url(#pd58d9f627e)" style="fill: none; stroke: #000000; stroke-width: 2; stroke-linecap: round"/>
   </g>
   <g id="line2d_31">
    <path d="M 294.981768 143.37 
L 294.981768 137.25 
" clip-path="url(#pd58d9f627e)" style="fill: none; stroke: #000000; stroke-width: 2; stroke-linecap: round"/>
   </g>
   <g id="line2d_32">
    <path d="M 267.5754 102.06 
L 286.7004 102.06 
" clip-path="url(#pd58d9f627e)" style="fill: none; stroke: #000000; stroke-width: 2; stroke-linecap: round"/>
   </g>
   <g id="line2d_33">
    <path d="M 267.5754 140.31 
L 286.7004 140.31 
" clip-path="url(#pd58d9f627e)" style="fill: none; stroke: #000000; stroke-width: 2; stroke-linecap: round"/>
   </g>
   <g id="line2d_34">
    <path d="M 352.951343 121.185 
L 372.076343 121.185 
" clip-path="url(#pd58d9f627e)" style="fill: none; stroke: #000000; stroke-width: 2; stroke-linecap: round"/>
   </g>
   <g id="line2d_35">
    <path d="M 267.5754 102.06 
L 252.2754 102.06 
L 236.9754 102.06 
" clip-path="url(#pd58d9f627e)" style="fill: none; stroke: #000000; stroke-width: 2; stroke-linecap: round"/>
   </g>
   <g id="line2d_36">
    <path d="M 236.9754 102.06 
L 206.3754 102.06 
L 203.8254 109.71 
L 198.7254 94.41 
L 193.6254 109.71 
L 188.5254 94.41 
L 183.4254 109.71 
L 178.3254 94.41 
L 175.7754 102.06 
L 145.1754 102.06 
" clip-path="url(#pd58d9f627e)" style="fill: none; stroke: #000000; stroke-width: 2; stroke-linecap: round"/>
   </g>
   <g id="line2d_37">
    <path d="M 145.1754 102.06 
L 114.5754 102.06 
L 112.0254 109.71 
L 106.9254 94.41 
L 101.8254 109.71 
L 96.7254 94.41 
L 91.6254 109.71 
L 86.5254 94.41 
L 83.9754 102.06 
L 53.3754 102.06 
" clip-path="url(#pd58d9f627e)" style="fill: none; stroke: #000000; stroke-width: 2; stroke-linecap: round"/>
   </g>
   <g id="line2d_38">
    <path d="M 53.3754 102.06 
L 53.3754 132.66 
L 53.3754 132.66 
M 53.3754 163.26 
L 53.3754 163.26 
L 53.3754 193.86 
" clip-path="url(#pd58d9f627e)" style="fill: none; stroke: #000000; stroke-width: 2; stroke-linecap: round"/>
   </g>
   <g id="line2d_39">
    <path d="M 56.4354 155.61 
L 50.3154 155.61 
" clip-path="url(#pd58d9f627e)" style="fill: none; stroke: #000000; stroke-width: 2; stroke-linecap: round"/>
   </g>
   <g id="line2d_40">
    <path d="M 53.3754 137.25 
L 53.3754 143.37 
" clip-path="url(#pd58d9f627e)" style="fill: none; stroke: #000000; stroke-width: 2; stroke-linecap: round"/>
   </g>
   <g id="line2d_41">
    <path d="M 56.4354 140.31 
L 50.3154 140.31 
" clip-path="url(#pd58d9f627e)" style="fill: none; stroke: #000000; stroke-width: 2; stroke-linecap: round"/>
   </g>
   <g id="line2d_42">
    <path d="M 53.3754 193.86 
L 53.3754 206.1 
L 45.7254 206.1 
L 53.3754 213.75 
L 61.0254 206.1 
L 53.3754 206.1 
" clip-path="url(#pd58d9f627e)" style="fill: none; stroke: #000000; stroke-width: 2; stroke-linecap: round"/>
   </g>
   <g id="line2d_43">
    <path d="M 236.9754 102.06 
L 236.9754 132.66 
L 244.6254 135.21 
L 229.3254 140.31 
L 244.6254 145.41 
L 229.3254 150.51 
L 244.6254 155.61 
L 229.3254 160.71 
L 236.9754 163.26 
L 236.9754 193.86 
" clip-path="url(#pd58d9f627e)" style="fill: none; stroke: #000000; stroke-width: 2; stroke-linecap: round"/>
   </g>
   <g id="line2d_44">
    <path d="M 236.9754 193.86 
L 145.1754 193.86 
L 53.3754 193.86 
" clip-path="url(#pd58d9f627e)" style="fill: none; stroke: #000000; stroke-width: 2; stroke-linecap: round"/>
   </g>
   <g id="line2d_45">
    <path d="M 267.5754 140.31 
L 267.5754 167.085 
L 267.5754 193.86 
" clip-path="url(#pd58d9f627e)" style="fill: none; stroke: #000000; stroke-width: 2; stroke-linecap: round"/>
   </g>
   <g id="line2d_46">
    <path d="M 145.1754 102.06 
L 145.1754 71.46 
L 137.5254 68.91 
L 152.8254 63.81 
L 137.5254 58.71 
L 152.8254 53.61 
L 137.5254 48.51 
L 152.8254 43.41 
L 145.1754 40.86 
L 145.1754 10.26 
" clip-path="url(#pd58d9f627e)" style="fill: none; stroke: #000000; stroke-width: 2; stroke-linecap: round"/>
   </g>
   <g id="line2d_47">
    <path d="M 145.1754 10.26 
L 258.625872 10.26 
L 372.076343 10.26 
" clip-path="url(#pd58d9f627e)" style="fill: none; stroke: #000000; stroke-width: 2; stroke-linecap: round"/>
   </g>
   <g id="line2d_48">
    <path d="M 372.076343 10.26 
L 372.076343 102.06 
L 372.076343 193.86 
" clip-path="url(#pd58d9f627e)" style="fill: none; stroke: #000000; stroke-width: 2; stroke-linecap: round"/>
   </g>
   <g id="line2d_49">
    <path d="M 372.076343 193.86 
L 319.825872 193.86 
L 267.5754 193.86 
" clip-path="url(#pd58d9f627e)" style="fill: none; stroke: #000000; stroke-width: 2; stroke-linecap: round"/>
   </g>
   <g id="line2d_50">
    <path d="M 372.076343 121.185 
L 387.376343 121.185 
L 402.676343 121.185 
" clip-path="url(#pd58d9f627e)" style="fill: none; stroke: #000000; stroke-width: 2; stroke-linecap: round"/>
   </g>
   <g id="line2d_51">
    <path d="M 83.9754 117.36 
L 99.2754 117.36 
L 106.9254 117.36 
" clip-path="url(#pd58d9f627e)" style="fill: none; stroke: #0000ff; stroke-width: 2; stroke-linecap: round"/>
   </g>
   <g id="patch_8">
    <path d="M 106.9254 115.065 
L 114.5754 117.36 
L 106.9254 119.655 
z
" clip-path="url(#pd58d9f627e)" style="fill: #0000ff"/>
   </g>
   <g id="line2d_52">
    <path d="M 175.7754 117.36 
L 191.0754 117.36 
L 198.7254 117.36 
" clip-path="url(#pd58d9f627e)" style="fill: none; stroke: #0000ff; stroke-width: 2; stroke-linecap: round"/>
   </g>
   <g id="patch_9">
    <path d="M 198.7254 115.065 
L 206.3754 117.36 
L 198.7254 119.655 
z
" clip-path="url(#pd58d9f627e)" style="fill: #0000ff"/>
   </g>
   <g id="line2d_53">
    <path d="M 160.4754 40.86 
L 160.4754 56.16 
L 160.4754 63.81 
" clip-path="url(#pd58d9f627e)" style="fill: none; stroke: #0000ff; stroke-width: 2; stroke-linecap: round"/>
   </g>
   <g id="patch_10">
    <path d="M 162.7704 63.81 
L 160.4754 71.46 
L 158.1804 63.81 
z
" clip-path="url(#pd58d9f627e)" style="fill: #0000ff"/>
   </g>
   <g id="line2d_54">
    <path d="M 252.2754 132.66 
L 252.2754 147.96 
L 252.2754 155.61 
" clip-path="url(#pd58d9f627e)" style="fill: none; stroke: #0000ff; stroke-width: 2; stroke-linecap: round"/>
   </g>
   <g id="patch_11">
    <path d="M 254.5704 155.61 
L 252.2754 163.26 
L 249.9804 155.61 
z
" clip-path="url(#pd58d9f627e)" style="fill: #0000ff"/>
   </g>
   <g id="text_1">
    <g clip-path="url(#pd58d9f627e)">
     <!-- C -->
     <g transform="translate(240.261142 91.810391)scale(0.125 -0.125)">
      <defs>
       <path id="DejaVuSans-43" d="M 4122 4306 
L 4122 3641 
Q 3803 3938 3442 4084 
Q 3081 4231 2675 4231 
Q 1875 4231 1450 3742 
Q 1025 3253 1025 2328 
Q 1025 1406 1450 917 
Q 1875 428 2675 428 
Q 3081 428 3442 575 
Q 3803 722 4122 1019 
L 4122 359 
Q 3791 134 3420 21 
Q 3050 -91 2638 -91 
Q 1578 -91 968 557 
Q 359 1206 359 2328 
Q 359 3453 968 4101 
Q 1578 4750 2638 4750 
Q 3056 4750 3426 4639 
Q 3797 4528 4122 4306 
z
" transform="scale(0.015625)"/>
      </defs>
      <use xlink:href="#DejaVuSans-43"/>
     </g>
    </g>
   </g>
   <g id="text_2">
    <g clip-path="url(#pd58d9f627e)">
     <!-- $R_{2}$ -->
     <g transform="translate(184.7629 74.753125)scale(0.125 -0.125)">
      <defs>
       <path id="STIXGeneral-Italic-52" d="M 845 4179 
L 2458 4179 
Q 3078 4179 3420 3936 
Q 3763 3693 3763 3277 
Q 3763 2778 3341 2458 
Q 3091 2266 2502 2131 
L 3072 627 
Q 3181 333 3299 217 
Q 3418 102 3629 102 
L 3629 0 
L 2688 0 
L 1901 2074 
L 1478 2106 
L 1126 806 
Q 1043 512 1043 403 
Q 1043 256 1126 192 
Q 1210 128 1472 102 
L 1472 0 
L -83 0 
L -83 102 
Q 173 134 278 243 
Q 384 352 461 646 
L 1222 3405 
Q 1299 3699 1299 3808 
Q 1299 3923 1210 3987 
Q 1133 4038 845 4077 
L 845 4179 
z
M 1958 3795 
L 1555 2342 
Q 1754 2310 1882 2310 
Q 2451 2310 2771 2566 
Q 3091 2822 3091 3270 
Q 3091 3603 2892 3795 
Q 2694 3987 2323 3987 
Q 2010 3987 1958 3795 
z
" transform="scale(0.015625)"/>
       <path id="STIXGeneral-Regular-32" d="M 3034 877 
L 2688 0 
L 186 0 
L 186 77 
L 1325 1286 
Q 1773 1754 1965 2144 
Q 2157 2534 2157 2950 
Q 2157 3379 1920 3616 
Q 1683 3853 1267 3853 
Q 922 3853 720 3673 
Q 518 3494 326 3021 
L 192 3053 
Q 301 3648 630 3987 
Q 960 4326 1523 4326 
Q 2054 4326 2380 4006 
Q 2707 3686 2707 3200 
Q 2707 2477 1888 1613 
L 832 486 
L 2330 486 
Q 2541 486 2665 569 
Q 2790 653 2944 915 
L 3034 877 
z
" transform="scale(0.015625)"/>
      </defs>
      <use xlink:href="#STIXGeneral-Italic-52" transform="translate(0 0.703125)"/>
      <use xlink:href="#STIXGeneral-Regular-32" transform="translate(61.099991 -12.525)scale(0.7)"/>
     </g>
    </g>
    <g clip-path="url(#pd58d9f627e)">
     <!-- 7kΩ -->
     <g transform="translate(178.70333 88.750391)scale(0.125 -0.125)">
      <defs>
       <path id="DejaVuSans-37" d="M 525 4666 
L 3525 4666 
L 3525 4397 
L 1831 0 
L 1172 0 
L 2766 4134 
L 525 4134 
L 525 4666 
z
" transform="scale(0.015625)"/>
       <path id="DejaVuSans-6b" d="M 581 4863 
L 1159 4863 
L 1159 1991 
L 2875 3500 
L 3609 3500 
L 1753 1863 
L 3688 0 
L 2938 0 
L 1159 1709 
L 1159 0 
L 581 0 
L 581 4863 
z
" transform="scale(0.015625)"/>
       <path id="DejaVuSans-3a9" d="M 4647 556 
L 4647 0 
L 2772 0 
L 2772 556 
Q 3325 859 3634 1378 
Q 3944 1897 3944 2528 
Q 3944 3278 3531 3731 
Q 3119 4184 2444 4184 
Q 1769 4184 1355 3729 
Q 941 3275 941 2528 
Q 941 1897 1250 1378 
Q 1563 859 2119 556 
L 2119 0 
L 244 0 
L 244 556 
L 1241 556 
Q 747 991 519 1456 
Q 294 1922 294 2497 
Q 294 3491 894 4106 
Q 1491 4722 2444 4722 
Q 3391 4722 3994 4106 
Q 4594 3494 4594 2528 
Q 4594 1922 4372 1459 
Q 4150 997 3647 556 
L 4647 556 
z
" transform="scale(0.015625)"/>
      </defs>
      <use xlink:href="#DejaVuSans-37"/>
      <use xlink:href="#DejaVuSans-6b" x="63.623047"/>
      <use xlink:href="#DejaVuSans-3a9" x="121.533203"/>
     </g>
    </g>
   </g>
   <g id="text_3">
    <g clip-path="url(#pd58d9f627e)">
     <!-- B -->
     <g transform="translate(128.949228 90.209219)scale(0.125 -0.125)">
      <defs>
       <path id="DejaVuSans-42" d="M 1259 2228 
L 1259 519 
L 2272 519 
Q 2781 519 3026 730 
Q 3272 941 3272 1375 
Q 3272 1813 3026 2020 
Q 2781 2228 2272 2228 
L 1259 2228 
z
M 1259 4147 
L 1259 2741 
L 2194 2741 
Q 2656 2741 2882 2914 
Q 3109 3088 3109 3444 
Q 3109 3797 2882 3972 
Q 2656 4147 2194 4147 
L 1259 4147 
z
M 628 4666 
L 2241 4666 
Q 2963 4666 3353 4366 
Q 3744 4066 3744 3513 
Q 3744 3084 3544 2831 
Q 3344 2578 2956 2516 
Q 3422 2416 3680 2098 
Q 3938 1781 3938 1306 
Q 3938 681 3513 340 
Q 3088 0 2303 0 
L 628 0 
L 628 4666 
z
" transform="scale(0.015625)"/>
      </defs>
      <use xlink:href="#DejaVuSans-42"/>
     </g>
    </g>
   </g>
   <g id="text_4">
    <g clip-path="url(#pd58d9f627e)">
     <!-- $R_{1}$ -->
     <g transform="translate(92.9629 74.753125)scale(0.125 -0.125)">
      <defs>
       <path id="STIXGeneral-Regular-31" d="M 2522 0 
L 755 0 
L 755 96 
Q 1107 115 1235 227 
Q 1363 339 1363 608 
L 1363 3482 
Q 1363 3795 1171 3795 
Q 1082 3795 883 3718 
L 710 3654 
L 710 3744 
L 1856 4326 
L 1914 4307 
L 1914 486 
Q 1914 275 2042 185 
Q 2170 96 2522 96 
L 2522 0 
z
" transform="scale(0.015625)"/>
      </defs>
      <use xlink:href="#STIXGeneral-Italic-52" transform="translate(0 0.703125)"/>
      <use xlink:href="#STIXGeneral-Regular-31" transform="translate(61.099991 -12.525)scale(0.7)"/>
     </g>
    </g>
    <g clip-path="url(#pd58d9f627e)">
     <!-- 4kΩ -->
     <g transform="translate(86.90333 88.750391)scale(0.125 -0.125)">
      <defs>
       <path id="DejaVuSans-34" d="M 2419 4116 
L 825 1625 
L 2419 1625 
L 2419 4116 
z
M 2253 4666 
L 3047 4666 
L 3047 1625 
L 3713 1625 
L 3713 1100 
L 3047 1100 
L 3047 0 
L 2419 0 
L 2419 1100 
L 313 1100 
L 313 1709 
L 2253 4666 
z
" transform="scale(0.015625)"/>
      </defs>
      <use xlink:href="#DejaVuSans-34"/>
      <use xlink:href="#DejaVuSans-6b" x="63.623047"/>
      <use xlink:href="#DejaVuSans-3a9" x="121.533203"/>
     </g>
    </g>
   </g>
   <g id="text_5">
    <g clip-path="url(#pd58d9f627e)">
     <!-- A -->
     <g transform="translate(37.174619 90.209219)scale(0.125 -0.125)">
      <defs>
       <path id="DejaVuSans-41" d="M 2188 4044 
L 1331 1722 
L 3047 1722 
L 2188 4044 
z
M 1831 4666 
L 2547 4666 
L 4325 0 
L 3669 0 
L 3244 1197 
L 1141 1197 
L 716 0 
L 50 0 
L 1831 4666 
z
" transform="scale(0.015625)"/>
      </defs>
      <use xlink:href="#DejaVuSans-41"/>
     </g>
    </g>
   </g>
   <g id="text_6">
    <g clip-path="url(#pd58d9f627e)">
     <!-- $V_{S}$ -->
     <g transform="translate(22.3904 144.410586)scale(0.125 -0.125)">
      <defs>
       <path id="STIXGeneral-Italic-56" d="M 4403 4179 
L 4403 4077 
Q 4198 4070 4045 3821 
L 1658 -115 
L 1536 -115 
L 1011 3104 
Q 902 3776 828 3910 
Q 755 4045 486 4077 
L 486 4179 
L 2022 4179 
L 2022 4077 
Q 1722 4045 1629 3981 
Q 1536 3917 1536 3750 
Q 1536 3686 1542 3654 
L 1958 819 
L 3302 3123 
Q 3616 3661 3616 3859 
Q 3616 4032 3219 4077 
L 3219 4179 
L 4403 4179 
z
" transform="scale(0.015625)"/>
       <path id="STIXGeneral-Italic-53" d="M 3251 4269 
L 2995 2989 
L 2880 3008 
Q 2880 3539 2720 3795 
Q 2560 4051 2118 4051 
Q 1786 4051 1594 3881 
Q 1402 3712 1402 3411 
Q 1402 3168 1504 3005 
Q 1606 2842 2035 2413 
Q 2464 1978 2611 1715 
Q 2758 1453 2758 1133 
Q 2758 589 2390 237 
Q 2022 -115 1466 -115 
Q 1222 -115 800 32 
Q 595 109 499 109 
Q 288 109 224 -96 
L 109 -96 
L 326 1338 
L 454 1325 
Q 442 1267 442 1178 
Q 442 710 701 409 
Q 960 109 1363 109 
Q 1734 109 1968 336 
Q 2202 563 2202 928 
Q 2202 1139 2118 1308 
Q 2035 1478 1818 1715 
L 1568 1984 
Q 1549 2003 1459 2102 
Q 1370 2202 1318 2253 
Q 1030 2560 934 2755 
Q 838 2950 838 3213 
Q 838 3699 1168 3980 
Q 1498 4262 1978 4262 
Q 2310 4262 2522 4173 
Q 2707 4102 2816 4102 
Q 2925 4102 2982 4134 
Q 3040 4166 3104 4269 
L 3251 4269 
z
" transform="scale(0.015625)"/>
      </defs>
      <use xlink:href="#STIXGeneral-Italic-56" transform="translate(0 0.703125)"/>
      <use xlink:href="#STIXGeneral-Italic-53" transform="translate(61.099991 -12.525)scale(0.7)"/>
     </g>
    </g>
    <g clip-path="url(#pd58d9f627e)">
     <!-- 2V -->
     <g transform="translate(18.511494 158.407852)scale(0.125 -0.125)">
      <defs>
       <path id="DejaVuSans-32" d="M 1228 531 
L 3431 531 
L 3431 0 
L 469 0 
L 469 531 
Q 828 903 1448 1529 
Q 2069 2156 2228 2338 
Q 2531 2678 2651 2914 
Q 2772 3150 2772 3378 
Q 2772 3750 2511 3984 
Q 2250 4219 1831 4219 
Q 1534 4219 1204 4116 
Q 875 4013 500 3803 
L 500 4441 
Q 881 4594 1212 4672 
Q 1544 4750 1819 4750 
Q 2544 4750 2975 4387 
Q 3406 4025 3406 3419 
Q 3406 3131 3298 2873 
Q 3191 2616 2906 2266 
Q 2828 2175 2409 1742 
Q 1991 1309 1228 531 
z
" transform="scale(0.015625)"/>
       <path id="DejaVuSans-56" d="M 1831 0 
L 50 4666 
L 709 4666 
L 2188 738 
L 3669 4666 
L 4325 4666 
L 2547 0 
L 1831 0 
z
" transform="scale(0.015625)"/>
      </defs>
      <use xlink:href="#DejaVuSans-32"/>
      <use xlink:href="#DejaVuSans-56" x="63.623047"/>
     </g>
    </g>
   </g>
   <g id="text_7">
    <g clip-path="url(#pd58d9f627e)">
     <!-- $R_{3}$ -->
     <g transform="translate(213.6404 144.410586)scale(0.125 -0.125)">
      <defs>
       <path id="STIXGeneral-Regular-33" d="M 390 3264 
L 288 3290 
Q 435 3770 748 4048 
Q 1062 4326 1542 4326 
Q 1990 4326 2265 4083 
Q 2541 3840 2541 3450 
Q 2541 2925 1946 2566 
Q 2298 2413 2477 2227 
Q 2758 1914 2758 1402 
Q 2758 890 2464 506 
Q 2246 211 1840 60 
Q 1434 -90 979 -90 
Q 262 -90 262 275 
Q 262 378 339 442 
Q 416 506 525 506 
Q 685 506 915 339 
Q 1197 141 1466 141 
Q 1818 141 2058 425 
Q 2298 710 2298 1120 
Q 2298 1856 1632 2048 
Q 1434 2112 979 2112 
L 979 2202 
Q 1338 2323 1517 2432 
Q 2035 2726 2035 3290 
Q 2035 3610 1852 3776 
Q 1670 3942 1344 3942 
Q 768 3942 390 3264 
z
" transform="scale(0.015625)"/>
      </defs>
      <use xlink:href="#STIXGeneral-Italic-52" transform="translate(0 0.703125)"/>
      <use xlink:href="#STIXGeneral-Regular-33" transform="translate(61.099991 -12.525)scale(0.7)"/>
     </g>
    </g>
    <g clip-path="url(#pd58d9f627e)">
     <!-- 10kΩ -->
     <g transform="translate(193.568134 158.407852)scale(0.125 -0.125)">
      <defs>
       <path id="DejaVuSans-31" d="M 794 531 
L 1825 531 
L 1825 4091 
L 703 3866 
L 703 4441 
L 1819 4666 
L 2450 4666 
L 2450 531 
L 3481 531 
L 3481 0 
L 794 0 
L 794 531 
z
" transform="scale(0.015625)"/>
       <path id="DejaVuSans-30" d="M 2034 4250 
Q 1547 4250 1301 3770 
Q 1056 3291 1056 2328 
Q 1056 1369 1301 889 
Q 1547 409 2034 409 
Q 2525 409 2770 889 
Q 3016 1369 3016 2328 
Q 3016 3291 2770 3770 
Q 2525 4250 2034 4250 
z
M 2034 4750 
Q 2819 4750 3233 4129 
Q 3647 3509 3647 2328 
Q 3647 1150 3233 529 
Q 2819 -91 2034 -91 
Q 1250 -91 836 529 
Q 422 1150 422 2328 
Q 422 3509 836 4129 
Q 1250 4750 2034 4750 
z
" transform="scale(0.015625)"/>
      </defs>
      <use xlink:href="#DejaVuSans-31"/>
      <use xlink:href="#DejaVuSans-30" x="63.623047"/>
      <use xlink:href="#DejaVuSans-6b" x="127.246094"/>
      <use xlink:href="#DejaVuSans-3a9" x="185.15625"/>
     </g>
    </g>
   </g>
   <g id="text_8">
    <g clip-path="url(#pd58d9f627e)">
     <!-- $R_{4}$ -->
     <g transform="translate(121.8404 52.610586)scale(0.125 -0.125)">
      <defs>
       <path id="STIXGeneral-Regular-34" d="M 3027 1069 
L 2368 1069 
L 2368 0 
L 1869 0 
L 1869 1069 
L 77 1069 
L 77 1478 
L 2086 4326 
L 2368 4326 
L 2368 1478 
L 3027 1478 
L 3027 1069 
z
M 1869 1478 
L 1869 3674 
L 333 1478 
L 1869 1478 
z
" transform="scale(0.015625)"/>
      </defs>
      <use xlink:href="#STIXGeneral-Italic-52" transform="translate(0 0.703125)"/>
      <use xlink:href="#STIXGeneral-Regular-34" transform="translate(61.099991 -12.525)scale(0.7)"/>
     </g>
    </g>
    <g clip-path="url(#pd58d9f627e)">
     <!-- 5kΩ -->
     <g transform="translate(109.721259 66.607852)scale(0.125 -0.125)">
      <defs>
       <path id="DejaVuSans-35" d="M 691 4666 
L 3169 4666 
L 3169 4134 
L 1269 4134 
L 1269 2991 
Q 1406 3038 1543 3061 
Q 1681 3084 1819 3084 
Q 2600 3084 3056 2656 
Q 3513 2228 3513 1497 
Q 3513 744 3044 326 
Q 2575 -91 1722 -91 
Q 1428 -91 1123 -41 
Q 819 9 494 109 
L 494 744 
Q 775 591 1075 516 
Q 1375 441 1709 441 
Q 2250 441 2565 725 
Q 2881 1009 2881 1497 
Q 2881 1984 2565 2268 
Q 2250 2553 1709 2553 
Q 1456 2553 1204 2497 
Q 953 2441 691 2322 
L 691 4666 
z
" transform="scale(0.015625)"/>
      </defs>
      <use xlink:href="#DejaVuSans-35"/>
      <use xlink:href="#DejaVuSans-6b" x="63.623047"/>
      <use xlink:href="#DejaVuSans-3a9" x="121.533203"/>
     </g>
    </g>
   </g>
   <g id="text_9">
    <g clip-path="url(#pd58d9f627e)">
     <!-- C -->
     <g transform="translate(240.261142 91.810391)scale(0.125 -0.125)">
      <use xlink:href="#DejaVuSans-43"/>
     </g>
    </g>
   </g>
   <g id="text_10">
    <g clip-path="url(#pd58d9f627e)">
     <!-- $R_{2}$ -->
     <g transform="translate(184.7629 74.753125)scale(0.125 -0.125)">
      <use xlink:href="#STIXGeneral-Italic-52" transform="translate(0 0.703125)"/>
      <use xlink:href="#STIXGeneral-Regular-32" transform="translate(61.099991 -12.525)scale(0.7)"/>
     </g>
    </g>
    <g clip-path="url(#pd58d9f627e)">
     <!-- 7kΩ -->
     <g transform="translate(178.70333 88.750391)scale(0.125 -0.125)">
      <use xlink:href="#DejaVuSans-37"/>
      <use xlink:href="#DejaVuSans-6b" x="63.623047"/>
      <use xlink:href="#DejaVuSans-3a9" x="121.533203"/>
     </g>
    </g>
   </g>
   <g id="text_11">
    <g clip-path="url(#pd58d9f627e)">
     <!-- B -->
     <g transform="translate(128.949228 90.209219)scale(0.125 -0.125)">
      <use xlink:href="#DejaVuSans-42"/>
     </g>
    </g>
   </g>
   <g id="text_12">
    <g clip-path="url(#pd58d9f627e)">
     <!-- $R_{1}$ -->
     <g transform="translate(92.9629 74.753125)scale(0.125 -0.125)">
      <use xlink:href="#STIXGeneral-Italic-52" transform="translate(0 0.703125)"/>
      <use xlink:href="#STIXGeneral-Regular-31" transform="translate(61.099991 -12.525)scale(0.7)"/>
     </g>
    </g>
    <g clip-path="url(#pd58d9f627e)">
     <!-- 4kΩ -->
     <g transform="translate(86.90333 88.750391)scale(0.125 -0.125)">
      <use xlink:href="#DejaVuSans-34"/>
      <use xlink:href="#DejaVuSans-6b" x="63.623047"/>
      <use xlink:href="#DejaVuSans-3a9" x="121.533203"/>
     </g>
    </g>
   </g>
   <g id="text_13">
    <g clip-path="url(#pd58d9f627e)">
     <!-- A -->
     <g transform="translate(37.174619 90.209219)scale(0.125 -0.125)">
      <use xlink:href="#DejaVuSans-41"/>
     </g>
    </g>
   </g>
   <g id="text_14">
    <g clip-path="url(#pd58d9f627e)">
     <!-- $V_{S}$ -->
     <g transform="translate(22.3904 144.410586)scale(0.125 -0.125)">
      <use xlink:href="#STIXGeneral-Italic-56" transform="translate(0 0.703125)"/>
      <use xlink:href="#STIXGeneral-Italic-53" transform="translate(61.099991 -12.525)scale(0.7)"/>
     </g>
    </g>
    <g clip-path="url(#pd58d9f627e)">
     <!-- 2V -->
     <g transform="translate(18.511494 158.407852)scale(0.125 -0.125)">
      <use xlink:href="#DejaVuSans-32"/>
      <use xlink:href="#DejaVuSans-56" x="63.623047"/>
     </g>
    </g>
   </g>
   <g id="text_15">
    <g clip-path="url(#pd58d9f627e)">
     <!-- $R_{3}$ -->
     <g transform="translate(213.6404 144.410586)scale(0.125 -0.125)">
      <use xlink:href="#STIXGeneral-Italic-52" transform="translate(0 0.703125)"/>
      <use xlink:href="#STIXGeneral-Regular-33" transform="translate(61.099991 -12.525)scale(0.7)"/>
     </g>
    </g>
    <g clip-path="url(#pd58d9f627e)">
     <!-- 10kΩ -->
     <g transform="translate(193.568134 158.407852)scale(0.125 -0.125)">
      <use xlink:href="#DejaVuSans-31"/>
      <use xlink:href="#DejaVuSans-30" x="63.623047"/>
      <use xlink:href="#DejaVuSans-6b" x="127.246094"/>
      <use xlink:href="#DejaVuSans-3a9" x="185.15625"/>
     </g>
    </g>
   </g>
   <g id="text_16">
    <g clip-path="url(#pd58d9f627e)">
     <!-- $R_{4}$ -->
     <g transform="translate(121.8404 52.610586)scale(0.125 -0.125)">
      <use xlink:href="#STIXGeneral-Italic-52" transform="translate(0 0.703125)"/>
      <use xlink:href="#STIXGeneral-Regular-34" transform="translate(61.099991 -12.525)scale(0.7)"/>
     </g>
    </g>
    <g clip-path="url(#pd58d9f627e)">
     <!-- 5kΩ -->
     <g transform="translate(109.721259 66.607852)scale(0.125 -0.125)">
      <use xlink:href="#DejaVuSans-35"/>
      <use xlink:href="#DejaVuSans-6b" x="63.623047"/>
      <use xlink:href="#DejaVuSans-3a9" x="121.533203"/>
     </g>
    </g>
   </g>
   <g id="patch_12">
    <path d="M 236.9754 104.355 
C 237.584041 104.355 238.167836 104.113184 238.59821 103.68281 
C 239.028584 103.252436 239.2704 102.668641 239.2704 102.06 
C 239.2704 101.451359 239.028584 100.867564 238.59821 100.43719 
C 238.167836 100.006816 237.584041 99.765 236.9754 99.765 
C 236.366759 99.765 235.782964 100.006816 235.35259 100.43719 
C 234.922216 100.867564 234.6804 101.451359 234.6804 102.06 
C 234.6804 102.668641 234.922216 103.252436 235.35259 103.68281 
C 235.782964 104.113184 236.366759 104.355 236.9754 104.355 
z
" clip-path="url(#pd58d9f627e)" style="fill: #ff0000; stroke: #ff0000; stroke-width: 2; stroke-linejoin: miter"/>
   </g>
   <g id="patch_13">
    <path d="M 145.1754 104.355 
C 145.784041 104.355 146.367836 104.113184 146.79821 103.68281 
C 147.228584 103.252436 147.4704 102.668641 147.4704 102.06 
C 147.4704 101.451359 147.228584 100.867564 146.79821 100.43719 
C 146.367836 100.006816 145.784041 99.765 145.1754 99.765 
C 144.566759 99.765 143.982964 100.006816 143.55259 100.43719 
C 143.122216 100.867564 142.8804 101.451359 142.8804 102.06 
C 142.8804 102.668641 143.122216 103.252436 143.55259 103.68281 
C 143.982964 104.113184 144.566759 104.355 145.1754 104.355 
z
" clip-path="url(#pd58d9f627e)" style="fill: #ff0000; stroke: #ff0000; stroke-width: 2; stroke-linejoin: miter"/>
   </g>
   <g id="patch_14">
    <path d="M 53.3754 104.355 
C 53.984041 104.355 54.567836 104.113184 54.99821 103.68281 
C 55.428584 103.252436 55.6704 102.668641 55.6704 102.06 
C 55.6704 101.451359 55.428584 100.867564 54.99821 100.43719 
C 54.567836 100.006816 53.984041 99.765 53.3754 99.765 
C 52.766759 99.765 52.182964 100.006816 51.75259 100.43719 
C 51.322216 100.867564 51.0804 101.451359 51.0804 102.06 
C 51.0804 102.668641 51.322216 103.252436 51.75259 103.68281 
C 52.182964 104.113184 52.766759 104.355 53.3754 104.355 
z
" clip-path="url(#pd58d9f627e)" style="fill: #ff0000; stroke: #ff0000; stroke-width: 2; stroke-linejoin: miter"/>
   </g>
   <g id="line2d_55">
    <path d="M 358.306343 121.185 
L 358.306343 121.185 
" clip-path="url(#pd58d9f627e)" style="fill: none; stroke: #000000; stroke-width: 2; stroke-linecap: round"/>
   </g>
   <g id="patch_15">
    <path d="M 358.306343 116.595 
L 367.486343 121.185 
L 358.306343 125.775 
z
" clip-path="url(#pd58d9f627e)"/>
   </g>
   <g id="text_17">
    <g clip-path="url(#pd58d9f627e)">
     <!-- $I_O$ -->
     <g transform="translate(357.333843 109.405391)scale(0.125 -0.125)">
      <defs>
       <path id="STIXGeneral-Italic-49" d="M 2458 4179 
L 2458 4077 
Q 2189 4045 2102 3961 
Q 2016 3878 1933 3584 
L 1165 838 
Q 1069 499 1069 352 
Q 1069 224 1149 179 
Q 1229 134 1510 102 
L 1510 0 
L -51 0 
L -51 102 
Q 218 154 317 237 
Q 416 320 486 582 
L 1254 3405 
Q 1338 3699 1338 3802 
Q 1338 3930 1235 3997 
Q 1133 4064 877 4077 
L 877 4179 
L 2458 4179 
z
" transform="scale(0.015625)"/>
       <path id="STIXGeneral-Italic-4f" d="M 4474 2675 
Q 4474 1990 4106 1363 
Q 3738 736 3149 339 
Q 2477 -115 1779 -115 
Q 1146 -115 765 281 
Q 384 678 384 1382 
Q 384 1965 697 2582 
Q 1011 3200 1517 3642 
Q 2234 4262 3034 4262 
Q 3718 4269 4096 3840 
Q 4474 3411 4474 2675 
z
M 3802 3078 
Q 3802 3533 3581 3792 
Q 3360 4051 2976 4051 
Q 2342 4051 1786 3302 
Q 1446 2842 1251 2259 
Q 1056 1677 1056 1178 
Q 1056 653 1270 374 
Q 1485 96 1888 96 
Q 2477 96 2976 704 
Q 3354 1178 3578 1862 
Q 3802 2547 3802 3078 
z
" transform="scale(0.015625)"/>
      </defs>
      <use xlink:href="#STIXGeneral-Italic-49" transform="translate(0 0.703125)"/>
      <use xlink:href="#STIXGeneral-Italic-4f" transform="translate(33.299988 -12.525)scale(0.7)"/>
     </g>
    </g>
   </g>
   <g id="patch_16">
    <path d="M 402.676343 123.48 
C 403.284985 123.48 403.868779 123.238184 404.299153 122.80781 
C 404.729528 122.377436 404.971343 121.793641 404.971343 121.185 
C 404.971343 120.576359 404.729528 119.992564 404.299153 119.56219 
C 403.868779 119.131816 403.284985 118.89 402.676343 118.89 
C 402.067702 118.89 401.483908 119.131816 401.053533 119.56219 
C 400.623159 119.992564 400.381343 120.576359 400.381343 121.185 
C 400.381343 121.793641 400.623159 122.377436 401.053533 122.80781 
C 401.483908 123.238184 402.067702 123.48 402.676343 123.48 
z
" clip-path="url(#pd58d9f627e)" style="fill: #ffffff; stroke: #000000; stroke-width: 2; stroke-linejoin: miter"/>
   </g>
   <g id="text_18">
    <g clip-path="url(#pd58d9f627e)">
     <!-- $V_O$ -->
     <g transform="translate(408.031343 124.634219)scale(0.125 -0.125)">
      <use xlink:href="#STIXGeneral-Italic-56" transform="translate(0 0.703125)"/>
      <use xlink:href="#STIXGeneral-Italic-4f" transform="translate(61.099991 -12.525)scale(0.7)"/>
     </g>
    </g>
   </g>
   <g id="patch_17">
    <path d="M 372.076343 123.48 
C 372.684985 123.48 373.268779 123.238184 373.699153 122.80781 
C 374.129528 122.377436 374.371343 121.793641 374.371343 121.185 
C 374.371343 120.576359 374.129528 119.992564 373.699153 119.56219 
C 373.268779 119.131816 372.684985 118.89 372.076343 118.89 
C 371.467702 118.89 370.883908 119.131816 370.453533 119.56219 
C 370.023159 119.992564 369.781343 120.576359 369.781343 121.185 
C 369.781343 121.793641 370.023159 122.377436 370.453533 122.80781 
C 370.883908 123.238184 371.467702 123.48 372.076343 123.48 
z
" clip-path="url(#pd58d9f627e)" style="fill: #ff0000; stroke: #ff0000; stroke-width: 2; stroke-linejoin: miter"/>
   </g>
   <g id="text_19">
    <g clip-path="url(#pd58d9f627e)">
     <!-- D -->
     <g transform="translate(382.563843 100.990391)scale(0.125 -0.125)">
      <defs>
       <path id="DejaVuSans-44" d="M 1259 4147 
L 1259 519 
L 2022 519 
Q 2988 519 3436 956 
Q 3884 1394 3884 2338 
Q 3884 3275 3436 3711 
Q 2988 4147 2022 4147 
L 1259 4147 
z
M 628 4666 
L 1925 4666 
Q 3281 4666 3915 4102 
Q 4550 3538 4550 2338 
Q 4550 1131 3912 565 
Q 3275 0 1925 0 
L 628 0 
L 628 4666 
z
" transform="scale(0.015625)"/>
      </defs>
      <use xlink:href="#DejaVuSans-44"/>
     </g>
    </g>
   </g>
   <g id="patch_18">
    <path d="M 236.9754 104.355 
C 237.584041 104.355 238.167836 104.113184 238.59821 103.68281 
C 239.028584 103.252436 239.2704 102.668641 239.2704 102.06 
C 239.2704 101.451359 239.028584 100.867564 238.59821 100.43719 
C 238.167836 100.006816 237.584041 99.765 236.9754 99.765 
C 236.366759 99.765 235.782964 100.006816 235.35259 100.43719 
C 234.922216 100.867564 234.6804 101.451359 234.6804 102.06 
C 234.6804 102.668641 234.922216 103.252436 235.35259 103.68281 
C 235.782964 104.113184 236.366759 104.355 236.9754 104.355 
z
" clip-path="url(#pd58d9f627e)" style="fill: #ff0000; stroke: #ff0000; stroke-width: 2; stroke-linejoin: miter"/>
   </g>
   <g id="patch_19">
    <path d="M 145.1754 104.355 
C 145.784041 104.355 146.367836 104.113184 146.79821 103.68281 
C 147.228584 103.252436 147.4704 102.668641 147.4704 102.06 
C 147.4704 101.451359 147.228584 100.867564 146.79821 100.43719 
C 146.367836 100.006816 145.784041 99.765 145.1754 99.765 
C 144.566759 99.765 143.982964 100.006816 143.55259 100.43719 
C 143.122216 100.867564 142.8804 101.451359 142.8804 102.06 
C 142.8804 102.668641 143.122216 103.252436 143.55259 103.68281 
C 143.982964 104.113184 144.566759 104.355 145.1754 104.355 
z
" clip-path="url(#pd58d9f627e)" style="fill: #ff0000; stroke: #ff0000; stroke-width: 2; stroke-linejoin: miter"/>
   </g>
   <g id="patch_20">
    <path d="M 53.3754 104.355 
C 53.984041 104.355 54.567836 104.113184 54.99821 103.68281 
C 55.428584 103.252436 55.6704 102.668641 55.6704 102.06 
C 55.6704 101.451359 55.428584 100.867564 54.99821 100.43719 
C 54.567836 100.006816 53.984041 99.765 53.3754 99.765 
C 52.766759 99.765 52.182964 100.006816 51.75259 100.43719 
C 51.322216 100.867564 51.0804 101.451359 51.0804 102.06 
C 51.0804 102.668641 51.322216 103.252436 51.75259 103.68281 
C 52.182964 104.113184 52.766759 104.355 53.3754 104.355 
z
" clip-path="url(#pd58d9f627e)" style="fill: #ff0000; stroke: #ff0000; stroke-width: 2; stroke-linejoin: miter"/>
   </g>
   <g id="line2d_56">
    <path d="M 358.306343 121.185 
L 358.306343 121.185 
" clip-path="url(#pd58d9f627e)" style="fill: none; stroke: #000000; stroke-width: 2; stroke-linecap: round"/>
   </g>
   <g id="patch_21">
    <path d="M 358.306343 116.595 
L 367.486343 121.185 
L 358.306343 125.775 
z
" clip-path="url(#pd58d9f627e)"/>
   </g>
   <g id="text_20">
    <g clip-path="url(#pd58d9f627e)">
     <!-- $I_O$ -->
     <g transform="translate(357.333843 109.405391)scale(0.125 -0.125)">
      <use xlink:href="#STIXGeneral-Italic-49" transform="translate(0 0.703125)"/>
      <use xlink:href="#STIXGeneral-Italic-4f" transform="translate(33.299988 -12.525)scale(0.7)"/>
     </g>
    </g>
   </g>
   <g id="patch_22">
    <path d="M 402.676343 123.48 
C 403.284985 123.48 403.868779 123.238184 404.299153 122.80781 
C 404.729528 122.377436 404.971343 121.793641 404.971343 121.185 
C 404.971343 120.576359 404.729528 119.992564 404.299153 119.56219 
C 403.868779 119.131816 403.284985 118.89 402.676343 118.89 
C 402.067702 118.89 401.483908 119.131816 401.053533 119.56219 
C 400.623159 119.992564 400.381343 120.576359 400.381343 121.185 
C 400.381343 121.793641 400.623159 122.377436 401.053533 122.80781 
C 401.483908 123.238184 402.067702 123.48 402.676343 123.48 
z
" clip-path="url(#pd58d9f627e)" style="fill: #ffffff; stroke: #000000; stroke-width: 2; stroke-linejoin: miter"/>
   </g>
   <g id="text_21">
    <g clip-path="url(#pd58d9f627e)">
     <!-- $V_O$ -->
     <g transform="translate(408.031343 124.634219)scale(0.125 -0.125)">
      <use xlink:href="#STIXGeneral-Italic-56" transform="translate(0 0.703125)"/>
      <use xlink:href="#STIXGeneral-Italic-4f" transform="translate(61.099991 -12.525)scale(0.7)"/>
     </g>
    </g>
   </g>
   <g id="patch_23">
    <path d="M 372.076343 123.48 
C 372.684985 123.48 373.268779 123.238184 373.699153 122.80781 
C 374.129528 122.377436 374.371343 121.793641 374.371343 121.185 
C 374.371343 120.576359 374.129528 119.992564 373.699153 119.56219 
C 373.268779 119.131816 372.684985 118.89 372.076343 118.89 
C 371.467702 118.89 370.883908 119.131816 370.453533 119.56219 
C 370.023159 119.992564 369.781343 120.576359 369.781343 121.185 
C 369.781343 121.793641 370.023159 122.377436 370.453533 122.80781 
C 370.883908 123.238184 371.467702 123.48 372.076343 123.48 
z
" clip-path="url(#pd58d9f627e)" style="fill: #ff0000; stroke: #ff0000; stroke-width: 2; stroke-linejoin: miter"/>
   </g>
   <g id="text_22">
    <g clip-path="url(#pd58d9f627e)">
     <!-- D -->
     <g transform="translate(382.563843 100.990391)scale(0.125 -0.125)">
      <use xlink:href="#DejaVuSans-44"/>
     </g>
    </g>
   </g>
  </g>
 </g>
 <defs>
  <clipPath id="pd58d9f627e">
   <rect x="7.2" y="7.2" width="436.765943" height="209.61"/>
  </clipPath>
 </defs>
</svg>
