<?xml version="1.0" encoding="utf-8" standalone="no"?>
<!DOCTYPE svg PUBLIC "-//W3C//DTD SVG 1.1//EN"
  "http://www.w3.org/Graphics/SVG/1.1/DTD/svg11.dtd">
<svg xmlns:xlink="http://www.w3.org/1999/xlink" width="259.8936pt" height="256.48pt" viewBox="0 0 259.8936 256.48" xmlns="http://www.w3.org/2000/svg" version="1.1">
 <metadata>
  <rdf:RDF xmlns:dc="http://purl.org/dc/elements/1.1/" xmlns:cc="http://creativecommons.org/ns#" xmlns:rdf="http://www.w3.org/1999/02/22-rdf-syntax-ns#">
   <cc:Work>
    <dc:type rdf:resource="http://purl.org/dc/dcmitype/StillImage"/>
    <dc:date>2023-03-16T22:07:25.433025</dc:date>
    <dc:format>image/svg+xml</dc:format>
    <dc:creator>
     <cc:Agent>
      <dc:title>Matplotlib v3.5.2, https://matplotlib.org/</dc:title>
     </cc:Agent>
    </dc:creator>
   </cc:Work>
  </rdf:RDF>
 </metadata>
 <defs>
  <style type="text/css">*{stroke-linejoin: round; stroke-linecap: butt}</style>
 </defs>
 <g id="figure_1">
  <g id="patch_1">
   <path d="M 0 256.48 
L 259.8936 256.48 
L 259.8936 0 
L 0 0 
L 0 256.48 
z
" style="fill: none"/>
  </g>
  <g id="axes_1">
   <g id="line2d_1">
    <path d="M 40.4418 226.33 
L 40.4418 238.57 
L 32.7918 238.57 
L 40.4418 246.22 
L 48.0918 238.57 
L 40.4418 238.57 
" clip-path="url(#p6799406f47)" style="fill: none; stroke: #000000; stroke-width: 2; stroke-linecap: round"/>
   </g>
   <g id="line2d_2">
    <path d="M 40.4418 226.33 
L 40.4418 195.73 
L 32.7918 195.73 
L 32.7918 165.13 
L 48.0918 165.13 
L 48.0918 195.73 
L 40.4418 195.73 
M 40.4418 165.13 
L 40.4418 134.53 
" clip-path="url(#p6799406f47)" style="fill: none; stroke: #000000; stroke-width: 2; stroke-linecap: round"/>
   </g>
   <g id="line2d_3">
    <path d="M 40.4418 134.53 
L 71.0418 134.53 
L 71.0418 126.88 
L 101.6418 126.88 
L 101.6418 142.18 
L 71.0418 142.18 
L 71.0418 134.53 
M 101.6418 134.53 
L 132.2418 134.53 
" clip-path="url(#p6799406f47)" style="fill: none; stroke: #000000; stroke-width: 2; stroke-linecap: round"/>
   </g>
   <g id="line2d_4">
    <path d="M 132.2418 134.53 
L 162.8418 134.53 
L 162.8418 126.88 
L 193.4418 126.88 
L 193.4418 142.18 
L 162.8418 142.18 
L 162.8418 134.53 
M 193.4418 134.53 
L 224.0418 134.53 
" clip-path="url(#p6799406f47)" style="fill: none; stroke: #000000; stroke-width: 2; stroke-linecap: round"/>
   </g>
   <g id="line2d_5">
    <path d="M 224.0418 134.53 
L 224.0418 165.13 
L 231.6918 165.13 
L 231.6918 195.73 
L 216.3918 195.73 
L 216.3918 165.13 
L 224.0418 165.13 
M 224.0418 195.73 
L 224.0418 226.33 
" clip-path="url(#p6799406f47)" style="fill: none; stroke: #000000; stroke-width: 2; stroke-linecap: round"/>
   </g>
   <g id="line2d_6">
    <path d="M 224.0418 226.33 
L 178.1418 226.33 
L 132.2418 226.33 
" clip-path="url(#p6799406f47)" style="fill: none; stroke: #000000; stroke-width: 2; stroke-linecap: round"/>
   </g>
   <g id="line2d_7">
    <path d="M 132.2418 226.33 
L 132.2418 195.73 
L 124.5918 195.73 
L 124.5918 165.13 
L 139.8918 165.13 
L 139.8918 195.73 
L 132.2418 195.73 
M 132.2418 165.13 
L 132.2418 134.53 
" clip-path="url(#p6799406f47)" style="fill: none; stroke: #000000; stroke-width: 2; stroke-linecap: round"/>
   </g>
   <g id="line2d_8">
    <path d="M 132.2418 226.33 
L 86.3418 226.33 
L 40.4418 226.33 
" clip-path="url(#p6799406f47)" style="fill: none; stroke: #000000; stroke-width: 2; stroke-linecap: round"/>
   </g>
   <g id="line2d_9">
    <path d="M 40.4418 134.53 
L 40.4418 88.63 
L 40.4418 42.73 
" clip-path="url(#p6799406f47)" style="fill: none; stroke: #000000; stroke-width: 2; stroke-linecap: round"/>
   </g>
   <g id="line2d_10">
    <path d="M 40.4418 42.73 
L 116.9418 42.73 
L 116.9418 35.08 
L 147.5418 35.08 
L 147.5418 50.38 
L 116.9418 50.38 
L 116.9418 42.73 
M 147.5418 42.73 
L 224.0418 42.73 
" clip-path="url(#p6799406f47)" style="fill: none; stroke: #000000; stroke-width: 2; stroke-linecap: round"/>
   </g>
   <g id="line2d_11">
    <path d="M 224.0418 42.73 
L 224.0418 88.63 
L 224.0418 134.53 
" clip-path="url(#p6799406f47)" style="fill: none; stroke: #000000; stroke-width: 2; stroke-linecap: round"/>
   </g>
   <g id="line2d_12">
    <path d="M 40.4418 226.33 
L 40.4418 238.57 
L 32.7918 238.57 
L 40.4418 246.22 
L 48.0918 238.57 
L 40.4418 238.57 
" clip-path="url(#p6799406f47)" style="fill: none; stroke: #000000; stroke-width: 2; stroke-linecap: round"/>
   </g>
   <g id="line2d_13">
    <path d="M 40.4418 226.33 
L 40.4418 195.73 
L 32.7918 195.73 
L 32.7918 165.13 
L 48.0918 165.13 
L 48.0918 195.73 
L 40.4418 195.73 
M 40.4418 165.13 
L 40.4418 134.53 
" clip-path="url(#p6799406f47)" style="fill: none; stroke: #000000; stroke-width: 2; stroke-linecap: round"/>
   </g>
   <g id="line2d_14">
    <path d="M 40.4418 134.53 
L 71.0418 134.53 
L 71.0418 126.88 
L 101.6418 126.88 
L 101.6418 142.18 
L 71.0418 142.18 
L 71.0418 134.53 
M 101.6418 134.53 
L 132.2418 134.53 
" clip-path="url(#p6799406f47)" style="fill: none; stroke: #000000; stroke-width: 2; stroke-linecap: round"/>
   </g>
   <g id="line2d_15">
    <path d="M 132.2418 134.53 
L 162.8418 134.53 
L 162.8418 126.88 
L 193.4418 126.88 
L 193.4418 142.18 
L 162.8418 142.18 
L 162.8418 134.53 
M 193.4418 134.53 
L 224.0418 134.53 
" clip-path="url(#p6799406f47)" style="fill: none; stroke: #000000; stroke-width: 2; stroke-linecap: round"/>
   </g>
   <g id="line2d_16">
    <path d="M 224.0418 134.53 
L 224.0418 165.13 
L 231.6918 165.13 
L 231.6918 195.73 
L 216.3918 195.73 
L 216.3918 165.13 
L 224.0418 165.13 
M 224.0418 195.73 
L 224.0418 226.33 
" clip-path="url(#p6799406f47)" style="fill: none; stroke: #000000; stroke-width: 2; stroke-linecap: round"/>
   </g>
   <g id="line2d_17">
    <path d="M 224.0418 226.33 
L 178.1418 226.33 
L 132.2418 226.33 
" clip-path="url(#p6799406f47)" style="fill: none; stroke: #000000; stroke-width: 2; stroke-linecap: round"/>
   </g>
   <g id="line2d_18">
    <path d="M 132.2418 226.33 
L 132.2418 195.73 
L 124.5918 195.73 
L 124.5918 165.13 
L 139.8918 165.13 
L 139.8918 195.73 
L 132.2418 195.73 
M 132.2418 165.13 
L 132.2418 134.53 
" clip-path="url(#p6799406f47)" style="fill: none; stroke: #000000; stroke-width: 2; stroke-linecap: round"/>
   </g>
   <g id="line2d_19">
    <path d="M 132.2418 226.33 
L 86.3418 226.33 
L 40.4418 226.33 
" clip-path="url(#p6799406f47)" style="fill: none; stroke: #000000; stroke-width: 2; stroke-linecap: round"/>
   </g>
   <g id="line2d_20">
    <path d="M 40.4418 134.53 
L 40.4418 88.63 
L 40.4418 42.73 
" clip-path="url(#p6799406f47)" style="fill: none; stroke: #000000; stroke-width: 2; stroke-linecap: round"/>
   </g>
   <g id="line2d_21">
    <path d="M 40.4418 42.73 
L 116.9418 42.73 
L 116.9418 35.08 
L 147.5418 35.08 
L 147.5418 50.38 
L 116.9418 50.38 
L 116.9418 42.73 
M 147.5418 42.73 
L 224.0418 42.73 
" clip-path="url(#p6799406f47)" style="fill: none; stroke: #000000; stroke-width: 2; stroke-linecap: round"/>
   </g>
   <g id="line2d_22">
    <path d="M 224.0418 42.73 
L 224.0418 88.63 
L 224.0418 134.53 
" clip-path="url(#p6799406f47)" style="fill: none; stroke: #000000; stroke-width: 2; stroke-linecap: round"/>
   </g>
   <g id="text_1">
    <g clip-path="url(#p6799406f47)">
     <!-- + -->
     <g transform="translate(19.257191 206.829219)scale(0.125 -0.125)">
      <defs>
       <path id="DejaVuSans-2b" d="M 2944 4013 
L 2944 2272 
L 4684 2272 
L 4684 1741 
L 2944 1741 
L 2944 0 
L 2419 0 
L 2419 1741 
L 678 1741 
L 678 2272 
L 2419 2272 
L 2419 4013 
L 2944 4013 
z
" transform="scale(0.015625)"/>
      </defs>
      <use xlink:href="#DejaVuSans-2b"/>
     </g>
    </g>
   </g>
   <g id="text_2">
    <g clip-path="url(#p6799406f47)">
     <!-- $V_1$ -->
     <g transform="translate(17.1068 183.879219)scale(0.125 -0.125)">
      <defs>
       <path id="STIXGeneral-Italic-56" d="M 4403 4179 
L 4403 4077 
Q 4198 4070 4045 3821 
L 1658 -115 
L 1536 -115 
L 1011 3104 
Q 902 3776 828 3910 
Q 755 4045 486 4077 
L 486 4179 
L 2022 4179 
L 2022 4077 
Q 1722 4045 1629 3981 
Q 1536 3917 1536 3750 
Q 1536 3686 1542 3654 
L 1958 819 
L 3302 3123 
Q 3616 3661 3616 3859 
Q 3616 4032 3219 4077 
L 3219 4179 
L 4403 4179 
z
" transform="scale(0.015625)"/>
       <path id="STIXGeneral-Regular-31" d="M 2522 0 
L 755 0 
L 755 96 
Q 1107 115 1235 227 
Q 1363 339 1363 608 
L 1363 3482 
Q 1363 3795 1171 3795 
Q 1082 3795 883 3718 
L 710 3654 
L 710 3744 
L 1856 4326 
L 1914 4307 
L 1914 486 
Q 1914 275 2042 185 
Q 2170 96 2522 96 
L 2522 0 
z
" transform="scale(0.015625)"/>
      </defs>
      <use xlink:href="#STIXGeneral-Italic-56" transform="translate(0 0.703125)"/>
      <use xlink:href="#STIXGeneral-Regular-31" transform="translate(61.099991 -12.525)scale(0.7)"/>
     </g>
    </g>
   </g>
   <g id="text_3">
    <g clip-path="url(#p6799406f47)">
     <!-- - -->
     <g transform="translate(25.222034 160.929219)scale(0.125 -0.125)">
      <defs>
       <path id="DejaVuSans-2d" d="M 313 2009 
L 1997 2009 
L 1997 1497 
L 313 1497 
L 313 2009 
z
" transform="scale(0.015625)"/>
      </defs>
      <use xlink:href="#DejaVuSans-2d"/>
     </g>
    </g>
   </g>
   <g id="text_4">
    <g clip-path="url(#p6799406f47)">
     <!-- + -->
     <g transform="translate(58.154495 121.220391)scale(0.125 -0.125)">
      <use xlink:href="#DejaVuSans-2b"/>
     </g>
    </g>
   </g>
   <g id="text_5">
    <g clip-path="url(#p6799406f47)">
     <!-- $V_2$ -->
     <g transform="translate(80.0293 121.220391)scale(0.125 -0.125)">
      <defs>
       <path id="STIXGeneral-Regular-32" d="M 3034 877 
L 2688 0 
L 186 0 
L 186 77 
L 1325 1286 
Q 1773 1754 1965 2144 
Q 2157 2534 2157 2950 
Q 2157 3379 1920 3616 
Q 1683 3853 1267 3853 
Q 922 3853 720 3673 
Q 518 3494 326 3021 
L 192 3053 
Q 301 3648 630 3987 
Q 960 4326 1523 4326 
Q 2054 4326 2380 4006 
Q 2707 3686 2707 3200 
Q 2707 2477 1888 1613 
L 832 486 
L 2330 486 
Q 2541 486 2665 569 
Q 2790 653 2944 915 
L 3034 877 
z
" transform="scale(0.015625)"/>
      </defs>
      <use xlink:href="#STIXGeneral-Italic-56" transform="translate(0 0.703125)"/>
      <use xlink:href="#STIXGeneral-Regular-32" transform="translate(61.099991 -12.525)scale(0.7)"/>
     </g>
    </g>
   </g>
   <g id="text_6">
    <g clip-path="url(#p6799406f47)">
     <!-- - -->
     <g transform="translate(107.036917 121.220391)scale(0.125 -0.125)">
      <use xlink:href="#DejaVuSans-2d"/>
     </g>
    </g>
   </g>
   <g id="text_7">
    <g clip-path="url(#p6799406f47)">
     <!-- - -->
     <g transform="translate(152.936917 121.220391)scale(0.125 -0.125)">
      <use xlink:href="#DejaVuSans-2d"/>
     </g>
    </g>
   </g>
   <g id="text_8">
    <g clip-path="url(#p6799406f47)">
     <!-- $V_3$ -->
     <g transform="translate(171.8293 121.220391)scale(0.125 -0.125)">
      <defs>
       <path id="STIXGeneral-Regular-33" d="M 390 3264 
L 288 3290 
Q 435 3770 748 4048 
Q 1062 4326 1542 4326 
Q 1990 4326 2265 4083 
Q 2541 3840 2541 3450 
Q 2541 2925 1946 2566 
Q 2298 2413 2477 2227 
Q 2758 1914 2758 1402 
Q 2758 890 2464 506 
Q 2246 211 1840 60 
Q 1434 -90 979 -90 
Q 262 -90 262 275 
Q 262 378 339 442 
Q 416 506 525 506 
Q 685 506 915 339 
Q 1197 141 1466 141 
Q 1818 141 2058 425 
Q 2298 710 2298 1120 
Q 2298 1856 1632 2048 
Q 1434 2112 979 2112 
L 979 2202 
Q 1338 2323 1517 2432 
Q 2035 2726 2035 3290 
Q 2035 3610 1852 3776 
Q 1670 3942 1344 3942 
Q 768 3942 390 3264 
z
" transform="scale(0.015625)"/>
      </defs>
      <use xlink:href="#STIXGeneral-Italic-56" transform="translate(0 0.703125)"/>
      <use xlink:href="#STIXGeneral-Regular-33" transform="translate(61.099991 -12.525)scale(0.7)"/>
     </g>
    </g>
   </g>
   <g id="text_9">
    <g clip-path="url(#p6799406f47)">
     <!-- + -->
     <g transform="translate(195.854495 121.220391)scale(0.125 -0.125)">
      <use xlink:href="#DejaVuSans-2b"/>
     </g>
    </g>
   </g>
   <g id="text_10">
    <g clip-path="url(#p6799406f47)">
     <!-- + -->
     <g transform="translate(202.857191 160.929219)scale(0.125 -0.125)">
      <use xlink:href="#DejaVuSans-2b"/>
     </g>
    </g>
   </g>
   <g id="text_11">
    <g clip-path="url(#p6799406f47)">
     <!-- $V_4$ -->
     <g transform="translate(200.7068 183.879219)scale(0.125 -0.125)">
      <defs>
       <path id="STIXGeneral-Regular-34" d="M 3027 1069 
L 2368 1069 
L 2368 0 
L 1869 0 
L 1869 1069 
L 77 1069 
L 77 1478 
L 2086 4326 
L 2368 4326 
L 2368 1478 
L 3027 1478 
L 3027 1069 
z
M 1869 1478 
L 1869 3674 
L 333 1478 
L 1869 1478 
z
" transform="scale(0.015625)"/>
      </defs>
      <use xlink:href="#STIXGeneral-Italic-56" transform="translate(0 0.703125)"/>
      <use xlink:href="#STIXGeneral-Regular-34" transform="translate(61.099991 -12.525)scale(0.7)"/>
     </g>
    </g>
   </g>
   <g id="text_12">
    <g clip-path="url(#p6799406f47)">
     <!-- - -->
     <g transform="translate(208.822034 206.829219)scale(0.125 -0.125)">
      <use xlink:href="#DejaVuSans-2d"/>
     </g>
    </g>
   </g>
   <g id="text_13">
    <g clip-path="url(#p6799406f47)">
     <!-- - -->
     <g transform="translate(117.022034 206.829219)scale(0.125 -0.125)">
      <use xlink:href="#DejaVuSans-2d"/>
     </g>
    </g>
   </g>
   <g id="text_14">
    <g clip-path="url(#p6799406f47)">
     <!-- $V_5$ -->
     <g transform="translate(108.9068 183.879219)scale(0.125 -0.125)">
      <defs>
       <path id="STIXGeneral-Regular-35" d="M 2803 4358 
L 2573 3814 
Q 2534 3731 2400 3731 
L 1158 3731 
L 902 3187 
Q 1606 3053 1920 2896 
Q 2234 2739 2502 2368 
Q 2726 2061 2726 1555 
Q 2726 1094 2576 780 
Q 2426 467 2099 224 
Q 1664 -90 1011 -90 
Q 646 -90 422 19 
Q 198 128 198 307 
Q 198 550 486 550 
Q 717 550 960 352 
Q 1210 147 1414 147 
Q 1747 147 2012 480 
Q 2278 813 2278 1229 
Q 2278 1843 1850 2189 
Q 1293 2637 486 2637 
Q 410 2637 410 2688 
L 416 2720 
L 1114 4237 
L 2438 4237 
Q 2547 4237 2608 4269 
Q 2669 4301 2746 4403 
L 2803 4358 
z
" transform="scale(0.015625)"/>
      </defs>
      <use xlink:href="#STIXGeneral-Italic-56" transform="translate(0 0.703125)"/>
      <use xlink:href="#STIXGeneral-Regular-35" transform="translate(61.099991 -12.525)scale(0.7)"/>
     </g>
    </g>
   </g>
   <g id="text_15">
    <g clip-path="url(#p6799406f47)">
     <!-- + -->
     <g transform="translate(111.057191 160.929219)scale(0.125 -0.125)">
      <use xlink:href="#DejaVuSans-2b"/>
     </g>
    </g>
   </g>
   <g id="text_16">
    <g clip-path="url(#p6799406f47)">
     <!-- + -->
     <g transform="translate(81.104495 29.420391)scale(0.125 -0.125)">
      <use xlink:href="#DejaVuSans-2b"/>
     </g>
    </g>
   </g>
   <g id="text_17">
    <g clip-path="url(#p6799406f47)">
     <!-- $V_6$ -->
     <g transform="translate(125.9293 29.420391)scale(0.125 -0.125)">
      <defs>
       <path id="STIXGeneral-Regular-36" d="M 2854 4378 
L 2867 4275 
Q 2112 4154 1606 3664 
Q 1101 3174 973 2451 
Q 1344 2739 1786 2739 
Q 2349 2739 2672 2380 
Q 2995 2022 2995 1402 
Q 2995 774 2669 378 
Q 2291 -90 1651 -90 
Q 870 -90 518 557 
Q 218 1107 218 1786 
Q 218 2835 915 3552 
Q 1312 3962 1731 4131 
Q 2150 4301 2854 4378 
z
M 2419 1203 
Q 2419 2445 1555 2445 
Q 1235 2445 1024 2275 
Q 813 2106 813 1702 
Q 813 954 1046 522 
Q 1280 90 1722 90 
Q 2061 90 2240 394 
Q 2419 698 2419 1203 
z
" transform="scale(0.015625)"/>
      </defs>
      <use xlink:href="#STIXGeneral-Italic-56" transform="translate(0 0.703125)"/>
      <use xlink:href="#STIXGeneral-Regular-36" transform="translate(61.099991 -12.525)scale(0.7)"/>
     </g>
    </g>
   </g>
   <g id="text_18">
    <g clip-path="url(#p6799406f47)">
     <!-- - -->
     <g transform="translate(175.886917 29.420391)scale(0.125 -0.125)">
      <use xlink:href="#DejaVuSans-2d"/>
     </g>
    </g>
   </g>
   <g id="text_19">
    <g clip-path="url(#p6799406f47)">
     <!-- + -->
     <g transform="translate(19.257191 206.829219)scale(0.125 -0.125)">
      <use xlink:href="#DejaVuSans-2b"/>
     </g>
    </g>
   </g>
   <g id="text_20">
    <g clip-path="url(#p6799406f47)">
     <!-- $V_1$ -->
     <g transform="translate(17.1068 183.879219)scale(0.125 -0.125)">
      <use xlink:href="#STIXGeneral-Italic-56" transform="translate(0 0.703125)"/>
      <use xlink:href="#STIXGeneral-Regular-31" transform="translate(61.099991 -12.525)scale(0.7)"/>
     </g>
    </g>
   </g>
   <g id="text_21">
    <g clip-path="url(#p6799406f47)">
     <!-- - -->
     <g transform="translate(25.222034 160.929219)scale(0.125 -0.125)">
      <use xlink:href="#DejaVuSans-2d"/>
     </g>
    </g>
   </g>
   <g id="text_22">
    <g clip-path="url(#p6799406f47)">
     <!-- + -->
     <g transform="translate(58.154495 121.220391)scale(0.125 -0.125)">
      <use xlink:href="#DejaVuSans-2b"/>
     </g>
    </g>
   </g>
   <g id="text_23">
    <g clip-path="url(#p6799406f47)">
     <!-- $V_2$ -->
     <g transform="translate(80.0293 121.220391)scale(0.125 -0.125)">
      <use xlink:href="#STIXGeneral-Italic-56" transform="translate(0 0.703125)"/>
      <use xlink:href="#STIXGeneral-Regular-32" transform="translate(61.099991 -12.525)scale(0.7)"/>
     </g>
    </g>
   </g>
   <g id="text_24">
    <g clip-path="url(#p6799406f47)">
     <!-- - -->
     <g transform="translate(107.036917 121.220391)scale(0.125 -0.125)">
      <use xlink:href="#DejaVuSans-2d"/>
     </g>
    </g>
   </g>
   <g id="text_25">
    <g clip-path="url(#p6799406f47)">
     <!-- - -->
     <g transform="translate(152.936917 121.220391)scale(0.125 -0.125)">
      <use xlink:href="#DejaVuSans-2d"/>
     </g>
    </g>
   </g>
   <g id="text_26">
    <g clip-path="url(#p6799406f47)">
     <!-- $V_3$ -->
     <g transform="translate(171.8293 121.220391)scale(0.125 -0.125)">
      <use xlink:href="#STIXGeneral-Italic-56" transform="translate(0 0.703125)"/>
      <use xlink:href="#STIXGeneral-Regular-33" transform="translate(61.099991 -12.525)scale(0.7)"/>
     </g>
    </g>
   </g>
   <g id="text_27">
    <g clip-path="url(#p6799406f47)">
     <!-- + -->
     <g transform="translate(195.854495 121.220391)scale(0.125 -0.125)">
      <use xlink:href="#DejaVuSans-2b"/>
     </g>
    </g>
   </g>
   <g id="text_28">
    <g clip-path="url(#p6799406f47)">
     <!-- + -->
     <g transform="translate(202.857191 160.929219)scale(0.125 -0.125)">
      <use xlink:href="#DejaVuSans-2b"/>
     </g>
    </g>
   </g>
   <g id="text_29">
    <g clip-path="url(#p6799406f47)">
     <!-- $V_4$ -->
     <g transform="translate(200.7068 183.879219)scale(0.125 -0.125)">
      <use xlink:href="#STIXGeneral-Italic-56" transform="translate(0 0.703125)"/>
      <use xlink:href="#STIXGeneral-Regular-34" transform="translate(61.099991 -12.525)scale(0.7)"/>
     </g>
    </g>
   </g>
   <g id="text_30">
    <g clip-path="url(#p6799406f47)">
     <!-- - -->
     <g transform="translate(208.822034 206.829219)scale(0.125 -0.125)">
      <use xlink:href="#DejaVuSans-2d"/>
     </g>
    </g>
   </g>
   <g id="text_31">
    <g clip-path="url(#p6799406f47)">
     <!-- - -->
     <g transform="translate(117.022034 206.829219)scale(0.125 -0.125)">
      <use xlink:href="#DejaVuSans-2d"/>
     </g>
    </g>
   </g>
   <g id="text_32">
    <g clip-path="url(#p6799406f47)">
     <!-- $V_5$ -->
     <g transform="translate(108.9068 183.879219)scale(0.125 -0.125)">
      <use xlink:href="#STIXGeneral-Italic-56" transform="translate(0 0.703125)"/>
      <use xlink:href="#STIXGeneral-Regular-35" transform="translate(61.099991 -12.525)scale(0.7)"/>
     </g>
    </g>
   </g>
   <g id="text_33">
    <g clip-path="url(#p6799406f47)">
     <!-- + -->
     <g transform="translate(111.057191 160.929219)scale(0.125 -0.125)">
      <use xlink:href="#DejaVuSans-2b"/>
     </g>
    </g>
   </g>
   <g id="text_34">
    <g clip-path="url(#p6799406f47)">
     <!-- + -->
     <g transform="translate(81.104495 29.420391)scale(0.125 -0.125)">
      <use xlink:href="#DejaVuSans-2b"/>
     </g>
    </g>
   </g>
   <g id="text_35">
    <g clip-path="url(#p6799406f47)">
     <!-- $V_6$ -->
     <g transform="translate(125.9293 29.420391)scale(0.125 -0.125)">
      <use xlink:href="#STIXGeneral-Italic-56" transform="translate(0 0.703125)"/>
      <use xlink:href="#STIXGeneral-Regular-36" transform="translate(61.099991 -12.525)scale(0.7)"/>
     </g>
    </g>
   </g>
   <g id="text_36">
    <g clip-path="url(#p6799406f47)">
     <!-- - -->
     <g transform="translate(175.886917 29.420391)scale(0.125 -0.125)">
      <use xlink:href="#DejaVuSans-2d"/>
     </g>
    </g>
   </g>
   <g id="patch_2">
    <path d="M 40.4418 136.825 
C 41.050441 136.825 41.634236 136.583184 42.06461 136.15281 
C 42.494984 135.722436 42.7368 135.138641 42.7368 134.53 
C 42.7368 133.921359 42.494984 133.337564 42.06461 132.90719 
C 41.634236 132.476816 41.050441 132.235 40.4418 132.235 
C 39.833159 132.235 39.249364 132.476816 38.81899 132.90719 
C 38.388616 133.337564 38.1468 133.921359 38.1468 134.53 
C 38.1468 135.138641 38.388616 135.722436 38.81899 136.15281 
C 39.249364 136.583184 39.833159 136.825 40.4418 136.825 
z
" clip-path="url(#p6799406f47)" style="stroke: #000000; stroke-width: 2; stroke-linejoin: miter"/>
   </g>
   <g id="text_37">
    <g clip-path="url(#p6799406f47)">
     <!-- A -->
     <g transform="translate(26.536019 137.979219)scale(0.125 -0.125)">
      <defs>
       <path id="DejaVuSans-41" d="M 2188 4044 
L 1331 1722 
L 3047 1722 
L 2188 4044 
z
M 1831 4666 
L 2547 4666 
L 4325 0 
L 3669 0 
L 3244 1197 
L 1141 1197 
L 716 0 
L 50 0 
L 1831 4666 
z
" transform="scale(0.015625)"/>
      </defs>
      <use xlink:href="#DejaVuSans-41"/>
     </g>
    </g>
   </g>
   <g id="patch_3">
    <path d="M 132.2418 136.825 
C 132.850441 136.825 133.434236 136.583184 133.86461 136.15281 
C 134.294984 135.722436 134.5368 135.138641 134.5368 134.53 
C 134.5368 133.921359 134.294984 133.337564 133.86461 132.90719 
C 133.434236 132.476816 132.850441 132.235 132.2418 132.235 
C 131.633159 132.235 131.049364 132.476816 130.61899 132.90719 
C 130.188616 133.337564 129.9468 133.921359 129.9468 134.53 
C 129.9468 135.138641 130.188616 135.722436 130.61899 136.15281 
C 131.049364 136.583184 131.633159 136.825 132.2418 136.825 
z
" clip-path="url(#p6799406f47)" style="stroke: #000000; stroke-width: 2; stroke-linejoin: miter"/>
   </g>
   <g id="text_38">
    <g clip-path="url(#p6799406f47)">
     <!-- B -->
     <g transform="translate(127.953714 126.575391)scale(0.125 -0.125)">
      <defs>
       <path id="DejaVuSans-42" d="M 1259 2228 
L 1259 519 
L 2272 519 
Q 2781 519 3026 730 
Q 3272 941 3272 1375 
Q 3272 1813 3026 2020 
Q 2781 2228 2272 2228 
L 1259 2228 
z
M 1259 4147 
L 1259 2741 
L 2194 2741 
Q 2656 2741 2882 2914 
Q 3109 3088 3109 3444 
Q 3109 3797 2882 3972 
Q 2656 4147 2194 4147 
L 1259 4147 
z
M 628 4666 
L 2241 4666 
Q 2963 4666 3353 4366 
Q 3744 4066 3744 3513 
Q 3744 3084 3544 2831 
Q 3344 2578 2956 2516 
Q 3422 2416 3680 2098 
Q 3938 1781 3938 1306 
Q 3938 681 3513 340 
Q 3088 0 2303 0 
L 628 0 
L 628 4666 
z
" transform="scale(0.015625)"/>
      </defs>
      <use xlink:href="#DejaVuSans-42"/>
     </g>
    </g>
   </g>
   <g id="patch_4">
    <path d="M 224.0418 136.825 
C 224.650441 136.825 225.234236 136.583184 225.66461 136.15281 
C 226.094984 135.722436 226.3368 135.138641 226.3368 134.53 
C 226.3368 133.921359 226.094984 133.337564 225.66461 132.90719 
C 225.234236 132.476816 224.650441 132.235 224.0418 132.235 
C 223.433159 132.235 222.849364 132.476816 222.41899 132.90719 
C 221.988616 133.337564 221.7468 133.921359 221.7468 134.53 
C 221.7468 135.138641 221.988616 135.722436 222.41899 136.15281 
C 222.849364 136.583184 223.433159 136.825 224.0418 136.825 
z
" clip-path="url(#p6799406f47)" style="stroke: #000000; stroke-width: 2; stroke-linejoin: miter"/>
   </g>
   <g id="text_39">
    <g clip-path="url(#p6799406f47)">
     <!-- C -->
     <g transform="translate(229.3968 137.979219)scale(0.125 -0.125)">
      <defs>
       <path id="DejaVuSans-43" d="M 4122 4306 
L 4122 3641 
Q 3803 3938 3442 4084 
Q 3081 4231 2675 4231 
Q 1875 4231 1450 3742 
Q 1025 3253 1025 2328 
Q 1025 1406 1450 917 
Q 1875 428 2675 428 
Q 3081 428 3442 575 
Q 3803 722 4122 1019 
L 4122 359 
Q 3791 134 3420 21 
Q 3050 -91 2638 -91 
Q 1578 -91 968 557 
Q 359 1206 359 2328 
Q 359 3453 968 4101 
Q 1578 4750 2638 4750 
Q 3056 4750 3426 4639 
Q 3797 4528 4122 4306 
z
" transform="scale(0.015625)"/>
      </defs>
      <use xlink:href="#DejaVuSans-43"/>
     </g>
    </g>
   </g>
   <g id="patch_5">
    <path d="M 40.4418 136.825 
C 41.050441 136.825 41.634236 136.583184 42.06461 136.15281 
C 42.494984 135.722436 42.7368 135.138641 42.7368 134.53 
C 42.7368 133.921359 42.494984 133.337564 42.06461 132.90719 
C 41.634236 132.476816 41.050441 132.235 40.4418 132.235 
C 39.833159 132.235 39.249364 132.476816 38.81899 132.90719 
C 38.388616 133.337564 38.1468 133.921359 38.1468 134.53 
C 38.1468 135.138641 38.388616 135.722436 38.81899 136.15281 
C 39.249364 136.583184 39.833159 136.825 40.4418 136.825 
z
" clip-path="url(#p6799406f47)" style="stroke: #000000; stroke-width: 2; stroke-linejoin: miter"/>
   </g>
   <g id="text_40">
    <g clip-path="url(#p6799406f47)">
     <!-- A -->
     <g transform="translate(26.536019 137.979219)scale(0.125 -0.125)">
      <use xlink:href="#DejaVuSans-41"/>
     </g>
    </g>
   </g>
   <g id="patch_6">
    <path d="M 132.2418 136.825 
C 132.850441 136.825 133.434236 136.583184 133.86461 136.15281 
C 134.294984 135.722436 134.5368 135.138641 134.5368 134.53 
C 134.5368 133.921359 134.294984 133.337564 133.86461 132.90719 
C 133.434236 132.476816 132.850441 132.235 132.2418 132.235 
C 131.633159 132.235 131.049364 132.476816 130.61899 132.90719 
C 130.188616 133.337564 129.9468 133.921359 129.9468 134.53 
C 129.9468 135.138641 130.188616 135.722436 130.61899 136.15281 
C 131.049364 136.583184 131.633159 136.825 132.2418 136.825 
z
" clip-path="url(#p6799406f47)" style="stroke: #000000; stroke-width: 2; stroke-linejoin: miter"/>
   </g>
   <g id="text_41">
    <g clip-path="url(#p6799406f47)">
     <!-- B -->
     <g transform="translate(127.953714 126.575391)scale(0.125 -0.125)">
      <use xlink:href="#DejaVuSans-42"/>
     </g>
    </g>
   </g>
   <g id="patch_7">
    <path d="M 224.0418 136.825 
C 224.650441 136.825 225.234236 136.583184 225.66461 136.15281 
C 226.094984 135.722436 226.3368 135.138641 226.3368 134.53 
C 226.3368 133.921359 226.094984 133.337564 225.66461 132.90719 
C 225.234236 132.476816 224.650441 132.235 224.0418 132.235 
C 223.433159 132.235 222.849364 132.476816 222.41899 132.90719 
C 221.988616 133.337564 221.7468 133.921359 221.7468 134.53 
C 221.7468 135.138641 221.988616 135.722436 222.41899 136.15281 
C 222.849364 136.583184 223.433159 136.825 224.0418 136.825 
z
" clip-path="url(#p6799406f47)" style="stroke: #000000; stroke-width: 2; stroke-linejoin: miter"/>
   </g>
   <g id="text_42">
    <g clip-path="url(#p6799406f47)">
     <!-- C -->
     <g transform="translate(229.3968 137.979219)scale(0.125 -0.125)">
      <use xlink:href="#DejaVuSans-43"/>
     </g>
    </g>
   </g>
  </g>
 </g>
 <defs>
  <clipPath id="p6799406f47">
   <rect x="7.2" y="7.2" width="245.4936" height="242.08"/>
  </clipPath>
 </defs>
</svg>
