<?xml version="1.0" encoding="utf-8" standalone="no"?>
<!DOCTYPE svg PUBLIC "-//W3C//DTD SVG 1.1//EN"
  "http://www.w3.org/Graphics/SVG/1.1/DTD/svg11.dtd">
<svg xmlns:xlink="http://www.w3.org/1999/xlink" width="266.595pt" height="286.91pt" viewBox="0 0 266.595 286.91" xmlns="http://www.w3.org/2000/svg" version="1.1">
 <metadata>
  <rdf:RDF xmlns:dc="http://purl.org/dc/elements/1.1/" xmlns:cc="http://creativecommons.org/ns#" xmlns:rdf="http://www.w3.org/1999/02/22-rdf-syntax-ns#">
   <cc:Work>
    <dc:type rdf:resource="http://purl.org/dc/dcmitype/StillImage"/>
    <dc:date>2023-03-03T20:52:21.299323</dc:date>
    <dc:format>image/svg+xml</dc:format>
    <dc:creator>
     <cc:Agent>
      <dc:title>Matplotlib v3.5.2, https://matplotlib.org/</dc:title>
     </cc:Agent>
    </dc:creator>
   </cc:Work>
  </rdf:RDF>
 </metadata>
 <defs>
  <style type="text/css">*{stroke-linejoin: round; stroke-linecap: butt}</style>
 </defs>
 <g id="figure_1">
  <g id="patch_1">
   <path d="M 0 286.91 
L 266.595 286.91 
L 266.595 0 
L 0 0 
L 0 286.91 
z
" style="fill: none"/>
  </g>
  <g id="axes_1">
   <g id="patch_2">
    <path d="M 241.035 164.96 
C 245.092607 164.96 248.984572 163.347895 251.853734 160.478734 
C 254.722895 157.609572 256.335 153.717607 256.335 149.66 
C 256.335 145.602393 254.722895 141.710428 251.853734 138.841266 
C 248.984572 135.972105 245.092607 134.36 241.035 134.36 
C 236.977393 134.36 233.085428 135.972105 230.216266 138.841266 
C 227.347105 141.710428 225.735 145.602393 225.735 149.66 
C 225.735 153.717607 227.347105 157.609572 230.216266 160.478734 
C 233.085428 163.347895 236.977393 164.96 241.035 164.96 
L 241.035 164.96 
z
" clip-path="url(#p8cc51f693a)" style="fill: none; stroke: #000000; stroke-width: 2; stroke-linejoin: miter"/>
   </g>
   <g id="patch_3">
    <path d="M 241.035 164.96 
C 245.092607 164.96 248.984572 163.347895 251.853734 160.478734 
C 254.722895 157.609572 256.335 153.717607 256.335 149.66 
C 256.335 145.602393 254.722895 141.710428 251.853734 138.841266 
C 248.984572 135.972105 245.092607 134.36 241.035 134.36 
C 236.977393 134.36 233.085428 135.972105 230.216266 138.841266 
C 227.347105 141.710428 225.735 145.602393 225.735 149.66 
C 225.735 153.717607 227.347105 157.609572 230.216266 160.478734 
C 233.085428 163.347895 236.977393 164.96 241.035 164.96 
L 241.035 164.96 
z
" clip-path="url(#p8cc51f693a)" style="fill: none; stroke: #000000; stroke-width: 2; stroke-linejoin: miter"/>
   </g>
   <g id="line2d_1">
    <path d="M 57.435 256.76 
L 57.435 269 
L 49.785 269 
L 57.435 276.65 
L 65.085 269 
L 57.435 269 
" clip-path="url(#p8cc51f693a)" style="fill: none; stroke: #000000; stroke-width: 2; stroke-linecap: round"/>
   </g>
   <g id="line2d_2">
    <path d="M 57.435 256.76 
L 57.435 226.16 
L 49.785 223.61 
L 65.085 218.51 
L 49.785 213.41 
L 65.085 208.31 
L 49.785 203.21 
L 65.085 198.11 
L 57.435 195.56 
L 57.435 164.96 
" clip-path="url(#p8cc51f693a)" style="fill: none; stroke: #000000; stroke-width: 2; stroke-linecap: round"/>
   </g>
   <g id="line2d_3">
    <path d="M 57.435 164.96 
L 57.435 119.06 
L 49.785 116.51 
L 65.085 111.41 
L 49.785 106.31 
L 65.085 101.21 
L 49.785 96.11 
L 65.085 91.01 
L 57.435 88.46 
L 57.435 42.56 
" clip-path="url(#p8cc51f693a)" style="fill: none; stroke: #000000; stroke-width: 2; stroke-linecap: round"/>
   </g>
   <g id="line2d_4">
    <path d="M 57.435 42.56 
L 103.335 42.56 
L 149.235 42.56 
" clip-path="url(#p8cc51f693a)" style="fill: none; stroke: #000000; stroke-width: 2; stroke-linecap: round"/>
   </g>
   <g id="line2d_5">
    <path d="M 149.235 42.56 
L 149.235 88.46 
L 156.885 91.01 
L 141.585 96.11 
L 156.885 101.21 
L 141.585 106.31 
L 156.885 111.41 
L 141.585 116.51 
L 149.235 119.06 
L 149.235 164.96 
" clip-path="url(#p8cc51f693a)" style="fill: none; stroke: #000000; stroke-width: 2; stroke-linecap: round"/>
   </g>
   <g id="line2d_6">
    <path d="M 149.235 164.96 
L 149.235 195.56 
L 156.885 198.11 
L 141.585 203.21 
L 156.885 208.31 
L 141.585 213.41 
L 156.885 218.51 
L 141.585 223.61 
L 149.235 226.16 
L 149.235 256.76 
" clip-path="url(#p8cc51f693a)" style="fill: none; stroke: #000000; stroke-width: 2; stroke-linecap: round"/>
   </g>
   <g id="line2d_7">
    <path d="M 149.235 256.76 
L 103.335 256.76 
L 57.435 256.76 
" clip-path="url(#p8cc51f693a)" style="fill: none; stroke: #000000; stroke-width: 2; stroke-linecap: round"/>
   </g>
   <g id="line2d_8">
    <path d="M 149.235 42.56 
L 195.135 42.56 
L 241.035 42.56 
" clip-path="url(#p8cc51f693a)" style="fill: none; stroke: #000000; stroke-width: 2; stroke-linecap: round"/>
   </g>
   <g id="line2d_9">
    <path d="M 241.035 42.56 
L 241.035 134.36 
L 241.035 134.36 
M 241.035 164.96 
L 241.035 164.96 
L 241.035 256.76 
" clip-path="url(#p8cc51f693a)" style="fill: none; stroke: #000000; stroke-width: 2; stroke-linecap: round"/>
   </g>
   <g id="line2d_10">
    <path d="M 244.095 157.31 
L 237.975 157.31 
" clip-path="url(#p8cc51f693a)" style="fill: none; stroke: #000000; stroke-width: 2; stroke-linecap: round"/>
   </g>
   <g id="line2d_11">
    <path d="M 241.035 138.95 
L 241.035 145.07 
" clip-path="url(#p8cc51f693a)" style="fill: none; stroke: #000000; stroke-width: 2; stroke-linecap: round"/>
   </g>
   <g id="line2d_12">
    <path d="M 244.095 142.01 
L 237.975 142.01 
" clip-path="url(#p8cc51f693a)" style="fill: none; stroke: #000000; stroke-width: 2; stroke-linecap: round"/>
   </g>
   <g id="line2d_13">
    <path d="M 241.035 256.76 
L 195.135 256.76 
L 149.235 256.76 
" clip-path="url(#p8cc51f693a)" style="fill: none; stroke: #000000; stroke-width: 2; stroke-linecap: round"/>
   </g>
   <g id="line2d_14">
    <path d="M 57.435 164.96 
L 88.035 164.96 
L 103.335 149.66 
L 118.635 164.96 
L 103.335 180.26 
L 88.035 164.96 
M 118.635 164.96 
L 149.235 164.96 
" clip-path="url(#p8cc51f693a)" style="fill: none; stroke: #000000; stroke-width: 2; stroke-linecap: round"/>
   </g>
   <g id="line2d_15">
    <path d="M 95.685 168.02 
L 95.685 161.9 
" clip-path="url(#p8cc51f693a)" style="fill: none; stroke: #000000; stroke-width: 2; stroke-linecap: round"/>
   </g>
   <g id="line2d_16">
    <path d="M 107.925 164.96 
L 114.045 164.96 
" clip-path="url(#p8cc51f693a)" style="fill: none; stroke: #000000; stroke-width: 2; stroke-linecap: round"/>
   </g>
   <g id="line2d_17">
    <path d="M 110.985 168.02 
L 110.985 161.9 
" clip-path="url(#p8cc51f693a)" style="fill: none; stroke: #000000; stroke-width: 2; stroke-linecap: round"/>
   </g>
   <g id="line2d_18">
    <path d="M 72.735 88.46 
L 72.735 103.76 
L 72.735 111.41 
" clip-path="url(#p8cc51f693a)" style="fill: none; stroke: #0000ff; stroke-width: 2; stroke-linecap: round"/>
   </g>
   <g id="patch_4">
    <path d="M 75.03 111.41 
L 72.735 119.06 
L 70.44 111.41 
z
" clip-path="url(#p8cc51f693a)" style="fill: #0000ff"/>
   </g>
   <g id="line2d_19">
    <path d="M 72.735 195.56 
L 72.735 210.86 
L 72.735 218.51 
" clip-path="url(#p8cc51f693a)" style="fill: none; stroke: #0000ff; stroke-width: 2; stroke-linecap: round"/>
   </g>
   <g id="patch_5">
    <path d="M 75.03 218.51 
L 72.735 226.16 
L 70.44 218.51 
z
" clip-path="url(#p8cc51f693a)" style="fill: #0000ff"/>
   </g>
   <g id="line2d_20">
    <path d="M 164.535 119.06 
L 164.535 103.76 
L 164.535 96.11 
" clip-path="url(#p8cc51f693a)" style="fill: none; stroke: #0000ff; stroke-width: 2; stroke-linecap: round"/>
   </g>
   <g id="patch_6">
    <path d="M 162.24 96.11 
L 164.535 88.46 
L 166.83 96.11 
z
" clip-path="url(#p8cc51f693a)" style="fill: #0000ff"/>
   </g>
   <g id="line2d_21">
    <path d="M 164.535 195.56 
L 164.535 210.86 
L 164.535 218.51 
" clip-path="url(#p8cc51f693a)" style="fill: none; stroke: #0000ff; stroke-width: 2; stroke-linecap: round"/>
   </g>
   <g id="patch_7">
    <path d="M 166.83 218.51 
L 164.535 226.16 
L 162.24 218.51 
z
" clip-path="url(#p8cc51f693a)" style="fill: #0000ff"/>
   </g>
   <g id="line2d_22">
    <path d="M 26.835 142.01 
L 26.835 164.96 
L 26.835 187.91 
" clip-path="url(#p8cc51f693a)" style="fill: none; stroke: #ffa500; stroke-width: 2; stroke-linecap: round"/>
   </g>
   <g id="line2d_23">
    <path d="M 26.835 187.91 
L 103.335 187.91 
L 179.835 187.91 
" clip-path="url(#p8cc51f693a)" style="fill: none; stroke: #ffa500; stroke-width: 2; stroke-linecap: round"/>
   </g>
   <g id="line2d_24">
    <path d="M 179.835 187.91 
L 179.835 164.96 
L 179.835 142.01 
" clip-path="url(#p8cc51f693a)" style="fill: none; stroke: #ffa500; stroke-width: 2; stroke-linecap: round"/>
   </g>
   <g id="line2d_25">
    <path d="M 179.835 142.01 
L 103.335 142.01 
L 26.835 142.01 
" clip-path="url(#p8cc51f693a)" style="fill: none; stroke: #ffa500; stroke-width: 2; stroke-linecap: round"/>
   </g>
   <g id="line2d_26">
    <path d="M 57.435 256.76 
L 57.435 269 
L 49.785 269 
L 57.435 276.65 
L 65.085 269 
L 57.435 269 
" clip-path="url(#p8cc51f693a)" style="fill: none; stroke: #000000; stroke-width: 2; stroke-linecap: round"/>
   </g>
   <g id="line2d_27">
    <path d="M 57.435 256.76 
L 57.435 226.16 
L 49.785 223.61 
L 65.085 218.51 
L 49.785 213.41 
L 65.085 208.31 
L 49.785 203.21 
L 65.085 198.11 
L 57.435 195.56 
L 57.435 164.96 
" clip-path="url(#p8cc51f693a)" style="fill: none; stroke: #000000; stroke-width: 2; stroke-linecap: round"/>
   </g>
   <g id="line2d_28">
    <path d="M 57.435 164.96 
L 57.435 119.06 
L 49.785 116.51 
L 65.085 111.41 
L 49.785 106.31 
L 65.085 101.21 
L 49.785 96.11 
L 65.085 91.01 
L 57.435 88.46 
L 57.435 42.56 
" clip-path="url(#p8cc51f693a)" style="fill: none; stroke: #000000; stroke-width: 2; stroke-linecap: round"/>
   </g>
   <g id="line2d_29">
    <path d="M 57.435 42.56 
L 103.335 42.56 
L 149.235 42.56 
" clip-path="url(#p8cc51f693a)" style="fill: none; stroke: #000000; stroke-width: 2; stroke-linecap: round"/>
   </g>
   <g id="line2d_30">
    <path d="M 149.235 42.56 
L 149.235 88.46 
L 156.885 91.01 
L 141.585 96.11 
L 156.885 101.21 
L 141.585 106.31 
L 156.885 111.41 
L 141.585 116.51 
L 149.235 119.06 
L 149.235 164.96 
" clip-path="url(#p8cc51f693a)" style="fill: none; stroke: #000000; stroke-width: 2; stroke-linecap: round"/>
   </g>
   <g id="line2d_31">
    <path d="M 149.235 164.96 
L 149.235 195.56 
L 156.885 198.11 
L 141.585 203.21 
L 156.885 208.31 
L 141.585 213.41 
L 156.885 218.51 
L 141.585 223.61 
L 149.235 226.16 
L 149.235 256.76 
" clip-path="url(#p8cc51f693a)" style="fill: none; stroke: #000000; stroke-width: 2; stroke-linecap: round"/>
   </g>
   <g id="line2d_32">
    <path d="M 149.235 256.76 
L 103.335 256.76 
L 57.435 256.76 
" clip-path="url(#p8cc51f693a)" style="fill: none; stroke: #000000; stroke-width: 2; stroke-linecap: round"/>
   </g>
   <g id="line2d_33">
    <path d="M 149.235 42.56 
L 195.135 42.56 
L 241.035 42.56 
" clip-path="url(#p8cc51f693a)" style="fill: none; stroke: #000000; stroke-width: 2; stroke-linecap: round"/>
   </g>
   <g id="line2d_34">
    <path d="M 241.035 42.56 
L 241.035 134.36 
L 241.035 134.36 
M 241.035 164.96 
L 241.035 164.96 
L 241.035 256.76 
" clip-path="url(#p8cc51f693a)" style="fill: none; stroke: #000000; stroke-width: 2; stroke-linecap: round"/>
   </g>
   <g id="line2d_35">
    <path d="M 244.095 157.31 
L 237.975 157.31 
" clip-path="url(#p8cc51f693a)" style="fill: none; stroke: #000000; stroke-width: 2; stroke-linecap: round"/>
   </g>
   <g id="line2d_36">
    <path d="M 241.035 138.95 
L 241.035 145.07 
" clip-path="url(#p8cc51f693a)" style="fill: none; stroke: #000000; stroke-width: 2; stroke-linecap: round"/>
   </g>
   <g id="line2d_37">
    <path d="M 244.095 142.01 
L 237.975 142.01 
" clip-path="url(#p8cc51f693a)" style="fill: none; stroke: #000000; stroke-width: 2; stroke-linecap: round"/>
   </g>
   <g id="line2d_38">
    <path d="M 241.035 256.76 
L 195.135 256.76 
L 149.235 256.76 
" clip-path="url(#p8cc51f693a)" style="fill: none; stroke: #000000; stroke-width: 2; stroke-linecap: round"/>
   </g>
   <g id="line2d_39">
    <path d="M 57.435 164.96 
L 88.035 164.96 
L 103.335 149.66 
L 118.635 164.96 
L 103.335 180.26 
L 88.035 164.96 
M 118.635 164.96 
L 149.235 164.96 
" clip-path="url(#p8cc51f693a)" style="fill: none; stroke: #000000; stroke-width: 2; stroke-linecap: round"/>
   </g>
   <g id="line2d_40">
    <path d="M 95.685 168.02 
L 95.685 161.9 
" clip-path="url(#p8cc51f693a)" style="fill: none; stroke: #000000; stroke-width: 2; stroke-linecap: round"/>
   </g>
   <g id="line2d_41">
    <path d="M 107.925 164.96 
L 114.045 164.96 
" clip-path="url(#p8cc51f693a)" style="fill: none; stroke: #000000; stroke-width: 2; stroke-linecap: round"/>
   </g>
   <g id="line2d_42">
    <path d="M 110.985 168.02 
L 110.985 161.9 
" clip-path="url(#p8cc51f693a)" style="fill: none; stroke: #000000; stroke-width: 2; stroke-linecap: round"/>
   </g>
   <g id="line2d_43">
    <path d="M 72.735 88.46 
L 72.735 103.76 
L 72.735 111.41 
" clip-path="url(#p8cc51f693a)" style="fill: none; stroke: #0000ff; stroke-width: 2; stroke-linecap: round"/>
   </g>
   <g id="patch_8">
    <path d="M 75.03 111.41 
L 72.735 119.06 
L 70.44 111.41 
z
" clip-path="url(#p8cc51f693a)" style="fill: #0000ff"/>
   </g>
   <g id="line2d_44">
    <path d="M 72.735 195.56 
L 72.735 210.86 
L 72.735 218.51 
" clip-path="url(#p8cc51f693a)" style="fill: none; stroke: #0000ff; stroke-width: 2; stroke-linecap: round"/>
   </g>
   <g id="patch_9">
    <path d="M 75.03 218.51 
L 72.735 226.16 
L 70.44 218.51 
z
" clip-path="url(#p8cc51f693a)" style="fill: #0000ff"/>
   </g>
   <g id="line2d_45">
    <path d="M 164.535 119.06 
L 164.535 103.76 
L 164.535 96.11 
" clip-path="url(#p8cc51f693a)" style="fill: none; stroke: #0000ff; stroke-width: 2; stroke-linecap: round"/>
   </g>
   <g id="patch_10">
    <path d="M 162.24 96.11 
L 164.535 88.46 
L 166.83 96.11 
z
" clip-path="url(#p8cc51f693a)" style="fill: #0000ff"/>
   </g>
   <g id="line2d_46">
    <path d="M 164.535 195.56 
L 164.535 210.86 
L 164.535 218.51 
" clip-path="url(#p8cc51f693a)" style="fill: none; stroke: #0000ff; stroke-width: 2; stroke-linecap: round"/>
   </g>
   <g id="patch_11">
    <path d="M 166.83 218.51 
L 164.535 226.16 
L 162.24 218.51 
z
" clip-path="url(#p8cc51f693a)" style="fill: #0000ff"/>
   </g>
   <g id="line2d_47">
    <path d="M 26.835 142.01 
L 26.835 164.96 
L 26.835 187.91 
" clip-path="url(#p8cc51f693a)" style="fill: none; stroke: #ffa500; stroke-width: 2; stroke-linecap: round"/>
   </g>
   <g id="line2d_48">
    <path d="M 26.835 187.91 
L 103.335 187.91 
L 179.835 187.91 
" clip-path="url(#p8cc51f693a)" style="fill: none; stroke: #ffa500; stroke-width: 2; stroke-linecap: round"/>
   </g>
   <g id="line2d_49">
    <path d="M 179.835 187.91 
L 179.835 164.96 
L 179.835 142.01 
" clip-path="url(#p8cc51f693a)" style="fill: none; stroke: #ffa500; stroke-width: 2; stroke-linecap: round"/>
   </g>
   <g id="line2d_50">
    <path d="M 179.835 142.01 
L 103.335 142.01 
L 26.835 142.01 
" clip-path="url(#p8cc51f693a)" style="fill: none; stroke: #ffa500; stroke-width: 2; stroke-linecap: round"/>
   </g>
   <g id="text_1">
    <g clip-path="url(#p8cc51f693a)">
     <!-- $R_3$ -->
     <g transform="translate(34.1 207.310586)scale(0.125 -0.125)">
      <defs>
       <path id="STIXGeneral-Italic-52" d="M 845 4179 
L 2458 4179 
Q 3078 4179 3420 3936 
Q 3763 3693 3763 3277 
Q 3763 2778 3341 2458 
Q 3091 2266 2502 2131 
L 3072 627 
Q 3181 333 3299 217 
Q 3418 102 3629 102 
L 3629 0 
L 2688 0 
L 1901 2074 
L 1478 2106 
L 1126 806 
Q 1043 512 1043 403 
Q 1043 256 1126 192 
Q 1210 128 1472 102 
L 1472 0 
L -83 0 
L -83 102 
Q 173 134 278 243 
Q 384 352 461 646 
L 1222 3405 
Q 1299 3699 1299 3808 
Q 1299 3923 1210 3987 
Q 1133 4038 845 4077 
L 845 4179 
z
M 1958 3795 
L 1555 2342 
Q 1754 2310 1882 2310 
Q 2451 2310 2771 2566 
Q 3091 2822 3091 3270 
Q 3091 3603 2892 3795 
Q 2694 3987 2323 3987 
Q 2010 3987 1958 3795 
z
" transform="scale(0.015625)"/>
       <path id="STIXGeneral-Regular-33" d="M 390 3264 
L 288 3290 
Q 435 3770 748 4048 
Q 1062 4326 1542 4326 
Q 1990 4326 2265 4083 
Q 2541 3840 2541 3450 
Q 2541 2925 1946 2566 
Q 2298 2413 2477 2227 
Q 2758 1914 2758 1402 
Q 2758 890 2464 506 
Q 2246 211 1840 60 
Q 1434 -90 979 -90 
Q 262 -90 262 275 
Q 262 378 339 442 
Q 416 506 525 506 
Q 685 506 915 339 
Q 1197 141 1466 141 
Q 1818 141 2058 425 
Q 2298 710 2298 1120 
Q 2298 1856 1632 2048 
Q 1434 2112 979 2112 
L 979 2202 
Q 1338 2323 1517 2432 
Q 2035 2726 2035 3290 
Q 2035 3610 1852 3776 
Q 1670 3942 1344 3942 
Q 768 3942 390 3264 
z
" transform="scale(0.015625)"/>
      </defs>
      <use xlink:href="#STIXGeneral-Italic-52" transform="translate(0 0.703125)"/>
      <use xlink:href="#STIXGeneral-Regular-33" transform="translate(61.099991 -12.525)scale(0.7)"/>
     </g>
    </g>
    <g clip-path="url(#p8cc51f693a)">
     <!-- $24~\Omega$ -->
     <g transform="translate(21.85 221.307852)scale(0.125 -0.125)">
      <defs>
       <path id="STIXGeneral-Regular-32" d="M 3034 877 
L 2688 0 
L 186 0 
L 186 77 
L 1325 1286 
Q 1773 1754 1965 2144 
Q 2157 2534 2157 2950 
Q 2157 3379 1920 3616 
Q 1683 3853 1267 3853 
Q 922 3853 720 3673 
Q 518 3494 326 3021 
L 192 3053 
Q 301 3648 630 3987 
Q 960 4326 1523 4326 
Q 2054 4326 2380 4006 
Q 2707 3686 2707 3200 
Q 2707 2477 1888 1613 
L 832 486 
L 2330 486 
Q 2541 486 2665 569 
Q 2790 653 2944 915 
L 3034 877 
z
" transform="scale(0.015625)"/>
       <path id="STIXGeneral-Regular-34" d="M 3027 1069 
L 2368 1069 
L 2368 0 
L 1869 0 
L 1869 1069 
L 77 1069 
L 77 1478 
L 2086 4326 
L 2368 4326 
L 2368 1478 
L 3027 1478 
L 3027 1069 
z
M 1869 1478 
L 1869 3674 
L 333 1478 
L 1869 1478 
z
" transform="scale(0.015625)"/>
       <path id="STIXGeneral-Regular-3a9" d="M 4576 0 
L 2746 0 
L 2790 1030 
Q 3187 1126 3440 1574 
Q 3693 2022 3693 2554 
Q 3693 3251 3344 3673 
Q 2995 4096 2380 4096 
Q 1766 4096 1417 3635 
Q 1069 3174 1069 2554 
Q 1069 2054 1315 1600 
Q 1562 1146 1965 1030 
L 2022 0 
L 186 0 
L 186 1094 
L 346 1094 
Q 352 806 438 707 
Q 525 608 742 608 
L 1709 608 
L 1696 845 
Q 1018 1037 678 1446 
Q 339 1856 339 2541 
Q 339 3238 899 3782 
Q 1459 4326 2380 4326 
Q 3302 4326 3862 3804 
Q 4422 3283 4422 2541 
Q 4422 1235 3046 845 
L 3034 608 
L 4019 608 
Q 4397 608 4416 1082 
L 4576 1082 
L 4576 0 
z
" transform="scale(0.015625)"/>
      </defs>
      <use xlink:href="#STIXGeneral-Regular-32" transform="translate(0 0.40625)"/>
      <use xlink:href="#STIXGeneral-Regular-34" transform="translate(49.999985 0.40625)"/>
      <use xlink:href="#STIXGeneral-Regular-3a9" transform="translate(124.066389 0.40625)"/>
     </g>
    </g>
   </g>
   <g id="text_2">
    <g clip-path="url(#p8cc51f693a)">
     <!-- A -->
     <g transform="translate(37.859609 177.660391)scale(0.125 -0.125)">
      <defs>
       <path id="DejaVuSans-41" d="M 2188 4044 
L 1331 1722 
L 3047 1722 
L 2188 4044 
z
M 1831 4666 
L 2547 4666 
L 4325 0 
L 3669 0 
L 3244 1197 
L 1141 1197 
L 716 0 
L 50 0 
L 1831 4666 
z
" transform="scale(0.015625)"/>
      </defs>
      <use xlink:href="#DejaVuSans-41"/>
     </g>
    </g>
   </g>
   <g id="text_3">
    <g clip-path="url(#p8cc51f693a)">
     <!-- $R_1$ -->
     <g transform="translate(34.1 100.210586)scale(0.125 -0.125)">
      <defs>
       <path id="STIXGeneral-Regular-31" d="M 2522 0 
L 755 0 
L 755 96 
Q 1107 115 1235 227 
Q 1363 339 1363 608 
L 1363 3482 
Q 1363 3795 1171 3795 
Q 1082 3795 883 3718 
L 710 3654 
L 710 3744 
L 1856 4326 
L 1914 4307 
L 1914 486 
Q 1914 275 2042 185 
Q 2170 96 2522 96 
L 2522 0 
z
" transform="scale(0.015625)"/>
      </defs>
      <use xlink:href="#STIXGeneral-Italic-52" transform="translate(0 0.703125)"/>
      <use xlink:href="#STIXGeneral-Regular-31" transform="translate(61.099991 -12.525)scale(0.7)"/>
     </g>
    </g>
    <g clip-path="url(#p8cc51f693a)">
     <!-- $8~\Omega$ -->
     <g transform="translate(28.1 114.207852)scale(0.125 -0.125)">
      <defs>
       <path id="STIXGeneral-Regular-38" d="M 2848 992 
Q 2848 499 2505 204 
Q 2163 -90 1587 -90 
Q 1050 -90 704 204 
Q 358 499 358 954 
Q 358 1293 524 1533 
Q 691 1773 1190 2125 
Q 710 2522 553 2765 
Q 397 3008 397 3328 
Q 397 3782 745 4054 
Q 1094 4326 1638 4326 
Q 2106 4326 2410 4060 
Q 2714 3795 2714 3411 
Q 2714 3059 2531 2848 
Q 2349 2637 1856 2374 
Q 2432 1990 2640 1689 
Q 2848 1389 2848 992 
z
M 2272 3411 
Q 2272 3744 2086 3945 
Q 1901 4147 1574 4147 
Q 1248 4147 1059 3977 
Q 870 3808 870 3513 
Q 870 3219 1059 2979 
Q 1248 2739 1670 2490 
Q 1997 2682 2134 2896 
Q 2272 3110 2272 3411 
z
M 1734 1741 
L 1357 1997 
Q 1075 1766 960 1545 
Q 845 1325 845 1011 
Q 845 576 1065 333 
Q 1286 90 1658 90 
Q 1971 90 2166 285 
Q 2362 480 2362 794 
Q 2362 1082 2214 1299 
Q 2067 1517 1734 1741 
z
" transform="scale(0.015625)"/>
      </defs>
      <use xlink:href="#STIXGeneral-Regular-38" transform="translate(0 0.40625)"/>
      <use xlink:href="#STIXGeneral-Regular-3a9" transform="translate(74.066405 0.40625)"/>
     </g>
    </g>
   </g>
   <g id="text_4">
    <g clip-path="url(#p8cc51f693a)">
     <!-- C -->
     <g transform="translate(149.235 30.709219)scale(0.125 -0.125)">
      <defs>
       <path id="DejaVuSans-43" d="M 4122 4306 
L 4122 3641 
Q 3803 3938 3442 4084 
Q 3081 4231 2675 4231 
Q 1875 4231 1450 3742 
Q 1025 3253 1025 2328 
Q 1025 1406 1450 917 
Q 1875 428 2675 428 
Q 3081 428 3442 575 
Q 3803 722 4122 1019 
L 4122 359 
Q 3791 134 3420 21 
Q 3050 -91 2638 -91 
Q 1578 -91 968 557 
Q 359 1206 359 2328 
Q 359 3453 968 4101 
Q 1578 4750 2638 4750 
Q 3056 4750 3426 4639 
Q 3797 4528 4122 4306 
z
" transform="scale(0.015625)"/>
      </defs>
      <use xlink:href="#DejaVuSans-43"/>
     </g>
    </g>
   </g>
   <g id="text_5">
    <g clip-path="url(#p8cc51f693a)">
     <!-- $R_2$ -->
     <g transform="translate(125.9 100.210586)scale(0.125 -0.125)">
      <use xlink:href="#STIXGeneral-Italic-52" transform="translate(0 0.703125)"/>
      <use xlink:href="#STIXGeneral-Regular-32" transform="translate(61.099991 -12.525)scale(0.7)"/>
     </g>
    </g>
    <g clip-path="url(#p8cc51f693a)">
     <!-- $12~\Omega$ -->
     <g transform="translate(113.65 114.207852)scale(0.125 -0.125)">
      <use xlink:href="#STIXGeneral-Regular-31" transform="translate(0 0.40625)"/>
      <use xlink:href="#STIXGeneral-Regular-32" transform="translate(49.999985 0.40625)"/>
      <use xlink:href="#STIXGeneral-Regular-3a9" transform="translate(124.066389 0.40625)"/>
     </g>
    </g>
   </g>
   <g id="text_6">
    <g clip-path="url(#p8cc51f693a)">
     <!-- B -->
     <g transform="translate(160.246914 174.458047)scale(0.125 -0.125)">
      <defs>
       <path id="DejaVuSans-42" d="M 1259 2228 
L 1259 519 
L 2272 519 
Q 2781 519 3026 730 
Q 3272 941 3272 1375 
Q 3272 1813 3026 2020 
Q 2781 2228 2272 2228 
L 1259 2228 
z
M 1259 4147 
L 1259 2741 
L 2194 2741 
Q 2656 2741 2882 2914 
Q 3109 3088 3109 3444 
Q 3109 3797 2882 3972 
Q 2656 4147 2194 4147 
L 1259 4147 
z
M 628 4666 
L 2241 4666 
Q 2963 4666 3353 4366 
Q 3744 4066 3744 3513 
Q 3744 3084 3544 2831 
Q 3344 2578 2956 2516 
Q 3422 2416 3680 2098 
Q 3938 1781 3938 1306 
Q 3938 681 3513 340 
Q 3088 0 2303 0 
L 628 0 
L 628 4666 
z
" transform="scale(0.015625)"/>
      </defs>
      <use xlink:href="#DejaVuSans-42"/>
     </g>
    </g>
   </g>
   <g id="text_7">
    <g clip-path="url(#p8cc51f693a)">
     <!-- $R_4$ -->
     <g transform="translate(125.9 207.310586)scale(0.125 -0.125)">
      <use xlink:href="#STIXGeneral-Italic-52" transform="translate(0 0.703125)"/>
      <use xlink:href="#STIXGeneral-Regular-34" transform="translate(61.099991 -12.525)scale(0.7)"/>
     </g>
    </g>
    <g clip-path="url(#p8cc51f693a)">
     <!-- $6~\Omega$ -->
     <g transform="translate(119.9 221.307852)scale(0.125 -0.125)">
      <defs>
       <path id="STIXGeneral-Regular-36" d="M 2854 4378 
L 2867 4275 
Q 2112 4154 1606 3664 
Q 1101 3174 973 2451 
Q 1344 2739 1786 2739 
Q 2349 2739 2672 2380 
Q 2995 2022 2995 1402 
Q 2995 774 2669 378 
Q 2291 -90 1651 -90 
Q 870 -90 518 557 
Q 218 1107 218 1786 
Q 218 2835 915 3552 
Q 1312 3962 1731 4131 
Q 2150 4301 2854 4378 
z
M 2419 1203 
Q 2419 2445 1555 2445 
Q 1235 2445 1024 2275 
Q 813 2106 813 1702 
Q 813 954 1046 522 
Q 1280 90 1722 90 
Q 2061 90 2240 394 
Q 2419 698 2419 1203 
z
" transform="scale(0.015625)"/>
      </defs>
      <use xlink:href="#STIXGeneral-Regular-36" transform="translate(0 0.59375)"/>
      <use xlink:href="#STIXGeneral-Regular-3a9" transform="translate(74.066405 0.59375)"/>
     </g>
    </g>
   </g>
   <g id="text_8">
    <g clip-path="url(#p8cc51f693a)">
     <!-- $V_S$ -->
     <g transform="translate(210.05 146.110586)scale(0.125 -0.125)">
      <defs>
       <path id="STIXGeneral-Italic-56" d="M 4403 4179 
L 4403 4077 
Q 4198 4070 4045 3821 
L 1658 -115 
L 1536 -115 
L 1011 3104 
Q 902 3776 828 3910 
Q 755 4045 486 4077 
L 486 4179 
L 2022 4179 
L 2022 4077 
Q 1722 4045 1629 3981 
Q 1536 3917 1536 3750 
Q 1536 3686 1542 3654 
L 1958 819 
L 3302 3123 
Q 3616 3661 3616 3859 
Q 3616 4032 3219 4077 
L 3219 4179 
L 4403 4179 
z
" transform="scale(0.015625)"/>
       <path id="STIXGeneral-Italic-53" d="M 3251 4269 
L 2995 2989 
L 2880 3008 
Q 2880 3539 2720 3795 
Q 2560 4051 2118 4051 
Q 1786 4051 1594 3881 
Q 1402 3712 1402 3411 
Q 1402 3168 1504 3005 
Q 1606 2842 2035 2413 
Q 2464 1978 2611 1715 
Q 2758 1453 2758 1133 
Q 2758 589 2390 237 
Q 2022 -115 1466 -115 
Q 1222 -115 800 32 
Q 595 109 499 109 
Q 288 109 224 -96 
L 109 -96 
L 326 1338 
L 454 1325 
Q 442 1267 442 1178 
Q 442 710 701 409 
Q 960 109 1363 109 
Q 1734 109 1968 336 
Q 2202 563 2202 928 
Q 2202 1139 2118 1308 
Q 2035 1478 1818 1715 
L 1568 1984 
Q 1549 2003 1459 2102 
Q 1370 2202 1318 2253 
Q 1030 2560 934 2755 
Q 838 2950 838 3213 
Q 838 3699 1168 3980 
Q 1498 4262 1978 4262 
Q 2310 4262 2522 4173 
Q 2707 4102 2816 4102 
Q 2925 4102 2982 4134 
Q 3040 4166 3104 4269 
L 3251 4269 
z
" transform="scale(0.015625)"/>
      </defs>
      <use xlink:href="#STIXGeneral-Italic-56" transform="translate(0 0.703125)"/>
      <use xlink:href="#STIXGeneral-Italic-53" transform="translate(61.099991 -12.525)scale(0.7)"/>
     </g>
    </g>
    <g clip-path="url(#p8cc51f693a)">
     <!-- $15~V$ -->
     <g transform="translate(199.425 160.107852)scale(0.125 -0.125)">
      <defs>
       <path id="STIXGeneral-Regular-35" d="M 2803 4358 
L 2573 3814 
Q 2534 3731 2400 3731 
L 1158 3731 
L 902 3187 
Q 1606 3053 1920 2896 
Q 2234 2739 2502 2368 
Q 2726 2061 2726 1555 
Q 2726 1094 2576 780 
Q 2426 467 2099 224 
Q 1664 -90 1011 -90 
Q 646 -90 422 19 
Q 198 128 198 307 
Q 198 550 486 550 
Q 717 550 960 352 
Q 1210 147 1414 147 
Q 1747 147 2012 480 
Q 2278 813 2278 1229 
Q 2278 1843 1850 2189 
Q 1293 2637 486 2637 
Q 410 2637 410 2688 
L 416 2720 
L 1114 4237 
L 2438 4237 
Q 2547 4237 2608 4269 
Q 2669 4301 2746 4403 
L 2803 4358 
z
" transform="scale(0.015625)"/>
      </defs>
      <use xlink:href="#STIXGeneral-Regular-31" transform="translate(0 0.203125)"/>
      <use xlink:href="#STIXGeneral-Regular-35" transform="translate(49.999985 0.203125)"/>
      <use xlink:href="#STIXGeneral-Italic-56" transform="translate(124.066389 0.203125)"/>
     </g>
    </g>
   </g>
   <g id="text_9">
    <g clip-path="url(#p8cc51f693a)">
     <!-- $4I_x$ -->
     <g transform="translate(95.8975 192.818047)scale(0.125 -0.125)">
      <defs>
       <path id="STIXGeneral-Italic-49" d="M 2458 4179 
L 2458 4077 
Q 2189 4045 2102 3961 
Q 2016 3878 1933 3584 
L 1165 838 
Q 1069 499 1069 352 
Q 1069 224 1149 179 
Q 1229 134 1510 102 
L 1510 0 
L -51 0 
L -51 102 
Q 218 154 317 237 
Q 416 320 486 582 
L 1254 3405 
Q 1338 3699 1338 3802 
Q 1338 3930 1235 3997 
Q 1133 4064 877 4077 
L 877 4179 
L 2458 4179 
z
" transform="scale(0.015625)"/>
       <path id="STIXGeneral-Italic-78" d="M 1555 2272 
L 1632 1907 
Q 1971 2426 2179 2624 
Q 2387 2822 2598 2822 
Q 2714 2822 2787 2755 
Q 2861 2688 2861 2585 
Q 2861 2483 2800 2419 
Q 2739 2355 2643 2355 
Q 2586 2355 2490 2409 
Q 2394 2464 2310 2464 
Q 2125 2464 1683 1690 
Q 1683 1606 1734 1402 
L 1939 544 
Q 2003 282 2131 282 
Q 2234 282 2432 538 
Q 2451 563 2476 598 
Q 2502 634 2521 662 
Q 2541 691 2566 717 
L 2662 659 
Q 2387 230 2227 80 
Q 2067 -70 1882 -70 
Q 1728 -70 1645 26 
Q 1562 122 1504 365 
L 1318 1126 
L 755 365 
Q 557 96 432 13 
Q 307 -70 147 -70 
Q 0 -70 -86 0 
Q -173 70 -173 198 
Q -173 294 -112 361 
Q -51 429 45 429 
Q 122 429 250 358 
Q 346 301 416 301 
Q 525 301 742 614 
L 1267 1357 
L 1088 2150 
Q 1024 2432 969 2509 
Q 915 2586 794 2586 
Q 717 2586 544 2541 
L 429 2509 
L 410 2611 
L 480 2637 
Q 992 2822 1229 2822 
Q 1350 2822 1420 2707 
Q 1491 2592 1555 2272 
z
" transform="scale(0.015625)"/>
      </defs>
      <use xlink:href="#STIXGeneral-Regular-34" transform="translate(0 0.40625)"/>
      <use xlink:href="#STIXGeneral-Italic-49" transform="translate(49.999985 0.40625)"/>
      <use xlink:href="#STIXGeneral-Italic-78" transform="translate(83.299973 -12.821875)scale(0.7)"/>
     </g>
    </g>
   </g>
   <g id="text_10">
    <g clip-path="url(#p8cc51f693a)">
     <!-- Super Node -->
     <g style="fill: #ffa500" transform="translate(66.723672 136.350391)scale(0.125 -0.125)">
      <defs>
       <path id="DejaVuSans-53" d="M 3425 4513 
L 3425 3897 
Q 3066 4069 2747 4153 
Q 2428 4238 2131 4238 
Q 1616 4238 1336 4038 
Q 1056 3838 1056 3469 
Q 1056 3159 1242 3001 
Q 1428 2844 1947 2747 
L 2328 2669 
Q 3034 2534 3370 2195 
Q 3706 1856 3706 1288 
Q 3706 609 3251 259 
Q 2797 -91 1919 -91 
Q 1588 -91 1214 -16 
Q 841 59 441 206 
L 441 856 
Q 825 641 1194 531 
Q 1563 422 1919 422 
Q 2459 422 2753 634 
Q 3047 847 3047 1241 
Q 3047 1584 2836 1778 
Q 2625 1972 2144 2069 
L 1759 2144 
Q 1053 2284 737 2584 
Q 422 2884 422 3419 
Q 422 4038 858 4394 
Q 1294 4750 2059 4750 
Q 2388 4750 2728 4690 
Q 3069 4631 3425 4513 
z
" transform="scale(0.015625)"/>
       <path id="DejaVuSans-75" d="M 544 1381 
L 544 3500 
L 1119 3500 
L 1119 1403 
Q 1119 906 1312 657 
Q 1506 409 1894 409 
Q 2359 409 2629 706 
Q 2900 1003 2900 1516 
L 2900 3500 
L 3475 3500 
L 3475 0 
L 2900 0 
L 2900 538 
Q 2691 219 2414 64 
Q 2138 -91 1772 -91 
Q 1169 -91 856 284 
Q 544 659 544 1381 
z
M 1991 3584 
L 1991 3584 
z
" transform="scale(0.015625)"/>
       <path id="DejaVuSans-70" d="M 1159 525 
L 1159 -1331 
L 581 -1331 
L 581 3500 
L 1159 3500 
L 1159 2969 
Q 1341 3281 1617 3432 
Q 1894 3584 2278 3584 
Q 2916 3584 3314 3078 
Q 3713 2572 3713 1747 
Q 3713 922 3314 415 
Q 2916 -91 2278 -91 
Q 1894 -91 1617 61 
Q 1341 213 1159 525 
z
M 3116 1747 
Q 3116 2381 2855 2742 
Q 2594 3103 2138 3103 
Q 1681 3103 1420 2742 
Q 1159 2381 1159 1747 
Q 1159 1113 1420 752 
Q 1681 391 2138 391 
Q 2594 391 2855 752 
Q 3116 1113 3116 1747 
z
" transform="scale(0.015625)"/>
       <path id="DejaVuSans-65" d="M 3597 1894 
L 3597 1613 
L 953 1613 
Q 991 1019 1311 708 
Q 1631 397 2203 397 
Q 2534 397 2845 478 
Q 3156 559 3463 722 
L 3463 178 
Q 3153 47 2828 -22 
Q 2503 -91 2169 -91 
Q 1331 -91 842 396 
Q 353 884 353 1716 
Q 353 2575 817 3079 
Q 1281 3584 2069 3584 
Q 2775 3584 3186 3129 
Q 3597 2675 3597 1894 
z
M 3022 2063 
Q 3016 2534 2758 2815 
Q 2500 3097 2075 3097 
Q 1594 3097 1305 2825 
Q 1016 2553 972 2059 
L 3022 2063 
z
" transform="scale(0.015625)"/>
       <path id="DejaVuSans-72" d="M 2631 2963 
Q 2534 3019 2420 3045 
Q 2306 3072 2169 3072 
Q 1681 3072 1420 2755 
Q 1159 2438 1159 1844 
L 1159 0 
L 581 0 
L 581 3500 
L 1159 3500 
L 1159 2956 
Q 1341 3275 1631 3429 
Q 1922 3584 2338 3584 
Q 2397 3584 2469 3576 
Q 2541 3569 2628 3553 
L 2631 2963 
z
" transform="scale(0.015625)"/>
       <path id="DejaVuSans-20" transform="scale(0.015625)"/>
       <path id="DejaVuSans-4e" d="M 628 4666 
L 1478 4666 
L 3547 763 
L 3547 4666 
L 4159 4666 
L 4159 0 
L 3309 0 
L 1241 3903 
L 1241 0 
L 628 0 
L 628 4666 
z
" transform="scale(0.015625)"/>
       <path id="DejaVuSans-6f" d="M 1959 3097 
Q 1497 3097 1228 2736 
Q 959 2375 959 1747 
Q 959 1119 1226 758 
Q 1494 397 1959 397 
Q 2419 397 2687 759 
Q 2956 1122 2956 1747 
Q 2956 2369 2687 2733 
Q 2419 3097 1959 3097 
z
M 1959 3584 
Q 2709 3584 3137 3096 
Q 3566 2609 3566 1747 
Q 3566 888 3137 398 
Q 2709 -91 1959 -91 
Q 1206 -91 779 398 
Q 353 888 353 1747 
Q 353 2609 779 3096 
Q 1206 3584 1959 3584 
z
" transform="scale(0.015625)"/>
       <path id="DejaVuSans-64" d="M 2906 2969 
L 2906 4863 
L 3481 4863 
L 3481 0 
L 2906 0 
L 2906 525 
Q 2725 213 2448 61 
Q 2172 -91 1784 -91 
Q 1150 -91 751 415 
Q 353 922 353 1747 
Q 353 2572 751 3078 
Q 1150 3584 1784 3584 
Q 2172 3584 2448 3432 
Q 2725 3281 2906 2969 
z
M 947 1747 
Q 947 1113 1208 752 
Q 1469 391 1925 391 
Q 2381 391 2643 752 
Q 2906 1113 2906 1747 
Q 2906 2381 2643 2742 
Q 2381 3103 1925 3103 
Q 1469 3103 1208 2742 
Q 947 2381 947 1747 
z
" transform="scale(0.015625)"/>
      </defs>
      <use xlink:href="#DejaVuSans-53"/>
      <use xlink:href="#DejaVuSans-75" x="63.476562"/>
      <use xlink:href="#DejaVuSans-70" x="126.855469"/>
      <use xlink:href="#DejaVuSans-65" x="190.332031"/>
      <use xlink:href="#DejaVuSans-72" x="251.855469"/>
      <use xlink:href="#DejaVuSans-20" x="292.96875"/>
      <use xlink:href="#DejaVuSans-4e" x="324.755859"/>
      <use xlink:href="#DejaVuSans-6f" x="399.560547"/>
      <use xlink:href="#DejaVuSans-64" x="460.742188"/>
      <use xlink:href="#DejaVuSans-65" x="524.21875"/>
     </g>
    </g>
   </g>
   <g id="text_11">
    <g clip-path="url(#p8cc51f693a)">
     <!-- $R_3$ -->
     <g transform="translate(34.1 207.310586)scale(0.125 -0.125)">
      <use xlink:href="#STIXGeneral-Italic-52" transform="translate(0 0.703125)"/>
      <use xlink:href="#STIXGeneral-Regular-33" transform="translate(61.099991 -12.525)scale(0.7)"/>
     </g>
    </g>
    <g clip-path="url(#p8cc51f693a)">
     <!-- $24~\Omega$ -->
     <g transform="translate(21.85 221.307852)scale(0.125 -0.125)">
      <use xlink:href="#STIXGeneral-Regular-32" transform="translate(0 0.40625)"/>
      <use xlink:href="#STIXGeneral-Regular-34" transform="translate(49.999985 0.40625)"/>
      <use xlink:href="#STIXGeneral-Regular-3a9" transform="translate(124.066389 0.40625)"/>
     </g>
    </g>
   </g>
   <g id="text_12">
    <g clip-path="url(#p8cc51f693a)">
     <!-- A -->
     <g transform="translate(37.859609 177.660391)scale(0.125 -0.125)">
      <use xlink:href="#DejaVuSans-41"/>
     </g>
    </g>
   </g>
   <g id="text_13">
    <g clip-path="url(#p8cc51f693a)">
     <!-- $R_1$ -->
     <g transform="translate(34.1 100.210586)scale(0.125 -0.125)">
      <use xlink:href="#STIXGeneral-Italic-52" transform="translate(0 0.703125)"/>
      <use xlink:href="#STIXGeneral-Regular-31" transform="translate(61.099991 -12.525)scale(0.7)"/>
     </g>
    </g>
    <g clip-path="url(#p8cc51f693a)">
     <!-- $8~\Omega$ -->
     <g transform="translate(28.1 114.207852)scale(0.125 -0.125)">
      <use xlink:href="#STIXGeneral-Regular-38" transform="translate(0 0.40625)"/>
      <use xlink:href="#STIXGeneral-Regular-3a9" transform="translate(74.066405 0.40625)"/>
     </g>
    </g>
   </g>
   <g id="text_14">
    <g clip-path="url(#p8cc51f693a)">
     <!-- C -->
     <g transform="translate(149.235 30.709219)scale(0.125 -0.125)">
      <use xlink:href="#DejaVuSans-43"/>
     </g>
    </g>
   </g>
   <g id="text_15">
    <g clip-path="url(#p8cc51f693a)">
     <!-- $R_2$ -->
     <g transform="translate(125.9 100.210586)scale(0.125 -0.125)">
      <use xlink:href="#STIXGeneral-Italic-52" transform="translate(0 0.703125)"/>
      <use xlink:href="#STIXGeneral-Regular-32" transform="translate(61.099991 -12.525)scale(0.7)"/>
     </g>
    </g>
    <g clip-path="url(#p8cc51f693a)">
     <!-- $12~\Omega$ -->
     <g transform="translate(113.65 114.207852)scale(0.125 -0.125)">
      <use xlink:href="#STIXGeneral-Regular-31" transform="translate(0 0.40625)"/>
      <use xlink:href="#STIXGeneral-Regular-32" transform="translate(49.999985 0.40625)"/>
      <use xlink:href="#STIXGeneral-Regular-3a9" transform="translate(124.066389 0.40625)"/>
     </g>
    </g>
   </g>
   <g id="text_16">
    <g clip-path="url(#p8cc51f693a)">
     <!-- B -->
     <g transform="translate(160.246914 174.458047)scale(0.125 -0.125)">
      <use xlink:href="#DejaVuSans-42"/>
     </g>
    </g>
   </g>
   <g id="text_17">
    <g clip-path="url(#p8cc51f693a)">
     <!-- $R_4$ -->
     <g transform="translate(125.9 207.310586)scale(0.125 -0.125)">
      <use xlink:href="#STIXGeneral-Italic-52" transform="translate(0 0.703125)"/>
      <use xlink:href="#STIXGeneral-Regular-34" transform="translate(61.099991 -12.525)scale(0.7)"/>
     </g>
    </g>
    <g clip-path="url(#p8cc51f693a)">
     <!-- $6~\Omega$ -->
     <g transform="translate(119.9 221.307852)scale(0.125 -0.125)">
      <use xlink:href="#STIXGeneral-Regular-36" transform="translate(0 0.59375)"/>
      <use xlink:href="#STIXGeneral-Regular-3a9" transform="translate(74.066405 0.59375)"/>
     </g>
    </g>
   </g>
   <g id="text_18">
    <g clip-path="url(#p8cc51f693a)">
     <!-- $V_S$ -->
     <g transform="translate(210.05 146.110586)scale(0.125 -0.125)">
      <use xlink:href="#STIXGeneral-Italic-56" transform="translate(0 0.703125)"/>
      <use xlink:href="#STIXGeneral-Italic-53" transform="translate(61.099991 -12.525)scale(0.7)"/>
     </g>
    </g>
    <g clip-path="url(#p8cc51f693a)">
     <!-- $15~V$ -->
     <g transform="translate(199.425 160.107852)scale(0.125 -0.125)">
      <use xlink:href="#STIXGeneral-Regular-31" transform="translate(0 0.203125)"/>
      <use xlink:href="#STIXGeneral-Regular-35" transform="translate(49.999985 0.203125)"/>
      <use xlink:href="#STIXGeneral-Italic-56" transform="translate(124.066389 0.203125)"/>
     </g>
    </g>
   </g>
   <g id="text_19">
    <g clip-path="url(#p8cc51f693a)">
     <!-- $4I_x$ -->
     <g transform="translate(95.8975 192.818047)scale(0.125 -0.125)">
      <use xlink:href="#STIXGeneral-Regular-34" transform="translate(0 0.40625)"/>
      <use xlink:href="#STIXGeneral-Italic-49" transform="translate(49.999985 0.40625)"/>
      <use xlink:href="#STIXGeneral-Italic-78" transform="translate(83.299973 -12.821875)scale(0.7)"/>
     </g>
    </g>
   </g>
   <g id="text_20">
    <g clip-path="url(#p8cc51f693a)">
     <!-- Super Node -->
     <g style="fill: #ffa500" transform="translate(66.723672 136.350391)scale(0.125 -0.125)">
      <use xlink:href="#DejaVuSans-53"/>
      <use xlink:href="#DejaVuSans-75" x="63.476562"/>
      <use xlink:href="#DejaVuSans-70" x="126.855469"/>
      <use xlink:href="#DejaVuSans-65" x="190.332031"/>
      <use xlink:href="#DejaVuSans-72" x="251.855469"/>
      <use xlink:href="#DejaVuSans-20" x="292.96875"/>
      <use xlink:href="#DejaVuSans-4e" x="324.755859"/>
      <use xlink:href="#DejaVuSans-6f" x="399.560547"/>
      <use xlink:href="#DejaVuSans-64" x="460.742188"/>
      <use xlink:href="#DejaVuSans-65" x="524.21875"/>
     </g>
    </g>
   </g>
   <g id="patch_12">
    <path d="M 57.435 167.255 
C 58.043641 167.255 58.627436 167.013184 59.05781 166.58281 
C 59.488184 166.152436 59.73 165.568641 59.73 164.96 
C 59.73 164.351359 59.488184 163.767564 59.05781 163.33719 
C 58.627436 162.906816 58.043641 162.665 57.435 162.665 
C 56.826359 162.665 56.242564 162.906816 55.81219 163.33719 
C 55.381816 163.767564 55.14 164.351359 55.14 164.96 
C 55.14 165.568641 55.381816 166.152436 55.81219 166.58281 
C 56.242564 167.013184 56.826359 167.255 57.435 167.255 
z
" clip-path="url(#p8cc51f693a)" style="fill: #ff0000; stroke: #ff0000; stroke-width: 2; stroke-linejoin: miter"/>
   </g>
   <g id="patch_13">
    <path d="M 149.235 44.855 
C 149.843641 44.855 150.427436 44.613184 150.85781 44.18281 
C 151.288184 43.752436 151.53 43.168641 151.53 42.56 
C 151.53 41.951359 151.288184 41.367564 150.85781 40.93719 
C 150.427436 40.506816 149.843641 40.265 149.235 40.265 
C 148.626359 40.265 148.042564 40.506816 147.61219 40.93719 
C 147.181816 41.367564 146.94 41.951359 146.94 42.56 
C 146.94 43.168641 147.181816 43.752436 147.61219 44.18281 
C 148.042564 44.613184 148.626359 44.855 149.235 44.855 
z
" clip-path="url(#p8cc51f693a)" style="fill: #ff0000; stroke: #ff0000; stroke-width: 2; stroke-linejoin: miter"/>
   </g>
   <g id="patch_14">
    <path d="M 149.235 167.255 
C 149.843641 167.255 150.427436 167.013184 150.85781 166.58281 
C 151.288184 166.152436 151.53 165.568641 151.53 164.96 
C 151.53 164.351359 151.288184 163.767564 150.85781 163.33719 
C 150.427436 162.906816 149.843641 162.665 149.235 162.665 
C 148.626359 162.665 148.042564 162.906816 147.61219 163.33719 
C 147.181816 163.767564 146.94 164.351359 146.94 164.96 
C 146.94 165.568641 147.181816 166.152436 147.61219 166.58281 
C 148.042564 167.013184 148.626359 167.255 149.235 167.255 
z
" clip-path="url(#p8cc51f693a)" style="fill: #ff0000; stroke: #ff0000; stroke-width: 2; stroke-linejoin: miter"/>
   </g>
   <g id="line2d_51">
    <path d="M 149.235 57.86 
L 149.235 57.86 
" clip-path="url(#p8cc51f693a)" style="fill: none; stroke: #000000; stroke-width: 2; stroke-linecap: round"/>
   </g>
   <g id="patch_15">
    <path d="M 144.645 57.86 
L 149.235 48.68 
L 153.825 57.86 
z
" clip-path="url(#p8cc51f693a)"/>
   </g>
   <g id="text_21">
    <g clip-path="url(#p8cc51f693a)">
     <!-- $I_x$ -->
     <g transform="translate(131.43 56.719219)scale(0.125 -0.125)">
      <use xlink:href="#STIXGeneral-Italic-49" transform="translate(0 0.703125)"/>
      <use xlink:href="#STIXGeneral-Italic-78" transform="translate(33.299988 -12.525)scale(0.7)"/>
     </g>
    </g>
   </g>
   <g id="patch_16">
    <path d="M 57.435 167.255 
C 58.043641 167.255 58.627436 167.013184 59.05781 166.58281 
C 59.488184 166.152436 59.73 165.568641 59.73 164.96 
C 59.73 164.351359 59.488184 163.767564 59.05781 163.33719 
C 58.627436 162.906816 58.043641 162.665 57.435 162.665 
C 56.826359 162.665 56.242564 162.906816 55.81219 163.33719 
C 55.381816 163.767564 55.14 164.351359 55.14 164.96 
C 55.14 165.568641 55.381816 166.152436 55.81219 166.58281 
C 56.242564 167.013184 56.826359 167.255 57.435 167.255 
z
" clip-path="url(#p8cc51f693a)" style="fill: #ff0000; stroke: #ff0000; stroke-width: 2; stroke-linejoin: miter"/>
   </g>
   <g id="patch_17">
    <path d="M 149.235 44.855 
C 149.843641 44.855 150.427436 44.613184 150.85781 44.18281 
C 151.288184 43.752436 151.53 43.168641 151.53 42.56 
C 151.53 41.951359 151.288184 41.367564 150.85781 40.93719 
C 150.427436 40.506816 149.843641 40.265 149.235 40.265 
C 148.626359 40.265 148.042564 40.506816 147.61219 40.93719 
C 147.181816 41.367564 146.94 41.951359 146.94 42.56 
C 146.94 43.168641 147.181816 43.752436 147.61219 44.18281 
C 148.042564 44.613184 148.626359 44.855 149.235 44.855 
z
" clip-path="url(#p8cc51f693a)" style="fill: #ff0000; stroke: #ff0000; stroke-width: 2; stroke-linejoin: miter"/>
   </g>
   <g id="patch_18">
    <path d="M 149.235 167.255 
C 149.843641 167.255 150.427436 167.013184 150.85781 166.58281 
C 151.288184 166.152436 151.53 165.568641 151.53 164.96 
C 151.53 164.351359 151.288184 163.767564 150.85781 163.33719 
C 150.427436 162.906816 149.843641 162.665 149.235 162.665 
C 148.626359 162.665 148.042564 162.906816 147.61219 163.33719 
C 147.181816 163.767564 146.94 164.351359 146.94 164.96 
C 146.94 165.568641 147.181816 166.152436 147.61219 166.58281 
C 148.042564 167.013184 148.626359 167.255 149.235 167.255 
z
" clip-path="url(#p8cc51f693a)" style="fill: #ff0000; stroke: #ff0000; stroke-width: 2; stroke-linejoin: miter"/>
   </g>
   <g id="line2d_52">
    <path d="M 149.235 57.86 
L 149.235 57.86 
" clip-path="url(#p8cc51f693a)" style="fill: none; stroke: #000000; stroke-width: 2; stroke-linecap: round"/>
   </g>
   <g id="patch_19">
    <path d="M 144.645 57.86 
L 149.235 48.68 
L 153.825 57.86 
z
" clip-path="url(#p8cc51f693a)"/>
   </g>
   <g id="text_22">
    <g clip-path="url(#p8cc51f693a)">
     <!-- $I_x$ -->
     <g transform="translate(131.43 56.719219)scale(0.125 -0.125)">
      <use xlink:href="#STIXGeneral-Italic-49" transform="translate(0 0.703125)"/>
      <use xlink:href="#STIXGeneral-Italic-78" transform="translate(33.299988 -12.525)scale(0.7)"/>
     </g>
    </g>
   </g>
  </g>
 </g>
 <defs>
  <clipPath id="p8cc51f693a">
   <rect x="7.2" y="7.2" width="252.195" height="272.51"/>
  </clipPath>
 </defs>
</svg>
