<?xml version="1.0" encoding="utf-8" standalone="no"?>
<!DOCTYPE svg PUBLIC "-//W3C//DTD SVG 1.1//EN"
  "http://www.w3.org/Graphics/SVG/1.1/DTD/svg11.dtd">
<svg xmlns:xlink="http://www.w3.org/1999/xlink" width="316.0242pt" height="159.07pt" viewBox="0 0 316.0242 159.07" xmlns="http://www.w3.org/2000/svg" version="1.1">
 <metadata>
  <rdf:RDF xmlns:dc="http://purl.org/dc/elements/1.1/" xmlns:cc="http://creativecommons.org/ns#" xmlns:rdf="http://www.w3.org/1999/02/22-rdf-syntax-ns#">
   <cc:Work>
    <dc:type rdf:resource="http://purl.org/dc/dcmitype/StillImage"/>
    <dc:date>2023-06-28T14:28:23.845488</dc:date>
    <dc:format>image/svg+xml</dc:format>
    <dc:creator>
     <cc:Agent>
      <dc:title>Matplotlib v3.5.2, https://matplotlib.org/</dc:title>
     </cc:Agent>
    </dc:creator>
   </cc:Work>
  </rdf:RDF>
 </metadata>
 <defs>
  <style type="text/css">*{stroke-linejoin: round; stroke-linecap: butt}</style>
 </defs>
 <g id="figure_1">
  <g id="patch_1">
   <path d="M 0 159.07 
L 316.0242 159.07 
L 316.0242 0 
L 0 0 
L 0 159.07 
z
" style="fill: none"/>
  </g>
  <g id="axes_1">
   <g id="patch_2">
    <path d="M 66.2274 118.21 
C 70.285007 118.21 74.176972 116.597895 77.046134 113.728734 
C 79.915295 110.859572 81.5274 106.967607 81.5274 102.91 
C 81.5274 98.852393 79.915295 94.960428 77.046134 92.091266 
C 74.176972 89.222105 70.285007 87.61 66.2274 87.61 
C 62.169793 87.61 58.277828 89.222105 55.408666 92.091266 
C 52.539505 94.960428 50.9274 98.852393 50.9274 102.91 
C 50.9274 106.967607 52.539505 110.859572 55.408666 113.728734 
C 58.277828 116.597895 62.169793 118.21 66.2274 118.21 
L 66.2274 118.21 
z
" clip-path="url(#pf16b1e05ca)" style="fill: none; stroke: #000000; stroke-width: 2; stroke-linejoin: miter"/>
   </g>
   <g id="patch_3">
    <path d="M 104.4774 57.01 
C 104.4774 55.995936 104.074135 55.022368 103.357083 54.305317 
C 102.640032 53.588265 101.666464 53.185 100.6524 53.185 
C 99.638336 53.185 98.664768 53.588265 97.947717 54.305317 
C 97.230665 55.022368 96.8274 55.995936 96.8274 57.01 
" clip-path="url(#pf16b1e05ca)" style="fill: none; stroke: #000000; stroke-width: 2; stroke-linejoin: miter"/>
   </g>
   <g id="patch_4">
    <path d="M 112.1274 57.01 
C 112.1274 55.995936 111.724135 55.022368 111.007083 54.305317 
C 110.290032 53.588265 109.316464 53.185 108.3024 53.185 
C 107.288336 53.185 106.314768 53.588265 105.597717 54.305317 
C 104.880665 55.022368 104.4774 55.995936 104.4774 57.01 
" clip-path="url(#pf16b1e05ca)" style="fill: none; stroke: #000000; stroke-width: 2; stroke-linejoin: miter"/>
   </g>
   <g id="patch_5">
    <path d="M 119.7774 57.01 
C 119.7774 55.995936 119.374135 55.022368 118.657083 54.305317 
C 117.940032 53.588265 116.966464 53.185 115.9524 53.185 
C 114.938336 53.185 113.964768 53.588265 113.247717 54.305317 
C 112.530665 55.022368 112.1274 55.995936 112.1274 57.01 
" clip-path="url(#pf16b1e05ca)" style="fill: none; stroke: #000000; stroke-width: 2; stroke-linejoin: miter"/>
   </g>
   <g id="patch_6">
    <path d="M 127.4274 57.01 
C 127.4274 55.995936 127.024135 55.022368 126.307083 54.305317 
C 125.590032 53.588265 124.616464 53.185 123.6024 53.185 
C 122.588336 53.185 121.614768 53.588265 120.897717 54.305317 
C 120.180665 55.022368 119.7774 55.995936 119.7774 57.01 
" clip-path="url(#pf16b1e05ca)" style="fill: none; stroke: #000000; stroke-width: 2; stroke-linejoin: miter"/>
   </g>
   <g id="patch_7">
    <path d="M 158.0274 118.21 
C 162.085007 118.21 165.976972 116.597895 168.846134 113.728734 
C 171.715295 110.859572 173.3274 106.967607 173.3274 102.91 
C 173.3274 98.852393 171.715295 94.960428 168.846134 92.091266 
C 165.976972 89.222105 162.085007 87.61 158.0274 87.61 
C 153.969793 87.61 150.077828 89.222105 147.208666 92.091266 
C 144.339505 94.960428 142.7274 98.852393 142.7274 102.91 
C 142.7274 106.967607 144.339505 110.859572 147.208666 113.728734 
C 150.077828 116.597895 153.969793 118.21 158.0274 118.21 
L 158.0274 118.21 
z
" clip-path="url(#pf16b1e05ca)" style="fill: none; stroke: #000000; stroke-width: 2; stroke-linejoin: miter"/>
   </g>
   <g id="patch_8">
    <path d="M 66.2274 118.21 
C 70.285007 118.21 74.176972 116.597895 77.046134 113.728734 
C 79.915295 110.859572 81.5274 106.967607 81.5274 102.91 
C 81.5274 98.852393 79.915295 94.960428 77.046134 92.091266 
C 74.176972 89.222105 70.285007 87.61 66.2274 87.61 
C 62.169793 87.61 58.277828 89.222105 55.408666 92.091266 
C 52.539505 94.960428 50.9274 98.852393 50.9274 102.91 
C 50.9274 106.967607 52.539505 110.859572 55.408666 113.728734 
C 58.277828 116.597895 62.169793 118.21 66.2274 118.21 
L 66.2274 118.21 
z
" clip-path="url(#pf16b1e05ca)" style="fill: none; stroke: #000000; stroke-width: 2; stroke-linejoin: miter"/>
   </g>
   <g id="patch_9">
    <path d="M 104.4774 57.01 
C 104.4774 55.995936 104.074135 55.022368 103.357083 54.305317 
C 102.640032 53.588265 101.666464 53.185 100.6524 53.185 
C 99.638336 53.185 98.664768 53.588265 97.947717 54.305317 
C 97.230665 55.022368 96.8274 55.995936 96.8274 57.01 
" clip-path="url(#pf16b1e05ca)" style="fill: none; stroke: #000000; stroke-width: 2; stroke-linejoin: miter"/>
   </g>
   <g id="patch_10">
    <path d="M 112.1274 57.01 
C 112.1274 55.995936 111.724135 55.022368 111.007083 54.305317 
C 110.290032 53.588265 109.316464 53.185 108.3024 53.185 
C 107.288336 53.185 106.314768 53.588265 105.597717 54.305317 
C 104.880665 55.022368 104.4774 55.995936 104.4774 57.01 
" clip-path="url(#pf16b1e05ca)" style="fill: none; stroke: #000000; stroke-width: 2; stroke-linejoin: miter"/>
   </g>
   <g id="patch_11">
    <path d="M 119.7774 57.01 
C 119.7774 55.995936 119.374135 55.022368 118.657083 54.305317 
C 117.940032 53.588265 116.966464 53.185 115.9524 53.185 
C 114.938336 53.185 113.964768 53.588265 113.247717 54.305317 
C 112.530665 55.022368 112.1274 55.995936 112.1274 57.01 
" clip-path="url(#pf16b1e05ca)" style="fill: none; stroke: #000000; stroke-width: 2; stroke-linejoin: miter"/>
   </g>
   <g id="patch_12">
    <path d="M 127.4274 57.01 
C 127.4274 55.995936 127.024135 55.022368 126.307083 54.305317 
C 125.590032 53.588265 124.616464 53.185 123.6024 53.185 
C 122.588336 53.185 121.614768 53.588265 120.897717 54.305317 
C 120.180665 55.022368 119.7774 55.995936 119.7774 57.01 
" clip-path="url(#pf16b1e05ca)" style="fill: none; stroke: #000000; stroke-width: 2; stroke-linejoin: miter"/>
   </g>
   <g id="patch_13">
    <path d="M 158.0274 118.21 
C 162.085007 118.21 165.976972 116.597895 168.846134 113.728734 
C 171.715295 110.859572 173.3274 106.967607 173.3274 102.91 
C 173.3274 98.852393 171.715295 94.960428 168.846134 92.091266 
C 165.976972 89.222105 162.085007 87.61 158.0274 87.61 
C 153.969793 87.61 150.077828 89.222105 147.208666 92.091266 
C 144.339505 94.960428 142.7274 98.852393 142.7274 102.91 
C 142.7274 106.967607 144.339505 110.859572 147.208666 113.728734 
C 150.077828 116.597895 153.969793 118.21 158.0274 118.21 
L 158.0274 118.21 
z
" clip-path="url(#pf16b1e05ca)" style="fill: none; stroke: #000000; stroke-width: 2; stroke-linejoin: miter"/>
   </g>
   <g id="line2d_1">
    <path d="M 66.2274 148.81 
L 66.2274 118.21 
L 66.2274 118.21 
M 66.2274 87.61 
L 66.2274 87.61 
L 66.2274 57.01 
" clip-path="url(#pf16b1e05ca)" style="fill: none; stroke: #000000; stroke-width: 2; stroke-linecap: round"/>
   </g>
   <g id="line2d_2">
    <path d="M 69.2874 110.56 
L 63.1674 110.56 
" clip-path="url(#pf16b1e05ca)" style="fill: none; stroke: #000000; stroke-width: 2; stroke-linecap: round"/>
   </g>
   <g id="line2d_3">
    <path d="M 66.2274 98.32 
L 66.2274 92.2 
" clip-path="url(#pf16b1e05ca)" style="fill: none; stroke: #000000; stroke-width: 2; stroke-linecap: round"/>
   </g>
   <g id="line2d_4">
    <path d="M 69.2874 95.26 
L 63.1674 95.26 
" clip-path="url(#pf16b1e05ca)" style="fill: none; stroke: #000000; stroke-width: 2; stroke-linecap: round"/>
   </g>
   <g id="line2d_5">
    <path d="M 66.2274 57.01 
L 96.8274 57.01 
M 127.4274 57.01 
L 158.0274 57.01 
" clip-path="url(#pf16b1e05ca)" style="fill: none; stroke: #000000; stroke-width: 2; stroke-linecap: round"/>
   </g>
   <g id="line2d_6">
    <path d="M 158.0274 57.01 
L 201.1734 57.01 
M 201.1734 49.36 
L 201.1734 64.66 
M 206.6814 49.36 
L 206.6814 64.66 
M 206.6814 57.01 
L 249.8274 57.01 
" clip-path="url(#pf16b1e05ca)" style="fill: none; stroke: #000000; stroke-width: 2; stroke-linecap: round"/>
   </g>
   <g id="line2d_7">
    <path d="M 249.8274 57.01 
L 249.8274 87.61 
L 257.4774 90.16 
L 242.1774 95.26 
L 257.4774 100.36 
L 242.1774 105.46 
L 257.4774 110.56 
L 242.1774 115.66 
L 249.8274 118.21 
L 249.8274 148.81 
" clip-path="url(#pf16b1e05ca)" style="fill: none; stroke: #000000; stroke-width: 2; stroke-linecap: round"/>
   </g>
   <g id="line2d_8">
    <path d="M 249.8274 148.81 
L 158.0274 148.81 
L 66.2274 148.81 
" clip-path="url(#pf16b1e05ca)" style="fill: none; stroke: #000000; stroke-width: 2; stroke-linecap: round"/>
   </g>
   <g id="line2d_9">
    <path d="M 158.0274 57.01 
L 158.0274 87.61 
L 158.0274 87.61 
M 158.0274 118.21 
L 158.0274 118.21 
L 158.0274 148.81 
" clip-path="url(#pf16b1e05ca)" style="fill: none; stroke: #000000; stroke-width: 2; stroke-linecap: round"/>
   </g>
   <g id="line2d_10">
    <path d="M 158.0274 95.26 
L 158.0274 102.91 
" clip-path="url(#pf16b1e05ca)" style="fill: none; stroke: #000000; stroke-width: 2; stroke-linecap: round"/>
   </g>
   <g id="patch_14">
    <path d="M 160.3224 102.91 
L 158.0274 110.56 
L 155.7324 102.91 
z
" clip-path="url(#pf16b1e05ca)"/>
   </g>
   <g id="line2d_11">
    <path d="M 96.8274 72.31 
L 112.1274 72.31 
L 119.7774 72.31 
" clip-path="url(#pf16b1e05ca)" style="fill: none; stroke: #0000ff; stroke-width: 2; stroke-linecap: round"/>
   </g>
   <g id="patch_15">
    <path d="M 119.7774 70.015 
L 127.4274 72.31 
L 119.7774 74.605 
z
" clip-path="url(#pf16b1e05ca)" style="fill: #0000ff"/>
   </g>
   <g id="line2d_12">
    <path d="M 188.6274 72.31 
L 203.9274 72.31 
L 211.5774 72.31 
" clip-path="url(#pf16b1e05ca)" style="fill: none; stroke: #0000ff; stroke-width: 2; stroke-linecap: round"/>
   </g>
   <g id="patch_16">
    <path d="M 211.5774 70.015 
L 219.2274 72.31 
L 211.5774 74.605 
z
" clip-path="url(#pf16b1e05ca)" style="fill: #0000ff"/>
   </g>
   <g id="line2d_13">
    <path d="M 188.6274 87.61 
L 188.6274 102.91 
L 188.6274 110.56 
" clip-path="url(#pf16b1e05ca)" style="fill: none; stroke: #0000ff; stroke-width: 2; stroke-linecap: round"/>
   </g>
   <g id="patch_17">
    <path d="M 190.9224 110.56 
L 188.6274 118.21 
L 186.3324 110.56 
z
" clip-path="url(#pf16b1e05ca)" style="fill: #0000ff"/>
   </g>
   <g id="line2d_14">
    <path d="M 295.7274 87.61 
L 295.7274 102.91 
L 295.7274 110.56 
" clip-path="url(#pf16b1e05ca)" style="fill: none; stroke: #0000ff; stroke-width: 2; stroke-linecap: round"/>
   </g>
   <g id="patch_18">
    <path d="M 298.0224 110.56 
L 295.7274 118.21 
L 293.4324 110.56 
z
" clip-path="url(#pf16b1e05ca)" style="fill: #0000ff"/>
   </g>
   <g id="line2d_15">
    <path d="M 66.2274 148.81 
L 66.2274 118.21 
L 66.2274 118.21 
M 66.2274 87.61 
L 66.2274 87.61 
L 66.2274 57.01 
" clip-path="url(#pf16b1e05ca)" style="fill: none; stroke: #000000; stroke-width: 2; stroke-linecap: round"/>
   </g>
   <g id="line2d_16">
    <path d="M 69.2874 110.56 
L 63.1674 110.56 
" clip-path="url(#pf16b1e05ca)" style="fill: none; stroke: #000000; stroke-width: 2; stroke-linecap: round"/>
   </g>
   <g id="line2d_17">
    <path d="M 66.2274 98.32 
L 66.2274 92.2 
" clip-path="url(#pf16b1e05ca)" style="fill: none; stroke: #000000; stroke-width: 2; stroke-linecap: round"/>
   </g>
   <g id="line2d_18">
    <path d="M 69.2874 95.26 
L 63.1674 95.26 
" clip-path="url(#pf16b1e05ca)" style="fill: none; stroke: #000000; stroke-width: 2; stroke-linecap: round"/>
   </g>
   <g id="line2d_19">
    <path d="M 66.2274 57.01 
L 96.8274 57.01 
M 127.4274 57.01 
L 158.0274 57.01 
" clip-path="url(#pf16b1e05ca)" style="fill: none; stroke: #000000; stroke-width: 2; stroke-linecap: round"/>
   </g>
   <g id="line2d_20">
    <path d="M 158.0274 57.01 
L 201.1734 57.01 
M 201.1734 49.36 
L 201.1734 64.66 
M 206.6814 49.36 
L 206.6814 64.66 
M 206.6814 57.01 
L 249.8274 57.01 
" clip-path="url(#pf16b1e05ca)" style="fill: none; stroke: #000000; stroke-width: 2; stroke-linecap: round"/>
   </g>
   <g id="line2d_21">
    <path d="M 249.8274 57.01 
L 249.8274 87.61 
L 257.4774 90.16 
L 242.1774 95.26 
L 257.4774 100.36 
L 242.1774 105.46 
L 257.4774 110.56 
L 242.1774 115.66 
L 249.8274 118.21 
L 249.8274 148.81 
" clip-path="url(#pf16b1e05ca)" style="fill: none; stroke: #000000; stroke-width: 2; stroke-linecap: round"/>
   </g>
   <g id="line2d_22">
    <path d="M 249.8274 148.81 
L 158.0274 148.81 
L 66.2274 148.81 
" clip-path="url(#pf16b1e05ca)" style="fill: none; stroke: #000000; stroke-width: 2; stroke-linecap: round"/>
   </g>
   <g id="line2d_23">
    <path d="M 158.0274 57.01 
L 158.0274 87.61 
L 158.0274 87.61 
M 158.0274 118.21 
L 158.0274 118.21 
L 158.0274 148.81 
" clip-path="url(#pf16b1e05ca)" style="fill: none; stroke: #000000; stroke-width: 2; stroke-linecap: round"/>
   </g>
   <g id="line2d_24">
    <path d="M 158.0274 95.26 
L 158.0274 102.91 
" clip-path="url(#pf16b1e05ca)" style="fill: none; stroke: #000000; stroke-width: 2; stroke-linecap: round"/>
   </g>
   <g id="patch_19">
    <path d="M 160.3224 102.91 
L 158.0274 110.56 
L 155.7324 102.91 
z
" clip-path="url(#pf16b1e05ca)"/>
   </g>
   <g id="line2d_25">
    <path d="M 96.8274 72.31 
L 112.1274 72.31 
L 119.7774 72.31 
" clip-path="url(#pf16b1e05ca)" style="fill: none; stroke: #0000ff; stroke-width: 2; stroke-linecap: round"/>
   </g>
   <g id="patch_20">
    <path d="M 119.7774 70.015 
L 127.4274 72.31 
L 119.7774 74.605 
z
" clip-path="url(#pf16b1e05ca)" style="fill: #0000ff"/>
   </g>
   <g id="line2d_26">
    <path d="M 188.6274 72.31 
L 203.9274 72.31 
L 211.5774 72.31 
" clip-path="url(#pf16b1e05ca)" style="fill: none; stroke: #0000ff; stroke-width: 2; stroke-linecap: round"/>
   </g>
   <g id="patch_21">
    <path d="M 211.5774 70.015 
L 219.2274 72.31 
L 211.5774 74.605 
z
" clip-path="url(#pf16b1e05ca)" style="fill: #0000ff"/>
   </g>
   <g id="line2d_27">
    <path d="M 188.6274 87.61 
L 188.6274 102.91 
L 188.6274 110.56 
" clip-path="url(#pf16b1e05ca)" style="fill: none; stroke: #0000ff; stroke-width: 2; stroke-linecap: round"/>
   </g>
   <g id="patch_22">
    <path d="M 190.9224 110.56 
L 188.6274 118.21 
L 186.3324 110.56 
z
" clip-path="url(#pf16b1e05ca)" style="fill: #0000ff"/>
   </g>
   <g id="line2d_28">
    <path d="M 295.7274 87.61 
L 295.7274 102.91 
L 295.7274 110.56 
" clip-path="url(#pf16b1e05ca)" style="fill: none; stroke: #0000ff; stroke-width: 2; stroke-linecap: round"/>
   </g>
   <g id="patch_23">
    <path d="M 298.0224 110.56 
L 295.7274 118.21 
L 293.4324 110.56 
z
" clip-path="url(#pf16b1e05ca)" style="fill: #0000ff"/>
   </g>
   <g id="text_1">
    <g clip-path="url(#pf16b1e05ca)">
     <!-- $v_S(t)$ -->
     <g transform="translate(25.4924 106.359219)scale(0.125 -0.125)">
      <defs>
       <path id="STIXGeneral-Italic-76" d="M 1325 448 
L 1523 653 
Q 1869 1005 2134 1456 
Q 2400 1907 2400 2131 
Q 2400 2208 2285 2317 
Q 2125 2458 2125 2605 
Q 2125 2701 2195 2761 
Q 2266 2822 2368 2822 
Q 2522 2822 2624 2704 
Q 2726 2586 2726 2445 
Q 2726 2074 2323 1453 
Q 1971 909 1562 474 
Q 1504 416 1421 326 
Q 1338 237 1299 192 
Q 1261 147 1200 86 
Q 1139 26 1110 -3 
Q 1082 -32 1043 -64 
Q 1005 -96 979 -105 
Q 954 -115 928 -115 
Q 870 -115 870 58 
L 870 211 
Q 870 1094 717 1990 
Q 653 2355 579 2470 
Q 506 2586 326 2586 
Q 198 2586 128 2579 
L 128 2662 
Q 480 2720 845 2797 
Q 915 2822 973 2822 
Q 1011 2822 1033 2739 
Q 1056 2656 1165 2093 
Q 1280 1510 1325 448 
z
" transform="scale(0.015625)"/>
       <path id="STIXGeneral-Italic-53" d="M 3251 4269 
L 2995 2989 
L 2880 3008 
Q 2880 3539 2720 3795 
Q 2560 4051 2118 4051 
Q 1786 4051 1594 3881 
Q 1402 3712 1402 3411 
Q 1402 3168 1504 3005 
Q 1606 2842 2035 2413 
Q 2464 1978 2611 1715 
Q 2758 1453 2758 1133 
Q 2758 589 2390 237 
Q 2022 -115 1466 -115 
Q 1222 -115 800 32 
Q 595 109 499 109 
Q 288 109 224 -96 
L 109 -96 
L 326 1338 
L 454 1325 
Q 442 1267 442 1178 
Q 442 710 701 409 
Q 960 109 1363 109 
Q 1734 109 1968 336 
Q 2202 563 2202 928 
Q 2202 1139 2118 1308 
Q 2035 1478 1818 1715 
L 1568 1984 
Q 1549 2003 1459 2102 
Q 1370 2202 1318 2253 
Q 1030 2560 934 2755 
Q 838 2950 838 3213 
Q 838 3699 1168 3980 
Q 1498 4262 1978 4262 
Q 2310 4262 2522 4173 
Q 2707 4102 2816 4102 
Q 2925 4102 2982 4134 
Q 3040 4166 3104 4269 
L 3251 4269 
z
" transform="scale(0.015625)"/>
       <path id="STIXGeneral-Regular-28" d="M 1946 -1030 
L 1869 -1133 
Q 1126 -710 716 32 
Q 307 774 307 1613 
Q 307 3386 1888 4326 
L 1946 4224 
Q 1293 3667 1075 3126 
Q 858 2586 858 1632 
Q 858 685 1082 96 
Q 1306 -493 1946 -1030 
z
" transform="scale(0.015625)"/>
       <path id="STIXGeneral-Italic-74" d="M 1894 2739 
L 1862 2534 
L 1325 2534 
L 768 435 
Q 755 384 755 346 
Q 755 243 851 243 
Q 928 243 1030 342 
Q 1133 442 1370 749 
L 1453 704 
Q 1158 256 969 93 
Q 781 -70 538 -70 
Q 243 -70 243 166 
Q 243 230 346 640 
L 845 2534 
L 365 2534 
L 358 2573 
Q 358 2688 570 2733 
Q 730 2771 992 2979 
Q 1254 3187 1421 3437 
Q 1459 3494 1510 3494 
Q 1568 3494 1568 3443 
Q 1568 3411 1562 3398 
L 1382 2739 
L 1894 2739 
z
" transform="scale(0.015625)"/>
       <path id="STIXGeneral-Regular-29" d="M 186 4224 
L 262 4326 
Q 992 3891 1408 3148 
Q 1824 2406 1824 1581 
Q 1824 -166 243 -1133 
L 186 -1030 
Q 845 -486 1059 54 
Q 1274 595 1274 1562 
Q 1274 2534 1059 3120 
Q 845 3706 186 4224 
z
" transform="scale(0.015625)"/>
      </defs>
      <use xlink:href="#STIXGeneral-Italic-76" transform="translate(0 0.40625)"/>
      <use xlink:href="#STIXGeneral-Italic-53" transform="translate(44.399994 -12.821875)scale(0.7)"/>
      <use xlink:href="#STIXGeneral-Regular-28" transform="translate(83.809358 0.40625)"/>
      <use xlink:href="#STIXGeneral-Italic-74" transform="translate(117.109346 0.40625)"/>
      <use xlink:href="#STIXGeneral-Regular-29" transform="translate(144.909334 0.40625)"/>
     </g>
    </g>
   </g>
   <g id="text_2">
    <g clip-path="url(#pf16b1e05ca)">
     <!-- $L$ -->
     <g transform="translate(108.6274 33.528144)scale(0.125 -0.125)">
      <defs>
       <path id="STIXGeneral-Italic-4c" d="M 3578 1152 
L 3206 0 
L -51 0 
L -51 102 
Q 218 128 301 211 
Q 384 294 474 602 
L 1254 3405 
Q 1325 3642 1325 3802 
Q 1325 3942 1225 4000 
Q 1126 4058 832 4077 
L 832 4179 
L 2579 4179 
L 2579 4077 
Q 2285 4058 2147 3955 
Q 2010 3853 1933 3584 
L 1165 838 
Q 1101 595 1101 493 
Q 1101 346 1241 288 
Q 1382 230 1773 230 
Q 2266 230 2480 275 
Q 2694 320 2925 474 
Q 3187 646 3450 1190 
L 3578 1152 
z
" transform="scale(0.015625)"/>
      </defs>
      <use xlink:href="#STIXGeneral-Italic-4c" transform="translate(0 0.703125)"/>
     </g>
    </g>
    <g clip-path="url(#pf16b1e05ca)">
     <!-- $100$ mH -->
     <g transform="translate(89.9399 47.52541)scale(0.125 -0.125)">
      <defs>
       <path id="STIXGeneral-Regular-31" d="M 2522 0 
L 755 0 
L 755 96 
Q 1107 115 1235 227 
Q 1363 339 1363 608 
L 1363 3482 
Q 1363 3795 1171 3795 
Q 1082 3795 883 3718 
L 710 3654 
L 710 3744 
L 1856 4326 
L 1914 4307 
L 1914 486 
Q 1914 275 2042 185 
Q 2170 96 2522 96 
L 2522 0 
z
" transform="scale(0.015625)"/>
       <path id="STIXGeneral-Regular-30" d="M 3046 2112 
Q 3046 1683 2963 1302 
Q 2880 922 2717 602 
Q 2554 282 2266 96 
Q 1978 -90 1600 -90 
Q 1210 -90 915 108 
Q 621 307 461 640 
Q 301 973 227 1350 
Q 154 1728 154 2150 
Q 154 2746 301 3222 
Q 448 3699 790 4012 
Q 1133 4326 1626 4326 
Q 2253 4326 2649 3712 
Q 3046 3098 3046 2112 
z
M 2432 2080 
Q 2432 3091 2217 3625 
Q 2003 4160 1587 4160 
Q 1190 4160 979 3622 
Q 768 3085 768 2106 
Q 768 1120 979 598 
Q 1190 77 1600 77 
Q 2003 77 2217 598 
Q 2432 1120 2432 2080 
z
" transform="scale(0.015625)"/>
       <path id="DejaVuSans-20" transform="scale(0.015625)"/>
       <path id="DejaVuSans-6d" d="M 3328 2828 
Q 3544 3216 3844 3400 
Q 4144 3584 4550 3584 
Q 5097 3584 5394 3201 
Q 5691 2819 5691 2113 
L 5691 0 
L 5113 0 
L 5113 2094 
Q 5113 2597 4934 2840 
Q 4756 3084 4391 3084 
Q 3944 3084 3684 2787 
Q 3425 2491 3425 1978 
L 3425 0 
L 2847 0 
L 2847 2094 
Q 2847 2600 2669 2842 
Q 2491 3084 2119 3084 
Q 1678 3084 1418 2786 
Q 1159 2488 1159 1978 
L 1159 0 
L 581 0 
L 581 3500 
L 1159 3500 
L 1159 2956 
Q 1356 3278 1631 3431 
Q 1906 3584 2284 3584 
Q 2666 3584 2933 3390 
Q 3200 3197 3328 2828 
z
" transform="scale(0.015625)"/>
       <path id="DejaVuSans-48" d="M 628 4666 
L 1259 4666 
L 1259 2753 
L 3553 2753 
L 3553 4666 
L 4184 4666 
L 4184 0 
L 3553 0 
L 3553 2222 
L 1259 2222 
L 1259 0 
L 628 0 
L 628 4666 
z
" transform="scale(0.015625)"/>
      </defs>
      <use xlink:href="#STIXGeneral-Regular-31" transform="translate(0 0.09375)"/>
      <use xlink:href="#STIXGeneral-Regular-30" transform="translate(49.999985 0.09375)"/>
      <use xlink:href="#STIXGeneral-Regular-30" transform="translate(99.999969 0.09375)"/>
      <use xlink:href="#DejaVuSans-20" transform="translate(149.999954 0.09375)"/>
      <use xlink:href="#DejaVuSans-6d" transform="translate(181.787064 0.09375)"/>
      <use xlink:href="#DejaVuSans-48" transform="translate(279.199173 0.09375)"/>
     </g>
    </g>
   </g>
   <g id="text_3">
    <g clip-path="url(#pf16b1e05ca)">
     <!-- $C$ -->
     <g transform="translate(199.7399 29.677734)scale(0.125 -0.125)">
      <defs>
       <path id="STIXGeneral-Italic-43" d="M 4410 4250 
L 4173 2970 
L 4058 2989 
Q 3942 4032 3104 4032 
Q 2406 4032 1830 3411 
Q 1491 3053 1315 2541 
Q 1139 2029 1139 1485 
Q 1139 173 2259 173 
Q 2656 173 2985 339 
Q 3315 506 3725 934 
L 3840 838 
Q 3411 333 2998 109 
Q 2586 -115 2093 -115 
Q 1344 -115 883 329 
Q 422 774 422 1555 
Q 422 2214 748 2812 
Q 1075 3411 1619 3795 
Q 2272 4262 3021 4262 
Q 3462 4262 3770 4154 
Q 3898 4109 4032 4109 
Q 4205 4109 4275 4250 
L 4410 4250 
z
" transform="scale(0.015625)"/>
      </defs>
      <use xlink:href="#STIXGeneral-Italic-43" transform="translate(0 0.40625)"/>
     </g>
    </g>
    <g clip-path="url(#pf16b1e05ca)">
     <!-- $100 \mu$F -->
     <g transform="translate(187.6149 43.675)scale(0.125 -0.125)">
      <defs>
       <path id="STIXGeneral-Italic-3bc" d="M 3002 749 
L 3091 691 
Q 2797 237 2614 83 
Q 2432 -70 2214 -70 
Q 2080 -70 1990 6 
Q 1901 83 1901 218 
Q 1901 416 1997 704 
L 2208 1370 
L 2202 1370 
Q 1766 595 1475 268 
Q 1184 -58 902 -58 
Q 723 -58 672 122 
Q 614 -109 547 -374 
Q 480 -640 451 -758 
Q 422 -877 384 -1005 
Q 346 -1133 314 -1197 
Q 282 -1261 243 -1312 
L -211 -1312 
Q -58 -1088 70 -595 
L 909 2739 
L 1389 2739 
L 909 832 
Q 883 717 883 659 
Q 883 352 1139 352 
Q 1395 352 1811 969 
Q 2227 1587 2323 1958 
L 2534 2739 
L 3027 2739 
L 2522 819 
Q 2400 333 2400 326 
Q 2400 230 2470 230 
Q 2547 230 2652 329 
Q 2758 429 3002 749 
z
" transform="scale(0.015625)"/>
       <path id="DejaVuSans-46" d="M 628 4666 
L 3309 4666 
L 3309 4134 
L 1259 4134 
L 1259 2759 
L 3109 2759 
L 3109 2228 
L 1259 2228 
L 1259 0 
L 628 0 
L 628 4666 
z
" transform="scale(0.015625)"/>
      </defs>
      <use xlink:href="#STIXGeneral-Regular-31" transform="translate(0 0.09375)"/>
      <use xlink:href="#STIXGeneral-Regular-30" transform="translate(49.999985 0.09375)"/>
      <use xlink:href="#STIXGeneral-Regular-30" transform="translate(99.999969 0.09375)"/>
      <use xlink:href="#STIXGeneral-Italic-3bc" transform="translate(149.999954 0.09375)"/>
      <use xlink:href="#DejaVuSans-46" transform="translate(202.599945 0.09375)"/>
     </g>
    </g>
   </g>
   <g id="text_4">
    <g clip-path="url(#pf16b1e05ca)">
     <!-- + -->
     <g transform="translate(228.642791 83.409219)scale(0.125 -0.125)">
      <defs>
       <path id="DejaVuSans-2b" d="M 2944 4013 
L 2944 2272 
L 4684 2272 
L 4684 1741 
L 2944 1741 
L 2944 0 
L 2419 0 
L 2419 1741 
L 678 1741 
L 678 2272 
L 2419 2272 
L 2419 4013 
L 2944 4013 
z
" transform="scale(0.015625)"/>
      </defs>
      <use xlink:href="#DejaVuSans-2b"/>
     </g>
    </g>
   </g>
   <g id="text_5">
    <g clip-path="url(#pf16b1e05ca)">
     <!-- $v_O(t)$ -->
     <g transform="translate(214.8674 106.359219)scale(0.125 -0.125)">
      <defs>
       <path id="STIXGeneral-Italic-4f" d="M 4474 2675 
Q 4474 1990 4106 1363 
Q 3738 736 3149 339 
Q 2477 -115 1779 -115 
Q 1146 -115 765 281 
Q 384 678 384 1382 
Q 384 1965 697 2582 
Q 1011 3200 1517 3642 
Q 2234 4262 3034 4262 
Q 3718 4269 4096 3840 
Q 4474 3411 4474 2675 
z
M 3802 3078 
Q 3802 3533 3581 3792 
Q 3360 4051 2976 4051 
Q 2342 4051 1786 3302 
Q 1446 2842 1251 2259 
Q 1056 1677 1056 1178 
Q 1056 653 1270 374 
Q 1485 96 1888 96 
Q 2477 96 2976 704 
Q 3354 1178 3578 1862 
Q 3802 2547 3802 3078 
z
" transform="scale(0.015625)"/>
      </defs>
      <use xlink:href="#STIXGeneral-Italic-76" transform="translate(0 0.40625)"/>
      <use xlink:href="#STIXGeneral-Italic-4f" transform="translate(44.399994 -12.821875)scale(0.7)"/>
      <use xlink:href="#STIXGeneral-Regular-28" transform="translate(99.349356 0.40625)"/>
      <use xlink:href="#STIXGeneral-Italic-74" transform="translate(132.649344 0.40625)"/>
      <use xlink:href="#STIXGeneral-Regular-29" transform="translate(160.449332 0.40625)"/>
     </g>
    </g>
   </g>
   <g id="text_6">
    <g clip-path="url(#pf16b1e05ca)">
     <!-- - -->
     <g transform="translate(234.607634 129.309219)scale(0.125 -0.125)">
      <defs>
       <path id="DejaVuSans-2d" d="M 313 2009 
L 1997 2009 
L 1997 1497 
L 313 1497 
L 313 2009 
z
" transform="scale(0.015625)"/>
      </defs>
      <use xlink:href="#DejaVuSans-2d"/>
     </g>
    </g>
   </g>
   <g id="text_7">
    <g clip-path="url(#pf16b1e05ca)">
     <!-- $R$ -->
     <g transform="translate(260.5374 99.360586)scale(0.125 -0.125)">
      <defs>
       <path id="STIXGeneral-Italic-52" d="M 845 4179 
L 2458 4179 
Q 3078 4179 3420 3936 
Q 3763 3693 3763 3277 
Q 3763 2778 3341 2458 
Q 3091 2266 2502 2131 
L 3072 627 
Q 3181 333 3299 217 
Q 3418 102 3629 102 
L 3629 0 
L 2688 0 
L 1901 2074 
L 1478 2106 
L 1126 806 
Q 1043 512 1043 403 
Q 1043 256 1126 192 
Q 1210 128 1472 102 
L 1472 0 
L -83 0 
L -83 102 
Q 173 134 278 243 
Q 384 352 461 646 
L 1222 3405 
Q 1299 3699 1299 3808 
Q 1299 3923 1210 3987 
Q 1133 4038 845 4077 
L 845 4179 
z
M 1958 3795 
L 1555 2342 
Q 1754 2310 1882 2310 
Q 2451 2310 2771 2566 
Q 3091 2822 3091 3270 
Q 3091 3603 2892 3795 
Q 2694 3987 2323 3987 
Q 2010 3987 1958 3795 
z
" transform="scale(0.015625)"/>
      </defs>
      <use xlink:href="#STIXGeneral-Italic-52" transform="translate(0 0.703125)"/>
     </g>
    </g>
    <g clip-path="url(#pf16b1e05ca)">
     <!-- $100 \Omega$ -->
     <g transform="translate(260.5374 113.357852)scale(0.125 -0.125)">
      <defs>
       <path id="STIXGeneral-Regular-3a9" d="M 4576 0 
L 2746 0 
L 2790 1030 
Q 3187 1126 3440 1574 
Q 3693 2022 3693 2554 
Q 3693 3251 3344 3673 
Q 2995 4096 2380 4096 
Q 1766 4096 1417 3635 
Q 1069 3174 1069 2554 
Q 1069 2054 1315 1600 
Q 1562 1146 1965 1030 
L 2022 0 
L 186 0 
L 186 1094 
L 346 1094 
Q 352 806 438 707 
Q 525 608 742 608 
L 1709 608 
L 1696 845 
Q 1018 1037 678 1446 
Q 339 1856 339 2541 
Q 339 3238 899 3782 
Q 1459 4326 2380 4326 
Q 3302 4326 3862 3804 
Q 4422 3283 4422 2541 
Q 4422 1235 3046 845 
L 3034 608 
L 4019 608 
Q 4397 608 4416 1082 
L 4576 1082 
L 4576 0 
z
" transform="scale(0.015625)"/>
      </defs>
      <use xlink:href="#STIXGeneral-Regular-31" transform="translate(0 0.40625)"/>
      <use xlink:href="#STIXGeneral-Regular-30" transform="translate(49.999985 0.40625)"/>
      <use xlink:href="#STIXGeneral-Regular-30" transform="translate(99.999969 0.40625)"/>
      <use xlink:href="#STIXGeneral-Regular-3a9" transform="translate(149.999954 0.40625)"/>
     </g>
    </g>
   </g>
   <g id="text_8">
    <g clip-path="url(#pf16b1e05ca)">
     <!-- $i_S(t)$ -->
     <g transform="translate(119.4174 106.359219)scale(0.125 -0.125)">
      <defs>
       <path id="STIXGeneral-Italic-69" d="M 1690 3834 
Q 1690 3699 1597 3603 
Q 1504 3507 1376 3507 
Q 1235 3507 1152 3600 
Q 1069 3693 1069 3846 
Q 1069 3994 1155 4090 
Q 1242 4186 1370 4186 
Q 1498 4186 1594 4080 
Q 1690 3974 1690 3834 
z
M 1421 730 
L 1504 659 
Q 1235 243 1049 86 
Q 864 -70 627 -70 
Q 314 -70 314 282 
Q 314 467 454 992 
L 762 2125 
Q 819 2330 819 2406 
Q 819 2502 745 2528 
Q 672 2554 410 2560 
L 410 2662 
Q 704 2688 1434 2822 
L 1459 2803 
L 858 608 
Q 794 390 794 326 
Q 794 230 883 230 
Q 1043 230 1421 730 
z
" transform="scale(0.015625)"/>
      </defs>
      <use xlink:href="#STIXGeneral-Italic-69" transform="translate(0 0.40625)"/>
      <use xlink:href="#STIXGeneral-Italic-53" transform="translate(27.799988 -12.821875)scale(0.7)"/>
      <use xlink:href="#STIXGeneral-Regular-28" transform="translate(67.209352 0.40625)"/>
      <use xlink:href="#STIXGeneral-Italic-74" transform="translate(100.50934 0.40625)"/>
      <use xlink:href="#STIXGeneral-Regular-29" transform="translate(128.309328 0.40625)"/>
     </g>
    </g>
   </g>
   <g id="text_9">
    <g clip-path="url(#pf16b1e05ca)">
     <!-- $v_S(t)$ -->
     <g transform="translate(25.4924 106.359219)scale(0.125 -0.125)">
      <use xlink:href="#STIXGeneral-Italic-76" transform="translate(0 0.40625)"/>
      <use xlink:href="#STIXGeneral-Italic-53" transform="translate(44.399994 -12.821875)scale(0.7)"/>
      <use xlink:href="#STIXGeneral-Regular-28" transform="translate(83.809358 0.40625)"/>
      <use xlink:href="#STIXGeneral-Italic-74" transform="translate(117.109346 0.40625)"/>
      <use xlink:href="#STIXGeneral-Regular-29" transform="translate(144.909334 0.40625)"/>
     </g>
    </g>
   </g>
   <g id="text_10">
    <g clip-path="url(#pf16b1e05ca)">
     <!-- $L$ -->
     <g transform="translate(108.6274 33.528144)scale(0.125 -0.125)">
      <use xlink:href="#STIXGeneral-Italic-4c" transform="translate(0 0.703125)"/>
     </g>
    </g>
    <g clip-path="url(#pf16b1e05ca)">
     <!-- $100$ mH -->
     <g transform="translate(89.9399 47.52541)scale(0.125 -0.125)">
      <use xlink:href="#STIXGeneral-Regular-31" transform="translate(0 0.09375)"/>
      <use xlink:href="#STIXGeneral-Regular-30" transform="translate(49.999985 0.09375)"/>
      <use xlink:href="#STIXGeneral-Regular-30" transform="translate(99.999969 0.09375)"/>
      <use xlink:href="#DejaVuSans-20" transform="translate(149.999954 0.09375)"/>
      <use xlink:href="#DejaVuSans-6d" transform="translate(181.787064 0.09375)"/>
      <use xlink:href="#DejaVuSans-48" transform="translate(279.199173 0.09375)"/>
     </g>
    </g>
   </g>
   <g id="text_11">
    <g clip-path="url(#pf16b1e05ca)">
     <!-- $C$ -->
     <g transform="translate(199.7399 29.677734)scale(0.125 -0.125)">
      <use xlink:href="#STIXGeneral-Italic-43" transform="translate(0 0.40625)"/>
     </g>
    </g>
    <g clip-path="url(#pf16b1e05ca)">
     <!-- $100 \mu$F -->
     <g transform="translate(187.6149 43.675)scale(0.125 -0.125)">
      <use xlink:href="#STIXGeneral-Regular-31" transform="translate(0 0.09375)"/>
      <use xlink:href="#STIXGeneral-Regular-30" transform="translate(49.999985 0.09375)"/>
      <use xlink:href="#STIXGeneral-Regular-30" transform="translate(99.999969 0.09375)"/>
      <use xlink:href="#STIXGeneral-Italic-3bc" transform="translate(149.999954 0.09375)"/>
      <use xlink:href="#DejaVuSans-46" transform="translate(202.599945 0.09375)"/>
     </g>
    </g>
   </g>
   <g id="text_12">
    <g clip-path="url(#pf16b1e05ca)">
     <!-- + -->
     <g transform="translate(228.642791 83.409219)scale(0.125 -0.125)">
      <use xlink:href="#DejaVuSans-2b"/>
     </g>
    </g>
   </g>
   <g id="text_13">
    <g clip-path="url(#pf16b1e05ca)">
     <!-- $v_O(t)$ -->
     <g transform="translate(214.8674 106.359219)scale(0.125 -0.125)">
      <use xlink:href="#STIXGeneral-Italic-76" transform="translate(0 0.40625)"/>
      <use xlink:href="#STIXGeneral-Italic-4f" transform="translate(44.399994 -12.821875)scale(0.7)"/>
      <use xlink:href="#STIXGeneral-Regular-28" transform="translate(99.349356 0.40625)"/>
      <use xlink:href="#STIXGeneral-Italic-74" transform="translate(132.649344 0.40625)"/>
      <use xlink:href="#STIXGeneral-Regular-29" transform="translate(160.449332 0.40625)"/>
     </g>
    </g>
   </g>
   <g id="text_14">
    <g clip-path="url(#pf16b1e05ca)">
     <!-- - -->
     <g transform="translate(234.607634 129.309219)scale(0.125 -0.125)">
      <use xlink:href="#DejaVuSans-2d"/>
     </g>
    </g>
   </g>
   <g id="text_15">
    <g clip-path="url(#pf16b1e05ca)">
     <!-- $R$ -->
     <g transform="translate(260.5374 99.360586)scale(0.125 -0.125)">
      <use xlink:href="#STIXGeneral-Italic-52" transform="translate(0 0.703125)"/>
     </g>
    </g>
    <g clip-path="url(#pf16b1e05ca)">
     <!-- $100 \Omega$ -->
     <g transform="translate(260.5374 113.357852)scale(0.125 -0.125)">
      <use xlink:href="#STIXGeneral-Regular-31" transform="translate(0 0.40625)"/>
      <use xlink:href="#STIXGeneral-Regular-30" transform="translate(49.999985 0.40625)"/>
      <use xlink:href="#STIXGeneral-Regular-30" transform="translate(99.999969 0.40625)"/>
      <use xlink:href="#STIXGeneral-Regular-3a9" transform="translate(149.999954 0.40625)"/>
     </g>
    </g>
   </g>
   <g id="text_16">
    <g clip-path="url(#pf16b1e05ca)">
     <!-- $i_S(t)$ -->
     <g transform="translate(119.4174 106.359219)scale(0.125 -0.125)">
      <use xlink:href="#STIXGeneral-Italic-69" transform="translate(0 0.40625)"/>
      <use xlink:href="#STIXGeneral-Italic-53" transform="translate(27.799988 -12.821875)scale(0.7)"/>
      <use xlink:href="#STIXGeneral-Regular-28" transform="translate(67.209352 0.40625)"/>
      <use xlink:href="#STIXGeneral-Italic-74" transform="translate(100.50934 0.40625)"/>
      <use xlink:href="#STIXGeneral-Regular-29" transform="translate(128.309328 0.40625)"/>
     </g>
    </g>
   </g>
   <g id="patch_24">
    <path d="M 66.2274 59.305 
C 66.836041 59.305 67.419836 59.063184 67.85021 58.63281 
C 68.280584 58.202436 68.5224 57.618641 68.5224 57.01 
C 68.5224 56.401359 68.280584 55.817564 67.85021 55.38719 
C 67.419836 54.956816 66.836041 54.715 66.2274 54.715 
C 65.618759 54.715 65.034964 54.956816 64.60459 55.38719 
C 64.174216 55.817564 63.9324 56.401359 63.9324 57.01 
C 63.9324 57.618641 64.174216 58.202436 64.60459 58.63281 
C 65.034964 59.063184 65.618759 59.305 66.2274 59.305 
z
" clip-path="url(#pf16b1e05ca)" style="fill: #ff0000; stroke: #ff0000; stroke-width: 2; stroke-linejoin: miter"/>
   </g>
   <g id="text_17">
    <g clip-path="url(#pf16b1e05ca)">
     <!-- X -->
     <g style="fill: #ff0000" transform="translate(61.94615 49.055391)scale(0.125 -0.125)">
      <defs>
       <path id="DejaVuSans-58" d="M 403 4666 
L 1081 4666 
L 2241 2931 
L 3406 4666 
L 4084 4666 
L 2584 2425 
L 4184 0 
L 3506 0 
L 2194 1984 
L 872 0 
L 191 0 
L 1856 2491 
L 403 4666 
z
" transform="scale(0.015625)"/>
      </defs>
      <use xlink:href="#DejaVuSans-58"/>
     </g>
    </g>
   </g>
   <g id="patch_25">
    <path d="M 158.0274 59.305 
C 158.636041 59.305 159.219836 59.063184 159.65021 58.63281 
C 160.080584 58.202436 160.3224 57.618641 160.3224 57.01 
C 160.3224 56.401359 160.080584 55.817564 159.65021 55.38719 
C 159.219836 54.956816 158.636041 54.715 158.0274 54.715 
C 157.418759 54.715 156.834964 54.956816 156.40459 55.38719 
C 155.974216 55.817564 155.7324 56.401359 155.7324 57.01 
C 155.7324 57.618641 155.974216 58.202436 156.40459 58.63281 
C 156.834964 59.063184 157.418759 59.305 158.0274 59.305 
z
" clip-path="url(#pf16b1e05ca)" style="fill: #008000; stroke: #008000; stroke-width: 2; stroke-linejoin: miter"/>
   </g>
   <g id="text_18">
    <g clip-path="url(#pf16b1e05ca)">
     <!-- Y -->
     <g style="fill: #008000" transform="translate(154.210017 49.055391)scale(0.125 -0.125)">
      <defs>
       <path id="DejaVuSans-59" d="M -13 4666 
L 666 4666 
L 1959 2747 
L 3244 4666 
L 3922 4666 
L 2272 2222 
L 2272 0 
L 1638 0 
L 1638 2222 
L -13 4666 
z
" transform="scale(0.015625)"/>
      </defs>
      <use xlink:href="#DejaVuSans-59"/>
     </g>
    </g>
   </g>
   <g id="patch_26">
    <path d="M 249.8274 59.305 
C 250.436041 59.305 251.019836 59.063184 251.45021 58.63281 
C 251.880584 58.202436 252.1224 57.618641 252.1224 57.01 
C 252.1224 56.401359 251.880584 55.817564 251.45021 55.38719 
C 251.019836 54.956816 250.436041 54.715 249.8274 54.715 
C 249.218759 54.715 248.634964 54.956816 248.20459 55.38719 
C 247.774216 55.817564 247.5324 56.401359 247.5324 57.01 
C 247.5324 57.618641 247.774216 58.202436 248.20459 58.63281 
C 248.634964 59.063184 249.218759 59.305 249.8274 59.305 
z
" clip-path="url(#pf16b1e05ca)" style="fill: #0000ff; stroke: #0000ff; stroke-width: 2; stroke-linejoin: miter"/>
   </g>
   <g id="text_19">
    <g clip-path="url(#pf16b1e05ca)">
     <!-- Z -->
     <g style="fill: #0000ff" transform="translate(245.54615 49.055391)scale(0.125 -0.125)">
      <defs>
       <path id="DejaVuSans-5a" d="M 359 4666 
L 4025 4666 
L 4025 4184 
L 1075 531 
L 4097 531 
L 4097 0 
L 288 0 
L 288 481 
L 3238 4134 
L 359 4134 
L 359 4666 
z
" transform="scale(0.015625)"/>
      </defs>
      <use xlink:href="#DejaVuSans-5a"/>
     </g>
    </g>
   </g>
   <g id="patch_27">
    <path d="M 66.2274 59.305 
C 66.836041 59.305 67.419836 59.063184 67.85021 58.63281 
C 68.280584 58.202436 68.5224 57.618641 68.5224 57.01 
C 68.5224 56.401359 68.280584 55.817564 67.85021 55.38719 
C 67.419836 54.956816 66.836041 54.715 66.2274 54.715 
C 65.618759 54.715 65.034964 54.956816 64.60459 55.38719 
C 64.174216 55.817564 63.9324 56.401359 63.9324 57.01 
C 63.9324 57.618641 64.174216 58.202436 64.60459 58.63281 
C 65.034964 59.063184 65.618759 59.305 66.2274 59.305 
z
" clip-path="url(#pf16b1e05ca)" style="fill: #ff0000; stroke: #ff0000; stroke-width: 2; stroke-linejoin: miter"/>
   </g>
   <g id="text_20">
    <g clip-path="url(#pf16b1e05ca)">
     <!-- X -->
     <g style="fill: #ff0000" transform="translate(61.94615 49.055391)scale(0.125 -0.125)">
      <use xlink:href="#DejaVuSans-58"/>
     </g>
    </g>
   </g>
   <g id="patch_28">
    <path d="M 158.0274 59.305 
C 158.636041 59.305 159.219836 59.063184 159.65021 58.63281 
C 160.080584 58.202436 160.3224 57.618641 160.3224 57.01 
C 160.3224 56.401359 160.080584 55.817564 159.65021 55.38719 
C 159.219836 54.956816 158.636041 54.715 158.0274 54.715 
C 157.418759 54.715 156.834964 54.956816 156.40459 55.38719 
C 155.974216 55.817564 155.7324 56.401359 155.7324 57.01 
C 155.7324 57.618641 155.974216 58.202436 156.40459 58.63281 
C 156.834964 59.063184 157.418759 59.305 158.0274 59.305 
z
" clip-path="url(#pf16b1e05ca)" style="fill: #008000; stroke: #008000; stroke-width: 2; stroke-linejoin: miter"/>
   </g>
   <g id="text_21">
    <g clip-path="url(#pf16b1e05ca)">
     <!-- Y -->
     <g style="fill: #008000" transform="translate(154.210017 49.055391)scale(0.125 -0.125)">
      <use xlink:href="#DejaVuSans-59"/>
     </g>
    </g>
   </g>
   <g id="patch_29">
    <path d="M 249.8274 59.305 
C 250.436041 59.305 251.019836 59.063184 251.45021 58.63281 
C 251.880584 58.202436 252.1224 57.618641 252.1224 57.01 
C 252.1224 56.401359 251.880584 55.817564 251.45021 55.38719 
C 251.019836 54.956816 250.436041 54.715 249.8274 54.715 
C 249.218759 54.715 248.634964 54.956816 248.20459 55.38719 
C 247.774216 55.817564 247.5324 56.401359 247.5324 57.01 
C 247.5324 57.618641 247.774216 58.202436 248.20459 58.63281 
C 248.634964 59.063184 249.218759 59.305 249.8274 59.305 
z
" clip-path="url(#pf16b1e05ca)" style="fill: #0000ff; stroke: #0000ff; stroke-width: 2; stroke-linejoin: miter"/>
   </g>
   <g id="text_22">
    <g clip-path="url(#pf16b1e05ca)">
     <!-- Z -->
     <g style="fill: #0000ff" transform="translate(245.54615 49.055391)scale(0.125 -0.125)">
      <use xlink:href="#DejaVuSans-5a"/>
     </g>
    </g>
   </g>
  </g>
 </g>
 <defs>
  <clipPath id="pf16b1e05ca">
   <rect x="7.2" y="7.2" width="301.6242" height="144.67"/>
  </clipPath>
 </defs>
</svg>
