<?xml version="1.0" encoding="utf-8" standalone="no"?>
<!DOCTYPE svg PUBLIC "-//W3C//DTD SVG 1.1//EN"
  "http://www.w3.org/Graphics/SVG/1.1/DTD/svg11.dtd">
<svg xmlns:xlink="http://www.w3.org/1999/xlink" width="432.1104pt" height="217.465pt" viewBox="0 0 432.1104 217.465" xmlns="http://www.w3.org/2000/svg" version="1.1">
 <metadata>
  <rdf:RDF xmlns:dc="http://purl.org/dc/elements/1.1/" xmlns:cc="http://creativecommons.org/ns#" xmlns:rdf="http://www.w3.org/1999/02/22-rdf-syntax-ns#">
   <cc:Work>
    <dc:type rdf:resource="http://purl.org/dc/dcmitype/StillImage"/>
    <dc:date>2023-03-04T09:18:49.261705</dc:date>
    <dc:format>image/svg+xml</dc:format>
    <dc:creator>
     <cc:Agent>
      <dc:title>Matplotlib v3.5.2, https://matplotlib.org/</dc:title>
     </cc:Agent>
    </dc:creator>
   </cc:Work>
  </rdf:RDF>
 </metadata>
 <defs>
  <style type="text/css">*{stroke-linejoin: round; stroke-linecap: butt}</style>
 </defs>
 <g id="figure_1">
  <g id="patch_1">
   <path d="M 0 217.465 
L 432.1104 217.465 
L 432.1104 0 
L 0 0 
L 0 217.465 
z
" style="fill: none"/>
  </g>
  <g id="axes_1">
   <g id="patch_2">
    <path d="M 96.552 130.705 
C 100.609607 130.705 104.501572 129.092895 107.370734 126.223734 
C 110.239895 123.354572 111.852 119.462607 111.852 115.405 
C 111.852 111.347393 110.239895 107.455428 107.370734 104.586266 
C 104.501572 101.717105 100.609607 100.105 96.552 100.105 
C 92.494393 100.105 88.602428 101.717105 85.733266 104.586266 
C 82.864105 107.455428 81.252 111.347393 81.252 115.405 
C 81.252 119.462607 82.864105 123.354572 85.733266 126.223734 
C 88.602428 129.092895 92.494393 130.705 96.552 130.705 
L 96.552 130.705 
z
" clip-path="url(#p00a8b5f9b0)" style="fill: none; stroke: #000000; stroke-width: 2; stroke-linejoin: miter"/>
   </g>
   <g id="patch_3">
    <path d="M 96.552 130.705 
C 100.609607 130.705 104.501572 129.092895 107.370734 126.223734 
C 110.239895 123.354572 111.852 119.462607 111.852 115.405 
C 111.852 111.347393 110.239895 107.455428 107.370734 104.586266 
C 104.501572 101.717105 100.609607 100.105 96.552 100.105 
C 92.494393 100.105 88.602428 101.717105 85.733266 104.586266 
C 82.864105 107.455428 81.252 111.347393 81.252 115.405 
C 81.252 119.462607 82.864105 123.354572 85.733266 126.223734 
C 88.602428 129.092895 92.494393 130.705 96.552 130.705 
L 96.552 130.705 
z
" clip-path="url(#p00a8b5f9b0)" style="fill: none; stroke: #000000; stroke-width: 2; stroke-linejoin: miter"/>
   </g>
   <g id="line2d_1">
    <path d="M 253.377 134.53 
L 253.377 172.78 
L 319.627943 134.53 
L 253.377 96.28 
L 253.377 134.53 
M 319.627943 134.53 
" clip-path="url(#p00a8b5f9b0)" style="fill: none; stroke: #000000; stroke-width: 2; stroke-linecap: round"/>
   </g>
   <g id="line2d_2">
    <path d="M 258.598368 153.655 
L 264.718368 153.655 
" clip-path="url(#p00a8b5f9b0)" style="fill: none; stroke: #000000; stroke-width: 2; stroke-linecap: round"/>
   </g>
   <g id="line2d_3">
    <path d="M 258.598368 115.405 
L 264.718368 115.405 
" clip-path="url(#p00a8b5f9b0)" style="fill: none; stroke: #000000; stroke-width: 2; stroke-linecap: round"/>
   </g>
   <g id="line2d_4">
    <path d="M 261.658368 112.345 
L 261.658368 118.465 
" clip-path="url(#p00a8b5f9b0)" style="fill: none; stroke: #000000; stroke-width: 2; stroke-linecap: round"/>
   </g>
   <g id="line2d_5">
    <path d="M 234.252 153.655 
L 253.377 153.655 
" clip-path="url(#p00a8b5f9b0)" style="fill: none; stroke: #000000; stroke-width: 2; stroke-linecap: round"/>
   </g>
   <g id="line2d_6">
    <path d="M 234.252 115.405 
L 253.377 115.405 
" clip-path="url(#p00a8b5f9b0)" style="fill: none; stroke: #000000; stroke-width: 2; stroke-linecap: round"/>
   </g>
   <g id="line2d_7">
    <path d="M 319.627943 134.53 
L 338.752943 134.53 
" clip-path="url(#p00a8b5f9b0)" style="fill: none; stroke: #000000; stroke-width: 2; stroke-linecap: round"/>
   </g>
   <g id="line2d_8">
    <path d="M 234.252 115.405 
L 203.652 115.405 
L 201.102 123.055 
L 196.002 107.755 
L 190.902 123.055 
L 185.802 107.755 
L 180.702 123.055 
L 175.602 107.755 
L 173.052 115.405 
L 142.452 115.405 
" clip-path="url(#p00a8b5f9b0)" style="fill: none; stroke: #000000; stroke-width: 2; stroke-linecap: round"/>
   </g>
   <g id="line2d_9">
    <path d="M 142.452 115.405 
L 142.452 146.005 
L 150.102 148.555 
L 134.802 153.655 
L 150.102 158.755 
L 134.802 163.855 
L 150.102 168.955 
L 134.802 174.055 
L 142.452 176.605 
L 142.452 207.205 
" clip-path="url(#p00a8b5f9b0)" style="fill: none; stroke: #000000; stroke-width: 2; stroke-linecap: round"/>
   </g>
   <g id="line2d_10">
    <path d="M 142.452 115.405 
L 111.852 115.405 
L 111.852 115.405 
M 81.252 115.405 
L 81.252 115.405 
L 50.652 115.405 
" clip-path="url(#p00a8b5f9b0)" style="fill: none; stroke: #000000; stroke-width: 2; stroke-linecap: round"/>
   </g>
   <g id="line2d_11">
    <path d="M 104.202 112.345 
L 104.202 118.465 
" clip-path="url(#p00a8b5f9b0)" style="fill: none; stroke: #000000; stroke-width: 2; stroke-linecap: round"/>
   </g>
   <g id="line2d_12">
    <path d="M 91.962 115.405 
L 85.842 115.405 
" clip-path="url(#p00a8b5f9b0)" style="fill: none; stroke: #000000; stroke-width: 2; stroke-linecap: round"/>
   </g>
   <g id="line2d_13">
    <path d="M 88.902 112.345 
L 88.902 118.465 
" clip-path="url(#p00a8b5f9b0)" style="fill: none; stroke: #000000; stroke-width: 2; stroke-linecap: round"/>
   </g>
   <g id="line2d_14">
    <path d="M 50.652 115.405 
L 50.652 146.005 
L 58.302 148.555 
L 43.002 153.655 
L 58.302 158.755 
L 43.002 163.855 
L 58.302 168.955 
L 43.002 174.055 
L 50.652 176.605 
L 50.652 207.205 
" clip-path="url(#p00a8b5f9b0)" style="fill: none; stroke: #000000; stroke-width: 2; stroke-linecap: round"/>
   </g>
   <g id="line2d_15">
    <path d="M 50.652 207.205 
L 218.952 207.205 
L 387.252 207.205 
" clip-path="url(#p00a8b5f9b0)" style="fill: none; stroke: #000000; stroke-width: 2; stroke-linecap: round"/>
   </g>
   <g id="line2d_16">
    <path d="M 387.252 207.205 
L 387.252 186.1675 
L 379.602 183.6175 
L 394.902 178.5175 
L 379.602 173.4175 
L 394.902 168.3175 
L 379.602 163.2175 
L 394.902 158.1175 
L 387.252 155.5675 
L 387.252 134.53 
" clip-path="url(#p00a8b5f9b0)" style="fill: none; stroke: #000000; stroke-width: 2; stroke-linecap: round"/>
   </g>
   <g id="line2d_17">
    <path d="M 387.252 134.53 
L 356.652 134.53 
L 326.052 134.53 
" clip-path="url(#p00a8b5f9b0)" style="fill: none; stroke: #000000; stroke-width: 2; stroke-linecap: round"/>
   </g>
   <g id="line2d_18">
    <path d="M 387.252 134.53 
L 387.252 88.63 
L 387.252 42.73 
" clip-path="url(#p00a8b5f9b0)" style="fill: none; stroke: #000000; stroke-width: 2; stroke-linecap: round"/>
   </g>
   <g id="line2d_19">
    <path d="M 387.252 42.73 
L 326.052 42.73 
L 323.502 50.38 
L 318.402 35.08 
L 313.302 50.38 
L 308.202 35.08 
L 303.102 50.38 
L 298.002 35.08 
L 295.452 42.73 
L 234.252 42.73 
" clip-path="url(#p00a8b5f9b0)" style="fill: none; stroke: #000000; stroke-width: 2; stroke-linecap: round"/>
   </g>
   <g id="line2d_20">
    <path d="M 234.252 42.73 
L 234.252 77.92 
L 234.252 113.11 
" clip-path="url(#p00a8b5f9b0)" style="fill: none; stroke: #000000; stroke-width: 2; stroke-linecap: round"/>
   </g>
   <g id="line2d_21">
    <path d="M 234.252 153.655 
L 234.252 180.43 
L 234.252 207.205 
" clip-path="url(#p00a8b5f9b0)" style="fill: none; stroke: #000000; stroke-width: 2; stroke-linecap: round"/>
   </g>
   <g id="line2d_22">
    <path d="M 35.352 77.155 
L 35.352 107.755 
L 35.352 138.355 
" clip-path="url(#p00a8b5f9b0)" style="fill: none; stroke: #ffa500; stroke-width: 2; stroke-linecap: round"/>
   </g>
   <g id="line2d_23">
    <path d="M 35.352 138.355 
L 96.552 138.355 
L 157.752 138.355 
" clip-path="url(#p00a8b5f9b0)" style="fill: none; stroke: #ffa500; stroke-width: 2; stroke-linecap: round"/>
   </g>
   <g id="line2d_24">
    <path d="M 157.752 138.355 
L 157.752 107.755 
L 157.752 77.155 
" clip-path="url(#p00a8b5f9b0)" style="fill: none; stroke: #ffa500; stroke-width: 2; stroke-linecap: round"/>
   </g>
   <g id="line2d_25">
    <path d="M 157.752 77.155 
L 96.552 77.155 
L 35.352 77.155 
" clip-path="url(#p00a8b5f9b0)" style="fill: none; stroke: #ffa500; stroke-width: 2; stroke-linecap: round"/>
   </g>
   <g id="line2d_26">
    <path d="M 65.952 146.005 
L 65.952 161.305 
L 65.952 168.955 
" clip-path="url(#p00a8b5f9b0)" style="fill: none; stroke: #0000ff; stroke-width: 2; stroke-linecap: round"/>
   </g>
   <g id="patch_4">
    <path d="M 68.247 168.955 
L 65.952 176.605 
L 63.657 168.955 
z
" clip-path="url(#p00a8b5f9b0)" style="fill: #0000ff"/>
   </g>
   <g id="line2d_27">
    <path d="M 157.752 146.005 
L 157.752 161.305 
L 157.752 168.955 
" clip-path="url(#p00a8b5f9b0)" style="fill: none; stroke: #0000ff; stroke-width: 2; stroke-linecap: round"/>
   </g>
   <g id="patch_5">
    <path d="M 160.047 168.955 
L 157.752 176.605 
L 155.457 168.955 
z
" clip-path="url(#p00a8b5f9b0)" style="fill: #0000ff"/>
   </g>
   <g id="line2d_28">
    <path d="M 402.552 157.48 
L 402.552 172.78 
L 402.552 180.43 
" clip-path="url(#p00a8b5f9b0)" style="fill: none; stroke: #0000ff; stroke-width: 2; stroke-linecap: round"/>
   </g>
   <g id="patch_6">
    <path d="M 404.847 180.43 
L 402.552 188.08 
L 400.257 180.43 
z
" clip-path="url(#p00a8b5f9b0)" style="fill: #0000ff"/>
   </g>
   <g id="line2d_29">
    <path d="M 173.052 138.355 
L 188.352 138.355 
L 196.002 138.355 
" clip-path="url(#p00a8b5f9b0)" style="fill: none; stroke: #0000ff; stroke-width: 2; stroke-linecap: round"/>
   </g>
   <g id="patch_7">
    <path d="M 196.002 136.06 
L 203.652 138.355 
L 196.002 140.65 
z
" clip-path="url(#p00a8b5f9b0)" style="fill: #0000ff"/>
   </g>
   <g id="line2d_30">
    <path d="M 295.452 65.68 
L 310.752 65.68 
L 318.402 65.68 
" clip-path="url(#p00a8b5f9b0)" style="fill: none; stroke: #0000ff; stroke-width: 2; stroke-linecap: round"/>
   </g>
   <g id="patch_8">
    <path d="M 318.402 63.385 
L 326.052 65.68 
L 318.402 67.975 
z
" clip-path="url(#p00a8b5f9b0)" style="fill: #0000ff"/>
   </g>
   <g id="line2d_31">
    <path d="M 253.377 134.53 
L 253.377 172.78 
L 319.627943 134.53 
L 253.377 96.28 
L 253.377 134.53 
M 319.627943 134.53 
" clip-path="url(#p00a8b5f9b0)" style="fill: none; stroke: #000000; stroke-width: 2; stroke-linecap: round"/>
   </g>
   <g id="line2d_32">
    <path d="M 258.598368 153.655 
L 264.718368 153.655 
" clip-path="url(#p00a8b5f9b0)" style="fill: none; stroke: #000000; stroke-width: 2; stroke-linecap: round"/>
   </g>
   <g id="line2d_33">
    <path d="M 258.598368 115.405 
L 264.718368 115.405 
" clip-path="url(#p00a8b5f9b0)" style="fill: none; stroke: #000000; stroke-width: 2; stroke-linecap: round"/>
   </g>
   <g id="line2d_34">
    <path d="M 261.658368 112.345 
L 261.658368 118.465 
" clip-path="url(#p00a8b5f9b0)" style="fill: none; stroke: #000000; stroke-width: 2; stroke-linecap: round"/>
   </g>
   <g id="line2d_35">
    <path d="M 234.252 153.655 
L 253.377 153.655 
" clip-path="url(#p00a8b5f9b0)" style="fill: none; stroke: #000000; stroke-width: 2; stroke-linecap: round"/>
   </g>
   <g id="line2d_36">
    <path d="M 234.252 115.405 
L 253.377 115.405 
" clip-path="url(#p00a8b5f9b0)" style="fill: none; stroke: #000000; stroke-width: 2; stroke-linecap: round"/>
   </g>
   <g id="line2d_37">
    <path d="M 319.627943 134.53 
L 338.752943 134.53 
" clip-path="url(#p00a8b5f9b0)" style="fill: none; stroke: #000000; stroke-width: 2; stroke-linecap: round"/>
   </g>
   <g id="line2d_38">
    <path d="M 234.252 115.405 
L 203.652 115.405 
L 201.102 123.055 
L 196.002 107.755 
L 190.902 123.055 
L 185.802 107.755 
L 180.702 123.055 
L 175.602 107.755 
L 173.052 115.405 
L 142.452 115.405 
" clip-path="url(#p00a8b5f9b0)" style="fill: none; stroke: #000000; stroke-width: 2; stroke-linecap: round"/>
   </g>
   <g id="line2d_39">
    <path d="M 142.452 115.405 
L 142.452 146.005 
L 150.102 148.555 
L 134.802 153.655 
L 150.102 158.755 
L 134.802 163.855 
L 150.102 168.955 
L 134.802 174.055 
L 142.452 176.605 
L 142.452 207.205 
" clip-path="url(#p00a8b5f9b0)" style="fill: none; stroke: #000000; stroke-width: 2; stroke-linecap: round"/>
   </g>
   <g id="line2d_40">
    <path d="M 142.452 115.405 
L 111.852 115.405 
L 111.852 115.405 
M 81.252 115.405 
L 81.252 115.405 
L 50.652 115.405 
" clip-path="url(#p00a8b5f9b0)" style="fill: none; stroke: #000000; stroke-width: 2; stroke-linecap: round"/>
   </g>
   <g id="line2d_41">
    <path d="M 104.202 112.345 
L 104.202 118.465 
" clip-path="url(#p00a8b5f9b0)" style="fill: none; stroke: #000000; stroke-width: 2; stroke-linecap: round"/>
   </g>
   <g id="line2d_42">
    <path d="M 91.962 115.405 
L 85.842 115.405 
" clip-path="url(#p00a8b5f9b0)" style="fill: none; stroke: #000000; stroke-width: 2; stroke-linecap: round"/>
   </g>
   <g id="line2d_43">
    <path d="M 88.902 112.345 
L 88.902 118.465 
" clip-path="url(#p00a8b5f9b0)" style="fill: none; stroke: #000000; stroke-width: 2; stroke-linecap: round"/>
   </g>
   <g id="line2d_44">
    <path d="M 50.652 115.405 
L 50.652 146.005 
L 58.302 148.555 
L 43.002 153.655 
L 58.302 158.755 
L 43.002 163.855 
L 58.302 168.955 
L 43.002 174.055 
L 50.652 176.605 
L 50.652 207.205 
" clip-path="url(#p00a8b5f9b0)" style="fill: none; stroke: #000000; stroke-width: 2; stroke-linecap: round"/>
   </g>
   <g id="line2d_45">
    <path d="M 50.652 207.205 
L 218.952 207.205 
L 387.252 207.205 
" clip-path="url(#p00a8b5f9b0)" style="fill: none; stroke: #000000; stroke-width: 2; stroke-linecap: round"/>
   </g>
   <g id="line2d_46">
    <path d="M 387.252 207.205 
L 387.252 186.1675 
L 379.602 183.6175 
L 394.902 178.5175 
L 379.602 173.4175 
L 394.902 168.3175 
L 379.602 163.2175 
L 394.902 158.1175 
L 387.252 155.5675 
L 387.252 134.53 
" clip-path="url(#p00a8b5f9b0)" style="fill: none; stroke: #000000; stroke-width: 2; stroke-linecap: round"/>
   </g>
   <g id="line2d_47">
    <path d="M 387.252 134.53 
L 356.652 134.53 
L 326.052 134.53 
" clip-path="url(#p00a8b5f9b0)" style="fill: none; stroke: #000000; stroke-width: 2; stroke-linecap: round"/>
   </g>
   <g id="line2d_48">
    <path d="M 387.252 134.53 
L 387.252 88.63 
L 387.252 42.73 
" clip-path="url(#p00a8b5f9b0)" style="fill: none; stroke: #000000; stroke-width: 2; stroke-linecap: round"/>
   </g>
   <g id="line2d_49">
    <path d="M 387.252 42.73 
L 326.052 42.73 
L 323.502 50.38 
L 318.402 35.08 
L 313.302 50.38 
L 308.202 35.08 
L 303.102 50.38 
L 298.002 35.08 
L 295.452 42.73 
L 234.252 42.73 
" clip-path="url(#p00a8b5f9b0)" style="fill: none; stroke: #000000; stroke-width: 2; stroke-linecap: round"/>
   </g>
   <g id="line2d_50">
    <path d="M 234.252 42.73 
L 234.252 77.92 
L 234.252 113.11 
" clip-path="url(#p00a8b5f9b0)" style="fill: none; stroke: #000000; stroke-width: 2; stroke-linecap: round"/>
   </g>
   <g id="line2d_51">
    <path d="M 234.252 153.655 
L 234.252 180.43 
L 234.252 207.205 
" clip-path="url(#p00a8b5f9b0)" style="fill: none; stroke: #000000; stroke-width: 2; stroke-linecap: round"/>
   </g>
   <g id="line2d_52">
    <path d="M 35.352 77.155 
L 35.352 107.755 
L 35.352 138.355 
" clip-path="url(#p00a8b5f9b0)" style="fill: none; stroke: #ffa500; stroke-width: 2; stroke-linecap: round"/>
   </g>
   <g id="line2d_53">
    <path d="M 35.352 138.355 
L 96.552 138.355 
L 157.752 138.355 
" clip-path="url(#p00a8b5f9b0)" style="fill: none; stroke: #ffa500; stroke-width: 2; stroke-linecap: round"/>
   </g>
   <g id="line2d_54">
    <path d="M 157.752 138.355 
L 157.752 107.755 
L 157.752 77.155 
" clip-path="url(#p00a8b5f9b0)" style="fill: none; stroke: #ffa500; stroke-width: 2; stroke-linecap: round"/>
   </g>
   <g id="line2d_55">
    <path d="M 157.752 77.155 
L 96.552 77.155 
L 35.352 77.155 
" clip-path="url(#p00a8b5f9b0)" style="fill: none; stroke: #ffa500; stroke-width: 2; stroke-linecap: round"/>
   </g>
   <g id="line2d_56">
    <path d="M 65.952 146.005 
L 65.952 161.305 
L 65.952 168.955 
" clip-path="url(#p00a8b5f9b0)" style="fill: none; stroke: #0000ff; stroke-width: 2; stroke-linecap: round"/>
   </g>
   <g id="patch_9">
    <path d="M 68.247 168.955 
L 65.952 176.605 
L 63.657 168.955 
z
" clip-path="url(#p00a8b5f9b0)" style="fill: #0000ff"/>
   </g>
   <g id="line2d_57">
    <path d="M 157.752 146.005 
L 157.752 161.305 
L 157.752 168.955 
" clip-path="url(#p00a8b5f9b0)" style="fill: none; stroke: #0000ff; stroke-width: 2; stroke-linecap: round"/>
   </g>
   <g id="patch_10">
    <path d="M 160.047 168.955 
L 157.752 176.605 
L 155.457 168.955 
z
" clip-path="url(#p00a8b5f9b0)" style="fill: #0000ff"/>
   </g>
   <g id="line2d_58">
    <path d="M 402.552 157.48 
L 402.552 172.78 
L 402.552 180.43 
" clip-path="url(#p00a8b5f9b0)" style="fill: none; stroke: #0000ff; stroke-width: 2; stroke-linecap: round"/>
   </g>
   <g id="patch_11">
    <path d="M 404.847 180.43 
L 402.552 188.08 
L 400.257 180.43 
z
" clip-path="url(#p00a8b5f9b0)" style="fill: #0000ff"/>
   </g>
   <g id="line2d_59">
    <path d="M 173.052 138.355 
L 188.352 138.355 
L 196.002 138.355 
" clip-path="url(#p00a8b5f9b0)" style="fill: none; stroke: #0000ff; stroke-width: 2; stroke-linecap: round"/>
   </g>
   <g id="patch_12">
    <path d="M 196.002 136.06 
L 203.652 138.355 
L 196.002 140.65 
z
" clip-path="url(#p00a8b5f9b0)" style="fill: #0000ff"/>
   </g>
   <g id="line2d_60">
    <path d="M 295.452 65.68 
L 310.752 65.68 
L 318.402 65.68 
" clip-path="url(#p00a8b5f9b0)" style="fill: none; stroke: #0000ff; stroke-width: 2; stroke-linecap: round"/>
   </g>
   <g id="patch_13">
    <path d="M 318.402 63.385 
L 326.052 65.68 
L 318.402 67.975 
z
" clip-path="url(#p00a8b5f9b0)" style="fill: #0000ff"/>
   </g>
   <g id="text_1">
    <g clip-path="url(#p00a8b5f9b0)">
     <!-- $18~\Omega$ -->
     <g transform="translate(175.9145 102.095391)scale(0.125 -0.125)">
      <defs>
       <path id="STIXGeneral-Regular-31" d="M 2522 0 
L 755 0 
L 755 96 
Q 1107 115 1235 227 
Q 1363 339 1363 608 
L 1363 3482 
Q 1363 3795 1171 3795 
Q 1082 3795 883 3718 
L 710 3654 
L 710 3744 
L 1856 4326 
L 1914 4307 
L 1914 486 
Q 1914 275 2042 185 
Q 2170 96 2522 96 
L 2522 0 
z
" transform="scale(0.015625)"/>
       <path id="STIXGeneral-Regular-38" d="M 2848 992 
Q 2848 499 2505 204 
Q 2163 -90 1587 -90 
Q 1050 -90 704 204 
Q 358 499 358 954 
Q 358 1293 524 1533 
Q 691 1773 1190 2125 
Q 710 2522 553 2765 
Q 397 3008 397 3328 
Q 397 3782 745 4054 
Q 1094 4326 1638 4326 
Q 2106 4326 2410 4060 
Q 2714 3795 2714 3411 
Q 2714 3059 2531 2848 
Q 2349 2637 1856 2374 
Q 2432 1990 2640 1689 
Q 2848 1389 2848 992 
z
M 2272 3411 
Q 2272 3744 2086 3945 
Q 1901 4147 1574 4147 
Q 1248 4147 1059 3977 
Q 870 3808 870 3513 
Q 870 3219 1059 2979 
Q 1248 2739 1670 2490 
Q 1997 2682 2134 2896 
Q 2272 3110 2272 3411 
z
M 1734 1741 
L 1357 1997 
Q 1075 1766 960 1545 
Q 845 1325 845 1011 
Q 845 576 1065 333 
Q 1286 90 1658 90 
Q 1971 90 2166 285 
Q 2362 480 2362 794 
Q 2362 1082 2214 1299 
Q 2067 1517 1734 1741 
z
" transform="scale(0.015625)"/>
       <path id="STIXGeneral-Regular-3a9" d="M 4576 0 
L 2746 0 
L 2790 1030 
Q 3187 1126 3440 1574 
Q 3693 2022 3693 2554 
Q 3693 3251 3344 3673 
Q 2995 4096 2380 4096 
Q 1766 4096 1417 3635 
Q 1069 3174 1069 2554 
Q 1069 2054 1315 1600 
Q 1562 1146 1965 1030 
L 2022 0 
L 186 0 
L 186 1094 
L 346 1094 
Q 352 806 438 707 
Q 525 608 742 608 
L 1709 608 
L 1696 845 
Q 1018 1037 678 1446 
Q 339 1856 339 2541 
Q 339 3238 899 3782 
Q 1459 4326 2380 4326 
Q 3302 4326 3862 3804 
Q 4422 3283 4422 2541 
Q 4422 1235 3046 845 
L 3034 608 
L 4019 608 
Q 4397 608 4416 1082 
L 4576 1082 
L 4576 0 
z
" transform="scale(0.015625)"/>
      </defs>
      <use xlink:href="#STIXGeneral-Regular-31" transform="translate(0 0.40625)"/>
      <use xlink:href="#STIXGeneral-Regular-38" transform="translate(49.999985 0.40625)"/>
      <use xlink:href="#STIXGeneral-Regular-3a9" transform="translate(124.066389 0.40625)"/>
     </g>
    </g>
   </g>
   <g id="text_2">
    <g clip-path="url(#p00a8b5f9b0)">
     <!-- $9~\Omega$ -->
     <g transform="translate(113.117 164.754219)scale(0.125 -0.125)">
      <defs>
       <path id="STIXGeneral-Regular-39" d="M 378 -141 
L 358 -13 
Q 1094 115 1603 608 
Q 2112 1101 2304 1882 
Q 1933 1517 1344 1517 
Q 826 1517 509 1875 
Q 192 2234 192 2816 
Q 192 3462 573 3894 
Q 954 4326 1523 4326 
Q 2131 4326 2528 3840 
Q 2938 3328 2938 2522 
Q 2938 1958 2742 1462 
Q 2547 966 2170 621 
Q 1773 262 1395 105 
Q 1018 -51 378 -141 
z
M 2317 2272 
L 2317 2522 
Q 2317 4147 1472 4147 
Q 1171 4147 1005 3930 
Q 909 3802 845 3546 
Q 781 3290 781 3034 
Q 781 2464 995 2128 
Q 1210 1792 1568 1792 
Q 1824 1792 2070 1917 
Q 2317 2042 2317 2272 
z
" transform="scale(0.015625)"/>
      </defs>
      <use xlink:href="#STIXGeneral-Regular-39" transform="translate(0 0.40625)"/>
      <use xlink:href="#STIXGeneral-Regular-3a9" transform="translate(74.066405 0.40625)"/>
     </g>
    </g>
   </g>
   <g id="text_3">
    <g clip-path="url(#p00a8b5f9b0)">
     <!-- $4~V$ -->
     <g transform="translate(88.052 94.445391)scale(0.125 -0.125)">
      <defs>
       <path id="STIXGeneral-Regular-34" d="M 3027 1069 
L 2368 1069 
L 2368 0 
L 1869 0 
L 1869 1069 
L 77 1069 
L 77 1478 
L 2086 4326 
L 2368 4326 
L 2368 1478 
L 3027 1478 
L 3027 1069 
z
M 1869 1478 
L 1869 3674 
L 333 1478 
L 1869 1478 
z
" transform="scale(0.015625)"/>
       <path id="STIXGeneral-Italic-56" d="M 4403 4179 
L 4403 4077 
Q 4198 4070 4045 3821 
L 1658 -115 
L 1536 -115 
L 1011 3104 
Q 902 3776 828 3910 
Q 755 4045 486 4077 
L 486 4179 
L 2022 4179 
L 2022 4077 
Q 1722 4045 1629 3981 
Q 1536 3917 1536 3750 
Q 1536 3686 1542 3654 
L 1958 819 
L 3302 3123 
Q 3616 3661 3616 3859 
Q 3616 4032 3219 4077 
L 3219 4179 
L 4403 4179 
z
" transform="scale(0.015625)"/>
      </defs>
      <use xlink:href="#STIXGeneral-Regular-34" transform="translate(0 0.40625)"/>
      <use xlink:href="#STIXGeneral-Italic-56" transform="translate(74.066405 0.40625)"/>
     </g>
    </g>
   </g>
   <g id="text_4">
    <g clip-path="url(#p00a8b5f9b0)">
     <!-- $6~\Omega$ -->
     <g transform="translate(21.317 164.754219)scale(0.125 -0.125)">
      <defs>
       <path id="STIXGeneral-Regular-36" d="M 2854 4378 
L 2867 4275 
Q 2112 4154 1606 3664 
Q 1101 3174 973 2451 
Q 1344 2739 1786 2739 
Q 2349 2739 2672 2380 
Q 2995 2022 2995 1402 
Q 2995 774 2669 378 
Q 2291 -90 1651 -90 
Q 870 -90 518 557 
Q 218 1107 218 1786 
Q 218 2835 915 3552 
Q 1312 3962 1731 4131 
Q 2150 4301 2854 4378 
z
M 2419 1203 
Q 2419 2445 1555 2445 
Q 1235 2445 1024 2275 
Q 813 2106 813 1702 
Q 813 954 1046 522 
Q 1280 90 1722 90 
Q 2061 90 2240 394 
Q 2419 698 2419 1203 
z
" transform="scale(0.015625)"/>
      </defs>
      <use xlink:href="#STIXGeneral-Regular-36" transform="translate(0 0.59375)"/>
      <use xlink:href="#STIXGeneral-Regular-3a9" transform="translate(74.066405 0.59375)"/>
     </g>
    </g>
   </g>
   <g id="text_5">
    <g clip-path="url(#p00a8b5f9b0)">
     <!-- $12~\Omega$ -->
     <g transform="translate(351.667 174.316719)scale(0.125 -0.125)">
      <defs>
       <path id="STIXGeneral-Regular-32" d="M 3034 877 
L 2688 0 
L 186 0 
L 186 77 
L 1325 1286 
Q 1773 1754 1965 2144 
Q 2157 2534 2157 2950 
Q 2157 3379 1920 3616 
Q 1683 3853 1267 3853 
Q 922 3853 720 3673 
Q 518 3494 326 3021 
L 192 3053 
Q 301 3648 630 3987 
Q 960 4326 1523 4326 
Q 2054 4326 2380 4006 
Q 2707 3686 2707 3200 
Q 2707 2477 1888 1613 
L 832 486 
L 2330 486 
Q 2541 486 2665 569 
Q 2790 653 2944 915 
L 3034 877 
z
" transform="scale(0.015625)"/>
      </defs>
      <use xlink:href="#STIXGeneral-Regular-31" transform="translate(0 0.40625)"/>
      <use xlink:href="#STIXGeneral-Regular-32" transform="translate(49.999985 0.40625)"/>
      <use xlink:href="#STIXGeneral-Regular-3a9" transform="translate(124.066389 0.40625)"/>
     </g>
    </g>
   </g>
   <g id="text_6">
    <g clip-path="url(#p00a8b5f9b0)">
     <!-- $72~\Omega$ -->
     <g transform="translate(298.3145 29.420391)scale(0.125 -0.125)">
      <defs>
       <path id="STIXGeneral-Regular-37" d="M 2874 4134 
L 1517 -51 
L 1101 -51 
L 2368 3763 
L 992 3763 
Q 717 3763 582 3667 
Q 448 3571 243 3238 
L 128 3296 
L 512 4237 
L 2874 4237 
L 2874 4134 
z
" transform="scale(0.015625)"/>
      </defs>
      <use xlink:href="#STIXGeneral-Regular-37" transform="translate(0 0.40625)"/>
      <use xlink:href="#STIXGeneral-Regular-32" transform="translate(49.999985 0.40625)"/>
      <use xlink:href="#STIXGeneral-Regular-3a9" transform="translate(124.066389 0.40625)"/>
     </g>
    </g>
   </g>
   <g id="text_7">
    <g clip-path="url(#p00a8b5f9b0)">
     <!-- C -->
     <g transform="translate(217.647742 106.614219)scale(0.125 -0.125)">
      <defs>
       <path id="DejaVuSans-43" d="M 4122 4306 
L 4122 3641 
Q 3803 3938 3442 4084 
Q 3081 4231 2675 4231 
Q 1875 4231 1450 3742 
Q 1025 3253 1025 2328 
Q 1025 1406 1450 917 
Q 1875 428 2675 428 
Q 3081 428 3442 575 
Q 3803 722 4122 1019 
L 4122 359 
Q 3791 134 3420 21 
Q 3050 -91 2638 -91 
Q 1578 -91 968 557 
Q 359 1206 359 2328 
Q 359 3453 968 4101 
Q 1578 4750 2638 4750 
Q 3056 4750 3426 4639 
Q 3797 4528 4122 4306 
z
" transform="scale(0.015625)"/>
      </defs>
      <use xlink:href="#DejaVuSans-43"/>
     </g>
    </g>
   </g>
   <g id="text_8">
    <g clip-path="url(#p00a8b5f9b0)">
     <!-- B -->
     <g transform="translate(141.223914 106.614219)scale(0.125 -0.125)">
      <defs>
       <path id="DejaVuSans-42" d="M 1259 2228 
L 1259 519 
L 2272 519 
Q 2781 519 3026 730 
Q 3272 941 3272 1375 
Q 3272 1813 3026 2020 
Q 2781 2228 2272 2228 
L 1259 2228 
z
M 1259 4147 
L 1259 2741 
L 2194 2741 
Q 2656 2741 2882 2914 
Q 3109 3088 3109 3444 
Q 3109 3797 2882 3972 
Q 2656 4147 2194 4147 
L 1259 4147 
z
M 628 4666 
L 2241 4666 
Q 2963 4666 3353 4366 
Q 3744 4066 3744 3513 
Q 3744 3084 3544 2831 
Q 3344 2578 2956 2516 
Q 3422 2416 3680 2098 
Q 3938 1781 3938 1306 
Q 3938 681 3513 340 
Q 3088 0 2303 0 
L 628 0 
L 628 4666 
z
" transform="scale(0.015625)"/>
      </defs>
      <use xlink:href="#DejaVuSans-42"/>
     </g>
    </g>
   </g>
   <g id="text_9">
    <g clip-path="url(#p00a8b5f9b0)">
     <!-- A -->
     <g transform="translate(49.436609 106.614219)scale(0.125 -0.125)">
      <defs>
       <path id="DejaVuSans-41" d="M 2188 4044 
L 1331 1722 
L 3047 1722 
L 2188 4044 
z
M 1831 4666 
L 2547 4666 
L 4325 0 
L 3669 0 
L 3244 1197 
L 1141 1197 
L 716 0 
L 50 0 
L 1831 4666 
z
" transform="scale(0.015625)"/>
      </defs>
      <use xlink:href="#DejaVuSans-41"/>
     </g>
    </g>
   </g>
   <g id="text_10">
    <g clip-path="url(#p00a8b5f9b0)">
     <!-- D -->
     <g transform="translate(400.7995 141.039219)scale(0.125 -0.125)">
      <defs>
       <path id="DejaVuSans-44" d="M 1259 4147 
L 1259 519 
L 2022 519 
Q 2988 519 3436 956 
Q 3884 1394 3884 2338 
Q 3884 3275 3436 3711 
Q 2988 4147 2022 4147 
L 1259 4147 
z
M 628 4666 
L 1925 4666 
Q 3281 4666 3915 4102 
Q 4550 3538 4550 2338 
Q 4550 1131 3912 565 
Q 3275 0 1925 0 
L 628 0 
L 628 4666 
z
" transform="scale(0.015625)"/>
      </defs>
      <use xlink:href="#DejaVuSans-44"/>
     </g>
    </g>
   </g>
   <g id="text_11">
    <g clip-path="url(#p00a8b5f9b0)">
     <!-- Super Node -->
     <g style="fill: #ffa500" transform="translate(59.940672 71.495391)scale(0.125 -0.125)">
      <defs>
       <path id="DejaVuSans-53" d="M 3425 4513 
L 3425 3897 
Q 3066 4069 2747 4153 
Q 2428 4238 2131 4238 
Q 1616 4238 1336 4038 
Q 1056 3838 1056 3469 
Q 1056 3159 1242 3001 
Q 1428 2844 1947 2747 
L 2328 2669 
Q 3034 2534 3370 2195 
Q 3706 1856 3706 1288 
Q 3706 609 3251 259 
Q 2797 -91 1919 -91 
Q 1588 -91 1214 -16 
Q 841 59 441 206 
L 441 856 
Q 825 641 1194 531 
Q 1563 422 1919 422 
Q 2459 422 2753 634 
Q 3047 847 3047 1241 
Q 3047 1584 2836 1778 
Q 2625 1972 2144 2069 
L 1759 2144 
Q 1053 2284 737 2584 
Q 422 2884 422 3419 
Q 422 4038 858 4394 
Q 1294 4750 2059 4750 
Q 2388 4750 2728 4690 
Q 3069 4631 3425 4513 
z
" transform="scale(0.015625)"/>
       <path id="DejaVuSans-75" d="M 544 1381 
L 544 3500 
L 1119 3500 
L 1119 1403 
Q 1119 906 1312 657 
Q 1506 409 1894 409 
Q 2359 409 2629 706 
Q 2900 1003 2900 1516 
L 2900 3500 
L 3475 3500 
L 3475 0 
L 2900 0 
L 2900 538 
Q 2691 219 2414 64 
Q 2138 -91 1772 -91 
Q 1169 -91 856 284 
Q 544 659 544 1381 
z
M 1991 3584 
L 1991 3584 
z
" transform="scale(0.015625)"/>
       <path id="DejaVuSans-70" d="M 1159 525 
L 1159 -1331 
L 581 -1331 
L 581 3500 
L 1159 3500 
L 1159 2969 
Q 1341 3281 1617 3432 
Q 1894 3584 2278 3584 
Q 2916 3584 3314 3078 
Q 3713 2572 3713 1747 
Q 3713 922 3314 415 
Q 2916 -91 2278 -91 
Q 1894 -91 1617 61 
Q 1341 213 1159 525 
z
M 3116 1747 
Q 3116 2381 2855 2742 
Q 2594 3103 2138 3103 
Q 1681 3103 1420 2742 
Q 1159 2381 1159 1747 
Q 1159 1113 1420 752 
Q 1681 391 2138 391 
Q 2594 391 2855 752 
Q 3116 1113 3116 1747 
z
" transform="scale(0.015625)"/>
       <path id="DejaVuSans-65" d="M 3597 1894 
L 3597 1613 
L 953 1613 
Q 991 1019 1311 708 
Q 1631 397 2203 397 
Q 2534 397 2845 478 
Q 3156 559 3463 722 
L 3463 178 
Q 3153 47 2828 -22 
Q 2503 -91 2169 -91 
Q 1331 -91 842 396 
Q 353 884 353 1716 
Q 353 2575 817 3079 
Q 1281 3584 2069 3584 
Q 2775 3584 3186 3129 
Q 3597 2675 3597 1894 
z
M 3022 2063 
Q 3016 2534 2758 2815 
Q 2500 3097 2075 3097 
Q 1594 3097 1305 2825 
Q 1016 2553 972 2059 
L 3022 2063 
z
" transform="scale(0.015625)"/>
       <path id="DejaVuSans-72" d="M 2631 2963 
Q 2534 3019 2420 3045 
Q 2306 3072 2169 3072 
Q 1681 3072 1420 2755 
Q 1159 2438 1159 1844 
L 1159 0 
L 581 0 
L 581 3500 
L 1159 3500 
L 1159 2956 
Q 1341 3275 1631 3429 
Q 1922 3584 2338 3584 
Q 2397 3584 2469 3576 
Q 2541 3569 2628 3553 
L 2631 2963 
z
" transform="scale(0.015625)"/>
       <path id="DejaVuSans-20" transform="scale(0.015625)"/>
       <path id="DejaVuSans-4e" d="M 628 4666 
L 1478 4666 
L 3547 763 
L 3547 4666 
L 4159 4666 
L 4159 0 
L 3309 0 
L 1241 3903 
L 1241 0 
L 628 0 
L 628 4666 
z
" transform="scale(0.015625)"/>
       <path id="DejaVuSans-6f" d="M 1959 3097 
Q 1497 3097 1228 2736 
Q 959 2375 959 1747 
Q 959 1119 1226 758 
Q 1494 397 1959 397 
Q 2419 397 2687 759 
Q 2956 1122 2956 1747 
Q 2956 2369 2687 2733 
Q 2419 3097 1959 3097 
z
M 1959 3584 
Q 2709 3584 3137 3096 
Q 3566 2609 3566 1747 
Q 3566 888 3137 398 
Q 2709 -91 1959 -91 
Q 1206 -91 779 398 
Q 353 888 353 1747 
Q 353 2609 779 3096 
Q 1206 3584 1959 3584 
z
" transform="scale(0.015625)"/>
       <path id="DejaVuSans-64" d="M 2906 2969 
L 2906 4863 
L 3481 4863 
L 3481 0 
L 2906 0 
L 2906 525 
Q 2725 213 2448 61 
Q 2172 -91 1784 -91 
Q 1150 -91 751 415 
Q 353 922 353 1747 
Q 353 2572 751 3078 
Q 1150 3584 1784 3584 
Q 2172 3584 2448 3432 
Q 2725 3281 2906 2969 
z
M 947 1747 
Q 947 1113 1208 752 
Q 1469 391 1925 391 
Q 2381 391 2643 752 
Q 2906 1113 2906 1747 
Q 2906 2381 2643 2742 
Q 2381 3103 1925 3103 
Q 1469 3103 1208 2742 
Q 947 2381 947 1747 
z
" transform="scale(0.015625)"/>
      </defs>
      <use xlink:href="#DejaVuSans-53"/>
      <use xlink:href="#DejaVuSans-75" x="63.476562"/>
      <use xlink:href="#DejaVuSans-70" x="126.855469"/>
      <use xlink:href="#DejaVuSans-65" x="190.332031"/>
      <use xlink:href="#DejaVuSans-72" x="251.855469"/>
      <use xlink:href="#DejaVuSans-20" x="292.96875"/>
      <use xlink:href="#DejaVuSans-4e" x="324.755859"/>
      <use xlink:href="#DejaVuSans-6f" x="399.560547"/>
      <use xlink:href="#DejaVuSans-64" x="460.742188"/>
      <use xlink:href="#DejaVuSans-65" x="524.21875"/>
     </g>
    </g>
   </g>
   <g id="text_12">
    <g clip-path="url(#p00a8b5f9b0)">
     <!-- $18~\Omega$ -->
     <g transform="translate(175.9145 102.095391)scale(0.125 -0.125)">
      <use xlink:href="#STIXGeneral-Regular-31" transform="translate(0 0.40625)"/>
      <use xlink:href="#STIXGeneral-Regular-38" transform="translate(49.999985 0.40625)"/>
      <use xlink:href="#STIXGeneral-Regular-3a9" transform="translate(124.066389 0.40625)"/>
     </g>
    </g>
   </g>
   <g id="text_13">
    <g clip-path="url(#p00a8b5f9b0)">
     <!-- $9~\Omega$ -->
     <g transform="translate(113.117 164.754219)scale(0.125 -0.125)">
      <use xlink:href="#STIXGeneral-Regular-39" transform="translate(0 0.40625)"/>
      <use xlink:href="#STIXGeneral-Regular-3a9" transform="translate(74.066405 0.40625)"/>
     </g>
    </g>
   </g>
   <g id="text_14">
    <g clip-path="url(#p00a8b5f9b0)">
     <!-- $4~V$ -->
     <g transform="translate(88.052 94.445391)scale(0.125 -0.125)">
      <use xlink:href="#STIXGeneral-Regular-34" transform="translate(0 0.40625)"/>
      <use xlink:href="#STIXGeneral-Italic-56" transform="translate(74.066405 0.40625)"/>
     </g>
    </g>
   </g>
   <g id="text_15">
    <g clip-path="url(#p00a8b5f9b0)">
     <!-- $6~\Omega$ -->
     <g transform="translate(21.317 164.754219)scale(0.125 -0.125)">
      <use xlink:href="#STIXGeneral-Regular-36" transform="translate(0 0.59375)"/>
      <use xlink:href="#STIXGeneral-Regular-3a9" transform="translate(74.066405 0.59375)"/>
     </g>
    </g>
   </g>
   <g id="text_16">
    <g clip-path="url(#p00a8b5f9b0)">
     <!-- $12~\Omega$ -->
     <g transform="translate(351.667 174.316719)scale(0.125 -0.125)">
      <use xlink:href="#STIXGeneral-Regular-31" transform="translate(0 0.40625)"/>
      <use xlink:href="#STIXGeneral-Regular-32" transform="translate(49.999985 0.40625)"/>
      <use xlink:href="#STIXGeneral-Regular-3a9" transform="translate(124.066389 0.40625)"/>
     </g>
    </g>
   </g>
   <g id="text_17">
    <g clip-path="url(#p00a8b5f9b0)">
     <!-- $72~\Omega$ -->
     <g transform="translate(298.3145 29.420391)scale(0.125 -0.125)">
      <use xlink:href="#STIXGeneral-Regular-37" transform="translate(0 0.40625)"/>
      <use xlink:href="#STIXGeneral-Regular-32" transform="translate(49.999985 0.40625)"/>
      <use xlink:href="#STIXGeneral-Regular-3a9" transform="translate(124.066389 0.40625)"/>
     </g>
    </g>
   </g>
   <g id="text_18">
    <g clip-path="url(#p00a8b5f9b0)">
     <!-- C -->
     <g transform="translate(217.647742 106.614219)scale(0.125 -0.125)">
      <use xlink:href="#DejaVuSans-43"/>
     </g>
    </g>
   </g>
   <g id="text_19">
    <g clip-path="url(#p00a8b5f9b0)">
     <!-- B -->
     <g transform="translate(141.223914 106.614219)scale(0.125 -0.125)">
      <use xlink:href="#DejaVuSans-42"/>
     </g>
    </g>
   </g>
   <g id="text_20">
    <g clip-path="url(#p00a8b5f9b0)">
     <!-- A -->
     <g transform="translate(49.436609 106.614219)scale(0.125 -0.125)">
      <use xlink:href="#DejaVuSans-41"/>
     </g>
    </g>
   </g>
   <g id="text_21">
    <g clip-path="url(#p00a8b5f9b0)">
     <!-- D -->
     <g transform="translate(400.7995 141.039219)scale(0.125 -0.125)">
      <use xlink:href="#DejaVuSans-44"/>
     </g>
    </g>
   </g>
   <g id="text_22">
    <g clip-path="url(#p00a8b5f9b0)">
     <!-- Super Node -->
     <g style="fill: #ffa500" transform="translate(59.940672 71.495391)scale(0.125 -0.125)">
      <use xlink:href="#DejaVuSans-53"/>
      <use xlink:href="#DejaVuSans-75" x="63.476562"/>
      <use xlink:href="#DejaVuSans-70" x="126.855469"/>
      <use xlink:href="#DejaVuSans-65" x="190.332031"/>
      <use xlink:href="#DejaVuSans-72" x="251.855469"/>
      <use xlink:href="#DejaVuSans-20" x="292.96875"/>
      <use xlink:href="#DejaVuSans-4e" x="324.755859"/>
      <use xlink:href="#DejaVuSans-6f" x="399.560547"/>
      <use xlink:href="#DejaVuSans-64" x="460.742188"/>
      <use xlink:href="#DejaVuSans-65" x="524.21875"/>
     </g>
    </g>
   </g>
   <g id="line2d_61">
    <path d="M 352.522943 134.53 
L 352.522943 134.53 
" clip-path="url(#p00a8b5f9b0)" style="fill: none; stroke: #000000; stroke-width: 2; stroke-linecap: round"/>
   </g>
   <g id="patch_14">
    <path d="M 352.522943 129.94 
L 361.702943 134.53 
L 352.522943 139.12 
z
" clip-path="url(#p00a8b5f9b0)"/>
   </g>
   <g id="text_23">
    <g clip-path="url(#p00a8b5f9b0)">
     <!-- $I_O$ -->
     <g transform="translate(351.550443 122.750391)scale(0.125 -0.125)">
      <defs>
       <path id="STIXGeneral-Italic-49" d="M 2458 4179 
L 2458 4077 
Q 2189 4045 2102 3961 
Q 2016 3878 1933 3584 
L 1165 838 
Q 1069 499 1069 352 
Q 1069 224 1149 179 
Q 1229 134 1510 102 
L 1510 0 
L -51 0 
L -51 102 
Q 218 154 317 237 
Q 416 320 486 582 
L 1254 3405 
Q 1338 3699 1338 3802 
Q 1338 3930 1235 3997 
Q 1133 4064 877 4077 
L 877 4179 
L 2458 4179 
z
" transform="scale(0.015625)"/>
       <path id="STIXGeneral-Italic-4f" d="M 4474 2675 
Q 4474 1990 4106 1363 
Q 3738 736 3149 339 
Q 2477 -115 1779 -115 
Q 1146 -115 765 281 
Q 384 678 384 1382 
Q 384 1965 697 2582 
Q 1011 3200 1517 3642 
Q 2234 4262 3034 4262 
Q 3718 4269 4096 3840 
Q 4474 3411 4474 2675 
z
M 3802 3078 
Q 3802 3533 3581 3792 
Q 3360 4051 2976 4051 
Q 2342 4051 1786 3302 
Q 1446 2842 1251 2259 
Q 1056 1677 1056 1178 
Q 1056 653 1270 374 
Q 1485 96 1888 96 
Q 2477 96 2976 704 
Q 3354 1178 3578 1862 
Q 3802 2547 3802 3078 
z
" transform="scale(0.015625)"/>
      </defs>
      <use xlink:href="#STIXGeneral-Italic-49" transform="translate(0 0.703125)"/>
      <use xlink:href="#STIXGeneral-Italic-4f" transform="translate(33.299988 -12.525)scale(0.7)"/>
     </g>
    </g>
   </g>
   <g id="patch_15">
    <path d="M 234.252 117.7 
C 234.860641 117.7 235.444436 117.458184 235.87481 117.02781 
C 236.305184 116.597436 236.547 116.013641 236.547 115.405 
C 236.547 114.796359 236.305184 114.212564 235.87481 113.78219 
C 235.444436 113.351816 234.860641 113.11 234.252 113.11 
C 233.643359 113.11 233.059564 113.351816 232.62919 113.78219 
C 232.198816 114.212564 231.957 114.796359 231.957 115.405 
C 231.957 116.013641 232.198816 116.597436 232.62919 117.02781 
C 233.059564 117.458184 233.643359 117.7 234.252 117.7 
z
" clip-path="url(#p00a8b5f9b0)" style="fill: #ff0000; stroke: #ff0000; stroke-width: 2; stroke-linejoin: miter"/>
   </g>
   <g id="patch_16">
    <path d="M 142.452 117.7 
C 143.060641 117.7 143.644436 117.458184 144.07481 117.02781 
C 144.505184 116.597436 144.747 116.013641 144.747 115.405 
C 144.747 114.796359 144.505184 114.212564 144.07481 113.78219 
C 143.644436 113.351816 143.060641 113.11 142.452 113.11 
C 141.843359 113.11 141.259564 113.351816 140.82919 113.78219 
C 140.398816 114.212564 140.157 114.796359 140.157 115.405 
C 140.157 116.013641 140.398816 116.597436 140.82919 117.02781 
C 141.259564 117.458184 141.843359 117.7 142.452 117.7 
z
" clip-path="url(#p00a8b5f9b0)" style="fill: #ff0000; stroke: #ff0000; stroke-width: 2; stroke-linejoin: miter"/>
   </g>
   <g id="patch_17">
    <path d="M 50.652 117.7 
C 51.260641 117.7 51.844436 117.458184 52.27481 117.02781 
C 52.705184 116.597436 52.947 116.013641 52.947 115.405 
C 52.947 114.796359 52.705184 114.212564 52.27481 113.78219 
C 51.844436 113.351816 51.260641 113.11 50.652 113.11 
C 50.043359 113.11 49.459564 113.351816 49.02919 113.78219 
C 48.598816 114.212564 48.357 114.796359 48.357 115.405 
C 48.357 116.013641 48.598816 116.597436 49.02919 117.02781 
C 49.459564 117.458184 50.043359 117.7 50.652 117.7 
z
" clip-path="url(#p00a8b5f9b0)" style="fill: #ff0000; stroke: #ff0000; stroke-width: 2; stroke-linejoin: miter"/>
   </g>
   <g id="patch_18">
    <path d="M 387.252 136.825 
C 387.860641 136.825 388.444436 136.583184 388.87481 136.15281 
C 389.305184 135.722436 389.547 135.138641 389.547 134.53 
C 389.547 133.921359 389.305184 133.337564 388.87481 132.90719 
C 388.444436 132.476816 387.860641 132.235 387.252 132.235 
C 386.643359 132.235 386.059564 132.476816 385.62919 132.90719 
C 385.198816 133.337564 384.957 133.921359 384.957 134.53 
C 384.957 135.138641 385.198816 135.722436 385.62919 136.15281 
C 386.059564 136.583184 386.643359 136.825 387.252 136.825 
z
" clip-path="url(#p00a8b5f9b0)" style="fill: #ff0000; stroke: #ff0000; stroke-width: 2; stroke-linejoin: miter"/>
   </g>
   <g id="line2d_62">
    <path d="M 352.522943 134.53 
L 352.522943 134.53 
" clip-path="url(#p00a8b5f9b0)" style="fill: none; stroke: #000000; stroke-width: 2; stroke-linecap: round"/>
   </g>
   <g id="patch_19">
    <path d="M 352.522943 129.94 
L 361.702943 134.53 
L 352.522943 139.12 
z
" clip-path="url(#p00a8b5f9b0)"/>
   </g>
   <g id="text_24">
    <g clip-path="url(#p00a8b5f9b0)">
     <!-- $I_O$ -->
     <g transform="translate(351.550443 122.750391)scale(0.125 -0.125)">
      <use xlink:href="#STIXGeneral-Italic-49" transform="translate(0 0.703125)"/>
      <use xlink:href="#STIXGeneral-Italic-4f" transform="translate(33.299988 -12.525)scale(0.7)"/>
     </g>
    </g>
   </g>
   <g id="patch_20">
    <path d="M 234.252 117.7 
C 234.860641 117.7 235.444436 117.458184 235.87481 117.02781 
C 236.305184 116.597436 236.547 116.013641 236.547 115.405 
C 236.547 114.796359 236.305184 114.212564 235.87481 113.78219 
C 235.444436 113.351816 234.860641 113.11 234.252 113.11 
C 233.643359 113.11 233.059564 113.351816 232.62919 113.78219 
C 232.198816 114.212564 231.957 114.796359 231.957 115.405 
C 231.957 116.013641 232.198816 116.597436 232.62919 117.02781 
C 233.059564 117.458184 233.643359 117.7 234.252 117.7 
z
" clip-path="url(#p00a8b5f9b0)" style="fill: #ff0000; stroke: #ff0000; stroke-width: 2; stroke-linejoin: miter"/>
   </g>
   <g id="patch_21">
    <path d="M 142.452 117.7 
C 143.060641 117.7 143.644436 117.458184 144.07481 117.02781 
C 144.505184 116.597436 144.747 116.013641 144.747 115.405 
C 144.747 114.796359 144.505184 114.212564 144.07481 113.78219 
C 143.644436 113.351816 143.060641 113.11 142.452 113.11 
C 141.843359 113.11 141.259564 113.351816 140.82919 113.78219 
C 140.398816 114.212564 140.157 114.796359 140.157 115.405 
C 140.157 116.013641 140.398816 116.597436 140.82919 117.02781 
C 141.259564 117.458184 141.843359 117.7 142.452 117.7 
z
" clip-path="url(#p00a8b5f9b0)" style="fill: #ff0000; stroke: #ff0000; stroke-width: 2; stroke-linejoin: miter"/>
   </g>
   <g id="patch_22">
    <path d="M 50.652 117.7 
C 51.260641 117.7 51.844436 117.458184 52.27481 117.02781 
C 52.705184 116.597436 52.947 116.013641 52.947 115.405 
C 52.947 114.796359 52.705184 114.212564 52.27481 113.78219 
C 51.844436 113.351816 51.260641 113.11 50.652 113.11 
C 50.043359 113.11 49.459564 113.351816 49.02919 113.78219 
C 48.598816 114.212564 48.357 114.796359 48.357 115.405 
C 48.357 116.013641 48.598816 116.597436 49.02919 117.02781 
C 49.459564 117.458184 50.043359 117.7 50.652 117.7 
z
" clip-path="url(#p00a8b5f9b0)" style="fill: #ff0000; stroke: #ff0000; stroke-width: 2; stroke-linejoin: miter"/>
   </g>
   <g id="patch_23">
    <path d="M 387.252 136.825 
C 387.860641 136.825 388.444436 136.583184 388.87481 136.15281 
C 389.305184 135.722436 389.547 135.138641 389.547 134.53 
C 389.547 133.921359 389.305184 133.337564 388.87481 132.90719 
C 388.444436 132.476816 387.860641 132.235 387.252 132.235 
C 386.643359 132.235 386.059564 132.476816 385.62919 132.90719 
C 385.198816 133.337564 384.957 133.921359 384.957 134.53 
C 384.957 135.138641 385.198816 135.722436 385.62919 136.15281 
C 386.059564 136.583184 386.643359 136.825 387.252 136.825 
z
" clip-path="url(#p00a8b5f9b0)" style="fill: #ff0000; stroke: #ff0000; stroke-width: 2; stroke-linejoin: miter"/>
   </g>
  </g>
 </g>
 <defs>
  <clipPath id="p00a8b5f9b0">
   <rect x="7.2" y="7.2" width="417.7104" height="203.065"/>
  </clipPath>
 </defs>
</svg>
