<?xml version="1.0" encoding="utf-8" standalone="no"?>
<!DOCTYPE svg PUBLIC "-//W3C//DTD SVG 1.1//EN"
  "http://www.w3.org/Graphics/SVG/1.1/DTD/svg11.dtd">
<svg xmlns:xlink="http://www.w3.org/1999/xlink" width="405.162pt" height="217.465pt" viewBox="0 0 405.162 217.465" xmlns="http://www.w3.org/2000/svg" version="1.1">
 <metadata>
  <rdf:RDF xmlns:dc="http://purl.org/dc/elements/1.1/" xmlns:cc="http://creativecommons.org/ns#" xmlns:rdf="http://www.w3.org/1999/02/22-rdf-syntax-ns#">
   <cc:Work>
    <dc:type rdf:resource="http://purl.org/dc/dcmitype/StillImage"/>
    <dc:date>2023-03-02T17:56:03.697649</dc:date>
    <dc:format>image/svg+xml</dc:format>
    <dc:creator>
     <cc:Agent>
      <dc:title>Matplotlib v3.5.2, https://matplotlib.org/</dc:title>
     </cc:Agent>
    </dc:creator>
   </cc:Work>
  </rdf:RDF>
 </metadata>
 <defs>
  <style type="text/css">*{stroke-linejoin: round; stroke-linecap: butt}</style>
 </defs>
 <g id="figure_1">
  <g id="patch_1">
   <path d="M 0 217.465 
L 405.162 217.465 
L 405.162 0 
L 0 0 
L 0 217.465 
z
" style="fill: none"/>
  </g>
  <g id="axes_1">
   <g id="patch_2">
    <path d="M 96.552 130.705 
C 100.609607 130.705 104.501572 129.092895 107.370734 126.223734 
C 110.239895 123.354572 111.852 119.462607 111.852 115.405 
C 111.852 111.347393 110.239895 107.455428 107.370734 104.586266 
C 104.501572 101.717105 100.609607 100.105 96.552 100.105 
C 92.494393 100.105 88.602428 101.717105 85.733266 104.586266 
C 82.864105 107.455428 81.252 111.347393 81.252 115.405 
C 81.252 119.462607 82.864105 123.354572 85.733266 126.223734 
C 88.602428 129.092895 92.494393 130.705 96.552 130.705 
L 96.552 130.705 
z
" clip-path="url(#pa695c39ea7)" style="fill: none; stroke: #000000; stroke-width: 2; stroke-linejoin: miter"/>
   </g>
   <g id="patch_3">
    <path d="M 96.552 130.705 
C 100.609607 130.705 104.501572 129.092895 107.370734 126.223734 
C 110.239895 123.354572 111.852 119.462607 111.852 115.405 
C 111.852 111.347393 110.239895 107.455428 107.370734 104.586266 
C 104.501572 101.717105 100.609607 100.105 96.552 100.105 
C 92.494393 100.105 88.602428 101.717105 85.733266 104.586266 
C 82.864105 107.455428 81.252 111.347393 81.252 115.405 
C 81.252 119.462607 82.864105 123.354572 85.733266 126.223734 
C 88.602428 129.092895 92.494393 130.705 96.552 130.705 
L 96.552 130.705 
z
" clip-path="url(#pa695c39ea7)" style="fill: none; stroke: #000000; stroke-width: 2; stroke-linejoin: miter"/>
   </g>
   <g id="line2d_1">
    <path d="M 253.377 134.53 
L 253.377 172.78 
L 319.627943 134.53 
L 253.377 96.28 
L 253.377 134.53 
M 319.627943 134.53 
" clip-path="url(#pa695c39ea7)" style="fill: none; stroke: #000000; stroke-width: 2; stroke-linecap: round"/>
   </g>
   <g id="line2d_2">
    <path d="M 258.598368 153.655 
L 264.718368 153.655 
" clip-path="url(#pa695c39ea7)" style="fill: none; stroke: #000000; stroke-width: 2; stroke-linecap: round"/>
   </g>
   <g id="line2d_3">
    <path d="M 258.598368 115.405 
L 264.718368 115.405 
" clip-path="url(#pa695c39ea7)" style="fill: none; stroke: #000000; stroke-width: 2; stroke-linecap: round"/>
   </g>
   <g id="line2d_4">
    <path d="M 261.658368 112.345 
L 261.658368 118.465 
" clip-path="url(#pa695c39ea7)" style="fill: none; stroke: #000000; stroke-width: 2; stroke-linecap: round"/>
   </g>
   <g id="line2d_5">
    <path d="M 234.252 153.655 
L 253.377 153.655 
" clip-path="url(#pa695c39ea7)" style="fill: none; stroke: #000000; stroke-width: 2; stroke-linecap: round"/>
   </g>
   <g id="line2d_6">
    <path d="M 234.252 115.405 
L 253.377 115.405 
" clip-path="url(#pa695c39ea7)" style="fill: none; stroke: #000000; stroke-width: 2; stroke-linecap: round"/>
   </g>
   <g id="line2d_7">
    <path d="M 319.627943 134.53 
L 338.752943 134.53 
" clip-path="url(#pa695c39ea7)" style="fill: none; stroke: #000000; stroke-width: 2; stroke-linecap: round"/>
   </g>
   <g id="line2d_8">
    <path d="M 234.252 115.405 
L 203.652 115.405 
L 201.102 123.055 
L 196.002 107.755 
L 190.902 123.055 
L 185.802 107.755 
L 180.702 123.055 
L 175.602 107.755 
L 173.052 115.405 
L 142.452 115.405 
" clip-path="url(#pa695c39ea7)" style="fill: none; stroke: #000000; stroke-width: 2; stroke-linecap: round"/>
   </g>
   <g id="line2d_9">
    <path d="M 142.452 115.405 
L 142.452 146.005 
L 150.102 148.555 
L 134.802 153.655 
L 150.102 158.755 
L 134.802 163.855 
L 150.102 168.955 
L 134.802 174.055 
L 142.452 176.605 
L 142.452 207.205 
" clip-path="url(#pa695c39ea7)" style="fill: none; stroke: #000000; stroke-width: 2; stroke-linecap: round"/>
   </g>
   <g id="line2d_10">
    <path d="M 142.452 115.405 
L 111.852 115.405 
L 111.852 115.405 
M 81.252 115.405 
L 81.252 115.405 
L 50.652 115.405 
" clip-path="url(#pa695c39ea7)" style="fill: none; stroke: #000000; stroke-width: 2; stroke-linecap: round"/>
   </g>
   <g id="line2d_11">
    <path d="M 104.202 112.345 
L 104.202 118.465 
" clip-path="url(#pa695c39ea7)" style="fill: none; stroke: #000000; stroke-width: 2; stroke-linecap: round"/>
   </g>
   <g id="line2d_12">
    <path d="M 91.962 115.405 
L 85.842 115.405 
" clip-path="url(#pa695c39ea7)" style="fill: none; stroke: #000000; stroke-width: 2; stroke-linecap: round"/>
   </g>
   <g id="line2d_13">
    <path d="M 88.902 112.345 
L 88.902 118.465 
" clip-path="url(#pa695c39ea7)" style="fill: none; stroke: #000000; stroke-width: 2; stroke-linecap: round"/>
   </g>
   <g id="line2d_14">
    <path d="M 50.652 115.405 
L 50.652 146.005 
L 58.302 148.555 
L 43.002 153.655 
L 58.302 158.755 
L 43.002 163.855 
L 58.302 168.955 
L 43.002 174.055 
L 50.652 176.605 
L 50.652 207.205 
" clip-path="url(#pa695c39ea7)" style="fill: none; stroke: #000000; stroke-width: 2; stroke-linecap: round"/>
   </g>
   <g id="line2d_15">
    <path d="M 50.652 207.205 
L 218.952 207.205 
L 387.252 207.205 
" clip-path="url(#pa695c39ea7)" style="fill: none; stroke: #000000; stroke-width: 2; stroke-linecap: round"/>
   </g>
   <g id="line2d_16">
    <path d="M 387.252 207.205 
L 387.252 186.1675 
L 379.602 183.6175 
L 394.902 178.5175 
L 379.602 173.4175 
L 394.902 168.3175 
L 379.602 163.2175 
L 394.902 158.1175 
L 387.252 155.5675 
L 387.252 134.53 
" clip-path="url(#pa695c39ea7)" style="fill: none; stroke: #000000; stroke-width: 2; stroke-linecap: round"/>
   </g>
   <g id="line2d_17">
    <path d="M 387.252 134.53 
L 356.652 134.53 
L 326.052 134.53 
" clip-path="url(#pa695c39ea7)" style="fill: none; stroke: #000000; stroke-width: 2; stroke-linecap: round"/>
   </g>
   <g id="line2d_18">
    <path d="M 387.252 134.53 
L 387.252 88.63 
L 387.252 42.73 
" clip-path="url(#pa695c39ea7)" style="fill: none; stroke: #000000; stroke-width: 2; stroke-linecap: round"/>
   </g>
   <g id="line2d_19">
    <path d="M 387.252 42.73 
L 326.052 42.73 
L 323.502 50.38 
L 318.402 35.08 
L 313.302 50.38 
L 308.202 35.08 
L 303.102 50.38 
L 298.002 35.08 
L 295.452 42.73 
L 234.252 42.73 
" clip-path="url(#pa695c39ea7)" style="fill: none; stroke: #000000; stroke-width: 2; stroke-linecap: round"/>
   </g>
   <g id="line2d_20">
    <path d="M 234.252 42.73 
L 234.252 77.92 
L 234.252 113.11 
" clip-path="url(#pa695c39ea7)" style="fill: none; stroke: #000000; stroke-width: 2; stroke-linecap: round"/>
   </g>
   <g id="line2d_21">
    <path d="M 234.252 153.655 
L 234.252 180.43 
L 234.252 207.205 
" clip-path="url(#pa695c39ea7)" style="fill: none; stroke: #000000; stroke-width: 2; stroke-linecap: round"/>
   </g>
   <g id="line2d_22">
    <path d="M 253.377 134.53 
L 253.377 172.78 
L 319.627943 134.53 
L 253.377 96.28 
L 253.377 134.53 
M 319.627943 134.53 
" clip-path="url(#pa695c39ea7)" style="fill: none; stroke: #000000; stroke-width: 2; stroke-linecap: round"/>
   </g>
   <g id="line2d_23">
    <path d="M 258.598368 153.655 
L 264.718368 153.655 
" clip-path="url(#pa695c39ea7)" style="fill: none; stroke: #000000; stroke-width: 2; stroke-linecap: round"/>
   </g>
   <g id="line2d_24">
    <path d="M 258.598368 115.405 
L 264.718368 115.405 
" clip-path="url(#pa695c39ea7)" style="fill: none; stroke: #000000; stroke-width: 2; stroke-linecap: round"/>
   </g>
   <g id="line2d_25">
    <path d="M 261.658368 112.345 
L 261.658368 118.465 
" clip-path="url(#pa695c39ea7)" style="fill: none; stroke: #000000; stroke-width: 2; stroke-linecap: round"/>
   </g>
   <g id="line2d_26">
    <path d="M 234.252 153.655 
L 253.377 153.655 
" clip-path="url(#pa695c39ea7)" style="fill: none; stroke: #000000; stroke-width: 2; stroke-linecap: round"/>
   </g>
   <g id="line2d_27">
    <path d="M 234.252 115.405 
L 253.377 115.405 
" clip-path="url(#pa695c39ea7)" style="fill: none; stroke: #000000; stroke-width: 2; stroke-linecap: round"/>
   </g>
   <g id="line2d_28">
    <path d="M 319.627943 134.53 
L 338.752943 134.53 
" clip-path="url(#pa695c39ea7)" style="fill: none; stroke: #000000; stroke-width: 2; stroke-linecap: round"/>
   </g>
   <g id="line2d_29">
    <path d="M 234.252 115.405 
L 203.652 115.405 
L 201.102 123.055 
L 196.002 107.755 
L 190.902 123.055 
L 185.802 107.755 
L 180.702 123.055 
L 175.602 107.755 
L 173.052 115.405 
L 142.452 115.405 
" clip-path="url(#pa695c39ea7)" style="fill: none; stroke: #000000; stroke-width: 2; stroke-linecap: round"/>
   </g>
   <g id="line2d_30">
    <path d="M 142.452 115.405 
L 142.452 146.005 
L 150.102 148.555 
L 134.802 153.655 
L 150.102 158.755 
L 134.802 163.855 
L 150.102 168.955 
L 134.802 174.055 
L 142.452 176.605 
L 142.452 207.205 
" clip-path="url(#pa695c39ea7)" style="fill: none; stroke: #000000; stroke-width: 2; stroke-linecap: round"/>
   </g>
   <g id="line2d_31">
    <path d="M 142.452 115.405 
L 111.852 115.405 
L 111.852 115.405 
M 81.252 115.405 
L 81.252 115.405 
L 50.652 115.405 
" clip-path="url(#pa695c39ea7)" style="fill: none; stroke: #000000; stroke-width: 2; stroke-linecap: round"/>
   </g>
   <g id="line2d_32">
    <path d="M 104.202 112.345 
L 104.202 118.465 
" clip-path="url(#pa695c39ea7)" style="fill: none; stroke: #000000; stroke-width: 2; stroke-linecap: round"/>
   </g>
   <g id="line2d_33">
    <path d="M 91.962 115.405 
L 85.842 115.405 
" clip-path="url(#pa695c39ea7)" style="fill: none; stroke: #000000; stroke-width: 2; stroke-linecap: round"/>
   </g>
   <g id="line2d_34">
    <path d="M 88.902 112.345 
L 88.902 118.465 
" clip-path="url(#pa695c39ea7)" style="fill: none; stroke: #000000; stroke-width: 2; stroke-linecap: round"/>
   </g>
   <g id="line2d_35">
    <path d="M 50.652 115.405 
L 50.652 146.005 
L 58.302 148.555 
L 43.002 153.655 
L 58.302 158.755 
L 43.002 163.855 
L 58.302 168.955 
L 43.002 174.055 
L 50.652 176.605 
L 50.652 207.205 
" clip-path="url(#pa695c39ea7)" style="fill: none; stroke: #000000; stroke-width: 2; stroke-linecap: round"/>
   </g>
   <g id="line2d_36">
    <path d="M 50.652 207.205 
L 218.952 207.205 
L 387.252 207.205 
" clip-path="url(#pa695c39ea7)" style="fill: none; stroke: #000000; stroke-width: 2; stroke-linecap: round"/>
   </g>
   <g id="line2d_37">
    <path d="M 387.252 207.205 
L 387.252 186.1675 
L 379.602 183.6175 
L 394.902 178.5175 
L 379.602 173.4175 
L 394.902 168.3175 
L 379.602 163.2175 
L 394.902 158.1175 
L 387.252 155.5675 
L 387.252 134.53 
" clip-path="url(#pa695c39ea7)" style="fill: none; stroke: #000000; stroke-width: 2; stroke-linecap: round"/>
   </g>
   <g id="line2d_38">
    <path d="M 387.252 134.53 
L 356.652 134.53 
L 326.052 134.53 
" clip-path="url(#pa695c39ea7)" style="fill: none; stroke: #000000; stroke-width: 2; stroke-linecap: round"/>
   </g>
   <g id="line2d_39">
    <path d="M 387.252 134.53 
L 387.252 88.63 
L 387.252 42.73 
" clip-path="url(#pa695c39ea7)" style="fill: none; stroke: #000000; stroke-width: 2; stroke-linecap: round"/>
   </g>
   <g id="line2d_40">
    <path d="M 387.252 42.73 
L 326.052 42.73 
L 323.502 50.38 
L 318.402 35.08 
L 313.302 50.38 
L 308.202 35.08 
L 303.102 50.38 
L 298.002 35.08 
L 295.452 42.73 
L 234.252 42.73 
" clip-path="url(#pa695c39ea7)" style="fill: none; stroke: #000000; stroke-width: 2; stroke-linecap: round"/>
   </g>
   <g id="line2d_41">
    <path d="M 234.252 42.73 
L 234.252 77.92 
L 234.252 113.11 
" clip-path="url(#pa695c39ea7)" style="fill: none; stroke: #000000; stroke-width: 2; stroke-linecap: round"/>
   </g>
   <g id="line2d_42">
    <path d="M 234.252 153.655 
L 234.252 180.43 
L 234.252 207.205 
" clip-path="url(#pa695c39ea7)" style="fill: none; stroke: #000000; stroke-width: 2; stroke-linecap: round"/>
   </g>
   <g id="text_1">
    <g clip-path="url(#pa695c39ea7)">
     <!-- $18~\Omega$ -->
     <g transform="translate(175.9145 102.095391)scale(0.125 -0.125)">
      <defs>
       <path id="STIXGeneral-Regular-31" d="M 2522 0 
L 755 0 
L 755 96 
Q 1107 115 1235 227 
Q 1363 339 1363 608 
L 1363 3482 
Q 1363 3795 1171 3795 
Q 1082 3795 883 3718 
L 710 3654 
L 710 3744 
L 1856 4326 
L 1914 4307 
L 1914 486 
Q 1914 275 2042 185 
Q 2170 96 2522 96 
L 2522 0 
z
" transform="scale(0.015625)"/>
       <path id="STIXGeneral-Regular-38" d="M 2848 992 
Q 2848 499 2505 204 
Q 2163 -90 1587 -90 
Q 1050 -90 704 204 
Q 358 499 358 954 
Q 358 1293 524 1533 
Q 691 1773 1190 2125 
Q 710 2522 553 2765 
Q 397 3008 397 3328 
Q 397 3782 745 4054 
Q 1094 4326 1638 4326 
Q 2106 4326 2410 4060 
Q 2714 3795 2714 3411 
Q 2714 3059 2531 2848 
Q 2349 2637 1856 2374 
Q 2432 1990 2640 1689 
Q 2848 1389 2848 992 
z
M 2272 3411 
Q 2272 3744 2086 3945 
Q 1901 4147 1574 4147 
Q 1248 4147 1059 3977 
Q 870 3808 870 3513 
Q 870 3219 1059 2979 
Q 1248 2739 1670 2490 
Q 1997 2682 2134 2896 
Q 2272 3110 2272 3411 
z
M 1734 1741 
L 1357 1997 
Q 1075 1766 960 1545 
Q 845 1325 845 1011 
Q 845 576 1065 333 
Q 1286 90 1658 90 
Q 1971 90 2166 285 
Q 2362 480 2362 794 
Q 2362 1082 2214 1299 
Q 2067 1517 1734 1741 
z
" transform="scale(0.015625)"/>
       <path id="STIXGeneral-Regular-3a9" d="M 4576 0 
L 2746 0 
L 2790 1030 
Q 3187 1126 3440 1574 
Q 3693 2022 3693 2554 
Q 3693 3251 3344 3673 
Q 2995 4096 2380 4096 
Q 1766 4096 1417 3635 
Q 1069 3174 1069 2554 
Q 1069 2054 1315 1600 
Q 1562 1146 1965 1030 
L 2022 0 
L 186 0 
L 186 1094 
L 346 1094 
Q 352 806 438 707 
Q 525 608 742 608 
L 1709 608 
L 1696 845 
Q 1018 1037 678 1446 
Q 339 1856 339 2541 
Q 339 3238 899 3782 
Q 1459 4326 2380 4326 
Q 3302 4326 3862 3804 
Q 4422 3283 4422 2541 
Q 4422 1235 3046 845 
L 3034 608 
L 4019 608 
Q 4397 608 4416 1082 
L 4576 1082 
L 4576 0 
z
" transform="scale(0.015625)"/>
      </defs>
      <use xlink:href="#STIXGeneral-Regular-31" transform="translate(0 0.40625)"/>
      <use xlink:href="#STIXGeneral-Regular-38" transform="translate(49.999985 0.40625)"/>
      <use xlink:href="#STIXGeneral-Regular-3a9" transform="translate(124.066389 0.40625)"/>
     </g>
    </g>
   </g>
   <g id="text_2">
    <g clip-path="url(#pa695c39ea7)">
     <!-- $9~\Omega$ -->
     <g transform="translate(113.117 164.754219)scale(0.125 -0.125)">
      <defs>
       <path id="STIXGeneral-Regular-39" d="M 378 -141 
L 358 -13 
Q 1094 115 1603 608 
Q 2112 1101 2304 1882 
Q 1933 1517 1344 1517 
Q 826 1517 509 1875 
Q 192 2234 192 2816 
Q 192 3462 573 3894 
Q 954 4326 1523 4326 
Q 2131 4326 2528 3840 
Q 2938 3328 2938 2522 
Q 2938 1958 2742 1462 
Q 2547 966 2170 621 
Q 1773 262 1395 105 
Q 1018 -51 378 -141 
z
M 2317 2272 
L 2317 2522 
Q 2317 4147 1472 4147 
Q 1171 4147 1005 3930 
Q 909 3802 845 3546 
Q 781 3290 781 3034 
Q 781 2464 995 2128 
Q 1210 1792 1568 1792 
Q 1824 1792 2070 1917 
Q 2317 2042 2317 2272 
z
" transform="scale(0.015625)"/>
      </defs>
      <use xlink:href="#STIXGeneral-Regular-39" transform="translate(0 0.40625)"/>
      <use xlink:href="#STIXGeneral-Regular-3a9" transform="translate(74.066405 0.40625)"/>
     </g>
    </g>
   </g>
   <g id="text_3">
    <g clip-path="url(#pa695c39ea7)">
     <!-- $4~V$ -->
     <g transform="translate(88.052 94.445391)scale(0.125 -0.125)">
      <defs>
       <path id="STIXGeneral-Regular-34" d="M 3027 1069 
L 2368 1069 
L 2368 0 
L 1869 0 
L 1869 1069 
L 77 1069 
L 77 1478 
L 2086 4326 
L 2368 4326 
L 2368 1478 
L 3027 1478 
L 3027 1069 
z
M 1869 1478 
L 1869 3674 
L 333 1478 
L 1869 1478 
z
" transform="scale(0.015625)"/>
       <path id="STIXGeneral-Italic-56" d="M 4403 4179 
L 4403 4077 
Q 4198 4070 4045 3821 
L 1658 -115 
L 1536 -115 
L 1011 3104 
Q 902 3776 828 3910 
Q 755 4045 486 4077 
L 486 4179 
L 2022 4179 
L 2022 4077 
Q 1722 4045 1629 3981 
Q 1536 3917 1536 3750 
Q 1536 3686 1542 3654 
L 1958 819 
L 3302 3123 
Q 3616 3661 3616 3859 
Q 3616 4032 3219 4077 
L 3219 4179 
L 4403 4179 
z
" transform="scale(0.015625)"/>
      </defs>
      <use xlink:href="#STIXGeneral-Regular-34" transform="translate(0 0.40625)"/>
      <use xlink:href="#STIXGeneral-Italic-56" transform="translate(74.066405 0.40625)"/>
     </g>
    </g>
   </g>
   <g id="text_4">
    <g clip-path="url(#pa695c39ea7)">
     <!-- $6~\Omega$ -->
     <g transform="translate(21.317 164.754219)scale(0.125 -0.125)">
      <defs>
       <path id="STIXGeneral-Regular-36" d="M 2854 4378 
L 2867 4275 
Q 2112 4154 1606 3664 
Q 1101 3174 973 2451 
Q 1344 2739 1786 2739 
Q 2349 2739 2672 2380 
Q 2995 2022 2995 1402 
Q 2995 774 2669 378 
Q 2291 -90 1651 -90 
Q 870 -90 518 557 
Q 218 1107 218 1786 
Q 218 2835 915 3552 
Q 1312 3962 1731 4131 
Q 2150 4301 2854 4378 
z
M 2419 1203 
Q 2419 2445 1555 2445 
Q 1235 2445 1024 2275 
Q 813 2106 813 1702 
Q 813 954 1046 522 
Q 1280 90 1722 90 
Q 2061 90 2240 394 
Q 2419 698 2419 1203 
z
" transform="scale(0.015625)"/>
      </defs>
      <use xlink:href="#STIXGeneral-Regular-36" transform="translate(0 0.59375)"/>
      <use xlink:href="#STIXGeneral-Regular-3a9" transform="translate(74.066405 0.59375)"/>
     </g>
    </g>
   </g>
   <g id="text_5">
    <g clip-path="url(#pa695c39ea7)">
     <!-- $12~\Omega$ -->
     <g transform="translate(351.667 174.316719)scale(0.125 -0.125)">
      <defs>
       <path id="STIXGeneral-Regular-32" d="M 3034 877 
L 2688 0 
L 186 0 
L 186 77 
L 1325 1286 
Q 1773 1754 1965 2144 
Q 2157 2534 2157 2950 
Q 2157 3379 1920 3616 
Q 1683 3853 1267 3853 
Q 922 3853 720 3673 
Q 518 3494 326 3021 
L 192 3053 
Q 301 3648 630 3987 
Q 960 4326 1523 4326 
Q 2054 4326 2380 4006 
Q 2707 3686 2707 3200 
Q 2707 2477 1888 1613 
L 832 486 
L 2330 486 
Q 2541 486 2665 569 
Q 2790 653 2944 915 
L 3034 877 
z
" transform="scale(0.015625)"/>
      </defs>
      <use xlink:href="#STIXGeneral-Regular-31" transform="translate(0 0.40625)"/>
      <use xlink:href="#STIXGeneral-Regular-32" transform="translate(49.999985 0.40625)"/>
      <use xlink:href="#STIXGeneral-Regular-3a9" transform="translate(124.066389 0.40625)"/>
     </g>
    </g>
   </g>
   <g id="text_6">
    <g clip-path="url(#pa695c39ea7)">
     <!-- $72~\Omega$ -->
     <g transform="translate(298.3145 29.420391)scale(0.125 -0.125)">
      <defs>
       <path id="STIXGeneral-Regular-37" d="M 2874 4134 
L 1517 -51 
L 1101 -51 
L 2368 3763 
L 992 3763 
Q 717 3763 582 3667 
Q 448 3571 243 3238 
L 128 3296 
L 512 4237 
L 2874 4237 
L 2874 4134 
z
" transform="scale(0.015625)"/>
      </defs>
      <use xlink:href="#STIXGeneral-Regular-37" transform="translate(0 0.40625)"/>
      <use xlink:href="#STIXGeneral-Regular-32" transform="translate(49.999985 0.40625)"/>
      <use xlink:href="#STIXGeneral-Regular-3a9" transform="translate(124.066389 0.40625)"/>
     </g>
    </g>
   </g>
   <g id="text_7">
    <g clip-path="url(#pa695c39ea7)">
     <!-- $18~\Omega$ -->
     <g transform="translate(175.9145 102.095391)scale(0.125 -0.125)">
      <use xlink:href="#STIXGeneral-Regular-31" transform="translate(0 0.40625)"/>
      <use xlink:href="#STIXGeneral-Regular-38" transform="translate(49.999985 0.40625)"/>
      <use xlink:href="#STIXGeneral-Regular-3a9" transform="translate(124.066389 0.40625)"/>
     </g>
    </g>
   </g>
   <g id="text_8">
    <g clip-path="url(#pa695c39ea7)">
     <!-- $9~\Omega$ -->
     <g transform="translate(113.117 164.754219)scale(0.125 -0.125)">
      <use xlink:href="#STIXGeneral-Regular-39" transform="translate(0 0.40625)"/>
      <use xlink:href="#STIXGeneral-Regular-3a9" transform="translate(74.066405 0.40625)"/>
     </g>
    </g>
   </g>
   <g id="text_9">
    <g clip-path="url(#pa695c39ea7)">
     <!-- $4~V$ -->
     <g transform="translate(88.052 94.445391)scale(0.125 -0.125)">
      <use xlink:href="#STIXGeneral-Regular-34" transform="translate(0 0.40625)"/>
      <use xlink:href="#STIXGeneral-Italic-56" transform="translate(74.066405 0.40625)"/>
     </g>
    </g>
   </g>
   <g id="text_10">
    <g clip-path="url(#pa695c39ea7)">
     <!-- $6~\Omega$ -->
     <g transform="translate(21.317 164.754219)scale(0.125 -0.125)">
      <use xlink:href="#STIXGeneral-Regular-36" transform="translate(0 0.59375)"/>
      <use xlink:href="#STIXGeneral-Regular-3a9" transform="translate(74.066405 0.59375)"/>
     </g>
    </g>
   </g>
   <g id="text_11">
    <g clip-path="url(#pa695c39ea7)">
     <!-- $12~\Omega$ -->
     <g transform="translate(351.667 174.316719)scale(0.125 -0.125)">
      <use xlink:href="#STIXGeneral-Regular-31" transform="translate(0 0.40625)"/>
      <use xlink:href="#STIXGeneral-Regular-32" transform="translate(49.999985 0.40625)"/>
      <use xlink:href="#STIXGeneral-Regular-3a9" transform="translate(124.066389 0.40625)"/>
     </g>
    </g>
   </g>
   <g id="text_12">
    <g clip-path="url(#pa695c39ea7)">
     <!-- $72~\Omega$ -->
     <g transform="translate(298.3145 29.420391)scale(0.125 -0.125)">
      <use xlink:href="#STIXGeneral-Regular-37" transform="translate(0 0.40625)"/>
      <use xlink:href="#STIXGeneral-Regular-32" transform="translate(49.999985 0.40625)"/>
      <use xlink:href="#STIXGeneral-Regular-3a9" transform="translate(124.066389 0.40625)"/>
     </g>
    </g>
   </g>
   <g id="line2d_43">
    <path d="M 352.522943 134.53 
L 352.522943 134.53 
" clip-path="url(#pa695c39ea7)" style="fill: none; stroke: #000000; stroke-width: 2; stroke-linecap: round"/>
   </g>
   <g id="patch_4">
    <path d="M 352.522943 129.94 
L 361.702943 134.53 
L 352.522943 139.12 
z
" clip-path="url(#pa695c39ea7)"/>
   </g>
   <g id="text_13">
    <g clip-path="url(#pa695c39ea7)">
     <!-- $I_O$ -->
     <g transform="translate(351.550443 122.750391)scale(0.125 -0.125)">
      <defs>
       <path id="STIXGeneral-Italic-49" d="M 2458 4179 
L 2458 4077 
Q 2189 4045 2102 3961 
Q 2016 3878 1933 3584 
L 1165 838 
Q 1069 499 1069 352 
Q 1069 224 1149 179 
Q 1229 134 1510 102 
L 1510 0 
L -51 0 
L -51 102 
Q 218 154 317 237 
Q 416 320 486 582 
L 1254 3405 
Q 1338 3699 1338 3802 
Q 1338 3930 1235 3997 
Q 1133 4064 877 4077 
L 877 4179 
L 2458 4179 
z
" transform="scale(0.015625)"/>
       <path id="STIXGeneral-Italic-4f" d="M 4474 2675 
Q 4474 1990 4106 1363 
Q 3738 736 3149 339 
Q 2477 -115 1779 -115 
Q 1146 -115 765 281 
Q 384 678 384 1382 
Q 384 1965 697 2582 
Q 1011 3200 1517 3642 
Q 2234 4262 3034 4262 
Q 3718 4269 4096 3840 
Q 4474 3411 4474 2675 
z
M 3802 3078 
Q 3802 3533 3581 3792 
Q 3360 4051 2976 4051 
Q 2342 4051 1786 3302 
Q 1446 2842 1251 2259 
Q 1056 1677 1056 1178 
Q 1056 653 1270 374 
Q 1485 96 1888 96 
Q 2477 96 2976 704 
Q 3354 1178 3578 1862 
Q 3802 2547 3802 3078 
z
" transform="scale(0.015625)"/>
      </defs>
      <use xlink:href="#STIXGeneral-Italic-49" transform="translate(0 0.703125)"/>
      <use xlink:href="#STIXGeneral-Italic-4f" transform="translate(33.299988 -12.525)scale(0.7)"/>
     </g>
    </g>
   </g>
   <g id="line2d_44">
    <path d="M 352.522943 134.53 
L 352.522943 134.53 
" clip-path="url(#pa695c39ea7)" style="fill: none; stroke: #000000; stroke-width: 2; stroke-linecap: round"/>
   </g>
   <g id="patch_5">
    <path d="M 352.522943 129.94 
L 361.702943 134.53 
L 352.522943 139.12 
z
" clip-path="url(#pa695c39ea7)"/>
   </g>
   <g id="text_14">
    <g clip-path="url(#pa695c39ea7)">
     <!-- $I_O$ -->
     <g transform="translate(351.550443 122.750391)scale(0.125 -0.125)">
      <use xlink:href="#STIXGeneral-Italic-49" transform="translate(0 0.703125)"/>
      <use xlink:href="#STIXGeneral-Italic-4f" transform="translate(33.299988 -12.525)scale(0.7)"/>
     </g>
    </g>
   </g>
  </g>
 </g>
 <defs>
  <clipPath id="pa695c39ea7">
   <rect x="7.2" y="7.2" width="390.762" height="203.065"/>
  </clipPath>
 </defs>
</svg>
