<?xml version="1.0" encoding="utf-8" standalone="no"?>
<!DOCTYPE svg PUBLIC "-//W3C//DTD SVG 1.1//EN"
  "http://www.w3.org/Graphics/SVG/1.1/DTD/svg11.dtd">
<svg xmlns:xlink="http://www.w3.org/1999/xlink" width="322.3176pt" height="178.96pt" viewBox="0 0 322.3176 178.96" xmlns="http://www.w3.org/2000/svg" version="1.1">
 <metadata>
  <rdf:RDF xmlns:dc="http://purl.org/dc/elements/1.1/" xmlns:cc="http://creativecommons.org/ns#" xmlns:rdf="http://www.w3.org/1999/02/22-rdf-syntax-ns#">
   <cc:Work>
    <dc:type rdf:resource="http://purl.org/dc/dcmitype/StillImage"/>
    <dc:date>2023-03-02T15:59:50.233768</dc:date>
    <dc:format>image/svg+xml</dc:format>
    <dc:creator>
     <cc:Agent>
      <dc:title>Matplotlib v3.5.2, https://matplotlib.org/</dc:title>
     </cc:Agent>
    </dc:creator>
   </cc:Work>
  </rdf:RDF>
 </metadata>
 <defs>
  <style type="text/css">*{stroke-linejoin: round; stroke-linecap: butt}</style>
 </defs>
 <g id="figure_1">
  <g id="patch_1">
   <path d="M 0 178.96 
L 322.3176 178.96 
L 322.3176 0 
L 0 0 
L 0 178.96 
z
" style="fill: none"/>
  </g>
  <g id="axes_1">
   <g id="patch_2">
    <path d="M 66.2988 118.21 
C 70.356407 118.21 74.248372 116.597895 77.117534 113.728734 
C 79.986695 110.859572 81.5988 106.967607 81.5988 102.91 
C 81.5988 98.852393 79.986695 94.960428 77.117534 92.091266 
C 74.248372 89.222105 70.356407 87.61 66.2988 87.61 
C 62.241193 87.61 58.349228 89.222105 55.480066 92.091266 
C 52.610905 94.960428 50.9988 98.852393 50.9988 102.91 
C 50.9988 106.967607 52.610905 110.859572 55.480066 113.728734 
C 58.349228 116.597895 62.241193 118.21 66.2988 118.21 
L 66.2988 118.21 
z
" clip-path="url(#pabc787dabc)" style="fill: none; stroke: #000000; stroke-width: 2; stroke-linejoin: miter"/>
   </g>
   <g id="patch_3">
    <path d="M 249.8988 118.21 
C 253.956407 118.21 257.848372 116.597895 260.717534 113.728734 
C 263.586695 110.859572 265.1988 106.967607 265.1988 102.91 
C 265.1988 98.852393 263.586695 94.960428 260.717534 92.091266 
C 257.848372 89.222105 253.956407 87.61 249.8988 87.61 
C 245.841193 87.61 241.949228 89.222105 239.080066 92.091266 
C 236.210905 94.960428 234.5988 98.852393 234.5988 102.91 
C 234.5988 106.967607 236.210905 110.859572 239.080066 113.728734 
C 241.949228 116.597895 245.841193 118.21 249.8988 118.21 
L 249.8988 118.21 
z
" clip-path="url(#pabc787dabc)" style="fill: none; stroke: #000000; stroke-width: 2; stroke-linejoin: miter"/>
   </g>
   <g id="patch_4">
    <path d="M 66.2988 118.21 
C 70.356407 118.21 74.248372 116.597895 77.117534 113.728734 
C 79.986695 110.859572 81.5988 106.967607 81.5988 102.91 
C 81.5988 98.852393 79.986695 94.960428 77.117534 92.091266 
C 74.248372 89.222105 70.356407 87.61 66.2988 87.61 
C 62.241193 87.61 58.349228 89.222105 55.480066 92.091266 
C 52.610905 94.960428 50.9988 98.852393 50.9988 102.91 
C 50.9988 106.967607 52.610905 110.859572 55.480066 113.728734 
C 58.349228 116.597895 62.241193 118.21 66.2988 118.21 
L 66.2988 118.21 
z
" clip-path="url(#pabc787dabc)" style="fill: none; stroke: #000000; stroke-width: 2; stroke-linejoin: miter"/>
   </g>
   <g id="patch_5">
    <path d="M 249.8988 118.21 
C 253.956407 118.21 257.848372 116.597895 260.717534 113.728734 
C 263.586695 110.859572 265.1988 106.967607 265.1988 102.91 
C 265.1988 98.852393 263.586695 94.960428 260.717534 92.091266 
C 257.848372 89.222105 253.956407 87.61 249.8988 87.61 
C 245.841193 87.61 241.949228 89.222105 239.080066 92.091266 
C 236.210905 94.960428 234.5988 98.852393 234.5988 102.91 
C 234.5988 106.967607 236.210905 110.859572 239.080066 113.728734 
C 241.949228 116.597895 245.841193 118.21 249.8988 118.21 
L 249.8988 118.21 
z
" clip-path="url(#pabc787dabc)" style="fill: none; stroke: #000000; stroke-width: 2; stroke-linejoin: miter"/>
   </g>
   <g id="line2d_1">
    <path d="M 66.2988 148.81 
L 66.2988 161.05 
L 58.6488 161.05 
L 66.2988 168.7 
L 73.9488 161.05 
L 66.2988 161.05 
" clip-path="url(#pabc787dabc)" style="fill: none; stroke: #000000; stroke-width: 2; stroke-linecap: round"/>
   </g>
   <g id="line2d_2">
    <path d="M 66.2988 148.81 
L 66.2988 118.21 
L 66.2988 118.21 
M 66.2988 87.61 
L 66.2988 87.61 
L 66.2988 57.01 
" clip-path="url(#pabc787dabc)" style="fill: none; stroke: #000000; stroke-width: 2; stroke-linecap: round"/>
   </g>
   <g id="line2d_3">
    <path d="M 66.2988 110.56 
L 66.2988 102.91 
" clip-path="url(#pabc787dabc)" style="fill: none; stroke: #000000; stroke-width: 2; stroke-linecap: round"/>
   </g>
   <g id="patch_6">
    <path d="M 64.0038 102.91 
L 66.2988 95.26 
L 68.5938 102.91 
z
" clip-path="url(#pabc787dabc)"/>
   </g>
   <g id="line2d_4">
    <path d="M 66.2988 57.01 
L 96.8988 57.01 
L 99.4488 49.36 
L 104.5488 64.66 
L 109.6488 49.36 
L 114.7488 64.66 
L 119.8488 49.36 
L 124.9488 64.66 
L 127.4988 57.01 
L 158.0988 57.01 
" clip-path="url(#pabc787dabc)" style="fill: none; stroke: #000000; stroke-width: 2; stroke-linecap: round"/>
   </g>
   <g id="line2d_5">
    <path d="M 158.0988 57.01 
L 158.0988 87.61 
L 165.7488 90.16 
L 150.4488 95.26 
L 165.7488 100.36 
L 150.4488 105.46 
L 165.7488 110.56 
L 150.4488 115.66 
L 158.0988 118.21 
L 158.0988 148.81 
" clip-path="url(#pabc787dabc)" style="fill: none; stroke: #000000; stroke-width: 2; stroke-linecap: round"/>
   </g>
   <g id="line2d_6">
    <path d="M 158.0988 57.01 
L 188.6988 57.01 
L 191.2488 49.36 
L 196.3488 64.66 
L 201.4488 49.36 
L 206.5488 64.66 
L 211.6488 49.36 
L 216.7488 64.66 
L 219.2988 57.01 
L 249.8988 57.01 
" clip-path="url(#pabc787dabc)" style="fill: none; stroke: #000000; stroke-width: 2; stroke-linecap: round"/>
   </g>
   <g id="line2d_7">
    <path d="M 249.8988 57.01 
L 249.8988 87.61 
L 249.8988 87.61 
M 249.8988 118.21 
L 249.8988 118.21 
L 249.8988 148.81 
" clip-path="url(#pabc787dabc)" style="fill: none; stroke: #000000; stroke-width: 2; stroke-linecap: round"/>
   </g>
   <g id="line2d_8">
    <path d="M 249.8988 95.26 
L 249.8988 102.91 
" clip-path="url(#pabc787dabc)" style="fill: none; stroke: #000000; stroke-width: 2; stroke-linecap: round"/>
   </g>
   <g id="patch_7">
    <path d="M 252.1938 102.91 
L 249.8988 110.56 
L 247.6038 102.91 
z
" clip-path="url(#pabc787dabc)"/>
   </g>
   <g id="line2d_9">
    <path d="M 249.8988 148.81 
L 158.0988 148.81 
L 66.2988 148.81 
" clip-path="url(#pabc787dabc)" style="fill: none; stroke: #000000; stroke-width: 2; stroke-linecap: round"/>
   </g>
   <g id="line2d_10">
    <path d="M 96.8988 72.31 
L 112.1988 72.31 
L 119.8488 72.31 
" clip-path="url(#pabc787dabc)" style="fill: none; stroke: #0000ff; stroke-width: 2; stroke-linecap: round"/>
   </g>
   <g id="patch_8">
    <path d="M 119.8488 70.015 
L 127.4988 72.31 
L 119.8488 74.605 
z
" clip-path="url(#pabc787dabc)" style="fill: #0000ff"/>
   </g>
   <g id="line2d_11">
    <path d="M 173.3988 87.61 
L 173.3988 102.91 
L 173.3988 110.56 
" clip-path="url(#pabc787dabc)" style="fill: none; stroke: #0000ff; stroke-width: 2; stroke-linecap: round"/>
   </g>
   <g id="patch_9">
    <path d="M 175.6938 110.56 
L 173.3988 118.21 
L 171.1038 110.56 
z
" clip-path="url(#pabc787dabc)" style="fill: #0000ff"/>
   </g>
   <g id="line2d_12">
    <path d="M 188.6988 87.61 
L 203.9988 87.61 
L 211.6488 87.61 
" clip-path="url(#pabc787dabc)" style="fill: none; stroke: #0000ff; stroke-width: 2; stroke-linecap: round"/>
   </g>
   <g id="patch_10">
    <path d="M 211.6488 85.315 
L 219.2988 87.61 
L 211.6488 89.905 
z
" clip-path="url(#pabc787dabc)" style="fill: #0000ff"/>
   </g>
   <g id="line2d_13">
    <path d="M 66.2988 148.81 
L 66.2988 161.05 
L 58.6488 161.05 
L 66.2988 168.7 
L 73.9488 161.05 
L 66.2988 161.05 
" clip-path="url(#pabc787dabc)" style="fill: none; stroke: #000000; stroke-width: 2; stroke-linecap: round"/>
   </g>
   <g id="line2d_14">
    <path d="M 66.2988 148.81 
L 66.2988 118.21 
L 66.2988 118.21 
M 66.2988 87.61 
L 66.2988 87.61 
L 66.2988 57.01 
" clip-path="url(#pabc787dabc)" style="fill: none; stroke: #000000; stroke-width: 2; stroke-linecap: round"/>
   </g>
   <g id="line2d_15">
    <path d="M 66.2988 110.56 
L 66.2988 102.91 
" clip-path="url(#pabc787dabc)" style="fill: none; stroke: #000000; stroke-width: 2; stroke-linecap: round"/>
   </g>
   <g id="patch_11">
    <path d="M 64.0038 102.91 
L 66.2988 95.26 
L 68.5938 102.91 
z
" clip-path="url(#pabc787dabc)"/>
   </g>
   <g id="line2d_16">
    <path d="M 66.2988 57.01 
L 96.8988 57.01 
L 99.4488 49.36 
L 104.5488 64.66 
L 109.6488 49.36 
L 114.7488 64.66 
L 119.8488 49.36 
L 124.9488 64.66 
L 127.4988 57.01 
L 158.0988 57.01 
" clip-path="url(#pabc787dabc)" style="fill: none; stroke: #000000; stroke-width: 2; stroke-linecap: round"/>
   </g>
   <g id="line2d_17">
    <path d="M 158.0988 57.01 
L 158.0988 87.61 
L 165.7488 90.16 
L 150.4488 95.26 
L 165.7488 100.36 
L 150.4488 105.46 
L 165.7488 110.56 
L 150.4488 115.66 
L 158.0988 118.21 
L 158.0988 148.81 
" clip-path="url(#pabc787dabc)" style="fill: none; stroke: #000000; stroke-width: 2; stroke-linecap: round"/>
   </g>
   <g id="line2d_18">
    <path d="M 158.0988 57.01 
L 188.6988 57.01 
L 191.2488 49.36 
L 196.3488 64.66 
L 201.4488 49.36 
L 206.5488 64.66 
L 211.6488 49.36 
L 216.7488 64.66 
L 219.2988 57.01 
L 249.8988 57.01 
" clip-path="url(#pabc787dabc)" style="fill: none; stroke: #000000; stroke-width: 2; stroke-linecap: round"/>
   </g>
   <g id="line2d_19">
    <path d="M 249.8988 57.01 
L 249.8988 87.61 
L 249.8988 87.61 
M 249.8988 118.21 
L 249.8988 118.21 
L 249.8988 148.81 
" clip-path="url(#pabc787dabc)" style="fill: none; stroke: #000000; stroke-width: 2; stroke-linecap: round"/>
   </g>
   <g id="line2d_20">
    <path d="M 249.8988 95.26 
L 249.8988 102.91 
" clip-path="url(#pabc787dabc)" style="fill: none; stroke: #000000; stroke-width: 2; stroke-linecap: round"/>
   </g>
   <g id="patch_12">
    <path d="M 252.1938 102.91 
L 249.8988 110.56 
L 247.6038 102.91 
z
" clip-path="url(#pabc787dabc)"/>
   </g>
   <g id="line2d_21">
    <path d="M 249.8988 148.81 
L 158.0988 148.81 
L 66.2988 148.81 
" clip-path="url(#pabc787dabc)" style="fill: none; stroke: #000000; stroke-width: 2; stroke-linecap: round"/>
   </g>
   <g id="line2d_22">
    <path d="M 96.8988 72.31 
L 112.1988 72.31 
L 119.8488 72.31 
" clip-path="url(#pabc787dabc)" style="fill: none; stroke: #0000ff; stroke-width: 2; stroke-linecap: round"/>
   </g>
   <g id="patch_13">
    <path d="M 119.8488 70.015 
L 127.4988 72.31 
L 119.8488 74.605 
z
" clip-path="url(#pabc787dabc)" style="fill: #0000ff"/>
   </g>
   <g id="line2d_23">
    <path d="M 173.3988 87.61 
L 173.3988 102.91 
L 173.3988 110.56 
" clip-path="url(#pabc787dabc)" style="fill: none; stroke: #0000ff; stroke-width: 2; stroke-linecap: round"/>
   </g>
   <g id="patch_14">
    <path d="M 175.6938 110.56 
L 173.3988 118.21 
L 171.1038 110.56 
z
" clip-path="url(#pabc787dabc)" style="fill: #0000ff"/>
   </g>
   <g id="line2d_24">
    <path d="M 188.6988 87.61 
L 203.9988 87.61 
L 211.6488 87.61 
" clip-path="url(#pabc787dabc)" style="fill: none; stroke: #0000ff; stroke-width: 2; stroke-linecap: round"/>
   </g>
   <g id="patch_15">
    <path d="M 211.6488 85.315 
L 219.2988 87.61 
L 211.6488 89.905 
z
" clip-path="url(#pabc787dabc)" style="fill: #0000ff"/>
   </g>
   <g id="text_1">
    <g clip-path="url(#pabc787dabc)">
     <!-- $2~$mA -->
     <g transform="translate(17.9388 121.659219)scale(0.125 -0.125)">
      <defs>
       <path id="STIXGeneral-Regular-32" d="M 3034 877 
L 2688 0 
L 186 0 
L 186 77 
L 1325 1286 
Q 1773 1754 1965 2144 
Q 2157 2534 2157 2950 
Q 2157 3379 1920 3616 
Q 1683 3853 1267 3853 
Q 922 3853 720 3673 
Q 518 3494 326 3021 
L 192 3053 
Q 301 3648 630 3987 
Q 960 4326 1523 4326 
Q 2054 4326 2380 4006 
Q 2707 3686 2707 3200 
Q 2707 2477 1888 1613 
L 832 486 
L 2330 486 
Q 2541 486 2665 569 
Q 2790 653 2944 915 
L 3034 877 
z
" transform="scale(0.015625)"/>
       <path id="DejaVuSans-6d" d="M 3328 2828 
Q 3544 3216 3844 3400 
Q 4144 3584 4550 3584 
Q 5097 3584 5394 3201 
Q 5691 2819 5691 2113 
L 5691 0 
L 5113 0 
L 5113 2094 
Q 5113 2597 4934 2840 
Q 4756 3084 4391 3084 
Q 3944 3084 3684 2787 
Q 3425 2491 3425 1978 
L 3425 0 
L 2847 0 
L 2847 2094 
Q 2847 2600 2669 2842 
Q 2491 3084 2119 3084 
Q 1678 3084 1418 2786 
Q 1159 2488 1159 1978 
L 1159 0 
L 581 0 
L 581 3500 
L 1159 3500 
L 1159 2956 
Q 1356 3278 1631 3431 
Q 1906 3584 2284 3584 
Q 2666 3584 2933 3390 
Q 3200 3197 3328 2828 
z
" transform="scale(0.015625)"/>
       <path id="DejaVuSans-41" d="M 2188 4044 
L 1331 1722 
L 3047 1722 
L 2188 4044 
z
M 1831 4666 
L 2547 4666 
L 4325 0 
L 3669 0 
L 3244 1197 
L 1141 1197 
L 716 0 
L 50 0 
L 1831 4666 
z
" transform="scale(0.015625)"/>
      </defs>
      <use xlink:href="#STIXGeneral-Regular-32" transform="translate(0 0.09375)"/>
      <use xlink:href="#DejaVuSans-6d" transform="translate(74.066405 0.09375)"/>
      <use xlink:href="#DejaVuSans-41" transform="translate(171.478514 0.09375)"/>
     </g>
    </g>
   </g>
   <g id="text_2">
    <g clip-path="url(#pabc787dabc)">
     <!-- $I_{S1}$ -->
     <g transform="translate(34.4388 91.059219)scale(0.125 -0.125)">
      <defs>
       <path id="STIXGeneral-Italic-49" d="M 2458 4179 
L 2458 4077 
Q 2189 4045 2102 3961 
Q 2016 3878 1933 3584 
L 1165 838 
Q 1069 499 1069 352 
Q 1069 224 1149 179 
Q 1229 134 1510 102 
L 1510 0 
L -51 0 
L -51 102 
Q 218 154 317 237 
Q 416 320 486 582 
L 1254 3405 
Q 1338 3699 1338 3802 
Q 1338 3930 1235 3997 
Q 1133 4064 877 4077 
L 877 4179 
L 2458 4179 
z
" transform="scale(0.015625)"/>
       <path id="STIXGeneral-Italic-53" d="M 3251 4269 
L 2995 2989 
L 2880 3008 
Q 2880 3539 2720 3795 
Q 2560 4051 2118 4051 
Q 1786 4051 1594 3881 
Q 1402 3712 1402 3411 
Q 1402 3168 1504 3005 
Q 1606 2842 2035 2413 
Q 2464 1978 2611 1715 
Q 2758 1453 2758 1133 
Q 2758 589 2390 237 
Q 2022 -115 1466 -115 
Q 1222 -115 800 32 
Q 595 109 499 109 
Q 288 109 224 -96 
L 109 -96 
L 326 1338 
L 454 1325 
Q 442 1267 442 1178 
Q 442 710 701 409 
Q 960 109 1363 109 
Q 1734 109 1968 336 
Q 2202 563 2202 928 
Q 2202 1139 2118 1308 
Q 2035 1478 1818 1715 
L 1568 1984 
Q 1549 2003 1459 2102 
Q 1370 2202 1318 2253 
Q 1030 2560 934 2755 
Q 838 2950 838 3213 
Q 838 3699 1168 3980 
Q 1498 4262 1978 4262 
Q 2310 4262 2522 4173 
Q 2707 4102 2816 4102 
Q 2925 4102 2982 4134 
Q 3040 4166 3104 4269 
L 3251 4269 
z
" transform="scale(0.015625)"/>
       <path id="STIXGeneral-Regular-31" d="M 2522 0 
L 755 0 
L 755 96 
Q 1107 115 1235 227 
Q 1363 339 1363 608 
L 1363 3482 
Q 1363 3795 1171 3795 
Q 1082 3795 883 3718 
L 710 3654 
L 710 3744 
L 1856 4326 
L 1914 4307 
L 1914 486 
Q 1914 275 2042 185 
Q 2170 96 2522 96 
L 2522 0 
z
" transform="scale(0.015625)"/>
      </defs>
      <use xlink:href="#STIXGeneral-Italic-49" transform="translate(0 0.703125)"/>
      <use xlink:href="#STIXGeneral-Italic-53" transform="translate(33.299988 -12.525)scale(0.7)"/>
      <use xlink:href="#STIXGeneral-Regular-31" transform="translate(68.299977 -12.525)scale(0.7)"/>
     </g>
    </g>
   </g>
   <g id="text_3">
    <g clip-path="url(#pabc787dabc)">
     <!-- A -->
     <g transform="translate(62.023409 51.350391)scale(0.125 -0.125)">
      <use xlink:href="#DejaVuSans-41"/>
     </g>
    </g>
   </g>
   <g id="text_4">
    <g clip-path="url(#pabc787dabc)">
     <!-- $R_1$ -->
     <g transform="translate(105.8863 29.703125)scale(0.125 -0.125)">
      <defs>
       <path id="STIXGeneral-Italic-52" d="M 845 4179 
L 2458 4179 
Q 3078 4179 3420 3936 
Q 3763 3693 3763 3277 
Q 3763 2778 3341 2458 
Q 3091 2266 2502 2131 
L 3072 627 
Q 3181 333 3299 217 
Q 3418 102 3629 102 
L 3629 0 
L 2688 0 
L 1901 2074 
L 1478 2106 
L 1126 806 
Q 1043 512 1043 403 
Q 1043 256 1126 192 
Q 1210 128 1472 102 
L 1472 0 
L -83 0 
L -83 102 
Q 173 134 278 243 
Q 384 352 461 646 
L 1222 3405 
Q 1299 3699 1299 3808 
Q 1299 3923 1210 3987 
Q 1133 4038 845 4077 
L 845 4179 
z
M 1958 3795 
L 1555 2342 
Q 1754 2310 1882 2310 
Q 2451 2310 2771 2566 
Q 3091 2822 3091 3270 
Q 3091 3603 2892 3795 
Q 2694 3987 2323 3987 
Q 2010 3987 1958 3795 
z
" transform="scale(0.015625)"/>
      </defs>
      <use xlink:href="#STIXGeneral-Italic-52" transform="translate(0 0.703125)"/>
      <use xlink:href="#STIXGeneral-Regular-31" transform="translate(61.099991 -12.525)scale(0.7)"/>
     </g>
    </g>
    <g clip-path="url(#pabc787dabc)">
     <!-- 4k$\Omega$ -->
     <g transform="translate(99.9488 43.700391)scale(0.125 -0.125)">
      <defs>
       <path id="DejaVuSans-34" d="M 2419 4116 
L 825 1625 
L 2419 1625 
L 2419 4116 
z
M 2253 4666 
L 3047 4666 
L 3047 1625 
L 3713 1625 
L 3713 1100 
L 3047 1100 
L 3047 0 
L 2419 0 
L 2419 1100 
L 313 1100 
L 313 1709 
L 2253 4666 
z
" transform="scale(0.015625)"/>
       <path id="DejaVuSans-6b" d="M 581 4863 
L 1159 4863 
L 1159 1991 
L 2875 3500 
L 3609 3500 
L 1753 1863 
L 3688 0 
L 2938 0 
L 1159 1709 
L 1159 0 
L 581 0 
L 581 4863 
z
" transform="scale(0.015625)"/>
       <path id="STIXGeneral-Regular-3a9" d="M 4576 0 
L 2746 0 
L 2790 1030 
Q 3187 1126 3440 1574 
Q 3693 2022 3693 2554 
Q 3693 3251 3344 3673 
Q 2995 4096 2380 4096 
Q 1766 4096 1417 3635 
Q 1069 3174 1069 2554 
Q 1069 2054 1315 1600 
Q 1562 1146 1965 1030 
L 2022 0 
L 186 0 
L 186 1094 
L 346 1094 
Q 352 806 438 707 
Q 525 608 742 608 
L 1709 608 
L 1696 845 
Q 1018 1037 678 1446 
Q 339 1856 339 2541 
Q 339 3238 899 3782 
Q 1459 4326 2380 4326 
Q 3302 4326 3862 3804 
Q 4422 3283 4422 2541 
Q 4422 1235 3046 845 
L 3034 608 
L 4019 608 
Q 4397 608 4416 1082 
L 4576 1082 
L 4576 0 
z
" transform="scale(0.015625)"/>
      </defs>
      <use xlink:href="#DejaVuSans-34" transform="translate(0 0.015625)"/>
      <use xlink:href="#DejaVuSans-6b" transform="translate(63.623047 0.015625)"/>
      <use xlink:href="#STIXGeneral-Regular-3a9" transform="translate(121.533203 0.015625)"/>
     </g>
    </g>
   </g>
   <g id="text_5">
    <g clip-path="url(#pabc787dabc)">
     <!-- B -->
     <g transform="translate(158.0988 52.809219)scale(0.125 -0.125)">
      <defs>
       <path id="DejaVuSans-42" d="M 1259 2228 
L 1259 519 
L 2272 519 
Q 2781 519 3026 730 
Q 3272 941 3272 1375 
Q 3272 1813 3026 2020 
Q 2781 2228 2272 2228 
L 1259 2228 
z
M 1259 4147 
L 1259 2741 
L 2194 2741 
Q 2656 2741 2882 2914 
Q 3109 3088 3109 3444 
Q 3109 3797 2882 3972 
Q 2656 4147 2194 4147 
L 1259 4147 
z
M 628 4666 
L 2241 4666 
Q 2963 4666 3353 4366 
Q 3744 4066 3744 3513 
Q 3744 3084 3544 2831 
Q 3344 2578 2956 2516 
Q 3422 2416 3680 2098 
Q 3938 1781 3938 1306 
Q 3938 681 3513 340 
Q 3088 0 2303 0 
L 628 0 
L 628 4666 
z
" transform="scale(0.015625)"/>
      </defs>
      <use xlink:href="#DejaVuSans-42"/>
     </g>
    </g>
   </g>
   <g id="text_6">
    <g clip-path="url(#pabc787dabc)">
     <!-- $R_2$ -->
     <g transform="translate(134.7638 99.360586)scale(0.125 -0.125)">
      <use xlink:href="#STIXGeneral-Italic-52" transform="translate(0 0.703125)"/>
      <use xlink:href="#STIXGeneral-Regular-32" transform="translate(61.099991 -12.525)scale(0.7)"/>
     </g>
    </g>
    <g clip-path="url(#pabc787dabc)">
     <!-- 2$k\Omega$ -->
     <g transform="translate(124.5138 113.357852)scale(0.125 -0.125)">
      <defs>
       <path id="DejaVuSans-32" d="M 1228 531 
L 3431 531 
L 3431 0 
L 469 0 
L 469 531 
Q 828 903 1448 1529 
Q 2069 2156 2228 2338 
Q 2531 2678 2651 2914 
Q 2772 3150 2772 3378 
Q 2772 3750 2511 3984 
Q 2250 4219 1831 4219 
Q 1534 4219 1204 4116 
Q 875 4013 500 3803 
L 500 4441 
Q 881 4594 1212 4672 
Q 1544 4750 1819 4750 
Q 2544 4750 2975 4387 
Q 3406 4025 3406 3419 
Q 3406 3131 3298 2873 
Q 3191 2616 2906 2266 
Q 2828 2175 2409 1742 
Q 1991 1309 1228 531 
z
" transform="scale(0.015625)"/>
       <path id="STIXGeneral-Italic-6b" d="M 2950 2739 
L 2950 2637 
Q 2720 2624 2464 2448 
Q 2208 2272 1510 1651 
L 1747 1088 
Q 2099 262 2266 262 
Q 2400 262 2554 531 
Q 2586 582 2650 698 
L 2746 627 
Q 2522 224 2374 77 
Q 2227 -70 2035 -70 
Q 1894 -70 1782 42 
Q 1670 154 1517 454 
Q 1325 826 1133 1357 
L 877 1152 
L 570 0 
L 90 0 
L 992 3379 
Q 1082 3699 1107 3942 
Q 1088 4096 781 4096 
L 666 4096 
L 666 4198 
Q 1146 4256 1670 4371 
L 1709 4333 
L 941 1414 
L 1216 1626 
Q 2131 2330 2131 2522 
Q 2131 2637 1894 2637 
L 1805 2637 
L 1805 2739 
L 2950 2739 
z
" transform="scale(0.015625)"/>
      </defs>
      <use xlink:href="#DejaVuSans-32" transform="translate(0 0.78125)"/>
      <use xlink:href="#STIXGeneral-Italic-6b" transform="translate(63.623047 0.78125)"/>
      <use xlink:href="#STIXGeneral-Regular-3a9" transform="translate(108.023041 0.78125)"/>
     </g>
    </g>
   </g>
   <g id="text_7">
    <g clip-path="url(#pabc787dabc)">
     <!-- $R_3$ -->
     <g transform="translate(197.6863 29.703125)scale(0.125 -0.125)">
      <defs>
       <path id="STIXGeneral-Regular-33" d="M 390 3264 
L 288 3290 
Q 435 3770 748 4048 
Q 1062 4326 1542 4326 
Q 1990 4326 2265 4083 
Q 2541 3840 2541 3450 
Q 2541 2925 1946 2566 
Q 2298 2413 2477 2227 
Q 2758 1914 2758 1402 
Q 2758 890 2464 506 
Q 2246 211 1840 60 
Q 1434 -90 979 -90 
Q 262 -90 262 275 
Q 262 378 339 442 
Q 416 506 525 506 
Q 685 506 915 339 
Q 1197 141 1466 141 
Q 1818 141 2058 425 
Q 2298 710 2298 1120 
Q 2298 1856 1632 2048 
Q 1434 2112 979 2112 
L 979 2202 
Q 1338 2323 1517 2432 
Q 2035 2726 2035 3290 
Q 2035 3610 1852 3776 
Q 1670 3942 1344 3942 
Q 768 3942 390 3264 
z
" transform="scale(0.015625)"/>
      </defs>
      <use xlink:href="#STIXGeneral-Italic-52" transform="translate(0 0.703125)"/>
      <use xlink:href="#STIXGeneral-Regular-33" transform="translate(61.099991 -12.525)scale(0.7)"/>
     </g>
    </g>
    <g clip-path="url(#pabc787dabc)">
     <!-- 4k$\Omega$ -->
     <g transform="translate(191.7488 43.700391)scale(0.125 -0.125)">
      <use xlink:href="#DejaVuSans-34" transform="translate(0 0.015625)"/>
      <use xlink:href="#DejaVuSans-6b" transform="translate(63.623047 0.015625)"/>
      <use xlink:href="#STIXGeneral-Regular-3a9" transform="translate(121.533203 0.015625)"/>
     </g>
    </g>
   </g>
   <g id="text_8">
    <g clip-path="url(#pabc787dabc)">
     <!-- + -->
     <g transform="translate(175.811495 77.218047)scale(0.125 -0.125)">
      <defs>
       <path id="DejaVuSans-2b" d="M 2944 4013 
L 2944 2272 
L 4684 2272 
L 4684 1741 
L 2944 1741 
L 2944 0 
L 2419 0 
L 2419 1741 
L 678 1741 
L 678 2272 
L 2419 2272 
L 2419 4013 
L 2944 4013 
z
" transform="scale(0.015625)"/>
      </defs>
      <use xlink:href="#DejaVuSans-2b"/>
     </g>
    </g>
   </g>
   <g id="text_9">
    <g clip-path="url(#pabc787dabc)">
     <!-- $V_O$ -->
     <g transform="translate(196.6863 77.218047)scale(0.125 -0.125)">
      <defs>
       <path id="STIXGeneral-Italic-56" d="M 4403 4179 
L 4403 4077 
Q 4198 4070 4045 3821 
L 1658 -115 
L 1536 -115 
L 1011 3104 
Q 902 3776 828 3910 
Q 755 4045 486 4077 
L 486 4179 
L 2022 4179 
L 2022 4077 
Q 1722 4045 1629 3981 
Q 1536 3917 1536 3750 
Q 1536 3686 1542 3654 
L 1958 819 
L 3302 3123 
Q 3616 3661 3616 3859 
Q 3616 4032 3219 4077 
L 3219 4179 
L 4403 4179 
z
" transform="scale(0.015625)"/>
       <path id="STIXGeneral-Italic-4f" d="M 4474 2675 
Q 4474 1990 4106 1363 
Q 3738 736 3149 339 
Q 2477 -115 1779 -115 
Q 1146 -115 765 281 
Q 384 678 384 1382 
Q 384 1965 697 2582 
Q 1011 3200 1517 3642 
Q 2234 4262 3034 4262 
Q 3718 4269 4096 3840 
Q 4474 3411 4474 2675 
z
M 3802 3078 
Q 3802 3533 3581 3792 
Q 3360 4051 2976 4051 
Q 2342 4051 1786 3302 
Q 1446 2842 1251 2259 
Q 1056 1677 1056 1178 
Q 1056 653 1270 374 
Q 1485 96 1888 96 
Q 2477 96 2976 704 
Q 3354 1178 3578 1862 
Q 3802 2547 3802 3078 
z
" transform="scale(0.015625)"/>
      </defs>
      <use xlink:href="#STIXGeneral-Italic-56" transform="translate(0 0.703125)"/>
      <use xlink:href="#STIXGeneral-Italic-4f" transform="translate(61.099991 -12.525)scale(0.7)"/>
     </g>
    </g>
   </g>
   <g id="text_10">
    <g clip-path="url(#pabc787dabc)">
     <!-- - -->
     <g transform="translate(224.693917 77.218047)scale(0.125 -0.125)">
      <defs>
       <path id="DejaVuSans-2d" d="M 313 2009 
L 1997 2009 
L 1997 1497 
L 313 1497 
L 313 2009 
z
" transform="scale(0.015625)"/>
      </defs>
      <use xlink:href="#DejaVuSans-2d"/>
     </g>
    </g>
   </g>
   <g id="text_11">
    <g clip-path="url(#pabc787dabc)">
     <!-- C -->
     <g transform="translate(249.8988 52.809219)scale(0.125 -0.125)">
      <defs>
       <path id="DejaVuSans-43" d="M 4122 4306 
L 4122 3641 
Q 3803 3938 3442 4084 
Q 3081 4231 2675 4231 
Q 1875 4231 1450 3742 
Q 1025 3253 1025 2328 
Q 1025 1406 1450 917 
Q 1875 428 2675 428 
Q 3081 428 3442 575 
Q 3803 722 4122 1019 
L 4122 359 
Q 3791 134 3420 21 
Q 3050 -91 2638 -91 
Q 1578 -91 968 557 
Q 359 1206 359 2328 
Q 359 3453 968 4101 
Q 1578 4750 2638 4750 
Q 3056 4750 3426 4639 
Q 3797 4528 4122 4306 
z
" transform="scale(0.015625)"/>
      </defs>
      <use xlink:href="#DejaVuSans-43"/>
     </g>
    </g>
   </g>
   <g id="text_12">
    <g clip-path="url(#pabc787dabc)">
     <!-- $I_{S2}$ -->
     <g transform="translate(268.2588 91.059219)scale(0.125 -0.125)">
      <use xlink:href="#STIXGeneral-Italic-49" transform="translate(0 0.703125)"/>
      <use xlink:href="#STIXGeneral-Italic-53" transform="translate(33.299988 -12.525)scale(0.7)"/>
      <use xlink:href="#STIXGeneral-Regular-32" transform="translate(68.299977 -12.525)scale(0.7)"/>
     </g>
    </g>
   </g>
   <g id="text_13">
    <g clip-path="url(#pabc787dabc)">
     <!-- $6~$mA -->
     <g transform="translate(268.2588 121.659219)scale(0.125 -0.125)">
      <defs>
       <path id="STIXGeneral-Regular-36" d="M 2854 4378 
L 2867 4275 
Q 2112 4154 1606 3664 
Q 1101 3174 973 2451 
Q 1344 2739 1786 2739 
Q 2349 2739 2672 2380 
Q 2995 2022 2995 1402 
Q 2995 774 2669 378 
Q 2291 -90 1651 -90 
Q 870 -90 518 557 
Q 218 1107 218 1786 
Q 218 2835 915 3552 
Q 1312 3962 1731 4131 
Q 2150 4301 2854 4378 
z
M 2419 1203 
Q 2419 2445 1555 2445 
Q 1235 2445 1024 2275 
Q 813 2106 813 1702 
Q 813 954 1046 522 
Q 1280 90 1722 90 
Q 2061 90 2240 394 
Q 2419 698 2419 1203 
z
" transform="scale(0.015625)"/>
      </defs>
      <use xlink:href="#STIXGeneral-Regular-36" transform="translate(0 0.09375)"/>
      <use xlink:href="#DejaVuSans-6d" transform="translate(74.066405 0.09375)"/>
      <use xlink:href="#DejaVuSans-41" transform="translate(171.478514 0.09375)"/>
     </g>
    </g>
   </g>
   <g id="text_14">
    <g clip-path="url(#pabc787dabc)">
     <!-- $2~$mA -->
     <g transform="translate(17.9388 121.659219)scale(0.125 -0.125)">
      <use xlink:href="#STIXGeneral-Regular-32" transform="translate(0 0.09375)"/>
      <use xlink:href="#DejaVuSans-6d" transform="translate(74.066405 0.09375)"/>
      <use xlink:href="#DejaVuSans-41" transform="translate(171.478514 0.09375)"/>
     </g>
    </g>
   </g>
   <g id="text_15">
    <g clip-path="url(#pabc787dabc)">
     <!-- $I_{S1}$ -->
     <g transform="translate(34.4388 91.059219)scale(0.125 -0.125)">
      <use xlink:href="#STIXGeneral-Italic-49" transform="translate(0 0.703125)"/>
      <use xlink:href="#STIXGeneral-Italic-53" transform="translate(33.299988 -12.525)scale(0.7)"/>
      <use xlink:href="#STIXGeneral-Regular-31" transform="translate(68.299977 -12.525)scale(0.7)"/>
     </g>
    </g>
   </g>
   <g id="text_16">
    <g clip-path="url(#pabc787dabc)">
     <!-- A -->
     <g transform="translate(62.023409 51.350391)scale(0.125 -0.125)">
      <use xlink:href="#DejaVuSans-41"/>
     </g>
    </g>
   </g>
   <g id="text_17">
    <g clip-path="url(#pabc787dabc)">
     <!-- $R_1$ -->
     <g transform="translate(105.8863 29.703125)scale(0.125 -0.125)">
      <use xlink:href="#STIXGeneral-Italic-52" transform="translate(0 0.703125)"/>
      <use xlink:href="#STIXGeneral-Regular-31" transform="translate(61.099991 -12.525)scale(0.7)"/>
     </g>
    </g>
    <g clip-path="url(#pabc787dabc)">
     <!-- 4k$\Omega$ -->
     <g transform="translate(99.9488 43.700391)scale(0.125 -0.125)">
      <use xlink:href="#DejaVuSans-34" transform="translate(0 0.015625)"/>
      <use xlink:href="#DejaVuSans-6b" transform="translate(63.623047 0.015625)"/>
      <use xlink:href="#STIXGeneral-Regular-3a9" transform="translate(121.533203 0.015625)"/>
     </g>
    </g>
   </g>
   <g id="text_18">
    <g clip-path="url(#pabc787dabc)">
     <!-- B -->
     <g transform="translate(158.0988 52.809219)scale(0.125 -0.125)">
      <use xlink:href="#DejaVuSans-42"/>
     </g>
    </g>
   </g>
   <g id="text_19">
    <g clip-path="url(#pabc787dabc)">
     <!-- $R_2$ -->
     <g transform="translate(134.7638 99.360586)scale(0.125 -0.125)">
      <use xlink:href="#STIXGeneral-Italic-52" transform="translate(0 0.703125)"/>
      <use xlink:href="#STIXGeneral-Regular-32" transform="translate(61.099991 -12.525)scale(0.7)"/>
     </g>
    </g>
    <g clip-path="url(#pabc787dabc)">
     <!-- 2$k\Omega$ -->
     <g transform="translate(124.5138 113.357852)scale(0.125 -0.125)">
      <use xlink:href="#DejaVuSans-32" transform="translate(0 0.78125)"/>
      <use xlink:href="#STIXGeneral-Italic-6b" transform="translate(63.623047 0.78125)"/>
      <use xlink:href="#STIXGeneral-Regular-3a9" transform="translate(108.023041 0.78125)"/>
     </g>
    </g>
   </g>
   <g id="text_20">
    <g clip-path="url(#pabc787dabc)">
     <!-- $R_3$ -->
     <g transform="translate(197.6863 29.703125)scale(0.125 -0.125)">
      <use xlink:href="#STIXGeneral-Italic-52" transform="translate(0 0.703125)"/>
      <use xlink:href="#STIXGeneral-Regular-33" transform="translate(61.099991 -12.525)scale(0.7)"/>
     </g>
    </g>
    <g clip-path="url(#pabc787dabc)">
     <!-- 4k$\Omega$ -->
     <g transform="translate(191.7488 43.700391)scale(0.125 -0.125)">
      <use xlink:href="#DejaVuSans-34" transform="translate(0 0.015625)"/>
      <use xlink:href="#DejaVuSans-6b" transform="translate(63.623047 0.015625)"/>
      <use xlink:href="#STIXGeneral-Regular-3a9" transform="translate(121.533203 0.015625)"/>
     </g>
    </g>
   </g>
   <g id="text_21">
    <g clip-path="url(#pabc787dabc)">
     <!-- + -->
     <g transform="translate(175.811495 77.218047)scale(0.125 -0.125)">
      <use xlink:href="#DejaVuSans-2b"/>
     </g>
    </g>
   </g>
   <g id="text_22">
    <g clip-path="url(#pabc787dabc)">
     <!-- $V_O$ -->
     <g transform="translate(196.6863 77.218047)scale(0.125 -0.125)">
      <use xlink:href="#STIXGeneral-Italic-56" transform="translate(0 0.703125)"/>
      <use xlink:href="#STIXGeneral-Italic-4f" transform="translate(61.099991 -12.525)scale(0.7)"/>
     </g>
    </g>
   </g>
   <g id="text_23">
    <g clip-path="url(#pabc787dabc)">
     <!-- - -->
     <g transform="translate(224.693917 77.218047)scale(0.125 -0.125)">
      <use xlink:href="#DejaVuSans-2d"/>
     </g>
    </g>
   </g>
   <g id="text_24">
    <g clip-path="url(#pabc787dabc)">
     <!-- C -->
     <g transform="translate(249.8988 52.809219)scale(0.125 -0.125)">
      <use xlink:href="#DejaVuSans-43"/>
     </g>
    </g>
   </g>
   <g id="text_25">
    <g clip-path="url(#pabc787dabc)">
     <!-- $I_{S2}$ -->
     <g transform="translate(268.2588 91.059219)scale(0.125 -0.125)">
      <use xlink:href="#STIXGeneral-Italic-49" transform="translate(0 0.703125)"/>
      <use xlink:href="#STIXGeneral-Italic-53" transform="translate(33.299988 -12.525)scale(0.7)"/>
      <use xlink:href="#STIXGeneral-Regular-32" transform="translate(68.299977 -12.525)scale(0.7)"/>
     </g>
    </g>
   </g>
   <g id="text_26">
    <g clip-path="url(#pabc787dabc)">
     <!-- $6~$mA -->
     <g transform="translate(268.2588 121.659219)scale(0.125 -0.125)">
      <use xlink:href="#STIXGeneral-Regular-36" transform="translate(0 0.09375)"/>
      <use xlink:href="#DejaVuSans-6d" transform="translate(74.066405 0.09375)"/>
      <use xlink:href="#DejaVuSans-41" transform="translate(171.478514 0.09375)"/>
     </g>
    </g>
   </g>
   <g id="patch_16">
    <path d="M 66.2988 59.305 
C 66.907441 59.305 67.491236 59.063184 67.92161 58.63281 
C 68.351984 58.202436 68.5938 57.618641 68.5938 57.01 
C 68.5938 56.401359 68.351984 55.817564 67.92161 55.38719 
C 67.491236 54.956816 66.907441 54.715 66.2988 54.715 
C 65.690159 54.715 65.106364 54.956816 64.67599 55.38719 
C 64.245616 55.817564 64.0038 56.401359 64.0038 57.01 
C 64.0038 57.618641 64.245616 58.202436 64.67599 58.63281 
C 65.106364 59.063184 65.690159 59.305 66.2988 59.305 
z
" clip-path="url(#pabc787dabc)" style="fill: #ff0000; stroke: #ff0000; stroke-width: 2; stroke-linejoin: miter"/>
   </g>
   <g id="patch_17">
    <path d="M 158.0988 59.305 
C 158.707441 59.305 159.291236 59.063184 159.72161 58.63281 
C 160.151984 58.202436 160.3938 57.618641 160.3938 57.01 
C 160.3938 56.401359 160.151984 55.817564 159.72161 55.38719 
C 159.291236 54.956816 158.707441 54.715 158.0988 54.715 
C 157.490159 54.715 156.906364 54.956816 156.47599 55.38719 
C 156.045616 55.817564 155.8038 56.401359 155.8038 57.01 
C 155.8038 57.618641 156.045616 58.202436 156.47599 58.63281 
C 156.906364 59.063184 157.490159 59.305 158.0988 59.305 
z
" clip-path="url(#pabc787dabc)" style="fill: #ff0000; stroke: #ff0000; stroke-width: 2; stroke-linejoin: miter"/>
   </g>
   <g id="patch_18">
    <path d="M 249.8988 59.305 
C 250.507441 59.305 251.091236 59.063184 251.52161 58.63281 
C 251.951984 58.202436 252.1938 57.618641 252.1938 57.01 
C 252.1938 56.401359 251.951984 55.817564 251.52161 55.38719 
C 251.091236 54.956816 250.507441 54.715 249.8988 54.715 
C 249.290159 54.715 248.706364 54.956816 248.27599 55.38719 
C 247.845616 55.817564 247.6038 56.401359 247.6038 57.01 
C 247.6038 57.618641 247.845616 58.202436 248.27599 58.63281 
C 248.706364 59.063184 249.290159 59.305 249.8988 59.305 
z
" clip-path="url(#pabc787dabc)" style="fill: #ff0000; stroke: #ff0000; stroke-width: 2; stroke-linejoin: miter"/>
   </g>
   <g id="patch_19">
    <path d="M 66.2988 59.305 
C 66.907441 59.305 67.491236 59.063184 67.92161 58.63281 
C 68.351984 58.202436 68.5938 57.618641 68.5938 57.01 
C 68.5938 56.401359 68.351984 55.817564 67.92161 55.38719 
C 67.491236 54.956816 66.907441 54.715 66.2988 54.715 
C 65.690159 54.715 65.106364 54.956816 64.67599 55.38719 
C 64.245616 55.817564 64.0038 56.401359 64.0038 57.01 
C 64.0038 57.618641 64.245616 58.202436 64.67599 58.63281 
C 65.106364 59.063184 65.690159 59.305 66.2988 59.305 
z
" clip-path="url(#pabc787dabc)" style="fill: #ff0000; stroke: #ff0000; stroke-width: 2; stroke-linejoin: miter"/>
   </g>
   <g id="patch_20">
    <path d="M 158.0988 59.305 
C 158.707441 59.305 159.291236 59.063184 159.72161 58.63281 
C 160.151984 58.202436 160.3938 57.618641 160.3938 57.01 
C 160.3938 56.401359 160.151984 55.817564 159.72161 55.38719 
C 159.291236 54.956816 158.707441 54.715 158.0988 54.715 
C 157.490159 54.715 156.906364 54.956816 156.47599 55.38719 
C 156.045616 55.817564 155.8038 56.401359 155.8038 57.01 
C 155.8038 57.618641 156.045616 58.202436 156.47599 58.63281 
C 156.906364 59.063184 157.490159 59.305 158.0988 59.305 
z
" clip-path="url(#pabc787dabc)" style="fill: #ff0000; stroke: #ff0000; stroke-width: 2; stroke-linejoin: miter"/>
   </g>
   <g id="patch_21">
    <path d="M 249.8988 59.305 
C 250.507441 59.305 251.091236 59.063184 251.52161 58.63281 
C 251.951984 58.202436 252.1938 57.618641 252.1938 57.01 
C 252.1938 56.401359 251.951984 55.817564 251.52161 55.38719 
C 251.091236 54.956816 250.507441 54.715 249.8988 54.715 
C 249.290159 54.715 248.706364 54.956816 248.27599 55.38719 
C 247.845616 55.817564 247.6038 56.401359 247.6038 57.01 
C 247.6038 57.618641 247.845616 58.202436 248.27599 58.63281 
C 248.706364 59.063184 249.290159 59.305 249.8988 59.305 
z
" clip-path="url(#pabc787dabc)" style="fill: #ff0000; stroke: #ff0000; stroke-width: 2; stroke-linejoin: miter"/>
   </g>
  </g>
 </g>
 <defs>
  <clipPath id="pabc787dabc">
   <rect x="7.2" y="7.2" width="307.9176" height="164.56"/>
  </clipPath>
 </defs>
</svg>
