<?xml version="1.0" encoding="utf-8" standalone="no"?>
<!DOCTYPE svg PUBLIC "-//W3C//DTD SVG 1.1//EN"
  "http://www.w3.org/Graphics/SVG/1.1/DTD/svg11.dtd">
<svg xmlns:xlink="http://www.w3.org/1999/xlink" width="259.8936pt" height="256.48pt" viewBox="0 0 259.8936 256.48" xmlns="http://www.w3.org/2000/svg" version="1.1">
 <metadata>
  <rdf:RDF xmlns:dc="http://purl.org/dc/elements/1.1/" xmlns:cc="http://creativecommons.org/ns#" xmlns:rdf="http://www.w3.org/1999/02/22-rdf-syntax-ns#">
   <cc:Work>
    <dc:type rdf:resource="http://purl.org/dc/dcmitype/StillImage"/>
    <dc:date>2023-06-05T11:05:54.049482</dc:date>
    <dc:format>image/svg+xml</dc:format>
    <dc:creator>
     <cc:Agent>
      <dc:title>Matplotlib v3.5.2, https://matplotlib.org/</dc:title>
     </cc:Agent>
    </dc:creator>
   </cc:Work>
  </rdf:RDF>
 </metadata>
 <defs>
  <style type="text/css">*{stroke-linejoin: round; stroke-linecap: butt}</style>
 </defs>
 <g id="figure_1">
  <g id="patch_1">
   <path d="M 0 256.48 
L 259.8936 256.48 
L 259.8936 0 
L 0 0 
L 0 256.48 
z
" style="fill: none"/>
  </g>
  <g id="axes_1">
   <g id="line2d_1">
    <path d="M 40.4418 226.33 
L 40.4418 238.57 
L 32.7918 238.57 
L 40.4418 246.22 
L 48.0918 238.57 
L 40.4418 238.57 
" clip-path="url(#p91d4f32646)" style="fill: none; stroke: #000000; stroke-width: 2; stroke-linecap: round"/>
   </g>
   <g id="line2d_2">
    <path d="M 40.4418 226.33 
L 40.4418 195.73 
L 32.7918 195.73 
L 32.7918 165.13 
L 48.0918 165.13 
L 48.0918 195.73 
L 40.4418 195.73 
M 40.4418 165.13 
L 40.4418 134.53 
" clip-path="url(#p91d4f32646)" style="fill: none; stroke: #000000; stroke-width: 2; stroke-linecap: round"/>
   </g>
   <g id="line2d_3">
    <path d="M 40.4418 134.53 
L 71.0418 134.53 
L 71.0418 126.88 
L 101.6418 126.88 
L 101.6418 142.18 
L 71.0418 142.18 
L 71.0418 134.53 
M 101.6418 134.53 
L 132.2418 134.53 
" clip-path="url(#p91d4f32646)" style="fill: none; stroke: #000000; stroke-width: 2; stroke-linecap: round"/>
   </g>
   <g id="line2d_4">
    <path d="M 132.2418 134.53 
L 162.8418 134.53 
L 162.8418 126.88 
L 193.4418 126.88 
L 193.4418 142.18 
L 162.8418 142.18 
L 162.8418 134.53 
M 193.4418 134.53 
L 224.0418 134.53 
" clip-path="url(#p91d4f32646)" style="fill: none; stroke: #000000; stroke-width: 2; stroke-linecap: round"/>
   </g>
   <g id="line2d_5">
    <path d="M 224.0418 134.53 
L 224.0418 165.13 
L 231.6918 165.13 
L 231.6918 195.73 
L 216.3918 195.73 
L 216.3918 165.13 
L 224.0418 165.13 
M 224.0418 195.73 
L 224.0418 226.33 
" clip-path="url(#p91d4f32646)" style="fill: none; stroke: #000000; stroke-width: 2; stroke-linecap: round"/>
   </g>
   <g id="line2d_6">
    <path d="M 224.0418 226.33 
L 178.1418 226.33 
L 132.2418 226.33 
" clip-path="url(#p91d4f32646)" style="fill: none; stroke: #000000; stroke-width: 2; stroke-linecap: round"/>
   </g>
   <g id="line2d_7">
    <path d="M 132.2418 226.33 
L 132.2418 195.73 
L 124.5918 195.73 
L 124.5918 165.13 
L 139.8918 165.13 
L 139.8918 195.73 
L 132.2418 195.73 
M 132.2418 165.13 
L 132.2418 134.53 
" clip-path="url(#p91d4f32646)" style="fill: none; stroke: #000000; stroke-width: 2; stroke-linecap: round"/>
   </g>
   <g id="line2d_8">
    <path d="M 132.2418 226.33 
L 86.3418 226.33 
L 40.4418 226.33 
" clip-path="url(#p91d4f32646)" style="fill: none; stroke: #000000; stroke-width: 2; stroke-linecap: round"/>
   </g>
   <g id="line2d_9">
    <path d="M 40.4418 134.53 
L 40.4418 88.63 
L 40.4418 42.73 
" clip-path="url(#p91d4f32646)" style="fill: none; stroke: #000000; stroke-width: 2; stroke-linecap: round"/>
   </g>
   <g id="line2d_10">
    <path d="M 40.4418 42.73 
L 116.9418 42.73 
L 116.9418 35.08 
L 147.5418 35.08 
L 147.5418 50.38 
L 116.9418 50.38 
L 116.9418 42.73 
M 147.5418 42.73 
L 224.0418 42.73 
" clip-path="url(#p91d4f32646)" style="fill: none; stroke: #000000; stroke-width: 2; stroke-linecap: round"/>
   </g>
   <g id="line2d_11">
    <path d="M 224.0418 42.73 
L 224.0418 88.63 
L 224.0418 134.53 
" clip-path="url(#p91d4f32646)" style="fill: none; stroke: #000000; stroke-width: 2; stroke-linecap: round"/>
   </g>
   <g id="line2d_12">
    <path d="M 40.4418 226.33 
L 40.4418 238.57 
L 32.7918 238.57 
L 40.4418 246.22 
L 48.0918 238.57 
L 40.4418 238.57 
" clip-path="url(#p91d4f32646)" style="fill: none; stroke: #000000; stroke-width: 2; stroke-linecap: round"/>
   </g>
   <g id="line2d_13">
    <path d="M 40.4418 226.33 
L 40.4418 195.73 
L 32.7918 195.73 
L 32.7918 165.13 
L 48.0918 165.13 
L 48.0918 195.73 
L 40.4418 195.73 
M 40.4418 165.13 
L 40.4418 134.53 
" clip-path="url(#p91d4f32646)" style="fill: none; stroke: #000000; stroke-width: 2; stroke-linecap: round"/>
   </g>
   <g id="line2d_14">
    <path d="M 40.4418 134.53 
L 71.0418 134.53 
L 71.0418 126.88 
L 101.6418 126.88 
L 101.6418 142.18 
L 71.0418 142.18 
L 71.0418 134.53 
M 101.6418 134.53 
L 132.2418 134.53 
" clip-path="url(#p91d4f32646)" style="fill: none; stroke: #000000; stroke-width: 2; stroke-linecap: round"/>
   </g>
   <g id="line2d_15">
    <path d="M 132.2418 134.53 
L 162.8418 134.53 
L 162.8418 126.88 
L 193.4418 126.88 
L 193.4418 142.18 
L 162.8418 142.18 
L 162.8418 134.53 
M 193.4418 134.53 
L 224.0418 134.53 
" clip-path="url(#p91d4f32646)" style="fill: none; stroke: #000000; stroke-width: 2; stroke-linecap: round"/>
   </g>
   <g id="line2d_16">
    <path d="M 224.0418 134.53 
L 224.0418 165.13 
L 231.6918 165.13 
L 231.6918 195.73 
L 216.3918 195.73 
L 216.3918 165.13 
L 224.0418 165.13 
M 224.0418 195.73 
L 224.0418 226.33 
" clip-path="url(#p91d4f32646)" style="fill: none; stroke: #000000; stroke-width: 2; stroke-linecap: round"/>
   </g>
   <g id="line2d_17">
    <path d="M 224.0418 226.33 
L 178.1418 226.33 
L 132.2418 226.33 
" clip-path="url(#p91d4f32646)" style="fill: none; stroke: #000000; stroke-width: 2; stroke-linecap: round"/>
   </g>
   <g id="line2d_18">
    <path d="M 132.2418 226.33 
L 132.2418 195.73 
L 124.5918 195.73 
L 124.5918 165.13 
L 139.8918 165.13 
L 139.8918 195.73 
L 132.2418 195.73 
M 132.2418 165.13 
L 132.2418 134.53 
" clip-path="url(#p91d4f32646)" style="fill: none; stroke: #000000; stroke-width: 2; stroke-linecap: round"/>
   </g>
   <g id="line2d_19">
    <path d="M 132.2418 226.33 
L 86.3418 226.33 
L 40.4418 226.33 
" clip-path="url(#p91d4f32646)" style="fill: none; stroke: #000000; stroke-width: 2; stroke-linecap: round"/>
   </g>
   <g id="line2d_20">
    <path d="M 40.4418 134.53 
L 40.4418 88.63 
L 40.4418 42.73 
" clip-path="url(#p91d4f32646)" style="fill: none; stroke: #000000; stroke-width: 2; stroke-linecap: round"/>
   </g>
   <g id="line2d_21">
    <path d="M 40.4418 42.73 
L 116.9418 42.73 
L 116.9418 35.08 
L 147.5418 35.08 
L 147.5418 50.38 
L 116.9418 50.38 
L 116.9418 42.73 
M 147.5418 42.73 
L 224.0418 42.73 
" clip-path="url(#p91d4f32646)" style="fill: none; stroke: #000000; stroke-width: 2; stroke-linecap: round"/>
   </g>
   <g id="line2d_22">
    <path d="M 224.0418 42.73 
L 224.0418 88.63 
L 224.0418 134.53 
" clip-path="url(#p91d4f32646)" style="fill: none; stroke: #000000; stroke-width: 2; stroke-linecap: round"/>
   </g>
   <g id="text_1">
    <g clip-path="url(#p91d4f32646)">
     <!-- $R_1$ -->
     <g transform="translate(17.1068 183.879219)scale(0.125 -0.125)">
      <defs>
       <path id="STIXGeneral-Italic-52" d="M 845 4179 
L 2458 4179 
Q 3078 4179 3420 3936 
Q 3763 3693 3763 3277 
Q 3763 2778 3341 2458 
Q 3091 2266 2502 2131 
L 3072 627 
Q 3181 333 3299 217 
Q 3418 102 3629 102 
L 3629 0 
L 2688 0 
L 1901 2074 
L 1478 2106 
L 1126 806 
Q 1043 512 1043 403 
Q 1043 256 1126 192 
Q 1210 128 1472 102 
L 1472 0 
L -83 0 
L -83 102 
Q 173 134 278 243 
Q 384 352 461 646 
L 1222 3405 
Q 1299 3699 1299 3808 
Q 1299 3923 1210 3987 
Q 1133 4038 845 4077 
L 845 4179 
z
M 1958 3795 
L 1555 2342 
Q 1754 2310 1882 2310 
Q 2451 2310 2771 2566 
Q 3091 2822 3091 3270 
Q 3091 3603 2892 3795 
Q 2694 3987 2323 3987 
Q 2010 3987 1958 3795 
z
" transform="scale(0.015625)"/>
       <path id="STIXGeneral-Regular-31" d="M 2522 0 
L 755 0 
L 755 96 
Q 1107 115 1235 227 
Q 1363 339 1363 608 
L 1363 3482 
Q 1363 3795 1171 3795 
Q 1082 3795 883 3718 
L 710 3654 
L 710 3744 
L 1856 4326 
L 1914 4307 
L 1914 486 
Q 1914 275 2042 185 
Q 2170 96 2522 96 
L 2522 0 
z
" transform="scale(0.015625)"/>
      </defs>
      <use xlink:href="#STIXGeneral-Italic-52" transform="translate(0 0.703125)"/>
      <use xlink:href="#STIXGeneral-Regular-31" transform="translate(61.099991 -12.525)scale(0.7)"/>
     </g>
    </g>
   </g>
   <g id="text_2">
    <g clip-path="url(#p91d4f32646)">
     <!-- $R_2$ -->
     <g transform="translate(80.0293 121.220391)scale(0.125 -0.125)">
      <defs>
       <path id="STIXGeneral-Regular-32" d="M 3034 877 
L 2688 0 
L 186 0 
L 186 77 
L 1325 1286 
Q 1773 1754 1965 2144 
Q 2157 2534 2157 2950 
Q 2157 3379 1920 3616 
Q 1683 3853 1267 3853 
Q 922 3853 720 3673 
Q 518 3494 326 3021 
L 192 3053 
Q 301 3648 630 3987 
Q 960 4326 1523 4326 
Q 2054 4326 2380 4006 
Q 2707 3686 2707 3200 
Q 2707 2477 1888 1613 
L 832 486 
L 2330 486 
Q 2541 486 2665 569 
Q 2790 653 2944 915 
L 3034 877 
z
" transform="scale(0.015625)"/>
      </defs>
      <use xlink:href="#STIXGeneral-Italic-52" transform="translate(0 0.703125)"/>
      <use xlink:href="#STIXGeneral-Regular-32" transform="translate(61.099991 -12.525)scale(0.7)"/>
     </g>
    </g>
   </g>
   <g id="text_3">
    <g clip-path="url(#p91d4f32646)">
     <!-- $R_3$ -->
     <g transform="translate(171.8293 121.220391)scale(0.125 -0.125)">
      <defs>
       <path id="STIXGeneral-Regular-33" d="M 390 3264 
L 288 3290 
Q 435 3770 748 4048 
Q 1062 4326 1542 4326 
Q 1990 4326 2265 4083 
Q 2541 3840 2541 3450 
Q 2541 2925 1946 2566 
Q 2298 2413 2477 2227 
Q 2758 1914 2758 1402 
Q 2758 890 2464 506 
Q 2246 211 1840 60 
Q 1434 -90 979 -90 
Q 262 -90 262 275 
Q 262 378 339 442 
Q 416 506 525 506 
Q 685 506 915 339 
Q 1197 141 1466 141 
Q 1818 141 2058 425 
Q 2298 710 2298 1120 
Q 2298 1856 1632 2048 
Q 1434 2112 979 2112 
L 979 2202 
Q 1338 2323 1517 2432 
Q 2035 2726 2035 3290 
Q 2035 3610 1852 3776 
Q 1670 3942 1344 3942 
Q 768 3942 390 3264 
z
" transform="scale(0.015625)"/>
      </defs>
      <use xlink:href="#STIXGeneral-Italic-52" transform="translate(0 0.703125)"/>
      <use xlink:href="#STIXGeneral-Regular-33" transform="translate(61.099991 -12.525)scale(0.7)"/>
     </g>
    </g>
   </g>
   <g id="text_4">
    <g clip-path="url(#p91d4f32646)">
     <!-- $R_4$ -->
     <g transform="translate(200.7068 183.879219)scale(0.125 -0.125)">
      <defs>
       <path id="STIXGeneral-Regular-34" d="M 3027 1069 
L 2368 1069 
L 2368 0 
L 1869 0 
L 1869 1069 
L 77 1069 
L 77 1478 
L 2086 4326 
L 2368 4326 
L 2368 1478 
L 3027 1478 
L 3027 1069 
z
M 1869 1478 
L 1869 3674 
L 333 1478 
L 1869 1478 
z
" transform="scale(0.015625)"/>
      </defs>
      <use xlink:href="#STIXGeneral-Italic-52" transform="translate(0 0.703125)"/>
      <use xlink:href="#STIXGeneral-Regular-34" transform="translate(61.099991 -12.525)scale(0.7)"/>
     </g>
    </g>
   </g>
   <g id="text_5">
    <g clip-path="url(#p91d4f32646)">
     <!-- $R_5$ -->
     <g transform="translate(108.9068 183.879219)scale(0.125 -0.125)">
      <defs>
       <path id="STIXGeneral-Regular-35" d="M 2803 4358 
L 2573 3814 
Q 2534 3731 2400 3731 
L 1158 3731 
L 902 3187 
Q 1606 3053 1920 2896 
Q 2234 2739 2502 2368 
Q 2726 2061 2726 1555 
Q 2726 1094 2576 780 
Q 2426 467 2099 224 
Q 1664 -90 1011 -90 
Q 646 -90 422 19 
Q 198 128 198 307 
Q 198 550 486 550 
Q 717 550 960 352 
Q 1210 147 1414 147 
Q 1747 147 2012 480 
Q 2278 813 2278 1229 
Q 2278 1843 1850 2189 
Q 1293 2637 486 2637 
Q 410 2637 410 2688 
L 416 2720 
L 1114 4237 
L 2438 4237 
Q 2547 4237 2608 4269 
Q 2669 4301 2746 4403 
L 2803 4358 
z
" transform="scale(0.015625)"/>
      </defs>
      <use xlink:href="#STIXGeneral-Italic-52" transform="translate(0 0.703125)"/>
      <use xlink:href="#STIXGeneral-Regular-35" transform="translate(61.099991 -12.525)scale(0.7)"/>
     </g>
    </g>
   </g>
   <g id="text_6">
    <g clip-path="url(#p91d4f32646)">
     <!-- $R_6$ -->
     <g transform="translate(125.9293 29.420391)scale(0.125 -0.125)">
      <defs>
       <path id="STIXGeneral-Regular-36" d="M 2854 4378 
L 2867 4275 
Q 2112 4154 1606 3664 
Q 1101 3174 973 2451 
Q 1344 2739 1786 2739 
Q 2349 2739 2672 2380 
Q 2995 2022 2995 1402 
Q 2995 774 2669 378 
Q 2291 -90 1651 -90 
Q 870 -90 518 557 
Q 218 1107 218 1786 
Q 218 2835 915 3552 
Q 1312 3962 1731 4131 
Q 2150 4301 2854 4378 
z
M 2419 1203 
Q 2419 2445 1555 2445 
Q 1235 2445 1024 2275 
Q 813 2106 813 1702 
Q 813 954 1046 522 
Q 1280 90 1722 90 
Q 2061 90 2240 394 
Q 2419 698 2419 1203 
z
" transform="scale(0.015625)"/>
      </defs>
      <use xlink:href="#STIXGeneral-Italic-52" transform="translate(0 0.703125)"/>
      <use xlink:href="#STIXGeneral-Regular-36" transform="translate(61.099991 -12.525)scale(0.7)"/>
     </g>
    </g>
   </g>
   <g id="text_7">
    <g clip-path="url(#p91d4f32646)">
     <!-- $R_1$ -->
     <g transform="translate(17.1068 183.879219)scale(0.125 -0.125)">
      <use xlink:href="#STIXGeneral-Italic-52" transform="translate(0 0.703125)"/>
      <use xlink:href="#STIXGeneral-Regular-31" transform="translate(61.099991 -12.525)scale(0.7)"/>
     </g>
    </g>
   </g>
   <g id="text_8">
    <g clip-path="url(#p91d4f32646)">
     <!-- $R_2$ -->
     <g transform="translate(80.0293 121.220391)scale(0.125 -0.125)">
      <use xlink:href="#STIXGeneral-Italic-52" transform="translate(0 0.703125)"/>
      <use xlink:href="#STIXGeneral-Regular-32" transform="translate(61.099991 -12.525)scale(0.7)"/>
     </g>
    </g>
   </g>
   <g id="text_9">
    <g clip-path="url(#p91d4f32646)">
     <!-- $R_3$ -->
     <g transform="translate(171.8293 121.220391)scale(0.125 -0.125)">
      <use xlink:href="#STIXGeneral-Italic-52" transform="translate(0 0.703125)"/>
      <use xlink:href="#STIXGeneral-Regular-33" transform="translate(61.099991 -12.525)scale(0.7)"/>
     </g>
    </g>
   </g>
   <g id="text_10">
    <g clip-path="url(#p91d4f32646)">
     <!-- $R_4$ -->
     <g transform="translate(200.7068 183.879219)scale(0.125 -0.125)">
      <use xlink:href="#STIXGeneral-Italic-52" transform="translate(0 0.703125)"/>
      <use xlink:href="#STIXGeneral-Regular-34" transform="translate(61.099991 -12.525)scale(0.7)"/>
     </g>
    </g>
   </g>
   <g id="text_11">
    <g clip-path="url(#p91d4f32646)">
     <!-- $R_5$ -->
     <g transform="translate(108.9068 183.879219)scale(0.125 -0.125)">
      <use xlink:href="#STIXGeneral-Italic-52" transform="translate(0 0.703125)"/>
      <use xlink:href="#STIXGeneral-Regular-35" transform="translate(61.099991 -12.525)scale(0.7)"/>
     </g>
    </g>
   </g>
   <g id="text_12">
    <g clip-path="url(#p91d4f32646)">
     <!-- $R_6$ -->
     <g transform="translate(125.9293 29.420391)scale(0.125 -0.125)">
      <use xlink:href="#STIXGeneral-Italic-52" transform="translate(0 0.703125)"/>
      <use xlink:href="#STIXGeneral-Regular-36" transform="translate(61.099991 -12.525)scale(0.7)"/>
     </g>
    </g>
   </g>
   <g id="line2d_23">
    <path d="M 40.4418 152.89 
L 40.4418 152.89 
" clip-path="url(#p91d4f32646)" style="fill: none; stroke: #000000; stroke-width: 2; stroke-linecap: round"/>
   </g>
   <g id="patch_2">
    <path d="M 35.8518 152.89 
L 40.4418 143.71 
L 45.0318 152.89 
z
" clip-path="url(#p91d4f32646)"/>
   </g>
   <g id="text_13">
    <g clip-path="url(#p91d4f32646)">
     <!-- $I_a$ -->
     <g transform="translate(22.1368 151.749219)scale(0.125 -0.125)">
      <defs>
       <path id="STIXGeneral-Italic-49" d="M 2458 4179 
L 2458 4077 
Q 2189 4045 2102 3961 
Q 2016 3878 1933 3584 
L 1165 838 
Q 1069 499 1069 352 
Q 1069 224 1149 179 
Q 1229 134 1510 102 
L 1510 0 
L -51 0 
L -51 102 
Q 218 154 317 237 
Q 416 320 486 582 
L 1254 3405 
Q 1338 3699 1338 3802 
Q 1338 3930 1235 3997 
Q 1133 4064 877 4077 
L 877 4179 
L 2458 4179 
z
" transform="scale(0.015625)"/>
       <path id="STIXGeneral-Italic-61" d="M 2963 710 
L 3046 640 
Q 2688 205 2518 70 
Q 2349 -64 2157 -64 
Q 1901 -64 1901 198 
Q 1901 358 2048 934 
Q 1690 397 1389 163 
Q 1088 -70 749 -70 
Q 467 -70 288 125 
Q 109 320 109 672 
Q 109 1158 387 1664 
Q 666 2170 1094 2496 
Q 1523 2822 1939 2822 
Q 2368 2822 2451 2451 
L 2522 2758 
L 2541 2778 
L 2931 2822 
L 2976 2803 
Q 2970 2778 2938 2669 
Q 2368 595 2368 346 
Q 2368 262 2458 262 
Q 2554 262 2790 525 
L 2963 710 
z
M 2336 2310 
Q 2336 2477 2240 2579 
Q 2144 2682 1978 2682 
Q 1542 2682 1139 2093 
Q 928 1779 787 1395 
Q 646 1011 646 717 
Q 646 243 1030 243 
Q 1408 243 1843 870 
Q 2336 1581 2336 2310 
z
" transform="scale(0.015625)"/>
      </defs>
      <use xlink:href="#STIXGeneral-Italic-49" transform="translate(0 0.703125)"/>
      <use xlink:href="#STIXGeneral-Italic-61" transform="translate(33.299988 -12.525)scale(0.7)"/>
     </g>
    </g>
   </g>
   <g id="patch_3">
    <path d="M 40.4418 136.825 
C 41.050441 136.825 41.634236 136.583184 42.06461 136.15281 
C 42.494984 135.722436 42.7368 135.138641 42.7368 134.53 
C 42.7368 133.921359 42.494984 133.337564 42.06461 132.90719 
C 41.634236 132.476816 41.050441 132.235 40.4418 132.235 
C 39.833159 132.235 39.249364 132.476816 38.81899 132.90719 
C 38.388616 133.337564 38.1468 133.921359 38.1468 134.53 
C 38.1468 135.138641 38.388616 135.722436 38.81899 136.15281 
C 39.249364 136.583184 39.833159 136.825 40.4418 136.825 
z
" clip-path="url(#p91d4f32646)" style="stroke: #000000; stroke-width: 2; stroke-linejoin: miter"/>
   </g>
   <g id="text_14">
    <g clip-path="url(#p91d4f32646)">
     <!-- A -->
     <g transform="translate(26.536019 137.979219)scale(0.125 -0.125)">
      <defs>
       <path id="DejaVuSans-41" d="M 2188 4044 
L 1331 1722 
L 3047 1722 
L 2188 4044 
z
M 1831 4666 
L 2547 4666 
L 4325 0 
L 3669 0 
L 3244 1197 
L 1141 1197 
L 716 0 
L 50 0 
L 1831 4666 
z
" transform="scale(0.015625)"/>
      </defs>
      <use xlink:href="#DejaVuSans-41"/>
     </g>
    </g>
   </g>
   <g id="line2d_24">
    <path d="M 113.8818 134.53 
L 113.8818 134.53 
" clip-path="url(#p91d4f32646)" style="fill: none; stroke: #000000; stroke-width: 2; stroke-linecap: round"/>
   </g>
   <g id="patch_4">
    <path d="M 113.8818 129.94 
L 123.0618 134.53 
L 113.8818 139.12 
z
" clip-path="url(#p91d4f32646)"/>
   </g>
   <g id="text_15">
    <g clip-path="url(#p91d4f32646)">
     <!-- $I_b$ -->
     <g transform="translate(113.9093 122.750391)scale(0.125 -0.125)">
      <defs>
       <path id="STIXGeneral-Italic-62" d="M 1043 1856 
L 1050 1856 
Q 1370 2387 1654 2604 
Q 1939 2822 2285 2822 
Q 2618 2822 2822 2617 
Q 3027 2413 3027 2054 
Q 3027 1562 2726 1062 
Q 2426 563 1942 246 
Q 1459 -70 979 -70 
Q 685 -70 416 32 
Q 147 134 147 269 
L 147 307 
L 1056 3654 
Q 1114 3885 1114 3955 
Q 1114 4058 1053 4080 
Q 992 4102 704 4115 
L 704 4224 
Q 1184 4282 1683 4371 
L 1715 4339 
L 1581 3814 
L 1043 1856 
z
M 2483 1958 
Q 2483 2509 2035 2509 
Q 1594 2509 1158 1773 
Q 954 1427 826 1008 
Q 698 589 698 294 
Q 698 77 992 77 
Q 1414 77 1779 454 
Q 2074 762 2278 1187 
Q 2483 1613 2483 1958 
z
" transform="scale(0.015625)"/>
      </defs>
      <use xlink:href="#STIXGeneral-Italic-49" transform="translate(0 0.703125)"/>
      <use xlink:href="#STIXGeneral-Italic-62" transform="translate(33.299988 -12.525)scale(0.7)"/>
     </g>
    </g>
   </g>
   <g id="patch_5">
    <path d="M 132.2418 136.825 
C 132.850441 136.825 133.434236 136.583184 133.86461 136.15281 
C 134.294984 135.722436 134.5368 135.138641 134.5368 134.53 
C 134.5368 133.921359 134.294984 133.337564 133.86461 132.90719 
C 133.434236 132.476816 132.850441 132.235 132.2418 132.235 
C 131.633159 132.235 131.049364 132.476816 130.61899 132.90719 
C 130.188616 133.337564 129.9468 133.921359 129.9468 134.53 
C 129.9468 135.138641 130.188616 135.722436 130.61899 136.15281 
C 131.049364 136.583184 131.633159 136.825 132.2418 136.825 
z
" clip-path="url(#p91d4f32646)" style="stroke: #000000; stroke-width: 2; stroke-linejoin: miter"/>
   </g>
   <g id="text_16">
    <g clip-path="url(#p91d4f32646)">
     <!-- B -->
     <g transform="translate(127.953714 126.575391)scale(0.125 -0.125)">
      <defs>
       <path id="DejaVuSans-42" d="M 1259 2228 
L 1259 519 
L 2272 519 
Q 2781 519 3026 730 
Q 3272 941 3272 1375 
Q 3272 1813 3026 2020 
Q 2781 2228 2272 2228 
L 1259 2228 
z
M 1259 4147 
L 1259 2741 
L 2194 2741 
Q 2656 2741 2882 2914 
Q 3109 3088 3109 3444 
Q 3109 3797 2882 3972 
Q 2656 4147 2194 4147 
L 1259 4147 
z
M 628 4666 
L 2241 4666 
Q 2963 4666 3353 4366 
Q 3744 4066 3744 3513 
Q 3744 3084 3544 2831 
Q 3344 2578 2956 2516 
Q 3422 2416 3680 2098 
Q 3938 1781 3938 1306 
Q 3938 681 3513 340 
Q 3088 0 2303 0 
L 628 0 
L 628 4666 
z
" transform="scale(0.015625)"/>
      </defs>
      <use xlink:href="#DejaVuSans-42"/>
     </g>
    </g>
   </g>
   <g id="line2d_25">
    <path d="M 150.6018 134.53 
L 150.6018 134.53 
" clip-path="url(#p91d4f32646)" style="fill: none; stroke: #000000; stroke-width: 2; stroke-linecap: round"/>
   </g>
   <g id="patch_6">
    <path d="M 150.6018 139.12 
L 141.4218 134.53 
L 150.6018 129.94 
z
" clip-path="url(#p91d4f32646)"/>
   </g>
   <g id="text_17">
    <g clip-path="url(#p91d4f32646)">
     <!-- $I_c$ -->
     <g transform="translate(141.6993 122.750391)scale(0.125 -0.125)">
      <defs>
       <path id="STIXGeneral-Italic-63" d="M 2240 685 
L 2342 621 
Q 2048 250 1769 90 
Q 1491 -70 1133 -70 
Q 678 -70 435 179 
Q 192 429 192 915 
Q 192 1344 409 1744 
Q 627 2144 979 2432 
Q 1472 2822 2048 2822 
Q 2342 2822 2531 2675 
Q 2720 2528 2720 2304 
Q 2720 2176 2630 2086 
Q 2541 1997 2413 1997 
Q 2285 1997 2224 2070 
Q 2163 2144 2163 2253 
Q 2163 2310 2211 2403 
Q 2259 2496 2259 2560 
Q 2259 2688 2022 2688 
Q 1619 2688 1325 2381 
Q 742 1766 742 890 
Q 742 544 889 352 
Q 1037 160 1312 160 
Q 1562 160 1766 281 
Q 1971 403 2240 685 
z
" transform="scale(0.015625)"/>
      </defs>
      <use xlink:href="#STIXGeneral-Italic-49" transform="translate(0 0.703125)"/>
      <use xlink:href="#STIXGeneral-Italic-63" transform="translate(33.299988 -12.525)scale(0.7)"/>
     </g>
    </g>
   </g>
   <g id="patch_7">
    <path d="M 224.0418 136.825 
C 224.650441 136.825 225.234236 136.583184 225.66461 136.15281 
C 226.094984 135.722436 226.3368 135.138641 226.3368 134.53 
C 226.3368 133.921359 226.094984 133.337564 225.66461 132.90719 
C 225.234236 132.476816 224.650441 132.235 224.0418 132.235 
C 223.433159 132.235 222.849364 132.476816 222.41899 132.90719 
C 221.988616 133.337564 221.7468 133.921359 221.7468 134.53 
C 221.7468 135.138641 221.988616 135.722436 222.41899 136.15281 
C 222.849364 136.583184 223.433159 136.825 224.0418 136.825 
z
" clip-path="url(#p91d4f32646)" style="stroke: #000000; stroke-width: 2; stroke-linejoin: miter"/>
   </g>
   <g id="text_18">
    <g clip-path="url(#p91d4f32646)">
     <!-- C -->
     <g transform="translate(229.3968 137.979219)scale(0.125 -0.125)">
      <defs>
       <path id="DejaVuSans-43" d="M 4122 4306 
L 4122 3641 
Q 3803 3938 3442 4084 
Q 3081 4231 2675 4231 
Q 1875 4231 1450 3742 
Q 1025 3253 1025 2328 
Q 1025 1406 1450 917 
Q 1875 428 2675 428 
Q 3081 428 3442 575 
Q 3803 722 4122 1019 
L 4122 359 
Q 3791 134 3420 21 
Q 3050 -91 2638 -91 
Q 1578 -91 968 557 
Q 359 1206 359 2328 
Q 359 3453 968 4101 
Q 1578 4750 2638 4750 
Q 3056 4750 3426 4639 
Q 3797 4528 4122 4306 
z
" transform="scale(0.015625)"/>
      </defs>
      <use xlink:href="#DejaVuSans-43"/>
     </g>
    </g>
   </g>
   <g id="line2d_26">
    <path d="M 224.0418 207.97 
L 224.0418 207.97 
" clip-path="url(#p91d4f32646)" style="fill: none; stroke: #000000; stroke-width: 2; stroke-linecap: round"/>
   </g>
   <g id="patch_8">
    <path d="M 228.6318 207.97 
L 224.0418 217.15 
L 219.4518 207.97 
z
" clip-path="url(#p91d4f32646)"/>
   </g>
   <g id="text_19">
    <g clip-path="url(#p91d4f32646)">
     <!-- $I_d$ -->
     <g transform="translate(205.7368 216.009219)scale(0.125 -0.125)">
      <defs>
       <path id="STIXGeneral-Italic-64" d="M 3334 4371 
L 3373 4333 
L 3123 3360 
L 2739 1958 
Q 2323 429 2323 384 
Q 2323 256 2438 256 
Q 2522 256 2614 336 
Q 2707 416 2963 710 
L 3040 646 
Q 2547 -83 2099 -83 
Q 1978 -83 1907 -6 
Q 1837 70 1837 205 
Q 1837 397 1920 774 
Q 1645 307 1379 118 
Q 1114 -70 781 -70 
Q 461 -70 278 125 
Q 96 320 96 678 
Q 96 1440 713 2131 
Q 1331 2822 1965 2822 
Q 2163 2822 2256 2732 
Q 2349 2643 2381 2451 
L 2387 2451 
L 2675 3494 
Q 2765 3808 2765 3949 
Q 2765 4051 2694 4076 
Q 2624 4102 2355 4115 
L 2355 4224 
Q 2848 4269 3334 4371 
z
M 2278 2310 
Q 2278 2477 2185 2576 
Q 2093 2675 1978 2675 
Q 1677 2675 1395 2381 
Q 1075 2042 864 1571 
Q 653 1101 653 704 
Q 653 486 752 361 
Q 851 237 1024 237 
Q 1312 237 1606 550 
Q 1901 864 2089 1350 
Q 2278 1837 2278 2310 
z
" transform="scale(0.015625)"/>
      </defs>
      <use xlink:href="#STIXGeneral-Italic-49" transform="translate(0 0.703125)"/>
      <use xlink:href="#STIXGeneral-Italic-64" transform="translate(33.299988 -12.525)scale(0.7)"/>
     </g>
    </g>
   </g>
   <g id="line2d_27">
    <path d="M 132.2418 207.97 
L 132.2418 207.97 
" clip-path="url(#p91d4f32646)" style="fill: none; stroke: #000000; stroke-width: 2; stroke-linecap: round"/>
   </g>
   <g id="patch_9">
    <path d="M 136.8318 207.97 
L 132.2418 217.15 
L 127.6518 207.97 
z
" clip-path="url(#p91d4f32646)"/>
   </g>
   <g id="text_20">
    <g clip-path="url(#p91d4f32646)">
     <!-- $I_e$ -->
     <g transform="translate(114.4368 216.009219)scale(0.125 -0.125)">
      <defs>
       <path id="STIXGeneral-Italic-65" d="M 2291 698 
L 2368 621 
Q 1805 -70 1062 -70 
Q 672 -70 435 170 
Q 198 410 198 806 
Q 198 1555 796 2188 
Q 1395 2822 2112 2822 
Q 2362 2822 2499 2707 
Q 2637 2592 2637 2387 
Q 2637 1965 2147 1632 
Q 1658 1299 819 1190 
Q 755 1062 755 800 
Q 755 538 918 378 
Q 1082 218 1350 218 
Q 1562 218 1754 317 
Q 1946 416 2291 698 
z
M 973 1613 
L 864 1331 
Q 1581 1504 1894 1805 
Q 2214 2112 2214 2426 
Q 2214 2675 1990 2675 
Q 1722 2675 1430 2364 
Q 1139 2054 973 1613 
z
" transform="scale(0.015625)"/>
      </defs>
      <use xlink:href="#STIXGeneral-Italic-49" transform="translate(0 0.703125)"/>
      <use xlink:href="#STIXGeneral-Italic-65" transform="translate(33.299988 -12.525)scale(0.7)"/>
     </g>
    </g>
   </g>
   <g id="line2d_28">
    <path d="M 168.9618 42.73 
L 168.9618 42.73 
" clip-path="url(#p91d4f32646)" style="fill: none; stroke: #000000; stroke-width: 2; stroke-linecap: round"/>
   </g>
   <g id="patch_10">
    <path d="M 168.9618 38.14 
L 178.1418 42.73 
L 168.9618 47.32 
z
" clip-path="url(#p91d4f32646)"/>
   </g>
   <g id="text_21">
    <g clip-path="url(#p91d4f32646)">
     <!-- $I_f$ -->
     <g transform="translate(169.9268 30.05)scale(0.125 -0.125)">
      <defs>
       <path id="STIXGeneral-Italic-66" d="M 262 2739 
L 858 2739 
Q 1107 3546 1318 3846 
Q 1664 4339 2163 4339 
Q 2400 4339 2557 4227 
Q 2714 4115 2714 3942 
Q 2714 3834 2634 3750 
Q 2554 3667 2445 3667 
Q 2355 3667 2281 3737 
Q 2208 3808 2208 3917 
Q 2208 3981 2240 4038 
Q 2272 4096 2272 4115 
Q 2272 4198 2131 4198 
Q 1862 4198 1676 3849 
Q 1491 3501 1350 2739 
L 2035 2739 
L 1997 2534 
L 1306 2534 
L 845 486 
Q 435 -1325 -435 -1325 
Q -653 -1325 -797 -1213 
Q -941 -1101 -941 -934 
Q -941 -826 -870 -746 
Q -800 -666 -698 -666 
Q -589 -666 -521 -733 
Q -454 -800 -454 -902 
Q -454 -947 -483 -1001 
Q -512 -1056 -512 -1088 
Q -512 -1190 -384 -1190 
Q 13 -1190 237 -154 
L 800 2534 
L 218 2534 
L 262 2739 
z
" transform="scale(0.015625)"/>
      </defs>
      <use xlink:href="#STIXGeneral-Italic-49" transform="translate(0 0.703125)"/>
      <use xlink:href="#STIXGeneral-Italic-66" transform="translate(33.299988 -12.525)scale(0.7)"/>
     </g>
    </g>
   </g>
   <g id="line2d_29">
    <path d="M 40.4418 152.89 
L 40.4418 152.89 
" clip-path="url(#p91d4f32646)" style="fill: none; stroke: #000000; stroke-width: 2; stroke-linecap: round"/>
   </g>
   <g id="patch_11">
    <path d="M 35.8518 152.89 
L 40.4418 143.71 
L 45.0318 152.89 
z
" clip-path="url(#p91d4f32646)"/>
   </g>
   <g id="text_22">
    <g clip-path="url(#p91d4f32646)">
     <!-- $I_a$ -->
     <g transform="translate(22.1368 151.749219)scale(0.125 -0.125)">
      <use xlink:href="#STIXGeneral-Italic-49" transform="translate(0 0.703125)"/>
      <use xlink:href="#STIXGeneral-Italic-61" transform="translate(33.299988 -12.525)scale(0.7)"/>
     </g>
    </g>
   </g>
   <g id="patch_12">
    <path d="M 40.4418 136.825 
C 41.050441 136.825 41.634236 136.583184 42.06461 136.15281 
C 42.494984 135.722436 42.7368 135.138641 42.7368 134.53 
C 42.7368 133.921359 42.494984 133.337564 42.06461 132.90719 
C 41.634236 132.476816 41.050441 132.235 40.4418 132.235 
C 39.833159 132.235 39.249364 132.476816 38.81899 132.90719 
C 38.388616 133.337564 38.1468 133.921359 38.1468 134.53 
C 38.1468 135.138641 38.388616 135.722436 38.81899 136.15281 
C 39.249364 136.583184 39.833159 136.825 40.4418 136.825 
z
" clip-path="url(#p91d4f32646)" style="stroke: #000000; stroke-width: 2; stroke-linejoin: miter"/>
   </g>
   <g id="text_23">
    <g clip-path="url(#p91d4f32646)">
     <!-- A -->
     <g transform="translate(26.536019 137.979219)scale(0.125 -0.125)">
      <use xlink:href="#DejaVuSans-41"/>
     </g>
    </g>
   </g>
   <g id="line2d_30">
    <path d="M 113.8818 134.53 
L 113.8818 134.53 
" clip-path="url(#p91d4f32646)" style="fill: none; stroke: #000000; stroke-width: 2; stroke-linecap: round"/>
   </g>
   <g id="patch_13">
    <path d="M 113.8818 129.94 
L 123.0618 134.53 
L 113.8818 139.12 
z
" clip-path="url(#p91d4f32646)"/>
   </g>
   <g id="text_24">
    <g clip-path="url(#p91d4f32646)">
     <!-- $I_b$ -->
     <g transform="translate(113.9093 122.750391)scale(0.125 -0.125)">
      <use xlink:href="#STIXGeneral-Italic-49" transform="translate(0 0.703125)"/>
      <use xlink:href="#STIXGeneral-Italic-62" transform="translate(33.299988 -12.525)scale(0.7)"/>
     </g>
    </g>
   </g>
   <g id="patch_14">
    <path d="M 132.2418 136.825 
C 132.850441 136.825 133.434236 136.583184 133.86461 136.15281 
C 134.294984 135.722436 134.5368 135.138641 134.5368 134.53 
C 134.5368 133.921359 134.294984 133.337564 133.86461 132.90719 
C 133.434236 132.476816 132.850441 132.235 132.2418 132.235 
C 131.633159 132.235 131.049364 132.476816 130.61899 132.90719 
C 130.188616 133.337564 129.9468 133.921359 129.9468 134.53 
C 129.9468 135.138641 130.188616 135.722436 130.61899 136.15281 
C 131.049364 136.583184 131.633159 136.825 132.2418 136.825 
z
" clip-path="url(#p91d4f32646)" style="stroke: #000000; stroke-width: 2; stroke-linejoin: miter"/>
   </g>
   <g id="text_25">
    <g clip-path="url(#p91d4f32646)">
     <!-- B -->
     <g transform="translate(127.953714 126.575391)scale(0.125 -0.125)">
      <use xlink:href="#DejaVuSans-42"/>
     </g>
    </g>
   </g>
   <g id="line2d_31">
    <path d="M 150.6018 134.53 
L 150.6018 134.53 
" clip-path="url(#p91d4f32646)" style="fill: none; stroke: #000000; stroke-width: 2; stroke-linecap: round"/>
   </g>
   <g id="patch_15">
    <path d="M 150.6018 139.12 
L 141.4218 134.53 
L 150.6018 129.94 
z
" clip-path="url(#p91d4f32646)"/>
   </g>
   <g id="text_26">
    <g clip-path="url(#p91d4f32646)">
     <!-- $I_c$ -->
     <g transform="translate(141.6993 122.750391)scale(0.125 -0.125)">
      <use xlink:href="#STIXGeneral-Italic-49" transform="translate(0 0.703125)"/>
      <use xlink:href="#STIXGeneral-Italic-63" transform="translate(33.299988 -12.525)scale(0.7)"/>
     </g>
    </g>
   </g>
   <g id="patch_16">
    <path d="M 224.0418 136.825 
C 224.650441 136.825 225.234236 136.583184 225.66461 136.15281 
C 226.094984 135.722436 226.3368 135.138641 226.3368 134.53 
C 226.3368 133.921359 226.094984 133.337564 225.66461 132.90719 
C 225.234236 132.476816 224.650441 132.235 224.0418 132.235 
C 223.433159 132.235 222.849364 132.476816 222.41899 132.90719 
C 221.988616 133.337564 221.7468 133.921359 221.7468 134.53 
C 221.7468 135.138641 221.988616 135.722436 222.41899 136.15281 
C 222.849364 136.583184 223.433159 136.825 224.0418 136.825 
z
" clip-path="url(#p91d4f32646)" style="stroke: #000000; stroke-width: 2; stroke-linejoin: miter"/>
   </g>
   <g id="text_27">
    <g clip-path="url(#p91d4f32646)">
     <!-- C -->
     <g transform="translate(229.3968 137.979219)scale(0.125 -0.125)">
      <use xlink:href="#DejaVuSans-43"/>
     </g>
    </g>
   </g>
   <g id="line2d_32">
    <path d="M 224.0418 207.97 
L 224.0418 207.97 
" clip-path="url(#p91d4f32646)" style="fill: none; stroke: #000000; stroke-width: 2; stroke-linecap: round"/>
   </g>
   <g id="patch_17">
    <path d="M 228.6318 207.97 
L 224.0418 217.15 
L 219.4518 207.97 
z
" clip-path="url(#p91d4f32646)"/>
   </g>
   <g id="text_28">
    <g clip-path="url(#p91d4f32646)">
     <!-- $I_d$ -->
     <g transform="translate(205.7368 216.009219)scale(0.125 -0.125)">
      <use xlink:href="#STIXGeneral-Italic-49" transform="translate(0 0.703125)"/>
      <use xlink:href="#STIXGeneral-Italic-64" transform="translate(33.299988 -12.525)scale(0.7)"/>
     </g>
    </g>
   </g>
   <g id="line2d_33">
    <path d="M 132.2418 207.97 
L 132.2418 207.97 
" clip-path="url(#p91d4f32646)" style="fill: none; stroke: #000000; stroke-width: 2; stroke-linecap: round"/>
   </g>
   <g id="patch_18">
    <path d="M 136.8318 207.97 
L 132.2418 217.15 
L 127.6518 207.97 
z
" clip-path="url(#p91d4f32646)"/>
   </g>
   <g id="text_29">
    <g clip-path="url(#p91d4f32646)">
     <!-- $I_e$ -->
     <g transform="translate(114.4368 216.009219)scale(0.125 -0.125)">
      <use xlink:href="#STIXGeneral-Italic-49" transform="translate(0 0.703125)"/>
      <use xlink:href="#STIXGeneral-Italic-65" transform="translate(33.299988 -12.525)scale(0.7)"/>
     </g>
    </g>
   </g>
   <g id="line2d_34">
    <path d="M 168.9618 42.73 
L 168.9618 42.73 
" clip-path="url(#p91d4f32646)" style="fill: none; stroke: #000000; stroke-width: 2; stroke-linecap: round"/>
   </g>
   <g id="patch_19">
    <path d="M 168.9618 38.14 
L 178.1418 42.73 
L 168.9618 47.32 
z
" clip-path="url(#p91d4f32646)"/>
   </g>
   <g id="text_30">
    <g clip-path="url(#p91d4f32646)">
     <!-- $I_f$ -->
     <g transform="translate(169.9268 30.05)scale(0.125 -0.125)">
      <use xlink:href="#STIXGeneral-Italic-49" transform="translate(0 0.703125)"/>
      <use xlink:href="#STIXGeneral-Italic-66" transform="translate(33.299988 -12.525)scale(0.7)"/>
     </g>
    </g>
   </g>
  </g>
 </g>
 <defs>
  <clipPath id="p91d4f32646">
   <rect x="7.2" y="7.2" width="245.4936" height="242.08"/>
  </clipPath>
 </defs>
</svg>
