<?xml version="1.0" encoding="utf-8" standalone="no"?>
<!DOCTYPE svg PUBLIC "-//W3C//DTD SVG 1.1//EN"
  "http://www.w3.org/Graphics/SVG/1.1/DTD/svg11.dtd">
<svg xmlns:xlink="http://www.w3.org/1999/xlink" width="363.1176pt" height="247.81pt" viewBox="0 0 363.1176 247.81" xmlns="http://www.w3.org/2000/svg" version="1.1">
 <metadata>
  <rdf:RDF xmlns:dc="http://purl.org/dc/elements/1.1/" xmlns:cc="http://creativecommons.org/ns#" xmlns:rdf="http://www.w3.org/1999/02/22-rdf-syntax-ns#">
   <cc:Work>
    <dc:type rdf:resource="http://purl.org/dc/dcmitype/StillImage"/>
    <dc:date>2023-06-05T11:05:40.809774</dc:date>
    <dc:format>image/svg+xml</dc:format>
    <dc:creator>
     <cc:Agent>
      <dc:title>Matplotlib v3.5.2, https://matplotlib.org/</dc:title>
     </cc:Agent>
    </dc:creator>
   </cc:Work>
  </rdf:RDF>
 </metadata>
 <defs>
  <style type="text/css">*{stroke-linejoin: round; stroke-linecap: butt}</style>
 </defs>
 <g id="figure_1">
  <g id="patch_1">
   <path d="M 0 247.81 
L 363.1176 247.81 
L 363.1176 0 
L 0 0 
L 0 247.81 
z
" style="fill: none"/>
  </g>
  <g id="axes_1">
   <g id="patch_2">
    <path d="M 337.5576 187.06 
C 341.615207 187.06 345.507172 185.447895 348.376334 182.578734 
C 351.245495 179.709572 352.8576 175.817607 352.8576 171.76 
C 352.8576 167.702393 351.245495 163.810428 348.376334 160.941266 
C 345.507172 158.072105 341.615207 156.46 337.5576 156.46 
C 333.499993 156.46 329.608028 158.072105 326.738866 160.941266 
C 323.869705 163.810428 322.2576 167.702393 322.2576 171.76 
C 322.2576 175.817607 323.869705 179.709572 326.738866 182.578734 
C 329.608028 185.447895 333.499993 187.06 337.5576 187.06 
L 337.5576 187.06 
z
" clip-path="url(#p10cb66dc55)" style="fill: none; stroke: #000000; stroke-width: 2; stroke-linejoin: miter"/>
   </g>
   <g id="patch_3">
    <path d="M 245.7576 79.96 
C 249.815207 79.96 253.707172 78.347895 256.576334 75.478734 
C 259.445495 72.609572 261.0576 68.717607 261.0576 64.66 
C 261.0576 60.602393 259.445495 56.710428 256.576334 53.841266 
C 253.707172 50.972105 249.815207 49.36 245.7576 49.36 
C 241.699993 49.36 237.808028 50.972105 234.938866 53.841266 
C 232.069705 56.710428 230.4576 60.602393 230.4576 64.66 
C 230.4576 68.717607 232.069705 72.609572 234.938866 75.478734 
C 237.808028 78.347895 241.699993 79.96 245.7576 79.96 
L 245.7576 79.96 
z
" clip-path="url(#p10cb66dc55)" style="fill: none; stroke: #000000; stroke-width: 2; stroke-linejoin: miter"/>
   </g>
   <g id="patch_4">
    <path d="M 337.5576 187.06 
C 341.615207 187.06 345.507172 185.447895 348.376334 182.578734 
C 351.245495 179.709572 352.8576 175.817607 352.8576 171.76 
C 352.8576 167.702393 351.245495 163.810428 348.376334 160.941266 
C 345.507172 158.072105 341.615207 156.46 337.5576 156.46 
C 333.499993 156.46 329.608028 158.072105 326.738866 160.941266 
C 323.869705 163.810428 322.2576 167.702393 322.2576 171.76 
C 322.2576 175.817607 323.869705 179.709572 326.738866 182.578734 
C 329.608028 185.447895 333.499993 187.06 337.5576 187.06 
L 337.5576 187.06 
z
" clip-path="url(#p10cb66dc55)" style="fill: none; stroke: #000000; stroke-width: 2; stroke-linejoin: miter"/>
   </g>
   <g id="patch_5">
    <path d="M 245.7576 79.96 
C 249.815207 79.96 253.707172 78.347895 256.576334 75.478734 
C 259.445495 72.609572 261.0576 68.717607 261.0576 64.66 
C 261.0576 60.602393 259.445495 56.710428 256.576334 53.841266 
C 253.707172 50.972105 249.815207 49.36 245.7576 49.36 
C 241.699993 49.36 237.808028 50.972105 234.938866 53.841266 
C 232.069705 56.710428 230.4576 60.602393 230.4576 64.66 
C 230.4576 68.717607 232.069705 72.609572 234.938866 75.478734 
C 237.808028 78.347895 241.699993 79.96 245.7576 79.96 
L 245.7576 79.96 
z
" clip-path="url(#p10cb66dc55)" style="fill: none; stroke: #000000; stroke-width: 2; stroke-linejoin: miter"/>
   </g>
   <g id="line2d_1">
    <path d="M 153.9576 217.66 
L 153.9576 229.9 
L 146.3076 229.9 
L 153.9576 237.55 
L 161.6076 229.9 
L 153.9576 229.9 
" clip-path="url(#p10cb66dc55)" style="fill: none; stroke: #000000; stroke-width: 2; stroke-linecap: round"/>
   </g>
   <g id="line2d_2">
    <path d="M 153.9576 217.66 
L 108.0576 217.66 
L 62.1576 217.66 
" clip-path="url(#p10cb66dc55)" style="fill: none; stroke: #000000; stroke-width: 2; stroke-linecap: round"/>
   </g>
   <g id="line2d_3">
    <path d="M 62.1576 217.66 
L 62.1576 187.06 
L 46.8576 171.76 
L 62.1576 156.46 
L 77.4576 171.76 
L 62.1576 187.06 
M 62.1576 156.46 
L 62.1576 125.86 
" clip-path="url(#p10cb66dc55)" style="fill: none; stroke: #000000; stroke-width: 2; stroke-linecap: round"/>
   </g>
   <g id="line2d_4">
    <path d="M 62.1576 179.41 
L 62.1576 171.76 
" clip-path="url(#p10cb66dc55)" style="fill: none; stroke: #000000; stroke-width: 2; stroke-linecap: round"/>
   </g>
   <g id="patch_6">
    <path d="M 59.8626 171.76 
L 62.1576 164.11 
L 64.4526 171.76 
z
" clip-path="url(#p10cb66dc55)"/>
   </g>
   <g id="line2d_5">
    <path d="M 62.1576 125.86 
L 108.0576 125.86 
L 153.9576 125.86 
" clip-path="url(#p10cb66dc55)" style="fill: none; stroke: #000000; stroke-width: 2; stroke-linecap: round"/>
   </g>
   <g id="line2d_6">
    <path d="M 153.9576 125.86 
L 153.9576 156.46 
L 161.6076 159.01 
L 146.3076 164.11 
L 161.6076 169.21 
L 146.3076 174.31 
L 161.6076 179.41 
L 146.3076 184.51 
L 153.9576 187.06 
L 153.9576 217.66 
" clip-path="url(#p10cb66dc55)" style="fill: none; stroke: #000000; stroke-width: 2; stroke-linecap: round"/>
   </g>
   <g id="line2d_7">
    <path d="M 153.9576 125.86 
L 184.5576 125.86 
L 187.1076 118.21 
L 192.2076 133.51 
L 197.3076 118.21 
L 202.4076 133.51 
L 207.5076 118.21 
L 212.6076 133.51 
L 215.1576 125.86 
L 245.7576 125.86 
" clip-path="url(#p10cb66dc55)" style="fill: none; stroke: #000000; stroke-width: 2; stroke-linecap: round"/>
   </g>
   <g id="line2d_8">
    <path d="M 245.7576 125.86 
L 245.7576 156.46 
L 253.4076 159.01 
L 238.1076 164.11 
L 253.4076 169.21 
L 238.1076 174.31 
L 253.4076 179.41 
L 238.1076 184.51 
L 245.7576 187.06 
L 245.7576 217.66 
" clip-path="url(#p10cb66dc55)" style="fill: none; stroke: #000000; stroke-width: 2; stroke-linecap: round"/>
   </g>
   <g id="line2d_9">
    <path d="M 245.7576 125.86 
L 276.3576 125.86 
L 278.9076 118.21 
L 284.0076 133.51 
L 289.1076 118.21 
L 294.2076 133.51 
L 299.3076 118.21 
L 304.4076 133.51 
L 306.9576 125.86 
L 337.5576 125.86 
" clip-path="url(#p10cb66dc55)" style="fill: none; stroke: #000000; stroke-width: 2; stroke-linecap: round"/>
   </g>
   <g id="line2d_10">
    <path d="M 337.5576 125.86 
L 337.5576 156.46 
L 337.5576 156.46 
M 337.5576 187.06 
L 337.5576 187.06 
L 337.5576 217.66 
" clip-path="url(#p10cb66dc55)" style="fill: none; stroke: #000000; stroke-width: 2; stroke-linecap: round"/>
   </g>
   <g id="line2d_11">
    <path d="M 337.5576 171.76 
L 337.5576 179.41 
" clip-path="url(#p10cb66dc55)" style="fill: none; stroke: #000000; stroke-width: 2; stroke-linecap: round"/>
   </g>
   <g id="patch_7">
    <path d="M 335.2626 171.76 
L 337.5576 164.11 
L 339.8526 171.76 
z
" clip-path="url(#p10cb66dc55)"/>
   </g>
   <g id="line2d_12">
    <path d="M 337.5576 217.66 
L 245.7576 217.66 
L 153.9576 217.66 
" clip-path="url(#p10cb66dc55)" style="fill: none; stroke: #000000; stroke-width: 2; stroke-linecap: round"/>
   </g>
   <g id="line2d_13">
    <path d="M 153.9576 125.86 
L 153.9576 95.26 
L 153.9576 64.66 
" clip-path="url(#p10cb66dc55)" style="fill: none; stroke: #000000; stroke-width: 2; stroke-linecap: round"/>
   </g>
   <g id="line2d_14">
    <path d="M 153.9576 64.66 
L 230.4576 64.66 
L 230.4576 64.66 
M 261.0576 64.66 
L 261.0576 64.66 
L 337.5576 64.66 
" clip-path="url(#p10cb66dc55)" style="fill: none; stroke: #000000; stroke-width: 2; stroke-linecap: round"/>
   </g>
   <g id="line2d_15">
    <path d="M 238.1076 64.66 
L 245.7576 64.66 
" clip-path="url(#p10cb66dc55)" style="fill: none; stroke: #000000; stroke-width: 2; stroke-linecap: round"/>
   </g>
   <g id="patch_8">
    <path d="M 245.7576 62.365 
L 253.4076 64.66 
L 245.7576 66.955 
z
" clip-path="url(#p10cb66dc55)"/>
   </g>
   <g id="line2d_16">
    <path d="M 337.5576 64.66 
L 337.5576 95.26 
L 337.5576 125.86 
" clip-path="url(#p10cb66dc55)" style="fill: none; stroke: #000000; stroke-width: 2; stroke-linecap: round"/>
   </g>
   <g id="line2d_17">
    <path d="M 153.9576 217.66 
L 153.9576 229.9 
L 146.3076 229.9 
L 153.9576 237.55 
L 161.6076 229.9 
L 153.9576 229.9 
" clip-path="url(#p10cb66dc55)" style="fill: none; stroke: #000000; stroke-width: 2; stroke-linecap: round"/>
   </g>
   <g id="line2d_18">
    <path d="M 153.9576 217.66 
L 108.0576 217.66 
L 62.1576 217.66 
" clip-path="url(#p10cb66dc55)" style="fill: none; stroke: #000000; stroke-width: 2; stroke-linecap: round"/>
   </g>
   <g id="line2d_19">
    <path d="M 62.1576 217.66 
L 62.1576 187.06 
L 46.8576 171.76 
L 62.1576 156.46 
L 77.4576 171.76 
L 62.1576 187.06 
M 62.1576 156.46 
L 62.1576 125.86 
" clip-path="url(#p10cb66dc55)" style="fill: none; stroke: #000000; stroke-width: 2; stroke-linecap: round"/>
   </g>
   <g id="line2d_20">
    <path d="M 62.1576 179.41 
L 62.1576 171.76 
" clip-path="url(#p10cb66dc55)" style="fill: none; stroke: #000000; stroke-width: 2; stroke-linecap: round"/>
   </g>
   <g id="patch_9">
    <path d="M 59.8626 171.76 
L 62.1576 164.11 
L 64.4526 171.76 
z
" clip-path="url(#p10cb66dc55)"/>
   </g>
   <g id="line2d_21">
    <path d="M 62.1576 125.86 
L 108.0576 125.86 
L 153.9576 125.86 
" clip-path="url(#p10cb66dc55)" style="fill: none; stroke: #000000; stroke-width: 2; stroke-linecap: round"/>
   </g>
   <g id="line2d_22">
    <path d="M 153.9576 125.86 
L 153.9576 156.46 
L 161.6076 159.01 
L 146.3076 164.11 
L 161.6076 169.21 
L 146.3076 174.31 
L 161.6076 179.41 
L 146.3076 184.51 
L 153.9576 187.06 
L 153.9576 217.66 
" clip-path="url(#p10cb66dc55)" style="fill: none; stroke: #000000; stroke-width: 2; stroke-linecap: round"/>
   </g>
   <g id="line2d_23">
    <path d="M 153.9576 125.86 
L 184.5576 125.86 
L 187.1076 118.21 
L 192.2076 133.51 
L 197.3076 118.21 
L 202.4076 133.51 
L 207.5076 118.21 
L 212.6076 133.51 
L 215.1576 125.86 
L 245.7576 125.86 
" clip-path="url(#p10cb66dc55)" style="fill: none; stroke: #000000; stroke-width: 2; stroke-linecap: round"/>
   </g>
   <g id="line2d_24">
    <path d="M 245.7576 125.86 
L 245.7576 156.46 
L 253.4076 159.01 
L 238.1076 164.11 
L 253.4076 169.21 
L 238.1076 174.31 
L 253.4076 179.41 
L 238.1076 184.51 
L 245.7576 187.06 
L 245.7576 217.66 
" clip-path="url(#p10cb66dc55)" style="fill: none; stroke: #000000; stroke-width: 2; stroke-linecap: round"/>
   </g>
   <g id="line2d_25">
    <path d="M 245.7576 125.86 
L 276.3576 125.86 
L 278.9076 118.21 
L 284.0076 133.51 
L 289.1076 118.21 
L 294.2076 133.51 
L 299.3076 118.21 
L 304.4076 133.51 
L 306.9576 125.86 
L 337.5576 125.86 
" clip-path="url(#p10cb66dc55)" style="fill: none; stroke: #000000; stroke-width: 2; stroke-linecap: round"/>
   </g>
   <g id="line2d_26">
    <path d="M 337.5576 125.86 
L 337.5576 156.46 
L 337.5576 156.46 
M 337.5576 187.06 
L 337.5576 187.06 
L 337.5576 217.66 
" clip-path="url(#p10cb66dc55)" style="fill: none; stroke: #000000; stroke-width: 2; stroke-linecap: round"/>
   </g>
   <g id="line2d_27">
    <path d="M 337.5576 171.76 
L 337.5576 179.41 
" clip-path="url(#p10cb66dc55)" style="fill: none; stroke: #000000; stroke-width: 2; stroke-linecap: round"/>
   </g>
   <g id="patch_10">
    <path d="M 335.2626 171.76 
L 337.5576 164.11 
L 339.8526 171.76 
z
" clip-path="url(#p10cb66dc55)"/>
   </g>
   <g id="line2d_28">
    <path d="M 337.5576 217.66 
L 245.7576 217.66 
L 153.9576 217.66 
" clip-path="url(#p10cb66dc55)" style="fill: none; stroke: #000000; stroke-width: 2; stroke-linecap: round"/>
   </g>
   <g id="line2d_29">
    <path d="M 153.9576 125.86 
L 153.9576 95.26 
L 153.9576 64.66 
" clip-path="url(#p10cb66dc55)" style="fill: none; stroke: #000000; stroke-width: 2; stroke-linecap: round"/>
   </g>
   <g id="line2d_30">
    <path d="M 153.9576 64.66 
L 230.4576 64.66 
L 230.4576 64.66 
M 261.0576 64.66 
L 261.0576 64.66 
L 337.5576 64.66 
" clip-path="url(#p10cb66dc55)" style="fill: none; stroke: #000000; stroke-width: 2; stroke-linecap: round"/>
   </g>
   <g id="line2d_31">
    <path d="M 238.1076 64.66 
L 245.7576 64.66 
" clip-path="url(#p10cb66dc55)" style="fill: none; stroke: #000000; stroke-width: 2; stroke-linecap: round"/>
   </g>
   <g id="patch_11">
    <path d="M 245.7576 62.365 
L 253.4076 64.66 
L 245.7576 66.955 
z
" clip-path="url(#p10cb66dc55)"/>
   </g>
   <g id="line2d_32">
    <path d="M 337.5576 64.66 
L 337.5576 95.26 
L 337.5576 125.86 
" clip-path="url(#p10cb66dc55)" style="fill: none; stroke: #000000; stroke-width: 2; stroke-linecap: round"/>
   </g>
   <g id="text_1">
    <g clip-path="url(#p10cb66dc55)">
     <!-- $I_{S1}$ -->
     <g transform="translate(30.2976 168.210586)scale(0.125 -0.125)">
      <defs>
       <path id="STIXGeneral-Italic-49" d="M 2458 4179 
L 2458 4077 
Q 2189 4045 2102 3961 
Q 2016 3878 1933 3584 
L 1165 838 
Q 1069 499 1069 352 
Q 1069 224 1149 179 
Q 1229 134 1510 102 
L 1510 0 
L -51 0 
L -51 102 
Q 218 154 317 237 
Q 416 320 486 582 
L 1254 3405 
Q 1338 3699 1338 3802 
Q 1338 3930 1235 3997 
Q 1133 4064 877 4077 
L 877 4179 
L 2458 4179 
z
" transform="scale(0.015625)"/>
       <path id="STIXGeneral-Italic-53" d="M 3251 4269 
L 2995 2989 
L 2880 3008 
Q 2880 3539 2720 3795 
Q 2560 4051 2118 4051 
Q 1786 4051 1594 3881 
Q 1402 3712 1402 3411 
Q 1402 3168 1504 3005 
Q 1606 2842 2035 2413 
Q 2464 1978 2611 1715 
Q 2758 1453 2758 1133 
Q 2758 589 2390 237 
Q 2022 -115 1466 -115 
Q 1222 -115 800 32 
Q 595 109 499 109 
Q 288 109 224 -96 
L 109 -96 
L 326 1338 
L 454 1325 
Q 442 1267 442 1178 
Q 442 710 701 409 
Q 960 109 1363 109 
Q 1734 109 1968 336 
Q 2202 563 2202 928 
Q 2202 1139 2118 1308 
Q 2035 1478 1818 1715 
L 1568 1984 
Q 1549 2003 1459 2102 
Q 1370 2202 1318 2253 
Q 1030 2560 934 2755 
Q 838 2950 838 3213 
Q 838 3699 1168 3980 
Q 1498 4262 1978 4262 
Q 2310 4262 2522 4173 
Q 2707 4102 2816 4102 
Q 2925 4102 2982 4134 
Q 3040 4166 3104 4269 
L 3251 4269 
z
" transform="scale(0.015625)"/>
       <path id="STIXGeneral-Regular-31" d="M 2522 0 
L 755 0 
L 755 96 
Q 1107 115 1235 227 
Q 1363 339 1363 608 
L 1363 3482 
Q 1363 3795 1171 3795 
Q 1082 3795 883 3718 
L 710 3654 
L 710 3744 
L 1856 4326 
L 1914 4307 
L 1914 486 
Q 1914 275 2042 185 
Q 2170 96 2522 96 
L 2522 0 
z
" transform="scale(0.015625)"/>
      </defs>
      <use xlink:href="#STIXGeneral-Italic-49" transform="translate(0 0.703125)"/>
      <use xlink:href="#STIXGeneral-Italic-53" transform="translate(33.299988 -12.525)scale(0.7)"/>
      <use xlink:href="#STIXGeneral-Regular-31" transform="translate(68.299977 -12.525)scale(0.7)"/>
     </g>
    </g>
    <g clip-path="url(#p10cb66dc55)">
     <!-- $3V_O$ -->
     <g transform="translate(22.9226 182.207852)scale(0.125 -0.125)">
      <defs>
       <path id="STIXGeneral-Regular-33" d="M 390 3264 
L 288 3290 
Q 435 3770 748 4048 
Q 1062 4326 1542 4326 
Q 1990 4326 2265 4083 
Q 2541 3840 2541 3450 
Q 2541 2925 1946 2566 
Q 2298 2413 2477 2227 
Q 2758 1914 2758 1402 
Q 2758 890 2464 506 
Q 2246 211 1840 60 
Q 1434 -90 979 -90 
Q 262 -90 262 275 
Q 262 378 339 442 
Q 416 506 525 506 
Q 685 506 915 339 
Q 1197 141 1466 141 
Q 1818 141 2058 425 
Q 2298 710 2298 1120 
Q 2298 1856 1632 2048 
Q 1434 2112 979 2112 
L 979 2202 
Q 1338 2323 1517 2432 
Q 2035 2726 2035 3290 
Q 2035 3610 1852 3776 
Q 1670 3942 1344 3942 
Q 768 3942 390 3264 
z
" transform="scale(0.015625)"/>
       <path id="STIXGeneral-Italic-56" d="M 4403 4179 
L 4403 4077 
Q 4198 4070 4045 3821 
L 1658 -115 
L 1536 -115 
L 1011 3104 
Q 902 3776 828 3910 
Q 755 4045 486 4077 
L 486 4179 
L 2022 4179 
L 2022 4077 
Q 1722 4045 1629 3981 
Q 1536 3917 1536 3750 
Q 1536 3686 1542 3654 
L 1958 819 
L 3302 3123 
Q 3616 3661 3616 3859 
Q 3616 4032 3219 4077 
L 3219 4179 
L 4403 4179 
z
" transform="scale(0.015625)"/>
       <path id="STIXGeneral-Italic-4f" d="M 4474 2675 
Q 4474 1990 4106 1363 
Q 3738 736 3149 339 
Q 2477 -115 1779 -115 
Q 1146 -115 765 281 
Q 384 678 384 1382 
Q 384 1965 697 2582 
Q 1011 3200 1517 3642 
Q 2234 4262 3034 4262 
Q 3718 4269 4096 3840 
Q 4474 3411 4474 2675 
z
M 3802 3078 
Q 3802 3533 3581 3792 
Q 3360 4051 2976 4051 
Q 2342 4051 1786 3302 
Q 1446 2842 1251 2259 
Q 1056 1677 1056 1178 
Q 1056 653 1270 374 
Q 1485 96 1888 96 
Q 2477 96 2976 704 
Q 3354 1178 3578 1862 
Q 3802 2547 3802 3078 
z
" transform="scale(0.015625)"/>
      </defs>
      <use xlink:href="#STIXGeneral-Regular-33" transform="translate(0 0.40625)"/>
      <use xlink:href="#STIXGeneral-Italic-56" transform="translate(49.999985 0.40625)"/>
      <use xlink:href="#STIXGeneral-Italic-4f" transform="translate(111.099976 -12.821875)scale(0.7)"/>
     </g>
    </g>
   </g>
   <g id="text_2">
    <g clip-path="url(#p10cb66dc55)">
     <!-- $R_1$ -->
     <g transform="translate(130.6226 168.210586)scale(0.125 -0.125)">
      <defs>
       <path id="STIXGeneral-Italic-52" d="M 845 4179 
L 2458 4179 
Q 3078 4179 3420 3936 
Q 3763 3693 3763 3277 
Q 3763 2778 3341 2458 
Q 3091 2266 2502 2131 
L 3072 627 
Q 3181 333 3299 217 
Q 3418 102 3629 102 
L 3629 0 
L 2688 0 
L 1901 2074 
L 1478 2106 
L 1126 806 
Q 1043 512 1043 403 
Q 1043 256 1126 192 
Q 1210 128 1472 102 
L 1472 0 
L -83 0 
L -83 102 
Q 173 134 278 243 
Q 384 352 461 646 
L 1222 3405 
Q 1299 3699 1299 3808 
Q 1299 3923 1210 3987 
Q 1133 4038 845 4077 
L 845 4179 
z
M 1958 3795 
L 1555 2342 
Q 1754 2310 1882 2310 
Q 2451 2310 2771 2566 
Q 3091 2822 3091 3270 
Q 3091 3603 2892 3795 
Q 2694 3987 2323 3987 
Q 2010 3987 1958 3795 
z
" transform="scale(0.015625)"/>
      </defs>
      <use xlink:href="#STIXGeneral-Italic-52" transform="translate(0 0.703125)"/>
      <use xlink:href="#STIXGeneral-Regular-31" transform="translate(61.099991 -12.525)scale(0.7)"/>
     </g>
    </g>
    <g clip-path="url(#p10cb66dc55)">
     <!-- $10~\Omega$ -->
     <g transform="translate(118.3726 182.207852)scale(0.125 -0.125)">
      <defs>
       <path id="STIXGeneral-Regular-30" d="M 3046 2112 
Q 3046 1683 2963 1302 
Q 2880 922 2717 602 
Q 2554 282 2266 96 
Q 1978 -90 1600 -90 
Q 1210 -90 915 108 
Q 621 307 461 640 
Q 301 973 227 1350 
Q 154 1728 154 2150 
Q 154 2746 301 3222 
Q 448 3699 790 4012 
Q 1133 4326 1626 4326 
Q 2253 4326 2649 3712 
Q 3046 3098 3046 2112 
z
M 2432 2080 
Q 2432 3091 2217 3625 
Q 2003 4160 1587 4160 
Q 1190 4160 979 3622 
Q 768 3085 768 2106 
Q 768 1120 979 598 
Q 1190 77 1600 77 
Q 2003 77 2217 598 
Q 2432 1120 2432 2080 
z
" transform="scale(0.015625)"/>
       <path id="STIXGeneral-Regular-3a9" d="M 4576 0 
L 2746 0 
L 2790 1030 
Q 3187 1126 3440 1574 
Q 3693 2022 3693 2554 
Q 3693 3251 3344 3673 
Q 2995 4096 2380 4096 
Q 1766 4096 1417 3635 
Q 1069 3174 1069 2554 
Q 1069 2054 1315 1600 
Q 1562 1146 1965 1030 
L 2022 0 
L 186 0 
L 186 1094 
L 346 1094 
Q 352 806 438 707 
Q 525 608 742 608 
L 1709 608 
L 1696 845 
Q 1018 1037 678 1446 
Q 339 1856 339 2541 
Q 339 3238 899 3782 
Q 1459 4326 2380 4326 
Q 3302 4326 3862 3804 
Q 4422 3283 4422 2541 
Q 4422 1235 3046 845 
L 3034 608 
L 4019 608 
Q 4397 608 4416 1082 
L 4576 1082 
L 4576 0 
z
" transform="scale(0.015625)"/>
      </defs>
      <use xlink:href="#STIXGeneral-Regular-31" transform="translate(0 0.40625)"/>
      <use xlink:href="#STIXGeneral-Regular-30" transform="translate(49.999985 0.40625)"/>
      <use xlink:href="#STIXGeneral-Regular-3a9" transform="translate(124.066389 0.40625)"/>
     </g>
    </g>
   </g>
   <g id="text_3">
    <g clip-path="url(#p10cb66dc55)">
     <!-- $R_2$ -->
     <g transform="translate(193.5451 98.553125)scale(0.125 -0.125)">
      <defs>
       <path id="STIXGeneral-Regular-32" d="M 3034 877 
L 2688 0 
L 186 0 
L 186 77 
L 1325 1286 
Q 1773 1754 1965 2144 
Q 2157 2534 2157 2950 
Q 2157 3379 1920 3616 
Q 1683 3853 1267 3853 
Q 922 3853 720 3673 
Q 518 3494 326 3021 
L 192 3053 
Q 301 3648 630 3987 
Q 960 4326 1523 4326 
Q 2054 4326 2380 4006 
Q 2707 3686 2707 3200 
Q 2707 2477 1888 1613 
L 832 486 
L 2330 486 
Q 2541 486 2665 569 
Q 2790 653 2944 915 
L 3034 877 
z
" transform="scale(0.015625)"/>
      </defs>
      <use xlink:href="#STIXGeneral-Italic-52" transform="translate(0 0.703125)"/>
      <use xlink:href="#STIXGeneral-Regular-32" transform="translate(61.099991 -12.525)scale(0.7)"/>
     </g>
    </g>
    <g clip-path="url(#p10cb66dc55)">
     <!-- $4~\Omega$ -->
     <g transform="translate(190.5451 112.550391)scale(0.125 -0.125)">
      <defs>
       <path id="STIXGeneral-Regular-34" d="M 3027 1069 
L 2368 1069 
L 2368 0 
L 1869 0 
L 1869 1069 
L 77 1069 
L 77 1478 
L 2086 4326 
L 2368 4326 
L 2368 1478 
L 3027 1478 
L 3027 1069 
z
M 1869 1478 
L 1869 3674 
L 333 1478 
L 1869 1478 
z
" transform="scale(0.015625)"/>
      </defs>
      <use xlink:href="#STIXGeneral-Regular-34" transform="translate(0 0.40625)"/>
      <use xlink:href="#STIXGeneral-Regular-3a9" transform="translate(74.066405 0.40625)"/>
     </g>
    </g>
   </g>
   <g id="text_4">
    <g clip-path="url(#p10cb66dc55)">
     <!-- $R_3$ -->
     <g transform="translate(222.4226 168.210586)scale(0.125 -0.125)">
      <use xlink:href="#STIXGeneral-Italic-52" transform="translate(0 0.703125)"/>
      <use xlink:href="#STIXGeneral-Regular-33" transform="translate(61.099991 -12.525)scale(0.7)"/>
     </g>
    </g>
    <g clip-path="url(#p10cb66dc55)">
     <!-- $5~\Omega$ -->
     <g transform="translate(216.4226 182.207852)scale(0.125 -0.125)">
      <defs>
       <path id="STIXGeneral-Regular-35" d="M 2803 4358 
L 2573 3814 
Q 2534 3731 2400 3731 
L 1158 3731 
L 902 3187 
Q 1606 3053 1920 2896 
Q 2234 2739 2502 2368 
Q 2726 2061 2726 1555 
Q 2726 1094 2576 780 
Q 2426 467 2099 224 
Q 1664 -90 1011 -90 
Q 646 -90 422 19 
Q 198 128 198 307 
Q 198 550 486 550 
Q 717 550 960 352 
Q 1210 147 1414 147 
Q 1747 147 2012 480 
Q 2278 813 2278 1229 
Q 2278 1843 1850 2189 
Q 1293 2637 486 2637 
Q 410 2637 410 2688 
L 416 2720 
L 1114 4237 
L 2438 4237 
Q 2547 4237 2608 4269 
Q 2669 4301 2746 4403 
L 2803 4358 
z
" transform="scale(0.015625)"/>
      </defs>
      <use xlink:href="#STIXGeneral-Regular-35" transform="translate(0 0.203125)"/>
      <use xlink:href="#STIXGeneral-Regular-3a9" transform="translate(74.066405 0.203125)"/>
     </g>
    </g>
   </g>
   <g id="text_5">
    <g clip-path="url(#p10cb66dc55)">
     <!-- $R_4$ -->
     <g transform="translate(285.3451 98.553125)scale(0.125 -0.125)">
      <use xlink:href="#STIXGeneral-Italic-52" transform="translate(0 0.703125)"/>
      <use xlink:href="#STIXGeneral-Regular-34" transform="translate(61.099991 -12.525)scale(0.7)"/>
     </g>
    </g>
    <g clip-path="url(#p10cb66dc55)">
     <!-- $2~\Omega$ -->
     <g transform="translate(282.3451 112.550391)scale(0.125 -0.125)">
      <use xlink:href="#STIXGeneral-Regular-32" transform="translate(0 0.40625)"/>
      <use xlink:href="#STIXGeneral-Regular-3a9" transform="translate(74.066405 0.40625)"/>
     </g>
    </g>
   </g>
   <g id="text_6">
    <g clip-path="url(#p10cb66dc55)">
     <!-- - -->
     <g transform="translate(266.452717 146.068047)scale(0.125 -0.125)">
      <defs>
       <path id="DejaVuSans-2d" d="M 313 2009 
L 1997 2009 
L 1997 1497 
L 313 1497 
L 313 2009 
z
" transform="scale(0.015625)"/>
      </defs>
      <use xlink:href="#DejaVuSans-2d"/>
     </g>
    </g>
   </g>
   <g id="text_7">
    <g clip-path="url(#p10cb66dc55)">
     <!-- $V_O$ -->
     <g transform="translate(284.3451 146.068047)scale(0.125 -0.125)">
      <use xlink:href="#STIXGeneral-Italic-56" transform="translate(0 0.703125)"/>
      <use xlink:href="#STIXGeneral-Italic-4f" transform="translate(61.099991 -12.525)scale(0.7)"/>
     </g>
    </g>
   </g>
   <g id="text_8">
    <g clip-path="url(#p10cb66dc55)">
     <!-- + -->
     <g transform="translate(309.370295 146.068047)scale(0.125 -0.125)">
      <defs>
       <path id="DejaVuSans-2b" d="M 2944 4013 
L 2944 2272 
L 4684 2272 
L 4684 1741 
L 2944 1741 
L 2944 0 
L 2419 0 
L 2419 1741 
L 678 1741 
L 678 2272 
L 2419 2272 
L 2419 4013 
L 2944 4013 
z
" transform="scale(0.015625)"/>
      </defs>
      <use xlink:href="#DejaVuSans-2b"/>
     </g>
    </g>
   </g>
   <g id="text_9">
    <g clip-path="url(#p10cb66dc55)">
     <!-- $I_{S3}$ -->
     <g transform="translate(305.6976 168.210586)scale(0.125 -0.125)">
      <use xlink:href="#STIXGeneral-Italic-49" transform="translate(0 0.703125)"/>
      <use xlink:href="#STIXGeneral-Italic-53" transform="translate(33.299988 -12.525)scale(0.7)"/>
      <use xlink:href="#STIXGeneral-Regular-33" transform="translate(68.299977 -12.525)scale(0.7)"/>
     </g>
    </g>
    <g clip-path="url(#p10cb66dc55)">
     <!-- $4~A$ -->
     <g transform="translate(302.1976 182.207852)scale(0.125 -0.125)">
      <defs>
       <path id="STIXGeneral-Italic-41" d="M 3610 0 
L 2042 0 
L 2042 102 
Q 2330 115 2432 192 
Q 2534 269 2534 442 
Q 2534 493 2522 608 
L 2394 1446 
L 986 1446 
L 608 736 
Q 467 474 467 314 
Q 467 122 864 102 
L 864 0 
L -326 0 
L -326 102 
Q -109 147 28 307 
Q 166 467 531 1101 
L 2355 4275 
L 2522 4275 
L 3110 736 
Q 3174 339 3264 230 
Q 3354 122 3610 102 
L 3610 0 
z
M 2362 1677 
L 2074 3360 
L 1120 1677 
L 2362 1677 
z
" transform="scale(0.015625)"/>
      </defs>
      <use xlink:href="#STIXGeneral-Regular-34" transform="translate(0 0.40625)"/>
      <use xlink:href="#STIXGeneral-Italic-41" transform="translate(74.066405 0.40625)"/>
     </g>
    </g>
   </g>
   <g id="text_10">
    <g clip-path="url(#p10cb66dc55)">
     <!-- $I_{S2}$ -->
     <g transform="translate(239.0076 29.703125)scale(0.125 -0.125)">
      <use xlink:href="#STIXGeneral-Italic-49" transform="translate(0 0.703125)"/>
      <use xlink:href="#STIXGeneral-Italic-53" transform="translate(33.299988 -12.525)scale(0.7)"/>
      <use xlink:href="#STIXGeneral-Regular-32" transform="translate(68.299977 -12.525)scale(0.7)"/>
     </g>
    </g>
    <g clip-path="url(#p10cb66dc55)">
     <!-- $2~A$ -->
     <g transform="translate(237.2576 43.700391)scale(0.125 -0.125)">
      <use xlink:href="#STIXGeneral-Regular-32" transform="translate(0 0.40625)"/>
      <use xlink:href="#STIXGeneral-Italic-41" transform="translate(74.066405 0.40625)"/>
     </g>
    </g>
   </g>
   <g id="text_11">
    <g clip-path="url(#p10cb66dc55)">
     <!-- $I_{S1}$ -->
     <g transform="translate(30.2976 168.210586)scale(0.125 -0.125)">
      <use xlink:href="#STIXGeneral-Italic-49" transform="translate(0 0.703125)"/>
      <use xlink:href="#STIXGeneral-Italic-53" transform="translate(33.299988 -12.525)scale(0.7)"/>
      <use xlink:href="#STIXGeneral-Regular-31" transform="translate(68.299977 -12.525)scale(0.7)"/>
     </g>
    </g>
    <g clip-path="url(#p10cb66dc55)">
     <!-- $3V_O$ -->
     <g transform="translate(22.9226 182.207852)scale(0.125 -0.125)">
      <use xlink:href="#STIXGeneral-Regular-33" transform="translate(0 0.40625)"/>
      <use xlink:href="#STIXGeneral-Italic-56" transform="translate(49.999985 0.40625)"/>
      <use xlink:href="#STIXGeneral-Italic-4f" transform="translate(111.099976 -12.821875)scale(0.7)"/>
     </g>
    </g>
   </g>
   <g id="text_12">
    <g clip-path="url(#p10cb66dc55)">
     <!-- $R_1$ -->
     <g transform="translate(130.6226 168.210586)scale(0.125 -0.125)">
      <use xlink:href="#STIXGeneral-Italic-52" transform="translate(0 0.703125)"/>
      <use xlink:href="#STIXGeneral-Regular-31" transform="translate(61.099991 -12.525)scale(0.7)"/>
     </g>
    </g>
    <g clip-path="url(#p10cb66dc55)">
     <!-- $10~\Omega$ -->
     <g transform="translate(118.3726 182.207852)scale(0.125 -0.125)">
      <use xlink:href="#STIXGeneral-Regular-31" transform="translate(0 0.40625)"/>
      <use xlink:href="#STIXGeneral-Regular-30" transform="translate(49.999985 0.40625)"/>
      <use xlink:href="#STIXGeneral-Regular-3a9" transform="translate(124.066389 0.40625)"/>
     </g>
    </g>
   </g>
   <g id="text_13">
    <g clip-path="url(#p10cb66dc55)">
     <!-- $R_2$ -->
     <g transform="translate(193.5451 98.553125)scale(0.125 -0.125)">
      <use xlink:href="#STIXGeneral-Italic-52" transform="translate(0 0.703125)"/>
      <use xlink:href="#STIXGeneral-Regular-32" transform="translate(61.099991 -12.525)scale(0.7)"/>
     </g>
    </g>
    <g clip-path="url(#p10cb66dc55)">
     <!-- $4~\Omega$ -->
     <g transform="translate(190.5451 112.550391)scale(0.125 -0.125)">
      <use xlink:href="#STIXGeneral-Regular-34" transform="translate(0 0.40625)"/>
      <use xlink:href="#STIXGeneral-Regular-3a9" transform="translate(74.066405 0.40625)"/>
     </g>
    </g>
   </g>
   <g id="text_14">
    <g clip-path="url(#p10cb66dc55)">
     <!-- $R_3$ -->
     <g transform="translate(222.4226 168.210586)scale(0.125 -0.125)">
      <use xlink:href="#STIXGeneral-Italic-52" transform="translate(0 0.703125)"/>
      <use xlink:href="#STIXGeneral-Regular-33" transform="translate(61.099991 -12.525)scale(0.7)"/>
     </g>
    </g>
    <g clip-path="url(#p10cb66dc55)">
     <!-- $5~\Omega$ -->
     <g transform="translate(216.4226 182.207852)scale(0.125 -0.125)">
      <use xlink:href="#STIXGeneral-Regular-35" transform="translate(0 0.203125)"/>
      <use xlink:href="#STIXGeneral-Regular-3a9" transform="translate(74.066405 0.203125)"/>
     </g>
    </g>
   </g>
   <g id="text_15">
    <g clip-path="url(#p10cb66dc55)">
     <!-- $R_4$ -->
     <g transform="translate(285.3451 98.553125)scale(0.125 -0.125)">
      <use xlink:href="#STIXGeneral-Italic-52" transform="translate(0 0.703125)"/>
      <use xlink:href="#STIXGeneral-Regular-34" transform="translate(61.099991 -12.525)scale(0.7)"/>
     </g>
    </g>
    <g clip-path="url(#p10cb66dc55)">
     <!-- $2~\Omega$ -->
     <g transform="translate(282.3451 112.550391)scale(0.125 -0.125)">
      <use xlink:href="#STIXGeneral-Regular-32" transform="translate(0 0.40625)"/>
      <use xlink:href="#STIXGeneral-Regular-3a9" transform="translate(74.066405 0.40625)"/>
     </g>
    </g>
   </g>
   <g id="text_16">
    <g clip-path="url(#p10cb66dc55)">
     <!-- - -->
     <g transform="translate(266.452717 146.068047)scale(0.125 -0.125)">
      <use xlink:href="#DejaVuSans-2d"/>
     </g>
    </g>
   </g>
   <g id="text_17">
    <g clip-path="url(#p10cb66dc55)">
     <!-- $V_O$ -->
     <g transform="translate(284.3451 146.068047)scale(0.125 -0.125)">
      <use xlink:href="#STIXGeneral-Italic-56" transform="translate(0 0.703125)"/>
      <use xlink:href="#STIXGeneral-Italic-4f" transform="translate(61.099991 -12.525)scale(0.7)"/>
     </g>
    </g>
   </g>
   <g id="text_18">
    <g clip-path="url(#p10cb66dc55)">
     <!-- + -->
     <g transform="translate(309.370295 146.068047)scale(0.125 -0.125)">
      <use xlink:href="#DejaVuSans-2b"/>
     </g>
    </g>
   </g>
   <g id="text_19">
    <g clip-path="url(#p10cb66dc55)">
     <!-- $I_{S3}$ -->
     <g transform="translate(305.6976 168.210586)scale(0.125 -0.125)">
      <use xlink:href="#STIXGeneral-Italic-49" transform="translate(0 0.703125)"/>
      <use xlink:href="#STIXGeneral-Italic-53" transform="translate(33.299988 -12.525)scale(0.7)"/>
      <use xlink:href="#STIXGeneral-Regular-33" transform="translate(68.299977 -12.525)scale(0.7)"/>
     </g>
    </g>
    <g clip-path="url(#p10cb66dc55)">
     <!-- $4~A$ -->
     <g transform="translate(302.1976 182.207852)scale(0.125 -0.125)">
      <use xlink:href="#STIXGeneral-Regular-34" transform="translate(0 0.40625)"/>
      <use xlink:href="#STIXGeneral-Italic-41" transform="translate(74.066405 0.40625)"/>
     </g>
    </g>
   </g>
   <g id="text_20">
    <g clip-path="url(#p10cb66dc55)">
     <!-- $I_{S2}$ -->
     <g transform="translate(239.0076 29.703125)scale(0.125 -0.125)">
      <use xlink:href="#STIXGeneral-Italic-49" transform="translate(0 0.703125)"/>
      <use xlink:href="#STIXGeneral-Italic-53" transform="translate(33.299988 -12.525)scale(0.7)"/>
      <use xlink:href="#STIXGeneral-Regular-32" transform="translate(68.299977 -12.525)scale(0.7)"/>
     </g>
    </g>
    <g clip-path="url(#p10cb66dc55)">
     <!-- $2~A$ -->
     <g transform="translate(237.2576 43.700391)scale(0.125 -0.125)">
      <use xlink:href="#STIXGeneral-Regular-32" transform="translate(0 0.40625)"/>
      <use xlink:href="#STIXGeneral-Italic-41" transform="translate(74.066405 0.40625)"/>
     </g>
    </g>
   </g>
  </g>
 </g>
 <defs>
  <clipPath id="p10cb66dc55">
   <rect x="7.2" y="7.2" width="348.7176" height="233.41"/>
  </clipPath>
 </defs>
</svg>
