<?xml version="1.0" encoding="utf-8" standalone="no"?>
<!DOCTYPE svg PUBLIC "-//W3C//DTD SVG 1.1//EN"
  "http://www.w3.org/Graphics/SVG/1.1/DTD/svg11.dtd">
<svg xmlns:xlink="http://www.w3.org/1999/xlink" width="371.247pt" height="156.86pt" viewBox="0 0 371.247 156.86" xmlns="http://www.w3.org/2000/svg" version="1.1">
 <metadata>
  <rdf:RDF xmlns:dc="http://purl.org/dc/elements/1.1/" xmlns:cc="http://creativecommons.org/ns#" xmlns:rdf="http://www.w3.org/1999/02/22-rdf-syntax-ns#">
   <cc:Work>
    <dc:type rdf:resource="http://purl.org/dc/dcmitype/StillImage"/>
    <dc:date>2023-03-24T15:53:58.072582</dc:date>
    <dc:format>image/svg+xml</dc:format>
    <dc:creator>
     <cc:Agent>
      <dc:title>Matplotlib v3.5.2, https://matplotlib.org/</dc:title>
     </cc:Agent>
    </dc:creator>
   </cc:Work>
  </rdf:RDF>
 </metadata>
 <defs>
  <style type="text/css">*{stroke-linejoin: round; stroke-linecap: butt}</style>
 </defs>
 <g id="figure_1">
  <g id="patch_1">
   <path d="M 0 156.86 
L 371.247 156.86 
L 371.247 0 
L 0 0 
L 0 156.86 
z
" style="fill: none"/>
  </g>
  <g id="axes_1">
   <g id="patch_2">
    <path d="M 208.395 146.6 
L 208.54065 146.598844 
L 208.686262 146.595378 
L 208.831802 146.589602 
L 208.977232 146.581518 
L 209.122515 146.571127 
L 209.267614 146.558432 
L 209.412495 146.543437 
L 209.557119 146.526145 
L 209.70145 146.506561 
L 209.845453 146.484689 
L 209.98909 146.460535 
L 210.132326 146.434105 
L 210.275125 146.405406 
L 210.417451 146.374445 
L 210.559267 146.34123 
L 210.700539 146.305769 
L 210.84123 146.268071 
L 210.981305 146.228145 
L 211.120729 146.186003 
L 211.259467 146.141653 
L 211.397484 146.095108 
L 211.534745 146.046378 
L 211.671216 145.995477 
L 211.806861 145.942418 
L 211.941648 145.887212 
L 212.075542 145.829876 
L 212.20851 145.770422 
L 212.340517 145.708866 
L 212.471532 145.645223 
L 212.601519 145.579509 
L 212.730448 145.511742 
L 212.858286 145.441937 
L 212.985 145.370113 
L 213.110558 145.296288 
L 213.23493 145.220479 
L 213.358083 145.142707 
L 213.479986 145.062991 
L 213.60061 144.981351 
L 213.719922 144.897807 
L 213.837895 144.812381 
L 213.954497 144.725094 
L 214.069699 144.635967 
L 214.183473 144.545025 
L 214.29579 144.452288 
L 214.406622 144.357781 
L 214.515939 144.261528 
L 214.623716 144.163552 
L 214.729925 144.063878 
L 214.834539 143.962532 
L 214.937532 143.859539 
L 215.038878 143.754925 
L 215.138552 143.648716 
L 215.236528 143.540939 
L 215.332781 143.431622 
L 215.427288 143.32079 
L 215.520025 143.208473 
L 215.610967 143.094699 
L 215.700094 142.979497 
L 215.787381 142.862895 
L 215.872807 142.744922 
L 215.956351 142.62561 
L 216.037991 142.504986 
L 216.117707 142.383083 
L 216.195479 142.25993 
L 216.271288 142.135558 
L 216.345113 142.01 
L 216.416937 141.883286 
L 216.486742 141.755448 
L 216.554509 141.626519 
L 216.620223 141.496532 
L 216.683866 141.365517 
L 216.745422 141.23351 
L 216.804876 141.100542 
L 216.862212 140.966648 
L 216.917418 140.831861 
L 216.970477 140.696216 
L 217.021378 140.559745 
L 217.070108 140.422484 
L 217.116653 140.284467 
L 217.161003 140.145729 
L 217.203145 140.006305 
L 217.243071 139.86623 
L 217.280769 139.725539 
L 217.31623 139.584267 
L 217.349445 139.442451 
L 217.380406 139.300125 
L 217.409105 139.157326 
L 217.435535 139.01409 
L 217.459689 138.870453 
L 217.481561 138.72645 
L 217.501145 138.582119 
L 217.518437 138.437495 
L 217.533432 138.292614 
L 217.546127 138.147515 
L 217.556518 138.002232 
L 217.564602 137.856802 
L 217.570378 137.711262 
L 217.573844 137.56565 
L 217.575 137.42 
L 217.575 44.09 
L 217.573844 43.94435 
L 217.570378 43.798738 
L 217.564602 43.653198 
L 217.556518 43.507768 
L 217.546127 43.362485 
L 217.533432 43.217386 
L 217.518437 43.072505 
L 217.501145 42.927881 
L 217.481561 42.78355 
L 217.459689 42.639547 
L 217.435535 42.49591 
L 217.409105 42.352674 
L 217.380406 42.209875 
L 217.349445 42.067549 
L 217.31623 41.925733 
L 217.280769 41.784461 
L 217.243071 41.64377 
L 217.203145 41.503695 
L 217.161003 41.364271 
L 217.116653 41.225533 
L 217.070108 41.087516 
L 217.021378 40.950255 
L 216.970477 40.813784 
L 216.917418 40.678139 
L 216.862212 40.543352 
L 216.804876 40.409458 
L 216.745422 40.27649 
L 216.683866 40.144483 
L 216.620223 40.013468 
L 216.554509 39.883481 
L 216.486742 39.754552 
L 216.416937 39.626714 
L 216.345113 39.5 
L 216.271288 39.374442 
L 216.195479 39.25007 
L 216.117707 39.126917 
L 216.037991 39.005014 
L 215.956351 38.88439 
L 215.872807 38.765078 
L 215.787381 38.647105 
L 215.700094 38.530503 
L 215.610967 38.415301 
L 215.520025 38.301527 
L 215.427288 38.18921 
L 215.332781 38.078378 
L 215.236528 37.969061 
L 215.138552 37.861284 
L 215.038878 37.755075 
L 214.937532 37.650461 
L 214.834539 37.547468 
L 214.729925 37.446122 
L 214.623716 37.346448 
L 214.515939 37.248472 
L 214.406622 37.152219 
L 214.29579 37.057712 
L 214.183473 36.964975 
L 214.069699 36.874033 
L 213.954497 36.784906 
L 213.837895 36.697619 
L 213.719922 36.612193 
L 213.60061 36.528649 
L 213.479986 36.447009 
L 213.358083 36.367293 
L 213.23493 36.289521 
L 213.110558 36.213712 
L 212.985 36.139887 
L 212.858286 36.068063 
L 212.730448 35.998258 
L 212.601519 35.930491 
L 212.471532 35.864777 
L 212.340517 35.801134 
L 212.20851 35.739578 
L 212.075542 35.680124 
L 211.941648 35.622788 
L 211.806861 35.567582 
L 211.671216 35.514523 
L 211.534745 35.463622 
L 211.397484 35.414892 
L 211.259467 35.368347 
L 211.120729 35.323997 
L 210.981305 35.281855 
L 210.84123 35.241929 
L 210.700539 35.204231 
L 210.559267 35.16877 
L 210.417451 35.135555 
L 210.275125 35.104594 
L 210.132326 35.075895 
L 209.98909 35.049465 
L 209.845453 35.025311 
L 209.70145 35.003439 
L 209.557119 34.983855 
L 209.412495 34.966563 
L 209.267614 34.951568 
L 209.122515 34.938873 
L 208.977232 34.928482 
L 208.831802 34.920398 
L 208.686262 34.914622 
L 208.54065 34.911156 
L 208.395 34.91 
L 19.44 34.91 
L 19.29435 34.911156 
L 19.148738 34.914622 
L 19.003198 34.920398 
L 18.857768 34.928482 
L 18.712485 34.938873 
L 18.567386 34.951568 
L 18.422505 34.966563 
L 18.277881 34.983855 
L 18.13355 35.003439 
L 17.989547 35.025311 
L 17.84591 35.049465 
L 17.702674 35.075895 
L 17.559875 35.104594 
L 17.417549 35.135555 
L 17.275733 35.16877 
L 17.134461 35.204231 
L 16.99377 35.241929 
L 16.853695 35.281855 
L 16.714271 35.323997 
L 16.575533 35.368347 
L 16.437516 35.414892 
L 16.300255 35.463622 
L 16.163784 35.514523 
L 16.028139 35.567582 
L 15.893352 35.622788 
L 15.759458 35.680124 
L 15.62649 35.739578 
L 15.494483 35.801134 
L 15.363468 35.864777 
L 15.233481 35.930491 
L 15.104552 35.998258 
L 14.976714 36.068063 
L 14.85 36.139887 
L 14.724442 36.213712 
L 14.60007 36.289521 
L 14.476917 36.367293 
L 14.355014 36.447009 
L 14.23439 36.528649 
L 14.115078 36.612193 
L 13.997105 36.697619 
L 13.880503 36.784906 
L 13.765301 36.874033 
L 13.651527 36.964975 
L 13.53921 37.057712 
L 13.428378 37.152219 
L 13.319061 37.248472 
L 13.211284 37.346448 
L 13.105075 37.446122 
L 13.000461 37.547468 
L 12.897468 37.650461 
L 12.796122 37.755075 
L 12.696448 37.861284 
L 12.598472 37.969061 
L 12.502219 38.078378 
L 12.407712 38.18921 
L 12.314975 38.301527 
L 12.224033 38.415301 
L 12.134906 38.530503 
L 12.047619 38.647105 
L 11.962193 38.765078 
L 11.878649 38.88439 
L 11.797009 39.005014 
L 11.717293 39.126917 
L 11.639521 39.25007 
L 11.563712 39.374442 
L 11.489887 39.5 
L 11.418063 39.626714 
L 11.348258 39.754552 
L 11.280491 39.883481 
L 11.214777 40.013468 
L 11.151134 40.144483 
L 11.089578 40.27649 
L 11.030124 40.409458 
L 10.972788 40.543352 
L 10.917582 40.678139 
L 10.864523 40.813784 
L 10.813622 40.950255 
L 10.764892 41.087516 
L 10.718347 41.225533 
L 10.673997 41.364271 
L 10.631855 41.503695 
L 10.591929 41.64377 
L 10.554231 41.784461 
L 10.51877 41.925733 
L 10.485555 42.067549 
L 10.454594 42.209875 
L 10.425895 42.352674 
L 10.399465 42.49591 
L 10.375311 42.639547 
L 10.353439 42.78355 
L 10.333855 42.927881 
L 10.316563 43.072505 
L 10.301568 43.217386 
L 10.288873 43.362485 
L 10.278482 43.507768 
L 10.270398 43.653198 
L 10.264622 43.798738 
L 10.261156 43.94435 
L 10.26 44.09 
L 10.26 137.42 
L 10.261156 137.56565 
L 10.264622 137.711262 
L 10.270398 137.856802 
L 10.278482 138.002232 
L 10.288873 138.147515 
L 10.301568 138.292614 
L 10.316563 138.437495 
L 10.333855 138.582119 
L 10.353439 138.72645 
L 10.375311 138.870453 
L 10.399465 139.01409 
L 10.425895 139.157326 
L 10.454594 139.300125 
L 10.485555 139.442451 
L 10.51877 139.584267 
L 10.554231 139.725539 
L 10.591929 139.86623 
L 10.631855 140.006305 
L 10.673997 140.145729 
L 10.718347 140.284467 
L 10.764892 140.422484 
L 10.813622 140.559745 
L 10.864523 140.696216 
L 10.917582 140.831861 
L 10.972788 140.966648 
L 11.030124 141.100542 
L 11.089578 141.23351 
L 11.151134 141.365517 
L 11.214777 141.496532 
L 11.280491 141.626519 
L 11.348258 141.755448 
L 11.418063 141.883286 
L 11.489887 142.01 
L 11.563712 142.135558 
L 11.639521 142.25993 
L 11.717293 142.383083 
L 11.797009 142.504986 
L 11.878649 142.62561 
L 11.962193 142.744922 
L 12.047619 142.862895 
L 12.134906 142.979497 
L 12.224033 143.094699 
L 12.314975 143.208473 
L 12.407712 143.32079 
L 12.502219 143.431622 
L 12.598472 143.540939 
L 12.696448 143.648716 
L 12.796122 143.754925 
L 12.897468 143.859539 
L 13.000461 143.962532 
L 13.105075 144.063878 
L 13.211284 144.163552 
L 13.319061 144.261528 
L 13.428378 144.357781 
L 13.53921 144.452288 
L 13.651527 144.545025 
L 13.765301 144.635967 
L 13.880503 144.725094 
L 13.997105 144.812381 
L 14.115078 144.897807 
L 14.23439 144.981351 
L 14.355014 145.062991 
L 14.476917 145.142707 
L 14.60007 145.220479 
L 14.724442 145.296288 
L 14.85 145.370113 
L 14.976714 145.441937 
L 15.104552 145.511742 
L 15.233481 145.579509 
L 15.363468 145.645223 
L 15.494483 145.708866 
L 15.62649 145.770422 
L 15.759458 145.829876 
L 15.893352 145.887212 
L 16.028139 145.942418 
L 16.163784 145.995477 
L 16.300255 146.046378 
L 16.437516 146.095108 
L 16.575533 146.141653 
L 16.714271 146.186003 
L 16.853695 146.228145 
L 16.99377 146.268071 
L 17.134461 146.305769 
L 17.275733 146.34123 
L 17.417549 146.374445 
L 17.559875 146.405406 
L 17.702674 146.434105 
L 17.84591 146.460535 
L 17.989547 146.484689 
L 18.13355 146.506561 
L 18.277881 146.526145 
L 18.422505 146.543437 
L 18.567386 146.558432 
L 18.712485 146.571127 
L 18.857768 146.581518 
L 19.003198 146.589602 
L 19.148738 146.595378 
L 19.29435 146.598844 
L 19.44 146.6 
L 208.395 146.6 
z
" clip-path="url(#p4e4fa9fc30)" style="fill: none; stroke-dasharray: 3.7,1.6; stroke-dashoffset: 0; stroke: #0000ff; stroke-linecap: round"/>
   </g>
   <g id="patch_3">
    <path d="M 276.48 94.58 
C 307.08 94.58 284.13 63.98 318.555 63.98 
" clip-path="url(#p4e4fa9fc30)" style="fill: none; stroke-dasharray: 7.4,3.2; stroke-dashoffset: 0; stroke: #0000ff; stroke-width: 2; stroke-linejoin: miter; stroke-linecap: round"/>
   </g>
   <g id="patch_4">
    <path d="M 280.305 97.64 
L 272.655 94.58 
L 280.305 91.52 
z
" clip-path="url(#p4e4fa9fc30)" style="fill: #0000ff"/>
   </g>
   <g id="patch_5">
    <path d="M 208.395 146.6 
L 208.54065 146.598844 
L 208.686262 146.595378 
L 208.831802 146.589602 
L 208.977232 146.581518 
L 209.122515 146.571127 
L 209.267614 146.558432 
L 209.412495 146.543437 
L 209.557119 146.526145 
L 209.70145 146.506561 
L 209.845453 146.484689 
L 209.98909 146.460535 
L 210.132326 146.434105 
L 210.275125 146.405406 
L 210.417451 146.374445 
L 210.559267 146.34123 
L 210.700539 146.305769 
L 210.84123 146.268071 
L 210.981305 146.228145 
L 211.120729 146.186003 
L 211.259467 146.141653 
L 211.397484 146.095108 
L 211.534745 146.046378 
L 211.671216 145.995477 
L 211.806861 145.942418 
L 211.941648 145.887212 
L 212.075542 145.829876 
L 212.20851 145.770422 
L 212.340517 145.708866 
L 212.471532 145.645223 
L 212.601519 145.579509 
L 212.730448 145.511742 
L 212.858286 145.441937 
L 212.985 145.370113 
L 213.110558 145.296288 
L 213.23493 145.220479 
L 213.358083 145.142707 
L 213.479986 145.062991 
L 213.60061 144.981351 
L 213.719922 144.897807 
L 213.837895 144.812381 
L 213.954497 144.725094 
L 214.069699 144.635967 
L 214.183473 144.545025 
L 214.29579 144.452288 
L 214.406622 144.357781 
L 214.515939 144.261528 
L 214.623716 144.163552 
L 214.729925 144.063878 
L 214.834539 143.962532 
L 214.937532 143.859539 
L 215.038878 143.754925 
L 215.138552 143.648716 
L 215.236528 143.540939 
L 215.332781 143.431622 
L 215.427288 143.32079 
L 215.520025 143.208473 
L 215.610967 143.094699 
L 215.700094 142.979497 
L 215.787381 142.862895 
L 215.872807 142.744922 
L 215.956351 142.62561 
L 216.037991 142.504986 
L 216.117707 142.383083 
L 216.195479 142.25993 
L 216.271288 142.135558 
L 216.345113 142.01 
L 216.416937 141.883286 
L 216.486742 141.755448 
L 216.554509 141.626519 
L 216.620223 141.496532 
L 216.683866 141.365517 
L 216.745422 141.23351 
L 216.804876 141.100542 
L 216.862212 140.966648 
L 216.917418 140.831861 
L 216.970477 140.696216 
L 217.021378 140.559745 
L 217.070108 140.422484 
L 217.116653 140.284467 
L 217.161003 140.145729 
L 217.203145 140.006305 
L 217.243071 139.86623 
L 217.280769 139.725539 
L 217.31623 139.584267 
L 217.349445 139.442451 
L 217.380406 139.300125 
L 217.409105 139.157326 
L 217.435535 139.01409 
L 217.459689 138.870453 
L 217.481561 138.72645 
L 217.501145 138.582119 
L 217.518437 138.437495 
L 217.533432 138.292614 
L 217.546127 138.147515 
L 217.556518 138.002232 
L 217.564602 137.856802 
L 217.570378 137.711262 
L 217.573844 137.56565 
L 217.575 137.42 
L 217.575 44.09 
L 217.573844 43.94435 
L 217.570378 43.798738 
L 217.564602 43.653198 
L 217.556518 43.507768 
L 217.546127 43.362485 
L 217.533432 43.217386 
L 217.518437 43.072505 
L 217.501145 42.927881 
L 217.481561 42.78355 
L 217.459689 42.639547 
L 217.435535 42.49591 
L 217.409105 42.352674 
L 217.380406 42.209875 
L 217.349445 42.067549 
L 217.31623 41.925733 
L 217.280769 41.784461 
L 217.243071 41.64377 
L 217.203145 41.503695 
L 217.161003 41.364271 
L 217.116653 41.225533 
L 217.070108 41.087516 
L 217.021378 40.950255 
L 216.970477 40.813784 
L 216.917418 40.678139 
L 216.862212 40.543352 
L 216.804876 40.409458 
L 216.745422 40.27649 
L 216.683866 40.144483 
L 216.620223 40.013468 
L 216.554509 39.883481 
L 216.486742 39.754552 
L 216.416937 39.626714 
L 216.345113 39.5 
L 216.271288 39.374442 
L 216.195479 39.25007 
L 216.117707 39.126917 
L 216.037991 39.005014 
L 215.956351 38.88439 
L 215.872807 38.765078 
L 215.787381 38.647105 
L 215.700094 38.530503 
L 215.610967 38.415301 
L 215.520025 38.301527 
L 215.427288 38.18921 
L 215.332781 38.078378 
L 215.236528 37.969061 
L 215.138552 37.861284 
L 215.038878 37.755075 
L 214.937532 37.650461 
L 214.834539 37.547468 
L 214.729925 37.446122 
L 214.623716 37.346448 
L 214.515939 37.248472 
L 214.406622 37.152219 
L 214.29579 37.057712 
L 214.183473 36.964975 
L 214.069699 36.874033 
L 213.954497 36.784906 
L 213.837895 36.697619 
L 213.719922 36.612193 
L 213.60061 36.528649 
L 213.479986 36.447009 
L 213.358083 36.367293 
L 213.23493 36.289521 
L 213.110558 36.213712 
L 212.985 36.139887 
L 212.858286 36.068063 
L 212.730448 35.998258 
L 212.601519 35.930491 
L 212.471532 35.864777 
L 212.340517 35.801134 
L 212.20851 35.739578 
L 212.075542 35.680124 
L 211.941648 35.622788 
L 211.806861 35.567582 
L 211.671216 35.514523 
L 211.534745 35.463622 
L 211.397484 35.414892 
L 211.259467 35.368347 
L 211.120729 35.323997 
L 210.981305 35.281855 
L 210.84123 35.241929 
L 210.700539 35.204231 
L 210.559267 35.16877 
L 210.417451 35.135555 
L 210.275125 35.104594 
L 210.132326 35.075895 
L 209.98909 35.049465 
L 209.845453 35.025311 
L 209.70145 35.003439 
L 209.557119 34.983855 
L 209.412495 34.966563 
L 209.267614 34.951568 
L 209.122515 34.938873 
L 208.977232 34.928482 
L 208.831802 34.920398 
L 208.686262 34.914622 
L 208.54065 34.911156 
L 208.395 34.91 
L 19.44 34.91 
L 19.29435 34.911156 
L 19.148738 34.914622 
L 19.003198 34.920398 
L 18.857768 34.928482 
L 18.712485 34.938873 
L 18.567386 34.951568 
L 18.422505 34.966563 
L 18.277881 34.983855 
L 18.13355 35.003439 
L 17.989547 35.025311 
L 17.84591 35.049465 
L 17.702674 35.075895 
L 17.559875 35.104594 
L 17.417549 35.135555 
L 17.275733 35.16877 
L 17.134461 35.204231 
L 16.99377 35.241929 
L 16.853695 35.281855 
L 16.714271 35.323997 
L 16.575533 35.368347 
L 16.437516 35.414892 
L 16.300255 35.463622 
L 16.163784 35.514523 
L 16.028139 35.567582 
L 15.893352 35.622788 
L 15.759458 35.680124 
L 15.62649 35.739578 
L 15.494483 35.801134 
L 15.363468 35.864777 
L 15.233481 35.930491 
L 15.104552 35.998258 
L 14.976714 36.068063 
L 14.85 36.139887 
L 14.724442 36.213712 
L 14.60007 36.289521 
L 14.476917 36.367293 
L 14.355014 36.447009 
L 14.23439 36.528649 
L 14.115078 36.612193 
L 13.997105 36.697619 
L 13.880503 36.784906 
L 13.765301 36.874033 
L 13.651527 36.964975 
L 13.53921 37.057712 
L 13.428378 37.152219 
L 13.319061 37.248472 
L 13.211284 37.346448 
L 13.105075 37.446122 
L 13.000461 37.547468 
L 12.897468 37.650461 
L 12.796122 37.755075 
L 12.696448 37.861284 
L 12.598472 37.969061 
L 12.502219 38.078378 
L 12.407712 38.18921 
L 12.314975 38.301527 
L 12.224033 38.415301 
L 12.134906 38.530503 
L 12.047619 38.647105 
L 11.962193 38.765078 
L 11.878649 38.88439 
L 11.797009 39.005014 
L 11.717293 39.126917 
L 11.639521 39.25007 
L 11.563712 39.374442 
L 11.489887 39.5 
L 11.418063 39.626714 
L 11.348258 39.754552 
L 11.280491 39.883481 
L 11.214777 40.013468 
L 11.151134 40.144483 
L 11.089578 40.27649 
L 11.030124 40.409458 
L 10.972788 40.543352 
L 10.917582 40.678139 
L 10.864523 40.813784 
L 10.813622 40.950255 
L 10.764892 41.087516 
L 10.718347 41.225533 
L 10.673997 41.364271 
L 10.631855 41.503695 
L 10.591929 41.64377 
L 10.554231 41.784461 
L 10.51877 41.925733 
L 10.485555 42.067549 
L 10.454594 42.209875 
L 10.425895 42.352674 
L 10.399465 42.49591 
L 10.375311 42.639547 
L 10.353439 42.78355 
L 10.333855 42.927881 
L 10.316563 43.072505 
L 10.301568 43.217386 
L 10.288873 43.362485 
L 10.278482 43.507768 
L 10.270398 43.653198 
L 10.264622 43.798738 
L 10.261156 43.94435 
L 10.26 44.09 
L 10.26 137.42 
L 10.261156 137.56565 
L 10.264622 137.711262 
L 10.270398 137.856802 
L 10.278482 138.002232 
L 10.288873 138.147515 
L 10.301568 138.292614 
L 10.316563 138.437495 
L 10.333855 138.582119 
L 10.353439 138.72645 
L 10.375311 138.870453 
L 10.399465 139.01409 
L 10.425895 139.157326 
L 10.454594 139.300125 
L 10.485555 139.442451 
L 10.51877 139.584267 
L 10.554231 139.725539 
L 10.591929 139.86623 
L 10.631855 140.006305 
L 10.673997 140.145729 
L 10.718347 140.284467 
L 10.764892 140.422484 
L 10.813622 140.559745 
L 10.864523 140.696216 
L 10.917582 140.831861 
L 10.972788 140.966648 
L 11.030124 141.100542 
L 11.089578 141.23351 
L 11.151134 141.365517 
L 11.214777 141.496532 
L 11.280491 141.626519 
L 11.348258 141.755448 
L 11.418063 141.883286 
L 11.489887 142.01 
L 11.563712 142.135558 
L 11.639521 142.25993 
L 11.717293 142.383083 
L 11.797009 142.504986 
L 11.878649 142.62561 
L 11.962193 142.744922 
L 12.047619 142.862895 
L 12.134906 142.979497 
L 12.224033 143.094699 
L 12.314975 143.208473 
L 12.407712 143.32079 
L 12.502219 143.431622 
L 12.598472 143.540939 
L 12.696448 143.648716 
L 12.796122 143.754925 
L 12.897468 143.859539 
L 13.000461 143.962532 
L 13.105075 144.063878 
L 13.211284 144.163552 
L 13.319061 144.261528 
L 13.428378 144.357781 
L 13.53921 144.452288 
L 13.651527 144.545025 
L 13.765301 144.635967 
L 13.880503 144.725094 
L 13.997105 144.812381 
L 14.115078 144.897807 
L 14.23439 144.981351 
L 14.355014 145.062991 
L 14.476917 145.142707 
L 14.60007 145.220479 
L 14.724442 145.296288 
L 14.85 145.370113 
L 14.976714 145.441937 
L 15.104552 145.511742 
L 15.233481 145.579509 
L 15.363468 145.645223 
L 15.494483 145.708866 
L 15.62649 145.770422 
L 15.759458 145.829876 
L 15.893352 145.887212 
L 16.028139 145.942418 
L 16.163784 145.995477 
L 16.300255 146.046378 
L 16.437516 146.095108 
L 16.575533 146.141653 
L 16.714271 146.186003 
L 16.853695 146.228145 
L 16.99377 146.268071 
L 17.134461 146.305769 
L 17.275733 146.34123 
L 17.417549 146.374445 
L 17.559875 146.405406 
L 17.702674 146.434105 
L 17.84591 146.460535 
L 17.989547 146.484689 
L 18.13355 146.506561 
L 18.277881 146.526145 
L 18.422505 146.543437 
L 18.567386 146.558432 
L 18.712485 146.571127 
L 18.857768 146.581518 
L 19.003198 146.589602 
L 19.148738 146.595378 
L 19.29435 146.598844 
L 19.44 146.6 
L 208.395 146.6 
z
" clip-path="url(#p4e4fa9fc30)" style="fill: none; stroke-dasharray: 3.7,1.6; stroke-dashoffset: 0; stroke: #0000ff; stroke-linecap: round"/>
   </g>
   <g id="patch_6">
    <path d="M 276.48 94.58 
C 307.08 94.58 284.13 63.98 318.555 63.98 
" clip-path="url(#p4e4fa9fc30)" style="fill: none; stroke-dasharray: 7.4,3.2; stroke-dashoffset: 0; stroke: #0000ff; stroke-width: 2; stroke-linejoin: miter; stroke-linecap: round"/>
   </g>
   <g id="patch_7">
    <path d="M 280.305 97.64 
L 272.655 94.58 
L 280.305 91.52 
z
" clip-path="url(#p4e4fa9fc30)" style="fill: #0000ff"/>
   </g>
   <g id="line2d_1">
    <path d="M 27.855 140.48 
L 27.855 103.18625 
M 27.855 85.97375 
L 27.855 48.68 
" clip-path="url(#p4e4fa9fc30)" style="fill: none; stroke: #000000; stroke-width: 2; stroke-linecap: round"/>
   </g>
   <g id="line2d_2">
    <path d="M 39.33 85.97375 
L 16.38 85.97375 
" clip-path="url(#p4e4fa9fc30)" style="fill: none; stroke: #000000; stroke-width: 2; stroke-linecap: round"/>
   </g>
   <g id="line2d_3">
    <path d="M 33.5925 91.71125 
L 22.1175 91.71125 
" clip-path="url(#p4e4fa9fc30)" style="fill: none; stroke: #000000; stroke-width: 2; stroke-linecap: round"/>
   </g>
   <g id="line2d_4">
    <path d="M 39.33 97.44875 
L 16.38 97.44875 
" clip-path="url(#p4e4fa9fc30)" style="fill: none; stroke: #000000; stroke-width: 2; stroke-linecap: round"/>
   </g>
   <g id="line2d_5">
    <path d="M 33.5925 103.18625 
L 22.1175 103.18625 
" clip-path="url(#p4e4fa9fc30)" style="fill: none; stroke: #000000; stroke-width: 2; stroke-linecap: round"/>
   </g>
   <g id="line2d_6">
    <path d="M 27.855 48.68 
L 58.455 48.68 
L 61.005 41.03 
L 66.105 56.33 
L 71.205 41.03 
L 76.305 56.33 
L 81.405 41.03 
L 86.505 56.33 
L 89.055 48.68 
L 119.655 48.68 
" clip-path="url(#p4e4fa9fc30)" style="fill: none; stroke: #000000; stroke-width: 2; stroke-linecap: round"/>
   </g>
   <g id="line2d_7">
    <path d="M 119.655 48.68 
L 150.255 48.68 
L 152.805 41.03 
L 157.905 56.33 
L 163.005 41.03 
L 168.105 56.33 
L 173.205 41.03 
L 178.305 56.33 
L 180.855 48.68 
L 211.455 48.68 
" clip-path="url(#p4e4fa9fc30)" style="fill: none; stroke: #000000; stroke-width: 2; stroke-linecap: round"/>
   </g>
   <g id="line2d_8">
    <path d="M 211.455 48.68 
L 226.755 48.68 
L 242.055 48.68 
" clip-path="url(#p4e4fa9fc30)" style="fill: none; stroke: #000000; stroke-width: 2; stroke-linecap: round"/>
   </g>
   <g id="line2d_9">
    <path d="M 242.055 48.68 
L 242.055 79.28 
L 249.705 81.83 
L 234.405 86.93 
L 249.705 92.03 
L 234.405 97.13 
L 249.705 102.23 
L 234.405 107.33 
L 242.055 109.88 
L 242.055 140.48 
" clip-path="url(#p4e4fa9fc30)" style="fill: none; stroke: #000000; stroke-width: 2; stroke-linecap: round"/>
   </g>
   <g id="line2d_10">
    <path d="M 242.055 140.48 
L 134.955 140.48 
L 27.855 140.48 
" clip-path="url(#p4e4fa9fc30)" style="fill: none; stroke: #000000; stroke-width: 2; stroke-linecap: round"/>
   </g>
   <g id="line2d_11">
    <path d="M 119.655 48.68 
L 119.655 79.28 
L 127.305 81.83 
L 112.005 86.93 
L 127.305 92.03 
L 112.005 97.13 
L 127.305 102.23 
L 112.005 107.33 
L 119.655 109.88 
L 119.655 140.48 
" clip-path="url(#p4e4fa9fc30)" style="fill: none; stroke: #000000; stroke-width: 2; stroke-linecap: round"/>
   </g>
   <g id="line2d_12">
    <path d="M 27.855 140.48 
L 27.855 103.18625 
M 27.855 85.97375 
L 27.855 48.68 
" clip-path="url(#p4e4fa9fc30)" style="fill: none; stroke: #000000; stroke-width: 2; stroke-linecap: round"/>
   </g>
   <g id="line2d_13">
    <path d="M 39.33 85.97375 
L 16.38 85.97375 
" clip-path="url(#p4e4fa9fc30)" style="fill: none; stroke: #000000; stroke-width: 2; stroke-linecap: round"/>
   </g>
   <g id="line2d_14">
    <path d="M 33.5925 91.71125 
L 22.1175 91.71125 
" clip-path="url(#p4e4fa9fc30)" style="fill: none; stroke: #000000; stroke-width: 2; stroke-linecap: round"/>
   </g>
   <g id="line2d_15">
    <path d="M 39.33 97.44875 
L 16.38 97.44875 
" clip-path="url(#p4e4fa9fc30)" style="fill: none; stroke: #000000; stroke-width: 2; stroke-linecap: round"/>
   </g>
   <g id="line2d_16">
    <path d="M 33.5925 103.18625 
L 22.1175 103.18625 
" clip-path="url(#p4e4fa9fc30)" style="fill: none; stroke: #000000; stroke-width: 2; stroke-linecap: round"/>
   </g>
   <g id="line2d_17">
    <path d="M 27.855 48.68 
L 58.455 48.68 
L 61.005 41.03 
L 66.105 56.33 
L 71.205 41.03 
L 76.305 56.33 
L 81.405 41.03 
L 86.505 56.33 
L 89.055 48.68 
L 119.655 48.68 
" clip-path="url(#p4e4fa9fc30)" style="fill: none; stroke: #000000; stroke-width: 2; stroke-linecap: round"/>
   </g>
   <g id="line2d_18">
    <path d="M 119.655 48.68 
L 150.255 48.68 
L 152.805 41.03 
L 157.905 56.33 
L 163.005 41.03 
L 168.105 56.33 
L 173.205 41.03 
L 178.305 56.33 
L 180.855 48.68 
L 211.455 48.68 
" clip-path="url(#p4e4fa9fc30)" style="fill: none; stroke: #000000; stroke-width: 2; stroke-linecap: round"/>
   </g>
   <g id="line2d_19">
    <path d="M 211.455 48.68 
L 226.755 48.68 
L 242.055 48.68 
" clip-path="url(#p4e4fa9fc30)" style="fill: none; stroke: #000000; stroke-width: 2; stroke-linecap: round"/>
   </g>
   <g id="line2d_20">
    <path d="M 242.055 48.68 
L 242.055 79.28 
L 249.705 81.83 
L 234.405 86.93 
L 249.705 92.03 
L 234.405 97.13 
L 249.705 102.23 
L 234.405 107.33 
L 242.055 109.88 
L 242.055 140.48 
" clip-path="url(#p4e4fa9fc30)" style="fill: none; stroke: #000000; stroke-width: 2; stroke-linecap: round"/>
   </g>
   <g id="line2d_21">
    <path d="M 242.055 140.48 
L 134.955 140.48 
L 27.855 140.48 
" clip-path="url(#p4e4fa9fc30)" style="fill: none; stroke: #000000; stroke-width: 2; stroke-linecap: round"/>
   </g>
   <g id="line2d_22">
    <path d="M 119.655 48.68 
L 119.655 79.28 
L 127.305 81.83 
L 112.005 86.93 
L 127.305 92.03 
L 112.005 97.13 
L 127.305 102.23 
L 112.005 107.33 
L 119.655 109.88 
L 119.655 140.48 
" clip-path="url(#p4e4fa9fc30)" style="fill: none; stroke: #000000; stroke-width: 2; stroke-linecap: round"/>
   </g>
   <g id="text_1">
    <g clip-path="url(#p4e4fa9fc30)">
     <!-- $V_{S}$ -->
     <g transform="translate(42.39 91.030586)scale(0.125 -0.125)">
      <defs>
       <path id="STIXGeneral-Italic-56" d="M 4403 4179 
L 4403 4077 
Q 4198 4070 4045 3821 
L 1658 -115 
L 1536 -115 
L 1011 3104 
Q 902 3776 828 3910 
Q 755 4045 486 4077 
L 486 4179 
L 2022 4179 
L 2022 4077 
Q 1722 4045 1629 3981 
Q 1536 3917 1536 3750 
Q 1536 3686 1542 3654 
L 1958 819 
L 3302 3123 
Q 3616 3661 3616 3859 
Q 3616 4032 3219 4077 
L 3219 4179 
L 4403 4179 
z
" transform="scale(0.015625)"/>
       <path id="STIXGeneral-Italic-53" d="M 3251 4269 
L 2995 2989 
L 2880 3008 
Q 2880 3539 2720 3795 
Q 2560 4051 2118 4051 
Q 1786 4051 1594 3881 
Q 1402 3712 1402 3411 
Q 1402 3168 1504 3005 
Q 1606 2842 2035 2413 
Q 2464 1978 2611 1715 
Q 2758 1453 2758 1133 
Q 2758 589 2390 237 
Q 2022 -115 1466 -115 
Q 1222 -115 800 32 
Q 595 109 499 109 
Q 288 109 224 -96 
L 109 -96 
L 326 1338 
L 454 1325 
Q 442 1267 442 1178 
Q 442 710 701 409 
Q 960 109 1363 109 
Q 1734 109 1968 336 
Q 2202 563 2202 928 
Q 2202 1139 2118 1308 
Q 2035 1478 1818 1715 
L 1568 1984 
Q 1549 2003 1459 2102 
Q 1370 2202 1318 2253 
Q 1030 2560 934 2755 
Q 838 2950 838 3213 
Q 838 3699 1168 3980 
Q 1498 4262 1978 4262 
Q 2310 4262 2522 4173 
Q 2707 4102 2816 4102 
Q 2925 4102 2982 4134 
Q 3040 4166 3104 4269 
L 3251 4269 
z
" transform="scale(0.015625)"/>
      </defs>
      <use xlink:href="#STIXGeneral-Italic-56" transform="translate(0 0.703125)"/>
      <use xlink:href="#STIXGeneral-Italic-53" transform="translate(61.099991 -12.525)scale(0.7)"/>
     </g>
    </g>
    <g clip-path="url(#p4e4fa9fc30)">
     <!-- 12V -->
     <g transform="translate(42.39 105.027852)scale(0.125 -0.125)">
      <defs>
       <path id="DejaVuSans-31" d="M 794 531 
L 1825 531 
L 1825 4091 
L 703 3866 
L 703 4441 
L 1819 4666 
L 2450 4666 
L 2450 531 
L 3481 531 
L 3481 0 
L 794 0 
L 794 531 
z
" transform="scale(0.015625)"/>
       <path id="DejaVuSans-32" d="M 1228 531 
L 3431 531 
L 3431 0 
L 469 0 
L 469 531 
Q 828 903 1448 1529 
Q 2069 2156 2228 2338 
Q 2531 2678 2651 2914 
Q 2772 3150 2772 3378 
Q 2772 3750 2511 3984 
Q 2250 4219 1831 4219 
Q 1534 4219 1204 4116 
Q 875 4013 500 3803 
L 500 4441 
Q 881 4594 1212 4672 
Q 1544 4750 1819 4750 
Q 2544 4750 2975 4387 
Q 3406 4025 3406 3419 
Q 3406 3131 3298 2873 
Q 3191 2616 2906 2266 
Q 2828 2175 2409 1742 
Q 1991 1309 1228 531 
z
" transform="scale(0.015625)"/>
       <path id="DejaVuSans-56" d="M 1831 0 
L 50 4666 
L 709 4666 
L 2188 738 
L 3669 4666 
L 4325 4666 
L 2547 0 
L 1831 0 
z
" transform="scale(0.015625)"/>
      </defs>
      <use xlink:href="#DejaVuSans-31"/>
      <use xlink:href="#DejaVuSans-32" x="63.623047"/>
      <use xlink:href="#DejaVuSans-56" x="127.246094"/>
     </g>
    </g>
   </g>
   <g id="text_2">
    <g clip-path="url(#p4e4fa9fc30)">
     <!-- $R_{1}$ -->
     <g transform="translate(67.4425 68.888047)scale(0.125 -0.125)">
      <defs>
       <path id="STIXGeneral-Italic-52" d="M 845 4179 
L 2458 4179 
Q 3078 4179 3420 3936 
Q 3763 3693 3763 3277 
Q 3763 2778 3341 2458 
Q 3091 2266 2502 2131 
L 3072 627 
Q 3181 333 3299 217 
Q 3418 102 3629 102 
L 3629 0 
L 2688 0 
L 1901 2074 
L 1478 2106 
L 1126 806 
Q 1043 512 1043 403 
Q 1043 256 1126 192 
Q 1210 128 1472 102 
L 1472 0 
L -83 0 
L -83 102 
Q 173 134 278 243 
Q 384 352 461 646 
L 1222 3405 
Q 1299 3699 1299 3808 
Q 1299 3923 1210 3987 
Q 1133 4038 845 4077 
L 845 4179 
z
M 1958 3795 
L 1555 2342 
Q 1754 2310 1882 2310 
Q 2451 2310 2771 2566 
Q 3091 2822 3091 3270 
Q 3091 3603 2892 3795 
Q 2694 3987 2323 3987 
Q 2010 3987 1958 3795 
z
" transform="scale(0.015625)"/>
       <path id="STIXGeneral-Regular-31" d="M 2522 0 
L 755 0 
L 755 96 
Q 1107 115 1235 227 
Q 1363 339 1363 608 
L 1363 3482 
Q 1363 3795 1171 3795 
Q 1082 3795 883 3718 
L 710 3654 
L 710 3744 
L 1856 4326 
L 1914 4307 
L 1914 486 
Q 1914 275 2042 185 
Q 2170 96 2522 96 
L 2522 0 
z
" transform="scale(0.015625)"/>
      </defs>
      <use xlink:href="#STIXGeneral-Italic-52" transform="translate(0 0.703125)"/>
      <use xlink:href="#STIXGeneral-Regular-31" transform="translate(61.099991 -12.525)scale(0.7)"/>
     </g>
    </g>
    <g clip-path="url(#p4e4fa9fc30)">
     <!-- 3Ω -->
     <g transform="translate(65.00207 82.885312)scale(0.125 -0.125)">
      <defs>
       <path id="DejaVuSans-33" d="M 2597 2516 
Q 3050 2419 3304 2112 
Q 3559 1806 3559 1356 
Q 3559 666 3084 287 
Q 2609 -91 1734 -91 
Q 1441 -91 1130 -33 
Q 819 25 488 141 
L 488 750 
Q 750 597 1062 519 
Q 1375 441 1716 441 
Q 2309 441 2620 675 
Q 2931 909 2931 1356 
Q 2931 1769 2642 2001 
Q 2353 2234 1838 2234 
L 1294 2234 
L 1294 2753 
L 1863 2753 
Q 2328 2753 2575 2939 
Q 2822 3125 2822 3475 
Q 2822 3834 2567 4026 
Q 2313 4219 1838 4219 
Q 1578 4219 1281 4162 
Q 984 4106 628 3988 
L 628 4550 
Q 988 4650 1302 4700 
Q 1616 4750 1894 4750 
Q 2613 4750 3031 4423 
Q 3450 4097 3450 3541 
Q 3450 3153 3228 2886 
Q 3006 2619 2597 2516 
z
" transform="scale(0.015625)"/>
       <path id="DejaVuSans-3a9" d="M 4647 556 
L 4647 0 
L 2772 0 
L 2772 556 
Q 3325 859 3634 1378 
Q 3944 1897 3944 2528 
Q 3944 3278 3531 3731 
Q 3119 4184 2444 4184 
Q 1769 4184 1355 3729 
Q 941 3275 941 2528 
Q 941 1897 1250 1378 
Q 1563 859 2119 556 
L 2119 0 
L 244 0 
L 244 556 
L 1241 556 
Q 747 991 519 1456 
Q 294 1922 294 2497 
Q 294 3491 894 4106 
Q 1491 4722 2444 4722 
Q 3391 4722 3994 4106 
Q 4594 3494 4594 2528 
Q 4594 1922 4372 1459 
Q 4150 997 3647 556 
L 4647 556 
z
" transform="scale(0.015625)"/>
      </defs>
      <use xlink:href="#DejaVuSans-33"/>
      <use xlink:href="#DejaVuSans-3a9" x="63.623047"/>
     </g>
    </g>
   </g>
   <g id="text_3">
    <g clip-path="url(#p4e4fa9fc30)">
     <!-- $R_{3}$ -->
     <g transform="translate(159.2425 68.888047)scale(0.125 -0.125)">
      <defs>
       <path id="STIXGeneral-Regular-33" d="M 390 3264 
L 288 3290 
Q 435 3770 748 4048 
Q 1062 4326 1542 4326 
Q 1990 4326 2265 4083 
Q 2541 3840 2541 3450 
Q 2541 2925 1946 2566 
Q 2298 2413 2477 2227 
Q 2758 1914 2758 1402 
Q 2758 890 2464 506 
Q 2246 211 1840 60 
Q 1434 -90 979 -90 
Q 262 -90 262 275 
Q 262 378 339 442 
Q 416 506 525 506 
Q 685 506 915 339 
Q 1197 141 1466 141 
Q 1818 141 2058 425 
Q 2298 710 2298 1120 
Q 2298 1856 1632 2048 
Q 1434 2112 979 2112 
L 979 2202 
Q 1338 2323 1517 2432 
Q 2035 2726 2035 3290 
Q 2035 3610 1852 3776 
Q 1670 3942 1344 3942 
Q 768 3942 390 3264 
z
" transform="scale(0.015625)"/>
      </defs>
      <use xlink:href="#STIXGeneral-Italic-52" transform="translate(0 0.703125)"/>
      <use xlink:href="#STIXGeneral-Regular-33" transform="translate(61.099991 -12.525)scale(0.7)"/>
     </g>
    </g>
    <g clip-path="url(#p4e4fa9fc30)">
     <!-- 5Ω -->
     <g transform="translate(156.80207 82.885312)scale(0.125 -0.125)">
      <defs>
       <path id="DejaVuSans-35" d="M 691 4666 
L 3169 4666 
L 3169 4134 
L 1269 4134 
L 1269 2991 
Q 1406 3038 1543 3061 
Q 1681 3084 1819 3084 
Q 2600 3084 3056 2656 
Q 3513 2228 3513 1497 
Q 3513 744 3044 326 
Q 2575 -91 1722 -91 
Q 1428 -91 1123 -41 
Q 819 9 494 109 
L 494 744 
Q 775 591 1075 516 
Q 1375 441 1709 441 
Q 2250 441 2565 725 
Q 2881 1009 2881 1497 
Q 2881 1984 2565 2268 
Q 2250 2553 1709 2553 
Q 1456 2553 1204 2497 
Q 953 2441 691 2322 
L 691 4666 
z
" transform="scale(0.015625)"/>
      </defs>
      <use xlink:href="#DejaVuSans-35"/>
      <use xlink:href="#DejaVuSans-3a9" x="63.623047"/>
     </g>
    </g>
   </g>
   <g id="text_4">
    <g clip-path="url(#p4e4fa9fc30)">
     <!-- $R_{L}$ -->
     <g transform="translate(252.765 98.029219)scale(0.125 -0.125)">
      <defs>
       <path id="STIXGeneral-Italic-4c" d="M 3578 1152 
L 3206 0 
L -51 0 
L -51 102 
Q 218 128 301 211 
Q 384 294 474 602 
L 1254 3405 
Q 1325 3642 1325 3802 
Q 1325 3942 1225 4000 
Q 1126 4058 832 4077 
L 832 4179 
L 2579 4179 
L 2579 4077 
Q 2285 4058 2147 3955 
Q 2010 3853 1933 3584 
L 1165 838 
Q 1101 595 1101 493 
Q 1101 346 1241 288 
Q 1382 230 1773 230 
Q 2266 230 2480 275 
Q 2694 320 2925 474 
Q 3187 646 3450 1190 
L 3578 1152 
z
" transform="scale(0.015625)"/>
      </defs>
      <use xlink:href="#STIXGeneral-Italic-52" transform="translate(0 0.703125)"/>
      <use xlink:href="#STIXGeneral-Italic-4c" transform="translate(61.099991 -12.525)scale(0.7)"/>
     </g>
    </g>
   </g>
   <g id="text_5">
    <g clip-path="url(#p4e4fa9fc30)">
     <!-- $R_{2}$ -->
     <g transform="translate(130.365 91.030586)scale(0.125 -0.125)">
      <defs>
       <path id="STIXGeneral-Regular-32" d="M 3034 877 
L 2688 0 
L 186 0 
L 186 77 
L 1325 1286 
Q 1773 1754 1965 2144 
Q 2157 2534 2157 2950 
Q 2157 3379 1920 3616 
Q 1683 3853 1267 3853 
Q 922 3853 720 3673 
Q 518 3494 326 3021 
L 192 3053 
Q 301 3648 630 3987 
Q 960 4326 1523 4326 
Q 2054 4326 2380 4006 
Q 2707 3686 2707 3200 
Q 2707 2477 1888 1613 
L 832 486 
L 2330 486 
Q 2541 486 2665 569 
Q 2790 653 2944 915 
L 3034 877 
z
" transform="scale(0.015625)"/>
      </defs>
      <use xlink:href="#STIXGeneral-Italic-52" transform="translate(0 0.703125)"/>
      <use xlink:href="#STIXGeneral-Regular-32" transform="translate(61.099991 -12.525)scale(0.7)"/>
     </g>
    </g>
    <g clip-path="url(#p4e4fa9fc30)">
     <!-- 6Ω -->
     <g transform="translate(130.365 105.027852)scale(0.125 -0.125)">
      <defs>
       <path id="DejaVuSans-36" d="M 2113 2584 
Q 1688 2584 1439 2293 
Q 1191 2003 1191 1497 
Q 1191 994 1439 701 
Q 1688 409 2113 409 
Q 2538 409 2786 701 
Q 3034 994 3034 1497 
Q 3034 2003 2786 2293 
Q 2538 2584 2113 2584 
z
M 3366 4563 
L 3366 3988 
Q 3128 4100 2886 4159 
Q 2644 4219 2406 4219 
Q 1781 4219 1451 3797 
Q 1122 3375 1075 2522 
Q 1259 2794 1537 2939 
Q 1816 3084 2150 3084 
Q 2853 3084 3261 2657 
Q 3669 2231 3669 1497 
Q 3669 778 3244 343 
Q 2819 -91 2113 -91 
Q 1303 -91 875 529 
Q 447 1150 447 2328 
Q 447 3434 972 4092 
Q 1497 4750 2381 4750 
Q 2619 4750 2861 4703 
Q 3103 4656 3366 4563 
z
" transform="scale(0.015625)"/>
      </defs>
      <use xlink:href="#DejaVuSans-36"/>
      <use xlink:href="#DejaVuSans-3a9" x="63.623047"/>
     </g>
    </g>
   </g>
   <g id="text_6">
    <g clip-path="url(#p4e4fa9fc30)">
     <!-- Fixed Circuit -->
     <g style="fill: #0000ff" transform="translate(15.525156 30.709219)scale(0.125 -0.125)">
      <defs>
       <path id="DejaVuSans-46" d="M 628 4666 
L 3309 4666 
L 3309 4134 
L 1259 4134 
L 1259 2759 
L 3109 2759 
L 3109 2228 
L 1259 2228 
L 1259 0 
L 628 0 
L 628 4666 
z
" transform="scale(0.015625)"/>
       <path id="DejaVuSans-69" d="M 603 3500 
L 1178 3500 
L 1178 0 
L 603 0 
L 603 3500 
z
M 603 4863 
L 1178 4863 
L 1178 4134 
L 603 4134 
L 603 4863 
z
" transform="scale(0.015625)"/>
       <path id="DejaVuSans-78" d="M 3513 3500 
L 2247 1797 
L 3578 0 
L 2900 0 
L 1881 1375 
L 863 0 
L 184 0 
L 1544 1831 
L 300 3500 
L 978 3500 
L 1906 2253 
L 2834 3500 
L 3513 3500 
z
" transform="scale(0.015625)"/>
       <path id="DejaVuSans-65" d="M 3597 1894 
L 3597 1613 
L 953 1613 
Q 991 1019 1311 708 
Q 1631 397 2203 397 
Q 2534 397 2845 478 
Q 3156 559 3463 722 
L 3463 178 
Q 3153 47 2828 -22 
Q 2503 -91 2169 -91 
Q 1331 -91 842 396 
Q 353 884 353 1716 
Q 353 2575 817 3079 
Q 1281 3584 2069 3584 
Q 2775 3584 3186 3129 
Q 3597 2675 3597 1894 
z
M 3022 2063 
Q 3016 2534 2758 2815 
Q 2500 3097 2075 3097 
Q 1594 3097 1305 2825 
Q 1016 2553 972 2059 
L 3022 2063 
z
" transform="scale(0.015625)"/>
       <path id="DejaVuSans-64" d="M 2906 2969 
L 2906 4863 
L 3481 4863 
L 3481 0 
L 2906 0 
L 2906 525 
Q 2725 213 2448 61 
Q 2172 -91 1784 -91 
Q 1150 -91 751 415 
Q 353 922 353 1747 
Q 353 2572 751 3078 
Q 1150 3584 1784 3584 
Q 2172 3584 2448 3432 
Q 2725 3281 2906 2969 
z
M 947 1747 
Q 947 1113 1208 752 
Q 1469 391 1925 391 
Q 2381 391 2643 752 
Q 2906 1113 2906 1747 
Q 2906 2381 2643 2742 
Q 2381 3103 1925 3103 
Q 1469 3103 1208 2742 
Q 947 2381 947 1747 
z
" transform="scale(0.015625)"/>
       <path id="DejaVuSans-20" transform="scale(0.015625)"/>
       <path id="DejaVuSans-43" d="M 4122 4306 
L 4122 3641 
Q 3803 3938 3442 4084 
Q 3081 4231 2675 4231 
Q 1875 4231 1450 3742 
Q 1025 3253 1025 2328 
Q 1025 1406 1450 917 
Q 1875 428 2675 428 
Q 3081 428 3442 575 
Q 3803 722 4122 1019 
L 4122 359 
Q 3791 134 3420 21 
Q 3050 -91 2638 -91 
Q 1578 -91 968 557 
Q 359 1206 359 2328 
Q 359 3453 968 4101 
Q 1578 4750 2638 4750 
Q 3056 4750 3426 4639 
Q 3797 4528 4122 4306 
z
" transform="scale(0.015625)"/>
       <path id="DejaVuSans-72" d="M 2631 2963 
Q 2534 3019 2420 3045 
Q 2306 3072 2169 3072 
Q 1681 3072 1420 2755 
Q 1159 2438 1159 1844 
L 1159 0 
L 581 0 
L 581 3500 
L 1159 3500 
L 1159 2956 
Q 1341 3275 1631 3429 
Q 1922 3584 2338 3584 
Q 2397 3584 2469 3576 
Q 2541 3569 2628 3553 
L 2631 2963 
z
" transform="scale(0.015625)"/>
       <path id="DejaVuSans-63" d="M 3122 3366 
L 3122 2828 
Q 2878 2963 2633 3030 
Q 2388 3097 2138 3097 
Q 1578 3097 1268 2742 
Q 959 2388 959 1747 
Q 959 1106 1268 751 
Q 1578 397 2138 397 
Q 2388 397 2633 464 
Q 2878 531 3122 666 
L 3122 134 
Q 2881 22 2623 -34 
Q 2366 -91 2075 -91 
Q 1284 -91 818 406 
Q 353 903 353 1747 
Q 353 2603 823 3093 
Q 1294 3584 2113 3584 
Q 2378 3584 2631 3529 
Q 2884 3475 3122 3366 
z
" transform="scale(0.015625)"/>
       <path id="DejaVuSans-75" d="M 544 1381 
L 544 3500 
L 1119 3500 
L 1119 1403 
Q 1119 906 1312 657 
Q 1506 409 1894 409 
Q 2359 409 2629 706 
Q 2900 1003 2900 1516 
L 2900 3500 
L 3475 3500 
L 3475 0 
L 2900 0 
L 2900 538 
Q 2691 219 2414 64 
Q 2138 -91 1772 -91 
Q 1169 -91 856 284 
Q 544 659 544 1381 
z
M 1991 3584 
L 1991 3584 
z
" transform="scale(0.015625)"/>
       <path id="DejaVuSans-74" d="M 1172 4494 
L 1172 3500 
L 2356 3500 
L 2356 3053 
L 1172 3053 
L 1172 1153 
Q 1172 725 1289 603 
Q 1406 481 1766 481 
L 2356 481 
L 2356 0 
L 1766 0 
Q 1100 0 847 248 
Q 594 497 594 1153 
L 594 3053 
L 172 3053 
L 172 3500 
L 594 3500 
L 594 4494 
L 1172 4494 
z
" transform="scale(0.015625)"/>
      </defs>
      <use xlink:href="#DejaVuSans-46"/>
      <use xlink:href="#DejaVuSans-69" x="50.269531"/>
      <use xlink:href="#DejaVuSans-78" x="78.052734"/>
      <use xlink:href="#DejaVuSans-65" x="134.107422"/>
      <use xlink:href="#DejaVuSans-64" x="195.630859"/>
      <use xlink:href="#DejaVuSans-20" x="259.107422"/>
      <use xlink:href="#DejaVuSans-43" x="290.894531"/>
      <use xlink:href="#DejaVuSans-69" x="360.71875"/>
      <use xlink:href="#DejaVuSans-72" x="388.501953"/>
      <use xlink:href="#DejaVuSans-63" x="427.365234"/>
      <use xlink:href="#DejaVuSans-75" x="482.345703"/>
      <use xlink:href="#DejaVuSans-69" x="545.724609"/>
      <use xlink:href="#DejaVuSans-74" x="573.507812"/>
     </g>
    </g>
   </g>
   <g id="text_7">
    <g clip-path="url(#p4e4fa9fc30)">
     <!-- Load -->
     <g style="fill: #0000ff" transform="translate(321.615 67.429219)scale(0.125 -0.125)">
      <defs>
       <path id="DejaVuSans-4c" d="M 628 4666 
L 1259 4666 
L 1259 531 
L 3531 531 
L 3531 0 
L 628 0 
L 628 4666 
z
" transform="scale(0.015625)"/>
       <path id="DejaVuSans-6f" d="M 1959 3097 
Q 1497 3097 1228 2736 
Q 959 2375 959 1747 
Q 959 1119 1226 758 
Q 1494 397 1959 397 
Q 2419 397 2687 759 
Q 2956 1122 2956 1747 
Q 2956 2369 2687 2733 
Q 2419 3097 1959 3097 
z
M 1959 3584 
Q 2709 3584 3137 3096 
Q 3566 2609 3566 1747 
Q 3566 888 3137 398 
Q 2709 -91 1959 -91 
Q 1206 -91 779 398 
Q 353 888 353 1747 
Q 353 2609 779 3096 
Q 1206 3584 1959 3584 
z
" transform="scale(0.015625)"/>
       <path id="DejaVuSans-61" d="M 2194 1759 
Q 1497 1759 1228 1600 
Q 959 1441 959 1056 
Q 959 750 1161 570 
Q 1363 391 1709 391 
Q 2188 391 2477 730 
Q 2766 1069 2766 1631 
L 2766 1759 
L 2194 1759 
z
M 3341 1997 
L 3341 0 
L 2766 0 
L 2766 531 
Q 2569 213 2275 61 
Q 1981 -91 1556 -91 
Q 1019 -91 701 211 
Q 384 513 384 1019 
Q 384 1609 779 1909 
Q 1175 2209 1959 2209 
L 2766 2209 
L 2766 2266 
Q 2766 2663 2505 2880 
Q 2244 3097 1772 3097 
Q 1472 3097 1187 3025 
Q 903 2953 641 2809 
L 641 3341 
Q 956 3463 1253 3523 
Q 1550 3584 1831 3584 
Q 2591 3584 2966 3190 
Q 3341 2797 3341 1997 
z
" transform="scale(0.015625)"/>
      </defs>
      <use xlink:href="#DejaVuSans-4c"/>
      <use xlink:href="#DejaVuSans-6f" x="53.962891"/>
      <use xlink:href="#DejaVuSans-61" x="115.144531"/>
      <use xlink:href="#DejaVuSans-64" x="176.423828"/>
     </g>
    </g>
   </g>
   <g id="text_8">
    <g clip-path="url(#p4e4fa9fc30)">
     <!-- $V_{S}$ -->
     <g transform="translate(42.39 91.030586)scale(0.125 -0.125)">
      <use xlink:href="#STIXGeneral-Italic-56" transform="translate(0 0.703125)"/>
      <use xlink:href="#STIXGeneral-Italic-53" transform="translate(61.099991 -12.525)scale(0.7)"/>
     </g>
    </g>
    <g clip-path="url(#p4e4fa9fc30)">
     <!-- 12V -->
     <g transform="translate(42.39 105.027852)scale(0.125 -0.125)">
      <use xlink:href="#DejaVuSans-31"/>
      <use xlink:href="#DejaVuSans-32" x="63.623047"/>
      <use xlink:href="#DejaVuSans-56" x="127.246094"/>
     </g>
    </g>
   </g>
   <g id="text_9">
    <g clip-path="url(#p4e4fa9fc30)">
     <!-- $R_{1}$ -->
     <g transform="translate(67.4425 68.888047)scale(0.125 -0.125)">
      <use xlink:href="#STIXGeneral-Italic-52" transform="translate(0 0.703125)"/>
      <use xlink:href="#STIXGeneral-Regular-31" transform="translate(61.099991 -12.525)scale(0.7)"/>
     </g>
    </g>
    <g clip-path="url(#p4e4fa9fc30)">
     <!-- 3Ω -->
     <g transform="translate(65.00207 82.885312)scale(0.125 -0.125)">
      <use xlink:href="#DejaVuSans-33"/>
      <use xlink:href="#DejaVuSans-3a9" x="63.623047"/>
     </g>
    </g>
   </g>
   <g id="text_10">
    <g clip-path="url(#p4e4fa9fc30)">
     <!-- $R_{3}$ -->
     <g transform="translate(159.2425 68.888047)scale(0.125 -0.125)">
      <use xlink:href="#STIXGeneral-Italic-52" transform="translate(0 0.703125)"/>
      <use xlink:href="#STIXGeneral-Regular-33" transform="translate(61.099991 -12.525)scale(0.7)"/>
     </g>
    </g>
    <g clip-path="url(#p4e4fa9fc30)">
     <!-- 5Ω -->
     <g transform="translate(156.80207 82.885312)scale(0.125 -0.125)">
      <use xlink:href="#DejaVuSans-35"/>
      <use xlink:href="#DejaVuSans-3a9" x="63.623047"/>
     </g>
    </g>
   </g>
   <g id="text_11">
    <g clip-path="url(#p4e4fa9fc30)">
     <!-- $R_{L}$ -->
     <g transform="translate(252.765 98.029219)scale(0.125 -0.125)">
      <use xlink:href="#STIXGeneral-Italic-52" transform="translate(0 0.703125)"/>
      <use xlink:href="#STIXGeneral-Italic-4c" transform="translate(61.099991 -12.525)scale(0.7)"/>
     </g>
    </g>
   </g>
   <g id="text_12">
    <g clip-path="url(#p4e4fa9fc30)">
     <!-- $R_{2}$ -->
     <g transform="translate(130.365 91.030586)scale(0.125 -0.125)">
      <use xlink:href="#STIXGeneral-Italic-52" transform="translate(0 0.703125)"/>
      <use xlink:href="#STIXGeneral-Regular-32" transform="translate(61.099991 -12.525)scale(0.7)"/>
     </g>
    </g>
    <g clip-path="url(#p4e4fa9fc30)">
     <!-- 6Ω -->
     <g transform="translate(130.365 105.027852)scale(0.125 -0.125)">
      <use xlink:href="#DejaVuSans-36"/>
      <use xlink:href="#DejaVuSans-3a9" x="63.623047"/>
     </g>
    </g>
   </g>
   <g id="text_13">
    <g clip-path="url(#p4e4fa9fc30)">
     <!-- Fixed Circuit -->
     <g style="fill: #0000ff" transform="translate(15.525156 30.709219)scale(0.125 -0.125)">
      <use xlink:href="#DejaVuSans-46"/>
      <use xlink:href="#DejaVuSans-69" x="50.269531"/>
      <use xlink:href="#DejaVuSans-78" x="78.052734"/>
      <use xlink:href="#DejaVuSans-65" x="134.107422"/>
      <use xlink:href="#DejaVuSans-64" x="195.630859"/>
      <use xlink:href="#DejaVuSans-20" x="259.107422"/>
      <use xlink:href="#DejaVuSans-43" x="290.894531"/>
      <use xlink:href="#DejaVuSans-69" x="360.71875"/>
      <use xlink:href="#DejaVuSans-72" x="388.501953"/>
      <use xlink:href="#DejaVuSans-63" x="427.365234"/>
      <use xlink:href="#DejaVuSans-75" x="482.345703"/>
      <use xlink:href="#DejaVuSans-69" x="545.724609"/>
      <use xlink:href="#DejaVuSans-74" x="573.507812"/>
     </g>
    </g>
   </g>
   <g id="text_14">
    <g clip-path="url(#p4e4fa9fc30)">
     <!-- Load -->
     <g style="fill: #0000ff" transform="translate(321.615 67.429219)scale(0.125 -0.125)">
      <use xlink:href="#DejaVuSans-4c"/>
      <use xlink:href="#DejaVuSans-6f" x="53.962891"/>
      <use xlink:href="#DejaVuSans-61" x="115.144531"/>
      <use xlink:href="#DejaVuSans-64" x="176.423828"/>
     </g>
    </g>
   </g>
  </g>
 </g>
 <defs>
  <clipPath id="p4e4fa9fc30">
   <rect x="7.2" y="7.2" width="356.847" height="142.46"/>
  </clipPath>
 </defs>
</svg>
