<?xml version="1.0" encoding="utf-8" standalone="no"?>
<!DOCTYPE svg PUBLIC "-//W3C//DTD SVG 1.1//EN"
  "http://www.w3.org/Graphics/SVG/1.1/DTD/svg11.dtd">
<svg xmlns:xlink="http://www.w3.org/1999/xlink" width="300.5406pt" height="146.32pt" viewBox="0 0 300.5406 146.32" xmlns="http://www.w3.org/2000/svg" version="1.1">
 <metadata>
  <rdf:RDF xmlns:dc="http://purl.org/dc/elements/1.1/" xmlns:cc="http://creativecommons.org/ns#" xmlns:rdf="http://www.w3.org/1999/02/22-rdf-syntax-ns#">
   <cc:Work>
    <dc:type rdf:resource="http://purl.org/dc/dcmitype/StillImage"/>
    <dc:date>2023-06-28T14:16:11.094596</dc:date>
    <dc:format>image/svg+xml</dc:format>
    <dc:creator>
     <cc:Agent>
      <dc:title>Matplotlib v3.5.2, https://matplotlib.org/</dc:title>
     </cc:Agent>
    </dc:creator>
   </cc:Work>
  </rdf:RDF>
 </metadata>
 <defs>
  <style type="text/css">*{stroke-linejoin: round; stroke-linecap: butt}</style>
 </defs>
 <g id="figure_1">
  <g id="patch_1">
   <path d="M 0 146.32 
L 300.5406 146.32 
L 300.5406 0 
L 0 0 
L 0 146.32 
z
" style="fill: none"/>
  </g>
  <g id="axes_1">
   <g id="patch_2">
    <path d="M 48.9486 99.34 
C 53.006207 99.34 56.898172 97.727895 59.767334 94.858734 
C 62.636495 91.989572 64.2486 88.097607 64.2486 84.04 
C 64.2486 79.982393 62.636495 76.090428 59.767334 73.221266 
C 56.898172 70.352105 53.006207 68.74 48.9486 68.74 
C 44.890993 68.74 40.999028 70.352105 38.129866 73.221266 
C 35.260705 76.090428 33.6486 79.982393 33.6486 84.04 
C 33.6486 88.097607 35.260705 91.989572 38.129866 94.858734 
C 40.999028 97.727895 44.890993 99.34 48.9486 99.34 
L 48.9486 99.34 
z
" clip-path="url(#p0fd0bf16af)" style="fill: none; stroke: #000000; stroke-width: 2; stroke-linejoin: miter"/>
   </g>
   <g id="patch_3">
    <path d="M 123.9186 136.06 
L 124.06425 136.058844 
L 124.209862 136.055378 
L 124.355402 136.049602 
L 124.500832 136.041518 
L 124.646115 136.031127 
L 124.791214 136.018432 
L 124.936095 136.003437 
L 125.080719 135.986145 
L 125.22505 135.966561 
L 125.369053 135.944689 
L 125.51269 135.920535 
L 125.655926 135.894105 
L 125.798725 135.865406 
L 125.941051 135.834445 
L 126.082867 135.80123 
L 126.224139 135.765769 
L 126.36483 135.728071 
L 126.504905 135.688145 
L 126.644329 135.646003 
L 126.783067 135.601653 
L 126.921084 135.555108 
L 127.058345 135.506378 
L 127.194816 135.455477 
L 127.330461 135.402418 
L 127.465248 135.347212 
L 127.599142 135.289876 
L 127.73211 135.230422 
L 127.864117 135.168866 
L 127.995132 135.105223 
L 128.125119 135.039509 
L 128.254048 134.971742 
L 128.381886 134.901937 
L 128.5086 134.830113 
L 128.634158 134.756288 
L 128.75853 134.680479 
L 128.881683 134.602707 
L 129.003586 134.522991 
L 129.12421 134.441351 
L 129.243522 134.357807 
L 129.361495 134.272381 
L 129.478097 134.185094 
L 129.593299 134.095967 
L 129.707073 134.005025 
L 129.81939 133.912288 
L 129.930222 133.817781 
L 130.039539 133.721528 
L 130.147316 133.623552 
L 130.253525 133.523878 
L 130.358139 133.422532 
L 130.461132 133.319539 
L 130.562478 133.214925 
L 130.662152 133.108716 
L 130.760128 133.000939 
L 130.856381 132.891622 
L 130.950888 132.78079 
L 131.043625 132.668473 
L 131.134567 132.554699 
L 131.223694 132.439497 
L 131.310981 132.322895 
L 131.396407 132.204922 
L 131.479951 132.08561 
L 131.561591 131.964986 
L 131.641307 131.843083 
L 131.719079 131.71993 
L 131.794888 131.595558 
L 131.868713 131.47 
L 131.940537 131.343286 
L 132.010342 131.215448 
L 132.078109 131.086519 
L 132.143823 130.956532 
L 132.207466 130.825517 
L 132.269022 130.69351 
L 132.328476 130.560542 
L 132.385812 130.426648 
L 132.441018 130.291861 
L 132.494077 130.156216 
L 132.544978 130.019745 
L 132.593708 129.882484 
L 132.640253 129.744467 
L 132.684603 129.605729 
L 132.726745 129.466305 
L 132.766671 129.32623 
L 132.804369 129.185539 
L 132.83983 129.044267 
L 132.873045 128.902451 
L 132.904006 128.760125 
L 132.932705 128.617326 
L 132.959135 128.47409 
L 132.983289 128.330453 
L 133.005161 128.18645 
L 133.024745 128.042119 
L 133.042037 127.897495 
L 133.057032 127.752614 
L 133.069727 127.607515 
L 133.080118 127.462232 
L 133.088202 127.316802 
L 133.093978 127.171262 
L 133.097444 127.02565 
L 133.0986 126.88 
L 133.0986 41.2 
L 133.097444 41.05435 
L 133.093978 40.908738 
L 133.088202 40.763198 
L 133.080118 40.617768 
L 133.069727 40.472485 
L 133.057032 40.327386 
L 133.042037 40.182505 
L 133.024745 40.037881 
L 133.005161 39.89355 
L 132.983289 39.749547 
L 132.959135 39.60591 
L 132.932705 39.462674 
L 132.904006 39.319875 
L 132.873045 39.177549 
L 132.83983 39.035733 
L 132.804369 38.894461 
L 132.766671 38.75377 
L 132.726745 38.613695 
L 132.684603 38.474271 
L 132.640253 38.335533 
L 132.593708 38.197516 
L 132.544978 38.060255 
L 132.494077 37.923784 
L 132.441018 37.788139 
L 132.385812 37.653352 
L 132.328476 37.519458 
L 132.269022 37.38649 
L 132.207466 37.254483 
L 132.143823 37.123468 
L 132.078109 36.993481 
L 132.010342 36.864552 
L 131.940537 36.736714 
L 131.868713 36.61 
L 131.794888 36.484442 
L 131.719079 36.36007 
L 131.641307 36.236917 
L 131.561591 36.115014 
L 131.479951 35.99439 
L 131.396407 35.875078 
L 131.310981 35.757105 
L 131.223694 35.640503 
L 131.134567 35.525301 
L 131.043625 35.411527 
L 130.950888 35.29921 
L 130.856381 35.188378 
L 130.760128 35.079061 
L 130.662152 34.971284 
L 130.562478 34.865075 
L 130.461132 34.760461 
L 130.358139 34.657468 
L 130.253525 34.556122 
L 130.147316 34.456448 
L 130.039539 34.358472 
L 129.930222 34.262219 
L 129.81939 34.167712 
L 129.707073 34.074975 
L 129.593299 33.984033 
L 129.478097 33.894906 
L 129.361495 33.807619 
L 129.243522 33.722193 
L 129.12421 33.638649 
L 129.003586 33.557009 
L 128.881683 33.477293 
L 128.75853 33.399521 
L 128.634158 33.323712 
L 128.5086 33.249887 
L 128.381886 33.178063 
L 128.254048 33.108258 
L 128.125119 33.040491 
L 127.995132 32.974777 
L 127.864117 32.911134 
L 127.73211 32.849578 
L 127.599142 32.790124 
L 127.465248 32.732788 
L 127.330461 32.677582 
L 127.194816 32.624523 
L 127.058345 32.573622 
L 126.921084 32.524892 
L 126.783067 32.478347 
L 126.644329 32.433997 
L 126.504905 32.391855 
L 126.36483 32.351929 
L 126.224139 32.314231 
L 126.082867 32.27877 
L 125.941051 32.245555 
L 125.798725 32.214594 
L 125.655926 32.185895 
L 125.51269 32.159465 
L 125.369053 32.135311 
L 125.22505 32.113439 
L 125.080719 32.093855 
L 124.936095 32.076563 
L 124.791214 32.061568 
L 124.646115 32.048873 
L 124.500832 32.038482 
L 124.355402 32.030398 
L 124.209862 32.024622 
L 124.06425 32.021156 
L 123.9186 32.02 
L 27.5286 32.02 
L 27.38295 32.021156 
L 27.237338 32.024622 
L 27.091798 32.030398 
L 26.946368 32.038482 
L 26.801085 32.048873 
L 26.655986 32.061568 
L 26.511105 32.076563 
L 26.366481 32.093855 
L 26.22215 32.113439 
L 26.078147 32.135311 
L 25.93451 32.159465 
L 25.791274 32.185895 
L 25.648475 32.214594 
L 25.506149 32.245555 
L 25.364333 32.27877 
L 25.223061 32.314231 
L 25.08237 32.351929 
L 24.942295 32.391855 
L 24.802871 32.433997 
L 24.664133 32.478347 
L 24.526116 32.524892 
L 24.388855 32.573622 
L 24.252384 32.624523 
L 24.116739 32.677582 
L 23.981952 32.732788 
L 23.848058 32.790124 
L 23.71509 32.849578 
L 23.583083 32.911134 
L 23.452068 32.974777 
L 23.322081 33.040491 
L 23.193152 33.108258 
L 23.065314 33.178063 
L 22.9386 33.249887 
L 22.813042 33.323712 
L 22.68867 33.399521 
L 22.565517 33.477293 
L 22.443614 33.557009 
L 22.32299 33.638649 
L 22.203678 33.722193 
L 22.085705 33.807619 
L 21.969103 33.894906 
L 21.853901 33.984033 
L 21.740127 34.074975 
L 21.62781 34.167712 
L 21.516978 34.262219 
L 21.407661 34.358472 
L 21.299884 34.456448 
L 21.193675 34.556122 
L 21.089061 34.657468 
L 20.986068 34.760461 
L 20.884722 34.865075 
L 20.785048 34.971284 
L 20.687072 35.079061 
L 20.590819 35.188378 
L 20.496312 35.29921 
L 20.403575 35.411527 
L 20.312633 35.525301 
L 20.223506 35.640503 
L 20.136219 35.757105 
L 20.050793 35.875078 
L 19.967249 35.99439 
L 19.885609 36.115014 
L 19.805893 36.236917 
L 19.728121 36.36007 
L 19.652312 36.484442 
L 19.578487 36.61 
L 19.506663 36.736714 
L 19.436858 36.864552 
L 19.369091 36.993481 
L 19.303377 37.123468 
L 19.239734 37.254483 
L 19.178178 37.38649 
L 19.118724 37.519458 
L 19.061388 37.653352 
L 19.006182 37.788139 
L 18.953123 37.923784 
L 18.902222 38.060255 
L 18.853492 38.197516 
L 18.806947 38.335533 
L 18.762597 38.474271 
L 18.720455 38.613695 
L 18.680529 38.75377 
L 18.642831 38.894461 
L 18.60737 39.035733 
L 18.574155 39.177549 
L 18.543194 39.319875 
L 18.514495 39.462674 
L 18.488065 39.60591 
L 18.463911 39.749547 
L 18.442039 39.89355 
L 18.422455 40.037881 
L 18.405163 40.182505 
L 18.390168 40.327386 
L 18.377473 40.472485 
L 18.367082 40.617768 
L 18.358998 40.763198 
L 18.353222 40.908738 
L 18.349756 41.05435 
L 18.3486 41.2 
L 18.3486 126.88 
L 18.349756 127.02565 
L 18.353222 127.171262 
L 18.358998 127.316802 
L 18.367082 127.462232 
L 18.377473 127.607515 
L 18.390168 127.752614 
L 18.405163 127.897495 
L 18.422455 128.042119 
L 18.442039 128.18645 
L 18.463911 128.330453 
L 18.488065 128.47409 
L 18.514495 128.617326 
L 18.543194 128.760125 
L 18.574155 128.902451 
L 18.60737 129.044267 
L 18.642831 129.185539 
L 18.680529 129.32623 
L 18.720455 129.466305 
L 18.762597 129.605729 
L 18.806947 129.744467 
L 18.853492 129.882484 
L 18.902222 130.019745 
L 18.953123 130.156216 
L 19.006182 130.291861 
L 19.061388 130.426648 
L 19.118724 130.560542 
L 19.178178 130.69351 
L 19.239734 130.825517 
L 19.303377 130.956532 
L 19.369091 131.086519 
L 19.436858 131.215448 
L 19.506663 131.343286 
L 19.578487 131.47 
L 19.652312 131.595558 
L 19.728121 131.71993 
L 19.805893 131.843083 
L 19.885609 131.964986 
L 19.967249 132.08561 
L 20.050793 132.204922 
L 20.136219 132.322895 
L 20.223506 132.439497 
L 20.312633 132.554699 
L 20.403575 132.668473 
L 20.496312 132.78079 
L 20.590819 132.891622 
L 20.687072 133.000939 
L 20.785048 133.108716 
L 20.884722 133.214925 
L 20.986068 133.319539 
L 21.089061 133.422532 
L 21.193675 133.523878 
L 21.299884 133.623552 
L 21.407661 133.721528 
L 21.516978 133.817781 
L 21.62781 133.912288 
L 21.740127 134.005025 
L 21.853901 134.095967 
L 21.969103 134.185094 
L 22.085705 134.272381 
L 22.203678 134.357807 
L 22.32299 134.441351 
L 22.443614 134.522991 
L 22.565517 134.602707 
L 22.68867 134.680479 
L 22.813042 134.756288 
L 22.9386 134.830113 
L 23.065314 134.901937 
L 23.193152 134.971742 
L 23.322081 135.039509 
L 23.452068 135.105223 
L 23.583083 135.168866 
L 23.71509 135.230422 
L 23.848058 135.289876 
L 23.981952 135.347212 
L 24.116739 135.402418 
L 24.252384 135.455477 
L 24.388855 135.506378 
L 24.526116 135.555108 
L 24.664133 135.601653 
L 24.802871 135.646003 
L 24.942295 135.688145 
L 25.08237 135.728071 
L 25.223061 135.765769 
L 25.364333 135.80123 
L 25.506149 135.834445 
L 25.648475 135.865406 
L 25.791274 135.894105 
L 25.93451 135.920535 
L 26.078147 135.944689 
L 26.22215 135.966561 
L 26.366481 135.986145 
L 26.511105 136.003437 
L 26.655986 136.018432 
L 26.801085 136.031127 
L 26.946368 136.041518 
L 27.091798 136.049602 
L 27.237338 136.055378 
L 27.38295 136.058844 
L 27.5286 136.06 
L 123.9186 136.06 
z
" clip-path="url(#p0fd0bf16af)" style="fill: none; stroke-dasharray: 3.7,1.6; stroke-dashoffset: 0; stroke: #0000ff; stroke-linecap: round"/>
   </g>
   <g id="patch_4">
    <path d="M 205.7736 84.04 
C 236.3736 84.04 213.4236 53.44 247.8486 53.44 
" clip-path="url(#p0fd0bf16af)" style="fill: none; stroke-dasharray: 7.4,3.2; stroke-dashoffset: 0; stroke: #0000ff; stroke-width: 2; stroke-linejoin: miter; stroke-linecap: round"/>
   </g>
   <g id="patch_5">
    <path d="M 209.5986 87.1 
L 201.9486 84.04 
L 209.5986 80.98 
z
" clip-path="url(#p0fd0bf16af)" style="fill: #0000ff"/>
   </g>
   <g id="patch_6">
    <path d="M 48.9486 99.34 
C 53.006207 99.34 56.898172 97.727895 59.767334 94.858734 
C 62.636495 91.989572 64.2486 88.097607 64.2486 84.04 
C 64.2486 79.982393 62.636495 76.090428 59.767334 73.221266 
C 56.898172 70.352105 53.006207 68.74 48.9486 68.74 
C 44.890993 68.74 40.999028 70.352105 38.129866 73.221266 
C 35.260705 76.090428 33.6486 79.982393 33.6486 84.04 
C 33.6486 88.097607 35.260705 91.989572 38.129866 94.858734 
C 40.999028 97.727895 44.890993 99.34 48.9486 99.34 
L 48.9486 99.34 
z
" clip-path="url(#p0fd0bf16af)" style="fill: none; stroke: #000000; stroke-width: 2; stroke-linejoin: miter"/>
   </g>
   <g id="patch_7">
    <path d="M 123.9186 136.06 
L 124.06425 136.058844 
L 124.209862 136.055378 
L 124.355402 136.049602 
L 124.500832 136.041518 
L 124.646115 136.031127 
L 124.791214 136.018432 
L 124.936095 136.003437 
L 125.080719 135.986145 
L 125.22505 135.966561 
L 125.369053 135.944689 
L 125.51269 135.920535 
L 125.655926 135.894105 
L 125.798725 135.865406 
L 125.941051 135.834445 
L 126.082867 135.80123 
L 126.224139 135.765769 
L 126.36483 135.728071 
L 126.504905 135.688145 
L 126.644329 135.646003 
L 126.783067 135.601653 
L 126.921084 135.555108 
L 127.058345 135.506378 
L 127.194816 135.455477 
L 127.330461 135.402418 
L 127.465248 135.347212 
L 127.599142 135.289876 
L 127.73211 135.230422 
L 127.864117 135.168866 
L 127.995132 135.105223 
L 128.125119 135.039509 
L 128.254048 134.971742 
L 128.381886 134.901937 
L 128.5086 134.830113 
L 128.634158 134.756288 
L 128.75853 134.680479 
L 128.881683 134.602707 
L 129.003586 134.522991 
L 129.12421 134.441351 
L 129.243522 134.357807 
L 129.361495 134.272381 
L 129.478097 134.185094 
L 129.593299 134.095967 
L 129.707073 134.005025 
L 129.81939 133.912288 
L 129.930222 133.817781 
L 130.039539 133.721528 
L 130.147316 133.623552 
L 130.253525 133.523878 
L 130.358139 133.422532 
L 130.461132 133.319539 
L 130.562478 133.214925 
L 130.662152 133.108716 
L 130.760128 133.000939 
L 130.856381 132.891622 
L 130.950888 132.78079 
L 131.043625 132.668473 
L 131.134567 132.554699 
L 131.223694 132.439497 
L 131.310981 132.322895 
L 131.396407 132.204922 
L 131.479951 132.08561 
L 131.561591 131.964986 
L 131.641307 131.843083 
L 131.719079 131.71993 
L 131.794888 131.595558 
L 131.868713 131.47 
L 131.940537 131.343286 
L 132.010342 131.215448 
L 132.078109 131.086519 
L 132.143823 130.956532 
L 132.207466 130.825517 
L 132.269022 130.69351 
L 132.328476 130.560542 
L 132.385812 130.426648 
L 132.441018 130.291861 
L 132.494077 130.156216 
L 132.544978 130.019745 
L 132.593708 129.882484 
L 132.640253 129.744467 
L 132.684603 129.605729 
L 132.726745 129.466305 
L 132.766671 129.32623 
L 132.804369 129.185539 
L 132.83983 129.044267 
L 132.873045 128.902451 
L 132.904006 128.760125 
L 132.932705 128.617326 
L 132.959135 128.47409 
L 132.983289 128.330453 
L 133.005161 128.18645 
L 133.024745 128.042119 
L 133.042037 127.897495 
L 133.057032 127.752614 
L 133.069727 127.607515 
L 133.080118 127.462232 
L 133.088202 127.316802 
L 133.093978 127.171262 
L 133.097444 127.02565 
L 133.0986 126.88 
L 133.0986 41.2 
L 133.097444 41.05435 
L 133.093978 40.908738 
L 133.088202 40.763198 
L 133.080118 40.617768 
L 133.069727 40.472485 
L 133.057032 40.327386 
L 133.042037 40.182505 
L 133.024745 40.037881 
L 133.005161 39.89355 
L 132.983289 39.749547 
L 132.959135 39.60591 
L 132.932705 39.462674 
L 132.904006 39.319875 
L 132.873045 39.177549 
L 132.83983 39.035733 
L 132.804369 38.894461 
L 132.766671 38.75377 
L 132.726745 38.613695 
L 132.684603 38.474271 
L 132.640253 38.335533 
L 132.593708 38.197516 
L 132.544978 38.060255 
L 132.494077 37.923784 
L 132.441018 37.788139 
L 132.385812 37.653352 
L 132.328476 37.519458 
L 132.269022 37.38649 
L 132.207466 37.254483 
L 132.143823 37.123468 
L 132.078109 36.993481 
L 132.010342 36.864552 
L 131.940537 36.736714 
L 131.868713 36.61 
L 131.794888 36.484442 
L 131.719079 36.36007 
L 131.641307 36.236917 
L 131.561591 36.115014 
L 131.479951 35.99439 
L 131.396407 35.875078 
L 131.310981 35.757105 
L 131.223694 35.640503 
L 131.134567 35.525301 
L 131.043625 35.411527 
L 130.950888 35.29921 
L 130.856381 35.188378 
L 130.760128 35.079061 
L 130.662152 34.971284 
L 130.562478 34.865075 
L 130.461132 34.760461 
L 130.358139 34.657468 
L 130.253525 34.556122 
L 130.147316 34.456448 
L 130.039539 34.358472 
L 129.930222 34.262219 
L 129.81939 34.167712 
L 129.707073 34.074975 
L 129.593299 33.984033 
L 129.478097 33.894906 
L 129.361495 33.807619 
L 129.243522 33.722193 
L 129.12421 33.638649 
L 129.003586 33.557009 
L 128.881683 33.477293 
L 128.75853 33.399521 
L 128.634158 33.323712 
L 128.5086 33.249887 
L 128.381886 33.178063 
L 128.254048 33.108258 
L 128.125119 33.040491 
L 127.995132 32.974777 
L 127.864117 32.911134 
L 127.73211 32.849578 
L 127.599142 32.790124 
L 127.465248 32.732788 
L 127.330461 32.677582 
L 127.194816 32.624523 
L 127.058345 32.573622 
L 126.921084 32.524892 
L 126.783067 32.478347 
L 126.644329 32.433997 
L 126.504905 32.391855 
L 126.36483 32.351929 
L 126.224139 32.314231 
L 126.082867 32.27877 
L 125.941051 32.245555 
L 125.798725 32.214594 
L 125.655926 32.185895 
L 125.51269 32.159465 
L 125.369053 32.135311 
L 125.22505 32.113439 
L 125.080719 32.093855 
L 124.936095 32.076563 
L 124.791214 32.061568 
L 124.646115 32.048873 
L 124.500832 32.038482 
L 124.355402 32.030398 
L 124.209862 32.024622 
L 124.06425 32.021156 
L 123.9186 32.02 
L 27.5286 32.02 
L 27.38295 32.021156 
L 27.237338 32.024622 
L 27.091798 32.030398 
L 26.946368 32.038482 
L 26.801085 32.048873 
L 26.655986 32.061568 
L 26.511105 32.076563 
L 26.366481 32.093855 
L 26.22215 32.113439 
L 26.078147 32.135311 
L 25.93451 32.159465 
L 25.791274 32.185895 
L 25.648475 32.214594 
L 25.506149 32.245555 
L 25.364333 32.27877 
L 25.223061 32.314231 
L 25.08237 32.351929 
L 24.942295 32.391855 
L 24.802871 32.433997 
L 24.664133 32.478347 
L 24.526116 32.524892 
L 24.388855 32.573622 
L 24.252384 32.624523 
L 24.116739 32.677582 
L 23.981952 32.732788 
L 23.848058 32.790124 
L 23.71509 32.849578 
L 23.583083 32.911134 
L 23.452068 32.974777 
L 23.322081 33.040491 
L 23.193152 33.108258 
L 23.065314 33.178063 
L 22.9386 33.249887 
L 22.813042 33.323712 
L 22.68867 33.399521 
L 22.565517 33.477293 
L 22.443614 33.557009 
L 22.32299 33.638649 
L 22.203678 33.722193 
L 22.085705 33.807619 
L 21.969103 33.894906 
L 21.853901 33.984033 
L 21.740127 34.074975 
L 21.62781 34.167712 
L 21.516978 34.262219 
L 21.407661 34.358472 
L 21.299884 34.456448 
L 21.193675 34.556122 
L 21.089061 34.657468 
L 20.986068 34.760461 
L 20.884722 34.865075 
L 20.785048 34.971284 
L 20.687072 35.079061 
L 20.590819 35.188378 
L 20.496312 35.29921 
L 20.403575 35.411527 
L 20.312633 35.525301 
L 20.223506 35.640503 
L 20.136219 35.757105 
L 20.050793 35.875078 
L 19.967249 35.99439 
L 19.885609 36.115014 
L 19.805893 36.236917 
L 19.728121 36.36007 
L 19.652312 36.484442 
L 19.578487 36.61 
L 19.506663 36.736714 
L 19.436858 36.864552 
L 19.369091 36.993481 
L 19.303377 37.123468 
L 19.239734 37.254483 
L 19.178178 37.38649 
L 19.118724 37.519458 
L 19.061388 37.653352 
L 19.006182 37.788139 
L 18.953123 37.923784 
L 18.902222 38.060255 
L 18.853492 38.197516 
L 18.806947 38.335533 
L 18.762597 38.474271 
L 18.720455 38.613695 
L 18.680529 38.75377 
L 18.642831 38.894461 
L 18.60737 39.035733 
L 18.574155 39.177549 
L 18.543194 39.319875 
L 18.514495 39.462674 
L 18.488065 39.60591 
L 18.463911 39.749547 
L 18.442039 39.89355 
L 18.422455 40.037881 
L 18.405163 40.182505 
L 18.390168 40.327386 
L 18.377473 40.472485 
L 18.367082 40.617768 
L 18.358998 40.763198 
L 18.353222 40.908738 
L 18.349756 41.05435 
L 18.3486 41.2 
L 18.3486 126.88 
L 18.349756 127.02565 
L 18.353222 127.171262 
L 18.358998 127.316802 
L 18.367082 127.462232 
L 18.377473 127.607515 
L 18.390168 127.752614 
L 18.405163 127.897495 
L 18.422455 128.042119 
L 18.442039 128.18645 
L 18.463911 128.330453 
L 18.488065 128.47409 
L 18.514495 128.617326 
L 18.543194 128.760125 
L 18.574155 128.902451 
L 18.60737 129.044267 
L 18.642831 129.185539 
L 18.680529 129.32623 
L 18.720455 129.466305 
L 18.762597 129.605729 
L 18.806947 129.744467 
L 18.853492 129.882484 
L 18.902222 130.019745 
L 18.953123 130.156216 
L 19.006182 130.291861 
L 19.061388 130.426648 
L 19.118724 130.560542 
L 19.178178 130.69351 
L 19.239734 130.825517 
L 19.303377 130.956532 
L 19.369091 131.086519 
L 19.436858 131.215448 
L 19.506663 131.343286 
L 19.578487 131.47 
L 19.652312 131.595558 
L 19.728121 131.71993 
L 19.805893 131.843083 
L 19.885609 131.964986 
L 19.967249 132.08561 
L 20.050793 132.204922 
L 20.136219 132.322895 
L 20.223506 132.439497 
L 20.312633 132.554699 
L 20.403575 132.668473 
L 20.496312 132.78079 
L 20.590819 132.891622 
L 20.687072 133.000939 
L 20.785048 133.108716 
L 20.884722 133.214925 
L 20.986068 133.319539 
L 21.089061 133.422532 
L 21.193675 133.523878 
L 21.299884 133.623552 
L 21.407661 133.721528 
L 21.516978 133.817781 
L 21.62781 133.912288 
L 21.740127 134.005025 
L 21.853901 134.095967 
L 21.969103 134.185094 
L 22.085705 134.272381 
L 22.203678 134.357807 
L 22.32299 134.441351 
L 22.443614 134.522991 
L 22.565517 134.602707 
L 22.68867 134.680479 
L 22.813042 134.756288 
L 22.9386 134.830113 
L 23.065314 134.901937 
L 23.193152 134.971742 
L 23.322081 135.039509 
L 23.452068 135.105223 
L 23.583083 135.168866 
L 23.71509 135.230422 
L 23.848058 135.289876 
L 23.981952 135.347212 
L 24.116739 135.402418 
L 24.252384 135.455477 
L 24.388855 135.506378 
L 24.526116 135.555108 
L 24.664133 135.601653 
L 24.802871 135.646003 
L 24.942295 135.688145 
L 25.08237 135.728071 
L 25.223061 135.765769 
L 25.364333 135.80123 
L 25.506149 135.834445 
L 25.648475 135.865406 
L 25.791274 135.894105 
L 25.93451 135.920535 
L 26.078147 135.944689 
L 26.22215 135.966561 
L 26.366481 135.986145 
L 26.511105 136.003437 
L 26.655986 136.018432 
L 26.801085 136.031127 
L 26.946368 136.041518 
L 27.091798 136.049602 
L 27.237338 136.055378 
L 27.38295 136.058844 
L 27.5286 136.06 
L 123.9186 136.06 
z
" clip-path="url(#p0fd0bf16af)" style="fill: none; stroke-dasharray: 3.7,1.6; stroke-dashoffset: 0; stroke: #0000ff; stroke-linecap: round"/>
   </g>
   <g id="patch_8">
    <path d="M 205.7736 84.04 
C 236.3736 84.04 213.4236 53.44 247.8486 53.44 
" clip-path="url(#p0fd0bf16af)" style="fill: none; stroke-dasharray: 7.4,3.2; stroke-dashoffset: 0; stroke: #0000ff; stroke-width: 2; stroke-linejoin: miter; stroke-linecap: round"/>
   </g>
   <g id="patch_9">
    <path d="M 209.5986 87.1 
L 201.9486 84.04 
L 209.5986 80.98 
z
" clip-path="url(#p0fd0bf16af)" style="fill: #0000ff"/>
   </g>
   <g id="line2d_1">
    <path d="M 48.9486 129.94 
L 48.9486 99.34 
L 48.9486 99.34 
M 48.9486 68.74 
L 48.9486 68.74 
L 48.9486 38.14 
" clip-path="url(#p0fd0bf16af)" style="fill: none; stroke: #000000; stroke-width: 2; stroke-linecap: round"/>
   </g>
   <g id="line2d_2">
    <path d="M 48.9486 91.69 
L 48.9486 84.04 
" clip-path="url(#p0fd0bf16af)" style="fill: none; stroke: #000000; stroke-width: 2; stroke-linecap: round"/>
   </g>
   <g id="patch_10">
    <path d="M 46.6536 84.04 
L 48.9486 76.39 
L 51.2436 84.04 
z
" clip-path="url(#p0fd0bf16af)"/>
   </g>
   <g id="line2d_3">
    <path d="M 48.9486 38.14 
L 79.5486 38.14 
L 110.1486 38.14 
" clip-path="url(#p0fd0bf16af)" style="fill: none; stroke: #000000; stroke-width: 2; stroke-linecap: round"/>
   </g>
   <g id="line2d_4">
    <path d="M 110.1486 38.14 
L 110.1486 68.74 
L 117.7986 71.29 
L 102.4986 76.39 
L 117.7986 81.49 
L 102.4986 86.59 
L 117.7986 91.69 
L 102.4986 96.79 
L 110.1486 99.34 
L 110.1486 129.94 
" clip-path="url(#p0fd0bf16af)" style="fill: none; stroke: #000000; stroke-width: 2; stroke-linecap: round"/>
   </g>
   <g id="line2d_5">
    <path d="M 110.1486 38.14 
L 140.7486 38.14 
L 171.3486 38.14 
" clip-path="url(#p0fd0bf16af)" style="fill: none; stroke: #000000; stroke-width: 2; stroke-linecap: round"/>
   </g>
   <g id="line2d_6">
    <path d="M 171.3486 38.14 
L 171.3486 68.74 
L 178.9986 71.29 
L 163.6986 76.39 
L 178.9986 81.49 
L 163.6986 86.59 
L 178.9986 91.69 
L 163.6986 96.79 
L 171.3486 99.34 
L 171.3486 129.94 
" clip-path="url(#p0fd0bf16af)" style="fill: none; stroke: #000000; stroke-width: 2; stroke-linecap: round"/>
   </g>
   <g id="line2d_7">
    <path d="M 171.3486 129.94 
L 110.1486 129.94 
L 48.9486 129.94 
" clip-path="url(#p0fd0bf16af)" style="fill: none; stroke: #000000; stroke-width: 2; stroke-linecap: round"/>
   </g>
   <g id="line2d_8">
    <path d="M 48.9486 129.94 
L 48.9486 99.34 
L 48.9486 99.34 
M 48.9486 68.74 
L 48.9486 68.74 
L 48.9486 38.14 
" clip-path="url(#p0fd0bf16af)" style="fill: none; stroke: #000000; stroke-width: 2; stroke-linecap: round"/>
   </g>
   <g id="line2d_9">
    <path d="M 48.9486 91.69 
L 48.9486 84.04 
" clip-path="url(#p0fd0bf16af)" style="fill: none; stroke: #000000; stroke-width: 2; stroke-linecap: round"/>
   </g>
   <g id="patch_11">
    <path d="M 46.6536 84.04 
L 48.9486 76.39 
L 51.2436 84.04 
z
" clip-path="url(#p0fd0bf16af)"/>
   </g>
   <g id="line2d_10">
    <path d="M 48.9486 38.14 
L 79.5486 38.14 
L 110.1486 38.14 
" clip-path="url(#p0fd0bf16af)" style="fill: none; stroke: #000000; stroke-width: 2; stroke-linecap: round"/>
   </g>
   <g id="line2d_11">
    <path d="M 110.1486 38.14 
L 110.1486 68.74 
L 117.7986 71.29 
L 102.4986 76.39 
L 117.7986 81.49 
L 102.4986 86.59 
L 117.7986 91.69 
L 102.4986 96.79 
L 110.1486 99.34 
L 110.1486 129.94 
" clip-path="url(#p0fd0bf16af)" style="fill: none; stroke: #000000; stroke-width: 2; stroke-linecap: round"/>
   </g>
   <g id="line2d_12">
    <path d="M 110.1486 38.14 
L 140.7486 38.14 
L 171.3486 38.14 
" clip-path="url(#p0fd0bf16af)" style="fill: none; stroke: #000000; stroke-width: 2; stroke-linecap: round"/>
   </g>
   <g id="line2d_13">
    <path d="M 171.3486 38.14 
L 171.3486 68.74 
L 178.9986 71.29 
L 163.6986 76.39 
L 178.9986 81.49 
L 163.6986 86.59 
L 178.9986 91.69 
L 163.6986 96.79 
L 171.3486 99.34 
L 171.3486 129.94 
" clip-path="url(#p0fd0bf16af)" style="fill: none; stroke: #000000; stroke-width: 2; stroke-linecap: round"/>
   </g>
   <g id="line2d_14">
    <path d="M 171.3486 129.94 
L 110.1486 129.94 
L 48.9486 129.94 
" clip-path="url(#p0fd0bf16af)" style="fill: none; stroke: #000000; stroke-width: 2; stroke-linecap: round"/>
   </g>
   <g id="text_1">
    <g clip-path="url(#p0fd0bf16af)">
     <!-- $I_{N}$ -->
     <g transform="translate(19.9636 87.489219)scale(0.125 -0.125)">
      <defs>
       <path id="STIXGeneral-Italic-49" d="M 2458 4179 
L 2458 4077 
Q 2189 4045 2102 3961 
Q 2016 3878 1933 3584 
L 1165 838 
Q 1069 499 1069 352 
Q 1069 224 1149 179 
Q 1229 134 1510 102 
L 1510 0 
L -51 0 
L -51 102 
Q 218 154 317 237 
Q 416 320 486 582 
L 1254 3405 
Q 1338 3699 1338 3802 
Q 1338 3930 1235 3997 
Q 1133 4064 877 4077 
L 877 4179 
L 2458 4179 
z
" transform="scale(0.015625)"/>
       <path id="STIXGeneral-Italic-4e" d="M 4653 4179 
L 4653 4077 
Q 4480 4038 4413 4016 
Q 4346 3994 4266 3882 
Q 4186 3770 4144 3635 
Q 4102 3501 4000 3149 
L 3066 -96 
L 2950 -96 
L 1478 3424 
L 749 723 
Q 691 525 691 378 
Q 691 243 790 182 
Q 890 122 1139 102 
L 1139 0 
L -128 0 
L -128 102 
Q 147 141 262 304 
Q 378 467 550 1075 
L 1299 3731 
Q 1152 4077 749 4077 
L 749 4179 
L 1773 4179 
L 3098 986 
L 3776 3469 
Q 3827 3648 3827 3750 
Q 3827 3923 3740 3987 
Q 3654 4051 3386 4077 
L 3386 4179 
L 4653 4179 
z
" transform="scale(0.015625)"/>
      </defs>
      <use xlink:href="#STIXGeneral-Italic-49" transform="translate(0 0.703125)"/>
      <use xlink:href="#STIXGeneral-Italic-4e" transform="translate(33.299988 -12.525)scale(0.7)"/>
     </g>
    </g>
   </g>
   <g id="text_2">
    <g clip-path="url(#p0fd0bf16af)">
     <!-- $R_{N}$ -->
     <g transform="translate(85.3136 87.489219)scale(0.125 -0.125)">
      <defs>
       <path id="STIXGeneral-Italic-52" d="M 845 4179 
L 2458 4179 
Q 3078 4179 3420 3936 
Q 3763 3693 3763 3277 
Q 3763 2778 3341 2458 
Q 3091 2266 2502 2131 
L 3072 627 
Q 3181 333 3299 217 
Q 3418 102 3629 102 
L 3629 0 
L 2688 0 
L 1901 2074 
L 1478 2106 
L 1126 806 
Q 1043 512 1043 403 
Q 1043 256 1126 192 
Q 1210 128 1472 102 
L 1472 0 
L -83 0 
L -83 102 
Q 173 134 278 243 
Q 384 352 461 646 
L 1222 3405 
Q 1299 3699 1299 3808 
Q 1299 3923 1210 3987 
Q 1133 4038 845 4077 
L 845 4179 
z
M 1958 3795 
L 1555 2342 
Q 1754 2310 1882 2310 
Q 2451 2310 2771 2566 
Q 3091 2822 3091 3270 
Q 3091 3603 2892 3795 
Q 2694 3987 2323 3987 
Q 2010 3987 1958 3795 
z
" transform="scale(0.015625)"/>
      </defs>
      <use xlink:href="#STIXGeneral-Italic-52" transform="translate(0 0.703125)"/>
      <use xlink:href="#STIXGeneral-Italic-4e" transform="translate(61.099991 -12.525)scale(0.7)"/>
     </g>
    </g>
   </g>
   <g id="text_3">
    <g clip-path="url(#p0fd0bf16af)">
     <!-- $R_{L}$ -->
     <g transform="translate(182.0586 87.489219)scale(0.125 -0.125)">
      <defs>
       <path id="STIXGeneral-Italic-4c" d="M 3578 1152 
L 3206 0 
L -51 0 
L -51 102 
Q 218 128 301 211 
Q 384 294 474 602 
L 1254 3405 
Q 1325 3642 1325 3802 
Q 1325 3942 1225 4000 
Q 1126 4058 832 4077 
L 832 4179 
L 2579 4179 
L 2579 4077 
Q 2285 4058 2147 3955 
Q 2010 3853 1933 3584 
L 1165 838 
Q 1101 595 1101 493 
Q 1101 346 1241 288 
Q 1382 230 1773 230 
Q 2266 230 2480 275 
Q 2694 320 2925 474 
Q 3187 646 3450 1190 
L 3578 1152 
z
" transform="scale(0.015625)"/>
      </defs>
      <use xlink:href="#STIXGeneral-Italic-52" transform="translate(0 0.703125)"/>
      <use xlink:href="#STIXGeneral-Italic-4c" transform="translate(61.099991 -12.525)scale(0.7)"/>
     </g>
    </g>
   </g>
   <g id="text_4">
    <g clip-path="url(#p0fd0bf16af)">
     <!-- Norton Equivalent -->
     <g style="fill: #0000ff" transform="translate(20.060866 29.420391)scale(0.125 -0.125)">
      <defs>
       <path id="DejaVuSans-4e" d="M 628 4666 
L 1478 4666 
L 3547 763 
L 3547 4666 
L 4159 4666 
L 4159 0 
L 3309 0 
L 1241 3903 
L 1241 0 
L 628 0 
L 628 4666 
z
" transform="scale(0.015625)"/>
       <path id="DejaVuSans-6f" d="M 1959 3097 
Q 1497 3097 1228 2736 
Q 959 2375 959 1747 
Q 959 1119 1226 758 
Q 1494 397 1959 397 
Q 2419 397 2687 759 
Q 2956 1122 2956 1747 
Q 2956 2369 2687 2733 
Q 2419 3097 1959 3097 
z
M 1959 3584 
Q 2709 3584 3137 3096 
Q 3566 2609 3566 1747 
Q 3566 888 3137 398 
Q 2709 -91 1959 -91 
Q 1206 -91 779 398 
Q 353 888 353 1747 
Q 353 2609 779 3096 
Q 1206 3584 1959 3584 
z
" transform="scale(0.015625)"/>
       <path id="DejaVuSans-72" d="M 2631 2963 
Q 2534 3019 2420 3045 
Q 2306 3072 2169 3072 
Q 1681 3072 1420 2755 
Q 1159 2438 1159 1844 
L 1159 0 
L 581 0 
L 581 3500 
L 1159 3500 
L 1159 2956 
Q 1341 3275 1631 3429 
Q 1922 3584 2338 3584 
Q 2397 3584 2469 3576 
Q 2541 3569 2628 3553 
L 2631 2963 
z
" transform="scale(0.015625)"/>
       <path id="DejaVuSans-74" d="M 1172 4494 
L 1172 3500 
L 2356 3500 
L 2356 3053 
L 1172 3053 
L 1172 1153 
Q 1172 725 1289 603 
Q 1406 481 1766 481 
L 2356 481 
L 2356 0 
L 1766 0 
Q 1100 0 847 248 
Q 594 497 594 1153 
L 594 3053 
L 172 3053 
L 172 3500 
L 594 3500 
L 594 4494 
L 1172 4494 
z
" transform="scale(0.015625)"/>
       <path id="DejaVuSans-6e" d="M 3513 2113 
L 3513 0 
L 2938 0 
L 2938 2094 
Q 2938 2591 2744 2837 
Q 2550 3084 2163 3084 
Q 1697 3084 1428 2787 
Q 1159 2491 1159 1978 
L 1159 0 
L 581 0 
L 581 3500 
L 1159 3500 
L 1159 2956 
Q 1366 3272 1645 3428 
Q 1925 3584 2291 3584 
Q 2894 3584 3203 3211 
Q 3513 2838 3513 2113 
z
" transform="scale(0.015625)"/>
       <path id="DejaVuSans-20" transform="scale(0.015625)"/>
       <path id="DejaVuSans-45" d="M 628 4666 
L 3578 4666 
L 3578 4134 
L 1259 4134 
L 1259 2753 
L 3481 2753 
L 3481 2222 
L 1259 2222 
L 1259 531 
L 3634 531 
L 3634 0 
L 628 0 
L 628 4666 
z
" transform="scale(0.015625)"/>
       <path id="DejaVuSans-71" d="M 947 1747 
Q 947 1113 1208 752 
Q 1469 391 1925 391 
Q 2381 391 2643 752 
Q 2906 1113 2906 1747 
Q 2906 2381 2643 2742 
Q 2381 3103 1925 3103 
Q 1469 3103 1208 2742 
Q 947 2381 947 1747 
z
M 2906 525 
Q 2725 213 2448 61 
Q 2172 -91 1784 -91 
Q 1150 -91 751 415 
Q 353 922 353 1747 
Q 353 2572 751 3078 
Q 1150 3584 1784 3584 
Q 2172 3584 2448 3432 
Q 2725 3281 2906 2969 
L 2906 3500 
L 3481 3500 
L 3481 -1331 
L 2906 -1331 
L 2906 525 
z
" transform="scale(0.015625)"/>
       <path id="DejaVuSans-75" d="M 544 1381 
L 544 3500 
L 1119 3500 
L 1119 1403 
Q 1119 906 1312 657 
Q 1506 409 1894 409 
Q 2359 409 2629 706 
Q 2900 1003 2900 1516 
L 2900 3500 
L 3475 3500 
L 3475 0 
L 2900 0 
L 2900 538 
Q 2691 219 2414 64 
Q 2138 -91 1772 -91 
Q 1169 -91 856 284 
Q 544 659 544 1381 
z
M 1991 3584 
L 1991 3584 
z
" transform="scale(0.015625)"/>
       <path id="DejaVuSans-69" d="M 603 3500 
L 1178 3500 
L 1178 0 
L 603 0 
L 603 3500 
z
M 603 4863 
L 1178 4863 
L 1178 4134 
L 603 4134 
L 603 4863 
z
" transform="scale(0.015625)"/>
       <path id="DejaVuSans-76" d="M 191 3500 
L 800 3500 
L 1894 563 
L 2988 3500 
L 3597 3500 
L 2284 0 
L 1503 0 
L 191 3500 
z
" transform="scale(0.015625)"/>
       <path id="DejaVuSans-61" d="M 2194 1759 
Q 1497 1759 1228 1600 
Q 959 1441 959 1056 
Q 959 750 1161 570 
Q 1363 391 1709 391 
Q 2188 391 2477 730 
Q 2766 1069 2766 1631 
L 2766 1759 
L 2194 1759 
z
M 3341 1997 
L 3341 0 
L 2766 0 
L 2766 531 
Q 2569 213 2275 61 
Q 1981 -91 1556 -91 
Q 1019 -91 701 211 
Q 384 513 384 1019 
Q 384 1609 779 1909 
Q 1175 2209 1959 2209 
L 2766 2209 
L 2766 2266 
Q 2766 2663 2505 2880 
Q 2244 3097 1772 3097 
Q 1472 3097 1187 3025 
Q 903 2953 641 2809 
L 641 3341 
Q 956 3463 1253 3523 
Q 1550 3584 1831 3584 
Q 2591 3584 2966 3190 
Q 3341 2797 3341 1997 
z
" transform="scale(0.015625)"/>
       <path id="DejaVuSans-6c" d="M 603 4863 
L 1178 4863 
L 1178 0 
L 603 0 
L 603 4863 
z
" transform="scale(0.015625)"/>
       <path id="DejaVuSans-65" d="M 3597 1894 
L 3597 1613 
L 953 1613 
Q 991 1019 1311 708 
Q 1631 397 2203 397 
Q 2534 397 2845 478 
Q 3156 559 3463 722 
L 3463 178 
Q 3153 47 2828 -22 
Q 2503 -91 2169 -91 
Q 1331 -91 842 396 
Q 353 884 353 1716 
Q 353 2575 817 3079 
Q 1281 3584 2069 3584 
Q 2775 3584 3186 3129 
Q 3597 2675 3597 1894 
z
M 3022 2063 
Q 3016 2534 2758 2815 
Q 2500 3097 2075 3097 
Q 1594 3097 1305 2825 
Q 1016 2553 972 2059 
L 3022 2063 
z
" transform="scale(0.015625)"/>
      </defs>
      <use xlink:href="#DejaVuSans-4e"/>
      <use xlink:href="#DejaVuSans-6f" x="74.804688"/>
      <use xlink:href="#DejaVuSans-72" x="135.986328"/>
      <use xlink:href="#DejaVuSans-74" x="177.099609"/>
      <use xlink:href="#DejaVuSans-6f" x="216.308594"/>
      <use xlink:href="#DejaVuSans-6e" x="277.490234"/>
      <use xlink:href="#DejaVuSans-20" x="340.869141"/>
      <use xlink:href="#DejaVuSans-45" x="372.65625"/>
      <use xlink:href="#DejaVuSans-71" x="435.839844"/>
      <use xlink:href="#DejaVuSans-75" x="499.316406"/>
      <use xlink:href="#DejaVuSans-69" x="562.695312"/>
      <use xlink:href="#DejaVuSans-76" x="590.478516"/>
      <use xlink:href="#DejaVuSans-61" x="649.658203"/>
      <use xlink:href="#DejaVuSans-6c" x="710.9375"/>
      <use xlink:href="#DejaVuSans-65" x="738.720703"/>
      <use xlink:href="#DejaVuSans-6e" x="800.244141"/>
      <use xlink:href="#DejaVuSans-74" x="863.623047"/>
     </g>
    </g>
   </g>
   <g id="text_5">
    <g clip-path="url(#p0fd0bf16af)">
     <!-- Load -->
     <g style="fill: #0000ff" transform="translate(250.9086 56.889219)scale(0.125 -0.125)">
      <defs>
       <path id="DejaVuSans-4c" d="M 628 4666 
L 1259 4666 
L 1259 531 
L 3531 531 
L 3531 0 
L 628 0 
L 628 4666 
z
" transform="scale(0.015625)"/>
       <path id="DejaVuSans-64" d="M 2906 2969 
L 2906 4863 
L 3481 4863 
L 3481 0 
L 2906 0 
L 2906 525 
Q 2725 213 2448 61 
Q 2172 -91 1784 -91 
Q 1150 -91 751 415 
Q 353 922 353 1747 
Q 353 2572 751 3078 
Q 1150 3584 1784 3584 
Q 2172 3584 2448 3432 
Q 2725 3281 2906 2969 
z
M 947 1747 
Q 947 1113 1208 752 
Q 1469 391 1925 391 
Q 2381 391 2643 752 
Q 2906 1113 2906 1747 
Q 2906 2381 2643 2742 
Q 2381 3103 1925 3103 
Q 1469 3103 1208 2742 
Q 947 2381 947 1747 
z
" transform="scale(0.015625)"/>
      </defs>
      <use xlink:href="#DejaVuSans-4c"/>
      <use xlink:href="#DejaVuSans-6f" x="53.962891"/>
      <use xlink:href="#DejaVuSans-61" x="115.144531"/>
      <use xlink:href="#DejaVuSans-64" x="176.423828"/>
     </g>
    </g>
   </g>
   <g id="text_6">
    <g clip-path="url(#p0fd0bf16af)">
     <!-- $I_{N}$ -->
     <g transform="translate(19.9636 87.489219)scale(0.125 -0.125)">
      <use xlink:href="#STIXGeneral-Italic-49" transform="translate(0 0.703125)"/>
      <use xlink:href="#STIXGeneral-Italic-4e" transform="translate(33.299988 -12.525)scale(0.7)"/>
     </g>
    </g>
   </g>
   <g id="text_7">
    <g clip-path="url(#p0fd0bf16af)">
     <!-- $R_{N}$ -->
     <g transform="translate(85.3136 87.489219)scale(0.125 -0.125)">
      <use xlink:href="#STIXGeneral-Italic-52" transform="translate(0 0.703125)"/>
      <use xlink:href="#STIXGeneral-Italic-4e" transform="translate(61.099991 -12.525)scale(0.7)"/>
     </g>
    </g>
   </g>
   <g id="text_8">
    <g clip-path="url(#p0fd0bf16af)">
     <!-- $R_{L}$ -->
     <g transform="translate(182.0586 87.489219)scale(0.125 -0.125)">
      <use xlink:href="#STIXGeneral-Italic-52" transform="translate(0 0.703125)"/>
      <use xlink:href="#STIXGeneral-Italic-4c" transform="translate(61.099991 -12.525)scale(0.7)"/>
     </g>
    </g>
   </g>
   <g id="text_9">
    <g clip-path="url(#p0fd0bf16af)">
     <!-- Norton Equivalent -->
     <g style="fill: #0000ff" transform="translate(20.060866 29.420391)scale(0.125 -0.125)">
      <use xlink:href="#DejaVuSans-4e"/>
      <use xlink:href="#DejaVuSans-6f" x="74.804688"/>
      <use xlink:href="#DejaVuSans-72" x="135.986328"/>
      <use xlink:href="#DejaVuSans-74" x="177.099609"/>
      <use xlink:href="#DejaVuSans-6f" x="216.308594"/>
      <use xlink:href="#DejaVuSans-6e" x="277.490234"/>
      <use xlink:href="#DejaVuSans-20" x="340.869141"/>
      <use xlink:href="#DejaVuSans-45" x="372.65625"/>
      <use xlink:href="#DejaVuSans-71" x="435.839844"/>
      <use xlink:href="#DejaVuSans-75" x="499.316406"/>
      <use xlink:href="#DejaVuSans-69" x="562.695312"/>
      <use xlink:href="#DejaVuSans-76" x="590.478516"/>
      <use xlink:href="#DejaVuSans-61" x="649.658203"/>
      <use xlink:href="#DejaVuSans-6c" x="710.9375"/>
      <use xlink:href="#DejaVuSans-65" x="738.720703"/>
      <use xlink:href="#DejaVuSans-6e" x="800.244141"/>
      <use xlink:href="#DejaVuSans-74" x="863.623047"/>
     </g>
    </g>
   </g>
   <g id="text_10">
    <g clip-path="url(#p0fd0bf16af)">
     <!-- Load -->
     <g style="fill: #0000ff" transform="translate(250.9086 56.889219)scale(0.125 -0.125)">
      <use xlink:href="#DejaVuSans-4c"/>
      <use xlink:href="#DejaVuSans-6f" x="53.962891"/>
      <use xlink:href="#DejaVuSans-61" x="115.144531"/>
      <use xlink:href="#DejaVuSans-64" x="176.423828"/>
     </g>
    </g>
   </g>
  </g>
 </g>
 <defs>
  <clipPath id="p0fd0bf16af">
   <rect x="7.2" y="7.2" width="286.1406" height="131.92"/>
  </clipPath>
 </defs>
</svg>
