<?xml version="1.0" encoding="utf-8" standalone="no"?>
<!DOCTYPE svg PUBLIC "-//W3C//DTD SVG 1.1//EN"
  "http://www.w3.org/Graphics/SVG/1.1/DTD/svg11.dtd">
<svg xmlns:xlink="http://www.w3.org/1999/xlink" width="202.0188pt" height="147.085pt" viewBox="0 0 202.0188 147.085" xmlns="http://www.w3.org/2000/svg" version="1.1">
 <metadata>
  <rdf:RDF xmlns:dc="http://purl.org/dc/elements/1.1/" xmlns:cc="http://creativecommons.org/ns#" xmlns:rdf="http://www.w3.org/1999/02/22-rdf-syntax-ns#">
   <cc:Work>
    <dc:type rdf:resource="http://purl.org/dc/dcmitype/StillImage"/>
    <dc:date>2023-10-30T06:55:00.465397</dc:date>
    <dc:format>image/svg+xml</dc:format>
    <dc:creator>
     <cc:Agent>
      <dc:title>Matplotlib v3.5.2, https://matplotlib.org/</dc:title>
     </cc:Agent>
    </dc:creator>
   </cc:Work>
  </rdf:RDF>
 </metadata>
 <defs>
  <style type="text/css">*{stroke-linejoin: round; stroke-linecap: butt}</style>
 </defs>
 <g id="figure_1">
  <g id="patch_1">
   <path d="M 0 147.085 
L 202.0188 147.085 
L 202.0188 0 
L 0 0 
L 0 147.085 
z
" style="fill: none"/>
  </g>
  <g id="axes_1">
   <g id="line2d_1">
    <path d="M 56.3334 134.53 
L 56.3334 97.23625 
M 56.3334 80.02375 
L 56.3334 42.73 
" clip-path="url(#p968d539b8f)" style="fill: none; stroke: #000000; stroke-width: 2; stroke-linecap: round"/>
   </g>
   <g id="line2d_2">
    <path d="M 67.8084 80.02375 
L 44.8584 80.02375 
" clip-path="url(#p968d539b8f)" style="fill: none; stroke: #000000; stroke-width: 2; stroke-linecap: round"/>
   </g>
   <g id="line2d_3">
    <path d="M 62.0709 85.76125 
L 50.5959 85.76125 
" clip-path="url(#p968d539b8f)" style="fill: none; stroke: #000000; stroke-width: 2; stroke-linecap: round"/>
   </g>
   <g id="line2d_4">
    <path d="M 67.8084 91.49875 
L 44.8584 91.49875 
" clip-path="url(#p968d539b8f)" style="fill: none; stroke: #000000; stroke-width: 2; stroke-linecap: round"/>
   </g>
   <g id="line2d_5">
    <path d="M 62.0709 97.23625 
L 50.5959 97.23625 
" clip-path="url(#p968d539b8f)" style="fill: none; stroke: #000000; stroke-width: 2; stroke-linecap: round"/>
   </g>
   <g id="line2d_6">
    <path d="M 56.3334 42.73 
L 86.9334 42.73 
L 89.4834 35.08 
L 94.5834 50.38 
L 99.6834 35.08 
L 104.7834 50.38 
L 109.8834 35.08 
L 114.9834 50.38 
L 117.5334 42.73 
L 148.1334 42.73 
" clip-path="url(#p968d539b8f)" style="fill: none; stroke: #000000; stroke-width: 2; stroke-linecap: round"/>
   </g>
   <g id="line2d_7">
    <path d="M 148.1334 42.73 
L 148.1334 88.63 
L 148.1334 134.53 
" clip-path="url(#p968d539b8f)" style="fill: none; stroke: #000000; stroke-width: 2; stroke-linecap: round"/>
   </g>
   <g id="line2d_8">
    <path d="M 148.1334 134.53 
L 102.2334 134.53 
L 56.3334 134.53 
" clip-path="url(#p968d539b8f)" style="fill: none; stroke: #000000; stroke-width: 2; stroke-linecap: round"/>
   </g>
   <g id="line2d_9">
    <path d="M 56.3334 134.53 
L 56.3334 97.23625 
M 56.3334 80.02375 
L 56.3334 42.73 
" clip-path="url(#p968d539b8f)" style="fill: none; stroke: #000000; stroke-width: 2; stroke-linecap: round"/>
   </g>
   <g id="line2d_10">
    <path d="M 67.8084 80.02375 
L 44.8584 80.02375 
" clip-path="url(#p968d539b8f)" style="fill: none; stroke: #000000; stroke-width: 2; stroke-linecap: round"/>
   </g>
   <g id="line2d_11">
    <path d="M 62.0709 85.76125 
L 50.5959 85.76125 
" clip-path="url(#p968d539b8f)" style="fill: none; stroke: #000000; stroke-width: 2; stroke-linecap: round"/>
   </g>
   <g id="line2d_12">
    <path d="M 67.8084 91.49875 
L 44.8584 91.49875 
" clip-path="url(#p968d539b8f)" style="fill: none; stroke: #000000; stroke-width: 2; stroke-linecap: round"/>
   </g>
   <g id="line2d_13">
    <path d="M 62.0709 97.23625 
L 50.5959 97.23625 
" clip-path="url(#p968d539b8f)" style="fill: none; stroke: #000000; stroke-width: 2; stroke-linecap: round"/>
   </g>
   <g id="line2d_14">
    <path d="M 56.3334 42.73 
L 86.9334 42.73 
L 89.4834 35.08 
L 94.5834 50.38 
L 99.6834 35.08 
L 104.7834 50.38 
L 109.8834 35.08 
L 114.9834 50.38 
L 117.5334 42.73 
L 148.1334 42.73 
" clip-path="url(#p968d539b8f)" style="fill: none; stroke: #000000; stroke-width: 2; stroke-linecap: round"/>
   </g>
   <g id="line2d_15">
    <path d="M 148.1334 42.73 
L 148.1334 88.63 
L 148.1334 134.53 
" clip-path="url(#p968d539b8f)" style="fill: none; stroke: #000000; stroke-width: 2; stroke-linecap: round"/>
   </g>
   <g id="line2d_16">
    <path d="M 148.1334 134.53 
L 102.2334 134.53 
L 56.3334 134.53 
" clip-path="url(#p968d539b8f)" style="fill: none; stroke: #000000; stroke-width: 2; stroke-linecap: round"/>
   </g>
   <g id="text_1">
    <g clip-path="url(#p968d539b8f)">
     <!-- $V_{TH}$ -->
     <g transform="translate(22.4234 92.079219)scale(0.125 -0.125)">
      <defs>
       <path id="STIXGeneral-Italic-56" d="M 4403 4179 
L 4403 4077 
Q 4198 4070 4045 3821 
L 1658 -115 
L 1536 -115 
L 1011 3104 
Q 902 3776 828 3910 
Q 755 4045 486 4077 
L 486 4179 
L 2022 4179 
L 2022 4077 
Q 1722 4045 1629 3981 
Q 1536 3917 1536 3750 
Q 1536 3686 1542 3654 
L 1958 819 
L 3302 3123 
Q 3616 3661 3616 3859 
Q 3616 4032 3219 4077 
L 3219 4179 
L 4403 4179 
z
" transform="scale(0.015625)"/>
       <path id="STIXGeneral-Italic-54" d="M 4051 4179 
L 3770 3130 
L 3661 3142 
Q 3680 3302 3680 3437 
Q 3680 3955 3034 3955 
L 2662 3955 
L 1786 819 
Q 1696 506 1696 397 
Q 1696 250 1766 195 
Q 1837 141 2035 122 
L 2259 102 
L 2259 0 
L 416 0 
L 416 102 
Q 749 134 889 230 
Q 1030 326 1101 582 
L 2016 3955 
Q 1254 3955 988 3817 
Q 723 3680 493 3162 
L 378 3187 
L 646 4179 
L 4051 4179 
z
" transform="scale(0.015625)"/>
       <path id="STIXGeneral-Italic-48" d="M 4922 4179 
L 4922 4077 
Q 4640 4026 4550 3949 
Q 4461 3872 4384 3603 
L 3539 525 
Q 3520 448 3520 371 
Q 3520 237 3616 185 
Q 3712 134 4026 102 
L 4026 0 
L 2272 0 
L 2272 102 
Q 2598 128 2729 237 
Q 2861 346 2925 595 
L 3334 2086 
L 1510 2086 
L 1088 525 
Q 1069 461 1069 384 
Q 1069 243 1149 192 
Q 1229 141 1517 102 
L 1517 0 
L -51 0 
L -51 102 
Q 211 128 310 230 
Q 410 333 499 653 
L 1254 3405 
Q 1331 3699 1331 3814 
Q 1331 3949 1238 3997 
Q 1146 4045 838 4077 
L 838 4179 
L 2573 4179 
L 2573 4077 
Q 2285 4058 2141 3955 
Q 1997 3853 1933 3622 
L 1587 2355 
L 3411 2355 
L 3706 3405 
Q 3795 3738 3795 3808 
Q 3795 3930 3692 3994 
Q 3590 4058 3334 4077 
L 3334 4179 
L 4922 4179 
z
" transform="scale(0.015625)"/>
      </defs>
      <use xlink:href="#STIXGeneral-Italic-56" transform="translate(0 0.703125)"/>
      <use xlink:href="#STIXGeneral-Italic-54" transform="translate(61.099991 -12.525)scale(0.7)"/>
      <use xlink:href="#STIXGeneral-Italic-48" transform="translate(100.019984 -12.525)scale(0.7)"/>
     </g>
    </g>
   </g>
   <g id="text_2">
    <g clip-path="url(#p968d539b8f)">
     <!-- $R_{TH}$ -->
     <g transform="translate(92.5459 29.420391)scale(0.125 -0.125)">
      <defs>
       <path id="STIXGeneral-Italic-52" d="M 845 4179 
L 2458 4179 
Q 3078 4179 3420 3936 
Q 3763 3693 3763 3277 
Q 3763 2778 3341 2458 
Q 3091 2266 2502 2131 
L 3072 627 
Q 3181 333 3299 217 
Q 3418 102 3629 102 
L 3629 0 
L 2688 0 
L 1901 2074 
L 1478 2106 
L 1126 806 
Q 1043 512 1043 403 
Q 1043 256 1126 192 
Q 1210 128 1472 102 
L 1472 0 
L -83 0 
L -83 102 
Q 173 134 278 243 
Q 384 352 461 646 
L 1222 3405 
Q 1299 3699 1299 3808 
Q 1299 3923 1210 3987 
Q 1133 4038 845 4077 
L 845 4179 
z
M 1958 3795 
L 1555 2342 
Q 1754 2310 1882 2310 
Q 2451 2310 2771 2566 
Q 3091 2822 3091 3270 
Q 3091 3603 2892 3795 
Q 2694 3987 2323 3987 
Q 2010 3987 1958 3795 
z
" transform="scale(0.015625)"/>
      </defs>
      <use xlink:href="#STIXGeneral-Italic-52" transform="translate(0 0.703125)"/>
      <use xlink:href="#STIXGeneral-Italic-54" transform="translate(61.099991 -12.525)scale(0.7)"/>
      <use xlink:href="#STIXGeneral-Italic-48" transform="translate(100.019984 -12.525)scale(0.7)"/>
     </g>
    </g>
   </g>
   <g id="text_3">
    <g clip-path="url(#p968d539b8f)">
     <!-- $V_{TH}$ -->
     <g transform="translate(22.4234 92.079219)scale(0.125 -0.125)">
      <use xlink:href="#STIXGeneral-Italic-56" transform="translate(0 0.703125)"/>
      <use xlink:href="#STIXGeneral-Italic-54" transform="translate(61.099991 -12.525)scale(0.7)"/>
      <use xlink:href="#STIXGeneral-Italic-48" transform="translate(100.019984 -12.525)scale(0.7)"/>
     </g>
    </g>
   </g>
   <g id="text_4">
    <g clip-path="url(#p968d539b8f)">
     <!-- $R_{TH}$ -->
     <g transform="translate(92.5459 29.420391)scale(0.125 -0.125)">
      <use xlink:href="#STIXGeneral-Italic-52" transform="translate(0 0.703125)"/>
      <use xlink:href="#STIXGeneral-Italic-54" transform="translate(61.099991 -12.525)scale(0.7)"/>
      <use xlink:href="#STIXGeneral-Italic-48" transform="translate(100.019984 -12.525)scale(0.7)"/>
     </g>
    </g>
   </g>
   <g id="patch_2">
    <path d="M 148.1334 45.025 
C 148.742041 45.025 149.325836 44.783184 149.75621 44.35281 
C 150.186584 43.922436 150.4284 43.338641 150.4284 42.73 
C 150.4284 42.121359 150.186584 41.537564 149.75621 41.10719 
C 149.325836 40.676816 148.742041 40.435 148.1334 40.435 
C 147.524759 40.435 146.940964 40.676816 146.51059 41.10719 
C 146.080216 41.537564 145.8384 42.121359 145.8384 42.73 
C 145.8384 43.338641 146.080216 43.922436 146.51059 44.35281 
C 146.940964 44.783184 147.524759 45.025 148.1334 45.025 
z
" clip-path="url(#p968d539b8f)" style="fill: #ffffff; stroke: #000000; stroke-width: 2; stroke-linejoin: miter"/>
   </g>
   <g id="patch_3">
    <path d="M 148.1334 136.825 
C 148.742041 136.825 149.325836 136.583184 149.75621 136.15281 
C 150.186584 135.722436 150.4284 135.138641 150.4284 134.53 
C 150.4284 133.921359 150.186584 133.337564 149.75621 132.90719 
C 149.325836 132.476816 148.742041 132.235 148.1334 132.235 
C 147.524759 132.235 146.940964 132.476816 146.51059 132.90719 
C 146.080216 133.337564 145.8384 133.921359 145.8384 134.53 
C 145.8384 135.138641 146.080216 135.722436 146.51059 136.15281 
C 146.940964 136.583184 147.524759 136.825 148.1334 136.825 
z
" clip-path="url(#p968d539b8f)" style="fill: #ffffff; stroke: #000000; stroke-width: 2; stroke-linejoin: miter"/>
   </g>
   <g id="line2d_17">
    <path d="M 148.1334 82.51 
L 148.1334 82.51 
" clip-path="url(#p968d539b8f)" style="fill: none; stroke: #000000; stroke-width: 2; stroke-linecap: round"/>
   </g>
   <g id="patch_4">
    <path d="M 152.7234 82.51 
L 148.1334 91.69 
L 143.5434 82.51 
z
" clip-path="url(#p968d539b8f)"/>
   </g>
   <g id="text_5">
    <g clip-path="url(#p968d539b8f)">
     <!-- $I_{SC}$ -->
     <g transform="translate(157.3134 90.549219)scale(0.125 -0.125)">
      <defs>
       <path id="STIXGeneral-Italic-49" d="M 2458 4179 
L 2458 4077 
Q 2189 4045 2102 3961 
Q 2016 3878 1933 3584 
L 1165 838 
Q 1069 499 1069 352 
Q 1069 224 1149 179 
Q 1229 134 1510 102 
L 1510 0 
L -51 0 
L -51 102 
Q 218 154 317 237 
Q 416 320 486 582 
L 1254 3405 
Q 1338 3699 1338 3802 
Q 1338 3930 1235 3997 
Q 1133 4064 877 4077 
L 877 4179 
L 2458 4179 
z
" transform="scale(0.015625)"/>
       <path id="STIXGeneral-Italic-53" d="M 3251 4269 
L 2995 2989 
L 2880 3008 
Q 2880 3539 2720 3795 
Q 2560 4051 2118 4051 
Q 1786 4051 1594 3881 
Q 1402 3712 1402 3411 
Q 1402 3168 1504 3005 
Q 1606 2842 2035 2413 
Q 2464 1978 2611 1715 
Q 2758 1453 2758 1133 
Q 2758 589 2390 237 
Q 2022 -115 1466 -115 
Q 1222 -115 800 32 
Q 595 109 499 109 
Q 288 109 224 -96 
L 109 -96 
L 326 1338 
L 454 1325 
Q 442 1267 442 1178 
Q 442 710 701 409 
Q 960 109 1363 109 
Q 1734 109 1968 336 
Q 2202 563 2202 928 
Q 2202 1139 2118 1308 
Q 2035 1478 1818 1715 
L 1568 1984 
Q 1549 2003 1459 2102 
Q 1370 2202 1318 2253 
Q 1030 2560 934 2755 
Q 838 2950 838 3213 
Q 838 3699 1168 3980 
Q 1498 4262 1978 4262 
Q 2310 4262 2522 4173 
Q 2707 4102 2816 4102 
Q 2925 4102 2982 4134 
Q 3040 4166 3104 4269 
L 3251 4269 
z
" transform="scale(0.015625)"/>
       <path id="STIXGeneral-Italic-43" d="M 4410 4250 
L 4173 2970 
L 4058 2989 
Q 3942 4032 3104 4032 
Q 2406 4032 1830 3411 
Q 1491 3053 1315 2541 
Q 1139 2029 1139 1485 
Q 1139 173 2259 173 
Q 2656 173 2985 339 
Q 3315 506 3725 934 
L 3840 838 
Q 3411 333 2998 109 
Q 2586 -115 2093 -115 
Q 1344 -115 883 329 
Q 422 774 422 1555 
Q 422 2214 748 2812 
Q 1075 3411 1619 3795 
Q 2272 4262 3021 4262 
Q 3462 4262 3770 4154 
Q 3898 4109 4032 4109 
Q 4205 4109 4275 4250 
L 4410 4250 
z
" transform="scale(0.015625)"/>
      </defs>
      <use xlink:href="#STIXGeneral-Italic-49" transform="translate(0 0.703125)"/>
      <use xlink:href="#STIXGeneral-Italic-53" transform="translate(33.299988 -12.525)scale(0.7)"/>
      <use xlink:href="#STIXGeneral-Italic-43" transform="translate(68.299977 -12.525)scale(0.7)"/>
     </g>
    </g>
   </g>
   <g id="patch_5">
    <path d="M 148.1334 45.025 
C 148.742041 45.025 149.325836 44.783184 149.75621 44.35281 
C 150.186584 43.922436 150.4284 43.338641 150.4284 42.73 
C 150.4284 42.121359 150.186584 41.537564 149.75621 41.10719 
C 149.325836 40.676816 148.742041 40.435 148.1334 40.435 
C 147.524759 40.435 146.940964 40.676816 146.51059 41.10719 
C 146.080216 41.537564 145.8384 42.121359 145.8384 42.73 
C 145.8384 43.338641 146.080216 43.922436 146.51059 44.35281 
C 146.940964 44.783184 147.524759 45.025 148.1334 45.025 
z
" clip-path="url(#p968d539b8f)" style="fill: #ffffff; stroke: #000000; stroke-width: 2; stroke-linejoin: miter"/>
   </g>
   <g id="patch_6">
    <path d="M 148.1334 136.825 
C 148.742041 136.825 149.325836 136.583184 149.75621 136.15281 
C 150.186584 135.722436 150.4284 135.138641 150.4284 134.53 
C 150.4284 133.921359 150.186584 133.337564 149.75621 132.90719 
C 149.325836 132.476816 148.742041 132.235 148.1334 132.235 
C 147.524759 132.235 146.940964 132.476816 146.51059 132.90719 
C 146.080216 133.337564 145.8384 133.921359 145.8384 134.53 
C 145.8384 135.138641 146.080216 135.722436 146.51059 136.15281 
C 146.940964 136.583184 147.524759 136.825 148.1334 136.825 
z
" clip-path="url(#p968d539b8f)" style="fill: #ffffff; stroke: #000000; stroke-width: 2; stroke-linejoin: miter"/>
   </g>
   <g id="line2d_18">
    <path d="M 148.1334 82.51 
L 148.1334 82.51 
" clip-path="url(#p968d539b8f)" style="fill: none; stroke: #000000; stroke-width: 2; stroke-linecap: round"/>
   </g>
   <g id="patch_7">
    <path d="M 152.7234 82.51 
L 148.1334 91.69 
L 143.5434 82.51 
z
" clip-path="url(#p968d539b8f)"/>
   </g>
   <g id="text_6">
    <g clip-path="url(#p968d539b8f)">
     <!-- $I_{SC}$ -->
     <g transform="translate(157.3134 90.549219)scale(0.125 -0.125)">
      <use xlink:href="#STIXGeneral-Italic-49" transform="translate(0 0.703125)"/>
      <use xlink:href="#STIXGeneral-Italic-53" transform="translate(33.299988 -12.525)scale(0.7)"/>
      <use xlink:href="#STIXGeneral-Italic-43" transform="translate(68.299977 -12.525)scale(0.7)"/>
     </g>
    </g>
   </g>
  </g>
 </g>
 <defs>
  <clipPath id="p968d539b8f">
   <rect x="7.2" y="7.2" width="187.6188" height="132.685"/>
  </clipPath>
 </defs>
</svg>
