<?xml version="1.0" encoding="utf-8" standalone="no"?>
<!DOCTYPE svg PUBLIC "-//W3C//DTD SVG 1.1//EN"
  "http://www.w3.org/Graphics/SVG/1.1/DTD/svg11.dtd">
<svg xmlns:xlink="http://www.w3.org/1999/xlink" width="483.4164pt" height="121.16pt" viewBox="0 0 483.4164 121.16" xmlns="http://www.w3.org/2000/svg" version="1.1">
 <metadata>
  <rdf:RDF xmlns:dc="http://purl.org/dc/elements/1.1/" xmlns:cc="http://creativecommons.org/ns#" xmlns:rdf="http://www.w3.org/1999/02/22-rdf-syntax-ns#">
   <cc:Work>
    <dc:type rdf:resource="http://purl.org/dc/dcmitype/StillImage"/>
    <dc:date>2023-05-23T07:59:00.646443</dc:date>
    <dc:format>image/svg+xml</dc:format>
    <dc:creator>
     <cc:Agent>
      <dc:title>Matplotlib v3.5.2, https://matplotlib.org/</dc:title>
     </cc:Agent>
    </dc:creator>
   </cc:Work>
  </rdf:RDF>
 </metadata>
 <defs>
  <style type="text/css">*{stroke-linejoin: round; stroke-linecap: butt}</style>
 </defs>
 <g id="figure_1">
  <g id="patch_1">
   <path d="M 0 121.16 
L 483.4164 121.16 
L 483.4164 0 
L 0 0 
L 0 121.16 
z
" style="fill: none"/>
  </g>
  <g id="axes_1">
   <g id="patch_2">
    <path d="M 364.5876 65 
C 395.1876 65 372.2376 34.4 406.6626 34.4 
" clip-path="url(#p2707e0df10)" style="fill: none; stroke-dasharray: 7.4,3.2; stroke-dashoffset: 0; stroke: #0000ff; stroke-width: 2; stroke-linejoin: miter; stroke-linecap: round"/>
   </g>
   <g id="patch_3">
    <path d="M 368.4126 68.06 
L 360.7626 65 
L 368.4126 61.94 
z
" clip-path="url(#p2707e0df10)" style="fill: #0000ff"/>
   </g>
   <g id="patch_4">
    <path d="M 112.1376 65 
C 81.5376 65 104.4876 34.4 70.0626 34.4 
" clip-path="url(#p2707e0df10)" style="fill: none; stroke-dasharray: 7.4,3.2; stroke-dashoffset: 0; stroke: #0000ff; stroke-width: 2; stroke-linejoin: miter; stroke-linecap: round"/>
   </g>
   <g id="patch_5">
    <path d="M 108.3126 61.94 
L 115.9626 65 
L 108.3126 68.06 
z
" clip-path="url(#p2707e0df10)" style="fill: #0000ff"/>
   </g>
   <g id="patch_6">
    <path d="M 364.5876 65 
C 395.1876 65 372.2376 34.4 406.6626 34.4 
" clip-path="url(#p2707e0df10)" style="fill: none; stroke-dasharray: 7.4,3.2; stroke-dashoffset: 0; stroke: #0000ff; stroke-width: 2; stroke-linejoin: miter; stroke-linecap: round"/>
   </g>
   <g id="patch_7">
    <path d="M 368.4126 68.06 
L 360.7626 65 
L 368.4126 61.94 
z
" clip-path="url(#p2707e0df10)" style="fill: #0000ff"/>
   </g>
   <g id="patch_8">
    <path d="M 112.1376 65 
C 81.5376 65 104.4876 34.4 70.0626 34.4 
" clip-path="url(#p2707e0df10)" style="fill: none; stroke-dasharray: 7.4,3.2; stroke-dashoffset: 0; stroke: #0000ff; stroke-width: 2; stroke-linejoin: miter; stroke-linecap: round"/>
   </g>
   <g id="patch_9">
    <path d="M 108.3126 61.94 
L 115.9626 65 
L 108.3126 68.06 
z
" clip-path="url(#p2707e0df10)" style="fill: #0000ff"/>
   </g>
   <g id="line2d_1">
    <path d="M 115.9626 110.9 
L 115.9626 103.25 
L 115.9626 95.6 
" clip-path="url(#p2707e0df10)" style="fill: none; stroke: #000000; stroke-width: 2; stroke-linecap: round"/>
   </g>
   <g id="line2d_2">
    <path d="M 115.9626 95.6 
L 115.9626 65 
L 115.9626 34.4 
" clip-path="url(#p2707e0df10)" style="fill: none; stroke: #000000; stroke-width: 2; stroke-linecap: round"/>
   </g>
   <g id="line2d_3">
    <path d="M 115.9626 34.4 
L 115.9626 26.75 
L 115.9626 19.1 
" clip-path="url(#p2707e0df10)" style="fill: none; stroke: #000000; stroke-width: 2; stroke-linecap: round"/>
   </g>
   <g id="line2d_4">
    <path d="M 115.9626 19.1 
L 146.5626 19.1 
L 149.1126 11.45 
L 154.2126 26.75 
L 159.3126 11.45 
L 164.4126 26.75 
L 169.5126 11.45 
L 174.6126 26.75 
L 177.1626 19.1 
L 207.7626 19.1 
" clip-path="url(#p2707e0df10)" style="fill: none; stroke: #000000; stroke-width: 2; stroke-linecap: round"/>
   </g>
   <g id="line2d_5">
    <path d="M 207.7626 19.1 
L 238.3626 19.1 
L 240.9126 11.45 
L 246.0126 26.75 
L 251.1126 11.45 
L 256.2126 26.75 
L 261.3126 11.45 
L 266.4126 26.75 
L 268.9626 19.1 
L 299.5626 19.1 
" clip-path="url(#p2707e0df10)" style="fill: none; stroke: #000000; stroke-width: 2; stroke-linecap: round"/>
   </g>
   <g id="line2d_6">
    <path d="M 299.5626 19.1 
L 314.8626 19.1 
L 330.1626 19.1 
" clip-path="url(#p2707e0df10)" style="fill: none; stroke: #000000; stroke-width: 2; stroke-linecap: round"/>
   </g>
   <g id="line2d_7">
    <path d="M 330.1626 19.1 
L 330.1626 26.75 
L 330.1626 34.4 
" clip-path="url(#p2707e0df10)" style="fill: none; stroke: #000000; stroke-width: 2; stroke-linecap: round"/>
   </g>
   <g id="line2d_8">
    <path d="M 330.1626 95.6 
L 330.1626 103.25 
L 330.1626 110.9 
" clip-path="url(#p2707e0df10)" style="fill: none; stroke: #000000; stroke-width: 2; stroke-linecap: round"/>
   </g>
   <g id="line2d_9">
    <path d="M 330.1626 110.9 
L 223.0626 110.9 
L 115.9626 110.9 
" clip-path="url(#p2707e0df10)" style="fill: none; stroke: #000000; stroke-width: 2; stroke-linecap: round"/>
   </g>
   <g id="line2d_10">
    <path d="M 207.7626 19.1 
L 207.7626 49.7 
L 215.4126 52.25 
L 200.1126 57.35 
L 215.4126 62.45 
L 200.1126 67.55 
L 215.4126 72.65 
L 200.1126 77.75 
L 207.7626 80.3 
L 207.7626 110.9 
" clip-path="url(#p2707e0df10)" style="fill: none; stroke: #000000; stroke-width: 2; stroke-linecap: round"/>
   </g>
   <g id="line2d_11">
    <path d="M 330.1626 65 
L 317.9226 65 
L 313.3326 65 
" clip-path="url(#p2707e0df10)" style="fill: none; stroke: #000000; stroke-width: 2; stroke-linecap: round"/>
   </g>
   <g id="patch_10">
    <path d="M 313.3326 67.295 
L 305.6826 65 
L 313.3326 62.705 
z
" clip-path="url(#p2707e0df10)"/>
   </g>
   <g id="line2d_12">
    <path d="M 115.9626 110.9 
L 115.9626 103.25 
L 115.9626 95.6 
" clip-path="url(#p2707e0df10)" style="fill: none; stroke: #000000; stroke-width: 2; stroke-linecap: round"/>
   </g>
   <g id="line2d_13">
    <path d="M 115.9626 95.6 
L 115.9626 65 
L 115.9626 34.4 
" clip-path="url(#p2707e0df10)" style="fill: none; stroke: #000000; stroke-width: 2; stroke-linecap: round"/>
   </g>
   <g id="line2d_14">
    <path d="M 115.9626 34.4 
L 115.9626 26.75 
L 115.9626 19.1 
" clip-path="url(#p2707e0df10)" style="fill: none; stroke: #000000; stroke-width: 2; stroke-linecap: round"/>
   </g>
   <g id="line2d_15">
    <path d="M 115.9626 19.1 
L 146.5626 19.1 
L 149.1126 11.45 
L 154.2126 26.75 
L 159.3126 11.45 
L 164.4126 26.75 
L 169.5126 11.45 
L 174.6126 26.75 
L 177.1626 19.1 
L 207.7626 19.1 
" clip-path="url(#p2707e0df10)" style="fill: none; stroke: #000000; stroke-width: 2; stroke-linecap: round"/>
   </g>
   <g id="line2d_16">
    <path d="M 207.7626 19.1 
L 238.3626 19.1 
L 240.9126 11.45 
L 246.0126 26.75 
L 251.1126 11.45 
L 256.2126 26.75 
L 261.3126 11.45 
L 266.4126 26.75 
L 268.9626 19.1 
L 299.5626 19.1 
" clip-path="url(#p2707e0df10)" style="fill: none; stroke: #000000; stroke-width: 2; stroke-linecap: round"/>
   </g>
   <g id="line2d_17">
    <path d="M 299.5626 19.1 
L 314.8626 19.1 
L 330.1626 19.1 
" clip-path="url(#p2707e0df10)" style="fill: none; stroke: #000000; stroke-width: 2; stroke-linecap: round"/>
   </g>
   <g id="line2d_18">
    <path d="M 330.1626 19.1 
L 330.1626 26.75 
L 330.1626 34.4 
" clip-path="url(#p2707e0df10)" style="fill: none; stroke: #000000; stroke-width: 2; stroke-linecap: round"/>
   </g>
   <g id="line2d_19">
    <path d="M 330.1626 95.6 
L 330.1626 103.25 
L 330.1626 110.9 
" clip-path="url(#p2707e0df10)" style="fill: none; stroke: #000000; stroke-width: 2; stroke-linecap: round"/>
   </g>
   <g id="line2d_20">
    <path d="M 330.1626 110.9 
L 223.0626 110.9 
L 115.9626 110.9 
" clip-path="url(#p2707e0df10)" style="fill: none; stroke: #000000; stroke-width: 2; stroke-linecap: round"/>
   </g>
   <g id="line2d_21">
    <path d="M 207.7626 19.1 
L 207.7626 49.7 
L 215.4126 52.25 
L 200.1126 57.35 
L 215.4126 62.45 
L 200.1126 67.55 
L 215.4126 72.65 
L 200.1126 77.75 
L 207.7626 80.3 
L 207.7626 110.9 
" clip-path="url(#p2707e0df10)" style="fill: none; stroke: #000000; stroke-width: 2; stroke-linecap: round"/>
   </g>
   <g id="line2d_22">
    <path d="M 330.1626 65 
L 317.9226 65 
L 313.3326 65 
" clip-path="url(#p2707e0df10)" style="fill: none; stroke: #000000; stroke-width: 2; stroke-linecap: round"/>
   </g>
   <g id="patch_11">
    <path d="M 313.3326 67.295 
L 305.6826 65 
L 313.3326 62.705 
z
" clip-path="url(#p2707e0df10)"/>
   </g>
   <g id="text_1">
    <g clip-path="url(#p2707e0df10)">
     <!-- $R_{1}$ -->
     <g transform="translate(155.5501 39.308047)scale(0.125 -0.125)">
      <defs>
       <path id="STIXGeneral-Italic-52" d="M 845 4179 
L 2458 4179 
Q 3078 4179 3420 3936 
Q 3763 3693 3763 3277 
Q 3763 2778 3341 2458 
Q 3091 2266 2502 2131 
L 3072 627 
Q 3181 333 3299 217 
Q 3418 102 3629 102 
L 3629 0 
L 2688 0 
L 1901 2074 
L 1478 2106 
L 1126 806 
Q 1043 512 1043 403 
Q 1043 256 1126 192 
Q 1210 128 1472 102 
L 1472 0 
L -83 0 
L -83 102 
Q 173 134 278 243 
Q 384 352 461 646 
L 1222 3405 
Q 1299 3699 1299 3808 
Q 1299 3923 1210 3987 
Q 1133 4038 845 4077 
L 845 4179 
z
M 1958 3795 
L 1555 2342 
Q 1754 2310 1882 2310 
Q 2451 2310 2771 2566 
Q 3091 2822 3091 3270 
Q 3091 3603 2892 3795 
Q 2694 3987 2323 3987 
Q 2010 3987 1958 3795 
z
" transform="scale(0.015625)"/>
       <path id="STIXGeneral-Regular-31" d="M 2522 0 
L 755 0 
L 755 96 
Q 1107 115 1235 227 
Q 1363 339 1363 608 
L 1363 3482 
Q 1363 3795 1171 3795 
Q 1082 3795 883 3718 
L 710 3654 
L 710 3744 
L 1856 4326 
L 1914 4307 
L 1914 486 
Q 1914 275 2042 185 
Q 2170 96 2522 96 
L 2522 0 
z
" transform="scale(0.015625)"/>
      </defs>
      <use xlink:href="#STIXGeneral-Italic-52" transform="translate(0 0.703125)"/>
      <use xlink:href="#STIXGeneral-Regular-31" transform="translate(61.099991 -12.525)scale(0.7)"/>
     </g>
    </g>
    <g clip-path="url(#p2707e0df10)">
     <!-- 3Ω -->
     <g transform="translate(153.10967 53.305312)scale(0.125 -0.125)">
      <defs>
       <path id="DejaVuSans-33" d="M 2597 2516 
Q 3050 2419 3304 2112 
Q 3559 1806 3559 1356 
Q 3559 666 3084 287 
Q 2609 -91 1734 -91 
Q 1441 -91 1130 -33 
Q 819 25 488 141 
L 488 750 
Q 750 597 1062 519 
Q 1375 441 1716 441 
Q 2309 441 2620 675 
Q 2931 909 2931 1356 
Q 2931 1769 2642 2001 
Q 2353 2234 1838 2234 
L 1294 2234 
L 1294 2753 
L 1863 2753 
Q 2328 2753 2575 2939 
Q 2822 3125 2822 3475 
Q 2822 3834 2567 4026 
Q 2313 4219 1838 4219 
Q 1578 4219 1281 4162 
Q 984 4106 628 3988 
L 628 4550 
Q 988 4650 1302 4700 
Q 1616 4750 1894 4750 
Q 2613 4750 3031 4423 
Q 3450 4097 3450 3541 
Q 3450 3153 3228 2886 
Q 3006 2619 2597 2516 
z
" transform="scale(0.015625)"/>
       <path id="DejaVuSans-3a9" d="M 4647 556 
L 4647 0 
L 2772 0 
L 2772 556 
Q 3325 859 3634 1378 
Q 3944 1897 3944 2528 
Q 3944 3278 3531 3731 
Q 3119 4184 2444 4184 
Q 1769 4184 1355 3729 
Q 941 3275 941 2528 
Q 941 1897 1250 1378 
Q 1563 859 2119 556 
L 2119 0 
L 244 0 
L 244 556 
L 1241 556 
Q 747 991 519 1456 
Q 294 1922 294 2497 
Q 294 3491 894 4106 
Q 1491 4722 2444 4722 
Q 3391 4722 3994 4106 
Q 4594 3494 4594 2528 
Q 4594 1922 4372 1459 
Q 4150 997 3647 556 
L 4647 556 
z
" transform="scale(0.015625)"/>
      </defs>
      <use xlink:href="#DejaVuSans-33"/>
      <use xlink:href="#DejaVuSans-3a9" x="63.623047"/>
     </g>
    </g>
   </g>
   <g id="text_2">
    <g clip-path="url(#p2707e0df10)">
     <!-- $R_{3}$ -->
     <g transform="translate(247.3501 39.308047)scale(0.125 -0.125)">
      <defs>
       <path id="STIXGeneral-Regular-33" d="M 390 3264 
L 288 3290 
Q 435 3770 748 4048 
Q 1062 4326 1542 4326 
Q 1990 4326 2265 4083 
Q 2541 3840 2541 3450 
Q 2541 2925 1946 2566 
Q 2298 2413 2477 2227 
Q 2758 1914 2758 1402 
Q 2758 890 2464 506 
Q 2246 211 1840 60 
Q 1434 -90 979 -90 
Q 262 -90 262 275 
Q 262 378 339 442 
Q 416 506 525 506 
Q 685 506 915 339 
Q 1197 141 1466 141 
Q 1818 141 2058 425 
Q 2298 710 2298 1120 
Q 2298 1856 1632 2048 
Q 1434 2112 979 2112 
L 979 2202 
Q 1338 2323 1517 2432 
Q 2035 2726 2035 3290 
Q 2035 3610 1852 3776 
Q 1670 3942 1344 3942 
Q 768 3942 390 3264 
z
" transform="scale(0.015625)"/>
      </defs>
      <use xlink:href="#STIXGeneral-Italic-52" transform="translate(0 0.703125)"/>
      <use xlink:href="#STIXGeneral-Regular-33" transform="translate(61.099991 -12.525)scale(0.7)"/>
     </g>
    </g>
    <g clip-path="url(#p2707e0df10)">
     <!-- 5Ω -->
     <g transform="translate(244.90967 53.305312)scale(0.125 -0.125)">
      <defs>
       <path id="DejaVuSans-35" d="M 691 4666 
L 3169 4666 
L 3169 4134 
L 1269 4134 
L 1269 2991 
Q 1406 3038 1543 3061 
Q 1681 3084 1819 3084 
Q 2600 3084 3056 2656 
Q 3513 2228 3513 1497 
Q 3513 744 3044 326 
Q 2575 -91 1722 -91 
Q 1428 -91 1123 -41 
Q 819 9 494 109 
L 494 744 
Q 775 591 1075 516 
Q 1375 441 1709 441 
Q 2250 441 2565 725 
Q 2881 1009 2881 1497 
Q 2881 1984 2565 2268 
Q 2250 2553 1709 2553 
Q 1456 2553 1204 2497 
Q 953 2441 691 2322 
L 691 4666 
z
" transform="scale(0.015625)"/>
      </defs>
      <use xlink:href="#DejaVuSans-35"/>
      <use xlink:href="#DejaVuSans-3a9" x="63.623047"/>
     </g>
    </g>
   </g>
   <g id="text_3">
    <g clip-path="url(#p2707e0df10)">
     <!-- $R_{2}$ -->
     <g transform="translate(218.4726 61.450586)scale(0.125 -0.125)">
      <defs>
       <path id="STIXGeneral-Regular-32" d="M 3034 877 
L 2688 0 
L 186 0 
L 186 77 
L 1325 1286 
Q 1773 1754 1965 2144 
Q 2157 2534 2157 2950 
Q 2157 3379 1920 3616 
Q 1683 3853 1267 3853 
Q 922 3853 720 3673 
Q 518 3494 326 3021 
L 192 3053 
Q 301 3648 630 3987 
Q 960 4326 1523 4326 
Q 2054 4326 2380 4006 
Q 2707 3686 2707 3200 
Q 2707 2477 1888 1613 
L 832 486 
L 2330 486 
Q 2541 486 2665 569 
Q 2790 653 2944 915 
L 3034 877 
z
" transform="scale(0.015625)"/>
      </defs>
      <use xlink:href="#STIXGeneral-Italic-52" transform="translate(0 0.703125)"/>
      <use xlink:href="#STIXGeneral-Regular-32" transform="translate(61.099991 -12.525)scale(0.7)"/>
     </g>
    </g>
    <g clip-path="url(#p2707e0df10)">
     <!-- 6Ω -->
     <g transform="translate(218.4726 75.447852)scale(0.125 -0.125)">
      <defs>
       <path id="DejaVuSans-36" d="M 2113 2584 
Q 1688 2584 1439 2293 
Q 1191 2003 1191 1497 
Q 1191 994 1439 701 
Q 1688 409 2113 409 
Q 2538 409 2786 701 
Q 3034 994 3034 1497 
Q 3034 2003 2786 2293 
Q 2538 2584 2113 2584 
z
M 3366 4563 
L 3366 3988 
Q 3128 4100 2886 4159 
Q 2644 4219 2406 4219 
Q 1781 4219 1451 3797 
Q 1122 3375 1075 2522 
Q 1259 2794 1537 2939 
Q 1816 3084 2150 3084 
Q 2853 3084 3261 2657 
Q 3669 2231 3669 1497 
Q 3669 778 3244 343 
Q 2819 -91 2113 -91 
Q 1303 -91 875 529 
Q 447 1150 447 2328 
Q 447 3434 972 4092 
Q 1497 4750 2381 4750 
Q 2619 4750 2861 4703 
Q 3103 4656 3366 4563 
z
" transform="scale(0.015625)"/>
      </defs>
      <use xlink:href="#DejaVuSans-36"/>
      <use xlink:href="#DejaVuSans-3a9" x="63.623047"/>
     </g>
    </g>
   </g>
   <g id="text_4">
    <g clip-path="url(#p2707e0df10)">
     <!-- Load -->
     <g style="fill: #0000ff" transform="translate(409.7226 30.850586)scale(0.125 -0.125)">
      <defs>
       <path id="DejaVuSans-4c" d="M 628 4666 
L 1259 4666 
L 1259 531 
L 3531 531 
L 3531 0 
L 628 0 
L 628 4666 
z
" transform="scale(0.015625)"/>
       <path id="DejaVuSans-6f" d="M 1959 3097 
Q 1497 3097 1228 2736 
Q 959 2375 959 1747 
Q 959 1119 1226 758 
Q 1494 397 1959 397 
Q 2419 397 2687 759 
Q 2956 1122 2956 1747 
Q 2956 2369 2687 2733 
Q 2419 3097 1959 3097 
z
M 1959 3584 
Q 2709 3584 3137 3096 
Q 3566 2609 3566 1747 
Q 3566 888 3137 398 
Q 2709 -91 1959 -91 
Q 1206 -91 779 398 
Q 353 888 353 1747 
Q 353 2609 779 3096 
Q 1206 3584 1959 3584 
z
" transform="scale(0.015625)"/>
       <path id="DejaVuSans-61" d="M 2194 1759 
Q 1497 1759 1228 1600 
Q 959 1441 959 1056 
Q 959 750 1161 570 
Q 1363 391 1709 391 
Q 2188 391 2477 730 
Q 2766 1069 2766 1631 
L 2766 1759 
L 2194 1759 
z
M 3341 1997 
L 3341 0 
L 2766 0 
L 2766 531 
Q 2569 213 2275 61 
Q 1981 -91 1556 -91 
Q 1019 -91 701 211 
Q 384 513 384 1019 
Q 384 1609 779 1909 
Q 1175 2209 1959 2209 
L 2766 2209 
L 2766 2266 
Q 2766 2663 2505 2880 
Q 2244 3097 1772 3097 
Q 1472 3097 1187 3025 
Q 903 2953 641 2809 
L 641 3341 
Q 956 3463 1253 3523 
Q 1550 3584 1831 3584 
Q 2591 3584 2966 3190 
Q 3341 2797 3341 1997 
z
" transform="scale(0.015625)"/>
       <path id="DejaVuSans-64" d="M 2906 2969 
L 2906 4863 
L 3481 4863 
L 3481 0 
L 2906 0 
L 2906 525 
Q 2725 213 2448 61 
Q 2172 -91 1784 -91 
Q 1150 -91 751 415 
Q 353 922 353 1747 
Q 353 2572 751 3078 
Q 1150 3584 1784 3584 
Q 2172 3584 2448 3432 
Q 2725 3281 2906 2969 
z
M 947 1747 
Q 947 1113 1208 752 
Q 1469 391 1925 391 
Q 2381 391 2643 752 
Q 2906 1113 2906 1747 
Q 2906 2381 2643 2742 
Q 2381 3103 1925 3103 
Q 1469 3103 1208 2742 
Q 947 2381 947 1747 
z
" transform="scale(0.015625)"/>
      </defs>
      <use xlink:href="#DejaVuSans-4c"/>
      <use xlink:href="#DejaVuSans-6f" x="53.962891"/>
      <use xlink:href="#DejaVuSans-61" x="115.144531"/>
      <use xlink:href="#DejaVuSans-64" x="176.423828"/>
     </g>
    </g>
    <g clip-path="url(#p2707e0df10)">
     <!-- Removed -->
     <g style="fill: #0000ff" transform="translate(409.7226 44.847852)scale(0.125 -0.125)">
      <defs>
       <path id="DejaVuSans-52" d="M 2841 2188 
Q 3044 2119 3236 1894 
Q 3428 1669 3622 1275 
L 4263 0 
L 3584 0 
L 2988 1197 
Q 2756 1666 2539 1819 
Q 2322 1972 1947 1972 
L 1259 1972 
L 1259 0 
L 628 0 
L 628 4666 
L 2053 4666 
Q 2853 4666 3247 4331 
Q 3641 3997 3641 3322 
Q 3641 2881 3436 2590 
Q 3231 2300 2841 2188 
z
M 1259 4147 
L 1259 2491 
L 2053 2491 
Q 2509 2491 2742 2702 
Q 2975 2913 2975 3322 
Q 2975 3731 2742 3939 
Q 2509 4147 2053 4147 
L 1259 4147 
z
" transform="scale(0.015625)"/>
       <path id="DejaVuSans-65" d="M 3597 1894 
L 3597 1613 
L 953 1613 
Q 991 1019 1311 708 
Q 1631 397 2203 397 
Q 2534 397 2845 478 
Q 3156 559 3463 722 
L 3463 178 
Q 3153 47 2828 -22 
Q 2503 -91 2169 -91 
Q 1331 -91 842 396 
Q 353 884 353 1716 
Q 353 2575 817 3079 
Q 1281 3584 2069 3584 
Q 2775 3584 3186 3129 
Q 3597 2675 3597 1894 
z
M 3022 2063 
Q 3016 2534 2758 2815 
Q 2500 3097 2075 3097 
Q 1594 3097 1305 2825 
Q 1016 2553 972 2059 
L 3022 2063 
z
" transform="scale(0.015625)"/>
       <path id="DejaVuSans-6d" d="M 3328 2828 
Q 3544 3216 3844 3400 
Q 4144 3584 4550 3584 
Q 5097 3584 5394 3201 
Q 5691 2819 5691 2113 
L 5691 0 
L 5113 0 
L 5113 2094 
Q 5113 2597 4934 2840 
Q 4756 3084 4391 3084 
Q 3944 3084 3684 2787 
Q 3425 2491 3425 1978 
L 3425 0 
L 2847 0 
L 2847 2094 
Q 2847 2600 2669 2842 
Q 2491 3084 2119 3084 
Q 1678 3084 1418 2786 
Q 1159 2488 1159 1978 
L 1159 0 
L 581 0 
L 581 3500 
L 1159 3500 
L 1159 2956 
Q 1356 3278 1631 3431 
Q 1906 3584 2284 3584 
Q 2666 3584 2933 3390 
Q 3200 3197 3328 2828 
z
" transform="scale(0.015625)"/>
       <path id="DejaVuSans-76" d="M 191 3500 
L 800 3500 
L 1894 563 
L 2988 3500 
L 3597 3500 
L 2284 0 
L 1503 0 
L 191 3500 
z
" transform="scale(0.015625)"/>
      </defs>
      <use xlink:href="#DejaVuSans-52"/>
      <use xlink:href="#DejaVuSans-65" x="64.982422"/>
      <use xlink:href="#DejaVuSans-6d" x="126.505859"/>
      <use xlink:href="#DejaVuSans-6f" x="223.917969"/>
      <use xlink:href="#DejaVuSans-76" x="285.099609"/>
      <use xlink:href="#DejaVuSans-65" x="344.279297"/>
      <use xlink:href="#DejaVuSans-64" x="405.802734"/>
     </g>
    </g>
   </g>
   <g id="text_5">
    <g clip-path="url(#p2707e0df10)">
     <!-- $V_S$ -->
     <g style="fill: #0000ff" transform="translate(54.3776 30.850586)scale(0.125 -0.125)">
      <defs>
       <path id="STIXGeneral-Italic-56" d="M 4403 4179 
L 4403 4077 
Q 4198 4070 4045 3821 
L 1658 -115 
L 1536 -115 
L 1011 3104 
Q 902 3776 828 3910 
Q 755 4045 486 4077 
L 486 4179 
L 2022 4179 
L 2022 4077 
Q 1722 4045 1629 3981 
Q 1536 3917 1536 3750 
Q 1536 3686 1542 3654 
L 1958 819 
L 3302 3123 
Q 3616 3661 3616 3859 
Q 3616 4032 3219 4077 
L 3219 4179 
L 4403 4179 
z
" transform="scale(0.015625)"/>
       <path id="STIXGeneral-Italic-53" d="M 3251 4269 
L 2995 2989 
L 2880 3008 
Q 2880 3539 2720 3795 
Q 2560 4051 2118 4051 
Q 1786 4051 1594 3881 
Q 1402 3712 1402 3411 
Q 1402 3168 1504 3005 
Q 1606 2842 2035 2413 
Q 2464 1978 2611 1715 
Q 2758 1453 2758 1133 
Q 2758 589 2390 237 
Q 2022 -115 1466 -115 
Q 1222 -115 800 32 
Q 595 109 499 109 
Q 288 109 224 -96 
L 109 -96 
L 326 1338 
L 454 1325 
Q 442 1267 442 1178 
Q 442 710 701 409 
Q 960 109 1363 109 
Q 1734 109 1968 336 
Q 2202 563 2202 928 
Q 2202 1139 2118 1308 
Q 2035 1478 1818 1715 
L 1568 1984 
Q 1549 2003 1459 2102 
Q 1370 2202 1318 2253 
Q 1030 2560 934 2755 
Q 838 2950 838 3213 
Q 838 3699 1168 3980 
Q 1498 4262 1978 4262 
Q 2310 4262 2522 4173 
Q 2707 4102 2816 4102 
Q 2925 4102 2982 4134 
Q 3040 4166 3104 4269 
L 3251 4269 
z
" transform="scale(0.015625)"/>
      </defs>
      <use xlink:href="#STIXGeneral-Italic-56" transform="translate(0 0.703125)"/>
      <use xlink:href="#STIXGeneral-Italic-53" transform="translate(61.099991 -12.525)scale(0.7)"/>
     </g>
    </g>
    <g clip-path="url(#p2707e0df10)">
     <!-- Replaced -->
     <g style="fill: #0000ff" transform="translate(9.619788 44.847852)scale(0.125 -0.125)">
      <defs>
       <path id="DejaVuSans-70" d="M 1159 525 
L 1159 -1331 
L 581 -1331 
L 581 3500 
L 1159 3500 
L 1159 2969 
Q 1341 3281 1617 3432 
Q 1894 3584 2278 3584 
Q 2916 3584 3314 3078 
Q 3713 2572 3713 1747 
Q 3713 922 3314 415 
Q 2916 -91 2278 -91 
Q 1894 -91 1617 61 
Q 1341 213 1159 525 
z
M 3116 1747 
Q 3116 2381 2855 2742 
Q 2594 3103 2138 3103 
Q 1681 3103 1420 2742 
Q 1159 2381 1159 1747 
Q 1159 1113 1420 752 
Q 1681 391 2138 391 
Q 2594 391 2855 752 
Q 3116 1113 3116 1747 
z
" transform="scale(0.015625)"/>
       <path id="DejaVuSans-6c" d="M 603 4863 
L 1178 4863 
L 1178 0 
L 603 0 
L 603 4863 
z
" transform="scale(0.015625)"/>
       <path id="DejaVuSans-63" d="M 3122 3366 
L 3122 2828 
Q 2878 2963 2633 3030 
Q 2388 3097 2138 3097 
Q 1578 3097 1268 2742 
Q 959 2388 959 1747 
Q 959 1106 1268 751 
Q 1578 397 2138 397 
Q 2388 397 2633 464 
Q 2878 531 3122 666 
L 3122 134 
Q 2881 22 2623 -34 
Q 2366 -91 2075 -91 
Q 1284 -91 818 406 
Q 353 903 353 1747 
Q 353 2603 823 3093 
Q 1294 3584 2113 3584 
Q 2378 3584 2631 3529 
Q 2884 3475 3122 3366 
z
" transform="scale(0.015625)"/>
      </defs>
      <use xlink:href="#DejaVuSans-52"/>
      <use xlink:href="#DejaVuSans-65" x="64.982422"/>
      <use xlink:href="#DejaVuSans-70" x="126.505859"/>
      <use xlink:href="#DejaVuSans-6c" x="189.982422"/>
      <use xlink:href="#DejaVuSans-61" x="217.765625"/>
      <use xlink:href="#DejaVuSans-63" x="279.044922"/>
      <use xlink:href="#DejaVuSans-65" x="334.025391"/>
      <use xlink:href="#DejaVuSans-64" x="395.548828"/>
     </g>
    </g>
   </g>
   <g id="text_6">
    <g clip-path="url(#p2707e0df10)">
     <!-- $R_{N}$ -->
     <g transform="translate(333.2226 68.449219)scale(0.125 -0.125)">
      <defs>
       <path id="STIXGeneral-Italic-4e" d="M 4653 4179 
L 4653 4077 
Q 4480 4038 4413 4016 
Q 4346 3994 4266 3882 
Q 4186 3770 4144 3635 
Q 4102 3501 4000 3149 
L 3066 -96 
L 2950 -96 
L 1478 3424 
L 749 723 
Q 691 525 691 378 
Q 691 243 790 182 
Q 890 122 1139 102 
L 1139 0 
L -128 0 
L -128 102 
Q 147 141 262 304 
Q 378 467 550 1075 
L 1299 3731 
Q 1152 4077 749 4077 
L 749 4179 
L 1773 4179 
L 3098 986 
L 3776 3469 
Q 3827 3648 3827 3750 
Q 3827 3923 3740 3987 
Q 3654 4051 3386 4077 
L 3386 4179 
L 4653 4179 
z
" transform="scale(0.015625)"/>
      </defs>
      <use xlink:href="#STIXGeneral-Italic-52" transform="translate(0 0.703125)"/>
      <use xlink:href="#STIXGeneral-Italic-4e" transform="translate(61.099991 -12.525)scale(0.7)"/>
     </g>
    </g>
   </g>
   <g id="text_7">
    <g clip-path="url(#p2707e0df10)">
     <!-- $R_{1}$ -->
     <g transform="translate(155.5501 39.308047)scale(0.125 -0.125)">
      <use xlink:href="#STIXGeneral-Italic-52" transform="translate(0 0.703125)"/>
      <use xlink:href="#STIXGeneral-Regular-31" transform="translate(61.099991 -12.525)scale(0.7)"/>
     </g>
    </g>
    <g clip-path="url(#p2707e0df10)">
     <!-- 3Ω -->
     <g transform="translate(153.10967 53.305312)scale(0.125 -0.125)">
      <use xlink:href="#DejaVuSans-33"/>
      <use xlink:href="#DejaVuSans-3a9" x="63.623047"/>
     </g>
    </g>
   </g>
   <g id="text_8">
    <g clip-path="url(#p2707e0df10)">
     <!-- $R_{3}$ -->
     <g transform="translate(247.3501 39.308047)scale(0.125 -0.125)">
      <use xlink:href="#STIXGeneral-Italic-52" transform="translate(0 0.703125)"/>
      <use xlink:href="#STIXGeneral-Regular-33" transform="translate(61.099991 -12.525)scale(0.7)"/>
     </g>
    </g>
    <g clip-path="url(#p2707e0df10)">
     <!-- 5Ω -->
     <g transform="translate(244.90967 53.305312)scale(0.125 -0.125)">
      <use xlink:href="#DejaVuSans-35"/>
      <use xlink:href="#DejaVuSans-3a9" x="63.623047"/>
     </g>
    </g>
   </g>
   <g id="text_9">
    <g clip-path="url(#p2707e0df10)">
     <!-- $R_{2}$ -->
     <g transform="translate(218.4726 61.450586)scale(0.125 -0.125)">
      <use xlink:href="#STIXGeneral-Italic-52" transform="translate(0 0.703125)"/>
      <use xlink:href="#STIXGeneral-Regular-32" transform="translate(61.099991 -12.525)scale(0.7)"/>
     </g>
    </g>
    <g clip-path="url(#p2707e0df10)">
     <!-- 6Ω -->
     <g transform="translate(218.4726 75.447852)scale(0.125 -0.125)">
      <use xlink:href="#DejaVuSans-36"/>
      <use xlink:href="#DejaVuSans-3a9" x="63.623047"/>
     </g>
    </g>
   </g>
   <g id="text_10">
    <g clip-path="url(#p2707e0df10)">
     <!-- Load -->
     <g style="fill: #0000ff" transform="translate(409.7226 30.850586)scale(0.125 -0.125)">
      <use xlink:href="#DejaVuSans-4c"/>
      <use xlink:href="#DejaVuSans-6f" x="53.962891"/>
      <use xlink:href="#DejaVuSans-61" x="115.144531"/>
      <use xlink:href="#DejaVuSans-64" x="176.423828"/>
     </g>
    </g>
    <g clip-path="url(#p2707e0df10)">
     <!-- Removed -->
     <g style="fill: #0000ff" transform="translate(409.7226 44.847852)scale(0.125 -0.125)">
      <use xlink:href="#DejaVuSans-52"/>
      <use xlink:href="#DejaVuSans-65" x="64.982422"/>
      <use xlink:href="#DejaVuSans-6d" x="126.505859"/>
      <use xlink:href="#DejaVuSans-6f" x="223.917969"/>
      <use xlink:href="#DejaVuSans-76" x="285.099609"/>
      <use xlink:href="#DejaVuSans-65" x="344.279297"/>
      <use xlink:href="#DejaVuSans-64" x="405.802734"/>
     </g>
    </g>
   </g>
   <g id="text_11">
    <g clip-path="url(#p2707e0df10)">
     <!-- $V_S$ -->
     <g style="fill: #0000ff" transform="translate(54.3776 30.850586)scale(0.125 -0.125)">
      <use xlink:href="#STIXGeneral-Italic-56" transform="translate(0 0.703125)"/>
      <use xlink:href="#STIXGeneral-Italic-53" transform="translate(61.099991 -12.525)scale(0.7)"/>
     </g>
    </g>
    <g clip-path="url(#p2707e0df10)">
     <!-- Replaced -->
     <g style="fill: #0000ff" transform="translate(9.619788 44.847852)scale(0.125 -0.125)">
      <use xlink:href="#DejaVuSans-52"/>
      <use xlink:href="#DejaVuSans-65" x="64.982422"/>
      <use xlink:href="#DejaVuSans-70" x="126.505859"/>
      <use xlink:href="#DejaVuSans-6c" x="189.982422"/>
      <use xlink:href="#DejaVuSans-61" x="217.765625"/>
      <use xlink:href="#DejaVuSans-63" x="279.044922"/>
      <use xlink:href="#DejaVuSans-65" x="334.025391"/>
      <use xlink:href="#DejaVuSans-64" x="395.548828"/>
     </g>
    </g>
   </g>
   <g id="text_12">
    <g clip-path="url(#p2707e0df10)">
     <!-- $R_{N}$ -->
     <g transform="translate(333.2226 68.449219)scale(0.125 -0.125)">
      <use xlink:href="#STIXGeneral-Italic-52" transform="translate(0 0.703125)"/>
      <use xlink:href="#STIXGeneral-Italic-4e" transform="translate(61.099991 -12.525)scale(0.7)"/>
     </g>
    </g>
   </g>
   <g id="patch_12">
    <path d="M 115.9626 97.895 
C 116.571241 97.895 117.155036 97.653184 117.58541 97.22281 
C 118.015784 96.792436 118.2576 96.208641 118.2576 95.6 
C 118.2576 94.991359 118.015784 94.407564 117.58541 93.97719 
C 117.155036 93.546816 116.571241 93.305 115.9626 93.305 
C 115.353959 93.305 114.770164 93.546816 114.33979 93.97719 
C 113.909416 94.407564 113.6676 94.991359 113.6676 95.6 
C 113.6676 96.208641 113.909416 96.792436 114.33979 97.22281 
C 114.770164 97.653184 115.353959 97.895 115.9626 97.895 
z
" clip-path="url(#p2707e0df10)" style="stroke: #000000; stroke-width: 2; stroke-linejoin: miter"/>
   </g>
   <g id="patch_13">
    <path d="M 115.9626 36.695 
C 116.571241 36.695 117.155036 36.453184 117.58541 36.02281 
C 118.015784 35.592436 118.2576 35.008641 118.2576 34.4 
C 118.2576 33.791359 118.015784 33.207564 117.58541 32.77719 
C 117.155036 32.346816 116.571241 32.105 115.9626 32.105 
C 115.353959 32.105 114.770164 32.346816 114.33979 32.77719 
C 113.909416 33.207564 113.6676 33.791359 113.6676 34.4 
C 113.6676 35.008641 113.909416 35.592436 114.33979 36.02281 
C 114.770164 36.453184 115.353959 36.695 115.9626 36.695 
z
" clip-path="url(#p2707e0df10)" style="stroke: #000000; stroke-width: 2; stroke-linejoin: miter"/>
   </g>
   <g id="patch_14">
    <path d="M 330.1626 36.695 
C 330.771241 36.695 331.355036 36.453184 331.78541 36.02281 
C 332.215784 35.592436 332.4576 35.008641 332.4576 34.4 
C 332.4576 33.791359 332.215784 33.207564 331.78541 32.77719 
C 331.355036 32.346816 330.771241 32.105 330.1626 32.105 
C 329.553959 32.105 328.970164 32.346816 328.53979 32.77719 
C 328.109416 33.207564 327.8676 33.791359 327.8676 34.4 
C 327.8676 35.008641 328.109416 35.592436 328.53979 36.02281 
C 328.970164 36.453184 329.553959 36.695 330.1626 36.695 
z
" clip-path="url(#p2707e0df10)" style="stroke: #000000; stroke-width: 2; stroke-linejoin: miter"/>
   </g>
   <g id="patch_15">
    <path d="M 330.1626 97.895 
C 330.771241 97.895 331.355036 97.653184 331.78541 97.22281 
C 332.215784 96.792436 332.4576 96.208641 332.4576 95.6 
C 332.4576 94.991359 332.215784 94.407564 331.78541 93.97719 
C 331.355036 93.546816 330.771241 93.305 330.1626 93.305 
C 329.553959 93.305 328.970164 93.546816 328.53979 93.97719 
C 328.109416 94.407564 327.8676 94.991359 327.8676 95.6 
C 327.8676 96.208641 328.109416 96.792436 328.53979 97.22281 
C 328.970164 97.653184 329.553959 97.895 330.1626 97.895 
z
" clip-path="url(#p2707e0df10)" style="stroke: #000000; stroke-width: 2; stroke-linejoin: miter"/>
   </g>
   <g id="patch_16">
    <path d="M 115.9626 97.895 
C 116.571241 97.895 117.155036 97.653184 117.58541 97.22281 
C 118.015784 96.792436 118.2576 96.208641 118.2576 95.6 
C 118.2576 94.991359 118.015784 94.407564 117.58541 93.97719 
C 117.155036 93.546816 116.571241 93.305 115.9626 93.305 
C 115.353959 93.305 114.770164 93.546816 114.33979 93.97719 
C 113.909416 94.407564 113.6676 94.991359 113.6676 95.6 
C 113.6676 96.208641 113.909416 96.792436 114.33979 97.22281 
C 114.770164 97.653184 115.353959 97.895 115.9626 97.895 
z
" clip-path="url(#p2707e0df10)" style="stroke: #000000; stroke-width: 2; stroke-linejoin: miter"/>
   </g>
   <g id="patch_17">
    <path d="M 115.9626 36.695 
C 116.571241 36.695 117.155036 36.453184 117.58541 36.02281 
C 118.015784 35.592436 118.2576 35.008641 118.2576 34.4 
C 118.2576 33.791359 118.015784 33.207564 117.58541 32.77719 
C 117.155036 32.346816 116.571241 32.105 115.9626 32.105 
C 115.353959 32.105 114.770164 32.346816 114.33979 32.77719 
C 113.909416 33.207564 113.6676 33.791359 113.6676 34.4 
C 113.6676 35.008641 113.909416 35.592436 114.33979 36.02281 
C 114.770164 36.453184 115.353959 36.695 115.9626 36.695 
z
" clip-path="url(#p2707e0df10)" style="stroke: #000000; stroke-width: 2; stroke-linejoin: miter"/>
   </g>
   <g id="patch_18">
    <path d="M 330.1626 36.695 
C 330.771241 36.695 331.355036 36.453184 331.78541 36.02281 
C 332.215784 35.592436 332.4576 35.008641 332.4576 34.4 
C 332.4576 33.791359 332.215784 33.207564 331.78541 32.77719 
C 331.355036 32.346816 330.771241 32.105 330.1626 32.105 
C 329.553959 32.105 328.970164 32.346816 328.53979 32.77719 
C 328.109416 33.207564 327.8676 33.791359 327.8676 34.4 
C 327.8676 35.008641 328.109416 35.592436 328.53979 36.02281 
C 328.970164 36.453184 329.553959 36.695 330.1626 36.695 
z
" clip-path="url(#p2707e0df10)" style="stroke: #000000; stroke-width: 2; stroke-linejoin: miter"/>
   </g>
   <g id="patch_19">
    <path d="M 330.1626 97.895 
C 330.771241 97.895 331.355036 97.653184 331.78541 97.22281 
C 332.215784 96.792436 332.4576 96.208641 332.4576 95.6 
C 332.4576 94.991359 332.215784 94.407564 331.78541 93.97719 
C 331.355036 93.546816 330.771241 93.305 330.1626 93.305 
C 329.553959 93.305 328.970164 93.546816 328.53979 93.97719 
C 328.109416 94.407564 327.8676 94.991359 327.8676 95.6 
C 327.8676 96.208641 328.109416 96.792436 328.53979 97.22281 
C 328.970164 97.653184 329.553959 97.895 330.1626 97.895 
z
" clip-path="url(#p2707e0df10)" style="stroke: #000000; stroke-width: 2; stroke-linejoin: miter"/>
   </g>
  </g>
 </g>
 <defs>
  <clipPath id="p2707e0df10">
   <rect x="7.2" y="7.2" width="469.0164" height="106.76"/>
  </clipPath>
 </defs>
</svg>
