<?xml version="1.0" encoding="utf-8" standalone="no"?>
<!DOCTYPE svg PUBLIC "-//W3C//DTD SVG 1.1//EN"
  "http://www.w3.org/Graphics/SVG/1.1/DTD/svg11.dtd">
<svg xmlns:xlink="http://www.w3.org/1999/xlink" width="150.1518pt" height="144.79pt" viewBox="0 0 150.1518 144.79" xmlns="http://www.w3.org/2000/svg" version="1.1">
 <metadata>
  <rdf:RDF xmlns:dc="http://purl.org/dc/elements/1.1/" xmlns:cc="http://creativecommons.org/ns#" xmlns:rdf="http://www.w3.org/1999/02/22-rdf-syntax-ns#">
   <cc:Work>
    <dc:type rdf:resource="http://purl.org/dc/dcmitype/StillImage"/>
    <dc:date>2023-02-10T13:23:04.570139</dc:date>
    <dc:format>image/svg+xml</dc:format>
    <dc:creator>
     <cc:Agent>
      <dc:title>Matplotlib v3.5.2, https://matplotlib.org/</dc:title>
     </cc:Agent>
    </dc:creator>
   </cc:Work>
  </rdf:RDF>
 </metadata>
 <defs>
  <style type="text/css">*{stroke-linejoin: round; stroke-linecap: butt}</style>
 </defs>
 <g id="figure_1">
  <g id="patch_1">
   <path d="M 0 144.79 
L 1 144.821436 
L 2 144.858377 
L 3 144.956123 
L 4 144.988645 
L 5 145.06227 
L 6 145.100835 
L 7 145.136248 
L 8 145.193888 
L 9 145.264274 
L 10 145.316239 
L 11 145.375328 
L 12 145.463649 
L 13 145.509794 
L 14 145.552205 
L 15 145.582697 
L 16 145.608742 
L 17 145.629942 
L 18 145.684243 
L 19 145.712181 
L 20 145.741905 
L 21 145.7673 
L 22 145.7785 
L 23 145.788624 
L 24 145.78842 
L 25 145.77891 
L 26 145.767256 
L 27 145.736227 
L 28 145.725059 
L 29 145.694942 
L 30 145.635165 
L 31 145.597973 
L 32 145.558877 
L 33 145.516437 
L 34 145.483672 
L 35 145.416246 
L 36 145.37712 
L 37 145.334445 
L 38 145.263865 
L 39 145.227474 
L 40 145.169071 
L 41 145.058118 
L 42 144.98746 
L 43 144.87452 
L 44 144.828747 
L 45 144.767464 
L 46 144.718965 
L 47 144.638142 
L 48 144.519623 
L 49 144.449412 
L 50 144.36615 
L 51 144.333008 
L 52 144.281771 
L 53 144.213372 
L 54 144.147157 
L 55 144.07024 
L 56 144.042924 
L 57 144.016447 
L 58 143.993796 
L 59 143.974265 
L 60 143.947871 
L 61 143.8981 
L 62 143.863027 
L 63 143.827161 
L 64 143.811794 
L 65 143.796025 
L 66 143.792612 
L 67 143.790195 
L 68 143.790681 
L 69 143.79261 
L 70 143.805867 
L 71 143.814258 
L 72 143.835794 
L 73 143.858827 
L 74 143.87606 
L 75 143.894523 
L 76 143.914975 
L 77 143.931575 
L 78 143.994354 
L 79 144.069619 
L 80 144.102258 
L 81 144.169822 
L 82 144.223869 
L 83 144.257573 
L 84 144.347699 
L 85 144.376234 
L 86 144.40772 
L 87 144.438731 
L 88 144.493539 
L 89 144.558126 
L 90 144.596322 
L 91 144.692256 
L 92 144.741514 
L 93 144.785583 
L 94 144.825707 
L 95 144.934074 
L 96 144.975702 
L 97 145.037844 
L 98 145.107806 
L 99 145.21231 
L 100 145.249298 
L 101 145.295175 
L 102 145.36367 
L 103 145.412416 
L 104 145.490013 
L 105 145.520554 
L 106 145.590068 
L 107 145.614041 
L 108 145.642663 
L 109 145.684456 
L 110 145.706032 
L 111 145.71998 
L 112 145.746702 
L 113 145.756012 
L 114 145.768459 
L 115 145.779514 
L 116 145.785178 
L 117 145.789942 
L 118 145.784394 
L 119 145.771106 
L 120 145.763589 
L 121 145.738804 
L 122 145.715235 
L 123 145.679055 
L 124 145.653093 
L 125 145.630771 
L 126 145.562011 
L 127 145.487476 
L 128 145.393497 
L 129 145.342445 
L 130 145.288511 
L 131 145.25326 
L 132 145.147172 
L 133 145.094908 
L 134 145.058001 
L 135 145.02697 
L 136 144.965815 
L 137 144.898395 
L 138 144.849489 
L 139 144.784297 
L 140 144.746109 
L 141 144.704113 
L 142 144.662096 
L 143 144.60258 
L 144 144.48942 
L 145 144.437169 
L 146 144.397751 
L 147 144.35065 
L 148 144.29387 
L 149 144.261207 
L 150.1518 144.225029 
L 149.554739 143.79 
L 149.520459 142.79 
L 149.462081 141.79 
L 149.416896 140.79 
L 149.387272 139.79 
L 149.336886 138.79 
L 149.311689 137.79 
L 149.290638 136.79 
L 149.25567 135.79 
L 149.23138 134.79 
L 149.217313 133.79 
L 149.198371 132.79 
L 149.18271 131.79 
L 149.170158 130.79 
L 149.164322 129.79 
L 149.15744 128.79 
L 149.152266 127.79 
L 149.154049 126.79 
L 149.156774 125.79 
L 149.167928 124.79 
L 149.196163 123.79 
L 149.239951 122.79 
L 149.26064 121.79 
L 149.301613 120.79 
L 149.341688 119.79 
L 149.360798 118.79 
L 149.383307 117.79 
L 149.449958 116.79 
L 149.499668 115.79 
L 149.573374 114.79 
L 149.604688 113.79 
L 149.68131 112.79 
L 149.719608 111.79 
L 149.793725 110.79 
L 149.897783 109.79 
L 149.967614 108.79 
L 150.072848 107.79 
L 150.127863 106.79 
L 150.251338 105.79 
L 150.321897 104.79 
L 150.437736 103.79 
L 150.487917 102.79 
L 150.523521 101.79 
L 150.614928 100.79 
L 150.668436 99.79 
L 150.756344 98.79 
L 150.825529 97.79 
L 150.872293 96.79 
L 150.944337 95.79 
L 150.994479 94.79 
L 151.011869 93.79 
L 151.038872 92.79 
L 151.058299 91.79 
L 151.077637 90.79 
L 151.115886 89.79 
L 151.132319 88.79 
L 151.140688 87.79 
L 151.145007 86.79 
L 151.151562 85.79 
L 151.149016 84.79 
L 151.143557 83.79 
L 151.127129 82.79 
L 151.095194 81.79 
L 151.057214 80.79 
L 151.02241 79.79 
L 150.959338 78.79 
L 150.937911 77.79 
L 150.887293 76.79 
L 150.862336 75.79 
L 150.806702 74.79 
L 150.775473 73.79 
L 150.725329 72.79 
L 150.692836 71.79 
L 150.612424 70.79 
L 150.543498 69.79 
L 150.427801 68.79 
L 150.352322 67.79 
L 150.236797 66.79 
L 150.157313 65.79 
L 150.048872 64.79 
L 150.009504 63.79 
L 149.906636 62.79 
L 149.806838 61.79 
L 149.761341 60.79 
L 149.727019 59.79 
L 149.675063 58.79 
L 149.635416 57.79 
L 149.599902 56.79 
L 149.532257 55.79 
L 149.493175 54.79 
L 149.442694 53.79 
L 149.393388 52.79 
L 149.342318 51.79 
L 149.298079 50.79 
L 149.276059 49.79 
L 149.260503 48.79 
L 149.218056 47.79 
L 149.203188 46.79 
L 149.18046 45.79 
L 149.160144 44.79 
L 149.154347 43.79 
L 149.151865 42.79 
L 149.154922 41.79 
L 149.166518 40.79 
L 149.183438 39.79 
L 149.215099 38.79 
L 149.229182 37.79 
L 149.281854 36.79 
L 149.330943 35.79 
L 149.385644 34.79 
L 149.429992 33.79 
L 149.499984 32.79 
L 149.550367 31.79 
L 149.604274 30.79 
L 149.673713 29.79 
L 149.731101 28.79 
L 149.781266 27.79 
L 149.858428 26.79 
L 149.916618 25.79 
L 149.977256 24.79 
L 150.014457 23.79 
L 150.079549 22.79 
L 150.184679 21.79 
L 150.244981 20.79 
L 150.341303 19.79 
L 150.373306 18.79 
L 150.424323 17.79 
L 150.541115 16.79 
L 150.576562 15.79 
L 150.632442 14.79 
L 150.662818 13.79 
L 150.751204 12.79 
L 150.795968 11.79 
L 150.876856 10.79 
L 150.937002 9.79 
L 151.000088 8.79 
L 151.023036 7.79 
L 151.039206 6.79 
L 151.068135 5.79 
L 151.098487 4.79 
L 151.111061 3.79 
L 151.13594 2.79 
L 151.148024 1.79 
L 151.151786 0 
L 149.1518 -0.99555 
L 148.1518 -0.983211 
L 147.1518 -0.968798 
L 146.1518 -0.952725 
L 145.1518 -0.917204 
L 144.1518 -0.89727 
L 143.1518 -0.840681 
L 142.1518 -0.773487 
L 141.1518 -0.746117 
L 140.1518 -0.711969 
L 139.1518 -0.663289 
L 138.1518 -0.615004 
L 137.1518 -0.555927 
L 136.1518 -0.460322 
L 135.1518 -0.417182 
L 134.1518 -0.367334 
L 133.1518 -0.3088 
L 132.1518 -0.261214 
L 131.1518 -0.200086 
L 130.1518 -0.144001 
L 129.1518 -0.06983 
L 128.1518 0.047408 
L 127.1518 0.103132 
L 126.1518 0.211358 
L 125.1518 0.317508 
L 124.1518 0.42508 
L 123.1518 0.459588 
L 122.1518 0.562895 
L 121.1518 0.638619 
L 120.1518 0.678054 
L 119.1518 0.717438 
L 118.1518 0.73992 
L 117.1518 0.795733 
L 116.1518 0.821785 
L 115.1518 0.85202 
L 114.1518 0.902791 
L 113.1518 0.921442 
L 112.1518 0.943151 
L 111.1518 0.955797 
L 110.1518 0.97479 
L 109.1518 0.99218 
L 108.1518 0.999218 
L 107.1518 0.998194 
L 106.1518 0.99119 
L 105.1518 0.98182 
L 104.1518 0.958422 
L 103.1518 0.933339 
L 102.1518 0.92094 
L 101.1518 0.887847 
L 100.1518 0.87148 
L 99.1518 0.853075 
L 98.1518 0.803938 
L 97.1518 0.760125 
L 96.1518 0.71704 
L 95.1518 0.694099 
L 94.1518 0.653836 
L 93.1518 0.568976 
L 92.1518 0.526584 
L 91.1518 0.462198 
L 90.1518 0.417909 
L 89.1518 0.310063 
L 88.1518 0.233123 
L 87.1518 0.196681 
L 86.1518 0.141794 
L 85.1518 0.066693 
L 84.1518 0.008098 
L 83.1518 -0.028477 
L 82.1518 -0.140524 
L 81.1518 -0.202209 
L 80.1518 -0.252729 
L 79.1518 -0.351514 
L 78.1518 -0.389536 
L 77.1518 -0.424984 
L 76.1518 -0.516618 
L 75.1518 -0.55989 
L 74.1518 -0.613219 
L 73.1518 -0.646084 
L 72.1518 -0.708978 
L 71.1518 -0.762832 
L 70.1518 -0.819958 
L 69.1518 -0.842048 
L 68.1518 -0.885787 
L 67.1518 -0.932881 
L 66.1518 -0.949728 
L 65.1518 -0.977802 
L 64.1518 -0.988798 
L 63.1518 -0.993367 
L 62.1518 -0.999015 
L 61.1518 -0.999066 
L 60.1518 -0.995976 
L 59.1518 -0.992463 
L 58.1518 -0.986641 
L 57.1518 -0.973789 
L 56.1518 -0.950164 
L 55.1518 -0.93528 
L 54.1518 -0.911708 
L 53.1518 -0.875389 
L 52.1518 -0.843806 
L 51.1518 -0.813913 
L 50.1518 -0.735221 
L 49.1518 -0.69867 
L 48.1518 -0.672947 
L 47.1518 -0.602274 
L 46.1518 -0.511172 
L 45.1518 -0.449215 
L 44.1518 -0.415602 
L 43.1518 -0.381102 
L 42.1518 -0.283662 
L 41.1518 -0.236072 
L 40.1518 -0.204566 
L 39.1518 -0.160881 
L 38.1518 -0.090712 
L 37.1518 -0.040845 
L 36.1518 -0.006168 
L 35.1518 0.10348 
L 34.1518 0.136951 
L 33.1518 0.174293 
L 32.1518 0.254538 
L 31.1518 0.293032 
L 30.1518 0.334809 
L 29.1518 0.377234 
L 28.1518 0.486962 
L 27.1518 0.575247 
L 26.1518 0.649893 
L 25.1518 0.73835 
L 24.1518 0.812412 
L 23.1518 0.861577 
L 22.1518 0.917194 
L 21.1518 0.951894 
L 20.1518 0.963765 
L 19.1518 0.985988 
L 18.1518 0.997967 
L 17.1518 0.999719 
L 16.1518 0.994302 
L 15.1518 0.978104 
L 14.1518 0.961604 
L 13.1518 0.930421 
L 12.1518 0.917056 
L 11.1518 0.887413 
L 10.1518 0.82439 
L 9.1518 0.775069 
L 8.1518 0.72898 
L 7.1518 0.646753 
L 6.1518 0.60085 
L 5.1518 0.566525 
L 4.1518 0.512986 
L 3.1518 0.424099 
L 2.1518 0.392961 
L 1.1518 0.284912 
L 0 0.17284 
L 0.137402 1 
L 0.052616 2 
L -0.012991 3 
L -0.115045 4 
L -0.23126 5 
L -0.271951 6 
L -0.31304 7 
L -0.349681 8 
L -0.390677 9 
L -0.466746 10 
L -0.542812 11 
L -0.5735 12 
L -0.599991 13 
L -0.656572 14 
L -0.701088 15 
L -0.731106 16 
L -0.758162 17 
L -0.800727 18 
L -0.853592 19 
L -0.884513 20 
L -0.910788 21 
L -0.925721 22 
L -0.95601 23 
L -0.977339 24 
L -0.994228 25 
L -0.998943 26 
L -0.999553 27 
L -0.997507 28 
L -0.991646 29 
L -0.972999 30 
L -0.940942 31 
L -0.894502 32 
L -0.852556 33 
L -0.785851 34 
L -0.716785 35 
L -0.66941 36 
L -0.617891 37 
L -0.578191 38 
L -0.508771 39 
L -0.44224 40 
L -0.333331 41 
L -0.268083 42 
L -0.159875 43 
L -0.098871 44 
L -0.050186 45 
L 0.026048 46 
L 0.085579 47 
L 0.160207 48 
L 0.279034 49 
L 0.376979 50 
L 0.456027 51 
L 0.501774 52 
L 0.529046 53 
L 0.572708 54 
L 0.621292 55 
L 0.653026 56 
L 0.733256 57 
L 0.799749 58 
L 0.823774 59 
L 0.884273 60 
L 0.906505 61 
L 0.925105 62 
L 0.954431 63 
L 0.970132 64 
L 0.978431 65 
L 0.988667 66 
L 0.99901 67 
L 0.998332 68 
L 0.994552 69 
L 0.978111 70 
L 0.965977 71 
L 0.955382 72 
L 0.924005 73 
L 0.898232 74 
L 0.866823 75 
L 0.844014 76 
L 0.82642 77 
L 0.776608 78 
L 0.728948 79 
L 0.657239 80 
L 0.601476 81 
L 0.575278 82 
L 0.54451 83 
L 0.454752 84 
L 0.369958 85 
L 0.304364 86 
L 0.258539 87 
L 0.215542 88 
L 0.154029 89 
L 0.054204 90 
L 0.009774 91 
L -0.040276 92 
L -0.162117 93 
L -0.22181 94 
L -0.253376 95 
L -0.285719 96 
L -0.340279 97 
L -0.382779 98 
L -0.434251 99 
L -0.522636 100 
L -0.556833 101 
L -0.600767 102 
L -0.66448 103 
L -0.739677 104 
L -0.768491 105 
L -0.810695 106 
L -0.85328 107 
L -0.870172 108 
L -0.892653 109 
L -0.93499 110 
L -0.96495 111 
L -0.983583 112 
L -0.993375 113 
L -0.997138 114 
L -0.999976 115 
L -0.998227 116 
L -0.988871 117 
L -0.978174 118 
L -0.968304 119 
L -0.949446 120 
L -0.919107 121 
L -0.880716 122 
L -0.82123 123 
L -0.777941 124 
L -0.717203 125 
L -0.633129 126 
L -0.584836 127 
L -0.541259 128 
L -0.514378 129 
L -0.482448 130 
L -0.415256 131 
L -0.334435 132 
L -0.25889 133 
L -0.21516 134 
L -0.135265 135 
L -0.073786 136 
L -0.010161 137 
L 0.097088 138 
L 0.215798 139 
L 0.257704 140 
L 0.300658 141 
L 0.362857 142 
L 0.392994 143 
L 0.425512 144.79 
L 0 144.79 
z
" style="fill: none; stroke: #ffffff; stroke-width: 4; stroke-linejoin: miter"/>
   <path d="M 0 144.79 
L 1 144.821436 
L 2 144.858377 
L 3 144.956123 
L 4 144.988645 
L 5 145.06227 
L 6 145.100835 
L 7 145.136248 
L 8 145.193888 
L 9 145.264274 
L 10 145.316239 
L 11 145.375328 
L 12 145.463649 
L 13 145.509794 
L 14 145.552205 
L 15 145.582697 
L 16 145.608742 
L 17 145.629942 
L 18 145.684243 
L 19 145.712181 
L 20 145.741905 
L 21 145.7673 
L 22 145.7785 
L 23 145.788624 
L 24 145.78842 
L 25 145.77891 
L 26 145.767256 
L 27 145.736227 
L 28 145.725059 
L 29 145.694942 
L 30 145.635165 
L 31 145.597973 
L 32 145.558877 
L 33 145.516437 
L 34 145.483672 
L 35 145.416246 
L 36 145.37712 
L 37 145.334445 
L 38 145.263865 
L 39 145.227474 
L 40 145.169071 
L 41 145.058118 
L 42 144.98746 
L 43 144.87452 
L 44 144.828747 
L 45 144.767464 
L 46 144.718965 
L 47 144.638142 
L 48 144.519623 
L 49 144.449412 
L 50 144.36615 
L 51 144.333008 
L 52 144.281771 
L 53 144.213372 
L 54 144.147157 
L 55 144.07024 
L 56 144.042924 
L 57 144.016447 
L 58 143.993796 
L 59 143.974265 
L 60 143.947871 
L 61 143.8981 
L 62 143.863027 
L 63 143.827161 
L 64 143.811794 
L 65 143.796025 
L 66 143.792612 
L 67 143.790195 
L 68 143.790681 
L 69 143.79261 
L 70 143.805867 
L 71 143.814258 
L 72 143.835794 
L 73 143.858827 
L 74 143.87606 
L 75 143.894523 
L 76 143.914975 
L 77 143.931575 
L 78 143.994354 
L 79 144.069619 
L 80 144.102258 
L 81 144.169822 
L 82 144.223869 
L 83 144.257573 
L 84 144.347699 
L 85 144.376234 
L 86 144.40772 
L 87 144.438731 
L 88 144.493539 
L 89 144.558126 
L 90 144.596322 
L 91 144.692256 
L 92 144.741514 
L 93 144.785583 
L 94 144.825707 
L 95 144.934074 
L 96 144.975702 
L 97 145.037844 
L 98 145.107806 
L 99 145.21231 
L 100 145.249298 
L 101 145.295175 
L 102 145.36367 
L 103 145.412416 
L 104 145.490013 
L 105 145.520554 
L 106 145.590068 
L 107 145.614041 
L 108 145.642663 
L 109 145.684456 
L 110 145.706032 
L 111 145.71998 
L 112 145.746702 
L 113 145.756012 
L 114 145.768459 
L 115 145.779514 
L 116 145.785178 
L 117 145.789942 
L 118 145.784394 
L 119 145.771106 
L 120 145.763589 
L 121 145.738804 
L 122 145.715235 
L 123 145.679055 
L 124 145.653093 
L 125 145.630771 
L 126 145.562011 
L 127 145.487476 
L 128 145.393497 
L 129 145.342445 
L 130 145.288511 
L 131 145.25326 
L 132 145.147172 
L 133 145.094908 
L 134 145.058001 
L 135 145.02697 
L 136 144.965815 
L 137 144.898395 
L 138 144.849489 
L 139 144.784297 
L 140 144.746109 
L 141 144.704113 
L 142 144.662096 
L 143 144.60258 
L 144 144.48942 
L 145 144.437169 
L 146 144.397751 
L 147 144.35065 
L 148 144.29387 
L 149 144.261207 
L 150.1518 144.225029 
L 149.554739 143.79 
L 149.520459 142.79 
L 149.462081 141.79 
L 149.416896 140.79 
L 149.387272 139.79 
L 149.336886 138.79 
L 149.311689 137.79 
L 149.290638 136.79 
L 149.25567 135.79 
L 149.23138 134.79 
L 149.217313 133.79 
L 149.198371 132.79 
L 149.18271 131.79 
L 149.170158 130.79 
L 149.164322 129.79 
L 149.15744 128.79 
L 149.152266 127.79 
L 149.154049 126.79 
L 149.156774 125.79 
L 149.167928 124.79 
L 149.196163 123.79 
L 149.239951 122.79 
L 149.26064 121.79 
L 149.301613 120.79 
L 149.341688 119.79 
L 149.360798 118.79 
L 149.383307 117.79 
L 149.449958 116.79 
L 149.499668 115.79 
L 149.573374 114.79 
L 149.604688 113.79 
L 149.68131 112.79 
L 149.719608 111.79 
L 149.793725 110.79 
L 149.897783 109.79 
L 149.967614 108.79 
L 150.072848 107.79 
L 150.127863 106.79 
L 150.251338 105.79 
L 150.321897 104.79 
L 150.437736 103.79 
L 150.487917 102.79 
L 150.523521 101.79 
L 150.614928 100.79 
L 150.668436 99.79 
L 150.756344 98.79 
L 150.825529 97.79 
L 150.872293 96.79 
L 150.944337 95.79 
L 150.994479 94.79 
L 151.011869 93.79 
L 151.038872 92.79 
L 151.058299 91.79 
L 151.077637 90.79 
L 151.115886 89.79 
L 151.132319 88.79 
L 151.140688 87.79 
L 151.145007 86.79 
L 151.151562 85.79 
L 151.149016 84.79 
L 151.143557 83.79 
L 151.127129 82.79 
L 151.095194 81.79 
L 151.057214 80.79 
L 151.02241 79.79 
L 150.959338 78.79 
L 150.937911 77.79 
L 150.887293 76.79 
L 150.862336 75.79 
L 150.806702 74.79 
L 150.775473 73.79 
L 150.725329 72.79 
L 150.692836 71.79 
L 150.612424 70.79 
L 150.543498 69.79 
L 150.427801 68.79 
L 150.352322 67.79 
L 150.236797 66.79 
L 150.157313 65.79 
L 150.048872 64.79 
L 150.009504 63.79 
L 149.906636 62.79 
L 149.806838 61.79 
L 149.761341 60.79 
L 149.727019 59.79 
L 149.675063 58.79 
L 149.635416 57.79 
L 149.599902 56.79 
L 149.532257 55.79 
L 149.493175 54.79 
L 149.442694 53.79 
L 149.393388 52.79 
L 149.342318 51.79 
L 149.298079 50.79 
L 149.276059 49.79 
L 149.260503 48.79 
L 149.218056 47.79 
L 149.203188 46.79 
L 149.18046 45.79 
L 149.160144 44.79 
L 149.154347 43.79 
L 149.151865 42.79 
L 149.154922 41.79 
L 149.166518 40.79 
L 149.183438 39.79 
L 149.215099 38.79 
L 149.229182 37.79 
L 149.281854 36.79 
L 149.330943 35.79 
L 149.385644 34.79 
L 149.429992 33.79 
L 149.499984 32.79 
L 149.550367 31.79 
L 149.604274 30.79 
L 149.673713 29.79 
L 149.731101 28.79 
L 149.781266 27.79 
L 149.858428 26.79 
L 149.916618 25.79 
L 149.977256 24.79 
L 150.014457 23.79 
L 150.079549 22.79 
L 150.184679 21.79 
L 150.244981 20.79 
L 150.341303 19.79 
L 150.373306 18.79 
L 150.424323 17.79 
L 150.541115 16.79 
L 150.576562 15.79 
L 150.632442 14.79 
L 150.662818 13.79 
L 150.751204 12.79 
L 150.795968 11.79 
L 150.876856 10.79 
L 150.937002 9.79 
L 151.000088 8.79 
L 151.023036 7.79 
L 151.039206 6.79 
L 151.068135 5.79 
L 151.098487 4.79 
L 151.111061 3.79 
L 151.13594 2.79 
L 151.148024 1.79 
L 151.151786 0 
L 149.1518 -0.99555 
L 148.1518 -0.983211 
L 147.1518 -0.968798 
L 146.1518 -0.952725 
L 145.1518 -0.917204 
L 144.1518 -0.89727 
L 143.1518 -0.840681 
L 142.1518 -0.773487 
L 141.1518 -0.746117 
L 140.1518 -0.711969 
L 139.1518 -0.663289 
L 138.1518 -0.615004 
L 137.1518 -0.555927 
L 136.1518 -0.460322 
L 135.1518 -0.417182 
L 134.1518 -0.367334 
L 133.1518 -0.3088 
L 132.1518 -0.261214 
L 131.1518 -0.200086 
L 130.1518 -0.144001 
L 129.1518 -0.06983 
L 128.1518 0.047408 
L 127.1518 0.103132 
L 126.1518 0.211358 
L 125.1518 0.317508 
L 124.1518 0.42508 
L 123.1518 0.459588 
L 122.1518 0.562895 
L 121.1518 0.638619 
L 120.1518 0.678054 
L 119.1518 0.717438 
L 118.1518 0.73992 
L 117.1518 0.795733 
L 116.1518 0.821785 
L 115.1518 0.85202 
L 114.1518 0.902791 
L 113.1518 0.921442 
L 112.1518 0.943151 
L 111.1518 0.955797 
L 110.1518 0.97479 
L 109.1518 0.99218 
L 108.1518 0.999218 
L 107.1518 0.998194 
L 106.1518 0.99119 
L 105.1518 0.98182 
L 104.1518 0.958422 
L 103.1518 0.933339 
L 102.1518 0.92094 
L 101.1518 0.887847 
L 100.1518 0.87148 
L 99.1518 0.853075 
L 98.1518 0.803938 
L 97.1518 0.760125 
L 96.1518 0.71704 
L 95.1518 0.694099 
L 94.1518 0.653836 
L 93.1518 0.568976 
L 92.1518 0.526584 
L 91.1518 0.462198 
L 90.1518 0.417909 
L 89.1518 0.310063 
L 88.1518 0.233123 
L 87.1518 0.196681 
L 86.1518 0.141794 
L 85.1518 0.066693 
L 84.1518 0.008098 
L 83.1518 -0.028477 
L 82.1518 -0.140524 
L 81.1518 -0.202209 
L 80.1518 -0.252729 
L 79.1518 -0.351514 
L 78.1518 -0.389536 
L 77.1518 -0.424984 
L 76.1518 -0.516618 
L 75.1518 -0.55989 
L 74.1518 -0.613219 
L 73.1518 -0.646084 
L 72.1518 -0.708978 
L 71.1518 -0.762832 
L 70.1518 -0.819958 
L 69.1518 -0.842048 
L 68.1518 -0.885787 
L 67.1518 -0.932881 
L 66.1518 -0.949728 
L 65.1518 -0.977802 
L 64.1518 -0.988798 
L 63.1518 -0.993367 
L 62.1518 -0.999015 
L 61.1518 -0.999066 
L 60.1518 -0.995976 
L 59.1518 -0.992463 
L 58.1518 -0.986641 
L 57.1518 -0.973789 
L 56.1518 -0.950164 
L 55.1518 -0.93528 
L 54.1518 -0.911708 
L 53.1518 -0.875389 
L 52.1518 -0.843806 
L 51.1518 -0.813913 
L 50.1518 -0.735221 
L 49.1518 -0.69867 
L 48.1518 -0.672947 
L 47.1518 -0.602274 
L 46.1518 -0.511172 
L 45.1518 -0.449215 
L 44.1518 -0.415602 
L 43.1518 -0.381102 
L 42.1518 -0.283662 
L 41.1518 -0.236072 
L 40.1518 -0.204566 
L 39.1518 -0.160881 
L 38.1518 -0.090712 
L 37.1518 -0.040845 
L 36.1518 -0.006168 
L 35.1518 0.10348 
L 34.1518 0.136951 
L 33.1518 0.174293 
L 32.1518 0.254538 
L 31.1518 0.293032 
L 30.1518 0.334809 
L 29.1518 0.377234 
L 28.1518 0.486962 
L 27.1518 0.575247 
L 26.1518 0.649893 
L 25.1518 0.73835 
L 24.1518 0.812412 
L 23.1518 0.861577 
L 22.1518 0.917194 
L 21.1518 0.951894 
L 20.1518 0.963765 
L 19.1518 0.985988 
L 18.1518 0.997967 
L 17.1518 0.999719 
L 16.1518 0.994302 
L 15.1518 0.978104 
L 14.1518 0.961604 
L 13.1518 0.930421 
L 12.1518 0.917056 
L 11.1518 0.887413 
L 10.1518 0.82439 
L 9.1518 0.775069 
L 8.1518 0.72898 
L 7.1518 0.646753 
L 6.1518 0.60085 
L 5.1518 0.566525 
L 4.1518 0.512986 
L 3.1518 0.424099 
L 2.1518 0.392961 
L 1.1518 0.284912 
L 0 0.17284 
L 0.137402 1 
L 0.052616 2 
L -0.012991 3 
L -0.115045 4 
L -0.23126 5 
L -0.271951 6 
L -0.31304 7 
L -0.349681 8 
L -0.390677 9 
L -0.466746 10 
L -0.542812 11 
L -0.5735 12 
L -0.599991 13 
L -0.656572 14 
L -0.701088 15 
L -0.731106 16 
L -0.758162 17 
L -0.800727 18 
L -0.853592 19 
L -0.884513 20 
L -0.910788 21 
L -0.925721 22 
L -0.95601 23 
L -0.977339 24 
L -0.994228 25 
L -0.998943 26 
L -0.999553 27 
L -0.997507 28 
L -0.991646 29 
L -0.972999 30 
L -0.940942 31 
L -0.894502 32 
L -0.852556 33 
L -0.785851 34 
L -0.716785 35 
L -0.66941 36 
L -0.617891 37 
L -0.578191 38 
L -0.508771 39 
L -0.44224 40 
L -0.333331 41 
L -0.268083 42 
L -0.159875 43 
L -0.098871 44 
L -0.050186 45 
L 0.026048 46 
L 0.085579 47 
L 0.160207 48 
L 0.279034 49 
L 0.376979 50 
L 0.456027 51 
L 0.501774 52 
L 0.529046 53 
L 0.572708 54 
L 0.621292 55 
L 0.653026 56 
L 0.733256 57 
L 0.799749 58 
L 0.823774 59 
L 0.884273 60 
L 0.906505 61 
L 0.925105 62 
L 0.954431 63 
L 0.970132 64 
L 0.978431 65 
L 0.988667 66 
L 0.99901 67 
L 0.998332 68 
L 0.994552 69 
L 0.978111 70 
L 0.965977 71 
L 0.955382 72 
L 0.924005 73 
L 0.898232 74 
L 0.866823 75 
L 0.844014 76 
L 0.82642 77 
L 0.776608 78 
L 0.728948 79 
L 0.657239 80 
L 0.601476 81 
L 0.575278 82 
L 0.54451 83 
L 0.454752 84 
L 0.369958 85 
L 0.304364 86 
L 0.258539 87 
L 0.215542 88 
L 0.154029 89 
L 0.054204 90 
L 0.009774 91 
L -0.040276 92 
L -0.162117 93 
L -0.22181 94 
L -0.253376 95 
L -0.285719 96 
L -0.340279 97 
L -0.382779 98 
L -0.434251 99 
L -0.522636 100 
L -0.556833 101 
L -0.600767 102 
L -0.66448 103 
L -0.739677 104 
L -0.768491 105 
L -0.810695 106 
L -0.85328 107 
L -0.870172 108 
L -0.892653 109 
L -0.93499 110 
L -0.96495 111 
L -0.983583 112 
L -0.993375 113 
L -0.997138 114 
L -0.999976 115 
L -0.998227 116 
L -0.988871 117 
L -0.978174 118 
L -0.968304 119 
L -0.949446 120 
L -0.919107 121 
L -0.880716 122 
L -0.82123 123 
L -0.777941 124 
L -0.717203 125 
L -0.633129 126 
L -0.584836 127 
L -0.541259 128 
L -0.514378 129 
L -0.482448 130 
L -0.415256 131 
L -0.334435 132 
L -0.25889 133 
L -0.21516 134 
L -0.135265 135 
L -0.073786 136 
L -0.010161 137 
L 0.097088 138 
L 0.215798 139 
L 0.257704 140 
L 0.300658 141 
L 0.362857 142 
L 0.392994 143 
L 0.425512 144.79 
L 0 144.79 
z
" style="fill: none"/>
   <g id="axes_1">
    <path d="M 40.4418 134.53 
L 40.473236 133.53 
L 40.510177 132.53 
L 40.607923 131.53 
L 40.640445 130.53 
L 40.71407 129.53 
L 40.752635 128.53 
L 40.788048 127.53 
L 40.845688 126.53 
L 40.916074 125.53 
L 40.968039 124.53 
L 41.027128 123.53 
L 41.115449 122.53 
L 41.161594 121.53 
L 41.204005 120.53 
L 41.234497 119.53 
L 41.260542 118.53 
L 41.281742 117.53 
L 41.336043 116.53 
L 41.363981 115.53 
L 41.393705 114.53 
L 41.4191 113.53 
L 41.4303 112.53 
L 41.440424 111.53 
L 41.44022 110.53 
L 41.43071 109.53 
L 41.419056 108.53 
L 41.388027 107.53 
L 41.376859 106.53 
L 41.346742 105.53 
L 41.286965 103.93 
L 39.74862 102.847262 
L 38.787574 102.568124 
L 37.82547 102.292158 
L 36.866425 102.007014 
L 35.89642 101.754752 
L 34.935364 101.475643 
L 33.973186 101.199899 
L 32.941649 100.930452 
L 33.878825 101.478796 
L 34.809039 101.107163 
L 35.722636 100.685676 
L 36.648975 100.302416 
L 37.561944 99.879044 
L 38.496153 99.519392 
L 39.425457 99.145026 
L 40.358803 98.782788 
L 41.281928 98.389885 
L 42.193132 97.96122 
L 43.119613 97.578385 
L 44.041966 97.183167 
L 44.980169 96.835499 
L 45.91265 96.470663 
L 46.839704 96.089547 
L 47.888515 95.670146 
L 46.915509 96.646597 
L 45.958187 96.356283 
L 45.001131 96.065174 
L 44.045285 95.770434 
L 43.090425 95.472735 
L 42.133396 95.181547 
L 41.168973 94.912536 
L 40.209199 94.629582 
L 39.249174 94.347379 
L 38.295631 94.04573 
L 37.341961 93.744462 
L 36.392199 93.431472 
L 35.442751 93.117538 
L 34.494221 92.800849 
L 33.546148 92.482791 
L 32.48059 92.11363 
L 33.431926 89.938102 
L 34.38742 89.642306 
L 35.343387 89.347928 
L 36.29752 89.04805 
L 37.252042 88.749337 
L 38.207193 88.452512 
L 39.161125 88.152032 
L 40.129661 87.895362 
L 41.102145 87.650537 
L 42.06115 87.365273 
L 43.031199 87.113142 
L 43.996973 86.848187 
L 44.956315 86.563935 
L 45.933498 86.333208 
L 46.891205 86.044051 
L 47.970913 85.717338 
L 47.032036 86.097015 
L 46.100684 85.728792 
L 45.172425 85.351291 
L 44.23582 84.998828 
L 43.317474 84.591589 
L 42.384368 84.228631 
L 41.44962 83.870596 
L 40.513625 83.516303 
L 39.599211 83.097269 
L 38.663691 82.74155 
L 37.734659 82.36637 
L 36.808099 81.98377 
L 35.892463 81.5684 
L 34.955477 81.217083 
L 34.021301 80.857332 
L 32.97321 80.435769 
L 33.937308 81.254247 
L 34.91053 81.011635 
L 35.868871 80.724381 
L 36.839537 80.4741 
L 37.795801 80.180615 
L 38.753535 79.89154 
L 39.715435 79.614961 
L 40.670941 79.319202 
L 41.624035 79.016206 
L 42.581169 78.72533 
L 43.532796 78.417934 
L 44.485415 78.113514 
L 45.437595 77.807774 
L 46.388069 77.49692 
L 47.338259 77.185212 
L 48.406255 76.823365 
L 47.45337 74.633013 
L 46.502309 74.323917 
L 45.545788 74.031202 
L 44.589652 73.737334 
L 43.629527 73.45543 
L 42.672634 73.163832 
L 41.716892 72.86878 
L 40.685931 72.597606 
L 41.139276 72.33 
L 41.045297 71.33 
L 40.994245 70.33 
L 40.940311 69.33 
L 40.90506 68.33 
L 40.798972 67.33 
L 40.746708 66.33 
L 40.709801 65.33 
L 40.67877 64.33 
L 40.617615 63.33 
L 40.550195 62.33 
L 40.501289 61.33 
L 40.436097 60.33 
L 40.397909 59.33 
L 40.355913 58.33 
L 40.313896 57.33 
L 40.25438 56.33 
L 40.14122 55.33 
L 40.088969 54.33 
L 40.049551 53.33 
L 40.00245 52.33 
L 39.94567 51.33 
L 39.913007 50.33 
L 39.876829 49.33 
L 39.844739 48.33 
L 39.810459 47.33 
L 39.752081 46.33 
L 39.706896 45.33 
L 39.677272 44.33 
L 39.626886 42.73 
" clip-path="url(#p763a9bd6a1)" style="fill: none; stroke: #ffffff; stroke-width: 4; stroke-linecap: round"/>
    <path d="M 40.4418 134.53 
L 40.473236 133.53 
L 40.510177 132.53 
L 40.607923 131.53 
L 40.640445 130.53 
L 40.71407 129.53 
L 40.752635 128.53 
L 40.788048 127.53 
L 40.845688 126.53 
L 40.916074 125.53 
L 40.968039 124.53 
L 41.027128 123.53 
L 41.115449 122.53 
L 41.161594 121.53 
L 41.204005 120.53 
L 41.234497 119.53 
L 41.260542 118.53 
L 41.281742 117.53 
L 41.336043 116.53 
L 41.363981 115.53 
L 41.393705 114.53 
L 41.4191 113.53 
L 41.4303 112.53 
L 41.440424 111.53 
L 41.44022 110.53 
L 41.43071 109.53 
L 41.419056 108.53 
L 41.388027 107.53 
L 41.376859 106.53 
L 41.346742 105.53 
L 41.286965 103.93 
L 39.74862 102.847262 
L 38.787574 102.568124 
L 37.82547 102.292158 
L 36.866425 102.007014 
L 35.89642 101.754752 
L 34.935364 101.475643 
L 33.973186 101.199899 
L 32.941649 100.930452 
L 33.878825 101.478796 
L 34.809039 101.107163 
L 35.722636 100.685676 
L 36.648975 100.302416 
L 37.561944 99.879044 
L 38.496153 99.519392 
L 39.425457 99.145026 
L 40.358803 98.782788 
L 41.281928 98.389885 
L 42.193132 97.96122 
L 43.119613 97.578385 
L 44.041966 97.183167 
L 44.980169 96.835499 
L 45.91265 96.470663 
L 46.839704 96.089547 
L 47.888515 95.670146 
L 46.915509 96.646597 
L 45.958187 96.356283 
L 45.001131 96.065174 
L 44.045285 95.770434 
L 43.090425 95.472735 
L 42.133396 95.181547 
L 41.168973 94.912536 
L 40.209199 94.629582 
L 39.249174 94.347379 
L 38.295631 94.04573 
L 37.341961 93.744462 
L 36.392199 93.431472 
L 35.442751 93.117538 
L 34.494221 92.800849 
L 33.546148 92.482791 
L 32.48059 92.11363 
L 33.431926 89.938102 
L 34.38742 89.642306 
L 35.343387 89.347928 
L 36.29752 89.04805 
L 37.252042 88.749337 
L 38.207193 88.452512 
L 39.161125 88.152032 
L 40.129661 87.895362 
L 41.102145 87.650537 
L 42.06115 87.365273 
L 43.031199 87.113142 
L 43.996973 86.848187 
L 44.956315 86.563935 
L 45.933498 86.333208 
L 46.891205 86.044051 
L 47.970913 85.717338 
L 47.032036 86.097015 
L 46.100684 85.728792 
L 45.172425 85.351291 
L 44.23582 84.998828 
L 43.317474 84.591589 
L 42.384368 84.228631 
L 41.44962 83.870596 
L 40.513625 83.516303 
L 39.599211 83.097269 
L 38.663691 82.74155 
L 37.734659 82.36637 
L 36.808099 81.98377 
L 35.892463 81.5684 
L 34.955477 81.217083 
L 34.021301 80.857332 
L 32.97321 80.435769 
L 33.937308 81.254247 
L 34.91053 81.011635 
L 35.868871 80.724381 
L 36.839537 80.4741 
L 37.795801 80.180615 
L 38.753535 79.89154 
L 39.715435 79.614961 
L 40.670941 79.319202 
L 41.624035 79.016206 
L 42.581169 78.72533 
L 43.532796 78.417934 
L 44.485415 78.113514 
L 45.437595 77.807774 
L 46.388069 77.49692 
L 47.338259 77.185212 
L 48.406255 76.823365 
L 47.45337 74.633013 
L 46.502309 74.323917 
L 45.545788 74.031202 
L 44.589652 73.737334 
L 43.629527 73.45543 
L 42.672634 73.163832 
L 41.716892 72.86878 
L 40.685931 72.597606 
L 41.139276 72.33 
L 41.045297 71.33 
L 40.994245 70.33 
L 40.940311 69.33 
L 40.90506 68.33 
L 40.798972 67.33 
L 40.746708 66.33 
L 40.709801 65.33 
L 40.67877 64.33 
L 40.617615 63.33 
L 40.550195 62.33 
L 40.501289 61.33 
L 40.436097 60.33 
L 40.397909 59.33 
L 40.355913 58.33 
L 40.313896 57.33 
L 40.25438 56.33 
L 40.14122 55.33 
L 40.088969 54.33 
L 40.049551 53.33 
L 40.00245 52.33 
L 39.94567 51.33 
L 39.913007 50.33 
L 39.876829 49.33 
L 39.844739 48.33 
L 39.810459 47.33 
L 39.752081 46.33 
L 39.706896 45.33 
L 39.677272 44.33 
L 39.626886 42.73 
" clip-path="url(#p763a9bd6a1)" style="fill: none; stroke: #000000; stroke-width: 2; stroke-linecap: round"/>
    <path d="M 40.4418 42.73 
L 41.4418 42.761436 
L 42.4418 42.798377 
L 43.4418 42.896123 
L 44.4418 42.928645 
L 45.4418 43.00227 
L 46.4418 43.040835 
L 47.4418 43.076248 
L 48.4418 43.133888 
L 49.4418 43.204274 
L 50.4418 43.256239 
L 51.4418 43.315328 
L 52.4418 43.403649 
L 53.4418 43.449794 
L 54.4418 43.492205 
L 55.4418 43.522697 
L 56.4418 43.548742 
L 57.4418 43.569942 
L 58.4418 43.624243 
L 59.4418 43.652181 
L 60.4418 43.681905 
L 61.4418 43.7073 
L 62.4418 43.7185 
L 63.4418 43.728624 
L 64.4418 43.72842 
L 65.4418 43.71891 
L 66.4418 43.707256 
L 67.4418 43.676227 
L 68.4418 43.665059 
L 69.4418 43.634942 
L 71.0418 43.575165 
L 72.124538 42.03682 
L 72.403676 41.075774 
L 72.679642 40.11367 
L 72.964786 39.154625 
L 73.217048 38.18462 
L 73.496157 37.223564 
L 73.771901 36.261386 
L 74.041348 35.229849 
L 73.493004 36.167025 
L 73.864637 37.097239 
L 74.286124 38.010836 
L 74.669384 38.937175 
L 75.092756 39.850144 
L 75.452408 40.784353 
L 75.826774 41.713657 
L 76.189012 42.647003 
L 76.581915 43.570128 
L 77.01058 44.481332 
L 77.393415 45.407813 
L 77.788633 46.330166 
L 78.136301 47.268369 
L 78.501137 48.20085 
L 78.882253 49.127904 
L 79.301654 50.176715 
L 78.325203 49.203709 
L 78.615517 48.246387 
L 78.906626 47.289331 
L 79.201366 46.333485 
L 79.499065 45.378625 
L 79.790253 44.421596 
L 80.059264 43.457173 
L 80.342218 42.497399 
L 80.624421 41.537374 
L 80.92607 40.583831 
L 81.227338 39.630161 
L 81.540328 38.680399 
L 81.854262 37.730951 
L 82.170951 36.782421 
L 82.489009 35.834348 
L 82.85817 34.76879 
L 85.033698 35.720126 
L 85.329494 36.67562 
L 85.623872 37.631587 
L 85.92375 38.58572 
L 86.222463 39.540242 
L 86.519288 40.495393 
L 86.819768 41.449325 
L 87.076438 42.417861 
L 87.321263 43.390345 
L 87.606527 44.34935 
L 87.858658 45.319399 
L 88.123613 46.285173 
L 88.407865 47.244515 
L 88.638592 48.221698 
L 88.927749 49.179405 
L 89.254462 50.259113 
L 88.874785 49.320236 
L 89.243008 48.388884 
L 89.620509 47.460625 
L 89.972972 46.52402 
L 90.380211 45.605674 
L 90.743169 44.672568 
L 91.101204 43.73782 
L 91.455497 42.801825 
L 91.874531 41.887411 
L 92.23025 40.951891 
L 92.60543 40.022859 
L 92.98803 39.096299 
L 93.4034 38.180663 
L 93.754717 37.243677 
L 94.114468 36.309501 
L 94.536031 35.26141 
L 93.717553 36.225508 
L 93.960165 37.19873 
L 94.247419 38.157071 
L 94.4977 39.127737 
L 94.791185 40.084001 
L 95.08026 41.041735 
L 95.356839 42.003635 
L 95.652598 42.959141 
L 95.955594 43.912235 
L 96.24647 44.869369 
L 96.553866 45.820996 
L 96.858286 46.773615 
L 97.164026 47.725795 
L 97.47488 48.676269 
L 97.786588 49.626459 
L 98.148435 50.694455 
L 100.338787 49.74157 
L 100.647883 48.790509 
L 100.940598 47.833988 
L 101.234466 46.877852 
L 101.51637 45.917727 
L 101.807968 44.960834 
L 102.10302 44.005092 
L 102.374194 42.974131 
L 102.6418 43.427476 
L 103.6418 43.333497 
L 104.6418 43.282445 
L 105.6418 43.228511 
L 106.6418 43.19326 
L 107.6418 43.087172 
L 108.6418 43.034908 
L 109.6418 42.998001 
L 110.6418 42.96697 
L 111.6418 42.905815 
L 112.6418 42.838395 
L 113.6418 42.789489 
L 114.6418 42.724297 
L 115.6418 42.686109 
L 116.6418 42.644113 
L 117.6418 42.602096 
L 118.6418 42.54258 
L 119.6418 42.42942 
L 120.6418 42.377169 
L 121.6418 42.337751 
L 122.6418 42.29065 
L 123.6418 42.23387 
L 124.6418 42.201207 
L 125.6418 42.165029 
L 126.6418 42.132939 
L 127.6418 42.098659 
L 128.6418 42.040281 
L 129.6418 41.995096 
L 130.6418 41.965472 
L 132.2418 41.915086 
" clip-path="url(#p763a9bd6a1)" style="fill: none; stroke: #ffffff; stroke-width: 4; stroke-linecap: round"/>
    <path d="M 40.4418 42.73 
L 41.4418 42.761436 
L 42.4418 42.798377 
L 43.4418 42.896123 
L 44.4418 42.928645 
L 45.4418 43.00227 
L 46.4418 43.040835 
L 47.4418 43.076248 
L 48.4418 43.133888 
L 49.4418 43.204274 
L 50.4418 43.256239 
L 51.4418 43.315328 
L 52.4418 43.403649 
L 53.4418 43.449794 
L 54.4418 43.492205 
L 55.4418 43.522697 
L 56.4418 43.548742 
L 57.4418 43.569942 
L 58.4418 43.624243 
L 59.4418 43.652181 
L 60.4418 43.681905 
L 61.4418 43.7073 
L 62.4418 43.7185 
L 63.4418 43.728624 
L 64.4418 43.72842 
L 65.4418 43.71891 
L 66.4418 43.707256 
L 67.4418 43.676227 
L 68.4418 43.665059 
L 69.4418 43.634942 
L 71.0418 43.575165 
L 72.124538 42.03682 
L 72.403676 41.075774 
L 72.679642 40.11367 
L 72.964786 39.154625 
L 73.217048 38.18462 
L 73.496157 37.223564 
L 73.771901 36.261386 
L 74.041348 35.229849 
L 73.493004 36.167025 
L 73.864637 37.097239 
L 74.286124 38.010836 
L 74.669384 38.937175 
L 75.092756 39.850144 
L 75.452408 40.784353 
L 75.826774 41.713657 
L 76.189012 42.647003 
L 76.581915 43.570128 
L 77.01058 44.481332 
L 77.393415 45.407813 
L 77.788633 46.330166 
L 78.136301 47.268369 
L 78.501137 48.20085 
L 78.882253 49.127904 
L 79.301654 50.176715 
L 78.325203 49.203709 
L 78.615517 48.246387 
L 78.906626 47.289331 
L 79.201366 46.333485 
L 79.499065 45.378625 
L 79.790253 44.421596 
L 80.059264 43.457173 
L 80.342218 42.497399 
L 80.624421 41.537374 
L 80.92607 40.583831 
L 81.227338 39.630161 
L 81.540328 38.680399 
L 81.854262 37.730951 
L 82.170951 36.782421 
L 82.489009 35.834348 
L 82.85817 34.76879 
L 85.033698 35.720126 
L 85.329494 36.67562 
L 85.623872 37.631587 
L 85.92375 38.58572 
L 86.222463 39.540242 
L 86.519288 40.495393 
L 86.819768 41.449325 
L 87.076438 42.417861 
L 87.321263 43.390345 
L 87.606527 44.34935 
L 87.858658 45.319399 
L 88.123613 46.285173 
L 88.407865 47.244515 
L 88.638592 48.221698 
L 88.927749 49.179405 
L 89.254462 50.259113 
L 88.874785 49.320236 
L 89.243008 48.388884 
L 89.620509 47.460625 
L 89.972972 46.52402 
L 90.380211 45.605674 
L 90.743169 44.672568 
L 91.101204 43.73782 
L 91.455497 42.801825 
L 91.874531 41.887411 
L 92.23025 40.951891 
L 92.60543 40.022859 
L 92.98803 39.096299 
L 93.4034 38.180663 
L 93.754717 37.243677 
L 94.114468 36.309501 
L 94.536031 35.26141 
L 93.717553 36.225508 
L 93.960165 37.19873 
L 94.247419 38.157071 
L 94.4977 39.127737 
L 94.791185 40.084001 
L 95.08026 41.041735 
L 95.356839 42.003635 
L 95.652598 42.959141 
L 95.955594 43.912235 
L 96.24647 44.869369 
L 96.553866 45.820996 
L 96.858286 46.773615 
L 97.164026 47.725795 
L 97.47488 48.676269 
L 97.786588 49.626459 
L 98.148435 50.694455 
L 100.338787 49.74157 
L 100.647883 48.790509 
L 100.940598 47.833988 
L 101.234466 46.877852 
L 101.51637 45.917727 
L 101.807968 44.960834 
L 102.10302 44.005092 
L 102.374194 42.974131 
L 102.6418 43.427476 
L 103.6418 43.333497 
L 104.6418 43.282445 
L 105.6418 43.228511 
L 106.6418 43.19326 
L 107.6418 43.087172 
L 108.6418 43.034908 
L 109.6418 42.998001 
L 110.6418 42.96697 
L 111.6418 42.905815 
L 112.6418 42.838395 
L 113.6418 42.789489 
L 114.6418 42.724297 
L 115.6418 42.686109 
L 116.6418 42.644113 
L 117.6418 42.602096 
L 118.6418 42.54258 
L 119.6418 42.42942 
L 120.6418 42.377169 
L 121.6418 42.337751 
L 122.6418 42.29065 
L 123.6418 42.23387 
L 124.6418 42.201207 
L 125.6418 42.165029 
L 126.6418 42.132939 
L 127.6418 42.098659 
L 128.6418 42.040281 
L 129.6418 41.995096 
L 130.6418 41.965472 
L 132.2418 41.915086 
" clip-path="url(#p763a9bd6a1)" style="fill: none; stroke: #000000; stroke-width: 2; stroke-linecap: round"/>
    <path d="M 132.2418 42.73 
L 132.210364 43.73 
L 132.173423 44.73 
L 132.075677 45.73 
L 132.043155 46.73 
L 131.96953 47.73 
L 131.930965 48.73 
L 131.895552 49.73 
L 131.837912 50.73 
L 131.767526 51.73 
L 131.715561 52.73 
L 131.656472 53.73 
L 131.568151 54.73 
L 131.522006 55.73 
L 131.479595 56.73 
L 131.449103 57.73 
L 131.423058 58.73 
L 131.401858 59.73 
L 131.347557 60.73 
L 131.319619 61.73 
L 131.289895 62.73 
L 131.2645 63.73 
L 131.2533 64.73 
L 131.243176 65.73 
L 131.24338 66.73 
L 131.25289 67.73 
L 131.264544 68.73 
L 131.295573 69.73 
L 131.306741 70.73 
L 131.336858 71.73 
L 131.396635 73.33 
L 132.93498 74.412738 
L 133.896026 74.691876 
L 134.85813 74.967842 
L 135.817175 75.252986 
L 136.78718 75.505248 
L 137.748236 75.784357 
L 138.710414 76.060101 
L 139.741951 76.329548 
L 138.804775 75.781204 
L 137.874561 76.152837 
L 136.960964 76.574324 
L 136.034625 76.957584 
L 135.121656 77.380956 
L 134.187447 77.740608 
L 133.258143 78.114974 
L 132.324797 78.477212 
L 131.401672 78.870115 
L 130.490468 79.29878 
L 129.563987 79.681615 
L 128.641634 80.076833 
L 127.703431 80.424501 
L 126.77095 80.789337 
L 125.843896 81.170453 
L 124.795085 81.589854 
L 125.768091 80.613403 
L 126.725413 80.903717 
L 127.682469 81.194826 
L 128.638315 81.489566 
L 129.593175 81.787265 
L 130.550204 82.078453 
L 131.514627 82.347464 
L 132.474401 82.630418 
L 133.434426 82.912621 
L 134.387969 83.21427 
L 135.341639 83.515538 
L 136.291401 83.828528 
L 137.240849 84.142462 
L 138.189379 84.459151 
L 139.137452 84.777209 
L 140.20301 85.14637 
L 139.251674 87.321898 
L 138.29618 87.617694 
L 137.340213 87.912072 
L 136.38608 88.21195 
L 135.431558 88.510663 
L 134.476407 88.807488 
L 133.522475 89.107968 
L 132.553939 89.364638 
L 131.581455 89.609463 
L 130.62245 89.894727 
L 129.652401 90.146858 
L 128.686627 90.411813 
L 127.727285 90.696065 
L 126.750102 90.926792 
L 125.792395 91.215949 
L 124.712687 91.542662 
L 125.651564 91.162985 
L 126.582916 91.531208 
L 127.511175 91.908709 
L 128.44778 92.261172 
L 129.366126 92.668411 
L 130.299232 93.031369 
L 131.23398 93.389404 
L 132.169975 93.743697 
L 133.084389 94.162731 
L 134.019909 94.51845 
L 134.948941 94.89363 
L 135.875501 95.27623 
L 136.791137 95.6916 
L 137.728123 96.042917 
L 138.662299 96.402668 
L 139.71039 96.824231 
L 138.746292 96.005753 
L 137.77307 96.248365 
L 136.814729 96.535619 
L 135.844063 96.7859 
L 134.887799 97.079385 
L 133.930065 97.36846 
L 132.968165 97.645039 
L 132.012659 97.940798 
L 131.059565 98.243794 
L 130.102431 98.53467 
L 129.150804 98.842066 
L 128.198185 99.146486 
L 127.246005 99.452226 
L 126.295531 99.76308 
L 125.345341 100.074788 
L 124.277345 100.436635 
L 125.23023 102.626987 
L 126.181291 102.936083 
L 127.137812 103.228798 
L 128.093948 103.522666 
L 129.054073 103.80457 
L 130.010966 104.096168 
L 130.966708 104.39122 
L 131.997669 104.662394 
L 131.544324 104.93 
L 131.638303 105.93 
L 131.689355 106.93 
L 131.743289 107.93 
L 131.77854 108.93 
L 131.884628 109.93 
L 131.936892 110.93 
L 131.973799 111.93 
L 132.00483 112.93 
L 132.065985 113.93 
L 132.133405 114.93 
L 132.182311 115.93 
L 132.247503 116.93 
L 132.285691 117.93 
L 132.327687 118.93 
L 132.369704 119.93 
L 132.42922 120.93 
L 132.54238 121.93 
L 132.594631 122.93 
L 132.634049 123.93 
L 132.68115 124.93 
L 132.73793 125.93 
L 132.770593 126.93 
L 132.806771 127.93 
L 132.838861 128.93 
L 132.873141 129.93 
L 132.931519 130.93 
L 132.976704 131.93 
L 133.006328 132.93 
L 133.056714 134.53 
" clip-path="url(#p763a9bd6a1)" style="fill: none; stroke: #ffffff; stroke-width: 4; stroke-linecap: round"/>
    <path d="M 132.2418 42.73 
L 132.210364 43.73 
L 132.173423 44.73 
L 132.075677 45.73 
L 132.043155 46.73 
L 131.96953 47.73 
L 131.930965 48.73 
L 131.895552 49.73 
L 131.837912 50.73 
L 131.767526 51.73 
L 131.715561 52.73 
L 131.656472 53.73 
L 131.568151 54.73 
L 131.522006 55.73 
L 131.479595 56.73 
L 131.449103 57.73 
L 131.423058 58.73 
L 131.401858 59.73 
L 131.347557 60.73 
L 131.319619 61.73 
L 131.289895 62.73 
L 131.2645 63.73 
L 131.2533 64.73 
L 131.243176 65.73 
L 131.24338 66.73 
L 131.25289 67.73 
L 131.264544 68.73 
L 131.295573 69.73 
L 131.306741 70.73 
L 131.336858 71.73 
L 131.396635 73.33 
L 132.93498 74.412738 
L 133.896026 74.691876 
L 134.85813 74.967842 
L 135.817175 75.252986 
L 136.78718 75.505248 
L 137.748236 75.784357 
L 138.710414 76.060101 
L 139.741951 76.329548 
L 138.804775 75.781204 
L 137.874561 76.152837 
L 136.960964 76.574324 
L 136.034625 76.957584 
L 135.121656 77.380956 
L 134.187447 77.740608 
L 133.258143 78.114974 
L 132.324797 78.477212 
L 131.401672 78.870115 
L 130.490468 79.29878 
L 129.563987 79.681615 
L 128.641634 80.076833 
L 127.703431 80.424501 
L 126.77095 80.789337 
L 125.843896 81.170453 
L 124.795085 81.589854 
L 125.768091 80.613403 
L 126.725413 80.903717 
L 127.682469 81.194826 
L 128.638315 81.489566 
L 129.593175 81.787265 
L 130.550204 82.078453 
L 131.514627 82.347464 
L 132.474401 82.630418 
L 133.434426 82.912621 
L 134.387969 83.21427 
L 135.341639 83.515538 
L 136.291401 83.828528 
L 137.240849 84.142462 
L 138.189379 84.459151 
L 139.137452 84.777209 
L 140.20301 85.14637 
L 139.251674 87.321898 
L 138.29618 87.617694 
L 137.340213 87.912072 
L 136.38608 88.21195 
L 135.431558 88.510663 
L 134.476407 88.807488 
L 133.522475 89.107968 
L 132.553939 89.364638 
L 131.581455 89.609463 
L 130.62245 89.894727 
L 129.652401 90.146858 
L 128.686627 90.411813 
L 127.727285 90.696065 
L 126.750102 90.926792 
L 125.792395 91.215949 
L 124.712687 91.542662 
L 125.651564 91.162985 
L 126.582916 91.531208 
L 127.511175 91.908709 
L 128.44778 92.261172 
L 129.366126 92.668411 
L 130.299232 93.031369 
L 131.23398 93.389404 
L 132.169975 93.743697 
L 133.084389 94.162731 
L 134.019909 94.51845 
L 134.948941 94.89363 
L 135.875501 95.27623 
L 136.791137 95.6916 
L 137.728123 96.042917 
L 138.662299 96.402668 
L 139.71039 96.824231 
L 138.746292 96.005753 
L 137.77307 96.248365 
L 136.814729 96.535619 
L 135.844063 96.7859 
L 134.887799 97.079385 
L 133.930065 97.36846 
L 132.968165 97.645039 
L 132.012659 97.940798 
L 131.059565 98.243794 
L 130.102431 98.53467 
L 129.150804 98.842066 
L 128.198185 99.146486 
L 127.246005 99.452226 
L 126.295531 99.76308 
L 125.345341 100.074788 
L 124.277345 100.436635 
L 125.23023 102.626987 
L 126.181291 102.936083 
L 127.137812 103.228798 
L 128.093948 103.522666 
L 129.054073 103.80457 
L 130.010966 104.096168 
L 130.966708 104.39122 
L 131.997669 104.662394 
L 131.544324 104.93 
L 131.638303 105.93 
L 131.689355 106.93 
L 131.743289 107.93 
L 131.77854 108.93 
L 131.884628 109.93 
L 131.936892 110.93 
L 131.973799 111.93 
L 132.00483 112.93 
L 132.065985 113.93 
L 132.133405 114.93 
L 132.182311 115.93 
L 132.247503 116.93 
L 132.285691 117.93 
L 132.327687 118.93 
L 132.369704 119.93 
L 132.42922 120.93 
L 132.54238 121.93 
L 132.594631 122.93 
L 132.634049 123.93 
L 132.68115 124.93 
L 132.73793 125.93 
L 132.770593 126.93 
L 132.806771 127.93 
L 132.838861 128.93 
L 132.873141 129.93 
L 132.931519 130.93 
L 132.976704 131.93 
L 133.006328 132.93 
L 133.056714 134.53 
" clip-path="url(#p763a9bd6a1)" style="fill: none; stroke: #000000; stroke-width: 2; stroke-linecap: round"/>
    <path d="M 132.2418 134.53 
L 131.2418 134.498564 
L 130.2418 134.461623 
L 129.2418 134.363877 
L 128.2418 134.331355 
L 127.2418 134.25773 
L 126.2418 134.219165 
L 125.2418 134.183752 
L 124.2418 134.126112 
L 123.2418 134.055726 
L 122.2418 134.003761 
L 121.2418 133.944672 
L 120.2418 133.856351 
L 119.2418 133.810206 
L 118.2418 133.767795 
L 117.2418 133.737303 
L 116.2418 133.711258 
L 115.2418 133.690058 
L 114.2418 133.635757 
L 113.2418 133.607819 
L 112.2418 133.578095 
L 111.2418 133.5527 
L 110.2418 133.5415 
L 109.2418 133.531376 
L 108.2418 133.53158 
L 107.2418 133.54109 
L 106.2418 133.552744 
L 105.2418 133.583773 
L 104.2418 133.594941 
L 103.2418 133.625058 
L 102.2418 133.684835 
L 101.2418 133.722027 
L 100.2418 133.761123 
L 99.2418 133.803563 
L 98.2418 133.836328 
L 97.2418 133.903754 
L 96.2418 133.94288 
L 95.2418 133.985555 
L 94.2418 134.056135 
L 93.2418 134.092526 
L 92.2418 134.150929 
L 91.2418 134.261882 
L 90.2418 134.33254 
L 89.2418 134.44548 
L 88.2418 134.491253 
L 86.3418 134.552536 
L 85.3418 134.601035 
L 84.3418 134.681858 
L 83.3418 134.800377 
L 82.3418 134.870588 
L 81.3418 134.95385 
L 80.3418 134.986992 
L 79.3418 135.038229 
L 78.3418 135.106628 
L 77.3418 135.172843 
L 76.3418 135.24976 
L 75.3418 135.277076 
L 74.3418 135.303553 
L 73.3418 135.326204 
L 72.3418 135.345735 
L 71.3418 135.372129 
L 70.3418 135.4219 
L 69.3418 135.456973 
L 68.3418 135.492839 
L 67.3418 135.508206 
L 66.3418 135.523975 
L 65.3418 135.527388 
L 64.3418 135.529805 
L 63.3418 135.529319 
L 62.3418 135.52739 
L 61.3418 135.514133 
L 60.3418 135.505742 
L 59.3418 135.484206 
L 58.3418 135.461173 
L 57.3418 135.44394 
L 56.3418 135.425477 
L 55.3418 135.405025 
L 54.3418 135.388425 
L 53.3418 135.325646 
L 52.3418 135.250381 
L 51.3418 135.217742 
L 50.3418 135.150178 
L 49.3418 135.096131 
L 48.3418 135.062427 
L 47.3418 134.972301 
L 46.3418 134.943766 
L 45.3418 134.91228 
L 44.3418 134.881269 
L 43.3418 134.826461 
L 42.3418 134.761874 
L 40.4418 134.723678 
" clip-path="url(#p763a9bd6a1)" style="fill: none; stroke: #ffffff; stroke-width: 4; stroke-linecap: round"/>
    <path d="M 132.2418 134.53 
L 131.2418 134.498564 
L 130.2418 134.461623 
L 129.2418 134.363877 
L 128.2418 134.331355 
L 127.2418 134.25773 
L 126.2418 134.219165 
L 125.2418 134.183752 
L 124.2418 134.126112 
L 123.2418 134.055726 
L 122.2418 134.003761 
L 121.2418 133.944672 
L 120.2418 133.856351 
L 119.2418 133.810206 
L 118.2418 133.767795 
L 117.2418 133.737303 
L 116.2418 133.711258 
L 115.2418 133.690058 
L 114.2418 133.635757 
L 113.2418 133.607819 
L 112.2418 133.578095 
L 111.2418 133.5527 
L 110.2418 133.5415 
L 109.2418 133.531376 
L 108.2418 133.53158 
L 107.2418 133.54109 
L 106.2418 133.552744 
L 105.2418 133.583773 
L 104.2418 133.594941 
L 103.2418 133.625058 
L 102.2418 133.684835 
L 101.2418 133.722027 
L 100.2418 133.761123 
L 99.2418 133.803563 
L 98.2418 133.836328 
L 97.2418 133.903754 
L 96.2418 133.94288 
L 95.2418 133.985555 
L 94.2418 134.056135 
L 93.2418 134.092526 
L 92.2418 134.150929 
L 91.2418 134.261882 
L 90.2418 134.33254 
L 89.2418 134.44548 
L 88.2418 134.491253 
L 86.3418 134.552536 
L 85.3418 134.601035 
L 84.3418 134.681858 
L 83.3418 134.800377 
L 82.3418 134.870588 
L 81.3418 134.95385 
L 80.3418 134.986992 
L 79.3418 135.038229 
L 78.3418 135.106628 
L 77.3418 135.172843 
L 76.3418 135.24976 
L 75.3418 135.277076 
L 74.3418 135.303553 
L 73.3418 135.326204 
L 72.3418 135.345735 
L 71.3418 135.372129 
L 70.3418 135.4219 
L 69.3418 135.456973 
L 68.3418 135.492839 
L 67.3418 135.508206 
L 66.3418 135.523975 
L 65.3418 135.527388 
L 64.3418 135.529805 
L 63.3418 135.529319 
L 62.3418 135.52739 
L 61.3418 135.514133 
L 60.3418 135.505742 
L 59.3418 135.484206 
L 58.3418 135.461173 
L 57.3418 135.44394 
L 56.3418 135.425477 
L 55.3418 135.405025 
L 54.3418 135.388425 
L 53.3418 135.325646 
L 52.3418 135.250381 
L 51.3418 135.217742 
L 50.3418 135.150178 
L 49.3418 135.096131 
L 48.3418 135.062427 
L 47.3418 134.972301 
L 46.3418 134.943766 
L 45.3418 134.91228 
L 44.3418 134.881269 
L 43.3418 134.826461 
L 42.3418 134.761874 
L 40.4418 134.723678 
" clip-path="url(#p763a9bd6a1)" style="fill: none; stroke: #000000; stroke-width: 2; stroke-linecap: round"/>
    <path d="M 40.4418 134.53 
L 40.473236 133.53 
L 40.510177 132.53 
L 40.607923 131.53 
L 40.640445 130.53 
L 40.71407 129.53 
L 40.752635 128.53 
L 40.788048 127.53 
L 40.845688 126.53 
L 40.916074 125.53 
L 40.968039 124.53 
L 41.027128 123.53 
L 41.115449 122.53 
L 41.161594 121.53 
L 41.204005 120.53 
L 41.234497 119.53 
L 41.260542 118.53 
L 41.281742 117.53 
L 41.336043 116.53 
L 41.363981 115.53 
L 41.393705 114.53 
L 41.4191 113.53 
L 41.4303 112.53 
L 41.440424 111.53 
L 41.44022 110.53 
L 41.43071 109.53 
L 41.419056 108.53 
L 41.388027 107.53 
L 41.376859 106.53 
L 41.346742 105.53 
L 41.286965 103.93 
L 39.74862 102.847262 
L 38.787574 102.568124 
L 37.82547 102.292158 
L 36.866425 102.007014 
L 35.89642 101.754752 
L 34.935364 101.475643 
L 33.973186 101.199899 
L 32.941649 100.930452 
L 33.878825 101.478796 
L 34.809039 101.107163 
L 35.722636 100.685676 
L 36.648975 100.302416 
L 37.561944 99.879044 
L 38.496153 99.519392 
L 39.425457 99.145026 
L 40.358803 98.782788 
L 41.281928 98.389885 
L 42.193132 97.96122 
L 43.119613 97.578385 
L 44.041966 97.183167 
L 44.980169 96.835499 
L 45.91265 96.470663 
L 46.839704 96.089547 
L 47.888515 95.670146 
L 46.915509 96.646597 
L 45.958187 96.356283 
L 45.001131 96.065174 
L 44.045285 95.770434 
L 43.090425 95.472735 
L 42.133396 95.181547 
L 41.168973 94.912536 
L 40.209199 94.629582 
L 39.249174 94.347379 
L 38.295631 94.04573 
L 37.341961 93.744462 
L 36.392199 93.431472 
L 35.442751 93.117538 
L 34.494221 92.800849 
L 33.546148 92.482791 
L 32.48059 92.11363 
L 33.431926 89.938102 
L 34.38742 89.642306 
L 35.343387 89.347928 
L 36.29752 89.04805 
L 37.252042 88.749337 
L 38.207193 88.452512 
L 39.161125 88.152032 
L 40.129661 87.895362 
L 41.102145 87.650537 
L 42.06115 87.365273 
L 43.031199 87.113142 
L 43.996973 86.848187 
L 44.956315 86.563935 
L 45.933498 86.333208 
L 46.891205 86.044051 
L 47.970913 85.717338 
L 47.032036 86.097015 
L 46.100684 85.728792 
L 45.172425 85.351291 
L 44.23582 84.998828 
L 43.317474 84.591589 
L 42.384368 84.228631 
L 41.44962 83.870596 
L 40.513625 83.516303 
L 39.599211 83.097269 
L 38.663691 82.74155 
L 37.734659 82.36637 
L 36.808099 81.98377 
L 35.892463 81.5684 
L 34.955477 81.217083 
L 34.021301 80.857332 
L 32.97321 80.435769 
L 33.937308 81.254247 
L 34.91053 81.011635 
L 35.868871 80.724381 
L 36.839537 80.4741 
L 37.795801 80.180615 
L 38.753535 79.89154 
L 39.715435 79.614961 
L 40.670941 79.319202 
L 41.624035 79.016206 
L 42.581169 78.72533 
L 43.532796 78.417934 
L 44.485415 78.113514 
L 45.437595 77.807774 
L 46.388069 77.49692 
L 47.338259 77.185212 
L 48.406255 76.823365 
L 47.45337 74.633013 
L 46.502309 74.323917 
L 45.545788 74.031202 
L 44.589652 73.737334 
L 43.629527 73.45543 
L 42.672634 73.163832 
L 41.716892 72.86878 
L 40.685931 72.597606 
L 41.139276 72.33 
L 41.045297 71.33 
L 40.994245 70.33 
L 40.940311 69.33 
L 40.90506 68.33 
L 40.798972 67.33 
L 40.746708 66.33 
L 40.709801 65.33 
L 40.67877 64.33 
L 40.617615 63.33 
L 40.550195 62.33 
L 40.501289 61.33 
L 40.436097 60.33 
L 40.397909 59.33 
L 40.355913 58.33 
L 40.313896 57.33 
L 40.25438 56.33 
L 40.14122 55.33 
L 40.088969 54.33 
L 40.049551 53.33 
L 40.00245 52.33 
L 39.94567 51.33 
L 39.913007 50.33 
L 39.876829 49.33 
L 39.844739 48.33 
L 39.810459 47.33 
L 39.752081 46.33 
L 39.706896 45.33 
L 39.677272 44.33 
L 39.626886 42.73 
" clip-path="url(#p763a9bd6a1)" style="fill: none; stroke: #ffffff; stroke-width: 4; stroke-linecap: round"/>
    <path d="M 40.4418 134.53 
L 40.473236 133.53 
L 40.510177 132.53 
L 40.607923 131.53 
L 40.640445 130.53 
L 40.71407 129.53 
L 40.752635 128.53 
L 40.788048 127.53 
L 40.845688 126.53 
L 40.916074 125.53 
L 40.968039 124.53 
L 41.027128 123.53 
L 41.115449 122.53 
L 41.161594 121.53 
L 41.204005 120.53 
L 41.234497 119.53 
L 41.260542 118.53 
L 41.281742 117.53 
L 41.336043 116.53 
L 41.363981 115.53 
L 41.393705 114.53 
L 41.4191 113.53 
L 41.4303 112.53 
L 41.440424 111.53 
L 41.44022 110.53 
L 41.43071 109.53 
L 41.419056 108.53 
L 41.388027 107.53 
L 41.376859 106.53 
L 41.346742 105.53 
L 41.286965 103.93 
L 39.74862 102.847262 
L 38.787574 102.568124 
L 37.82547 102.292158 
L 36.866425 102.007014 
L 35.89642 101.754752 
L 34.935364 101.475643 
L 33.973186 101.199899 
L 32.941649 100.930452 
L 33.878825 101.478796 
L 34.809039 101.107163 
L 35.722636 100.685676 
L 36.648975 100.302416 
L 37.561944 99.879044 
L 38.496153 99.519392 
L 39.425457 99.145026 
L 40.358803 98.782788 
L 41.281928 98.389885 
L 42.193132 97.96122 
L 43.119613 97.578385 
L 44.041966 97.183167 
L 44.980169 96.835499 
L 45.91265 96.470663 
L 46.839704 96.089547 
L 47.888515 95.670146 
L 46.915509 96.646597 
L 45.958187 96.356283 
L 45.001131 96.065174 
L 44.045285 95.770434 
L 43.090425 95.472735 
L 42.133396 95.181547 
L 41.168973 94.912536 
L 40.209199 94.629582 
L 39.249174 94.347379 
L 38.295631 94.04573 
L 37.341961 93.744462 
L 36.392199 93.431472 
L 35.442751 93.117538 
L 34.494221 92.800849 
L 33.546148 92.482791 
L 32.48059 92.11363 
L 33.431926 89.938102 
L 34.38742 89.642306 
L 35.343387 89.347928 
L 36.29752 89.04805 
L 37.252042 88.749337 
L 38.207193 88.452512 
L 39.161125 88.152032 
L 40.129661 87.895362 
L 41.102145 87.650537 
L 42.06115 87.365273 
L 43.031199 87.113142 
L 43.996973 86.848187 
L 44.956315 86.563935 
L 45.933498 86.333208 
L 46.891205 86.044051 
L 47.970913 85.717338 
L 47.032036 86.097015 
L 46.100684 85.728792 
L 45.172425 85.351291 
L 44.23582 84.998828 
L 43.317474 84.591589 
L 42.384368 84.228631 
L 41.44962 83.870596 
L 40.513625 83.516303 
L 39.599211 83.097269 
L 38.663691 82.74155 
L 37.734659 82.36637 
L 36.808099 81.98377 
L 35.892463 81.5684 
L 34.955477 81.217083 
L 34.021301 80.857332 
L 32.97321 80.435769 
L 33.937308 81.254247 
L 34.91053 81.011635 
L 35.868871 80.724381 
L 36.839537 80.4741 
L 37.795801 80.180615 
L 38.753535 79.89154 
L 39.715435 79.614961 
L 40.670941 79.319202 
L 41.624035 79.016206 
L 42.581169 78.72533 
L 43.532796 78.417934 
L 44.485415 78.113514 
L 45.437595 77.807774 
L 46.388069 77.49692 
L 47.338259 77.185212 
L 48.406255 76.823365 
L 47.45337 74.633013 
L 46.502309 74.323917 
L 45.545788 74.031202 
L 44.589652 73.737334 
L 43.629527 73.45543 
L 42.672634 73.163832 
L 41.716892 72.86878 
L 40.685931 72.597606 
L 41.139276 72.33 
L 41.045297 71.33 
L 40.994245 70.33 
L 40.940311 69.33 
L 40.90506 68.33 
L 40.798972 67.33 
L 40.746708 66.33 
L 40.709801 65.33 
L 40.67877 64.33 
L 40.617615 63.33 
L 40.550195 62.33 
L 40.501289 61.33 
L 40.436097 60.33 
L 40.397909 59.33 
L 40.355913 58.33 
L 40.313896 57.33 
L 40.25438 56.33 
L 40.14122 55.33 
L 40.088969 54.33 
L 40.049551 53.33 
L 40.00245 52.33 
L 39.94567 51.33 
L 39.913007 50.33 
L 39.876829 49.33 
L 39.844739 48.33 
L 39.810459 47.33 
L 39.752081 46.33 
L 39.706896 45.33 
L 39.677272 44.33 
L 39.626886 42.73 
" clip-path="url(#p763a9bd6a1)" style="fill: none; stroke: #000000; stroke-width: 2; stroke-linecap: round"/>
    <path d="M 40.4418 42.73 
L 41.4418 42.761436 
L 42.4418 42.798377 
L 43.4418 42.896123 
L 44.4418 42.928645 
L 45.4418 43.00227 
L 46.4418 43.040835 
L 47.4418 43.076248 
L 48.4418 43.133888 
L 49.4418 43.204274 
L 50.4418 43.256239 
L 51.4418 43.315328 
L 52.4418 43.403649 
L 53.4418 43.449794 
L 54.4418 43.492205 
L 55.4418 43.522697 
L 56.4418 43.548742 
L 57.4418 43.569942 
L 58.4418 43.624243 
L 59.4418 43.652181 
L 60.4418 43.681905 
L 61.4418 43.7073 
L 62.4418 43.7185 
L 63.4418 43.728624 
L 64.4418 43.72842 
L 65.4418 43.71891 
L 66.4418 43.707256 
L 67.4418 43.676227 
L 68.4418 43.665059 
L 69.4418 43.634942 
L 71.0418 43.575165 
L 72.124538 42.03682 
L 72.403676 41.075774 
L 72.679642 40.11367 
L 72.964786 39.154625 
L 73.217048 38.18462 
L 73.496157 37.223564 
L 73.771901 36.261386 
L 74.041348 35.229849 
L 73.493004 36.167025 
L 73.864637 37.097239 
L 74.286124 38.010836 
L 74.669384 38.937175 
L 75.092756 39.850144 
L 75.452408 40.784353 
L 75.826774 41.713657 
L 76.189012 42.647003 
L 76.581915 43.570128 
L 77.01058 44.481332 
L 77.393415 45.407813 
L 77.788633 46.330166 
L 78.136301 47.268369 
L 78.501137 48.20085 
L 78.882253 49.127904 
L 79.301654 50.176715 
L 78.325203 49.203709 
L 78.615517 48.246387 
L 78.906626 47.289331 
L 79.201366 46.333485 
L 79.499065 45.378625 
L 79.790253 44.421596 
L 80.059264 43.457173 
L 80.342218 42.497399 
L 80.624421 41.537374 
L 80.92607 40.583831 
L 81.227338 39.630161 
L 81.540328 38.680399 
L 81.854262 37.730951 
L 82.170951 36.782421 
L 82.489009 35.834348 
L 82.85817 34.76879 
L 85.033698 35.720126 
L 85.329494 36.67562 
L 85.623872 37.631587 
L 85.92375 38.58572 
L 86.222463 39.540242 
L 86.519288 40.495393 
L 86.819768 41.449325 
L 87.076438 42.417861 
L 87.321263 43.390345 
L 87.606527 44.34935 
L 87.858658 45.319399 
L 88.123613 46.285173 
L 88.407865 47.244515 
L 88.638592 48.221698 
L 88.927749 49.179405 
L 89.254462 50.259113 
L 88.874785 49.320236 
L 89.243008 48.388884 
L 89.620509 47.460625 
L 89.972972 46.52402 
L 90.380211 45.605674 
L 90.743169 44.672568 
L 91.101204 43.73782 
L 91.455497 42.801825 
L 91.874531 41.887411 
L 92.23025 40.951891 
L 92.60543 40.022859 
L 92.98803 39.096299 
L 93.4034 38.180663 
L 93.754717 37.243677 
L 94.114468 36.309501 
L 94.536031 35.26141 
L 93.717553 36.225508 
L 93.960165 37.19873 
L 94.247419 38.157071 
L 94.4977 39.127737 
L 94.791185 40.084001 
L 95.08026 41.041735 
L 95.356839 42.003635 
L 95.652598 42.959141 
L 95.955594 43.912235 
L 96.24647 44.869369 
L 96.553866 45.820996 
L 96.858286 46.773615 
L 97.164026 47.725795 
L 97.47488 48.676269 
L 97.786588 49.626459 
L 98.148435 50.694455 
L 100.338787 49.74157 
L 100.647883 48.790509 
L 100.940598 47.833988 
L 101.234466 46.877852 
L 101.51637 45.917727 
L 101.807968 44.960834 
L 102.10302 44.005092 
L 102.374194 42.974131 
L 102.6418 43.427476 
L 103.6418 43.333497 
L 104.6418 43.282445 
L 105.6418 43.228511 
L 106.6418 43.19326 
L 107.6418 43.087172 
L 108.6418 43.034908 
L 109.6418 42.998001 
L 110.6418 42.96697 
L 111.6418 42.905815 
L 112.6418 42.838395 
L 113.6418 42.789489 
L 114.6418 42.724297 
L 115.6418 42.686109 
L 116.6418 42.644113 
L 117.6418 42.602096 
L 118.6418 42.54258 
L 119.6418 42.42942 
L 120.6418 42.377169 
L 121.6418 42.337751 
L 122.6418 42.29065 
L 123.6418 42.23387 
L 124.6418 42.201207 
L 125.6418 42.165029 
L 126.6418 42.132939 
L 127.6418 42.098659 
L 128.6418 42.040281 
L 129.6418 41.995096 
L 130.6418 41.965472 
L 132.2418 41.915086 
" clip-path="url(#p763a9bd6a1)" style="fill: none; stroke: #ffffff; stroke-width: 4; stroke-linecap: round"/>
    <path d="M 40.4418 42.73 
L 41.4418 42.761436 
L 42.4418 42.798377 
L 43.4418 42.896123 
L 44.4418 42.928645 
L 45.4418 43.00227 
L 46.4418 43.040835 
L 47.4418 43.076248 
L 48.4418 43.133888 
L 49.4418 43.204274 
L 50.4418 43.256239 
L 51.4418 43.315328 
L 52.4418 43.403649 
L 53.4418 43.449794 
L 54.4418 43.492205 
L 55.4418 43.522697 
L 56.4418 43.548742 
L 57.4418 43.569942 
L 58.4418 43.624243 
L 59.4418 43.652181 
L 60.4418 43.681905 
L 61.4418 43.7073 
L 62.4418 43.7185 
L 63.4418 43.728624 
L 64.4418 43.72842 
L 65.4418 43.71891 
L 66.4418 43.707256 
L 67.4418 43.676227 
L 68.4418 43.665059 
L 69.4418 43.634942 
L 71.0418 43.575165 
L 72.124538 42.03682 
L 72.403676 41.075774 
L 72.679642 40.11367 
L 72.964786 39.154625 
L 73.217048 38.18462 
L 73.496157 37.223564 
L 73.771901 36.261386 
L 74.041348 35.229849 
L 73.493004 36.167025 
L 73.864637 37.097239 
L 74.286124 38.010836 
L 74.669384 38.937175 
L 75.092756 39.850144 
L 75.452408 40.784353 
L 75.826774 41.713657 
L 76.189012 42.647003 
L 76.581915 43.570128 
L 77.01058 44.481332 
L 77.393415 45.407813 
L 77.788633 46.330166 
L 78.136301 47.268369 
L 78.501137 48.20085 
L 78.882253 49.127904 
L 79.301654 50.176715 
L 78.325203 49.203709 
L 78.615517 48.246387 
L 78.906626 47.289331 
L 79.201366 46.333485 
L 79.499065 45.378625 
L 79.790253 44.421596 
L 80.059264 43.457173 
L 80.342218 42.497399 
L 80.624421 41.537374 
L 80.92607 40.583831 
L 81.227338 39.630161 
L 81.540328 38.680399 
L 81.854262 37.730951 
L 82.170951 36.782421 
L 82.489009 35.834348 
L 82.85817 34.76879 
L 85.033698 35.720126 
L 85.329494 36.67562 
L 85.623872 37.631587 
L 85.92375 38.58572 
L 86.222463 39.540242 
L 86.519288 40.495393 
L 86.819768 41.449325 
L 87.076438 42.417861 
L 87.321263 43.390345 
L 87.606527 44.34935 
L 87.858658 45.319399 
L 88.123613 46.285173 
L 88.407865 47.244515 
L 88.638592 48.221698 
L 88.927749 49.179405 
L 89.254462 50.259113 
L 88.874785 49.320236 
L 89.243008 48.388884 
L 89.620509 47.460625 
L 89.972972 46.52402 
L 90.380211 45.605674 
L 90.743169 44.672568 
L 91.101204 43.73782 
L 91.455497 42.801825 
L 91.874531 41.887411 
L 92.23025 40.951891 
L 92.60543 40.022859 
L 92.98803 39.096299 
L 93.4034 38.180663 
L 93.754717 37.243677 
L 94.114468 36.309501 
L 94.536031 35.26141 
L 93.717553 36.225508 
L 93.960165 37.19873 
L 94.247419 38.157071 
L 94.4977 39.127737 
L 94.791185 40.084001 
L 95.08026 41.041735 
L 95.356839 42.003635 
L 95.652598 42.959141 
L 95.955594 43.912235 
L 96.24647 44.869369 
L 96.553866 45.820996 
L 96.858286 46.773615 
L 97.164026 47.725795 
L 97.47488 48.676269 
L 97.786588 49.626459 
L 98.148435 50.694455 
L 100.338787 49.74157 
L 100.647883 48.790509 
L 100.940598 47.833988 
L 101.234466 46.877852 
L 101.51637 45.917727 
L 101.807968 44.960834 
L 102.10302 44.005092 
L 102.374194 42.974131 
L 102.6418 43.427476 
L 103.6418 43.333497 
L 104.6418 43.282445 
L 105.6418 43.228511 
L 106.6418 43.19326 
L 107.6418 43.087172 
L 108.6418 43.034908 
L 109.6418 42.998001 
L 110.6418 42.96697 
L 111.6418 42.905815 
L 112.6418 42.838395 
L 113.6418 42.789489 
L 114.6418 42.724297 
L 115.6418 42.686109 
L 116.6418 42.644113 
L 117.6418 42.602096 
L 118.6418 42.54258 
L 119.6418 42.42942 
L 120.6418 42.377169 
L 121.6418 42.337751 
L 122.6418 42.29065 
L 123.6418 42.23387 
L 124.6418 42.201207 
L 125.6418 42.165029 
L 126.6418 42.132939 
L 127.6418 42.098659 
L 128.6418 42.040281 
L 129.6418 41.995096 
L 130.6418 41.965472 
L 132.2418 41.915086 
" clip-path="url(#p763a9bd6a1)" style="fill: none; stroke: #000000; stroke-width: 2; stroke-linecap: round"/>
    <path d="M 132.2418 42.73 
L 132.210364 43.73 
L 132.173423 44.73 
L 132.075677 45.73 
L 132.043155 46.73 
L 131.96953 47.73 
L 131.930965 48.73 
L 131.895552 49.73 
L 131.837912 50.73 
L 131.767526 51.73 
L 131.715561 52.73 
L 131.656472 53.73 
L 131.568151 54.73 
L 131.522006 55.73 
L 131.479595 56.73 
L 131.449103 57.73 
L 131.423058 58.73 
L 131.401858 59.73 
L 131.347557 60.73 
L 131.319619 61.73 
L 131.289895 62.73 
L 131.2645 63.73 
L 131.2533 64.73 
L 131.243176 65.73 
L 131.24338 66.73 
L 131.25289 67.73 
L 131.264544 68.73 
L 131.295573 69.73 
L 131.306741 70.73 
L 131.336858 71.73 
L 131.396635 73.33 
L 132.93498 74.412738 
L 133.896026 74.691876 
L 134.85813 74.967842 
L 135.817175 75.252986 
L 136.78718 75.505248 
L 137.748236 75.784357 
L 138.710414 76.060101 
L 139.741951 76.329548 
L 138.804775 75.781204 
L 137.874561 76.152837 
L 136.960964 76.574324 
L 136.034625 76.957584 
L 135.121656 77.380956 
L 134.187447 77.740608 
L 133.258143 78.114974 
L 132.324797 78.477212 
L 131.401672 78.870115 
L 130.490468 79.29878 
L 129.563987 79.681615 
L 128.641634 80.076833 
L 127.703431 80.424501 
L 126.77095 80.789337 
L 125.843896 81.170453 
L 124.795085 81.589854 
L 125.768091 80.613403 
L 126.725413 80.903717 
L 127.682469 81.194826 
L 128.638315 81.489566 
L 129.593175 81.787265 
L 130.550204 82.078453 
L 131.514627 82.347464 
L 132.474401 82.630418 
L 133.434426 82.912621 
L 134.387969 83.21427 
L 135.341639 83.515538 
L 136.291401 83.828528 
L 137.240849 84.142462 
L 138.189379 84.459151 
L 139.137452 84.777209 
L 140.20301 85.14637 
L 139.251674 87.321898 
L 138.29618 87.617694 
L 137.340213 87.912072 
L 136.38608 88.21195 
L 135.431558 88.510663 
L 134.476407 88.807488 
L 133.522475 89.107968 
L 132.553939 89.364638 
L 131.581455 89.609463 
L 130.62245 89.894727 
L 129.652401 90.146858 
L 128.686627 90.411813 
L 127.727285 90.696065 
L 126.750102 90.926792 
L 125.792395 91.215949 
L 124.712687 91.542662 
L 125.651564 91.162985 
L 126.582916 91.531208 
L 127.511175 91.908709 
L 128.44778 92.261172 
L 129.366126 92.668411 
L 130.299232 93.031369 
L 131.23398 93.389404 
L 132.169975 93.743697 
L 133.084389 94.162731 
L 134.019909 94.51845 
L 134.948941 94.89363 
L 135.875501 95.27623 
L 136.791137 95.6916 
L 137.728123 96.042917 
L 138.662299 96.402668 
L 139.71039 96.824231 
L 138.746292 96.005753 
L 137.77307 96.248365 
L 136.814729 96.535619 
L 135.844063 96.7859 
L 134.887799 97.079385 
L 133.930065 97.36846 
L 132.968165 97.645039 
L 132.012659 97.940798 
L 131.059565 98.243794 
L 130.102431 98.53467 
L 129.150804 98.842066 
L 128.198185 99.146486 
L 127.246005 99.452226 
L 126.295531 99.76308 
L 125.345341 100.074788 
L 124.277345 100.436635 
L 125.23023 102.626987 
L 126.181291 102.936083 
L 127.137812 103.228798 
L 128.093948 103.522666 
L 129.054073 103.80457 
L 130.010966 104.096168 
L 130.966708 104.39122 
L 131.997669 104.662394 
L 131.544324 104.93 
L 131.638303 105.93 
L 131.689355 106.93 
L 131.743289 107.93 
L 131.77854 108.93 
L 131.884628 109.93 
L 131.936892 110.93 
L 131.973799 111.93 
L 132.00483 112.93 
L 132.065985 113.93 
L 132.133405 114.93 
L 132.182311 115.93 
L 132.247503 116.93 
L 132.285691 117.93 
L 132.327687 118.93 
L 132.369704 119.93 
L 132.42922 120.93 
L 132.54238 121.93 
L 132.594631 122.93 
L 132.634049 123.93 
L 132.68115 124.93 
L 132.73793 125.93 
L 132.770593 126.93 
L 132.806771 127.93 
L 132.838861 128.93 
L 132.873141 129.93 
L 132.931519 130.93 
L 132.976704 131.93 
L 133.006328 132.93 
L 133.056714 134.53 
" clip-path="url(#p763a9bd6a1)" style="fill: none; stroke: #ffffff; stroke-width: 4; stroke-linecap: round"/>
    <path d="M 132.2418 42.73 
L 132.210364 43.73 
L 132.173423 44.73 
L 132.075677 45.73 
L 132.043155 46.73 
L 131.96953 47.73 
L 131.930965 48.73 
L 131.895552 49.73 
L 131.837912 50.73 
L 131.767526 51.73 
L 131.715561 52.73 
L 131.656472 53.73 
L 131.568151 54.73 
L 131.522006 55.73 
L 131.479595 56.73 
L 131.449103 57.73 
L 131.423058 58.73 
L 131.401858 59.73 
L 131.347557 60.73 
L 131.319619 61.73 
L 131.289895 62.73 
L 131.2645 63.73 
L 131.2533 64.73 
L 131.243176 65.73 
L 131.24338 66.73 
L 131.25289 67.73 
L 131.264544 68.73 
L 131.295573 69.73 
L 131.306741 70.73 
L 131.336858 71.73 
L 131.396635 73.33 
L 132.93498 74.412738 
L 133.896026 74.691876 
L 134.85813 74.967842 
L 135.817175 75.252986 
L 136.78718 75.505248 
L 137.748236 75.784357 
L 138.710414 76.060101 
L 139.741951 76.329548 
L 138.804775 75.781204 
L 137.874561 76.152837 
L 136.960964 76.574324 
L 136.034625 76.957584 
L 135.121656 77.380956 
L 134.187447 77.740608 
L 133.258143 78.114974 
L 132.324797 78.477212 
L 131.401672 78.870115 
L 130.490468 79.29878 
L 129.563987 79.681615 
L 128.641634 80.076833 
L 127.703431 80.424501 
L 126.77095 80.789337 
L 125.843896 81.170453 
L 124.795085 81.589854 
L 125.768091 80.613403 
L 126.725413 80.903717 
L 127.682469 81.194826 
L 128.638315 81.489566 
L 129.593175 81.787265 
L 130.550204 82.078453 
L 131.514627 82.347464 
L 132.474401 82.630418 
L 133.434426 82.912621 
L 134.387969 83.21427 
L 135.341639 83.515538 
L 136.291401 83.828528 
L 137.240849 84.142462 
L 138.189379 84.459151 
L 139.137452 84.777209 
L 140.20301 85.14637 
L 139.251674 87.321898 
L 138.29618 87.617694 
L 137.340213 87.912072 
L 136.38608 88.21195 
L 135.431558 88.510663 
L 134.476407 88.807488 
L 133.522475 89.107968 
L 132.553939 89.364638 
L 131.581455 89.609463 
L 130.62245 89.894727 
L 129.652401 90.146858 
L 128.686627 90.411813 
L 127.727285 90.696065 
L 126.750102 90.926792 
L 125.792395 91.215949 
L 124.712687 91.542662 
L 125.651564 91.162985 
L 126.582916 91.531208 
L 127.511175 91.908709 
L 128.44778 92.261172 
L 129.366126 92.668411 
L 130.299232 93.031369 
L 131.23398 93.389404 
L 132.169975 93.743697 
L 133.084389 94.162731 
L 134.019909 94.51845 
L 134.948941 94.89363 
L 135.875501 95.27623 
L 136.791137 95.6916 
L 137.728123 96.042917 
L 138.662299 96.402668 
L 139.71039 96.824231 
L 138.746292 96.005753 
L 137.77307 96.248365 
L 136.814729 96.535619 
L 135.844063 96.7859 
L 134.887799 97.079385 
L 133.930065 97.36846 
L 132.968165 97.645039 
L 132.012659 97.940798 
L 131.059565 98.243794 
L 130.102431 98.53467 
L 129.150804 98.842066 
L 128.198185 99.146486 
L 127.246005 99.452226 
L 126.295531 99.76308 
L 125.345341 100.074788 
L 124.277345 100.436635 
L 125.23023 102.626987 
L 126.181291 102.936083 
L 127.137812 103.228798 
L 128.093948 103.522666 
L 129.054073 103.80457 
L 130.010966 104.096168 
L 130.966708 104.39122 
L 131.997669 104.662394 
L 131.544324 104.93 
L 131.638303 105.93 
L 131.689355 106.93 
L 131.743289 107.93 
L 131.77854 108.93 
L 131.884628 109.93 
L 131.936892 110.93 
L 131.973799 111.93 
L 132.00483 112.93 
L 132.065985 113.93 
L 132.133405 114.93 
L 132.182311 115.93 
L 132.247503 116.93 
L 132.285691 117.93 
L 132.327687 118.93 
L 132.369704 119.93 
L 132.42922 120.93 
L 132.54238 121.93 
L 132.594631 122.93 
L 132.634049 123.93 
L 132.68115 124.93 
L 132.73793 125.93 
L 132.770593 126.93 
L 132.806771 127.93 
L 132.838861 128.93 
L 132.873141 129.93 
L 132.931519 130.93 
L 132.976704 131.93 
L 133.006328 132.93 
L 133.056714 134.53 
" clip-path="url(#p763a9bd6a1)" style="fill: none; stroke: #000000; stroke-width: 2; stroke-linecap: round"/>
    <path d="M 132.2418 134.53 
L 131.2418 134.498564 
L 130.2418 134.461623 
L 129.2418 134.363877 
L 128.2418 134.331355 
L 127.2418 134.25773 
L 126.2418 134.219165 
L 125.2418 134.183752 
L 124.2418 134.126112 
L 123.2418 134.055726 
L 122.2418 134.003761 
L 121.2418 133.944672 
L 120.2418 133.856351 
L 119.2418 133.810206 
L 118.2418 133.767795 
L 117.2418 133.737303 
L 116.2418 133.711258 
L 115.2418 133.690058 
L 114.2418 133.635757 
L 113.2418 133.607819 
L 112.2418 133.578095 
L 111.2418 133.5527 
L 110.2418 133.5415 
L 109.2418 133.531376 
L 108.2418 133.53158 
L 107.2418 133.54109 
L 106.2418 133.552744 
L 105.2418 133.583773 
L 104.2418 133.594941 
L 103.2418 133.625058 
L 102.2418 133.684835 
L 101.2418 133.722027 
L 100.2418 133.761123 
L 99.2418 133.803563 
L 98.2418 133.836328 
L 97.2418 133.903754 
L 96.2418 133.94288 
L 95.2418 133.985555 
L 94.2418 134.056135 
L 93.2418 134.092526 
L 92.2418 134.150929 
L 91.2418 134.261882 
L 90.2418 134.33254 
L 89.2418 134.44548 
L 88.2418 134.491253 
L 86.3418 134.552536 
L 85.3418 134.601035 
L 84.3418 134.681858 
L 83.3418 134.800377 
L 82.3418 134.870588 
L 81.3418 134.95385 
L 80.3418 134.986992 
L 79.3418 135.038229 
L 78.3418 135.106628 
L 77.3418 135.172843 
L 76.3418 135.24976 
L 75.3418 135.277076 
L 74.3418 135.303553 
L 73.3418 135.326204 
L 72.3418 135.345735 
L 71.3418 135.372129 
L 70.3418 135.4219 
L 69.3418 135.456973 
L 68.3418 135.492839 
L 67.3418 135.508206 
L 66.3418 135.523975 
L 65.3418 135.527388 
L 64.3418 135.529805 
L 63.3418 135.529319 
L 62.3418 135.52739 
L 61.3418 135.514133 
L 60.3418 135.505742 
L 59.3418 135.484206 
L 58.3418 135.461173 
L 57.3418 135.44394 
L 56.3418 135.425477 
L 55.3418 135.405025 
L 54.3418 135.388425 
L 53.3418 135.325646 
L 52.3418 135.250381 
L 51.3418 135.217742 
L 50.3418 135.150178 
L 49.3418 135.096131 
L 48.3418 135.062427 
L 47.3418 134.972301 
L 46.3418 134.943766 
L 45.3418 134.91228 
L 44.3418 134.881269 
L 43.3418 134.826461 
L 42.3418 134.761874 
L 40.4418 134.723678 
" clip-path="url(#p763a9bd6a1)" style="fill: none; stroke: #ffffff; stroke-width: 4; stroke-linecap: round"/>
    <path d="M 132.2418 134.53 
L 131.2418 134.498564 
L 130.2418 134.461623 
L 129.2418 134.363877 
L 128.2418 134.331355 
L 127.2418 134.25773 
L 126.2418 134.219165 
L 125.2418 134.183752 
L 124.2418 134.126112 
L 123.2418 134.055726 
L 122.2418 134.003761 
L 121.2418 133.944672 
L 120.2418 133.856351 
L 119.2418 133.810206 
L 118.2418 133.767795 
L 117.2418 133.737303 
L 116.2418 133.711258 
L 115.2418 133.690058 
L 114.2418 133.635757 
L 113.2418 133.607819 
L 112.2418 133.578095 
L 111.2418 133.5527 
L 110.2418 133.5415 
L 109.2418 133.531376 
L 108.2418 133.53158 
L 107.2418 133.54109 
L 106.2418 133.552744 
L 105.2418 133.583773 
L 104.2418 133.594941 
L 103.2418 133.625058 
L 102.2418 133.684835 
L 101.2418 133.722027 
L 100.2418 133.761123 
L 99.2418 133.803563 
L 98.2418 133.836328 
L 97.2418 133.903754 
L 96.2418 133.94288 
L 95.2418 133.985555 
L 94.2418 134.056135 
L 93.2418 134.092526 
L 92.2418 134.150929 
L 91.2418 134.261882 
L 90.2418 134.33254 
L 89.2418 134.44548 
L 88.2418 134.491253 
L 86.3418 134.552536 
L 85.3418 134.601035 
L 84.3418 134.681858 
L 83.3418 134.800377 
L 82.3418 134.870588 
L 81.3418 134.95385 
L 80.3418 134.986992 
L 79.3418 135.038229 
L 78.3418 135.106628 
L 77.3418 135.172843 
L 76.3418 135.24976 
L 75.3418 135.277076 
L 74.3418 135.303553 
L 73.3418 135.326204 
L 72.3418 135.345735 
L 71.3418 135.372129 
L 70.3418 135.4219 
L 69.3418 135.456973 
L 68.3418 135.492839 
L 67.3418 135.508206 
L 66.3418 135.523975 
L 65.3418 135.527388 
L 64.3418 135.529805 
L 63.3418 135.529319 
L 62.3418 135.52739 
L 61.3418 135.514133 
L 60.3418 135.505742 
L 59.3418 135.484206 
L 58.3418 135.461173 
L 57.3418 135.44394 
L 56.3418 135.425477 
L 55.3418 135.405025 
L 54.3418 135.388425 
L 53.3418 135.325646 
L 52.3418 135.250381 
L 51.3418 135.217742 
L 50.3418 135.150178 
L 49.3418 135.096131 
L 48.3418 135.062427 
L 47.3418 134.972301 
L 46.3418 134.943766 
L 45.3418 134.91228 
L 44.3418 134.881269 
L 43.3418 134.826461 
L 42.3418 134.761874 
L 40.4418 134.723678 
" clip-path="url(#p763a9bd6a1)" style="fill: none; stroke: #000000; stroke-width: 2; stroke-linecap: round"/>
    <g id="text_1">
     <path d="M 18.757191 83.829219 
L 21.907581 83.829219 
Q 23.118519 83.829219 23.786488 84.303828 
Q 24.456409 84.778437 24.456409 85.590937 
Q 24.456409 86.565547 23.632191 87.190547 
Q 23.143909 87.565547 21.993519 87.829219 
L 23.1068 90.766719 
Q 23.319691 91.340937 23.550159 91.5675 
Q 23.782581 91.792109 24.194691 91.792109 
L 24.194691 91.991328 
L 22.3568 91.991328 
L 20.819691 87.940547 
L 19.993519 87.878047 
L 19.306019 90.417109 
Q 19.143909 90.991328 19.143909 91.204219 
Q 19.143909 91.491328 19.306019 91.616328 
Q 19.470081 91.741328 19.9818 91.792109 
L 19.9818 91.991328 
L 16.944691 91.991328 
L 16.944691 91.792109 
Q 17.444691 91.729609 17.649769 91.516719 
Q 17.8568 91.303828 18.007191 90.729609 
L 19.493519 85.340937 
Q 19.643909 84.766719 19.643909 84.553828 
Q 19.643909 84.329219 19.470081 84.204219 
Q 19.319691 84.104609 18.757191 84.028437 
L 18.757191 83.829219 
z
M 20.931019 84.579219 
L 20.143909 87.417109 
Q 20.532581 87.479609 20.782581 87.479609 
Q 21.893909 87.479609 22.518909 86.979609 
Q 23.143909 86.479609 23.143909 85.604609 
Q 23.143909 84.954219 22.755238 84.579219 
Q 22.368519 84.204219 21.643909 84.204219 
Q 21.032581 84.204219 20.931019 84.579219 
z
M 28.192346 93.644844 
L 25.776525 93.644844 
L 25.776525 93.513594 
Q 26.257775 93.487617 26.432775 93.334492 
Q 26.607775 93.181367 26.607775 92.813594 
L 26.607775 88.884297 
Q 26.607775 88.456367 26.345275 88.456367 
Q 26.223596 88.456367 25.951525 88.561641 
L 25.715002 88.649141 
L 25.715002 88.526094 
L 27.281799 87.730391 
L 27.361096 87.756367 
L 27.361096 92.980391 
Q 27.361096 93.268867 27.536096 93.391914 
Q 27.711096 93.513594 28.192346 93.513594 
L 28.192346 93.644844 
z
" clip-path="url(#p763a9bd6a1)" style="stroke: #ffffff; stroke-width: 4"/>
     <path d="M 18.757191 83.829219 
L 21.907581 83.829219 
Q 23.118519 83.829219 23.786488 84.303828 
Q 24.456409 84.778437 24.456409 85.590937 
Q 24.456409 86.565547 23.632191 87.190547 
Q 23.143909 87.565547 21.993519 87.829219 
L 23.1068 90.766719 
Q 23.319691 91.340937 23.550159 91.5675 
Q 23.782581 91.792109 24.194691 91.792109 
L 24.194691 91.991328 
L 22.3568 91.991328 
L 20.819691 87.940547 
L 19.993519 87.878047 
L 19.306019 90.417109 
Q 19.143909 90.991328 19.143909 91.204219 
Q 19.143909 91.491328 19.306019 91.616328 
Q 19.470081 91.741328 19.9818 91.792109 
L 19.9818 91.991328 
L 16.944691 91.991328 
L 16.944691 91.792109 
Q 17.444691 91.729609 17.649769 91.516719 
Q 17.8568 91.303828 18.007191 90.729609 
L 19.493519 85.340937 
Q 19.643909 84.766719 19.643909 84.553828 
Q 19.643909 84.329219 19.470081 84.204219 
Q 19.319691 84.104609 18.757191 84.028437 
L 18.757191 83.829219 
z
M 20.931019 84.579219 
L 20.143909 87.417109 
Q 20.532581 87.479609 20.782581 87.479609 
Q 21.893909 87.479609 22.518909 86.979609 
Q 23.143909 86.479609 23.143909 85.604609 
Q 23.143909 84.954219 22.755238 84.579219 
Q 22.368519 84.204219 21.643909 84.204219 
Q 21.032581 84.204219 20.931019 84.579219 
z
M 28.192346 93.644844 
L 25.776525 93.644844 
L 25.776525 93.513594 
Q 26.257775 93.487617 26.432775 93.334492 
Q 26.607775 93.181367 26.607775 92.813594 
L 26.607775 88.884297 
Q 26.607775 88.456367 26.345275 88.456367 
Q 26.223596 88.456367 25.951525 88.561641 
L 25.715002 88.649141 
L 25.715002 88.526094 
L 27.281799 87.730391 
L 27.361096 87.756367 
L 27.361096 92.980391 
Q 27.361096 93.268867 27.536096 93.391914 
Q 27.711096 93.513594 28.192346 93.513594 
L 28.192346 93.644844 
z
" clip-path="url(#p763a9bd6a1)"/>
    </g>
    <g id="text_2">
     <path d="M 81.679691 21.170391 
L 84.830081 21.170391 
Q 86.041019 21.170391 86.708988 21.645 
Q 87.378909 22.119609 87.378909 22.932109 
Q 87.378909 23.906719 86.554691 24.531719 
Q 86.066409 24.906719 84.916019 25.170391 
L 86.0293 28.107891 
Q 86.242191 28.682109 86.472659 28.908672 
Q 86.705081 29.133281 87.117191 29.133281 
L 87.117191 29.3325 
L 85.2793 29.3325 
L 83.742191 25.281719 
L 82.916019 25.219219 
L 82.228519 27.758281 
Q 82.066409 28.3325 82.066409 28.545391 
Q 82.066409 28.8325 82.228519 28.9575 
Q 82.392581 29.0825 82.9043 29.133281 
L 82.9043 29.3325 
L 79.867191 29.3325 
L 79.867191 29.133281 
Q 80.367191 29.070781 80.572269 28.857891 
Q 80.7793 28.645 80.929691 28.070781 
L 82.416019 22.682109 
Q 82.566409 22.107891 82.566409 21.895 
Q 82.566409 21.670391 82.392581 21.545391 
Q 82.242191 21.445781 81.679691 21.369609 
L 81.679691 21.170391 
z
M 83.853519 21.920391 
L 83.066409 24.758281 
Q 83.455081 24.820781 83.705081 24.820781 
Q 84.816409 24.820781 85.441409 24.320781 
Q 86.066409 23.820781 86.066409 22.945781 
Q 86.066409 22.295391 85.677738 21.920391 
Q 85.291019 21.545391 84.566409 21.545391 
Q 83.955081 21.545391 83.853519 21.920391 
z
M 91.814846 29.786992 
L 91.341799 30.986016 
L 87.921096 30.986016 
L 87.921096 30.880742 
L 89.478322 29.227812 
Q 90.090822 28.587969 90.353322 28.054766 
Q 90.615822 27.521562 90.615822 26.952812 
Q 90.615822 26.366289 90.291799 26.042266 
Q 89.967775 25.718242 89.399025 25.718242 
Q 88.927346 25.718242 88.651174 25.964336 
Q 88.375002 26.209062 88.112502 26.855742 
L 87.929299 26.811992 
Q 88.078322 25.998516 88.528127 25.535039 
Q 88.979299 25.071562 89.749025 25.071562 
Q 90.475002 25.071562 90.920705 25.509062 
Q 91.367775 25.946562 91.367775 26.611016 
Q 91.367775 27.599492 90.248049 28.780742 
L 88.804299 30.321562 
L 90.852346 30.321562 
Q 91.140822 30.321562 91.310354 30.208086 
Q 91.481252 30.093242 91.691799 29.735039 
L 91.814846 29.786992 
z
" clip-path="url(#p763a9bd6a1)" style="stroke: #ffffff; stroke-width: 4"/>
     <path d="M 81.679691 21.170391 
L 84.830081 21.170391 
Q 86.041019 21.170391 86.708988 21.645 
Q 87.378909 22.119609 87.378909 22.932109 
Q 87.378909 23.906719 86.554691 24.531719 
Q 86.066409 24.906719 84.916019 25.170391 
L 86.0293 28.107891 
Q 86.242191 28.682109 86.472659 28.908672 
Q 86.705081 29.133281 87.117191 29.133281 
L 87.117191 29.3325 
L 85.2793 29.3325 
L 83.742191 25.281719 
L 82.916019 25.219219 
L 82.228519 27.758281 
Q 82.066409 28.3325 82.066409 28.545391 
Q 82.066409 28.8325 82.228519 28.9575 
Q 82.392581 29.0825 82.9043 29.133281 
L 82.9043 29.3325 
L 79.867191 29.3325 
L 79.867191 29.133281 
Q 80.367191 29.070781 80.572269 28.857891 
Q 80.7793 28.645 80.929691 28.070781 
L 82.416019 22.682109 
Q 82.566409 22.107891 82.566409 21.895 
Q 82.566409 21.670391 82.392581 21.545391 
Q 82.242191 21.445781 81.679691 21.369609 
L 81.679691 21.170391 
z
M 83.853519 21.920391 
L 83.066409 24.758281 
Q 83.455081 24.820781 83.705081 24.820781 
Q 84.816409 24.820781 85.441409 24.320781 
Q 86.066409 23.820781 86.066409 22.945781 
Q 86.066409 22.295391 85.677738 21.920391 
Q 85.291019 21.545391 84.566409 21.545391 
Q 83.955081 21.545391 83.853519 21.920391 
z
M 91.814846 29.786992 
L 91.341799 30.986016 
L 87.921096 30.986016 
L 87.921096 30.880742 
L 89.478322 29.227812 
Q 90.090822 28.587969 90.353322 28.054766 
Q 90.615822 27.521562 90.615822 26.952812 
Q 90.615822 26.366289 90.291799 26.042266 
Q 89.967775 25.718242 89.399025 25.718242 
Q 88.927346 25.718242 88.651174 25.964336 
Q 88.375002 26.209062 88.112502 26.855742 
L 87.929299 26.811992 
Q 88.078322 25.998516 88.528127 25.535039 
Q 88.979299 25.071562 89.749025 25.071562 
Q 90.475002 25.071562 90.920705 25.509062 
Q 91.367775 25.946562 91.367775 26.611016 
Q 91.367775 27.599492 90.248049 28.780742 
L 88.804299 30.321562 
L 90.852346 30.321562 
Q 91.140822 30.321562 91.310354 30.208086 
Q 91.481252 30.093242 91.691799 29.735039 
L 91.814846 29.786992 
z
" clip-path="url(#p763a9bd6a1)"/>
    </g>
    <g id="text_3">
     <path d="M 110.557191 83.829219 
L 113.707581 83.829219 
Q 114.918519 83.829219 115.586488 84.303828 
Q 116.256409 84.778437 116.256409 85.590937 
Q 116.256409 86.565547 115.432191 87.190547 
Q 114.943909 87.565547 113.793519 87.829219 
L 114.9068 90.766719 
Q 115.119691 91.340937 115.350159 91.5675 
Q 115.582581 91.792109 115.994691 91.792109 
L 115.994691 91.991328 
L 114.1568 91.991328 
L 112.619691 87.940547 
L 111.793519 87.878047 
L 111.106019 90.417109 
Q 110.943909 90.991328 110.943909 91.204219 
Q 110.943909 91.491328 111.106019 91.616328 
Q 111.270081 91.741328 111.7818 91.792109 
L 111.7818 91.991328 
L 108.744691 91.991328 
L 108.744691 91.792109 
Q 109.244691 91.729609 109.449769 91.516719 
Q 109.6568 91.303828 109.807191 90.729609 
L 111.293519 85.340937 
Q 111.443909 84.766719 111.443909 84.553828 
Q 111.443909 84.329219 111.270081 84.204219 
Q 111.119691 84.104609 110.557191 84.028437 
L 110.557191 83.829219 
z
M 112.731019 84.579219 
L 111.943909 87.417109 
Q 112.332581 87.479609 112.582581 87.479609 
Q 113.693909 87.479609 114.318909 86.979609 
Q 114.943909 86.479609 114.943909 85.604609 
Q 114.943909 84.954219 114.555238 84.579219 
Q 114.168519 84.204219 113.443909 84.204219 
Q 112.832581 84.204219 112.731019 84.579219 
z
M 117.077502 89.182344 
L 116.938049 89.146797 
Q 117.139025 88.490547 117.566955 88.110469 
Q 117.996252 87.730391 118.652502 87.730391 
Q 119.265002 87.730391 119.640979 88.062617 
Q 120.018322 88.394844 120.018322 88.928047 
Q 120.018322 89.64582 119.204846 90.136641 
Q 119.686096 90.34582 119.930822 90.600117 
Q 120.315002 91.028047 120.315002 91.728047 
Q 120.315002 92.428047 119.913049 92.953047 
Q 119.615002 93.356367 119.059924 93.562812 
Q 118.504846 93.767891 117.882775 93.767891 
Q 116.902502 93.767891 116.902502 93.268867 
Q 116.902502 93.128047 117.007775 93.040547 
Q 117.113049 92.953047 117.262072 92.953047 
Q 117.480822 92.953047 117.795275 93.181367 
Q 118.180822 93.45207 118.548596 93.45207 
Q 119.029846 93.45207 119.357971 93.063789 
Q 119.686096 92.674141 119.686096 92.113594 
Q 119.686096 91.107344 118.775549 90.844844 
Q 118.504846 90.757344 117.882775 90.757344 
L 117.882775 90.634297 
Q 118.373596 90.468867 118.618322 90.319844 
Q 119.326525 89.917891 119.326525 89.146797 
Q 119.326525 88.709297 119.07633 88.482344 
Q 118.827502 88.255391 118.381799 88.255391 
Q 117.594299 88.255391 117.077502 89.182344 
z
" clip-path="url(#p763a9bd6a1)" style="stroke: #ffffff; stroke-width: 4"/>
     <path d="M 110.557191 83.829219 
L 113.707581 83.829219 
Q 114.918519 83.829219 115.586488 84.303828 
Q 116.256409 84.778437 116.256409 85.590937 
Q 116.256409 86.565547 115.432191 87.190547 
Q 114.943909 87.565547 113.793519 87.829219 
L 114.9068 90.766719 
Q 115.119691 91.340937 115.350159 91.5675 
Q 115.582581 91.792109 115.994691 91.792109 
L 115.994691 91.991328 
L 114.1568 91.991328 
L 112.619691 87.940547 
L 111.793519 87.878047 
L 111.106019 90.417109 
Q 110.943909 90.991328 110.943909 91.204219 
Q 110.943909 91.491328 111.106019 91.616328 
Q 111.270081 91.741328 111.7818 91.792109 
L 111.7818 91.991328 
L 108.744691 91.991328 
L 108.744691 91.792109 
Q 109.244691 91.729609 109.449769 91.516719 
Q 109.6568 91.303828 109.807191 90.729609 
L 111.293519 85.340937 
Q 111.443909 84.766719 111.443909 84.553828 
Q 111.443909 84.329219 111.270081 84.204219 
Q 111.119691 84.104609 110.557191 84.028437 
L 110.557191 83.829219 
z
M 112.731019 84.579219 
L 111.943909 87.417109 
Q 112.332581 87.479609 112.582581 87.479609 
Q 113.693909 87.479609 114.318909 86.979609 
Q 114.943909 86.479609 114.943909 85.604609 
Q 114.943909 84.954219 114.555238 84.579219 
Q 114.168519 84.204219 113.443909 84.204219 
Q 112.832581 84.204219 112.731019 84.579219 
z
M 117.077502 89.182344 
L 116.938049 89.146797 
Q 117.139025 88.490547 117.566955 88.110469 
Q 117.996252 87.730391 118.652502 87.730391 
Q 119.265002 87.730391 119.640979 88.062617 
Q 120.018322 88.394844 120.018322 88.928047 
Q 120.018322 89.64582 119.204846 90.136641 
Q 119.686096 90.34582 119.930822 90.600117 
Q 120.315002 91.028047 120.315002 91.728047 
Q 120.315002 92.428047 119.913049 92.953047 
Q 119.615002 93.356367 119.059924 93.562812 
Q 118.504846 93.767891 117.882775 93.767891 
Q 116.902502 93.767891 116.902502 93.268867 
Q 116.902502 93.128047 117.007775 93.040547 
Q 117.113049 92.953047 117.262072 92.953047 
Q 117.480822 92.953047 117.795275 93.181367 
Q 118.180822 93.45207 118.548596 93.45207 
Q 119.029846 93.45207 119.357971 93.063789 
Q 119.686096 92.674141 119.686096 92.113594 
Q 119.686096 91.107344 118.775549 90.844844 
Q 118.504846 90.757344 117.882775 90.757344 
L 117.882775 90.634297 
Q 118.373596 90.468867 118.618322 90.319844 
Q 119.326525 89.917891 119.326525 89.146797 
Q 119.326525 88.709297 119.07633 88.482344 
Q 118.827502 88.255391 118.381799 88.255391 
Q 117.594299 88.255391 117.077502 89.182344 
z
" clip-path="url(#p763a9bd6a1)"/>
    </g>
    <g id="text_4">
     <path d="M 18.757191 83.829219 
L 21.907581 83.829219 
Q 23.118519 83.829219 23.786488 84.303828 
Q 24.456409 84.778437 24.456409 85.590937 
Q 24.456409 86.565547 23.632191 87.190547 
Q 23.143909 87.565547 21.993519 87.829219 
L 23.1068 90.766719 
Q 23.319691 91.340937 23.550159 91.5675 
Q 23.782581 91.792109 24.194691 91.792109 
L 24.194691 91.991328 
L 22.3568 91.991328 
L 20.819691 87.940547 
L 19.993519 87.878047 
L 19.306019 90.417109 
Q 19.143909 90.991328 19.143909 91.204219 
Q 19.143909 91.491328 19.306019 91.616328 
Q 19.470081 91.741328 19.9818 91.792109 
L 19.9818 91.991328 
L 16.944691 91.991328 
L 16.944691 91.792109 
Q 17.444691 91.729609 17.649769 91.516719 
Q 17.8568 91.303828 18.007191 90.729609 
L 19.493519 85.340937 
Q 19.643909 84.766719 19.643909 84.553828 
Q 19.643909 84.329219 19.470081 84.204219 
Q 19.319691 84.104609 18.757191 84.028437 
L 18.757191 83.829219 
z
M 20.931019 84.579219 
L 20.143909 87.417109 
Q 20.532581 87.479609 20.782581 87.479609 
Q 21.893909 87.479609 22.518909 86.979609 
Q 23.143909 86.479609 23.143909 85.604609 
Q 23.143909 84.954219 22.755238 84.579219 
Q 22.368519 84.204219 21.643909 84.204219 
Q 21.032581 84.204219 20.931019 84.579219 
z
M 28.192346 93.644844 
L 25.776525 93.644844 
L 25.776525 93.513594 
Q 26.257775 93.487617 26.432775 93.334492 
Q 26.607775 93.181367 26.607775 92.813594 
L 26.607775 88.884297 
Q 26.607775 88.456367 26.345275 88.456367 
Q 26.223596 88.456367 25.951525 88.561641 
L 25.715002 88.649141 
L 25.715002 88.526094 
L 27.281799 87.730391 
L 27.361096 87.756367 
L 27.361096 92.980391 
Q 27.361096 93.268867 27.536096 93.391914 
Q 27.711096 93.513594 28.192346 93.513594 
L 28.192346 93.644844 
z
" clip-path="url(#p763a9bd6a1)" style="stroke: #ffffff; stroke-width: 4"/>
     <path d="M 18.757191 83.829219 
L 21.907581 83.829219 
Q 23.118519 83.829219 23.786488 84.303828 
Q 24.456409 84.778437 24.456409 85.590937 
Q 24.456409 86.565547 23.632191 87.190547 
Q 23.143909 87.565547 21.993519 87.829219 
L 23.1068 90.766719 
Q 23.319691 91.340937 23.550159 91.5675 
Q 23.782581 91.792109 24.194691 91.792109 
L 24.194691 91.991328 
L 22.3568 91.991328 
L 20.819691 87.940547 
L 19.993519 87.878047 
L 19.306019 90.417109 
Q 19.143909 90.991328 19.143909 91.204219 
Q 19.143909 91.491328 19.306019 91.616328 
Q 19.470081 91.741328 19.9818 91.792109 
L 19.9818 91.991328 
L 16.944691 91.991328 
L 16.944691 91.792109 
Q 17.444691 91.729609 17.649769 91.516719 
Q 17.8568 91.303828 18.007191 90.729609 
L 19.493519 85.340937 
Q 19.643909 84.766719 19.643909 84.553828 
Q 19.643909 84.329219 19.470081 84.204219 
Q 19.319691 84.104609 18.757191 84.028437 
L 18.757191 83.829219 
z
M 20.931019 84.579219 
L 20.143909 87.417109 
Q 20.532581 87.479609 20.782581 87.479609 
Q 21.893909 87.479609 22.518909 86.979609 
Q 23.143909 86.479609 23.143909 85.604609 
Q 23.143909 84.954219 22.755238 84.579219 
Q 22.368519 84.204219 21.643909 84.204219 
Q 21.032581 84.204219 20.931019 84.579219 
z
M 28.192346 93.644844 
L 25.776525 93.644844 
L 25.776525 93.513594 
Q 26.257775 93.487617 26.432775 93.334492 
Q 26.607775 93.181367 26.607775 92.813594 
L 26.607775 88.884297 
Q 26.607775 88.456367 26.345275 88.456367 
Q 26.223596 88.456367 25.951525 88.561641 
L 25.715002 88.649141 
L 25.715002 88.526094 
L 27.281799 87.730391 
L 27.361096 87.756367 
L 27.361096 92.980391 
Q 27.361096 93.268867 27.536096 93.391914 
Q 27.711096 93.513594 28.192346 93.513594 
L 28.192346 93.644844 
z
" clip-path="url(#p763a9bd6a1)"/>
    </g>
    <g id="text_5">
     <path d="M 81.679691 21.170391 
L 84.830081 21.170391 
Q 86.041019 21.170391 86.708988 21.645 
Q 87.378909 22.119609 87.378909 22.932109 
Q 87.378909 23.906719 86.554691 24.531719 
Q 86.066409 24.906719 84.916019 25.170391 
L 86.0293 28.107891 
Q 86.242191 28.682109 86.472659 28.908672 
Q 86.705081 29.133281 87.117191 29.133281 
L 87.117191 29.3325 
L 85.2793 29.3325 
L 83.742191 25.281719 
L 82.916019 25.219219 
L 82.228519 27.758281 
Q 82.066409 28.3325 82.066409 28.545391 
Q 82.066409 28.8325 82.228519 28.9575 
Q 82.392581 29.0825 82.9043 29.133281 
L 82.9043 29.3325 
L 79.867191 29.3325 
L 79.867191 29.133281 
Q 80.367191 29.070781 80.572269 28.857891 
Q 80.7793 28.645 80.929691 28.070781 
L 82.416019 22.682109 
Q 82.566409 22.107891 82.566409 21.895 
Q 82.566409 21.670391 82.392581 21.545391 
Q 82.242191 21.445781 81.679691 21.369609 
L 81.679691 21.170391 
z
M 83.853519 21.920391 
L 83.066409 24.758281 
Q 83.455081 24.820781 83.705081 24.820781 
Q 84.816409 24.820781 85.441409 24.320781 
Q 86.066409 23.820781 86.066409 22.945781 
Q 86.066409 22.295391 85.677738 21.920391 
Q 85.291019 21.545391 84.566409 21.545391 
Q 83.955081 21.545391 83.853519 21.920391 
z
M 91.814846 29.786992 
L 91.341799 30.986016 
L 87.921096 30.986016 
L 87.921096 30.880742 
L 89.478322 29.227812 
Q 90.090822 28.587969 90.353322 28.054766 
Q 90.615822 27.521562 90.615822 26.952812 
Q 90.615822 26.366289 90.291799 26.042266 
Q 89.967775 25.718242 89.399025 25.718242 
Q 88.927346 25.718242 88.651174 25.964336 
Q 88.375002 26.209062 88.112502 26.855742 
L 87.929299 26.811992 
Q 88.078322 25.998516 88.528127 25.535039 
Q 88.979299 25.071562 89.749025 25.071562 
Q 90.475002 25.071562 90.920705 25.509062 
Q 91.367775 25.946562 91.367775 26.611016 
Q 91.367775 27.599492 90.248049 28.780742 
L 88.804299 30.321562 
L 90.852346 30.321562 
Q 91.140822 30.321562 91.310354 30.208086 
Q 91.481252 30.093242 91.691799 29.735039 
L 91.814846 29.786992 
z
" clip-path="url(#p763a9bd6a1)" style="stroke: #ffffff; stroke-width: 4"/>
     <path d="M 81.679691 21.170391 
L 84.830081 21.170391 
Q 86.041019 21.170391 86.708988 21.645 
Q 87.378909 22.119609 87.378909 22.932109 
Q 87.378909 23.906719 86.554691 24.531719 
Q 86.066409 24.906719 84.916019 25.170391 
L 86.0293 28.107891 
Q 86.242191 28.682109 86.472659 28.908672 
Q 86.705081 29.133281 87.117191 29.133281 
L 87.117191 29.3325 
L 85.2793 29.3325 
L 83.742191 25.281719 
L 82.916019 25.219219 
L 82.228519 27.758281 
Q 82.066409 28.3325 82.066409 28.545391 
Q 82.066409 28.8325 82.228519 28.9575 
Q 82.392581 29.0825 82.9043 29.133281 
L 82.9043 29.3325 
L 79.867191 29.3325 
L 79.867191 29.133281 
Q 80.367191 29.070781 80.572269 28.857891 
Q 80.7793 28.645 80.929691 28.070781 
L 82.416019 22.682109 
Q 82.566409 22.107891 82.566409 21.895 
Q 82.566409 21.670391 82.392581 21.545391 
Q 82.242191 21.445781 81.679691 21.369609 
L 81.679691 21.170391 
z
M 83.853519 21.920391 
L 83.066409 24.758281 
Q 83.455081 24.820781 83.705081 24.820781 
Q 84.816409 24.820781 85.441409 24.320781 
Q 86.066409 23.820781 86.066409 22.945781 
Q 86.066409 22.295391 85.677738 21.920391 
Q 85.291019 21.545391 84.566409 21.545391 
Q 83.955081 21.545391 83.853519 21.920391 
z
M 91.814846 29.786992 
L 91.341799 30.986016 
L 87.921096 30.986016 
L 87.921096 30.880742 
L 89.478322 29.227812 
Q 90.090822 28.587969 90.353322 28.054766 
Q 90.615822 27.521562 90.615822 26.952812 
Q 90.615822 26.366289 90.291799 26.042266 
Q 89.967775 25.718242 89.399025 25.718242 
Q 88.927346 25.718242 88.651174 25.964336 
Q 88.375002 26.209062 88.112502 26.855742 
L 87.929299 26.811992 
Q 88.078322 25.998516 88.528127 25.535039 
Q 88.979299 25.071562 89.749025 25.071562 
Q 90.475002 25.071562 90.920705 25.509062 
Q 91.367775 25.946562 91.367775 26.611016 
Q 91.367775 27.599492 90.248049 28.780742 
L 88.804299 30.321562 
L 90.852346 30.321562 
Q 91.140822 30.321562 91.310354 30.208086 
Q 91.481252 30.093242 91.691799 29.735039 
L 91.814846 29.786992 
z
" clip-path="url(#p763a9bd6a1)"/>
    </g>
    <g id="text_6">
     <path d="M 110.557191 83.829219 
L 113.707581 83.829219 
Q 114.918519 83.829219 115.586488 84.303828 
Q 116.256409 84.778437 116.256409 85.590937 
Q 116.256409 86.565547 115.432191 87.190547 
Q 114.943909 87.565547 113.793519 87.829219 
L 114.9068 90.766719 
Q 115.119691 91.340937 115.350159 91.5675 
Q 115.582581 91.792109 115.994691 91.792109 
L 115.994691 91.991328 
L 114.1568 91.991328 
L 112.619691 87.940547 
L 111.793519 87.878047 
L 111.106019 90.417109 
Q 110.943909 90.991328 110.943909 91.204219 
Q 110.943909 91.491328 111.106019 91.616328 
Q 111.270081 91.741328 111.7818 91.792109 
L 111.7818 91.991328 
L 108.744691 91.991328 
L 108.744691 91.792109 
Q 109.244691 91.729609 109.449769 91.516719 
Q 109.6568 91.303828 109.807191 90.729609 
L 111.293519 85.340937 
Q 111.443909 84.766719 111.443909 84.553828 
Q 111.443909 84.329219 111.270081 84.204219 
Q 111.119691 84.104609 110.557191 84.028437 
L 110.557191 83.829219 
z
M 112.731019 84.579219 
L 111.943909 87.417109 
Q 112.332581 87.479609 112.582581 87.479609 
Q 113.693909 87.479609 114.318909 86.979609 
Q 114.943909 86.479609 114.943909 85.604609 
Q 114.943909 84.954219 114.555238 84.579219 
Q 114.168519 84.204219 113.443909 84.204219 
Q 112.832581 84.204219 112.731019 84.579219 
z
M 117.077502 89.182344 
L 116.938049 89.146797 
Q 117.139025 88.490547 117.566955 88.110469 
Q 117.996252 87.730391 118.652502 87.730391 
Q 119.265002 87.730391 119.640979 88.062617 
Q 120.018322 88.394844 120.018322 88.928047 
Q 120.018322 89.64582 119.204846 90.136641 
Q 119.686096 90.34582 119.930822 90.600117 
Q 120.315002 91.028047 120.315002 91.728047 
Q 120.315002 92.428047 119.913049 92.953047 
Q 119.615002 93.356367 119.059924 93.562812 
Q 118.504846 93.767891 117.882775 93.767891 
Q 116.902502 93.767891 116.902502 93.268867 
Q 116.902502 93.128047 117.007775 93.040547 
Q 117.113049 92.953047 117.262072 92.953047 
Q 117.480822 92.953047 117.795275 93.181367 
Q 118.180822 93.45207 118.548596 93.45207 
Q 119.029846 93.45207 119.357971 93.063789 
Q 119.686096 92.674141 119.686096 92.113594 
Q 119.686096 91.107344 118.775549 90.844844 
Q 118.504846 90.757344 117.882775 90.757344 
L 117.882775 90.634297 
Q 118.373596 90.468867 118.618322 90.319844 
Q 119.326525 89.917891 119.326525 89.146797 
Q 119.326525 88.709297 119.07633 88.482344 
Q 118.827502 88.255391 118.381799 88.255391 
Q 117.594299 88.255391 117.077502 89.182344 
z
" clip-path="url(#p763a9bd6a1)" style="stroke: #ffffff; stroke-width: 4"/>
     <path d="M 110.557191 83.829219 
L 113.707581 83.829219 
Q 114.918519 83.829219 115.586488 84.303828 
Q 116.256409 84.778437 116.256409 85.590937 
Q 116.256409 86.565547 115.432191 87.190547 
Q 114.943909 87.565547 113.793519 87.829219 
L 114.9068 90.766719 
Q 115.119691 91.340937 115.350159 91.5675 
Q 115.582581 91.792109 115.994691 91.792109 
L 115.994691 91.991328 
L 114.1568 91.991328 
L 112.619691 87.940547 
L 111.793519 87.878047 
L 111.106019 90.417109 
Q 110.943909 90.991328 110.943909 91.204219 
Q 110.943909 91.491328 111.106019 91.616328 
Q 111.270081 91.741328 111.7818 91.792109 
L 111.7818 91.991328 
L 108.744691 91.991328 
L 108.744691 91.792109 
Q 109.244691 91.729609 109.449769 91.516719 
Q 109.6568 91.303828 109.807191 90.729609 
L 111.293519 85.340937 
Q 111.443909 84.766719 111.443909 84.553828 
Q 111.443909 84.329219 111.270081 84.204219 
Q 111.119691 84.104609 110.557191 84.028437 
L 110.557191 83.829219 
z
M 112.731019 84.579219 
L 111.943909 87.417109 
Q 112.332581 87.479609 112.582581 87.479609 
Q 113.693909 87.479609 114.318909 86.979609 
Q 114.943909 86.479609 114.943909 85.604609 
Q 114.943909 84.954219 114.555238 84.579219 
Q 114.168519 84.204219 113.443909 84.204219 
Q 112.832581 84.204219 112.731019 84.579219 
z
M 117.077502 89.182344 
L 116.938049 89.146797 
Q 117.139025 88.490547 117.566955 88.110469 
Q 117.996252 87.730391 118.652502 87.730391 
Q 119.265002 87.730391 119.640979 88.062617 
Q 120.018322 88.394844 120.018322 88.928047 
Q 120.018322 89.64582 119.204846 90.136641 
Q 119.686096 90.34582 119.930822 90.600117 
Q 120.315002 91.028047 120.315002 91.728047 
Q 120.315002 92.428047 119.913049 92.953047 
Q 119.615002 93.356367 119.059924 93.562812 
Q 118.504846 93.767891 117.882775 93.767891 
Q 116.902502 93.767891 116.902502 93.268867 
Q 116.902502 93.128047 117.007775 93.040547 
Q 117.113049 92.953047 117.262072 92.953047 
Q 117.480822 92.953047 117.795275 93.181367 
Q 118.180822 93.45207 118.548596 93.45207 
Q 119.029846 93.45207 119.357971 93.063789 
Q 119.686096 92.674141 119.686096 92.113594 
Q 119.686096 91.107344 118.775549 90.844844 
Q 118.504846 90.757344 117.882775 90.757344 
L 117.882775 90.634297 
Q 118.373596 90.468867 118.618322 90.319844 
Q 119.326525 89.917891 119.326525 89.146797 
Q 119.326525 88.709297 119.07633 88.482344 
Q 118.827502 88.255391 118.381799 88.255391 
Q 117.594299 88.255391 117.077502 89.182344 
z
" clip-path="url(#p763a9bd6a1)"/>
    </g>
   </g>
  </g>
  <defs>
   <clipPath id="p763a9bd6a1">
    <rect x="7.2" y="7.2" width="135.7518" height="130.39"/>
   </clipPath>
  </defs>
 </g>
</svg>
