<?xml version="1.0" encoding="utf-8" standalone="no"?>
<!DOCTYPE svg PUBLIC "-//W3C//DTD SVG 1.1//EN"
  "http://www.w3.org/Graphics/SVG/1.1/DTD/svg11.dtd">
<svg xmlns:xlink="http://www.w3.org/1999/xlink" width="106.4652pt" height="116.91pt" viewBox="0 0 106.4652 116.91" xmlns="http://www.w3.org/2000/svg" version="1.1">
 <metadata>
  <rdf:RDF xmlns:dc="http://purl.org/dc/elements/1.1/" xmlns:cc="http://creativecommons.org/ns#" xmlns:rdf="http://www.w3.org/1999/02/22-rdf-syntax-ns#">
   <cc:Work>
    <dc:type rdf:resource="http://purl.org/dc/dcmitype/StillImage"/>
    <dc:date>2023-06-28T16:35:39.152554</dc:date>
    <dc:format>image/svg+xml</dc:format>
    <dc:creator>
     <cc:Agent>
      <dc:title>Matplotlib v3.5.2, https://matplotlib.org/</dc:title>
     </cc:Agent>
    </dc:creator>
   </cc:Work>
  </rdf:RDF>
 </metadata>
 <defs>
  <style type="text/css">*{stroke-linejoin: round; stroke-linecap: butt}</style>
 </defs>
 <g id="figure_1">
  <g id="patch_1">
   <path d="M 0 116.91 
L 106.4652 116.91 
L 106.4652 0 
L 0 0 
L 0 116.91 
z
" style="fill: none"/>
  </g>
  <g id="axes_1">
   <g id="line2d_1">
    <path d="M 51.6924 12.555 
L 51.6924 43.155 
L 59.3424 45.705 
L 44.0424 50.805 
L 59.3424 55.905 
L 44.0424 61.005 
L 59.3424 66.105 
L 44.0424 71.205 
L 51.6924 73.755 
L 51.6924 104.355 
" clip-path="url(#p8795273abf)" style="fill: none; stroke: #000000; stroke-linecap: round"/>
   </g>
   <g id="line2d_2">
    <path d="M 51.6924 12.555 
L 51.6924 43.155 
L 59.3424 45.705 
L 44.0424 50.805 
L 59.3424 55.905 
L 44.0424 61.005 
L 59.3424 66.105 
L 44.0424 71.205 
L 51.6924 73.755 
L 51.6924 104.355 
" clip-path="url(#p8795273abf)" style="fill: none; stroke: #000000; stroke-linecap: round"/>
   </g>
   <g id="text_1">
    <g clip-path="url(#p8795273abf)">
     <!-- R? -->
     <g transform="translate(27.095681 61.378828)scale(0.125 -0.125)">
      <defs>
       <path id="Times-Roman-52" d="M 1272 2191 
Q 1963 2216 2259 2334 
Q 2769 2544 2769 3122 
Q 2769 3678 2313 3881 
Q 2069 3991 1666 3991 
Q 1394 3991 1333 3952 
Q 1272 3913 1272 3769 
L 1272 2191 
z
M 72 116 
Q 441 150 531 259 
Q 622 369 622 769 
L 622 3541 
Q 622 3878 520 3983 
Q 419 4088 72 4116 
L 72 4234 
L 1844 4234 
Q 2397 4234 2766 4094 
Q 3466 3828 3466 3116 
Q 3466 2638 3155 2381 
Q 2844 2125 2309 2044 
L 3628 422 
Q 3750 272 3872 203 
Q 3994 134 4184 116 
L 4184 0 
L 3153 0 
L 1628 1969 
L 1272 1953 
L 1272 694 
Q 1272 338 1380 242 
Q 1488 147 1850 116 
L 1850 0 
L 72 0 
L 72 116 
z
" transform="scale(0.015625)"/>
       <path id="Times-Roman-3f" d="M 1856 281 
Q 1856 141 1753 41 
Q 1650 -59 1509 -59 
Q 1363 -59 1263 39 
Q 1163 138 1163 281 
Q 1163 425 1266 523 
Q 1369 622 1503 622 
Q 1647 622 1751 522 
Q 1856 422 1856 281 
z
M 1534 4322 
Q 2019 4322 2336 4053 
Q 2653 3784 2653 3306 
Q 2653 2900 2175 2297 
Q 1653 1641 1563 1050 
L 1450 1050 
Q 1450 1166 1484 1377 
Q 1519 1588 1569 1747 
Q 1619 1906 1822 2369 
Q 1925 2603 1995 2839 
Q 2066 3075 2066 3272 
Q 2066 3606 1894 3868 
Q 1722 4131 1353 4131 
Q 1100 4131 926 3995 
Q 753 3859 753 3738 
Q 753 3669 881 3523 
Q 1009 3378 1009 3253 
Q 1009 3150 932 3072 
Q 856 2994 747 2994 
Q 622 2994 522 3101 
Q 422 3209 422 3419 
Q 422 3741 700 4031 
Q 978 4322 1534 4322 
z
" transform="scale(0.015625)"/>
      </defs>
      <use xlink:href="#Times-Roman-52"/>
      <use xlink:href="#Times-Roman-3f" x="66.699219"/>
     </g>
    </g>
   </g>
   <g id="text_2">
    <g clip-path="url(#p8795273abf)">
     <!-- $12V$ -->
     <g transform="translate(62.4024 61.378828)scale(0.125 -0.125)">
      <defs>
       <path id="STIXGeneral-Regular-31" d="M 2522 0 
L 755 0 
L 755 96 
Q 1107 115 1235 227 
Q 1363 339 1363 608 
L 1363 3482 
Q 1363 3795 1171 3795 
Q 1082 3795 883 3718 
L 710 3654 
L 710 3744 
L 1856 4326 
L 1914 4307 
L 1914 486 
Q 1914 275 2042 185 
Q 2170 96 2522 96 
L 2522 0 
z
" transform="scale(0.015625)"/>
       <path id="STIXGeneral-Regular-32" d="M 3034 877 
L 2688 0 
L 186 0 
L 186 77 
L 1325 1286 
Q 1773 1754 1965 2144 
Q 2157 2534 2157 2950 
Q 2157 3379 1920 3616 
Q 1683 3853 1267 3853 
Q 922 3853 720 3673 
Q 518 3494 326 3021 
L 192 3053 
Q 301 3648 630 3987 
Q 960 4326 1523 4326 
Q 2054 4326 2380 4006 
Q 2707 3686 2707 3200 
Q 2707 2477 1888 1613 
L 832 486 
L 2330 486 
Q 2541 486 2665 569 
Q 2790 653 2944 915 
L 3034 877 
z
" transform="scale(0.015625)"/>
       <path id="STIXGeneral-Italic-56" d="M 4403 4179 
L 4403 4077 
Q 4198 4070 4045 3821 
L 1658 -115 
L 1536 -115 
L 1011 3104 
Q 902 3776 828 3910 
Q 755 4045 486 4077 
L 486 4179 
L 2022 4179 
L 2022 4077 
Q 1722 4045 1629 3981 
Q 1536 3917 1536 3750 
Q 1536 3686 1542 3654 
L 1958 819 
L 3302 3123 
Q 3616 3661 3616 3859 
Q 3616 4032 3219 4077 
L 3219 4179 
L 4403 4179 
z
" transform="scale(0.015625)"/>
      </defs>
      <use xlink:href="#STIXGeneral-Regular-31" transform="translate(0 0.40625)"/>
      <use xlink:href="#STIXGeneral-Regular-32" transform="translate(49.999985 0.40625)"/>
      <use xlink:href="#STIXGeneral-Italic-56" transform="translate(99.999969 0.40625)"/>
     </g>
    </g>
   </g>
   <g id="text_3">
    <g clip-path="url(#p8795273abf)">
     <!-- R? -->
     <g transform="translate(27.095681 61.378828)scale(0.125 -0.125)">
      <use xlink:href="#Times-Roman-52"/>
      <use xlink:href="#Times-Roman-3f" x="66.699219"/>
     </g>
    </g>
   </g>
   <g id="text_4">
    <g clip-path="url(#p8795273abf)">
     <!-- $12V$ -->
     <g transform="translate(62.4024 61.378828)scale(0.125 -0.125)">
      <use xlink:href="#STIXGeneral-Regular-31" transform="translate(0 0.40625)"/>
      <use xlink:href="#STIXGeneral-Regular-32" transform="translate(49.999985 0.40625)"/>
      <use xlink:href="#STIXGeneral-Italic-56" transform="translate(99.999969 0.40625)"/>
     </g>
    </g>
   </g>
   <g id="patch_2">
    <path d="M 51.6924 14.85 
C 52.301041 14.85 52.884836 14.608184 53.31521 14.17781 
C 53.745584 13.747436 53.9874 13.163641 53.9874 12.555 
C 53.9874 11.946359 53.745584 11.362564 53.31521 10.93219 
C 52.884836 10.501816 52.301041 10.26 51.6924 10.26 
C 51.083759 10.26 50.499964 10.501816 50.06959 10.93219 
C 49.639216 11.362564 49.3974 11.946359 49.3974 12.555 
C 49.3974 13.163641 49.639216 13.747436 50.06959 14.17781 
C 50.499964 14.608184 51.083759 14.85 51.6924 14.85 
z
" clip-path="url(#p8795273abf)" style="fill: #ffffff; stroke: #000000; stroke-linejoin: miter"/>
   </g>
   <g id="patch_3">
    <path d="M 51.6924 106.65 
C 52.301041 106.65 52.884836 106.408184 53.31521 105.97781 
C 53.745584 105.547436 53.9874 104.963641 53.9874 104.355 
C 53.9874 103.746359 53.745584 103.162564 53.31521 102.73219 
C 52.884836 102.301816 52.301041 102.06 51.6924 102.06 
C 51.083759 102.06 50.499964 102.301816 50.06959 102.73219 
C 49.639216 103.162564 49.3974 103.746359 49.3974 104.355 
C 49.3974 104.963641 49.639216 105.547436 50.06959 105.97781 
C 50.499964 106.408184 51.083759 106.65 51.6924 106.65 
z
" clip-path="url(#p8795273abf)" style="fill: #ffffff; stroke: #000000; stroke-linejoin: miter"/>
   </g>
   <g id="line2d_3">
    <path d="M 51.6924 79.875 
L 51.6924 79.875 
" clip-path="url(#p8795273abf)" style="fill: none; stroke: #000000; stroke-linecap: round"/>
   </g>
   <g id="patch_4">
    <path d="M 56.2824 79.875 
L 51.6924 89.055 
L 47.1024 79.875 
z
" clip-path="url(#p8795273abf)"/>
   </g>
   <g id="text_5">
    <g clip-path="url(#p8795273abf)">
     <!-- $8 \mu A$ -->
     <g transform="translate(22.0124 87.388828)scale(0.125 -0.125)">
      <defs>
       <path id="STIXGeneral-Regular-38" d="M 2848 992 
Q 2848 499 2505 204 
Q 2163 -90 1587 -90 
Q 1050 -90 704 204 
Q 358 499 358 954 
Q 358 1293 524 1533 
Q 691 1773 1190 2125 
Q 710 2522 553 2765 
Q 397 3008 397 3328 
Q 397 3782 745 4054 
Q 1094 4326 1638 4326 
Q 2106 4326 2410 4060 
Q 2714 3795 2714 3411 
Q 2714 3059 2531 2848 
Q 2349 2637 1856 2374 
Q 2432 1990 2640 1689 
Q 2848 1389 2848 992 
z
M 2272 3411 
Q 2272 3744 2086 3945 
Q 1901 4147 1574 4147 
Q 1248 4147 1059 3977 
Q 870 3808 870 3513 
Q 870 3219 1059 2979 
Q 1248 2739 1670 2490 
Q 1997 2682 2134 2896 
Q 2272 3110 2272 3411 
z
M 1734 1741 
L 1357 1997 
Q 1075 1766 960 1545 
Q 845 1325 845 1011 
Q 845 576 1065 333 
Q 1286 90 1658 90 
Q 1971 90 2166 285 
Q 2362 480 2362 794 
Q 2362 1082 2214 1299 
Q 2067 1517 1734 1741 
z
" transform="scale(0.015625)"/>
       <path id="STIXGeneral-Italic-3bc" d="M 3002 749 
L 3091 691 
Q 2797 237 2614 83 
Q 2432 -70 2214 -70 
Q 2080 -70 1990 6 
Q 1901 83 1901 218 
Q 1901 416 1997 704 
L 2208 1370 
L 2202 1370 
Q 1766 595 1475 268 
Q 1184 -58 902 -58 
Q 723 -58 672 122 
Q 614 -109 547 -374 
Q 480 -640 451 -758 
Q 422 -877 384 -1005 
Q 346 -1133 314 -1197 
Q 282 -1261 243 -1312 
L -211 -1312 
Q -58 -1088 70 -595 
L 909 2739 
L 1389 2739 
L 909 832 
Q 883 717 883 659 
Q 883 352 1139 352 
Q 1395 352 1811 969 
Q 2227 1587 2323 1958 
L 2534 2739 
L 3027 2739 
L 2522 819 
Q 2400 333 2400 326 
Q 2400 230 2470 230 
Q 2547 230 2652 329 
Q 2758 429 3002 749 
z
" transform="scale(0.015625)"/>
       <path id="STIXGeneral-Italic-41" d="M 3610 0 
L 2042 0 
L 2042 102 
Q 2330 115 2432 192 
Q 2534 269 2534 442 
Q 2534 493 2522 608 
L 2394 1446 
L 986 1446 
L 608 736 
Q 467 474 467 314 
Q 467 122 864 102 
L 864 0 
L -326 0 
L -326 102 
Q -109 147 28 307 
Q 166 467 531 1101 
L 2355 4275 
L 2522 4275 
L 3110 736 
Q 3174 339 3264 230 
Q 3354 122 3610 102 
L 3610 0 
z
M 2362 1677 
L 2074 3360 
L 1120 1677 
L 2362 1677 
z
" transform="scale(0.015625)"/>
      </defs>
      <use xlink:href="#STIXGeneral-Regular-38" transform="translate(0 0.40625)"/>
      <use xlink:href="#STIXGeneral-Italic-3bc" transform="translate(49.999985 0.40625)"/>
      <use xlink:href="#STIXGeneral-Italic-41" transform="translate(102.599976 0.40625)"/>
     </g>
    </g>
   </g>
   <g id="patch_5">
    <path d="M 51.6924 14.85 
C 52.301041 14.85 52.884836 14.608184 53.31521 14.17781 
C 53.745584 13.747436 53.9874 13.163641 53.9874 12.555 
C 53.9874 11.946359 53.745584 11.362564 53.31521 10.93219 
C 52.884836 10.501816 52.301041 10.26 51.6924 10.26 
C 51.083759 10.26 50.499964 10.501816 50.06959 10.93219 
C 49.639216 11.362564 49.3974 11.946359 49.3974 12.555 
C 49.3974 13.163641 49.639216 13.747436 50.06959 14.17781 
C 50.499964 14.608184 51.083759 14.85 51.6924 14.85 
z
" clip-path="url(#p8795273abf)" style="fill: #ffffff; stroke: #000000; stroke-linejoin: miter"/>
   </g>
   <g id="patch_6">
    <path d="M 51.6924 106.65 
C 52.301041 106.65 52.884836 106.408184 53.31521 105.97781 
C 53.745584 105.547436 53.9874 104.963641 53.9874 104.355 
C 53.9874 103.746359 53.745584 103.162564 53.31521 102.73219 
C 52.884836 102.301816 52.301041 102.06 51.6924 102.06 
C 51.083759 102.06 50.499964 102.301816 50.06959 102.73219 
C 49.639216 103.162564 49.3974 103.746359 49.3974 104.355 
C 49.3974 104.963641 49.639216 105.547436 50.06959 105.97781 
C 50.499964 106.408184 51.083759 106.65 51.6924 106.65 
z
" clip-path="url(#p8795273abf)" style="fill: #ffffff; stroke: #000000; stroke-linejoin: miter"/>
   </g>
   <g id="line2d_4">
    <path d="M 51.6924 79.875 
L 51.6924 79.875 
" clip-path="url(#p8795273abf)" style="fill: none; stroke: #000000; stroke-linecap: round"/>
   </g>
   <g id="patch_7">
    <path d="M 56.2824 79.875 
L 51.6924 89.055 
L 47.1024 79.875 
z
" clip-path="url(#p8795273abf)"/>
   </g>
   <g id="text_6">
    <g clip-path="url(#p8795273abf)">
     <!-- $8 \mu A$ -->
     <g transform="translate(22.0124 87.388828)scale(0.125 -0.125)">
      <use xlink:href="#STIXGeneral-Regular-38" transform="translate(0 0.40625)"/>
      <use xlink:href="#STIXGeneral-Italic-3bc" transform="translate(49.999985 0.40625)"/>
      <use xlink:href="#STIXGeneral-Italic-41" transform="translate(102.599976 0.40625)"/>
     </g>
    </g>
   </g>
  </g>
 </g>
 <defs>
  <clipPath id="p8795273abf">
   <rect x="7.2" y="7.2" width="92.0652" height="102.51"/>
  </clipPath>
 </defs>
</svg>
