<?xml version="1.0" encoding="utf-8" standalone="no"?>
<!DOCTYPE svg PUBLIC "-//W3C//DTD SVG 1.1//EN"
  "http://www.w3.org/Graphics/SVG/1.1/DTD/svg11.dtd">
<svg xmlns:xlink="http://www.w3.org/1999/xlink" width="112.32pt" height="79.34pt" viewBox="0 0 112.32 79.34" xmlns="http://www.w3.org/2000/svg" version="1.1">
 <metadata>
  <rdf:RDF xmlns:dc="http://purl.org/dc/elements/1.1/" xmlns:cc="http://creativecommons.org/ns#" xmlns:rdf="http://www.w3.org/1999/02/22-rdf-syntax-ns#">
   <cc:Work>
    <dc:type rdf:resource="http://purl.org/dc/dcmitype/StillImage"/>
    <dc:date>2023-03-07T14:44:38.921262</dc:date>
    <dc:format>image/svg+xml</dc:format>
    <dc:creator>
     <cc:Agent>
      <dc:title>Matplotlib v3.5.2, https://matplotlib.org/</dc:title>
     </cc:Agent>
    </dc:creator>
   </cc:Work>
  </rdf:RDF>
 </metadata>
 <defs>
  <style type="text/css">*{stroke-linejoin: round; stroke-linecap: butt}</style>
 </defs>
 <g id="figure_1">
  <g id="patch_1">
   <path d="M 0 79.34 
L 112.32 79.34 
L 112.32 0 
L 0 0 
L 0 79.34 
z
" style="fill: none"/>
  </g>
  <g id="axes_1">
   <g id="line2d_1">
    <path d="M 10.26 42.73 
L 40.86 42.73 
L 43.41 35.08 
L 48.51 50.38 
L 53.61 35.08 
L 58.71 50.38 
L 63.81 35.08 
L 68.91 50.38 
L 71.46 42.73 
L 102.06 42.73 
" clip-path="url(#p96d6168dd6)" style="fill: none; stroke: #000000; stroke-linecap: round"/>
   </g>
   <g id="line2d_2">
    <path d="M 10.26 42.73 
L 40.86 42.73 
L 43.41 35.08 
L 48.51 50.38 
L 53.61 35.08 
L 58.71 50.38 
L 63.81 35.08 
L 68.91 50.38 
L 71.46 42.73 
L 102.06 42.73 
" clip-path="url(#p96d6168dd6)" style="fill: none; stroke: #000000; stroke-linecap: round"/>
   </g>
   <g id="text_1">
    <g clip-path="url(#p96d6168dd6)">
     <!-- $R$ -->
     <g transform="translate(52.285 29.297344)scale(0.125 -0.125)">
      <defs>
       <path id="STIXGeneral-Italic-52" d="M 845 4179 
L 2458 4179 
Q 3078 4179 3420 3936 
Q 3763 3693 3763 3277 
Q 3763 2778 3341 2458 
Q 3091 2266 2502 2131 
L 3072 627 
Q 3181 333 3299 217 
Q 3418 102 3629 102 
L 3629 0 
L 2688 0 
L 1901 2074 
L 1478 2106 
L 1126 806 
Q 1043 512 1043 403 
Q 1043 256 1126 192 
Q 1210 128 1472 102 
L 1472 0 
L -83 0 
L -83 102 
Q 173 134 278 243 
Q 384 352 461 646 
L 1222 3405 
Q 1299 3699 1299 3808 
Q 1299 3923 1210 3987 
Q 1133 4038 845 4077 
L 845 4179 
z
M 1958 3795 
L 1555 2342 
Q 1754 2310 1882 2310 
Q 2451 2310 2771 2566 
Q 3091 2822 3091 3270 
Q 3091 3603 2892 3795 
Q 2694 3987 2323 3987 
Q 2010 3987 1958 3795 
z
" transform="scale(0.015625)"/>
      </defs>
      <use xlink:href="#STIXGeneral-Italic-52" transform="translate(0 0.703125)"/>
     </g>
    </g>
   </g>
   <g id="text_2">
    <g clip-path="url(#p96d6168dd6)">
     <!-- + -->
     <g transform="translate(29.685586 62.010313)scale(0.125 -0.125)">
      <defs>
       <path id="Times-Roman-2b" d="M 1591 3234 
L 2028 3234 
L 2028 1834 
L 3422 1834 
L 3422 1397 
L 2028 1397 
L 2028 0 
L 1591 0 
L 1591 1397 
L 191 1397 
L 191 1834 
L 1591 1834 
L 1591 3234 
z
" transform="scale(0.015625)"/>
      </defs>
      <use xlink:href="#Times-Roman-2b"/>
     </g>
    </g>
   </g>
   <g id="text_3">
    <g clip-path="url(#p96d6168dd6)">
     <!-- $v$ -->
     <g transform="translate(53.3475 62.010313)scale(0.125 -0.125)">
      <defs>
       <path id="STIXGeneral-Italic-76" d="M 1325 448 
L 1523 653 
Q 1869 1005 2134 1456 
Q 2400 1907 2400 2131 
Q 2400 2208 2285 2317 
Q 2125 2458 2125 2605 
Q 2125 2701 2195 2761 
Q 2266 2822 2368 2822 
Q 2522 2822 2624 2704 
Q 2726 2586 2726 2445 
Q 2726 2074 2323 1453 
Q 1971 909 1562 474 
Q 1504 416 1421 326 
Q 1338 237 1299 192 
Q 1261 147 1200 86 
Q 1139 26 1110 -3 
Q 1082 -32 1043 -64 
Q 1005 -96 979 -105 
Q 954 -115 928 -115 
Q 870 -115 870 58 
L 870 211 
Q 870 1094 717 1990 
Q 653 2355 579 2470 
Q 506 2586 326 2586 
Q 198 2586 128 2579 
L 128 2662 
Q 480 2720 845 2797 
Q 915 2822 973 2822 
Q 1011 2822 1033 2739 
Q 1056 2656 1165 2093 
Q 1280 1510 1325 448 
z
" transform="scale(0.015625)"/>
      </defs>
      <use xlink:href="#STIXGeneral-Italic-76" transform="translate(0 0.90625)"/>
     </g>
    </g>
   </g>
   <g id="text_4">
    <g clip-path="url(#p96d6168dd6)">
     <!-- - -->
     <g transform="translate(77.028945 62.010313)scale(0.125 -0.125)">
      <defs>
       <path id="Times-Roman-2d" d="M 250 1644 
L 1822 1644 
L 1822 1244 
L 250 1244 
L 250 1644 
z
" transform="scale(0.015625)"/>
      </defs>
      <use xlink:href="#Times-Roman-2d"/>
     </g>
    </g>
   </g>
   <g id="text_5">
    <g clip-path="url(#p96d6168dd6)">
     <!-- $R$ -->
     <g transform="translate(52.285 29.297344)scale(0.125 -0.125)">
      <use xlink:href="#STIXGeneral-Italic-52" transform="translate(0 0.703125)"/>
     </g>
    </g>
   </g>
   <g id="text_6">
    <g clip-path="url(#p96d6168dd6)">
     <!-- + -->
     <g transform="translate(29.685586 62.010313)scale(0.125 -0.125)">
      <use xlink:href="#Times-Roman-2b"/>
     </g>
    </g>
   </g>
   <g id="text_7">
    <g clip-path="url(#p96d6168dd6)">
     <!-- $v$ -->
     <g transform="translate(53.3475 62.010313)scale(0.125 -0.125)">
      <use xlink:href="#STIXGeneral-Italic-76" transform="translate(0 0.90625)"/>
     </g>
    </g>
   </g>
   <g id="text_8">
    <g clip-path="url(#p96d6168dd6)">
     <!-- - -->
     <g transform="translate(77.028945 62.010313)scale(0.125 -0.125)">
      <use xlink:href="#Times-Roman-2d"/>
     </g>
    </g>
   </g>
   <g id="line2d_3">
    <path d="M 77.58 42.73 
L 77.58 42.73 
" clip-path="url(#p96d6168dd6)" style="fill: none; stroke: #000000; stroke-linecap: round"/>
   </g>
   <g id="patch_2">
    <path d="M 77.58 38.14 
L 86.76 42.73 
L 77.58 47.32 
z
" clip-path="url(#p96d6168dd6)"/>
   </g>
   <g id="text_9">
    <g clip-path="url(#p96d6168dd6)">
     <!-- $i$ -->
     <g transform="translate(80.42 30.827344)scale(0.125 -0.125)">
      <defs>
       <path id="STIXGeneral-Italic-69" d="M 1690 3834 
Q 1690 3699 1597 3603 
Q 1504 3507 1376 3507 
Q 1235 3507 1152 3600 
Q 1069 3693 1069 3846 
Q 1069 3994 1155 4090 
Q 1242 4186 1370 4186 
Q 1498 4186 1594 4080 
Q 1690 3974 1690 3834 
z
M 1421 730 
L 1504 659 
Q 1235 243 1049 86 
Q 864 -70 627 -70 
Q 314 -70 314 282 
Q 314 467 454 992 
L 762 2125 
Q 819 2330 819 2406 
Q 819 2502 745 2528 
Q 672 2554 410 2560 
L 410 2662 
Q 704 2688 1434 2822 
L 1459 2803 
L 858 608 
Q 794 390 794 326 
Q 794 230 883 230 
Q 1043 230 1421 730 
z
" transform="scale(0.015625)"/>
      </defs>
      <use xlink:href="#STIXGeneral-Italic-69" transform="translate(0 0.59375)"/>
     </g>
    </g>
   </g>
   <g id="line2d_4">
    <path d="M 77.58 42.73 
L 77.58 42.73 
" clip-path="url(#p96d6168dd6)" style="fill: none; stroke: #000000; stroke-linecap: round"/>
   </g>
   <g id="patch_3">
    <path d="M 77.58 38.14 
L 86.76 42.73 
L 77.58 47.32 
z
" clip-path="url(#p96d6168dd6)"/>
   </g>
   <g id="text_10">
    <g clip-path="url(#p96d6168dd6)">
     <!-- $i$ -->
     <g transform="translate(80.42 30.827344)scale(0.125 -0.125)">
      <use xlink:href="#STIXGeneral-Italic-69" transform="translate(0 0.59375)"/>
     </g>
    </g>
   </g>
  </g>
 </g>
 <defs>
  <clipPath id="p96d6168dd6">
   <rect x="7.2" y="7.2" width="97.92" height="64.94"/>
  </clipPath>
 </defs>
</svg>
