<?xml version="1.0" encoding="utf-8" standalone="no"?>
<!DOCTYPE svg PUBLIC "-//W3C//DTD SVG 1.1//EN"
  "http://www.w3.org/Graphics/SVG/1.1/DTD/svg11.dtd">
<svg xmlns:xlink="http://www.w3.org/1999/xlink" width="112.32pt" height="67.864981pt" viewBox="0 0 112.32 67.864981" xmlns="http://www.w3.org/2000/svg" version="1.1">
 <metadata>
  <rdf:RDF xmlns:dc="http://purl.org/dc/elements/1.1/" xmlns:cc="http://creativecommons.org/ns#" xmlns:rdf="http://www.w3.org/1999/02/22-rdf-syntax-ns#">
   <cc:Work>
    <dc:type rdf:resource="http://purl.org/dc/dcmitype/StillImage"/>
    <dc:date>2023-03-14T23:06:38.805404</dc:date>
    <dc:format>image/svg+xml</dc:format>
    <dc:creator>
     <cc:Agent>
      <dc:title>Matplotlib v3.5.2, https://matplotlib.org/</dc:title>
     </cc:Agent>
    </dc:creator>
   </cc:Work>
  </rdf:RDF>
 </metadata>
 <defs>
  <style type="text/css">*{stroke-linejoin: round; stroke-linecap: butt}</style>
 </defs>
 <g id="figure_1">
  <g id="patch_1">
   <path d="M 0 67.864981 
L 112.32 67.864981 
L 112.32 0 
L 0 0 
L 0 67.864981 
z
" style="fill: none"/>
  </g>
  <g id="axes_1">
   <g id="patch_2">
    <path d="M 48.51 38.904981 
C 48.51 37.890917 48.106735 36.917349 47.389683 36.200298 
C 46.672632 35.483246 45.699064 35.079981 44.685 35.079981 
C 43.670936 35.079981 42.697368 35.483246 41.980317 36.200298 
C 41.263265 36.917349 40.86 37.890917 40.86 38.904981 
" clip-path="url(#pf055b65365)" style="fill: none; stroke: #000000; stroke-width: 2; stroke-linejoin: miter"/>
   </g>
   <g id="patch_3">
    <path d="M 56.16 38.904981 
C 56.16 37.890917 55.756735 36.917349 55.039683 36.200298 
C 54.322632 35.483246 53.349064 35.079981 52.335 35.079981 
C 51.320936 35.079981 50.347368 35.483246 49.630317 36.200298 
C 48.913265 36.917349 48.51 37.890917 48.51 38.904981 
" clip-path="url(#pf055b65365)" style="fill: none; stroke: #000000; stroke-width: 2; stroke-linejoin: miter"/>
   </g>
   <g id="patch_4">
    <path d="M 63.81 38.904981 
C 63.81 37.890917 63.406735 36.917349 62.689683 36.200298 
C 61.972632 35.483246 60.999064 35.079981 59.985 35.079981 
C 58.970936 35.079981 57.997368 35.483246 57.280317 36.200298 
C 56.563265 36.917349 56.16 37.890917 56.16 38.904981 
" clip-path="url(#pf055b65365)" style="fill: none; stroke: #000000; stroke-width: 2; stroke-linejoin: miter"/>
   </g>
   <g id="patch_5">
    <path d="M 71.46 38.904981 
C 71.46 37.890917 71.056735 36.917349 70.339683 36.200298 
C 69.622632 35.483246 68.649064 35.079981 67.635 35.079981 
C 66.620936 35.079981 65.647368 35.483246 64.930317 36.200298 
C 64.213265 36.917349 63.81 37.890917 63.81 38.904981 
" clip-path="url(#pf055b65365)" style="fill: none; stroke: #000000; stroke-width: 2; stroke-linejoin: miter"/>
   </g>
   <g id="patch_6">
    <path d="M 48.51 38.904981 
C 48.51 37.890917 48.106735 36.917349 47.389683 36.200298 
C 46.672632 35.483246 45.699064 35.079981 44.685 35.079981 
C 43.670936 35.079981 42.697368 35.483246 41.980317 36.200298 
C 41.263265 36.917349 40.86 37.890917 40.86 38.904981 
" clip-path="url(#pf055b65365)" style="fill: none; stroke: #000000; stroke-width: 2; stroke-linejoin: miter"/>
   </g>
   <g id="patch_7">
    <path d="M 56.16 38.904981 
C 56.16 37.890917 55.756735 36.917349 55.039683 36.200298 
C 54.322632 35.483246 53.349064 35.079981 52.335 35.079981 
C 51.320936 35.079981 50.347368 35.483246 49.630317 36.200298 
C 48.913265 36.917349 48.51 37.890917 48.51 38.904981 
" clip-path="url(#pf055b65365)" style="fill: none; stroke: #000000; stroke-width: 2; stroke-linejoin: miter"/>
   </g>
   <g id="patch_8">
    <path d="M 63.81 38.904981 
C 63.81 37.890917 63.406735 36.917349 62.689683 36.200298 
C 61.972632 35.483246 60.999064 35.079981 59.985 35.079981 
C 58.970936 35.079981 57.997368 35.483246 57.280317 36.200298 
C 56.563265 36.917349 56.16 37.890917 56.16 38.904981 
" clip-path="url(#pf055b65365)" style="fill: none; stroke: #000000; stroke-width: 2; stroke-linejoin: miter"/>
   </g>
   <g id="patch_9">
    <path d="M 71.46 38.904981 
C 71.46 37.890917 71.056735 36.917349 70.339683 36.200298 
C 69.622632 35.483246 68.649064 35.079981 67.635 35.079981 
C 66.620936 35.079981 65.647368 35.483246 64.930317 36.200298 
C 64.213265 36.917349 63.81 37.890917 63.81 38.904981 
" clip-path="url(#pf055b65365)" style="fill: none; stroke: #000000; stroke-width: 2; stroke-linejoin: miter"/>
   </g>
   <g id="line2d_1">
    <path d="M 10.26 38.904981 
L 40.86 38.904981 
M 71.46 38.904981 
L 102.06 38.904981 
" clip-path="url(#pf055b65365)" style="fill: none; stroke: #000000; stroke-width: 2; stroke-linecap: round"/>
   </g>
   <g id="line2d_2">
    <path d="M 10.26 38.904981 
L 40.86 38.904981 
M 71.46 38.904981 
L 102.06 38.904981 
" clip-path="url(#pf055b65365)" style="fill: none; stroke: #000000; stroke-width: 2; stroke-linecap: round"/>
   </g>
   <g id="text_1">
    <g clip-path="url(#pf055b65365)">
     <!-- - -->
     <g transform="translate(30.955117 29.420391)scale(0.125 -0.125)">
      <defs>
       <path id="DejaVuSans-2d" d="M 313 2009 
L 1997 2009 
L 1997 1497 
L 313 1497 
L 313 2009 
z
" transform="scale(0.015625)"/>
      </defs>
      <use xlink:href="#DejaVuSans-2d"/>
     </g>
    </g>
   </g>
   <g id="text_2">
    <g clip-path="url(#pf055b65365)">
     <!-- V -->
     <g transform="translate(51.884609 29.420391)scale(0.125 -0.125)">
      <defs>
       <path id="DejaVuSans-56" d="M 1831 0 
L 50 4666 
L 709 4666 
L 2188 738 
L 3669 4666 
L 4325 4666 
L 2547 0 
L 1831 0 
z
" transform="scale(0.015625)"/>
      </defs>
      <use xlink:href="#DejaVuSans-56"/>
     </g>
    </g>
   </g>
   <g id="text_3">
    <g clip-path="url(#pf055b65365)">
     <!-- + -->
     <g transform="translate(73.872695 29.420391)scale(0.125 -0.125)">
      <defs>
       <path id="DejaVuSans-2b" d="M 2944 4013 
L 2944 2272 
L 4684 2272 
L 4684 1741 
L 2944 1741 
L 2944 0 
L 2419 0 
L 2419 1741 
L 678 1741 
L 678 2272 
L 2419 2272 
L 2419 4013 
L 2944 4013 
z
" transform="scale(0.015625)"/>
      </defs>
      <use xlink:href="#DejaVuSans-2b"/>
     </g>
    </g>
   </g>
   <g id="text_4">
    <g clip-path="url(#pf055b65365)">
     <!-- L -->
     <g transform="translate(52.677578 51.463028)scale(0.125 -0.125)">
      <defs>
       <path id="DejaVuSans-4c" d="M 628 4666 
L 1259 4666 
L 1259 531 
L 3531 531 
L 3531 0 
L 628 0 
L 628 4666 
z
" transform="scale(0.015625)"/>
      </defs>
      <use xlink:href="#DejaVuSans-4c"/>
     </g>
    </g>
   </g>
   <g id="text_5">
    <g clip-path="url(#pf055b65365)">
     <!-- - -->
     <g transform="translate(30.955117 29.420391)scale(0.125 -0.125)">
      <use xlink:href="#DejaVuSans-2d"/>
     </g>
    </g>
   </g>
   <g id="text_6">
    <g clip-path="url(#pf055b65365)">
     <!-- V -->
     <g transform="translate(51.884609 29.420391)scale(0.125 -0.125)">
      <use xlink:href="#DejaVuSans-56"/>
     </g>
    </g>
   </g>
   <g id="text_7">
    <g clip-path="url(#pf055b65365)">
     <!-- + -->
     <g transform="translate(73.872695 29.420391)scale(0.125 -0.125)">
      <use xlink:href="#DejaVuSans-2b"/>
     </g>
    </g>
   </g>
   <g id="text_8">
    <g clip-path="url(#pf055b65365)">
     <!-- L -->
     <g transform="translate(52.677578 51.463028)scale(0.125 -0.125)">
      <use xlink:href="#DejaVuSans-4c"/>
     </g>
    </g>
   </g>
  </g>
 </g>
 <defs>
  <clipPath id="pf055b65365">
   <rect x="7.2" y="7.2" width="97.92" height="53.464981"/>
  </clipPath>
 </defs>
</svg>
