<?xml version="1.0" encoding="utf-8" standalone="no"?>
<!DOCTYPE svg PUBLIC "-//W3C//DTD SVG 1.1//EN"
  "http://www.w3.org/Graphics/SVG/1.1/DTD/svg11.dtd">
<svg xmlns:xlink="http://www.w3.org/1999/xlink" width="399.074543pt" height="243.135pt" viewBox="0 0 399.074543 243.135" xmlns="http://www.w3.org/2000/svg" version="1.1">
 <metadata>
  <rdf:RDF xmlns:dc="http://purl.org/dc/elements/1.1/" xmlns:cc="http://creativecommons.org/ns#" xmlns:rdf="http://www.w3.org/1999/02/22-rdf-syntax-ns#">
   <cc:Work>
    <dc:type rdf:resource="http://purl.org/dc/dcmitype/StillImage"/>
    <dc:date>2023-06-27T11:52:04.309890</dc:date>
    <dc:format>image/svg+xml</dc:format>
    <dc:creator>
     <cc:Agent>
      <dc:title>Matplotlib v3.5.2, https://matplotlib.org/</dc:title>
     </cc:Agent>
    </dc:creator>
   </cc:Work>
  </rdf:RDF>
 </metadata>
 <defs>
  <style type="text/css">*{stroke-linejoin: round; stroke-linecap: butt}</style>
 </defs>
 <g id="figure_1">
  <g id="patch_1">
   <path d="M 0 243.135 
L 399.074543 243.135 
L 399.074543 0 
L 0 0 
L 0 243.135 
z
" style="fill: none"/>
  </g>
  <g id="axes_1">
   <g id="patch_2">
    <path d="M 63.0858 136.485 
C 67.143407 136.485 71.035372 134.872895 73.904534 132.003734 
C 76.773695 129.134572 78.3858 125.242607 78.3858 121.185 
C 78.3858 117.127393 76.773695 113.235428 73.904534 110.366266 
C 71.035372 107.497105 67.143407 105.885 63.0858 105.885 
C 59.028193 105.885 55.136228 107.497105 52.267066 110.366266 
C 49.397905 113.235428 47.7858 117.127393 47.7858 121.185 
C 47.7858 125.242607 49.397905 129.134572 52.267066 132.003734 
C 55.136228 134.872895 59.028193 136.485 63.0858 136.485 
L 63.0858 136.485 
z
" clip-path="url(#pd2182d9bfd)" style="fill: none; stroke: #000000; stroke-width: 2; stroke-linejoin: miter"/>
   </g>
   <g id="patch_3">
    <path d="M 63.0858 136.485 
C 67.143407 136.485 71.035372 134.872895 73.904534 132.003734 
C 76.773695 129.134572 78.3858 125.242607 78.3858 121.185 
C 78.3858 117.127393 76.773695 113.235428 73.904534 110.366266 
C 71.035372 107.497105 67.143407 105.885 63.0858 105.885 
C 59.028193 105.885 55.136228 107.497105 52.267066 110.366266 
C 49.397905 113.235428 47.7858 117.127393 47.7858 121.185 
C 47.7858 125.242607 49.397905 129.134572 52.267066 132.003734 
C 55.136228 134.872895 59.028193 136.485 63.0858 136.485 
L 63.0858 136.485 
z
" clip-path="url(#pd2182d9bfd)" style="fill: none; stroke: #000000; stroke-width: 2; stroke-linejoin: miter"/>
   </g>
   <g id="line2d_1">
    <path d="M 174.0108 48.51 
L 174.0108 86.76 
L 240.261743 48.51 
L 174.0108 10.26 
L 174.0108 48.51 
M 240.261743 48.51 
" clip-path="url(#pd2182d9bfd)" style="fill: none; stroke: #000000; stroke-width: 2; stroke-linecap: round"/>
   </g>
   <g id="line2d_2">
    <path d="M 179.232168 67.635 
L 185.352168 67.635 
" clip-path="url(#pd2182d9bfd)" style="fill: none; stroke: #000000; stroke-width: 2; stroke-linecap: round"/>
   </g>
   <g id="line2d_3">
    <path d="M 179.232168 29.385 
L 185.352168 29.385 
" clip-path="url(#pd2182d9bfd)" style="fill: none; stroke: #000000; stroke-width: 2; stroke-linecap: round"/>
   </g>
   <g id="line2d_4">
    <path d="M 182.292168 26.325 
L 182.292168 32.445 
" clip-path="url(#pd2182d9bfd)" style="fill: none; stroke: #000000; stroke-width: 2; stroke-linecap: round"/>
   </g>
   <g id="line2d_5">
    <path d="M 154.8858 67.635 
L 174.0108 67.635 
" clip-path="url(#pd2182d9bfd)" style="fill: none; stroke: #000000; stroke-width: 2; stroke-linecap: round"/>
   </g>
   <g id="line2d_6">
    <path d="M 154.8858 29.385 
L 174.0108 29.385 
" clip-path="url(#pd2182d9bfd)" style="fill: none; stroke: #000000; stroke-width: 2; stroke-linecap: round"/>
   </g>
   <g id="line2d_7">
    <path d="M 240.261743 48.51 
L 259.386743 48.51 
" clip-path="url(#pd2182d9bfd)" style="fill: none; stroke: #000000; stroke-width: 2; stroke-linecap: round"/>
   </g>
   <g id="line2d_8">
    <path d="M 154.8858 29.385 
L 108.9858 29.385 
L 63.0858 29.385 
" clip-path="url(#pd2182d9bfd)" style="fill: none; stroke: #000000; stroke-width: 2; stroke-linecap: round"/>
   </g>
   <g id="line2d_9">
    <path d="M 63.0858 29.385 
L 63.0858 105.885 
L 63.0858 105.885 
M 63.0858 136.485 
L 63.0858 136.485 
L 63.0858 212.985 
" clip-path="url(#pd2182d9bfd)" style="fill: none; stroke: #000000; stroke-width: 2; stroke-linecap: round"/>
   </g>
   <g id="line2d_10">
    <path d="M 66.1458 128.835 
L 60.0258 128.835 
" clip-path="url(#pd2182d9bfd)" style="fill: none; stroke: #000000; stroke-width: 2; stroke-linecap: round"/>
   </g>
   <g id="line2d_11">
    <path d="M 63.0858 110.475 
L 63.0858 116.595 
" clip-path="url(#pd2182d9bfd)" style="fill: none; stroke: #000000; stroke-width: 2; stroke-linecap: round"/>
   </g>
   <g id="line2d_12">
    <path d="M 66.1458 113.535 
L 60.0258 113.535 
" clip-path="url(#pd2182d9bfd)" style="fill: none; stroke: #000000; stroke-width: 2; stroke-linecap: round"/>
   </g>
   <g id="line2d_13">
    <path d="M 63.0858 212.985 
L 63.0858 225.225 
L 55.4358 225.225 
L 63.0858 232.875 
L 70.7358 225.225 
L 63.0858 225.225 
" clip-path="url(#pd2182d9bfd)" style="fill: none; stroke: #000000; stroke-width: 2; stroke-linecap: round"/>
   </g>
   <g id="line2d_14">
    <path d="M 63.0858 212.985 
L 108.9858 212.985 
L 154.8858 212.985 
" clip-path="url(#pd2182d9bfd)" style="fill: none; stroke: #000000; stroke-width: 2; stroke-linecap: round"/>
   </g>
   <g id="line2d_15">
    <path d="M 154.8858 212.985 
L 154.8858 182.385 
L 147.2358 179.835 
L 162.5358 174.735 
L 147.2358 169.635 
L 162.5358 164.535 
L 147.2358 159.435 
L 162.5358 154.335 
L 154.8858 151.785 
L 154.8858 121.185 
" clip-path="url(#pd2182d9bfd)" style="fill: none; stroke: #000000; stroke-width: 2; stroke-linecap: round"/>
   </g>
   <g id="line2d_16">
    <path d="M 154.8858 121.185 
L 154.8858 95.175 
L 154.8858 69.165 
" clip-path="url(#pd2182d9bfd)" style="fill: none; stroke: #000000; stroke-width: 2; stroke-linecap: round"/>
   </g>
   <g id="line2d_17">
    <path d="M 154.8858 121.185 
L 200.7858 121.185 
L 203.3358 113.535 
L 208.4358 128.835 
L 213.5358 113.535 
L 218.6358 128.835 
L 223.7358 113.535 
L 228.8358 128.835 
L 231.3858 121.185 
L 277.2858 121.185 
" clip-path="url(#pd2182d9bfd)" style="fill: none; stroke: #000000; stroke-width: 2; stroke-linecap: round"/>
   </g>
   <g id="line2d_18">
    <path d="M 277.2858 121.185 
L 277.2858 84.465 
L 277.2858 47.745 
" clip-path="url(#pd2182d9bfd)" style="fill: none; stroke: #000000; stroke-width: 2; stroke-linecap: round"/>
   </g>
   <g id="line2d_19">
    <path d="M 259.386743 48.51 
L 305.286743 48.51 
L 351.186743 48.51 
" clip-path="url(#pd2182d9bfd)" style="fill: none; stroke: #000000; stroke-width: 2; stroke-linecap: round"/>
   </g>
   <g id="line2d_20">
    <path d="M 351.186743 48.51 
L 351.186743 115.4475 
L 358.836743 117.9975 
L 343.536743 123.0975 
L 358.836743 128.1975 
L 343.536743 133.2975 
L 358.836743 138.3975 
L 343.536743 143.4975 
L 351.186743 146.0475 
L 351.186743 212.985 
" clip-path="url(#pd2182d9bfd)" style="fill: none; stroke: #000000; stroke-width: 2; stroke-linecap: round"/>
   </g>
   <g id="line2d_21">
    <path d="M 351.186743 212.985 
L 244.086743 212.985 
L 136.986743 212.985 
" clip-path="url(#pd2182d9bfd)" style="fill: none; stroke: #000000; stroke-width: 2; stroke-linecap: round"/>
   </g>
   <g id="line2d_22">
    <path d="M 174.0108 48.51 
L 174.0108 86.76 
L 240.261743 48.51 
L 174.0108 10.26 
L 174.0108 48.51 
M 240.261743 48.51 
" clip-path="url(#pd2182d9bfd)" style="fill: none; stroke: #000000; stroke-width: 2; stroke-linecap: round"/>
   </g>
   <g id="line2d_23">
    <path d="M 179.232168 67.635 
L 185.352168 67.635 
" clip-path="url(#pd2182d9bfd)" style="fill: none; stroke: #000000; stroke-width: 2; stroke-linecap: round"/>
   </g>
   <g id="line2d_24">
    <path d="M 179.232168 29.385 
L 185.352168 29.385 
" clip-path="url(#pd2182d9bfd)" style="fill: none; stroke: #000000; stroke-width: 2; stroke-linecap: round"/>
   </g>
   <g id="line2d_25">
    <path d="M 182.292168 26.325 
L 182.292168 32.445 
" clip-path="url(#pd2182d9bfd)" style="fill: none; stroke: #000000; stroke-width: 2; stroke-linecap: round"/>
   </g>
   <g id="line2d_26">
    <path d="M 154.8858 67.635 
L 174.0108 67.635 
" clip-path="url(#pd2182d9bfd)" style="fill: none; stroke: #000000; stroke-width: 2; stroke-linecap: round"/>
   </g>
   <g id="line2d_27">
    <path d="M 154.8858 29.385 
L 174.0108 29.385 
" clip-path="url(#pd2182d9bfd)" style="fill: none; stroke: #000000; stroke-width: 2; stroke-linecap: round"/>
   </g>
   <g id="line2d_28">
    <path d="M 240.261743 48.51 
L 259.386743 48.51 
" clip-path="url(#pd2182d9bfd)" style="fill: none; stroke: #000000; stroke-width: 2; stroke-linecap: round"/>
   </g>
   <g id="line2d_29">
    <path d="M 154.8858 29.385 
L 108.9858 29.385 
L 63.0858 29.385 
" clip-path="url(#pd2182d9bfd)" style="fill: none; stroke: #000000; stroke-width: 2; stroke-linecap: round"/>
   </g>
   <g id="line2d_30">
    <path d="M 63.0858 29.385 
L 63.0858 105.885 
L 63.0858 105.885 
M 63.0858 136.485 
L 63.0858 136.485 
L 63.0858 212.985 
" clip-path="url(#pd2182d9bfd)" style="fill: none; stroke: #000000; stroke-width: 2; stroke-linecap: round"/>
   </g>
   <g id="line2d_31">
    <path d="M 66.1458 128.835 
L 60.0258 128.835 
" clip-path="url(#pd2182d9bfd)" style="fill: none; stroke: #000000; stroke-width: 2; stroke-linecap: round"/>
   </g>
   <g id="line2d_32">
    <path d="M 63.0858 110.475 
L 63.0858 116.595 
" clip-path="url(#pd2182d9bfd)" style="fill: none; stroke: #000000; stroke-width: 2; stroke-linecap: round"/>
   </g>
   <g id="line2d_33">
    <path d="M 66.1458 113.535 
L 60.0258 113.535 
" clip-path="url(#pd2182d9bfd)" style="fill: none; stroke: #000000; stroke-width: 2; stroke-linecap: round"/>
   </g>
   <g id="line2d_34">
    <path d="M 63.0858 212.985 
L 63.0858 225.225 
L 55.4358 225.225 
L 63.0858 232.875 
L 70.7358 225.225 
L 63.0858 225.225 
" clip-path="url(#pd2182d9bfd)" style="fill: none; stroke: #000000; stroke-width: 2; stroke-linecap: round"/>
   </g>
   <g id="line2d_35">
    <path d="M 63.0858 212.985 
L 108.9858 212.985 
L 154.8858 212.985 
" clip-path="url(#pd2182d9bfd)" style="fill: none; stroke: #000000; stroke-width: 2; stroke-linecap: round"/>
   </g>
   <g id="line2d_36">
    <path d="M 154.8858 212.985 
L 154.8858 182.385 
L 147.2358 179.835 
L 162.5358 174.735 
L 147.2358 169.635 
L 162.5358 164.535 
L 147.2358 159.435 
L 162.5358 154.335 
L 154.8858 151.785 
L 154.8858 121.185 
" clip-path="url(#pd2182d9bfd)" style="fill: none; stroke: #000000; stroke-width: 2; stroke-linecap: round"/>
   </g>
   <g id="line2d_37">
    <path d="M 154.8858 121.185 
L 154.8858 95.175 
L 154.8858 69.165 
" clip-path="url(#pd2182d9bfd)" style="fill: none; stroke: #000000; stroke-width: 2; stroke-linecap: round"/>
   </g>
   <g id="line2d_38">
    <path d="M 154.8858 121.185 
L 200.7858 121.185 
L 203.3358 113.535 
L 208.4358 128.835 
L 213.5358 113.535 
L 218.6358 128.835 
L 223.7358 113.535 
L 228.8358 128.835 
L 231.3858 121.185 
L 277.2858 121.185 
" clip-path="url(#pd2182d9bfd)" style="fill: none; stroke: #000000; stroke-width: 2; stroke-linecap: round"/>
   </g>
   <g id="line2d_39">
    <path d="M 277.2858 121.185 
L 277.2858 84.465 
L 277.2858 47.745 
" clip-path="url(#pd2182d9bfd)" style="fill: none; stroke: #000000; stroke-width: 2; stroke-linecap: round"/>
   </g>
   <g id="line2d_40">
    <path d="M 259.386743 48.51 
L 305.286743 48.51 
L 351.186743 48.51 
" clip-path="url(#pd2182d9bfd)" style="fill: none; stroke: #000000; stroke-width: 2; stroke-linecap: round"/>
   </g>
   <g id="line2d_41">
    <path d="M 351.186743 48.51 
L 351.186743 115.4475 
L 358.836743 117.9975 
L 343.536743 123.0975 
L 358.836743 128.1975 
L 343.536743 133.2975 
L 358.836743 138.3975 
L 343.536743 143.4975 
L 351.186743 146.0475 
L 351.186743 212.985 
" clip-path="url(#pd2182d9bfd)" style="fill: none; stroke: #000000; stroke-width: 2; stroke-linecap: round"/>
   </g>
   <g id="line2d_42">
    <path d="M 351.186743 212.985 
L 244.086743 212.985 
L 136.986743 212.985 
" clip-path="url(#pd2182d9bfd)" style="fill: none; stroke: #000000; stroke-width: 2; stroke-linecap: round"/>
   </g>
   <g id="text_1">
    <g clip-path="url(#pd2182d9bfd)">
     <!-- $10~V$ -->
     <g transform="translate(21.4758 124.634219)scale(0.125 -0.125)">
      <defs>
       <path id="STIXGeneral-Regular-31" d="M 2522 0 
L 755 0 
L 755 96 
Q 1107 115 1235 227 
Q 1363 339 1363 608 
L 1363 3482 
Q 1363 3795 1171 3795 
Q 1082 3795 883 3718 
L 710 3654 
L 710 3744 
L 1856 4326 
L 1914 4307 
L 1914 486 
Q 1914 275 2042 185 
Q 2170 96 2522 96 
L 2522 0 
z
" transform="scale(0.015625)"/>
       <path id="STIXGeneral-Regular-30" d="M 3046 2112 
Q 3046 1683 2963 1302 
Q 2880 922 2717 602 
Q 2554 282 2266 96 
Q 1978 -90 1600 -90 
Q 1210 -90 915 108 
Q 621 307 461 640 
Q 301 973 227 1350 
Q 154 1728 154 2150 
Q 154 2746 301 3222 
Q 448 3699 790 4012 
Q 1133 4326 1626 4326 
Q 2253 4326 2649 3712 
Q 3046 3098 3046 2112 
z
M 2432 2080 
Q 2432 3091 2217 3625 
Q 2003 4160 1587 4160 
Q 1190 4160 979 3622 
Q 768 3085 768 2106 
Q 768 1120 979 598 
Q 1190 77 1600 77 
Q 2003 77 2217 598 
Q 2432 1120 2432 2080 
z
" transform="scale(0.015625)"/>
       <path id="STIXGeneral-Italic-56" d="M 4403 4179 
L 4403 4077 
Q 4198 4070 4045 3821 
L 1658 -115 
L 1536 -115 
L 1011 3104 
Q 902 3776 828 3910 
Q 755 4045 486 4077 
L 486 4179 
L 2022 4179 
L 2022 4077 
Q 1722 4045 1629 3981 
Q 1536 3917 1536 3750 
Q 1536 3686 1542 3654 
L 1958 819 
L 3302 3123 
Q 3616 3661 3616 3859 
Q 3616 4032 3219 4077 
L 3219 4179 
L 4403 4179 
z
" transform="scale(0.015625)"/>
      </defs>
      <use xlink:href="#STIXGeneral-Regular-31" transform="translate(0 0.40625)"/>
      <use xlink:href="#STIXGeneral-Regular-30" transform="translate(49.999985 0.40625)"/>
      <use xlink:href="#STIXGeneral-Italic-56" transform="translate(124.066389 0.40625)"/>
     </g>
    </g>
   </g>
   <g id="text_2">
    <g clip-path="url(#pd2182d9bfd)">
     <!-- $4~\Omega$ -->
     <g transform="translate(125.5508 170.534219)scale(0.125 -0.125)">
      <defs>
       <path id="STIXGeneral-Regular-34" d="M 3027 1069 
L 2368 1069 
L 2368 0 
L 1869 0 
L 1869 1069 
L 77 1069 
L 77 1478 
L 2086 4326 
L 2368 4326 
L 2368 1478 
L 3027 1478 
L 3027 1069 
z
M 1869 1478 
L 1869 3674 
L 333 1478 
L 1869 1478 
z
" transform="scale(0.015625)"/>
       <path id="STIXGeneral-Regular-3a9" d="M 4576 0 
L 2746 0 
L 2790 1030 
Q 3187 1126 3440 1574 
Q 3693 2022 3693 2554 
Q 3693 3251 3344 3673 
Q 2995 4096 2380 4096 
Q 1766 4096 1417 3635 
Q 1069 3174 1069 2554 
Q 1069 2054 1315 1600 
Q 1562 1146 1965 1030 
L 2022 0 
L 186 0 
L 186 1094 
L 346 1094 
Q 352 806 438 707 
Q 525 608 742 608 
L 1709 608 
L 1696 845 
Q 1018 1037 678 1446 
Q 339 1856 339 2541 
Q 339 3238 899 3782 
Q 1459 4326 2380 4326 
Q 3302 4326 3862 3804 
Q 4422 3283 4422 2541 
Q 4422 1235 3046 845 
L 3034 608 
L 4019 608 
Q 4397 608 4416 1082 
L 4576 1082 
L 4576 0 
z
" transform="scale(0.015625)"/>
      </defs>
      <use xlink:href="#STIXGeneral-Regular-34" transform="translate(0 0.40625)"/>
      <use xlink:href="#STIXGeneral-Regular-3a9" transform="translate(74.066405 0.40625)"/>
     </g>
    </g>
   </g>
   <g id="text_3">
    <g clip-path="url(#pd2182d9bfd)">
     <!-- $12~\Omega$ -->
     <g transform="translate(203.6483 107.875391)scale(0.125 -0.125)">
      <defs>
       <path id="STIXGeneral-Regular-32" d="M 3034 877 
L 2688 0 
L 186 0 
L 186 77 
L 1325 1286 
Q 1773 1754 1965 2144 
Q 2157 2534 2157 2950 
Q 2157 3379 1920 3616 
Q 1683 3853 1267 3853 
Q 922 3853 720 3673 
Q 518 3494 326 3021 
L 192 3053 
Q 301 3648 630 3987 
Q 960 4326 1523 4326 
Q 2054 4326 2380 4006 
Q 2707 3686 2707 3200 
Q 2707 2477 1888 1613 
L 832 486 
L 2330 486 
Q 2541 486 2665 569 
Q 2790 653 2944 915 
L 3034 877 
z
" transform="scale(0.015625)"/>
      </defs>
      <use xlink:href="#STIXGeneral-Regular-31" transform="translate(0 0.40625)"/>
      <use xlink:href="#STIXGeneral-Regular-32" transform="translate(49.999985 0.40625)"/>
      <use xlink:href="#STIXGeneral-Regular-3a9" transform="translate(124.066389 0.40625)"/>
     </g>
    </g>
   </g>
   <g id="text_4">
    <g clip-path="url(#pd2182d9bfd)">
     <!-- $8~\Omega$ -->
     <g transform="translate(321.851743 134.196719)scale(0.125 -0.125)">
      <defs>
       <path id="STIXGeneral-Regular-38" d="M 2848 992 
Q 2848 499 2505 204 
Q 2163 -90 1587 -90 
Q 1050 -90 704 204 
Q 358 499 358 954 
Q 358 1293 524 1533 
Q 691 1773 1190 2125 
Q 710 2522 553 2765 
Q 397 3008 397 3328 
Q 397 3782 745 4054 
Q 1094 4326 1638 4326 
Q 2106 4326 2410 4060 
Q 2714 3795 2714 3411 
Q 2714 3059 2531 2848 
Q 2349 2637 1856 2374 
Q 2432 1990 2640 1689 
Q 2848 1389 2848 992 
z
M 2272 3411 
Q 2272 3744 2086 3945 
Q 1901 4147 1574 4147 
Q 1248 4147 1059 3977 
Q 870 3808 870 3513 
Q 870 3219 1059 2979 
Q 1248 2739 1670 2490 
Q 1997 2682 2134 2896 
Q 2272 3110 2272 3411 
z
M 1734 1741 
L 1357 1997 
Q 1075 1766 960 1545 
Q 845 1325 845 1011 
Q 845 576 1065 333 
Q 1286 90 1658 90 
Q 1971 90 2166 285 
Q 2362 480 2362 794 
Q 2362 1082 2214 1299 
Q 2067 1517 1734 1741 
z
" transform="scale(0.015625)"/>
      </defs>
      <use xlink:href="#STIXGeneral-Regular-38" transform="translate(0 0.40625)"/>
      <use xlink:href="#STIXGeneral-Regular-3a9" transform="translate(74.066405 0.40625)"/>
     </g>
    </g>
   </g>
   <g id="text_5">
    <g clip-path="url(#pd2182d9bfd)">
     <!-- $10~V$ -->
     <g transform="translate(21.4758 124.634219)scale(0.125 -0.125)">
      <use xlink:href="#STIXGeneral-Regular-31" transform="translate(0 0.40625)"/>
      <use xlink:href="#STIXGeneral-Regular-30" transform="translate(49.999985 0.40625)"/>
      <use xlink:href="#STIXGeneral-Italic-56" transform="translate(124.066389 0.40625)"/>
     </g>
    </g>
   </g>
   <g id="text_6">
    <g clip-path="url(#pd2182d9bfd)">
     <!-- $4~\Omega$ -->
     <g transform="translate(125.5508 170.534219)scale(0.125 -0.125)">
      <use xlink:href="#STIXGeneral-Regular-34" transform="translate(0 0.40625)"/>
      <use xlink:href="#STIXGeneral-Regular-3a9" transform="translate(74.066405 0.40625)"/>
     </g>
    </g>
   </g>
   <g id="text_7">
    <g clip-path="url(#pd2182d9bfd)">
     <!-- $12~\Omega$ -->
     <g transform="translate(203.6483 107.875391)scale(0.125 -0.125)">
      <use xlink:href="#STIXGeneral-Regular-31" transform="translate(0 0.40625)"/>
      <use xlink:href="#STIXGeneral-Regular-32" transform="translate(49.999985 0.40625)"/>
      <use xlink:href="#STIXGeneral-Regular-3a9" transform="translate(124.066389 0.40625)"/>
     </g>
    </g>
   </g>
   <g id="text_8">
    <g clip-path="url(#pd2182d9bfd)">
     <!-- $8~\Omega$ -->
     <g transform="translate(321.851743 134.196719)scale(0.125 -0.125)">
      <use xlink:href="#STIXGeneral-Regular-38" transform="translate(0 0.40625)"/>
      <use xlink:href="#STIXGeneral-Regular-3a9" transform="translate(74.066405 0.40625)"/>
     </g>
    </g>
   </g>
   <g id="line2d_43">
    <path d="M 351.186743 188.505 
L 351.186743 188.505 
" clip-path="url(#pd2182d9bfd)" style="fill: none; stroke: #000000; stroke-width: 2; stroke-linecap: round"/>
   </g>
   <g id="patch_4">
    <path d="M 355.776743 188.505 
L 351.186743 197.685 
L 346.596743 188.505 
z
" clip-path="url(#pd2182d9bfd)"/>
   </g>
   <g id="text_9">
    <g clip-path="url(#pd2182d9bfd)">
     <!-- $I_O$ -->
     <g transform="translate(360.366743 196.544219)scale(0.125 -0.125)">
      <defs>
       <path id="STIXGeneral-Italic-49" d="M 2458 4179 
L 2458 4077 
Q 2189 4045 2102 3961 
Q 2016 3878 1933 3584 
L 1165 838 
Q 1069 499 1069 352 
Q 1069 224 1149 179 
Q 1229 134 1510 102 
L 1510 0 
L -51 0 
L -51 102 
Q 218 154 317 237 
Q 416 320 486 582 
L 1254 3405 
Q 1338 3699 1338 3802 
Q 1338 3930 1235 3997 
Q 1133 4064 877 4077 
L 877 4179 
L 2458 4179 
z
" transform="scale(0.015625)"/>
       <path id="STIXGeneral-Italic-4f" d="M 4474 2675 
Q 4474 1990 4106 1363 
Q 3738 736 3149 339 
Q 2477 -115 1779 -115 
Q 1146 -115 765 281 
Q 384 678 384 1382 
Q 384 1965 697 2582 
Q 1011 3200 1517 3642 
Q 2234 4262 3034 4262 
Q 3718 4269 4096 3840 
Q 4474 3411 4474 2675 
z
M 3802 3078 
Q 3802 3533 3581 3792 
Q 3360 4051 2976 4051 
Q 2342 4051 1786 3302 
Q 1446 2842 1251 2259 
Q 1056 1677 1056 1178 
Q 1056 653 1270 374 
Q 1485 96 1888 96 
Q 2477 96 2976 704 
Q 3354 1178 3578 1862 
Q 3802 2547 3802 3078 
z
" transform="scale(0.015625)"/>
      </defs>
      <use xlink:href="#STIXGeneral-Italic-49" transform="translate(0 0.703125)"/>
      <use xlink:href="#STIXGeneral-Italic-4f" transform="translate(33.299988 -12.525)scale(0.7)"/>
     </g>
    </g>
   </g>
   <g id="line2d_44">
    <path d="M 351.186743 188.505 
L 351.186743 188.505 
" clip-path="url(#pd2182d9bfd)" style="fill: none; stroke: #000000; stroke-width: 2; stroke-linecap: round"/>
   </g>
   <g id="patch_5">
    <path d="M 355.776743 188.505 
L 351.186743 197.685 
L 346.596743 188.505 
z
" clip-path="url(#pd2182d9bfd)"/>
   </g>
   <g id="text_10">
    <g clip-path="url(#pd2182d9bfd)">
     <!-- $I_O$ -->
     <g transform="translate(360.366743 196.544219)scale(0.125 -0.125)">
      <use xlink:href="#STIXGeneral-Italic-49" transform="translate(0 0.703125)"/>
      <use xlink:href="#STIXGeneral-Italic-4f" transform="translate(33.299988 -12.525)scale(0.7)"/>
     </g>
    </g>
   </g>
  </g>
 </g>
 <defs>
  <clipPath id="pd2182d9bfd">
   <rect x="7.2" y="7.2" width="384.674543" height="228.735"/>
  </clipPath>
 </defs>
</svg>
