<?xml version="1.0" encoding="utf-8" standalone="no"?>
<!DOCTYPE svg PUBLIC "-//W3C//DTD SVG 1.1//EN"
  "http://www.w3.org/Graphics/SVG/1.1/DTD/svg11.dtd">
<svg xmlns:xlink="http://www.w3.org/1999/xlink" width="324.8268pt" height="236.59pt" viewBox="0 0 324.8268 236.59" xmlns="http://www.w3.org/2000/svg" version="1.1">
 <metadata>
  <rdf:RDF xmlns:dc="http://purl.org/dc/elements/1.1/" xmlns:cc="http://creativecommons.org/ns#" xmlns:rdf="http://www.w3.org/1999/02/22-rdf-syntax-ns#">
   <cc:Work>
    <dc:type rdf:resource="http://purl.org/dc/dcmitype/StillImage"/>
    <dc:date>2023-03-02T16:43:34.387341</dc:date>
    <dc:format>image/svg+xml</dc:format>
    <dc:creator>
     <cc:Agent>
      <dc:title>Matplotlib v3.5.2, https://matplotlib.org/</dc:title>
     </cc:Agent>
    </dc:creator>
   </cc:Work>
  </rdf:RDF>
 </metadata>
 <defs>
  <style type="text/css">*{stroke-linejoin: round; stroke-linecap: butt}</style>
 </defs>
 <g id="figure_1">
  <g id="patch_1">
   <path d="M 0 236.59 
L 324.8268 236.59 
L 324.8268 0 
L 0 0 
L 0 236.59 
z
" style="fill: none"/>
  </g>
  <g id="axes_1">
   <g id="patch_2">
    <path d="M 63.0858 175.84 
C 67.143407 175.84 71.035372 174.227895 73.904534 171.358734 
C 76.773695 168.489572 78.3858 164.597607 78.3858 160.54 
C 78.3858 156.482393 76.773695 152.590428 73.904534 149.721266 
C 71.035372 146.852105 67.143407 145.24 63.0858 145.24 
C 59.028193 145.24 55.136228 146.852105 52.267066 149.721266 
C 49.397905 152.590428 47.7858 156.482393 47.7858 160.54 
C 47.7858 164.597607 49.397905 168.489572 52.267066 171.358734 
C 55.136228 174.227895 59.028193 175.84 63.0858 175.84 
L 63.0858 175.84 
z
" clip-path="url(#p7b1c99f777)" style="fill: none; stroke: #000000; stroke-width: 2; stroke-linejoin: miter"/>
   </g>
   <g id="patch_3">
    <path d="M 63.0858 175.84 
C 67.143407 175.84 71.035372 174.227895 73.904534 171.358734 
C 76.773695 168.489572 78.3858 164.597607 78.3858 160.54 
C 78.3858 156.482393 76.773695 152.590428 73.904534 149.721266 
C 71.035372 146.852105 67.143407 145.24 63.0858 145.24 
C 59.028193 145.24 55.136228 146.852105 52.267066 149.721266 
C 49.397905 152.590428 47.7858 156.482393 47.7858 160.54 
C 47.7858 164.597607 49.397905 168.489572 52.267066 171.358734 
C 55.136228 174.227895 59.028193 175.84 63.0858 175.84 
L 63.0858 175.84 
z
" clip-path="url(#p7b1c99f777)" style="fill: none; stroke: #000000; stroke-width: 2; stroke-linejoin: miter"/>
   </g>
   <g id="line2d_1">
    <path d="M 174.0108 133.765 
L 174.0108 95.515 
L 240.261743 133.765 
L 174.0108 172.015 
L 174.0108 133.765 
M 240.261743 133.765 
" clip-path="url(#p7b1c99f777)" style="fill: none; stroke: #000000; stroke-width: 2; stroke-linecap: round"/>
   </g>
   <g id="line2d_2">
    <path d="M 179.232168 114.64 
L 185.352168 114.64 
" clip-path="url(#p7b1c99f777)" style="fill: none; stroke: #000000; stroke-width: 2; stroke-linecap: round"/>
   </g>
   <g id="line2d_3">
    <path d="M 179.232168 152.89 
L 185.352168 152.89 
" clip-path="url(#p7b1c99f777)" style="fill: none; stroke: #000000; stroke-width: 2; stroke-linecap: round"/>
   </g>
   <g id="line2d_4">
    <path d="M 182.292168 155.95 
L 182.292168 149.83 
" clip-path="url(#p7b1c99f777)" style="fill: none; stroke: #000000; stroke-width: 2; stroke-linecap: round"/>
   </g>
   <g id="line2d_5">
    <path d="M 154.8858 114.64 
L 174.0108 114.64 
" clip-path="url(#p7b1c99f777)" style="fill: none; stroke: #000000; stroke-width: 2; stroke-linecap: round"/>
   </g>
   <g id="line2d_6">
    <path d="M 154.8858 152.89 
L 174.0108 152.89 
" clip-path="url(#p7b1c99f777)" style="fill: none; stroke: #000000; stroke-width: 2; stroke-linecap: round"/>
   </g>
   <g id="line2d_7">
    <path d="M 240.261743 133.765 
L 259.386743 133.765 
" clip-path="url(#p7b1c99f777)" style="fill: none; stroke: #000000; stroke-width: 2; stroke-linecap: round"/>
   </g>
   <g id="line2d_8">
    <path d="M 154.8858 114.64 
L 124.2858 114.64 
L 121.7358 122.29 
L 116.6358 106.99 
L 111.5358 122.29 
L 106.4358 106.99 
L 101.3358 122.29 
L 96.2358 106.99 
L 93.6858 114.64 
L 63.0858 114.64 
" clip-path="url(#p7b1c99f777)" style="fill: none; stroke: #000000; stroke-width: 2; stroke-linecap: round"/>
   </g>
   <g id="line2d_9">
    <path d="M 63.0858 114.64 
L 63.0858 145.24 
L 63.0858 145.24 
M 63.0858 175.84 
L 63.0858 175.84 
L 63.0858 206.44 
" clip-path="url(#p7b1c99f777)" style="fill: none; stroke: #000000; stroke-width: 2; stroke-linecap: round"/>
   </g>
   <g id="line2d_10">
    <path d="M 66.1458 168.19 
L 60.0258 168.19 
" clip-path="url(#p7b1c99f777)" style="fill: none; stroke: #000000; stroke-width: 2; stroke-linecap: round"/>
   </g>
   <g id="line2d_11">
    <path d="M 63.0858 149.83 
L 63.0858 155.95 
" clip-path="url(#p7b1c99f777)" style="fill: none; stroke: #000000; stroke-width: 2; stroke-linecap: round"/>
   </g>
   <g id="line2d_12">
    <path d="M 66.1458 152.89 
L 60.0258 152.89 
" clip-path="url(#p7b1c99f777)" style="fill: none; stroke: #000000; stroke-width: 2; stroke-linecap: round"/>
   </g>
   <g id="line2d_13">
    <path d="M 63.0858 206.44 
L 63.0858 218.68 
L 55.4358 218.68 
L 63.0858 226.33 
L 70.7358 218.68 
L 63.0858 218.68 
" clip-path="url(#p7b1c99f777)" style="fill: none; stroke: #000000; stroke-width: 2; stroke-linecap: round"/>
   </g>
   <g id="line2d_14">
    <path d="M 63.0858 206.44 
L 108.9858 206.44 
L 154.8858 206.44 
" clip-path="url(#p7b1c99f777)" style="fill: none; stroke: #000000; stroke-width: 2; stroke-linecap: round"/>
   </g>
   <g id="line2d_15">
    <path d="M 154.8858 206.44 
L 154.8858 179.665 
L 154.8858 152.89 
" clip-path="url(#p7b1c99f777)" style="fill: none; stroke: #000000; stroke-width: 2; stroke-linecap: round"/>
   </g>
   <g id="line2d_16">
    <path d="M 154.8858 206.44 
L 208.4358 206.44 
L 261.9858 206.44 
" clip-path="url(#p7b1c99f777)" style="fill: none; stroke: #000000; stroke-width: 2; stroke-linecap: round"/>
   </g>
   <g id="line2d_17">
    <path d="M 261.9858 206.44 
L 261.9858 185.785 
L 254.3358 183.235 
L 269.6358 178.135 
L 254.3358 173.035 
L 269.6358 167.935 
L 254.3358 162.835 
L 269.6358 157.735 
L 261.9858 155.185 
L 261.9858 134.53 
" clip-path="url(#p7b1c99f777)" style="fill: none; stroke: #000000; stroke-width: 2; stroke-linecap: round"/>
   </g>
   <g id="line2d_18">
    <path d="M 261.9858 134.53 
L 261.9858 88.63 
L 261.9858 42.73 
" clip-path="url(#p7b1c99f777)" style="fill: none; stroke: #000000; stroke-width: 2; stroke-linecap: round"/>
   </g>
   <g id="line2d_19">
    <path d="M 261.9858 42.73 
L 223.7358 42.73 
L 221.1858 50.38 
L 216.0858 35.08 
L 210.9858 50.38 
L 205.8858 35.08 
L 200.7858 50.38 
L 195.6858 35.08 
L 193.1358 42.73 
L 154.8858 42.73 
" clip-path="url(#p7b1c99f777)" style="fill: none; stroke: #000000; stroke-width: 2; stroke-linecap: round"/>
   </g>
   <g id="line2d_20">
    <path d="M 154.8858 42.73 
L 154.8858 78.685 
L 154.8858 114.64 
" clip-path="url(#p7b1c99f777)" style="fill: none; stroke: #000000; stroke-width: 2; stroke-linecap: round"/>
   </g>
   <g id="line2d_21">
    <path d="M 93.6858 99.34 
L 108.9858 99.34 
L 116.6358 99.34 
" clip-path="url(#p7b1c99f777)" style="fill: none; stroke: #0000ff; stroke-width: 2; stroke-linecap: round"/>
   </g>
   <g id="patch_4">
    <path d="M 116.6358 97.045 
L 124.2858 99.34 
L 116.6358 101.635 
z
" clip-path="url(#p7b1c99f777)" style="fill: #0000ff"/>
   </g>
   <g id="line2d_22">
    <path d="M 193.1358 58.03 
L 208.4358 58.03 
L 216.0858 58.03 
" clip-path="url(#p7b1c99f777)" style="fill: none; stroke: #0000ff; stroke-width: 2; stroke-linecap: round"/>
   </g>
   <g id="patch_5">
    <path d="M 216.0858 55.735 
L 223.7358 58.03 
L 216.0858 60.325 
z
" clip-path="url(#p7b1c99f777)" style="fill: #0000ff"/>
   </g>
   <g id="line2d_23">
    <path d="M 231.3858 149.83 
L 231.3858 165.13 
L 231.3858 172.78 
" clip-path="url(#p7b1c99f777)" style="fill: none; stroke: #0000ff; stroke-width: 2; stroke-linecap: round"/>
   </g>
   <g id="patch_6">
    <path d="M 233.6808 172.78 
L 231.3858 180.43 
L 229.0908 172.78 
z
" clip-path="url(#p7b1c99f777)" style="fill: #0000ff"/>
   </g>
   <g id="line2d_24">
    <path d="M 174.0108 133.765 
L 174.0108 95.515 
L 240.261743 133.765 
L 174.0108 172.015 
L 174.0108 133.765 
M 240.261743 133.765 
" clip-path="url(#p7b1c99f777)" style="fill: none; stroke: #000000; stroke-width: 2; stroke-linecap: round"/>
   </g>
   <g id="line2d_25">
    <path d="M 179.232168 114.64 
L 185.352168 114.64 
" clip-path="url(#p7b1c99f777)" style="fill: none; stroke: #000000; stroke-width: 2; stroke-linecap: round"/>
   </g>
   <g id="line2d_26">
    <path d="M 179.232168 152.89 
L 185.352168 152.89 
" clip-path="url(#p7b1c99f777)" style="fill: none; stroke: #000000; stroke-width: 2; stroke-linecap: round"/>
   </g>
   <g id="line2d_27">
    <path d="M 182.292168 155.95 
L 182.292168 149.83 
" clip-path="url(#p7b1c99f777)" style="fill: none; stroke: #000000; stroke-width: 2; stroke-linecap: round"/>
   </g>
   <g id="line2d_28">
    <path d="M 154.8858 114.64 
L 174.0108 114.64 
" clip-path="url(#p7b1c99f777)" style="fill: none; stroke: #000000; stroke-width: 2; stroke-linecap: round"/>
   </g>
   <g id="line2d_29">
    <path d="M 154.8858 152.89 
L 174.0108 152.89 
" clip-path="url(#p7b1c99f777)" style="fill: none; stroke: #000000; stroke-width: 2; stroke-linecap: round"/>
   </g>
   <g id="line2d_30">
    <path d="M 240.261743 133.765 
L 259.386743 133.765 
" clip-path="url(#p7b1c99f777)" style="fill: none; stroke: #000000; stroke-width: 2; stroke-linecap: round"/>
   </g>
   <g id="line2d_31">
    <path d="M 154.8858 114.64 
L 124.2858 114.64 
L 121.7358 122.29 
L 116.6358 106.99 
L 111.5358 122.29 
L 106.4358 106.99 
L 101.3358 122.29 
L 96.2358 106.99 
L 93.6858 114.64 
L 63.0858 114.64 
" clip-path="url(#p7b1c99f777)" style="fill: none; stroke: #000000; stroke-width: 2; stroke-linecap: round"/>
   </g>
   <g id="line2d_32">
    <path d="M 63.0858 114.64 
L 63.0858 145.24 
L 63.0858 145.24 
M 63.0858 175.84 
L 63.0858 175.84 
L 63.0858 206.44 
" clip-path="url(#p7b1c99f777)" style="fill: none; stroke: #000000; stroke-width: 2; stroke-linecap: round"/>
   </g>
   <g id="line2d_33">
    <path d="M 66.1458 168.19 
L 60.0258 168.19 
" clip-path="url(#p7b1c99f777)" style="fill: none; stroke: #000000; stroke-width: 2; stroke-linecap: round"/>
   </g>
   <g id="line2d_34">
    <path d="M 63.0858 149.83 
L 63.0858 155.95 
" clip-path="url(#p7b1c99f777)" style="fill: none; stroke: #000000; stroke-width: 2; stroke-linecap: round"/>
   </g>
   <g id="line2d_35">
    <path d="M 66.1458 152.89 
L 60.0258 152.89 
" clip-path="url(#p7b1c99f777)" style="fill: none; stroke: #000000; stroke-width: 2; stroke-linecap: round"/>
   </g>
   <g id="line2d_36">
    <path d="M 63.0858 206.44 
L 63.0858 218.68 
L 55.4358 218.68 
L 63.0858 226.33 
L 70.7358 218.68 
L 63.0858 218.68 
" clip-path="url(#p7b1c99f777)" style="fill: none; stroke: #000000; stroke-width: 2; stroke-linecap: round"/>
   </g>
   <g id="line2d_37">
    <path d="M 63.0858 206.44 
L 108.9858 206.44 
L 154.8858 206.44 
" clip-path="url(#p7b1c99f777)" style="fill: none; stroke: #000000; stroke-width: 2; stroke-linecap: round"/>
   </g>
   <g id="line2d_38">
    <path d="M 154.8858 206.44 
L 154.8858 179.665 
L 154.8858 152.89 
" clip-path="url(#p7b1c99f777)" style="fill: none; stroke: #000000; stroke-width: 2; stroke-linecap: round"/>
   </g>
   <g id="line2d_39">
    <path d="M 154.8858 206.44 
L 208.4358 206.44 
L 261.9858 206.44 
" clip-path="url(#p7b1c99f777)" style="fill: none; stroke: #000000; stroke-width: 2; stroke-linecap: round"/>
   </g>
   <g id="line2d_40">
    <path d="M 261.9858 206.44 
L 261.9858 185.785 
L 254.3358 183.235 
L 269.6358 178.135 
L 254.3358 173.035 
L 269.6358 167.935 
L 254.3358 162.835 
L 269.6358 157.735 
L 261.9858 155.185 
L 261.9858 134.53 
" clip-path="url(#p7b1c99f777)" style="fill: none; stroke: #000000; stroke-width: 2; stroke-linecap: round"/>
   </g>
   <g id="line2d_41">
    <path d="M 261.9858 134.53 
L 261.9858 88.63 
L 261.9858 42.73 
" clip-path="url(#p7b1c99f777)" style="fill: none; stroke: #000000; stroke-width: 2; stroke-linecap: round"/>
   </g>
   <g id="line2d_42">
    <path d="M 261.9858 42.73 
L 223.7358 42.73 
L 221.1858 50.38 
L 216.0858 35.08 
L 210.9858 50.38 
L 205.8858 35.08 
L 200.7858 50.38 
L 195.6858 35.08 
L 193.1358 42.73 
L 154.8858 42.73 
" clip-path="url(#p7b1c99f777)" style="fill: none; stroke: #000000; stroke-width: 2; stroke-linecap: round"/>
   </g>
   <g id="line2d_43">
    <path d="M 154.8858 42.73 
L 154.8858 78.685 
L 154.8858 114.64 
" clip-path="url(#p7b1c99f777)" style="fill: none; stroke: #000000; stroke-width: 2; stroke-linecap: round"/>
   </g>
   <g id="line2d_44">
    <path d="M 93.6858 99.34 
L 108.9858 99.34 
L 116.6358 99.34 
" clip-path="url(#p7b1c99f777)" style="fill: none; stroke: #0000ff; stroke-width: 2; stroke-linecap: round"/>
   </g>
   <g id="patch_7">
    <path d="M 116.6358 97.045 
L 124.2858 99.34 
L 116.6358 101.635 
z
" clip-path="url(#p7b1c99f777)" style="fill: #0000ff"/>
   </g>
   <g id="line2d_45">
    <path d="M 193.1358 58.03 
L 208.4358 58.03 
L 216.0858 58.03 
" clip-path="url(#p7b1c99f777)" style="fill: none; stroke: #0000ff; stroke-width: 2; stroke-linecap: round"/>
   </g>
   <g id="patch_8">
    <path d="M 216.0858 55.735 
L 223.7358 58.03 
L 216.0858 60.325 
z
" clip-path="url(#p7b1c99f777)" style="fill: #0000ff"/>
   </g>
   <g id="line2d_46">
    <path d="M 231.3858 149.83 
L 231.3858 165.13 
L 231.3858 172.78 
" clip-path="url(#p7b1c99f777)" style="fill: none; stroke: #0000ff; stroke-width: 2; stroke-linecap: round"/>
   </g>
   <g id="patch_9">
    <path d="M 233.6808 172.78 
L 231.3858 180.43 
L 229.0908 172.78 
z
" clip-path="url(#p7b1c99f777)" style="fill: #0000ff"/>
   </g>
   <g id="text_1">
    <g clip-path="url(#p7b1c99f777)">
     <!-- B -->
     <g transform="translate(138.659628 102.789219)scale(0.125 -0.125)">
      <defs>
       <path id="DejaVuSans-42" d="M 1259 2228 
L 1259 519 
L 2272 519 
Q 2781 519 3026 730 
Q 3272 941 3272 1375 
Q 3272 1813 3026 2020 
Q 2781 2228 2272 2228 
L 1259 2228 
z
M 1259 4147 
L 1259 2741 
L 2194 2741 
Q 2656 2741 2882 2914 
Q 3109 3088 3109 3444 
Q 3109 3797 2882 3972 
Q 2656 4147 2194 4147 
L 1259 4147 
z
M 628 4666 
L 2241 4666 
Q 2963 4666 3353 4366 
Q 3744 4066 3744 3513 
Q 3744 3084 3544 2831 
Q 3344 2578 2956 2516 
Q 3422 2416 3680 2098 
Q 3938 1781 3938 1306 
Q 3938 681 3513 340 
Q 3088 0 2303 0 
L 628 0 
L 628 4666 
z
" transform="scale(0.015625)"/>
      </defs>
      <use xlink:href="#DejaVuSans-42"/>
     </g>
    </g>
   </g>
   <g id="text_2">
    <g clip-path="url(#p7b1c99f777)">
     <!-- C -->
     <g transform="translate(267.036743 121.914219)scale(0.125 -0.125)">
      <defs>
       <path id="DejaVuSans-43" d="M 4122 4306 
L 4122 3641 
Q 3803 3938 3442 4084 
Q 3081 4231 2675 4231 
Q 1875 4231 1450 3742 
Q 1025 3253 1025 2328 
Q 1025 1406 1450 917 
Q 1875 428 2675 428 
Q 3081 428 3442 575 
Q 3803 722 4122 1019 
L 4122 359 
Q 3791 134 3420 21 
Q 3050 -91 2638 -91 
Q 1578 -91 968 557 
Q 359 1206 359 2328 
Q 359 3453 968 4101 
Q 1578 4750 2638 4750 
Q 3056 4750 3426 4639 
Q 3797 4528 4122 4306 
z
" transform="scale(0.015625)"/>
      </defs>
      <use xlink:href="#DejaVuSans-43"/>
     </g>
    </g>
   </g>
   <g id="text_3">
    <g clip-path="url(#p7b1c99f777)">
     <!-- $3~k\Omega$ -->
     <g transform="translate(96.9233 134.848047)scale(0.125 -0.125)">
      <defs>
       <path id="STIXGeneral-Regular-33" d="M 390 3264 
L 288 3290 
Q 435 3770 748 4048 
Q 1062 4326 1542 4326 
Q 1990 4326 2265 4083 
Q 2541 3840 2541 3450 
Q 2541 2925 1946 2566 
Q 2298 2413 2477 2227 
Q 2758 1914 2758 1402 
Q 2758 890 2464 506 
Q 2246 211 1840 60 
Q 1434 -90 979 -90 
Q 262 -90 262 275 
Q 262 378 339 442 
Q 416 506 525 506 
Q 685 506 915 339 
Q 1197 141 1466 141 
Q 1818 141 2058 425 
Q 2298 710 2298 1120 
Q 2298 1856 1632 2048 
Q 1434 2112 979 2112 
L 979 2202 
Q 1338 2323 1517 2432 
Q 2035 2726 2035 3290 
Q 2035 3610 1852 3776 
Q 1670 3942 1344 3942 
Q 768 3942 390 3264 
z
" transform="scale(0.015625)"/>
       <path id="STIXGeneral-Italic-6b" d="M 2950 2739 
L 2950 2637 
Q 2720 2624 2464 2448 
Q 2208 2272 1510 1651 
L 1747 1088 
Q 2099 262 2266 262 
Q 2400 262 2554 531 
Q 2586 582 2650 698 
L 2746 627 
Q 2522 224 2374 77 
Q 2227 -70 2035 -70 
Q 1894 -70 1782 42 
Q 1670 154 1517 454 
Q 1325 826 1133 1357 
L 877 1152 
L 570 0 
L 90 0 
L 992 3379 
Q 1082 3699 1107 3942 
Q 1088 4096 781 4096 
L 666 4096 
L 666 4198 
Q 1146 4256 1670 4371 
L 1709 4333 
L 941 1414 
L 1216 1626 
Q 2131 2330 2131 2522 
Q 2131 2637 1894 2637 
L 1805 2637 
L 1805 2739 
L 2950 2739 
z
" transform="scale(0.015625)"/>
       <path id="STIXGeneral-Regular-3a9" d="M 4576 0 
L 2746 0 
L 2790 1030 
Q 3187 1126 3440 1574 
Q 3693 2022 3693 2554 
Q 3693 3251 3344 3673 
Q 2995 4096 2380 4096 
Q 1766 4096 1417 3635 
Q 1069 3174 1069 2554 
Q 1069 2054 1315 1600 
Q 1562 1146 1965 1030 
L 2022 0 
L 186 0 
L 186 1094 
L 346 1094 
Q 352 806 438 707 
Q 525 608 742 608 
L 1709 608 
L 1696 845 
Q 1018 1037 678 1446 
Q 339 1856 339 2541 
Q 339 3238 899 3782 
Q 1459 4326 2380 4326 
Q 3302 4326 3862 3804 
Q 4422 3283 4422 2541 
Q 4422 1235 3046 845 
L 3034 608 
L 4019 608 
Q 4397 608 4416 1082 
L 4576 1082 
L 4576 0 
z
" transform="scale(0.015625)"/>
      </defs>
      <use xlink:href="#STIXGeneral-Regular-33" transform="translate(0 0.703125)"/>
      <use xlink:href="#STIXGeneral-Italic-6b" transform="translate(74.066405 0.703125)"/>
      <use xlink:href="#STIXGeneral-Regular-3a9" transform="translate(118.466399 0.703125)"/>
     </g>
    </g>
   </g>
   <g id="text_4">
    <g clip-path="url(#p7b1c99f777)">
     <!-- A -->
     <g transform="translate(62.185019 102.789219)scale(0.125 -0.125)">
      <defs>
       <path id="DejaVuSans-41" d="M 2188 4044 
L 1331 1722 
L 3047 1722 
L 2188 4044 
z
M 1831 4666 
L 2547 4666 
L 4325 0 
L 3669 0 
L 3244 1197 
L 1141 1197 
L 716 0 
L 50 0 
L 1831 4666 
z
" transform="scale(0.015625)"/>
      </defs>
      <use xlink:href="#DejaVuSans-41"/>
     </g>
    </g>
   </g>
   <g id="text_5">
    <g clip-path="url(#p7b1c99f777)">
     <!-- $10~V$ -->
     <g transform="translate(21.4758 163.989219)scale(0.125 -0.125)">
      <defs>
       <path id="STIXGeneral-Regular-31" d="M 2522 0 
L 755 0 
L 755 96 
Q 1107 115 1235 227 
Q 1363 339 1363 608 
L 1363 3482 
Q 1363 3795 1171 3795 
Q 1082 3795 883 3718 
L 710 3654 
L 710 3744 
L 1856 4326 
L 1914 4307 
L 1914 486 
Q 1914 275 2042 185 
Q 2170 96 2522 96 
L 2522 0 
z
" transform="scale(0.015625)"/>
       <path id="STIXGeneral-Regular-30" d="M 3046 2112 
Q 3046 1683 2963 1302 
Q 2880 922 2717 602 
Q 2554 282 2266 96 
Q 1978 -90 1600 -90 
Q 1210 -90 915 108 
Q 621 307 461 640 
Q 301 973 227 1350 
Q 154 1728 154 2150 
Q 154 2746 301 3222 
Q 448 3699 790 4012 
Q 1133 4326 1626 4326 
Q 2253 4326 2649 3712 
Q 3046 3098 3046 2112 
z
M 2432 2080 
Q 2432 3091 2217 3625 
Q 2003 4160 1587 4160 
Q 1190 4160 979 3622 
Q 768 3085 768 2106 
Q 768 1120 979 598 
Q 1190 77 1600 77 
Q 2003 77 2217 598 
Q 2432 1120 2432 2080 
z
" transform="scale(0.015625)"/>
       <path id="STIXGeneral-Italic-56" d="M 4403 4179 
L 4403 4077 
Q 4198 4070 4045 3821 
L 1658 -115 
L 1536 -115 
L 1011 3104 
Q 902 3776 828 3910 
Q 755 4045 486 4077 
L 486 4179 
L 2022 4179 
L 2022 4077 
Q 1722 4045 1629 3981 
Q 1536 3917 1536 3750 
Q 1536 3686 1542 3654 
L 1958 819 
L 3302 3123 
Q 3616 3661 3616 3859 
Q 3616 4032 3219 4077 
L 3219 4179 
L 4403 4179 
z
" transform="scale(0.015625)"/>
      </defs>
      <use xlink:href="#STIXGeneral-Regular-31" transform="translate(0 0.40625)"/>
      <use xlink:href="#STIXGeneral-Regular-30" transform="translate(49.999985 0.40625)"/>
      <use xlink:href="#STIXGeneral-Italic-56" transform="translate(124.066389 0.40625)"/>
     </g>
    </g>
   </g>
   <g id="text_6">
    <g clip-path="url(#p7b1c99f777)">
     <!-- - -->
     <g transform="translate(246.766034 191.911719)scale(0.125 -0.125)">
      <defs>
       <path id="DejaVuSans-2d" d="M 313 2009 
L 1997 2009 
L 1997 1497 
L 313 1497 
L 313 2009 
z
" transform="scale(0.015625)"/>
      </defs>
      <use xlink:href="#DejaVuSans-2d"/>
     </g>
    </g>
   </g>
   <g id="text_7">
    <g clip-path="url(#p7b1c99f777)">
     <!-- $V_O$ -->
     <g transform="translate(236.6508 173.934219)scale(0.125 -0.125)">
      <defs>
       <path id="STIXGeneral-Italic-4f" d="M 4474 2675 
Q 4474 1990 4106 1363 
Q 3738 736 3149 339 
Q 2477 -115 1779 -115 
Q 1146 -115 765 281 
Q 384 678 384 1382 
Q 384 1965 697 2582 
Q 1011 3200 1517 3642 
Q 2234 4262 3034 4262 
Q 3718 4269 4096 3840 
Q 4474 3411 4474 2675 
z
M 3802 3078 
Q 3802 3533 3581 3792 
Q 3360 4051 2976 4051 
Q 2342 4051 1786 3302 
Q 1446 2842 1251 2259 
Q 1056 1677 1056 1178 
Q 1056 653 1270 374 
Q 1485 96 1888 96 
Q 2477 96 2976 704 
Q 3354 1178 3578 1862 
Q 3802 2547 3802 3078 
z
" transform="scale(0.015625)"/>
      </defs>
      <use xlink:href="#STIXGeneral-Italic-56" transform="translate(0 0.703125)"/>
      <use xlink:href="#STIXGeneral-Italic-4f" transform="translate(61.099991 -12.525)scale(0.7)"/>
     </g>
    </g>
   </g>
   <g id="text_8">
    <g clip-path="url(#p7b1c99f777)">
     <!-- + -->
     <g transform="translate(240.801191 155.956719)scale(0.125 -0.125)">
      <defs>
       <path id="DejaVuSans-2b" d="M 2944 4013 
L 2944 2272 
L 4684 2272 
L 4684 1741 
L 2944 1741 
L 2944 0 
L 2419 0 
L 2419 1741 
L 678 1741 
L 678 2272 
L 2419 2272 
L 2419 4013 
L 2944 4013 
z
" transform="scale(0.015625)"/>
      </defs>
      <use xlink:href="#DejaVuSans-2b"/>
     </g>
    </g>
   </g>
   <g id="text_9">
    <g clip-path="url(#p7b1c99f777)">
     <!-- $5~k\Omega$ -->
     <g transform="translate(272.6958 173.934219)scale(0.125 -0.125)">
      <defs>
       <path id="STIXGeneral-Regular-35" d="M 2803 4358 
L 2573 3814 
Q 2534 3731 2400 3731 
L 1158 3731 
L 902 3187 
Q 1606 3053 1920 2896 
Q 2234 2739 2502 2368 
Q 2726 2061 2726 1555 
Q 2726 1094 2576 780 
Q 2426 467 2099 224 
Q 1664 -90 1011 -90 
Q 646 -90 422 19 
Q 198 128 198 307 
Q 198 550 486 550 
Q 717 550 960 352 
Q 1210 147 1414 147 
Q 1747 147 2012 480 
Q 2278 813 2278 1229 
Q 2278 1843 1850 2189 
Q 1293 2637 486 2637 
Q 410 2637 410 2688 
L 416 2720 
L 1114 4237 
L 2438 4237 
Q 2547 4237 2608 4269 
Q 2669 4301 2746 4403 
L 2803 4358 
z
" transform="scale(0.015625)"/>
      </defs>
      <use xlink:href="#STIXGeneral-Regular-35" transform="translate(0 0.203125)"/>
      <use xlink:href="#STIXGeneral-Italic-6b" transform="translate(74.066405 0.203125)"/>
      <use xlink:href="#STIXGeneral-Regular-3a9" transform="translate(118.466399 0.203125)"/>
     </g>
    </g>
   </g>
   <g id="text_10">
    <g clip-path="url(#p7b1c99f777)">
     <!-- $15~k\Omega$ -->
     <g transform="translate(193.2483 29.420391)scale(0.125 -0.125)">
      <use xlink:href="#STIXGeneral-Regular-31" transform="translate(0 0.203125)"/>
      <use xlink:href="#STIXGeneral-Regular-35" transform="translate(49.999985 0.203125)"/>
      <use xlink:href="#STIXGeneral-Italic-6b" transform="translate(124.066389 0.203125)"/>
      <use xlink:href="#STIXGeneral-Regular-3a9" transform="translate(168.466383 0.203125)"/>
     </g>
    </g>
   </g>
   <g id="text_11">
    <g clip-path="url(#p7b1c99f777)">
     <!-- B -->
     <g transform="translate(138.659628 102.789219)scale(0.125 -0.125)">
      <use xlink:href="#DejaVuSans-42"/>
     </g>
    </g>
   </g>
   <g id="text_12">
    <g clip-path="url(#p7b1c99f777)">
     <!-- C -->
     <g transform="translate(267.036743 121.914219)scale(0.125 -0.125)">
      <use xlink:href="#DejaVuSans-43"/>
     </g>
    </g>
   </g>
   <g id="text_13">
    <g clip-path="url(#p7b1c99f777)">
     <!-- $3~k\Omega$ -->
     <g transform="translate(96.9233 134.848047)scale(0.125 -0.125)">
      <use xlink:href="#STIXGeneral-Regular-33" transform="translate(0 0.703125)"/>
      <use xlink:href="#STIXGeneral-Italic-6b" transform="translate(74.066405 0.703125)"/>
      <use xlink:href="#STIXGeneral-Regular-3a9" transform="translate(118.466399 0.703125)"/>
     </g>
    </g>
   </g>
   <g id="text_14">
    <g clip-path="url(#p7b1c99f777)">
     <!-- A -->
     <g transform="translate(62.185019 102.789219)scale(0.125 -0.125)">
      <use xlink:href="#DejaVuSans-41"/>
     </g>
    </g>
   </g>
   <g id="text_15">
    <g clip-path="url(#p7b1c99f777)">
     <!-- $10~V$ -->
     <g transform="translate(21.4758 163.989219)scale(0.125 -0.125)">
      <use xlink:href="#STIXGeneral-Regular-31" transform="translate(0 0.40625)"/>
      <use xlink:href="#STIXGeneral-Regular-30" transform="translate(49.999985 0.40625)"/>
      <use xlink:href="#STIXGeneral-Italic-56" transform="translate(124.066389 0.40625)"/>
     </g>
    </g>
   </g>
   <g id="text_16">
    <g clip-path="url(#p7b1c99f777)">
     <!-- - -->
     <g transform="translate(246.766034 191.911719)scale(0.125 -0.125)">
      <use xlink:href="#DejaVuSans-2d"/>
     </g>
    </g>
   </g>
   <g id="text_17">
    <g clip-path="url(#p7b1c99f777)">
     <!-- $V_O$ -->
     <g transform="translate(236.6508 173.934219)scale(0.125 -0.125)">
      <use xlink:href="#STIXGeneral-Italic-56" transform="translate(0 0.703125)"/>
      <use xlink:href="#STIXGeneral-Italic-4f" transform="translate(61.099991 -12.525)scale(0.7)"/>
     </g>
    </g>
   </g>
   <g id="text_18">
    <g clip-path="url(#p7b1c99f777)">
     <!-- + -->
     <g transform="translate(240.801191 155.956719)scale(0.125 -0.125)">
      <use xlink:href="#DejaVuSans-2b"/>
     </g>
    </g>
   </g>
   <g id="text_19">
    <g clip-path="url(#p7b1c99f777)">
     <!-- $5~k\Omega$ -->
     <g transform="translate(272.6958 173.934219)scale(0.125 -0.125)">
      <use xlink:href="#STIXGeneral-Regular-35" transform="translate(0 0.203125)"/>
      <use xlink:href="#STIXGeneral-Italic-6b" transform="translate(74.066405 0.203125)"/>
      <use xlink:href="#STIXGeneral-Regular-3a9" transform="translate(118.466399 0.203125)"/>
     </g>
    </g>
   </g>
   <g id="text_20">
    <g clip-path="url(#p7b1c99f777)">
     <!-- $15~k\Omega$ -->
     <g transform="translate(193.2483 29.420391)scale(0.125 -0.125)">
      <use xlink:href="#STIXGeneral-Regular-31" transform="translate(0 0.203125)"/>
      <use xlink:href="#STIXGeneral-Regular-35" transform="translate(49.999985 0.203125)"/>
      <use xlink:href="#STIXGeneral-Italic-6b" transform="translate(124.066389 0.203125)"/>
      <use xlink:href="#STIXGeneral-Regular-3a9" transform="translate(168.466383 0.203125)"/>
     </g>
    </g>
   </g>
   <g id="patch_10">
    <path d="M 154.8858 116.935 
C 155.494441 116.935 156.078236 116.693184 156.50861 116.26281 
C 156.938984 115.832436 157.1808 115.248641 157.1808 114.64 
C 157.1808 114.031359 156.938984 113.447564 156.50861 113.01719 
C 156.078236 112.586816 155.494441 112.345 154.8858 112.345 
C 154.277159 112.345 153.693364 112.586816 153.26299 113.01719 
C 152.832616 113.447564 152.5908 114.031359 152.5908 114.64 
C 152.5908 115.248641 152.832616 115.832436 153.26299 116.26281 
C 153.693364 116.693184 154.277159 116.935 154.8858 116.935 
z
" clip-path="url(#p7b1c99f777)" style="fill: #ff0000; stroke: #ff0000; stroke-width: 2; stroke-linejoin: miter"/>
   </g>
   <g id="patch_11">
    <path d="M 63.0858 116.935 
C 63.694441 116.935 64.278236 116.693184 64.70861 116.26281 
C 65.138984 115.832436 65.3808 115.248641 65.3808 114.64 
C 65.3808 114.031359 65.138984 113.447564 64.70861 113.01719 
C 64.278236 112.586816 63.694441 112.345 63.0858 112.345 
C 62.477159 112.345 61.893364 112.586816 61.46299 113.01719 
C 61.032616 113.447564 60.7908 114.031359 60.7908 114.64 
C 60.7908 115.248641 61.032616 115.832436 61.46299 116.26281 
C 61.893364 116.693184 62.477159 116.935 63.0858 116.935 
z
" clip-path="url(#p7b1c99f777)" style="fill: #ff0000; stroke: #ff0000; stroke-width: 2; stroke-linejoin: miter"/>
   </g>
   <g id="patch_12">
    <path d="M 261.9858 136.825 
C 262.594441 136.825 263.178236 136.583184 263.60861 136.15281 
C 264.038984 135.722436 264.2808 135.138641 264.2808 134.53 
C 264.2808 133.921359 264.038984 133.337564 263.60861 132.90719 
C 263.178236 132.476816 262.594441 132.235 261.9858 132.235 
C 261.377159 132.235 260.793364 132.476816 260.36299 132.90719 
C 259.932616 133.337564 259.6908 133.921359 259.6908 134.53 
C 259.6908 135.138641 259.932616 135.722436 260.36299 136.15281 
C 260.793364 136.583184 261.377159 136.825 261.9858 136.825 
z
" clip-path="url(#p7b1c99f777)" style="fill: #ff0000; stroke: #ff0000; stroke-width: 2; stroke-linejoin: miter"/>
   </g>
   <g id="patch_13">
    <path d="M 154.8858 116.935 
C 155.494441 116.935 156.078236 116.693184 156.50861 116.26281 
C 156.938984 115.832436 157.1808 115.248641 157.1808 114.64 
C 157.1808 114.031359 156.938984 113.447564 156.50861 113.01719 
C 156.078236 112.586816 155.494441 112.345 154.8858 112.345 
C 154.277159 112.345 153.693364 112.586816 153.26299 113.01719 
C 152.832616 113.447564 152.5908 114.031359 152.5908 114.64 
C 152.5908 115.248641 152.832616 115.832436 153.26299 116.26281 
C 153.693364 116.693184 154.277159 116.935 154.8858 116.935 
z
" clip-path="url(#p7b1c99f777)" style="fill: #ff0000; stroke: #ff0000; stroke-width: 2; stroke-linejoin: miter"/>
   </g>
   <g id="patch_14">
    <path d="M 63.0858 116.935 
C 63.694441 116.935 64.278236 116.693184 64.70861 116.26281 
C 65.138984 115.832436 65.3808 115.248641 65.3808 114.64 
C 65.3808 114.031359 65.138984 113.447564 64.70861 113.01719 
C 64.278236 112.586816 63.694441 112.345 63.0858 112.345 
C 62.477159 112.345 61.893364 112.586816 61.46299 113.01719 
C 61.032616 113.447564 60.7908 114.031359 60.7908 114.64 
C 60.7908 115.248641 61.032616 115.832436 61.46299 116.26281 
C 61.893364 116.693184 62.477159 116.935 63.0858 116.935 
z
" clip-path="url(#p7b1c99f777)" style="fill: #ff0000; stroke: #ff0000; stroke-width: 2; stroke-linejoin: miter"/>
   </g>
   <g id="patch_15">
    <path d="M 261.9858 136.825 
C 262.594441 136.825 263.178236 136.583184 263.60861 136.15281 
C 264.038984 135.722436 264.2808 135.138641 264.2808 134.53 
C 264.2808 133.921359 264.038984 133.337564 263.60861 132.90719 
C 263.178236 132.476816 262.594441 132.235 261.9858 132.235 
C 261.377159 132.235 260.793364 132.476816 260.36299 132.90719 
C 259.932616 133.337564 259.6908 133.921359 259.6908 134.53 
C 259.6908 135.138641 259.932616 135.722436 260.36299 136.15281 
C 260.793364 136.583184 261.377159 136.825 261.9858 136.825 
z
" clip-path="url(#p7b1c99f777)" style="fill: #ff0000; stroke: #ff0000; stroke-width: 2; stroke-linejoin: miter"/>
   </g>
  </g>
 </g>
 <defs>
  <clipPath id="p7b1c99f777">
   <rect x="7.2" y="7.2" width="310.4268" height="222.19"/>
  </clipPath>
 </defs>
</svg>
