<?xml version="1.0" encoding="utf-8" standalone="no"?>
<!DOCTYPE svg PUBLIC "-//W3C//DTD SVG 1.1//EN"
  "http://www.w3.org/Graphics/SVG/1.1/DTD/svg11.dtd">
<svg xmlns:xlink="http://www.w3.org/1999/xlink" width="150.1518pt" height="112.32pt" viewBox="0 0 150.1518 112.32" xmlns="http://www.w3.org/2000/svg" version="1.1">
 <metadata>
  <rdf:RDF xmlns:dc="http://purl.org/dc/elements/1.1/" xmlns:cc="http://creativecommons.org/ns#" xmlns:rdf="http://www.w3.org/1999/02/22-rdf-syntax-ns#">
   <cc:Work>
    <dc:type rdf:resource="http://purl.org/dc/dcmitype/StillImage"/>
    <dc:date>2023-02-10T13:23:03.977053</dc:date>
    <dc:format>image/svg+xml</dc:format>
    <dc:creator>
     <cc:Agent>
      <dc:title>Matplotlib v3.5.2, https://matplotlib.org/</dc:title>
     </cc:Agent>
    </dc:creator>
   </cc:Work>
  </rdf:RDF>
 </metadata>
 <defs>
  <style type="text/css">*{stroke-linejoin: round; stroke-linecap: butt}</style>
 </defs>
 <g id="figure_1">
  <g id="patch_1">
   <path d="M 0 112.32 
L 1 112.351436 
L 2 112.388377 
L 3 112.486123 
L 4 112.518645 
L 5 112.59227 
L 6 112.630835 
L 7 112.666248 
L 8 112.723888 
L 9 112.794274 
L 10 112.846239 
L 11 112.905328 
L 12 112.993649 
L 13 113.039794 
L 14 113.082205 
L 15 113.112697 
L 16 113.138742 
L 17 113.159942 
L 18 113.214243 
L 19 113.242181 
L 20 113.271905 
L 21 113.2973 
L 22 113.3085 
L 23 113.318624 
L 24 113.31842 
L 25 113.30891 
L 26 113.297256 
L 27 113.266227 
L 28 113.255059 
L 29 113.224942 
L 30 113.165165 
L 31 113.127973 
L 32 113.088877 
L 33 113.046437 
L 34 113.013672 
L 35 112.946246 
L 36 112.90712 
L 37 112.864445 
L 38 112.793865 
L 39 112.757474 
L 40 112.699071 
L 41 112.588118 
L 42 112.51746 
L 43 112.40452 
L 44 112.358747 
L 45 112.297464 
L 46 112.248965 
L 47 112.168142 
L 48 112.049623 
L 49 111.979412 
L 50 111.89615 
L 51 111.863008 
L 52 111.811771 
L 53 111.743372 
L 54 111.677157 
L 55 111.60024 
L 56 111.572924 
L 57 111.546447 
L 58 111.523796 
L 59 111.504265 
L 60 111.477871 
L 61 111.4281 
L 62 111.393027 
L 63 111.357161 
L 64 111.341794 
L 65 111.326025 
L 66 111.322612 
L 67 111.320195 
L 68 111.320681 
L 69 111.32261 
L 70 111.335867 
L 71 111.344258 
L 72 111.365794 
L 73 111.388827 
L 74 111.40606 
L 75 111.424523 
L 76 111.444975 
L 77 111.461575 
L 78 111.524354 
L 79 111.599619 
L 80 111.632258 
L 81 111.699822 
L 82 111.753869 
L 83 111.787573 
L 84 111.877699 
L 85 111.906234 
L 86 111.93772 
L 87 111.968731 
L 88 112.023539 
L 89 112.088126 
L 90 112.126322 
L 91 112.222256 
L 92 112.271514 
L 93 112.315583 
L 94 112.355707 
L 95 112.464074 
L 96 112.505702 
L 97 112.567844 
L 98 112.637806 
L 99 112.74231 
L 100 112.779298 
L 101 112.825175 
L 102 112.89367 
L 103 112.942416 
L 104 113.020013 
L 105 113.050554 
L 106 113.120068 
L 107 113.144041 
L 108 113.172663 
L 109 113.214456 
L 110 113.236032 
L 111 113.24998 
L 112 113.276702 
L 113 113.286012 
L 114 113.298459 
L 115 113.309514 
L 116 113.315178 
L 117 113.319942 
L 118 113.314394 
L 119 113.301106 
L 120 113.293589 
L 121 113.268804 
L 122 113.245235 
L 123 113.209055 
L 124 113.183093 
L 125 113.160771 
L 126 113.092011 
L 127 113.017476 
L 128 112.923497 
L 129 112.872445 
L 130 112.818511 
L 131 112.78326 
L 132 112.677172 
L 133 112.624908 
L 134 112.588001 
L 135 112.55697 
L 136 112.495815 
L 137 112.428395 
L 138 112.379489 
L 139 112.314297 
L 140 112.276109 
L 141 112.234113 
L 142 112.192096 
L 143 112.13258 
L 144 112.01942 
L 145 111.967169 
L 146 111.927751 
L 147 111.88065 
L 148 111.82387 
L 149 111.791207 
L 150.1518 111.755029 
L 149.554739 111.32 
L 149.520459 110.32 
L 149.462081 109.32 
L 149.416896 108.32 
L 149.387272 107.32 
L 149.336886 106.32 
L 149.311689 105.32 
L 149.290638 104.32 
L 149.25567 103.32 
L 149.23138 102.32 
L 149.217313 101.32 
L 149.198371 100.32 
L 149.18271 99.32 
L 149.170158 98.32 
L 149.164322 97.32 
L 149.15744 96.32 
L 149.152266 95.32 
L 149.154049 94.32 
L 149.156774 93.32 
L 149.167928 92.32 
L 149.196163 91.32 
L 149.239951 90.32 
L 149.26064 89.32 
L 149.301613 88.32 
L 149.341688 87.32 
L 149.360798 86.32 
L 149.383307 85.32 
L 149.449958 84.32 
L 149.499668 83.32 
L 149.573374 82.32 
L 149.604688 81.32 
L 149.68131 80.32 
L 149.719608 79.32 
L 149.793725 78.32 
L 149.897783 77.32 
L 149.967614 76.32 
L 150.072848 75.32 
L 150.127863 74.32 
L 150.251338 73.32 
L 150.321897 72.32 
L 150.437736 71.32 
L 150.487917 70.32 
L 150.523521 69.32 
L 150.614928 68.32 
L 150.668436 67.32 
L 150.756344 66.32 
L 150.825529 65.32 
L 150.872293 64.32 
L 150.944337 63.32 
L 150.994479 62.32 
L 151.011869 61.32 
L 151.038872 60.32 
L 151.058299 59.32 
L 151.077637 58.32 
L 151.115886 57.32 
L 151.132319 56.32 
L 151.140688 55.32 
L 151.145007 54.32 
L 151.151562 53.32 
L 151.149016 52.32 
L 151.143557 51.32 
L 151.127129 50.32 
L 151.095194 49.32 
L 151.057214 48.32 
L 151.02241 47.32 
L 150.959338 46.32 
L 150.937911 45.32 
L 150.887293 44.32 
L 150.862336 43.32 
L 150.806702 42.32 
L 150.775473 41.32 
L 150.725329 40.32 
L 150.692836 39.32 
L 150.612424 38.32 
L 150.543498 37.32 
L 150.427801 36.32 
L 150.352322 35.32 
L 150.236797 34.32 
L 150.157313 33.32 
L 150.048872 32.32 
L 150.009504 31.32 
L 149.906636 30.32 
L 149.806838 29.32 
L 149.761341 28.32 
L 149.727019 27.32 
L 149.675063 26.32 
L 149.635416 25.32 
L 149.599902 24.32 
L 149.532257 23.32 
L 149.493175 22.32 
L 149.442694 21.32 
L 149.393388 20.32 
L 149.342318 19.32 
L 149.298079 18.32 
L 149.276059 17.32 
L 149.260503 16.32 
L 149.218056 15.32 
L 149.203188 14.32 
L 149.18046 13.32 
L 149.160144 12.32 
L 149.154347 11.32 
L 149.151865 10.32 
L 149.154922 9.32 
L 149.166518 8.32 
L 149.183438 7.32 
L 149.215099 6.32 
L 149.229182 5.32 
L 149.281854 4.32 
L 149.330943 3.32 
L 149.385644 2.32 
L 149.429992 1.32 
L 149.499984 0 
L 149.1518 0.601433 
L 148.1518 0.547526 
L 147.1518 0.478087 
L 146.1518 0.420699 
L 145.1518 0.370534 
L 144.1518 0.293372 
L 143.1518 0.235182 
L 142.1518 0.174544 
L 141.1518 0.137343 
L 140.1518 0.072251 
L 139.1518 -0.032879 
L 138.1518 -0.093181 
L 137.1518 -0.189503 
L 136.1518 -0.221506 
L 135.1518 -0.272523 
L 134.1518 -0.389315 
L 133.1518 -0.424762 
L 132.1518 -0.480642 
L 131.1518 -0.511018 
L 130.1518 -0.599404 
L 129.1518 -0.644168 
L 128.1518 -0.725056 
L 127.1518 -0.785202 
L 126.1518 -0.848288 
L 125.1518 -0.871236 
L 124.1518 -0.887406 
L 123.1518 -0.916335 
L 122.1518 -0.946687 
L 121.1518 -0.959261 
L 120.1518 -0.98414 
L 119.1518 -0.996224 
L 118.1518 -0.999986 
L 117.1518 -0.99555 
L 116.1518 -0.983211 
L 115.1518 -0.968798 
L 114.1518 -0.952725 
L 113.1518 -0.917204 
L 112.1518 -0.89727 
L 111.1518 -0.840681 
L 110.1518 -0.773487 
L 109.1518 -0.746117 
L 108.1518 -0.711969 
L 107.1518 -0.663289 
L 106.1518 -0.615004 
L 105.1518 -0.555927 
L 104.1518 -0.460322 
L 103.1518 -0.417182 
L 102.1518 -0.367334 
L 101.1518 -0.3088 
L 100.1518 -0.261214 
L 99.1518 -0.200086 
L 98.1518 -0.144001 
L 97.1518 -0.06983 
L 96.1518 0.047408 
L 95.1518 0.103132 
L 94.1518 0.211358 
L 93.1518 0.317508 
L 92.1518 0.42508 
L 91.1518 0.459588 
L 90.1518 0.562895 
L 89.1518 0.638619 
L 88.1518 0.678054 
L 87.1518 0.717438 
L 86.1518 0.73992 
L 85.1518 0.795733 
L 84.1518 0.821785 
L 83.1518 0.85202 
L 82.1518 0.902791 
L 81.1518 0.921442 
L 80.1518 0.943151 
L 79.1518 0.955797 
L 78.1518 0.97479 
L 77.1518 0.99218 
L 76.1518 0.999218 
L 75.1518 0.998194 
L 74.1518 0.99119 
L 73.1518 0.98182 
L 72.1518 0.958422 
L 71.1518 0.933339 
L 70.1518 0.92094 
L 69.1518 0.887847 
L 68.1518 0.87148 
L 67.1518 0.853075 
L 66.1518 0.803938 
L 65.1518 0.760125 
L 64.1518 0.71704 
L 63.1518 0.694099 
L 62.1518 0.653836 
L 61.1518 0.568976 
L 60.1518 0.526584 
L 59.1518 0.462198 
L 58.1518 0.417909 
L 57.1518 0.310063 
L 56.1518 0.233123 
L 55.1518 0.196681 
L 54.1518 0.141794 
L 53.1518 0.066693 
L 52.1518 0.008098 
L 51.1518 -0.028477 
L 50.1518 -0.140524 
L 49.1518 -0.202209 
L 48.1518 -0.252729 
L 47.1518 -0.351514 
L 46.1518 -0.389536 
L 45.1518 -0.424984 
L 44.1518 -0.516618 
L 43.1518 -0.55989 
L 42.1518 -0.613219 
L 41.1518 -0.646084 
L 40.1518 -0.708978 
L 39.1518 -0.762832 
L 38.1518 -0.819958 
L 37.1518 -0.842048 
L 36.1518 -0.885787 
L 35.1518 -0.932881 
L 34.1518 -0.949728 
L 33.1518 -0.977802 
L 32.1518 -0.988798 
L 31.1518 -0.993367 
L 30.1518 -0.999015 
L 29.1518 -0.999066 
L 28.1518 -0.995976 
L 27.1518 -0.992463 
L 26.1518 -0.986641 
L 25.1518 -0.973789 
L 24.1518 -0.950164 
L 23.1518 -0.93528 
L 22.1518 -0.911708 
L 21.1518 -0.875389 
L 20.1518 -0.843806 
L 19.1518 -0.813913 
L 18.1518 -0.735221 
L 17.1518 -0.69867 
L 16.1518 -0.672947 
L 15.1518 -0.602274 
L 14.1518 -0.511172 
L 13.1518 -0.449215 
L 12.1518 -0.415602 
L 11.1518 -0.381102 
L 10.1518 -0.283662 
L 9.1518 -0.236072 
L 8.1518 -0.204566 
L 7.1518 -0.160881 
L 6.1518 -0.090712 
L 5.1518 -0.040845 
L 4.1518 -0.006168 
L 3.1518 0.10348 
L 2.1518 0.136951 
L 1.1518 0.174293 
L 0 0.254538 
L 0.293032 1 
L 0.334809 2 
L 0.377234 3 
L 0.486962 4 
L 0.575247 5 
L 0.649893 6 
L 0.73835 7 
L 0.812412 8 
L 0.861577 9 
L 0.917194 10 
L 0.951894 11 
L 0.963765 12 
L 0.985988 13 
L 0.997967 14 
L 0.999719 15 
L 0.994302 16 
L 0.978104 17 
L 0.961604 18 
L 0.930421 19 
L 0.917056 20 
L 0.887413 21 
L 0.82439 22 
L 0.775069 23 
L 0.72898 24 
L 0.646753 25 
L 0.60085 26 
L 0.566525 27 
L 0.512986 28 
L 0.424099 29 
L 0.392961 30 
L 0.284912 31 
L 0.17284 32 
L 0.137402 33 
L 0.052616 34 
L -0.012991 35 
L -0.115045 36 
L -0.23126 37 
L -0.271951 38 
L -0.31304 39 
L -0.349681 40 
L -0.390677 41 
L -0.466746 42 
L -0.542812 43 
L -0.5735 44 
L -0.599991 45 
L -0.656572 46 
L -0.701088 47 
L -0.731106 48 
L -0.758162 49 
L -0.800727 50 
L -0.853592 51 
L -0.884513 52 
L -0.910788 53 
L -0.925721 54 
L -0.95601 55 
L -0.977339 56 
L -0.994228 57 
L -0.998943 58 
L -0.999553 59 
L -0.997507 60 
L -0.991646 61 
L -0.972999 62 
L -0.940942 63 
L -0.894502 64 
L -0.852556 65 
L -0.785851 66 
L -0.716785 67 
L -0.66941 68 
L -0.617891 69 
L -0.578191 70 
L -0.508771 71 
L -0.44224 72 
L -0.333331 73 
L -0.268083 74 
L -0.159875 75 
L -0.098871 76 
L -0.050186 77 
L 0.026048 78 
L 0.085579 79 
L 0.160207 80 
L 0.279034 81 
L 0.376979 82 
L 0.456027 83 
L 0.501774 84 
L 0.529046 85 
L 0.572708 86 
L 0.621292 87 
L 0.653026 88 
L 0.733256 89 
L 0.799749 90 
L 0.823774 91 
L 0.884273 92 
L 0.906505 93 
L 0.925105 94 
L 0.954431 95 
L 0.970132 96 
L 0.978431 97 
L 0.988667 98 
L 0.99901 99 
L 0.998332 100 
L 0.994552 101 
L 0.978111 102 
L 0.965977 103 
L 0.955382 104 
L 0.924005 105 
L 0.898232 106 
L 0.866823 107 
L 0.844014 108 
L 0.82642 109 
L 0.776608 110 
L 0.728948 111 
L 0.657239 112.32 
L 0 112.32 
z
" style="fill: none; stroke: #ffffff; stroke-width: 4; stroke-linejoin: miter"/>
   <path d="M 0 112.32 
L 1 112.351436 
L 2 112.388377 
L 3 112.486123 
L 4 112.518645 
L 5 112.59227 
L 6 112.630835 
L 7 112.666248 
L 8 112.723888 
L 9 112.794274 
L 10 112.846239 
L 11 112.905328 
L 12 112.993649 
L 13 113.039794 
L 14 113.082205 
L 15 113.112697 
L 16 113.138742 
L 17 113.159942 
L 18 113.214243 
L 19 113.242181 
L 20 113.271905 
L 21 113.2973 
L 22 113.3085 
L 23 113.318624 
L 24 113.31842 
L 25 113.30891 
L 26 113.297256 
L 27 113.266227 
L 28 113.255059 
L 29 113.224942 
L 30 113.165165 
L 31 113.127973 
L 32 113.088877 
L 33 113.046437 
L 34 113.013672 
L 35 112.946246 
L 36 112.90712 
L 37 112.864445 
L 38 112.793865 
L 39 112.757474 
L 40 112.699071 
L 41 112.588118 
L 42 112.51746 
L 43 112.40452 
L 44 112.358747 
L 45 112.297464 
L 46 112.248965 
L 47 112.168142 
L 48 112.049623 
L 49 111.979412 
L 50 111.89615 
L 51 111.863008 
L 52 111.811771 
L 53 111.743372 
L 54 111.677157 
L 55 111.60024 
L 56 111.572924 
L 57 111.546447 
L 58 111.523796 
L 59 111.504265 
L 60 111.477871 
L 61 111.4281 
L 62 111.393027 
L 63 111.357161 
L 64 111.341794 
L 65 111.326025 
L 66 111.322612 
L 67 111.320195 
L 68 111.320681 
L 69 111.32261 
L 70 111.335867 
L 71 111.344258 
L 72 111.365794 
L 73 111.388827 
L 74 111.40606 
L 75 111.424523 
L 76 111.444975 
L 77 111.461575 
L 78 111.524354 
L 79 111.599619 
L 80 111.632258 
L 81 111.699822 
L 82 111.753869 
L 83 111.787573 
L 84 111.877699 
L 85 111.906234 
L 86 111.93772 
L 87 111.968731 
L 88 112.023539 
L 89 112.088126 
L 90 112.126322 
L 91 112.222256 
L 92 112.271514 
L 93 112.315583 
L 94 112.355707 
L 95 112.464074 
L 96 112.505702 
L 97 112.567844 
L 98 112.637806 
L 99 112.74231 
L 100 112.779298 
L 101 112.825175 
L 102 112.89367 
L 103 112.942416 
L 104 113.020013 
L 105 113.050554 
L 106 113.120068 
L 107 113.144041 
L 108 113.172663 
L 109 113.214456 
L 110 113.236032 
L 111 113.24998 
L 112 113.276702 
L 113 113.286012 
L 114 113.298459 
L 115 113.309514 
L 116 113.315178 
L 117 113.319942 
L 118 113.314394 
L 119 113.301106 
L 120 113.293589 
L 121 113.268804 
L 122 113.245235 
L 123 113.209055 
L 124 113.183093 
L 125 113.160771 
L 126 113.092011 
L 127 113.017476 
L 128 112.923497 
L 129 112.872445 
L 130 112.818511 
L 131 112.78326 
L 132 112.677172 
L 133 112.624908 
L 134 112.588001 
L 135 112.55697 
L 136 112.495815 
L 137 112.428395 
L 138 112.379489 
L 139 112.314297 
L 140 112.276109 
L 141 112.234113 
L 142 112.192096 
L 143 112.13258 
L 144 112.01942 
L 145 111.967169 
L 146 111.927751 
L 147 111.88065 
L 148 111.82387 
L 149 111.791207 
L 150.1518 111.755029 
L 149.554739 111.32 
L 149.520459 110.32 
L 149.462081 109.32 
L 149.416896 108.32 
L 149.387272 107.32 
L 149.336886 106.32 
L 149.311689 105.32 
L 149.290638 104.32 
L 149.25567 103.32 
L 149.23138 102.32 
L 149.217313 101.32 
L 149.198371 100.32 
L 149.18271 99.32 
L 149.170158 98.32 
L 149.164322 97.32 
L 149.15744 96.32 
L 149.152266 95.32 
L 149.154049 94.32 
L 149.156774 93.32 
L 149.167928 92.32 
L 149.196163 91.32 
L 149.239951 90.32 
L 149.26064 89.32 
L 149.301613 88.32 
L 149.341688 87.32 
L 149.360798 86.32 
L 149.383307 85.32 
L 149.449958 84.32 
L 149.499668 83.32 
L 149.573374 82.32 
L 149.604688 81.32 
L 149.68131 80.32 
L 149.719608 79.32 
L 149.793725 78.32 
L 149.897783 77.32 
L 149.967614 76.32 
L 150.072848 75.32 
L 150.127863 74.32 
L 150.251338 73.32 
L 150.321897 72.32 
L 150.437736 71.32 
L 150.487917 70.32 
L 150.523521 69.32 
L 150.614928 68.32 
L 150.668436 67.32 
L 150.756344 66.32 
L 150.825529 65.32 
L 150.872293 64.32 
L 150.944337 63.32 
L 150.994479 62.32 
L 151.011869 61.32 
L 151.038872 60.32 
L 151.058299 59.32 
L 151.077637 58.32 
L 151.115886 57.32 
L 151.132319 56.32 
L 151.140688 55.32 
L 151.145007 54.32 
L 151.151562 53.32 
L 151.149016 52.32 
L 151.143557 51.32 
L 151.127129 50.32 
L 151.095194 49.32 
L 151.057214 48.32 
L 151.02241 47.32 
L 150.959338 46.32 
L 150.937911 45.32 
L 150.887293 44.32 
L 150.862336 43.32 
L 150.806702 42.32 
L 150.775473 41.32 
L 150.725329 40.32 
L 150.692836 39.32 
L 150.612424 38.32 
L 150.543498 37.32 
L 150.427801 36.32 
L 150.352322 35.32 
L 150.236797 34.32 
L 150.157313 33.32 
L 150.048872 32.32 
L 150.009504 31.32 
L 149.906636 30.32 
L 149.806838 29.32 
L 149.761341 28.32 
L 149.727019 27.32 
L 149.675063 26.32 
L 149.635416 25.32 
L 149.599902 24.32 
L 149.532257 23.32 
L 149.493175 22.32 
L 149.442694 21.32 
L 149.393388 20.32 
L 149.342318 19.32 
L 149.298079 18.32 
L 149.276059 17.32 
L 149.260503 16.32 
L 149.218056 15.32 
L 149.203188 14.32 
L 149.18046 13.32 
L 149.160144 12.32 
L 149.154347 11.32 
L 149.151865 10.32 
L 149.154922 9.32 
L 149.166518 8.32 
L 149.183438 7.32 
L 149.215099 6.32 
L 149.229182 5.32 
L 149.281854 4.32 
L 149.330943 3.32 
L 149.385644 2.32 
L 149.429992 1.32 
L 149.499984 0 
L 149.1518 0.601433 
L 148.1518 0.547526 
L 147.1518 0.478087 
L 146.1518 0.420699 
L 145.1518 0.370534 
L 144.1518 0.293372 
L 143.1518 0.235182 
L 142.1518 0.174544 
L 141.1518 0.137343 
L 140.1518 0.072251 
L 139.1518 -0.032879 
L 138.1518 -0.093181 
L 137.1518 -0.189503 
L 136.1518 -0.221506 
L 135.1518 -0.272523 
L 134.1518 -0.389315 
L 133.1518 -0.424762 
L 132.1518 -0.480642 
L 131.1518 -0.511018 
L 130.1518 -0.599404 
L 129.1518 -0.644168 
L 128.1518 -0.725056 
L 127.1518 -0.785202 
L 126.1518 -0.848288 
L 125.1518 -0.871236 
L 124.1518 -0.887406 
L 123.1518 -0.916335 
L 122.1518 -0.946687 
L 121.1518 -0.959261 
L 120.1518 -0.98414 
L 119.1518 -0.996224 
L 118.1518 -0.999986 
L 117.1518 -0.99555 
L 116.1518 -0.983211 
L 115.1518 -0.968798 
L 114.1518 -0.952725 
L 113.1518 -0.917204 
L 112.1518 -0.89727 
L 111.1518 -0.840681 
L 110.1518 -0.773487 
L 109.1518 -0.746117 
L 108.1518 -0.711969 
L 107.1518 -0.663289 
L 106.1518 -0.615004 
L 105.1518 -0.555927 
L 104.1518 -0.460322 
L 103.1518 -0.417182 
L 102.1518 -0.367334 
L 101.1518 -0.3088 
L 100.1518 -0.261214 
L 99.1518 -0.200086 
L 98.1518 -0.144001 
L 97.1518 -0.06983 
L 96.1518 0.047408 
L 95.1518 0.103132 
L 94.1518 0.211358 
L 93.1518 0.317508 
L 92.1518 0.42508 
L 91.1518 0.459588 
L 90.1518 0.562895 
L 89.1518 0.638619 
L 88.1518 0.678054 
L 87.1518 0.717438 
L 86.1518 0.73992 
L 85.1518 0.795733 
L 84.1518 0.821785 
L 83.1518 0.85202 
L 82.1518 0.902791 
L 81.1518 0.921442 
L 80.1518 0.943151 
L 79.1518 0.955797 
L 78.1518 0.97479 
L 77.1518 0.99218 
L 76.1518 0.999218 
L 75.1518 0.998194 
L 74.1518 0.99119 
L 73.1518 0.98182 
L 72.1518 0.958422 
L 71.1518 0.933339 
L 70.1518 0.92094 
L 69.1518 0.887847 
L 68.1518 0.87148 
L 67.1518 0.853075 
L 66.1518 0.803938 
L 65.1518 0.760125 
L 64.1518 0.71704 
L 63.1518 0.694099 
L 62.1518 0.653836 
L 61.1518 0.568976 
L 60.1518 0.526584 
L 59.1518 0.462198 
L 58.1518 0.417909 
L 57.1518 0.310063 
L 56.1518 0.233123 
L 55.1518 0.196681 
L 54.1518 0.141794 
L 53.1518 0.066693 
L 52.1518 0.008098 
L 51.1518 -0.028477 
L 50.1518 -0.140524 
L 49.1518 -0.202209 
L 48.1518 -0.252729 
L 47.1518 -0.351514 
L 46.1518 -0.389536 
L 45.1518 -0.424984 
L 44.1518 -0.516618 
L 43.1518 -0.55989 
L 42.1518 -0.613219 
L 41.1518 -0.646084 
L 40.1518 -0.708978 
L 39.1518 -0.762832 
L 38.1518 -0.819958 
L 37.1518 -0.842048 
L 36.1518 -0.885787 
L 35.1518 -0.932881 
L 34.1518 -0.949728 
L 33.1518 -0.977802 
L 32.1518 -0.988798 
L 31.1518 -0.993367 
L 30.1518 -0.999015 
L 29.1518 -0.999066 
L 28.1518 -0.995976 
L 27.1518 -0.992463 
L 26.1518 -0.986641 
L 25.1518 -0.973789 
L 24.1518 -0.950164 
L 23.1518 -0.93528 
L 22.1518 -0.911708 
L 21.1518 -0.875389 
L 20.1518 -0.843806 
L 19.1518 -0.813913 
L 18.1518 -0.735221 
L 17.1518 -0.69867 
L 16.1518 -0.672947 
L 15.1518 -0.602274 
L 14.1518 -0.511172 
L 13.1518 -0.449215 
L 12.1518 -0.415602 
L 11.1518 -0.381102 
L 10.1518 -0.283662 
L 9.1518 -0.236072 
L 8.1518 -0.204566 
L 7.1518 -0.160881 
L 6.1518 -0.090712 
L 5.1518 -0.040845 
L 4.1518 -0.006168 
L 3.1518 0.10348 
L 2.1518 0.136951 
L 1.1518 0.174293 
L 0 0.254538 
L 0.293032 1 
L 0.334809 2 
L 0.377234 3 
L 0.486962 4 
L 0.575247 5 
L 0.649893 6 
L 0.73835 7 
L 0.812412 8 
L 0.861577 9 
L 0.917194 10 
L 0.951894 11 
L 0.963765 12 
L 0.985988 13 
L 0.997967 14 
L 0.999719 15 
L 0.994302 16 
L 0.978104 17 
L 0.961604 18 
L 0.930421 19 
L 0.917056 20 
L 0.887413 21 
L 0.82439 22 
L 0.775069 23 
L 0.72898 24 
L 0.646753 25 
L 0.60085 26 
L 0.566525 27 
L 0.512986 28 
L 0.424099 29 
L 0.392961 30 
L 0.284912 31 
L 0.17284 32 
L 0.137402 33 
L 0.052616 34 
L -0.012991 35 
L -0.115045 36 
L -0.23126 37 
L -0.271951 38 
L -0.31304 39 
L -0.349681 40 
L -0.390677 41 
L -0.466746 42 
L -0.542812 43 
L -0.5735 44 
L -0.599991 45 
L -0.656572 46 
L -0.701088 47 
L -0.731106 48 
L -0.758162 49 
L -0.800727 50 
L -0.853592 51 
L -0.884513 52 
L -0.910788 53 
L -0.925721 54 
L -0.95601 55 
L -0.977339 56 
L -0.994228 57 
L -0.998943 58 
L -0.999553 59 
L -0.997507 60 
L -0.991646 61 
L -0.972999 62 
L -0.940942 63 
L -0.894502 64 
L -0.852556 65 
L -0.785851 66 
L -0.716785 67 
L -0.66941 68 
L -0.617891 69 
L -0.578191 70 
L -0.508771 71 
L -0.44224 72 
L -0.333331 73 
L -0.268083 74 
L -0.159875 75 
L -0.098871 76 
L -0.050186 77 
L 0.026048 78 
L 0.085579 79 
L 0.160207 80 
L 0.279034 81 
L 0.376979 82 
L 0.456027 83 
L 0.501774 84 
L 0.529046 85 
L 0.572708 86 
L 0.621292 87 
L 0.653026 88 
L 0.733256 89 
L 0.799749 90 
L 0.823774 91 
L 0.884273 92 
L 0.906505 93 
L 0.925105 94 
L 0.954431 95 
L 0.970132 96 
L 0.978431 97 
L 0.988667 98 
L 0.99901 99 
L 0.998332 100 
L 0.994552 101 
L 0.978111 102 
L 0.965977 103 
L 0.955382 104 
L 0.924005 105 
L 0.898232 106 
L 0.866823 107 
L 0.844014 108 
L 0.82642 109 
L 0.776608 110 
L 0.728948 111 
L 0.657239 112.32 
L 0 112.32 
z
" style="fill: none"/>
   <g id="axes_1">
    <path d="M 40.4418 10.26 
L 40.410364 11.26 
L 40.373423 12.26 
L 40.275677 13.26 
L 40.243155 14.26 
L 40.16953 15.26 
L 40.130965 16.26 
L 40.095552 17.26 
L 40.037912 18.26 
L 39.967526 19.26 
L 39.915561 20.26 
L 39.856472 21.26 
L 39.768151 22.26 
L 39.722006 23.26 
L 39.679595 24.26 
L 39.649103 25.26 
L 39.623058 26.26 
L 39.601858 27.26 
L 39.547557 28.26 
L 39.519619 29.26 
L 39.489895 30.26 
L 39.4645 31.26 
L 39.4533 32.26 
L 39.443176 33.26 
L 39.44338 34.26 
L 39.45289 35.26 
L 39.464544 36.26 
L 39.495573 37.26 
L 39.506741 38.26 
L 39.536858 39.26 
L 39.596635 40.86 
L 41.13498 41.942738 
L 42.096026 42.221876 
L 43.05813 42.497842 
L 44.017175 42.782986 
L 44.98718 43.035248 
L 45.948236 43.314357 
L 46.910414 43.590101 
L 47.941951 43.859548 
L 47.004775 43.311204 
L 46.074561 43.682837 
L 45.160964 44.104324 
L 44.234625 44.487584 
L 43.321656 44.910956 
L 42.387447 45.270608 
L 41.458143 45.644974 
L 40.524797 46.007212 
L 39.601672 46.400115 
L 38.690468 46.82878 
L 37.763987 47.211615 
L 36.841634 47.606833 
L 35.903431 47.954501 
L 34.97095 48.319337 
L 34.043896 48.700453 
L 32.995085 49.119854 
L 33.968091 48.143403 
L 34.925413 48.433717 
L 35.882469 48.724826 
L 36.838315 49.019566 
L 37.793175 49.317265 
L 38.750204 49.608453 
L 39.714627 49.877464 
L 40.674401 50.160418 
L 41.634426 50.442621 
L 42.587969 50.74427 
L 43.541639 51.045538 
L 44.491401 51.358528 
L 45.440849 51.672462 
L 46.389379 51.989151 
L 47.337452 52.307209 
L 48.40301 52.67637 
L 47.451674 54.851898 
L 46.49618 55.147694 
L 45.540213 55.442072 
L 44.58608 55.74195 
L 43.631558 56.040663 
L 42.676407 56.337488 
L 41.722475 56.637968 
L 40.753939 56.894638 
L 39.781455 57.139463 
L 38.82245 57.424727 
L 37.852401 57.676858 
L 36.886627 57.941813 
L 35.927285 58.226065 
L 34.950102 58.456792 
L 33.992395 58.745949 
L 32.912687 59.072662 
L 33.851564 58.692985 
L 34.782916 59.061208 
L 35.711175 59.438709 
L 36.64778 59.791172 
L 37.566126 60.198411 
L 38.499232 60.561369 
L 39.43398 60.919404 
L 40.369975 61.273697 
L 41.284389 61.692731 
L 42.219909 62.04845 
L 43.148941 62.42363 
L 44.075501 62.80623 
L 44.991137 63.2216 
L 45.928123 63.572917 
L 46.862299 63.932668 
L 47.91039 64.354231 
L 46.946292 63.535753 
L 45.97307 63.778365 
L 45.014729 64.065619 
L 44.044063 64.3159 
L 43.087799 64.609385 
L 42.130065 64.89846 
L 41.168165 65.175039 
L 40.212659 65.470798 
L 39.259565 65.773794 
L 38.302431 66.06467 
L 37.350804 66.372066 
L 36.398185 66.676486 
L 35.446005 66.982226 
L 34.495531 67.29308 
L 33.545341 67.604788 
L 32.477345 67.966635 
L 33.43023 70.156987 
L 34.381291 70.466083 
L 35.337812 70.758798 
L 36.293948 71.052666 
L 37.254073 71.33457 
L 38.210966 71.626168 
L 39.166708 71.92122 
L 40.197669 72.192394 
L 39.744324 72.46 
L 39.838303 73.46 
L 39.889355 74.46 
L 39.943289 75.46 
L 39.97854 76.46 
L 40.084628 77.46 
L 40.136892 78.46 
L 40.173799 79.46 
L 40.20483 80.46 
L 40.265985 81.46 
L 40.333405 82.46 
L 40.382311 83.46 
L 40.447503 84.46 
L 40.485691 85.46 
L 40.527687 86.46 
L 40.569704 87.46 
L 40.62922 88.46 
L 40.74238 89.46 
L 40.794631 90.46 
L 40.834049 91.46 
L 40.88115 92.46 
L 40.93793 93.46 
L 40.970593 94.46 
L 41.006771 95.46 
L 41.038861 96.46 
L 41.073141 97.46 
L 41.131519 98.46 
L 41.176704 99.46 
L 41.206328 100.46 
L 41.256714 102.06 
" clip-path="url(#p1f534b46d5)" style="fill: none; stroke: #ffffff; stroke-width: 4; stroke-linecap: round"/>
    <path d="M 40.4418 10.26 
L 40.410364 11.26 
L 40.373423 12.26 
L 40.275677 13.26 
L 40.243155 14.26 
L 40.16953 15.26 
L 40.130965 16.26 
L 40.095552 17.26 
L 40.037912 18.26 
L 39.967526 19.26 
L 39.915561 20.26 
L 39.856472 21.26 
L 39.768151 22.26 
L 39.722006 23.26 
L 39.679595 24.26 
L 39.649103 25.26 
L 39.623058 26.26 
L 39.601858 27.26 
L 39.547557 28.26 
L 39.519619 29.26 
L 39.489895 30.26 
L 39.4645 31.26 
L 39.4533 32.26 
L 39.443176 33.26 
L 39.44338 34.26 
L 39.45289 35.26 
L 39.464544 36.26 
L 39.495573 37.26 
L 39.506741 38.26 
L 39.536858 39.26 
L 39.596635 40.86 
L 41.13498 41.942738 
L 42.096026 42.221876 
L 43.05813 42.497842 
L 44.017175 42.782986 
L 44.98718 43.035248 
L 45.948236 43.314357 
L 46.910414 43.590101 
L 47.941951 43.859548 
L 47.004775 43.311204 
L 46.074561 43.682837 
L 45.160964 44.104324 
L 44.234625 44.487584 
L 43.321656 44.910956 
L 42.387447 45.270608 
L 41.458143 45.644974 
L 40.524797 46.007212 
L 39.601672 46.400115 
L 38.690468 46.82878 
L 37.763987 47.211615 
L 36.841634 47.606833 
L 35.903431 47.954501 
L 34.97095 48.319337 
L 34.043896 48.700453 
L 32.995085 49.119854 
L 33.968091 48.143403 
L 34.925413 48.433717 
L 35.882469 48.724826 
L 36.838315 49.019566 
L 37.793175 49.317265 
L 38.750204 49.608453 
L 39.714627 49.877464 
L 40.674401 50.160418 
L 41.634426 50.442621 
L 42.587969 50.74427 
L 43.541639 51.045538 
L 44.491401 51.358528 
L 45.440849 51.672462 
L 46.389379 51.989151 
L 47.337452 52.307209 
L 48.40301 52.67637 
L 47.451674 54.851898 
L 46.49618 55.147694 
L 45.540213 55.442072 
L 44.58608 55.74195 
L 43.631558 56.040663 
L 42.676407 56.337488 
L 41.722475 56.637968 
L 40.753939 56.894638 
L 39.781455 57.139463 
L 38.82245 57.424727 
L 37.852401 57.676858 
L 36.886627 57.941813 
L 35.927285 58.226065 
L 34.950102 58.456792 
L 33.992395 58.745949 
L 32.912687 59.072662 
L 33.851564 58.692985 
L 34.782916 59.061208 
L 35.711175 59.438709 
L 36.64778 59.791172 
L 37.566126 60.198411 
L 38.499232 60.561369 
L 39.43398 60.919404 
L 40.369975 61.273697 
L 41.284389 61.692731 
L 42.219909 62.04845 
L 43.148941 62.42363 
L 44.075501 62.80623 
L 44.991137 63.2216 
L 45.928123 63.572917 
L 46.862299 63.932668 
L 47.91039 64.354231 
L 46.946292 63.535753 
L 45.97307 63.778365 
L 45.014729 64.065619 
L 44.044063 64.3159 
L 43.087799 64.609385 
L 42.130065 64.89846 
L 41.168165 65.175039 
L 40.212659 65.470798 
L 39.259565 65.773794 
L 38.302431 66.06467 
L 37.350804 66.372066 
L 36.398185 66.676486 
L 35.446005 66.982226 
L 34.495531 67.29308 
L 33.545341 67.604788 
L 32.477345 67.966635 
L 33.43023 70.156987 
L 34.381291 70.466083 
L 35.337812 70.758798 
L 36.293948 71.052666 
L 37.254073 71.33457 
L 38.210966 71.626168 
L 39.166708 71.92122 
L 40.197669 72.192394 
L 39.744324 72.46 
L 39.838303 73.46 
L 39.889355 74.46 
L 39.943289 75.46 
L 39.97854 76.46 
L 40.084628 77.46 
L 40.136892 78.46 
L 40.173799 79.46 
L 40.20483 80.46 
L 40.265985 81.46 
L 40.333405 82.46 
L 40.382311 83.46 
L 40.447503 84.46 
L 40.485691 85.46 
L 40.527687 86.46 
L 40.569704 87.46 
L 40.62922 88.46 
L 40.74238 89.46 
L 40.794631 90.46 
L 40.834049 91.46 
L 40.88115 92.46 
L 40.93793 93.46 
L 40.970593 94.46 
L 41.006771 95.46 
L 41.038861 96.46 
L 41.073141 97.46 
L 41.131519 98.46 
L 41.176704 99.46 
L 41.206328 100.46 
L 41.256714 102.06 
" clip-path="url(#p1f534b46d5)" style="fill: none; stroke: #000000; stroke-width: 2; stroke-linecap: round"/>
    <path d="M 40.4418 102.06 
L 41.4418 102.091436 
L 42.4418 102.128377 
L 43.4418 102.226123 
L 44.4418 102.258645 
L 45.4418 102.33227 
L 46.4418 102.370835 
L 47.4418 102.406248 
L 48.4418 102.463888 
L 49.4418 102.534274 
L 50.4418 102.586239 
L 51.4418 102.645328 
L 52.4418 102.733649 
L 53.4418 102.779794 
L 54.4418 102.822205 
L 55.4418 102.852697 
L 56.4418 102.878742 
L 57.4418 102.899942 
L 58.4418 102.954243 
L 59.4418 102.982181 
L 60.4418 103.011905 
L 61.4418 103.0373 
L 62.4418 103.0485 
L 63.4418 103.058624 
L 64.4418 103.05842 
L 65.4418 103.04891 
L 66.4418 103.037256 
L 67.4418 103.006227 
L 68.4418 102.995059 
L 69.4418 102.964942 
L 70.4418 102.905165 
L 71.4418 102.867973 
L 72.4418 102.828877 
L 73.4418 102.786437 
L 74.4418 102.753672 
L 75.4418 102.686246 
L 76.4418 102.64712 
L 77.4418 102.604445 
L 78.4418 102.533865 
L 79.4418 102.497474 
L 80.4418 102.439071 
L 81.4418 102.328118 
L 82.4418 102.25746 
L 83.4418 102.14452 
L 84.4418 102.098747 
L 86.3418 102.037464 
L 87.3418 101.988965 
L 88.3418 101.908142 
L 89.3418 101.789623 
L 90.3418 101.719412 
L 91.3418 101.63615 
L 92.3418 101.603008 
L 93.3418 101.551771 
L 94.3418 101.483372 
L 95.3418 101.417157 
L 96.3418 101.34024 
L 97.3418 101.312924 
L 98.3418 101.286447 
L 99.3418 101.263796 
L 100.3418 101.244265 
L 101.3418 101.217871 
L 102.3418 101.1681 
L 103.3418 101.133027 
L 104.3418 101.097161 
L 105.3418 101.081794 
L 106.3418 101.066025 
L 107.3418 101.062612 
L 108.3418 101.060195 
L 109.3418 101.060681 
L 110.3418 101.06261 
L 111.3418 101.075867 
L 112.3418 101.084258 
L 113.3418 101.105794 
L 114.3418 101.128827 
L 115.3418 101.14606 
L 116.3418 101.164523 
L 117.3418 101.184975 
L 118.3418 101.201575 
L 119.3418 101.264354 
L 120.3418 101.339619 
L 121.3418 101.372258 
L 122.3418 101.439822 
L 123.3418 101.493869 
L 124.3418 101.527573 
L 125.3418 101.617699 
L 126.3418 101.646234 
L 127.3418 101.67772 
L 128.3418 101.708731 
L 129.3418 101.763539 
L 130.3418 101.828126 
L 132.2418 101.866322 
" clip-path="url(#p1f534b46d5)" style="fill: none; stroke: #ffffff; stroke-width: 4; stroke-linecap: round"/>
    <path d="M 40.4418 102.06 
L 41.4418 102.091436 
L 42.4418 102.128377 
L 43.4418 102.226123 
L 44.4418 102.258645 
L 45.4418 102.33227 
L 46.4418 102.370835 
L 47.4418 102.406248 
L 48.4418 102.463888 
L 49.4418 102.534274 
L 50.4418 102.586239 
L 51.4418 102.645328 
L 52.4418 102.733649 
L 53.4418 102.779794 
L 54.4418 102.822205 
L 55.4418 102.852697 
L 56.4418 102.878742 
L 57.4418 102.899942 
L 58.4418 102.954243 
L 59.4418 102.982181 
L 60.4418 103.011905 
L 61.4418 103.0373 
L 62.4418 103.0485 
L 63.4418 103.058624 
L 64.4418 103.05842 
L 65.4418 103.04891 
L 66.4418 103.037256 
L 67.4418 103.006227 
L 68.4418 102.995059 
L 69.4418 102.964942 
L 70.4418 102.905165 
L 71.4418 102.867973 
L 72.4418 102.828877 
L 73.4418 102.786437 
L 74.4418 102.753672 
L 75.4418 102.686246 
L 76.4418 102.64712 
L 77.4418 102.604445 
L 78.4418 102.533865 
L 79.4418 102.497474 
L 80.4418 102.439071 
L 81.4418 102.328118 
L 82.4418 102.25746 
L 83.4418 102.14452 
L 84.4418 102.098747 
L 86.3418 102.037464 
L 87.3418 101.988965 
L 88.3418 101.908142 
L 89.3418 101.789623 
L 90.3418 101.719412 
L 91.3418 101.63615 
L 92.3418 101.603008 
L 93.3418 101.551771 
L 94.3418 101.483372 
L 95.3418 101.417157 
L 96.3418 101.34024 
L 97.3418 101.312924 
L 98.3418 101.286447 
L 99.3418 101.263796 
L 100.3418 101.244265 
L 101.3418 101.217871 
L 102.3418 101.1681 
L 103.3418 101.133027 
L 104.3418 101.097161 
L 105.3418 101.081794 
L 106.3418 101.066025 
L 107.3418 101.062612 
L 108.3418 101.060195 
L 109.3418 101.060681 
L 110.3418 101.06261 
L 111.3418 101.075867 
L 112.3418 101.084258 
L 113.3418 101.105794 
L 114.3418 101.128827 
L 115.3418 101.14606 
L 116.3418 101.164523 
L 117.3418 101.184975 
L 118.3418 101.201575 
L 119.3418 101.264354 
L 120.3418 101.339619 
L 121.3418 101.372258 
L 122.3418 101.439822 
L 123.3418 101.493869 
L 124.3418 101.527573 
L 125.3418 101.617699 
L 126.3418 101.646234 
L 127.3418 101.67772 
L 128.3418 101.708731 
L 129.3418 101.763539 
L 130.3418 101.828126 
L 132.2418 101.866322 
" clip-path="url(#p1f534b46d5)" style="fill: none; stroke: #000000; stroke-width: 2; stroke-linecap: round"/>
    <path d="M 132.2418 102.06 
L 132.273236 101.06 
L 132.310177 100.06 
L 132.407923 99.06 
L 132.440445 98.06 
L 132.51407 97.06 
L 132.552635 96.06 
L 132.588048 95.06 
L 132.645688 94.06 
L 132.716074 93.06 
L 132.768039 92.06 
L 132.827128 91.06 
L 132.915449 90.06 
L 132.961594 89.06 
L 133.004005 88.06 
L 133.034497 87.06 
L 133.060542 86.06 
L 133.081742 85.06 
L 133.136043 84.06 
L 133.163981 83.06 
L 133.193705 82.06 
L 133.2191 81.06 
L 133.2303 80.06 
L 133.240424 79.06 
L 133.24022 78.06 
L 133.23071 77.06 
L 133.219056 76.06 
L 133.188027 75.06 
L 133.176859 74.06 
L 133.146742 73.06 
L 133.086965 71.46 
L 131.54862 70.377262 
L 130.587574 70.098124 
L 129.62547 69.822158 
L 128.666425 69.537014 
L 127.69642 69.284752 
L 126.735364 69.005643 
L 125.773186 68.729899 
L 124.741649 68.460452 
L 125.678825 69.008796 
L 126.609039 68.637163 
L 127.522636 68.215676 
L 128.448975 67.832416 
L 129.361944 67.409044 
L 130.296153 67.049392 
L 131.225457 66.675026 
L 132.158803 66.312788 
L 133.081928 65.919885 
L 133.993132 65.49122 
L 134.919613 65.108385 
L 135.841966 64.713167 
L 136.780169 64.365499 
L 137.71265 64.000663 
L 138.639704 63.619547 
L 139.688515 63.200146 
L 138.715509 64.176597 
L 137.758187 63.886283 
L 136.801131 63.595174 
L 135.845285 63.300434 
L 134.890425 63.002735 
L 133.933396 62.711547 
L 132.968973 62.442536 
L 132.009199 62.159582 
L 131.049174 61.877379 
L 130.095631 61.57573 
L 129.141961 61.274462 
L 128.192199 60.961472 
L 127.242751 60.647538 
L 126.294221 60.330849 
L 125.346148 60.012791 
L 124.28059 59.64363 
L 125.231926 57.468102 
L 126.18742 57.172306 
L 127.143387 56.877928 
L 128.09752 56.57805 
L 129.052042 56.279337 
L 130.007193 55.982512 
L 130.961125 55.682032 
L 131.929661 55.425362 
L 132.902145 55.180537 
L 133.86115 54.895273 
L 134.831199 54.643142 
L 135.796973 54.378187 
L 136.756315 54.093935 
L 137.733498 53.863208 
L 138.691205 53.574051 
L 139.770913 53.247338 
L 138.832036 53.627015 
L 137.900684 53.258792 
L 136.972425 52.881291 
L 136.03582 52.528828 
L 135.117474 52.121589 
L 134.184368 51.758631 
L 133.24962 51.400596 
L 132.313625 51.046303 
L 131.399211 50.627269 
L 130.463691 50.27155 
L 129.534659 49.89637 
L 128.608099 49.51377 
L 127.692463 49.0984 
L 126.755477 48.747083 
L 125.821301 48.387332 
L 124.77321 47.965769 
L 125.737308 48.784247 
L 126.71053 48.541635 
L 127.668871 48.254381 
L 128.639537 48.0041 
L 129.595801 47.710615 
L 130.553535 47.42154 
L 131.515435 47.144961 
L 132.470941 46.849202 
L 133.424035 46.546206 
L 134.381169 46.25533 
L 135.332796 45.947934 
L 136.285415 45.643514 
L 137.237595 45.337774 
L 138.188069 45.02692 
L 139.138259 44.715212 
L 140.206255 44.353365 
L 139.25337 42.163013 
L 138.302309 41.853917 
L 137.345788 41.561202 
L 136.389652 41.267334 
L 135.429527 40.98543 
L 134.472634 40.693832 
L 133.516892 40.39878 
L 132.485931 40.127606 
L 132.939276 39.86 
L 132.845297 38.86 
L 132.794245 37.86 
L 132.740311 36.86 
L 132.70506 35.86 
L 132.598972 34.86 
L 132.546708 33.86 
L 132.509801 32.86 
L 132.47877 31.86 
L 132.417615 30.86 
L 132.350195 29.86 
L 132.301289 28.86 
L 132.236097 27.86 
L 132.197909 26.86 
L 132.155913 25.86 
L 132.113896 24.86 
L 132.05438 23.86 
L 131.94122 22.86 
L 131.888969 21.86 
L 131.849551 20.86 
L 131.80245 19.86 
L 131.74567 18.86 
L 131.713007 17.86 
L 131.676829 16.86 
L 131.644739 15.86 
L 131.610459 14.86 
L 131.552081 13.86 
L 131.506896 12.86 
L 131.477272 11.86 
L 131.426886 10.26 
" clip-path="url(#p1f534b46d5)" style="fill: none; stroke: #ffffff; stroke-width: 4; stroke-linecap: round"/>
    <path d="M 132.2418 102.06 
L 132.273236 101.06 
L 132.310177 100.06 
L 132.407923 99.06 
L 132.440445 98.06 
L 132.51407 97.06 
L 132.552635 96.06 
L 132.588048 95.06 
L 132.645688 94.06 
L 132.716074 93.06 
L 132.768039 92.06 
L 132.827128 91.06 
L 132.915449 90.06 
L 132.961594 89.06 
L 133.004005 88.06 
L 133.034497 87.06 
L 133.060542 86.06 
L 133.081742 85.06 
L 133.136043 84.06 
L 133.163981 83.06 
L 133.193705 82.06 
L 133.2191 81.06 
L 133.2303 80.06 
L 133.240424 79.06 
L 133.24022 78.06 
L 133.23071 77.06 
L 133.219056 76.06 
L 133.188027 75.06 
L 133.176859 74.06 
L 133.146742 73.06 
L 133.086965 71.46 
L 131.54862 70.377262 
L 130.587574 70.098124 
L 129.62547 69.822158 
L 128.666425 69.537014 
L 127.69642 69.284752 
L 126.735364 69.005643 
L 125.773186 68.729899 
L 124.741649 68.460452 
L 125.678825 69.008796 
L 126.609039 68.637163 
L 127.522636 68.215676 
L 128.448975 67.832416 
L 129.361944 67.409044 
L 130.296153 67.049392 
L 131.225457 66.675026 
L 132.158803 66.312788 
L 133.081928 65.919885 
L 133.993132 65.49122 
L 134.919613 65.108385 
L 135.841966 64.713167 
L 136.780169 64.365499 
L 137.71265 64.000663 
L 138.639704 63.619547 
L 139.688515 63.200146 
L 138.715509 64.176597 
L 137.758187 63.886283 
L 136.801131 63.595174 
L 135.845285 63.300434 
L 134.890425 63.002735 
L 133.933396 62.711547 
L 132.968973 62.442536 
L 132.009199 62.159582 
L 131.049174 61.877379 
L 130.095631 61.57573 
L 129.141961 61.274462 
L 128.192199 60.961472 
L 127.242751 60.647538 
L 126.294221 60.330849 
L 125.346148 60.012791 
L 124.28059 59.64363 
L 125.231926 57.468102 
L 126.18742 57.172306 
L 127.143387 56.877928 
L 128.09752 56.57805 
L 129.052042 56.279337 
L 130.007193 55.982512 
L 130.961125 55.682032 
L 131.929661 55.425362 
L 132.902145 55.180537 
L 133.86115 54.895273 
L 134.831199 54.643142 
L 135.796973 54.378187 
L 136.756315 54.093935 
L 137.733498 53.863208 
L 138.691205 53.574051 
L 139.770913 53.247338 
L 138.832036 53.627015 
L 137.900684 53.258792 
L 136.972425 52.881291 
L 136.03582 52.528828 
L 135.117474 52.121589 
L 134.184368 51.758631 
L 133.24962 51.400596 
L 132.313625 51.046303 
L 131.399211 50.627269 
L 130.463691 50.27155 
L 129.534659 49.89637 
L 128.608099 49.51377 
L 127.692463 49.0984 
L 126.755477 48.747083 
L 125.821301 48.387332 
L 124.77321 47.965769 
L 125.737308 48.784247 
L 126.71053 48.541635 
L 127.668871 48.254381 
L 128.639537 48.0041 
L 129.595801 47.710615 
L 130.553535 47.42154 
L 131.515435 47.144961 
L 132.470941 46.849202 
L 133.424035 46.546206 
L 134.381169 46.25533 
L 135.332796 45.947934 
L 136.285415 45.643514 
L 137.237595 45.337774 
L 138.188069 45.02692 
L 139.138259 44.715212 
L 140.206255 44.353365 
L 139.25337 42.163013 
L 138.302309 41.853917 
L 137.345788 41.561202 
L 136.389652 41.267334 
L 135.429527 40.98543 
L 134.472634 40.693832 
L 133.516892 40.39878 
L 132.485931 40.127606 
L 132.939276 39.86 
L 132.845297 38.86 
L 132.794245 37.86 
L 132.740311 36.86 
L 132.70506 35.86 
L 132.598972 34.86 
L 132.546708 33.86 
L 132.509801 32.86 
L 132.47877 31.86 
L 132.417615 30.86 
L 132.350195 29.86 
L 132.301289 28.86 
L 132.236097 27.86 
L 132.197909 26.86 
L 132.155913 25.86 
L 132.113896 24.86 
L 132.05438 23.86 
L 131.94122 22.86 
L 131.888969 21.86 
L 131.849551 20.86 
L 131.80245 19.86 
L 131.74567 18.86 
L 131.713007 17.86 
L 131.676829 16.86 
L 131.644739 15.86 
L 131.610459 14.86 
L 131.552081 13.86 
L 131.506896 12.86 
L 131.477272 11.86 
L 131.426886 10.26 
" clip-path="url(#p1f534b46d5)" style="fill: none; stroke: #000000; stroke-width: 2; stroke-linecap: round"/>
    <path d="M 132.2418 10.26 
L 131.2418 10.228564 
L 130.2418 10.191623 
L 129.2418 10.093877 
L 128.2418 10.061355 
L 127.2418 9.98773 
L 126.2418 9.949165 
L 125.2418 9.913752 
L 124.2418 9.856112 
L 123.2418 9.785726 
L 122.2418 9.733761 
L 121.2418 9.674672 
L 120.2418 9.586351 
L 119.2418 9.540206 
L 118.2418 9.497795 
L 117.2418 9.467303 
L 116.2418 9.441258 
L 115.2418 9.420058 
L 114.2418 9.365757 
L 113.2418 9.337819 
L 112.2418 9.308095 
L 111.2418 9.2827 
L 110.2418 9.2715 
L 109.2418 9.261376 
L 108.2418 9.26158 
L 107.2418 9.27109 
L 106.2418 9.282744 
L 105.2418 9.313773 
L 104.2418 9.324941 
L 103.2418 9.355058 
L 102.2418 9.414835 
L 101.2418 9.452027 
L 100.2418 9.491123 
L 99.2418 9.533563 
L 98.2418 9.566328 
L 97.2418 9.633754 
L 96.2418 9.67288 
L 95.2418 9.715555 
L 94.2418 9.786135 
L 93.2418 9.822526 
L 92.2418 9.880929 
L 91.2418 9.991882 
L 90.2418 10.06254 
L 89.2418 10.17548 
L 88.2418 10.221253 
L 86.3418 10.282536 
L 85.3418 10.331035 
L 84.3418 10.411858 
L 83.3418 10.530377 
L 82.3418 10.600588 
L 81.3418 10.68385 
L 80.3418 10.716992 
L 79.3418 10.768229 
L 78.3418 10.836628 
L 77.3418 10.902843 
L 76.3418 10.97976 
L 75.3418 11.007076 
L 74.3418 11.033553 
L 73.3418 11.056204 
L 72.3418 11.075735 
L 71.3418 11.102129 
L 70.3418 11.1519 
L 69.3418 11.186973 
L 68.3418 11.222839 
L 67.3418 11.238206 
L 66.3418 11.253975 
L 65.3418 11.257388 
L 64.3418 11.259805 
L 63.3418 11.259319 
L 62.3418 11.25739 
L 61.3418 11.244133 
L 60.3418 11.235742 
L 59.3418 11.214206 
L 58.3418 11.191173 
L 57.3418 11.17394 
L 56.3418 11.155477 
L 55.3418 11.135025 
L 54.3418 11.118425 
L 53.3418 11.055646 
L 52.3418 10.980381 
L 51.3418 10.947742 
L 50.3418 10.880178 
L 49.3418 10.826131 
L 48.3418 10.792427 
L 47.3418 10.702301 
L 46.3418 10.673766 
L 45.3418 10.64228 
L 44.3418 10.611269 
L 43.3418 10.556461 
L 42.3418 10.491874 
L 40.4418 10.453678 
" clip-path="url(#p1f534b46d5)" style="fill: none; stroke: #ffffff; stroke-width: 4; stroke-linecap: round"/>
    <path d="M 132.2418 10.26 
L 131.2418 10.228564 
L 130.2418 10.191623 
L 129.2418 10.093877 
L 128.2418 10.061355 
L 127.2418 9.98773 
L 126.2418 9.949165 
L 125.2418 9.913752 
L 124.2418 9.856112 
L 123.2418 9.785726 
L 122.2418 9.733761 
L 121.2418 9.674672 
L 120.2418 9.586351 
L 119.2418 9.540206 
L 118.2418 9.497795 
L 117.2418 9.467303 
L 116.2418 9.441258 
L 115.2418 9.420058 
L 114.2418 9.365757 
L 113.2418 9.337819 
L 112.2418 9.308095 
L 111.2418 9.2827 
L 110.2418 9.2715 
L 109.2418 9.261376 
L 108.2418 9.26158 
L 107.2418 9.27109 
L 106.2418 9.282744 
L 105.2418 9.313773 
L 104.2418 9.324941 
L 103.2418 9.355058 
L 102.2418 9.414835 
L 101.2418 9.452027 
L 100.2418 9.491123 
L 99.2418 9.533563 
L 98.2418 9.566328 
L 97.2418 9.633754 
L 96.2418 9.67288 
L 95.2418 9.715555 
L 94.2418 9.786135 
L 93.2418 9.822526 
L 92.2418 9.880929 
L 91.2418 9.991882 
L 90.2418 10.06254 
L 89.2418 10.17548 
L 88.2418 10.221253 
L 86.3418 10.282536 
L 85.3418 10.331035 
L 84.3418 10.411858 
L 83.3418 10.530377 
L 82.3418 10.600588 
L 81.3418 10.68385 
L 80.3418 10.716992 
L 79.3418 10.768229 
L 78.3418 10.836628 
L 77.3418 10.902843 
L 76.3418 10.97976 
L 75.3418 11.007076 
L 74.3418 11.033553 
L 73.3418 11.056204 
L 72.3418 11.075735 
L 71.3418 11.102129 
L 70.3418 11.1519 
L 69.3418 11.186973 
L 68.3418 11.222839 
L 67.3418 11.238206 
L 66.3418 11.253975 
L 65.3418 11.257388 
L 64.3418 11.259805 
L 63.3418 11.259319 
L 62.3418 11.25739 
L 61.3418 11.244133 
L 60.3418 11.235742 
L 59.3418 11.214206 
L 58.3418 11.191173 
L 57.3418 11.17394 
L 56.3418 11.155477 
L 55.3418 11.135025 
L 54.3418 11.118425 
L 53.3418 11.055646 
L 52.3418 10.980381 
L 51.3418 10.947742 
L 50.3418 10.880178 
L 49.3418 10.826131 
L 48.3418 10.792427 
L 47.3418 10.702301 
L 46.3418 10.673766 
L 45.3418 10.64228 
L 44.3418 10.611269 
L 43.3418 10.556461 
L 42.3418 10.491874 
L 40.4418 10.453678 
" clip-path="url(#p1f534b46d5)" style="fill: none; stroke: #000000; stroke-width: 2; stroke-linecap: round"/>
    <path d="M 40.4418 10.26 
L 40.410364 11.26 
L 40.373423 12.26 
L 40.275677 13.26 
L 40.243155 14.26 
L 40.16953 15.26 
L 40.130965 16.26 
L 40.095552 17.26 
L 40.037912 18.26 
L 39.967526 19.26 
L 39.915561 20.26 
L 39.856472 21.26 
L 39.768151 22.26 
L 39.722006 23.26 
L 39.679595 24.26 
L 39.649103 25.26 
L 39.623058 26.26 
L 39.601858 27.26 
L 39.547557 28.26 
L 39.519619 29.26 
L 39.489895 30.26 
L 39.4645 31.26 
L 39.4533 32.26 
L 39.443176 33.26 
L 39.44338 34.26 
L 39.45289 35.26 
L 39.464544 36.26 
L 39.495573 37.26 
L 39.506741 38.26 
L 39.536858 39.26 
L 39.596635 40.86 
L 41.13498 41.942738 
L 42.096026 42.221876 
L 43.05813 42.497842 
L 44.017175 42.782986 
L 44.98718 43.035248 
L 45.948236 43.314357 
L 46.910414 43.590101 
L 47.941951 43.859548 
L 47.004775 43.311204 
L 46.074561 43.682837 
L 45.160964 44.104324 
L 44.234625 44.487584 
L 43.321656 44.910956 
L 42.387447 45.270608 
L 41.458143 45.644974 
L 40.524797 46.007212 
L 39.601672 46.400115 
L 38.690468 46.82878 
L 37.763987 47.211615 
L 36.841634 47.606833 
L 35.903431 47.954501 
L 34.97095 48.319337 
L 34.043896 48.700453 
L 32.995085 49.119854 
L 33.968091 48.143403 
L 34.925413 48.433717 
L 35.882469 48.724826 
L 36.838315 49.019566 
L 37.793175 49.317265 
L 38.750204 49.608453 
L 39.714627 49.877464 
L 40.674401 50.160418 
L 41.634426 50.442621 
L 42.587969 50.74427 
L 43.541639 51.045538 
L 44.491401 51.358528 
L 45.440849 51.672462 
L 46.389379 51.989151 
L 47.337452 52.307209 
L 48.40301 52.67637 
L 47.451674 54.851898 
L 46.49618 55.147694 
L 45.540213 55.442072 
L 44.58608 55.74195 
L 43.631558 56.040663 
L 42.676407 56.337488 
L 41.722475 56.637968 
L 40.753939 56.894638 
L 39.781455 57.139463 
L 38.82245 57.424727 
L 37.852401 57.676858 
L 36.886627 57.941813 
L 35.927285 58.226065 
L 34.950102 58.456792 
L 33.992395 58.745949 
L 32.912687 59.072662 
L 33.851564 58.692985 
L 34.782916 59.061208 
L 35.711175 59.438709 
L 36.64778 59.791172 
L 37.566126 60.198411 
L 38.499232 60.561369 
L 39.43398 60.919404 
L 40.369975 61.273697 
L 41.284389 61.692731 
L 42.219909 62.04845 
L 43.148941 62.42363 
L 44.075501 62.80623 
L 44.991137 63.2216 
L 45.928123 63.572917 
L 46.862299 63.932668 
L 47.91039 64.354231 
L 46.946292 63.535753 
L 45.97307 63.778365 
L 45.014729 64.065619 
L 44.044063 64.3159 
L 43.087799 64.609385 
L 42.130065 64.89846 
L 41.168165 65.175039 
L 40.212659 65.470798 
L 39.259565 65.773794 
L 38.302431 66.06467 
L 37.350804 66.372066 
L 36.398185 66.676486 
L 35.446005 66.982226 
L 34.495531 67.29308 
L 33.545341 67.604788 
L 32.477345 67.966635 
L 33.43023 70.156987 
L 34.381291 70.466083 
L 35.337812 70.758798 
L 36.293948 71.052666 
L 37.254073 71.33457 
L 38.210966 71.626168 
L 39.166708 71.92122 
L 40.197669 72.192394 
L 39.744324 72.46 
L 39.838303 73.46 
L 39.889355 74.46 
L 39.943289 75.46 
L 39.97854 76.46 
L 40.084628 77.46 
L 40.136892 78.46 
L 40.173799 79.46 
L 40.20483 80.46 
L 40.265985 81.46 
L 40.333405 82.46 
L 40.382311 83.46 
L 40.447503 84.46 
L 40.485691 85.46 
L 40.527687 86.46 
L 40.569704 87.46 
L 40.62922 88.46 
L 40.74238 89.46 
L 40.794631 90.46 
L 40.834049 91.46 
L 40.88115 92.46 
L 40.93793 93.46 
L 40.970593 94.46 
L 41.006771 95.46 
L 41.038861 96.46 
L 41.073141 97.46 
L 41.131519 98.46 
L 41.176704 99.46 
L 41.206328 100.46 
L 41.256714 102.06 
" clip-path="url(#p1f534b46d5)" style="fill: none; stroke: #ffffff; stroke-width: 4; stroke-linecap: round"/>
    <path d="M 40.4418 10.26 
L 40.410364 11.26 
L 40.373423 12.26 
L 40.275677 13.26 
L 40.243155 14.26 
L 40.16953 15.26 
L 40.130965 16.26 
L 40.095552 17.26 
L 40.037912 18.26 
L 39.967526 19.26 
L 39.915561 20.26 
L 39.856472 21.26 
L 39.768151 22.26 
L 39.722006 23.26 
L 39.679595 24.26 
L 39.649103 25.26 
L 39.623058 26.26 
L 39.601858 27.26 
L 39.547557 28.26 
L 39.519619 29.26 
L 39.489895 30.26 
L 39.4645 31.26 
L 39.4533 32.26 
L 39.443176 33.26 
L 39.44338 34.26 
L 39.45289 35.26 
L 39.464544 36.26 
L 39.495573 37.26 
L 39.506741 38.26 
L 39.536858 39.26 
L 39.596635 40.86 
L 41.13498 41.942738 
L 42.096026 42.221876 
L 43.05813 42.497842 
L 44.017175 42.782986 
L 44.98718 43.035248 
L 45.948236 43.314357 
L 46.910414 43.590101 
L 47.941951 43.859548 
L 47.004775 43.311204 
L 46.074561 43.682837 
L 45.160964 44.104324 
L 44.234625 44.487584 
L 43.321656 44.910956 
L 42.387447 45.270608 
L 41.458143 45.644974 
L 40.524797 46.007212 
L 39.601672 46.400115 
L 38.690468 46.82878 
L 37.763987 47.211615 
L 36.841634 47.606833 
L 35.903431 47.954501 
L 34.97095 48.319337 
L 34.043896 48.700453 
L 32.995085 49.119854 
L 33.968091 48.143403 
L 34.925413 48.433717 
L 35.882469 48.724826 
L 36.838315 49.019566 
L 37.793175 49.317265 
L 38.750204 49.608453 
L 39.714627 49.877464 
L 40.674401 50.160418 
L 41.634426 50.442621 
L 42.587969 50.74427 
L 43.541639 51.045538 
L 44.491401 51.358528 
L 45.440849 51.672462 
L 46.389379 51.989151 
L 47.337452 52.307209 
L 48.40301 52.67637 
L 47.451674 54.851898 
L 46.49618 55.147694 
L 45.540213 55.442072 
L 44.58608 55.74195 
L 43.631558 56.040663 
L 42.676407 56.337488 
L 41.722475 56.637968 
L 40.753939 56.894638 
L 39.781455 57.139463 
L 38.82245 57.424727 
L 37.852401 57.676858 
L 36.886627 57.941813 
L 35.927285 58.226065 
L 34.950102 58.456792 
L 33.992395 58.745949 
L 32.912687 59.072662 
L 33.851564 58.692985 
L 34.782916 59.061208 
L 35.711175 59.438709 
L 36.64778 59.791172 
L 37.566126 60.198411 
L 38.499232 60.561369 
L 39.43398 60.919404 
L 40.369975 61.273697 
L 41.284389 61.692731 
L 42.219909 62.04845 
L 43.148941 62.42363 
L 44.075501 62.80623 
L 44.991137 63.2216 
L 45.928123 63.572917 
L 46.862299 63.932668 
L 47.91039 64.354231 
L 46.946292 63.535753 
L 45.97307 63.778365 
L 45.014729 64.065619 
L 44.044063 64.3159 
L 43.087799 64.609385 
L 42.130065 64.89846 
L 41.168165 65.175039 
L 40.212659 65.470798 
L 39.259565 65.773794 
L 38.302431 66.06467 
L 37.350804 66.372066 
L 36.398185 66.676486 
L 35.446005 66.982226 
L 34.495531 67.29308 
L 33.545341 67.604788 
L 32.477345 67.966635 
L 33.43023 70.156987 
L 34.381291 70.466083 
L 35.337812 70.758798 
L 36.293948 71.052666 
L 37.254073 71.33457 
L 38.210966 71.626168 
L 39.166708 71.92122 
L 40.197669 72.192394 
L 39.744324 72.46 
L 39.838303 73.46 
L 39.889355 74.46 
L 39.943289 75.46 
L 39.97854 76.46 
L 40.084628 77.46 
L 40.136892 78.46 
L 40.173799 79.46 
L 40.20483 80.46 
L 40.265985 81.46 
L 40.333405 82.46 
L 40.382311 83.46 
L 40.447503 84.46 
L 40.485691 85.46 
L 40.527687 86.46 
L 40.569704 87.46 
L 40.62922 88.46 
L 40.74238 89.46 
L 40.794631 90.46 
L 40.834049 91.46 
L 40.88115 92.46 
L 40.93793 93.46 
L 40.970593 94.46 
L 41.006771 95.46 
L 41.038861 96.46 
L 41.073141 97.46 
L 41.131519 98.46 
L 41.176704 99.46 
L 41.206328 100.46 
L 41.256714 102.06 
" clip-path="url(#p1f534b46d5)" style="fill: none; stroke: #000000; stroke-width: 2; stroke-linecap: round"/>
    <path d="M 40.4418 102.06 
L 41.4418 102.091436 
L 42.4418 102.128377 
L 43.4418 102.226123 
L 44.4418 102.258645 
L 45.4418 102.33227 
L 46.4418 102.370835 
L 47.4418 102.406248 
L 48.4418 102.463888 
L 49.4418 102.534274 
L 50.4418 102.586239 
L 51.4418 102.645328 
L 52.4418 102.733649 
L 53.4418 102.779794 
L 54.4418 102.822205 
L 55.4418 102.852697 
L 56.4418 102.878742 
L 57.4418 102.899942 
L 58.4418 102.954243 
L 59.4418 102.982181 
L 60.4418 103.011905 
L 61.4418 103.0373 
L 62.4418 103.0485 
L 63.4418 103.058624 
L 64.4418 103.05842 
L 65.4418 103.04891 
L 66.4418 103.037256 
L 67.4418 103.006227 
L 68.4418 102.995059 
L 69.4418 102.964942 
L 70.4418 102.905165 
L 71.4418 102.867973 
L 72.4418 102.828877 
L 73.4418 102.786437 
L 74.4418 102.753672 
L 75.4418 102.686246 
L 76.4418 102.64712 
L 77.4418 102.604445 
L 78.4418 102.533865 
L 79.4418 102.497474 
L 80.4418 102.439071 
L 81.4418 102.328118 
L 82.4418 102.25746 
L 83.4418 102.14452 
L 84.4418 102.098747 
L 86.3418 102.037464 
L 87.3418 101.988965 
L 88.3418 101.908142 
L 89.3418 101.789623 
L 90.3418 101.719412 
L 91.3418 101.63615 
L 92.3418 101.603008 
L 93.3418 101.551771 
L 94.3418 101.483372 
L 95.3418 101.417157 
L 96.3418 101.34024 
L 97.3418 101.312924 
L 98.3418 101.286447 
L 99.3418 101.263796 
L 100.3418 101.244265 
L 101.3418 101.217871 
L 102.3418 101.1681 
L 103.3418 101.133027 
L 104.3418 101.097161 
L 105.3418 101.081794 
L 106.3418 101.066025 
L 107.3418 101.062612 
L 108.3418 101.060195 
L 109.3418 101.060681 
L 110.3418 101.06261 
L 111.3418 101.075867 
L 112.3418 101.084258 
L 113.3418 101.105794 
L 114.3418 101.128827 
L 115.3418 101.14606 
L 116.3418 101.164523 
L 117.3418 101.184975 
L 118.3418 101.201575 
L 119.3418 101.264354 
L 120.3418 101.339619 
L 121.3418 101.372258 
L 122.3418 101.439822 
L 123.3418 101.493869 
L 124.3418 101.527573 
L 125.3418 101.617699 
L 126.3418 101.646234 
L 127.3418 101.67772 
L 128.3418 101.708731 
L 129.3418 101.763539 
L 130.3418 101.828126 
L 132.2418 101.866322 
" clip-path="url(#p1f534b46d5)" style="fill: none; stroke: #ffffff; stroke-width: 4; stroke-linecap: round"/>
    <path d="M 40.4418 102.06 
L 41.4418 102.091436 
L 42.4418 102.128377 
L 43.4418 102.226123 
L 44.4418 102.258645 
L 45.4418 102.33227 
L 46.4418 102.370835 
L 47.4418 102.406248 
L 48.4418 102.463888 
L 49.4418 102.534274 
L 50.4418 102.586239 
L 51.4418 102.645328 
L 52.4418 102.733649 
L 53.4418 102.779794 
L 54.4418 102.822205 
L 55.4418 102.852697 
L 56.4418 102.878742 
L 57.4418 102.899942 
L 58.4418 102.954243 
L 59.4418 102.982181 
L 60.4418 103.011905 
L 61.4418 103.0373 
L 62.4418 103.0485 
L 63.4418 103.058624 
L 64.4418 103.05842 
L 65.4418 103.04891 
L 66.4418 103.037256 
L 67.4418 103.006227 
L 68.4418 102.995059 
L 69.4418 102.964942 
L 70.4418 102.905165 
L 71.4418 102.867973 
L 72.4418 102.828877 
L 73.4418 102.786437 
L 74.4418 102.753672 
L 75.4418 102.686246 
L 76.4418 102.64712 
L 77.4418 102.604445 
L 78.4418 102.533865 
L 79.4418 102.497474 
L 80.4418 102.439071 
L 81.4418 102.328118 
L 82.4418 102.25746 
L 83.4418 102.14452 
L 84.4418 102.098747 
L 86.3418 102.037464 
L 87.3418 101.988965 
L 88.3418 101.908142 
L 89.3418 101.789623 
L 90.3418 101.719412 
L 91.3418 101.63615 
L 92.3418 101.603008 
L 93.3418 101.551771 
L 94.3418 101.483372 
L 95.3418 101.417157 
L 96.3418 101.34024 
L 97.3418 101.312924 
L 98.3418 101.286447 
L 99.3418 101.263796 
L 100.3418 101.244265 
L 101.3418 101.217871 
L 102.3418 101.1681 
L 103.3418 101.133027 
L 104.3418 101.097161 
L 105.3418 101.081794 
L 106.3418 101.066025 
L 107.3418 101.062612 
L 108.3418 101.060195 
L 109.3418 101.060681 
L 110.3418 101.06261 
L 111.3418 101.075867 
L 112.3418 101.084258 
L 113.3418 101.105794 
L 114.3418 101.128827 
L 115.3418 101.14606 
L 116.3418 101.164523 
L 117.3418 101.184975 
L 118.3418 101.201575 
L 119.3418 101.264354 
L 120.3418 101.339619 
L 121.3418 101.372258 
L 122.3418 101.439822 
L 123.3418 101.493869 
L 124.3418 101.527573 
L 125.3418 101.617699 
L 126.3418 101.646234 
L 127.3418 101.67772 
L 128.3418 101.708731 
L 129.3418 101.763539 
L 130.3418 101.828126 
L 132.2418 101.866322 
" clip-path="url(#p1f534b46d5)" style="fill: none; stroke: #000000; stroke-width: 2; stroke-linecap: round"/>
    <path d="M 132.2418 102.06 
L 132.273236 101.06 
L 132.310177 100.06 
L 132.407923 99.06 
L 132.440445 98.06 
L 132.51407 97.06 
L 132.552635 96.06 
L 132.588048 95.06 
L 132.645688 94.06 
L 132.716074 93.06 
L 132.768039 92.06 
L 132.827128 91.06 
L 132.915449 90.06 
L 132.961594 89.06 
L 133.004005 88.06 
L 133.034497 87.06 
L 133.060542 86.06 
L 133.081742 85.06 
L 133.136043 84.06 
L 133.163981 83.06 
L 133.193705 82.06 
L 133.2191 81.06 
L 133.2303 80.06 
L 133.240424 79.06 
L 133.24022 78.06 
L 133.23071 77.06 
L 133.219056 76.06 
L 133.188027 75.06 
L 133.176859 74.06 
L 133.146742 73.06 
L 133.086965 71.46 
L 131.54862 70.377262 
L 130.587574 70.098124 
L 129.62547 69.822158 
L 128.666425 69.537014 
L 127.69642 69.284752 
L 126.735364 69.005643 
L 125.773186 68.729899 
L 124.741649 68.460452 
L 125.678825 69.008796 
L 126.609039 68.637163 
L 127.522636 68.215676 
L 128.448975 67.832416 
L 129.361944 67.409044 
L 130.296153 67.049392 
L 131.225457 66.675026 
L 132.158803 66.312788 
L 133.081928 65.919885 
L 133.993132 65.49122 
L 134.919613 65.108385 
L 135.841966 64.713167 
L 136.780169 64.365499 
L 137.71265 64.000663 
L 138.639704 63.619547 
L 139.688515 63.200146 
L 138.715509 64.176597 
L 137.758187 63.886283 
L 136.801131 63.595174 
L 135.845285 63.300434 
L 134.890425 63.002735 
L 133.933396 62.711547 
L 132.968973 62.442536 
L 132.009199 62.159582 
L 131.049174 61.877379 
L 130.095631 61.57573 
L 129.141961 61.274462 
L 128.192199 60.961472 
L 127.242751 60.647538 
L 126.294221 60.330849 
L 125.346148 60.012791 
L 124.28059 59.64363 
L 125.231926 57.468102 
L 126.18742 57.172306 
L 127.143387 56.877928 
L 128.09752 56.57805 
L 129.052042 56.279337 
L 130.007193 55.982512 
L 130.961125 55.682032 
L 131.929661 55.425362 
L 132.902145 55.180537 
L 133.86115 54.895273 
L 134.831199 54.643142 
L 135.796973 54.378187 
L 136.756315 54.093935 
L 137.733498 53.863208 
L 138.691205 53.574051 
L 139.770913 53.247338 
L 138.832036 53.627015 
L 137.900684 53.258792 
L 136.972425 52.881291 
L 136.03582 52.528828 
L 135.117474 52.121589 
L 134.184368 51.758631 
L 133.24962 51.400596 
L 132.313625 51.046303 
L 131.399211 50.627269 
L 130.463691 50.27155 
L 129.534659 49.89637 
L 128.608099 49.51377 
L 127.692463 49.0984 
L 126.755477 48.747083 
L 125.821301 48.387332 
L 124.77321 47.965769 
L 125.737308 48.784247 
L 126.71053 48.541635 
L 127.668871 48.254381 
L 128.639537 48.0041 
L 129.595801 47.710615 
L 130.553535 47.42154 
L 131.515435 47.144961 
L 132.470941 46.849202 
L 133.424035 46.546206 
L 134.381169 46.25533 
L 135.332796 45.947934 
L 136.285415 45.643514 
L 137.237595 45.337774 
L 138.188069 45.02692 
L 139.138259 44.715212 
L 140.206255 44.353365 
L 139.25337 42.163013 
L 138.302309 41.853917 
L 137.345788 41.561202 
L 136.389652 41.267334 
L 135.429527 40.98543 
L 134.472634 40.693832 
L 133.516892 40.39878 
L 132.485931 40.127606 
L 132.939276 39.86 
L 132.845297 38.86 
L 132.794245 37.86 
L 132.740311 36.86 
L 132.70506 35.86 
L 132.598972 34.86 
L 132.546708 33.86 
L 132.509801 32.86 
L 132.47877 31.86 
L 132.417615 30.86 
L 132.350195 29.86 
L 132.301289 28.86 
L 132.236097 27.86 
L 132.197909 26.86 
L 132.155913 25.86 
L 132.113896 24.86 
L 132.05438 23.86 
L 131.94122 22.86 
L 131.888969 21.86 
L 131.849551 20.86 
L 131.80245 19.86 
L 131.74567 18.86 
L 131.713007 17.86 
L 131.676829 16.86 
L 131.644739 15.86 
L 131.610459 14.86 
L 131.552081 13.86 
L 131.506896 12.86 
L 131.477272 11.86 
L 131.426886 10.26 
" clip-path="url(#p1f534b46d5)" style="fill: none; stroke: #ffffff; stroke-width: 4; stroke-linecap: round"/>
    <path d="M 132.2418 102.06 
L 132.273236 101.06 
L 132.310177 100.06 
L 132.407923 99.06 
L 132.440445 98.06 
L 132.51407 97.06 
L 132.552635 96.06 
L 132.588048 95.06 
L 132.645688 94.06 
L 132.716074 93.06 
L 132.768039 92.06 
L 132.827128 91.06 
L 132.915449 90.06 
L 132.961594 89.06 
L 133.004005 88.06 
L 133.034497 87.06 
L 133.060542 86.06 
L 133.081742 85.06 
L 133.136043 84.06 
L 133.163981 83.06 
L 133.193705 82.06 
L 133.2191 81.06 
L 133.2303 80.06 
L 133.240424 79.06 
L 133.24022 78.06 
L 133.23071 77.06 
L 133.219056 76.06 
L 133.188027 75.06 
L 133.176859 74.06 
L 133.146742 73.06 
L 133.086965 71.46 
L 131.54862 70.377262 
L 130.587574 70.098124 
L 129.62547 69.822158 
L 128.666425 69.537014 
L 127.69642 69.284752 
L 126.735364 69.005643 
L 125.773186 68.729899 
L 124.741649 68.460452 
L 125.678825 69.008796 
L 126.609039 68.637163 
L 127.522636 68.215676 
L 128.448975 67.832416 
L 129.361944 67.409044 
L 130.296153 67.049392 
L 131.225457 66.675026 
L 132.158803 66.312788 
L 133.081928 65.919885 
L 133.993132 65.49122 
L 134.919613 65.108385 
L 135.841966 64.713167 
L 136.780169 64.365499 
L 137.71265 64.000663 
L 138.639704 63.619547 
L 139.688515 63.200146 
L 138.715509 64.176597 
L 137.758187 63.886283 
L 136.801131 63.595174 
L 135.845285 63.300434 
L 134.890425 63.002735 
L 133.933396 62.711547 
L 132.968973 62.442536 
L 132.009199 62.159582 
L 131.049174 61.877379 
L 130.095631 61.57573 
L 129.141961 61.274462 
L 128.192199 60.961472 
L 127.242751 60.647538 
L 126.294221 60.330849 
L 125.346148 60.012791 
L 124.28059 59.64363 
L 125.231926 57.468102 
L 126.18742 57.172306 
L 127.143387 56.877928 
L 128.09752 56.57805 
L 129.052042 56.279337 
L 130.007193 55.982512 
L 130.961125 55.682032 
L 131.929661 55.425362 
L 132.902145 55.180537 
L 133.86115 54.895273 
L 134.831199 54.643142 
L 135.796973 54.378187 
L 136.756315 54.093935 
L 137.733498 53.863208 
L 138.691205 53.574051 
L 139.770913 53.247338 
L 138.832036 53.627015 
L 137.900684 53.258792 
L 136.972425 52.881291 
L 136.03582 52.528828 
L 135.117474 52.121589 
L 134.184368 51.758631 
L 133.24962 51.400596 
L 132.313625 51.046303 
L 131.399211 50.627269 
L 130.463691 50.27155 
L 129.534659 49.89637 
L 128.608099 49.51377 
L 127.692463 49.0984 
L 126.755477 48.747083 
L 125.821301 48.387332 
L 124.77321 47.965769 
L 125.737308 48.784247 
L 126.71053 48.541635 
L 127.668871 48.254381 
L 128.639537 48.0041 
L 129.595801 47.710615 
L 130.553535 47.42154 
L 131.515435 47.144961 
L 132.470941 46.849202 
L 133.424035 46.546206 
L 134.381169 46.25533 
L 135.332796 45.947934 
L 136.285415 45.643514 
L 137.237595 45.337774 
L 138.188069 45.02692 
L 139.138259 44.715212 
L 140.206255 44.353365 
L 139.25337 42.163013 
L 138.302309 41.853917 
L 137.345788 41.561202 
L 136.389652 41.267334 
L 135.429527 40.98543 
L 134.472634 40.693832 
L 133.516892 40.39878 
L 132.485931 40.127606 
L 132.939276 39.86 
L 132.845297 38.86 
L 132.794245 37.86 
L 132.740311 36.86 
L 132.70506 35.86 
L 132.598972 34.86 
L 132.546708 33.86 
L 132.509801 32.86 
L 132.47877 31.86 
L 132.417615 30.86 
L 132.350195 29.86 
L 132.301289 28.86 
L 132.236097 27.86 
L 132.197909 26.86 
L 132.155913 25.86 
L 132.113896 24.86 
L 132.05438 23.86 
L 131.94122 22.86 
L 131.888969 21.86 
L 131.849551 20.86 
L 131.80245 19.86 
L 131.74567 18.86 
L 131.713007 17.86 
L 131.676829 16.86 
L 131.644739 15.86 
L 131.610459 14.86 
L 131.552081 13.86 
L 131.506896 12.86 
L 131.477272 11.86 
L 131.426886 10.26 
" clip-path="url(#p1f534b46d5)" style="fill: none; stroke: #000000; stroke-width: 2; stroke-linecap: round"/>
    <path d="M 132.2418 10.26 
L 131.2418 10.228564 
L 130.2418 10.191623 
L 129.2418 10.093877 
L 128.2418 10.061355 
L 127.2418 9.98773 
L 126.2418 9.949165 
L 125.2418 9.913752 
L 124.2418 9.856112 
L 123.2418 9.785726 
L 122.2418 9.733761 
L 121.2418 9.674672 
L 120.2418 9.586351 
L 119.2418 9.540206 
L 118.2418 9.497795 
L 117.2418 9.467303 
L 116.2418 9.441258 
L 115.2418 9.420058 
L 114.2418 9.365757 
L 113.2418 9.337819 
L 112.2418 9.308095 
L 111.2418 9.2827 
L 110.2418 9.2715 
L 109.2418 9.261376 
L 108.2418 9.26158 
L 107.2418 9.27109 
L 106.2418 9.282744 
L 105.2418 9.313773 
L 104.2418 9.324941 
L 103.2418 9.355058 
L 102.2418 9.414835 
L 101.2418 9.452027 
L 100.2418 9.491123 
L 99.2418 9.533563 
L 98.2418 9.566328 
L 97.2418 9.633754 
L 96.2418 9.67288 
L 95.2418 9.715555 
L 94.2418 9.786135 
L 93.2418 9.822526 
L 92.2418 9.880929 
L 91.2418 9.991882 
L 90.2418 10.06254 
L 89.2418 10.17548 
L 88.2418 10.221253 
L 86.3418 10.282536 
L 85.3418 10.331035 
L 84.3418 10.411858 
L 83.3418 10.530377 
L 82.3418 10.600588 
L 81.3418 10.68385 
L 80.3418 10.716992 
L 79.3418 10.768229 
L 78.3418 10.836628 
L 77.3418 10.902843 
L 76.3418 10.97976 
L 75.3418 11.007076 
L 74.3418 11.033553 
L 73.3418 11.056204 
L 72.3418 11.075735 
L 71.3418 11.102129 
L 70.3418 11.1519 
L 69.3418 11.186973 
L 68.3418 11.222839 
L 67.3418 11.238206 
L 66.3418 11.253975 
L 65.3418 11.257388 
L 64.3418 11.259805 
L 63.3418 11.259319 
L 62.3418 11.25739 
L 61.3418 11.244133 
L 60.3418 11.235742 
L 59.3418 11.214206 
L 58.3418 11.191173 
L 57.3418 11.17394 
L 56.3418 11.155477 
L 55.3418 11.135025 
L 54.3418 11.118425 
L 53.3418 11.055646 
L 52.3418 10.980381 
L 51.3418 10.947742 
L 50.3418 10.880178 
L 49.3418 10.826131 
L 48.3418 10.792427 
L 47.3418 10.702301 
L 46.3418 10.673766 
L 45.3418 10.64228 
L 44.3418 10.611269 
L 43.3418 10.556461 
L 42.3418 10.491874 
L 40.4418 10.453678 
" clip-path="url(#p1f534b46d5)" style="fill: none; stroke: #ffffff; stroke-width: 4; stroke-linecap: round"/>
    <path d="M 132.2418 10.26 
L 131.2418 10.228564 
L 130.2418 10.191623 
L 129.2418 10.093877 
L 128.2418 10.061355 
L 127.2418 9.98773 
L 126.2418 9.949165 
L 125.2418 9.913752 
L 124.2418 9.856112 
L 123.2418 9.785726 
L 122.2418 9.733761 
L 121.2418 9.674672 
L 120.2418 9.586351 
L 119.2418 9.540206 
L 118.2418 9.497795 
L 117.2418 9.467303 
L 116.2418 9.441258 
L 115.2418 9.420058 
L 114.2418 9.365757 
L 113.2418 9.337819 
L 112.2418 9.308095 
L 111.2418 9.2827 
L 110.2418 9.2715 
L 109.2418 9.261376 
L 108.2418 9.26158 
L 107.2418 9.27109 
L 106.2418 9.282744 
L 105.2418 9.313773 
L 104.2418 9.324941 
L 103.2418 9.355058 
L 102.2418 9.414835 
L 101.2418 9.452027 
L 100.2418 9.491123 
L 99.2418 9.533563 
L 98.2418 9.566328 
L 97.2418 9.633754 
L 96.2418 9.67288 
L 95.2418 9.715555 
L 94.2418 9.786135 
L 93.2418 9.822526 
L 92.2418 9.880929 
L 91.2418 9.991882 
L 90.2418 10.06254 
L 89.2418 10.17548 
L 88.2418 10.221253 
L 86.3418 10.282536 
L 85.3418 10.331035 
L 84.3418 10.411858 
L 83.3418 10.530377 
L 82.3418 10.600588 
L 81.3418 10.68385 
L 80.3418 10.716992 
L 79.3418 10.768229 
L 78.3418 10.836628 
L 77.3418 10.902843 
L 76.3418 10.97976 
L 75.3418 11.007076 
L 74.3418 11.033553 
L 73.3418 11.056204 
L 72.3418 11.075735 
L 71.3418 11.102129 
L 70.3418 11.1519 
L 69.3418 11.186973 
L 68.3418 11.222839 
L 67.3418 11.238206 
L 66.3418 11.253975 
L 65.3418 11.257388 
L 64.3418 11.259805 
L 63.3418 11.259319 
L 62.3418 11.25739 
L 61.3418 11.244133 
L 60.3418 11.235742 
L 59.3418 11.214206 
L 58.3418 11.191173 
L 57.3418 11.17394 
L 56.3418 11.155477 
L 55.3418 11.135025 
L 54.3418 11.118425 
L 53.3418 11.055646 
L 52.3418 10.980381 
L 51.3418 10.947742 
L 50.3418 10.880178 
L 49.3418 10.826131 
L 48.3418 10.792427 
L 47.3418 10.702301 
L 46.3418 10.673766 
L 45.3418 10.64228 
L 44.3418 10.611269 
L 43.3418 10.556461 
L 42.3418 10.491874 
L 40.4418 10.453678 
" clip-path="url(#p1f534b46d5)" style="fill: none; stroke: #000000; stroke-width: 2; stroke-linecap: round"/>
    <g id="text_1">
     <path d="M 18.757191 51.359219 
L 21.907581 51.359219 
Q 23.118519 51.359219 23.786488 51.833828 
Q 24.456409 52.308438 24.456409 53.120938 
Q 24.456409 54.095547 23.632191 54.720547 
Q 23.143909 55.095547 21.993519 55.359219 
L 23.1068 58.296719 
Q 23.319691 58.870938 23.550159 59.0975 
Q 23.782581 59.322109 24.194691 59.322109 
L 24.194691 59.521328 
L 22.3568 59.521328 
L 20.819691 55.470547 
L 19.993519 55.408047 
L 19.306019 57.947109 
Q 19.143909 58.521328 19.143909 58.734219 
Q 19.143909 59.021328 19.306019 59.146328 
Q 19.470081 59.271328 19.9818 59.322109 
L 19.9818 59.521328 
L 16.944691 59.521328 
L 16.944691 59.322109 
Q 17.444691 59.259609 17.649769 59.046719 
Q 17.8568 58.833828 18.007191 58.259609 
L 19.493519 52.870938 
Q 19.643909 52.296719 19.643909 52.083828 
Q 19.643909 51.859219 19.470081 51.734219 
Q 19.319691 51.634609 18.757191 51.558438 
L 18.757191 51.359219 
z
M 20.931019 52.109219 
L 20.143909 54.947109 
Q 20.532581 55.009609 20.782581 55.009609 
Q 21.893909 55.009609 22.518909 54.509609 
Q 23.143909 54.009609 23.143909 53.134609 
Q 23.143909 52.484219 22.755238 52.109219 
Q 22.368519 51.734219 21.643909 51.734219 
Q 21.032581 51.734219 20.931019 52.109219 
z
M 28.192346 61.174844 
L 25.776525 61.174844 
L 25.776525 61.043594 
Q 26.257775 61.017617 26.432775 60.864492 
Q 26.607775 60.711367 26.607775 60.343594 
L 26.607775 56.414297 
Q 26.607775 55.986367 26.345275 55.986367 
Q 26.223596 55.986367 25.951525 56.091641 
L 25.715002 56.179141 
L 25.715002 56.056094 
L 27.281799 55.260391 
L 27.361096 55.286367 
L 27.361096 60.510391 
Q 27.361096 60.798867 27.536096 60.921914 
Q 27.711096 61.043594 28.192346 61.043594 
L 28.192346 61.174844 
z
" clip-path="url(#p1f534b46d5)" style="stroke: #ffffff; stroke-width: 4"/>
     <path d="M 18.757191 51.359219 
L 21.907581 51.359219 
Q 23.118519 51.359219 23.786488 51.833828 
Q 24.456409 52.308438 24.456409 53.120938 
Q 24.456409 54.095547 23.632191 54.720547 
Q 23.143909 55.095547 21.993519 55.359219 
L 23.1068 58.296719 
Q 23.319691 58.870938 23.550159 59.0975 
Q 23.782581 59.322109 24.194691 59.322109 
L 24.194691 59.521328 
L 22.3568 59.521328 
L 20.819691 55.470547 
L 19.993519 55.408047 
L 19.306019 57.947109 
Q 19.143909 58.521328 19.143909 58.734219 
Q 19.143909 59.021328 19.306019 59.146328 
Q 19.470081 59.271328 19.9818 59.322109 
L 19.9818 59.521328 
L 16.944691 59.521328 
L 16.944691 59.322109 
Q 17.444691 59.259609 17.649769 59.046719 
Q 17.8568 58.833828 18.007191 58.259609 
L 19.493519 52.870938 
Q 19.643909 52.296719 19.643909 52.083828 
Q 19.643909 51.859219 19.470081 51.734219 
Q 19.319691 51.634609 18.757191 51.558438 
L 18.757191 51.359219 
z
M 20.931019 52.109219 
L 20.143909 54.947109 
Q 20.532581 55.009609 20.782581 55.009609 
Q 21.893909 55.009609 22.518909 54.509609 
Q 23.143909 54.009609 23.143909 53.134609 
Q 23.143909 52.484219 22.755238 52.109219 
Q 22.368519 51.734219 21.643909 51.734219 
Q 21.032581 51.734219 20.931019 52.109219 
z
M 28.192346 61.174844 
L 25.776525 61.174844 
L 25.776525 61.043594 
Q 26.257775 61.017617 26.432775 60.864492 
Q 26.607775 60.711367 26.607775 60.343594 
L 26.607775 56.414297 
Q 26.607775 55.986367 26.345275 55.986367 
Q 26.223596 55.986367 25.951525 56.091641 
L 25.715002 56.179141 
L 25.715002 56.056094 
L 27.281799 55.260391 
L 27.361096 55.286367 
L 27.361096 60.510391 
Q 27.361096 60.798867 27.536096 60.921914 
Q 27.711096 61.043594 28.192346 61.043594 
L 28.192346 61.174844 
z
" clip-path="url(#p1f534b46d5)"/>
    </g>
    <g id="text_2">
     <path d="M 110.557191 51.359219 
L 113.707581 51.359219 
Q 114.918519 51.359219 115.586488 51.833828 
Q 116.256409 52.308438 116.256409 53.120938 
Q 116.256409 54.095547 115.432191 54.720547 
Q 114.943909 55.095547 113.793519 55.359219 
L 114.9068 58.296719 
Q 115.119691 58.870938 115.350159 59.0975 
Q 115.582581 59.322109 115.994691 59.322109 
L 115.994691 59.521328 
L 114.1568 59.521328 
L 112.619691 55.470547 
L 111.793519 55.408047 
L 111.106019 57.947109 
Q 110.943909 58.521328 110.943909 58.734219 
Q 110.943909 59.021328 111.106019 59.146328 
Q 111.270081 59.271328 111.7818 59.322109 
L 111.7818 59.521328 
L 108.744691 59.521328 
L 108.744691 59.322109 
Q 109.244691 59.259609 109.449769 59.046719 
Q 109.6568 58.833828 109.807191 58.259609 
L 111.293519 52.870938 
Q 111.443909 52.296719 111.443909 52.083828 
Q 111.443909 51.859219 111.270081 51.734219 
Q 111.119691 51.634609 110.557191 51.558438 
L 110.557191 51.359219 
z
M 112.731019 52.109219 
L 111.943909 54.947109 
Q 112.332581 55.009609 112.582581 55.009609 
Q 113.693909 55.009609 114.318909 54.509609 
Q 114.943909 54.009609 114.943909 53.134609 
Q 114.943909 52.484219 114.555238 52.109219 
Q 114.168519 51.734219 113.443909 51.734219 
Q 112.832581 51.734219 112.731019 52.109219 
z
M 120.692346 59.97582 
L 120.219299 61.174844 
L 116.798596 61.174844 
L 116.798596 61.06957 
L 118.355822 59.416641 
Q 118.968322 58.776797 119.230822 58.243594 
Q 119.493322 57.710391 119.493322 57.141641 
Q 119.493322 56.555117 119.169299 56.231094 
Q 118.845275 55.90707 118.276525 55.90707 
Q 117.804846 55.90707 117.528674 56.153164 
Q 117.252502 56.397891 116.990002 57.04457 
L 116.806799 57.00082 
Q 116.955822 56.187344 117.405627 55.723867 
Q 117.856799 55.260391 118.626525 55.260391 
Q 119.352502 55.260391 119.798205 55.697891 
Q 120.245275 56.135391 120.245275 56.799844 
Q 120.245275 57.78832 119.125549 58.96957 
L 117.681799 60.510391 
L 119.729846 60.510391 
Q 120.018322 60.510391 120.187854 60.396914 
Q 120.358752 60.28207 120.569299 59.923867 
L 120.692346 59.97582 
z
" clip-path="url(#p1f534b46d5)" style="stroke: #ffffff; stroke-width: 4"/>
     <path d="M 110.557191 51.359219 
L 113.707581 51.359219 
Q 114.918519 51.359219 115.586488 51.833828 
Q 116.256409 52.308438 116.256409 53.120938 
Q 116.256409 54.095547 115.432191 54.720547 
Q 114.943909 55.095547 113.793519 55.359219 
L 114.9068 58.296719 
Q 115.119691 58.870938 115.350159 59.0975 
Q 115.582581 59.322109 115.994691 59.322109 
L 115.994691 59.521328 
L 114.1568 59.521328 
L 112.619691 55.470547 
L 111.793519 55.408047 
L 111.106019 57.947109 
Q 110.943909 58.521328 110.943909 58.734219 
Q 110.943909 59.021328 111.106019 59.146328 
Q 111.270081 59.271328 111.7818 59.322109 
L 111.7818 59.521328 
L 108.744691 59.521328 
L 108.744691 59.322109 
Q 109.244691 59.259609 109.449769 59.046719 
Q 109.6568 58.833828 109.807191 58.259609 
L 111.293519 52.870938 
Q 111.443909 52.296719 111.443909 52.083828 
Q 111.443909 51.859219 111.270081 51.734219 
Q 111.119691 51.634609 110.557191 51.558438 
L 110.557191 51.359219 
z
M 112.731019 52.109219 
L 111.943909 54.947109 
Q 112.332581 55.009609 112.582581 55.009609 
Q 113.693909 55.009609 114.318909 54.509609 
Q 114.943909 54.009609 114.943909 53.134609 
Q 114.943909 52.484219 114.555238 52.109219 
Q 114.168519 51.734219 113.443909 51.734219 
Q 112.832581 51.734219 112.731019 52.109219 
z
M 120.692346 59.97582 
L 120.219299 61.174844 
L 116.798596 61.174844 
L 116.798596 61.06957 
L 118.355822 59.416641 
Q 118.968322 58.776797 119.230822 58.243594 
Q 119.493322 57.710391 119.493322 57.141641 
Q 119.493322 56.555117 119.169299 56.231094 
Q 118.845275 55.90707 118.276525 55.90707 
Q 117.804846 55.90707 117.528674 56.153164 
Q 117.252502 56.397891 116.990002 57.04457 
L 116.806799 57.00082 
Q 116.955822 56.187344 117.405627 55.723867 
Q 117.856799 55.260391 118.626525 55.260391 
Q 119.352502 55.260391 119.798205 55.697891 
Q 120.245275 56.135391 120.245275 56.799844 
Q 120.245275 57.78832 119.125549 58.96957 
L 117.681799 60.510391 
L 119.729846 60.510391 
Q 120.018322 60.510391 120.187854 60.396914 
Q 120.358752 60.28207 120.569299 59.923867 
L 120.692346 59.97582 
z
" clip-path="url(#p1f534b46d5)"/>
    </g>
    <g id="text_3">
     <path d="M 18.757191 51.359219 
L 21.907581 51.359219 
Q 23.118519 51.359219 23.786488 51.833828 
Q 24.456409 52.308438 24.456409 53.120938 
Q 24.456409 54.095547 23.632191 54.720547 
Q 23.143909 55.095547 21.993519 55.359219 
L 23.1068 58.296719 
Q 23.319691 58.870938 23.550159 59.0975 
Q 23.782581 59.322109 24.194691 59.322109 
L 24.194691 59.521328 
L 22.3568 59.521328 
L 20.819691 55.470547 
L 19.993519 55.408047 
L 19.306019 57.947109 
Q 19.143909 58.521328 19.143909 58.734219 
Q 19.143909 59.021328 19.306019 59.146328 
Q 19.470081 59.271328 19.9818 59.322109 
L 19.9818 59.521328 
L 16.944691 59.521328 
L 16.944691 59.322109 
Q 17.444691 59.259609 17.649769 59.046719 
Q 17.8568 58.833828 18.007191 58.259609 
L 19.493519 52.870938 
Q 19.643909 52.296719 19.643909 52.083828 
Q 19.643909 51.859219 19.470081 51.734219 
Q 19.319691 51.634609 18.757191 51.558438 
L 18.757191 51.359219 
z
M 20.931019 52.109219 
L 20.143909 54.947109 
Q 20.532581 55.009609 20.782581 55.009609 
Q 21.893909 55.009609 22.518909 54.509609 
Q 23.143909 54.009609 23.143909 53.134609 
Q 23.143909 52.484219 22.755238 52.109219 
Q 22.368519 51.734219 21.643909 51.734219 
Q 21.032581 51.734219 20.931019 52.109219 
z
M 28.192346 61.174844 
L 25.776525 61.174844 
L 25.776525 61.043594 
Q 26.257775 61.017617 26.432775 60.864492 
Q 26.607775 60.711367 26.607775 60.343594 
L 26.607775 56.414297 
Q 26.607775 55.986367 26.345275 55.986367 
Q 26.223596 55.986367 25.951525 56.091641 
L 25.715002 56.179141 
L 25.715002 56.056094 
L 27.281799 55.260391 
L 27.361096 55.286367 
L 27.361096 60.510391 
Q 27.361096 60.798867 27.536096 60.921914 
Q 27.711096 61.043594 28.192346 61.043594 
L 28.192346 61.174844 
z
" clip-path="url(#p1f534b46d5)" style="stroke: #ffffff; stroke-width: 4"/>
     <path d="M 18.757191 51.359219 
L 21.907581 51.359219 
Q 23.118519 51.359219 23.786488 51.833828 
Q 24.456409 52.308438 24.456409 53.120938 
Q 24.456409 54.095547 23.632191 54.720547 
Q 23.143909 55.095547 21.993519 55.359219 
L 23.1068 58.296719 
Q 23.319691 58.870938 23.550159 59.0975 
Q 23.782581 59.322109 24.194691 59.322109 
L 24.194691 59.521328 
L 22.3568 59.521328 
L 20.819691 55.470547 
L 19.993519 55.408047 
L 19.306019 57.947109 
Q 19.143909 58.521328 19.143909 58.734219 
Q 19.143909 59.021328 19.306019 59.146328 
Q 19.470081 59.271328 19.9818 59.322109 
L 19.9818 59.521328 
L 16.944691 59.521328 
L 16.944691 59.322109 
Q 17.444691 59.259609 17.649769 59.046719 
Q 17.8568 58.833828 18.007191 58.259609 
L 19.493519 52.870938 
Q 19.643909 52.296719 19.643909 52.083828 
Q 19.643909 51.859219 19.470081 51.734219 
Q 19.319691 51.634609 18.757191 51.558438 
L 18.757191 51.359219 
z
M 20.931019 52.109219 
L 20.143909 54.947109 
Q 20.532581 55.009609 20.782581 55.009609 
Q 21.893909 55.009609 22.518909 54.509609 
Q 23.143909 54.009609 23.143909 53.134609 
Q 23.143909 52.484219 22.755238 52.109219 
Q 22.368519 51.734219 21.643909 51.734219 
Q 21.032581 51.734219 20.931019 52.109219 
z
M 28.192346 61.174844 
L 25.776525 61.174844 
L 25.776525 61.043594 
Q 26.257775 61.017617 26.432775 60.864492 
Q 26.607775 60.711367 26.607775 60.343594 
L 26.607775 56.414297 
Q 26.607775 55.986367 26.345275 55.986367 
Q 26.223596 55.986367 25.951525 56.091641 
L 25.715002 56.179141 
L 25.715002 56.056094 
L 27.281799 55.260391 
L 27.361096 55.286367 
L 27.361096 60.510391 
Q 27.361096 60.798867 27.536096 60.921914 
Q 27.711096 61.043594 28.192346 61.043594 
L 28.192346 61.174844 
z
" clip-path="url(#p1f534b46d5)"/>
    </g>
    <g id="text_4">
     <path d="M 110.557191 51.359219 
L 113.707581 51.359219 
Q 114.918519 51.359219 115.586488 51.833828 
Q 116.256409 52.308438 116.256409 53.120938 
Q 116.256409 54.095547 115.432191 54.720547 
Q 114.943909 55.095547 113.793519 55.359219 
L 114.9068 58.296719 
Q 115.119691 58.870938 115.350159 59.0975 
Q 115.582581 59.322109 115.994691 59.322109 
L 115.994691 59.521328 
L 114.1568 59.521328 
L 112.619691 55.470547 
L 111.793519 55.408047 
L 111.106019 57.947109 
Q 110.943909 58.521328 110.943909 58.734219 
Q 110.943909 59.021328 111.106019 59.146328 
Q 111.270081 59.271328 111.7818 59.322109 
L 111.7818 59.521328 
L 108.744691 59.521328 
L 108.744691 59.322109 
Q 109.244691 59.259609 109.449769 59.046719 
Q 109.6568 58.833828 109.807191 58.259609 
L 111.293519 52.870938 
Q 111.443909 52.296719 111.443909 52.083828 
Q 111.443909 51.859219 111.270081 51.734219 
Q 111.119691 51.634609 110.557191 51.558438 
L 110.557191 51.359219 
z
M 112.731019 52.109219 
L 111.943909 54.947109 
Q 112.332581 55.009609 112.582581 55.009609 
Q 113.693909 55.009609 114.318909 54.509609 
Q 114.943909 54.009609 114.943909 53.134609 
Q 114.943909 52.484219 114.555238 52.109219 
Q 114.168519 51.734219 113.443909 51.734219 
Q 112.832581 51.734219 112.731019 52.109219 
z
M 120.692346 59.97582 
L 120.219299 61.174844 
L 116.798596 61.174844 
L 116.798596 61.06957 
L 118.355822 59.416641 
Q 118.968322 58.776797 119.230822 58.243594 
Q 119.493322 57.710391 119.493322 57.141641 
Q 119.493322 56.555117 119.169299 56.231094 
Q 118.845275 55.90707 118.276525 55.90707 
Q 117.804846 55.90707 117.528674 56.153164 
Q 117.252502 56.397891 116.990002 57.04457 
L 116.806799 57.00082 
Q 116.955822 56.187344 117.405627 55.723867 
Q 117.856799 55.260391 118.626525 55.260391 
Q 119.352502 55.260391 119.798205 55.697891 
Q 120.245275 56.135391 120.245275 56.799844 
Q 120.245275 57.78832 119.125549 58.96957 
L 117.681799 60.510391 
L 119.729846 60.510391 
Q 120.018322 60.510391 120.187854 60.396914 
Q 120.358752 60.28207 120.569299 59.923867 
L 120.692346 59.97582 
z
" clip-path="url(#p1f534b46d5)" style="stroke: #ffffff; stroke-width: 4"/>
     <path d="M 110.557191 51.359219 
L 113.707581 51.359219 
Q 114.918519 51.359219 115.586488 51.833828 
Q 116.256409 52.308438 116.256409 53.120938 
Q 116.256409 54.095547 115.432191 54.720547 
Q 114.943909 55.095547 113.793519 55.359219 
L 114.9068 58.296719 
Q 115.119691 58.870938 115.350159 59.0975 
Q 115.582581 59.322109 115.994691 59.322109 
L 115.994691 59.521328 
L 114.1568 59.521328 
L 112.619691 55.470547 
L 111.793519 55.408047 
L 111.106019 57.947109 
Q 110.943909 58.521328 110.943909 58.734219 
Q 110.943909 59.021328 111.106019 59.146328 
Q 111.270081 59.271328 111.7818 59.322109 
L 111.7818 59.521328 
L 108.744691 59.521328 
L 108.744691 59.322109 
Q 109.244691 59.259609 109.449769 59.046719 
Q 109.6568 58.833828 109.807191 58.259609 
L 111.293519 52.870938 
Q 111.443909 52.296719 111.443909 52.083828 
Q 111.443909 51.859219 111.270081 51.734219 
Q 111.119691 51.634609 110.557191 51.558438 
L 110.557191 51.359219 
z
M 112.731019 52.109219 
L 111.943909 54.947109 
Q 112.332581 55.009609 112.582581 55.009609 
Q 113.693909 55.009609 114.318909 54.509609 
Q 114.943909 54.009609 114.943909 53.134609 
Q 114.943909 52.484219 114.555238 52.109219 
Q 114.168519 51.734219 113.443909 51.734219 
Q 112.832581 51.734219 112.731019 52.109219 
z
M 120.692346 59.97582 
L 120.219299 61.174844 
L 116.798596 61.174844 
L 116.798596 61.06957 
L 118.355822 59.416641 
Q 118.968322 58.776797 119.230822 58.243594 
Q 119.493322 57.710391 119.493322 57.141641 
Q 119.493322 56.555117 119.169299 56.231094 
Q 118.845275 55.90707 118.276525 55.90707 
Q 117.804846 55.90707 117.528674 56.153164 
Q 117.252502 56.397891 116.990002 57.04457 
L 116.806799 57.00082 
Q 116.955822 56.187344 117.405627 55.723867 
Q 117.856799 55.260391 118.626525 55.260391 
Q 119.352502 55.260391 119.798205 55.697891 
Q 120.245275 56.135391 120.245275 56.799844 
Q 120.245275 57.78832 119.125549 58.96957 
L 117.681799 60.510391 
L 119.729846 60.510391 
Q 120.018322 60.510391 120.187854 60.396914 
Q 120.358752 60.28207 120.569299 59.923867 
L 120.692346 59.97582 
z
" clip-path="url(#p1f534b46d5)"/>
    </g>
   </g>
  </g>
  <defs>
   <clipPath id="p1f534b46d5">
    <rect x="7.2" y="7.2" width="135.7518" height="97.92"/>
   </clipPath>
  </defs>
 </g>
</svg>
