<?xml version="1.0" encoding="utf-8" standalone="no"?>
<!DOCTYPE svg PUBLIC "-//W3C//DTD SVG 1.1//EN"
  "http://www.w3.org/Graphics/SVG/1.1/DTD/svg11.dtd">
<svg xmlns:xlink="http://www.w3.org/1999/xlink" width="434.6298pt" height="112.49pt" viewBox="0 0 434.6298 112.49" xmlns="http://www.w3.org/2000/svg" version="1.1">
 <metadata>
  <rdf:RDF xmlns:dc="http://purl.org/dc/elements/1.1/" xmlns:cc="http://creativecommons.org/ns#" xmlns:rdf="http://www.w3.org/1999/02/22-rdf-syntax-ns#">
   <cc:Work>
    <dc:type rdf:resource="http://purl.org/dc/dcmitype/StillImage"/>
    <dc:date>2023-02-10T13:11:26.217520</dc:date>
    <dc:format>image/svg+xml</dc:format>
    <dc:creator>
     <cc:Agent>
      <dc:title>Matplotlib v3.5.2, https://matplotlib.org/</dc:title>
     </cc:Agent>
    </dc:creator>
   </cc:Work>
  </rdf:RDF>
 </metadata>
 <defs>
  <style type="text/css">*{stroke-linejoin: round; stroke-linecap: butt}</style>
 </defs>
 <g id="figure_1">
  <g id="patch_1">
   <path d="M 0 112.49 
L 434.6298 112.49 
L 434.6298 0 
L 0 0 
L 0 112.49 
z
" style="fill: none"/>
  </g>
  <g id="axes_1">
   <g id="patch_2">
    <path d="M 49.5198 71.63 
C 53.577407 71.63 57.469372 70.017895 60.338534 67.148734 
C 63.207695 64.279572 64.8198 60.387607 64.8198 56.33 
C 64.8198 52.272393 63.207695 48.380428 60.338534 45.511266 
C 57.469372 42.642105 53.577407 41.03 49.5198 41.03 
C 45.462193 41.03 41.570228 42.642105 38.701066 45.511266 
C 35.831905 48.380428 34.2198 52.272393 34.2198 56.33 
C 34.2198 60.387607 35.831905 64.279572 38.701066 67.148734 
C 41.570228 70.017895 45.462193 71.63 49.5198 71.63 
L 49.5198 71.63 
z
" clip-path="url(#p38c31c1a73)" style="fill: none; stroke: #000000; stroke-width: 2; stroke-linejoin: miter"/>
   </g>
   <g id="patch_3">
    <path d="M 141.3198 71.63 
C 145.377407 71.63 149.269372 70.017895 152.138534 67.148734 
C 155.007695 64.279572 156.6198 60.387607 156.6198 56.33 
C 156.6198 52.272393 155.007695 48.380428 152.138534 45.511266 
C 149.269372 42.642105 145.377407 41.03 141.3198 41.03 
C 137.262193 41.03 133.370228 42.642105 130.501066 45.511266 
C 127.631905 48.380428 126.0198 52.272393 126.0198 56.33 
C 126.0198 60.387607 127.631905 64.279572 130.501066 67.148734 
C 133.370228 70.017895 137.262193 71.63 141.3198 71.63 
L 141.3198 71.63 
z
" clip-path="url(#p38c31c1a73)" style="fill: none; stroke: #000000; stroke-width: 2; stroke-linejoin: miter"/>
   </g>
   <g id="patch_4">
    <path d="M 324.9198 71.63 
C 328.977407 71.63 332.869372 70.017895 335.738534 67.148734 
C 338.607695 64.279572 340.2198 60.387607 340.2198 56.33 
C 340.2198 52.272393 338.607695 48.380428 335.738534 45.511266 
C 332.869372 42.642105 328.977407 41.03 324.9198 41.03 
C 320.862193 41.03 316.970228 42.642105 314.101066 45.511266 
C 311.231905 48.380428 309.6198 52.272393 309.6198 56.33 
C 309.6198 60.387607 311.231905 64.279572 314.101066 67.148734 
C 316.970228 70.017895 320.862193 71.63 324.9198 71.63 
L 324.9198 71.63 
z
" clip-path="url(#p38c31c1a73)" style="fill: none; stroke: #000000; stroke-width: 2; stroke-linejoin: miter"/>
   </g>
   <g id="patch_5">
    <path d="M 49.5198 71.63 
C 53.577407 71.63 57.469372 70.017895 60.338534 67.148734 
C 63.207695 64.279572 64.8198 60.387607 64.8198 56.33 
C 64.8198 52.272393 63.207695 48.380428 60.338534 45.511266 
C 57.469372 42.642105 53.577407 41.03 49.5198 41.03 
C 45.462193 41.03 41.570228 42.642105 38.701066 45.511266 
C 35.831905 48.380428 34.2198 52.272393 34.2198 56.33 
C 34.2198 60.387607 35.831905 64.279572 38.701066 67.148734 
C 41.570228 70.017895 45.462193 71.63 49.5198 71.63 
L 49.5198 71.63 
z
" clip-path="url(#p38c31c1a73)" style="fill: none; stroke: #000000; stroke-width: 2; stroke-linejoin: miter"/>
   </g>
   <g id="patch_6">
    <path d="M 141.3198 71.63 
C 145.377407 71.63 149.269372 70.017895 152.138534 67.148734 
C 155.007695 64.279572 156.6198 60.387607 156.6198 56.33 
C 156.6198 52.272393 155.007695 48.380428 152.138534 45.511266 
C 149.269372 42.642105 145.377407 41.03 141.3198 41.03 
C 137.262193 41.03 133.370228 42.642105 130.501066 45.511266 
C 127.631905 48.380428 126.0198 52.272393 126.0198 56.33 
C 126.0198 60.387607 127.631905 64.279572 130.501066 67.148734 
C 133.370228 70.017895 137.262193 71.63 141.3198 71.63 
L 141.3198 71.63 
z
" clip-path="url(#p38c31c1a73)" style="fill: none; stroke: #000000; stroke-width: 2; stroke-linejoin: miter"/>
   </g>
   <g id="patch_7">
    <path d="M 324.9198 71.63 
C 328.977407 71.63 332.869372 70.017895 335.738534 67.148734 
C 338.607695 64.279572 340.2198 60.387607 340.2198 56.33 
C 340.2198 52.272393 338.607695 48.380428 335.738534 45.511266 
C 332.869372 42.642105 328.977407 41.03 324.9198 41.03 
C 320.862193 41.03 316.970228 42.642105 314.101066 45.511266 
C 311.231905 48.380428 309.6198 52.272393 309.6198 56.33 
C 309.6198 60.387607 311.231905 64.279572 314.101066 67.148734 
C 316.970228 70.017895 320.862193 71.63 324.9198 71.63 
L 324.9198 71.63 
z
" clip-path="url(#p38c31c1a73)" style="fill: none; stroke: #000000; stroke-width: 2; stroke-linejoin: miter"/>
   </g>
   <g id="line2d_1">
    <path d="M 49.5198 102.23 
L 49.5198 71.63 
L 49.5198 71.63 
M 49.5198 41.03 
L 49.5198 41.03 
L 49.5198 10.43 
" clip-path="url(#p38c31c1a73)" style="fill: none; stroke: #000000; stroke-width: 2; stroke-linecap: round"/>
   </g>
   <g id="line2d_2">
    <path d="M 49.5198 63.98 
L 49.5198 56.33 
" clip-path="url(#p38c31c1a73)" style="fill: none; stroke: #000000; stroke-width: 2; stroke-linecap: round"/>
   </g>
   <g id="patch_8">
    <path d="M 47.2248 56.33 
L 49.5198 48.68 
L 51.8148 56.33 
z
" clip-path="url(#p38c31c1a73)"/>
   </g>
   <g id="line2d_3">
    <path d="M 49.5198 10.43 
L 141.3198 10.43 
L 233.1198 10.43 
" clip-path="url(#p38c31c1a73)" style="fill: none; stroke: #000000; stroke-width: 2; stroke-linecap: round"/>
   </g>
   <g id="line2d_4">
    <path d="M 233.1198 10.43 
L 233.1198 41.03 
L 240.7698 43.58 
L 225.4698 48.68 
L 240.7698 53.78 
L 225.4698 58.88 
L 240.7698 63.98 
L 225.4698 69.08 
L 233.1198 71.63 
L 233.1198 102.23 
" clip-path="url(#p38c31c1a73)" style="fill: none; stroke: #000000; stroke-width: 2; stroke-linecap: round"/>
   </g>
   <g id="line2d_5">
    <path d="M 233.1198 102.23 
L 187.2198 102.23 
L 141.3198 102.23 
" clip-path="url(#p38c31c1a73)" style="fill: none; stroke: #000000; stroke-width: 2; stroke-linecap: round"/>
   </g>
   <g id="line2d_6">
    <path d="M 141.3198 102.23 
L 141.3198 71.63 
L 141.3198 71.63 
M 141.3198 41.03 
L 141.3198 41.03 
L 141.3198 10.43 
" clip-path="url(#p38c31c1a73)" style="fill: none; stroke: #000000; stroke-width: 2; stroke-linecap: round"/>
   </g>
   <g id="line2d_7">
    <path d="M 141.3198 56.33 
L 141.3198 48.68 
" clip-path="url(#p38c31c1a73)" style="fill: none; stroke: #000000; stroke-width: 2; stroke-linecap: round"/>
   </g>
   <g id="patch_9">
    <path d="M 143.6148 56.33 
L 141.3198 63.98 
L 139.0248 56.33 
z
" clip-path="url(#p38c31c1a73)"/>
   </g>
   <g id="line2d_8">
    <path d="M 141.3198 102.23 
L 95.4198 102.23 
L 49.5198 102.23 
" clip-path="url(#p38c31c1a73)" style="fill: none; stroke: #000000; stroke-width: 2; stroke-linecap: round"/>
   </g>
   <g id="line2d_9">
    <path d="M 324.9198 102.23 
L 324.9198 71.63 
L 324.9198 71.63 
M 324.9198 41.03 
L 324.9198 41.03 
L 324.9198 10.43 
" clip-path="url(#p38c31c1a73)" style="fill: none; stroke: #000000; stroke-width: 2; stroke-linecap: round"/>
   </g>
   <g id="line2d_10">
    <path d="M 324.9198 63.98 
L 324.9198 56.33 
" clip-path="url(#p38c31c1a73)" style="fill: none; stroke: #000000; stroke-width: 2; stroke-linecap: round"/>
   </g>
   <g id="patch_10">
    <path d="M 322.6248 56.33 
L 324.9198 48.68 
L 327.2148 56.33 
z
" clip-path="url(#p38c31c1a73)"/>
   </g>
   <g id="line2d_11">
    <path d="M 324.9198 10.43 
L 370.8198 10.43 
L 416.7198 10.43 
" clip-path="url(#p38c31c1a73)" style="fill: none; stroke: #000000; stroke-width: 2; stroke-linecap: round"/>
   </g>
   <g id="line2d_12">
    <path d="M 416.7198 10.43 
L 416.7198 41.03 
L 424.3698 43.58 
L 409.0698 48.68 
L 424.3698 53.78 
L 409.0698 58.88 
L 424.3698 63.98 
L 409.0698 69.08 
L 416.7198 71.63 
L 416.7198 102.23 
" clip-path="url(#p38c31c1a73)" style="fill: none; stroke: #000000; stroke-width: 2; stroke-linecap: round"/>
   </g>
   <g id="line2d_13">
    <path d="M 416.7198 102.23 
L 370.8198 102.23 
L 324.9198 102.23 
" clip-path="url(#p38c31c1a73)" style="fill: none; stroke: #000000; stroke-width: 2; stroke-linecap: round"/>
   </g>
   <g id="line2d_14">
    <path d="M 49.5198 102.23 
L 49.5198 71.63 
L 49.5198 71.63 
M 49.5198 41.03 
L 49.5198 41.03 
L 49.5198 10.43 
" clip-path="url(#p38c31c1a73)" style="fill: none; stroke: #000000; stroke-width: 2; stroke-linecap: round"/>
   </g>
   <g id="line2d_15">
    <path d="M 49.5198 63.98 
L 49.5198 56.33 
" clip-path="url(#p38c31c1a73)" style="fill: none; stroke: #000000; stroke-width: 2; stroke-linecap: round"/>
   </g>
   <g id="patch_11">
    <path d="M 47.2248 56.33 
L 49.5198 48.68 
L 51.8148 56.33 
z
" clip-path="url(#p38c31c1a73)"/>
   </g>
   <g id="line2d_16">
    <path d="M 49.5198 10.43 
L 141.3198 10.43 
L 233.1198 10.43 
" clip-path="url(#p38c31c1a73)" style="fill: none; stroke: #000000; stroke-width: 2; stroke-linecap: round"/>
   </g>
   <g id="line2d_17">
    <path d="M 233.1198 10.43 
L 233.1198 41.03 
L 240.7698 43.58 
L 225.4698 48.68 
L 240.7698 53.78 
L 225.4698 58.88 
L 240.7698 63.98 
L 225.4698 69.08 
L 233.1198 71.63 
L 233.1198 102.23 
" clip-path="url(#p38c31c1a73)" style="fill: none; stroke: #000000; stroke-width: 2; stroke-linecap: round"/>
   </g>
   <g id="line2d_18">
    <path d="M 233.1198 102.23 
L 187.2198 102.23 
L 141.3198 102.23 
" clip-path="url(#p38c31c1a73)" style="fill: none; stroke: #000000; stroke-width: 2; stroke-linecap: round"/>
   </g>
   <g id="line2d_19">
    <path d="M 141.3198 102.23 
L 141.3198 71.63 
L 141.3198 71.63 
M 141.3198 41.03 
L 141.3198 41.03 
L 141.3198 10.43 
" clip-path="url(#p38c31c1a73)" style="fill: none; stroke: #000000; stroke-width: 2; stroke-linecap: round"/>
   </g>
   <g id="line2d_20">
    <path d="M 141.3198 56.33 
L 141.3198 48.68 
" clip-path="url(#p38c31c1a73)" style="fill: none; stroke: #000000; stroke-width: 2; stroke-linecap: round"/>
   </g>
   <g id="patch_12">
    <path d="M 143.6148 56.33 
L 141.3198 63.98 
L 139.0248 56.33 
z
" clip-path="url(#p38c31c1a73)"/>
   </g>
   <g id="line2d_21">
    <path d="M 141.3198 102.23 
L 95.4198 102.23 
L 49.5198 102.23 
" clip-path="url(#p38c31c1a73)" style="fill: none; stroke: #000000; stroke-width: 2; stroke-linecap: round"/>
   </g>
   <g id="line2d_22">
    <path d="M 324.9198 102.23 
L 324.9198 71.63 
L 324.9198 71.63 
M 324.9198 41.03 
L 324.9198 41.03 
L 324.9198 10.43 
" clip-path="url(#p38c31c1a73)" style="fill: none; stroke: #000000; stroke-width: 2; stroke-linecap: round"/>
   </g>
   <g id="line2d_23">
    <path d="M 324.9198 63.98 
L 324.9198 56.33 
" clip-path="url(#p38c31c1a73)" style="fill: none; stroke: #000000; stroke-width: 2; stroke-linecap: round"/>
   </g>
   <g id="patch_13">
    <path d="M 322.6248 56.33 
L 324.9198 48.68 
L 327.2148 56.33 
z
" clip-path="url(#p38c31c1a73)"/>
   </g>
   <g id="line2d_24">
    <path d="M 324.9198 10.43 
L 370.8198 10.43 
L 416.7198 10.43 
" clip-path="url(#p38c31c1a73)" style="fill: none; stroke: #000000; stroke-width: 2; stroke-linecap: round"/>
   </g>
   <g id="line2d_25">
    <path d="M 416.7198 10.43 
L 416.7198 41.03 
L 424.3698 43.58 
L 409.0698 48.68 
L 424.3698 53.78 
L 409.0698 58.88 
L 424.3698 63.98 
L 409.0698 69.08 
L 416.7198 71.63 
L 416.7198 102.23 
" clip-path="url(#p38c31c1a73)" style="fill: none; stroke: #000000; stroke-width: 2; stroke-linecap: round"/>
   </g>
   <g id="line2d_26">
    <path d="M 416.7198 102.23 
L 370.8198 102.23 
L 324.9198 102.23 
" clip-path="url(#p38c31c1a73)" style="fill: none; stroke: #000000; stroke-width: 2; stroke-linecap: round"/>
   </g>
   <g id="text_1">
    <g clip-path="url(#p38c31c1a73)">
     <!-- $I_1$ -->
     <g transform="translate(22.0348 52.780586)scale(0.125 -0.125)">
      <defs>
       <path id="STIXGeneral-Italic-49" d="M 2458 4179 
L 2458 4077 
Q 2189 4045 2102 3961 
Q 2016 3878 1933 3584 
L 1165 838 
Q 1069 499 1069 352 
Q 1069 224 1149 179 
Q 1229 134 1510 102 
L 1510 0 
L -51 0 
L -51 102 
Q 218 154 317 237 
Q 416 320 486 582 
L 1254 3405 
Q 1338 3699 1338 3802 
Q 1338 3930 1235 3997 
Q 1133 4064 877 4077 
L 877 4179 
L 2458 4179 
z
" transform="scale(0.015625)"/>
       <path id="STIXGeneral-Regular-31" d="M 2522 0 
L 755 0 
L 755 96 
Q 1107 115 1235 227 
Q 1363 339 1363 608 
L 1363 3482 
Q 1363 3795 1171 3795 
Q 1082 3795 883 3718 
L 710 3654 
L 710 3744 
L 1856 4326 
L 1914 4307 
L 1914 486 
Q 1914 275 2042 185 
Q 2170 96 2522 96 
L 2522 0 
z
" transform="scale(0.015625)"/>
      </defs>
      <use xlink:href="#STIXGeneral-Italic-49" transform="translate(0 0.703125)"/>
      <use xlink:href="#STIXGeneral-Regular-31" transform="translate(33.299988 -12.525)scale(0.7)"/>
     </g>
    </g>
    <g clip-path="url(#p38c31c1a73)">
     <!-- 3A -->
     <g transform="translate(14.655894 66.777852)scale(0.125 -0.125)">
      <defs>
       <path id="DejaVuSans-33" d="M 2597 2516 
Q 3050 2419 3304 2112 
Q 3559 1806 3559 1356 
Q 3559 666 3084 287 
Q 2609 -91 1734 -91 
Q 1441 -91 1130 -33 
Q 819 25 488 141 
L 488 750 
Q 750 597 1062 519 
Q 1375 441 1716 441 
Q 2309 441 2620 675 
Q 2931 909 2931 1356 
Q 2931 1769 2642 2001 
Q 2353 2234 1838 2234 
L 1294 2234 
L 1294 2753 
L 1863 2753 
Q 2328 2753 2575 2939 
Q 2822 3125 2822 3475 
Q 2822 3834 2567 4026 
Q 2313 4219 1838 4219 
Q 1578 4219 1281 4162 
Q 984 4106 628 3988 
L 628 4550 
Q 988 4650 1302 4700 
Q 1616 4750 1894 4750 
Q 2613 4750 3031 4423 
Q 3450 4097 3450 3541 
Q 3450 3153 3228 2886 
Q 3006 2619 2597 2516 
z
" transform="scale(0.015625)"/>
       <path id="DejaVuSans-41" d="M 2188 4044 
L 1331 1722 
L 3047 1722 
L 2188 4044 
z
M 1831 4666 
L 2547 4666 
L 4325 0 
L 3669 0 
L 3244 1197 
L 1141 1197 
L 716 0 
L 50 0 
L 1831 4666 
z
" transform="scale(0.015625)"/>
      </defs>
      <use xlink:href="#DejaVuSans-33"/>
      <use xlink:href="#DejaVuSans-41" x="63.623047"/>
     </g>
    </g>
   </g>
   <g id="text_2">
    <g clip-path="url(#p38c31c1a73)">
     <!-- $R$ -->
     <g transform="translate(214.6598 52.780586)scale(0.125 -0.125)">
      <defs>
       <path id="STIXGeneral-Italic-52" d="M 845 4179 
L 2458 4179 
Q 3078 4179 3420 3936 
Q 3763 3693 3763 3277 
Q 3763 2778 3341 2458 
Q 3091 2266 2502 2131 
L 3072 627 
Q 3181 333 3299 217 
Q 3418 102 3629 102 
L 3629 0 
L 2688 0 
L 1901 2074 
L 1478 2106 
L 1126 806 
Q 1043 512 1043 403 
Q 1043 256 1126 192 
Q 1210 128 1472 102 
L 1472 0 
L -83 0 
L -83 102 
Q 173 134 278 243 
Q 384 352 461 646 
L 1222 3405 
Q 1299 3699 1299 3808 
Q 1299 3923 1210 3987 
Q 1133 4038 845 4077 
L 845 4179 
z
M 1958 3795 
L 1555 2342 
Q 1754 2310 1882 2310 
Q 2451 2310 2771 2566 
Q 3091 2822 3091 3270 
Q 3091 3603 2892 3795 
Q 2694 3987 2323 3987 
Q 2010 3987 1958 3795 
z
" transform="scale(0.015625)"/>
      </defs>
      <use xlink:href="#STIXGeneral-Italic-52" transform="translate(0 0.703125)"/>
     </g>
    </g>
    <g clip-path="url(#p38c31c1a73)">
     <!-- $10\Omega$ -->
     <g transform="translate(200.5348 66.777852)scale(0.125 -0.125)">
      <defs>
       <path id="STIXGeneral-Regular-30" d="M 3046 2112 
Q 3046 1683 2963 1302 
Q 2880 922 2717 602 
Q 2554 282 2266 96 
Q 1978 -90 1600 -90 
Q 1210 -90 915 108 
Q 621 307 461 640 
Q 301 973 227 1350 
Q 154 1728 154 2150 
Q 154 2746 301 3222 
Q 448 3699 790 4012 
Q 1133 4326 1626 4326 
Q 2253 4326 2649 3712 
Q 3046 3098 3046 2112 
z
M 2432 2080 
Q 2432 3091 2217 3625 
Q 2003 4160 1587 4160 
Q 1190 4160 979 3622 
Q 768 3085 768 2106 
Q 768 1120 979 598 
Q 1190 77 1600 77 
Q 2003 77 2217 598 
Q 2432 1120 2432 2080 
z
" transform="scale(0.015625)"/>
       <path id="STIXGeneral-Regular-3a9" d="M 4576 0 
L 2746 0 
L 2790 1030 
Q 3187 1126 3440 1574 
Q 3693 2022 3693 2554 
Q 3693 3251 3344 3673 
Q 2995 4096 2380 4096 
Q 1766 4096 1417 3635 
Q 1069 3174 1069 2554 
Q 1069 2054 1315 1600 
Q 1562 1146 1965 1030 
L 2022 0 
L 186 0 
L 186 1094 
L 346 1094 
Q 352 806 438 707 
Q 525 608 742 608 
L 1709 608 
L 1696 845 
Q 1018 1037 678 1446 
Q 339 1856 339 2541 
Q 339 3238 899 3782 
Q 1459 4326 2380 4326 
Q 3302 4326 3862 3804 
Q 4422 3283 4422 2541 
Q 4422 1235 3046 845 
L 3034 608 
L 4019 608 
Q 4397 608 4416 1082 
L 4576 1082 
L 4576 0 
z
" transform="scale(0.015625)"/>
      </defs>
      <use xlink:href="#STIXGeneral-Regular-31" transform="translate(0 0.40625)"/>
      <use xlink:href="#STIXGeneral-Regular-30" transform="translate(49.999985 0.40625)"/>
      <use xlink:href="#STIXGeneral-Regular-3a9" transform="translate(99.999969 0.40625)"/>
     </g>
    </g>
   </g>
   <g id="text_3">
    <g clip-path="url(#p38c31c1a73)">
     <!-- $I_2$ -->
     <g transform="translate(113.8348 52.780586)scale(0.125 -0.125)">
      <defs>
       <path id="STIXGeneral-Regular-32" d="M 3034 877 
L 2688 0 
L 186 0 
L 186 77 
L 1325 1286 
Q 1773 1754 1965 2144 
Q 2157 2534 2157 2950 
Q 2157 3379 1920 3616 
Q 1683 3853 1267 3853 
Q 922 3853 720 3673 
Q 518 3494 326 3021 
L 192 3053 
Q 301 3648 630 3987 
Q 960 4326 1523 4326 
Q 2054 4326 2380 4006 
Q 2707 3686 2707 3200 
Q 2707 2477 1888 1613 
L 832 486 
L 2330 486 
Q 2541 486 2665 569 
Q 2790 653 2944 915 
L 3034 877 
z
" transform="scale(0.015625)"/>
      </defs>
      <use xlink:href="#STIXGeneral-Italic-49" transform="translate(0 0.703125)"/>
      <use xlink:href="#STIXGeneral-Regular-32" transform="translate(33.299988 -12.525)scale(0.7)"/>
     </g>
    </g>
    <g clip-path="url(#p38c31c1a73)">
     <!-- 2A -->
     <g transform="translate(106.455894 66.777852)scale(0.125 -0.125)">
      <defs>
       <path id="DejaVuSans-32" d="M 1228 531 
L 3431 531 
L 3431 0 
L 469 0 
L 469 531 
Q 828 903 1448 1529 
Q 2069 2156 2228 2338 
Q 2531 2678 2651 2914 
Q 2772 3150 2772 3378 
Q 2772 3750 2511 3984 
Q 2250 4219 1831 4219 
Q 1534 4219 1204 4116 
Q 875 4013 500 3803 
L 500 4441 
Q 881 4594 1212 4672 
Q 1544 4750 1819 4750 
Q 2544 4750 2975 4387 
Q 3406 4025 3406 3419 
Q 3406 3131 3298 2873 
Q 3191 2616 2906 2266 
Q 2828 2175 2409 1742 
Q 1991 1309 1228 531 
z
" transform="scale(0.015625)"/>
      </defs>
      <use xlink:href="#DejaVuSans-32"/>
      <use xlink:href="#DejaVuSans-41" x="63.623047"/>
     </g>
    </g>
   </g>
   <g id="text_4">
    <g clip-path="url(#p38c31c1a73)">
     <!-- $I_1 - I_2$ -->
     <g transform="translate(276.1848 52.780586)scale(0.125 -0.125)">
      <defs>
       <path id="STIXGeneral-Regular-2212" d="M 3974 1408 
L 410 1408 
L 410 1830 
L 3974 1830 
L 3974 1408 
z
" transform="scale(0.015625)"/>
      </defs>
      <use xlink:href="#STIXGeneral-Italic-49" transform="translate(0 0.703125)"/>
      <use xlink:href="#STIXGeneral-Regular-31" transform="translate(33.299988 -12.525)scale(0.7)"/>
      <use xlink:href="#STIXGeneral-Regular-2212" transform="translate(87.149348 0.703125)"/>
      <use xlink:href="#STIXGeneral-Italic-49" transform="translate(170.08933 0.703125)"/>
      <use xlink:href="#STIXGeneral-Regular-32" transform="translate(203.389317 -12.525)scale(0.7)"/>
     </g>
    </g>
    <g clip-path="url(#p38c31c1a73)">
     <!-- 1A -->
     <g transform="translate(290.055894 66.777852)scale(0.125 -0.125)">
      <defs>
       <path id="DejaVuSans-31" d="M 794 531 
L 1825 531 
L 1825 4091 
L 703 3866 
L 703 4441 
L 1819 4666 
L 2450 4666 
L 2450 531 
L 3481 531 
L 3481 0 
L 794 0 
L 794 531 
z
" transform="scale(0.015625)"/>
      </defs>
      <use xlink:href="#DejaVuSans-31"/>
      <use xlink:href="#DejaVuSans-41" x="63.623047"/>
     </g>
    </g>
   </g>
   <g id="text_5">
    <g clip-path="url(#p38c31c1a73)">
     <!-- $R$ -->
     <g transform="translate(398.2598 52.780586)scale(0.125 -0.125)">
      <use xlink:href="#STIXGeneral-Italic-52" transform="translate(0 0.703125)"/>
     </g>
    </g>
    <g clip-path="url(#p38c31c1a73)">
     <!-- $10\Omega$ -->
     <g transform="translate(384.1348 66.777852)scale(0.125 -0.125)">
      <use xlink:href="#STIXGeneral-Regular-31" transform="translate(0 0.40625)"/>
      <use xlink:href="#STIXGeneral-Regular-30" transform="translate(49.999985 0.40625)"/>
      <use xlink:href="#STIXGeneral-Regular-3a9" transform="translate(99.999969 0.40625)"/>
     </g>
    </g>
   </g>
   <g id="text_6">
    <g clip-path="url(#p38c31c1a73)">
     <!-- $I_1$ -->
     <g transform="translate(22.0348 52.780586)scale(0.125 -0.125)">
      <use xlink:href="#STIXGeneral-Italic-49" transform="translate(0 0.703125)"/>
      <use xlink:href="#STIXGeneral-Regular-31" transform="translate(33.299988 -12.525)scale(0.7)"/>
     </g>
    </g>
    <g clip-path="url(#p38c31c1a73)">
     <!-- 3A -->
     <g transform="translate(14.655894 66.777852)scale(0.125 -0.125)">
      <use xlink:href="#DejaVuSans-33"/>
      <use xlink:href="#DejaVuSans-41" x="63.623047"/>
     </g>
    </g>
   </g>
   <g id="text_7">
    <g clip-path="url(#p38c31c1a73)">
     <!-- $R$ -->
     <g transform="translate(214.6598 52.780586)scale(0.125 -0.125)">
      <use xlink:href="#STIXGeneral-Italic-52" transform="translate(0 0.703125)"/>
     </g>
    </g>
    <g clip-path="url(#p38c31c1a73)">
     <!-- $10\Omega$ -->
     <g transform="translate(200.5348 66.777852)scale(0.125 -0.125)">
      <use xlink:href="#STIXGeneral-Regular-31" transform="translate(0 0.40625)"/>
      <use xlink:href="#STIXGeneral-Regular-30" transform="translate(49.999985 0.40625)"/>
      <use xlink:href="#STIXGeneral-Regular-3a9" transform="translate(99.999969 0.40625)"/>
     </g>
    </g>
   </g>
   <g id="text_8">
    <g clip-path="url(#p38c31c1a73)">
     <!-- $I_2$ -->
     <g transform="translate(113.8348 52.780586)scale(0.125 -0.125)">
      <use xlink:href="#STIXGeneral-Italic-49" transform="translate(0 0.703125)"/>
      <use xlink:href="#STIXGeneral-Regular-32" transform="translate(33.299988 -12.525)scale(0.7)"/>
     </g>
    </g>
    <g clip-path="url(#p38c31c1a73)">
     <!-- 2A -->
     <g transform="translate(106.455894 66.777852)scale(0.125 -0.125)">
      <use xlink:href="#DejaVuSans-32"/>
      <use xlink:href="#DejaVuSans-41" x="63.623047"/>
     </g>
    </g>
   </g>
   <g id="text_9">
    <g clip-path="url(#p38c31c1a73)">
     <!-- $I_1 - I_2$ -->
     <g transform="translate(276.1848 52.780586)scale(0.125 -0.125)">
      <use xlink:href="#STIXGeneral-Italic-49" transform="translate(0 0.703125)"/>
      <use xlink:href="#STIXGeneral-Regular-31" transform="translate(33.299988 -12.525)scale(0.7)"/>
      <use xlink:href="#STIXGeneral-Regular-2212" transform="translate(87.149348 0.703125)"/>
      <use xlink:href="#STIXGeneral-Italic-49" transform="translate(170.08933 0.703125)"/>
      <use xlink:href="#STIXGeneral-Regular-32" transform="translate(203.389317 -12.525)scale(0.7)"/>
     </g>
    </g>
    <g clip-path="url(#p38c31c1a73)">
     <!-- 1A -->
     <g transform="translate(290.055894 66.777852)scale(0.125 -0.125)">
      <use xlink:href="#DejaVuSans-31"/>
      <use xlink:href="#DejaVuSans-41" x="63.623047"/>
     </g>
    </g>
   </g>
   <g id="text_10">
    <g clip-path="url(#p38c31c1a73)">
     <!-- $R$ -->
     <g transform="translate(398.2598 52.780586)scale(0.125 -0.125)">
      <use xlink:href="#STIXGeneral-Italic-52" transform="translate(0 0.703125)"/>
     </g>
    </g>
    <g clip-path="url(#p38c31c1a73)">
     <!-- $10\Omega$ -->
     <g transform="translate(384.1348 66.777852)scale(0.125 -0.125)">
      <use xlink:href="#STIXGeneral-Regular-31" transform="translate(0 0.40625)"/>
      <use xlink:href="#STIXGeneral-Regular-30" transform="translate(49.999985 0.40625)"/>
      <use xlink:href="#STIXGeneral-Regular-3a9" transform="translate(99.999969 0.40625)"/>
     </g>
    </g>
   </g>
   <g id="line2d_27">
    <path d="M 233.1198 22.67 
L 233.1198 22.67 
" clip-path="url(#p38c31c1a73)" style="fill: none; stroke: #000000; stroke-width: 2; stroke-linecap: round"/>
   </g>
   <g id="patch_14">
    <path d="M 237.7098 22.67 
L 233.1198 31.85 
L 228.5298 22.67 
z
" clip-path="url(#p38c31c1a73)"/>
   </g>
   <g id="text_11">
    <g clip-path="url(#p38c31c1a73)">
     <!-- $I_R$ -->
     <g transform="translate(213.8148 30.709219)scale(0.125 -0.125)">
      <use xlink:href="#STIXGeneral-Italic-49" transform="translate(0 0.703125)"/>
      <use xlink:href="#STIXGeneral-Italic-52" transform="translate(33.299988 -12.525)scale(0.7)"/>
     </g>
    </g>
   </g>
   <g id="line2d_28">
    <path d="M 416.7198 22.67 
L 416.7198 22.67 
" clip-path="url(#p38c31c1a73)" style="fill: none; stroke: #000000; stroke-width: 2; stroke-linecap: round"/>
   </g>
   <g id="patch_15">
    <path d="M 421.3098 22.67 
L 416.7198 31.85 
L 412.1298 22.67 
z
" clip-path="url(#p38c31c1a73)"/>
   </g>
   <g id="text_12">
    <g clip-path="url(#p38c31c1a73)">
     <!-- $I_R$ -->
     <g transform="translate(397.4148 30.709219)scale(0.125 -0.125)">
      <use xlink:href="#STIXGeneral-Italic-49" transform="translate(0 0.703125)"/>
      <use xlink:href="#STIXGeneral-Italic-52" transform="translate(33.299988 -12.525)scale(0.7)"/>
     </g>
    </g>
   </g>
   <g id="line2d_29">
    <path d="M 233.1198 22.67 
L 233.1198 22.67 
" clip-path="url(#p38c31c1a73)" style="fill: none; stroke: #000000; stroke-width: 2; stroke-linecap: round"/>
   </g>
   <g id="patch_16">
    <path d="M 237.7098 22.67 
L 233.1198 31.85 
L 228.5298 22.67 
z
" clip-path="url(#p38c31c1a73)"/>
   </g>
   <g id="text_13">
    <g clip-path="url(#p38c31c1a73)">
     <!-- $I_R$ -->
     <g transform="translate(213.8148 30.709219)scale(0.125 -0.125)">
      <use xlink:href="#STIXGeneral-Italic-49" transform="translate(0 0.703125)"/>
      <use xlink:href="#STIXGeneral-Italic-52" transform="translate(33.299988 -12.525)scale(0.7)"/>
     </g>
    </g>
   </g>
   <g id="line2d_30">
    <path d="M 416.7198 22.67 
L 416.7198 22.67 
" clip-path="url(#p38c31c1a73)" style="fill: none; stroke: #000000; stroke-width: 2; stroke-linecap: round"/>
   </g>
   <g id="patch_17">
    <path d="M 421.3098 22.67 
L 416.7198 31.85 
L 412.1298 22.67 
z
" clip-path="url(#p38c31c1a73)"/>
   </g>
   <g id="text_14">
    <g clip-path="url(#p38c31c1a73)">
     <!-- $I_R$ -->
     <g transform="translate(397.4148 30.709219)scale(0.125 -0.125)">
      <use xlink:href="#STIXGeneral-Italic-49" transform="translate(0 0.703125)"/>
      <use xlink:href="#STIXGeneral-Italic-52" transform="translate(33.299988 -12.525)scale(0.7)"/>
     </g>
    </g>
   </g>
  </g>
 </g>
 <defs>
  <clipPath id="p38c31c1a73">
   <rect x="7.2" y="7.2" width="420.2298" height="98.09"/>
  </clipPath>
 </defs>
</svg>
