<?xml version="1.0" encoding="utf-8" standalone="no"?>
<!DOCTYPE svg PUBLIC "-//W3C//DTD SVG 1.1//EN"
  "http://www.w3.org/Graphics/SVG/1.1/DTD/svg11.dtd">
<svg xmlns:xlink="http://www.w3.org/1999/xlink" width="123.1116pt" height="112.32pt" viewBox="0 0 123.1116 112.32" xmlns="http://www.w3.org/2000/svg" version="1.1">
 <metadata>
  <rdf:RDF xmlns:dc="http://purl.org/dc/elements/1.1/" xmlns:cc="http://creativecommons.org/ns#" xmlns:rdf="http://www.w3.org/1999/02/22-rdf-syntax-ns#">
   <cc:Work>
    <dc:type rdf:resource="http://purl.org/dc/dcmitype/StillImage"/>
    <dc:date>2023-02-10T13:11:20.534614</dc:date>
    <dc:format>image/svg+xml</dc:format>
    <dc:creator>
     <cc:Agent>
      <dc:title>Matplotlib v3.5.2, https://matplotlib.org/</dc:title>
     </cc:Agent>
    </dc:creator>
   </cc:Work>
  </rdf:RDF>
 </metadata>
 <defs>
  <style type="text/css">*{stroke-linejoin: round; stroke-linecap: butt}</style>
 </defs>
 <g id="figure_1">
  <g id="patch_1">
   <path d="M 0 112.32 
L 123.1116 112.32 
L 123.1116 0 
L 0 0 
L 0 112.32 
z
" style="fill: none"/>
  </g>
  <g id="axes_1">
   <g id="line2d_1">
    <path d="M 105.2016 10.26 
L 105.2016 40.86 
L 112.8516 43.41 
L 97.5516 48.51 
L 112.8516 53.61 
L 97.5516 58.71 
L 112.8516 63.81 
L 97.5516 68.91 
L 105.2016 71.46 
L 105.2016 102.06 
" clip-path="url(#p8c648c48e0)" style="fill: none; stroke: #000000; stroke-width: 2; stroke-linecap: round"/>
   </g>
   <g id="line2d_2">
    <path d="M 105.2016 10.26 
L 105.2016 40.86 
L 112.8516 43.41 
L 97.5516 48.51 
L 112.8516 53.61 
L 97.5516 58.71 
L 112.8516 63.81 
L 97.5516 68.91 
L 105.2016 71.46 
L 105.2016 102.06 
" clip-path="url(#p8c648c48e0)" style="fill: none; stroke: #000000; stroke-width: 2; stroke-linecap: round"/>
   </g>
   <g id="text_1">
    <g clip-path="url(#p8c648c48e0)">
     <!-- $G_P = G_1 + G_2$ -->
     <g transform="translate(27.2416 59.609219)scale(0.125 -0.125)">
      <defs>
       <path id="STIXGeneral-Italic-47" d="M 4621 2042 
L 4621 1939 
Q 4307 1920 4188 1833 
Q 4070 1747 4000 1478 
L 3686 282 
Q 2976 -115 2170 -115 
Q 1293 -115 806 371 
Q 582 595 457 934 
Q 333 1274 333 1606 
Q 333 2266 653 2848 
Q 973 3430 1504 3802 
Q 2170 4262 2912 4262 
Q 3373 4262 3770 4109 
Q 3936 4045 4051 4045 
Q 4282 4045 4435 4262 
L 4531 4230 
L 4218 2970 
L 4102 2989 
Q 4083 3398 3866 3667 
Q 3558 4045 2963 4045 
Q 2214 4045 1715 3411 
Q 1395 3008 1216 2496 
Q 1037 1984 1037 1459 
Q 1037 826 1376 474 
Q 1715 122 2330 122 
Q 2784 122 3002 339 
Q 3059 397 3104 509 
Q 3149 621 3251 986 
Q 3418 1542 3418 1709 
Q 3418 1894 3117 1920 
L 2912 1939 
L 2912 2042 
L 4621 2042 
z
" transform="scale(0.015625)"/>
       <path id="STIXGeneral-Italic-50" d="M 934 4179 
L 2477 4179 
Q 3872 4179 3872 3232 
Q 3872 2976 3753 2729 
Q 3635 2483 3437 2317 
Q 2995 1952 2125 1952 
Q 1773 1952 1549 2003 
L 1210 768 
Q 1120 422 1120 365 
Q 1120 250 1216 189 
Q 1312 128 1562 102 
L 1562 0 
L 0 0 
L 0 102 
Q 275 141 361 227 
Q 448 314 538 627 
L 1280 3277 
Q 1389 3667 1389 3808 
Q 1389 3936 1299 3990 
Q 1210 4045 934 4077 
L 934 4179 
z
M 2048 3789 
L 1606 2221 
Q 1792 2189 1939 2189 
Q 2496 2189 2758 2342 
Q 3213 2598 3213 3200 
Q 3213 3987 2381 3987 
Q 2099 3987 2048 3789 
z
" transform="scale(0.015625)"/>
       <path id="STIXGeneral-Regular-3d" d="M 4077 2048 
L 307 2048 
L 307 2470 
L 4077 2470 
L 4077 2048 
z
M 4077 768 
L 307 768 
L 307 1190 
L 4077 1190 
L 4077 768 
z
" transform="scale(0.015625)"/>
       <path id="STIXGeneral-Regular-31" d="M 2522 0 
L 755 0 
L 755 96 
Q 1107 115 1235 227 
Q 1363 339 1363 608 
L 1363 3482 
Q 1363 3795 1171 3795 
Q 1082 3795 883 3718 
L 710 3654 
L 710 3744 
L 1856 4326 
L 1914 4307 
L 1914 486 
Q 1914 275 2042 185 
Q 2170 96 2522 96 
L 2522 0 
z
" transform="scale(0.015625)"/>
       <path id="STIXGeneral-Regular-2b" d="M 4070 1408 
L 2400 1408 
L 2400 -262 
L 1978 -262 
L 1978 1408 
L 307 1408 
L 307 1830 
L 1978 1830 
L 1978 3501 
L 2400 3501 
L 2400 1830 
L 4070 1830 
L 4070 1408 
z
" transform="scale(0.015625)"/>
       <path id="STIXGeneral-Regular-32" d="M 3034 877 
L 2688 0 
L 186 0 
L 186 77 
L 1325 1286 
Q 1773 1754 1965 2144 
Q 2157 2534 2157 2950 
Q 2157 3379 1920 3616 
Q 1683 3853 1267 3853 
Q 922 3853 720 3673 
Q 518 3494 326 3021 
L 192 3053 
Q 301 3648 630 3987 
Q 960 4326 1523 4326 
Q 2054 4326 2380 4006 
Q 2707 3686 2707 3200 
Q 2707 2477 1888 1613 
L 832 486 
L 2330 486 
Q 2541 486 2665 569 
Q 2790 653 2944 915 
L 3034 877 
z
" transform="scale(0.015625)"/>
      </defs>
      <use xlink:href="#STIXGeneral-Italic-47" transform="translate(0 0.40625)"/>
      <use xlink:href="#STIXGeneral-Italic-50" transform="translate(72.199982 -12.821875)scale(0.7)"/>
      <use xlink:href="#STIXGeneral-Regular-3d" transform="translate(133.819347 0.40625)"/>
      <use xlink:href="#STIXGeneral-Italic-47" transform="translate(216.759328 0.40625)"/>
      <use xlink:href="#STIXGeneral-Regular-31" transform="translate(288.959309 -12.821875)scale(0.7)"/>
      <use xlink:href="#STIXGeneral-Regular-2b" transform="translate(342.80867 0.40625)"/>
      <use xlink:href="#STIXGeneral-Italic-47" transform="translate(425.748651 0.40625)"/>
      <use xlink:href="#STIXGeneral-Regular-32" transform="translate(497.948633 -12.821875)scale(0.7)"/>
     </g>
    </g>
   </g>
   <g id="text_2">
    <g clip-path="url(#p8c648c48e0)">
     <!-- $G_P = G_1 + G_2$ -->
     <g transform="translate(27.2416 59.609219)scale(0.125 -0.125)">
      <use xlink:href="#STIXGeneral-Italic-47" transform="translate(0 0.40625)"/>
      <use xlink:href="#STIXGeneral-Italic-50" transform="translate(72.199982 -12.821875)scale(0.7)"/>
      <use xlink:href="#STIXGeneral-Regular-3d" transform="translate(133.819347 0.40625)"/>
      <use xlink:href="#STIXGeneral-Italic-47" transform="translate(216.759328 0.40625)"/>
      <use xlink:href="#STIXGeneral-Regular-31" transform="translate(288.959309 -12.821875)scale(0.7)"/>
      <use xlink:href="#STIXGeneral-Regular-2b" transform="translate(342.80867 0.40625)"/>
      <use xlink:href="#STIXGeneral-Italic-47" transform="translate(425.748651 0.40625)"/>
      <use xlink:href="#STIXGeneral-Regular-32" transform="translate(497.948633 -12.821875)scale(0.7)"/>
     </g>
    </g>
   </g>
  </g>
 </g>
 <defs>
  <clipPath id="p8c648c48e0">
   <rect x="7.2" y="7.2" width="108.7116" height="97.92"/>
  </clipPath>
 </defs>
</svg>
