<?xml version="1.0" encoding="utf-8" standalone="no"?>
<!DOCTYPE svg PUBLIC "-//W3C//DTD SVG 1.1//EN"
  "http://www.w3.org/Graphics/SVG/1.1/DTD/svg11.dtd">
<svg xmlns:xlink="http://www.w3.org/1999/xlink" width="132.9138pt" height="48.4pt" viewBox="0 0 132.9138 48.4" xmlns="http://www.w3.org/2000/svg" version="1.1">
 <metadata>
  <rdf:RDF xmlns:dc="http://purl.org/dc/elements/1.1/" xmlns:cc="http://creativecommons.org/ns#" xmlns:rdf="http://www.w3.org/1999/02/22-rdf-syntax-ns#">
   <cc:Work>
    <dc:type rdf:resource="http://purl.org/dc/dcmitype/StillImage"/>
    <dc:date>2023-06-27T11:50:22.836100</dc:date>
    <dc:format>image/svg+xml</dc:format>
    <dc:creator>
     <cc:Agent>
      <dc:title>Matplotlib v3.5.2, https://matplotlib.org/</dc:title>
     </cc:Agent>
    </dc:creator>
   </cc:Work>
  </rdf:RDF>
 </metadata>
 <defs>
  <style type="text/css">*{stroke-linejoin: round; stroke-linecap: butt}</style>
 </defs>
 <g id="figure_1">
  <g id="patch_1">
   <path d="M 0 48.4 
L 132.9138 48.4 
L 132.9138 0 
L 0 0 
L 0 48.4 
z
" style="fill: none"/>
  </g>
  <g id="axes_1">
   <g id="patch_2">
    <path d="M 55.7469 19.44 
C 55.7469 18.425936 55.343635 17.452368 54.626583 16.735317 
C 53.909532 16.018265 52.935964 15.615 51.9219 15.615 
C 50.907836 15.615 49.934268 16.018265 49.217217 16.735317 
C 48.500165 17.452368 48.0969 18.425936 48.0969 19.44 
" clip-path="url(#pcfc262ac7c)" style="fill: none; stroke: #000000; stroke-width: 2; stroke-linejoin: miter"/>
   </g>
   <g id="patch_3">
    <path d="M 63.3969 19.44 
C 63.3969 18.425936 62.993635 17.452368 62.276583 16.735317 
C 61.559532 16.018265 60.585964 15.615 59.5719 15.615 
C 58.557836 15.615 57.584268 16.018265 56.867217 16.735317 
C 56.150165 17.452368 55.7469 18.425936 55.7469 19.44 
" clip-path="url(#pcfc262ac7c)" style="fill: none; stroke: #000000; stroke-width: 2; stroke-linejoin: miter"/>
   </g>
   <g id="patch_4">
    <path d="M 71.0469 19.44 
C 71.0469 18.425936 70.643635 17.452368 69.926583 16.735317 
C 69.209532 16.018265 68.235964 15.615 67.2219 15.615 
C 66.207836 15.615 65.234268 16.018265 64.517217 16.735317 
C 63.800165 17.452368 63.3969 18.425936 63.3969 19.44 
" clip-path="url(#pcfc262ac7c)" style="fill: none; stroke: #000000; stroke-width: 2; stroke-linejoin: miter"/>
   </g>
   <g id="patch_5">
    <path d="M 78.6969 19.44 
C 78.6969 18.425936 78.293635 17.452368 77.576583 16.735317 
C 76.859532 16.018265 75.885964 15.615 74.8719 15.615 
C 73.857836 15.615 72.884268 16.018265 72.167217 16.735317 
C 71.450165 17.452368 71.0469 18.425936 71.0469 19.44 
" clip-path="url(#pcfc262ac7c)" style="fill: none; stroke: #000000; stroke-width: 2; stroke-linejoin: miter"/>
   </g>
   <g id="patch_6">
    <path d="M 55.7469 19.44 
C 55.7469 18.425936 55.343635 17.452368 54.626583 16.735317 
C 53.909532 16.018265 52.935964 15.615 51.9219 15.615 
C 50.907836 15.615 49.934268 16.018265 49.217217 16.735317 
C 48.500165 17.452368 48.0969 18.425936 48.0969 19.44 
" clip-path="url(#pcfc262ac7c)" style="fill: none; stroke: #000000; stroke-width: 2; stroke-linejoin: miter"/>
   </g>
   <g id="patch_7">
    <path d="M 63.3969 19.44 
C 63.3969 18.425936 62.993635 17.452368 62.276583 16.735317 
C 61.559532 16.018265 60.585964 15.615 59.5719 15.615 
C 58.557836 15.615 57.584268 16.018265 56.867217 16.735317 
C 56.150165 17.452368 55.7469 18.425936 55.7469 19.44 
" clip-path="url(#pcfc262ac7c)" style="fill: none; stroke: #000000; stroke-width: 2; stroke-linejoin: miter"/>
   </g>
   <g id="patch_8">
    <path d="M 71.0469 19.44 
C 71.0469 18.425936 70.643635 17.452368 69.926583 16.735317 
C 69.209532 16.018265 68.235964 15.615 67.2219 15.615 
C 66.207836 15.615 65.234268 16.018265 64.517217 16.735317 
C 63.800165 17.452368 63.3969 18.425936 63.3969 19.44 
" clip-path="url(#pcfc262ac7c)" style="fill: none; stroke: #000000; stroke-width: 2; stroke-linejoin: miter"/>
   </g>
   <g id="patch_9">
    <path d="M 78.6969 19.44 
C 78.6969 18.425936 78.293635 17.452368 77.576583 16.735317 
C 76.859532 16.018265 75.885964 15.615 74.8719 15.615 
C 73.857836 15.615 72.884268 16.018265 72.167217 16.735317 
C 71.450165 17.452368 71.0469 18.425936 71.0469 19.44 
" clip-path="url(#pcfc262ac7c)" style="fill: none; stroke: #000000; stroke-width: 2; stroke-linejoin: miter"/>
   </g>
   <g id="line2d_1">
    <path d="M 17.4969 19.44 
L 48.0969 19.44 
M 78.6969 19.44 
L 109.2969 19.44 
" clip-path="url(#pcfc262ac7c)" style="fill: none; stroke: #000000; stroke-width: 2; stroke-linecap: round"/>
   </g>
   <g id="line2d_2">
    <path d="M 17.4969 19.44 
L 48.0969 19.44 
M 78.6969 19.44 
L 109.2969 19.44 
" clip-path="url(#pcfc262ac7c)" style="fill: none; stroke: #000000; stroke-width: 2; stroke-linecap: round"/>
   </g>
   <g id="text_1">
    <g clip-path="url(#pcfc262ac7c)">
     <!-- $\cal{R}$$_1$ + $\cal{R}$$_2$ -->
     <g transform="translate(38.3344 31.998047)scale(0.125 -0.125)">
      <defs>
       <path id="STIXNonUnicode-Italic-e23e" d="M 5120 826 
L 5222 710 
Q 4531 -19 3994 -19 
Q 3674 -19 3466 147 
Q 3258 314 3171 528 
Q 3085 742 2944 1046 
Q 2803 1350 2643 1536 
Q 2586 1606 2368 1734 
Q 2150 1862 2118 1862 
L 2176 2010 
Q 2963 2086 3436 2464 
Q 3910 2842 3910 3219 
Q 3910 3654 3657 3811 
Q 3405 3968 2765 3968 
Q 2605 3968 2544 3917 
Q 2483 3866 2451 3750 
L 1709 1216 
Q 1645 998 1593 857 
Q 1542 717 1433 537 
Q 1325 358 1193 252 
Q 1062 147 848 73 
Q 634 0 358 0 
L 416 154 
Q 608 154 707 314 
Q 806 474 934 902 
L 1517 2918 
Q 1709 3565 1709 3661 
Q 1709 3891 1414 3891 
Q 1254 3891 1113 3859 
Q 973 3827 845 3760 
Q 717 3693 646 3648 
Q 576 3603 467 3520 
Q 358 3437 346 3424 
L 243 3546 
Q 486 3795 723 3942 
Q 960 4090 1270 4150 
Q 1581 4211 1801 4224 
Q 2022 4237 2483 4237 
Q 3341 4237 3814 4118 
Q 4288 4000 4432 3811 
Q 4576 3622 4576 3302 
Q 4576 3110 4509 2934 
Q 4442 2758 4275 2560 
Q 4109 2362 3773 2189 
Q 3437 2016 2957 1888 
L 2957 1862 
Q 3219 1760 3382 1568 
Q 3546 1376 3610 1177 
Q 3674 979 3731 796 
Q 3789 614 3897 496 
Q 4006 378 4205 378 
Q 4659 378 5120 826 
z
" transform="scale(0.015625)"/>
       <path id="STIXGeneral-Regular-31" d="M 2522 0 
L 755 0 
L 755 96 
Q 1107 115 1235 227 
Q 1363 339 1363 608 
L 1363 3482 
Q 1363 3795 1171 3795 
Q 1082 3795 883 3718 
L 710 3654 
L 710 3744 
L 1856 4326 
L 1914 4307 
L 1914 486 
Q 1914 275 2042 185 
Q 2170 96 2522 96 
L 2522 0 
z
" transform="scale(0.015625)"/>
       <path id="DejaVuSans-20" transform="scale(0.015625)"/>
       <path id="DejaVuSans-2b" d="M 2944 4013 
L 2944 2272 
L 4684 2272 
L 4684 1741 
L 2944 1741 
L 2944 0 
L 2419 0 
L 2419 1741 
L 678 1741 
L 678 2272 
L 2419 2272 
L 2419 4013 
L 2944 4013 
z
" transform="scale(0.015625)"/>
       <path id="STIXGeneral-Regular-32" d="M 3034 877 
L 2688 0 
L 186 0 
L 186 77 
L 1325 1286 
Q 1773 1754 1965 2144 
Q 2157 2534 2157 2950 
Q 2157 3379 1920 3616 
Q 1683 3853 1267 3853 
Q 922 3853 720 3673 
Q 518 3494 326 3021 
L 192 3053 
Q 301 3648 630 3987 
Q 960 4326 1523 4326 
Q 2054 4326 2380 4006 
Q 2707 3686 2707 3200 
Q 2707 2477 1888 1613 
L 832 486 
L 2330 486 
Q 2541 486 2665 569 
Q 2790 653 2944 915 
L 3034 877 
z
" transform="scale(0.015625)"/>
      </defs>
      <use xlink:href="#STIXNonUnicode-Italic-e23e" transform="translate(0 0.796875)"/>
      <use xlink:href="#STIXGeneral-Regular-31" transform="translate(86.943275 -12.43125)scale(0.7)"/>
      <use xlink:href="#DejaVuSans-20" transform="translate(126.352639 0.796875)"/>
      <use xlink:href="#DejaVuSans-2b" transform="translate(158.139749 0.796875)"/>
      <use xlink:href="#DejaVuSans-20" transform="translate(241.928811 0.796875)"/>
      <use xlink:href="#STIXNonUnicode-Italic-e23e" transform="translate(273.715921 0.796875)"/>
      <use xlink:href="#STIXGeneral-Regular-32" transform="translate(360.659196 -12.43125)scale(0.7)"/>
     </g>
    </g>
   </g>
   <g id="text_2">
    <g clip-path="url(#pcfc262ac7c)">
     <!-- $\cal{R}$$_1$ + $\cal{R}$$_2$ -->
     <g transform="translate(38.3344 31.998047)scale(0.125 -0.125)">
      <use xlink:href="#STIXNonUnicode-Italic-e23e" transform="translate(0 0.796875)"/>
      <use xlink:href="#STIXGeneral-Regular-31" transform="translate(86.943275 -12.43125)scale(0.7)"/>
      <use xlink:href="#DejaVuSans-20" transform="translate(126.352639 0.796875)"/>
      <use xlink:href="#DejaVuSans-2b" transform="translate(158.139749 0.796875)"/>
      <use xlink:href="#DejaVuSans-20" transform="translate(241.928811 0.796875)"/>
      <use xlink:href="#STIXNonUnicode-Italic-e23e" transform="translate(273.715921 0.796875)"/>
      <use xlink:href="#STIXGeneral-Regular-32" transform="translate(360.659196 -12.43125)scale(0.7)"/>
     </g>
    </g>
   </g>
  </g>
 </g>
 <defs>
  <clipPath id="pcfc262ac7c">
   <rect x="7.2" y="7.2" width="118.5138" height="34"/>
  </clipPath>
 </defs>
</svg>
