<?xml version="1.0" encoding="utf-8" standalone="no"?>
<!DOCTYPE svg PUBLIC "-//W3C//DTD SVG 1.1//EN"
  "http://www.w3.org/Graphics/SVG/1.1/DTD/svg11.dtd">
<svg xmlns:xlink="http://www.w3.org/1999/xlink" width="123.1116pt" height="112.32pt" viewBox="0 0 123.1116 112.32" xmlns="http://www.w3.org/2000/svg" version="1.1">
 <metadata>
  <rdf:RDF xmlns:dc="http://purl.org/dc/elements/1.1/" xmlns:cc="http://creativecommons.org/ns#" xmlns:rdf="http://www.w3.org/1999/02/22-rdf-syntax-ns#">
   <cc:Work>
    <dc:type rdf:resource="http://purl.org/dc/dcmitype/StillImage"/>
    <dc:date>2023-02-10T13:23:04.169297</dc:date>
    <dc:format>image/svg+xml</dc:format>
    <dc:creator>
     <cc:Agent>
      <dc:title>Matplotlib v3.5.2, https://matplotlib.org/</dc:title>
     </cc:Agent>
    </dc:creator>
   </cc:Work>
  </rdf:RDF>
 </metadata>
 <defs>
  <style type="text/css">*{stroke-linejoin: round; stroke-linecap: butt}</style>
 </defs>
 <g id="figure_1">
  <g id="patch_1">
   <path d="M 0 112.32 
L 1 112.351436 
L 2 112.388377 
L 3 112.486123 
L 4 112.518645 
L 5 112.59227 
L 6 112.630835 
L 7 112.666248 
L 8 112.723888 
L 9 112.794274 
L 10 112.846239 
L 11 112.905328 
L 12 112.993649 
L 13 113.039794 
L 14 113.082205 
L 15 113.112697 
L 16 113.138742 
L 17 113.159942 
L 18 113.214243 
L 19 113.242181 
L 20 113.271905 
L 21 113.2973 
L 22 113.3085 
L 23 113.318624 
L 24 113.31842 
L 25 113.30891 
L 26 113.297256 
L 27 113.266227 
L 28 113.255059 
L 29 113.224942 
L 30 113.165165 
L 31 113.127973 
L 32 113.088877 
L 33 113.046437 
L 34 113.013672 
L 35 112.946246 
L 36 112.90712 
L 37 112.864445 
L 38 112.793865 
L 39 112.757474 
L 40 112.699071 
L 41 112.588118 
L 42 112.51746 
L 43 112.40452 
L 44 112.358747 
L 45 112.297464 
L 46 112.248965 
L 47 112.168142 
L 48 112.049623 
L 49 111.979412 
L 50 111.89615 
L 51 111.863008 
L 52 111.811771 
L 53 111.743372 
L 54 111.677157 
L 55 111.60024 
L 56 111.572924 
L 57 111.546447 
L 58 111.523796 
L 59 111.504265 
L 60 111.477871 
L 61 111.4281 
L 62 111.393027 
L 63 111.357161 
L 64 111.341794 
L 65 111.326025 
L 66 111.322612 
L 67 111.320195 
L 68 111.320681 
L 69 111.32261 
L 70 111.335867 
L 71 111.344258 
L 72 111.365794 
L 73 111.388827 
L 74 111.40606 
L 75 111.424523 
L 76 111.444975 
L 77 111.461575 
L 78 111.524354 
L 79 111.599619 
L 80 111.632258 
L 81 111.699822 
L 82 111.753869 
L 83 111.787573 
L 84 111.877699 
L 85 111.906234 
L 86 111.93772 
L 87 111.968731 
L 88 112.023539 
L 89 112.088126 
L 90 112.126322 
L 91 112.222256 
L 92 112.271514 
L 93 112.315583 
L 94 112.355707 
L 95 112.464074 
L 96 112.505702 
L 97 112.567844 
L 98 112.637806 
L 99 112.74231 
L 100 112.779298 
L 101 112.825175 
L 102 112.89367 
L 103 112.942416 
L 104 113.020013 
L 105 113.050554 
L 106 113.120068 
L 107 113.144041 
L 108 113.172663 
L 109 113.214456 
L 110 113.236032 
L 111 113.24998 
L 112 113.276702 
L 113 113.286012 
L 114 113.298459 
L 115 113.309514 
L 116 113.315178 
L 117 113.319942 
L 118 113.314394 
L 119 113.301106 
L 120 113.293589 
L 121 113.268804 
L 122 113.245235 
L 123.1116 113.209055 
L 123.974693 111.32 
L 123.952371 110.32 
L 123.883611 109.32 
L 123.809076 108.32 
L 123.715097 107.32 
L 123.664045 106.32 
L 123.610111 105.32 
L 123.57486 104.32 
L 123.468772 103.32 
L 123.416508 102.32 
L 123.379601 101.32 
L 123.34857 100.32 
L 123.287415 99.32 
L 123.219995 98.32 
L 123.171089 97.32 
L 123.105897 96.32 
L 123.067709 95.32 
L 123.025713 94.32 
L 122.983696 93.32 
L 122.92418 92.32 
L 122.81102 91.32 
L 122.758769 90.32 
L 122.719351 89.32 
L 122.67225 88.32 
L 122.61547 87.32 
L 122.582807 86.32 
L 122.546629 85.32 
L 122.514539 84.32 
L 122.480259 83.32 
L 122.421881 82.32 
L 122.376696 81.32 
L 122.347072 80.32 
L 122.296686 79.32 
L 122.271489 78.32 
L 122.250438 77.32 
L 122.21547 76.32 
L 122.19118 75.32 
L 122.177113 74.32 
L 122.158171 73.32 
L 122.14251 72.32 
L 122.129958 71.32 
L 122.124122 70.32 
L 122.11724 69.32 
L 122.112066 68.32 
L 122.113849 67.32 
L 122.116574 66.32 
L 122.127728 65.32 
L 122.155963 64.32 
L 122.199751 63.32 
L 122.22044 62.32 
L 122.261413 61.32 
L 122.301488 60.32 
L 122.320598 59.32 
L 122.343107 58.32 
L 122.409758 57.32 
L 122.459468 56.32 
L 122.533174 55.32 
L 122.564488 54.32 
L 122.64111 53.32 
L 122.679408 52.32 
L 122.753525 51.32 
L 122.857583 50.32 
L 122.927414 49.32 
L 123.032648 48.32 
L 123.087663 47.32 
L 123.211138 46.32 
L 123.281697 45.32 
L 123.397536 44.32 
L 123.447717 43.32 
L 123.483321 42.32 
L 123.574728 41.32 
L 123.628236 40.32 
L 123.716144 39.32 
L 123.785329 38.32 
L 123.832093 37.32 
L 123.904137 36.32 
L 123.954279 35.32 
L 123.971669 34.32 
L 123.998672 33.32 
L 124.018099 32.32 
L 124.037437 31.32 
L 124.075686 30.32 
L 124.092119 29.32 
L 124.100488 28.32 
L 124.104807 27.32 
L 124.111362 26.32 
L 124.108816 25.32 
L 124.103357 24.32 
L 124.086929 23.32 
L 124.054994 22.32 
L 124.017014 21.32 
L 123.98221 20.32 
L 123.919138 19.32 
L 123.897711 18.32 
L 123.847093 17.32 
L 123.822136 16.32 
L 123.766502 15.32 
L 123.735273 14.32 
L 123.685129 13.32 
L 123.652636 12.32 
L 123.572224 11.32 
L 123.503298 10.32 
L 123.387601 9.32 
L 123.312122 8.32 
L 123.196597 7.32 
L 123.117113 6.32 
L 123.008672 5.32 
L 122.969304 4.32 
L 122.866436 3.32 
L 122.766638 2.32 
L 122.721141 1.32 
L 122.686819 0 
L 122.1116 0.476737 
L 121.1116 0.516384 
L 120.1116 0.551898 
L 119.1116 0.619543 
L 118.1116 0.658625 
L 117.1116 0.709106 
L 116.1116 0.758412 
L 115.1116 0.809482 
L 114.1116 0.853721 
L 113.1116 0.875741 
L 112.1116 0.891297 
L 111.1116 0.933744 
L 110.1116 0.948612 
L 109.1116 0.97134 
L 108.1116 0.991656 
L 107.1116 0.997453 
L 106.1116 0.999935 
L 105.1116 0.996878 
L 104.1116 0.985282 
L 103.1116 0.968362 
L 102.1116 0.936701 
L 101.1116 0.922618 
L 100.1116 0.869946 
L 99.1116 0.820857 
L 98.1116 0.766156 
L 97.1116 0.721808 
L 96.1116 0.651816 
L 95.1116 0.601433 
L 94.1116 0.547526 
L 93.1116 0.478087 
L 92.1116 0.420699 
L 91.1116 0.370534 
L 90.1116 0.293372 
L 89.1116 0.235182 
L 88.1116 0.174544 
L 87.1116 0.137343 
L 86.1116 0.072251 
L 85.1116 -0.032879 
L 84.1116 -0.093181 
L 83.1116 -0.189503 
L 82.1116 -0.221506 
L 81.1116 -0.272523 
L 80.1116 -0.389315 
L 79.1116 -0.424762 
L 78.1116 -0.480642 
L 77.1116 -0.511018 
L 76.1116 -0.599404 
L 75.1116 -0.644168 
L 74.1116 -0.725056 
L 73.1116 -0.785202 
L 72.1116 -0.848288 
L 71.1116 -0.871236 
L 70.1116 -0.887406 
L 69.1116 -0.916335 
L 68.1116 -0.946687 
L 67.1116 -0.959261 
L 66.1116 -0.98414 
L 65.1116 -0.996224 
L 64.1116 -0.999986 
L 63.1116 -0.99555 
L 62.1116 -0.983211 
L 61.1116 -0.968798 
L 60.1116 -0.952725 
L 59.1116 -0.917204 
L 58.1116 -0.89727 
L 57.1116 -0.840681 
L 56.1116 -0.773487 
L 55.1116 -0.746117 
L 54.1116 -0.711969 
L 53.1116 -0.663289 
L 52.1116 -0.615004 
L 51.1116 -0.555927 
L 50.1116 -0.460322 
L 49.1116 -0.417182 
L 48.1116 -0.367334 
L 47.1116 -0.3088 
L 46.1116 -0.261214 
L 45.1116 -0.200086 
L 44.1116 -0.144001 
L 43.1116 -0.06983 
L 42.1116 0.047408 
L 41.1116 0.103132 
L 40.1116 0.211358 
L 39.1116 0.317508 
L 38.1116 0.42508 
L 37.1116 0.459588 
L 36.1116 0.562895 
L 35.1116 0.638619 
L 34.1116 0.678054 
L 33.1116 0.717438 
L 32.1116 0.73992 
L 31.1116 0.795733 
L 30.1116 0.821785 
L 29.1116 0.85202 
L 28.1116 0.902791 
L 27.1116 0.921442 
L 26.1116 0.943151 
L 25.1116 0.955797 
L 24.1116 0.97479 
L 23.1116 0.99218 
L 22.1116 0.999218 
L 21.1116 0.998194 
L 20.1116 0.99119 
L 19.1116 0.98182 
L 18.1116 0.958422 
L 17.1116 0.933339 
L 16.1116 0.92094 
L 15.1116 0.887847 
L 14.1116 0.87148 
L 13.1116 0.853075 
L 12.1116 0.803938 
L 11.1116 0.760125 
L 10.1116 0.71704 
L 9.1116 0.694099 
L 8.1116 0.653836 
L 7.1116 0.568976 
L 6.1116 0.526584 
L 5.1116 0.462198 
L 4.1116 0.417909 
L 3.1116 0.310063 
L 2.1116 0.233123 
L 1.1116 0.196681 
L 0 0.141794 
L 0.066693 1 
L 0.008098 2 
L -0.028477 3 
L -0.140524 4 
L -0.202209 5 
L -0.252729 6 
L -0.351514 7 
L -0.389536 8 
L -0.424984 9 
L -0.516618 10 
L -0.55989 11 
L -0.613219 12 
L -0.646084 13 
L -0.708978 14 
L -0.762832 15 
L -0.819958 16 
L -0.842048 17 
L -0.885787 18 
L -0.932881 19 
L -0.949728 20 
L -0.977802 21 
L -0.988798 22 
L -0.993367 23 
L -0.999015 24 
L -0.999066 25 
L -0.995976 26 
L -0.992463 27 
L -0.986641 28 
L -0.973789 29 
L -0.950164 30 
L -0.93528 31 
L -0.911708 32 
L -0.875389 33 
L -0.843806 34 
L -0.813913 35 
L -0.735221 36 
L -0.69867 37 
L -0.672947 38 
L -0.602274 39 
L -0.511172 40 
L -0.449215 41 
L -0.415602 42 
L -0.381102 43 
L -0.283662 44 
L -0.236072 45 
L -0.204566 46 
L -0.160881 47 
L -0.090712 48 
L -0.040845 49 
L -0.006168 50 
L 0.10348 51 
L 0.136951 52 
L 0.174293 53 
L 0.254538 54 
L 0.293032 55 
L 0.334809 56 
L 0.377234 57 
L 0.486962 58 
L 0.575247 59 
L 0.649893 60 
L 0.73835 61 
L 0.812412 62 
L 0.861577 63 
L 0.917194 64 
L 0.951894 65 
L 0.963765 66 
L 0.985988 67 
L 0.997967 68 
L 0.999719 69 
L 0.994302 70 
L 0.978104 71 
L 0.961604 72 
L 0.930421 73 
L 0.917056 74 
L 0.887413 75 
L 0.82439 76 
L 0.775069 77 
L 0.72898 78 
L 0.646753 79 
L 0.60085 80 
L 0.566525 81 
L 0.512986 82 
L 0.424099 83 
L 0.392961 84 
L 0.284912 85 
L 0.17284 86 
L 0.137402 87 
L 0.052616 88 
L -0.012991 89 
L -0.115045 90 
L -0.23126 91 
L -0.271951 92 
L -0.31304 93 
L -0.349681 94 
L -0.390677 95 
L -0.466746 96 
L -0.542812 97 
L -0.5735 98 
L -0.599991 99 
L -0.656572 100 
L -0.701088 101 
L -0.731106 102 
L -0.758162 103 
L -0.800727 104 
L -0.853592 105 
L -0.884513 106 
L -0.910788 107 
L -0.925721 108 
L -0.95601 109 
L -0.977339 110 
L -0.994228 111 
L -0.998943 112.32 
L 0 112.32 
z
" style="fill: none; stroke: #ffffff; stroke-width: 4; stroke-linejoin: miter"/>
   <path d="M 0 112.32 
L 1 112.351436 
L 2 112.388377 
L 3 112.486123 
L 4 112.518645 
L 5 112.59227 
L 6 112.630835 
L 7 112.666248 
L 8 112.723888 
L 9 112.794274 
L 10 112.846239 
L 11 112.905328 
L 12 112.993649 
L 13 113.039794 
L 14 113.082205 
L 15 113.112697 
L 16 113.138742 
L 17 113.159942 
L 18 113.214243 
L 19 113.242181 
L 20 113.271905 
L 21 113.2973 
L 22 113.3085 
L 23 113.318624 
L 24 113.31842 
L 25 113.30891 
L 26 113.297256 
L 27 113.266227 
L 28 113.255059 
L 29 113.224942 
L 30 113.165165 
L 31 113.127973 
L 32 113.088877 
L 33 113.046437 
L 34 113.013672 
L 35 112.946246 
L 36 112.90712 
L 37 112.864445 
L 38 112.793865 
L 39 112.757474 
L 40 112.699071 
L 41 112.588118 
L 42 112.51746 
L 43 112.40452 
L 44 112.358747 
L 45 112.297464 
L 46 112.248965 
L 47 112.168142 
L 48 112.049623 
L 49 111.979412 
L 50 111.89615 
L 51 111.863008 
L 52 111.811771 
L 53 111.743372 
L 54 111.677157 
L 55 111.60024 
L 56 111.572924 
L 57 111.546447 
L 58 111.523796 
L 59 111.504265 
L 60 111.477871 
L 61 111.4281 
L 62 111.393027 
L 63 111.357161 
L 64 111.341794 
L 65 111.326025 
L 66 111.322612 
L 67 111.320195 
L 68 111.320681 
L 69 111.32261 
L 70 111.335867 
L 71 111.344258 
L 72 111.365794 
L 73 111.388827 
L 74 111.40606 
L 75 111.424523 
L 76 111.444975 
L 77 111.461575 
L 78 111.524354 
L 79 111.599619 
L 80 111.632258 
L 81 111.699822 
L 82 111.753869 
L 83 111.787573 
L 84 111.877699 
L 85 111.906234 
L 86 111.93772 
L 87 111.968731 
L 88 112.023539 
L 89 112.088126 
L 90 112.126322 
L 91 112.222256 
L 92 112.271514 
L 93 112.315583 
L 94 112.355707 
L 95 112.464074 
L 96 112.505702 
L 97 112.567844 
L 98 112.637806 
L 99 112.74231 
L 100 112.779298 
L 101 112.825175 
L 102 112.89367 
L 103 112.942416 
L 104 113.020013 
L 105 113.050554 
L 106 113.120068 
L 107 113.144041 
L 108 113.172663 
L 109 113.214456 
L 110 113.236032 
L 111 113.24998 
L 112 113.276702 
L 113 113.286012 
L 114 113.298459 
L 115 113.309514 
L 116 113.315178 
L 117 113.319942 
L 118 113.314394 
L 119 113.301106 
L 120 113.293589 
L 121 113.268804 
L 122 113.245235 
L 123.1116 113.209055 
L 123.974693 111.32 
L 123.952371 110.32 
L 123.883611 109.32 
L 123.809076 108.32 
L 123.715097 107.32 
L 123.664045 106.32 
L 123.610111 105.32 
L 123.57486 104.32 
L 123.468772 103.32 
L 123.416508 102.32 
L 123.379601 101.32 
L 123.34857 100.32 
L 123.287415 99.32 
L 123.219995 98.32 
L 123.171089 97.32 
L 123.105897 96.32 
L 123.067709 95.32 
L 123.025713 94.32 
L 122.983696 93.32 
L 122.92418 92.32 
L 122.81102 91.32 
L 122.758769 90.32 
L 122.719351 89.32 
L 122.67225 88.32 
L 122.61547 87.32 
L 122.582807 86.32 
L 122.546629 85.32 
L 122.514539 84.32 
L 122.480259 83.32 
L 122.421881 82.32 
L 122.376696 81.32 
L 122.347072 80.32 
L 122.296686 79.32 
L 122.271489 78.32 
L 122.250438 77.32 
L 122.21547 76.32 
L 122.19118 75.32 
L 122.177113 74.32 
L 122.158171 73.32 
L 122.14251 72.32 
L 122.129958 71.32 
L 122.124122 70.32 
L 122.11724 69.32 
L 122.112066 68.32 
L 122.113849 67.32 
L 122.116574 66.32 
L 122.127728 65.32 
L 122.155963 64.32 
L 122.199751 63.32 
L 122.22044 62.32 
L 122.261413 61.32 
L 122.301488 60.32 
L 122.320598 59.32 
L 122.343107 58.32 
L 122.409758 57.32 
L 122.459468 56.32 
L 122.533174 55.32 
L 122.564488 54.32 
L 122.64111 53.32 
L 122.679408 52.32 
L 122.753525 51.32 
L 122.857583 50.32 
L 122.927414 49.32 
L 123.032648 48.32 
L 123.087663 47.32 
L 123.211138 46.32 
L 123.281697 45.32 
L 123.397536 44.32 
L 123.447717 43.32 
L 123.483321 42.32 
L 123.574728 41.32 
L 123.628236 40.32 
L 123.716144 39.32 
L 123.785329 38.32 
L 123.832093 37.32 
L 123.904137 36.32 
L 123.954279 35.32 
L 123.971669 34.32 
L 123.998672 33.32 
L 124.018099 32.32 
L 124.037437 31.32 
L 124.075686 30.32 
L 124.092119 29.32 
L 124.100488 28.32 
L 124.104807 27.32 
L 124.111362 26.32 
L 124.108816 25.32 
L 124.103357 24.32 
L 124.086929 23.32 
L 124.054994 22.32 
L 124.017014 21.32 
L 123.98221 20.32 
L 123.919138 19.32 
L 123.897711 18.32 
L 123.847093 17.32 
L 123.822136 16.32 
L 123.766502 15.32 
L 123.735273 14.32 
L 123.685129 13.32 
L 123.652636 12.32 
L 123.572224 11.32 
L 123.503298 10.32 
L 123.387601 9.32 
L 123.312122 8.32 
L 123.196597 7.32 
L 123.117113 6.32 
L 123.008672 5.32 
L 122.969304 4.32 
L 122.866436 3.32 
L 122.766638 2.32 
L 122.721141 1.32 
L 122.686819 0 
L 122.1116 0.476737 
L 121.1116 0.516384 
L 120.1116 0.551898 
L 119.1116 0.619543 
L 118.1116 0.658625 
L 117.1116 0.709106 
L 116.1116 0.758412 
L 115.1116 0.809482 
L 114.1116 0.853721 
L 113.1116 0.875741 
L 112.1116 0.891297 
L 111.1116 0.933744 
L 110.1116 0.948612 
L 109.1116 0.97134 
L 108.1116 0.991656 
L 107.1116 0.997453 
L 106.1116 0.999935 
L 105.1116 0.996878 
L 104.1116 0.985282 
L 103.1116 0.968362 
L 102.1116 0.936701 
L 101.1116 0.922618 
L 100.1116 0.869946 
L 99.1116 0.820857 
L 98.1116 0.766156 
L 97.1116 0.721808 
L 96.1116 0.651816 
L 95.1116 0.601433 
L 94.1116 0.547526 
L 93.1116 0.478087 
L 92.1116 0.420699 
L 91.1116 0.370534 
L 90.1116 0.293372 
L 89.1116 0.235182 
L 88.1116 0.174544 
L 87.1116 0.137343 
L 86.1116 0.072251 
L 85.1116 -0.032879 
L 84.1116 -0.093181 
L 83.1116 -0.189503 
L 82.1116 -0.221506 
L 81.1116 -0.272523 
L 80.1116 -0.389315 
L 79.1116 -0.424762 
L 78.1116 -0.480642 
L 77.1116 -0.511018 
L 76.1116 -0.599404 
L 75.1116 -0.644168 
L 74.1116 -0.725056 
L 73.1116 -0.785202 
L 72.1116 -0.848288 
L 71.1116 -0.871236 
L 70.1116 -0.887406 
L 69.1116 -0.916335 
L 68.1116 -0.946687 
L 67.1116 -0.959261 
L 66.1116 -0.98414 
L 65.1116 -0.996224 
L 64.1116 -0.999986 
L 63.1116 -0.99555 
L 62.1116 -0.983211 
L 61.1116 -0.968798 
L 60.1116 -0.952725 
L 59.1116 -0.917204 
L 58.1116 -0.89727 
L 57.1116 -0.840681 
L 56.1116 -0.773487 
L 55.1116 -0.746117 
L 54.1116 -0.711969 
L 53.1116 -0.663289 
L 52.1116 -0.615004 
L 51.1116 -0.555927 
L 50.1116 -0.460322 
L 49.1116 -0.417182 
L 48.1116 -0.367334 
L 47.1116 -0.3088 
L 46.1116 -0.261214 
L 45.1116 -0.200086 
L 44.1116 -0.144001 
L 43.1116 -0.06983 
L 42.1116 0.047408 
L 41.1116 0.103132 
L 40.1116 0.211358 
L 39.1116 0.317508 
L 38.1116 0.42508 
L 37.1116 0.459588 
L 36.1116 0.562895 
L 35.1116 0.638619 
L 34.1116 0.678054 
L 33.1116 0.717438 
L 32.1116 0.73992 
L 31.1116 0.795733 
L 30.1116 0.821785 
L 29.1116 0.85202 
L 28.1116 0.902791 
L 27.1116 0.921442 
L 26.1116 0.943151 
L 25.1116 0.955797 
L 24.1116 0.97479 
L 23.1116 0.99218 
L 22.1116 0.999218 
L 21.1116 0.998194 
L 20.1116 0.99119 
L 19.1116 0.98182 
L 18.1116 0.958422 
L 17.1116 0.933339 
L 16.1116 0.92094 
L 15.1116 0.887847 
L 14.1116 0.87148 
L 13.1116 0.853075 
L 12.1116 0.803938 
L 11.1116 0.760125 
L 10.1116 0.71704 
L 9.1116 0.694099 
L 8.1116 0.653836 
L 7.1116 0.568976 
L 6.1116 0.526584 
L 5.1116 0.462198 
L 4.1116 0.417909 
L 3.1116 0.310063 
L 2.1116 0.233123 
L 1.1116 0.196681 
L 0 0.141794 
L 0.066693 1 
L 0.008098 2 
L -0.028477 3 
L -0.140524 4 
L -0.202209 5 
L -0.252729 6 
L -0.351514 7 
L -0.389536 8 
L -0.424984 9 
L -0.516618 10 
L -0.55989 11 
L -0.613219 12 
L -0.646084 13 
L -0.708978 14 
L -0.762832 15 
L -0.819958 16 
L -0.842048 17 
L -0.885787 18 
L -0.932881 19 
L -0.949728 20 
L -0.977802 21 
L -0.988798 22 
L -0.993367 23 
L -0.999015 24 
L -0.999066 25 
L -0.995976 26 
L -0.992463 27 
L -0.986641 28 
L -0.973789 29 
L -0.950164 30 
L -0.93528 31 
L -0.911708 32 
L -0.875389 33 
L -0.843806 34 
L -0.813913 35 
L -0.735221 36 
L -0.69867 37 
L -0.672947 38 
L -0.602274 39 
L -0.511172 40 
L -0.449215 41 
L -0.415602 42 
L -0.381102 43 
L -0.283662 44 
L -0.236072 45 
L -0.204566 46 
L -0.160881 47 
L -0.090712 48 
L -0.040845 49 
L -0.006168 50 
L 0.10348 51 
L 0.136951 52 
L 0.174293 53 
L 0.254538 54 
L 0.293032 55 
L 0.334809 56 
L 0.377234 57 
L 0.486962 58 
L 0.575247 59 
L 0.649893 60 
L 0.73835 61 
L 0.812412 62 
L 0.861577 63 
L 0.917194 64 
L 0.951894 65 
L 0.963765 66 
L 0.985988 67 
L 0.997967 68 
L 0.999719 69 
L 0.994302 70 
L 0.978104 71 
L 0.961604 72 
L 0.930421 73 
L 0.917056 74 
L 0.887413 75 
L 0.82439 76 
L 0.775069 77 
L 0.72898 78 
L 0.646753 79 
L 0.60085 80 
L 0.566525 81 
L 0.512986 82 
L 0.424099 83 
L 0.392961 84 
L 0.284912 85 
L 0.17284 86 
L 0.137402 87 
L 0.052616 88 
L -0.012991 89 
L -0.115045 90 
L -0.23126 91 
L -0.271951 92 
L -0.31304 93 
L -0.349681 94 
L -0.390677 95 
L -0.466746 96 
L -0.542812 97 
L -0.5735 98 
L -0.599991 99 
L -0.656572 100 
L -0.701088 101 
L -0.731106 102 
L -0.758162 103 
L -0.800727 104 
L -0.853592 105 
L -0.884513 106 
L -0.910788 107 
L -0.925721 108 
L -0.95601 109 
L -0.977339 110 
L -0.994228 111 
L -0.998943 112.32 
L 0 112.32 
z
" style="fill: none"/>
   <g id="axes_1">
    <path d="M 105.2016 10.26 
L 105.170164 11.26 
L 105.133223 12.26 
L 105.035477 13.26 
L 105.002955 14.26 
L 104.92933 15.26 
L 104.890765 16.26 
L 104.855352 17.26 
L 104.797712 18.26 
L 104.727326 19.26 
L 104.675361 20.26 
L 104.616272 21.26 
L 104.527951 22.26 
L 104.481806 23.26 
L 104.439395 24.26 
L 104.408903 25.26 
L 104.382858 26.26 
L 104.361658 27.26 
L 104.307357 28.26 
L 104.279419 29.26 
L 104.249695 30.26 
L 104.2243 31.26 
L 104.2131 32.26 
L 104.202976 33.26 
L 104.20318 34.26 
L 104.21269 35.26 
L 104.224344 36.26 
L 104.255373 37.26 
L 104.266541 38.26 
L 104.296658 39.26 
L 104.356435 40.86 
L 105.89478 41.942738 
L 106.855826 42.221876 
L 107.81793 42.497842 
L 108.776975 42.782986 
L 109.74698 43.035248 
L 110.708036 43.314357 
L 111.670214 43.590101 
L 112.701751 43.859548 
L 111.764575 43.311204 
L 110.834361 43.682837 
L 109.920764 44.104324 
L 108.994425 44.487584 
L 108.081456 44.910956 
L 107.147247 45.270608 
L 106.217943 45.644974 
L 105.284597 46.007212 
L 104.361472 46.400115 
L 103.450268 46.82878 
L 102.523787 47.211615 
L 101.601434 47.606833 
L 100.663231 47.954501 
L 99.73075 48.319337 
L 98.803696 48.700453 
L 97.754885 49.119854 
L 98.727891 48.143403 
L 99.685213 48.433717 
L 100.642269 48.724826 
L 101.598115 49.019566 
L 102.552975 49.317265 
L 103.510004 49.608453 
L 104.474427 49.877464 
L 105.434201 50.160418 
L 106.394226 50.442621 
L 107.347769 50.74427 
L 108.301439 51.045538 
L 109.251201 51.358528 
L 110.200649 51.672462 
L 111.149179 51.989151 
L 112.097252 52.307209 
L 113.16281 52.67637 
L 112.211474 54.851898 
L 111.25598 55.147694 
L 110.300013 55.442072 
L 109.34588 55.74195 
L 108.391358 56.040663 
L 107.436207 56.337488 
L 106.482275 56.637968 
L 105.513739 56.894638 
L 104.541255 57.139463 
L 103.58225 57.424727 
L 102.612201 57.676858 
L 101.646427 57.941813 
L 100.687085 58.226065 
L 99.709902 58.456792 
L 98.752195 58.745949 
L 97.672487 59.072662 
L 98.611364 58.692985 
L 99.542716 59.061208 
L 100.470975 59.438709 
L 101.40758 59.791172 
L 102.325926 60.198411 
L 103.259032 60.561369 
L 104.19378 60.919404 
L 105.129775 61.273697 
L 106.044189 61.692731 
L 106.979709 62.04845 
L 107.908741 62.42363 
L 108.835301 62.80623 
L 109.750937 63.2216 
L 110.687923 63.572917 
L 111.622099 63.932668 
L 112.67019 64.354231 
L 111.706092 63.535753 
L 110.73287 63.778365 
L 109.774529 64.065619 
L 108.803863 64.3159 
L 107.847599 64.609385 
L 106.889865 64.89846 
L 105.927965 65.175039 
L 104.972459 65.470798 
L 104.019365 65.773794 
L 103.062231 66.06467 
L 102.110604 66.372066 
L 101.157985 66.676486 
L 100.205805 66.982226 
L 99.255331 67.29308 
L 98.305141 67.604788 
L 97.237145 67.966635 
L 98.19003 70.156987 
L 99.141091 70.466083 
L 100.097612 70.758798 
L 101.053748 71.052666 
L 102.013873 71.33457 
L 102.970766 71.626168 
L 103.926508 71.92122 
L 104.957469 72.192394 
L 104.504124 72.46 
L 104.598103 73.46 
L 104.649155 74.46 
L 104.703089 75.46 
L 104.73834 76.46 
L 104.844428 77.46 
L 104.896692 78.46 
L 104.933599 79.46 
L 104.96463 80.46 
L 105.025785 81.46 
L 105.093205 82.46 
L 105.142111 83.46 
L 105.207303 84.46 
L 105.245491 85.46 
L 105.287487 86.46 
L 105.329504 87.46 
L 105.38902 88.46 
L 105.50218 89.46 
L 105.554431 90.46 
L 105.593849 91.46 
L 105.64095 92.46 
L 105.69773 93.46 
L 105.730393 94.46 
L 105.766571 95.46 
L 105.798661 96.46 
L 105.832941 97.46 
L 105.891319 98.46 
L 105.936504 99.46 
L 105.966128 100.46 
L 106.016514 102.06 
" clip-path="url(#p280e6c92dc)" style="fill: none; stroke: #ffffff; stroke-width: 4; stroke-linecap: round"/>
    <path d="M 105.2016 10.26 
L 105.170164 11.26 
L 105.133223 12.26 
L 105.035477 13.26 
L 105.002955 14.26 
L 104.92933 15.26 
L 104.890765 16.26 
L 104.855352 17.26 
L 104.797712 18.26 
L 104.727326 19.26 
L 104.675361 20.26 
L 104.616272 21.26 
L 104.527951 22.26 
L 104.481806 23.26 
L 104.439395 24.26 
L 104.408903 25.26 
L 104.382858 26.26 
L 104.361658 27.26 
L 104.307357 28.26 
L 104.279419 29.26 
L 104.249695 30.26 
L 104.2243 31.26 
L 104.2131 32.26 
L 104.202976 33.26 
L 104.20318 34.26 
L 104.21269 35.26 
L 104.224344 36.26 
L 104.255373 37.26 
L 104.266541 38.26 
L 104.296658 39.26 
L 104.356435 40.86 
L 105.89478 41.942738 
L 106.855826 42.221876 
L 107.81793 42.497842 
L 108.776975 42.782986 
L 109.74698 43.035248 
L 110.708036 43.314357 
L 111.670214 43.590101 
L 112.701751 43.859548 
L 111.764575 43.311204 
L 110.834361 43.682837 
L 109.920764 44.104324 
L 108.994425 44.487584 
L 108.081456 44.910956 
L 107.147247 45.270608 
L 106.217943 45.644974 
L 105.284597 46.007212 
L 104.361472 46.400115 
L 103.450268 46.82878 
L 102.523787 47.211615 
L 101.601434 47.606833 
L 100.663231 47.954501 
L 99.73075 48.319337 
L 98.803696 48.700453 
L 97.754885 49.119854 
L 98.727891 48.143403 
L 99.685213 48.433717 
L 100.642269 48.724826 
L 101.598115 49.019566 
L 102.552975 49.317265 
L 103.510004 49.608453 
L 104.474427 49.877464 
L 105.434201 50.160418 
L 106.394226 50.442621 
L 107.347769 50.74427 
L 108.301439 51.045538 
L 109.251201 51.358528 
L 110.200649 51.672462 
L 111.149179 51.989151 
L 112.097252 52.307209 
L 113.16281 52.67637 
L 112.211474 54.851898 
L 111.25598 55.147694 
L 110.300013 55.442072 
L 109.34588 55.74195 
L 108.391358 56.040663 
L 107.436207 56.337488 
L 106.482275 56.637968 
L 105.513739 56.894638 
L 104.541255 57.139463 
L 103.58225 57.424727 
L 102.612201 57.676858 
L 101.646427 57.941813 
L 100.687085 58.226065 
L 99.709902 58.456792 
L 98.752195 58.745949 
L 97.672487 59.072662 
L 98.611364 58.692985 
L 99.542716 59.061208 
L 100.470975 59.438709 
L 101.40758 59.791172 
L 102.325926 60.198411 
L 103.259032 60.561369 
L 104.19378 60.919404 
L 105.129775 61.273697 
L 106.044189 61.692731 
L 106.979709 62.04845 
L 107.908741 62.42363 
L 108.835301 62.80623 
L 109.750937 63.2216 
L 110.687923 63.572917 
L 111.622099 63.932668 
L 112.67019 64.354231 
L 111.706092 63.535753 
L 110.73287 63.778365 
L 109.774529 64.065619 
L 108.803863 64.3159 
L 107.847599 64.609385 
L 106.889865 64.89846 
L 105.927965 65.175039 
L 104.972459 65.470798 
L 104.019365 65.773794 
L 103.062231 66.06467 
L 102.110604 66.372066 
L 101.157985 66.676486 
L 100.205805 66.982226 
L 99.255331 67.29308 
L 98.305141 67.604788 
L 97.237145 67.966635 
L 98.19003 70.156987 
L 99.141091 70.466083 
L 100.097612 70.758798 
L 101.053748 71.052666 
L 102.013873 71.33457 
L 102.970766 71.626168 
L 103.926508 71.92122 
L 104.957469 72.192394 
L 104.504124 72.46 
L 104.598103 73.46 
L 104.649155 74.46 
L 104.703089 75.46 
L 104.73834 76.46 
L 104.844428 77.46 
L 104.896692 78.46 
L 104.933599 79.46 
L 104.96463 80.46 
L 105.025785 81.46 
L 105.093205 82.46 
L 105.142111 83.46 
L 105.207303 84.46 
L 105.245491 85.46 
L 105.287487 86.46 
L 105.329504 87.46 
L 105.38902 88.46 
L 105.50218 89.46 
L 105.554431 90.46 
L 105.593849 91.46 
L 105.64095 92.46 
L 105.69773 93.46 
L 105.730393 94.46 
L 105.766571 95.46 
L 105.798661 96.46 
L 105.832941 97.46 
L 105.891319 98.46 
L 105.936504 99.46 
L 105.966128 100.46 
L 106.016514 102.06 
" clip-path="url(#p280e6c92dc)" style="fill: none; stroke: #000000; stroke-width: 2; stroke-linecap: round"/>
    <path d="M 105.2016 10.26 
L 105.170164 11.26 
L 105.133223 12.26 
L 105.035477 13.26 
L 105.002955 14.26 
L 104.92933 15.26 
L 104.890765 16.26 
L 104.855352 17.26 
L 104.797712 18.26 
L 104.727326 19.26 
L 104.675361 20.26 
L 104.616272 21.26 
L 104.527951 22.26 
L 104.481806 23.26 
L 104.439395 24.26 
L 104.408903 25.26 
L 104.382858 26.26 
L 104.361658 27.26 
L 104.307357 28.26 
L 104.279419 29.26 
L 104.249695 30.26 
L 104.2243 31.26 
L 104.2131 32.26 
L 104.202976 33.26 
L 104.20318 34.26 
L 104.21269 35.26 
L 104.224344 36.26 
L 104.255373 37.26 
L 104.266541 38.26 
L 104.296658 39.26 
L 104.356435 40.86 
L 105.89478 41.942738 
L 106.855826 42.221876 
L 107.81793 42.497842 
L 108.776975 42.782986 
L 109.74698 43.035248 
L 110.708036 43.314357 
L 111.670214 43.590101 
L 112.701751 43.859548 
L 111.764575 43.311204 
L 110.834361 43.682837 
L 109.920764 44.104324 
L 108.994425 44.487584 
L 108.081456 44.910956 
L 107.147247 45.270608 
L 106.217943 45.644974 
L 105.284597 46.007212 
L 104.361472 46.400115 
L 103.450268 46.82878 
L 102.523787 47.211615 
L 101.601434 47.606833 
L 100.663231 47.954501 
L 99.73075 48.319337 
L 98.803696 48.700453 
L 97.754885 49.119854 
L 98.727891 48.143403 
L 99.685213 48.433717 
L 100.642269 48.724826 
L 101.598115 49.019566 
L 102.552975 49.317265 
L 103.510004 49.608453 
L 104.474427 49.877464 
L 105.434201 50.160418 
L 106.394226 50.442621 
L 107.347769 50.74427 
L 108.301439 51.045538 
L 109.251201 51.358528 
L 110.200649 51.672462 
L 111.149179 51.989151 
L 112.097252 52.307209 
L 113.16281 52.67637 
L 112.211474 54.851898 
L 111.25598 55.147694 
L 110.300013 55.442072 
L 109.34588 55.74195 
L 108.391358 56.040663 
L 107.436207 56.337488 
L 106.482275 56.637968 
L 105.513739 56.894638 
L 104.541255 57.139463 
L 103.58225 57.424727 
L 102.612201 57.676858 
L 101.646427 57.941813 
L 100.687085 58.226065 
L 99.709902 58.456792 
L 98.752195 58.745949 
L 97.672487 59.072662 
L 98.611364 58.692985 
L 99.542716 59.061208 
L 100.470975 59.438709 
L 101.40758 59.791172 
L 102.325926 60.198411 
L 103.259032 60.561369 
L 104.19378 60.919404 
L 105.129775 61.273697 
L 106.044189 61.692731 
L 106.979709 62.04845 
L 107.908741 62.42363 
L 108.835301 62.80623 
L 109.750937 63.2216 
L 110.687923 63.572917 
L 111.622099 63.932668 
L 112.67019 64.354231 
L 111.706092 63.535753 
L 110.73287 63.778365 
L 109.774529 64.065619 
L 108.803863 64.3159 
L 107.847599 64.609385 
L 106.889865 64.89846 
L 105.927965 65.175039 
L 104.972459 65.470798 
L 104.019365 65.773794 
L 103.062231 66.06467 
L 102.110604 66.372066 
L 101.157985 66.676486 
L 100.205805 66.982226 
L 99.255331 67.29308 
L 98.305141 67.604788 
L 97.237145 67.966635 
L 98.19003 70.156987 
L 99.141091 70.466083 
L 100.097612 70.758798 
L 101.053748 71.052666 
L 102.013873 71.33457 
L 102.970766 71.626168 
L 103.926508 71.92122 
L 104.957469 72.192394 
L 104.504124 72.46 
L 104.598103 73.46 
L 104.649155 74.46 
L 104.703089 75.46 
L 104.73834 76.46 
L 104.844428 77.46 
L 104.896692 78.46 
L 104.933599 79.46 
L 104.96463 80.46 
L 105.025785 81.46 
L 105.093205 82.46 
L 105.142111 83.46 
L 105.207303 84.46 
L 105.245491 85.46 
L 105.287487 86.46 
L 105.329504 87.46 
L 105.38902 88.46 
L 105.50218 89.46 
L 105.554431 90.46 
L 105.593849 91.46 
L 105.64095 92.46 
L 105.69773 93.46 
L 105.730393 94.46 
L 105.766571 95.46 
L 105.798661 96.46 
L 105.832941 97.46 
L 105.891319 98.46 
L 105.936504 99.46 
L 105.966128 100.46 
L 106.016514 102.06 
" clip-path="url(#p280e6c92dc)" style="fill: none; stroke: #ffffff; stroke-width: 4; stroke-linecap: round"/>
    <path d="M 105.2016 10.26 
L 105.170164 11.26 
L 105.133223 12.26 
L 105.035477 13.26 
L 105.002955 14.26 
L 104.92933 15.26 
L 104.890765 16.26 
L 104.855352 17.26 
L 104.797712 18.26 
L 104.727326 19.26 
L 104.675361 20.26 
L 104.616272 21.26 
L 104.527951 22.26 
L 104.481806 23.26 
L 104.439395 24.26 
L 104.408903 25.26 
L 104.382858 26.26 
L 104.361658 27.26 
L 104.307357 28.26 
L 104.279419 29.26 
L 104.249695 30.26 
L 104.2243 31.26 
L 104.2131 32.26 
L 104.202976 33.26 
L 104.20318 34.26 
L 104.21269 35.26 
L 104.224344 36.26 
L 104.255373 37.26 
L 104.266541 38.26 
L 104.296658 39.26 
L 104.356435 40.86 
L 105.89478 41.942738 
L 106.855826 42.221876 
L 107.81793 42.497842 
L 108.776975 42.782986 
L 109.74698 43.035248 
L 110.708036 43.314357 
L 111.670214 43.590101 
L 112.701751 43.859548 
L 111.764575 43.311204 
L 110.834361 43.682837 
L 109.920764 44.104324 
L 108.994425 44.487584 
L 108.081456 44.910956 
L 107.147247 45.270608 
L 106.217943 45.644974 
L 105.284597 46.007212 
L 104.361472 46.400115 
L 103.450268 46.82878 
L 102.523787 47.211615 
L 101.601434 47.606833 
L 100.663231 47.954501 
L 99.73075 48.319337 
L 98.803696 48.700453 
L 97.754885 49.119854 
L 98.727891 48.143403 
L 99.685213 48.433717 
L 100.642269 48.724826 
L 101.598115 49.019566 
L 102.552975 49.317265 
L 103.510004 49.608453 
L 104.474427 49.877464 
L 105.434201 50.160418 
L 106.394226 50.442621 
L 107.347769 50.74427 
L 108.301439 51.045538 
L 109.251201 51.358528 
L 110.200649 51.672462 
L 111.149179 51.989151 
L 112.097252 52.307209 
L 113.16281 52.67637 
L 112.211474 54.851898 
L 111.25598 55.147694 
L 110.300013 55.442072 
L 109.34588 55.74195 
L 108.391358 56.040663 
L 107.436207 56.337488 
L 106.482275 56.637968 
L 105.513739 56.894638 
L 104.541255 57.139463 
L 103.58225 57.424727 
L 102.612201 57.676858 
L 101.646427 57.941813 
L 100.687085 58.226065 
L 99.709902 58.456792 
L 98.752195 58.745949 
L 97.672487 59.072662 
L 98.611364 58.692985 
L 99.542716 59.061208 
L 100.470975 59.438709 
L 101.40758 59.791172 
L 102.325926 60.198411 
L 103.259032 60.561369 
L 104.19378 60.919404 
L 105.129775 61.273697 
L 106.044189 61.692731 
L 106.979709 62.04845 
L 107.908741 62.42363 
L 108.835301 62.80623 
L 109.750937 63.2216 
L 110.687923 63.572917 
L 111.622099 63.932668 
L 112.67019 64.354231 
L 111.706092 63.535753 
L 110.73287 63.778365 
L 109.774529 64.065619 
L 108.803863 64.3159 
L 107.847599 64.609385 
L 106.889865 64.89846 
L 105.927965 65.175039 
L 104.972459 65.470798 
L 104.019365 65.773794 
L 103.062231 66.06467 
L 102.110604 66.372066 
L 101.157985 66.676486 
L 100.205805 66.982226 
L 99.255331 67.29308 
L 98.305141 67.604788 
L 97.237145 67.966635 
L 98.19003 70.156987 
L 99.141091 70.466083 
L 100.097612 70.758798 
L 101.053748 71.052666 
L 102.013873 71.33457 
L 102.970766 71.626168 
L 103.926508 71.92122 
L 104.957469 72.192394 
L 104.504124 72.46 
L 104.598103 73.46 
L 104.649155 74.46 
L 104.703089 75.46 
L 104.73834 76.46 
L 104.844428 77.46 
L 104.896692 78.46 
L 104.933599 79.46 
L 104.96463 80.46 
L 105.025785 81.46 
L 105.093205 82.46 
L 105.142111 83.46 
L 105.207303 84.46 
L 105.245491 85.46 
L 105.287487 86.46 
L 105.329504 87.46 
L 105.38902 88.46 
L 105.50218 89.46 
L 105.554431 90.46 
L 105.593849 91.46 
L 105.64095 92.46 
L 105.69773 93.46 
L 105.730393 94.46 
L 105.766571 95.46 
L 105.798661 96.46 
L 105.832941 97.46 
L 105.891319 98.46 
L 105.936504 99.46 
L 105.966128 100.46 
L 106.016514 102.06 
" clip-path="url(#p280e6c92dc)" style="fill: none; stroke: #000000; stroke-width: 2; stroke-linecap: round"/>
    <g id="text_1">
     <path d="M 36.266991 55.570156 
L 36.266991 55.771328 
Q 35.653709 55.808438 35.421287 55.978359 
Q 35.190819 56.146328 35.0541 56.671719 
L 34.440819 59.007656 
Q 33.0541 59.783047 31.479881 59.783047 
Q 29.766991 59.783047 28.815819 58.833828 
Q 28.378319 58.396328 28.134178 57.734219 
Q 27.891991 57.070156 27.891991 56.421719 
Q 27.891991 55.132656 28.516991 53.995938 
Q 29.141991 52.859219 30.1791 52.132656 
Q 31.479881 51.234219 32.9291 51.234219 
Q 33.829491 51.234219 34.604881 51.533047 
Q 34.9291 51.658047 35.153709 51.658047 
Q 35.604881 51.658047 35.903709 51.234219 
L 36.091209 51.296719 
L 35.479881 53.757656 
L 35.253319 53.720547 
Q 35.216209 52.921719 34.792381 52.396328 
Q 34.190819 51.658047 33.028709 51.658047 
Q 31.565819 51.658047 30.591209 52.896328 
Q 29.966209 53.683438 29.6166 54.683438 
Q 29.266991 55.683438 29.266991 56.708828 
Q 29.266991 57.945156 29.9291 58.632656 
Q 30.591209 59.320156 31.792381 59.320156 
Q 32.6791 59.320156 33.104881 58.896328 
Q 33.216209 58.783047 33.3041 58.564297 
Q 33.391991 58.345547 33.591209 57.632656 
Q 33.917381 56.546719 33.917381 56.220547 
Q 33.917381 55.859219 33.329491 55.808438 
L 32.9291 55.771328 
L 32.9291 55.570156 
L 36.266991 55.570156 
z
M 37.543551 55.498477 
L 39.653121 55.498477 
Q 41.560348 55.498477 41.560348 56.793203 
Q 41.560348 57.143203 41.397652 57.480898 
Q 41.236324 57.817227 40.965621 58.04418 
Q 40.361324 58.543203 39.171871 58.543203 
Q 38.690621 58.543203 38.384371 58.473477 
L 37.920895 60.161953 
Q 37.797848 60.635 37.797848 60.71293 
Q 37.797848 60.870156 37.929098 60.953555 
Q 38.060348 61.036953 38.402145 61.0725 
L 38.402145 61.211953 
L 36.266598 61.211953 
L 36.266598 61.0725 
Q 36.642574 61.01918 36.760152 60.901602 
Q 36.879098 60.782656 37.002145 60.354727 
L 38.016598 56.73168 
Q 38.165621 56.198477 38.165621 56.005703 
Q 38.165621 55.830703 38.042574 55.756875 
Q 37.920895 55.68168 37.543551 55.63793 
L 37.543551 55.498477 
z
M 39.066598 56.03168 
L 38.462301 58.17543 
Q 38.716598 58.21918 38.917574 58.21918 
Q 39.679098 58.21918 40.037301 58.01 
Q 40.659371 57.66 40.659371 56.836953 
Q 40.659371 55.760977 39.521871 55.760977 
Q 39.136324 55.760977 39.066598 56.03168 
z
M 51.931909 55.558438 
L 44.568628 55.558438 
L 44.568628 54.734219 
L 51.931909 54.734219 
L 51.931909 55.558438 
z
M 51.931909 58.058438 
L 44.568628 58.058438 
L 44.568628 57.234219 
L 51.931909 57.234219 
L 51.931909 58.058438 
z
M 63.361907 55.570156 
L 63.361907 55.771328 
Q 62.748625 55.808438 62.516203 55.978359 
Q 62.285735 56.146328 62.149016 56.671719 
L 61.535735 59.007656 
Q 60.149016 59.783047 58.574797 59.783047 
Q 56.861907 59.783047 55.910735 58.833828 
Q 55.473235 58.396328 55.229094 57.734219 
Q 54.986907 57.070156 54.986907 56.421719 
Q 54.986907 55.132656 55.611907 53.995938 
Q 56.236907 52.859219 57.274016 52.132656 
Q 58.574797 51.234219 60.024016 51.234219 
Q 60.924407 51.234219 61.699797 51.533047 
Q 62.024016 51.658047 62.248625 51.658047 
Q 62.699797 51.658047 62.998625 51.234219 
L 63.186125 51.296719 
L 62.574797 53.757656 
L 62.348235 53.720547 
Q 62.311125 52.921719 61.887297 52.396328 
Q 61.285735 51.658047 60.123625 51.658047 
Q 58.660735 51.658047 57.686125 52.896328 
Q 57.061125 53.683438 56.711516 54.683438 
Q 56.361907 55.683438 56.361907 56.708828 
Q 56.361907 57.945156 57.024016 58.632656 
Q 57.686125 59.320156 58.887297 59.320156 
Q 59.774016 59.320156 60.199797 58.896328 
Q 60.311125 58.783047 60.399016 58.564297 
Q 60.486907 58.345547 60.686125 57.632656 
Q 61.012297 56.546719 61.012297 56.220547 
Q 61.012297 55.859219 60.424407 55.808438 
L 60.024016 55.771328 
L 60.024016 55.570156 
L 63.361907 55.570156 
z
M 66.809561 61.211953 
L 64.39374 61.211953 
L 64.39374 61.080703 
Q 64.87499 61.054727 65.04999 60.901602 
Q 65.22499 60.748477 65.22499 60.380703 
L 65.22499 56.451406 
Q 65.22499 56.023477 64.96249 56.023477 
Q 64.840811 56.023477 64.56874 56.12875 
L 64.332217 56.21625 
L 64.332217 56.093203 
L 65.899014 55.2975 
L 65.978311 55.323477 
L 65.978311 60.5475 
Q 65.978311 60.835977 66.153311 60.959023 
Q 66.328311 61.080703 66.809561 61.080703 
L 66.809561 61.211953 
z
M 78.041903 56.808438 
L 74.780184 56.808438 
L 74.780184 60.070156 
L 73.955965 60.070156 
L 73.955965 56.808438 
L 70.692293 56.808438 
L 70.692293 55.984219 
L 73.955965 55.984219 
L 73.955965 52.720547 
L 74.780184 52.720547 
L 74.780184 55.984219 
L 78.041903 55.984219 
L 78.041903 56.808438 
z
M 89.485572 55.570156 
L 89.485572 55.771328 
Q 88.872291 55.808438 88.639869 55.978359 
Q 88.4094 56.146328 88.272681 56.671719 
L 87.6594 59.007656 
Q 86.272681 59.783047 84.698463 59.783047 
Q 82.985572 59.783047 82.0344 58.833828 
Q 81.5969 58.396328 81.35276 57.734219 
Q 81.110572 57.070156 81.110572 56.421719 
Q 81.110572 55.132656 81.735572 53.995938 
Q 82.360572 52.859219 83.397681 52.132656 
Q 84.698463 51.234219 86.147681 51.234219 
Q 87.048072 51.234219 87.823463 51.533047 
Q 88.147681 51.658047 88.372291 51.658047 
Q 88.823463 51.658047 89.122291 51.234219 
L 89.309791 51.296719 
L 88.698463 53.757656 
L 88.4719 53.720547 
Q 88.434791 52.921719 88.010963 52.396328 
Q 87.4094 51.658047 86.247291 51.658047 
Q 84.7844 51.658047 83.809791 52.896328 
Q 83.184791 53.683438 82.835181 54.683438 
Q 82.485572 55.683438 82.485572 56.708828 
Q 82.485572 57.945156 83.147681 58.632656 
Q 83.809791 59.320156 85.010963 59.320156 
Q 85.897681 59.320156 86.323463 58.896328 
Q 86.434791 58.783047 86.522681 58.564297 
Q 86.610572 58.345547 86.809791 57.632656 
Q 87.135963 56.546719 87.135963 56.220547 
Q 87.135963 55.859219 86.548072 55.808438 
L 86.147681 55.771328 
L 86.147681 55.570156 
L 89.485572 55.570156 
z
M 93.633226 60.01293 
L 93.160179 61.211953 
L 89.739476 61.211953 
L 89.739476 61.10668 
L 91.296703 59.45375 
Q 91.909203 58.813906 92.171703 58.280703 
Q 92.434203 57.7475 92.434203 57.17875 
Q 92.434203 56.592227 92.110179 56.268203 
Q 91.786156 55.94418 91.217406 55.94418 
Q 90.745726 55.94418 90.469554 56.190273 
Q 90.193382 56.435 89.930882 57.08168 
L 89.747679 57.03793 
Q 89.896703 56.224453 90.346507 55.760977 
Q 90.797679 55.2975 91.567406 55.2975 
Q 92.293382 55.2975 92.739085 55.735 
Q 93.186156 56.1725 93.186156 56.836953 
Q 93.186156 57.82543 92.066429 59.00668 
L 90.622679 60.5475 
L 92.670726 60.5475 
Q 92.959203 60.5475 93.128734 60.434023 
Q 93.299632 60.31918 93.510179 59.960977 
L 93.633226 60.01293 
z
" clip-path="url(#p280e6c92dc)" style="stroke: #ffffff; stroke-width: 4"/>
     <path d="M 36.266991 55.570156 
L 36.266991 55.771328 
Q 35.653709 55.808438 35.421287 55.978359 
Q 35.190819 56.146328 35.0541 56.671719 
L 34.440819 59.007656 
Q 33.0541 59.783047 31.479881 59.783047 
Q 29.766991 59.783047 28.815819 58.833828 
Q 28.378319 58.396328 28.134178 57.734219 
Q 27.891991 57.070156 27.891991 56.421719 
Q 27.891991 55.132656 28.516991 53.995938 
Q 29.141991 52.859219 30.1791 52.132656 
Q 31.479881 51.234219 32.9291 51.234219 
Q 33.829491 51.234219 34.604881 51.533047 
Q 34.9291 51.658047 35.153709 51.658047 
Q 35.604881 51.658047 35.903709 51.234219 
L 36.091209 51.296719 
L 35.479881 53.757656 
L 35.253319 53.720547 
Q 35.216209 52.921719 34.792381 52.396328 
Q 34.190819 51.658047 33.028709 51.658047 
Q 31.565819 51.658047 30.591209 52.896328 
Q 29.966209 53.683438 29.6166 54.683438 
Q 29.266991 55.683438 29.266991 56.708828 
Q 29.266991 57.945156 29.9291 58.632656 
Q 30.591209 59.320156 31.792381 59.320156 
Q 32.6791 59.320156 33.104881 58.896328 
Q 33.216209 58.783047 33.3041 58.564297 
Q 33.391991 58.345547 33.591209 57.632656 
Q 33.917381 56.546719 33.917381 56.220547 
Q 33.917381 55.859219 33.329491 55.808438 
L 32.9291 55.771328 
L 32.9291 55.570156 
L 36.266991 55.570156 
z
M 37.543551 55.498477 
L 39.653121 55.498477 
Q 41.560348 55.498477 41.560348 56.793203 
Q 41.560348 57.143203 41.397652 57.480898 
Q 41.236324 57.817227 40.965621 58.04418 
Q 40.361324 58.543203 39.171871 58.543203 
Q 38.690621 58.543203 38.384371 58.473477 
L 37.920895 60.161953 
Q 37.797848 60.635 37.797848 60.71293 
Q 37.797848 60.870156 37.929098 60.953555 
Q 38.060348 61.036953 38.402145 61.0725 
L 38.402145 61.211953 
L 36.266598 61.211953 
L 36.266598 61.0725 
Q 36.642574 61.01918 36.760152 60.901602 
Q 36.879098 60.782656 37.002145 60.354727 
L 38.016598 56.73168 
Q 38.165621 56.198477 38.165621 56.005703 
Q 38.165621 55.830703 38.042574 55.756875 
Q 37.920895 55.68168 37.543551 55.63793 
L 37.543551 55.498477 
z
M 39.066598 56.03168 
L 38.462301 58.17543 
Q 38.716598 58.21918 38.917574 58.21918 
Q 39.679098 58.21918 40.037301 58.01 
Q 40.659371 57.66 40.659371 56.836953 
Q 40.659371 55.760977 39.521871 55.760977 
Q 39.136324 55.760977 39.066598 56.03168 
z
M 51.931909 55.558438 
L 44.568628 55.558438 
L 44.568628 54.734219 
L 51.931909 54.734219 
L 51.931909 55.558438 
z
M 51.931909 58.058438 
L 44.568628 58.058438 
L 44.568628 57.234219 
L 51.931909 57.234219 
L 51.931909 58.058438 
z
M 63.361907 55.570156 
L 63.361907 55.771328 
Q 62.748625 55.808438 62.516203 55.978359 
Q 62.285735 56.146328 62.149016 56.671719 
L 61.535735 59.007656 
Q 60.149016 59.783047 58.574797 59.783047 
Q 56.861907 59.783047 55.910735 58.833828 
Q 55.473235 58.396328 55.229094 57.734219 
Q 54.986907 57.070156 54.986907 56.421719 
Q 54.986907 55.132656 55.611907 53.995938 
Q 56.236907 52.859219 57.274016 52.132656 
Q 58.574797 51.234219 60.024016 51.234219 
Q 60.924407 51.234219 61.699797 51.533047 
Q 62.024016 51.658047 62.248625 51.658047 
Q 62.699797 51.658047 62.998625 51.234219 
L 63.186125 51.296719 
L 62.574797 53.757656 
L 62.348235 53.720547 
Q 62.311125 52.921719 61.887297 52.396328 
Q 61.285735 51.658047 60.123625 51.658047 
Q 58.660735 51.658047 57.686125 52.896328 
Q 57.061125 53.683438 56.711516 54.683438 
Q 56.361907 55.683438 56.361907 56.708828 
Q 56.361907 57.945156 57.024016 58.632656 
Q 57.686125 59.320156 58.887297 59.320156 
Q 59.774016 59.320156 60.199797 58.896328 
Q 60.311125 58.783047 60.399016 58.564297 
Q 60.486907 58.345547 60.686125 57.632656 
Q 61.012297 56.546719 61.012297 56.220547 
Q 61.012297 55.859219 60.424407 55.808438 
L 60.024016 55.771328 
L 60.024016 55.570156 
L 63.361907 55.570156 
z
M 66.809561 61.211953 
L 64.39374 61.211953 
L 64.39374 61.080703 
Q 64.87499 61.054727 65.04999 60.901602 
Q 65.22499 60.748477 65.22499 60.380703 
L 65.22499 56.451406 
Q 65.22499 56.023477 64.96249 56.023477 
Q 64.840811 56.023477 64.56874 56.12875 
L 64.332217 56.21625 
L 64.332217 56.093203 
L 65.899014 55.2975 
L 65.978311 55.323477 
L 65.978311 60.5475 
Q 65.978311 60.835977 66.153311 60.959023 
Q 66.328311 61.080703 66.809561 61.080703 
L 66.809561 61.211953 
z
M 78.041903 56.808438 
L 74.780184 56.808438 
L 74.780184 60.070156 
L 73.955965 60.070156 
L 73.955965 56.808438 
L 70.692293 56.808438 
L 70.692293 55.984219 
L 73.955965 55.984219 
L 73.955965 52.720547 
L 74.780184 52.720547 
L 74.780184 55.984219 
L 78.041903 55.984219 
L 78.041903 56.808438 
z
M 89.485572 55.570156 
L 89.485572 55.771328 
Q 88.872291 55.808438 88.639869 55.978359 
Q 88.4094 56.146328 88.272681 56.671719 
L 87.6594 59.007656 
Q 86.272681 59.783047 84.698463 59.783047 
Q 82.985572 59.783047 82.0344 58.833828 
Q 81.5969 58.396328 81.35276 57.734219 
Q 81.110572 57.070156 81.110572 56.421719 
Q 81.110572 55.132656 81.735572 53.995938 
Q 82.360572 52.859219 83.397681 52.132656 
Q 84.698463 51.234219 86.147681 51.234219 
Q 87.048072 51.234219 87.823463 51.533047 
Q 88.147681 51.658047 88.372291 51.658047 
Q 88.823463 51.658047 89.122291 51.234219 
L 89.309791 51.296719 
L 88.698463 53.757656 
L 88.4719 53.720547 
Q 88.434791 52.921719 88.010963 52.396328 
Q 87.4094 51.658047 86.247291 51.658047 
Q 84.7844 51.658047 83.809791 52.896328 
Q 83.184791 53.683438 82.835181 54.683438 
Q 82.485572 55.683438 82.485572 56.708828 
Q 82.485572 57.945156 83.147681 58.632656 
Q 83.809791 59.320156 85.010963 59.320156 
Q 85.897681 59.320156 86.323463 58.896328 
Q 86.434791 58.783047 86.522681 58.564297 
Q 86.610572 58.345547 86.809791 57.632656 
Q 87.135963 56.546719 87.135963 56.220547 
Q 87.135963 55.859219 86.548072 55.808438 
L 86.147681 55.771328 
L 86.147681 55.570156 
L 89.485572 55.570156 
z
M 93.633226 60.01293 
L 93.160179 61.211953 
L 89.739476 61.211953 
L 89.739476 61.10668 
L 91.296703 59.45375 
Q 91.909203 58.813906 92.171703 58.280703 
Q 92.434203 57.7475 92.434203 57.17875 
Q 92.434203 56.592227 92.110179 56.268203 
Q 91.786156 55.94418 91.217406 55.94418 
Q 90.745726 55.94418 90.469554 56.190273 
Q 90.193382 56.435 89.930882 57.08168 
L 89.747679 57.03793 
Q 89.896703 56.224453 90.346507 55.760977 
Q 90.797679 55.2975 91.567406 55.2975 
Q 92.293382 55.2975 92.739085 55.735 
Q 93.186156 56.1725 93.186156 56.836953 
Q 93.186156 57.82543 92.066429 59.00668 
L 90.622679 60.5475 
L 92.670726 60.5475 
Q 92.959203 60.5475 93.128734 60.434023 
Q 93.299632 60.31918 93.510179 59.960977 
L 93.633226 60.01293 
z
" clip-path="url(#p280e6c92dc)"/>
    </g>
    <g id="text_2">
     <path d="M 36.266991 55.570156 
L 36.266991 55.771328 
Q 35.653709 55.808438 35.421287 55.978359 
Q 35.190819 56.146328 35.0541 56.671719 
L 34.440819 59.007656 
Q 33.0541 59.783047 31.479881 59.783047 
Q 29.766991 59.783047 28.815819 58.833828 
Q 28.378319 58.396328 28.134178 57.734219 
Q 27.891991 57.070156 27.891991 56.421719 
Q 27.891991 55.132656 28.516991 53.995938 
Q 29.141991 52.859219 30.1791 52.132656 
Q 31.479881 51.234219 32.9291 51.234219 
Q 33.829491 51.234219 34.604881 51.533047 
Q 34.9291 51.658047 35.153709 51.658047 
Q 35.604881 51.658047 35.903709 51.234219 
L 36.091209 51.296719 
L 35.479881 53.757656 
L 35.253319 53.720547 
Q 35.216209 52.921719 34.792381 52.396328 
Q 34.190819 51.658047 33.028709 51.658047 
Q 31.565819 51.658047 30.591209 52.896328 
Q 29.966209 53.683438 29.6166 54.683438 
Q 29.266991 55.683438 29.266991 56.708828 
Q 29.266991 57.945156 29.9291 58.632656 
Q 30.591209 59.320156 31.792381 59.320156 
Q 32.6791 59.320156 33.104881 58.896328 
Q 33.216209 58.783047 33.3041 58.564297 
Q 33.391991 58.345547 33.591209 57.632656 
Q 33.917381 56.546719 33.917381 56.220547 
Q 33.917381 55.859219 33.329491 55.808438 
L 32.9291 55.771328 
L 32.9291 55.570156 
L 36.266991 55.570156 
z
M 37.543551 55.498477 
L 39.653121 55.498477 
Q 41.560348 55.498477 41.560348 56.793203 
Q 41.560348 57.143203 41.397652 57.480898 
Q 41.236324 57.817227 40.965621 58.04418 
Q 40.361324 58.543203 39.171871 58.543203 
Q 38.690621 58.543203 38.384371 58.473477 
L 37.920895 60.161953 
Q 37.797848 60.635 37.797848 60.71293 
Q 37.797848 60.870156 37.929098 60.953555 
Q 38.060348 61.036953 38.402145 61.0725 
L 38.402145 61.211953 
L 36.266598 61.211953 
L 36.266598 61.0725 
Q 36.642574 61.01918 36.760152 60.901602 
Q 36.879098 60.782656 37.002145 60.354727 
L 38.016598 56.73168 
Q 38.165621 56.198477 38.165621 56.005703 
Q 38.165621 55.830703 38.042574 55.756875 
Q 37.920895 55.68168 37.543551 55.63793 
L 37.543551 55.498477 
z
M 39.066598 56.03168 
L 38.462301 58.17543 
Q 38.716598 58.21918 38.917574 58.21918 
Q 39.679098 58.21918 40.037301 58.01 
Q 40.659371 57.66 40.659371 56.836953 
Q 40.659371 55.760977 39.521871 55.760977 
Q 39.136324 55.760977 39.066598 56.03168 
z
M 51.931909 55.558438 
L 44.568628 55.558438 
L 44.568628 54.734219 
L 51.931909 54.734219 
L 51.931909 55.558438 
z
M 51.931909 58.058438 
L 44.568628 58.058438 
L 44.568628 57.234219 
L 51.931909 57.234219 
L 51.931909 58.058438 
z
M 63.361907 55.570156 
L 63.361907 55.771328 
Q 62.748625 55.808438 62.516203 55.978359 
Q 62.285735 56.146328 62.149016 56.671719 
L 61.535735 59.007656 
Q 60.149016 59.783047 58.574797 59.783047 
Q 56.861907 59.783047 55.910735 58.833828 
Q 55.473235 58.396328 55.229094 57.734219 
Q 54.986907 57.070156 54.986907 56.421719 
Q 54.986907 55.132656 55.611907 53.995938 
Q 56.236907 52.859219 57.274016 52.132656 
Q 58.574797 51.234219 60.024016 51.234219 
Q 60.924407 51.234219 61.699797 51.533047 
Q 62.024016 51.658047 62.248625 51.658047 
Q 62.699797 51.658047 62.998625 51.234219 
L 63.186125 51.296719 
L 62.574797 53.757656 
L 62.348235 53.720547 
Q 62.311125 52.921719 61.887297 52.396328 
Q 61.285735 51.658047 60.123625 51.658047 
Q 58.660735 51.658047 57.686125 52.896328 
Q 57.061125 53.683438 56.711516 54.683438 
Q 56.361907 55.683438 56.361907 56.708828 
Q 56.361907 57.945156 57.024016 58.632656 
Q 57.686125 59.320156 58.887297 59.320156 
Q 59.774016 59.320156 60.199797 58.896328 
Q 60.311125 58.783047 60.399016 58.564297 
Q 60.486907 58.345547 60.686125 57.632656 
Q 61.012297 56.546719 61.012297 56.220547 
Q 61.012297 55.859219 60.424407 55.808438 
L 60.024016 55.771328 
L 60.024016 55.570156 
L 63.361907 55.570156 
z
M 66.809561 61.211953 
L 64.39374 61.211953 
L 64.39374 61.080703 
Q 64.87499 61.054727 65.04999 60.901602 
Q 65.22499 60.748477 65.22499 60.380703 
L 65.22499 56.451406 
Q 65.22499 56.023477 64.96249 56.023477 
Q 64.840811 56.023477 64.56874 56.12875 
L 64.332217 56.21625 
L 64.332217 56.093203 
L 65.899014 55.2975 
L 65.978311 55.323477 
L 65.978311 60.5475 
Q 65.978311 60.835977 66.153311 60.959023 
Q 66.328311 61.080703 66.809561 61.080703 
L 66.809561 61.211953 
z
M 78.041903 56.808438 
L 74.780184 56.808438 
L 74.780184 60.070156 
L 73.955965 60.070156 
L 73.955965 56.808438 
L 70.692293 56.808438 
L 70.692293 55.984219 
L 73.955965 55.984219 
L 73.955965 52.720547 
L 74.780184 52.720547 
L 74.780184 55.984219 
L 78.041903 55.984219 
L 78.041903 56.808438 
z
M 89.485572 55.570156 
L 89.485572 55.771328 
Q 88.872291 55.808438 88.639869 55.978359 
Q 88.4094 56.146328 88.272681 56.671719 
L 87.6594 59.007656 
Q 86.272681 59.783047 84.698463 59.783047 
Q 82.985572 59.783047 82.0344 58.833828 
Q 81.5969 58.396328 81.35276 57.734219 
Q 81.110572 57.070156 81.110572 56.421719 
Q 81.110572 55.132656 81.735572 53.995938 
Q 82.360572 52.859219 83.397681 52.132656 
Q 84.698463 51.234219 86.147681 51.234219 
Q 87.048072 51.234219 87.823463 51.533047 
Q 88.147681 51.658047 88.372291 51.658047 
Q 88.823463 51.658047 89.122291 51.234219 
L 89.309791 51.296719 
L 88.698463 53.757656 
L 88.4719 53.720547 
Q 88.434791 52.921719 88.010963 52.396328 
Q 87.4094 51.658047 86.247291 51.658047 
Q 84.7844 51.658047 83.809791 52.896328 
Q 83.184791 53.683438 82.835181 54.683438 
Q 82.485572 55.683438 82.485572 56.708828 
Q 82.485572 57.945156 83.147681 58.632656 
Q 83.809791 59.320156 85.010963 59.320156 
Q 85.897681 59.320156 86.323463 58.896328 
Q 86.434791 58.783047 86.522681 58.564297 
Q 86.610572 58.345547 86.809791 57.632656 
Q 87.135963 56.546719 87.135963 56.220547 
Q 87.135963 55.859219 86.548072 55.808438 
L 86.147681 55.771328 
L 86.147681 55.570156 
L 89.485572 55.570156 
z
M 93.633226 60.01293 
L 93.160179 61.211953 
L 89.739476 61.211953 
L 89.739476 61.10668 
L 91.296703 59.45375 
Q 91.909203 58.813906 92.171703 58.280703 
Q 92.434203 57.7475 92.434203 57.17875 
Q 92.434203 56.592227 92.110179 56.268203 
Q 91.786156 55.94418 91.217406 55.94418 
Q 90.745726 55.94418 90.469554 56.190273 
Q 90.193382 56.435 89.930882 57.08168 
L 89.747679 57.03793 
Q 89.896703 56.224453 90.346507 55.760977 
Q 90.797679 55.2975 91.567406 55.2975 
Q 92.293382 55.2975 92.739085 55.735 
Q 93.186156 56.1725 93.186156 56.836953 
Q 93.186156 57.82543 92.066429 59.00668 
L 90.622679 60.5475 
L 92.670726 60.5475 
Q 92.959203 60.5475 93.128734 60.434023 
Q 93.299632 60.31918 93.510179 59.960977 
L 93.633226 60.01293 
z
" clip-path="url(#p280e6c92dc)" style="stroke: #ffffff; stroke-width: 4"/>
     <path d="M 36.266991 55.570156 
L 36.266991 55.771328 
Q 35.653709 55.808438 35.421287 55.978359 
Q 35.190819 56.146328 35.0541 56.671719 
L 34.440819 59.007656 
Q 33.0541 59.783047 31.479881 59.783047 
Q 29.766991 59.783047 28.815819 58.833828 
Q 28.378319 58.396328 28.134178 57.734219 
Q 27.891991 57.070156 27.891991 56.421719 
Q 27.891991 55.132656 28.516991 53.995938 
Q 29.141991 52.859219 30.1791 52.132656 
Q 31.479881 51.234219 32.9291 51.234219 
Q 33.829491 51.234219 34.604881 51.533047 
Q 34.9291 51.658047 35.153709 51.658047 
Q 35.604881 51.658047 35.903709 51.234219 
L 36.091209 51.296719 
L 35.479881 53.757656 
L 35.253319 53.720547 
Q 35.216209 52.921719 34.792381 52.396328 
Q 34.190819 51.658047 33.028709 51.658047 
Q 31.565819 51.658047 30.591209 52.896328 
Q 29.966209 53.683438 29.6166 54.683438 
Q 29.266991 55.683438 29.266991 56.708828 
Q 29.266991 57.945156 29.9291 58.632656 
Q 30.591209 59.320156 31.792381 59.320156 
Q 32.6791 59.320156 33.104881 58.896328 
Q 33.216209 58.783047 33.3041 58.564297 
Q 33.391991 58.345547 33.591209 57.632656 
Q 33.917381 56.546719 33.917381 56.220547 
Q 33.917381 55.859219 33.329491 55.808438 
L 32.9291 55.771328 
L 32.9291 55.570156 
L 36.266991 55.570156 
z
M 37.543551 55.498477 
L 39.653121 55.498477 
Q 41.560348 55.498477 41.560348 56.793203 
Q 41.560348 57.143203 41.397652 57.480898 
Q 41.236324 57.817227 40.965621 58.04418 
Q 40.361324 58.543203 39.171871 58.543203 
Q 38.690621 58.543203 38.384371 58.473477 
L 37.920895 60.161953 
Q 37.797848 60.635 37.797848 60.71293 
Q 37.797848 60.870156 37.929098 60.953555 
Q 38.060348 61.036953 38.402145 61.0725 
L 38.402145 61.211953 
L 36.266598 61.211953 
L 36.266598 61.0725 
Q 36.642574 61.01918 36.760152 60.901602 
Q 36.879098 60.782656 37.002145 60.354727 
L 38.016598 56.73168 
Q 38.165621 56.198477 38.165621 56.005703 
Q 38.165621 55.830703 38.042574 55.756875 
Q 37.920895 55.68168 37.543551 55.63793 
L 37.543551 55.498477 
z
M 39.066598 56.03168 
L 38.462301 58.17543 
Q 38.716598 58.21918 38.917574 58.21918 
Q 39.679098 58.21918 40.037301 58.01 
Q 40.659371 57.66 40.659371 56.836953 
Q 40.659371 55.760977 39.521871 55.760977 
Q 39.136324 55.760977 39.066598 56.03168 
z
M 51.931909 55.558438 
L 44.568628 55.558438 
L 44.568628 54.734219 
L 51.931909 54.734219 
L 51.931909 55.558438 
z
M 51.931909 58.058438 
L 44.568628 58.058438 
L 44.568628 57.234219 
L 51.931909 57.234219 
L 51.931909 58.058438 
z
M 63.361907 55.570156 
L 63.361907 55.771328 
Q 62.748625 55.808438 62.516203 55.978359 
Q 62.285735 56.146328 62.149016 56.671719 
L 61.535735 59.007656 
Q 60.149016 59.783047 58.574797 59.783047 
Q 56.861907 59.783047 55.910735 58.833828 
Q 55.473235 58.396328 55.229094 57.734219 
Q 54.986907 57.070156 54.986907 56.421719 
Q 54.986907 55.132656 55.611907 53.995938 
Q 56.236907 52.859219 57.274016 52.132656 
Q 58.574797 51.234219 60.024016 51.234219 
Q 60.924407 51.234219 61.699797 51.533047 
Q 62.024016 51.658047 62.248625 51.658047 
Q 62.699797 51.658047 62.998625 51.234219 
L 63.186125 51.296719 
L 62.574797 53.757656 
L 62.348235 53.720547 
Q 62.311125 52.921719 61.887297 52.396328 
Q 61.285735 51.658047 60.123625 51.658047 
Q 58.660735 51.658047 57.686125 52.896328 
Q 57.061125 53.683438 56.711516 54.683438 
Q 56.361907 55.683438 56.361907 56.708828 
Q 56.361907 57.945156 57.024016 58.632656 
Q 57.686125 59.320156 58.887297 59.320156 
Q 59.774016 59.320156 60.199797 58.896328 
Q 60.311125 58.783047 60.399016 58.564297 
Q 60.486907 58.345547 60.686125 57.632656 
Q 61.012297 56.546719 61.012297 56.220547 
Q 61.012297 55.859219 60.424407 55.808438 
L 60.024016 55.771328 
L 60.024016 55.570156 
L 63.361907 55.570156 
z
M 66.809561 61.211953 
L 64.39374 61.211953 
L 64.39374 61.080703 
Q 64.87499 61.054727 65.04999 60.901602 
Q 65.22499 60.748477 65.22499 60.380703 
L 65.22499 56.451406 
Q 65.22499 56.023477 64.96249 56.023477 
Q 64.840811 56.023477 64.56874 56.12875 
L 64.332217 56.21625 
L 64.332217 56.093203 
L 65.899014 55.2975 
L 65.978311 55.323477 
L 65.978311 60.5475 
Q 65.978311 60.835977 66.153311 60.959023 
Q 66.328311 61.080703 66.809561 61.080703 
L 66.809561 61.211953 
z
M 78.041903 56.808438 
L 74.780184 56.808438 
L 74.780184 60.070156 
L 73.955965 60.070156 
L 73.955965 56.808438 
L 70.692293 56.808438 
L 70.692293 55.984219 
L 73.955965 55.984219 
L 73.955965 52.720547 
L 74.780184 52.720547 
L 74.780184 55.984219 
L 78.041903 55.984219 
L 78.041903 56.808438 
z
M 89.485572 55.570156 
L 89.485572 55.771328 
Q 88.872291 55.808438 88.639869 55.978359 
Q 88.4094 56.146328 88.272681 56.671719 
L 87.6594 59.007656 
Q 86.272681 59.783047 84.698463 59.783047 
Q 82.985572 59.783047 82.0344 58.833828 
Q 81.5969 58.396328 81.35276 57.734219 
Q 81.110572 57.070156 81.110572 56.421719 
Q 81.110572 55.132656 81.735572 53.995938 
Q 82.360572 52.859219 83.397681 52.132656 
Q 84.698463 51.234219 86.147681 51.234219 
Q 87.048072 51.234219 87.823463 51.533047 
Q 88.147681 51.658047 88.372291 51.658047 
Q 88.823463 51.658047 89.122291 51.234219 
L 89.309791 51.296719 
L 88.698463 53.757656 
L 88.4719 53.720547 
Q 88.434791 52.921719 88.010963 52.396328 
Q 87.4094 51.658047 86.247291 51.658047 
Q 84.7844 51.658047 83.809791 52.896328 
Q 83.184791 53.683438 82.835181 54.683438 
Q 82.485572 55.683438 82.485572 56.708828 
Q 82.485572 57.945156 83.147681 58.632656 
Q 83.809791 59.320156 85.010963 59.320156 
Q 85.897681 59.320156 86.323463 58.896328 
Q 86.434791 58.783047 86.522681 58.564297 
Q 86.610572 58.345547 86.809791 57.632656 
Q 87.135963 56.546719 87.135963 56.220547 
Q 87.135963 55.859219 86.548072 55.808438 
L 86.147681 55.771328 
L 86.147681 55.570156 
L 89.485572 55.570156 
z
M 93.633226 60.01293 
L 93.160179 61.211953 
L 89.739476 61.211953 
L 89.739476 61.10668 
L 91.296703 59.45375 
Q 91.909203 58.813906 92.171703 58.280703 
Q 92.434203 57.7475 92.434203 57.17875 
Q 92.434203 56.592227 92.110179 56.268203 
Q 91.786156 55.94418 91.217406 55.94418 
Q 90.745726 55.94418 90.469554 56.190273 
Q 90.193382 56.435 89.930882 57.08168 
L 89.747679 57.03793 
Q 89.896703 56.224453 90.346507 55.760977 
Q 90.797679 55.2975 91.567406 55.2975 
Q 92.293382 55.2975 92.739085 55.735 
Q 93.186156 56.1725 93.186156 56.836953 
Q 93.186156 57.82543 92.066429 59.00668 
L 90.622679 60.5475 
L 92.670726 60.5475 
Q 92.959203 60.5475 93.128734 60.434023 
Q 93.299632 60.31918 93.510179 59.960977 
L 93.633226 60.01293 
z
" clip-path="url(#p280e6c92dc)"/>
    </g>
   </g>
  </g>
  <defs>
   <clipPath id="p280e6c92dc">
    <rect x="7.2" y="7.2" width="108.7116" height="97.92"/>
   </clipPath>
  </defs>
 </g>
</svg>
