<?xml version="1.0" encoding="utf-8" standalone="no"?>
<!DOCTYPE svg PUBLIC "-//W3C//DTD SVG 1.1//EN"
  "http://www.w3.org/Graphics/SVG/1.1/DTD/svg11.dtd">
<svg xmlns:xlink="http://www.w3.org/1999/xlink" width="295.92pt" height="79.34pt" viewBox="0 0 295.92 79.34" xmlns="http://www.w3.org/2000/svg" version="1.1">
 <metadata>
  <rdf:RDF xmlns:dc="http://purl.org/dc/elements/1.1/" xmlns:cc="http://creativecommons.org/ns#" xmlns:rdf="http://www.w3.org/1999/02/22-rdf-syntax-ns#">
   <cc:Work>
    <dc:type rdf:resource="http://purl.org/dc/dcmitype/StillImage"/>
    <dc:date>2023-03-16T22:05:36.173514</dc:date>
    <dc:format>image/svg+xml</dc:format>
    <dc:creator>
     <cc:Agent>
      <dc:title>Matplotlib v3.5.2, https://matplotlib.org/</dc:title>
     </cc:Agent>
    </dc:creator>
   </cc:Work>
  </rdf:RDF>
 </metadata>
 <defs>
  <style type="text/css">*{stroke-linejoin: round; stroke-linecap: butt}</style>
 </defs>
 <g id="figure_1">
  <g id="patch_1">
   <path d="M 0 79.34 
L 295.92 79.34 
L 295.92 0 
L 0 0 
L 0 79.34 
z
" style="fill: none"/>
  </g>
  <g id="axes_1">
   <g id="patch_2">
    <path d="M 232.11 42.73 
C 232.11 41.715936 231.706735 40.742368 230.989683 40.025317 
C 230.272632 39.308265 229.299064 38.905 228.285 38.905 
C 227.270936 38.905 226.297368 39.308265 225.580317 40.025317 
C 224.863265 40.742368 224.46 41.715936 224.46 42.73 
" clip-path="url(#pdf8321ba08)" style="fill: none; stroke: #000000; stroke-width: 2; stroke-linejoin: miter"/>
   </g>
   <g id="patch_3">
    <path d="M 239.76 42.73 
C 239.76 41.715936 239.356735 40.742368 238.639683 40.025317 
C 237.922632 39.308265 236.949064 38.905 235.935 38.905 
C 234.920936 38.905 233.947368 39.308265 233.230317 40.025317 
C 232.513265 40.742368 232.11 41.715936 232.11 42.73 
" clip-path="url(#pdf8321ba08)" style="fill: none; stroke: #000000; stroke-width: 2; stroke-linejoin: miter"/>
   </g>
   <g id="patch_4">
    <path d="M 247.41 42.73 
C 247.41 41.715936 247.006735 40.742368 246.289683 40.025317 
C 245.572632 39.308265 244.599064 38.905 243.585 38.905 
C 242.570936 38.905 241.597368 39.308265 240.880317 40.025317 
C 240.163265 40.742368 239.76 41.715936 239.76 42.73 
" clip-path="url(#pdf8321ba08)" style="fill: none; stroke: #000000; stroke-width: 2; stroke-linejoin: miter"/>
   </g>
   <g id="patch_5">
    <path d="M 255.06 42.73 
C 255.06 41.715936 254.656735 40.742368 253.939683 40.025317 
C 253.222632 39.308265 252.249064 38.905 251.235 38.905 
C 250.220936 38.905 249.247368 39.308265 248.530317 40.025317 
C 247.813265 40.742368 247.41 41.715936 247.41 42.73 
" clip-path="url(#pdf8321ba08)" style="fill: none; stroke: #000000; stroke-width: 2; stroke-linejoin: miter"/>
   </g>
   <g id="patch_6">
    <path d="M 232.11 42.73 
C 232.11 41.715936 231.706735 40.742368 230.989683 40.025317 
C 230.272632 39.308265 229.299064 38.905 228.285 38.905 
C 227.270936 38.905 226.297368 39.308265 225.580317 40.025317 
C 224.863265 40.742368 224.46 41.715936 224.46 42.73 
" clip-path="url(#pdf8321ba08)" style="fill: none; stroke: #000000; stroke-width: 2; stroke-linejoin: miter"/>
   </g>
   <g id="patch_7">
    <path d="M 239.76 42.73 
C 239.76 41.715936 239.356735 40.742368 238.639683 40.025317 
C 237.922632 39.308265 236.949064 38.905 235.935 38.905 
C 234.920936 38.905 233.947368 39.308265 233.230317 40.025317 
C 232.513265 40.742368 232.11 41.715936 232.11 42.73 
" clip-path="url(#pdf8321ba08)" style="fill: none; stroke: #000000; stroke-width: 2; stroke-linejoin: miter"/>
   </g>
   <g id="patch_8">
    <path d="M 247.41 42.73 
C 247.41 41.715936 247.006735 40.742368 246.289683 40.025317 
C 245.572632 39.308265 244.599064 38.905 243.585 38.905 
C 242.570936 38.905 241.597368 39.308265 240.880317 40.025317 
C 240.163265 40.742368 239.76 41.715936 239.76 42.73 
" clip-path="url(#pdf8321ba08)" style="fill: none; stroke: #000000; stroke-width: 2; stroke-linejoin: miter"/>
   </g>
   <g id="patch_9">
    <path d="M 255.06 42.73 
C 255.06 41.715936 254.656735 40.742368 253.939683 40.025317 
C 253.222632 39.308265 252.249064 38.905 251.235 38.905 
C 250.220936 38.905 249.247368 39.308265 248.530317 40.025317 
C 247.813265 40.742368 247.41 41.715936 247.41 42.73 
" clip-path="url(#pdf8321ba08)" style="fill: none; stroke: #000000; stroke-width: 2; stroke-linejoin: miter"/>
   </g>
   <g id="line2d_1">
    <path d="M 10.26 42.73 
L 40.86 42.73 
L 43.41 35.08 
L 48.51 50.38 
L 53.61 35.08 
L 58.71 50.38 
L 63.81 35.08 
L 68.91 50.38 
L 71.46 42.73 
L 102.06 42.73 
" clip-path="url(#pdf8321ba08)" style="fill: none; stroke: #000000; stroke-width: 2; stroke-linecap: round"/>
   </g>
   <g id="line2d_2">
    <path d="M 102.06 42.73 
L 145.206 42.73 
M 145.206 35.08 
L 145.206 50.38 
M 150.714 35.08 
L 150.714 50.38 
M 150.714 42.73 
L 193.86 42.73 
" clip-path="url(#pdf8321ba08)" style="fill: none; stroke: #000000; stroke-width: 2; stroke-linecap: round"/>
   </g>
   <g id="line2d_3">
    <path d="M 193.86 42.73 
L 224.46 42.73 
M 255.06 42.73 
L 285.66 42.73 
" clip-path="url(#pdf8321ba08)" style="fill: none; stroke: #000000; stroke-width: 2; stroke-linecap: round"/>
   </g>
   <g id="line2d_4">
    <path d="M 10.26 42.73 
L 40.86 42.73 
L 43.41 35.08 
L 48.51 50.38 
L 53.61 35.08 
L 58.71 50.38 
L 63.81 35.08 
L 68.91 50.38 
L 71.46 42.73 
L 102.06 42.73 
" clip-path="url(#pdf8321ba08)" style="fill: none; stroke: #000000; stroke-width: 2; stroke-linecap: round"/>
   </g>
   <g id="line2d_5">
    <path d="M 102.06 42.73 
L 145.206 42.73 
M 145.206 35.08 
L 145.206 50.38 
M 150.714 35.08 
L 150.714 50.38 
M 150.714 42.73 
L 193.86 42.73 
" clip-path="url(#pdf8321ba08)" style="fill: none; stroke: #000000; stroke-width: 2; stroke-linecap: round"/>
   </g>
   <g id="line2d_6">
    <path d="M 193.86 42.73 
L 224.46 42.73 
M 255.06 42.73 
L 285.66 42.73 
" clip-path="url(#pdf8321ba08)" style="fill: none; stroke: #000000; stroke-width: 2; stroke-linecap: round"/>
   </g>
   <g id="text_1">
    <g clip-path="url(#pdf8321ba08)">
     <!-- $R_S$ -->
     <g transform="translate(49.8475 62.938047)scale(0.125 -0.125)">
      <defs>
       <path id="STIXGeneral-Italic-52" d="M 845 4179 
L 2458 4179 
Q 3078 4179 3420 3936 
Q 3763 3693 3763 3277 
Q 3763 2778 3341 2458 
Q 3091 2266 2502 2131 
L 3072 627 
Q 3181 333 3299 217 
Q 3418 102 3629 102 
L 3629 0 
L 2688 0 
L 1901 2074 
L 1478 2106 
L 1126 806 
Q 1043 512 1043 403 
Q 1043 256 1126 192 
Q 1210 128 1472 102 
L 1472 0 
L -83 0 
L -83 102 
Q 173 134 278 243 
Q 384 352 461 646 
L 1222 3405 
Q 1299 3699 1299 3808 
Q 1299 3923 1210 3987 
Q 1133 4038 845 4077 
L 845 4179 
z
M 1958 3795 
L 1555 2342 
Q 1754 2310 1882 2310 
Q 2451 2310 2771 2566 
Q 3091 2822 3091 3270 
Q 3091 3603 2892 3795 
Q 2694 3987 2323 3987 
Q 2010 3987 1958 3795 
z
" transform="scale(0.015625)"/>
       <path id="STIXGeneral-Italic-53" d="M 3251 4269 
L 2995 2989 
L 2880 3008 
Q 2880 3539 2720 3795 
Q 2560 4051 2118 4051 
Q 1786 4051 1594 3881 
Q 1402 3712 1402 3411 
Q 1402 3168 1504 3005 
Q 1606 2842 2035 2413 
Q 2464 1978 2611 1715 
Q 2758 1453 2758 1133 
Q 2758 589 2390 237 
Q 2022 -115 1466 -115 
Q 1222 -115 800 32 
Q 595 109 499 109 
Q 288 109 224 -96 
L 109 -96 
L 326 1338 
L 454 1325 
Q 442 1267 442 1178 
Q 442 710 701 409 
Q 960 109 1363 109 
Q 1734 109 1968 336 
Q 2202 563 2202 928 
Q 2202 1139 2118 1308 
Q 2035 1478 1818 1715 
L 1568 1984 
Q 1549 2003 1459 2102 
Q 1370 2202 1318 2253 
Q 1030 2560 934 2755 
Q 838 2950 838 3213 
Q 838 3699 1168 3980 
Q 1498 4262 1978 4262 
Q 2310 4262 2522 4173 
Q 2707 4102 2816 4102 
Q 2925 4102 2982 4134 
Q 3040 4166 3104 4269 
L 3251 4269 
z
" transform="scale(0.015625)"/>
      </defs>
      <use xlink:href="#STIXGeneral-Italic-52" transform="translate(0 0.703125)"/>
      <use xlink:href="#STIXGeneral-Italic-53" transform="translate(61.099991 -12.525)scale(0.7)"/>
     </g>
    </g>
   </g>
   <g id="text_2">
    <g clip-path="url(#pdf8321ba08)">
     <!-- $C$ -->
     <g transform="translate(143.7725 29.420391)scale(0.125 -0.125)">
      <defs>
       <path id="STIXGeneral-Italic-43" d="M 4410 4250 
L 4173 2970 
L 4058 2989 
Q 3942 4032 3104 4032 
Q 2406 4032 1830 3411 
Q 1491 3053 1315 2541 
Q 1139 2029 1139 1485 
Q 1139 173 2259 173 
Q 2656 173 2985 339 
Q 3315 506 3725 934 
L 3840 838 
Q 3411 333 2998 109 
Q 2586 -115 2093 -115 
Q 1344 -115 883 329 
Q 422 774 422 1555 
Q 422 2214 748 2812 
Q 1075 3411 1619 3795 
Q 2272 4262 3021 4262 
Q 3462 4262 3770 4154 
Q 3898 4109 4032 4109 
Q 4205 4109 4275 4250 
L 4410 4250 
z
" transform="scale(0.015625)"/>
      </defs>
      <use xlink:href="#STIXGeneral-Italic-43" transform="translate(0 0.40625)"/>
     </g>
    </g>
   </g>
   <g id="text_3">
    <g clip-path="url(#pdf8321ba08)">
     <!-- $L_S$ -->
     <g transform="translate(233.76 55.288047)scale(0.125 -0.125)">
      <defs>
       <path id="STIXGeneral-Italic-4c" d="M 3578 1152 
L 3206 0 
L -51 0 
L -51 102 
Q 218 128 301 211 
Q 384 294 474 602 
L 1254 3405 
Q 1325 3642 1325 3802 
Q 1325 3942 1225 4000 
Q 1126 4058 832 4077 
L 832 4179 
L 2579 4179 
L 2579 4077 
Q 2285 4058 2147 3955 
Q 2010 3853 1933 3584 
L 1165 838 
Q 1101 595 1101 493 
Q 1101 346 1241 288 
Q 1382 230 1773 230 
Q 2266 230 2480 275 
Q 2694 320 2925 474 
Q 3187 646 3450 1190 
L 3578 1152 
z
" transform="scale(0.015625)"/>
      </defs>
      <use xlink:href="#STIXGeneral-Italic-4c" transform="translate(0 0.703125)"/>
      <use xlink:href="#STIXGeneral-Italic-53" transform="translate(55.599991 -12.525)scale(0.7)"/>
     </g>
    </g>
   </g>
   <g id="text_4">
    <g clip-path="url(#pdf8321ba08)">
     <!-- $R_S$ -->
     <g transform="translate(49.8475 62.938047)scale(0.125 -0.125)">
      <use xlink:href="#STIXGeneral-Italic-52" transform="translate(0 0.703125)"/>
      <use xlink:href="#STIXGeneral-Italic-53" transform="translate(61.099991 -12.525)scale(0.7)"/>
     </g>
    </g>
   </g>
   <g id="text_5">
    <g clip-path="url(#pdf8321ba08)">
     <!-- $C$ -->
     <g transform="translate(143.7725 29.420391)scale(0.125 -0.125)">
      <use xlink:href="#STIXGeneral-Italic-43" transform="translate(0 0.40625)"/>
     </g>
    </g>
   </g>
   <g id="text_6">
    <g clip-path="url(#pdf8321ba08)">
     <!-- $L_S$ -->
     <g transform="translate(233.76 55.288047)scale(0.125 -0.125)">
      <use xlink:href="#STIXGeneral-Italic-4c" transform="translate(0 0.703125)"/>
      <use xlink:href="#STIXGeneral-Italic-53" transform="translate(55.599991 -12.525)scale(0.7)"/>
     </g>
    </g>
   </g>
  </g>
 </g>
 <defs>
  <clipPath id="pdf8321ba08">
   <rect x="7.2" y="7.2" width="281.52" height="64.94"/>
  </clipPath>
 </defs>
</svg>
