<?xml version="1.0" encoding="utf-8" standalone="no"?>
<!DOCTYPE svg PUBLIC "-//W3C//DTD SVG 1.1//EN"
  "http://www.w3.org/Graphics/SVG/1.1/DTD/svg11.dtd">
<svg xmlns:xlink="http://www.w3.org/1999/xlink" width="482.4pt" height="372.558516pt" viewBox="0 0 482.4 372.558516" xmlns="http://www.w3.org/2000/svg" version="1.1">
 <metadata>
  <rdf:RDF xmlns:dc="http://purl.org/dc/elements/1.1/" xmlns:cc="http://creativecommons.org/ns#" xmlns:rdf="http://www.w3.org/1999/02/22-rdf-syntax-ns#">
   <cc:Work>
    <dc:type rdf:resource="http://purl.org/dc/dcmitype/StillImage"/>
    <dc:date>2024-03-15T17:35:43.429614</dc:date>
    <dc:format>image/svg+xml</dc:format>
    <dc:creator>
     <cc:Agent>
      <dc:title>Matplotlib v3.8.2, https://matplotlib.org/</dc:title>
     </cc:Agent>
    </dc:creator>
   </cc:Work>
  </rdf:RDF>
 </metadata>
 <defs>
  <style type="text/css">*{stroke-linejoin: round; stroke-linecap: butt}</style>
 </defs>
 <g id="figure_1">
  <g id="patch_1">
   <path d="M 0 372.558516 
L 482.4 372.558516 
L 482.4 0 
L 0 0 
L 0 372.558516 
z
" style="fill: none"/>
  </g>
  <g id="axes_1">
   <g id="patch_2">
    <path d="M 349.2 232.65 
C 377.841935 232.65 405.314626 221.270439 425.567532 201.017532 
C 445.820439 180.764626 457.2 153.291935 457.2 124.65 
C 457.2 96.008065 445.820439 68.535374 425.567532 48.282468 
C 405.314626 28.029561 377.841935 16.65 349.2 16.65 
C 320.558065 16.65 293.085374 28.029561 272.832468 48.282468 
C 252.579561 68.535374 241.2 96.008065 241.2 124.65 
C 241.2 153.291935 252.579561 180.764626 272.832468 201.017532 
C 293.085374 221.270439 320.558065 232.65 349.2 232.65 
z
" clip-path="url(#pc9c2649064)" style="fill: #00ffff; stroke: #000000; stroke-width: 2; stroke-linejoin: miter"/>
   </g>
   <g id="patch_3">
    <path d="M 133.2 16.65 
L 349.2 16.65 
L 349.2 232.65 
L 133.2 232.65 
z
" clip-path="url(#pc9c2649064)" style="fill: #00ffff; stroke: #00ffff; stroke-width: 2; stroke-linecap: round"/>
   </g>
   <g id="patch_4">
    <path d="M 133.2 232.65 
C 161.841935 232.65 189.314626 221.270439 209.567532 201.017532 
C 229.820439 180.764626 241.2 153.291935 241.2 124.65 
C 241.2 96.008065 229.820439 68.535374 209.567532 48.282468 
C 189.314626 28.029561 161.841935 16.65 133.2 16.65 
C 104.558065 16.65 77.085374 28.029561 56.832468 48.282468 
C 36.579561 68.535374 25.2 96.008065 25.2 124.65 
C 25.2 153.291935 36.579561 180.764626 56.832468 201.017532 
C 77.085374 221.270439 104.558065 232.65 133.2 232.65 
z
" clip-path="url(#pc9c2649064)" style="fill: #808080; stroke: #000000; stroke-width: 2; stroke-linejoin: miter"/>
   </g>
   <g id="line2d_1">
    <path d="M 142.2 259.65 
L 340.2 259.65 
" clip-path="url(#pc9c2649064)" style="fill: none; stroke: #0000ff; stroke-width: 5; stroke-linecap: round"/>
   </g>
   <g id="patch_5">
    <path d="M 142.2 277.65 
L 133.2 259.65 
L 142.2 241.65 
z
" clip-path="url(#pc9c2649064)" style="fill: #0000ff"/>
   </g>
   <g id="patch_6">
    <path d="M 340.2 241.65 
L 349.2 259.65 
L 340.2 277.65 
z
" clip-path="url(#pc9c2649064)" style="fill: #0000ff"/>
   </g>
   <g id="text_1">
    <!-- $A$ -->
    <g transform="translate(115.065 140.792344) scale(0.585 -0.585)">
     <defs>
      <path id="STIXGeneral-Italic-41" d="M 3610 0 
L 2042 0 
L 2042 102 
Q 2330 115 2432 192 
Q 2534 269 2534 442 
Q 2534 493 2522 608 
L 2394 1446 
L 986 1446 
L 608 736 
Q 467 474 467 314 
Q 467 122 864 102 
L 864 0 
L -326 0 
L -326 102 
Q -109 147 28 307 
Q 166 467 531 1101 
L 2355 4275 
L 2522 4275 
L 3110 736 
Q 3174 339 3264 230 
Q 3354 122 3610 102 
L 3610 0 
z
M 2362 1677 
L 2074 3360 
L 1120 1677 
L 2362 1677 
z
" transform="scale(0.015625)"/>
     </defs>
     <use xlink:href="#STIXGeneral-Italic-41" transform="translate(0 0.203125)"/>
    </g>
   </g>
   <g id="text_2">
    <!-- $\rho$ -->
    <g transform="translate(334.2825 140.673516) scale(0.585 -0.585)">
     <defs>
      <path id="STIXGeneral-Italic-3c1" d="M -58 -864 
L 422 966 
Q 640 1811 1081 2316 
Q 1523 2822 2042 2822 
Q 2189 2822 2278 2816 
Q 2368 2810 2525 2765 
Q 2682 2720 2774 2633 
Q 2867 2547 2940 2371 
Q 3014 2195 3014 1946 
Q 3014 1210 2403 570 
Q 1792 -70 1107 -70 
Q 864 -70 672 38 
L 442 -864 
Q 378 -1126 243 -1312 
L -256 -1312 
Q -128 -1114 -58 -864 
z
M 2445 1997 
Q 2445 2291 2333 2489 
Q 2221 2688 2022 2688 
Q 1747 2688 1472 2361 
Q 1197 2035 1056 1530 
Q 762 467 762 288 
Q 762 186 851 118 
Q 941 51 1075 51 
Q 1472 58 1798 390 
Q 2125 723 2285 1161 
Q 2445 1600 2445 1997 
z
" transform="scale(0.015625)"/>
     </defs>
     <use xlink:href="#STIXGeneral-Italic-3c1" transform="translate(0 0.90625)"/>
    </g>
   </g>
   <g id="text_3">
    <!-- $l$ -->
    <g transform="translate(233.01 356.792344) scale(0.585 -0.585)">
     <defs>
      <path id="STIXGeneral-Italic-6c" d="M 1786 4339 
L 806 595 
Q 755 410 755 320 
Q 755 205 864 205 
Q 1037 205 1293 570 
L 1453 794 
L 1542 730 
Q 1254 275 1046 102 
Q 838 -70 576 -70 
Q 262 -70 262 288 
Q 262 397 288 480 
L 1165 3834 
Q 1184 3898 1184 3955 
Q 1184 4096 870 4096 
L 755 4096 
L 755 4198 
Q 1203 4250 1747 4371 
L 1786 4339 
z
" transform="scale(0.015625)"/>
     </defs>
     <use xlink:href="#STIXGeneral-Italic-6c" transform="translate(0 0.703125)"/>
    </g>
   </g>
  </g>
 </g>
 <defs>
  <clipPath id="pc9c2649064">
   <rect x="3.6" y="3.6" width="475.2" height="287.1"/>
  </clipPath>
 </defs>
</svg>
