<?xml version="1.0" encoding="utf-8" standalone="no"?>
<!DOCTYPE svg PUBLIC "-//W3C//DTD SVG 1.1//EN"
  "http://www.w3.org/Graphics/SVG/1.1/DTD/svg11.dtd">
<svg xmlns:xlink="http://www.w3.org/1999/xlink" width="387.72pt" height="302.04pt" viewBox="0 0 387.72 302.04" xmlns="http://www.w3.org/2000/svg" version="1.1">
 <metadata>
  <rdf:RDF xmlns:dc="http://purl.org/dc/elements/1.1/" xmlns:cc="http://creativecommons.org/ns#" xmlns:rdf="http://www.w3.org/1999/02/22-rdf-syntax-ns#">
   <cc:Work>
    <dc:type rdf:resource="http://purl.org/dc/dcmitype/StillImage"/>
    <dc:date>2023-02-11T10:09:31.180924</dc:date>
    <dc:format>image/svg+xml</dc:format>
    <dc:creator>
     <cc:Agent>
      <dc:title>Matplotlib v3.5.2, https://matplotlib.org/</dc:title>
     </cc:Agent>
    </dc:creator>
   </cc:Work>
  </rdf:RDF>
 </metadata>
 <defs>
  <style type="text/css">*{stroke-linejoin: round; stroke-linecap: butt}</style>
 </defs>
 <g id="figure_1">
  <g id="patch_1">
   <path d="M 0 302.04 
L 387.72 302.04 
L 387.72 0 
L 0 0 
L 0 302.04 
z
" style="fill: none"/>
  </g>
  <g id="axes_1">
   <g id="patch_2">
    <path d="M 285.66 193.86 
C 310.005645 193.86 333.357432 184.187373 350.572403 166.972403 
C 367.787373 149.757432 377.46 126.405645 377.46 102.06 
C 377.46 77.714355 367.787373 54.362568 350.572403 37.147597 
C 333.357432 19.932627 310.005645 10.26 285.66 10.26 
C 261.314355 10.26 237.962568 19.932627 220.747597 37.147597 
C 203.532627 54.362568 193.86 77.714355 193.86 102.06 
C 193.86 126.405645 203.532627 149.757432 220.747597 166.972403 
C 237.962568 184.187373 261.314355 193.86 285.66 193.86 
z
" clip-path="url(#p1d8b8e1474)" style="fill: #00ffff; stroke: #000000; stroke-width: 2; stroke-linejoin: miter"/>
   </g>
   <g id="patch_3">
    <path d="M 285.66 193.86 
C 310.005645 193.86 333.357432 184.187373 350.572403 166.972403 
C 367.787373 149.757432 377.46 126.405645 377.46 102.06 
C 377.46 77.714355 367.787373 54.362568 350.572403 37.147597 
C 333.357432 19.932627 310.005645 10.26 285.66 10.26 
C 261.314355 10.26 237.962568 19.932627 220.747597 37.147597 
C 203.532627 54.362568 193.86 77.714355 193.86 102.06 
C 193.86 126.405645 203.532627 149.757432 220.747597 166.972403 
C 237.962568 184.187373 261.314355 193.86 285.66 193.86 
z
" clip-path="url(#p1d8b8e1474)" style="fill: #00ffff; stroke: #000000; stroke-width: 2; stroke-linejoin: miter"/>
   </g>
   <g id="patch_4">
    <path d="M 102.06 10.26 
L 285.66 10.26 
L 285.66 193.86 
L 102.06 193.86 
z
" clip-path="url(#p1d8b8e1474)" style="fill: #00ffff; stroke: #00ffff; stroke-width: 2; stroke-linecap: round"/>
   </g>
   <g id="patch_5">
    <path d="M 102.06 10.26 
L 285.66 10.26 
L 285.66 193.86 
L 102.06 193.86 
z
" clip-path="url(#p1d8b8e1474)" style="fill: #00ffff; stroke: #00ffff; stroke-width: 2; stroke-linecap: round"/>
   </g>
   <g id="patch_6">
    <path d="M 102.06 193.86 
C 126.405645 193.86 149.757432 184.187373 166.972403 166.972403 
C 184.187373 149.757432 193.86 126.405645 193.86 102.06 
C 193.86 77.714355 184.187373 54.362568 166.972403 37.147597 
C 149.757432 19.932627 126.405645 10.26 102.06 10.26 
C 77.714355 10.26 54.362568 19.932627 37.147597 37.147597 
C 19.932627 54.362568 10.26 77.714355 10.26 102.06 
C 10.26 126.405645 19.932627 149.757432 37.147597 166.972403 
C 54.362568 184.187373 77.714355 193.86 102.06 193.86 
z
" clip-path="url(#p1d8b8e1474)" style="fill: #808080; stroke: #000000; stroke-width: 2; stroke-linejoin: miter"/>
   </g>
   <g id="line2d_1">
    <path d="M 109.71 216.81 
L 278.01 216.81 
" clip-path="url(#p1d8b8e1474)" style="fill: none; stroke: #0000ff; stroke-width: 5; stroke-linecap: round"/>
   </g>
   <g id="patch_7">
    <path d="M 109.71 232.11 
L 102.06 216.81 
L 109.71 201.51 
z
" clip-path="url(#p1d8b8e1474)" style="fill: #0000ff"/>
   </g>
   <g id="patch_8">
    <path d="M 278.01 201.51 
L 285.66 216.81 
L 278.01 232.11 
z
" clip-path="url(#p1d8b8e1474)" style="fill: #0000ff"/>
   </g>
   <g id="patch_9">
    <path d="M 102.06 193.86 
C 126.405645 193.86 149.757432 184.187373 166.972403 166.972403 
C 184.187373 149.757432 193.86 126.405645 193.86 102.06 
C 193.86 77.714355 184.187373 54.362568 166.972403 37.147597 
C 149.757432 19.932627 126.405645 10.26 102.06 10.26 
C 77.714355 10.26 54.362568 19.932627 37.147597 37.147597 
C 19.932627 54.362568 10.26 77.714355 10.26 102.06 
C 10.26 126.405645 19.932627 149.757432 37.147597 166.972403 
C 54.362568 184.187373 77.714355 193.86 102.06 193.86 
z
" clip-path="url(#p1d8b8e1474)" style="fill: #808080; stroke: #000000; stroke-width: 2; stroke-linejoin: miter"/>
   </g>
   <g id="line2d_2">
    <path d="M 109.71 216.81 
L 278.01 216.81 
" clip-path="url(#p1d8b8e1474)" style="fill: none; stroke: #0000ff; stroke-width: 5; stroke-linecap: round"/>
   </g>
   <g id="patch_10">
    <path d="M 109.71 232.11 
L 102.06 216.81 
L 109.71 201.51 
z
" clip-path="url(#p1d8b8e1474)" style="fill: #0000ff"/>
   </g>
   <g id="patch_11">
    <path d="M 278.01 201.51 
L 285.66 216.81 
L 278.01 232.11 
z
" clip-path="url(#p1d8b8e1474)" style="fill: #0000ff"/>
   </g>
   <g id="text_1">
    <g clip-path="url(#p1d8b8e1474)">
     <!-- $A$ -->
     <g transform="translate(83.925 118.202344)scale(0.585 -0.585)">
      <defs>
       <path id="STIXGeneral-Italic-41" d="M 3610 0 
L 2042 0 
L 2042 102 
Q 2330 115 2432 192 
Q 2534 269 2534 442 
Q 2534 493 2522 608 
L 2394 1446 
L 986 1446 
L 608 736 
Q 467 474 467 314 
Q 467 122 864 102 
L 864 0 
L -326 0 
L -326 102 
Q -109 147 28 307 
Q 166 467 531 1101 
L 2355 4275 
L 2522 4275 
L 3110 736 
Q 3174 339 3264 230 
Q 3354 122 3610 102 
L 3610 0 
z
M 2362 1677 
L 2074 3360 
L 1120 1677 
L 2362 1677 
z
" transform="scale(0.015625)"/>
      </defs>
      <use xlink:href="#STIXGeneral-Italic-41" transform="translate(0 0.203125)"/>
     </g>
    </g>
   </g>
   <g id="text_2">
    <g clip-path="url(#p1d8b8e1474)">
     <!-- $\rho$ -->
     <g transform="translate(270.7425 118.083516)scale(0.585 -0.585)">
      <defs>
       <path id="STIXGeneral-Italic-3c1" d="M -58 -864 
L 422 966 
Q 640 1811 1081 2316 
Q 1523 2822 2042 2822 
Q 2189 2822 2278 2816 
Q 2368 2810 2525 2765 
Q 2682 2720 2774 2633 
Q 2867 2547 2940 2371 
Q 3014 2195 3014 1946 
Q 3014 1210 2403 570 
Q 1792 -70 1107 -70 
Q 864 -70 672 38 
L 442 -864 
Q 378 -1126 243 -1312 
L -256 -1312 
Q -128 -1114 -58 -864 
z
M 2445 1997 
Q 2445 2291 2333 2489 
Q 2221 2688 2022 2688 
Q 1747 2688 1472 2361 
Q 1197 2035 1056 1530 
Q 762 467 762 288 
Q 762 186 851 118 
Q 941 51 1075 51 
Q 1472 58 1798 390 
Q 2125 723 2285 1161 
Q 2445 1600 2445 1997 
z
" transform="scale(0.015625)"/>
      </defs>
      <use xlink:href="#STIXGeneral-Italic-3c1" transform="translate(0 0.90625)"/>
     </g>
    </g>
   </g>
   <g id="text_3">
    <g clip-path="url(#p1d8b8e1474)">
     <!-- $l$ -->
     <g transform="translate(185.67 301.802344)scale(0.585 -0.585)">
      <defs>
       <path id="STIXGeneral-Italic-6c" d="M 1786 4339 
L 806 595 
Q 755 410 755 320 
Q 755 205 864 205 
Q 1037 205 1293 570 
L 1453 794 
L 1542 730 
Q 1254 275 1046 102 
Q 838 -70 576 -70 
Q 262 -70 262 288 
Q 262 397 288 480 
L 1165 3834 
Q 1184 3898 1184 3955 
Q 1184 4096 870 4096 
L 755 4096 
L 755 4198 
Q 1203 4250 1747 4371 
L 1786 4339 
z
" transform="scale(0.015625)"/>
      </defs>
      <use xlink:href="#STIXGeneral-Italic-6c" transform="translate(0 0.703125)"/>
     </g>
    </g>
   </g>
   <g id="text_4">
    <g clip-path="url(#p1d8b8e1474)">
     <!-- $A$ -->
     <g transform="translate(83.925 118.202344)scale(0.585 -0.585)">
      <use xlink:href="#STIXGeneral-Italic-41" transform="translate(0 0.203125)"/>
     </g>
    </g>
   </g>
   <g id="text_5">
    <g clip-path="url(#p1d8b8e1474)">
     <!-- $\rho$ -->
     <g transform="translate(270.7425 118.083516)scale(0.585 -0.585)">
      <use xlink:href="#STIXGeneral-Italic-3c1" transform="translate(0 0.90625)"/>
     </g>
    </g>
   </g>
   <g id="text_6">
    <g clip-path="url(#p1d8b8e1474)">
     <!-- $l$ -->
     <g transform="translate(185.67 301.802344)scale(0.585 -0.585)">
      <use xlink:href="#STIXGeneral-Italic-6c" transform="translate(0 0.703125)"/>
     </g>
    </g>
   </g>
  </g>
 </g>
 <defs>
  <clipPath id="p1d8b8e1474">
   <rect x="7.2" y="7.2" width="373.32" height="287.64"/>
  </clipPath>
 </defs>
</svg>
