<?xml version="1.0" encoding="utf-8" standalone="no"?>
<!DOCTYPE svg PUBLIC "-//W3C//DTD SVG 1.1//EN"
  "http://www.w3.org/Graphics/SVG/1.1/DTD/svg11.dtd">
<svg xmlns:xlink="http://www.w3.org/1999/xlink" width="204.12pt" height="139.435pt" viewBox="0 0 204.12 139.435" xmlns="http://www.w3.org/2000/svg" version="1.1">
 <metadata>
  <rdf:RDF xmlns:dc="http://purl.org/dc/elements/1.1/" xmlns:cc="http://creativecommons.org/ns#" xmlns:rdf="http://www.w3.org/1999/02/22-rdf-syntax-ns#">
   <cc:Work>
    <dc:type rdf:resource="http://purl.org/dc/dcmitype/StillImage"/>
    <dc:date>2023-01-25T21:28:08.987809</dc:date>
    <dc:format>image/svg+xml</dc:format>
    <dc:creator>
     <cc:Agent>
      <dc:title>Matplotlib v3.5.2, https://matplotlib.org/</dc:title>
     </cc:Agent>
    </dc:creator>
   </cc:Work>
  </rdf:RDF>
 </metadata>
 <defs>
  <style type="text/css">*{stroke-linejoin: round; stroke-linecap: butt}</style>
 </defs>
 <g id="figure_1">
  <g id="patch_1">
   <path d="M 0 139.435 
L 204.12 139.435 
L 204.12 0 
L 0 0 
z
" style="fill: #ffffff"/>
  </g>
  <g id="axes_1">
   <g id="line2d_1">
    <path d="M 10.26 37.375 
L 40.86 37.375 
L 43.41 29.725 
L 48.51 45.025 
L 53.61 29.725 
L 58.71 45.025 
L 63.81 29.725 
L 68.91 45.025 
L 71.46 37.375 
L 102.06 37.375 
" clip-path="url(#p6edc54e476)" style="fill: none; stroke: #000000; stroke-width: 2; stroke-linecap: round"/>
   </g>
   <g id="line2d_2">
    <path d="M 102.06 37.375 
L 102.06 67.975 
L 109.71 70.525 
L 94.41 75.625 
L 109.71 80.725 
L 94.41 85.825 
L 109.71 90.925 
L 94.41 96.025 
L 102.06 98.575 
L 102.06 129.175 
" clip-path="url(#p6edc54e476)" style="fill: none; stroke: #000000; stroke-width: 2; stroke-linecap: round"/>
   </g>
   <g id="line2d_3">
    <path d="M 102.06 37.375 
L 132.66 37.375 
L 135.21 29.725 
L 140.31 45.025 
L 145.41 29.725 
L 150.51 45.025 
L 155.61 29.725 
L 160.71 45.025 
L 163.26 37.375 
L 193.86 37.375 
" clip-path="url(#p6edc54e476)" style="fill: none; stroke: #000000; stroke-width: 2; stroke-linecap: round"/>
   </g>
   <g id="line2d_4">
    <path d="M 10.26 37.375 
L 40.86 37.375 
L 43.41 29.725 
L 48.51 45.025 
L 53.61 29.725 
L 58.71 45.025 
L 63.81 29.725 
L 68.91 45.025 
L 71.46 37.375 
L 102.06 37.375 
" clip-path="url(#p6edc54e476)" style="fill: none; stroke: #000000; stroke-width: 2; stroke-linecap: round"/>
   </g>
   <g id="line2d_5">
    <path d="M 102.06 37.375 
L 102.06 67.975 
L 109.71 70.525 
L 94.41 75.625 
L 109.71 80.725 
L 94.41 85.825 
L 109.71 90.925 
L 94.41 96.025 
L 102.06 98.575 
L 102.06 129.175 
" clip-path="url(#p6edc54e476)" style="fill: none; stroke: #000000; stroke-width: 2; stroke-linecap: round"/>
   </g>
   <g id="line2d_6">
    <path d="M 102.06 37.375 
L 132.66 37.375 
L 135.21 29.725 
L 140.31 45.025 
L 145.41 29.725 
L 150.51 45.025 
L 155.61 29.725 
L 160.71 45.025 
L 163.26 37.375 
L 193.86 37.375 
" clip-path="url(#p6edc54e476)" style="fill: none; stroke: #000000; stroke-width: 2; stroke-linecap: round"/>
   </g>
   <g id="patch_2">
    <path d="M 102.06 39.67 
C 102.668641 39.67 103.252436 39.428184 103.68281 38.99781 
C 104.113184 38.567436 104.355 37.983641 104.355 37.375 
C 104.355 36.766359 104.113184 36.182564 103.68281 35.75219 
C 103.252436 35.321816 102.668641 35.08 102.06 35.08 
C 101.451359 35.08 100.867564 35.321816 100.43719 35.75219 
C 100.006816 36.182564 99.765 36.766359 99.765 37.375 
C 99.765 37.983641 100.006816 38.567436 100.43719 38.99781 
C 100.867564 39.428184 101.451359 39.67 102.06 39.67 
z
" clip-path="url(#p6edc54e476)" style="fill: #ff0000; stroke: #ff0000; stroke-width: 2; stroke-linejoin: miter"/>
   </g>
   <g id="text_1">
    <g clip-path="url(#p6edc54e476)">
     <!-- node -->
     <g style="fill: #ff0000" transform="translate(86.461367 29.420391)scale(0.125 -0.125)">
      <defs>
       <path id="DejaVuSans-6e" d="M 3513 2113 
L 3513 0 
L 2938 0 
L 2938 2094 
Q 2938 2591 2744 2837 
Q 2550 3084 2163 3084 
Q 1697 3084 1428 2787 
Q 1159 2491 1159 1978 
L 1159 0 
L 581 0 
L 581 3500 
L 1159 3500 
L 1159 2956 
Q 1366 3272 1645 3428 
Q 1925 3584 2291 3584 
Q 2894 3584 3203 3211 
Q 3513 2838 3513 2113 
z
" transform="scale(0.015625)"/>
       <path id="DejaVuSans-6f" d="M 1959 3097 
Q 1497 3097 1228 2736 
Q 959 2375 959 1747 
Q 959 1119 1226 758 
Q 1494 397 1959 397 
Q 2419 397 2687 759 
Q 2956 1122 2956 1747 
Q 2956 2369 2687 2733 
Q 2419 3097 1959 3097 
z
M 1959 3584 
Q 2709 3584 3137 3096 
Q 3566 2609 3566 1747 
Q 3566 888 3137 398 
Q 2709 -91 1959 -91 
Q 1206 -91 779 398 
Q 353 888 353 1747 
Q 353 2609 779 3096 
Q 1206 3584 1959 3584 
z
" transform="scale(0.015625)"/>
       <path id="DejaVuSans-64" d="M 2906 2969 
L 2906 4863 
L 3481 4863 
L 3481 0 
L 2906 0 
L 2906 525 
Q 2725 213 2448 61 
Q 2172 -91 1784 -91 
Q 1150 -91 751 415 
Q 353 922 353 1747 
Q 353 2572 751 3078 
Q 1150 3584 1784 3584 
Q 2172 3584 2448 3432 
Q 2725 3281 2906 2969 
z
M 947 1747 
Q 947 1113 1208 752 
Q 1469 391 1925 391 
Q 2381 391 2643 752 
Q 2906 1113 2906 1747 
Q 2906 2381 2643 2742 
Q 2381 3103 1925 3103 
Q 1469 3103 1208 2742 
Q 947 2381 947 1747 
z
" transform="scale(0.015625)"/>
       <path id="DejaVuSans-65" d="M 3597 1894 
L 3597 1613 
L 953 1613 
Q 991 1019 1311 708 
Q 1631 397 2203 397 
Q 2534 397 2845 478 
Q 3156 559 3463 722 
L 3463 178 
Q 3153 47 2828 -22 
Q 2503 -91 2169 -91 
Q 1331 -91 842 396 
Q 353 884 353 1716 
Q 353 2575 817 3079 
Q 1281 3584 2069 3584 
Q 2775 3584 3186 3129 
Q 3597 2675 3597 1894 
z
M 3022 2063 
Q 3016 2534 2758 2815 
Q 2500 3097 2075 3097 
Q 1594 3097 1305 2825 
Q 1016 2553 972 2059 
L 3022 2063 
z
" transform="scale(0.015625)"/>
      </defs>
      <use xlink:href="#DejaVuSans-6e"/>
      <use xlink:href="#DejaVuSans-6f" x="63.378906"/>
      <use xlink:href="#DejaVuSans-64" x="124.560547"/>
      <use xlink:href="#DejaVuSans-65" x="188.037109"/>
     </g>
    </g>
   </g>
   <g id="patch_3">
    <path d="M 102.06 39.67 
C 102.668641 39.67 103.252436 39.428184 103.68281 38.99781 
C 104.113184 38.567436 104.355 37.983641 104.355 37.375 
C 104.355 36.766359 104.113184 36.182564 103.68281 35.75219 
C 103.252436 35.321816 102.668641 35.08 102.06 35.08 
C 101.451359 35.08 100.867564 35.321816 100.43719 35.75219 
C 100.006816 36.182564 99.765 36.766359 99.765 37.375 
C 99.765 37.983641 100.006816 38.567436 100.43719 38.99781 
C 100.867564 39.428184 101.451359 39.67 102.06 39.67 
z
" clip-path="url(#p6edc54e476)" style="fill: #ff0000; stroke: #ff0000; stroke-width: 2; stroke-linejoin: miter"/>
   </g>
   <g id="text_2">
    <g clip-path="url(#p6edc54e476)">
     <!-- node -->
     <g style="fill: #ff0000" transform="translate(86.461367 29.420391)scale(0.125 -0.125)">
      <use xlink:href="#DejaVuSans-6e"/>
      <use xlink:href="#DejaVuSans-6f" x="63.378906"/>
      <use xlink:href="#DejaVuSans-64" x="124.560547"/>
      <use xlink:href="#DejaVuSans-65" x="188.037109"/>
     </g>
    </g>
   </g>
  </g>
 </g>
 <defs>
  <clipPath id="p6edc54e476">
   <rect x="7.2" y="7.2" width="189.72" height="125.035"/>
  </clipPath>
 </defs>
</svg>
