<?xml version="1.0" encoding="utf-8" standalone="no"?>
<!DOCTYPE svg PUBLIC "-//W3C//DTD SVG 1.1//EN"
  "http://www.w3.org/Graphics/SVG/1.1/DTD/svg11.dtd">
<svg xmlns:xlink="http://www.w3.org/1999/xlink" width="112.32pt" height="67.864981pt" viewBox="0 0 112.32 67.864981" xmlns="http://www.w3.org/2000/svg" version="1.1">
 <metadata>
  <rdf:RDF xmlns:dc="http://purl.org/dc/elements/1.1/" xmlns:cc="http://creativecommons.org/ns#" xmlns:rdf="http://www.w3.org/1999/02/22-rdf-syntax-ns#">
   <cc:Work>
    <dc:type rdf:resource="http://purl.org/dc/dcmitype/StillImage"/>
    <dc:date>2023-03-15T08:30:54.609358</dc:date>
    <dc:format>image/svg+xml</dc:format>
    <dc:creator>
     <cc:Agent>
      <dc:title>Matplotlib v3.5.2, https://matplotlib.org/</dc:title>
     </cc:Agent>
    </dc:creator>
   </cc:Work>
  </rdf:RDF>
 </metadata>
 <defs>
  <style type="text/css">*{stroke-linejoin: round; stroke-linecap: butt}</style>
 </defs>
 <g id="figure_1">
  <g id="patch_1">
   <path d="M 0 67.864981 
L 112.32 67.864981 
L 112.32 0 
L 0 0 
L 0 67.864981 
z
" style="fill: none"/>
  </g>
  <g id="axes_1">
   <g id="patch_2">
    <path d="M 48.51 38.904981 
C 48.51 37.890917 48.106735 36.917349 47.389683 36.200298 
C 46.672632 35.483246 45.699064 35.079981 44.685 35.079981 
C 43.670936 35.079981 42.697368 35.483246 41.980317 36.200298 
C 41.263265 36.917349 40.86 37.890917 40.86 38.904981 
" clip-path="url(#p09adc20f8b)" style="fill: none; stroke: #000000; stroke-width: 2; stroke-linejoin: miter"/>
   </g>
   <g id="patch_3">
    <path d="M 56.16 38.904981 
C 56.16 37.890917 55.756735 36.917349 55.039683 36.200298 
C 54.322632 35.483246 53.349064 35.079981 52.335 35.079981 
C 51.320936 35.079981 50.347368 35.483246 49.630317 36.200298 
C 48.913265 36.917349 48.51 37.890917 48.51 38.904981 
" clip-path="url(#p09adc20f8b)" style="fill: none; stroke: #000000; stroke-width: 2; stroke-linejoin: miter"/>
   </g>
   <g id="patch_4">
    <path d="M 63.81 38.904981 
C 63.81 37.890917 63.406735 36.917349 62.689683 36.200298 
C 61.972632 35.483246 60.999064 35.079981 59.985 35.079981 
C 58.970936 35.079981 57.997368 35.483246 57.280317 36.200298 
C 56.563265 36.917349 56.16 37.890917 56.16 38.904981 
" clip-path="url(#p09adc20f8b)" style="fill: none; stroke: #000000; stroke-width: 2; stroke-linejoin: miter"/>
   </g>
   <g id="patch_5">
    <path d="M 71.46 38.904981 
C 71.46 37.890917 71.056735 36.917349 70.339683 36.200298 
C 69.622632 35.483246 68.649064 35.079981 67.635 35.079981 
C 66.620936 35.079981 65.647368 35.483246 64.930317 36.200298 
C 64.213265 36.917349 63.81 37.890917 63.81 38.904981 
" clip-path="url(#p09adc20f8b)" style="fill: none; stroke: #000000; stroke-width: 2; stroke-linejoin: miter"/>
   </g>
   <g id="patch_6">
    <path d="M 48.51 38.904981 
C 48.51 37.890917 48.106735 36.917349 47.389683 36.200298 
C 46.672632 35.483246 45.699064 35.079981 44.685 35.079981 
C 43.670936 35.079981 42.697368 35.483246 41.980317 36.200298 
C 41.263265 36.917349 40.86 37.890917 40.86 38.904981 
" clip-path="url(#p09adc20f8b)" style="fill: none; stroke: #000000; stroke-width: 2; stroke-linejoin: miter"/>
   </g>
   <g id="patch_7">
    <path d="M 56.16 38.904981 
C 56.16 37.890917 55.756735 36.917349 55.039683 36.200298 
C 54.322632 35.483246 53.349064 35.079981 52.335 35.079981 
C 51.320936 35.079981 50.347368 35.483246 49.630317 36.200298 
C 48.913265 36.917349 48.51 37.890917 48.51 38.904981 
" clip-path="url(#p09adc20f8b)" style="fill: none; stroke: #000000; stroke-width: 2; stroke-linejoin: miter"/>
   </g>
   <g id="patch_8">
    <path d="M 63.81 38.904981 
C 63.81 37.890917 63.406735 36.917349 62.689683 36.200298 
C 61.972632 35.483246 60.999064 35.079981 59.985 35.079981 
C 58.970936 35.079981 57.997368 35.483246 57.280317 36.200298 
C 56.563265 36.917349 56.16 37.890917 56.16 38.904981 
" clip-path="url(#p09adc20f8b)" style="fill: none; stroke: #000000; stroke-width: 2; stroke-linejoin: miter"/>
   </g>
   <g id="patch_9">
    <path d="M 71.46 38.904981 
C 71.46 37.890917 71.056735 36.917349 70.339683 36.200298 
C 69.622632 35.483246 68.649064 35.079981 67.635 35.079981 
C 66.620936 35.079981 65.647368 35.483246 64.930317 36.200298 
C 64.213265 36.917349 63.81 37.890917 63.81 38.904981 
" clip-path="url(#p09adc20f8b)" style="fill: none; stroke: #000000; stroke-width: 2; stroke-linejoin: miter"/>
   </g>
   <g id="line2d_1">
    <path d="M 10.26 38.904981 
L 40.86 38.904981 
M 71.46 38.904981 
L 102.06 38.904981 
" clip-path="url(#p09adc20f8b)" style="fill: none; stroke: #000000; stroke-width: 2; stroke-linecap: round"/>
   </g>
   <g id="line2d_2">
    <path d="M 10.26 38.904981 
L 40.86 38.904981 
M 71.46 38.904981 
L 102.06 38.904981 
" clip-path="url(#p09adc20f8b)" style="fill: none; stroke: #000000; stroke-width: 2; stroke-linecap: round"/>
   </g>
   <g id="text_1">
    <g clip-path="url(#p09adc20f8b)">
     <!-- - -->
     <g transform="translate(30.955117 29.420391)scale(0.125 -0.125)">
      <defs>
       <path id="DejaVuSans-2d" d="M 313 2009 
L 1997 2009 
L 1997 1497 
L 313 1497 
L 313 2009 
z
" transform="scale(0.015625)"/>
      </defs>
      <use xlink:href="#DejaVuSans-2d"/>
     </g>
    </g>
   </g>
   <g id="text_2">
    <g clip-path="url(#p09adc20f8b)">
     <!-- V -->
     <g transform="translate(51.884609 29.420391)scale(0.125 -0.125)">
      <defs>
       <path id="DejaVuSans-56" d="M 1831 0 
L 50 4666 
L 709 4666 
L 2188 738 
L 3669 4666 
L 4325 4666 
L 2547 0 
L 1831 0 
z
" transform="scale(0.015625)"/>
      </defs>
      <use xlink:href="#DejaVuSans-56"/>
     </g>
    </g>
   </g>
   <g id="text_3">
    <g clip-path="url(#p09adc20f8b)">
     <!-- + -->
     <g transform="translate(73.872695 29.420391)scale(0.125 -0.125)">
      <defs>
       <path id="DejaVuSans-2b" d="M 2944 4013 
L 2944 2272 
L 4684 2272 
L 4684 1741 
L 2944 1741 
L 2944 0 
L 2419 0 
L 2419 1741 
L 678 1741 
L 678 2272 
L 2419 2272 
L 2419 4013 
L 2944 4013 
z
" transform="scale(0.015625)"/>
      </defs>
      <use xlink:href="#DejaVuSans-2b"/>
     </g>
    </g>
   </g>
   <g id="text_4">
    <g clip-path="url(#p09adc20f8b)">
     <!-- $L_1 + L_2$ -->
     <g transform="translate(38.16 51.463028)scale(0.125 -0.125)">
      <defs>
       <path id="STIXGeneral-Italic-4c" d="M 3578 1152 
L 3206 0 
L -51 0 
L -51 102 
Q 218 128 301 211 
Q 384 294 474 602 
L 1254 3405 
Q 1325 3642 1325 3802 
Q 1325 3942 1225 4000 
Q 1126 4058 832 4077 
L 832 4179 
L 2579 4179 
L 2579 4077 
Q 2285 4058 2147 3955 
Q 2010 3853 1933 3584 
L 1165 838 
Q 1101 595 1101 493 
Q 1101 346 1241 288 
Q 1382 230 1773 230 
Q 2266 230 2480 275 
Q 2694 320 2925 474 
Q 3187 646 3450 1190 
L 3578 1152 
z
" transform="scale(0.015625)"/>
       <path id="STIXGeneral-Regular-31" d="M 2522 0 
L 755 0 
L 755 96 
Q 1107 115 1235 227 
Q 1363 339 1363 608 
L 1363 3482 
Q 1363 3795 1171 3795 
Q 1082 3795 883 3718 
L 710 3654 
L 710 3744 
L 1856 4326 
L 1914 4307 
L 1914 486 
Q 1914 275 2042 185 
Q 2170 96 2522 96 
L 2522 0 
z
" transform="scale(0.015625)"/>
       <path id="STIXGeneral-Regular-2b" d="M 4070 1408 
L 2400 1408 
L 2400 -262 
L 1978 -262 
L 1978 1408 
L 307 1408 
L 307 1830 
L 1978 1830 
L 1978 3501 
L 2400 3501 
L 2400 1830 
L 4070 1830 
L 4070 1408 
z
" transform="scale(0.015625)"/>
       <path id="STIXGeneral-Regular-32" d="M 3034 877 
L 2688 0 
L 186 0 
L 186 77 
L 1325 1286 
Q 1773 1754 1965 2144 
Q 2157 2534 2157 2950 
Q 2157 3379 1920 3616 
Q 1683 3853 1267 3853 
Q 922 3853 720 3673 
Q 518 3494 326 3021 
L 192 3053 
Q 301 3648 630 3987 
Q 960 4326 1523 4326 
Q 2054 4326 2380 4006 
Q 2707 3686 2707 3200 
Q 2707 2477 1888 1613 
L 832 486 
L 2330 486 
Q 2541 486 2665 569 
Q 2790 653 2944 915 
L 3034 877 
z
" transform="scale(0.015625)"/>
      </defs>
      <use xlink:href="#STIXGeneral-Italic-4c" transform="translate(0 0.703125)"/>
      <use xlink:href="#STIXGeneral-Regular-31" transform="translate(55.599991 -12.525)scale(0.7)"/>
      <use xlink:href="#STIXGeneral-Regular-2b" transform="translate(109.449352 0.703125)"/>
      <use xlink:href="#STIXGeneral-Italic-4c" transform="translate(192.389333 0.703125)"/>
      <use xlink:href="#STIXGeneral-Regular-32" transform="translate(247.989323 -12.525)scale(0.7)"/>
     </g>
    </g>
   </g>
   <g id="text_5">
    <g clip-path="url(#p09adc20f8b)">
     <!-- - -->
     <g transform="translate(30.955117 29.420391)scale(0.125 -0.125)">
      <use xlink:href="#DejaVuSans-2d"/>
     </g>
    </g>
   </g>
   <g id="text_6">
    <g clip-path="url(#p09adc20f8b)">
     <!-- V -->
     <g transform="translate(51.884609 29.420391)scale(0.125 -0.125)">
      <use xlink:href="#DejaVuSans-56"/>
     </g>
    </g>
   </g>
   <g id="text_7">
    <g clip-path="url(#p09adc20f8b)">
     <!-- + -->
     <g transform="translate(73.872695 29.420391)scale(0.125 -0.125)">
      <use xlink:href="#DejaVuSans-2b"/>
     </g>
    </g>
   </g>
   <g id="text_8">
    <g clip-path="url(#p09adc20f8b)">
     <!-- $L_1 + L_2$ -->
     <g transform="translate(38.16 51.463028)scale(0.125 -0.125)">
      <use xlink:href="#STIXGeneral-Italic-4c" transform="translate(0 0.703125)"/>
      <use xlink:href="#STIXGeneral-Regular-31" transform="translate(55.599991 -12.525)scale(0.7)"/>
      <use xlink:href="#STIXGeneral-Regular-2b" transform="translate(109.449352 0.703125)"/>
      <use xlink:href="#STIXGeneral-Italic-4c" transform="translate(192.389333 0.703125)"/>
      <use xlink:href="#STIXGeneral-Regular-32" transform="translate(247.989323 -12.525)scale(0.7)"/>
     </g>
    </g>
   </g>
  </g>
 </g>
 <defs>
  <clipPath id="p09adc20f8b">
   <rect x="7.2" y="7.2" width="97.92" height="53.464981"/>
  </clipPath>
 </defs>
</svg>
