<?xml version="1.0" encoding="utf-8" standalone="no"?>
<!DOCTYPE svg PUBLIC "-//W3C//DTD SVG 1.1//EN"
  "http://www.w3.org/Graphics/SVG/1.1/DTD/svg11.dtd">
<svg xmlns:xlink="http://www.w3.org/1999/xlink" width="349.6128pt" height="204.12pt" viewBox="0 0 349.6128 204.12" xmlns="http://www.w3.org/2000/svg" version="1.1">
 <metadata>
  <rdf:RDF xmlns:dc="http://purl.org/dc/elements/1.1/" xmlns:cc="http://creativecommons.org/ns#" xmlns:rdf="http://www.w3.org/1999/02/22-rdf-syntax-ns#">
   <cc:Work>
    <dc:type rdf:resource="http://purl.org/dc/dcmitype/StillImage"/>
    <dc:date>2023-03-14T19:19:18.865611</dc:date>
    <dc:format>image/svg+xml</dc:format>
    <dc:creator>
     <cc:Agent>
      <dc:title>Matplotlib v3.5.2, https://matplotlib.org/</dc:title>
     </cc:Agent>
    </dc:creator>
   </cc:Work>
  </rdf:RDF>
 </metadata>
 <defs>
  <style type="text/css">*{stroke-linejoin: round; stroke-linecap: butt}</style>
 </defs>
 <g id="figure_1">
  <g id="patch_1">
   <path d="M 0 204.12 
L 349.6128 204.12 
L 349.6128 0 
L 0 0 
L 0 204.12 
z
" style="fill: none"/>
  </g>
  <g id="axes_1">
   <g id="patch_2">
    <path d="M 56.3028 163.26 
C 60.360407 163.26 64.252372 161.647895 67.121534 158.778734 
C 69.990695 155.909572 71.6028 152.017607 71.6028 147.96 
C 71.6028 143.902393 69.990695 140.010428 67.121534 137.141266 
C 64.252372 134.272105 60.360407 132.66 56.3028 132.66 
C 52.245193 132.66 48.353228 134.272105 45.484066 137.141266 
C 42.614905 140.010428 41.0028 143.902393 41.0028 147.96 
C 41.0028 152.017607 42.614905 155.909572 45.484066 158.778734 
C 48.353228 161.647895 52.245193 163.26 56.3028 163.26 
L 56.3028 163.26 
z
" clip-path="url(#pfb29a6b0ee)" style="fill: none; stroke: #000000; stroke-width: 2; stroke-linejoin: miter"/>
   </g>
   <g id="patch_3">
    <path d="M 56.3028 71.46 
C 60.360407 71.46 64.252372 69.847895 67.121534 66.978734 
C 69.990695 64.109572 71.6028 60.217607 71.6028 56.16 
C 71.6028 52.102393 69.990695 48.210428 67.121534 45.341266 
C 64.252372 42.472105 60.360407 40.86 56.3028 40.86 
C 52.245193 40.86 48.353228 42.472105 45.484066 45.341266 
C 42.614905 48.210428 41.0028 52.102393 41.0028 56.16 
C 41.0028 60.217607 42.614905 64.109572 45.484066 66.978734 
C 48.353228 69.847895 52.245193 71.46 56.3028 71.46 
L 56.3028 71.46 
z
" clip-path="url(#pfb29a6b0ee)" style="fill: none; stroke: #000000; stroke-width: 2; stroke-linejoin: miter"/>
   </g>
   <g id="patch_4">
    <path d="M 239.9028 163.26 
C 243.960407 163.26 247.852372 161.647895 250.721534 158.778734 
C 253.590695 155.909572 255.2028 152.017607 255.2028 147.96 
C 255.2028 143.902393 253.590695 140.010428 250.721534 137.141266 
C 247.852372 134.272105 243.960407 132.66 239.9028 132.66 
C 235.845193 132.66 231.953228 134.272105 229.084066 137.141266 
C 226.214905 140.010428 224.6028 143.902393 224.6028 147.96 
C 224.6028 152.017607 226.214905 155.909572 229.084066 158.778734 
C 231.953228 161.647895 235.845193 163.26 239.9028 163.26 
L 239.9028 163.26 
z
" clip-path="url(#pfb29a6b0ee)" style="fill: none; stroke: #000000; stroke-width: 2; stroke-linejoin: miter"/>
   </g>
   <g id="patch_5">
    <path d="M 56.3028 163.26 
C 60.360407 163.26 64.252372 161.647895 67.121534 158.778734 
C 69.990695 155.909572 71.6028 152.017607 71.6028 147.96 
C 71.6028 143.902393 69.990695 140.010428 67.121534 137.141266 
C 64.252372 134.272105 60.360407 132.66 56.3028 132.66 
C 52.245193 132.66 48.353228 134.272105 45.484066 137.141266 
C 42.614905 140.010428 41.0028 143.902393 41.0028 147.96 
C 41.0028 152.017607 42.614905 155.909572 45.484066 158.778734 
C 48.353228 161.647895 52.245193 163.26 56.3028 163.26 
L 56.3028 163.26 
z
" clip-path="url(#pfb29a6b0ee)" style="fill: none; stroke: #000000; stroke-width: 2; stroke-linejoin: miter"/>
   </g>
   <g id="patch_6">
    <path d="M 56.3028 71.46 
C 60.360407 71.46 64.252372 69.847895 67.121534 66.978734 
C 69.990695 64.109572 71.6028 60.217607 71.6028 56.16 
C 71.6028 52.102393 69.990695 48.210428 67.121534 45.341266 
C 64.252372 42.472105 60.360407 40.86 56.3028 40.86 
C 52.245193 40.86 48.353228 42.472105 45.484066 45.341266 
C 42.614905 48.210428 41.0028 52.102393 41.0028 56.16 
C 41.0028 60.217607 42.614905 64.109572 45.484066 66.978734 
C 48.353228 69.847895 52.245193 71.46 56.3028 71.46 
L 56.3028 71.46 
z
" clip-path="url(#pfb29a6b0ee)" style="fill: none; stroke: #000000; stroke-width: 2; stroke-linejoin: miter"/>
   </g>
   <g id="patch_7">
    <path d="M 239.9028 163.26 
C 243.960407 163.26 247.852372 161.647895 250.721534 158.778734 
C 253.590695 155.909572 255.2028 152.017607 255.2028 147.96 
C 255.2028 143.902393 253.590695 140.010428 250.721534 137.141266 
C 247.852372 134.272105 243.960407 132.66 239.9028 132.66 
C 235.845193 132.66 231.953228 134.272105 229.084066 137.141266 
C 226.214905 140.010428 224.6028 143.902393 224.6028 147.96 
C 224.6028 152.017607 226.214905 155.909572 229.084066 158.778734 
C 231.953228 161.647895 235.845193 163.26 239.9028 163.26 
L 239.9028 163.26 
z
" clip-path="url(#pfb29a6b0ee)" style="fill: none; stroke: #000000; stroke-width: 2; stroke-linejoin: miter"/>
   </g>
   <g id="line2d_1">
    <path d="M 56.3028 193.86 
L 56.3028 163.26 
L 56.3028 163.26 
M 56.3028 132.66 
L 56.3028 132.66 
L 56.3028 102.06 
" clip-path="url(#pfb29a6b0ee)" style="fill: none; stroke: #000000; stroke-width: 2; stroke-linecap: round"/>
   </g>
   <g id="line2d_2">
    <path d="M 59.3628 155.61 
L 53.2428 155.61 
" clip-path="url(#pfb29a6b0ee)" style="fill: none; stroke: #000000; stroke-width: 2; stroke-linecap: round"/>
   </g>
   <g id="line2d_3">
    <path d="M 56.3028 143.37 
L 56.3028 137.25 
" clip-path="url(#pfb29a6b0ee)" style="fill: none; stroke: #000000; stroke-width: 2; stroke-linecap: round"/>
   </g>
   <g id="line2d_4">
    <path d="M 59.3628 140.31 
L 53.2428 140.31 
" clip-path="url(#pfb29a6b0ee)" style="fill: none; stroke: #000000; stroke-width: 2; stroke-linecap: round"/>
   </g>
   <g id="line2d_5">
    <path d="M 56.3028 102.06 
L 56.3028 71.46 
L 56.3028 71.46 
M 56.3028 40.86 
L 56.3028 40.86 
L 56.3028 10.26 
" clip-path="url(#pfb29a6b0ee)" style="fill: none; stroke: #000000; stroke-width: 2; stroke-linecap: round"/>
   </g>
   <g id="line2d_6">
    <path d="M 59.3628 63.81 
L 53.2428 63.81 
" clip-path="url(#pfb29a6b0ee)" style="fill: none; stroke: #000000; stroke-width: 2; stroke-linecap: round"/>
   </g>
   <g id="line2d_7">
    <path d="M 56.3028 51.57 
L 56.3028 45.45 
" clip-path="url(#pfb29a6b0ee)" style="fill: none; stroke: #000000; stroke-width: 2; stroke-linecap: round"/>
   </g>
   <g id="line2d_8">
    <path d="M 59.3628 48.51 
L 53.2428 48.51 
" clip-path="url(#pfb29a6b0ee)" style="fill: none; stroke: #000000; stroke-width: 2; stroke-linecap: round"/>
   </g>
   <g id="line2d_9">
    <path d="M 56.3028 10.26 
L 102.2028 10.26 
L 148.1028 10.26 
" clip-path="url(#pfb29a6b0ee)" style="fill: none; stroke: #000000; stroke-width: 2; stroke-linecap: round"/>
   </g>
   <g id="line2d_10">
    <path d="M 148.1028 10.26 
L 148.1028 86.76 
L 155.7528 89.31 
L 140.4528 94.41 
L 155.7528 99.51 
L 140.4528 104.61 
L 155.7528 109.71 
L 140.4528 114.81 
L 148.1028 117.36 
L 148.1028 193.86 
" clip-path="url(#pfb29a6b0ee)" style="fill: none; stroke: #000000; stroke-width: 2; stroke-linecap: round"/>
   </g>
   <g id="line2d_11">
    <path d="M 148.1028 193.86 
L 102.2028 193.86 
L 56.3028 193.86 
" clip-path="url(#pfb29a6b0ee)" style="fill: none; stroke: #000000; stroke-width: 2; stroke-linecap: round"/>
   </g>
   <g id="line2d_12">
    <path d="M 239.9028 193.86 
L 239.9028 163.26 
L 239.9028 163.26 
M 239.9028 132.66 
L 239.9028 132.66 
L 239.9028 102.06 
" clip-path="url(#pfb29a6b0ee)" style="fill: none; stroke: #000000; stroke-width: 2; stroke-linecap: round"/>
   </g>
   <g id="line2d_13">
    <path d="M 242.9628 155.61 
L 236.8428 155.61 
" clip-path="url(#pfb29a6b0ee)" style="fill: none; stroke: #000000; stroke-width: 2; stroke-linecap: round"/>
   </g>
   <g id="line2d_14">
    <path d="M 239.9028 143.37 
L 239.9028 137.25 
" clip-path="url(#pfb29a6b0ee)" style="fill: none; stroke: #000000; stroke-width: 2; stroke-linecap: round"/>
   </g>
   <g id="line2d_15">
    <path d="M 242.9628 140.31 
L 236.8428 140.31 
" clip-path="url(#pfb29a6b0ee)" style="fill: none; stroke: #000000; stroke-width: 2; stroke-linecap: round"/>
   </g>
   <g id="line2d_16">
    <path d="M 239.9028 102.06 
L 285.8028 102.06 
L 331.7028 102.06 
" clip-path="url(#pfb29a6b0ee)" style="fill: none; stroke: #000000; stroke-width: 2; stroke-linecap: round"/>
   </g>
   <g id="line2d_17">
    <path d="M 331.7028 102.06 
L 331.7028 132.66 
L 339.3528 135.21 
L 324.0528 140.31 
L 339.3528 145.41 
L 324.0528 150.51 
L 339.3528 155.61 
L 324.0528 160.71 
L 331.7028 163.26 
L 331.7028 193.86 
" clip-path="url(#pfb29a6b0ee)" style="fill: none; stroke: #000000; stroke-width: 2; stroke-linecap: round"/>
   </g>
   <g id="line2d_18">
    <path d="M 331.7028 193.86 
L 285.8028 193.86 
L 239.9028 193.86 
" clip-path="url(#pfb29a6b0ee)" style="fill: none; stroke: #000000; stroke-width: 2; stroke-linecap: round"/>
   </g>
   <g id="line2d_19">
    <path d="M 56.3028 193.86 
L 56.3028 163.26 
L 56.3028 163.26 
M 56.3028 132.66 
L 56.3028 132.66 
L 56.3028 102.06 
" clip-path="url(#pfb29a6b0ee)" style="fill: none; stroke: #000000; stroke-width: 2; stroke-linecap: round"/>
   </g>
   <g id="line2d_20">
    <path d="M 59.3628 155.61 
L 53.2428 155.61 
" clip-path="url(#pfb29a6b0ee)" style="fill: none; stroke: #000000; stroke-width: 2; stroke-linecap: round"/>
   </g>
   <g id="line2d_21">
    <path d="M 56.3028 143.37 
L 56.3028 137.25 
" clip-path="url(#pfb29a6b0ee)" style="fill: none; stroke: #000000; stroke-width: 2; stroke-linecap: round"/>
   </g>
   <g id="line2d_22">
    <path d="M 59.3628 140.31 
L 53.2428 140.31 
" clip-path="url(#pfb29a6b0ee)" style="fill: none; stroke: #000000; stroke-width: 2; stroke-linecap: round"/>
   </g>
   <g id="line2d_23">
    <path d="M 56.3028 102.06 
L 56.3028 71.46 
L 56.3028 71.46 
M 56.3028 40.86 
L 56.3028 40.86 
L 56.3028 10.26 
" clip-path="url(#pfb29a6b0ee)" style="fill: none; stroke: #000000; stroke-width: 2; stroke-linecap: round"/>
   </g>
   <g id="line2d_24">
    <path d="M 59.3628 63.81 
L 53.2428 63.81 
" clip-path="url(#pfb29a6b0ee)" style="fill: none; stroke: #000000; stroke-width: 2; stroke-linecap: round"/>
   </g>
   <g id="line2d_25">
    <path d="M 56.3028 51.57 
L 56.3028 45.45 
" clip-path="url(#pfb29a6b0ee)" style="fill: none; stroke: #000000; stroke-width: 2; stroke-linecap: round"/>
   </g>
   <g id="line2d_26">
    <path d="M 59.3628 48.51 
L 53.2428 48.51 
" clip-path="url(#pfb29a6b0ee)" style="fill: none; stroke: #000000; stroke-width: 2; stroke-linecap: round"/>
   </g>
   <g id="line2d_27">
    <path d="M 56.3028 10.26 
L 102.2028 10.26 
L 148.1028 10.26 
" clip-path="url(#pfb29a6b0ee)" style="fill: none; stroke: #000000; stroke-width: 2; stroke-linecap: round"/>
   </g>
   <g id="line2d_28">
    <path d="M 148.1028 10.26 
L 148.1028 86.76 
L 155.7528 89.31 
L 140.4528 94.41 
L 155.7528 99.51 
L 140.4528 104.61 
L 155.7528 109.71 
L 140.4528 114.81 
L 148.1028 117.36 
L 148.1028 193.86 
" clip-path="url(#pfb29a6b0ee)" style="fill: none; stroke: #000000; stroke-width: 2; stroke-linecap: round"/>
   </g>
   <g id="line2d_29">
    <path d="M 148.1028 193.86 
L 102.2028 193.86 
L 56.3028 193.86 
" clip-path="url(#pfb29a6b0ee)" style="fill: none; stroke: #000000; stroke-width: 2; stroke-linecap: round"/>
   </g>
   <g id="line2d_30">
    <path d="M 239.9028 193.86 
L 239.9028 163.26 
L 239.9028 163.26 
M 239.9028 132.66 
L 239.9028 132.66 
L 239.9028 102.06 
" clip-path="url(#pfb29a6b0ee)" style="fill: none; stroke: #000000; stroke-width: 2; stroke-linecap: round"/>
   </g>
   <g id="line2d_31">
    <path d="M 242.9628 155.61 
L 236.8428 155.61 
" clip-path="url(#pfb29a6b0ee)" style="fill: none; stroke: #000000; stroke-width: 2; stroke-linecap: round"/>
   </g>
   <g id="line2d_32">
    <path d="M 239.9028 143.37 
L 239.9028 137.25 
" clip-path="url(#pfb29a6b0ee)" style="fill: none; stroke: #000000; stroke-width: 2; stroke-linecap: round"/>
   </g>
   <g id="line2d_33">
    <path d="M 242.9628 140.31 
L 236.8428 140.31 
" clip-path="url(#pfb29a6b0ee)" style="fill: none; stroke: #000000; stroke-width: 2; stroke-linecap: round"/>
   </g>
   <g id="line2d_34">
    <path d="M 239.9028 102.06 
L 285.8028 102.06 
L 331.7028 102.06 
" clip-path="url(#pfb29a6b0ee)" style="fill: none; stroke: #000000; stroke-width: 2; stroke-linecap: round"/>
   </g>
   <g id="line2d_35">
    <path d="M 331.7028 102.06 
L 331.7028 132.66 
L 339.3528 135.21 
L 324.0528 140.31 
L 339.3528 145.41 
L 324.0528 150.51 
L 339.3528 155.61 
L 324.0528 160.71 
L 331.7028 163.26 
L 331.7028 193.86 
" clip-path="url(#pfb29a6b0ee)" style="fill: none; stroke: #000000; stroke-width: 2; stroke-linecap: round"/>
   </g>
   <g id="line2d_36">
    <path d="M 331.7028 193.86 
L 285.8028 193.86 
L 239.9028 193.86 
" clip-path="url(#pfb29a6b0ee)" style="fill: none; stroke: #000000; stroke-width: 2; stroke-linecap: round"/>
   </g>
   <g id="text_1">
    <g clip-path="url(#pfb29a6b0ee)">
     <!-- $V_1$ -->
     <g transform="translate(25.3178 144.410586)scale(0.125 -0.125)">
      <defs>
       <path id="STIXGeneral-Italic-56" d="M 4403 4179 
L 4403 4077 
Q 4198 4070 4045 3821 
L 1658 -115 
L 1536 -115 
L 1011 3104 
Q 902 3776 828 3910 
Q 755 4045 486 4077 
L 486 4179 
L 2022 4179 
L 2022 4077 
Q 1722 4045 1629 3981 
Q 1536 3917 1536 3750 
Q 1536 3686 1542 3654 
L 1958 819 
L 3302 3123 
Q 3616 3661 3616 3859 
Q 3616 4032 3219 4077 
L 3219 4179 
L 4403 4179 
z
" transform="scale(0.015625)"/>
       <path id="STIXGeneral-Regular-31" d="M 2522 0 
L 755 0 
L 755 96 
Q 1107 115 1235 227 
Q 1363 339 1363 608 
L 1363 3482 
Q 1363 3795 1171 3795 
Q 1082 3795 883 3718 
L 710 3654 
L 710 3744 
L 1856 4326 
L 1914 4307 
L 1914 486 
Q 1914 275 2042 185 
Q 2170 96 2522 96 
L 2522 0 
z
" transform="scale(0.015625)"/>
      </defs>
      <use xlink:href="#STIXGeneral-Italic-56" transform="translate(0 0.703125)"/>
      <use xlink:href="#STIXGeneral-Regular-31" transform="translate(61.099991 -12.525)scale(0.7)"/>
     </g>
    </g>
    <g clip-path="url(#pfb29a6b0ee)">
     <!-- 6V -->
     <g transform="translate(21.438894 158.407852)scale(0.125 -0.125)">
      <defs>
       <path id="DejaVuSans-36" d="M 2113 2584 
Q 1688 2584 1439 2293 
Q 1191 2003 1191 1497 
Q 1191 994 1439 701 
Q 1688 409 2113 409 
Q 2538 409 2786 701 
Q 3034 994 3034 1497 
Q 3034 2003 2786 2293 
Q 2538 2584 2113 2584 
z
M 3366 4563 
L 3366 3988 
Q 3128 4100 2886 4159 
Q 2644 4219 2406 4219 
Q 1781 4219 1451 3797 
Q 1122 3375 1075 2522 
Q 1259 2794 1537 2939 
Q 1816 3084 2150 3084 
Q 2853 3084 3261 2657 
Q 3669 2231 3669 1497 
Q 3669 778 3244 343 
Q 2819 -91 2113 -91 
Q 1303 -91 875 529 
Q 447 1150 447 2328 
Q 447 3434 972 4092 
Q 1497 4750 2381 4750 
Q 2619 4750 2861 4703 
Q 3103 4656 3366 4563 
z
" transform="scale(0.015625)"/>
       <path id="DejaVuSans-56" d="M 1831 0 
L 50 4666 
L 709 4666 
L 2188 738 
L 3669 4666 
L 4325 4666 
L 2547 0 
L 1831 0 
z
" transform="scale(0.015625)"/>
      </defs>
      <use xlink:href="#DejaVuSans-36"/>
      <use xlink:href="#DejaVuSans-56" x="63.623047"/>
     </g>
    </g>
   </g>
   <g id="text_2">
    <g clip-path="url(#pfb29a6b0ee)">
     <!-- $V_2$ -->
     <g transform="translate(25.3178 52.610586)scale(0.125 -0.125)">
      <defs>
       <path id="STIXGeneral-Regular-32" d="M 3034 877 
L 2688 0 
L 186 0 
L 186 77 
L 1325 1286 
Q 1773 1754 1965 2144 
Q 2157 2534 2157 2950 
Q 2157 3379 1920 3616 
Q 1683 3853 1267 3853 
Q 922 3853 720 3673 
Q 518 3494 326 3021 
L 192 3053 
Q 301 3648 630 3987 
Q 960 4326 1523 4326 
Q 2054 4326 2380 4006 
Q 2707 3686 2707 3200 
Q 2707 2477 1888 1613 
L 832 486 
L 2330 486 
Q 2541 486 2665 569 
Q 2790 653 2944 915 
L 3034 877 
z
" transform="scale(0.015625)"/>
      </defs>
      <use xlink:href="#STIXGeneral-Italic-56" transform="translate(0 0.703125)"/>
      <use xlink:href="#STIXGeneral-Regular-32" transform="translate(61.099991 -12.525)scale(0.7)"/>
     </g>
    </g>
    <g clip-path="url(#pfb29a6b0ee)">
     <!-- 12V -->
     <g transform="translate(13.485769 66.607852)scale(0.125 -0.125)">
      <defs>
       <path id="DejaVuSans-31" d="M 794 531 
L 1825 531 
L 1825 4091 
L 703 3866 
L 703 4441 
L 1819 4666 
L 2450 4666 
L 2450 531 
L 3481 531 
L 3481 0 
L 794 0 
L 794 531 
z
" transform="scale(0.015625)"/>
       <path id="DejaVuSans-32" d="M 1228 531 
L 3431 531 
L 3431 0 
L 469 0 
L 469 531 
Q 828 903 1448 1529 
Q 2069 2156 2228 2338 
Q 2531 2678 2651 2914 
Q 2772 3150 2772 3378 
Q 2772 3750 2511 3984 
Q 2250 4219 1831 4219 
Q 1534 4219 1204 4116 
Q 875 4013 500 3803 
L 500 4441 
Q 881 4594 1212 4672 
Q 1544 4750 1819 4750 
Q 2544 4750 2975 4387 
Q 3406 4025 3406 3419 
Q 3406 3131 3298 2873 
Q 3191 2616 2906 2266 
Q 2828 2175 2409 1742 
Q 1991 1309 1228 531 
z
" transform="scale(0.015625)"/>
      </defs>
      <use xlink:href="#DejaVuSans-31"/>
      <use xlink:href="#DejaVuSans-32" x="63.623047"/>
      <use xlink:href="#DejaVuSans-56" x="127.246094"/>
     </g>
    </g>
   </g>
   <g id="text_3">
    <g clip-path="url(#pfb29a6b0ee)">
     <!-- $R$ -->
     <g transform="translate(129.6428 98.510586)scale(0.125 -0.125)">
      <defs>
       <path id="STIXGeneral-Italic-52" d="M 845 4179 
L 2458 4179 
Q 3078 4179 3420 3936 
Q 3763 3693 3763 3277 
Q 3763 2778 3341 2458 
Q 3091 2266 2502 2131 
L 3072 627 
Q 3181 333 3299 217 
Q 3418 102 3629 102 
L 3629 0 
L 2688 0 
L 1901 2074 
L 1478 2106 
L 1126 806 
Q 1043 512 1043 403 
Q 1043 256 1126 192 
Q 1210 128 1472 102 
L 1472 0 
L -83 0 
L -83 102 
Q 173 134 278 243 
Q 384 352 461 646 
L 1222 3405 
Q 1299 3699 1299 3808 
Q 1299 3923 1210 3987 
Q 1133 4038 845 4077 
L 845 4179 
z
M 1958 3795 
L 1555 2342 
Q 1754 2310 1882 2310 
Q 2451 2310 2771 2566 
Q 3091 2822 3091 3270 
Q 3091 3603 2892 3795 
Q 2694 3987 2323 3987 
Q 2010 3987 1958 3795 
z
" transform="scale(0.015625)"/>
      </defs>
      <use xlink:href="#STIXGeneral-Italic-52" transform="translate(0 0.703125)"/>
     </g>
    </g>
    <g clip-path="url(#pfb29a6b0ee)">
     <!-- $9\Omega$ -->
     <g transform="translate(121.7678 112.507852)scale(0.125 -0.125)">
      <defs>
       <path id="STIXGeneral-Regular-39" d="M 378 -141 
L 358 -13 
Q 1094 115 1603 608 
Q 2112 1101 2304 1882 
Q 1933 1517 1344 1517 
Q 826 1517 509 1875 
Q 192 2234 192 2816 
Q 192 3462 573 3894 
Q 954 4326 1523 4326 
Q 2131 4326 2528 3840 
Q 2938 3328 2938 2522 
Q 2938 1958 2742 1462 
Q 2547 966 2170 621 
Q 1773 262 1395 105 
Q 1018 -51 378 -141 
z
M 2317 2272 
L 2317 2522 
Q 2317 4147 1472 4147 
Q 1171 4147 1005 3930 
Q 909 3802 845 3546 
Q 781 3290 781 3034 
Q 781 2464 995 2128 
Q 1210 1792 1568 1792 
Q 1824 1792 2070 1917 
Q 2317 2042 2317 2272 
z
" transform="scale(0.015625)"/>
       <path id="STIXGeneral-Regular-3a9" d="M 4576 0 
L 2746 0 
L 2790 1030 
Q 3187 1126 3440 1574 
Q 3693 2022 3693 2554 
Q 3693 3251 3344 3673 
Q 2995 4096 2380 4096 
Q 1766 4096 1417 3635 
Q 1069 3174 1069 2554 
Q 1069 2054 1315 1600 
Q 1562 1146 1965 1030 
L 2022 0 
L 186 0 
L 186 1094 
L 346 1094 
Q 352 806 438 707 
Q 525 608 742 608 
L 1709 608 
L 1696 845 
Q 1018 1037 678 1446 
Q 339 1856 339 2541 
Q 339 3238 899 3782 
Q 1459 4326 2380 4326 
Q 3302 4326 3862 3804 
Q 4422 3283 4422 2541 
Q 4422 1235 3046 845 
L 3034 608 
L 4019 608 
Q 4397 608 4416 1082 
L 4576 1082 
L 4576 0 
z
" transform="scale(0.015625)"/>
      </defs>
      <use xlink:href="#STIXGeneral-Regular-39" transform="translate(0 0.40625)"/>
      <use xlink:href="#STIXGeneral-Regular-3a9" transform="translate(49.999985 0.40625)"/>
     </g>
    </g>
   </g>
   <g id="text_4">
    <g clip-path="url(#pfb29a6b0ee)">
     <!-- $V_1 + V_2$ -->
     <g transform="translate(184.1678 144.410586)scale(0.125 -0.125)">
      <defs>
       <path id="STIXGeneral-Regular-2b" d="M 4070 1408 
L 2400 1408 
L 2400 -262 
L 1978 -262 
L 1978 1408 
L 307 1408 
L 307 1830 
L 1978 1830 
L 1978 3501 
L 2400 3501 
L 2400 1830 
L 4070 1830 
L 4070 1408 
z
" transform="scale(0.015625)"/>
      </defs>
      <use xlink:href="#STIXGeneral-Italic-56" transform="translate(0 0.703125)"/>
      <use xlink:href="#STIXGeneral-Regular-31" transform="translate(61.099991 -12.525)scale(0.7)"/>
      <use xlink:href="#STIXGeneral-Regular-2b" transform="translate(114.949352 0.703125)"/>
      <use xlink:href="#STIXGeneral-Italic-56" transform="translate(197.889333 0.703125)"/>
      <use xlink:href="#STIXGeneral-Regular-32" transform="translate(258.989323 -12.525)scale(0.7)"/>
     </g>
    </g>
    <g clip-path="url(#pfb29a6b0ee)">
     <!-- 18V -->
     <g transform="translate(197.085769 158.407852)scale(0.125 -0.125)">
      <defs>
       <path id="DejaVuSans-38" d="M 2034 2216 
Q 1584 2216 1326 1975 
Q 1069 1734 1069 1313 
Q 1069 891 1326 650 
Q 1584 409 2034 409 
Q 2484 409 2743 651 
Q 3003 894 3003 1313 
Q 3003 1734 2745 1975 
Q 2488 2216 2034 2216 
z
M 1403 2484 
Q 997 2584 770 2862 
Q 544 3141 544 3541 
Q 544 4100 942 4425 
Q 1341 4750 2034 4750 
Q 2731 4750 3128 4425 
Q 3525 4100 3525 3541 
Q 3525 3141 3298 2862 
Q 3072 2584 2669 2484 
Q 3125 2378 3379 2068 
Q 3634 1759 3634 1313 
Q 3634 634 3220 271 
Q 2806 -91 2034 -91 
Q 1263 -91 848 271 
Q 434 634 434 1313 
Q 434 1759 690 2068 
Q 947 2378 1403 2484 
z
M 1172 3481 
Q 1172 3119 1398 2916 
Q 1625 2713 2034 2713 
Q 2441 2713 2670 2916 
Q 2900 3119 2900 3481 
Q 2900 3844 2670 4047 
Q 2441 4250 2034 4250 
Q 1625 4250 1398 4047 
Q 1172 3844 1172 3481 
z
" transform="scale(0.015625)"/>
      </defs>
      <use xlink:href="#DejaVuSans-31"/>
      <use xlink:href="#DejaVuSans-38" x="63.623047"/>
      <use xlink:href="#DejaVuSans-56" x="127.246094"/>
     </g>
    </g>
   </g>
   <g id="text_5">
    <g clip-path="url(#pfb29a6b0ee)">
     <!-- $R$ -->
     <g transform="translate(313.2428 144.410586)scale(0.125 -0.125)">
      <use xlink:href="#STIXGeneral-Italic-52" transform="translate(0 0.703125)"/>
     </g>
    </g>
    <g clip-path="url(#pfb29a6b0ee)">
     <!-- $9\Omega$ -->
     <g transform="translate(305.3678 158.407852)scale(0.125 -0.125)">
      <use xlink:href="#STIXGeneral-Regular-39" transform="translate(0 0.40625)"/>
      <use xlink:href="#STIXGeneral-Regular-3a9" transform="translate(49.999985 0.40625)"/>
     </g>
    </g>
   </g>
   <g id="text_6">
    <g clip-path="url(#pfb29a6b0ee)">
     <!-- $V_1$ -->
     <g transform="translate(25.3178 144.410586)scale(0.125 -0.125)">
      <use xlink:href="#STIXGeneral-Italic-56" transform="translate(0 0.703125)"/>
      <use xlink:href="#STIXGeneral-Regular-31" transform="translate(61.099991 -12.525)scale(0.7)"/>
     </g>
    </g>
    <g clip-path="url(#pfb29a6b0ee)">
     <!-- 6V -->
     <g transform="translate(21.438894 158.407852)scale(0.125 -0.125)">
      <use xlink:href="#DejaVuSans-36"/>
      <use xlink:href="#DejaVuSans-56" x="63.623047"/>
     </g>
    </g>
   </g>
   <g id="text_7">
    <g clip-path="url(#pfb29a6b0ee)">
     <!-- $V_2$ -->
     <g transform="translate(25.3178 52.610586)scale(0.125 -0.125)">
      <use xlink:href="#STIXGeneral-Italic-56" transform="translate(0 0.703125)"/>
      <use xlink:href="#STIXGeneral-Regular-32" transform="translate(61.099991 -12.525)scale(0.7)"/>
     </g>
    </g>
    <g clip-path="url(#pfb29a6b0ee)">
     <!-- 12V -->
     <g transform="translate(13.485769 66.607852)scale(0.125 -0.125)">
      <use xlink:href="#DejaVuSans-31"/>
      <use xlink:href="#DejaVuSans-32" x="63.623047"/>
      <use xlink:href="#DejaVuSans-56" x="127.246094"/>
     </g>
    </g>
   </g>
   <g id="text_8">
    <g clip-path="url(#pfb29a6b0ee)">
     <!-- $R$ -->
     <g transform="translate(129.6428 98.510586)scale(0.125 -0.125)">
      <use xlink:href="#STIXGeneral-Italic-52" transform="translate(0 0.703125)"/>
     </g>
    </g>
    <g clip-path="url(#pfb29a6b0ee)">
     <!-- $9\Omega$ -->
     <g transform="translate(121.7678 112.507852)scale(0.125 -0.125)">
      <use xlink:href="#STIXGeneral-Regular-39" transform="translate(0 0.40625)"/>
      <use xlink:href="#STIXGeneral-Regular-3a9" transform="translate(49.999985 0.40625)"/>
     </g>
    </g>
   </g>
   <g id="text_9">
    <g clip-path="url(#pfb29a6b0ee)">
     <!-- $V_1 + V_2$ -->
     <g transform="translate(184.1678 144.410586)scale(0.125 -0.125)">
      <use xlink:href="#STIXGeneral-Italic-56" transform="translate(0 0.703125)"/>
      <use xlink:href="#STIXGeneral-Regular-31" transform="translate(61.099991 -12.525)scale(0.7)"/>
      <use xlink:href="#STIXGeneral-Regular-2b" transform="translate(114.949352 0.703125)"/>
      <use xlink:href="#STIXGeneral-Italic-56" transform="translate(197.889333 0.703125)"/>
      <use xlink:href="#STIXGeneral-Regular-32" transform="translate(258.989323 -12.525)scale(0.7)"/>
     </g>
    </g>
    <g clip-path="url(#pfb29a6b0ee)">
     <!-- 18V -->
     <g transform="translate(197.085769 158.407852)scale(0.125 -0.125)">
      <use xlink:href="#DejaVuSans-31"/>
      <use xlink:href="#DejaVuSans-38" x="63.623047"/>
      <use xlink:href="#DejaVuSans-56" x="127.246094"/>
     </g>
    </g>
   </g>
   <g id="text_10">
    <g clip-path="url(#pfb29a6b0ee)">
     <!-- $R$ -->
     <g transform="translate(313.2428 144.410586)scale(0.125 -0.125)">
      <use xlink:href="#STIXGeneral-Italic-52" transform="translate(0 0.703125)"/>
     </g>
    </g>
    <g clip-path="url(#pfb29a6b0ee)">
     <!-- $9\Omega$ -->
     <g transform="translate(305.3678 158.407852)scale(0.125 -0.125)">
      <use xlink:href="#STIXGeneral-Regular-39" transform="translate(0 0.40625)"/>
      <use xlink:href="#STIXGeneral-Regular-3a9" transform="translate(49.999985 0.40625)"/>
     </g>
    </g>
   </g>
   <g id="line2d_37">
    <path d="M 148.1028 68.4 
L 148.1028 68.4 
" clip-path="url(#pfb29a6b0ee)" style="fill: none; stroke: #000000; stroke-width: 2; stroke-linecap: round"/>
   </g>
   <g id="patch_8">
    <path d="M 152.6928 68.4 
L 148.1028 77.58 
L 143.5128 68.4 
z
" clip-path="url(#pfb29a6b0ee)"/>
   </g>
   <g id="text_11">
    <g clip-path="url(#pfb29a6b0ee)">
     <!-- $I_R$ -->
     <g transform="translate(128.7978 76.439219)scale(0.125 -0.125)">
      <defs>
       <path id="STIXGeneral-Italic-49" d="M 2458 4179 
L 2458 4077 
Q 2189 4045 2102 3961 
Q 2016 3878 1933 3584 
L 1165 838 
Q 1069 499 1069 352 
Q 1069 224 1149 179 
Q 1229 134 1510 102 
L 1510 0 
L -51 0 
L -51 102 
Q 218 154 317 237 
Q 416 320 486 582 
L 1254 3405 
Q 1338 3699 1338 3802 
Q 1338 3930 1235 3997 
Q 1133 4064 877 4077 
L 877 4179 
L 2458 4179 
z
" transform="scale(0.015625)"/>
      </defs>
      <use xlink:href="#STIXGeneral-Italic-49" transform="translate(0 0.703125)"/>
      <use xlink:href="#STIXGeneral-Italic-52" transform="translate(33.299988 -12.525)scale(0.7)"/>
     </g>
    </g>
   </g>
   <g id="line2d_38">
    <path d="M 331.7028 114.3 
L 331.7028 114.3 
" clip-path="url(#pfb29a6b0ee)" style="fill: none; stroke: #000000; stroke-width: 2; stroke-linecap: round"/>
   </g>
   <g id="patch_9">
    <path d="M 336.2928 114.3 
L 331.7028 123.48 
L 327.1128 114.3 
z
" clip-path="url(#pfb29a6b0ee)"/>
   </g>
   <g id="text_12">
    <g clip-path="url(#pfb29a6b0ee)">
     <!-- $I_R$ -->
     <g transform="translate(312.3978 122.339219)scale(0.125 -0.125)">
      <use xlink:href="#STIXGeneral-Italic-49" transform="translate(0 0.703125)"/>
      <use xlink:href="#STIXGeneral-Italic-52" transform="translate(33.299988 -12.525)scale(0.7)"/>
     </g>
    </g>
   </g>
   <g id="line2d_39">
    <path d="M 148.1028 68.4 
L 148.1028 68.4 
" clip-path="url(#pfb29a6b0ee)" style="fill: none; stroke: #000000; stroke-width: 2; stroke-linecap: round"/>
   </g>
   <g id="patch_10">
    <path d="M 152.6928 68.4 
L 148.1028 77.58 
L 143.5128 68.4 
z
" clip-path="url(#pfb29a6b0ee)"/>
   </g>
   <g id="text_13">
    <g clip-path="url(#pfb29a6b0ee)">
     <!-- $I_R$ -->
     <g transform="translate(128.7978 76.439219)scale(0.125 -0.125)">
      <use xlink:href="#STIXGeneral-Italic-49" transform="translate(0 0.703125)"/>
      <use xlink:href="#STIXGeneral-Italic-52" transform="translate(33.299988 -12.525)scale(0.7)"/>
     </g>
    </g>
   </g>
   <g id="line2d_40">
    <path d="M 331.7028 114.3 
L 331.7028 114.3 
" clip-path="url(#pfb29a6b0ee)" style="fill: none; stroke: #000000; stroke-width: 2; stroke-linecap: round"/>
   </g>
   <g id="patch_11">
    <path d="M 336.2928 114.3 
L 331.7028 123.48 
L 327.1128 114.3 
z
" clip-path="url(#pfb29a6b0ee)"/>
   </g>
   <g id="text_14">
    <g clip-path="url(#pfb29a6b0ee)">
     <!-- $I_R$ -->
     <g transform="translate(312.3978 122.339219)scale(0.125 -0.125)">
      <use xlink:href="#STIXGeneral-Italic-49" transform="translate(0 0.703125)"/>
      <use xlink:href="#STIXGeneral-Italic-52" transform="translate(33.299988 -12.525)scale(0.7)"/>
     </g>
    </g>
   </g>
  </g>
 </g>
 <defs>
  <clipPath id="pfb29a6b0ee">
   <rect x="7.2" y="7.2" width="335.2128" height="189.72"/>
  </clipPath>
 </defs>
</svg>
