<?xml version="1.0" encoding="utf-8" standalone="no"?>
<!DOCTYPE svg PUBLIC "-//W3C//DTD SVG 1.1//EN"
  "http://www.w3.org/Graphics/SVG/1.1/DTD/svg11.dtd">
<svg xmlns:xlink="http://www.w3.org/1999/xlink" width="349.6128pt" height="204.12pt" viewBox="0 0 349.6128 204.12" xmlns="http://www.w3.org/2000/svg" version="1.1">
 <metadata>
  <rdf:RDF xmlns:dc="http://purl.org/dc/elements/1.1/" xmlns:cc="http://creativecommons.org/ns#" xmlns:rdf="http://www.w3.org/1999/02/22-rdf-syntax-ns#">
   <cc:Work>
    <dc:type rdf:resource="http://purl.org/dc/dcmitype/StillImage"/>
    <dc:date>2023-02-10T15:45:04.787368</dc:date>
    <dc:format>image/svg+xml</dc:format>
    <dc:creator>
     <cc:Agent>
      <dc:title>Matplotlib v3.5.2, https://matplotlib.org/</dc:title>
     </cc:Agent>
    </dc:creator>
   </cc:Work>
  </rdf:RDF>
 </metadata>
 <defs>
  <style type="text/css">*{stroke-linejoin: round; stroke-linecap: butt}</style>
 </defs>
 <g id="figure_1">
  <g id="patch_1">
   <path d="M 0 204.12 
L 349.6128 204.12 
L 349.6128 0 
L 0 0 
L 0 204.12 
z
" style="fill: none"/>
  </g>
  <g id="axes_1">
   <g id="patch_2">
    <path d="M 56.3028 163.26 
C 60.360407 163.26 64.252372 161.647895 67.121534 158.778734 
C 69.990695 155.909572 71.6028 152.017607 71.6028 147.96 
C 71.6028 143.902393 69.990695 140.010428 67.121534 137.141266 
C 64.252372 134.272105 60.360407 132.66 56.3028 132.66 
C 52.245193 132.66 48.353228 134.272105 45.484066 137.141266 
C 42.614905 140.010428 41.0028 143.902393 41.0028 147.96 
C 41.0028 152.017607 42.614905 155.909572 45.484066 158.778734 
C 48.353228 161.647895 52.245193 163.26 56.3028 163.26 
L 56.3028 163.26 
z
" clip-path="url(#p55643ec463)" style="fill: none; stroke: #000000; stroke-width: 2; stroke-linejoin: miter"/>
   </g>
   <g id="patch_3">
    <path d="M 56.3028 71.46 
C 60.360407 71.46 64.252372 69.847895 67.121534 66.978734 
C 69.990695 64.109572 71.6028 60.217607 71.6028 56.16 
C 71.6028 52.102393 69.990695 48.210428 67.121534 45.341266 
C 64.252372 42.472105 60.360407 40.86 56.3028 40.86 
C 52.245193 40.86 48.353228 42.472105 45.484066 45.341266 
C 42.614905 48.210428 41.0028 52.102393 41.0028 56.16 
C 41.0028 60.217607 42.614905 64.109572 45.484066 66.978734 
C 48.353228 69.847895 52.245193 71.46 56.3028 71.46 
L 56.3028 71.46 
z
" clip-path="url(#p55643ec463)" style="fill: none; stroke: #000000; stroke-width: 2; stroke-linejoin: miter"/>
   </g>
   <g id="patch_4">
    <path d="M 239.9028 163.26 
C 243.960407 163.26 247.852372 161.647895 250.721534 158.778734 
C 253.590695 155.909572 255.2028 152.017607 255.2028 147.96 
C 255.2028 143.902393 253.590695 140.010428 250.721534 137.141266 
C 247.852372 134.272105 243.960407 132.66 239.9028 132.66 
C 235.845193 132.66 231.953228 134.272105 229.084066 137.141266 
C 226.214905 140.010428 224.6028 143.902393 224.6028 147.96 
C 224.6028 152.017607 226.214905 155.909572 229.084066 158.778734 
C 231.953228 161.647895 235.845193 163.26 239.9028 163.26 
L 239.9028 163.26 
z
" clip-path="url(#p55643ec463)" style="fill: none; stroke: #000000; stroke-width: 2; stroke-linejoin: miter"/>
   </g>
   <g id="patch_5">
    <path d="M 56.3028 163.26 
C 60.360407 163.26 64.252372 161.647895 67.121534 158.778734 
C 69.990695 155.909572 71.6028 152.017607 71.6028 147.96 
C 71.6028 143.902393 69.990695 140.010428 67.121534 137.141266 
C 64.252372 134.272105 60.360407 132.66 56.3028 132.66 
C 52.245193 132.66 48.353228 134.272105 45.484066 137.141266 
C 42.614905 140.010428 41.0028 143.902393 41.0028 147.96 
C 41.0028 152.017607 42.614905 155.909572 45.484066 158.778734 
C 48.353228 161.647895 52.245193 163.26 56.3028 163.26 
L 56.3028 163.26 
z
" clip-path="url(#p55643ec463)" style="fill: none; stroke: #000000; stroke-width: 2; stroke-linejoin: miter"/>
   </g>
   <g id="patch_6">
    <path d="M 56.3028 71.46 
C 60.360407 71.46 64.252372 69.847895 67.121534 66.978734 
C 69.990695 64.109572 71.6028 60.217607 71.6028 56.16 
C 71.6028 52.102393 69.990695 48.210428 67.121534 45.341266 
C 64.252372 42.472105 60.360407 40.86 56.3028 40.86 
C 52.245193 40.86 48.353228 42.472105 45.484066 45.341266 
C 42.614905 48.210428 41.0028 52.102393 41.0028 56.16 
C 41.0028 60.217607 42.614905 64.109572 45.484066 66.978734 
C 48.353228 69.847895 52.245193 71.46 56.3028 71.46 
L 56.3028 71.46 
z
" clip-path="url(#p55643ec463)" style="fill: none; stroke: #000000; stroke-width: 2; stroke-linejoin: miter"/>
   </g>
   <g id="patch_7">
    <path d="M 239.9028 163.26 
C 243.960407 163.26 247.852372 161.647895 250.721534 158.778734 
C 253.590695 155.909572 255.2028 152.017607 255.2028 147.96 
C 255.2028 143.902393 253.590695 140.010428 250.721534 137.141266 
C 247.852372 134.272105 243.960407 132.66 239.9028 132.66 
C 235.845193 132.66 231.953228 134.272105 229.084066 137.141266 
C 226.214905 140.010428 224.6028 143.902393 224.6028 147.96 
C 224.6028 152.017607 226.214905 155.909572 229.084066 158.778734 
C 231.953228 161.647895 235.845193 163.26 239.9028 163.26 
L 239.9028 163.26 
z
" clip-path="url(#p55643ec463)" style="fill: none; stroke: #000000; stroke-width: 2; stroke-linejoin: miter"/>
   </g>
   <g id="line2d_1">
    <path d="M 56.3028 193.86 
L 56.3028 163.26 
L 56.3028 163.26 
M 56.3028 132.66 
L 56.3028 132.66 
L 56.3028 102.06 
" clip-path="url(#p55643ec463)" style="fill: none; stroke: #000000; stroke-width: 2; stroke-linecap: round"/>
   </g>
   <g id="line2d_2">
    <path d="M 59.3628 155.61 
L 53.2428 155.61 
" clip-path="url(#p55643ec463)" style="fill: none; stroke: #000000; stroke-width: 2; stroke-linecap: round"/>
   </g>
   <g id="line2d_3">
    <path d="M 56.3028 143.37 
L 56.3028 137.25 
" clip-path="url(#p55643ec463)" style="fill: none; stroke: #000000; stroke-width: 2; stroke-linecap: round"/>
   </g>
   <g id="line2d_4">
    <path d="M 59.3628 140.31 
L 53.2428 140.31 
" clip-path="url(#p55643ec463)" style="fill: none; stroke: #000000; stroke-width: 2; stroke-linecap: round"/>
   </g>
   <g id="line2d_5">
    <path d="M 56.3028 102.06 
L 56.3028 71.46 
L 56.3028 71.46 
M 56.3028 40.86 
L 56.3028 40.86 
L 56.3028 10.26 
" clip-path="url(#p55643ec463)" style="fill: none; stroke: #000000; stroke-width: 2; stroke-linecap: round"/>
   </g>
   <g id="line2d_6">
    <path d="M 53.2428 48.51 
L 59.3628 48.51 
" clip-path="url(#p55643ec463)" style="fill: none; stroke: #000000; stroke-width: 2; stroke-linecap: round"/>
   </g>
   <g id="line2d_7">
    <path d="M 56.3028 66.87 
L 56.3028 60.75 
" clip-path="url(#p55643ec463)" style="fill: none; stroke: #000000; stroke-width: 2; stroke-linecap: round"/>
   </g>
   <g id="line2d_8">
    <path d="M 53.2428 63.81 
L 59.3628 63.81 
" clip-path="url(#p55643ec463)" style="fill: none; stroke: #000000; stroke-width: 2; stroke-linecap: round"/>
   </g>
   <g id="line2d_9">
    <path d="M 56.3028 10.26 
L 102.2028 10.26 
L 148.1028 10.26 
" clip-path="url(#p55643ec463)" style="fill: none; stroke: #000000; stroke-width: 2; stroke-linecap: round"/>
   </g>
   <g id="line2d_10">
    <path d="M 148.1028 10.26 
L 148.1028 86.76 
L 155.7528 89.31 
L 140.4528 94.41 
L 155.7528 99.51 
L 140.4528 104.61 
L 155.7528 109.71 
L 140.4528 114.81 
L 148.1028 117.36 
L 148.1028 193.86 
" clip-path="url(#p55643ec463)" style="fill: none; stroke: #000000; stroke-width: 2; stroke-linecap: round"/>
   </g>
   <g id="line2d_11">
    <path d="M 148.1028 193.86 
L 102.2028 193.86 
L 56.3028 193.86 
" clip-path="url(#p55643ec463)" style="fill: none; stroke: #000000; stroke-width: 2; stroke-linecap: round"/>
   </g>
   <g id="line2d_12">
    <path d="M 239.9028 193.86 
L 239.9028 163.26 
L 239.9028 163.26 
M 239.9028 132.66 
L 239.9028 132.66 
L 239.9028 102.06 
" clip-path="url(#p55643ec463)" style="fill: none; stroke: #000000; stroke-width: 2; stroke-linecap: round"/>
   </g>
   <g id="line2d_13">
    <path d="M 236.8428 140.31 
L 242.9628 140.31 
" clip-path="url(#p55643ec463)" style="fill: none; stroke: #000000; stroke-width: 2; stroke-linecap: round"/>
   </g>
   <g id="line2d_14">
    <path d="M 239.9028 158.67 
L 239.9028 152.55 
" clip-path="url(#p55643ec463)" style="fill: none; stroke: #000000; stroke-width: 2; stroke-linecap: round"/>
   </g>
   <g id="line2d_15">
    <path d="M 236.8428 155.61 
L 242.9628 155.61 
" clip-path="url(#p55643ec463)" style="fill: none; stroke: #000000; stroke-width: 2; stroke-linecap: round"/>
   </g>
   <g id="line2d_16">
    <path d="M 239.9028 102.06 
L 285.8028 102.06 
L 331.7028 102.06 
" clip-path="url(#p55643ec463)" style="fill: none; stroke: #000000; stroke-width: 2; stroke-linecap: round"/>
   </g>
   <g id="line2d_17">
    <path d="M 331.7028 102.06 
L 331.7028 132.66 
L 339.3528 135.21 
L 324.0528 140.31 
L 339.3528 145.41 
L 324.0528 150.51 
L 339.3528 155.61 
L 324.0528 160.71 
L 331.7028 163.26 
L 331.7028 193.86 
" clip-path="url(#p55643ec463)" style="fill: none; stroke: #000000; stroke-width: 2; stroke-linecap: round"/>
   </g>
   <g id="line2d_18">
    <path d="M 331.7028 193.86 
L 285.8028 193.86 
L 239.9028 193.86 
" clip-path="url(#p55643ec463)" style="fill: none; stroke: #000000; stroke-width: 2; stroke-linecap: round"/>
   </g>
   <g id="line2d_19">
    <path d="M 56.3028 193.86 
L 56.3028 163.26 
L 56.3028 163.26 
M 56.3028 132.66 
L 56.3028 132.66 
L 56.3028 102.06 
" clip-path="url(#p55643ec463)" style="fill: none; stroke: #000000; stroke-width: 2; stroke-linecap: round"/>
   </g>
   <g id="line2d_20">
    <path d="M 59.3628 155.61 
L 53.2428 155.61 
" clip-path="url(#p55643ec463)" style="fill: none; stroke: #000000; stroke-width: 2; stroke-linecap: round"/>
   </g>
   <g id="line2d_21">
    <path d="M 56.3028 143.37 
L 56.3028 137.25 
" clip-path="url(#p55643ec463)" style="fill: none; stroke: #000000; stroke-width: 2; stroke-linecap: round"/>
   </g>
   <g id="line2d_22">
    <path d="M 59.3628 140.31 
L 53.2428 140.31 
" clip-path="url(#p55643ec463)" style="fill: none; stroke: #000000; stroke-width: 2; stroke-linecap: round"/>
   </g>
   <g id="line2d_23">
    <path d="M 56.3028 102.06 
L 56.3028 71.46 
L 56.3028 71.46 
M 56.3028 40.86 
L 56.3028 40.86 
L 56.3028 10.26 
" clip-path="url(#p55643ec463)" style="fill: none; stroke: #000000; stroke-width: 2; stroke-linecap: round"/>
   </g>
   <g id="line2d_24">
    <path d="M 53.2428 48.51 
L 59.3628 48.51 
" clip-path="url(#p55643ec463)" style="fill: none; stroke: #000000; stroke-width: 2; stroke-linecap: round"/>
   </g>
   <g id="line2d_25">
    <path d="M 56.3028 66.87 
L 56.3028 60.75 
" clip-path="url(#p55643ec463)" style="fill: none; stroke: #000000; stroke-width: 2; stroke-linecap: round"/>
   </g>
   <g id="line2d_26">
    <path d="M 53.2428 63.81 
L 59.3628 63.81 
" clip-path="url(#p55643ec463)" style="fill: none; stroke: #000000; stroke-width: 2; stroke-linecap: round"/>
   </g>
   <g id="line2d_27">
    <path d="M 56.3028 10.26 
L 102.2028 10.26 
L 148.1028 10.26 
" clip-path="url(#p55643ec463)" style="fill: none; stroke: #000000; stroke-width: 2; stroke-linecap: round"/>
   </g>
   <g id="line2d_28">
    <path d="M 148.1028 10.26 
L 148.1028 86.76 
L 155.7528 89.31 
L 140.4528 94.41 
L 155.7528 99.51 
L 140.4528 104.61 
L 155.7528 109.71 
L 140.4528 114.81 
L 148.1028 117.36 
L 148.1028 193.86 
" clip-path="url(#p55643ec463)" style="fill: none; stroke: #000000; stroke-width: 2; stroke-linecap: round"/>
   </g>
   <g id="line2d_29">
    <path d="M 148.1028 193.86 
L 102.2028 193.86 
L 56.3028 193.86 
" clip-path="url(#p55643ec463)" style="fill: none; stroke: #000000; stroke-width: 2; stroke-linecap: round"/>
   </g>
   <g id="line2d_30">
    <path d="M 239.9028 193.86 
L 239.9028 163.26 
L 239.9028 163.26 
M 239.9028 132.66 
L 239.9028 132.66 
L 239.9028 102.06 
" clip-path="url(#p55643ec463)" style="fill: none; stroke: #000000; stroke-width: 2; stroke-linecap: round"/>
   </g>
   <g id="line2d_31">
    <path d="M 236.8428 140.31 
L 242.9628 140.31 
" clip-path="url(#p55643ec463)" style="fill: none; stroke: #000000; stroke-width: 2; stroke-linecap: round"/>
   </g>
   <g id="line2d_32">
    <path d="M 239.9028 158.67 
L 239.9028 152.55 
" clip-path="url(#p55643ec463)" style="fill: none; stroke: #000000; stroke-width: 2; stroke-linecap: round"/>
   </g>
   <g id="line2d_33">
    <path d="M 236.8428 155.61 
L 242.9628 155.61 
" clip-path="url(#p55643ec463)" style="fill: none; stroke: #000000; stroke-width: 2; stroke-linecap: round"/>
   </g>
   <g id="line2d_34">
    <path d="M 239.9028 102.06 
L 285.8028 102.06 
L 331.7028 102.06 
" clip-path="url(#p55643ec463)" style="fill: none; stroke: #000000; stroke-width: 2; stroke-linecap: round"/>
   </g>
   <g id="line2d_35">
    <path d="M 331.7028 102.06 
L 331.7028 132.66 
L 339.3528 135.21 
L 324.0528 140.31 
L 339.3528 145.41 
L 324.0528 150.51 
L 339.3528 155.61 
L 324.0528 160.71 
L 331.7028 163.26 
L 331.7028 193.86 
" clip-path="url(#p55643ec463)" style="fill: none; stroke: #000000; stroke-width: 2; stroke-linecap: round"/>
   </g>
   <g id="line2d_36">
    <path d="M 331.7028 193.86 
L 285.8028 193.86 
L 239.9028 193.86 
" clip-path="url(#p55643ec463)" style="fill: none; stroke: #000000; stroke-width: 2; stroke-linecap: round"/>
   </g>
   <g id="text_1">
    <g clip-path="url(#p55643ec463)">
     <!-- $V_1$ -->
     <g transform="translate(25.3178 144.410586)scale(0.125 -0.125)">
      <defs>
       <path id="STIXGeneral-Italic-56" d="M 4403 4179 
L 4403 4077 
Q 4198 4070 4045 3821 
L 1658 -115 
L 1536 -115 
L 1011 3104 
Q 902 3776 828 3910 
Q 755 4045 486 4077 
L 486 4179 
L 2022 4179 
L 2022 4077 
Q 1722 4045 1629 3981 
Q 1536 3917 1536 3750 
Q 1536 3686 1542 3654 
L 1958 819 
L 3302 3123 
Q 3616 3661 3616 3859 
Q 3616 4032 3219 4077 
L 3219 4179 
L 4403 4179 
z
" transform="scale(0.015625)"/>
       <path id="STIXGeneral-Regular-31" d="M 2522 0 
L 755 0 
L 755 96 
Q 1107 115 1235 227 
Q 1363 339 1363 608 
L 1363 3482 
Q 1363 3795 1171 3795 
Q 1082 3795 883 3718 
L 710 3654 
L 710 3744 
L 1856 4326 
L 1914 4307 
L 1914 486 
Q 1914 275 2042 185 
Q 2170 96 2522 96 
L 2522 0 
z
" transform="scale(0.015625)"/>
      </defs>
      <use xlink:href="#STIXGeneral-Italic-56" transform="translate(0 0.703125)"/>
      <use xlink:href="#STIXGeneral-Regular-31" transform="translate(61.099991 -12.525)scale(0.7)"/>
     </g>
    </g>
    <g clip-path="url(#p55643ec463)">
     <!-- 7V -->
     <g transform="translate(21.438894 158.407852)scale(0.125 -0.125)">
      <defs>
       <path id="DejaVuSans-37" d="M 525 4666 
L 3525 4666 
L 3525 4397 
L 1831 0 
L 1172 0 
L 2766 4134 
L 525 4134 
L 525 4666 
z
" transform="scale(0.015625)"/>
       <path id="DejaVuSans-56" d="M 1831 0 
L 50 4666 
L 709 4666 
L 2188 738 
L 3669 4666 
L 4325 4666 
L 2547 0 
L 1831 0 
z
" transform="scale(0.015625)"/>
      </defs>
      <use xlink:href="#DejaVuSans-37"/>
      <use xlink:href="#DejaVuSans-56" x="63.623047"/>
     </g>
    </g>
   </g>
   <g id="text_2">
    <g clip-path="url(#p55643ec463)">
     <!-- $V_2$ -->
     <g transform="translate(25.3178 52.610586)scale(0.125 -0.125)">
      <defs>
       <path id="STIXGeneral-Regular-32" d="M 3034 877 
L 2688 0 
L 186 0 
L 186 77 
L 1325 1286 
Q 1773 1754 1965 2144 
Q 2157 2534 2157 2950 
Q 2157 3379 1920 3616 
Q 1683 3853 1267 3853 
Q 922 3853 720 3673 
Q 518 3494 326 3021 
L 192 3053 
Q 301 3648 630 3987 
Q 960 4326 1523 4326 
Q 2054 4326 2380 4006 
Q 2707 3686 2707 3200 
Q 2707 2477 1888 1613 
L 832 486 
L 2330 486 
Q 2541 486 2665 569 
Q 2790 653 2944 915 
L 3034 877 
z
" transform="scale(0.015625)"/>
      </defs>
      <use xlink:href="#STIXGeneral-Italic-56" transform="translate(0 0.703125)"/>
      <use xlink:href="#STIXGeneral-Regular-32" transform="translate(61.099991 -12.525)scale(0.7)"/>
     </g>
    </g>
    <g clip-path="url(#p55643ec463)">
     <!-- 14V -->
     <g transform="translate(13.485769 66.607852)scale(0.125 -0.125)">
      <defs>
       <path id="DejaVuSans-31" d="M 794 531 
L 1825 531 
L 1825 4091 
L 703 3866 
L 703 4441 
L 1819 4666 
L 2450 4666 
L 2450 531 
L 3481 531 
L 3481 0 
L 794 0 
L 794 531 
z
" transform="scale(0.015625)"/>
       <path id="DejaVuSans-34" d="M 2419 4116 
L 825 1625 
L 2419 1625 
L 2419 4116 
z
M 2253 4666 
L 3047 4666 
L 3047 1625 
L 3713 1625 
L 3713 1100 
L 3047 1100 
L 3047 0 
L 2419 0 
L 2419 1100 
L 313 1100 
L 313 1709 
L 2253 4666 
z
" transform="scale(0.015625)"/>
      </defs>
      <use xlink:href="#DejaVuSans-31"/>
      <use xlink:href="#DejaVuSans-34" x="63.623047"/>
      <use xlink:href="#DejaVuSans-56" x="127.246094"/>
     </g>
    </g>
   </g>
   <g id="text_3">
    <g clip-path="url(#p55643ec463)">
     <!-- $R$ -->
     <g transform="translate(129.6428 98.510586)scale(0.125 -0.125)">
      <defs>
       <path id="STIXGeneral-Italic-52" d="M 845 4179 
L 2458 4179 
Q 3078 4179 3420 3936 
Q 3763 3693 3763 3277 
Q 3763 2778 3341 2458 
Q 3091 2266 2502 2131 
L 3072 627 
Q 3181 333 3299 217 
Q 3418 102 3629 102 
L 3629 0 
L 2688 0 
L 1901 2074 
L 1478 2106 
L 1126 806 
Q 1043 512 1043 403 
Q 1043 256 1126 192 
Q 1210 128 1472 102 
L 1472 0 
L -83 0 
L -83 102 
Q 173 134 278 243 
Q 384 352 461 646 
L 1222 3405 
Q 1299 3699 1299 3808 
Q 1299 3923 1210 3987 
Q 1133 4038 845 4077 
L 845 4179 
z
M 1958 3795 
L 1555 2342 
Q 1754 2310 1882 2310 
Q 2451 2310 2771 2566 
Q 3091 2822 3091 3270 
Q 3091 3603 2892 3795 
Q 2694 3987 2323 3987 
Q 2010 3987 1958 3795 
z
" transform="scale(0.015625)"/>
      </defs>
      <use xlink:href="#STIXGeneral-Italic-52" transform="translate(0 0.703125)"/>
     </g>
    </g>
    <g clip-path="url(#p55643ec463)">
     <!-- $21\Omega$ -->
     <g transform="translate(115.5178 112.507852)scale(0.125 -0.125)">
      <defs>
       <path id="STIXGeneral-Regular-3a9" d="M 4576 0 
L 2746 0 
L 2790 1030 
Q 3187 1126 3440 1574 
Q 3693 2022 3693 2554 
Q 3693 3251 3344 3673 
Q 2995 4096 2380 4096 
Q 1766 4096 1417 3635 
Q 1069 3174 1069 2554 
Q 1069 2054 1315 1600 
Q 1562 1146 1965 1030 
L 2022 0 
L 186 0 
L 186 1094 
L 346 1094 
Q 352 806 438 707 
Q 525 608 742 608 
L 1709 608 
L 1696 845 
Q 1018 1037 678 1446 
Q 339 1856 339 2541 
Q 339 3238 899 3782 
Q 1459 4326 2380 4326 
Q 3302 4326 3862 3804 
Q 4422 3283 4422 2541 
Q 4422 1235 3046 845 
L 3034 608 
L 4019 608 
Q 4397 608 4416 1082 
L 4576 1082 
L 4576 0 
z
" transform="scale(0.015625)"/>
      </defs>
      <use xlink:href="#STIXGeneral-Regular-32" transform="translate(0 0.40625)"/>
      <use xlink:href="#STIXGeneral-Regular-31" transform="translate(49.999985 0.40625)"/>
      <use xlink:href="#STIXGeneral-Regular-3a9" transform="translate(99.999969 0.40625)"/>
     </g>
    </g>
   </g>
   <g id="text_4">
    <g clip-path="url(#p55643ec463)">
     <!-- $V_2 - V_1$ -->
     <g transform="translate(184.1678 144.410586)scale(0.125 -0.125)">
      <defs>
       <path id="STIXGeneral-Regular-2212" d="M 3974 1408 
L 410 1408 
L 410 1830 
L 3974 1830 
L 3974 1408 
z
" transform="scale(0.015625)"/>
      </defs>
      <use xlink:href="#STIXGeneral-Italic-56" transform="translate(0 0.703125)"/>
      <use xlink:href="#STIXGeneral-Regular-32" transform="translate(61.099991 -12.525)scale(0.7)"/>
      <use xlink:href="#STIXGeneral-Regular-2212" transform="translate(114.949352 0.703125)"/>
      <use xlink:href="#STIXGeneral-Italic-56" transform="translate(197.889333 0.703125)"/>
      <use xlink:href="#STIXGeneral-Regular-31" transform="translate(258.989323 -12.525)scale(0.7)"/>
     </g>
    </g>
    <g clip-path="url(#p55643ec463)">
     <!-- 7V -->
     <g transform="translate(205.038894 158.407852)scale(0.125 -0.125)">
      <use xlink:href="#DejaVuSans-37"/>
      <use xlink:href="#DejaVuSans-56" x="63.623047"/>
     </g>
    </g>
   </g>
   <g id="text_5">
    <g clip-path="url(#p55643ec463)">
     <!-- $R$ -->
     <g transform="translate(313.2428 144.410586)scale(0.125 -0.125)">
      <use xlink:href="#STIXGeneral-Italic-52" transform="translate(0 0.703125)"/>
     </g>
    </g>
    <g clip-path="url(#p55643ec463)">
     <!-- $21\Omega$ -->
     <g transform="translate(299.1178 158.407852)scale(0.125 -0.125)">
      <use xlink:href="#STIXGeneral-Regular-32" transform="translate(0 0.40625)"/>
      <use xlink:href="#STIXGeneral-Regular-31" transform="translate(49.999985 0.40625)"/>
      <use xlink:href="#STIXGeneral-Regular-3a9" transform="translate(99.999969 0.40625)"/>
     </g>
    </g>
   </g>
   <g id="text_6">
    <g clip-path="url(#p55643ec463)">
     <!-- $V_1$ -->
     <g transform="translate(25.3178 144.410586)scale(0.125 -0.125)">
      <use xlink:href="#STIXGeneral-Italic-56" transform="translate(0 0.703125)"/>
      <use xlink:href="#STIXGeneral-Regular-31" transform="translate(61.099991 -12.525)scale(0.7)"/>
     </g>
    </g>
    <g clip-path="url(#p55643ec463)">
     <!-- 7V -->
     <g transform="translate(21.438894 158.407852)scale(0.125 -0.125)">
      <use xlink:href="#DejaVuSans-37"/>
      <use xlink:href="#DejaVuSans-56" x="63.623047"/>
     </g>
    </g>
   </g>
   <g id="text_7">
    <g clip-path="url(#p55643ec463)">
     <!-- $V_2$ -->
     <g transform="translate(25.3178 52.610586)scale(0.125 -0.125)">
      <use xlink:href="#STIXGeneral-Italic-56" transform="translate(0 0.703125)"/>
      <use xlink:href="#STIXGeneral-Regular-32" transform="translate(61.099991 -12.525)scale(0.7)"/>
     </g>
    </g>
    <g clip-path="url(#p55643ec463)">
     <!-- 14V -->
     <g transform="translate(13.485769 66.607852)scale(0.125 -0.125)">
      <use xlink:href="#DejaVuSans-31"/>
      <use xlink:href="#DejaVuSans-34" x="63.623047"/>
      <use xlink:href="#DejaVuSans-56" x="127.246094"/>
     </g>
    </g>
   </g>
   <g id="text_8">
    <g clip-path="url(#p55643ec463)">
     <!-- $R$ -->
     <g transform="translate(129.6428 98.510586)scale(0.125 -0.125)">
      <use xlink:href="#STIXGeneral-Italic-52" transform="translate(0 0.703125)"/>
     </g>
    </g>
    <g clip-path="url(#p55643ec463)">
     <!-- $21\Omega$ -->
     <g transform="translate(115.5178 112.507852)scale(0.125 -0.125)">
      <use xlink:href="#STIXGeneral-Regular-32" transform="translate(0 0.40625)"/>
      <use xlink:href="#STIXGeneral-Regular-31" transform="translate(49.999985 0.40625)"/>
      <use xlink:href="#STIXGeneral-Regular-3a9" transform="translate(99.999969 0.40625)"/>
     </g>
    </g>
   </g>
   <g id="text_9">
    <g clip-path="url(#p55643ec463)">
     <!-- $V_2 - V_1$ -->
     <g transform="translate(184.1678 144.410586)scale(0.125 -0.125)">
      <use xlink:href="#STIXGeneral-Italic-56" transform="translate(0 0.703125)"/>
      <use xlink:href="#STIXGeneral-Regular-32" transform="translate(61.099991 -12.525)scale(0.7)"/>
      <use xlink:href="#STIXGeneral-Regular-2212" transform="translate(114.949352 0.703125)"/>
      <use xlink:href="#STIXGeneral-Italic-56" transform="translate(197.889333 0.703125)"/>
      <use xlink:href="#STIXGeneral-Regular-31" transform="translate(258.989323 -12.525)scale(0.7)"/>
     </g>
    </g>
    <g clip-path="url(#p55643ec463)">
     <!-- 7V -->
     <g transform="translate(205.038894 158.407852)scale(0.125 -0.125)">
      <use xlink:href="#DejaVuSans-37"/>
      <use xlink:href="#DejaVuSans-56" x="63.623047"/>
     </g>
    </g>
   </g>
   <g id="text_10">
    <g clip-path="url(#p55643ec463)">
     <!-- $R$ -->
     <g transform="translate(313.2428 144.410586)scale(0.125 -0.125)">
      <use xlink:href="#STIXGeneral-Italic-52" transform="translate(0 0.703125)"/>
     </g>
    </g>
    <g clip-path="url(#p55643ec463)">
     <!-- $21\Omega$ -->
     <g transform="translate(299.1178 158.407852)scale(0.125 -0.125)">
      <use xlink:href="#STIXGeneral-Regular-32" transform="translate(0 0.40625)"/>
      <use xlink:href="#STIXGeneral-Regular-31" transform="translate(49.999985 0.40625)"/>
      <use xlink:href="#STIXGeneral-Regular-3a9" transform="translate(99.999969 0.40625)"/>
     </g>
    </g>
   </g>
   <g id="line2d_37">
    <path d="M 148.1028 68.4 
L 148.1028 68.4 
" clip-path="url(#p55643ec463)" style="fill: none; stroke: #000000; stroke-width: 2; stroke-linecap: round"/>
   </g>
   <g id="patch_8">
    <path d="M 152.6928 68.4 
L 148.1028 77.58 
L 143.5128 68.4 
z
" clip-path="url(#p55643ec463)"/>
   </g>
   <g id="text_11">
    <g clip-path="url(#p55643ec463)">
     <!-- $I_R$ -->
     <g transform="translate(128.7978 76.439219)scale(0.125 -0.125)">
      <defs>
       <path id="STIXGeneral-Italic-49" d="M 2458 4179 
L 2458 4077 
Q 2189 4045 2102 3961 
Q 2016 3878 1933 3584 
L 1165 838 
Q 1069 499 1069 352 
Q 1069 224 1149 179 
Q 1229 134 1510 102 
L 1510 0 
L -51 0 
L -51 102 
Q 218 154 317 237 
Q 416 320 486 582 
L 1254 3405 
Q 1338 3699 1338 3802 
Q 1338 3930 1235 3997 
Q 1133 4064 877 4077 
L 877 4179 
L 2458 4179 
z
" transform="scale(0.015625)"/>
      </defs>
      <use xlink:href="#STIXGeneral-Italic-49" transform="translate(0 0.703125)"/>
      <use xlink:href="#STIXGeneral-Italic-52" transform="translate(33.299988 -12.525)scale(0.7)"/>
     </g>
    </g>
   </g>
   <g id="line2d_38">
    <path d="M 331.7028 114.3 
L 331.7028 114.3 
" clip-path="url(#p55643ec463)" style="fill: none; stroke: #000000; stroke-width: 2; stroke-linecap: round"/>
   </g>
   <g id="patch_9">
    <path d="M 336.2928 114.3 
L 331.7028 123.48 
L 327.1128 114.3 
z
" clip-path="url(#p55643ec463)"/>
   </g>
   <g id="text_12">
    <g clip-path="url(#p55643ec463)">
     <!-- $I_R$ -->
     <g transform="translate(312.3978 122.339219)scale(0.125 -0.125)">
      <use xlink:href="#STIXGeneral-Italic-49" transform="translate(0 0.703125)"/>
      <use xlink:href="#STIXGeneral-Italic-52" transform="translate(33.299988 -12.525)scale(0.7)"/>
     </g>
    </g>
   </g>
   <g id="line2d_39">
    <path d="M 148.1028 68.4 
L 148.1028 68.4 
" clip-path="url(#p55643ec463)" style="fill: none; stroke: #000000; stroke-width: 2; stroke-linecap: round"/>
   </g>
   <g id="patch_10">
    <path d="M 152.6928 68.4 
L 148.1028 77.58 
L 143.5128 68.4 
z
" clip-path="url(#p55643ec463)"/>
   </g>
   <g id="text_13">
    <g clip-path="url(#p55643ec463)">
     <!-- $I_R$ -->
     <g transform="translate(128.7978 76.439219)scale(0.125 -0.125)">
      <use xlink:href="#STIXGeneral-Italic-49" transform="translate(0 0.703125)"/>
      <use xlink:href="#STIXGeneral-Italic-52" transform="translate(33.299988 -12.525)scale(0.7)"/>
     </g>
    </g>
   </g>
   <g id="line2d_40">
    <path d="M 331.7028 114.3 
L 331.7028 114.3 
" clip-path="url(#p55643ec463)" style="fill: none; stroke: #000000; stroke-width: 2; stroke-linecap: round"/>
   </g>
   <g id="patch_11">
    <path d="M 336.2928 114.3 
L 331.7028 123.48 
L 327.1128 114.3 
z
" clip-path="url(#p55643ec463)"/>
   </g>
   <g id="text_14">
    <g clip-path="url(#p55643ec463)">
     <!-- $I_R$ -->
     <g transform="translate(312.3978 122.339219)scale(0.125 -0.125)">
      <use xlink:href="#STIXGeneral-Italic-49" transform="translate(0 0.703125)"/>
      <use xlink:href="#STIXGeneral-Italic-52" transform="translate(33.299988 -12.525)scale(0.7)"/>
     </g>
    </g>
   </g>
  </g>
 </g>
 <defs>
  <clipPath id="p55643ec463">
   <rect x="7.2" y="7.2" width="335.2128" height="189.72"/>
  </clipPath>
 </defs>
</svg>
