<?xml version="1.0" encoding="utf-8" standalone="no"?>
<!DOCTYPE svg PUBLIC "-//W3C//DTD SVG 1.1//EN"
  "http://www.w3.org/Graphics/SVG/1.1/DTD/svg11.dtd">
<svg xmlns:xlink="http://www.w3.org/1999/xlink" width="204.12pt" height="60.64pt" viewBox="0 0 204.12 60.64" xmlns="http://www.w3.org/2000/svg" version="1.1">
 <metadata>
  <rdf:RDF xmlns:dc="http://purl.org/dc/elements/1.1/" xmlns:cc="http://creativecommons.org/ns#" xmlns:rdf="http://www.w3.org/1999/02/22-rdf-syntax-ns#">
   <cc:Work>
    <dc:type rdf:resource="http://purl.org/dc/dcmitype/StillImage"/>
    <dc:date>2023-02-10T13:23:03.558681</dc:date>
    <dc:format>image/svg+xml</dc:format>
    <dc:creator>
     <cc:Agent>
      <dc:title>Matplotlib v3.5.2, https://matplotlib.org/</dc:title>
     </cc:Agent>
    </dc:creator>
   </cc:Work>
  </rdf:RDF>
 </metadata>
 <defs>
  <style type="text/css">*{stroke-linejoin: round; stroke-linecap: butt}</style>
 </defs>
 <g id="figure_1">
  <g id="patch_1">
   <path d="M 0 60.64 
L 1 60.671436 
L 2 60.708377 
L 3 60.806123 
L 4 60.838645 
L 5 60.91227 
L 6 60.950835 
L 7 60.986248 
L 8 61.043888 
L 9 61.114274 
L 10 61.166239 
L 11 61.225328 
L 12 61.313649 
L 13 61.359794 
L 14 61.402205 
L 15 61.432697 
L 16 61.458742 
L 17 61.479942 
L 18 61.534243 
L 19 61.562181 
L 20 61.591905 
L 21 61.6173 
L 22 61.6285 
L 23 61.638624 
L 24 61.63842 
L 25 61.62891 
L 26 61.617256 
L 27 61.586227 
L 28 61.575059 
L 29 61.544942 
L 30 61.485165 
L 31 61.447973 
L 32 61.408877 
L 33 61.366437 
L 34 61.333672 
L 35 61.266246 
L 36 61.22712 
L 37 61.184445 
L 38 61.113865 
L 39 61.077474 
L 40 61.019071 
L 41 60.908118 
L 42 60.83746 
L 43 60.72452 
L 44 60.678747 
L 45 60.617464 
L 46 60.568965 
L 47 60.488142 
L 48 60.369623 
L 49 60.299412 
L 50 60.21615 
L 51 60.183008 
L 52 60.131771 
L 53 60.063372 
L 54 59.997157 
L 55 59.92024 
L 56 59.892924 
L 57 59.866447 
L 58 59.843796 
L 59 59.824265 
L 60 59.797871 
L 61 59.7481 
L 62 59.713027 
L 63 59.677161 
L 64 59.661794 
L 65 59.646025 
L 66 59.642612 
L 67 59.640195 
L 68 59.640681 
L 69 59.64261 
L 70 59.655867 
L 71 59.664258 
L 72 59.685794 
L 73 59.708827 
L 74 59.72606 
L 75 59.744523 
L 76 59.764975 
L 77 59.781575 
L 78 59.844354 
L 79 59.919619 
L 80 59.952258 
L 81 60.019822 
L 82 60.073869 
L 83 60.107573 
L 84 60.197699 
L 85 60.226234 
L 86 60.25772 
L 87 60.288731 
L 88 60.343539 
L 89 60.408126 
L 90 60.446322 
L 91 60.542256 
L 92 60.591514 
L 93 60.635583 
L 94 60.675707 
L 95 60.784074 
L 96 60.825702 
L 97 60.887844 
L 98 60.957806 
L 99 61.06231 
L 100 61.099298 
L 101 61.145175 
L 102 61.21367 
L 103 61.262416 
L 104 61.340013 
L 105 61.370554 
L 106 61.440068 
L 107 61.464041 
L 108 61.492663 
L 109 61.534456 
L 110 61.556032 
L 111 61.56998 
L 112 61.596702 
L 113 61.606012 
L 114 61.618459 
L 115 61.629514 
L 116 61.635178 
L 117 61.639942 
L 118 61.634394 
L 119 61.621106 
L 120 61.613589 
L 121 61.588804 
L 122 61.565235 
L 123 61.529055 
L 124 61.503093 
L 125 61.480771 
L 126 61.412011 
L 127 61.337476 
L 128 61.243497 
L 129 61.192445 
L 130 61.138511 
L 131 61.10326 
L 132 60.997172 
L 133 60.944908 
L 134 60.908001 
L 135 60.87697 
L 136 60.815815 
L 137 60.748395 
L 138 60.699489 
L 139 60.634297 
L 140 60.596109 
L 141 60.554113 
L 142 60.512096 
L 143 60.45258 
L 144 60.33942 
L 145 60.287169 
L 146 60.247751 
L 147 60.20065 
L 148 60.14387 
L 149 60.111207 
L 150 60.075029 
L 151 60.042939 
L 152 60.008659 
L 153 59.950281 
L 154 59.905096 
L 155 59.875472 
L 156 59.825086 
L 157 59.799889 
L 158 59.778838 
L 159 59.74387 
L 160 59.71958 
L 161 59.705513 
L 162 59.686571 
L 163 59.67091 
L 164 59.658358 
L 165 59.652522 
L 166 59.64564 
L 167 59.640466 
L 168 59.642249 
L 169 59.644974 
L 170 59.656128 
L 171 59.684363 
L 172 59.728151 
L 173 59.74884 
L 174 59.789813 
L 175 59.829888 
L 176 59.848998 
L 177 59.871507 
L 178 59.938158 
L 179 59.987868 
L 180 60.061574 
L 181 60.092888 
L 182 60.16951 
L 183 60.207808 
L 184 60.281925 
L 185 60.385983 
L 186 60.455814 
L 187 60.561048 
L 188 60.616063 
L 189 60.739538 
L 190 60.810097 
L 191 60.925936 
L 192 60.976117 
L 193 61.011721 
L 194 61.103128 
L 195 61.156636 
L 196 61.244544 
L 197 61.313729 
L 198 61.360493 
L 199 61.432537 
L 200 61.482679 
L 201 61.500069 
L 202 61.527072 
L 203 61.546499 
L 204.12 61.565837 
L 205.084086 59.64 
L 205.100519 58.64 
L 205.108888 57.64 
L 205.113207 56.64 
L 205.119762 55.64 
L 205.117216 54.64 
L 205.111757 53.64 
L 205.095329 52.64 
L 205.063394 51.64 
L 205.025414 50.64 
L 204.99061 49.64 
L 204.927538 48.64 
L 204.906111 47.64 
L 204.855493 46.64 
L 204.830536 45.64 
L 204.774902 44.64 
L 204.743673 43.64 
L 204.693529 42.64 
L 204.661036 41.64 
L 204.580624 40.64 
L 204.511698 39.64 
L 204.396001 38.64 
L 204.320522 37.64 
L 204.204997 36.64 
L 204.125513 35.64 
L 204.017072 34.64 
L 203.977704 33.64 
L 203.874836 32.64 
L 203.775038 31.64 
L 203.729541 30.64 
L 203.695219 29.64 
L 203.643263 28.64 
L 203.603616 27.64 
L 203.568102 26.64 
L 203.500457 25.64 
L 203.461375 24.64 
L 203.410894 23.64 
L 203.361588 22.64 
L 203.310518 21.64 
L 203.266279 20.64 
L 203.244259 19.64 
L 203.228703 18.64 
L 203.186256 17.64 
L 203.171388 16.64 
L 203.14866 15.64 
L 203.128344 14.64 
L 203.122547 13.64 
L 203.120065 12.64 
L 203.123122 11.64 
L 203.134718 10.64 
L 203.151638 9.64 
L 203.183299 8.64 
L 203.197382 7.64 
L 203.250054 6.64 
L 203.299143 5.64 
L 203.353844 4.64 
L 203.398192 3.64 
L 203.468184 2.64 
L 203.518567 1.64 
L 203.572474 0 
L 203.12 0.478087 
L 202.12 0.420699 
L 201.12 0.370534 
L 200.12 0.293372 
L 199.12 0.235182 
L 198.12 0.174544 
L 197.12 0.137343 
L 196.12 0.072251 
L 195.12 -0.032879 
L 194.12 -0.093181 
L 193.12 -0.189503 
L 192.12 -0.221506 
L 191.12 -0.272523 
L 190.12 -0.389315 
L 189.12 -0.424762 
L 188.12 -0.480642 
L 187.12 -0.511018 
L 186.12 -0.599404 
L 185.12 -0.644168 
L 184.12 -0.725056 
L 183.12 -0.785202 
L 182.12 -0.848288 
L 181.12 -0.871236 
L 180.12 -0.887406 
L 179.12 -0.916335 
L 178.12 -0.946687 
L 177.12 -0.959261 
L 176.12 -0.98414 
L 175.12 -0.996224 
L 174.12 -0.999986 
L 173.12 -0.99555 
L 172.12 -0.983211 
L 171.12 -0.968798 
L 170.12 -0.952725 
L 169.12 -0.917204 
L 168.12 -0.89727 
L 167.12 -0.840681 
L 166.12 -0.773487 
L 165.12 -0.746117 
L 164.12 -0.711969 
L 163.12 -0.663289 
L 162.12 -0.615004 
L 161.12 -0.555927 
L 160.12 -0.460322 
L 159.12 -0.417182 
L 158.12 -0.367334 
L 157.12 -0.3088 
L 156.12 -0.261214 
L 155.12 -0.200086 
L 154.12 -0.144001 
L 153.12 -0.06983 
L 152.12 0.047408 
L 151.12 0.103132 
L 150.12 0.211358 
L 149.12 0.317508 
L 148.12 0.42508 
L 147.12 0.459588 
L 146.12 0.562895 
L 145.12 0.638619 
L 144.12 0.678054 
L 143.12 0.717438 
L 142.12 0.73992 
L 141.12 0.795733 
L 140.12 0.821785 
L 139.12 0.85202 
L 138.12 0.902791 
L 137.12 0.921442 
L 136.12 0.943151 
L 135.12 0.955797 
L 134.12 0.97479 
L 133.12 0.99218 
L 132.12 0.999218 
L 131.12 0.998194 
L 130.12 0.99119 
L 129.12 0.98182 
L 128.12 0.958422 
L 127.12 0.933339 
L 126.12 0.92094 
L 125.12 0.887847 
L 124.12 0.87148 
L 123.12 0.853075 
L 122.12 0.803938 
L 121.12 0.760125 
L 120.12 0.71704 
L 119.12 0.694099 
L 118.12 0.653836 
L 117.12 0.568976 
L 116.12 0.526584 
L 115.12 0.462198 
L 114.12 0.417909 
L 113.12 0.310063 
L 112.12 0.233123 
L 111.12 0.196681 
L 110.12 0.141794 
L 109.12 0.066693 
L 108.12 0.008098 
L 107.12 -0.028477 
L 106.12 -0.140524 
L 105.12 -0.202209 
L 104.12 -0.252729 
L 103.12 -0.351514 
L 102.12 -0.389536 
L 101.12 -0.424984 
L 100.12 -0.516618 
L 99.12 -0.55989 
L 98.12 -0.613219 
L 97.12 -0.646084 
L 96.12 -0.708978 
L 95.12 -0.762832 
L 94.12 -0.819958 
L 93.12 -0.842048 
L 92.12 -0.885787 
L 91.12 -0.932881 
L 90.12 -0.949728 
L 89.12 -0.977802 
L 88.12 -0.988798 
L 87.12 -0.993367 
L 86.12 -0.999015 
L 85.12 -0.999066 
L 84.12 -0.995976 
L 83.12 -0.992463 
L 82.12 -0.986641 
L 81.12 -0.973789 
L 80.12 -0.950164 
L 79.12 -0.93528 
L 78.12 -0.911708 
L 77.12 -0.875389 
L 76.12 -0.843806 
L 75.12 -0.813913 
L 74.12 -0.735221 
L 73.12 -0.69867 
L 72.12 -0.672947 
L 71.12 -0.602274 
L 70.12 -0.511172 
L 69.12 -0.449215 
L 68.12 -0.415602 
L 67.12 -0.381102 
L 66.12 -0.283662 
L 65.12 -0.236072 
L 64.12 -0.204566 
L 63.12 -0.160881 
L 62.12 -0.090712 
L 61.12 -0.040845 
L 60.12 -0.006168 
L 59.12 0.10348 
L 58.12 0.136951 
L 57.12 0.174293 
L 56.12 0.254538 
L 55.12 0.293032 
L 54.12 0.334809 
L 53.12 0.377234 
L 52.12 0.486962 
L 51.12 0.575247 
L 50.12 0.649893 
L 49.12 0.73835 
L 48.12 0.812412 
L 47.12 0.861577 
L 46.12 0.917194 
L 45.12 0.951894 
L 44.12 0.963765 
L 43.12 0.985988 
L 42.12 0.997967 
L 41.12 0.999719 
L 40.12 0.994302 
L 39.12 0.978104 
L 38.12 0.961604 
L 37.12 0.930421 
L 36.12 0.917056 
L 35.12 0.887413 
L 34.12 0.82439 
L 33.12 0.775069 
L 32.12 0.72898 
L 31.12 0.646753 
L 30.12 0.60085 
L 29.12 0.566525 
L 28.12 0.512986 
L 27.12 0.424099 
L 26.12 0.392961 
L 25.12 0.284912 
L 24.12 0.17284 
L 23.12 0.137402 
L 22.12 0.052616 
L 21.12 -0.012991 
L 20.12 -0.115045 
L 19.12 -0.23126 
L 18.12 -0.271951 
L 17.12 -0.31304 
L 16.12 -0.349681 
L 15.12 -0.390677 
L 14.12 -0.466746 
L 13.12 -0.542812 
L 12.12 -0.5735 
L 11.12 -0.599991 
L 10.12 -0.656572 
L 9.12 -0.701088 
L 8.12 -0.731106 
L 7.12 -0.758162 
L 6.12 -0.800727 
L 5.12 -0.853592 
L 4.12 -0.884513 
L 3.12 -0.910788 
L 2.12 -0.925721 
L 1.12 -0.95601 
L 0 -0.977339 
L -0.994228 1 
L -0.998943 2 
L -0.999553 3 
L -0.997507 4 
L -0.991646 5 
L -0.972999 6 
L -0.940942 7 
L -0.894502 8 
L -0.852556 9 
L -0.785851 10 
L -0.716785 11 
L -0.66941 12 
L -0.617891 13 
L -0.578191 14 
L -0.508771 15 
L -0.44224 16 
L -0.333331 17 
L -0.268083 18 
L -0.159875 19 
L -0.098871 20 
L -0.050186 21 
L 0.026048 22 
L 0.085579 23 
L 0.160207 24 
L 0.279034 25 
L 0.376979 26 
L 0.456027 27 
L 0.501774 28 
L 0.529046 29 
L 0.572708 30 
L 0.621292 31 
L 0.653026 32 
L 0.733256 33 
L 0.799749 34 
L 0.823774 35 
L 0.884273 36 
L 0.906505 37 
L 0.925105 38 
L 0.954431 39 
L 0.970132 40 
L 0.978431 41 
L 0.988667 42 
L 0.99901 43 
L 0.998332 44 
L 0.994552 45 
L 0.978111 46 
L 0.965977 47 
L 0.955382 48 
L 0.924005 49 
L 0.898232 50 
L 0.866823 51 
L 0.844014 52 
L 0.82642 53 
L 0.776608 54 
L 0.728948 55 
L 0.657239 56 
L 0.601476 57 
L 0.575278 58 
L 0.54451 59 
L 0.454752 60.64 
L 0 60.64 
z
" style="fill: none; stroke: #ffffff; stroke-width: 4; stroke-linejoin: miter"/>
   <path d="M 0 60.64 
L 1 60.671436 
L 2 60.708377 
L 3 60.806123 
L 4 60.838645 
L 5 60.91227 
L 6 60.950835 
L 7 60.986248 
L 8 61.043888 
L 9 61.114274 
L 10 61.166239 
L 11 61.225328 
L 12 61.313649 
L 13 61.359794 
L 14 61.402205 
L 15 61.432697 
L 16 61.458742 
L 17 61.479942 
L 18 61.534243 
L 19 61.562181 
L 20 61.591905 
L 21 61.6173 
L 22 61.6285 
L 23 61.638624 
L 24 61.63842 
L 25 61.62891 
L 26 61.617256 
L 27 61.586227 
L 28 61.575059 
L 29 61.544942 
L 30 61.485165 
L 31 61.447973 
L 32 61.408877 
L 33 61.366437 
L 34 61.333672 
L 35 61.266246 
L 36 61.22712 
L 37 61.184445 
L 38 61.113865 
L 39 61.077474 
L 40 61.019071 
L 41 60.908118 
L 42 60.83746 
L 43 60.72452 
L 44 60.678747 
L 45 60.617464 
L 46 60.568965 
L 47 60.488142 
L 48 60.369623 
L 49 60.299412 
L 50 60.21615 
L 51 60.183008 
L 52 60.131771 
L 53 60.063372 
L 54 59.997157 
L 55 59.92024 
L 56 59.892924 
L 57 59.866447 
L 58 59.843796 
L 59 59.824265 
L 60 59.797871 
L 61 59.7481 
L 62 59.713027 
L 63 59.677161 
L 64 59.661794 
L 65 59.646025 
L 66 59.642612 
L 67 59.640195 
L 68 59.640681 
L 69 59.64261 
L 70 59.655867 
L 71 59.664258 
L 72 59.685794 
L 73 59.708827 
L 74 59.72606 
L 75 59.744523 
L 76 59.764975 
L 77 59.781575 
L 78 59.844354 
L 79 59.919619 
L 80 59.952258 
L 81 60.019822 
L 82 60.073869 
L 83 60.107573 
L 84 60.197699 
L 85 60.226234 
L 86 60.25772 
L 87 60.288731 
L 88 60.343539 
L 89 60.408126 
L 90 60.446322 
L 91 60.542256 
L 92 60.591514 
L 93 60.635583 
L 94 60.675707 
L 95 60.784074 
L 96 60.825702 
L 97 60.887844 
L 98 60.957806 
L 99 61.06231 
L 100 61.099298 
L 101 61.145175 
L 102 61.21367 
L 103 61.262416 
L 104 61.340013 
L 105 61.370554 
L 106 61.440068 
L 107 61.464041 
L 108 61.492663 
L 109 61.534456 
L 110 61.556032 
L 111 61.56998 
L 112 61.596702 
L 113 61.606012 
L 114 61.618459 
L 115 61.629514 
L 116 61.635178 
L 117 61.639942 
L 118 61.634394 
L 119 61.621106 
L 120 61.613589 
L 121 61.588804 
L 122 61.565235 
L 123 61.529055 
L 124 61.503093 
L 125 61.480771 
L 126 61.412011 
L 127 61.337476 
L 128 61.243497 
L 129 61.192445 
L 130 61.138511 
L 131 61.10326 
L 132 60.997172 
L 133 60.944908 
L 134 60.908001 
L 135 60.87697 
L 136 60.815815 
L 137 60.748395 
L 138 60.699489 
L 139 60.634297 
L 140 60.596109 
L 141 60.554113 
L 142 60.512096 
L 143 60.45258 
L 144 60.33942 
L 145 60.287169 
L 146 60.247751 
L 147 60.20065 
L 148 60.14387 
L 149 60.111207 
L 150 60.075029 
L 151 60.042939 
L 152 60.008659 
L 153 59.950281 
L 154 59.905096 
L 155 59.875472 
L 156 59.825086 
L 157 59.799889 
L 158 59.778838 
L 159 59.74387 
L 160 59.71958 
L 161 59.705513 
L 162 59.686571 
L 163 59.67091 
L 164 59.658358 
L 165 59.652522 
L 166 59.64564 
L 167 59.640466 
L 168 59.642249 
L 169 59.644974 
L 170 59.656128 
L 171 59.684363 
L 172 59.728151 
L 173 59.74884 
L 174 59.789813 
L 175 59.829888 
L 176 59.848998 
L 177 59.871507 
L 178 59.938158 
L 179 59.987868 
L 180 60.061574 
L 181 60.092888 
L 182 60.16951 
L 183 60.207808 
L 184 60.281925 
L 185 60.385983 
L 186 60.455814 
L 187 60.561048 
L 188 60.616063 
L 189 60.739538 
L 190 60.810097 
L 191 60.925936 
L 192 60.976117 
L 193 61.011721 
L 194 61.103128 
L 195 61.156636 
L 196 61.244544 
L 197 61.313729 
L 198 61.360493 
L 199 61.432537 
L 200 61.482679 
L 201 61.500069 
L 202 61.527072 
L 203 61.546499 
L 204.12 61.565837 
L 205.084086 59.64 
L 205.100519 58.64 
L 205.108888 57.64 
L 205.113207 56.64 
L 205.119762 55.64 
L 205.117216 54.64 
L 205.111757 53.64 
L 205.095329 52.64 
L 205.063394 51.64 
L 205.025414 50.64 
L 204.99061 49.64 
L 204.927538 48.64 
L 204.906111 47.64 
L 204.855493 46.64 
L 204.830536 45.64 
L 204.774902 44.64 
L 204.743673 43.64 
L 204.693529 42.64 
L 204.661036 41.64 
L 204.580624 40.64 
L 204.511698 39.64 
L 204.396001 38.64 
L 204.320522 37.64 
L 204.204997 36.64 
L 204.125513 35.64 
L 204.017072 34.64 
L 203.977704 33.64 
L 203.874836 32.64 
L 203.775038 31.64 
L 203.729541 30.64 
L 203.695219 29.64 
L 203.643263 28.64 
L 203.603616 27.64 
L 203.568102 26.64 
L 203.500457 25.64 
L 203.461375 24.64 
L 203.410894 23.64 
L 203.361588 22.64 
L 203.310518 21.64 
L 203.266279 20.64 
L 203.244259 19.64 
L 203.228703 18.64 
L 203.186256 17.64 
L 203.171388 16.64 
L 203.14866 15.64 
L 203.128344 14.64 
L 203.122547 13.64 
L 203.120065 12.64 
L 203.123122 11.64 
L 203.134718 10.64 
L 203.151638 9.64 
L 203.183299 8.64 
L 203.197382 7.64 
L 203.250054 6.64 
L 203.299143 5.64 
L 203.353844 4.64 
L 203.398192 3.64 
L 203.468184 2.64 
L 203.518567 1.64 
L 203.572474 0 
L 203.12 0.478087 
L 202.12 0.420699 
L 201.12 0.370534 
L 200.12 0.293372 
L 199.12 0.235182 
L 198.12 0.174544 
L 197.12 0.137343 
L 196.12 0.072251 
L 195.12 -0.032879 
L 194.12 -0.093181 
L 193.12 -0.189503 
L 192.12 -0.221506 
L 191.12 -0.272523 
L 190.12 -0.389315 
L 189.12 -0.424762 
L 188.12 -0.480642 
L 187.12 -0.511018 
L 186.12 -0.599404 
L 185.12 -0.644168 
L 184.12 -0.725056 
L 183.12 -0.785202 
L 182.12 -0.848288 
L 181.12 -0.871236 
L 180.12 -0.887406 
L 179.12 -0.916335 
L 178.12 -0.946687 
L 177.12 -0.959261 
L 176.12 -0.98414 
L 175.12 -0.996224 
L 174.12 -0.999986 
L 173.12 -0.99555 
L 172.12 -0.983211 
L 171.12 -0.968798 
L 170.12 -0.952725 
L 169.12 -0.917204 
L 168.12 -0.89727 
L 167.12 -0.840681 
L 166.12 -0.773487 
L 165.12 -0.746117 
L 164.12 -0.711969 
L 163.12 -0.663289 
L 162.12 -0.615004 
L 161.12 -0.555927 
L 160.12 -0.460322 
L 159.12 -0.417182 
L 158.12 -0.367334 
L 157.12 -0.3088 
L 156.12 -0.261214 
L 155.12 -0.200086 
L 154.12 -0.144001 
L 153.12 -0.06983 
L 152.12 0.047408 
L 151.12 0.103132 
L 150.12 0.211358 
L 149.12 0.317508 
L 148.12 0.42508 
L 147.12 0.459588 
L 146.12 0.562895 
L 145.12 0.638619 
L 144.12 0.678054 
L 143.12 0.717438 
L 142.12 0.73992 
L 141.12 0.795733 
L 140.12 0.821785 
L 139.12 0.85202 
L 138.12 0.902791 
L 137.12 0.921442 
L 136.12 0.943151 
L 135.12 0.955797 
L 134.12 0.97479 
L 133.12 0.99218 
L 132.12 0.999218 
L 131.12 0.998194 
L 130.12 0.99119 
L 129.12 0.98182 
L 128.12 0.958422 
L 127.12 0.933339 
L 126.12 0.92094 
L 125.12 0.887847 
L 124.12 0.87148 
L 123.12 0.853075 
L 122.12 0.803938 
L 121.12 0.760125 
L 120.12 0.71704 
L 119.12 0.694099 
L 118.12 0.653836 
L 117.12 0.568976 
L 116.12 0.526584 
L 115.12 0.462198 
L 114.12 0.417909 
L 113.12 0.310063 
L 112.12 0.233123 
L 111.12 0.196681 
L 110.12 0.141794 
L 109.12 0.066693 
L 108.12 0.008098 
L 107.12 -0.028477 
L 106.12 -0.140524 
L 105.12 -0.202209 
L 104.12 -0.252729 
L 103.12 -0.351514 
L 102.12 -0.389536 
L 101.12 -0.424984 
L 100.12 -0.516618 
L 99.12 -0.55989 
L 98.12 -0.613219 
L 97.12 -0.646084 
L 96.12 -0.708978 
L 95.12 -0.762832 
L 94.12 -0.819958 
L 93.12 -0.842048 
L 92.12 -0.885787 
L 91.12 -0.932881 
L 90.12 -0.949728 
L 89.12 -0.977802 
L 88.12 -0.988798 
L 87.12 -0.993367 
L 86.12 -0.999015 
L 85.12 -0.999066 
L 84.12 -0.995976 
L 83.12 -0.992463 
L 82.12 -0.986641 
L 81.12 -0.973789 
L 80.12 -0.950164 
L 79.12 -0.93528 
L 78.12 -0.911708 
L 77.12 -0.875389 
L 76.12 -0.843806 
L 75.12 -0.813913 
L 74.12 -0.735221 
L 73.12 -0.69867 
L 72.12 -0.672947 
L 71.12 -0.602274 
L 70.12 -0.511172 
L 69.12 -0.449215 
L 68.12 -0.415602 
L 67.12 -0.381102 
L 66.12 -0.283662 
L 65.12 -0.236072 
L 64.12 -0.204566 
L 63.12 -0.160881 
L 62.12 -0.090712 
L 61.12 -0.040845 
L 60.12 -0.006168 
L 59.12 0.10348 
L 58.12 0.136951 
L 57.12 0.174293 
L 56.12 0.254538 
L 55.12 0.293032 
L 54.12 0.334809 
L 53.12 0.377234 
L 52.12 0.486962 
L 51.12 0.575247 
L 50.12 0.649893 
L 49.12 0.73835 
L 48.12 0.812412 
L 47.12 0.861577 
L 46.12 0.917194 
L 45.12 0.951894 
L 44.12 0.963765 
L 43.12 0.985988 
L 42.12 0.997967 
L 41.12 0.999719 
L 40.12 0.994302 
L 39.12 0.978104 
L 38.12 0.961604 
L 37.12 0.930421 
L 36.12 0.917056 
L 35.12 0.887413 
L 34.12 0.82439 
L 33.12 0.775069 
L 32.12 0.72898 
L 31.12 0.646753 
L 30.12 0.60085 
L 29.12 0.566525 
L 28.12 0.512986 
L 27.12 0.424099 
L 26.12 0.392961 
L 25.12 0.284912 
L 24.12 0.17284 
L 23.12 0.137402 
L 22.12 0.052616 
L 21.12 -0.012991 
L 20.12 -0.115045 
L 19.12 -0.23126 
L 18.12 -0.271951 
L 17.12 -0.31304 
L 16.12 -0.349681 
L 15.12 -0.390677 
L 14.12 -0.466746 
L 13.12 -0.542812 
L 12.12 -0.5735 
L 11.12 -0.599991 
L 10.12 -0.656572 
L 9.12 -0.701088 
L 8.12 -0.731106 
L 7.12 -0.758162 
L 6.12 -0.800727 
L 5.12 -0.853592 
L 4.12 -0.884513 
L 3.12 -0.910788 
L 2.12 -0.925721 
L 1.12 -0.95601 
L 0 -0.977339 
L -0.994228 1 
L -0.998943 2 
L -0.999553 3 
L -0.997507 4 
L -0.991646 5 
L -0.972999 6 
L -0.940942 7 
L -0.894502 8 
L -0.852556 9 
L -0.785851 10 
L -0.716785 11 
L -0.66941 12 
L -0.617891 13 
L -0.578191 14 
L -0.508771 15 
L -0.44224 16 
L -0.333331 17 
L -0.268083 18 
L -0.159875 19 
L -0.098871 20 
L -0.050186 21 
L 0.026048 22 
L 0.085579 23 
L 0.160207 24 
L 0.279034 25 
L 0.376979 26 
L 0.456027 27 
L 0.501774 28 
L 0.529046 29 
L 0.572708 30 
L 0.621292 31 
L 0.653026 32 
L 0.733256 33 
L 0.799749 34 
L 0.823774 35 
L 0.884273 36 
L 0.906505 37 
L 0.925105 38 
L 0.954431 39 
L 0.970132 40 
L 0.978431 41 
L 0.988667 42 
L 0.99901 43 
L 0.998332 44 
L 0.994552 45 
L 0.978111 46 
L 0.965977 47 
L 0.955382 48 
L 0.924005 49 
L 0.898232 50 
L 0.866823 51 
L 0.844014 52 
L 0.82642 53 
L 0.776608 54 
L 0.728948 55 
L 0.657239 56 
L 0.601476 57 
L 0.575278 58 
L 0.54451 59 
L 0.454752 60.64 
L 0 60.64 
z
" style="fill: none"/>
   <g id="axes_1">
    <path d="M 10.26 42.73 
L 11.26 42.761436 
L 12.26 42.798377 
L 13.26 42.896123 
L 14.26 42.928645 
L 15.26 43.00227 
L 16.26 43.040835 
L 17.26 43.076248 
L 18.26 43.133888 
L 19.26 43.204274 
L 20.26 43.256239 
L 21.26 43.315328 
L 22.26 43.403649 
L 23.26 43.449794 
L 24.26 43.492205 
L 25.26 43.522697 
L 26.26 43.548742 
L 27.26 43.569942 
L 28.26 43.624243 
L 29.26 43.652181 
L 30.26 43.681905 
L 31.26 43.7073 
L 32.26 43.7185 
L 33.26 43.728624 
L 34.26 43.72842 
L 35.26 43.71891 
L 36.26 43.707256 
L 37.26 43.676227 
L 38.26 43.665059 
L 39.26 43.634942 
L 40.86 43.575165 
L 41.942738 42.03682 
L 42.221876 41.075774 
L 42.497842 40.11367 
L 42.782986 39.154625 
L 43.035248 38.18462 
L 43.314357 37.223564 
L 43.590101 36.261386 
L 43.859548 35.229849 
L 43.311204 36.167025 
L 43.682837 37.097239 
L 44.104324 38.010836 
L 44.487584 38.937175 
L 44.910956 39.850144 
L 45.270608 40.784353 
L 45.644974 41.713657 
L 46.007212 42.647003 
L 46.400115 43.570128 
L 46.82878 44.481332 
L 47.211615 45.407813 
L 47.606833 46.330166 
L 47.954501 47.268369 
L 48.319337 48.20085 
L 48.700453 49.127904 
L 49.119854 50.176715 
L 48.143403 49.203709 
L 48.433717 48.246387 
L 48.724826 47.289331 
L 49.019566 46.333485 
L 49.317265 45.378625 
L 49.608453 44.421596 
L 49.877464 43.457173 
L 50.160418 42.497399 
L 50.442621 41.537374 
L 50.74427 40.583831 
L 51.045538 39.630161 
L 51.358528 38.680399 
L 51.672462 37.730951 
L 51.989151 36.782421 
L 52.307209 35.834348 
L 52.67637 34.76879 
L 54.851898 35.720126 
L 55.147694 36.67562 
L 55.442072 37.631587 
L 55.74195 38.58572 
L 56.040663 39.540242 
L 56.337488 40.495393 
L 56.637968 41.449325 
L 56.894638 42.417861 
L 57.139463 43.390345 
L 57.424727 44.34935 
L 57.676858 45.319399 
L 57.941813 46.285173 
L 58.226065 47.244515 
L 58.456792 48.221698 
L 58.745949 49.179405 
L 59.072662 50.259113 
L 58.692985 49.320236 
L 59.061208 48.388884 
L 59.438709 47.460625 
L 59.791172 46.52402 
L 60.198411 45.605674 
L 60.561369 44.672568 
L 60.919404 43.73782 
L 61.273697 42.801825 
L 61.692731 41.887411 
L 62.04845 40.951891 
L 62.42363 40.022859 
L 62.80623 39.096299 
L 63.2216 38.180663 
L 63.572917 37.243677 
L 63.932668 36.309501 
L 64.354231 35.26141 
L 63.535753 36.225508 
L 63.778365 37.19873 
L 64.065619 38.157071 
L 64.3159 39.127737 
L 64.609385 40.084001 
L 64.89846 41.041735 
L 65.175039 42.003635 
L 65.470798 42.959141 
L 65.773794 43.912235 
L 66.06467 44.869369 
L 66.372066 45.820996 
L 66.676486 46.773615 
L 66.982226 47.725795 
L 67.29308 48.676269 
L 67.604788 49.626459 
L 67.966635 50.694455 
L 70.156987 49.74157 
L 70.466083 48.790509 
L 70.758798 47.833988 
L 71.052666 46.877852 
L 71.33457 45.917727 
L 71.626168 44.960834 
L 71.92122 44.005092 
L 72.192394 42.974131 
L 72.46 43.427476 
L 73.46 43.333497 
L 74.46 43.282445 
L 75.46 43.228511 
L 76.46 43.19326 
L 77.46 43.087172 
L 78.46 43.034908 
L 79.46 42.998001 
L 80.46 42.96697 
L 81.46 42.905815 
L 82.46 42.838395 
L 83.46 42.789489 
L 84.46 42.724297 
L 85.46 42.686109 
L 86.46 42.644113 
L 87.46 42.602096 
L 88.46 42.54258 
L 89.46 42.42942 
L 90.46 42.377169 
L 91.46 42.337751 
L 92.46 42.29065 
L 93.46 42.23387 
L 94.46 42.201207 
L 95.46 42.165029 
L 96.46 42.132939 
L 97.46 42.098659 
L 98.46 42.040281 
L 99.46 41.995096 
L 100.46 41.965472 
L 102.06 41.915086 
" clip-path="url(#p6c393ffbff)" style="fill: none; stroke: #ffffff; stroke-width: 4; stroke-linecap: round"/>
    <path d="M 10.26 42.73 
L 11.26 42.761436 
L 12.26 42.798377 
L 13.26 42.896123 
L 14.26 42.928645 
L 15.26 43.00227 
L 16.26 43.040835 
L 17.26 43.076248 
L 18.26 43.133888 
L 19.26 43.204274 
L 20.26 43.256239 
L 21.26 43.315328 
L 22.26 43.403649 
L 23.26 43.449794 
L 24.26 43.492205 
L 25.26 43.522697 
L 26.26 43.548742 
L 27.26 43.569942 
L 28.26 43.624243 
L 29.26 43.652181 
L 30.26 43.681905 
L 31.26 43.7073 
L 32.26 43.7185 
L 33.26 43.728624 
L 34.26 43.72842 
L 35.26 43.71891 
L 36.26 43.707256 
L 37.26 43.676227 
L 38.26 43.665059 
L 39.26 43.634942 
L 40.86 43.575165 
L 41.942738 42.03682 
L 42.221876 41.075774 
L 42.497842 40.11367 
L 42.782986 39.154625 
L 43.035248 38.18462 
L 43.314357 37.223564 
L 43.590101 36.261386 
L 43.859548 35.229849 
L 43.311204 36.167025 
L 43.682837 37.097239 
L 44.104324 38.010836 
L 44.487584 38.937175 
L 44.910956 39.850144 
L 45.270608 40.784353 
L 45.644974 41.713657 
L 46.007212 42.647003 
L 46.400115 43.570128 
L 46.82878 44.481332 
L 47.211615 45.407813 
L 47.606833 46.330166 
L 47.954501 47.268369 
L 48.319337 48.20085 
L 48.700453 49.127904 
L 49.119854 50.176715 
L 48.143403 49.203709 
L 48.433717 48.246387 
L 48.724826 47.289331 
L 49.019566 46.333485 
L 49.317265 45.378625 
L 49.608453 44.421596 
L 49.877464 43.457173 
L 50.160418 42.497399 
L 50.442621 41.537374 
L 50.74427 40.583831 
L 51.045538 39.630161 
L 51.358528 38.680399 
L 51.672462 37.730951 
L 51.989151 36.782421 
L 52.307209 35.834348 
L 52.67637 34.76879 
L 54.851898 35.720126 
L 55.147694 36.67562 
L 55.442072 37.631587 
L 55.74195 38.58572 
L 56.040663 39.540242 
L 56.337488 40.495393 
L 56.637968 41.449325 
L 56.894638 42.417861 
L 57.139463 43.390345 
L 57.424727 44.34935 
L 57.676858 45.319399 
L 57.941813 46.285173 
L 58.226065 47.244515 
L 58.456792 48.221698 
L 58.745949 49.179405 
L 59.072662 50.259113 
L 58.692985 49.320236 
L 59.061208 48.388884 
L 59.438709 47.460625 
L 59.791172 46.52402 
L 60.198411 45.605674 
L 60.561369 44.672568 
L 60.919404 43.73782 
L 61.273697 42.801825 
L 61.692731 41.887411 
L 62.04845 40.951891 
L 62.42363 40.022859 
L 62.80623 39.096299 
L 63.2216 38.180663 
L 63.572917 37.243677 
L 63.932668 36.309501 
L 64.354231 35.26141 
L 63.535753 36.225508 
L 63.778365 37.19873 
L 64.065619 38.157071 
L 64.3159 39.127737 
L 64.609385 40.084001 
L 64.89846 41.041735 
L 65.175039 42.003635 
L 65.470798 42.959141 
L 65.773794 43.912235 
L 66.06467 44.869369 
L 66.372066 45.820996 
L 66.676486 46.773615 
L 66.982226 47.725795 
L 67.29308 48.676269 
L 67.604788 49.626459 
L 67.966635 50.694455 
L 70.156987 49.74157 
L 70.466083 48.790509 
L 70.758798 47.833988 
L 71.052666 46.877852 
L 71.33457 45.917727 
L 71.626168 44.960834 
L 71.92122 44.005092 
L 72.192394 42.974131 
L 72.46 43.427476 
L 73.46 43.333497 
L 74.46 43.282445 
L 75.46 43.228511 
L 76.46 43.19326 
L 77.46 43.087172 
L 78.46 43.034908 
L 79.46 42.998001 
L 80.46 42.96697 
L 81.46 42.905815 
L 82.46 42.838395 
L 83.46 42.789489 
L 84.46 42.724297 
L 85.46 42.686109 
L 86.46 42.644113 
L 87.46 42.602096 
L 88.46 42.54258 
L 89.46 42.42942 
L 90.46 42.377169 
L 91.46 42.337751 
L 92.46 42.29065 
L 93.46 42.23387 
L 94.46 42.201207 
L 95.46 42.165029 
L 96.46 42.132939 
L 97.46 42.098659 
L 98.46 42.040281 
L 99.46 41.995096 
L 100.46 41.965472 
L 102.06 41.915086 
" clip-path="url(#p6c393ffbff)" style="fill: none; stroke: #000000; stroke-width: 2; stroke-linecap: round"/>
    <path d="M 102.06 42.73 
L 103.06 42.761436 
L 104.06 42.798377 
L 105.06 42.896123 
L 106.06 42.928645 
L 107.06 43.00227 
L 108.06 43.040835 
L 109.06 43.076248 
L 110.06 43.133888 
L 111.06 43.204274 
L 112.06 43.256239 
L 113.06 43.315328 
L 114.06 43.403649 
L 115.06 43.449794 
L 116.06 43.492205 
L 117.06 43.522697 
L 118.06 43.548742 
L 119.06 43.569942 
L 120.06 43.624243 
L 121.06 43.652181 
L 122.06 43.681905 
L 123.06 43.7073 
L 124.06 43.7185 
L 125.06 43.728624 
L 126.06 43.72842 
L 127.06 43.71891 
L 128.06 43.707256 
L 129.06 43.676227 
L 130.06 43.665059 
L 131.06 43.634942 
L 132.66 43.575165 
L 133.742738 42.03682 
L 134.021876 41.075774 
L 134.297842 40.11367 
L 134.582986 39.154625 
L 134.835248 38.18462 
L 135.114357 37.223564 
L 135.390101 36.261386 
L 135.659548 35.229849 
L 135.111204 36.167025 
L 135.482837 37.097239 
L 135.904324 38.010836 
L 136.287584 38.937175 
L 136.710956 39.850144 
L 137.070608 40.784353 
L 137.444974 41.713657 
L 137.807212 42.647003 
L 138.200115 43.570128 
L 138.62878 44.481332 
L 139.011615 45.407813 
L 139.406833 46.330166 
L 139.754501 47.268369 
L 140.119337 48.20085 
L 140.500453 49.127904 
L 140.919854 50.176715 
L 139.943403 49.203709 
L 140.233717 48.246387 
L 140.524826 47.289331 
L 140.819566 46.333485 
L 141.117265 45.378625 
L 141.408453 44.421596 
L 141.677464 43.457173 
L 141.960418 42.497399 
L 142.242621 41.537374 
L 142.54427 40.583831 
L 142.845538 39.630161 
L 143.158528 38.680399 
L 143.472462 37.730951 
L 143.789151 36.782421 
L 144.107209 35.834348 
L 144.47637 34.76879 
L 146.651898 35.720126 
L 146.947694 36.67562 
L 147.242072 37.631587 
L 147.54195 38.58572 
L 147.840663 39.540242 
L 148.137488 40.495393 
L 148.437968 41.449325 
L 148.694638 42.417861 
L 148.939463 43.390345 
L 149.224727 44.34935 
L 149.476858 45.319399 
L 149.741813 46.285173 
L 150.026065 47.244515 
L 150.256792 48.221698 
L 150.545949 49.179405 
L 150.872662 50.259113 
L 150.492985 49.320236 
L 150.861208 48.388884 
L 151.238709 47.460625 
L 151.591172 46.52402 
L 151.998411 45.605674 
L 152.361369 44.672568 
L 152.719404 43.73782 
L 153.073697 42.801825 
L 153.492731 41.887411 
L 153.84845 40.951891 
L 154.22363 40.022859 
L 154.60623 39.096299 
L 155.0216 38.180663 
L 155.372917 37.243677 
L 155.732668 36.309501 
L 156.154231 35.26141 
L 155.335753 36.225508 
L 155.578365 37.19873 
L 155.865619 38.157071 
L 156.1159 39.127737 
L 156.409385 40.084001 
L 156.69846 41.041735 
L 156.975039 42.003635 
L 157.270798 42.959141 
L 157.573794 43.912235 
L 157.86467 44.869369 
L 158.172066 45.820996 
L 158.476486 46.773615 
L 158.782226 47.725795 
L 159.09308 48.676269 
L 159.404788 49.626459 
L 159.766635 50.694455 
L 161.956987 49.74157 
L 162.266083 48.790509 
L 162.558798 47.833988 
L 162.852666 46.877852 
L 163.13457 45.917727 
L 163.426168 44.960834 
L 163.72122 44.005092 
L 163.992394 42.974131 
L 164.26 43.427476 
L 165.26 43.333497 
L 166.26 43.282445 
L 167.26 43.228511 
L 168.26 43.19326 
L 169.26 43.087172 
L 170.26 43.034908 
L 171.26 42.998001 
L 172.26 42.96697 
L 173.26 42.905815 
L 174.26 42.838395 
L 175.26 42.789489 
L 176.26 42.724297 
L 177.26 42.686109 
L 178.26 42.644113 
L 179.26 42.602096 
L 180.26 42.54258 
L 181.26 42.42942 
L 182.26 42.377169 
L 183.26 42.337751 
L 184.26 42.29065 
L 185.26 42.23387 
L 186.26 42.201207 
L 187.26 42.165029 
L 188.26 42.132939 
L 189.26 42.098659 
L 190.26 42.040281 
L 191.26 41.995096 
L 192.26 41.965472 
L 193.86 41.915086 
" clip-path="url(#p6c393ffbff)" style="fill: none; stroke: #ffffff; stroke-width: 4; stroke-linecap: round"/>
    <path d="M 102.06 42.73 
L 103.06 42.761436 
L 104.06 42.798377 
L 105.06 42.896123 
L 106.06 42.928645 
L 107.06 43.00227 
L 108.06 43.040835 
L 109.06 43.076248 
L 110.06 43.133888 
L 111.06 43.204274 
L 112.06 43.256239 
L 113.06 43.315328 
L 114.06 43.403649 
L 115.06 43.449794 
L 116.06 43.492205 
L 117.06 43.522697 
L 118.06 43.548742 
L 119.06 43.569942 
L 120.06 43.624243 
L 121.06 43.652181 
L 122.06 43.681905 
L 123.06 43.7073 
L 124.06 43.7185 
L 125.06 43.728624 
L 126.06 43.72842 
L 127.06 43.71891 
L 128.06 43.707256 
L 129.06 43.676227 
L 130.06 43.665059 
L 131.06 43.634942 
L 132.66 43.575165 
L 133.742738 42.03682 
L 134.021876 41.075774 
L 134.297842 40.11367 
L 134.582986 39.154625 
L 134.835248 38.18462 
L 135.114357 37.223564 
L 135.390101 36.261386 
L 135.659548 35.229849 
L 135.111204 36.167025 
L 135.482837 37.097239 
L 135.904324 38.010836 
L 136.287584 38.937175 
L 136.710956 39.850144 
L 137.070608 40.784353 
L 137.444974 41.713657 
L 137.807212 42.647003 
L 138.200115 43.570128 
L 138.62878 44.481332 
L 139.011615 45.407813 
L 139.406833 46.330166 
L 139.754501 47.268369 
L 140.119337 48.20085 
L 140.500453 49.127904 
L 140.919854 50.176715 
L 139.943403 49.203709 
L 140.233717 48.246387 
L 140.524826 47.289331 
L 140.819566 46.333485 
L 141.117265 45.378625 
L 141.408453 44.421596 
L 141.677464 43.457173 
L 141.960418 42.497399 
L 142.242621 41.537374 
L 142.54427 40.583831 
L 142.845538 39.630161 
L 143.158528 38.680399 
L 143.472462 37.730951 
L 143.789151 36.782421 
L 144.107209 35.834348 
L 144.47637 34.76879 
L 146.651898 35.720126 
L 146.947694 36.67562 
L 147.242072 37.631587 
L 147.54195 38.58572 
L 147.840663 39.540242 
L 148.137488 40.495393 
L 148.437968 41.449325 
L 148.694638 42.417861 
L 148.939463 43.390345 
L 149.224727 44.34935 
L 149.476858 45.319399 
L 149.741813 46.285173 
L 150.026065 47.244515 
L 150.256792 48.221698 
L 150.545949 49.179405 
L 150.872662 50.259113 
L 150.492985 49.320236 
L 150.861208 48.388884 
L 151.238709 47.460625 
L 151.591172 46.52402 
L 151.998411 45.605674 
L 152.361369 44.672568 
L 152.719404 43.73782 
L 153.073697 42.801825 
L 153.492731 41.887411 
L 153.84845 40.951891 
L 154.22363 40.022859 
L 154.60623 39.096299 
L 155.0216 38.180663 
L 155.372917 37.243677 
L 155.732668 36.309501 
L 156.154231 35.26141 
L 155.335753 36.225508 
L 155.578365 37.19873 
L 155.865619 38.157071 
L 156.1159 39.127737 
L 156.409385 40.084001 
L 156.69846 41.041735 
L 156.975039 42.003635 
L 157.270798 42.959141 
L 157.573794 43.912235 
L 157.86467 44.869369 
L 158.172066 45.820996 
L 158.476486 46.773615 
L 158.782226 47.725795 
L 159.09308 48.676269 
L 159.404788 49.626459 
L 159.766635 50.694455 
L 161.956987 49.74157 
L 162.266083 48.790509 
L 162.558798 47.833988 
L 162.852666 46.877852 
L 163.13457 45.917727 
L 163.426168 44.960834 
L 163.72122 44.005092 
L 163.992394 42.974131 
L 164.26 43.427476 
L 165.26 43.333497 
L 166.26 43.282445 
L 167.26 43.228511 
L 168.26 43.19326 
L 169.26 43.087172 
L 170.26 43.034908 
L 171.26 42.998001 
L 172.26 42.96697 
L 173.26 42.905815 
L 174.26 42.838395 
L 175.26 42.789489 
L 176.26 42.724297 
L 177.26 42.686109 
L 178.26 42.644113 
L 179.26 42.602096 
L 180.26 42.54258 
L 181.26 42.42942 
L 182.26 42.377169 
L 183.26 42.337751 
L 184.26 42.29065 
L 185.26 42.23387 
L 186.26 42.201207 
L 187.26 42.165029 
L 188.26 42.132939 
L 189.26 42.098659 
L 190.26 42.040281 
L 191.26 41.995096 
L 192.26 41.965472 
L 193.86 41.915086 
" clip-path="url(#p6c393ffbff)" style="fill: none; stroke: #000000; stroke-width: 2; stroke-linecap: round"/>
    <path d="M 10.26 42.73 
L 11.26 42.761436 
L 12.26 42.798377 
L 13.26 42.896123 
L 14.26 42.928645 
L 15.26 43.00227 
L 16.26 43.040835 
L 17.26 43.076248 
L 18.26 43.133888 
L 19.26 43.204274 
L 20.26 43.256239 
L 21.26 43.315328 
L 22.26 43.403649 
L 23.26 43.449794 
L 24.26 43.492205 
L 25.26 43.522697 
L 26.26 43.548742 
L 27.26 43.569942 
L 28.26 43.624243 
L 29.26 43.652181 
L 30.26 43.681905 
L 31.26 43.7073 
L 32.26 43.7185 
L 33.26 43.728624 
L 34.26 43.72842 
L 35.26 43.71891 
L 36.26 43.707256 
L 37.26 43.676227 
L 38.26 43.665059 
L 39.26 43.634942 
L 40.86 43.575165 
L 41.942738 42.03682 
L 42.221876 41.075774 
L 42.497842 40.11367 
L 42.782986 39.154625 
L 43.035248 38.18462 
L 43.314357 37.223564 
L 43.590101 36.261386 
L 43.859548 35.229849 
L 43.311204 36.167025 
L 43.682837 37.097239 
L 44.104324 38.010836 
L 44.487584 38.937175 
L 44.910956 39.850144 
L 45.270608 40.784353 
L 45.644974 41.713657 
L 46.007212 42.647003 
L 46.400115 43.570128 
L 46.82878 44.481332 
L 47.211615 45.407813 
L 47.606833 46.330166 
L 47.954501 47.268369 
L 48.319337 48.20085 
L 48.700453 49.127904 
L 49.119854 50.176715 
L 48.143403 49.203709 
L 48.433717 48.246387 
L 48.724826 47.289331 
L 49.019566 46.333485 
L 49.317265 45.378625 
L 49.608453 44.421596 
L 49.877464 43.457173 
L 50.160418 42.497399 
L 50.442621 41.537374 
L 50.74427 40.583831 
L 51.045538 39.630161 
L 51.358528 38.680399 
L 51.672462 37.730951 
L 51.989151 36.782421 
L 52.307209 35.834348 
L 52.67637 34.76879 
L 54.851898 35.720126 
L 55.147694 36.67562 
L 55.442072 37.631587 
L 55.74195 38.58572 
L 56.040663 39.540242 
L 56.337488 40.495393 
L 56.637968 41.449325 
L 56.894638 42.417861 
L 57.139463 43.390345 
L 57.424727 44.34935 
L 57.676858 45.319399 
L 57.941813 46.285173 
L 58.226065 47.244515 
L 58.456792 48.221698 
L 58.745949 49.179405 
L 59.072662 50.259113 
L 58.692985 49.320236 
L 59.061208 48.388884 
L 59.438709 47.460625 
L 59.791172 46.52402 
L 60.198411 45.605674 
L 60.561369 44.672568 
L 60.919404 43.73782 
L 61.273697 42.801825 
L 61.692731 41.887411 
L 62.04845 40.951891 
L 62.42363 40.022859 
L 62.80623 39.096299 
L 63.2216 38.180663 
L 63.572917 37.243677 
L 63.932668 36.309501 
L 64.354231 35.26141 
L 63.535753 36.225508 
L 63.778365 37.19873 
L 64.065619 38.157071 
L 64.3159 39.127737 
L 64.609385 40.084001 
L 64.89846 41.041735 
L 65.175039 42.003635 
L 65.470798 42.959141 
L 65.773794 43.912235 
L 66.06467 44.869369 
L 66.372066 45.820996 
L 66.676486 46.773615 
L 66.982226 47.725795 
L 67.29308 48.676269 
L 67.604788 49.626459 
L 67.966635 50.694455 
L 70.156987 49.74157 
L 70.466083 48.790509 
L 70.758798 47.833988 
L 71.052666 46.877852 
L 71.33457 45.917727 
L 71.626168 44.960834 
L 71.92122 44.005092 
L 72.192394 42.974131 
L 72.46 43.427476 
L 73.46 43.333497 
L 74.46 43.282445 
L 75.46 43.228511 
L 76.46 43.19326 
L 77.46 43.087172 
L 78.46 43.034908 
L 79.46 42.998001 
L 80.46 42.96697 
L 81.46 42.905815 
L 82.46 42.838395 
L 83.46 42.789489 
L 84.46 42.724297 
L 85.46 42.686109 
L 86.46 42.644113 
L 87.46 42.602096 
L 88.46 42.54258 
L 89.46 42.42942 
L 90.46 42.377169 
L 91.46 42.337751 
L 92.46 42.29065 
L 93.46 42.23387 
L 94.46 42.201207 
L 95.46 42.165029 
L 96.46 42.132939 
L 97.46 42.098659 
L 98.46 42.040281 
L 99.46 41.995096 
L 100.46 41.965472 
L 102.06 41.915086 
" clip-path="url(#p6c393ffbff)" style="fill: none; stroke: #ffffff; stroke-width: 4; stroke-linecap: round"/>
    <path d="M 10.26 42.73 
L 11.26 42.761436 
L 12.26 42.798377 
L 13.26 42.896123 
L 14.26 42.928645 
L 15.26 43.00227 
L 16.26 43.040835 
L 17.26 43.076248 
L 18.26 43.133888 
L 19.26 43.204274 
L 20.26 43.256239 
L 21.26 43.315328 
L 22.26 43.403649 
L 23.26 43.449794 
L 24.26 43.492205 
L 25.26 43.522697 
L 26.26 43.548742 
L 27.26 43.569942 
L 28.26 43.624243 
L 29.26 43.652181 
L 30.26 43.681905 
L 31.26 43.7073 
L 32.26 43.7185 
L 33.26 43.728624 
L 34.26 43.72842 
L 35.26 43.71891 
L 36.26 43.707256 
L 37.26 43.676227 
L 38.26 43.665059 
L 39.26 43.634942 
L 40.86 43.575165 
L 41.942738 42.03682 
L 42.221876 41.075774 
L 42.497842 40.11367 
L 42.782986 39.154625 
L 43.035248 38.18462 
L 43.314357 37.223564 
L 43.590101 36.261386 
L 43.859548 35.229849 
L 43.311204 36.167025 
L 43.682837 37.097239 
L 44.104324 38.010836 
L 44.487584 38.937175 
L 44.910956 39.850144 
L 45.270608 40.784353 
L 45.644974 41.713657 
L 46.007212 42.647003 
L 46.400115 43.570128 
L 46.82878 44.481332 
L 47.211615 45.407813 
L 47.606833 46.330166 
L 47.954501 47.268369 
L 48.319337 48.20085 
L 48.700453 49.127904 
L 49.119854 50.176715 
L 48.143403 49.203709 
L 48.433717 48.246387 
L 48.724826 47.289331 
L 49.019566 46.333485 
L 49.317265 45.378625 
L 49.608453 44.421596 
L 49.877464 43.457173 
L 50.160418 42.497399 
L 50.442621 41.537374 
L 50.74427 40.583831 
L 51.045538 39.630161 
L 51.358528 38.680399 
L 51.672462 37.730951 
L 51.989151 36.782421 
L 52.307209 35.834348 
L 52.67637 34.76879 
L 54.851898 35.720126 
L 55.147694 36.67562 
L 55.442072 37.631587 
L 55.74195 38.58572 
L 56.040663 39.540242 
L 56.337488 40.495393 
L 56.637968 41.449325 
L 56.894638 42.417861 
L 57.139463 43.390345 
L 57.424727 44.34935 
L 57.676858 45.319399 
L 57.941813 46.285173 
L 58.226065 47.244515 
L 58.456792 48.221698 
L 58.745949 49.179405 
L 59.072662 50.259113 
L 58.692985 49.320236 
L 59.061208 48.388884 
L 59.438709 47.460625 
L 59.791172 46.52402 
L 60.198411 45.605674 
L 60.561369 44.672568 
L 60.919404 43.73782 
L 61.273697 42.801825 
L 61.692731 41.887411 
L 62.04845 40.951891 
L 62.42363 40.022859 
L 62.80623 39.096299 
L 63.2216 38.180663 
L 63.572917 37.243677 
L 63.932668 36.309501 
L 64.354231 35.26141 
L 63.535753 36.225508 
L 63.778365 37.19873 
L 64.065619 38.157071 
L 64.3159 39.127737 
L 64.609385 40.084001 
L 64.89846 41.041735 
L 65.175039 42.003635 
L 65.470798 42.959141 
L 65.773794 43.912235 
L 66.06467 44.869369 
L 66.372066 45.820996 
L 66.676486 46.773615 
L 66.982226 47.725795 
L 67.29308 48.676269 
L 67.604788 49.626459 
L 67.966635 50.694455 
L 70.156987 49.74157 
L 70.466083 48.790509 
L 70.758798 47.833988 
L 71.052666 46.877852 
L 71.33457 45.917727 
L 71.626168 44.960834 
L 71.92122 44.005092 
L 72.192394 42.974131 
L 72.46 43.427476 
L 73.46 43.333497 
L 74.46 43.282445 
L 75.46 43.228511 
L 76.46 43.19326 
L 77.46 43.087172 
L 78.46 43.034908 
L 79.46 42.998001 
L 80.46 42.96697 
L 81.46 42.905815 
L 82.46 42.838395 
L 83.46 42.789489 
L 84.46 42.724297 
L 85.46 42.686109 
L 86.46 42.644113 
L 87.46 42.602096 
L 88.46 42.54258 
L 89.46 42.42942 
L 90.46 42.377169 
L 91.46 42.337751 
L 92.46 42.29065 
L 93.46 42.23387 
L 94.46 42.201207 
L 95.46 42.165029 
L 96.46 42.132939 
L 97.46 42.098659 
L 98.46 42.040281 
L 99.46 41.995096 
L 100.46 41.965472 
L 102.06 41.915086 
" clip-path="url(#p6c393ffbff)" style="fill: none; stroke: #000000; stroke-width: 2; stroke-linecap: round"/>
    <path d="M 102.06 42.73 
L 103.06 42.761436 
L 104.06 42.798377 
L 105.06 42.896123 
L 106.06 42.928645 
L 107.06 43.00227 
L 108.06 43.040835 
L 109.06 43.076248 
L 110.06 43.133888 
L 111.06 43.204274 
L 112.06 43.256239 
L 113.06 43.315328 
L 114.06 43.403649 
L 115.06 43.449794 
L 116.06 43.492205 
L 117.06 43.522697 
L 118.06 43.548742 
L 119.06 43.569942 
L 120.06 43.624243 
L 121.06 43.652181 
L 122.06 43.681905 
L 123.06 43.7073 
L 124.06 43.7185 
L 125.06 43.728624 
L 126.06 43.72842 
L 127.06 43.71891 
L 128.06 43.707256 
L 129.06 43.676227 
L 130.06 43.665059 
L 131.06 43.634942 
L 132.66 43.575165 
L 133.742738 42.03682 
L 134.021876 41.075774 
L 134.297842 40.11367 
L 134.582986 39.154625 
L 134.835248 38.18462 
L 135.114357 37.223564 
L 135.390101 36.261386 
L 135.659548 35.229849 
L 135.111204 36.167025 
L 135.482837 37.097239 
L 135.904324 38.010836 
L 136.287584 38.937175 
L 136.710956 39.850144 
L 137.070608 40.784353 
L 137.444974 41.713657 
L 137.807212 42.647003 
L 138.200115 43.570128 
L 138.62878 44.481332 
L 139.011615 45.407813 
L 139.406833 46.330166 
L 139.754501 47.268369 
L 140.119337 48.20085 
L 140.500453 49.127904 
L 140.919854 50.176715 
L 139.943403 49.203709 
L 140.233717 48.246387 
L 140.524826 47.289331 
L 140.819566 46.333485 
L 141.117265 45.378625 
L 141.408453 44.421596 
L 141.677464 43.457173 
L 141.960418 42.497399 
L 142.242621 41.537374 
L 142.54427 40.583831 
L 142.845538 39.630161 
L 143.158528 38.680399 
L 143.472462 37.730951 
L 143.789151 36.782421 
L 144.107209 35.834348 
L 144.47637 34.76879 
L 146.651898 35.720126 
L 146.947694 36.67562 
L 147.242072 37.631587 
L 147.54195 38.58572 
L 147.840663 39.540242 
L 148.137488 40.495393 
L 148.437968 41.449325 
L 148.694638 42.417861 
L 148.939463 43.390345 
L 149.224727 44.34935 
L 149.476858 45.319399 
L 149.741813 46.285173 
L 150.026065 47.244515 
L 150.256792 48.221698 
L 150.545949 49.179405 
L 150.872662 50.259113 
L 150.492985 49.320236 
L 150.861208 48.388884 
L 151.238709 47.460625 
L 151.591172 46.52402 
L 151.998411 45.605674 
L 152.361369 44.672568 
L 152.719404 43.73782 
L 153.073697 42.801825 
L 153.492731 41.887411 
L 153.84845 40.951891 
L 154.22363 40.022859 
L 154.60623 39.096299 
L 155.0216 38.180663 
L 155.372917 37.243677 
L 155.732668 36.309501 
L 156.154231 35.26141 
L 155.335753 36.225508 
L 155.578365 37.19873 
L 155.865619 38.157071 
L 156.1159 39.127737 
L 156.409385 40.084001 
L 156.69846 41.041735 
L 156.975039 42.003635 
L 157.270798 42.959141 
L 157.573794 43.912235 
L 157.86467 44.869369 
L 158.172066 45.820996 
L 158.476486 46.773615 
L 158.782226 47.725795 
L 159.09308 48.676269 
L 159.404788 49.626459 
L 159.766635 50.694455 
L 161.956987 49.74157 
L 162.266083 48.790509 
L 162.558798 47.833988 
L 162.852666 46.877852 
L 163.13457 45.917727 
L 163.426168 44.960834 
L 163.72122 44.005092 
L 163.992394 42.974131 
L 164.26 43.427476 
L 165.26 43.333497 
L 166.26 43.282445 
L 167.26 43.228511 
L 168.26 43.19326 
L 169.26 43.087172 
L 170.26 43.034908 
L 171.26 42.998001 
L 172.26 42.96697 
L 173.26 42.905815 
L 174.26 42.838395 
L 175.26 42.789489 
L 176.26 42.724297 
L 177.26 42.686109 
L 178.26 42.644113 
L 179.26 42.602096 
L 180.26 42.54258 
L 181.26 42.42942 
L 182.26 42.377169 
L 183.26 42.337751 
L 184.26 42.29065 
L 185.26 42.23387 
L 186.26 42.201207 
L 187.26 42.165029 
L 188.26 42.132939 
L 189.26 42.098659 
L 190.26 42.040281 
L 191.26 41.995096 
L 192.26 41.965472 
L 193.86 41.915086 
" clip-path="url(#p6c393ffbff)" style="fill: none; stroke: #ffffff; stroke-width: 4; stroke-linecap: round"/>
    <path d="M 102.06 42.73 
L 103.06 42.761436 
L 104.06 42.798377 
L 105.06 42.896123 
L 106.06 42.928645 
L 107.06 43.00227 
L 108.06 43.040835 
L 109.06 43.076248 
L 110.06 43.133888 
L 111.06 43.204274 
L 112.06 43.256239 
L 113.06 43.315328 
L 114.06 43.403649 
L 115.06 43.449794 
L 116.06 43.492205 
L 117.06 43.522697 
L 118.06 43.548742 
L 119.06 43.569942 
L 120.06 43.624243 
L 121.06 43.652181 
L 122.06 43.681905 
L 123.06 43.7073 
L 124.06 43.7185 
L 125.06 43.728624 
L 126.06 43.72842 
L 127.06 43.71891 
L 128.06 43.707256 
L 129.06 43.676227 
L 130.06 43.665059 
L 131.06 43.634942 
L 132.66 43.575165 
L 133.742738 42.03682 
L 134.021876 41.075774 
L 134.297842 40.11367 
L 134.582986 39.154625 
L 134.835248 38.18462 
L 135.114357 37.223564 
L 135.390101 36.261386 
L 135.659548 35.229849 
L 135.111204 36.167025 
L 135.482837 37.097239 
L 135.904324 38.010836 
L 136.287584 38.937175 
L 136.710956 39.850144 
L 137.070608 40.784353 
L 137.444974 41.713657 
L 137.807212 42.647003 
L 138.200115 43.570128 
L 138.62878 44.481332 
L 139.011615 45.407813 
L 139.406833 46.330166 
L 139.754501 47.268369 
L 140.119337 48.20085 
L 140.500453 49.127904 
L 140.919854 50.176715 
L 139.943403 49.203709 
L 140.233717 48.246387 
L 140.524826 47.289331 
L 140.819566 46.333485 
L 141.117265 45.378625 
L 141.408453 44.421596 
L 141.677464 43.457173 
L 141.960418 42.497399 
L 142.242621 41.537374 
L 142.54427 40.583831 
L 142.845538 39.630161 
L 143.158528 38.680399 
L 143.472462 37.730951 
L 143.789151 36.782421 
L 144.107209 35.834348 
L 144.47637 34.76879 
L 146.651898 35.720126 
L 146.947694 36.67562 
L 147.242072 37.631587 
L 147.54195 38.58572 
L 147.840663 39.540242 
L 148.137488 40.495393 
L 148.437968 41.449325 
L 148.694638 42.417861 
L 148.939463 43.390345 
L 149.224727 44.34935 
L 149.476858 45.319399 
L 149.741813 46.285173 
L 150.026065 47.244515 
L 150.256792 48.221698 
L 150.545949 49.179405 
L 150.872662 50.259113 
L 150.492985 49.320236 
L 150.861208 48.388884 
L 151.238709 47.460625 
L 151.591172 46.52402 
L 151.998411 45.605674 
L 152.361369 44.672568 
L 152.719404 43.73782 
L 153.073697 42.801825 
L 153.492731 41.887411 
L 153.84845 40.951891 
L 154.22363 40.022859 
L 154.60623 39.096299 
L 155.0216 38.180663 
L 155.372917 37.243677 
L 155.732668 36.309501 
L 156.154231 35.26141 
L 155.335753 36.225508 
L 155.578365 37.19873 
L 155.865619 38.157071 
L 156.1159 39.127737 
L 156.409385 40.084001 
L 156.69846 41.041735 
L 156.975039 42.003635 
L 157.270798 42.959141 
L 157.573794 43.912235 
L 157.86467 44.869369 
L 158.172066 45.820996 
L 158.476486 46.773615 
L 158.782226 47.725795 
L 159.09308 48.676269 
L 159.404788 49.626459 
L 159.766635 50.694455 
L 161.956987 49.74157 
L 162.266083 48.790509 
L 162.558798 47.833988 
L 162.852666 46.877852 
L 163.13457 45.917727 
L 163.426168 44.960834 
L 163.72122 44.005092 
L 163.992394 42.974131 
L 164.26 43.427476 
L 165.26 43.333497 
L 166.26 43.282445 
L 167.26 43.228511 
L 168.26 43.19326 
L 169.26 43.087172 
L 170.26 43.034908 
L 171.26 42.998001 
L 172.26 42.96697 
L 173.26 42.905815 
L 174.26 42.838395 
L 175.26 42.789489 
L 176.26 42.724297 
L 177.26 42.686109 
L 178.26 42.644113 
L 179.26 42.602096 
L 180.26 42.54258 
L 181.26 42.42942 
L 182.26 42.377169 
L 183.26 42.337751 
L 184.26 42.29065 
L 185.26 42.23387 
L 186.26 42.201207 
L 187.26 42.165029 
L 188.26 42.132939 
L 189.26 42.098659 
L 190.26 42.040281 
L 191.26 41.995096 
L 192.26 41.965472 
L 193.86 41.915086 
" clip-path="url(#p6c393ffbff)" style="fill: none; stroke: #000000; stroke-width: 2; stroke-linecap: round"/>
    <g id="text_1">
     <path d="M 51.497891 21.170391 
L 54.648281 21.170391 
Q 55.859219 21.170391 56.527188 21.645 
Q 57.197109 22.119609 57.197109 22.932109 
Q 57.197109 23.906719 56.372891 24.531719 
Q 55.884609 24.906719 54.734219 25.170391 
L 55.8475 28.107891 
Q 56.060391 28.682109 56.290859 28.908672 
Q 56.523281 29.133281 56.935391 29.133281 
L 56.935391 29.3325 
L 55.0975 29.3325 
L 53.560391 25.281719 
L 52.734219 25.219219 
L 52.046719 27.758281 
Q 51.884609 28.3325 51.884609 28.545391 
Q 51.884609 28.8325 52.046719 28.9575 
Q 52.210781 29.0825 52.7225 29.133281 
L 52.7225 29.3325 
L 49.685391 29.3325 
L 49.685391 29.133281 
Q 50.185391 29.070781 50.390469 28.857891 
Q 50.5975 28.645 50.747891 28.070781 
L 52.234219 22.682109 
Q 52.384609 22.107891 52.384609 21.895 
Q 52.384609 21.670391 52.210781 21.545391 
Q 52.060391 21.445781 51.497891 21.369609 
L 51.497891 21.170391 
z
M 53.671719 21.920391 
L 52.884609 24.758281 
Q 53.273281 24.820781 53.523281 24.820781 
Q 54.634609 24.820781 55.259609 24.320781 
Q 55.884609 23.820781 55.884609 22.945781 
Q 55.884609 22.295391 55.495938 21.920391 
Q 55.109219 21.545391 54.384609 21.545391 
Q 53.773281 21.545391 53.671719 21.920391 
z
M 60.933046 30.986016 
L 58.517225 30.986016 
L 58.517225 30.854766 
Q 58.998475 30.828789 59.173475 30.675664 
Q 59.348475 30.522539 59.348475 30.154766 
L 59.348475 26.225469 
Q 59.348475 25.797539 59.085975 25.797539 
Q 58.964296 25.797539 58.692225 25.902812 
L 58.455702 25.990313 
L 58.455702 25.867266 
L 60.022499 25.071562 
L 60.101796 25.097539 
L 60.101796 30.321562 
Q 60.101796 30.610039 60.276796 30.733086 
Q 60.451796 30.854766 60.933046 30.854766 
L 60.933046 30.986016 
z
" clip-path="url(#p6c393ffbff)" style="stroke: #ffffff; stroke-width: 4"/>
     <path d="M 51.497891 21.170391 
L 54.648281 21.170391 
Q 55.859219 21.170391 56.527188 21.645 
Q 57.197109 22.119609 57.197109 22.932109 
Q 57.197109 23.906719 56.372891 24.531719 
Q 55.884609 24.906719 54.734219 25.170391 
L 55.8475 28.107891 
Q 56.060391 28.682109 56.290859 28.908672 
Q 56.523281 29.133281 56.935391 29.133281 
L 56.935391 29.3325 
L 55.0975 29.3325 
L 53.560391 25.281719 
L 52.734219 25.219219 
L 52.046719 27.758281 
Q 51.884609 28.3325 51.884609 28.545391 
Q 51.884609 28.8325 52.046719 28.9575 
Q 52.210781 29.0825 52.7225 29.133281 
L 52.7225 29.3325 
L 49.685391 29.3325 
L 49.685391 29.133281 
Q 50.185391 29.070781 50.390469 28.857891 
Q 50.5975 28.645 50.747891 28.070781 
L 52.234219 22.682109 
Q 52.384609 22.107891 52.384609 21.895 
Q 52.384609 21.670391 52.210781 21.545391 
Q 52.060391 21.445781 51.497891 21.369609 
L 51.497891 21.170391 
z
M 53.671719 21.920391 
L 52.884609 24.758281 
Q 53.273281 24.820781 53.523281 24.820781 
Q 54.634609 24.820781 55.259609 24.320781 
Q 55.884609 23.820781 55.884609 22.945781 
Q 55.884609 22.295391 55.495938 21.920391 
Q 55.109219 21.545391 54.384609 21.545391 
Q 53.773281 21.545391 53.671719 21.920391 
z
M 60.933046 30.986016 
L 58.517225 30.986016 
L 58.517225 30.854766 
Q 58.998475 30.828789 59.173475 30.675664 
Q 59.348475 30.522539 59.348475 30.154766 
L 59.348475 26.225469 
Q 59.348475 25.797539 59.085975 25.797539 
Q 58.964296 25.797539 58.692225 25.902812 
L 58.455702 25.990313 
L 58.455702 25.867266 
L 60.022499 25.071562 
L 60.101796 25.097539 
L 60.101796 30.321562 
Q 60.101796 30.610039 60.276796 30.733086 
Q 60.451796 30.854766 60.933046 30.854766 
L 60.933046 30.986016 
z
" clip-path="url(#p6c393ffbff)"/>
    </g>
    <g id="text_2">
     <path d="M 143.297891 21.170391 
L 146.448281 21.170391 
Q 147.659219 21.170391 148.327188 21.645 
Q 148.997109 22.119609 148.997109 22.932109 
Q 148.997109 23.906719 148.172891 24.531719 
Q 147.684609 24.906719 146.534219 25.170391 
L 147.6475 28.107891 
Q 147.860391 28.682109 148.090859 28.908672 
Q 148.323281 29.133281 148.735391 29.133281 
L 148.735391 29.3325 
L 146.8975 29.3325 
L 145.360391 25.281719 
L 144.534219 25.219219 
L 143.846719 27.758281 
Q 143.684609 28.3325 143.684609 28.545391 
Q 143.684609 28.8325 143.846719 28.9575 
Q 144.010781 29.0825 144.5225 29.133281 
L 144.5225 29.3325 
L 141.485391 29.3325 
L 141.485391 29.133281 
Q 141.985391 29.070781 142.190469 28.857891 
Q 142.3975 28.645 142.547891 28.070781 
L 144.034219 22.682109 
Q 144.184609 22.107891 144.184609 21.895 
Q 144.184609 21.670391 144.010781 21.545391 
Q 143.860391 21.445781 143.297891 21.369609 
L 143.297891 21.170391 
z
M 145.471719 21.920391 
L 144.684609 24.758281 
Q 145.073281 24.820781 145.323281 24.820781 
Q 146.434609 24.820781 147.059609 24.320781 
Q 147.684609 23.820781 147.684609 22.945781 
Q 147.684609 22.295391 147.295938 21.920391 
Q 146.909219 21.545391 146.184609 21.545391 
Q 145.573281 21.545391 145.471719 21.920391 
z
M 153.433046 29.786992 
L 152.959999 30.986016 
L 149.539296 30.986016 
L 149.539296 30.880742 
L 151.096522 29.227812 
Q 151.709022 28.587969 151.971522 28.054766 
Q 152.234022 27.521563 152.234022 26.952813 
Q 152.234022 26.366289 151.909999 26.042266 
Q 151.585975 25.718242 151.017225 25.718242 
Q 150.545546 25.718242 150.269374 25.964336 
Q 149.993202 26.209063 149.730702 26.855742 
L 149.547499 26.811992 
Q 149.696522 25.998516 150.146327 25.535039 
Q 150.597499 25.071562 151.367225 25.071562 
Q 152.093202 25.071562 152.538905 25.509062 
Q 152.985975 25.946562 152.985975 26.611016 
Q 152.985975 27.599492 151.866249 28.780742 
L 150.422499 30.321562 
L 152.470546 30.321562 
Q 152.759022 30.321562 152.928554 30.208086 
Q 153.099452 30.093242 153.309999 29.735039 
L 153.433046 29.786992 
z
" clip-path="url(#p6c393ffbff)" style="stroke: #ffffff; stroke-width: 4"/>
     <path d="M 143.297891 21.170391 
L 146.448281 21.170391 
Q 147.659219 21.170391 148.327188 21.645 
Q 148.997109 22.119609 148.997109 22.932109 
Q 148.997109 23.906719 148.172891 24.531719 
Q 147.684609 24.906719 146.534219 25.170391 
L 147.6475 28.107891 
Q 147.860391 28.682109 148.090859 28.908672 
Q 148.323281 29.133281 148.735391 29.133281 
L 148.735391 29.3325 
L 146.8975 29.3325 
L 145.360391 25.281719 
L 144.534219 25.219219 
L 143.846719 27.758281 
Q 143.684609 28.3325 143.684609 28.545391 
Q 143.684609 28.8325 143.846719 28.9575 
Q 144.010781 29.0825 144.5225 29.133281 
L 144.5225 29.3325 
L 141.485391 29.3325 
L 141.485391 29.133281 
Q 141.985391 29.070781 142.190469 28.857891 
Q 142.3975 28.645 142.547891 28.070781 
L 144.034219 22.682109 
Q 144.184609 22.107891 144.184609 21.895 
Q 144.184609 21.670391 144.010781 21.545391 
Q 143.860391 21.445781 143.297891 21.369609 
L 143.297891 21.170391 
z
M 145.471719 21.920391 
L 144.684609 24.758281 
Q 145.073281 24.820781 145.323281 24.820781 
Q 146.434609 24.820781 147.059609 24.320781 
Q 147.684609 23.820781 147.684609 22.945781 
Q 147.684609 22.295391 147.295938 21.920391 
Q 146.909219 21.545391 146.184609 21.545391 
Q 145.573281 21.545391 145.471719 21.920391 
z
M 153.433046 29.786992 
L 152.959999 30.986016 
L 149.539296 30.986016 
L 149.539296 30.880742 
L 151.096522 29.227812 
Q 151.709022 28.587969 151.971522 28.054766 
Q 152.234022 27.521563 152.234022 26.952813 
Q 152.234022 26.366289 151.909999 26.042266 
Q 151.585975 25.718242 151.017225 25.718242 
Q 150.545546 25.718242 150.269374 25.964336 
Q 149.993202 26.209063 149.730702 26.855742 
L 149.547499 26.811992 
Q 149.696522 25.998516 150.146327 25.535039 
Q 150.597499 25.071562 151.367225 25.071562 
Q 152.093202 25.071562 152.538905 25.509062 
Q 152.985975 25.946562 152.985975 26.611016 
Q 152.985975 27.599492 151.866249 28.780742 
L 150.422499 30.321562 
L 152.470546 30.321562 
Q 152.759022 30.321562 152.928554 30.208086 
Q 153.099452 30.093242 153.309999 29.735039 
L 153.433046 29.786992 
z
" clip-path="url(#p6c393ffbff)"/>
    </g>
    <g id="text_3">
     <path d="M 51.497891 21.170391 
L 54.648281 21.170391 
Q 55.859219 21.170391 56.527188 21.645 
Q 57.197109 22.119609 57.197109 22.932109 
Q 57.197109 23.906719 56.372891 24.531719 
Q 55.884609 24.906719 54.734219 25.170391 
L 55.8475 28.107891 
Q 56.060391 28.682109 56.290859 28.908672 
Q 56.523281 29.133281 56.935391 29.133281 
L 56.935391 29.3325 
L 55.0975 29.3325 
L 53.560391 25.281719 
L 52.734219 25.219219 
L 52.046719 27.758281 
Q 51.884609 28.3325 51.884609 28.545391 
Q 51.884609 28.8325 52.046719 28.9575 
Q 52.210781 29.0825 52.7225 29.133281 
L 52.7225 29.3325 
L 49.685391 29.3325 
L 49.685391 29.133281 
Q 50.185391 29.070781 50.390469 28.857891 
Q 50.5975 28.645 50.747891 28.070781 
L 52.234219 22.682109 
Q 52.384609 22.107891 52.384609 21.895 
Q 52.384609 21.670391 52.210781 21.545391 
Q 52.060391 21.445781 51.497891 21.369609 
L 51.497891 21.170391 
z
M 53.671719 21.920391 
L 52.884609 24.758281 
Q 53.273281 24.820781 53.523281 24.820781 
Q 54.634609 24.820781 55.259609 24.320781 
Q 55.884609 23.820781 55.884609 22.945781 
Q 55.884609 22.295391 55.495938 21.920391 
Q 55.109219 21.545391 54.384609 21.545391 
Q 53.773281 21.545391 53.671719 21.920391 
z
M 60.933046 30.986016 
L 58.517225 30.986016 
L 58.517225 30.854766 
Q 58.998475 30.828789 59.173475 30.675664 
Q 59.348475 30.522539 59.348475 30.154766 
L 59.348475 26.225469 
Q 59.348475 25.797539 59.085975 25.797539 
Q 58.964296 25.797539 58.692225 25.902812 
L 58.455702 25.990313 
L 58.455702 25.867266 
L 60.022499 25.071562 
L 60.101796 25.097539 
L 60.101796 30.321562 
Q 60.101796 30.610039 60.276796 30.733086 
Q 60.451796 30.854766 60.933046 30.854766 
L 60.933046 30.986016 
z
" clip-path="url(#p6c393ffbff)" style="stroke: #ffffff; stroke-width: 4"/>
     <path d="M 51.497891 21.170391 
L 54.648281 21.170391 
Q 55.859219 21.170391 56.527188 21.645 
Q 57.197109 22.119609 57.197109 22.932109 
Q 57.197109 23.906719 56.372891 24.531719 
Q 55.884609 24.906719 54.734219 25.170391 
L 55.8475 28.107891 
Q 56.060391 28.682109 56.290859 28.908672 
Q 56.523281 29.133281 56.935391 29.133281 
L 56.935391 29.3325 
L 55.0975 29.3325 
L 53.560391 25.281719 
L 52.734219 25.219219 
L 52.046719 27.758281 
Q 51.884609 28.3325 51.884609 28.545391 
Q 51.884609 28.8325 52.046719 28.9575 
Q 52.210781 29.0825 52.7225 29.133281 
L 52.7225 29.3325 
L 49.685391 29.3325 
L 49.685391 29.133281 
Q 50.185391 29.070781 50.390469 28.857891 
Q 50.5975 28.645 50.747891 28.070781 
L 52.234219 22.682109 
Q 52.384609 22.107891 52.384609 21.895 
Q 52.384609 21.670391 52.210781 21.545391 
Q 52.060391 21.445781 51.497891 21.369609 
L 51.497891 21.170391 
z
M 53.671719 21.920391 
L 52.884609 24.758281 
Q 53.273281 24.820781 53.523281 24.820781 
Q 54.634609 24.820781 55.259609 24.320781 
Q 55.884609 23.820781 55.884609 22.945781 
Q 55.884609 22.295391 55.495938 21.920391 
Q 55.109219 21.545391 54.384609 21.545391 
Q 53.773281 21.545391 53.671719 21.920391 
z
M 60.933046 30.986016 
L 58.517225 30.986016 
L 58.517225 30.854766 
Q 58.998475 30.828789 59.173475 30.675664 
Q 59.348475 30.522539 59.348475 30.154766 
L 59.348475 26.225469 
Q 59.348475 25.797539 59.085975 25.797539 
Q 58.964296 25.797539 58.692225 25.902812 
L 58.455702 25.990313 
L 58.455702 25.867266 
L 60.022499 25.071562 
L 60.101796 25.097539 
L 60.101796 30.321562 
Q 60.101796 30.610039 60.276796 30.733086 
Q 60.451796 30.854766 60.933046 30.854766 
L 60.933046 30.986016 
z
" clip-path="url(#p6c393ffbff)"/>
    </g>
    <g id="text_4">
     <path d="M 143.297891 21.170391 
L 146.448281 21.170391 
Q 147.659219 21.170391 148.327188 21.645 
Q 148.997109 22.119609 148.997109 22.932109 
Q 148.997109 23.906719 148.172891 24.531719 
Q 147.684609 24.906719 146.534219 25.170391 
L 147.6475 28.107891 
Q 147.860391 28.682109 148.090859 28.908672 
Q 148.323281 29.133281 148.735391 29.133281 
L 148.735391 29.3325 
L 146.8975 29.3325 
L 145.360391 25.281719 
L 144.534219 25.219219 
L 143.846719 27.758281 
Q 143.684609 28.3325 143.684609 28.545391 
Q 143.684609 28.8325 143.846719 28.9575 
Q 144.010781 29.0825 144.5225 29.133281 
L 144.5225 29.3325 
L 141.485391 29.3325 
L 141.485391 29.133281 
Q 141.985391 29.070781 142.190469 28.857891 
Q 142.3975 28.645 142.547891 28.070781 
L 144.034219 22.682109 
Q 144.184609 22.107891 144.184609 21.895 
Q 144.184609 21.670391 144.010781 21.545391 
Q 143.860391 21.445781 143.297891 21.369609 
L 143.297891 21.170391 
z
M 145.471719 21.920391 
L 144.684609 24.758281 
Q 145.073281 24.820781 145.323281 24.820781 
Q 146.434609 24.820781 147.059609 24.320781 
Q 147.684609 23.820781 147.684609 22.945781 
Q 147.684609 22.295391 147.295938 21.920391 
Q 146.909219 21.545391 146.184609 21.545391 
Q 145.573281 21.545391 145.471719 21.920391 
z
M 153.433046 29.786992 
L 152.959999 30.986016 
L 149.539296 30.986016 
L 149.539296 30.880742 
L 151.096522 29.227812 
Q 151.709022 28.587969 151.971522 28.054766 
Q 152.234022 27.521563 152.234022 26.952813 
Q 152.234022 26.366289 151.909999 26.042266 
Q 151.585975 25.718242 151.017225 25.718242 
Q 150.545546 25.718242 150.269374 25.964336 
Q 149.993202 26.209063 149.730702 26.855742 
L 149.547499 26.811992 
Q 149.696522 25.998516 150.146327 25.535039 
Q 150.597499 25.071562 151.367225 25.071562 
Q 152.093202 25.071562 152.538905 25.509062 
Q 152.985975 25.946562 152.985975 26.611016 
Q 152.985975 27.599492 151.866249 28.780742 
L 150.422499 30.321562 
L 152.470546 30.321562 
Q 152.759022 30.321562 152.928554 30.208086 
Q 153.099452 30.093242 153.309999 29.735039 
L 153.433046 29.786992 
z
" clip-path="url(#p6c393ffbff)" style="stroke: #ffffff; stroke-width: 4"/>
     <path d="M 143.297891 21.170391 
L 146.448281 21.170391 
Q 147.659219 21.170391 148.327188 21.645 
Q 148.997109 22.119609 148.997109 22.932109 
Q 148.997109 23.906719 148.172891 24.531719 
Q 147.684609 24.906719 146.534219 25.170391 
L 147.6475 28.107891 
Q 147.860391 28.682109 148.090859 28.908672 
Q 148.323281 29.133281 148.735391 29.133281 
L 148.735391 29.3325 
L 146.8975 29.3325 
L 145.360391 25.281719 
L 144.534219 25.219219 
L 143.846719 27.758281 
Q 143.684609 28.3325 143.684609 28.545391 
Q 143.684609 28.8325 143.846719 28.9575 
Q 144.010781 29.0825 144.5225 29.133281 
L 144.5225 29.3325 
L 141.485391 29.3325 
L 141.485391 29.133281 
Q 141.985391 29.070781 142.190469 28.857891 
Q 142.3975 28.645 142.547891 28.070781 
L 144.034219 22.682109 
Q 144.184609 22.107891 144.184609 21.895 
Q 144.184609 21.670391 144.010781 21.545391 
Q 143.860391 21.445781 143.297891 21.369609 
L 143.297891 21.170391 
z
M 145.471719 21.920391 
L 144.684609 24.758281 
Q 145.073281 24.820781 145.323281 24.820781 
Q 146.434609 24.820781 147.059609 24.320781 
Q 147.684609 23.820781 147.684609 22.945781 
Q 147.684609 22.295391 147.295938 21.920391 
Q 146.909219 21.545391 146.184609 21.545391 
Q 145.573281 21.545391 145.471719 21.920391 
z
M 153.433046 29.786992 
L 152.959999 30.986016 
L 149.539296 30.986016 
L 149.539296 30.880742 
L 151.096522 29.227812 
Q 151.709022 28.587969 151.971522 28.054766 
Q 152.234022 27.521563 152.234022 26.952813 
Q 152.234022 26.366289 151.909999 26.042266 
Q 151.585975 25.718242 151.017225 25.718242 
Q 150.545546 25.718242 150.269374 25.964336 
Q 149.993202 26.209063 149.730702 26.855742 
L 149.547499 26.811992 
Q 149.696522 25.998516 150.146327 25.535039 
Q 150.597499 25.071562 151.367225 25.071562 
Q 152.093202 25.071562 152.538905 25.509062 
Q 152.985975 25.946562 152.985975 26.611016 
Q 152.985975 27.599492 151.866249 28.780742 
L 150.422499 30.321562 
L 152.470546 30.321562 
Q 152.759022 30.321562 152.928554 30.208086 
Q 153.099452 30.093242 153.309999 29.735039 
L 153.433046 29.786992 
z
" clip-path="url(#p6c393ffbff)"/>
    </g>
   </g>
  </g>
  <defs>
   <clipPath id="p6c393ffbff">
    <rect x="7.2" y="7.2" width="189.72" height="46.24"/>
   </clipPath>
  </defs>
 </g>
</svg>
