<?xml version="1.0" encoding="utf-8" standalone="no"?>
<!DOCTYPE svg PUBLIC "-//W3C//DTD SVG 1.1//EN"
  "http://www.w3.org/Graphics/SVG/1.1/DTD/svg11.dtd">
<svg xmlns:xlink="http://www.w3.org/1999/xlink" width="114.717pt" height="60.64pt" viewBox="0 0 114.717 60.64" xmlns="http://www.w3.org/2000/svg" version="1.1">
 <metadata>
  <rdf:RDF xmlns:dc="http://purl.org/dc/elements/1.1/" xmlns:cc="http://creativecommons.org/ns#" xmlns:rdf="http://www.w3.org/1999/02/22-rdf-syntax-ns#">
   <cc:Work>
    <dc:type rdf:resource="http://purl.org/dc/dcmitype/StillImage"/>
    <dc:date>2023-02-10T13:23:03.792959</dc:date>
    <dc:format>image/svg+xml</dc:format>
    <dc:creator>
     <cc:Agent>
      <dc:title>Matplotlib v3.5.2, https://matplotlib.org/</dc:title>
     </cc:Agent>
    </dc:creator>
   </cc:Work>
  </rdf:RDF>
 </metadata>
 <defs>
  <style type="text/css">*{stroke-linejoin: round; stroke-linecap: butt}</style>
 </defs>
 <g id="figure_1">
  <g id="patch_1">
   <path d="M 0 60.64 
L 1 60.671436 
L 2 60.708377 
L 3 60.806123 
L 4 60.838645 
L 5 60.91227 
L 6 60.950835 
L 7 60.986248 
L 8 61.043888 
L 9 61.114274 
L 10 61.166239 
L 11 61.225328 
L 12 61.313649 
L 13 61.359794 
L 14 61.402205 
L 15 61.432697 
L 16 61.458742 
L 17 61.479942 
L 18 61.534243 
L 19 61.562181 
L 20 61.591905 
L 21 61.6173 
L 22 61.6285 
L 23 61.638624 
L 24 61.63842 
L 25 61.62891 
L 26 61.617256 
L 27 61.586227 
L 28 61.575059 
L 29 61.544942 
L 30 61.485165 
L 31 61.447973 
L 32 61.408877 
L 33 61.366437 
L 34 61.333672 
L 35 61.266246 
L 36 61.22712 
L 37 61.184445 
L 38 61.113865 
L 39 61.077474 
L 40 61.019071 
L 41 60.908118 
L 42 60.83746 
L 43 60.72452 
L 44 60.678747 
L 45 60.617464 
L 46 60.568965 
L 47 60.488142 
L 48 60.369623 
L 49 60.299412 
L 50 60.21615 
L 51 60.183008 
L 52 60.131771 
L 53 60.063372 
L 54 59.997157 
L 55 59.92024 
L 56 59.892924 
L 57 59.866447 
L 58 59.843796 
L 59 59.824265 
L 60 59.797871 
L 61 59.7481 
L 62 59.713027 
L 63 59.677161 
L 64 59.661794 
L 65 59.646025 
L 66 59.642612 
L 67 59.640195 
L 68 59.640681 
L 69 59.64261 
L 70 59.655867 
L 71 59.664258 
L 72 59.685794 
L 73 59.708827 
L 74 59.72606 
L 75 59.744523 
L 76 59.764975 
L 77 59.781575 
L 78 59.844354 
L 79 59.919619 
L 80 59.952258 
L 81 60.019822 
L 82 60.073869 
L 83 60.107573 
L 84 60.197699 
L 85 60.226234 
L 86 60.25772 
L 87 60.288731 
L 88 60.343539 
L 89 60.408126 
L 90 60.446322 
L 91 60.542256 
L 92 60.591514 
L 93 60.635583 
L 94 60.675707 
L 95 60.784074 
L 96 60.825702 
L 97 60.887844 
L 98 60.957806 
L 99 61.06231 
L 100 61.099298 
L 101 61.145175 
L 102 61.21367 
L 103 61.262416 
L 104 61.340013 
L 105 61.370554 
L 106 61.440068 
L 107 61.464041 
L 108 61.492663 
L 109 61.534456 
L 110 61.556032 
L 111 61.56998 
L 112 61.596702 
L 113 61.606012 
L 114.717 61.618459 
L 115.706514 59.64 
L 115.712178 58.64 
L 115.716942 57.64 
L 115.711394 56.64 
L 115.698106 55.64 
L 115.690589 54.64 
L 115.665804 53.64 
L 115.642235 52.64 
L 115.606055 51.64 
L 115.580093 50.64 
L 115.557771 49.64 
L 115.489011 48.64 
L 115.414476 47.64 
L 115.320497 46.64 
L 115.269445 45.64 
L 115.215511 44.64 
L 115.18026 43.64 
L 115.074172 42.64 
L 115.021908 41.64 
L 114.985001 40.64 
L 114.95397 39.64 
L 114.892815 38.64 
L 114.825395 37.64 
L 114.776489 36.64 
L 114.711297 35.64 
L 114.673109 34.64 
L 114.631113 33.64 
L 114.589096 32.64 
L 114.52958 31.64 
L 114.41642 30.64 
L 114.364169 29.64 
L 114.324751 28.64 
L 114.27765 27.64 
L 114.22087 26.64 
L 114.188207 25.64 
L 114.152029 24.64 
L 114.119939 23.64 
L 114.085659 22.64 
L 114.027281 21.64 
L 113.982096 20.64 
L 113.952472 19.64 
L 113.902086 18.64 
L 113.876889 17.64 
L 113.855838 16.64 
L 113.82087 15.64 
L 113.79658 14.64 
L 113.782513 13.64 
L 113.763571 12.64 
L 113.74791 11.64 
L 113.735358 10.64 
L 113.729522 9.64 
L 113.72264 8.64 
L 113.717466 7.64 
L 113.719249 6.64 
L 113.721974 5.64 
L 113.733128 4.64 
L 113.761363 3.64 
L 113.805151 2.64 
L 113.82584 1.64 
L 113.866813 0 
L 113.717 0.810112 
L 112.717 0.791002 
L 111.717 0.768493 
L 110.717 0.701842 
L 109.717 0.652132 
L 108.717 0.578426 
L 107.717 0.547112 
L 106.717 0.47049 
L 105.717 0.432192 
L 104.717 0.358075 
L 103.717 0.254017 
L 102.717 0.184186 
L 101.717 0.078952 
L 100.717 0.023937 
L 99.717 -0.099538 
L 98.717 -0.170097 
L 97.717 -0.285936 
L 96.717 -0.336117 
L 95.717 -0.371721 
L 94.717 -0.463128 
L 93.717 -0.516636 
L 92.717 -0.604544 
L 91.717 -0.673729 
L 90.717 -0.720493 
L 89.717 -0.792537 
L 88.717 -0.842679 
L 87.717 -0.860069 
L 86.717 -0.887072 
L 85.717 -0.906499 
L 84.717 -0.925837 
L 83.717 -0.964086 
L 82.717 -0.980519 
L 81.717 -0.988888 
L 80.717 -0.993207 
L 79.717 -0.999762 
L 78.717 -0.997216 
L 77.717 -0.991757 
L 76.717 -0.975329 
L 75.717 -0.943394 
L 74.717 -0.905414 
L 73.717 -0.87061 
L 72.717 -0.807538 
L 71.717 -0.786111 
L 70.717 -0.735493 
L 69.717 -0.710536 
L 68.717 -0.654902 
L 67.717 -0.623673 
L 66.717 -0.573529 
L 65.717 -0.541036 
L 64.717 -0.460624 
L 63.717 -0.391698 
L 62.717 -0.276001 
L 61.717 -0.200522 
L 60.717 -0.084997 
L 59.717 -0.005513 
L 58.717 0.102928 
L 57.717 0.142296 
L 56.717 0.245164 
L 55.717 0.344962 
L 54.717 0.390459 
L 53.717 0.424781 
L 52.717 0.476737 
L 51.717 0.516384 
L 50.717 0.551898 
L 49.717 0.619543 
L 48.717 0.658625 
L 47.717 0.709106 
L 46.717 0.758412 
L 45.717 0.809482 
L 44.717 0.853721 
L 43.717 0.875741 
L 42.717 0.891297 
L 41.717 0.933744 
L 40.717 0.948612 
L 39.717 0.97134 
L 38.717 0.991656 
L 37.717 0.997453 
L 36.717 0.999935 
L 35.717 0.996878 
L 34.717 0.985282 
L 33.717 0.968362 
L 32.717 0.936701 
L 31.717 0.922618 
L 30.717 0.869946 
L 29.717 0.820857 
L 28.717 0.766156 
L 27.717 0.721808 
L 26.717 0.651816 
L 25.717 0.601433 
L 24.717 0.547526 
L 23.717 0.478087 
L 22.717 0.420699 
L 21.717 0.370534 
L 20.717 0.293372 
L 19.717 0.235182 
L 18.717 0.174544 
L 17.717 0.137343 
L 16.717 0.072251 
L 15.717 -0.032879 
L 14.717 -0.093181 
L 13.717 -0.189503 
L 12.717 -0.221506 
L 11.717 -0.272523 
L 10.717 -0.389315 
L 9.717 -0.424762 
L 8.717 -0.480642 
L 7.717 -0.511018 
L 6.717 -0.599404 
L 5.717 -0.644168 
L 4.717 -0.725056 
L 3.717 -0.785202 
L 2.717 -0.848288 
L 1.717 -0.871236 
L 0 -0.887406 
L -0.916335 1 
L -0.946687 2 
L -0.959261 3 
L -0.98414 4 
L -0.996224 5 
L -0.999986 6 
L -0.99555 7 
L -0.983211 8 
L -0.968798 9 
L -0.952725 10 
L -0.917204 11 
L -0.89727 12 
L -0.840681 13 
L -0.773487 14 
L -0.746117 15 
L -0.711969 16 
L -0.663289 17 
L -0.615004 18 
L -0.555927 19 
L -0.460322 20 
L -0.417182 21 
L -0.367334 22 
L -0.3088 23 
L -0.261214 24 
L -0.200086 25 
L -0.144001 26 
L -0.06983 27 
L 0.047408 28 
L 0.103132 29 
L 0.211358 30 
L 0.317508 31 
L 0.42508 32 
L 0.459588 33 
L 0.562895 34 
L 0.638619 35 
L 0.678054 36 
L 0.717438 37 
L 0.73992 38 
L 0.795733 39 
L 0.821785 40 
L 0.85202 41 
L 0.902791 42 
L 0.921442 43 
L 0.943151 44 
L 0.955797 45 
L 0.97479 46 
L 0.99218 47 
L 0.999218 48 
L 0.998194 49 
L 0.99119 50 
L 0.98182 51 
L 0.958422 52 
L 0.933339 53 
L 0.92094 54 
L 0.887847 55 
L 0.87148 56 
L 0.853075 57 
L 0.803938 58 
L 0.760125 59 
L 0.71704 60.64 
L 0 60.64 
z
" style="fill: none; stroke: #ffffff; stroke-width: 4; stroke-linejoin: miter"/>
   <path d="M 0 60.64 
L 1 60.671436 
L 2 60.708377 
L 3 60.806123 
L 4 60.838645 
L 5 60.91227 
L 6 60.950835 
L 7 60.986248 
L 8 61.043888 
L 9 61.114274 
L 10 61.166239 
L 11 61.225328 
L 12 61.313649 
L 13 61.359794 
L 14 61.402205 
L 15 61.432697 
L 16 61.458742 
L 17 61.479942 
L 18 61.534243 
L 19 61.562181 
L 20 61.591905 
L 21 61.6173 
L 22 61.6285 
L 23 61.638624 
L 24 61.63842 
L 25 61.62891 
L 26 61.617256 
L 27 61.586227 
L 28 61.575059 
L 29 61.544942 
L 30 61.485165 
L 31 61.447973 
L 32 61.408877 
L 33 61.366437 
L 34 61.333672 
L 35 61.266246 
L 36 61.22712 
L 37 61.184445 
L 38 61.113865 
L 39 61.077474 
L 40 61.019071 
L 41 60.908118 
L 42 60.83746 
L 43 60.72452 
L 44 60.678747 
L 45 60.617464 
L 46 60.568965 
L 47 60.488142 
L 48 60.369623 
L 49 60.299412 
L 50 60.21615 
L 51 60.183008 
L 52 60.131771 
L 53 60.063372 
L 54 59.997157 
L 55 59.92024 
L 56 59.892924 
L 57 59.866447 
L 58 59.843796 
L 59 59.824265 
L 60 59.797871 
L 61 59.7481 
L 62 59.713027 
L 63 59.677161 
L 64 59.661794 
L 65 59.646025 
L 66 59.642612 
L 67 59.640195 
L 68 59.640681 
L 69 59.64261 
L 70 59.655867 
L 71 59.664258 
L 72 59.685794 
L 73 59.708827 
L 74 59.72606 
L 75 59.744523 
L 76 59.764975 
L 77 59.781575 
L 78 59.844354 
L 79 59.919619 
L 80 59.952258 
L 81 60.019822 
L 82 60.073869 
L 83 60.107573 
L 84 60.197699 
L 85 60.226234 
L 86 60.25772 
L 87 60.288731 
L 88 60.343539 
L 89 60.408126 
L 90 60.446322 
L 91 60.542256 
L 92 60.591514 
L 93 60.635583 
L 94 60.675707 
L 95 60.784074 
L 96 60.825702 
L 97 60.887844 
L 98 60.957806 
L 99 61.06231 
L 100 61.099298 
L 101 61.145175 
L 102 61.21367 
L 103 61.262416 
L 104 61.340013 
L 105 61.370554 
L 106 61.440068 
L 107 61.464041 
L 108 61.492663 
L 109 61.534456 
L 110 61.556032 
L 111 61.56998 
L 112 61.596702 
L 113 61.606012 
L 114.717 61.618459 
L 115.706514 59.64 
L 115.712178 58.64 
L 115.716942 57.64 
L 115.711394 56.64 
L 115.698106 55.64 
L 115.690589 54.64 
L 115.665804 53.64 
L 115.642235 52.64 
L 115.606055 51.64 
L 115.580093 50.64 
L 115.557771 49.64 
L 115.489011 48.64 
L 115.414476 47.64 
L 115.320497 46.64 
L 115.269445 45.64 
L 115.215511 44.64 
L 115.18026 43.64 
L 115.074172 42.64 
L 115.021908 41.64 
L 114.985001 40.64 
L 114.95397 39.64 
L 114.892815 38.64 
L 114.825395 37.64 
L 114.776489 36.64 
L 114.711297 35.64 
L 114.673109 34.64 
L 114.631113 33.64 
L 114.589096 32.64 
L 114.52958 31.64 
L 114.41642 30.64 
L 114.364169 29.64 
L 114.324751 28.64 
L 114.27765 27.64 
L 114.22087 26.64 
L 114.188207 25.64 
L 114.152029 24.64 
L 114.119939 23.64 
L 114.085659 22.64 
L 114.027281 21.64 
L 113.982096 20.64 
L 113.952472 19.64 
L 113.902086 18.64 
L 113.876889 17.64 
L 113.855838 16.64 
L 113.82087 15.64 
L 113.79658 14.64 
L 113.782513 13.64 
L 113.763571 12.64 
L 113.74791 11.64 
L 113.735358 10.64 
L 113.729522 9.64 
L 113.72264 8.64 
L 113.717466 7.64 
L 113.719249 6.64 
L 113.721974 5.64 
L 113.733128 4.64 
L 113.761363 3.64 
L 113.805151 2.64 
L 113.82584 1.64 
L 113.866813 0 
L 113.717 0.810112 
L 112.717 0.791002 
L 111.717 0.768493 
L 110.717 0.701842 
L 109.717 0.652132 
L 108.717 0.578426 
L 107.717 0.547112 
L 106.717 0.47049 
L 105.717 0.432192 
L 104.717 0.358075 
L 103.717 0.254017 
L 102.717 0.184186 
L 101.717 0.078952 
L 100.717 0.023937 
L 99.717 -0.099538 
L 98.717 -0.170097 
L 97.717 -0.285936 
L 96.717 -0.336117 
L 95.717 -0.371721 
L 94.717 -0.463128 
L 93.717 -0.516636 
L 92.717 -0.604544 
L 91.717 -0.673729 
L 90.717 -0.720493 
L 89.717 -0.792537 
L 88.717 -0.842679 
L 87.717 -0.860069 
L 86.717 -0.887072 
L 85.717 -0.906499 
L 84.717 -0.925837 
L 83.717 -0.964086 
L 82.717 -0.980519 
L 81.717 -0.988888 
L 80.717 -0.993207 
L 79.717 -0.999762 
L 78.717 -0.997216 
L 77.717 -0.991757 
L 76.717 -0.975329 
L 75.717 -0.943394 
L 74.717 -0.905414 
L 73.717 -0.87061 
L 72.717 -0.807538 
L 71.717 -0.786111 
L 70.717 -0.735493 
L 69.717 -0.710536 
L 68.717 -0.654902 
L 67.717 -0.623673 
L 66.717 -0.573529 
L 65.717 -0.541036 
L 64.717 -0.460624 
L 63.717 -0.391698 
L 62.717 -0.276001 
L 61.717 -0.200522 
L 60.717 -0.084997 
L 59.717 -0.005513 
L 58.717 0.102928 
L 57.717 0.142296 
L 56.717 0.245164 
L 55.717 0.344962 
L 54.717 0.390459 
L 53.717 0.424781 
L 52.717 0.476737 
L 51.717 0.516384 
L 50.717 0.551898 
L 49.717 0.619543 
L 48.717 0.658625 
L 47.717 0.709106 
L 46.717 0.758412 
L 45.717 0.809482 
L 44.717 0.853721 
L 43.717 0.875741 
L 42.717 0.891297 
L 41.717 0.933744 
L 40.717 0.948612 
L 39.717 0.97134 
L 38.717 0.991656 
L 37.717 0.997453 
L 36.717 0.999935 
L 35.717 0.996878 
L 34.717 0.985282 
L 33.717 0.968362 
L 32.717 0.936701 
L 31.717 0.922618 
L 30.717 0.869946 
L 29.717 0.820857 
L 28.717 0.766156 
L 27.717 0.721808 
L 26.717 0.651816 
L 25.717 0.601433 
L 24.717 0.547526 
L 23.717 0.478087 
L 22.717 0.420699 
L 21.717 0.370534 
L 20.717 0.293372 
L 19.717 0.235182 
L 18.717 0.174544 
L 17.717 0.137343 
L 16.717 0.072251 
L 15.717 -0.032879 
L 14.717 -0.093181 
L 13.717 -0.189503 
L 12.717 -0.221506 
L 11.717 -0.272523 
L 10.717 -0.389315 
L 9.717 -0.424762 
L 8.717 -0.480642 
L 7.717 -0.511018 
L 6.717 -0.599404 
L 5.717 -0.644168 
L 4.717 -0.725056 
L 3.717 -0.785202 
L 2.717 -0.848288 
L 1.717 -0.871236 
L 0 -0.887406 
L -0.916335 1 
L -0.946687 2 
L -0.959261 3 
L -0.98414 4 
L -0.996224 5 
L -0.999986 6 
L -0.99555 7 
L -0.983211 8 
L -0.968798 9 
L -0.952725 10 
L -0.917204 11 
L -0.89727 12 
L -0.840681 13 
L -0.773487 14 
L -0.746117 15 
L -0.711969 16 
L -0.663289 17 
L -0.615004 18 
L -0.555927 19 
L -0.460322 20 
L -0.417182 21 
L -0.367334 22 
L -0.3088 23 
L -0.261214 24 
L -0.200086 25 
L -0.144001 26 
L -0.06983 27 
L 0.047408 28 
L 0.103132 29 
L 0.211358 30 
L 0.317508 31 
L 0.42508 32 
L 0.459588 33 
L 0.562895 34 
L 0.638619 35 
L 0.678054 36 
L 0.717438 37 
L 0.73992 38 
L 0.795733 39 
L 0.821785 40 
L 0.85202 41 
L 0.902791 42 
L 0.921442 43 
L 0.943151 44 
L 0.955797 45 
L 0.97479 46 
L 0.99218 47 
L 0.999218 48 
L 0.998194 49 
L 0.99119 50 
L 0.98182 51 
L 0.958422 52 
L 0.933339 53 
L 0.92094 54 
L 0.887847 55 
L 0.87148 56 
L 0.853075 57 
L 0.803938 58 
L 0.760125 59 
L 0.71704 60.64 
L 0 60.64 
z
" style="fill: none"/>
   <g id="axes_1">
    <path d="M 10.26 42.73 
L 11.26 42.761436 
L 12.26 42.798377 
L 13.26 42.896123 
L 14.26 42.928645 
L 15.26 43.00227 
L 16.26 43.040835 
L 17.26 43.076248 
L 18.26 43.133888 
L 19.26 43.204274 
L 20.26 43.256239 
L 21.26 43.315328 
L 22.26 43.403649 
L 23.26 43.449794 
L 24.26 43.492205 
L 25.26 43.522697 
L 26.26 43.548742 
L 27.26 43.569942 
L 28.26 43.624243 
L 29.26 43.652181 
L 30.26 43.681905 
L 31.26 43.7073 
L 32.26 43.7185 
L 33.26 43.728624 
L 34.26 43.72842 
L 35.26 43.71891 
L 36.26 43.707256 
L 37.26 43.676227 
L 38.26 43.665059 
L 39.26 43.634942 
L 40.86 43.575165 
L 41.942738 42.03682 
L 42.221876 41.075774 
L 42.497842 40.11367 
L 42.782986 39.154625 
L 43.035248 38.18462 
L 43.314357 37.223564 
L 43.590101 36.261386 
L 43.859548 35.229849 
L 43.311204 36.167025 
L 43.682837 37.097239 
L 44.104324 38.010836 
L 44.487584 38.937175 
L 44.910956 39.850144 
L 45.270608 40.784353 
L 45.644974 41.713657 
L 46.007212 42.647003 
L 46.400115 43.570128 
L 46.82878 44.481332 
L 47.211615 45.407813 
L 47.606833 46.330166 
L 47.954501 47.268369 
L 48.319337 48.20085 
L 48.700453 49.127904 
L 49.119854 50.176715 
L 48.143403 49.203709 
L 48.433717 48.246387 
L 48.724826 47.289331 
L 49.019566 46.333485 
L 49.317265 45.378625 
L 49.608453 44.421596 
L 49.877464 43.457173 
L 50.160418 42.497399 
L 50.442621 41.537374 
L 50.74427 40.583831 
L 51.045538 39.630161 
L 51.358528 38.680399 
L 51.672462 37.730951 
L 51.989151 36.782421 
L 52.307209 35.834348 
L 52.67637 34.76879 
L 54.851898 35.720126 
L 55.147694 36.67562 
L 55.442072 37.631587 
L 55.74195 38.58572 
L 56.040663 39.540242 
L 56.337488 40.495393 
L 56.637968 41.449325 
L 56.894638 42.417861 
L 57.139463 43.390345 
L 57.424727 44.34935 
L 57.676858 45.319399 
L 57.941813 46.285173 
L 58.226065 47.244515 
L 58.456792 48.221698 
L 58.745949 49.179405 
L 59.072662 50.259113 
L 58.692985 49.320236 
L 59.061208 48.388884 
L 59.438709 47.460625 
L 59.791172 46.52402 
L 60.198411 45.605674 
L 60.561369 44.672568 
L 60.919404 43.73782 
L 61.273697 42.801825 
L 61.692731 41.887411 
L 62.04845 40.951891 
L 62.42363 40.022859 
L 62.80623 39.096299 
L 63.2216 38.180663 
L 63.572917 37.243677 
L 63.932668 36.309501 
L 64.354231 35.26141 
L 63.535753 36.225508 
L 63.778365 37.19873 
L 64.065619 38.157071 
L 64.3159 39.127737 
L 64.609385 40.084001 
L 64.89846 41.041735 
L 65.175039 42.003635 
L 65.470798 42.959141 
L 65.773794 43.912235 
L 66.06467 44.869369 
L 66.372066 45.820996 
L 66.676486 46.773615 
L 66.982226 47.725795 
L 67.29308 48.676269 
L 67.604788 49.626459 
L 67.966635 50.694455 
L 70.156987 49.74157 
L 70.466083 48.790509 
L 70.758798 47.833988 
L 71.052666 46.877852 
L 71.33457 45.917727 
L 71.626168 44.960834 
L 71.92122 44.005092 
L 72.192394 42.974131 
L 72.46 43.427476 
L 73.46 43.333497 
L 74.46 43.282445 
L 75.46 43.228511 
L 76.46 43.19326 
L 77.46 43.087172 
L 78.46 43.034908 
L 79.46 42.998001 
L 80.46 42.96697 
L 81.46 42.905815 
L 82.46 42.838395 
L 83.46 42.789489 
L 84.46 42.724297 
L 85.46 42.686109 
L 86.46 42.644113 
L 87.46 42.602096 
L 88.46 42.54258 
L 89.46 42.42942 
L 90.46 42.377169 
L 91.46 42.337751 
L 92.46 42.29065 
L 93.46 42.23387 
L 94.46 42.201207 
L 95.46 42.165029 
L 96.46 42.132939 
L 97.46 42.098659 
L 98.46 42.040281 
L 99.46 41.995096 
L 100.46 41.965472 
L 102.06 41.915086 
" clip-path="url(#p50f0289508)" style="fill: none; stroke: #ffffff; stroke-width: 4; stroke-linecap: round"/>
    <path d="M 10.26 42.73 
L 11.26 42.761436 
L 12.26 42.798377 
L 13.26 42.896123 
L 14.26 42.928645 
L 15.26 43.00227 
L 16.26 43.040835 
L 17.26 43.076248 
L 18.26 43.133888 
L 19.26 43.204274 
L 20.26 43.256239 
L 21.26 43.315328 
L 22.26 43.403649 
L 23.26 43.449794 
L 24.26 43.492205 
L 25.26 43.522697 
L 26.26 43.548742 
L 27.26 43.569942 
L 28.26 43.624243 
L 29.26 43.652181 
L 30.26 43.681905 
L 31.26 43.7073 
L 32.26 43.7185 
L 33.26 43.728624 
L 34.26 43.72842 
L 35.26 43.71891 
L 36.26 43.707256 
L 37.26 43.676227 
L 38.26 43.665059 
L 39.26 43.634942 
L 40.86 43.575165 
L 41.942738 42.03682 
L 42.221876 41.075774 
L 42.497842 40.11367 
L 42.782986 39.154625 
L 43.035248 38.18462 
L 43.314357 37.223564 
L 43.590101 36.261386 
L 43.859548 35.229849 
L 43.311204 36.167025 
L 43.682837 37.097239 
L 44.104324 38.010836 
L 44.487584 38.937175 
L 44.910956 39.850144 
L 45.270608 40.784353 
L 45.644974 41.713657 
L 46.007212 42.647003 
L 46.400115 43.570128 
L 46.82878 44.481332 
L 47.211615 45.407813 
L 47.606833 46.330166 
L 47.954501 47.268369 
L 48.319337 48.20085 
L 48.700453 49.127904 
L 49.119854 50.176715 
L 48.143403 49.203709 
L 48.433717 48.246387 
L 48.724826 47.289331 
L 49.019566 46.333485 
L 49.317265 45.378625 
L 49.608453 44.421596 
L 49.877464 43.457173 
L 50.160418 42.497399 
L 50.442621 41.537374 
L 50.74427 40.583831 
L 51.045538 39.630161 
L 51.358528 38.680399 
L 51.672462 37.730951 
L 51.989151 36.782421 
L 52.307209 35.834348 
L 52.67637 34.76879 
L 54.851898 35.720126 
L 55.147694 36.67562 
L 55.442072 37.631587 
L 55.74195 38.58572 
L 56.040663 39.540242 
L 56.337488 40.495393 
L 56.637968 41.449325 
L 56.894638 42.417861 
L 57.139463 43.390345 
L 57.424727 44.34935 
L 57.676858 45.319399 
L 57.941813 46.285173 
L 58.226065 47.244515 
L 58.456792 48.221698 
L 58.745949 49.179405 
L 59.072662 50.259113 
L 58.692985 49.320236 
L 59.061208 48.388884 
L 59.438709 47.460625 
L 59.791172 46.52402 
L 60.198411 45.605674 
L 60.561369 44.672568 
L 60.919404 43.73782 
L 61.273697 42.801825 
L 61.692731 41.887411 
L 62.04845 40.951891 
L 62.42363 40.022859 
L 62.80623 39.096299 
L 63.2216 38.180663 
L 63.572917 37.243677 
L 63.932668 36.309501 
L 64.354231 35.26141 
L 63.535753 36.225508 
L 63.778365 37.19873 
L 64.065619 38.157071 
L 64.3159 39.127737 
L 64.609385 40.084001 
L 64.89846 41.041735 
L 65.175039 42.003635 
L 65.470798 42.959141 
L 65.773794 43.912235 
L 66.06467 44.869369 
L 66.372066 45.820996 
L 66.676486 46.773615 
L 66.982226 47.725795 
L 67.29308 48.676269 
L 67.604788 49.626459 
L 67.966635 50.694455 
L 70.156987 49.74157 
L 70.466083 48.790509 
L 70.758798 47.833988 
L 71.052666 46.877852 
L 71.33457 45.917727 
L 71.626168 44.960834 
L 71.92122 44.005092 
L 72.192394 42.974131 
L 72.46 43.427476 
L 73.46 43.333497 
L 74.46 43.282445 
L 75.46 43.228511 
L 76.46 43.19326 
L 77.46 43.087172 
L 78.46 43.034908 
L 79.46 42.998001 
L 80.46 42.96697 
L 81.46 42.905815 
L 82.46 42.838395 
L 83.46 42.789489 
L 84.46 42.724297 
L 85.46 42.686109 
L 86.46 42.644113 
L 87.46 42.602096 
L 88.46 42.54258 
L 89.46 42.42942 
L 90.46 42.377169 
L 91.46 42.337751 
L 92.46 42.29065 
L 93.46 42.23387 
L 94.46 42.201207 
L 95.46 42.165029 
L 96.46 42.132939 
L 97.46 42.098659 
L 98.46 42.040281 
L 99.46 41.995096 
L 100.46 41.965472 
L 102.06 41.915086 
" clip-path="url(#p50f0289508)" style="fill: none; stroke: #000000; stroke-width: 2; stroke-linecap: round"/>
    <path d="M 10.26 42.73 
L 11.26 42.761436 
L 12.26 42.798377 
L 13.26 42.896123 
L 14.26 42.928645 
L 15.26 43.00227 
L 16.26 43.040835 
L 17.26 43.076248 
L 18.26 43.133888 
L 19.26 43.204274 
L 20.26 43.256239 
L 21.26 43.315328 
L 22.26 43.403649 
L 23.26 43.449794 
L 24.26 43.492205 
L 25.26 43.522697 
L 26.26 43.548742 
L 27.26 43.569942 
L 28.26 43.624243 
L 29.26 43.652181 
L 30.26 43.681905 
L 31.26 43.7073 
L 32.26 43.7185 
L 33.26 43.728624 
L 34.26 43.72842 
L 35.26 43.71891 
L 36.26 43.707256 
L 37.26 43.676227 
L 38.26 43.665059 
L 39.26 43.634942 
L 40.86 43.575165 
L 41.942738 42.03682 
L 42.221876 41.075774 
L 42.497842 40.11367 
L 42.782986 39.154625 
L 43.035248 38.18462 
L 43.314357 37.223564 
L 43.590101 36.261386 
L 43.859548 35.229849 
L 43.311204 36.167025 
L 43.682837 37.097239 
L 44.104324 38.010836 
L 44.487584 38.937175 
L 44.910956 39.850144 
L 45.270608 40.784353 
L 45.644974 41.713657 
L 46.007212 42.647003 
L 46.400115 43.570128 
L 46.82878 44.481332 
L 47.211615 45.407813 
L 47.606833 46.330166 
L 47.954501 47.268369 
L 48.319337 48.20085 
L 48.700453 49.127904 
L 49.119854 50.176715 
L 48.143403 49.203709 
L 48.433717 48.246387 
L 48.724826 47.289331 
L 49.019566 46.333485 
L 49.317265 45.378625 
L 49.608453 44.421596 
L 49.877464 43.457173 
L 50.160418 42.497399 
L 50.442621 41.537374 
L 50.74427 40.583831 
L 51.045538 39.630161 
L 51.358528 38.680399 
L 51.672462 37.730951 
L 51.989151 36.782421 
L 52.307209 35.834348 
L 52.67637 34.76879 
L 54.851898 35.720126 
L 55.147694 36.67562 
L 55.442072 37.631587 
L 55.74195 38.58572 
L 56.040663 39.540242 
L 56.337488 40.495393 
L 56.637968 41.449325 
L 56.894638 42.417861 
L 57.139463 43.390345 
L 57.424727 44.34935 
L 57.676858 45.319399 
L 57.941813 46.285173 
L 58.226065 47.244515 
L 58.456792 48.221698 
L 58.745949 49.179405 
L 59.072662 50.259113 
L 58.692985 49.320236 
L 59.061208 48.388884 
L 59.438709 47.460625 
L 59.791172 46.52402 
L 60.198411 45.605674 
L 60.561369 44.672568 
L 60.919404 43.73782 
L 61.273697 42.801825 
L 61.692731 41.887411 
L 62.04845 40.951891 
L 62.42363 40.022859 
L 62.80623 39.096299 
L 63.2216 38.180663 
L 63.572917 37.243677 
L 63.932668 36.309501 
L 64.354231 35.26141 
L 63.535753 36.225508 
L 63.778365 37.19873 
L 64.065619 38.157071 
L 64.3159 39.127737 
L 64.609385 40.084001 
L 64.89846 41.041735 
L 65.175039 42.003635 
L 65.470798 42.959141 
L 65.773794 43.912235 
L 66.06467 44.869369 
L 66.372066 45.820996 
L 66.676486 46.773615 
L 66.982226 47.725795 
L 67.29308 48.676269 
L 67.604788 49.626459 
L 67.966635 50.694455 
L 70.156987 49.74157 
L 70.466083 48.790509 
L 70.758798 47.833988 
L 71.052666 46.877852 
L 71.33457 45.917727 
L 71.626168 44.960834 
L 71.92122 44.005092 
L 72.192394 42.974131 
L 72.46 43.427476 
L 73.46 43.333497 
L 74.46 43.282445 
L 75.46 43.228511 
L 76.46 43.19326 
L 77.46 43.087172 
L 78.46 43.034908 
L 79.46 42.998001 
L 80.46 42.96697 
L 81.46 42.905815 
L 82.46 42.838395 
L 83.46 42.789489 
L 84.46 42.724297 
L 85.46 42.686109 
L 86.46 42.644113 
L 87.46 42.602096 
L 88.46 42.54258 
L 89.46 42.42942 
L 90.46 42.377169 
L 91.46 42.337751 
L 92.46 42.29065 
L 93.46 42.23387 
L 94.46 42.201207 
L 95.46 42.165029 
L 96.46 42.132939 
L 97.46 42.098659 
L 98.46 42.040281 
L 99.46 41.995096 
L 100.46 41.965472 
L 102.06 41.915086 
" clip-path="url(#p50f0289508)" style="fill: none; stroke: #ffffff; stroke-width: 4; stroke-linecap: round"/>
    <path d="M 10.26 42.73 
L 11.26 42.761436 
L 12.26 42.798377 
L 13.26 42.896123 
L 14.26 42.928645 
L 15.26 43.00227 
L 16.26 43.040835 
L 17.26 43.076248 
L 18.26 43.133888 
L 19.26 43.204274 
L 20.26 43.256239 
L 21.26 43.315328 
L 22.26 43.403649 
L 23.26 43.449794 
L 24.26 43.492205 
L 25.26 43.522697 
L 26.26 43.548742 
L 27.26 43.569942 
L 28.26 43.624243 
L 29.26 43.652181 
L 30.26 43.681905 
L 31.26 43.7073 
L 32.26 43.7185 
L 33.26 43.728624 
L 34.26 43.72842 
L 35.26 43.71891 
L 36.26 43.707256 
L 37.26 43.676227 
L 38.26 43.665059 
L 39.26 43.634942 
L 40.86 43.575165 
L 41.942738 42.03682 
L 42.221876 41.075774 
L 42.497842 40.11367 
L 42.782986 39.154625 
L 43.035248 38.18462 
L 43.314357 37.223564 
L 43.590101 36.261386 
L 43.859548 35.229849 
L 43.311204 36.167025 
L 43.682837 37.097239 
L 44.104324 38.010836 
L 44.487584 38.937175 
L 44.910956 39.850144 
L 45.270608 40.784353 
L 45.644974 41.713657 
L 46.007212 42.647003 
L 46.400115 43.570128 
L 46.82878 44.481332 
L 47.211615 45.407813 
L 47.606833 46.330166 
L 47.954501 47.268369 
L 48.319337 48.20085 
L 48.700453 49.127904 
L 49.119854 50.176715 
L 48.143403 49.203709 
L 48.433717 48.246387 
L 48.724826 47.289331 
L 49.019566 46.333485 
L 49.317265 45.378625 
L 49.608453 44.421596 
L 49.877464 43.457173 
L 50.160418 42.497399 
L 50.442621 41.537374 
L 50.74427 40.583831 
L 51.045538 39.630161 
L 51.358528 38.680399 
L 51.672462 37.730951 
L 51.989151 36.782421 
L 52.307209 35.834348 
L 52.67637 34.76879 
L 54.851898 35.720126 
L 55.147694 36.67562 
L 55.442072 37.631587 
L 55.74195 38.58572 
L 56.040663 39.540242 
L 56.337488 40.495393 
L 56.637968 41.449325 
L 56.894638 42.417861 
L 57.139463 43.390345 
L 57.424727 44.34935 
L 57.676858 45.319399 
L 57.941813 46.285173 
L 58.226065 47.244515 
L 58.456792 48.221698 
L 58.745949 49.179405 
L 59.072662 50.259113 
L 58.692985 49.320236 
L 59.061208 48.388884 
L 59.438709 47.460625 
L 59.791172 46.52402 
L 60.198411 45.605674 
L 60.561369 44.672568 
L 60.919404 43.73782 
L 61.273697 42.801825 
L 61.692731 41.887411 
L 62.04845 40.951891 
L 62.42363 40.022859 
L 62.80623 39.096299 
L 63.2216 38.180663 
L 63.572917 37.243677 
L 63.932668 36.309501 
L 64.354231 35.26141 
L 63.535753 36.225508 
L 63.778365 37.19873 
L 64.065619 38.157071 
L 64.3159 39.127737 
L 64.609385 40.084001 
L 64.89846 41.041735 
L 65.175039 42.003635 
L 65.470798 42.959141 
L 65.773794 43.912235 
L 66.06467 44.869369 
L 66.372066 45.820996 
L 66.676486 46.773615 
L 66.982226 47.725795 
L 67.29308 48.676269 
L 67.604788 49.626459 
L 67.966635 50.694455 
L 70.156987 49.74157 
L 70.466083 48.790509 
L 70.758798 47.833988 
L 71.052666 46.877852 
L 71.33457 45.917727 
L 71.626168 44.960834 
L 71.92122 44.005092 
L 72.192394 42.974131 
L 72.46 43.427476 
L 73.46 43.333497 
L 74.46 43.282445 
L 75.46 43.228511 
L 76.46 43.19326 
L 77.46 43.087172 
L 78.46 43.034908 
L 79.46 42.998001 
L 80.46 42.96697 
L 81.46 42.905815 
L 82.46 42.838395 
L 83.46 42.789489 
L 84.46 42.724297 
L 85.46 42.686109 
L 86.46 42.644113 
L 87.46 42.602096 
L 88.46 42.54258 
L 89.46 42.42942 
L 90.46 42.377169 
L 91.46 42.337751 
L 92.46 42.29065 
L 93.46 42.23387 
L 94.46 42.201207 
L 95.46 42.165029 
L 96.46 42.132939 
L 97.46 42.098659 
L 98.46 42.040281 
L 99.46 41.995096 
L 100.46 41.965472 
L 102.06 41.915086 
" clip-path="url(#p50f0289508)" style="fill: none; stroke: #000000; stroke-width: 2; stroke-linecap: round"/>
    <g id="text_1">
     <path d="M 26.747891 21.170391 
L 29.898281 21.170391 
Q 31.109219 21.170391 31.777187 21.645 
Q 32.447109 22.119609 32.447109 22.932109 
Q 32.447109 23.906719 31.622891 24.531719 
Q 31.134609 24.906719 29.984219 25.170391 
L 31.0975 28.107891 
Q 31.310391 28.682109 31.540859 28.908672 
Q 31.773281 29.133281 32.185391 29.133281 
L 32.185391 29.3325 
L 30.3475 29.3325 
L 28.810391 25.281719 
L 27.984219 25.219219 
L 27.296719 27.758281 
Q 27.134609 28.3325 27.134609 28.545391 
Q 27.134609 28.8325 27.296719 28.9575 
Q 27.460781 29.0825 27.9725 29.133281 
L 27.9725 29.3325 
L 24.935391 29.3325 
L 24.935391 29.133281 
Q 25.435391 29.070781 25.640469 28.857891 
Q 25.8475 28.645 25.997891 28.070781 
L 27.484219 22.682109 
Q 27.634609 22.107891 27.634609 21.895 
Q 27.634609 21.670391 27.460781 21.545391 
Q 27.310391 21.445781 26.747891 21.369609 
L 26.747891 21.170391 
z
M 28.921719 21.920391 
L 28.134609 24.758281 
Q 28.523281 24.820781 28.773281 24.820781 
Q 29.884609 24.820781 30.509609 24.320781 
Q 31.134609 23.820781 31.134609 22.945781 
Q 31.134609 22.295391 30.745937 21.920391 
Q 30.359219 21.545391 29.634609 21.545391 
Q 29.023281 21.545391 28.921719 21.920391 
z
M 37.179725 25.149492 
L 36.829725 26.899492 
L 36.672499 26.873516 
Q 36.672499 26.147539 36.453749 25.797539 
Q 36.234999 25.447539 35.630702 25.447539 
Q 35.176796 25.447539 34.914296 25.679961 
Q 34.651796 25.911016 34.651796 26.322539 
Q 34.651796 26.654766 34.791249 26.877617 
Q 34.930702 27.100469 35.517225 27.686992 
Q 36.103749 28.281719 36.304725 28.641289 
Q 36.505702 28.999492 36.505702 29.436992 
Q 36.505702 30.180742 36.002577 30.661992 
Q 35.499452 31.143242 34.739296 31.143242 
Q 34.405702 31.143242 33.828749 30.942266 
Q 33.548475 30.836992 33.417225 30.836992 
Q 33.128749 30.836992 33.041249 31.117266 
L 32.884022 31.117266 
L 33.180702 29.156719 
L 33.355702 29.174492 
Q 33.339296 29.253789 33.339296 29.375469 
Q 33.339296 30.015313 33.693397 30.426836 
Q 34.047499 30.836992 34.598475 30.836992 
Q 35.105702 30.836992 35.425624 30.526641 
Q 35.745546 30.216289 35.745546 29.717266 
Q 35.745546 29.428789 35.630702 29.197734 
Q 35.517225 28.965312 35.220546 28.641289 
L 34.878749 28.273516 
Q 34.852772 28.247539 34.729725 28.112188 
Q 34.608046 27.975469 34.536952 27.905742 
Q 34.143202 27.486016 34.011952 27.219414 
Q 33.880702 26.952813 33.880702 26.593242 
Q 33.880702 25.928789 34.331874 25.544609 
Q 34.783046 25.159063 35.439296 25.159063 
Q 35.893202 25.159063 36.183046 25.280742 
Q 36.435975 25.377813 36.584999 25.377813 
Q 36.734022 25.377813 36.811952 25.334063 
Q 36.891249 25.290312 36.978749 25.149492 
L 37.179725 25.149492 
z
M 47.42906 25.3325 
L 40.065778 25.3325 
L 40.065778 24.508281 
L 47.42906 24.508281 
L 47.42906 25.3325 
z
M 47.42906 27.8325 
L 40.065778 27.8325 
L 40.065778 27.008281 
L 47.42906 27.008281 
L 47.42906 27.8325 
z
M 51.484057 21.170391 
L 54.634448 21.170391 
Q 55.845385 21.170391 56.513354 21.645 
Q 57.183276 22.119609 57.183276 22.932109 
Q 57.183276 23.906719 56.359057 24.531719 
Q 55.870776 24.906719 54.720385 25.170391 
L 55.833667 28.107891 
Q 56.046557 28.682109 56.277026 28.908672 
Q 56.509448 29.133281 56.921557 29.133281 
L 56.921557 29.3325 
L 55.083667 29.3325 
L 53.546557 25.281719 
L 52.720385 25.219219 
L 52.032885 27.758281 
Q 51.870776 28.3325 51.870776 28.545391 
Q 51.870776 28.8325 52.032885 28.9575 
Q 52.196948 29.0825 52.708667 29.133281 
L 52.708667 29.3325 
L 49.671557 29.3325 
L 49.671557 29.133281 
Q 50.171557 29.070781 50.376635 28.857891 
Q 50.583667 28.645 50.734057 28.070781 
L 52.220385 22.682109 
Q 52.370776 22.107891 52.370776 21.895 
Q 52.370776 21.670391 52.196948 21.545391 
Q 52.046557 21.445781 51.484057 21.369609 
L 51.484057 21.170391 
z
M 53.657885 21.920391 
L 52.870776 24.758281 
Q 53.259448 24.820781 53.509448 24.820781 
Q 54.620776 24.820781 55.245776 24.320781 
Q 55.870776 23.820781 55.870776 22.945781 
Q 55.870776 22.295391 55.482104 21.920391 
Q 55.095385 21.545391 54.370776 21.545391 
Q 53.759448 21.545391 53.657885 21.920391 
z
M 60.919212 30.986016 
L 58.503392 30.986016 
L 58.503392 30.854766 
Q 58.984642 30.828789 59.159642 30.675664 
Q 59.334642 30.522539 59.334642 30.154766 
L 59.334642 26.225469 
Q 59.334642 25.797539 59.072142 25.797539 
Q 58.950462 25.797539 58.678392 25.902812 
L 58.441869 25.990313 
L 58.441869 25.867266 
L 60.008665 25.071562 
L 60.087962 25.097539 
L 60.087962 30.321562 
Q 60.087962 30.610039 60.262962 30.733086 
Q 60.437962 30.854766 60.919212 30.854766 
L 60.919212 30.986016 
z
M 72.151554 26.5825 
L 68.889836 26.5825 
L 68.889836 29.844219 
L 68.065617 29.844219 
L 68.065617 26.5825 
L 64.801945 26.5825 
L 64.801945 25.758281 
L 68.065617 25.758281 
L 68.065617 22.494609 
L 68.889836 22.494609 
L 68.889836 25.758281 
L 72.151554 25.758281 
L 72.151554 26.5825 
z
M 76.220224 21.170391 
L 79.370614 21.170391 
Q 80.581552 21.170391 81.249521 21.645 
Q 81.919443 22.119609 81.919443 22.932109 
Q 81.919443 23.906719 81.095224 24.531719 
Q 80.606943 24.906719 79.456552 25.170391 
L 80.569833 28.107891 
Q 80.782724 28.682109 81.013193 28.908672 
Q 81.245614 29.133281 81.657724 29.133281 
L 81.657724 29.3325 
L 79.819833 29.3325 
L 78.282724 25.281719 
L 77.456552 25.219219 
L 76.769052 27.758281 
Q 76.606943 28.3325 76.606943 28.545391 
Q 76.606943 28.8325 76.769052 28.9575 
Q 76.933114 29.0825 77.444833 29.133281 
L 77.444833 29.3325 
L 74.407724 29.3325 
L 74.407724 29.133281 
Q 74.907724 29.070781 75.112802 28.857891 
Q 75.319833 28.645 75.470224 28.070781 
L 76.956552 22.682109 
Q 77.106943 22.107891 77.106943 21.895 
Q 77.106943 21.670391 76.933114 21.545391 
Q 76.782724 21.445781 76.220224 21.369609 
L 76.220224 21.170391 
z
M 78.394052 21.920391 
L 77.606943 24.758281 
Q 77.995614 24.820781 78.245614 24.820781 
Q 79.356943 24.820781 79.981943 24.320781 
Q 80.606943 23.820781 80.606943 22.945781 
Q 80.606943 22.295391 80.218271 21.920391 
Q 79.831552 21.545391 79.106943 21.545391 
Q 78.495614 21.545391 78.394052 21.920391 
z
M 86.355379 29.786992 
L 85.882332 30.986016 
L 82.461629 30.986016 
L 82.461629 30.880742 
L 84.018855 29.227812 
Q 84.631355 28.587969 84.893855 28.054766 
Q 85.156355 27.521563 85.156355 26.952813 
Q 85.156355 26.366289 84.832332 26.042266 
Q 84.508309 25.718242 83.939559 25.718242 
Q 83.467879 25.718242 83.191707 25.964336 
Q 82.915535 26.209063 82.653035 26.855742 
L 82.469832 26.811992 
Q 82.618855 25.998516 83.06866 25.535039 
Q 83.519832 25.071562 84.289559 25.071562 
Q 85.015535 25.071562 85.461238 25.509062 
Q 85.908309 25.946562 85.908309 26.611016 
Q 85.908309 27.599492 84.788582 28.780742 
L 83.344832 30.321562 
L 85.392879 30.321562 
Q 85.681355 30.321562 85.850887 30.208086 
Q 86.021785 30.093242 86.232332 29.735039 
L 86.355379 29.786992 
z
" clip-path="url(#p50f0289508)" style="stroke: #ffffff; stroke-width: 4"/>
     <path d="M 26.747891 21.170391 
L 29.898281 21.170391 
Q 31.109219 21.170391 31.777187 21.645 
Q 32.447109 22.119609 32.447109 22.932109 
Q 32.447109 23.906719 31.622891 24.531719 
Q 31.134609 24.906719 29.984219 25.170391 
L 31.0975 28.107891 
Q 31.310391 28.682109 31.540859 28.908672 
Q 31.773281 29.133281 32.185391 29.133281 
L 32.185391 29.3325 
L 30.3475 29.3325 
L 28.810391 25.281719 
L 27.984219 25.219219 
L 27.296719 27.758281 
Q 27.134609 28.3325 27.134609 28.545391 
Q 27.134609 28.8325 27.296719 28.9575 
Q 27.460781 29.0825 27.9725 29.133281 
L 27.9725 29.3325 
L 24.935391 29.3325 
L 24.935391 29.133281 
Q 25.435391 29.070781 25.640469 28.857891 
Q 25.8475 28.645 25.997891 28.070781 
L 27.484219 22.682109 
Q 27.634609 22.107891 27.634609 21.895 
Q 27.634609 21.670391 27.460781 21.545391 
Q 27.310391 21.445781 26.747891 21.369609 
L 26.747891 21.170391 
z
M 28.921719 21.920391 
L 28.134609 24.758281 
Q 28.523281 24.820781 28.773281 24.820781 
Q 29.884609 24.820781 30.509609 24.320781 
Q 31.134609 23.820781 31.134609 22.945781 
Q 31.134609 22.295391 30.745937 21.920391 
Q 30.359219 21.545391 29.634609 21.545391 
Q 29.023281 21.545391 28.921719 21.920391 
z
M 37.179725 25.149492 
L 36.829725 26.899492 
L 36.672499 26.873516 
Q 36.672499 26.147539 36.453749 25.797539 
Q 36.234999 25.447539 35.630702 25.447539 
Q 35.176796 25.447539 34.914296 25.679961 
Q 34.651796 25.911016 34.651796 26.322539 
Q 34.651796 26.654766 34.791249 26.877617 
Q 34.930702 27.100469 35.517225 27.686992 
Q 36.103749 28.281719 36.304725 28.641289 
Q 36.505702 28.999492 36.505702 29.436992 
Q 36.505702 30.180742 36.002577 30.661992 
Q 35.499452 31.143242 34.739296 31.143242 
Q 34.405702 31.143242 33.828749 30.942266 
Q 33.548475 30.836992 33.417225 30.836992 
Q 33.128749 30.836992 33.041249 31.117266 
L 32.884022 31.117266 
L 33.180702 29.156719 
L 33.355702 29.174492 
Q 33.339296 29.253789 33.339296 29.375469 
Q 33.339296 30.015313 33.693397 30.426836 
Q 34.047499 30.836992 34.598475 30.836992 
Q 35.105702 30.836992 35.425624 30.526641 
Q 35.745546 30.216289 35.745546 29.717266 
Q 35.745546 29.428789 35.630702 29.197734 
Q 35.517225 28.965312 35.220546 28.641289 
L 34.878749 28.273516 
Q 34.852772 28.247539 34.729725 28.112188 
Q 34.608046 27.975469 34.536952 27.905742 
Q 34.143202 27.486016 34.011952 27.219414 
Q 33.880702 26.952813 33.880702 26.593242 
Q 33.880702 25.928789 34.331874 25.544609 
Q 34.783046 25.159063 35.439296 25.159063 
Q 35.893202 25.159063 36.183046 25.280742 
Q 36.435975 25.377813 36.584999 25.377813 
Q 36.734022 25.377813 36.811952 25.334063 
Q 36.891249 25.290312 36.978749 25.149492 
L 37.179725 25.149492 
z
M 47.42906 25.3325 
L 40.065778 25.3325 
L 40.065778 24.508281 
L 47.42906 24.508281 
L 47.42906 25.3325 
z
M 47.42906 27.8325 
L 40.065778 27.8325 
L 40.065778 27.008281 
L 47.42906 27.008281 
L 47.42906 27.8325 
z
M 51.484057 21.170391 
L 54.634448 21.170391 
Q 55.845385 21.170391 56.513354 21.645 
Q 57.183276 22.119609 57.183276 22.932109 
Q 57.183276 23.906719 56.359057 24.531719 
Q 55.870776 24.906719 54.720385 25.170391 
L 55.833667 28.107891 
Q 56.046557 28.682109 56.277026 28.908672 
Q 56.509448 29.133281 56.921557 29.133281 
L 56.921557 29.3325 
L 55.083667 29.3325 
L 53.546557 25.281719 
L 52.720385 25.219219 
L 52.032885 27.758281 
Q 51.870776 28.3325 51.870776 28.545391 
Q 51.870776 28.8325 52.032885 28.9575 
Q 52.196948 29.0825 52.708667 29.133281 
L 52.708667 29.3325 
L 49.671557 29.3325 
L 49.671557 29.133281 
Q 50.171557 29.070781 50.376635 28.857891 
Q 50.583667 28.645 50.734057 28.070781 
L 52.220385 22.682109 
Q 52.370776 22.107891 52.370776 21.895 
Q 52.370776 21.670391 52.196948 21.545391 
Q 52.046557 21.445781 51.484057 21.369609 
L 51.484057 21.170391 
z
M 53.657885 21.920391 
L 52.870776 24.758281 
Q 53.259448 24.820781 53.509448 24.820781 
Q 54.620776 24.820781 55.245776 24.320781 
Q 55.870776 23.820781 55.870776 22.945781 
Q 55.870776 22.295391 55.482104 21.920391 
Q 55.095385 21.545391 54.370776 21.545391 
Q 53.759448 21.545391 53.657885 21.920391 
z
M 60.919212 30.986016 
L 58.503392 30.986016 
L 58.503392 30.854766 
Q 58.984642 30.828789 59.159642 30.675664 
Q 59.334642 30.522539 59.334642 30.154766 
L 59.334642 26.225469 
Q 59.334642 25.797539 59.072142 25.797539 
Q 58.950462 25.797539 58.678392 25.902812 
L 58.441869 25.990313 
L 58.441869 25.867266 
L 60.008665 25.071562 
L 60.087962 25.097539 
L 60.087962 30.321562 
Q 60.087962 30.610039 60.262962 30.733086 
Q 60.437962 30.854766 60.919212 30.854766 
L 60.919212 30.986016 
z
M 72.151554 26.5825 
L 68.889836 26.5825 
L 68.889836 29.844219 
L 68.065617 29.844219 
L 68.065617 26.5825 
L 64.801945 26.5825 
L 64.801945 25.758281 
L 68.065617 25.758281 
L 68.065617 22.494609 
L 68.889836 22.494609 
L 68.889836 25.758281 
L 72.151554 25.758281 
L 72.151554 26.5825 
z
M 76.220224 21.170391 
L 79.370614 21.170391 
Q 80.581552 21.170391 81.249521 21.645 
Q 81.919443 22.119609 81.919443 22.932109 
Q 81.919443 23.906719 81.095224 24.531719 
Q 80.606943 24.906719 79.456552 25.170391 
L 80.569833 28.107891 
Q 80.782724 28.682109 81.013193 28.908672 
Q 81.245614 29.133281 81.657724 29.133281 
L 81.657724 29.3325 
L 79.819833 29.3325 
L 78.282724 25.281719 
L 77.456552 25.219219 
L 76.769052 27.758281 
Q 76.606943 28.3325 76.606943 28.545391 
Q 76.606943 28.8325 76.769052 28.9575 
Q 76.933114 29.0825 77.444833 29.133281 
L 77.444833 29.3325 
L 74.407724 29.3325 
L 74.407724 29.133281 
Q 74.907724 29.070781 75.112802 28.857891 
Q 75.319833 28.645 75.470224 28.070781 
L 76.956552 22.682109 
Q 77.106943 22.107891 77.106943 21.895 
Q 77.106943 21.670391 76.933114 21.545391 
Q 76.782724 21.445781 76.220224 21.369609 
L 76.220224 21.170391 
z
M 78.394052 21.920391 
L 77.606943 24.758281 
Q 77.995614 24.820781 78.245614 24.820781 
Q 79.356943 24.820781 79.981943 24.320781 
Q 80.606943 23.820781 80.606943 22.945781 
Q 80.606943 22.295391 80.218271 21.920391 
Q 79.831552 21.545391 79.106943 21.545391 
Q 78.495614 21.545391 78.394052 21.920391 
z
M 86.355379 29.786992 
L 85.882332 30.986016 
L 82.461629 30.986016 
L 82.461629 30.880742 
L 84.018855 29.227812 
Q 84.631355 28.587969 84.893855 28.054766 
Q 85.156355 27.521563 85.156355 26.952813 
Q 85.156355 26.366289 84.832332 26.042266 
Q 84.508309 25.718242 83.939559 25.718242 
Q 83.467879 25.718242 83.191707 25.964336 
Q 82.915535 26.209063 82.653035 26.855742 
L 82.469832 26.811992 
Q 82.618855 25.998516 83.06866 25.535039 
Q 83.519832 25.071562 84.289559 25.071562 
Q 85.015535 25.071562 85.461238 25.509062 
Q 85.908309 25.946562 85.908309 26.611016 
Q 85.908309 27.599492 84.788582 28.780742 
L 83.344832 30.321562 
L 85.392879 30.321562 
Q 85.681355 30.321562 85.850887 30.208086 
Q 86.021785 30.093242 86.232332 29.735039 
L 86.355379 29.786992 
z
" clip-path="url(#p50f0289508)"/>
    </g>
    <g id="text_2">
     <path d="M 26.747891 21.170391 
L 29.898281 21.170391 
Q 31.109219 21.170391 31.777187 21.645 
Q 32.447109 22.119609 32.447109 22.932109 
Q 32.447109 23.906719 31.622891 24.531719 
Q 31.134609 24.906719 29.984219 25.170391 
L 31.0975 28.107891 
Q 31.310391 28.682109 31.540859 28.908672 
Q 31.773281 29.133281 32.185391 29.133281 
L 32.185391 29.3325 
L 30.3475 29.3325 
L 28.810391 25.281719 
L 27.984219 25.219219 
L 27.296719 27.758281 
Q 27.134609 28.3325 27.134609 28.545391 
Q 27.134609 28.8325 27.296719 28.9575 
Q 27.460781 29.0825 27.9725 29.133281 
L 27.9725 29.3325 
L 24.935391 29.3325 
L 24.935391 29.133281 
Q 25.435391 29.070781 25.640469 28.857891 
Q 25.8475 28.645 25.997891 28.070781 
L 27.484219 22.682109 
Q 27.634609 22.107891 27.634609 21.895 
Q 27.634609 21.670391 27.460781 21.545391 
Q 27.310391 21.445781 26.747891 21.369609 
L 26.747891 21.170391 
z
M 28.921719 21.920391 
L 28.134609 24.758281 
Q 28.523281 24.820781 28.773281 24.820781 
Q 29.884609 24.820781 30.509609 24.320781 
Q 31.134609 23.820781 31.134609 22.945781 
Q 31.134609 22.295391 30.745937 21.920391 
Q 30.359219 21.545391 29.634609 21.545391 
Q 29.023281 21.545391 28.921719 21.920391 
z
M 37.179725 25.149492 
L 36.829725 26.899492 
L 36.672499 26.873516 
Q 36.672499 26.147539 36.453749 25.797539 
Q 36.234999 25.447539 35.630702 25.447539 
Q 35.176796 25.447539 34.914296 25.679961 
Q 34.651796 25.911016 34.651796 26.322539 
Q 34.651796 26.654766 34.791249 26.877617 
Q 34.930702 27.100469 35.517225 27.686992 
Q 36.103749 28.281719 36.304725 28.641289 
Q 36.505702 28.999492 36.505702 29.436992 
Q 36.505702 30.180742 36.002577 30.661992 
Q 35.499452 31.143242 34.739296 31.143242 
Q 34.405702 31.143242 33.828749 30.942266 
Q 33.548475 30.836992 33.417225 30.836992 
Q 33.128749 30.836992 33.041249 31.117266 
L 32.884022 31.117266 
L 33.180702 29.156719 
L 33.355702 29.174492 
Q 33.339296 29.253789 33.339296 29.375469 
Q 33.339296 30.015313 33.693397 30.426836 
Q 34.047499 30.836992 34.598475 30.836992 
Q 35.105702 30.836992 35.425624 30.526641 
Q 35.745546 30.216289 35.745546 29.717266 
Q 35.745546 29.428789 35.630702 29.197734 
Q 35.517225 28.965312 35.220546 28.641289 
L 34.878749 28.273516 
Q 34.852772 28.247539 34.729725 28.112188 
Q 34.608046 27.975469 34.536952 27.905742 
Q 34.143202 27.486016 34.011952 27.219414 
Q 33.880702 26.952813 33.880702 26.593242 
Q 33.880702 25.928789 34.331874 25.544609 
Q 34.783046 25.159063 35.439296 25.159063 
Q 35.893202 25.159063 36.183046 25.280742 
Q 36.435975 25.377813 36.584999 25.377813 
Q 36.734022 25.377813 36.811952 25.334063 
Q 36.891249 25.290312 36.978749 25.149492 
L 37.179725 25.149492 
z
M 47.42906 25.3325 
L 40.065778 25.3325 
L 40.065778 24.508281 
L 47.42906 24.508281 
L 47.42906 25.3325 
z
M 47.42906 27.8325 
L 40.065778 27.8325 
L 40.065778 27.008281 
L 47.42906 27.008281 
L 47.42906 27.8325 
z
M 51.484057 21.170391 
L 54.634448 21.170391 
Q 55.845385 21.170391 56.513354 21.645 
Q 57.183276 22.119609 57.183276 22.932109 
Q 57.183276 23.906719 56.359057 24.531719 
Q 55.870776 24.906719 54.720385 25.170391 
L 55.833667 28.107891 
Q 56.046557 28.682109 56.277026 28.908672 
Q 56.509448 29.133281 56.921557 29.133281 
L 56.921557 29.3325 
L 55.083667 29.3325 
L 53.546557 25.281719 
L 52.720385 25.219219 
L 52.032885 27.758281 
Q 51.870776 28.3325 51.870776 28.545391 
Q 51.870776 28.8325 52.032885 28.9575 
Q 52.196948 29.0825 52.708667 29.133281 
L 52.708667 29.3325 
L 49.671557 29.3325 
L 49.671557 29.133281 
Q 50.171557 29.070781 50.376635 28.857891 
Q 50.583667 28.645 50.734057 28.070781 
L 52.220385 22.682109 
Q 52.370776 22.107891 52.370776 21.895 
Q 52.370776 21.670391 52.196948 21.545391 
Q 52.046557 21.445781 51.484057 21.369609 
L 51.484057 21.170391 
z
M 53.657885 21.920391 
L 52.870776 24.758281 
Q 53.259448 24.820781 53.509448 24.820781 
Q 54.620776 24.820781 55.245776 24.320781 
Q 55.870776 23.820781 55.870776 22.945781 
Q 55.870776 22.295391 55.482104 21.920391 
Q 55.095385 21.545391 54.370776 21.545391 
Q 53.759448 21.545391 53.657885 21.920391 
z
M 60.919212 30.986016 
L 58.503392 30.986016 
L 58.503392 30.854766 
Q 58.984642 30.828789 59.159642 30.675664 
Q 59.334642 30.522539 59.334642 30.154766 
L 59.334642 26.225469 
Q 59.334642 25.797539 59.072142 25.797539 
Q 58.950462 25.797539 58.678392 25.902812 
L 58.441869 25.990313 
L 58.441869 25.867266 
L 60.008665 25.071562 
L 60.087962 25.097539 
L 60.087962 30.321562 
Q 60.087962 30.610039 60.262962 30.733086 
Q 60.437962 30.854766 60.919212 30.854766 
L 60.919212 30.986016 
z
M 72.151554 26.5825 
L 68.889836 26.5825 
L 68.889836 29.844219 
L 68.065617 29.844219 
L 68.065617 26.5825 
L 64.801945 26.5825 
L 64.801945 25.758281 
L 68.065617 25.758281 
L 68.065617 22.494609 
L 68.889836 22.494609 
L 68.889836 25.758281 
L 72.151554 25.758281 
L 72.151554 26.5825 
z
M 76.220224 21.170391 
L 79.370614 21.170391 
Q 80.581552 21.170391 81.249521 21.645 
Q 81.919443 22.119609 81.919443 22.932109 
Q 81.919443 23.906719 81.095224 24.531719 
Q 80.606943 24.906719 79.456552 25.170391 
L 80.569833 28.107891 
Q 80.782724 28.682109 81.013193 28.908672 
Q 81.245614 29.133281 81.657724 29.133281 
L 81.657724 29.3325 
L 79.819833 29.3325 
L 78.282724 25.281719 
L 77.456552 25.219219 
L 76.769052 27.758281 
Q 76.606943 28.3325 76.606943 28.545391 
Q 76.606943 28.8325 76.769052 28.9575 
Q 76.933114 29.0825 77.444833 29.133281 
L 77.444833 29.3325 
L 74.407724 29.3325 
L 74.407724 29.133281 
Q 74.907724 29.070781 75.112802 28.857891 
Q 75.319833 28.645 75.470224 28.070781 
L 76.956552 22.682109 
Q 77.106943 22.107891 77.106943 21.895 
Q 77.106943 21.670391 76.933114 21.545391 
Q 76.782724 21.445781 76.220224 21.369609 
L 76.220224 21.170391 
z
M 78.394052 21.920391 
L 77.606943 24.758281 
Q 77.995614 24.820781 78.245614 24.820781 
Q 79.356943 24.820781 79.981943 24.320781 
Q 80.606943 23.820781 80.606943 22.945781 
Q 80.606943 22.295391 80.218271 21.920391 
Q 79.831552 21.545391 79.106943 21.545391 
Q 78.495614 21.545391 78.394052 21.920391 
z
M 86.355379 29.786992 
L 85.882332 30.986016 
L 82.461629 30.986016 
L 82.461629 30.880742 
L 84.018855 29.227812 
Q 84.631355 28.587969 84.893855 28.054766 
Q 85.156355 27.521563 85.156355 26.952813 
Q 85.156355 26.366289 84.832332 26.042266 
Q 84.508309 25.718242 83.939559 25.718242 
Q 83.467879 25.718242 83.191707 25.964336 
Q 82.915535 26.209063 82.653035 26.855742 
L 82.469832 26.811992 
Q 82.618855 25.998516 83.06866 25.535039 
Q 83.519832 25.071562 84.289559 25.071562 
Q 85.015535 25.071562 85.461238 25.509062 
Q 85.908309 25.946562 85.908309 26.611016 
Q 85.908309 27.599492 84.788582 28.780742 
L 83.344832 30.321562 
L 85.392879 30.321562 
Q 85.681355 30.321562 85.850887 30.208086 
Q 86.021785 30.093242 86.232332 29.735039 
L 86.355379 29.786992 
z
" clip-path="url(#p50f0289508)" style="stroke: #ffffff; stroke-width: 4"/>
     <path d="M 26.747891 21.170391 
L 29.898281 21.170391 
Q 31.109219 21.170391 31.777187 21.645 
Q 32.447109 22.119609 32.447109 22.932109 
Q 32.447109 23.906719 31.622891 24.531719 
Q 31.134609 24.906719 29.984219 25.170391 
L 31.0975 28.107891 
Q 31.310391 28.682109 31.540859 28.908672 
Q 31.773281 29.133281 32.185391 29.133281 
L 32.185391 29.3325 
L 30.3475 29.3325 
L 28.810391 25.281719 
L 27.984219 25.219219 
L 27.296719 27.758281 
Q 27.134609 28.3325 27.134609 28.545391 
Q 27.134609 28.8325 27.296719 28.9575 
Q 27.460781 29.0825 27.9725 29.133281 
L 27.9725 29.3325 
L 24.935391 29.3325 
L 24.935391 29.133281 
Q 25.435391 29.070781 25.640469 28.857891 
Q 25.8475 28.645 25.997891 28.070781 
L 27.484219 22.682109 
Q 27.634609 22.107891 27.634609 21.895 
Q 27.634609 21.670391 27.460781 21.545391 
Q 27.310391 21.445781 26.747891 21.369609 
L 26.747891 21.170391 
z
M 28.921719 21.920391 
L 28.134609 24.758281 
Q 28.523281 24.820781 28.773281 24.820781 
Q 29.884609 24.820781 30.509609 24.320781 
Q 31.134609 23.820781 31.134609 22.945781 
Q 31.134609 22.295391 30.745937 21.920391 
Q 30.359219 21.545391 29.634609 21.545391 
Q 29.023281 21.545391 28.921719 21.920391 
z
M 37.179725 25.149492 
L 36.829725 26.899492 
L 36.672499 26.873516 
Q 36.672499 26.147539 36.453749 25.797539 
Q 36.234999 25.447539 35.630702 25.447539 
Q 35.176796 25.447539 34.914296 25.679961 
Q 34.651796 25.911016 34.651796 26.322539 
Q 34.651796 26.654766 34.791249 26.877617 
Q 34.930702 27.100469 35.517225 27.686992 
Q 36.103749 28.281719 36.304725 28.641289 
Q 36.505702 28.999492 36.505702 29.436992 
Q 36.505702 30.180742 36.002577 30.661992 
Q 35.499452 31.143242 34.739296 31.143242 
Q 34.405702 31.143242 33.828749 30.942266 
Q 33.548475 30.836992 33.417225 30.836992 
Q 33.128749 30.836992 33.041249 31.117266 
L 32.884022 31.117266 
L 33.180702 29.156719 
L 33.355702 29.174492 
Q 33.339296 29.253789 33.339296 29.375469 
Q 33.339296 30.015313 33.693397 30.426836 
Q 34.047499 30.836992 34.598475 30.836992 
Q 35.105702 30.836992 35.425624 30.526641 
Q 35.745546 30.216289 35.745546 29.717266 
Q 35.745546 29.428789 35.630702 29.197734 
Q 35.517225 28.965312 35.220546 28.641289 
L 34.878749 28.273516 
Q 34.852772 28.247539 34.729725 28.112188 
Q 34.608046 27.975469 34.536952 27.905742 
Q 34.143202 27.486016 34.011952 27.219414 
Q 33.880702 26.952813 33.880702 26.593242 
Q 33.880702 25.928789 34.331874 25.544609 
Q 34.783046 25.159063 35.439296 25.159063 
Q 35.893202 25.159063 36.183046 25.280742 
Q 36.435975 25.377813 36.584999 25.377813 
Q 36.734022 25.377813 36.811952 25.334063 
Q 36.891249 25.290312 36.978749 25.149492 
L 37.179725 25.149492 
z
M 47.42906 25.3325 
L 40.065778 25.3325 
L 40.065778 24.508281 
L 47.42906 24.508281 
L 47.42906 25.3325 
z
M 47.42906 27.8325 
L 40.065778 27.8325 
L 40.065778 27.008281 
L 47.42906 27.008281 
L 47.42906 27.8325 
z
M 51.484057 21.170391 
L 54.634448 21.170391 
Q 55.845385 21.170391 56.513354 21.645 
Q 57.183276 22.119609 57.183276 22.932109 
Q 57.183276 23.906719 56.359057 24.531719 
Q 55.870776 24.906719 54.720385 25.170391 
L 55.833667 28.107891 
Q 56.046557 28.682109 56.277026 28.908672 
Q 56.509448 29.133281 56.921557 29.133281 
L 56.921557 29.3325 
L 55.083667 29.3325 
L 53.546557 25.281719 
L 52.720385 25.219219 
L 52.032885 27.758281 
Q 51.870776 28.3325 51.870776 28.545391 
Q 51.870776 28.8325 52.032885 28.9575 
Q 52.196948 29.0825 52.708667 29.133281 
L 52.708667 29.3325 
L 49.671557 29.3325 
L 49.671557 29.133281 
Q 50.171557 29.070781 50.376635 28.857891 
Q 50.583667 28.645 50.734057 28.070781 
L 52.220385 22.682109 
Q 52.370776 22.107891 52.370776 21.895 
Q 52.370776 21.670391 52.196948 21.545391 
Q 52.046557 21.445781 51.484057 21.369609 
L 51.484057 21.170391 
z
M 53.657885 21.920391 
L 52.870776 24.758281 
Q 53.259448 24.820781 53.509448 24.820781 
Q 54.620776 24.820781 55.245776 24.320781 
Q 55.870776 23.820781 55.870776 22.945781 
Q 55.870776 22.295391 55.482104 21.920391 
Q 55.095385 21.545391 54.370776 21.545391 
Q 53.759448 21.545391 53.657885 21.920391 
z
M 60.919212 30.986016 
L 58.503392 30.986016 
L 58.503392 30.854766 
Q 58.984642 30.828789 59.159642 30.675664 
Q 59.334642 30.522539 59.334642 30.154766 
L 59.334642 26.225469 
Q 59.334642 25.797539 59.072142 25.797539 
Q 58.950462 25.797539 58.678392 25.902812 
L 58.441869 25.990313 
L 58.441869 25.867266 
L 60.008665 25.071562 
L 60.087962 25.097539 
L 60.087962 30.321562 
Q 60.087962 30.610039 60.262962 30.733086 
Q 60.437962 30.854766 60.919212 30.854766 
L 60.919212 30.986016 
z
M 72.151554 26.5825 
L 68.889836 26.5825 
L 68.889836 29.844219 
L 68.065617 29.844219 
L 68.065617 26.5825 
L 64.801945 26.5825 
L 64.801945 25.758281 
L 68.065617 25.758281 
L 68.065617 22.494609 
L 68.889836 22.494609 
L 68.889836 25.758281 
L 72.151554 25.758281 
L 72.151554 26.5825 
z
M 76.220224 21.170391 
L 79.370614 21.170391 
Q 80.581552 21.170391 81.249521 21.645 
Q 81.919443 22.119609 81.919443 22.932109 
Q 81.919443 23.906719 81.095224 24.531719 
Q 80.606943 24.906719 79.456552 25.170391 
L 80.569833 28.107891 
Q 80.782724 28.682109 81.013193 28.908672 
Q 81.245614 29.133281 81.657724 29.133281 
L 81.657724 29.3325 
L 79.819833 29.3325 
L 78.282724 25.281719 
L 77.456552 25.219219 
L 76.769052 27.758281 
Q 76.606943 28.3325 76.606943 28.545391 
Q 76.606943 28.8325 76.769052 28.9575 
Q 76.933114 29.0825 77.444833 29.133281 
L 77.444833 29.3325 
L 74.407724 29.3325 
L 74.407724 29.133281 
Q 74.907724 29.070781 75.112802 28.857891 
Q 75.319833 28.645 75.470224 28.070781 
L 76.956552 22.682109 
Q 77.106943 22.107891 77.106943 21.895 
Q 77.106943 21.670391 76.933114 21.545391 
Q 76.782724 21.445781 76.220224 21.369609 
L 76.220224 21.170391 
z
M 78.394052 21.920391 
L 77.606943 24.758281 
Q 77.995614 24.820781 78.245614 24.820781 
Q 79.356943 24.820781 79.981943 24.320781 
Q 80.606943 23.820781 80.606943 22.945781 
Q 80.606943 22.295391 80.218271 21.920391 
Q 79.831552 21.545391 79.106943 21.545391 
Q 78.495614 21.545391 78.394052 21.920391 
z
M 86.355379 29.786992 
L 85.882332 30.986016 
L 82.461629 30.986016 
L 82.461629 30.880742 
L 84.018855 29.227812 
Q 84.631355 28.587969 84.893855 28.054766 
Q 85.156355 27.521563 85.156355 26.952813 
Q 85.156355 26.366289 84.832332 26.042266 
Q 84.508309 25.718242 83.939559 25.718242 
Q 83.467879 25.718242 83.191707 25.964336 
Q 82.915535 26.209063 82.653035 26.855742 
L 82.469832 26.811992 
Q 82.618855 25.998516 83.06866 25.535039 
Q 83.519832 25.071562 84.289559 25.071562 
Q 85.015535 25.071562 85.461238 25.509062 
Q 85.908309 25.946562 85.908309 26.611016 
Q 85.908309 27.599492 84.788582 28.780742 
L 83.344832 30.321562 
L 85.392879 30.321562 
Q 85.681355 30.321562 85.850887 30.208086 
Q 86.021785 30.093242 86.232332 29.735039 
L 86.355379 29.786992 
z
" clip-path="url(#p50f0289508)"/>
    </g>
   </g>
  </g>
  <defs>
   <clipPath id="p50f0289508">
    <rect x="7.2" y="7.2" width="100.317" height="46.24"/>
   </clipPath>
  </defs>
 </g>
</svg>
