<?xml version="1.0" encoding="utf-8" standalone="no"?>
<!DOCTYPE svg PUBLIC "-//W3C//DTD SVG 1.1//EN"
  "http://www.w3.org/Graphics/SVG/1.1/DTD/svg11.dtd">
<svg xmlns:xlink="http://www.w3.org/1999/xlink" width="204.12pt" height="49.164981pt" viewBox="0 0 204.12 49.164981" xmlns="http://www.w3.org/2000/svg" version="1.1">
 <metadata>
  <rdf:RDF xmlns:dc="http://purl.org/dc/elements/1.1/" xmlns:cc="http://creativecommons.org/ns#" xmlns:rdf="http://www.w3.org/1999/02/22-rdf-syntax-ns#">
   <cc:Work>
    <dc:type rdf:resource="http://purl.org/dc/dcmitype/StillImage"/>
    <dc:date>2023-03-15T13:17:15.555080</dc:date>
    <dc:format>image/svg+xml</dc:format>
    <dc:creator>
     <cc:Agent>
      <dc:title>Matplotlib v3.5.2, https://matplotlib.org/</dc:title>
     </cc:Agent>
    </dc:creator>
   </cc:Work>
  </rdf:RDF>
 </metadata>
 <defs>
  <style type="text/css">*{stroke-linejoin: round; stroke-linecap: butt}</style>
 </defs>
 <g id="figure_1">
  <g id="patch_1">
   <path d="M 0 49.164981 
L 204.12 49.164981 
L 204.12 0 
L 0 0 
L 0 49.164981 
z
" style="fill: none"/>
  </g>
  <g id="axes_1">
   <g id="patch_2">
    <path d="M 48.51 38.904981 
C 48.51 37.890917 48.106735 36.917349 47.389683 36.200298 
C 46.672632 35.483246 45.699064 35.079981 44.685 35.079981 
C 43.670936 35.079981 42.697368 35.483246 41.980317 36.200298 
C 41.263265 36.917349 40.86 37.890917 40.86 38.904981 
" clip-path="url(#pa45d6261f3)" style="fill: none; stroke: #000000; stroke-width: 2; stroke-linejoin: miter"/>
   </g>
   <g id="patch_3">
    <path d="M 56.16 38.904981 
C 56.16 37.890917 55.756735 36.917349 55.039683 36.200298 
C 54.322632 35.483246 53.349064 35.079981 52.335 35.079981 
C 51.320936 35.079981 50.347368 35.483246 49.630317 36.200298 
C 48.913265 36.917349 48.51 37.890917 48.51 38.904981 
" clip-path="url(#pa45d6261f3)" style="fill: none; stroke: #000000; stroke-width: 2; stroke-linejoin: miter"/>
   </g>
   <g id="patch_4">
    <path d="M 63.81 38.904981 
C 63.81 37.890917 63.406735 36.917349 62.689683 36.200298 
C 61.972632 35.483246 60.999064 35.079981 59.985 35.079981 
C 58.970936 35.079981 57.997368 35.483246 57.280317 36.200298 
C 56.563265 36.917349 56.16 37.890917 56.16 38.904981 
" clip-path="url(#pa45d6261f3)" style="fill: none; stroke: #000000; stroke-width: 2; stroke-linejoin: miter"/>
   </g>
   <g id="patch_5">
    <path d="M 71.46 38.904981 
C 71.46 37.890917 71.056735 36.917349 70.339683 36.200298 
C 69.622632 35.483246 68.649064 35.079981 67.635 35.079981 
C 66.620936 35.079981 65.647368 35.483246 64.930317 36.200298 
C 64.213265 36.917349 63.81 37.890917 63.81 38.904981 
" clip-path="url(#pa45d6261f3)" style="fill: none; stroke: #000000; stroke-width: 2; stroke-linejoin: miter"/>
   </g>
   <g id="patch_6">
    <path d="M 140.31 38.904981 
C 140.31 37.890917 139.906735 36.917349 139.189683 36.200298 
C 138.472632 35.483246 137.499064 35.079981 136.485 35.079981 
C 135.470936 35.079981 134.497368 35.483246 133.780317 36.200298 
C 133.063265 36.917349 132.66 37.890917 132.66 38.904981 
" clip-path="url(#pa45d6261f3)" style="fill: none; stroke: #000000; stroke-width: 2; stroke-linejoin: miter"/>
   </g>
   <g id="patch_7">
    <path d="M 147.96 38.904981 
C 147.96 37.890917 147.556735 36.917349 146.839683 36.200298 
C 146.122632 35.483246 145.149064 35.079981 144.135 35.079981 
C 143.120936 35.079981 142.147368 35.483246 141.430317 36.200298 
C 140.713265 36.917349 140.31 37.890917 140.31 38.904981 
" clip-path="url(#pa45d6261f3)" style="fill: none; stroke: #000000; stroke-width: 2; stroke-linejoin: miter"/>
   </g>
   <g id="patch_8">
    <path d="M 155.61 38.904981 
C 155.61 37.890917 155.206735 36.917349 154.489683 36.200298 
C 153.772632 35.483246 152.799064 35.079981 151.785 35.079981 
C 150.770936 35.079981 149.797368 35.483246 149.080317 36.200298 
C 148.363265 36.917349 147.96 37.890917 147.96 38.904981 
" clip-path="url(#pa45d6261f3)" style="fill: none; stroke: #000000; stroke-width: 2; stroke-linejoin: miter"/>
   </g>
   <g id="patch_9">
    <path d="M 163.26 38.904981 
C 163.26 37.890917 162.856735 36.917349 162.139683 36.200298 
C 161.422632 35.483246 160.449064 35.079981 159.435 35.079981 
C 158.420936 35.079981 157.447368 35.483246 156.730317 36.200298 
C 156.013265 36.917349 155.61 37.890917 155.61 38.904981 
" clip-path="url(#pa45d6261f3)" style="fill: none; stroke: #000000; stroke-width: 2; stroke-linejoin: miter"/>
   </g>
   <g id="patch_10">
    <path d="M 48.51 38.904981 
C 48.51 37.890917 48.106735 36.917349 47.389683 36.200298 
C 46.672632 35.483246 45.699064 35.079981 44.685 35.079981 
C 43.670936 35.079981 42.697368 35.483246 41.980317 36.200298 
C 41.263265 36.917349 40.86 37.890917 40.86 38.904981 
" clip-path="url(#pa45d6261f3)" style="fill: none; stroke: #000000; stroke-width: 2; stroke-linejoin: miter"/>
   </g>
   <g id="patch_11">
    <path d="M 56.16 38.904981 
C 56.16 37.890917 55.756735 36.917349 55.039683 36.200298 
C 54.322632 35.483246 53.349064 35.079981 52.335 35.079981 
C 51.320936 35.079981 50.347368 35.483246 49.630317 36.200298 
C 48.913265 36.917349 48.51 37.890917 48.51 38.904981 
" clip-path="url(#pa45d6261f3)" style="fill: none; stroke: #000000; stroke-width: 2; stroke-linejoin: miter"/>
   </g>
   <g id="patch_12">
    <path d="M 63.81 38.904981 
C 63.81 37.890917 63.406735 36.917349 62.689683 36.200298 
C 61.972632 35.483246 60.999064 35.079981 59.985 35.079981 
C 58.970936 35.079981 57.997368 35.483246 57.280317 36.200298 
C 56.563265 36.917349 56.16 37.890917 56.16 38.904981 
" clip-path="url(#pa45d6261f3)" style="fill: none; stroke: #000000; stroke-width: 2; stroke-linejoin: miter"/>
   </g>
   <g id="patch_13">
    <path d="M 71.46 38.904981 
C 71.46 37.890917 71.056735 36.917349 70.339683 36.200298 
C 69.622632 35.483246 68.649064 35.079981 67.635 35.079981 
C 66.620936 35.079981 65.647368 35.483246 64.930317 36.200298 
C 64.213265 36.917349 63.81 37.890917 63.81 38.904981 
" clip-path="url(#pa45d6261f3)" style="fill: none; stroke: #000000; stroke-width: 2; stroke-linejoin: miter"/>
   </g>
   <g id="patch_14">
    <path d="M 140.31 38.904981 
C 140.31 37.890917 139.906735 36.917349 139.189683 36.200298 
C 138.472632 35.483246 137.499064 35.079981 136.485 35.079981 
C 135.470936 35.079981 134.497368 35.483246 133.780317 36.200298 
C 133.063265 36.917349 132.66 37.890917 132.66 38.904981 
" clip-path="url(#pa45d6261f3)" style="fill: none; stroke: #000000; stroke-width: 2; stroke-linejoin: miter"/>
   </g>
   <g id="patch_15">
    <path d="M 147.96 38.904981 
C 147.96 37.890917 147.556735 36.917349 146.839683 36.200298 
C 146.122632 35.483246 145.149064 35.079981 144.135 35.079981 
C 143.120936 35.079981 142.147368 35.483246 141.430317 36.200298 
C 140.713265 36.917349 140.31 37.890917 140.31 38.904981 
" clip-path="url(#pa45d6261f3)" style="fill: none; stroke: #000000; stroke-width: 2; stroke-linejoin: miter"/>
   </g>
   <g id="patch_16">
    <path d="M 155.61 38.904981 
C 155.61 37.890917 155.206735 36.917349 154.489683 36.200298 
C 153.772632 35.483246 152.799064 35.079981 151.785 35.079981 
C 150.770936 35.079981 149.797368 35.483246 149.080317 36.200298 
C 148.363265 36.917349 147.96 37.890917 147.96 38.904981 
" clip-path="url(#pa45d6261f3)" style="fill: none; stroke: #000000; stroke-width: 2; stroke-linejoin: miter"/>
   </g>
   <g id="patch_17">
    <path d="M 163.26 38.904981 
C 163.26 37.890917 162.856735 36.917349 162.139683 36.200298 
C 161.422632 35.483246 160.449064 35.079981 159.435 35.079981 
C 158.420936 35.079981 157.447368 35.483246 156.730317 36.200298 
C 156.013265 36.917349 155.61 37.890917 155.61 38.904981 
" clip-path="url(#pa45d6261f3)" style="fill: none; stroke: #000000; stroke-width: 2; stroke-linejoin: miter"/>
   </g>
   <g id="line2d_1">
    <path d="M 10.26 38.904981 
L 40.86 38.904981 
M 71.46 38.904981 
L 102.06 38.904981 
" clip-path="url(#pa45d6261f3)" style="fill: none; stroke: #000000; stroke-width: 2; stroke-linecap: round"/>
   </g>
   <g id="line2d_2">
    <path d="M 102.06 38.904981 
L 132.66 38.904981 
M 163.26 38.904981 
L 193.86 38.904981 
" clip-path="url(#pa45d6261f3)" style="fill: none; stroke: #000000; stroke-width: 2; stroke-linecap: round"/>
   </g>
   <g id="line2d_3">
    <path d="M 10.26 38.904981 
L 40.86 38.904981 
M 71.46 38.904981 
L 102.06 38.904981 
" clip-path="url(#pa45d6261f3)" style="fill: none; stroke: #000000; stroke-width: 2; stroke-linecap: round"/>
   </g>
   <g id="line2d_4">
    <path d="M 102.06 38.904981 
L 132.66 38.904981 
M 163.26 38.904981 
L 193.86 38.904981 
" clip-path="url(#pa45d6261f3)" style="fill: none; stroke: #000000; stroke-width: 2; stroke-linecap: round"/>
   </g>
   <g id="text_1">
    <g clip-path="url(#pa45d6261f3)">
     <!-- $L_1$ -->
     <g transform="translate(50.16 29.420391)scale(0.125 -0.125)">
      <defs>
       <path id="STIXGeneral-Italic-4c" d="M 3578 1152 
L 3206 0 
L -51 0 
L -51 102 
Q 218 128 301 211 
Q 384 294 474 602 
L 1254 3405 
Q 1325 3642 1325 3802 
Q 1325 3942 1225 4000 
Q 1126 4058 832 4077 
L 832 4179 
L 2579 4179 
L 2579 4077 
Q 2285 4058 2147 3955 
Q 2010 3853 1933 3584 
L 1165 838 
Q 1101 595 1101 493 
Q 1101 346 1241 288 
Q 1382 230 1773 230 
Q 2266 230 2480 275 
Q 2694 320 2925 474 
Q 3187 646 3450 1190 
L 3578 1152 
z
" transform="scale(0.015625)"/>
       <path id="STIXGeneral-Regular-31" d="M 2522 0 
L 755 0 
L 755 96 
Q 1107 115 1235 227 
Q 1363 339 1363 608 
L 1363 3482 
Q 1363 3795 1171 3795 
Q 1082 3795 883 3718 
L 710 3654 
L 710 3744 
L 1856 4326 
L 1914 4307 
L 1914 486 
Q 1914 275 2042 185 
Q 2170 96 2522 96 
L 2522 0 
z
" transform="scale(0.015625)"/>
      </defs>
      <use xlink:href="#STIXGeneral-Italic-4c" transform="translate(0 0.703125)"/>
      <use xlink:href="#STIXGeneral-Regular-31" transform="translate(55.599991 -12.525)scale(0.7)"/>
     </g>
    </g>
   </g>
   <g id="text_2">
    <g clip-path="url(#pa45d6261f3)">
     <!-- $L_2$ -->
     <g transform="translate(141.96 29.420391)scale(0.125 -0.125)">
      <defs>
       <path id="STIXGeneral-Regular-32" d="M 3034 877 
L 2688 0 
L 186 0 
L 186 77 
L 1325 1286 
Q 1773 1754 1965 2144 
Q 2157 2534 2157 2950 
Q 2157 3379 1920 3616 
Q 1683 3853 1267 3853 
Q 922 3853 720 3673 
Q 518 3494 326 3021 
L 192 3053 
Q 301 3648 630 3987 
Q 960 4326 1523 4326 
Q 2054 4326 2380 4006 
Q 2707 3686 2707 3200 
Q 2707 2477 1888 1613 
L 832 486 
L 2330 486 
Q 2541 486 2665 569 
Q 2790 653 2944 915 
L 3034 877 
z
" transform="scale(0.015625)"/>
      </defs>
      <use xlink:href="#STIXGeneral-Italic-4c" transform="translate(0 0.703125)"/>
      <use xlink:href="#STIXGeneral-Regular-32" transform="translate(55.599991 -12.525)scale(0.7)"/>
     </g>
    </g>
   </g>
   <g id="text_3">
    <g clip-path="url(#pa45d6261f3)">
     <!-- $L_1$ -->
     <g transform="translate(50.16 29.420391)scale(0.125 -0.125)">
      <use xlink:href="#STIXGeneral-Italic-4c" transform="translate(0 0.703125)"/>
      <use xlink:href="#STIXGeneral-Regular-31" transform="translate(55.599991 -12.525)scale(0.7)"/>
     </g>
    </g>
   </g>
   <g id="text_4">
    <g clip-path="url(#pa45d6261f3)">
     <!-- $L_2$ -->
     <g transform="translate(141.96 29.420391)scale(0.125 -0.125)">
      <use xlink:href="#STIXGeneral-Italic-4c" transform="translate(0 0.703125)"/>
      <use xlink:href="#STIXGeneral-Regular-32" transform="translate(55.599991 -12.525)scale(0.7)"/>
     </g>
    </g>
   </g>
  </g>
 </g>
 <defs>
  <clipPath id="pa45d6261f3">
   <rect x="7.2" y="7.2" width="189.72" height="34.764981"/>
  </clipPath>
 </defs>
</svg>
