<?xml version="1.0" encoding="utf-8" standalone="no"?>
<!DOCTYPE svg PUBLIC "-//W3C//DTD SVG 1.1//EN"
  "http://www.w3.org/Graphics/SVG/1.1/DTD/svg11.dtd">
<svg xmlns:xlink="http://www.w3.org/1999/xlink" width="254.8854pt" height="159.07pt" viewBox="0 0 254.8854 159.07" xmlns="http://www.w3.org/2000/svg" version="1.1">
 <metadata>
  <rdf:RDF xmlns:dc="http://purl.org/dc/elements/1.1/" xmlns:cc="http://creativecommons.org/ns#" xmlns:rdf="http://www.w3.org/1999/02/22-rdf-syntax-ns#">
   <cc:Work>
    <dc:type rdf:resource="http://purl.org/dc/dcmitype/StillImage"/>
    <dc:date>2023-02-28T21:01:03.481652</dc:date>
    <dc:format>image/svg+xml</dc:format>
    <dc:creator>
     <cc:Agent>
      <dc:title>Matplotlib v3.5.2, https://matplotlib.org/</dc:title>
     </cc:Agent>
    </dc:creator>
   </cc:Work>
  </rdf:RDF>
 </metadata>
 <defs>
  <style type="text/css">*{stroke-linejoin: round; stroke-linecap: butt}</style>
 </defs>
 <g id="figure_1">
  <g id="patch_1">
   <path d="M 0 159.07 
L 254.8854 159.07 
L 254.8854 0 
L 0 0 
L 0 159.07 
z
" style="fill: none"/>
  </g>
  <g id="axes_1">
   <g id="patch_2">
    <path d="M 53.3754 118.21 
C 57.433007 118.21 61.324972 116.597895 64.194134 113.728734 
C 67.063295 110.859572 68.6754 106.967607 68.6754 102.91 
C 68.6754 98.852393 67.063295 94.960428 64.194134 92.091266 
C 61.324972 89.222105 57.433007 87.61 53.3754 87.61 
C 49.317793 87.61 45.425828 89.222105 42.556666 92.091266 
C 39.687505 94.960428 38.0754 98.852393 38.0754 102.91 
C 38.0754 106.967607 39.687505 110.859572 42.556666 113.728734 
C 45.425828 116.597895 49.317793 118.21 53.3754 118.21 
L 53.3754 118.21 
z
" clip-path="url(#p22acc5d411)" style="fill: none; stroke: #000000; stroke-width: 2; stroke-linejoin: miter"/>
   </g>
   <g id="patch_3">
    <path d="M 53.3754 118.21 
C 57.433007 118.21 61.324972 116.597895 64.194134 113.728734 
C 67.063295 110.859572 68.6754 106.967607 68.6754 102.91 
C 68.6754 98.852393 67.063295 94.960428 64.194134 92.091266 
C 61.324972 89.222105 57.433007 87.61 53.3754 87.61 
C 49.317793 87.61 45.425828 89.222105 42.556666 92.091266 
C 39.687505 94.960428 38.0754 98.852393 38.0754 102.91 
C 38.0754 106.967607 39.687505 110.859572 42.556666 113.728734 
C 45.425828 116.597895 49.317793 118.21 53.3754 118.21 
L 53.3754 118.21 
z
" clip-path="url(#p22acc5d411)" style="fill: none; stroke: #000000; stroke-width: 2; stroke-linejoin: miter"/>
   </g>
   <g id="line2d_1">
    <path d="M 53.3754 148.81 
L 53.3754 118.21 
L 53.3754 118.21 
M 53.3754 87.61 
L 53.3754 87.61 
L 53.3754 57.01 
" clip-path="url(#p22acc5d411)" style="fill: none; stroke: #000000; stroke-width: 2; stroke-linecap: round"/>
   </g>
   <g id="line2d_2">
    <path d="M 56.4354 110.56 
L 50.3154 110.56 
" clip-path="url(#p22acc5d411)" style="fill: none; stroke: #000000; stroke-width: 2; stroke-linecap: round"/>
   </g>
   <g id="line2d_3">
    <path d="M 53.3754 98.32 
L 53.3754 92.2 
" clip-path="url(#p22acc5d411)" style="fill: none; stroke: #000000; stroke-width: 2; stroke-linecap: round"/>
   </g>
   <g id="line2d_4">
    <path d="M 56.4354 95.26 
L 50.3154 95.26 
" clip-path="url(#p22acc5d411)" style="fill: none; stroke: #000000; stroke-width: 2; stroke-linecap: round"/>
   </g>
   <g id="line2d_5">
    <path d="M 53.3754 57.01 
L 83.9754 57.01 
L 86.5254 49.36 
L 91.6254 64.66 
L 96.7254 49.36 
L 101.8254 64.66 
L 106.9254 49.36 
L 112.0254 64.66 
L 114.5754 57.01 
L 145.1754 57.01 
" clip-path="url(#p22acc5d411)" style="fill: none; stroke: #000000; stroke-width: 2; stroke-linecap: round"/>
   </g>
   <g id="line2d_6">
    <path d="M 145.1754 57.01 
L 145.1754 87.61 
L 152.8254 90.16 
L 137.5254 95.26 
L 152.8254 100.36 
L 137.5254 105.46 
L 152.8254 110.56 
L 137.5254 115.66 
L 145.1754 118.21 
L 145.1754 148.81 
" clip-path="url(#p22acc5d411)" style="fill: none; stroke: #000000; stroke-width: 2; stroke-linecap: round"/>
   </g>
   <g id="line2d_7">
    <path d="M 145.1754 57.01 
L 191.0754 57.01 
L 236.9754 57.01 
" clip-path="url(#p22acc5d411)" style="fill: none; stroke: #000000; stroke-width: 2; stroke-linecap: round"/>
   </g>
   <g id="line2d_8">
    <path d="M 236.9754 57.01 
L 236.9754 87.61 
L 244.6254 90.16 
L 229.3254 95.26 
L 244.6254 100.36 
L 229.3254 105.46 
L 244.6254 110.56 
L 229.3254 115.66 
L 236.9754 118.21 
L 236.9754 148.81 
" clip-path="url(#p22acc5d411)" style="fill: none; stroke: #000000; stroke-width: 2; stroke-linecap: round"/>
   </g>
   <g id="line2d_9">
    <path d="M 236.9754 148.81 
L 145.1754 148.81 
L 53.3754 148.81 
" clip-path="url(#p22acc5d411)" style="fill: none; stroke: #000000; stroke-width: 2; stroke-linecap: round"/>
   </g>
   <g id="line2d_10">
    <path d="M 53.3754 148.81 
L 53.3754 118.21 
L 53.3754 118.21 
M 53.3754 87.61 
L 53.3754 87.61 
L 53.3754 57.01 
" clip-path="url(#p22acc5d411)" style="fill: none; stroke: #000000; stroke-width: 2; stroke-linecap: round"/>
   </g>
   <g id="line2d_11">
    <path d="M 56.4354 110.56 
L 50.3154 110.56 
" clip-path="url(#p22acc5d411)" style="fill: none; stroke: #000000; stroke-width: 2; stroke-linecap: round"/>
   </g>
   <g id="line2d_12">
    <path d="M 53.3754 98.32 
L 53.3754 92.2 
" clip-path="url(#p22acc5d411)" style="fill: none; stroke: #000000; stroke-width: 2; stroke-linecap: round"/>
   </g>
   <g id="line2d_13">
    <path d="M 56.4354 95.26 
L 50.3154 95.26 
" clip-path="url(#p22acc5d411)" style="fill: none; stroke: #000000; stroke-width: 2; stroke-linecap: round"/>
   </g>
   <g id="line2d_14">
    <path d="M 53.3754 57.01 
L 83.9754 57.01 
L 86.5254 49.36 
L 91.6254 64.66 
L 96.7254 49.36 
L 101.8254 64.66 
L 106.9254 49.36 
L 112.0254 64.66 
L 114.5754 57.01 
L 145.1754 57.01 
" clip-path="url(#p22acc5d411)" style="fill: none; stroke: #000000; stroke-width: 2; stroke-linecap: round"/>
   </g>
   <g id="line2d_15">
    <path d="M 145.1754 57.01 
L 145.1754 87.61 
L 152.8254 90.16 
L 137.5254 95.26 
L 152.8254 100.36 
L 137.5254 105.46 
L 152.8254 110.56 
L 137.5254 115.66 
L 145.1754 118.21 
L 145.1754 148.81 
" clip-path="url(#p22acc5d411)" style="fill: none; stroke: #000000; stroke-width: 2; stroke-linecap: round"/>
   </g>
   <g id="line2d_16">
    <path d="M 145.1754 57.01 
L 191.0754 57.01 
L 236.9754 57.01 
" clip-path="url(#p22acc5d411)" style="fill: none; stroke: #000000; stroke-width: 2; stroke-linecap: round"/>
   </g>
   <g id="line2d_17">
    <path d="M 236.9754 57.01 
L 236.9754 87.61 
L 244.6254 90.16 
L 229.3254 95.26 
L 244.6254 100.36 
L 229.3254 105.46 
L 244.6254 110.56 
L 229.3254 115.66 
L 236.9754 118.21 
L 236.9754 148.81 
" clip-path="url(#p22acc5d411)" style="fill: none; stroke: #000000; stroke-width: 2; stroke-linecap: round"/>
   </g>
   <g id="line2d_18">
    <path d="M 236.9754 148.81 
L 145.1754 148.81 
L 53.3754 148.81 
" clip-path="url(#p22acc5d411)" style="fill: none; stroke: #000000; stroke-width: 2; stroke-linecap: round"/>
   </g>
   <g id="text_1">
    <g clip-path="url(#p22acc5d411)">
     <!-- $V_S$ -->
     <g transform="translate(20.5154 106.359219)scale(0.125 -0.125)">
      <defs>
       <path id="DejaVuSans-Oblique-56" d="M 1319 0 
L 500 4666 
L 1119 4666 
L 1797 653 
L 4063 4666 
L 4750 4666 
L 2053 0 
L 1319 0 
z
" transform="scale(0.015625)"/>
       <path id="DejaVuSans-Oblique-53" d="M 3859 4513 
L 3738 3897 
Q 3422 4066 3111 4152 
Q 2800 4238 2509 4238 
Q 1944 4238 1609 3991 
Q 1275 3744 1275 3334 
Q 1275 3109 1398 2989 
Q 1522 2869 2034 2731 
L 2413 2638 
Q 3053 2472 3303 2217 
Q 3553 1963 3553 1503 
Q 3553 797 2998 353 
Q 2444 -91 1538 -91 
Q 1166 -91 791 -17 
Q 416 56 38 206 
L 166 856 
Q 513 641 861 531 
Q 1209 422 1556 422 
Q 2147 422 2503 684 
Q 2859 947 2859 1369 
Q 2859 1650 2717 1795 
Q 2575 1941 2106 2059 
L 1728 2156 
Q 1081 2325 845 2545 
Q 609 2766 609 3163 
Q 609 3859 1145 4304 
Q 1681 4750 2541 4750 
Q 2875 4750 3203 4690 
Q 3531 4631 3859 4513 
z
" transform="scale(0.015625)"/>
      </defs>
      <use xlink:href="#DejaVuSans-Oblique-56" transform="translate(0 0.09375)"/>
      <use xlink:href="#DejaVuSans-Oblique-53" transform="translate(68.408203 -16.3125)scale(0.7)"/>
     </g>
    </g>
   </g>
   <g id="text_2">
    <g clip-path="url(#p22acc5d411)">
     <!-- $R_1$ -->
     <g transform="translate(91.9629 29.703125)scale(0.125 -0.125)">
      <defs>
       <path id="DejaVuSans-Oblique-52" d="M 1613 4147 
L 1294 2491 
L 2106 2491 
Q 2584 2491 2879 2755 
Q 3175 3019 3175 3444 
Q 3175 3784 2976 3965 
Q 2778 4147 2406 4147 
L 1613 4147 
z
M 2772 2241 
Q 2972 2194 3105 2009 
Q 3238 1825 3413 1275 
L 3809 0 
L 3144 0 
L 2778 1197 
Q 2638 1659 2453 1815 
Q 2269 1972 1888 1972 
L 1191 1972 
L 806 0 
L 172 0 
L 1081 4666 
L 2503 4666 
Q 3150 4666 3495 4373 
Q 3841 4081 3841 3531 
Q 3841 3044 3547 2687 
Q 3253 2331 2772 2241 
z
" transform="scale(0.015625)"/>
       <path id="DejaVuSans-31" d="M 794 531 
L 1825 531 
L 1825 4091 
L 703 3866 
L 703 4441 
L 1819 4666 
L 2450 4666 
L 2450 531 
L 3481 531 
L 3481 0 
L 794 0 
L 794 531 
z
" transform="scale(0.015625)"/>
      </defs>
      <use xlink:href="#DejaVuSans-Oblique-52" transform="translate(0 0.09375)"/>
      <use xlink:href="#DejaVuSans-31" transform="translate(69.482422 -16.3125)scale(0.7)"/>
     </g>
    </g>
    <g clip-path="url(#p22acc5d411)">
     <!-- $2~\Omega$ -->
     <g transform="translate(88.4629 43.700391)scale(0.125 -0.125)">
      <defs>
       <path id="DejaVuSans-32" d="M 1228 531 
L 3431 531 
L 3431 0 
L 469 0 
L 469 531 
Q 828 903 1448 1529 
Q 2069 2156 2228 2338 
Q 2531 2678 2651 2914 
Q 2772 3150 2772 3378 
Q 2772 3750 2511 3984 
Q 2250 4219 1831 4219 
Q 1534 4219 1204 4116 
Q 875 4013 500 3803 
L 500 4441 
Q 881 4594 1212 4672 
Q 1544 4750 1819 4750 
Q 2544 4750 2975 4387 
Q 3406 4025 3406 3419 
Q 3406 3131 3298 2873 
Q 3191 2616 2906 2266 
Q 2828 2175 2409 1742 
Q 1991 1309 1228 531 
z
" transform="scale(0.015625)"/>
       <path id="DejaVuSans-3a9" d="M 4647 556 
L 4647 0 
L 2772 0 
L 2772 556 
Q 3325 859 3634 1378 
Q 3944 1897 3944 2528 
Q 3944 3278 3531 3731 
Q 3119 4184 2444 4184 
Q 1769 4184 1355 3729 
Q 941 3275 941 2528 
Q 941 1897 1250 1378 
Q 1563 859 2119 556 
L 2119 0 
L 244 0 
L 244 556 
L 1241 556 
Q 747 991 519 1456 
Q 294 1922 294 2497 
Q 294 3491 894 4106 
Q 1491 4722 2444 4722 
Q 3391 4722 3994 4106 
Q 4594 3494 4594 2528 
Q 4594 1922 4372 1459 
Q 4150 997 3647 556 
L 4647 556 
z
" transform="scale(0.015625)"/>
      </defs>
      <use xlink:href="#DejaVuSans-32" transform="translate(0 0.78125)"/>
      <use xlink:href="#DejaVuSans-3a9" transform="translate(96.093425 0.78125)"/>
     </g>
    </g>
   </g>
   <g id="text_3">
    <g clip-path="url(#p22acc5d411)">
     <!-- $R_2$ -->
     <g transform="translate(119.8404 99.360586)scale(0.125 -0.125)">
      <use xlink:href="#DejaVuSans-Oblique-52" transform="translate(0 0.09375)"/>
      <use xlink:href="#DejaVuSans-32" transform="translate(69.482422 -16.3125)scale(0.7)"/>
     </g>
    </g>
    <g clip-path="url(#p22acc5d411)">
     <!-- $5~\Omega$ -->
     <g transform="translate(112.8404 113.357852)scale(0.125 -0.125)">
      <defs>
       <path id="DejaVuSans-35" d="M 691 4666 
L 3169 4666 
L 3169 4134 
L 1269 4134 
L 1269 2991 
Q 1406 3038 1543 3061 
Q 1681 3084 1819 3084 
Q 2600 3084 3056 2656 
Q 3513 2228 3513 1497 
Q 3513 744 3044 326 
Q 2575 -91 1722 -91 
Q 1428 -91 1123 -41 
Q 819 9 494 109 
L 494 744 
Q 775 591 1075 516 
Q 1375 441 1709 441 
Q 2250 441 2565 725 
Q 2881 1009 2881 1497 
Q 2881 1984 2565 2268 
Q 2250 2553 1709 2553 
Q 1456 2553 1204 2497 
Q 953 2441 691 2322 
L 691 4666 
z
" transform="scale(0.015625)"/>
      </defs>
      <use xlink:href="#DejaVuSans-35" transform="translate(0 0.21875)"/>
      <use xlink:href="#DejaVuSans-3a9" transform="translate(96.093425 0.21875)"/>
     </g>
    </g>
   </g>
   <g id="text_4">
    <g clip-path="url(#p22acc5d411)">
     <!-- $R_3$ -->
     <g transform="translate(211.6404 99.360586)scale(0.125 -0.125)">
      <defs>
       <path id="DejaVuSans-33" d="M 2597 2516 
Q 3050 2419 3304 2112 
Q 3559 1806 3559 1356 
Q 3559 666 3084 287 
Q 2609 -91 1734 -91 
Q 1441 -91 1130 -33 
Q 819 25 488 141 
L 488 750 
Q 750 597 1062 519 
Q 1375 441 1716 441 
Q 2309 441 2620 675 
Q 2931 909 2931 1356 
Q 2931 1769 2642 2001 
Q 2353 2234 1838 2234 
L 1294 2234 
L 1294 2753 
L 1863 2753 
Q 2328 2753 2575 2939 
Q 2822 3125 2822 3475 
Q 2822 3834 2567 4026 
Q 2313 4219 1838 4219 
Q 1578 4219 1281 4162 
Q 984 4106 628 3988 
L 628 4550 
Q 988 4650 1302 4700 
Q 1616 4750 1894 4750 
Q 2613 4750 3031 4423 
Q 3450 4097 3450 3541 
Q 3450 3153 3228 2886 
Q 3006 2619 2597 2516 
z
" transform="scale(0.015625)"/>
      </defs>
      <use xlink:href="#DejaVuSans-Oblique-52" transform="translate(0 0.09375)"/>
      <use xlink:href="#DejaVuSans-33" transform="translate(69.482422 -16.3125)scale(0.7)"/>
     </g>
    </g>
    <g clip-path="url(#p22acc5d411)">
     <!-- $4~\Omega$ -->
     <g transform="translate(204.6404 113.357852)scale(0.125 -0.125)">
      <defs>
       <path id="DejaVuSans-34" d="M 2419 4116 
L 825 1625 
L 2419 1625 
L 2419 4116 
z
M 2253 4666 
L 3047 4666 
L 3047 1625 
L 3713 1625 
L 3713 1100 
L 3047 1100 
L 3047 0 
L 2419 0 
L 2419 1100 
L 313 1100 
L 313 1709 
L 2253 4666 
z
" transform="scale(0.015625)"/>
      </defs>
      <use xlink:href="#DejaVuSans-34" transform="translate(0 0.21875)"/>
      <use xlink:href="#DejaVuSans-3a9" transform="translate(96.093425 0.21875)"/>
     </g>
    </g>
   </g>
   <g id="text_5">
    <g clip-path="url(#p22acc5d411)">
     <!-- $V_S$ -->
     <g transform="translate(20.5154 106.359219)scale(0.125 -0.125)">
      <use xlink:href="#DejaVuSans-Oblique-56" transform="translate(0 0.09375)"/>
      <use xlink:href="#DejaVuSans-Oblique-53" transform="translate(68.408203 -16.3125)scale(0.7)"/>
     </g>
    </g>
   </g>
   <g id="text_6">
    <g clip-path="url(#p22acc5d411)">
     <!-- $R_1$ -->
     <g transform="translate(91.9629 29.703125)scale(0.125 -0.125)">
      <use xlink:href="#DejaVuSans-Oblique-52" transform="translate(0 0.09375)"/>
      <use xlink:href="#DejaVuSans-31" transform="translate(69.482422 -16.3125)scale(0.7)"/>
     </g>
    </g>
    <g clip-path="url(#p22acc5d411)">
     <!-- $2~\Omega$ -->
     <g transform="translate(88.4629 43.700391)scale(0.125 -0.125)">
      <use xlink:href="#DejaVuSans-32" transform="translate(0 0.78125)"/>
      <use xlink:href="#DejaVuSans-3a9" transform="translate(96.093425 0.78125)"/>
     </g>
    </g>
   </g>
   <g id="text_7">
    <g clip-path="url(#p22acc5d411)">
     <!-- $R_2$ -->
     <g transform="translate(119.8404 99.360586)scale(0.125 -0.125)">
      <use xlink:href="#DejaVuSans-Oblique-52" transform="translate(0 0.09375)"/>
      <use xlink:href="#DejaVuSans-32" transform="translate(69.482422 -16.3125)scale(0.7)"/>
     </g>
    </g>
    <g clip-path="url(#p22acc5d411)">
     <!-- $5~\Omega$ -->
     <g transform="translate(112.8404 113.357852)scale(0.125 -0.125)">
      <use xlink:href="#DejaVuSans-35" transform="translate(0 0.21875)"/>
      <use xlink:href="#DejaVuSans-3a9" transform="translate(96.093425 0.21875)"/>
     </g>
    </g>
   </g>
   <g id="text_8">
    <g clip-path="url(#p22acc5d411)">
     <!-- $R_3$ -->
     <g transform="translate(211.6404 99.360586)scale(0.125 -0.125)">
      <use xlink:href="#DejaVuSans-Oblique-52" transform="translate(0 0.09375)"/>
      <use xlink:href="#DejaVuSans-33" transform="translate(69.482422 -16.3125)scale(0.7)"/>
     </g>
    </g>
    <g clip-path="url(#p22acc5d411)">
     <!-- $4~\Omega$ -->
     <g transform="translate(204.6404 113.357852)scale(0.125 -0.125)">
      <use xlink:href="#DejaVuSans-34" transform="translate(0 0.21875)"/>
      <use xlink:href="#DejaVuSans-3a9" transform="translate(96.093425 0.21875)"/>
     </g>
    </g>
   </g>
  </g>
 </g>
 <defs>
  <clipPath id="p22acc5d411">
   <rect x="7.2" y="7.2" width="240.4854" height="144.67"/>
  </clipPath>
 </defs>
</svg>
