<?xml version="1.0" encoding="utf-8" standalone="no"?>
<!DOCTYPE svg PUBLIC "-//W3C//DTD SVG 1.1//EN"
  "http://www.w3.org/Graphics/SVG/1.1/DTD/svg11.dtd">
<svg xmlns:xlink="http://www.w3.org/1999/xlink" width="254.8854pt" height="159.07pt" viewBox="0 0 254.8854 159.07" xmlns="http://www.w3.org/2000/svg" version="1.1">
 <metadata>
  <rdf:RDF xmlns:dc="http://purl.org/dc/elements/1.1/" xmlns:cc="http://creativecommons.org/ns#" xmlns:rdf="http://www.w3.org/1999/02/22-rdf-syntax-ns#">
   <cc:Work>
    <dc:type rdf:resource="http://purl.org/dc/dcmitype/StillImage"/>
    <dc:date>2023-10-21T16:49:31.279791</dc:date>
    <dc:format>image/svg+xml</dc:format>
    <dc:creator>
     <cc:Agent>
      <dc:title>Matplotlib v3.5.2, https://matplotlib.org/</dc:title>
     </cc:Agent>
    </dc:creator>
   </cc:Work>
  </rdf:RDF>
 </metadata>
 <defs>
  <style type="text/css">*{stroke-linejoin: round; stroke-linecap: butt}</style>
 </defs>
 <g id="figure_1">
  <g id="patch_1">
   <path d="M 0 159.07 
L 254.8854 159.07 
L 254.8854 0 
L 0 0 
L 0 159.07 
z
" style="fill: none"/>
  </g>
  <g id="axes_1">
   <g id="patch_2">
    <path d="M 53.3754 118.21 
C 57.433007 118.21 61.324972 116.597895 64.194134 113.728734 
C 67.063295 110.859572 68.6754 106.967607 68.6754 102.91 
C 68.6754 98.852393 67.063295 94.960428 64.194134 92.091266 
C 61.324972 89.222105 57.433007 87.61 53.3754 87.61 
C 49.317793 87.61 45.425828 89.222105 42.556666 92.091266 
C 39.687505 94.960428 38.0754 98.852393 38.0754 102.91 
C 38.0754 106.967607 39.687505 110.859572 42.556666 113.728734 
C 45.425828 116.597895 49.317793 118.21 53.3754 118.21 
L 53.3754 118.21 
z
" clip-path="url(#p2ac0602dac)" style="fill: none; stroke: #000000; stroke-width: 2; stroke-linejoin: miter"/>
   </g>
   <g id="patch_3">
    <path d="M 53.3754 118.21 
C 57.433007 118.21 61.324972 116.597895 64.194134 113.728734 
C 67.063295 110.859572 68.6754 106.967607 68.6754 102.91 
C 68.6754 98.852393 67.063295 94.960428 64.194134 92.091266 
C 61.324972 89.222105 57.433007 87.61 53.3754 87.61 
C 49.317793 87.61 45.425828 89.222105 42.556666 92.091266 
C 39.687505 94.960428 38.0754 98.852393 38.0754 102.91 
C 38.0754 106.967607 39.687505 110.859572 42.556666 113.728734 
C 45.425828 116.597895 49.317793 118.21 53.3754 118.21 
L 53.3754 118.21 
z
" clip-path="url(#p2ac0602dac)" style="fill: none; stroke: #000000; stroke-width: 2; stroke-linejoin: miter"/>
   </g>
   <g id="line2d_1">
    <path d="M 53.3754 148.81 
L 53.3754 118.21 
L 53.3754 118.21 
M 53.3754 87.61 
L 53.3754 87.61 
L 53.3754 57.01 
" clip-path="url(#p2ac0602dac)" style="fill: none; stroke: #000000; stroke-width: 2; stroke-linecap: round"/>
   </g>
   <g id="line2d_2">
    <path d="M 56.4354 110.56 
L 50.3154 110.56 
" clip-path="url(#p2ac0602dac)" style="fill: none; stroke: #000000; stroke-width: 2; stroke-linecap: round"/>
   </g>
   <g id="line2d_3">
    <path d="M 53.3754 98.32 
L 53.3754 92.2 
" clip-path="url(#p2ac0602dac)" style="fill: none; stroke: #000000; stroke-width: 2; stroke-linecap: round"/>
   </g>
   <g id="line2d_4">
    <path d="M 56.4354 95.26 
L 50.3154 95.26 
" clip-path="url(#p2ac0602dac)" style="fill: none; stroke: #000000; stroke-width: 2; stroke-linecap: round"/>
   </g>
   <g id="line2d_5">
    <path d="M 53.3754 57.01 
L 83.9754 57.01 
L 86.5254 49.36 
L 91.6254 64.66 
L 96.7254 49.36 
L 101.8254 64.66 
L 106.9254 49.36 
L 112.0254 64.66 
L 114.5754 57.01 
L 145.1754 57.01 
" clip-path="url(#p2ac0602dac)" style="fill: none; stroke: #000000; stroke-width: 2; stroke-linecap: round"/>
   </g>
   <g id="line2d_6">
    <path d="M 145.1754 57.01 
L 145.1754 87.61 
L 152.8254 90.16 
L 137.5254 95.26 
L 152.8254 100.36 
L 137.5254 105.46 
L 152.8254 110.56 
L 137.5254 115.66 
L 145.1754 118.21 
L 145.1754 148.81 
" clip-path="url(#p2ac0602dac)" style="fill: none; stroke: #000000; stroke-width: 2; stroke-linecap: round"/>
   </g>
   <g id="line2d_7">
    <path d="M 145.1754 57.01 
L 191.0754 57.01 
L 236.9754 57.01 
" clip-path="url(#p2ac0602dac)" style="fill: none; stroke: #000000; stroke-width: 2; stroke-linecap: round"/>
   </g>
   <g id="line2d_8">
    <path d="M 236.9754 57.01 
L 236.9754 87.61 
L 244.6254 90.16 
L 229.3254 95.26 
L 244.6254 100.36 
L 229.3254 105.46 
L 244.6254 110.56 
L 229.3254 115.66 
L 236.9754 118.21 
L 236.9754 148.81 
" clip-path="url(#p2ac0602dac)" style="fill: none; stroke: #000000; stroke-width: 2; stroke-linecap: round"/>
   </g>
   <g id="line2d_9">
    <path d="M 236.9754 148.81 
L 145.1754 148.81 
L 53.3754 148.81 
" clip-path="url(#p2ac0602dac)" style="fill: none; stroke: #000000; stroke-width: 2; stroke-linecap: round"/>
   </g>
   <g id="line2d_10">
    <path d="M 53.3754 148.81 
L 53.3754 118.21 
L 53.3754 118.21 
M 53.3754 87.61 
L 53.3754 87.61 
L 53.3754 57.01 
" clip-path="url(#p2ac0602dac)" style="fill: none; stroke: #000000; stroke-width: 2; stroke-linecap: round"/>
   </g>
   <g id="line2d_11">
    <path d="M 56.4354 110.56 
L 50.3154 110.56 
" clip-path="url(#p2ac0602dac)" style="fill: none; stroke: #000000; stroke-width: 2; stroke-linecap: round"/>
   </g>
   <g id="line2d_12">
    <path d="M 53.3754 98.32 
L 53.3754 92.2 
" clip-path="url(#p2ac0602dac)" style="fill: none; stroke: #000000; stroke-width: 2; stroke-linecap: round"/>
   </g>
   <g id="line2d_13">
    <path d="M 56.4354 95.26 
L 50.3154 95.26 
" clip-path="url(#p2ac0602dac)" style="fill: none; stroke: #000000; stroke-width: 2; stroke-linecap: round"/>
   </g>
   <g id="line2d_14">
    <path d="M 53.3754 57.01 
L 83.9754 57.01 
L 86.5254 49.36 
L 91.6254 64.66 
L 96.7254 49.36 
L 101.8254 64.66 
L 106.9254 49.36 
L 112.0254 64.66 
L 114.5754 57.01 
L 145.1754 57.01 
" clip-path="url(#p2ac0602dac)" style="fill: none; stroke: #000000; stroke-width: 2; stroke-linecap: round"/>
   </g>
   <g id="line2d_15">
    <path d="M 145.1754 57.01 
L 145.1754 87.61 
L 152.8254 90.16 
L 137.5254 95.26 
L 152.8254 100.36 
L 137.5254 105.46 
L 152.8254 110.56 
L 137.5254 115.66 
L 145.1754 118.21 
L 145.1754 148.81 
" clip-path="url(#p2ac0602dac)" style="fill: none; stroke: #000000; stroke-width: 2; stroke-linecap: round"/>
   </g>
   <g id="line2d_16">
    <path d="M 145.1754 57.01 
L 191.0754 57.01 
L 236.9754 57.01 
" clip-path="url(#p2ac0602dac)" style="fill: none; stroke: #000000; stroke-width: 2; stroke-linecap: round"/>
   </g>
   <g id="line2d_17">
    <path d="M 236.9754 57.01 
L 236.9754 87.61 
L 244.6254 90.16 
L 229.3254 95.26 
L 244.6254 100.36 
L 229.3254 105.46 
L 244.6254 110.56 
L 229.3254 115.66 
L 236.9754 118.21 
L 236.9754 148.81 
" clip-path="url(#p2ac0602dac)" style="fill: none; stroke: #000000; stroke-width: 2; stroke-linecap: round"/>
   </g>
   <g id="line2d_18">
    <path d="M 236.9754 148.81 
L 145.1754 148.81 
L 53.3754 148.81 
" clip-path="url(#p2ac0602dac)" style="fill: none; stroke: #000000; stroke-width: 2; stroke-linecap: round"/>
   </g>
   <g id="text_1">
    <g clip-path="url(#p2ac0602dac)">
     <!-- $V_S$ -->
     <g transform="translate(22.3904 106.359219)scale(0.125 -0.125)">
      <defs>
       <path id="STIXGeneral-Italic-56" d="M 4403 4179 
L 4403 4077 
Q 4198 4070 4045 3821 
L 1658 -115 
L 1536 -115 
L 1011 3104 
Q 902 3776 828 3910 
Q 755 4045 486 4077 
L 486 4179 
L 2022 4179 
L 2022 4077 
Q 1722 4045 1629 3981 
Q 1536 3917 1536 3750 
Q 1536 3686 1542 3654 
L 1958 819 
L 3302 3123 
Q 3616 3661 3616 3859 
Q 3616 4032 3219 4077 
L 3219 4179 
L 4403 4179 
z
" transform="scale(0.015625)"/>
       <path id="STIXGeneral-Italic-53" d="M 3251 4269 
L 2995 2989 
L 2880 3008 
Q 2880 3539 2720 3795 
Q 2560 4051 2118 4051 
Q 1786 4051 1594 3881 
Q 1402 3712 1402 3411 
Q 1402 3168 1504 3005 
Q 1606 2842 2035 2413 
Q 2464 1978 2611 1715 
Q 2758 1453 2758 1133 
Q 2758 589 2390 237 
Q 2022 -115 1466 -115 
Q 1222 -115 800 32 
Q 595 109 499 109 
Q 288 109 224 -96 
L 109 -96 
L 326 1338 
L 454 1325 
Q 442 1267 442 1178 
Q 442 710 701 409 
Q 960 109 1363 109 
Q 1734 109 1968 336 
Q 2202 563 2202 928 
Q 2202 1139 2118 1308 
Q 2035 1478 1818 1715 
L 1568 1984 
Q 1549 2003 1459 2102 
Q 1370 2202 1318 2253 
Q 1030 2560 934 2755 
Q 838 2950 838 3213 
Q 838 3699 1168 3980 
Q 1498 4262 1978 4262 
Q 2310 4262 2522 4173 
Q 2707 4102 2816 4102 
Q 2925 4102 2982 4134 
Q 3040 4166 3104 4269 
L 3251 4269 
z
" transform="scale(0.015625)"/>
      </defs>
      <use xlink:href="#STIXGeneral-Italic-56" transform="translate(0 0.703125)"/>
      <use xlink:href="#STIXGeneral-Italic-53" transform="translate(61.099991 -12.525)scale(0.7)"/>
     </g>
    </g>
   </g>
   <g id="text_2">
    <g clip-path="url(#p2ac0602dac)">
     <!-- $R_1$ -->
     <g transform="translate(92.9629 29.703125)scale(0.125 -0.125)">
      <defs>
       <path id="STIXGeneral-Italic-52" d="M 845 4179 
L 2458 4179 
Q 3078 4179 3420 3936 
Q 3763 3693 3763 3277 
Q 3763 2778 3341 2458 
Q 3091 2266 2502 2131 
L 3072 627 
Q 3181 333 3299 217 
Q 3418 102 3629 102 
L 3629 0 
L 2688 0 
L 1901 2074 
L 1478 2106 
L 1126 806 
Q 1043 512 1043 403 
Q 1043 256 1126 192 
Q 1210 128 1472 102 
L 1472 0 
L -83 0 
L -83 102 
Q 173 134 278 243 
Q 384 352 461 646 
L 1222 3405 
Q 1299 3699 1299 3808 
Q 1299 3923 1210 3987 
Q 1133 4038 845 4077 
L 845 4179 
z
M 1958 3795 
L 1555 2342 
Q 1754 2310 1882 2310 
Q 2451 2310 2771 2566 
Q 3091 2822 3091 3270 
Q 3091 3603 2892 3795 
Q 2694 3987 2323 3987 
Q 2010 3987 1958 3795 
z
" transform="scale(0.015625)"/>
       <path id="STIXGeneral-Regular-31" d="M 2522 0 
L 755 0 
L 755 96 
Q 1107 115 1235 227 
Q 1363 339 1363 608 
L 1363 3482 
Q 1363 3795 1171 3795 
Q 1082 3795 883 3718 
L 710 3654 
L 710 3744 
L 1856 4326 
L 1914 4307 
L 1914 486 
Q 1914 275 2042 185 
Q 2170 96 2522 96 
L 2522 0 
z
" transform="scale(0.015625)"/>
      </defs>
      <use xlink:href="#STIXGeneral-Italic-52" transform="translate(0 0.703125)"/>
      <use xlink:href="#STIXGeneral-Regular-31" transform="translate(61.099991 -12.525)scale(0.7)"/>
     </g>
    </g>
    <g clip-path="url(#p2ac0602dac)">
     <!-- $2~\Omega$ -->
     <g transform="translate(89.9629 43.700391)scale(0.125 -0.125)">
      <defs>
       <path id="STIXGeneral-Regular-32" d="M 3034 877 
L 2688 0 
L 186 0 
L 186 77 
L 1325 1286 
Q 1773 1754 1965 2144 
Q 2157 2534 2157 2950 
Q 2157 3379 1920 3616 
Q 1683 3853 1267 3853 
Q 922 3853 720 3673 
Q 518 3494 326 3021 
L 192 3053 
Q 301 3648 630 3987 
Q 960 4326 1523 4326 
Q 2054 4326 2380 4006 
Q 2707 3686 2707 3200 
Q 2707 2477 1888 1613 
L 832 486 
L 2330 486 
Q 2541 486 2665 569 
Q 2790 653 2944 915 
L 3034 877 
z
" transform="scale(0.015625)"/>
       <path id="STIXGeneral-Regular-3a9" d="M 4576 0 
L 2746 0 
L 2790 1030 
Q 3187 1126 3440 1574 
Q 3693 2022 3693 2554 
Q 3693 3251 3344 3673 
Q 2995 4096 2380 4096 
Q 1766 4096 1417 3635 
Q 1069 3174 1069 2554 
Q 1069 2054 1315 1600 
Q 1562 1146 1965 1030 
L 2022 0 
L 186 0 
L 186 1094 
L 346 1094 
Q 352 806 438 707 
Q 525 608 742 608 
L 1709 608 
L 1696 845 
Q 1018 1037 678 1446 
Q 339 1856 339 2541 
Q 339 3238 899 3782 
Q 1459 4326 2380 4326 
Q 3302 4326 3862 3804 
Q 4422 3283 4422 2541 
Q 4422 1235 3046 845 
L 3034 608 
L 4019 608 
Q 4397 608 4416 1082 
L 4576 1082 
L 4576 0 
z
" transform="scale(0.015625)"/>
      </defs>
      <use xlink:href="#STIXGeneral-Regular-32" transform="translate(0 0.40625)"/>
      <use xlink:href="#STIXGeneral-Regular-3a9" transform="translate(74.066405 0.40625)"/>
     </g>
    </g>
   </g>
   <g id="text_3">
    <g clip-path="url(#p2ac0602dac)">
     <!-- $R_2$ -->
     <g transform="translate(121.8404 99.360586)scale(0.125 -0.125)">
      <use xlink:href="#STIXGeneral-Italic-52" transform="translate(0 0.703125)"/>
      <use xlink:href="#STIXGeneral-Regular-32" transform="translate(61.099991 -12.525)scale(0.7)"/>
     </g>
    </g>
    <g clip-path="url(#p2ac0602dac)">
     <!-- $5~\Omega$ -->
     <g transform="translate(115.8404 113.357852)scale(0.125 -0.125)">
      <defs>
       <path id="STIXGeneral-Regular-35" d="M 2803 4358 
L 2573 3814 
Q 2534 3731 2400 3731 
L 1158 3731 
L 902 3187 
Q 1606 3053 1920 2896 
Q 2234 2739 2502 2368 
Q 2726 2061 2726 1555 
Q 2726 1094 2576 780 
Q 2426 467 2099 224 
Q 1664 -90 1011 -90 
Q 646 -90 422 19 
Q 198 128 198 307 
Q 198 550 486 550 
Q 717 550 960 352 
Q 1210 147 1414 147 
Q 1747 147 2012 480 
Q 2278 813 2278 1229 
Q 2278 1843 1850 2189 
Q 1293 2637 486 2637 
Q 410 2637 410 2688 
L 416 2720 
L 1114 4237 
L 2438 4237 
Q 2547 4237 2608 4269 
Q 2669 4301 2746 4403 
L 2803 4358 
z
" transform="scale(0.015625)"/>
      </defs>
      <use xlink:href="#STIXGeneral-Regular-35" transform="translate(0 0.203125)"/>
      <use xlink:href="#STIXGeneral-Regular-3a9" transform="translate(74.066405 0.203125)"/>
     </g>
    </g>
   </g>
   <g id="text_4">
    <g clip-path="url(#p2ac0602dac)">
     <!-- $R_3$ -->
     <g transform="translate(213.6404 99.360586)scale(0.125 -0.125)">
      <defs>
       <path id="STIXGeneral-Regular-33" d="M 390 3264 
L 288 3290 
Q 435 3770 748 4048 
Q 1062 4326 1542 4326 
Q 1990 4326 2265 4083 
Q 2541 3840 2541 3450 
Q 2541 2925 1946 2566 
Q 2298 2413 2477 2227 
Q 2758 1914 2758 1402 
Q 2758 890 2464 506 
Q 2246 211 1840 60 
Q 1434 -90 979 -90 
Q 262 -90 262 275 
Q 262 378 339 442 
Q 416 506 525 506 
Q 685 506 915 339 
Q 1197 141 1466 141 
Q 1818 141 2058 425 
Q 2298 710 2298 1120 
Q 2298 1856 1632 2048 
Q 1434 2112 979 2112 
L 979 2202 
Q 1338 2323 1517 2432 
Q 2035 2726 2035 3290 
Q 2035 3610 1852 3776 
Q 1670 3942 1344 3942 
Q 768 3942 390 3264 
z
" transform="scale(0.015625)"/>
      </defs>
      <use xlink:href="#STIXGeneral-Italic-52" transform="translate(0 0.703125)"/>
      <use xlink:href="#STIXGeneral-Regular-33" transform="translate(61.099991 -12.525)scale(0.7)"/>
     </g>
    </g>
    <g clip-path="url(#p2ac0602dac)">
     <!-- $4~\Omega$ -->
     <g transform="translate(207.6404 113.357852)scale(0.125 -0.125)">
      <defs>
       <path id="STIXGeneral-Regular-34" d="M 3027 1069 
L 2368 1069 
L 2368 0 
L 1869 0 
L 1869 1069 
L 77 1069 
L 77 1478 
L 2086 4326 
L 2368 4326 
L 2368 1478 
L 3027 1478 
L 3027 1069 
z
M 1869 1478 
L 1869 3674 
L 333 1478 
L 1869 1478 
z
" transform="scale(0.015625)"/>
      </defs>
      <use xlink:href="#STIXGeneral-Regular-34" transform="translate(0 0.40625)"/>
      <use xlink:href="#STIXGeneral-Regular-3a9" transform="translate(74.066405 0.40625)"/>
     </g>
    </g>
   </g>
   <g id="text_5">
    <g clip-path="url(#p2ac0602dac)">
     <!-- $V_S$ -->
     <g transform="translate(22.3904 106.359219)scale(0.125 -0.125)">
      <use xlink:href="#STIXGeneral-Italic-56" transform="translate(0 0.703125)"/>
      <use xlink:href="#STIXGeneral-Italic-53" transform="translate(61.099991 -12.525)scale(0.7)"/>
     </g>
    </g>
   </g>
   <g id="text_6">
    <g clip-path="url(#p2ac0602dac)">
     <!-- $R_1$ -->
     <g transform="translate(92.9629 29.703125)scale(0.125 -0.125)">
      <use xlink:href="#STIXGeneral-Italic-52" transform="translate(0 0.703125)"/>
      <use xlink:href="#STIXGeneral-Regular-31" transform="translate(61.099991 -12.525)scale(0.7)"/>
     </g>
    </g>
    <g clip-path="url(#p2ac0602dac)">
     <!-- $2~\Omega$ -->
     <g transform="translate(89.9629 43.700391)scale(0.125 -0.125)">
      <use xlink:href="#STIXGeneral-Regular-32" transform="translate(0 0.40625)"/>
      <use xlink:href="#STIXGeneral-Regular-3a9" transform="translate(74.066405 0.40625)"/>
     </g>
    </g>
   </g>
   <g id="text_7">
    <g clip-path="url(#p2ac0602dac)">
     <!-- $R_2$ -->
     <g transform="translate(121.8404 99.360586)scale(0.125 -0.125)">
      <use xlink:href="#STIXGeneral-Italic-52" transform="translate(0 0.703125)"/>
      <use xlink:href="#STIXGeneral-Regular-32" transform="translate(61.099991 -12.525)scale(0.7)"/>
     </g>
    </g>
    <g clip-path="url(#p2ac0602dac)">
     <!-- $5~\Omega$ -->
     <g transform="translate(115.8404 113.357852)scale(0.125 -0.125)">
      <use xlink:href="#STIXGeneral-Regular-35" transform="translate(0 0.203125)"/>
      <use xlink:href="#STIXGeneral-Regular-3a9" transform="translate(74.066405 0.203125)"/>
     </g>
    </g>
   </g>
   <g id="text_8">
    <g clip-path="url(#p2ac0602dac)">
     <!-- $R_3$ -->
     <g transform="translate(213.6404 99.360586)scale(0.125 -0.125)">
      <use xlink:href="#STIXGeneral-Italic-52" transform="translate(0 0.703125)"/>
      <use xlink:href="#STIXGeneral-Regular-33" transform="translate(61.099991 -12.525)scale(0.7)"/>
     </g>
    </g>
    <g clip-path="url(#p2ac0602dac)">
     <!-- $4~\Omega$ -->
     <g transform="translate(207.6404 113.357852)scale(0.125 -0.125)">
      <use xlink:href="#STIXGeneral-Regular-34" transform="translate(0 0.40625)"/>
      <use xlink:href="#STIXGeneral-Regular-3a9" transform="translate(74.066405 0.40625)"/>
     </g>
    </g>
   </g>
  </g>
 </g>
 <defs>
  <clipPath id="p2ac0602dac">
   <rect x="7.2" y="7.2" width="240.4854" height="144.67"/>
  </clipPath>
 </defs>
</svg>
