<?xml version="1.0" encoding="utf-8" standalone="no"?>
<!DOCTYPE svg PUBLIC "-//W3C//DTD SVG 1.1//EN"
  "http://www.w3.org/Graphics/SVG/1.1/DTD/svg11.dtd">
<svg xmlns:xlink="http://www.w3.org/1999/xlink" width="275.4588pt" height="112.32pt" viewBox="0 0 275.4588 112.32" xmlns="http://www.w3.org/2000/svg" version="1.1">
 <metadata>
  <rdf:RDF xmlns:dc="http://purl.org/dc/elements/1.1/" xmlns:cc="http://creativecommons.org/ns#" xmlns:rdf="http://www.w3.org/1999/02/22-rdf-syntax-ns#">
   <cc:Work>
    <dc:type rdf:resource="http://purl.org/dc/dcmitype/StillImage"/>
    <dc:date>2023-05-23T08:00:12.205096</dc:date>
    <dc:format>image/svg+xml</dc:format>
    <dc:creator>
     <cc:Agent>
      <dc:title>Matplotlib v3.5.2, https://matplotlib.org/</dc:title>
     </cc:Agent>
    </dc:creator>
   </cc:Work>
  </rdf:RDF>
 </metadata>
 <defs>
  <style type="text/css">*{stroke-linejoin: round; stroke-linecap: butt}</style>
 </defs>
 <g id="figure_1">
  <g id="patch_1">
   <path d="M 0 112.32 
L 275.4588 112.32 
L 275.4588 0 
L 0 0 
L 0 112.32 
z
" style="fill: none"/>
  </g>
  <g id="axes_1">
   <g id="patch_2">
    <path d="M 66.2988 71.46 
C 70.356407 71.46 74.248372 69.847895 77.117534 66.978734 
C 79.986695 64.109572 81.5988 60.217607 81.5988 56.16 
C 81.5988 52.102393 79.986695 48.210428 77.117534 45.341266 
C 74.248372 42.472105 70.356407 40.86 66.2988 40.86 
C 62.241193 40.86 58.349228 42.472105 55.480066 45.341266 
C 52.610905 48.210428 50.9988 52.102393 50.9988 56.16 
C 50.9988 60.217607 52.610905 64.109572 55.480066 66.978734 
C 58.349228 69.847895 62.241193 71.46 66.2988 71.46 
L 66.2988 71.46 
z
" clip-path="url(#ped5c64fdf5)" style="fill: none; stroke: #000000; stroke-width: 2; stroke-linejoin: miter"/>
   </g>
   <g id="patch_3">
    <path d="M 66.2988 71.46 
C 70.356407 71.46 74.248372 69.847895 77.117534 66.978734 
C 79.986695 64.109572 81.5988 60.217607 81.5988 56.16 
C 81.5988 52.102393 79.986695 48.210428 77.117534 45.341266 
C 74.248372 42.472105 70.356407 40.86 66.2988 40.86 
C 62.241193 40.86 58.349228 42.472105 55.480066 45.341266 
C 52.610905 48.210428 50.9988 52.102393 50.9988 56.16 
C 50.9988 60.217607 52.610905 64.109572 55.480066 66.978734 
C 58.349228 69.847895 62.241193 71.46 66.2988 71.46 
L 66.2988 71.46 
z
" clip-path="url(#ped5c64fdf5)" style="fill: none; stroke: #000000; stroke-width: 2; stroke-linejoin: miter"/>
   </g>
   <g id="line2d_1">
    <path d="M 66.2988 102.06 
L 66.2988 71.46 
L 66.2988 71.46 
M 66.2988 40.86 
L 66.2988 40.86 
L 66.2988 10.26 
" clip-path="url(#ped5c64fdf5)" style="fill: none; stroke: #000000; stroke-width: 2; stroke-linecap: round"/>
   </g>
   <g id="line2d_2">
    <path d="M 66.2988 63.81 
L 66.2988 56.16 
" clip-path="url(#ped5c64fdf5)" style="fill: none; stroke: #000000; stroke-width: 2; stroke-linecap: round"/>
   </g>
   <g id="patch_4">
    <path d="M 64.0038 56.16 
L 66.2988 48.51 
L 68.5938 56.16 
z
" clip-path="url(#ped5c64fdf5)"/>
   </g>
   <g id="line2d_3">
    <path d="M 66.2988 10.26 
L 112.1988 10.26 
L 158.0988 10.26 
" clip-path="url(#ped5c64fdf5)" style="fill: none; stroke: #000000; stroke-width: 2; stroke-linecap: round"/>
   </g>
   <g id="line2d_4">
    <path d="M 158.0988 10.26 
L 158.0988 40.86 
L 165.7488 43.41 
L 150.4488 48.51 
L 165.7488 53.61 
L 150.4488 58.71 
L 165.7488 63.81 
L 150.4488 68.91 
L 158.0988 71.46 
L 158.0988 102.06 
" clip-path="url(#ped5c64fdf5)" style="fill: none; stroke: #000000; stroke-width: 2; stroke-linecap: round"/>
   </g>
   <g id="line2d_5">
    <path d="M 158.0988 10.26 
L 203.9988 10.26 
L 249.8988 10.26 
" clip-path="url(#ped5c64fdf5)" style="fill: none; stroke: #000000; stroke-width: 2; stroke-linecap: round"/>
   </g>
   <g id="line2d_6">
    <path d="M 249.8988 10.26 
L 249.8988 40.86 
L 265.1988 56.16 
L 249.8988 71.46 
L 234.5988 56.16 
L 249.8988 40.86 
M 249.8988 71.46 
L 249.8988 102.06 
" clip-path="url(#ped5c64fdf5)" style="fill: none; stroke: #000000; stroke-width: 2; stroke-linecap: round"/>
   </g>
   <g id="line2d_7">
    <path d="M 249.8988 48.51 
L 249.8988 56.16 
" clip-path="url(#ped5c64fdf5)" style="fill: none; stroke: #000000; stroke-width: 2; stroke-linecap: round"/>
   </g>
   <g id="patch_5">
    <path d="M 252.1938 56.16 
L 249.8988 63.81 
L 247.6038 56.16 
z
" clip-path="url(#ped5c64fdf5)"/>
   </g>
   <g id="line2d_8">
    <path d="M 249.8988 102.06 
L 158.0988 102.06 
L 66.2988 102.06 
" clip-path="url(#ped5c64fdf5)" style="fill: none; stroke: #000000; stroke-width: 2; stroke-linecap: round"/>
   </g>
   <g id="line2d_9">
    <path d="M 66.2988 102.06 
L 66.2988 71.46 
L 66.2988 71.46 
M 66.2988 40.86 
L 66.2988 40.86 
L 66.2988 10.26 
" clip-path="url(#ped5c64fdf5)" style="fill: none; stroke: #000000; stroke-width: 2; stroke-linecap: round"/>
   </g>
   <g id="line2d_10">
    <path d="M 66.2988 63.81 
L 66.2988 56.16 
" clip-path="url(#ped5c64fdf5)" style="fill: none; stroke: #000000; stroke-width: 2; stroke-linecap: round"/>
   </g>
   <g id="patch_6">
    <path d="M 64.0038 56.16 
L 66.2988 48.51 
L 68.5938 56.16 
z
" clip-path="url(#ped5c64fdf5)"/>
   </g>
   <g id="line2d_11">
    <path d="M 66.2988 10.26 
L 112.1988 10.26 
L 158.0988 10.26 
" clip-path="url(#ped5c64fdf5)" style="fill: none; stroke: #000000; stroke-width: 2; stroke-linecap: round"/>
   </g>
   <g id="line2d_12">
    <path d="M 158.0988 10.26 
L 158.0988 40.86 
L 165.7488 43.41 
L 150.4488 48.51 
L 165.7488 53.61 
L 150.4488 58.71 
L 165.7488 63.81 
L 150.4488 68.91 
L 158.0988 71.46 
L 158.0988 102.06 
" clip-path="url(#ped5c64fdf5)" style="fill: none; stroke: #000000; stroke-width: 2; stroke-linecap: round"/>
   </g>
   <g id="line2d_13">
    <path d="M 158.0988 10.26 
L 203.9988 10.26 
L 249.8988 10.26 
" clip-path="url(#ped5c64fdf5)" style="fill: none; stroke: #000000; stroke-width: 2; stroke-linecap: round"/>
   </g>
   <g id="line2d_14">
    <path d="M 249.8988 10.26 
L 249.8988 40.86 
L 265.1988 56.16 
L 249.8988 71.46 
L 234.5988 56.16 
L 249.8988 40.86 
M 249.8988 71.46 
L 249.8988 102.06 
" clip-path="url(#ped5c64fdf5)" style="fill: none; stroke: #000000; stroke-width: 2; stroke-linecap: round"/>
   </g>
   <g id="line2d_15">
    <path d="M 249.8988 48.51 
L 249.8988 56.16 
" clip-path="url(#ped5c64fdf5)" style="fill: none; stroke: #000000; stroke-width: 2; stroke-linecap: round"/>
   </g>
   <g id="patch_7">
    <path d="M 252.1938 56.16 
L 249.8988 63.81 
L 247.6038 56.16 
z
" clip-path="url(#ped5c64fdf5)"/>
   </g>
   <g id="line2d_16">
    <path d="M 249.8988 102.06 
L 158.0988 102.06 
L 66.2988 102.06 
" clip-path="url(#ped5c64fdf5)" style="fill: none; stroke: #000000; stroke-width: 2; stroke-linecap: round"/>
   </g>
   <g id="text_1">
    <g clip-path="url(#ped5c64fdf5)">
     <!-- $4~mA$ -->
     <g transform="translate(21.9388 59.609219)scale(0.125 -0.125)">
      <defs>
       <path id="STIXGeneral-Regular-34" d="M 3027 1069 
L 2368 1069 
L 2368 0 
L 1869 0 
L 1869 1069 
L 77 1069 
L 77 1478 
L 2086 4326 
L 2368 4326 
L 2368 1478 
L 3027 1478 
L 3027 1069 
z
M 1869 1478 
L 1869 3674 
L 333 1478 
L 1869 1478 
z
" transform="scale(0.015625)"/>
       <path id="STIXGeneral-Italic-6d" d="M 4506 672 
L 4474 627 
Q 3981 -58 3552 -58 
Q 3296 -58 3296 237 
Q 3296 333 3379 659 
L 3750 2112 
Q 3795 2291 3795 2355 
Q 3795 2413 3756 2451 
Q 3718 2490 3667 2490 
Q 3366 2490 2829 1741 
Q 2592 1408 2457 1072 
Q 2323 736 2138 0 
L 1658 0 
L 1830 595 
Q 2266 2099 2266 2330 
Q 2266 2490 2125 2490 
Q 1965 2490 1702 2237 
Q 1440 1984 1171 1574 
Q 1011 1325 899 1043 
Q 787 762 557 0 
L 77 0 
L 352 922 
Q 704 2093 704 2381 
Q 704 2522 442 2522 
L 282 2522 
L 282 2624 
L 1318 2822 
L 1338 2810 
L 966 1472 
Q 1798 2822 2374 2822 
Q 2560 2822 2659 2720 
Q 2758 2618 2758 2438 
Q 2758 2195 2502 1466 
Q 2842 2003 3069 2275 
Q 3296 2547 3526 2694 
Q 3731 2822 3930 2822 
Q 4102 2822 4201 2710 
Q 4301 2598 4301 2419 
Q 4301 2336 4282 2240 
L 3846 634 
Q 3782 390 3782 346 
Q 3782 243 3859 243 
Q 4000 243 4275 582 
L 4410 749 
L 4506 672 
z
" transform="scale(0.015625)"/>
       <path id="STIXGeneral-Italic-41" d="M 3610 0 
L 2042 0 
L 2042 102 
Q 2330 115 2432 192 
Q 2534 269 2534 442 
Q 2534 493 2522 608 
L 2394 1446 
L 986 1446 
L 608 736 
Q 467 474 467 314 
Q 467 122 864 102 
L 864 0 
L -326 0 
L -326 102 
Q -109 147 28 307 
Q 166 467 531 1101 
L 2355 4275 
L 2522 4275 
L 3110 736 
Q 3174 339 3264 230 
Q 3354 122 3610 102 
L 3610 0 
z
M 2362 1677 
L 2074 3360 
L 1120 1677 
L 2362 1677 
z
" transform="scale(0.015625)"/>
      </defs>
      <use xlink:href="#STIXGeneral-Regular-34" transform="translate(0 0.40625)"/>
      <use xlink:href="#STIXGeneral-Italic-6d" transform="translate(74.066405 0.40625)"/>
      <use xlink:href="#STIXGeneral-Italic-41" transform="translate(146.266386 0.40625)"/>
     </g>
    </g>
   </g>
   <g id="text_2">
    <g clip-path="url(#ped5c64fdf5)">
     <!-- $3I_x$ -->
     <g transform="translate(216.6638 59.609219)scale(0.125 -0.125)">
      <defs>
       <path id="STIXGeneral-Regular-33" d="M 390 3264 
L 288 3290 
Q 435 3770 748 4048 
Q 1062 4326 1542 4326 
Q 1990 4326 2265 4083 
Q 2541 3840 2541 3450 
Q 2541 2925 1946 2566 
Q 2298 2413 2477 2227 
Q 2758 1914 2758 1402 
Q 2758 890 2464 506 
Q 2246 211 1840 60 
Q 1434 -90 979 -90 
Q 262 -90 262 275 
Q 262 378 339 442 
Q 416 506 525 506 
Q 685 506 915 339 
Q 1197 141 1466 141 
Q 1818 141 2058 425 
Q 2298 710 2298 1120 
Q 2298 1856 1632 2048 
Q 1434 2112 979 2112 
L 979 2202 
Q 1338 2323 1517 2432 
Q 2035 2726 2035 3290 
Q 2035 3610 1852 3776 
Q 1670 3942 1344 3942 
Q 768 3942 390 3264 
z
" transform="scale(0.015625)"/>
       <path id="STIXGeneral-Italic-49" d="M 2458 4179 
L 2458 4077 
Q 2189 4045 2102 3961 
Q 2016 3878 1933 3584 
L 1165 838 
Q 1069 499 1069 352 
Q 1069 224 1149 179 
Q 1229 134 1510 102 
L 1510 0 
L -51 0 
L -51 102 
Q 218 154 317 237 
Q 416 320 486 582 
L 1254 3405 
Q 1338 3699 1338 3802 
Q 1338 3930 1235 3997 
Q 1133 4064 877 4077 
L 877 4179 
L 2458 4179 
z
" transform="scale(0.015625)"/>
       <path id="STIXGeneral-Italic-78" d="M 1555 2272 
L 1632 1907 
Q 1971 2426 2179 2624 
Q 2387 2822 2598 2822 
Q 2714 2822 2787 2755 
Q 2861 2688 2861 2585 
Q 2861 2483 2800 2419 
Q 2739 2355 2643 2355 
Q 2586 2355 2490 2409 
Q 2394 2464 2310 2464 
Q 2125 2464 1683 1690 
Q 1683 1606 1734 1402 
L 1939 544 
Q 2003 282 2131 282 
Q 2234 282 2432 538 
Q 2451 563 2476 598 
Q 2502 634 2521 662 
Q 2541 691 2566 717 
L 2662 659 
Q 2387 230 2227 80 
Q 2067 -70 1882 -70 
Q 1728 -70 1645 26 
Q 1562 122 1504 365 
L 1318 1126 
L 755 365 
Q 557 96 432 13 
Q 307 -70 147 -70 
Q 0 -70 -86 0 
Q -173 70 -173 198 
Q -173 294 -112 361 
Q -51 429 45 429 
Q 122 429 250 358 
Q 346 301 416 301 
Q 525 301 742 614 
L 1267 1357 
L 1088 2150 
Q 1024 2432 969 2509 
Q 915 2586 794 2586 
Q 717 2586 544 2541 
L 429 2509 
L 410 2611 
L 480 2637 
Q 992 2822 1229 2822 
Q 1350 2822 1420 2707 
Q 1491 2592 1555 2272 
z
" transform="scale(0.015625)"/>
      </defs>
      <use xlink:href="#STIXGeneral-Regular-33" transform="translate(0 0.40625)"/>
      <use xlink:href="#STIXGeneral-Italic-49" transform="translate(49.999985 0.40625)"/>
      <use xlink:href="#STIXGeneral-Italic-78" transform="translate(83.299973 -12.821875)scale(0.7)"/>
     </g>
    </g>
   </g>
   <g id="text_3">
    <g clip-path="url(#ped5c64fdf5)">
     <!-- $4~mA$ -->
     <g transform="translate(21.9388 59.609219)scale(0.125 -0.125)">
      <use xlink:href="#STIXGeneral-Regular-34" transform="translate(0 0.40625)"/>
      <use xlink:href="#STIXGeneral-Italic-6d" transform="translate(74.066405 0.40625)"/>
      <use xlink:href="#STIXGeneral-Italic-41" transform="translate(146.266386 0.40625)"/>
     </g>
    </g>
   </g>
   <g id="text_4">
    <g clip-path="url(#ped5c64fdf5)">
     <!-- $3I_x$ -->
     <g transform="translate(216.6638 59.609219)scale(0.125 -0.125)">
      <use xlink:href="#STIXGeneral-Regular-33" transform="translate(0 0.40625)"/>
      <use xlink:href="#STIXGeneral-Italic-49" transform="translate(49.999985 0.40625)"/>
      <use xlink:href="#STIXGeneral-Italic-78" transform="translate(83.299973 -12.821875)scale(0.7)"/>
     </g>
    </g>
   </g>
   <g id="line2d_17">
    <path d="M 158.0988 83.7 
L 158.0988 83.7 
" clip-path="url(#ped5c64fdf5)" style="fill: none; stroke: #000000; stroke-width: 2; stroke-linecap: round"/>
   </g>
   <g id="patch_8">
    <path d="M 162.6888 83.7 
L 158.0988 92.88 
L 153.5088 83.7 
z
" clip-path="url(#ped5c64fdf5)"/>
   </g>
   <g id="text_5">
    <g clip-path="url(#ped5c64fdf5)">
     <!-- $I_x$ -->
     <g transform="translate(140.2938 91.739219)scale(0.125 -0.125)">
      <use xlink:href="#STIXGeneral-Italic-49" transform="translate(0 0.703125)"/>
      <use xlink:href="#STIXGeneral-Italic-78" transform="translate(33.299988 -12.525)scale(0.7)"/>
     </g>
    </g>
   </g>
   <g id="line2d_18">
    <path d="M 158.0988 83.7 
L 158.0988 83.7 
" clip-path="url(#ped5c64fdf5)" style="fill: none; stroke: #000000; stroke-width: 2; stroke-linecap: round"/>
   </g>
   <g id="patch_9">
    <path d="M 162.6888 83.7 
L 158.0988 92.88 
L 153.5088 83.7 
z
" clip-path="url(#ped5c64fdf5)"/>
   </g>
   <g id="text_6">
    <g clip-path="url(#ped5c64fdf5)">
     <!-- $I_x$ -->
     <g transform="translate(140.2938 91.739219)scale(0.125 -0.125)">
      <use xlink:href="#STIXGeneral-Italic-49" transform="translate(0 0.703125)"/>
      <use xlink:href="#STIXGeneral-Italic-78" transform="translate(33.299988 -12.525)scale(0.7)"/>
     </g>
    </g>
   </g>
  </g>
 </g>
 <defs>
  <clipPath id="ped5c64fdf5">
   <rect x="7.2" y="7.2" width="261.0588" height="97.92"/>
  </clipPath>
 </defs>
</svg>
