<?xml version="1.0" encoding="utf-8" standalone="no"?>
<!DOCTYPE svg PUBLIC "-//W3C//DTD SVG 1.1//EN"
  "http://www.w3.org/Graphics/SVG/1.1/DTD/svg11.dtd">
<svg xmlns:xlink="http://www.w3.org/1999/xlink" width="275.4588pt" height="112.32pt" viewBox="0 0 275.4588 112.32" xmlns="http://www.w3.org/2000/svg" version="1.1">
 <metadata>
  <rdf:RDF xmlns:dc="http://purl.org/dc/elements/1.1/" xmlns:cc="http://creativecommons.org/ns#" xmlns:rdf="http://www.w3.org/1999/02/22-rdf-syntax-ns#">
   <cc:Work>
    <dc:type rdf:resource="http://purl.org/dc/dcmitype/StillImage"/>
    <dc:date>2023-03-04T09:18:04.250764</dc:date>
    <dc:format>image/svg+xml</dc:format>
    <dc:creator>
     <cc:Agent>
      <dc:title>Matplotlib v3.5.2, https://matplotlib.org/</dc:title>
     </cc:Agent>
    </dc:creator>
   </cc:Work>
  </rdf:RDF>
 </metadata>
 <defs>
  <style type="text/css">*{stroke-linejoin: round; stroke-linecap: butt}</style>
 </defs>
 <g id="figure_1">
  <g id="patch_1">
   <path d="M 0 112.32 
L 275.4588 112.32 
L 275.4588 0 
L 0 0 
L 0 112.32 
z
" style="fill: none"/>
  </g>
  <g id="axes_1">
   <g id="patch_2">
    <path d="M 66.2988 71.46 
C 70.356407 71.46 74.248372 69.847895 77.117534 66.978734 
C 79.986695 64.109572 81.5988 60.217607 81.5988 56.16 
C 81.5988 52.102393 79.986695 48.210428 77.117534 45.341266 
C 74.248372 42.472105 70.356407 40.86 66.2988 40.86 
C 62.241193 40.86 58.349228 42.472105 55.480066 45.341266 
C 52.610905 48.210428 50.9988 52.102393 50.9988 56.16 
C 50.9988 60.217607 52.610905 64.109572 55.480066 66.978734 
C 58.349228 69.847895 62.241193 71.46 66.2988 71.46 
L 66.2988 71.46 
z
" clip-path="url(#pbdc11fdece)" style="fill: none; stroke: #000000; stroke-width: 2; stroke-linejoin: miter"/>
   </g>
   <g id="patch_3">
    <path d="M 66.2988 71.46 
C 70.356407 71.46 74.248372 69.847895 77.117534 66.978734 
C 79.986695 64.109572 81.5988 60.217607 81.5988 56.16 
C 81.5988 52.102393 79.986695 48.210428 77.117534 45.341266 
C 74.248372 42.472105 70.356407 40.86 66.2988 40.86 
C 62.241193 40.86 58.349228 42.472105 55.480066 45.341266 
C 52.610905 48.210428 50.9988 52.102393 50.9988 56.16 
C 50.9988 60.217607 52.610905 64.109572 55.480066 66.978734 
C 58.349228 69.847895 62.241193 71.46 66.2988 71.46 
L 66.2988 71.46 
z
" clip-path="url(#pbdc11fdece)" style="fill: none; stroke: #000000; stroke-width: 2; stroke-linejoin: miter"/>
   </g>
   <g id="line2d_1">
    <path d="M 66.2988 102.06 
L 66.2988 71.46 
L 66.2988 71.46 
M 66.2988 40.86 
L 66.2988 40.86 
L 66.2988 10.26 
" clip-path="url(#pbdc11fdece)" style="fill: none; stroke: #000000; stroke-width: 2; stroke-linecap: round"/>
   </g>
   <g id="line2d_2">
    <path d="M 66.2988 63.81 
L 66.2988 56.16 
" clip-path="url(#pbdc11fdece)" style="fill: none; stroke: #000000; stroke-width: 2; stroke-linecap: round"/>
   </g>
   <g id="patch_4">
    <path d="M 64.0038 56.16 
L 66.2988 48.51 
L 68.5938 56.16 
z
" clip-path="url(#pbdc11fdece)"/>
   </g>
   <g id="line2d_3">
    <path d="M 66.2988 10.26 
L 112.1988 10.26 
L 158.0988 10.26 
" clip-path="url(#pbdc11fdece)" style="fill: none; stroke: #000000; stroke-width: 2; stroke-linecap: round"/>
   </g>
   <g id="line2d_4">
    <path d="M 158.0988 10.26 
L 158.0988 40.86 
L 165.7488 43.41 
L 150.4488 48.51 
L 165.7488 53.61 
L 150.4488 58.71 
L 165.7488 63.81 
L 150.4488 68.91 
L 158.0988 71.46 
L 158.0988 102.06 
" clip-path="url(#pbdc11fdece)" style="fill: none; stroke: #000000; stroke-width: 2; stroke-linecap: round"/>
   </g>
   <g id="line2d_5">
    <path d="M 158.0988 10.26 
L 203.9988 10.26 
L 249.8988 10.26 
" clip-path="url(#pbdc11fdece)" style="fill: none; stroke: #000000; stroke-width: 2; stroke-linecap: round"/>
   </g>
   <g id="line2d_6">
    <path d="M 249.8988 10.26 
L 249.8988 40.86 
L 265.1988 56.16 
L 249.8988 71.46 
L 234.5988 56.16 
L 249.8988 40.86 
M 249.8988 71.46 
L 249.8988 102.06 
" clip-path="url(#pbdc11fdece)" style="fill: none; stroke: #000000; stroke-width: 2; stroke-linecap: round"/>
   </g>
   <g id="line2d_7">
    <path d="M 249.8988 48.51 
L 249.8988 56.16 
" clip-path="url(#pbdc11fdece)" style="fill: none; stroke: #000000; stroke-width: 2; stroke-linecap: round"/>
   </g>
   <g id="patch_5">
    <path d="M 252.1938 56.16 
L 249.8988 63.81 
L 247.6038 56.16 
z
" clip-path="url(#pbdc11fdece)"/>
   </g>
   <g id="line2d_8">
    <path d="M 249.8988 102.06 
L 158.0988 102.06 
L 66.2988 102.06 
" clip-path="url(#pbdc11fdece)" style="fill: none; stroke: #000000; stroke-width: 2; stroke-linecap: round"/>
   </g>
   <g id="line2d_9">
    <path d="M 66.2988 102.06 
L 66.2988 71.46 
L 66.2988 71.46 
M 66.2988 40.86 
L 66.2988 40.86 
L 66.2988 10.26 
" clip-path="url(#pbdc11fdece)" style="fill: none; stroke: #000000; stroke-width: 2; stroke-linecap: round"/>
   </g>
   <g id="line2d_10">
    <path d="M 66.2988 63.81 
L 66.2988 56.16 
" clip-path="url(#pbdc11fdece)" style="fill: none; stroke: #000000; stroke-width: 2; stroke-linecap: round"/>
   </g>
   <g id="patch_6">
    <path d="M 64.0038 56.16 
L 66.2988 48.51 
L 68.5938 56.16 
z
" clip-path="url(#pbdc11fdece)"/>
   </g>
   <g id="line2d_11">
    <path d="M 66.2988 10.26 
L 112.1988 10.26 
L 158.0988 10.26 
" clip-path="url(#pbdc11fdece)" style="fill: none; stroke: #000000; stroke-width: 2; stroke-linecap: round"/>
   </g>
   <g id="line2d_12">
    <path d="M 158.0988 10.26 
L 158.0988 40.86 
L 165.7488 43.41 
L 150.4488 48.51 
L 165.7488 53.61 
L 150.4488 58.71 
L 165.7488 63.81 
L 150.4488 68.91 
L 158.0988 71.46 
L 158.0988 102.06 
" clip-path="url(#pbdc11fdece)" style="fill: none; stroke: #000000; stroke-width: 2; stroke-linecap: round"/>
   </g>
   <g id="line2d_13">
    <path d="M 158.0988 10.26 
L 203.9988 10.26 
L 249.8988 10.26 
" clip-path="url(#pbdc11fdece)" style="fill: none; stroke: #000000; stroke-width: 2; stroke-linecap: round"/>
   </g>
   <g id="line2d_14">
    <path d="M 249.8988 10.26 
L 249.8988 40.86 
L 265.1988 56.16 
L 249.8988 71.46 
L 234.5988 56.16 
L 249.8988 40.86 
M 249.8988 71.46 
L 249.8988 102.06 
" clip-path="url(#pbdc11fdece)" style="fill: none; stroke: #000000; stroke-width: 2; stroke-linecap: round"/>
   </g>
   <g id="line2d_15">
    <path d="M 249.8988 48.51 
L 249.8988 56.16 
" clip-path="url(#pbdc11fdece)" style="fill: none; stroke: #000000; stroke-width: 2; stroke-linecap: round"/>
   </g>
   <g id="patch_7">
    <path d="M 252.1938 56.16 
L 249.8988 63.81 
L 247.6038 56.16 
z
" clip-path="url(#pbdc11fdece)"/>
   </g>
   <g id="line2d_16">
    <path d="M 249.8988 102.06 
L 158.0988 102.06 
L 66.2988 102.06 
" clip-path="url(#pbdc11fdece)" style="fill: none; stroke: #000000; stroke-width: 2; stroke-linecap: round"/>
   </g>
   <g id="text_1">
    <g clip-path="url(#pbdc11fdece)">
     <!-- $4~mA$ -->
     <g transform="translate(15.1888 59.609219)scale(0.125 -0.125)">
      <defs>
       <path id="DejaVuSans-34" d="M 2419 4116 
L 825 1625 
L 2419 1625 
L 2419 4116 
z
M 2253 4666 
L 3047 4666 
L 3047 1625 
L 3713 1625 
L 3713 1100 
L 3047 1100 
L 3047 0 
L 2419 0 
L 2419 1100 
L 313 1100 
L 313 1709 
L 2253 4666 
z
" transform="scale(0.015625)"/>
       <path id="DejaVuSans-Oblique-6d" d="M 5747 2113 
L 5338 0 
L 4763 0 
L 5166 2094 
Q 5191 2228 5203 2325 
Q 5216 2422 5216 2491 
Q 5216 2772 5059 2928 
Q 4903 3084 4622 3084 
Q 4203 3084 3875 2770 
Q 3547 2456 3450 1953 
L 3066 0 
L 2491 0 
L 2900 2094 
Q 2925 2209 2937 2307 
Q 2950 2406 2950 2484 
Q 2950 2769 2794 2926 
Q 2638 3084 2363 3084 
Q 1938 3084 1609 2770 
Q 1281 2456 1184 1953 
L 800 0 
L 225 0 
L 909 3500 
L 1484 3500 
L 1375 2956 
Q 1609 3263 1923 3423 
Q 2238 3584 2597 3584 
Q 2978 3584 3223 3384 
Q 3469 3184 3519 2828 
Q 3781 3197 4126 3390 
Q 4472 3584 4856 3584 
Q 5306 3584 5551 3325 
Q 5797 3066 5797 2591 
Q 5797 2488 5784 2364 
Q 5772 2241 5747 2113 
z
" transform="scale(0.015625)"/>
       <path id="DejaVuSans-Oblique-41" d="M 2356 4666 
L 3072 4666 
L 3938 0 
L 3278 0 
L 3084 1197 
L 984 1197 
L 325 0 
L -341 0 
L 2356 4666 
z
M 2584 4044 
L 1275 1722 
L 2988 1722 
L 2584 4044 
z
" transform="scale(0.015625)"/>
      </defs>
      <use xlink:href="#DejaVuSans-34" transform="translate(0 0.09375)"/>
      <use xlink:href="#DejaVuSans-Oblique-6d" transform="translate(96.093425 0.09375)"/>
      <use xlink:href="#DejaVuSans-Oblique-41" transform="translate(193.505535 0.09375)"/>
     </g>
    </g>
   </g>
   <g id="text_2">
    <g clip-path="url(#pbdc11fdece)">
     <!-- $3I_x$ -->
     <g transform="translate(214.2888 59.609219)scale(0.125 -0.125)">
      <defs>
       <path id="DejaVuSans-33" d="M 2597 2516 
Q 3050 2419 3304 2112 
Q 3559 1806 3559 1356 
Q 3559 666 3084 287 
Q 2609 -91 1734 -91 
Q 1441 -91 1130 -33 
Q 819 25 488 141 
L 488 750 
Q 750 597 1062 519 
Q 1375 441 1716 441 
Q 2309 441 2620 675 
Q 2931 909 2931 1356 
Q 2931 1769 2642 2001 
Q 2353 2234 1838 2234 
L 1294 2234 
L 1294 2753 
L 1863 2753 
Q 2328 2753 2575 2939 
Q 2822 3125 2822 3475 
Q 2822 3834 2567 4026 
Q 2313 4219 1838 4219 
Q 1578 4219 1281 4162 
Q 984 4106 628 3988 
L 628 4550 
Q 988 4650 1302 4700 
Q 1616 4750 1894 4750 
Q 2613 4750 3031 4423 
Q 3450 4097 3450 3541 
Q 3450 3153 3228 2886 
Q 3006 2619 2597 2516 
z
" transform="scale(0.015625)"/>
       <path id="DejaVuSans-Oblique-49" d="M 1081 4666 
L 1716 4666 
L 806 0 
L 172 0 
L 1081 4666 
z
" transform="scale(0.015625)"/>
       <path id="DejaVuSans-Oblique-78" d="M 3841 3500 
L 2234 1784 
L 3219 0 
L 2559 0 
L 1819 1388 
L 531 0 
L -166 0 
L 1556 1844 
L 641 3500 
L 1300 3500 
L 1972 2234 
L 3144 3500 
L 3841 3500 
z
" transform="scale(0.015625)"/>
      </defs>
      <use xlink:href="#DejaVuSans-33" transform="translate(0 0.78125)"/>
      <use xlink:href="#DejaVuSans-Oblique-49" transform="translate(63.623047 0.78125)"/>
      <use xlink:href="#DejaVuSans-Oblique-78" transform="translate(93.115234 -15.625)scale(0.7)"/>
     </g>
    </g>
   </g>
   <g id="text_3">
    <g clip-path="url(#pbdc11fdece)">
     <!-- $4~mA$ -->
     <g transform="translate(15.1888 59.609219)scale(0.125 -0.125)">
      <use xlink:href="#DejaVuSans-34" transform="translate(0 0.09375)"/>
      <use xlink:href="#DejaVuSans-Oblique-6d" transform="translate(96.093425 0.09375)"/>
      <use xlink:href="#DejaVuSans-Oblique-41" transform="translate(193.505535 0.09375)"/>
     </g>
    </g>
   </g>
   <g id="text_4">
    <g clip-path="url(#pbdc11fdece)">
     <!-- $3I_x$ -->
     <g transform="translate(214.2888 59.609219)scale(0.125 -0.125)">
      <use xlink:href="#DejaVuSans-33" transform="translate(0 0.78125)"/>
      <use xlink:href="#DejaVuSans-Oblique-49" transform="translate(63.623047 0.78125)"/>
      <use xlink:href="#DejaVuSans-Oblique-78" transform="translate(93.115234 -15.625)scale(0.7)"/>
     </g>
    </g>
   </g>
   <g id="line2d_17">
    <path d="M 158.0988 83.7 
L 158.0988 83.7 
" clip-path="url(#pbdc11fdece)" style="fill: none; stroke: #000000; stroke-width: 2; stroke-linecap: round"/>
   </g>
   <g id="patch_8">
    <path d="M 162.6888 83.7 
L 158.0988 92.88 
L 153.5088 83.7 
z
" clip-path="url(#pbdc11fdece)"/>
   </g>
   <g id="text_5">
    <g clip-path="url(#pbdc11fdece)">
     <!-- $I_x$ -->
     <g transform="translate(139.6688 91.739219)scale(0.125 -0.125)">
      <use xlink:href="#DejaVuSans-Oblique-49" transform="translate(0 0.09375)"/>
      <use xlink:href="#DejaVuSans-Oblique-78" transform="translate(29.492188 -16.3125)scale(0.7)"/>
     </g>
    </g>
   </g>
   <g id="line2d_18">
    <path d="M 158.0988 83.7 
L 158.0988 83.7 
" clip-path="url(#pbdc11fdece)" style="fill: none; stroke: #000000; stroke-width: 2; stroke-linecap: round"/>
   </g>
   <g id="patch_9">
    <path d="M 162.6888 83.7 
L 158.0988 92.88 
L 153.5088 83.7 
z
" clip-path="url(#pbdc11fdece)"/>
   </g>
   <g id="text_6">
    <g clip-path="url(#pbdc11fdece)">
     <!-- $I_x$ -->
     <g transform="translate(139.6688 91.739219)scale(0.125 -0.125)">
      <use xlink:href="#DejaVuSans-Oblique-49" transform="translate(0 0.09375)"/>
      <use xlink:href="#DejaVuSans-Oblique-78" transform="translate(29.492188 -16.3125)scale(0.7)"/>
     </g>
    </g>
   </g>
  </g>
 </g>
 <defs>
  <clipPath id="pbdc11fdece">
   <rect x="7.2" y="7.2" width="261.0588" height="97.92"/>
  </clipPath>
 </defs>
</svg>
