<?xml version="1.0" encoding="utf-8" standalone="no"?>
<!DOCTYPE svg PUBLIC "-//W3C//DTD SVG 1.1//EN"
  "http://www.w3.org/Graphics/SVG/1.1/DTD/svg11.dtd">
<svg xmlns:xlink="http://www.w3.org/1999/xlink" width="350.031pt" height="144.79pt" viewBox="0 0 350.031 144.79" xmlns="http://www.w3.org/2000/svg" version="1.1">
 <metadata>
  <rdf:RDF xmlns:dc="http://purl.org/dc/elements/1.1/" xmlns:cc="http://creativecommons.org/ns#" xmlns:rdf="http://www.w3.org/1999/02/22-rdf-syntax-ns#">
   <cc:Work>
    <dc:type rdf:resource="http://purl.org/dc/dcmitype/StillImage"/>
    <dc:date>2023-03-02T11:14:14.101875</dc:date>
    <dc:format>image/svg+xml</dc:format>
    <dc:creator>
     <cc:Agent>
      <dc:title>Matplotlib v3.5.2, https://matplotlib.org/</dc:title>
     </cc:Agent>
    </dc:creator>
   </cc:Work>
  </rdf:RDF>
 </metadata>
 <defs>
  <style type="text/css">*{stroke-linejoin: round; stroke-linecap: butt}</style>
 </defs>
 <g id="figure_1">
  <g id="patch_1">
   <path d="M 0 144.79 
L 350.031 144.79 
L 350.031 0 
L 0 0 
L 0 144.79 
z
" style="fill: none"/>
  </g>
  <g id="axes_1">
   <g id="patch_2">
    <path d="M 148.521 103.93 
C 152.578607 103.93 156.470572 102.317895 159.339734 99.448734 
C 162.208895 96.579572 163.821 92.687607 163.821 88.63 
C 163.821 84.572393 162.208895 80.680428 159.339734 77.811266 
C 156.470572 74.942105 152.578607 73.33 148.521 73.33 
C 144.463393 73.33 140.571428 74.942105 137.702266 77.811266 
C 134.833105 80.680428 133.221 84.572393 133.221 88.63 
C 133.221 92.687607 134.833105 96.579572 137.702266 99.448734 
C 140.571428 102.317895 144.463393 103.93 148.521 103.93 
L 148.521 103.93 
z
" clip-path="url(#p6e42256d31)" style="fill: none; stroke: #000000; stroke-width: 2; stroke-linejoin: miter"/>
   </g>
   <g id="patch_3">
    <path d="M 148.521 103.93 
C 152.578607 103.93 156.470572 102.317895 159.339734 99.448734 
C 162.208895 96.579572 163.821 92.687607 163.821 88.63 
C 163.821 84.572393 162.208895 80.680428 159.339734 77.811266 
C 156.470572 74.942105 152.578607 73.33 148.521 73.33 
C 144.463393 73.33 140.571428 74.942105 137.702266 77.811266 
C 134.833105 80.680428 133.221 84.572393 133.221 88.63 
C 133.221 92.687607 134.833105 96.579572 137.702266 99.448734 
C 140.571428 102.317895 144.463393 103.93 148.521 103.93 
L 148.521 103.93 
z
" clip-path="url(#p6e42256d31)" style="fill: none; stroke: #000000; stroke-width: 2; stroke-linejoin: miter"/>
   </g>
   <g id="line2d_1">
    <path d="M 56.721 134.53 
L 56.721 103.93 
L 49.071 101.38 
L 64.371 96.28 
L 49.071 91.18 
L 64.371 86.08 
L 49.071 80.98 
L 64.371 75.88 
L 56.721 73.33 
L 56.721 42.73 
" clip-path="url(#p6e42256d31)" style="fill: none; stroke: #000000; stroke-width: 2; stroke-linecap: round"/>
   </g>
   <g id="line2d_2">
    <path d="M 56.721 42.73 
L 102.621 42.73 
L 148.521 42.73 
" clip-path="url(#p6e42256d31)" style="fill: none; stroke: #000000; stroke-width: 2; stroke-linecap: round"/>
   </g>
   <g id="line2d_3">
    <path d="M 148.521 42.73 
L 148.521 73.33 
L 148.521 73.33 
M 148.521 103.93 
L 148.521 103.93 
L 148.521 134.53 
" clip-path="url(#p6e42256d31)" style="fill: none; stroke: #000000; stroke-width: 2; stroke-linecap: round"/>
   </g>
   <g id="line2d_4">
    <path d="M 148.521 88.63 
L 148.521 96.28 
" clip-path="url(#p6e42256d31)" style="fill: none; stroke: #000000; stroke-width: 2; stroke-linecap: round"/>
   </g>
   <g id="patch_4">
    <path d="M 146.226 88.63 
L 148.521 80.98 
L 150.816 88.63 
z
" clip-path="url(#p6e42256d31)"/>
   </g>
   <g id="line2d_5">
    <path d="M 148.521 42.73 
L 179.121 42.73 
L 181.671 35.08 
L 186.771 50.38 
L 191.871 35.08 
L 196.971 50.38 
L 202.071 35.08 
L 207.171 50.38 
L 209.721 42.73 
L 240.321 42.73 
" clip-path="url(#p6e42256d31)" style="fill: none; stroke: #000000; stroke-width: 2; stroke-linecap: round"/>
   </g>
   <g id="line2d_6">
    <path d="M 240.321 42.73 
L 240.321 73.33 
L 247.971 75.88 
L 232.671 80.98 
L 247.971 86.08 
L 232.671 91.18 
L 247.971 96.28 
L 232.671 101.38 
L 240.321 103.93 
L 240.321 134.53 
" clip-path="url(#p6e42256d31)" style="fill: none; stroke: #000000; stroke-width: 2; stroke-linecap: round"/>
   </g>
   <g id="line2d_7">
    <path d="M 240.321 42.73 
L 270.921 42.73 
L 273.471 35.08 
L 278.571 50.38 
L 283.671 35.08 
L 288.771 50.38 
L 293.871 35.08 
L 298.971 50.38 
L 301.521 42.73 
L 332.121 42.73 
" clip-path="url(#p6e42256d31)" style="fill: none; stroke: #000000; stroke-width: 2; stroke-linecap: round"/>
   </g>
   <g id="line2d_8">
    <path d="M 332.121 42.73 
L 332.121 73.33 
L 339.771 75.88 
L 324.471 80.98 
L 339.771 86.08 
L 324.471 91.18 
L 339.771 96.28 
L 324.471 101.38 
L 332.121 103.93 
L 332.121 134.53 
" clip-path="url(#p6e42256d31)" style="fill: none; stroke: #000000; stroke-width: 2; stroke-linecap: round"/>
   </g>
   <g id="line2d_9">
    <path d="M 332.121 134.53 
L 194.421 134.53 
L 56.721 134.53 
" clip-path="url(#p6e42256d31)" style="fill: none; stroke: #000000; stroke-width: 2; stroke-linecap: round"/>
   </g>
   <g id="line2d_10">
    <path d="M 56.721 134.53 
L 56.721 103.93 
L 49.071 101.38 
L 64.371 96.28 
L 49.071 91.18 
L 64.371 86.08 
L 49.071 80.98 
L 64.371 75.88 
L 56.721 73.33 
L 56.721 42.73 
" clip-path="url(#p6e42256d31)" style="fill: none; stroke: #000000; stroke-width: 2; stroke-linecap: round"/>
   </g>
   <g id="line2d_11">
    <path d="M 56.721 42.73 
L 102.621 42.73 
L 148.521 42.73 
" clip-path="url(#p6e42256d31)" style="fill: none; stroke: #000000; stroke-width: 2; stroke-linecap: round"/>
   </g>
   <g id="line2d_12">
    <path d="M 148.521 42.73 
L 148.521 73.33 
L 148.521 73.33 
M 148.521 103.93 
L 148.521 103.93 
L 148.521 134.53 
" clip-path="url(#p6e42256d31)" style="fill: none; stroke: #000000; stroke-width: 2; stroke-linecap: round"/>
   </g>
   <g id="line2d_13">
    <path d="M 148.521 88.63 
L 148.521 96.28 
" clip-path="url(#p6e42256d31)" style="fill: none; stroke: #000000; stroke-width: 2; stroke-linecap: round"/>
   </g>
   <g id="patch_5">
    <path d="M 146.226 88.63 
L 148.521 80.98 
L 150.816 88.63 
z
" clip-path="url(#p6e42256d31)"/>
   </g>
   <g id="line2d_14">
    <path d="M 148.521 42.73 
L 179.121 42.73 
L 181.671 35.08 
L 186.771 50.38 
L 191.871 35.08 
L 196.971 50.38 
L 202.071 35.08 
L 207.171 50.38 
L 209.721 42.73 
L 240.321 42.73 
" clip-path="url(#p6e42256d31)" style="fill: none; stroke: #000000; stroke-width: 2; stroke-linecap: round"/>
   </g>
   <g id="line2d_15">
    <path d="M 240.321 42.73 
L 240.321 73.33 
L 247.971 75.88 
L 232.671 80.98 
L 247.971 86.08 
L 232.671 91.18 
L 247.971 96.28 
L 232.671 101.38 
L 240.321 103.93 
L 240.321 134.53 
" clip-path="url(#p6e42256d31)" style="fill: none; stroke: #000000; stroke-width: 2; stroke-linecap: round"/>
   </g>
   <g id="line2d_16">
    <path d="M 240.321 42.73 
L 270.921 42.73 
L 273.471 35.08 
L 278.571 50.38 
L 283.671 35.08 
L 288.771 50.38 
L 293.871 35.08 
L 298.971 50.38 
L 301.521 42.73 
L 332.121 42.73 
" clip-path="url(#p6e42256d31)" style="fill: none; stroke: #000000; stroke-width: 2; stroke-linecap: round"/>
   </g>
   <g id="line2d_17">
    <path d="M 332.121 42.73 
L 332.121 73.33 
L 339.771 75.88 
L 324.471 80.98 
L 339.771 86.08 
L 324.471 91.18 
L 339.771 96.28 
L 324.471 101.38 
L 332.121 103.93 
L 332.121 134.53 
" clip-path="url(#p6e42256d31)" style="fill: none; stroke: #000000; stroke-width: 2; stroke-linecap: round"/>
   </g>
   <g id="line2d_18">
    <path d="M 332.121 134.53 
L 194.421 134.53 
L 56.721 134.53 
" clip-path="url(#p6e42256d31)" style="fill: none; stroke: #000000; stroke-width: 2; stroke-linecap: round"/>
   </g>
   <g id="text_1">
    <g clip-path="url(#p6e42256d31)">
     <!-- $6~k\Omega$ -->
     <g transform="translate(17.136 92.079219)scale(0.125 -0.125)">
      <defs>
       <path id="DejaVuSans-36" d="M 2113 2584 
Q 1688 2584 1439 2293 
Q 1191 2003 1191 1497 
Q 1191 994 1439 701 
Q 1688 409 2113 409 
Q 2538 409 2786 701 
Q 3034 994 3034 1497 
Q 3034 2003 2786 2293 
Q 2538 2584 2113 2584 
z
M 3366 4563 
L 3366 3988 
Q 3128 4100 2886 4159 
Q 2644 4219 2406 4219 
Q 1781 4219 1451 3797 
Q 1122 3375 1075 2522 
Q 1259 2794 1537 2939 
Q 1816 3084 2150 3084 
Q 2853 3084 3261 2657 
Q 3669 2231 3669 1497 
Q 3669 778 3244 343 
Q 2819 -91 2113 -91 
Q 1303 -91 875 529 
Q 447 1150 447 2328 
Q 447 3434 972 4092 
Q 1497 4750 2381 4750 
Q 2619 4750 2861 4703 
Q 3103 4656 3366 4563 
z
" transform="scale(0.015625)"/>
       <path id="DejaVuSans-Oblique-6b" d="M 1172 4863 
L 1747 4863 
L 1197 2028 
L 3169 3500 
L 3916 3500 
L 1716 1825 
L 3322 0 
L 2625 0 
L 1131 1709 
L 800 0 
L 225 0 
L 1172 4863 
z
" transform="scale(0.015625)"/>
       <path id="DejaVuSans-3a9" d="M 4647 556 
L 4647 0 
L 2772 0 
L 2772 556 
Q 3325 859 3634 1378 
Q 3944 1897 3944 2528 
Q 3944 3278 3531 3731 
Q 3119 4184 2444 4184 
Q 1769 4184 1355 3729 
Q 941 3275 941 2528 
Q 941 1897 1250 1378 
Q 1563 859 2119 556 
L 2119 0 
L 244 0 
L 244 556 
L 1241 556 
Q 747 991 519 1456 
Q 294 1922 294 2497 
Q 294 3491 894 4106 
Q 1491 4722 2444 4722 
Q 3391 4722 3994 4106 
Q 4594 3494 4594 2528 
Q 4594 1922 4372 1459 
Q 4150 997 3647 556 
L 4647 556 
z
" transform="scale(0.015625)"/>
      </defs>
      <use xlink:href="#DejaVuSans-36" transform="translate(0 0.015625)"/>
      <use xlink:href="#DejaVuSans-Oblique-6b" transform="translate(96.093425 0.015625)"/>
      <use xlink:href="#DejaVuSans-3a9" transform="translate(154.003582 0.015625)"/>
     </g>
    </g>
   </g>
   <g id="text_2">
    <g clip-path="url(#p6e42256d31)">
     <!-- + -->
     <g transform="translate(67.431 115.029219)scale(0.125 -0.125)">
      <defs>
       <path id="DejaVuSans-2b" d="M 2944 4013 
L 2944 2272 
L 4684 2272 
L 4684 1741 
L 2944 1741 
L 2944 0 
L 2419 0 
L 2419 1741 
L 678 1741 
L 678 2272 
L 2419 2272 
L 2419 4013 
L 2944 4013 
z
" transform="scale(0.015625)"/>
      </defs>
      <use xlink:href="#DejaVuSans-2b"/>
     </g>
    </g>
   </g>
   <g id="text_3">
    <g clip-path="url(#p6e42256d31)">
     <!-- $V_{6k}$ -->
     <g transform="translate(67.431 92.079219)scale(0.125 -0.125)">
      <defs>
       <path id="DejaVuSans-Oblique-56" d="M 1319 0 
L 500 4666 
L 1119 4666 
L 1797 653 
L 4063 4666 
L 4750 4666 
L 2053 0 
L 1319 0 
z
" transform="scale(0.015625)"/>
      </defs>
      <use xlink:href="#DejaVuSans-Oblique-56" transform="translate(0 0.09375)"/>
      <use xlink:href="#DejaVuSans-36" transform="translate(68.408203 -16.3125)scale(0.7)"/>
      <use xlink:href="#DejaVuSans-Oblique-6b" transform="translate(112.944336 -16.3125)scale(0.7)"/>
     </g>
    </g>
   </g>
   <g id="text_4">
    <g clip-path="url(#p6e42256d31)">
     <!-- - -->
     <g transform="translate(67.431 69.129219)scale(0.125 -0.125)">
      <defs>
       <path id="DejaVuSans-2d" d="M 313 2009 
L 1997 2009 
L 1997 1497 
L 313 1497 
L 313 2009 
z
" transform="scale(0.015625)"/>
      </defs>
      <use xlink:href="#DejaVuSans-2d"/>
     </g>
    </g>
   </g>
   <g id="text_5">
    <g clip-path="url(#p6e42256d31)">
     <!-- $1~mA$ -->
     <g transform="translate(97.411 92.079219)scale(0.125 -0.125)">
      <defs>
       <path id="DejaVuSans-31" d="M 794 531 
L 1825 531 
L 1825 4091 
L 703 3866 
L 703 4441 
L 1819 4666 
L 2450 4666 
L 2450 531 
L 3481 531 
L 3481 0 
L 794 0 
L 794 531 
z
" transform="scale(0.015625)"/>
       <path id="DejaVuSans-Oblique-6d" d="M 5747 2113 
L 5338 0 
L 4763 0 
L 5166 2094 
Q 5191 2228 5203 2325 
Q 5216 2422 5216 2491 
Q 5216 2772 5059 2928 
Q 4903 3084 4622 3084 
Q 4203 3084 3875 2770 
Q 3547 2456 3450 1953 
L 3066 0 
L 2491 0 
L 2900 2094 
Q 2925 2209 2937 2307 
Q 2950 2406 2950 2484 
Q 2950 2769 2794 2926 
Q 2638 3084 2363 3084 
Q 1938 3084 1609 2770 
Q 1281 2456 1184 1953 
L 800 0 
L 225 0 
L 909 3500 
L 1484 3500 
L 1375 2956 
Q 1609 3263 1923 3423 
Q 2238 3584 2597 3584 
Q 2978 3584 3223 3384 
Q 3469 3184 3519 2828 
Q 3781 3197 4126 3390 
Q 4472 3584 4856 3584 
Q 5306 3584 5551 3325 
Q 5797 3066 5797 2591 
Q 5797 2488 5784 2364 
Q 5772 2241 5747 2113 
z
" transform="scale(0.015625)"/>
       <path id="DejaVuSans-Oblique-41" d="M 2356 4666 
L 3072 4666 
L 3938 0 
L 3278 0 
L 3084 1197 
L 984 1197 
L 325 0 
L -341 0 
L 2356 4666 
z
M 2584 4044 
L 1275 1722 
L 2988 1722 
L 2584 4044 
z
" transform="scale(0.015625)"/>
      </defs>
      <use xlink:href="#DejaVuSans-31" transform="translate(0 0.09375)"/>
      <use xlink:href="#DejaVuSans-Oblique-6d" transform="translate(96.093425 0.09375)"/>
      <use xlink:href="#DejaVuSans-Oblique-41" transform="translate(193.505535 0.09375)"/>
     </g>
    </g>
   </g>
   <g id="text_6">
    <g clip-path="url(#p6e42256d31)">
     <!-- $3~k\Omega$ -->
     <g transform="translate(179.9835 29.420391)scale(0.125 -0.125)">
      <defs>
       <path id="DejaVuSans-33" d="M 2597 2516 
Q 3050 2419 3304 2112 
Q 3559 1806 3559 1356 
Q 3559 666 3084 287 
Q 2609 -91 1734 -91 
Q 1441 -91 1130 -33 
Q 819 25 488 141 
L 488 750 
Q 750 597 1062 519 
Q 1375 441 1716 441 
Q 2309 441 2620 675 
Q 2931 909 2931 1356 
Q 2931 1769 2642 2001 
Q 2353 2234 1838 2234 
L 1294 2234 
L 1294 2753 
L 1863 2753 
Q 2328 2753 2575 2939 
Q 2822 3125 2822 3475 
Q 2822 3834 2567 4026 
Q 2313 4219 1838 4219 
Q 1578 4219 1281 4162 
Q 984 4106 628 3988 
L 628 4550 
Q 988 4650 1302 4700 
Q 1616 4750 1894 4750 
Q 2613 4750 3031 4423 
Q 3450 4097 3450 3541 
Q 3450 3153 3228 2886 
Q 3006 2619 2597 2516 
z
" transform="scale(0.015625)"/>
      </defs>
      <use xlink:href="#DejaVuSans-33" transform="translate(0 0.015625)"/>
      <use xlink:href="#DejaVuSans-Oblique-6b" transform="translate(96.093425 0.015625)"/>
      <use xlink:href="#DejaVuSans-3a9" transform="translate(154.003582 0.015625)"/>
     </g>
    </g>
   </g>
   <g id="text_7">
    <g clip-path="url(#p6e42256d31)">
     <!-- + -->
     <g transform="translate(166.233695 62.938047)scale(0.125 -0.125)">
      <use xlink:href="#DejaVuSans-2b"/>
     </g>
    </g>
   </g>
   <g id="text_8">
    <g clip-path="url(#p6e42256d31)">
     <!-- $V_{3k}$ -->
     <g transform="translate(184.6085 62.938047)scale(0.125 -0.125)">
      <use xlink:href="#DejaVuSans-Oblique-56" transform="translate(0 0.09375)"/>
      <use xlink:href="#DejaVuSans-33" transform="translate(68.408203 -16.3125)scale(0.7)"/>
      <use xlink:href="#DejaVuSans-Oblique-6b" transform="translate(112.944336 -16.3125)scale(0.7)"/>
     </g>
    </g>
   </g>
   <g id="text_9">
    <g clip-path="url(#p6e42256d31)">
     <!-- - -->
     <g transform="translate(215.116117 62.938047)scale(0.125 -0.125)">
      <use xlink:href="#DejaVuSans-2d"/>
     </g>
    </g>
   </g>
   <g id="text_10">
    <g clip-path="url(#p6e42256d31)">
     <!-- $4~k\Omega$ -->
     <g transform="translate(200.736 92.079219)scale(0.125 -0.125)">
      <defs>
       <path id="DejaVuSans-34" d="M 2419 4116 
L 825 1625 
L 2419 1625 
L 2419 4116 
z
M 2253 4666 
L 3047 4666 
L 3047 1625 
L 3713 1625 
L 3713 1100 
L 3047 1100 
L 3047 0 
L 2419 0 
L 2419 1100 
L 313 1100 
L 313 1709 
L 2253 4666 
z
" transform="scale(0.015625)"/>
      </defs>
      <use xlink:href="#DejaVuSans-34" transform="translate(0 0.015625)"/>
      <use xlink:href="#DejaVuSans-Oblique-6b" transform="translate(96.093425 0.015625)"/>
      <use xlink:href="#DejaVuSans-3a9" transform="translate(154.003582 0.015625)"/>
     </g>
    </g>
   </g>
   <g id="text_11">
    <g clip-path="url(#p6e42256d31)">
     <!-- $4~k\Omega$ -->
     <g transform="translate(271.7835 29.420391)scale(0.125 -0.125)">
      <use xlink:href="#DejaVuSans-34" transform="translate(0 0.015625)"/>
      <use xlink:href="#DejaVuSans-Oblique-6b" transform="translate(96.093425 0.015625)"/>
      <use xlink:href="#DejaVuSans-3a9" transform="translate(154.003582 0.015625)"/>
     </g>
    </g>
   </g>
   <g id="text_12">
    <g clip-path="url(#p6e42256d31)">
     <!-- $8~k\Omega$ -->
     <g transform="translate(292.536 92.079219)scale(0.125 -0.125)">
      <defs>
       <path id="DejaVuSans-38" d="M 2034 2216 
Q 1584 2216 1326 1975 
Q 1069 1734 1069 1313 
Q 1069 891 1326 650 
Q 1584 409 2034 409 
Q 2484 409 2743 651 
Q 3003 894 3003 1313 
Q 3003 1734 2745 1975 
Q 2488 2216 2034 2216 
z
M 1403 2484 
Q 997 2584 770 2862 
Q 544 3141 544 3541 
Q 544 4100 942 4425 
Q 1341 4750 2034 4750 
Q 2731 4750 3128 4425 
Q 3525 4100 3525 3541 
Q 3525 3141 3298 2862 
Q 3072 2584 2669 2484 
Q 3125 2378 3379 2068 
Q 3634 1759 3634 1313 
Q 3634 634 3220 271 
Q 2806 -91 2034 -91 
Q 1263 -91 848 271 
Q 434 634 434 1313 
Q 434 1759 690 2068 
Q 947 2378 1403 2484 
z
M 1172 3481 
Q 1172 3119 1398 2916 
Q 1625 2713 2034 2713 
Q 2441 2713 2670 2916 
Q 2900 3119 2900 3481 
Q 2900 3844 2670 4047 
Q 2441 4250 2034 4250 
Q 1625 4250 1398 4047 
Q 1172 3844 1172 3481 
z
" transform="scale(0.015625)"/>
      </defs>
      <use xlink:href="#DejaVuSans-38" transform="translate(0 0.015625)"/>
      <use xlink:href="#DejaVuSans-Oblique-6b" transform="translate(96.093425 0.015625)"/>
      <use xlink:href="#DejaVuSans-3a9" transform="translate(154.003582 0.015625)"/>
     </g>
    </g>
   </g>
   <g id="text_13">
    <g clip-path="url(#p6e42256d31)">
     <!-- $6~k\Omega$ -->
     <g transform="translate(17.136 92.079219)scale(0.125 -0.125)">
      <use xlink:href="#DejaVuSans-36" transform="translate(0 0.015625)"/>
      <use xlink:href="#DejaVuSans-Oblique-6b" transform="translate(96.093425 0.015625)"/>
      <use xlink:href="#DejaVuSans-3a9" transform="translate(154.003582 0.015625)"/>
     </g>
    </g>
   </g>
   <g id="text_14">
    <g clip-path="url(#p6e42256d31)">
     <!-- + -->
     <g transform="translate(67.431 115.029219)scale(0.125 -0.125)">
      <use xlink:href="#DejaVuSans-2b"/>
     </g>
    </g>
   </g>
   <g id="text_15">
    <g clip-path="url(#p6e42256d31)">
     <!-- $V_{6k}$ -->
     <g transform="translate(67.431 92.079219)scale(0.125 -0.125)">
      <use xlink:href="#DejaVuSans-Oblique-56" transform="translate(0 0.09375)"/>
      <use xlink:href="#DejaVuSans-36" transform="translate(68.408203 -16.3125)scale(0.7)"/>
      <use xlink:href="#DejaVuSans-Oblique-6b" transform="translate(112.944336 -16.3125)scale(0.7)"/>
     </g>
    </g>
   </g>
   <g id="text_16">
    <g clip-path="url(#p6e42256d31)">
     <!-- - -->
     <g transform="translate(67.431 69.129219)scale(0.125 -0.125)">
      <use xlink:href="#DejaVuSans-2d"/>
     </g>
    </g>
   </g>
   <g id="text_17">
    <g clip-path="url(#p6e42256d31)">
     <!-- $1~mA$ -->
     <g transform="translate(97.411 92.079219)scale(0.125 -0.125)">
      <use xlink:href="#DejaVuSans-31" transform="translate(0 0.09375)"/>
      <use xlink:href="#DejaVuSans-Oblique-6d" transform="translate(96.093425 0.09375)"/>
      <use xlink:href="#DejaVuSans-Oblique-41" transform="translate(193.505535 0.09375)"/>
     </g>
    </g>
   </g>
   <g id="text_18">
    <g clip-path="url(#p6e42256d31)">
     <!-- $3~k\Omega$ -->
     <g transform="translate(179.9835 29.420391)scale(0.125 -0.125)">
      <use xlink:href="#DejaVuSans-33" transform="translate(0 0.015625)"/>
      <use xlink:href="#DejaVuSans-Oblique-6b" transform="translate(96.093425 0.015625)"/>
      <use xlink:href="#DejaVuSans-3a9" transform="translate(154.003582 0.015625)"/>
     </g>
    </g>
   </g>
   <g id="text_19">
    <g clip-path="url(#p6e42256d31)">
     <!-- + -->
     <g transform="translate(166.233695 62.938047)scale(0.125 -0.125)">
      <use xlink:href="#DejaVuSans-2b"/>
     </g>
    </g>
   </g>
   <g id="text_20">
    <g clip-path="url(#p6e42256d31)">
     <!-- $V_{3k}$ -->
     <g transform="translate(184.6085 62.938047)scale(0.125 -0.125)">
      <use xlink:href="#DejaVuSans-Oblique-56" transform="translate(0 0.09375)"/>
      <use xlink:href="#DejaVuSans-33" transform="translate(68.408203 -16.3125)scale(0.7)"/>
      <use xlink:href="#DejaVuSans-Oblique-6b" transform="translate(112.944336 -16.3125)scale(0.7)"/>
     </g>
    </g>
   </g>
   <g id="text_21">
    <g clip-path="url(#p6e42256d31)">
     <!-- - -->
     <g transform="translate(215.116117 62.938047)scale(0.125 -0.125)">
      <use xlink:href="#DejaVuSans-2d"/>
     </g>
    </g>
   </g>
   <g id="text_22">
    <g clip-path="url(#p6e42256d31)">
     <!-- $4~k\Omega$ -->
     <g transform="translate(200.736 92.079219)scale(0.125 -0.125)">
      <use xlink:href="#DejaVuSans-34" transform="translate(0 0.015625)"/>
      <use xlink:href="#DejaVuSans-Oblique-6b" transform="translate(96.093425 0.015625)"/>
      <use xlink:href="#DejaVuSans-3a9" transform="translate(154.003582 0.015625)"/>
     </g>
    </g>
   </g>
   <g id="text_23">
    <g clip-path="url(#p6e42256d31)">
     <!-- $4~k\Omega$ -->
     <g transform="translate(271.7835 29.420391)scale(0.125 -0.125)">
      <use xlink:href="#DejaVuSans-34" transform="translate(0 0.015625)"/>
      <use xlink:href="#DejaVuSans-Oblique-6b" transform="translate(96.093425 0.015625)"/>
      <use xlink:href="#DejaVuSans-3a9" transform="translate(154.003582 0.015625)"/>
     </g>
    </g>
   </g>
   <g id="text_24">
    <g clip-path="url(#p6e42256d31)">
     <!-- $8~k\Omega$ -->
     <g transform="translate(292.536 92.079219)scale(0.125 -0.125)">
      <use xlink:href="#DejaVuSans-38" transform="translate(0 0.015625)"/>
      <use xlink:href="#DejaVuSans-Oblique-6b" transform="translate(96.093425 0.015625)"/>
      <use xlink:href="#DejaVuSans-3a9" transform="translate(154.003582 0.015625)"/>
     </g>
    </g>
   </g>
  </g>
 </g>
 <defs>
  <clipPath id="p6e42256d31">
   <rect x="7.2" y="7.2" width="335.631" height="130.39"/>
  </clipPath>
 </defs>
</svg>
