<?xml version="1.0" encoding="utf-8" standalone="no"?>
<!DOCTYPE svg PUBLIC "-//W3C//DTD SVG 1.1//EN"
  "http://www.w3.org/Graphics/SVG/1.1/DTD/svg11.dtd">
<svg xmlns:xlink="http://www.w3.org/1999/xlink" width="350.031pt" height="144.79pt" viewBox="0 0 350.031 144.79" xmlns="http://www.w3.org/2000/svg" version="1.1">
 <metadata>
  <rdf:RDF xmlns:dc="http://purl.org/dc/elements/1.1/" xmlns:cc="http://creativecommons.org/ns#" xmlns:rdf="http://www.w3.org/1999/02/22-rdf-syntax-ns#">
   <cc:Work>
    <dc:type rdf:resource="http://purl.org/dc/dcmitype/StillImage"/>
    <dc:date>2023-06-28T14:17:15.129716</dc:date>
    <dc:format>image/svg+xml</dc:format>
    <dc:creator>
     <cc:Agent>
      <dc:title>Matplotlib v3.5.2, https://matplotlib.org/</dc:title>
     </cc:Agent>
    </dc:creator>
   </cc:Work>
  </rdf:RDF>
 </metadata>
 <defs>
  <style type="text/css">*{stroke-linejoin: round; stroke-linecap: butt}</style>
 </defs>
 <g id="figure_1">
  <g id="patch_1">
   <path d="M 0 144.79 
L 350.031 144.79 
L 350.031 0 
L 0 0 
L 0 144.79 
z
" style="fill: none"/>
  </g>
  <g id="axes_1">
   <g id="patch_2">
    <path d="M 148.521 103.93 
C 152.578607 103.93 156.470572 102.317895 159.339734 99.448734 
C 162.208895 96.579572 163.821 92.687607 163.821 88.63 
C 163.821 84.572393 162.208895 80.680428 159.339734 77.811266 
C 156.470572 74.942105 152.578607 73.33 148.521 73.33 
C 144.463393 73.33 140.571428 74.942105 137.702266 77.811266 
C 134.833105 80.680428 133.221 84.572393 133.221 88.63 
C 133.221 92.687607 134.833105 96.579572 137.702266 99.448734 
C 140.571428 102.317895 144.463393 103.93 148.521 103.93 
L 148.521 103.93 
z
" clip-path="url(#pe52128ec28)" style="fill: none; stroke: #000000; stroke-width: 2; stroke-linejoin: miter"/>
   </g>
   <g id="patch_3">
    <path d="M 148.521 103.93 
C 152.578607 103.93 156.470572 102.317895 159.339734 99.448734 
C 162.208895 96.579572 163.821 92.687607 163.821 88.63 
C 163.821 84.572393 162.208895 80.680428 159.339734 77.811266 
C 156.470572 74.942105 152.578607 73.33 148.521 73.33 
C 144.463393 73.33 140.571428 74.942105 137.702266 77.811266 
C 134.833105 80.680428 133.221 84.572393 133.221 88.63 
C 133.221 92.687607 134.833105 96.579572 137.702266 99.448734 
C 140.571428 102.317895 144.463393 103.93 148.521 103.93 
L 148.521 103.93 
z
" clip-path="url(#pe52128ec28)" style="fill: none; stroke: #000000; stroke-width: 2; stroke-linejoin: miter"/>
   </g>
   <g id="line2d_1">
    <path d="M 56.721 134.53 
L 56.721 103.93 
L 49.071 101.38 
L 64.371 96.28 
L 49.071 91.18 
L 64.371 86.08 
L 49.071 80.98 
L 64.371 75.88 
L 56.721 73.33 
L 56.721 42.73 
" clip-path="url(#pe52128ec28)" style="fill: none; stroke: #000000; stroke-width: 2; stroke-linecap: round"/>
   </g>
   <g id="line2d_2">
    <path d="M 56.721 42.73 
L 102.621 42.73 
L 148.521 42.73 
" clip-path="url(#pe52128ec28)" style="fill: none; stroke: #000000; stroke-width: 2; stroke-linecap: round"/>
   </g>
   <g id="line2d_3">
    <path d="M 148.521 42.73 
L 148.521 73.33 
L 148.521 73.33 
M 148.521 103.93 
L 148.521 103.93 
L 148.521 134.53 
" clip-path="url(#pe52128ec28)" style="fill: none; stroke: #000000; stroke-width: 2; stroke-linecap: round"/>
   </g>
   <g id="line2d_4">
    <path d="M 148.521 88.63 
L 148.521 96.28 
" clip-path="url(#pe52128ec28)" style="fill: none; stroke: #000000; stroke-width: 2; stroke-linecap: round"/>
   </g>
   <g id="patch_4">
    <path d="M 146.226 88.63 
L 148.521 80.98 
L 150.816 88.63 
z
" clip-path="url(#pe52128ec28)"/>
   </g>
   <g id="line2d_5">
    <path d="M 148.521 42.73 
L 179.121 42.73 
L 181.671 35.08 
L 186.771 50.38 
L 191.871 35.08 
L 196.971 50.38 
L 202.071 35.08 
L 207.171 50.38 
L 209.721 42.73 
L 240.321 42.73 
" clip-path="url(#pe52128ec28)" style="fill: none; stroke: #000000; stroke-width: 2; stroke-linecap: round"/>
   </g>
   <g id="line2d_6">
    <path d="M 240.321 42.73 
L 240.321 73.33 
L 247.971 75.88 
L 232.671 80.98 
L 247.971 86.08 
L 232.671 91.18 
L 247.971 96.28 
L 232.671 101.38 
L 240.321 103.93 
L 240.321 134.53 
" clip-path="url(#pe52128ec28)" style="fill: none; stroke: #000000; stroke-width: 2; stroke-linecap: round"/>
   </g>
   <g id="line2d_7">
    <path d="M 240.321 42.73 
L 270.921 42.73 
L 273.471 35.08 
L 278.571 50.38 
L 283.671 35.08 
L 288.771 50.38 
L 293.871 35.08 
L 298.971 50.38 
L 301.521 42.73 
L 332.121 42.73 
" clip-path="url(#pe52128ec28)" style="fill: none; stroke: #000000; stroke-width: 2; stroke-linecap: round"/>
   </g>
   <g id="line2d_8">
    <path d="M 332.121 42.73 
L 332.121 73.33 
L 339.771 75.88 
L 324.471 80.98 
L 339.771 86.08 
L 324.471 91.18 
L 339.771 96.28 
L 324.471 101.38 
L 332.121 103.93 
L 332.121 134.53 
" clip-path="url(#pe52128ec28)" style="fill: none; stroke: #000000; stroke-width: 2; stroke-linecap: round"/>
   </g>
   <g id="line2d_9">
    <path d="M 332.121 134.53 
L 194.421 134.53 
L 56.721 134.53 
" clip-path="url(#pe52128ec28)" style="fill: none; stroke: #000000; stroke-width: 2; stroke-linecap: round"/>
   </g>
   <g id="line2d_10">
    <path d="M 56.721 134.53 
L 56.721 103.93 
L 49.071 101.38 
L 64.371 96.28 
L 49.071 91.18 
L 64.371 86.08 
L 49.071 80.98 
L 64.371 75.88 
L 56.721 73.33 
L 56.721 42.73 
" clip-path="url(#pe52128ec28)" style="fill: none; stroke: #000000; stroke-width: 2; stroke-linecap: round"/>
   </g>
   <g id="line2d_11">
    <path d="M 56.721 42.73 
L 102.621 42.73 
L 148.521 42.73 
" clip-path="url(#pe52128ec28)" style="fill: none; stroke: #000000; stroke-width: 2; stroke-linecap: round"/>
   </g>
   <g id="line2d_12">
    <path d="M 148.521 42.73 
L 148.521 73.33 
L 148.521 73.33 
M 148.521 103.93 
L 148.521 103.93 
L 148.521 134.53 
" clip-path="url(#pe52128ec28)" style="fill: none; stroke: #000000; stroke-width: 2; stroke-linecap: round"/>
   </g>
   <g id="line2d_13">
    <path d="M 148.521 88.63 
L 148.521 96.28 
" clip-path="url(#pe52128ec28)" style="fill: none; stroke: #000000; stroke-width: 2; stroke-linecap: round"/>
   </g>
   <g id="patch_5">
    <path d="M 146.226 88.63 
L 148.521 80.98 
L 150.816 88.63 
z
" clip-path="url(#pe52128ec28)"/>
   </g>
   <g id="line2d_14">
    <path d="M 148.521 42.73 
L 179.121 42.73 
L 181.671 35.08 
L 186.771 50.38 
L 191.871 35.08 
L 196.971 50.38 
L 202.071 35.08 
L 207.171 50.38 
L 209.721 42.73 
L 240.321 42.73 
" clip-path="url(#pe52128ec28)" style="fill: none; stroke: #000000; stroke-width: 2; stroke-linecap: round"/>
   </g>
   <g id="line2d_15">
    <path d="M 240.321 42.73 
L 240.321 73.33 
L 247.971 75.88 
L 232.671 80.98 
L 247.971 86.08 
L 232.671 91.18 
L 247.971 96.28 
L 232.671 101.38 
L 240.321 103.93 
L 240.321 134.53 
" clip-path="url(#pe52128ec28)" style="fill: none; stroke: #000000; stroke-width: 2; stroke-linecap: round"/>
   </g>
   <g id="line2d_16">
    <path d="M 240.321 42.73 
L 270.921 42.73 
L 273.471 35.08 
L 278.571 50.38 
L 283.671 35.08 
L 288.771 50.38 
L 293.871 35.08 
L 298.971 50.38 
L 301.521 42.73 
L 332.121 42.73 
" clip-path="url(#pe52128ec28)" style="fill: none; stroke: #000000; stroke-width: 2; stroke-linecap: round"/>
   </g>
   <g id="line2d_17">
    <path d="M 332.121 42.73 
L 332.121 73.33 
L 339.771 75.88 
L 324.471 80.98 
L 339.771 86.08 
L 324.471 91.18 
L 339.771 96.28 
L 324.471 101.38 
L 332.121 103.93 
L 332.121 134.53 
" clip-path="url(#pe52128ec28)" style="fill: none; stroke: #000000; stroke-width: 2; stroke-linecap: round"/>
   </g>
   <g id="line2d_18">
    <path d="M 332.121 134.53 
L 194.421 134.53 
L 56.721 134.53 
" clip-path="url(#pe52128ec28)" style="fill: none; stroke: #000000; stroke-width: 2; stroke-linecap: round"/>
   </g>
   <g id="text_1">
    <g clip-path="url(#pe52128ec28)">
     <!-- $6~k\Omega$ -->
     <g transform="translate(21.886 92.079219)scale(0.125 -0.125)">
      <defs>
       <path id="STIXGeneral-Regular-36" d="M 2854 4378 
L 2867 4275 
Q 2112 4154 1606 3664 
Q 1101 3174 973 2451 
Q 1344 2739 1786 2739 
Q 2349 2739 2672 2380 
Q 2995 2022 2995 1402 
Q 2995 774 2669 378 
Q 2291 -90 1651 -90 
Q 870 -90 518 557 
Q 218 1107 218 1786 
Q 218 2835 915 3552 
Q 1312 3962 1731 4131 
Q 2150 4301 2854 4378 
z
M 2419 1203 
Q 2419 2445 1555 2445 
Q 1235 2445 1024 2275 
Q 813 2106 813 1702 
Q 813 954 1046 522 
Q 1280 90 1722 90 
Q 2061 90 2240 394 
Q 2419 698 2419 1203 
z
" transform="scale(0.015625)"/>
       <path id="STIXGeneral-Italic-6b" d="M 2950 2739 
L 2950 2637 
Q 2720 2624 2464 2448 
Q 2208 2272 1510 1651 
L 1747 1088 
Q 2099 262 2266 262 
Q 2400 262 2554 531 
Q 2586 582 2650 698 
L 2746 627 
Q 2522 224 2374 77 
Q 2227 -70 2035 -70 
Q 1894 -70 1782 42 
Q 1670 154 1517 454 
Q 1325 826 1133 1357 
L 877 1152 
L 570 0 
L 90 0 
L 992 3379 
Q 1082 3699 1107 3942 
Q 1088 4096 781 4096 
L 666 4096 
L 666 4198 
Q 1146 4256 1670 4371 
L 1709 4333 
L 941 1414 
L 1216 1626 
Q 2131 2330 2131 2522 
Q 2131 2637 1894 2637 
L 1805 2637 
L 1805 2739 
L 2950 2739 
z
" transform="scale(0.015625)"/>
       <path id="STIXGeneral-Regular-3a9" d="M 4576 0 
L 2746 0 
L 2790 1030 
Q 3187 1126 3440 1574 
Q 3693 2022 3693 2554 
Q 3693 3251 3344 3673 
Q 2995 4096 2380 4096 
Q 1766 4096 1417 3635 
Q 1069 3174 1069 2554 
Q 1069 2054 1315 1600 
Q 1562 1146 1965 1030 
L 2022 0 
L 186 0 
L 186 1094 
L 346 1094 
Q 352 806 438 707 
Q 525 608 742 608 
L 1709 608 
L 1696 845 
Q 1018 1037 678 1446 
Q 339 1856 339 2541 
Q 339 3238 899 3782 
Q 1459 4326 2380 4326 
Q 3302 4326 3862 3804 
Q 4422 3283 4422 2541 
Q 4422 1235 3046 845 
L 3034 608 
L 4019 608 
Q 4397 608 4416 1082 
L 4576 1082 
L 4576 0 
z
" transform="scale(0.015625)"/>
      </defs>
      <use xlink:href="#STIXGeneral-Regular-36" transform="translate(0 0.59375)"/>
      <use xlink:href="#STIXGeneral-Italic-6b" transform="translate(74.066405 0.59375)"/>
      <use xlink:href="#STIXGeneral-Regular-3a9" transform="translate(118.466399 0.59375)"/>
     </g>
    </g>
   </g>
   <g id="text_2">
    <g clip-path="url(#pe52128ec28)">
     <!-- + -->
     <g transform="translate(67.431 115.029219)scale(0.125 -0.125)">
      <defs>
       <path id="DejaVuSans-2b" d="M 2944 4013 
L 2944 2272 
L 4684 2272 
L 4684 1741 
L 2944 1741 
L 2944 0 
L 2419 0 
L 2419 1741 
L 678 1741 
L 678 2272 
L 2419 2272 
L 2419 4013 
L 2944 4013 
z
" transform="scale(0.015625)"/>
      </defs>
      <use xlink:href="#DejaVuSans-2b"/>
     </g>
    </g>
   </g>
   <g id="text_3">
    <g clip-path="url(#pe52128ec28)">
     <!-- $V_{6k}$ -->
     <g transform="translate(67.431 92.079219)scale(0.125 -0.125)">
      <defs>
       <path id="STIXGeneral-Italic-56" d="M 4403 4179 
L 4403 4077 
Q 4198 4070 4045 3821 
L 1658 -115 
L 1536 -115 
L 1011 3104 
Q 902 3776 828 3910 
Q 755 4045 486 4077 
L 486 4179 
L 2022 4179 
L 2022 4077 
Q 1722 4045 1629 3981 
Q 1536 3917 1536 3750 
Q 1536 3686 1542 3654 
L 1958 819 
L 3302 3123 
Q 3616 3661 3616 3859 
Q 3616 4032 3219 4077 
L 3219 4179 
L 4403 4179 
z
" transform="scale(0.015625)"/>
      </defs>
      <use xlink:href="#STIXGeneral-Italic-56" transform="translate(0 0.703125)"/>
      <use xlink:href="#STIXGeneral-Regular-36" transform="translate(61.099991 -12.525)scale(0.7)"/>
      <use xlink:href="#STIXGeneral-Italic-6b" transform="translate(96.09998 -12.525)scale(0.7)"/>
     </g>
    </g>
   </g>
   <g id="text_4">
    <g clip-path="url(#pe52128ec28)">
     <!-- - -->
     <g transform="translate(67.431 69.129219)scale(0.125 -0.125)">
      <defs>
       <path id="DejaVuSans-2d" d="M 313 2009 
L 1997 2009 
L 1997 1497 
L 313 1497 
L 313 2009 
z
" transform="scale(0.015625)"/>
      </defs>
      <use xlink:href="#DejaVuSans-2d"/>
     </g>
    </g>
   </g>
   <g id="text_5">
    <g clip-path="url(#pe52128ec28)">
     <!-- $1~mA$ -->
     <g transform="translate(104.161 92.079219)scale(0.125 -0.125)">
      <defs>
       <path id="STIXGeneral-Regular-31" d="M 2522 0 
L 755 0 
L 755 96 
Q 1107 115 1235 227 
Q 1363 339 1363 608 
L 1363 3482 
Q 1363 3795 1171 3795 
Q 1082 3795 883 3718 
L 710 3654 
L 710 3744 
L 1856 4326 
L 1914 4307 
L 1914 486 
Q 1914 275 2042 185 
Q 2170 96 2522 96 
L 2522 0 
z
" transform="scale(0.015625)"/>
       <path id="STIXGeneral-Italic-6d" d="M 4506 672 
L 4474 627 
Q 3981 -58 3552 -58 
Q 3296 -58 3296 237 
Q 3296 333 3379 659 
L 3750 2112 
Q 3795 2291 3795 2355 
Q 3795 2413 3756 2451 
Q 3718 2490 3667 2490 
Q 3366 2490 2829 1741 
Q 2592 1408 2457 1072 
Q 2323 736 2138 0 
L 1658 0 
L 1830 595 
Q 2266 2099 2266 2330 
Q 2266 2490 2125 2490 
Q 1965 2490 1702 2237 
Q 1440 1984 1171 1574 
Q 1011 1325 899 1043 
Q 787 762 557 0 
L 77 0 
L 352 922 
Q 704 2093 704 2381 
Q 704 2522 442 2522 
L 282 2522 
L 282 2624 
L 1318 2822 
L 1338 2810 
L 966 1472 
Q 1798 2822 2374 2822 
Q 2560 2822 2659 2720 
Q 2758 2618 2758 2438 
Q 2758 2195 2502 1466 
Q 2842 2003 3069 2275 
Q 3296 2547 3526 2694 
Q 3731 2822 3930 2822 
Q 4102 2822 4201 2710 
Q 4301 2598 4301 2419 
Q 4301 2336 4282 2240 
L 3846 634 
Q 3782 390 3782 346 
Q 3782 243 3859 243 
Q 4000 243 4275 582 
L 4410 749 
L 4506 672 
z
" transform="scale(0.015625)"/>
       <path id="STIXGeneral-Italic-41" d="M 3610 0 
L 2042 0 
L 2042 102 
Q 2330 115 2432 192 
Q 2534 269 2534 442 
Q 2534 493 2522 608 
L 2394 1446 
L 986 1446 
L 608 736 
Q 467 474 467 314 
Q 467 122 864 102 
L 864 0 
L -326 0 
L -326 102 
Q -109 147 28 307 
Q 166 467 531 1101 
L 2355 4275 
L 2522 4275 
L 3110 736 
Q 3174 339 3264 230 
Q 3354 122 3610 102 
L 3610 0 
z
M 2362 1677 
L 2074 3360 
L 1120 1677 
L 2362 1677 
z
" transform="scale(0.015625)"/>
      </defs>
      <use xlink:href="#STIXGeneral-Regular-31" transform="translate(0 0.40625)"/>
      <use xlink:href="#STIXGeneral-Italic-6d" transform="translate(74.066405 0.40625)"/>
      <use xlink:href="#STIXGeneral-Italic-41" transform="translate(146.266386 0.40625)"/>
     </g>
    </g>
   </g>
   <g id="text_6">
    <g clip-path="url(#pe52128ec28)">
     <!-- $3~k\Omega$ -->
     <g transform="translate(182.3585 29.420391)scale(0.125 -0.125)">
      <defs>
       <path id="STIXGeneral-Regular-33" d="M 390 3264 
L 288 3290 
Q 435 3770 748 4048 
Q 1062 4326 1542 4326 
Q 1990 4326 2265 4083 
Q 2541 3840 2541 3450 
Q 2541 2925 1946 2566 
Q 2298 2413 2477 2227 
Q 2758 1914 2758 1402 
Q 2758 890 2464 506 
Q 2246 211 1840 60 
Q 1434 -90 979 -90 
Q 262 -90 262 275 
Q 262 378 339 442 
Q 416 506 525 506 
Q 685 506 915 339 
Q 1197 141 1466 141 
Q 1818 141 2058 425 
Q 2298 710 2298 1120 
Q 2298 1856 1632 2048 
Q 1434 2112 979 2112 
L 979 2202 
Q 1338 2323 1517 2432 
Q 2035 2726 2035 3290 
Q 2035 3610 1852 3776 
Q 1670 3942 1344 3942 
Q 768 3942 390 3264 
z
" transform="scale(0.015625)"/>
      </defs>
      <use xlink:href="#STIXGeneral-Regular-33" transform="translate(0 0.703125)"/>
      <use xlink:href="#STIXGeneral-Italic-6b" transform="translate(74.066405 0.703125)"/>
      <use xlink:href="#STIXGeneral-Regular-3a9" transform="translate(118.466399 0.703125)"/>
     </g>
    </g>
   </g>
   <g id="text_7">
    <g clip-path="url(#pe52128ec28)">
     <!-- + -->
     <g transform="translate(166.233695 62.938047)scale(0.125 -0.125)">
      <use xlink:href="#DejaVuSans-2b"/>
     </g>
    </g>
   </g>
   <g id="text_8">
    <g clip-path="url(#pe52128ec28)">
     <!-- $V_{3k}$ -->
     <g transform="translate(186.171 62.938047)scale(0.125 -0.125)">
      <use xlink:href="#STIXGeneral-Italic-56" transform="translate(0 0.703125)"/>
      <use xlink:href="#STIXGeneral-Regular-33" transform="translate(61.099991 -12.525)scale(0.7)"/>
      <use xlink:href="#STIXGeneral-Italic-6b" transform="translate(96.09998 -12.525)scale(0.7)"/>
     </g>
    </g>
   </g>
   <g id="text_9">
    <g clip-path="url(#pe52128ec28)">
     <!-- - -->
     <g transform="translate(215.116117 62.938047)scale(0.125 -0.125)">
      <use xlink:href="#DejaVuSans-2d"/>
     </g>
    </g>
   </g>
   <g id="text_10">
    <g clip-path="url(#pe52128ec28)">
     <!-- $4~k\Omega$ -->
     <g transform="translate(205.486 92.079219)scale(0.125 -0.125)">
      <defs>
       <path id="STIXGeneral-Regular-34" d="M 3027 1069 
L 2368 1069 
L 2368 0 
L 1869 0 
L 1869 1069 
L 77 1069 
L 77 1478 
L 2086 4326 
L 2368 4326 
L 2368 1478 
L 3027 1478 
L 3027 1069 
z
M 1869 1478 
L 1869 3674 
L 333 1478 
L 1869 1478 
z
" transform="scale(0.015625)"/>
      </defs>
      <use xlink:href="#STIXGeneral-Regular-34" transform="translate(0 0.703125)"/>
      <use xlink:href="#STIXGeneral-Italic-6b" transform="translate(74.066405 0.703125)"/>
      <use xlink:href="#STIXGeneral-Regular-3a9" transform="translate(118.466399 0.703125)"/>
     </g>
    </g>
   </g>
   <g id="text_11">
    <g clip-path="url(#pe52128ec28)">
     <!-- $4~k\Omega$ -->
     <g transform="translate(274.1585 29.420391)scale(0.125 -0.125)">
      <use xlink:href="#STIXGeneral-Regular-34" transform="translate(0 0.703125)"/>
      <use xlink:href="#STIXGeneral-Italic-6b" transform="translate(74.066405 0.703125)"/>
      <use xlink:href="#STIXGeneral-Regular-3a9" transform="translate(118.466399 0.703125)"/>
     </g>
    </g>
   </g>
   <g id="text_12">
    <g clip-path="url(#pe52128ec28)">
     <!-- $8~k\Omega$ -->
     <g transform="translate(297.286 92.079219)scale(0.125 -0.125)">
      <defs>
       <path id="STIXGeneral-Regular-38" d="M 2848 992 
Q 2848 499 2505 204 
Q 2163 -90 1587 -90 
Q 1050 -90 704 204 
Q 358 499 358 954 
Q 358 1293 524 1533 
Q 691 1773 1190 2125 
Q 710 2522 553 2765 
Q 397 3008 397 3328 
Q 397 3782 745 4054 
Q 1094 4326 1638 4326 
Q 2106 4326 2410 4060 
Q 2714 3795 2714 3411 
Q 2714 3059 2531 2848 
Q 2349 2637 1856 2374 
Q 2432 1990 2640 1689 
Q 2848 1389 2848 992 
z
M 2272 3411 
Q 2272 3744 2086 3945 
Q 1901 4147 1574 4147 
Q 1248 4147 1059 3977 
Q 870 3808 870 3513 
Q 870 3219 1059 2979 
Q 1248 2739 1670 2490 
Q 1997 2682 2134 2896 
Q 2272 3110 2272 3411 
z
M 1734 1741 
L 1357 1997 
Q 1075 1766 960 1545 
Q 845 1325 845 1011 
Q 845 576 1065 333 
Q 1286 90 1658 90 
Q 1971 90 2166 285 
Q 2362 480 2362 794 
Q 2362 1082 2214 1299 
Q 2067 1517 1734 1741 
z
" transform="scale(0.015625)"/>
      </defs>
      <use xlink:href="#STIXGeneral-Regular-38" transform="translate(0 0.703125)"/>
      <use xlink:href="#STIXGeneral-Italic-6b" transform="translate(74.066405 0.703125)"/>
      <use xlink:href="#STIXGeneral-Regular-3a9" transform="translate(118.466399 0.703125)"/>
     </g>
    </g>
   </g>
   <g id="text_13">
    <g clip-path="url(#pe52128ec28)">
     <!-- $6~k\Omega$ -->
     <g transform="translate(21.886 92.079219)scale(0.125 -0.125)">
      <use xlink:href="#STIXGeneral-Regular-36" transform="translate(0 0.59375)"/>
      <use xlink:href="#STIXGeneral-Italic-6b" transform="translate(74.066405 0.59375)"/>
      <use xlink:href="#STIXGeneral-Regular-3a9" transform="translate(118.466399 0.59375)"/>
     </g>
    </g>
   </g>
   <g id="text_14">
    <g clip-path="url(#pe52128ec28)">
     <!-- + -->
     <g transform="translate(67.431 115.029219)scale(0.125 -0.125)">
      <use xlink:href="#DejaVuSans-2b"/>
     </g>
    </g>
   </g>
   <g id="text_15">
    <g clip-path="url(#pe52128ec28)">
     <!-- $V_{6k}$ -->
     <g transform="translate(67.431 92.079219)scale(0.125 -0.125)">
      <use xlink:href="#STIXGeneral-Italic-56" transform="translate(0 0.703125)"/>
      <use xlink:href="#STIXGeneral-Regular-36" transform="translate(61.099991 -12.525)scale(0.7)"/>
      <use xlink:href="#STIXGeneral-Italic-6b" transform="translate(96.09998 -12.525)scale(0.7)"/>
     </g>
    </g>
   </g>
   <g id="text_16">
    <g clip-path="url(#pe52128ec28)">
     <!-- - -->
     <g transform="translate(67.431 69.129219)scale(0.125 -0.125)">
      <use xlink:href="#DejaVuSans-2d"/>
     </g>
    </g>
   </g>
   <g id="text_17">
    <g clip-path="url(#pe52128ec28)">
     <!-- $1~mA$ -->
     <g transform="translate(104.161 92.079219)scale(0.125 -0.125)">
      <use xlink:href="#STIXGeneral-Regular-31" transform="translate(0 0.40625)"/>
      <use xlink:href="#STIXGeneral-Italic-6d" transform="translate(74.066405 0.40625)"/>
      <use xlink:href="#STIXGeneral-Italic-41" transform="translate(146.266386 0.40625)"/>
     </g>
    </g>
   </g>
   <g id="text_18">
    <g clip-path="url(#pe52128ec28)">
     <!-- $3~k\Omega$ -->
     <g transform="translate(182.3585 29.420391)scale(0.125 -0.125)">
      <use xlink:href="#STIXGeneral-Regular-33" transform="translate(0 0.703125)"/>
      <use xlink:href="#STIXGeneral-Italic-6b" transform="translate(74.066405 0.703125)"/>
      <use xlink:href="#STIXGeneral-Regular-3a9" transform="translate(118.466399 0.703125)"/>
     </g>
    </g>
   </g>
   <g id="text_19">
    <g clip-path="url(#pe52128ec28)">
     <!-- + -->
     <g transform="translate(166.233695 62.938047)scale(0.125 -0.125)">
      <use xlink:href="#DejaVuSans-2b"/>
     </g>
    </g>
   </g>
   <g id="text_20">
    <g clip-path="url(#pe52128ec28)">
     <!-- $V_{3k}$ -->
     <g transform="translate(186.171 62.938047)scale(0.125 -0.125)">
      <use xlink:href="#STIXGeneral-Italic-56" transform="translate(0 0.703125)"/>
      <use xlink:href="#STIXGeneral-Regular-33" transform="translate(61.099991 -12.525)scale(0.7)"/>
      <use xlink:href="#STIXGeneral-Italic-6b" transform="translate(96.09998 -12.525)scale(0.7)"/>
     </g>
    </g>
   </g>
   <g id="text_21">
    <g clip-path="url(#pe52128ec28)">
     <!-- - -->
     <g transform="translate(215.116117 62.938047)scale(0.125 -0.125)">
      <use xlink:href="#DejaVuSans-2d"/>
     </g>
    </g>
   </g>
   <g id="text_22">
    <g clip-path="url(#pe52128ec28)">
     <!-- $4~k\Omega$ -->
     <g transform="translate(205.486 92.079219)scale(0.125 -0.125)">
      <use xlink:href="#STIXGeneral-Regular-34" transform="translate(0 0.703125)"/>
      <use xlink:href="#STIXGeneral-Italic-6b" transform="translate(74.066405 0.703125)"/>
      <use xlink:href="#STIXGeneral-Regular-3a9" transform="translate(118.466399 0.703125)"/>
     </g>
    </g>
   </g>
   <g id="text_23">
    <g clip-path="url(#pe52128ec28)">
     <!-- $4~k\Omega$ -->
     <g transform="translate(274.1585 29.420391)scale(0.125 -0.125)">
      <use xlink:href="#STIXGeneral-Regular-34" transform="translate(0 0.703125)"/>
      <use xlink:href="#STIXGeneral-Italic-6b" transform="translate(74.066405 0.703125)"/>
      <use xlink:href="#STIXGeneral-Regular-3a9" transform="translate(118.466399 0.703125)"/>
     </g>
    </g>
   </g>
   <g id="text_24">
    <g clip-path="url(#pe52128ec28)">
     <!-- $8~k\Omega$ -->
     <g transform="translate(297.286 92.079219)scale(0.125 -0.125)">
      <use xlink:href="#STIXGeneral-Regular-38" transform="translate(0 0.703125)"/>
      <use xlink:href="#STIXGeneral-Italic-6b" transform="translate(74.066405 0.703125)"/>
      <use xlink:href="#STIXGeneral-Regular-3a9" transform="translate(118.466399 0.703125)"/>
     </g>
    </g>
   </g>
  </g>
 </g>
 <defs>
  <clipPath id="pe52128ec28">
   <rect x="7.2" y="7.2" width="335.631" height="130.39"/>
  </clipPath>
 </defs>
</svg>
