<?xml version="1.0" encoding="utf-8" standalone="no"?>
<!DOCTYPE svg PUBLIC "-//W3C//DTD SVG 1.1//EN"
  "http://www.w3.org/Graphics/SVG/1.1/DTD/svg11.dtd">
<svg xmlns:xlink="http://www.w3.org/1999/xlink" width="663.5076pt" height="112.32pt" viewBox="0 0 663.5076 112.32" xmlns="http://www.w3.org/2000/svg" version="1.1">
 <metadata>
  <rdf:RDF xmlns:dc="http://purl.org/dc/elements/1.1/" xmlns:cc="http://creativecommons.org/ns#" xmlns:rdf="http://www.w3.org/1999/02/22-rdf-syntax-ns#">
   <cc:Work>
    <dc:type rdf:resource="http://purl.org/dc/dcmitype/StillImage"/>
    <dc:date>2023-10-21T16:48:11.454139</dc:date>
    <dc:format>image/svg+xml</dc:format>
    <dc:creator>
     <cc:Agent>
      <dc:title>Matplotlib v3.5.2, https://matplotlib.org/</dc:title>
     </cc:Agent>
    </dc:creator>
   </cc:Work>
  </rdf:RDF>
 </metadata>
 <defs>
  <style type="text/css">*{stroke-linejoin: round; stroke-linecap: butt}</style>
 </defs>
 <g id="figure_1">
  <g id="patch_1">
   <path d="M 0 112.32 
L 663.5076 112.32 
L 663.5076 0 
L 0 0 
L 0 112.32 
z
" style="fill: none"/>
  </g>
  <g id="axes_1">
   <g id="patch_2">
    <path d="M 49.5198 71.46 
C 53.577407 71.46 57.469372 69.847895 60.338534 66.978734 
C 63.207695 64.109572 64.8198 60.217607 64.8198 56.16 
C 64.8198 52.102393 63.207695 48.210428 60.338534 45.341266 
C 57.469372 42.472105 53.577407 40.86 49.5198 40.86 
C 45.462193 40.86 41.570228 42.472105 38.701066 45.341266 
C 35.831905 48.210428 34.2198 52.102393 34.2198 56.16 
C 34.2198 60.217607 35.831905 64.109572 38.701066 66.978734 
C 41.570228 69.847895 45.462193 71.46 49.5198 71.46 
L 49.5198 71.46 
z
" clip-path="url(#p43d37f6e91)" style="fill: none; stroke: #000000; stroke-width: 2; stroke-linejoin: miter"/>
   </g>
   <g id="patch_3">
    <path d="M 432.0198 71.46 
C 436.077407 71.46 439.969372 69.847895 442.838534 66.978734 
C 445.707695 64.109572 447.3198 60.217607 447.3198 56.16 
C 447.3198 52.102393 445.707695 48.210428 442.838534 45.341266 
C 439.969372 42.472105 436.077407 40.86 432.0198 40.86 
C 427.962193 40.86 424.070228 42.472105 421.201066 45.341266 
C 418.331905 48.210428 416.7198 52.102393 416.7198 56.16 
C 416.7198 60.217607 418.331905 64.109572 421.201066 66.978734 
C 424.070228 69.847895 427.962193 71.46 432.0198 71.46 
L 432.0198 71.46 
z
" clip-path="url(#p43d37f6e91)" style="fill: none; stroke: #000000; stroke-width: 2; stroke-linejoin: miter"/>
   </g>
   <g id="patch_4">
    <path d="M 49.5198 71.46 
C 53.577407 71.46 57.469372 69.847895 60.338534 66.978734 
C 63.207695 64.109572 64.8198 60.217607 64.8198 56.16 
C 64.8198 52.102393 63.207695 48.210428 60.338534 45.341266 
C 57.469372 42.472105 53.577407 40.86 49.5198 40.86 
C 45.462193 40.86 41.570228 42.472105 38.701066 45.341266 
C 35.831905 48.210428 34.2198 52.102393 34.2198 56.16 
C 34.2198 60.217607 35.831905 64.109572 38.701066 66.978734 
C 41.570228 69.847895 45.462193 71.46 49.5198 71.46 
L 49.5198 71.46 
z
" clip-path="url(#p43d37f6e91)" style="fill: none; stroke: #000000; stroke-width: 2; stroke-linejoin: miter"/>
   </g>
   <g id="patch_5">
    <path d="M 432.0198 71.46 
C 436.077407 71.46 439.969372 69.847895 442.838534 66.978734 
C 445.707695 64.109572 447.3198 60.217607 447.3198 56.16 
C 447.3198 52.102393 445.707695 48.210428 442.838534 45.341266 
C 439.969372 42.472105 436.077407 40.86 432.0198 40.86 
C 427.962193 40.86 424.070228 42.472105 421.201066 45.341266 
C 418.331905 48.210428 416.7198 52.102393 416.7198 56.16 
C 416.7198 60.217607 418.331905 64.109572 421.201066 66.978734 
C 424.070228 69.847895 427.962193 71.46 432.0198 71.46 
L 432.0198 71.46 
z
" clip-path="url(#p43d37f6e91)" style="fill: none; stroke: #000000; stroke-width: 2; stroke-linejoin: miter"/>
   </g>
   <g id="line2d_1">
    <path d="M 49.5198 102.06 
L 49.5198 71.46 
L 49.5198 71.46 
M 49.5198 40.86 
L 49.5198 40.86 
L 49.5198 10.26 
" clip-path="url(#p43d37f6e91)" style="fill: none; stroke: #000000; stroke-width: 2; stroke-linecap: round"/>
   </g>
   <g id="line2d_2">
    <path d="M 49.5198 63.81 
L 49.5198 56.16 
" clip-path="url(#p43d37f6e91)" style="fill: none; stroke: #000000; stroke-width: 2; stroke-linecap: round"/>
   </g>
   <g id="patch_6">
    <path d="M 47.2248 56.16 
L 49.5198 48.51 
L 51.8148 56.16 
z
" clip-path="url(#p43d37f6e91)"/>
   </g>
   <g id="line2d_3">
    <path d="M 49.5198 10.26 
L 95.4198 10.26 
L 141.3198 10.26 
" clip-path="url(#p43d37f6e91)" style="fill: none; stroke: #000000; stroke-width: 2; stroke-linecap: round"/>
   </g>
   <g id="line2d_4">
    <path d="M 141.3198 10.26 
L 141.3198 40.86 
L 148.9698 43.41 
L 133.6698 48.51 
L 148.9698 53.61 
L 133.6698 58.71 
L 148.9698 63.81 
L 133.6698 68.91 
L 141.3198 71.46 
L 141.3198 102.06 
" clip-path="url(#p43d37f6e91)" style="fill: none; stroke: #ff0000; stroke-width: 2; stroke-linecap: round"/>
   </g>
   <g id="line2d_5">
    <path d="M 141.3198 10.26 
L 187.2198 10.26 
L 233.1198 10.26 
" clip-path="url(#p43d37f6e91)" style="fill: none; stroke: #ff0000; stroke-width: 2; stroke-linecap: round"/>
   </g>
   <g id="line2d_6">
    <path d="M 233.1198 10.26 
L 233.1198 40.86 
L 240.7698 43.41 
L 225.4698 48.51 
L 240.7698 53.61 
L 225.4698 58.71 
L 240.7698 63.81 
L 225.4698 68.91 
L 233.1198 71.46 
L 233.1198 102.06 
" clip-path="url(#p43d37f6e91)" style="fill: none; stroke: #ff0000; stroke-width: 2; stroke-linecap: round"/>
   </g>
   <g id="line2d_7">
    <path d="M 233.1198 10.26 
L 279.0198 10.26 
L 324.9198 10.26 
" clip-path="url(#p43d37f6e91)" style="fill: none; stroke: #000000; stroke-width: 2; stroke-linecap: round"/>
   </g>
   <g id="line2d_8">
    <path d="M 324.9198 10.26 
L 324.9198 40.86 
L 332.5698 43.41 
L 317.2698 48.51 
L 332.5698 53.61 
L 317.2698 58.71 
L 332.5698 63.81 
L 317.2698 68.91 
L 324.9198 71.46 
L 324.9198 102.06 
" clip-path="url(#p43d37f6e91)" style="fill: none; stroke: #000000; stroke-width: 2; stroke-linecap: round"/>
   </g>
   <g id="line2d_9">
    <path d="M 324.9198 102.06 
L 279.0198 102.06 
L 233.1198 102.06 
" clip-path="url(#p43d37f6e91)" style="fill: none; stroke: #000000; stroke-width: 2; stroke-linecap: round"/>
   </g>
   <g id="line2d_10">
    <path d="M 233.1198 102.06 
L 187.2198 102.06 
L 141.3198 102.06 
" clip-path="url(#p43d37f6e91)" style="fill: none; stroke: #ff0000; stroke-width: 2; stroke-linecap: round"/>
   </g>
   <g id="line2d_11">
    <path d="M 141.3198 102.06 
L 95.4198 102.06 
L 49.5198 102.06 
" clip-path="url(#p43d37f6e91)" style="fill: none; stroke: #000000; stroke-width: 2; stroke-linecap: round"/>
   </g>
   <g id="line2d_12">
    <path d="M 355.5198 56.16 
L 370.8198 56.16 
L 370.8198 56.16 
" clip-path="url(#p43d37f6e91)" style="fill: none; stroke: #ee82ee; stroke-width: 6; stroke-linecap: round"/>
   </g>
   <g id="patch_7">
    <path d="M 370.8198 48.51 
L 386.1198 56.16 
L 370.8198 63.81 
z
" clip-path="url(#p43d37f6e91)" style="fill: #ee82ee"/>
   </g>
   <g id="line2d_13">
    <path d="M 432.0198 102.06 
L 432.0198 71.46 
L 432.0198 71.46 
M 432.0198 40.86 
L 432.0198 40.86 
L 432.0198 10.26 
" clip-path="url(#p43d37f6e91)" style="fill: none; stroke: #000000; stroke-width: 2; stroke-linecap: round"/>
   </g>
   <g id="line2d_14">
    <path d="M 432.0198 63.81 
L 432.0198 56.16 
" clip-path="url(#p43d37f6e91)" style="fill: none; stroke: #000000; stroke-width: 2; stroke-linecap: round"/>
   </g>
   <g id="patch_8">
    <path d="M 429.7248 56.16 
L 432.0198 48.51 
L 434.3148 56.16 
z
" clip-path="url(#p43d37f6e91)"/>
   </g>
   <g id="line2d_15">
    <path d="M 432.0198 10.26 
L 477.9198 10.26 
L 523.8198 10.26 
" clip-path="url(#p43d37f6e91)" style="fill: none; stroke: #000000; stroke-width: 2; stroke-linecap: round"/>
   </g>
   <g id="line2d_16">
    <path d="M 523.8198 10.26 
L 523.8198 40.86 
L 531.4698 43.41 
L 516.1698 48.51 
L 531.4698 53.61 
L 516.1698 58.71 
L 531.4698 63.81 
L 516.1698 68.91 
L 523.8198 71.46 
L 523.8198 102.06 
" clip-path="url(#p43d37f6e91)" style="fill: none; stroke: #ff0000; stroke-width: 2; stroke-linecap: round"/>
   </g>
   <g id="line2d_17">
    <path d="M 523.8198 10.26 
L 569.7198 10.26 
L 615.6198 10.26 
" clip-path="url(#p43d37f6e91)" style="fill: none; stroke: #000000; stroke-width: 2; stroke-linecap: round"/>
   </g>
   <g id="line2d_18">
    <path d="M 615.6198 10.26 
L 615.6198 40.86 
L 623.2698 43.41 
L 607.9698 48.51 
L 623.2698 53.61 
L 607.9698 58.71 
L 623.2698 63.81 
L 607.9698 68.91 
L 615.6198 71.46 
L 615.6198 102.06 
" clip-path="url(#p43d37f6e91)" style="fill: none; stroke: #000000; stroke-width: 2; stroke-linecap: round"/>
   </g>
   <g id="line2d_19">
    <path d="M 615.6198 102.06 
L 569.7198 102.06 
L 523.8198 102.06 
" clip-path="url(#p43d37f6e91)" style="fill: none; stroke: #000000; stroke-width: 2; stroke-linecap: round"/>
   </g>
   <g id="line2d_20">
    <path d="M 523.8198 102.06 
L 477.9198 102.06 
L 432.0198 102.06 
" clip-path="url(#p43d37f6e91)" style="fill: none; stroke: #000000; stroke-width: 2; stroke-linecap: round"/>
   </g>
   <g id="line2d_21">
    <path d="M 49.5198 102.06 
L 49.5198 71.46 
L 49.5198 71.46 
M 49.5198 40.86 
L 49.5198 40.86 
L 49.5198 10.26 
" clip-path="url(#p43d37f6e91)" style="fill: none; stroke: #000000; stroke-width: 2; stroke-linecap: round"/>
   </g>
   <g id="line2d_22">
    <path d="M 49.5198 63.81 
L 49.5198 56.16 
" clip-path="url(#p43d37f6e91)" style="fill: none; stroke: #000000; stroke-width: 2; stroke-linecap: round"/>
   </g>
   <g id="patch_9">
    <path d="M 47.2248 56.16 
L 49.5198 48.51 
L 51.8148 56.16 
z
" clip-path="url(#p43d37f6e91)"/>
   </g>
   <g id="line2d_23">
    <path d="M 49.5198 10.26 
L 95.4198 10.26 
L 141.3198 10.26 
" clip-path="url(#p43d37f6e91)" style="fill: none; stroke: #000000; stroke-width: 2; stroke-linecap: round"/>
   </g>
   <g id="line2d_24">
    <path d="M 141.3198 10.26 
L 141.3198 40.86 
L 148.9698 43.41 
L 133.6698 48.51 
L 148.9698 53.61 
L 133.6698 58.71 
L 148.9698 63.81 
L 133.6698 68.91 
L 141.3198 71.46 
L 141.3198 102.06 
" clip-path="url(#p43d37f6e91)" style="fill: none; stroke: #ff0000; stroke-width: 2; stroke-linecap: round"/>
   </g>
   <g id="line2d_25">
    <path d="M 141.3198 10.26 
L 187.2198 10.26 
L 233.1198 10.26 
" clip-path="url(#p43d37f6e91)" style="fill: none; stroke: #ff0000; stroke-width: 2; stroke-linecap: round"/>
   </g>
   <g id="line2d_26">
    <path d="M 233.1198 10.26 
L 233.1198 40.86 
L 240.7698 43.41 
L 225.4698 48.51 
L 240.7698 53.61 
L 225.4698 58.71 
L 240.7698 63.81 
L 225.4698 68.91 
L 233.1198 71.46 
L 233.1198 102.06 
" clip-path="url(#p43d37f6e91)" style="fill: none; stroke: #ff0000; stroke-width: 2; stroke-linecap: round"/>
   </g>
   <g id="line2d_27">
    <path d="M 233.1198 10.26 
L 279.0198 10.26 
L 324.9198 10.26 
" clip-path="url(#p43d37f6e91)" style="fill: none; stroke: #000000; stroke-width: 2; stroke-linecap: round"/>
   </g>
   <g id="line2d_28">
    <path d="M 324.9198 10.26 
L 324.9198 40.86 
L 332.5698 43.41 
L 317.2698 48.51 
L 332.5698 53.61 
L 317.2698 58.71 
L 332.5698 63.81 
L 317.2698 68.91 
L 324.9198 71.46 
L 324.9198 102.06 
" clip-path="url(#p43d37f6e91)" style="fill: none; stroke: #000000; stroke-width: 2; stroke-linecap: round"/>
   </g>
   <g id="line2d_29">
    <path d="M 324.9198 102.06 
L 279.0198 102.06 
L 233.1198 102.06 
" clip-path="url(#p43d37f6e91)" style="fill: none; stroke: #000000; stroke-width: 2; stroke-linecap: round"/>
   </g>
   <g id="line2d_30">
    <path d="M 233.1198 102.06 
L 187.2198 102.06 
L 141.3198 102.06 
" clip-path="url(#p43d37f6e91)" style="fill: none; stroke: #ff0000; stroke-width: 2; stroke-linecap: round"/>
   </g>
   <g id="line2d_31">
    <path d="M 141.3198 102.06 
L 95.4198 102.06 
L 49.5198 102.06 
" clip-path="url(#p43d37f6e91)" style="fill: none; stroke: #000000; stroke-width: 2; stroke-linecap: round"/>
   </g>
   <g id="line2d_32">
    <path d="M 355.5198 56.16 
L 370.8198 56.16 
L 370.8198 56.16 
" clip-path="url(#p43d37f6e91)" style="fill: none; stroke: #ee82ee; stroke-width: 6; stroke-linecap: round"/>
   </g>
   <g id="patch_10">
    <path d="M 370.8198 48.51 
L 386.1198 56.16 
L 370.8198 63.81 
z
" clip-path="url(#p43d37f6e91)" style="fill: #ee82ee"/>
   </g>
   <g id="line2d_33">
    <path d="M 432.0198 102.06 
L 432.0198 71.46 
L 432.0198 71.46 
M 432.0198 40.86 
L 432.0198 40.86 
L 432.0198 10.26 
" clip-path="url(#p43d37f6e91)" style="fill: none; stroke: #000000; stroke-width: 2; stroke-linecap: round"/>
   </g>
   <g id="line2d_34">
    <path d="M 432.0198 63.81 
L 432.0198 56.16 
" clip-path="url(#p43d37f6e91)" style="fill: none; stroke: #000000; stroke-width: 2; stroke-linecap: round"/>
   </g>
   <g id="patch_11">
    <path d="M 429.7248 56.16 
L 432.0198 48.51 
L 434.3148 56.16 
z
" clip-path="url(#p43d37f6e91)"/>
   </g>
   <g id="line2d_35">
    <path d="M 432.0198 10.26 
L 477.9198 10.26 
L 523.8198 10.26 
" clip-path="url(#p43d37f6e91)" style="fill: none; stroke: #000000; stroke-width: 2; stroke-linecap: round"/>
   </g>
   <g id="line2d_36">
    <path d="M 523.8198 10.26 
L 523.8198 40.86 
L 531.4698 43.41 
L 516.1698 48.51 
L 531.4698 53.61 
L 516.1698 58.71 
L 531.4698 63.81 
L 516.1698 68.91 
L 523.8198 71.46 
L 523.8198 102.06 
" clip-path="url(#p43d37f6e91)" style="fill: none; stroke: #ff0000; stroke-width: 2; stroke-linecap: round"/>
   </g>
   <g id="line2d_37">
    <path d="M 523.8198 10.26 
L 569.7198 10.26 
L 615.6198 10.26 
" clip-path="url(#p43d37f6e91)" style="fill: none; stroke: #000000; stroke-width: 2; stroke-linecap: round"/>
   </g>
   <g id="line2d_38">
    <path d="M 615.6198 10.26 
L 615.6198 40.86 
L 623.2698 43.41 
L 607.9698 48.51 
L 623.2698 53.61 
L 607.9698 58.71 
L 623.2698 63.81 
L 607.9698 68.91 
L 615.6198 71.46 
L 615.6198 102.06 
" clip-path="url(#p43d37f6e91)" style="fill: none; stroke: #000000; stroke-width: 2; stroke-linecap: round"/>
   </g>
   <g id="line2d_39">
    <path d="M 615.6198 102.06 
L 569.7198 102.06 
L 523.8198 102.06 
" clip-path="url(#p43d37f6e91)" style="fill: none; stroke: #000000; stroke-width: 2; stroke-linecap: round"/>
   </g>
   <g id="line2d_40">
    <path d="M 523.8198 102.06 
L 477.9198 102.06 
L 432.0198 102.06 
" clip-path="url(#p43d37f6e91)" style="fill: none; stroke: #000000; stroke-width: 2; stroke-linecap: round"/>
   </g>
   <g id="text_1">
    <g clip-path="url(#p43d37f6e91)">
     <!-- $3A$ -->
     <g transform="translate(17.1598 59.609219)scale(0.125 -0.125)">
      <defs>
       <path id="STIXGeneral-Regular-33" d="M 390 3264 
L 288 3290 
Q 435 3770 748 4048 
Q 1062 4326 1542 4326 
Q 1990 4326 2265 4083 
Q 2541 3840 2541 3450 
Q 2541 2925 1946 2566 
Q 2298 2413 2477 2227 
Q 2758 1914 2758 1402 
Q 2758 890 2464 506 
Q 2246 211 1840 60 
Q 1434 -90 979 -90 
Q 262 -90 262 275 
Q 262 378 339 442 
Q 416 506 525 506 
Q 685 506 915 339 
Q 1197 141 1466 141 
Q 1818 141 2058 425 
Q 2298 710 2298 1120 
Q 2298 1856 1632 2048 
Q 1434 2112 979 2112 
L 979 2202 
Q 1338 2323 1517 2432 
Q 2035 2726 2035 3290 
Q 2035 3610 1852 3776 
Q 1670 3942 1344 3942 
Q 768 3942 390 3264 
z
" transform="scale(0.015625)"/>
       <path id="STIXGeneral-Italic-41" d="M 3610 0 
L 2042 0 
L 2042 102 
Q 2330 115 2432 192 
Q 2534 269 2534 442 
Q 2534 493 2522 608 
L 2394 1446 
L 986 1446 
L 608 736 
Q 467 474 467 314 
Q 467 122 864 102 
L 864 0 
L -326 0 
L -326 102 
Q -109 147 28 307 
Q 166 467 531 1101 
L 2355 4275 
L 2522 4275 
L 3110 736 
Q 3174 339 3264 230 
Q 3354 122 3610 102 
L 3610 0 
z
M 2362 1677 
L 2074 3360 
L 1120 1677 
L 2362 1677 
z
" transform="scale(0.015625)"/>
      </defs>
      <use xlink:href="#STIXGeneral-Regular-33" transform="translate(0 0.40625)"/>
      <use xlink:href="#STIXGeneral-Italic-41" transform="translate(49.999985 0.40625)"/>
     </g>
    </g>
   </g>
   <g id="text_2">
    <g clip-path="url(#p43d37f6e91)">
     <!-- 4Ω -->
     <g style="fill: #ff0000" transform="translate(111.285581 59.609219)scale(0.125 -0.125)">
      <defs>
       <path id="DejaVuSans-Bold-34" d="M 2356 3675 
L 1038 1722 
L 2356 1722 
L 2356 3675 
z
M 2156 4666 
L 3494 4666 
L 3494 1722 
L 4159 1722 
L 4159 850 
L 3494 850 
L 3494 0 
L 2356 0 
L 2356 850 
L 288 850 
L 288 1881 
L 2156 4666 
z
" transform="scale(0.015625)"/>
       <path id="DejaVuSans-Bold-3a9" d="M 2719 4750 
Q 3841 4750 4480 4106 
Q 5119 3463 5119 2494 
Q 5119 1406 4306 909 
L 5266 909 
L 5266 0 
L 3125 0 
L 3125 975 
Q 3244 1041 3334 1131 
Q 3875 1678 3875 2466 
Q 3875 3066 3572 3472 
Q 3269 3878 2719 3878 
Q 2169 3878 1866 3472 
Q 1563 3066 1563 2466 
Q 1563 1678 2103 1131 
Q 2194 1041 2313 975 
L 2313 0 
L 172 0 
L 172 909 
L 1131 909 
Q 319 1406 319 2494 
Q 319 3463 958 4106 
Q 1597 4750 2719 4750 
z
" transform="scale(0.015625)"/>
      </defs>
      <use xlink:href="#DejaVuSans-Bold-34"/>
      <use xlink:href="#DejaVuSans-Bold-3a9" x="69.580078"/>
     </g>
    </g>
   </g>
   <g id="text_3">
    <g clip-path="url(#p43d37f6e91)">
     <!-- 6Ω -->
     <g style="fill: #ff0000" transform="translate(203.085581 59.609219)scale(0.125 -0.125)">
      <defs>
       <path id="DejaVuSans-Bold-36" d="M 2316 2303 
Q 2000 2303 1842 2098 
Q 1684 1894 1684 1484 
Q 1684 1075 1842 870 
Q 2000 666 2316 666 
Q 2634 666 2792 870 
Q 2950 1075 2950 1484 
Q 2950 1894 2792 2098 
Q 2634 2303 2316 2303 
z
M 3803 4544 
L 3803 3681 
Q 3506 3822 3243 3889 
Q 2981 3956 2731 3956 
Q 2194 3956 1894 3657 
Q 1594 3359 1544 2772 
Q 1750 2925 1990 3001 
Q 2231 3078 2516 3078 
Q 3231 3078 3670 2659 
Q 4109 2241 4109 1563 
Q 4109 813 3618 361 
Q 3128 -91 2303 -91 
Q 1394 -91 895 523 
Q 397 1138 397 2266 
Q 397 3422 980 4083 
Q 1563 4744 2578 4744 
Q 2900 4744 3203 4694 
Q 3506 4644 3803 4544 
z
" transform="scale(0.015625)"/>
      </defs>
      <use xlink:href="#DejaVuSans-Bold-36"/>
      <use xlink:href="#DejaVuSans-Bold-3a9" x="69.580078"/>
     </g>
    </g>
   </g>
   <g id="text_4">
    <g clip-path="url(#p43d37f6e91)">
     <!-- 3Ω -->
     <g transform="translate(294.885581 59.609219)scale(0.125 -0.125)">
      <defs>
       <path id="DejaVuSans-Bold-33" d="M 2981 2516 
Q 3453 2394 3698 2092 
Q 3944 1791 3944 1325 
Q 3944 631 3412 270 
Q 2881 -91 1863 -91 
Q 1503 -91 1142 -33 
Q 781 25 428 141 
L 428 1069 
Q 766 900 1098 814 
Q 1431 728 1753 728 
Q 2231 728 2486 893 
Q 2741 1059 2741 1369 
Q 2741 1688 2480 1852 
Q 2219 2016 1709 2016 
L 1228 2016 
L 1228 2791 
L 1734 2791 
Q 2188 2791 2409 2933 
Q 2631 3075 2631 3366 
Q 2631 3634 2415 3781 
Q 2200 3928 1806 3928 
Q 1516 3928 1219 3862 
Q 922 3797 628 3669 
L 628 4550 
Q 984 4650 1334 4700 
Q 1684 4750 2022 4750 
Q 2931 4750 3382 4451 
Q 3834 4153 3834 3553 
Q 3834 3144 3618 2883 
Q 3403 2622 2981 2516 
z
" transform="scale(0.015625)"/>
      </defs>
      <use xlink:href="#DejaVuSans-Bold-33"/>
      <use xlink:href="#DejaVuSans-Bold-3a9" x="69.580078"/>
     </g>
    </g>
   </g>
   <g id="text_5">
    <g clip-path="url(#p43d37f6e91)">
     <!-- $3A$ -->
     <g transform="translate(399.6598 59.609219)scale(0.125 -0.125)">
      <use xlink:href="#STIXGeneral-Regular-33" transform="translate(0 0.40625)"/>
      <use xlink:href="#STIXGeneral-Italic-41" transform="translate(49.999985 0.40625)"/>
     </g>
    </g>
   </g>
   <g id="text_6">
    <g clip-path="url(#p43d37f6e91)">
     <!-- 4Ω||6Ω -->
     <g style="fill: #ff0000" transform="translate(465.32855 52.464102)scale(0.125 -0.125)">
      <defs>
       <path id="DejaVuSans-Bold-7c" d="M 1522 4891 
L 1522 -1509 
L 813 -1509 
L 813 4891 
L 1522 4891 
z
" transform="scale(0.015625)"/>
      </defs>
      <use xlink:href="#DejaVuSans-Bold-34"/>
      <use xlink:href="#DejaVuSans-Bold-3a9" x="69.580078"/>
      <use xlink:href="#DejaVuSans-Bold-7c" x="154.589844"/>
      <use xlink:href="#DejaVuSans-Bold-7c" x="191.113281"/>
      <use xlink:href="#DejaVuSans-Bold-36" x="227.636719"/>
      <use xlink:href="#DejaVuSans-Bold-3a9" x="297.216797"/>
     </g>
    </g>
    <g clip-path="url(#p43d37f6e91)">
     <!-- =2.4Ω -->
     <g style="fill: #ff0000" transform="translate(469.865659 66.809023)scale(0.125 -0.125)">
      <defs>
       <path id="DejaVuSans-Bold-3d" d="M 678 3084 
L 4684 3084 
L 4684 2350 
L 678 2350 
L 678 3084 
z
M 678 1663 
L 4684 1663 
L 4684 922 
L 678 922 
L 678 1663 
z
" transform="scale(0.015625)"/>
       <path id="DejaVuSans-Bold-32" d="M 1844 884 
L 3897 884 
L 3897 0 
L 506 0 
L 506 884 
L 2209 2388 
Q 2438 2594 2547 2791 
Q 2656 2988 2656 3200 
Q 2656 3528 2436 3728 
Q 2216 3928 1850 3928 
Q 1569 3928 1234 3808 
Q 900 3688 519 3450 
L 519 4475 
Q 925 4609 1322 4679 
Q 1719 4750 2100 4750 
Q 2938 4750 3402 4381 
Q 3866 4013 3866 3353 
Q 3866 2972 3669 2642 
Q 3472 2313 2841 1759 
L 1844 884 
z
" transform="scale(0.015625)"/>
       <path id="DejaVuSans-Bold-2e" d="M 653 1209 
L 1778 1209 
L 1778 0 
L 653 0 
L 653 1209 
z
" transform="scale(0.015625)"/>
      </defs>
      <use xlink:href="#DejaVuSans-Bold-3d"/>
      <use xlink:href="#DejaVuSans-Bold-32" x="83.789062"/>
      <use xlink:href="#DejaVuSans-Bold-2e" x="153.369141"/>
      <use xlink:href="#DejaVuSans-Bold-34" x="191.357422"/>
      <use xlink:href="#DejaVuSans-Bold-3a9" x="260.9375"/>
     </g>
    </g>
   </g>
   <g id="text_7">
    <g clip-path="url(#p43d37f6e91)">
     <!-- 3Ω -->
     <g transform="translate(585.585581 59.609219)scale(0.125 -0.125)">
      <use xlink:href="#DejaVuSans-Bold-33"/>
      <use xlink:href="#DejaVuSans-Bold-3a9" x="69.580078"/>
     </g>
    </g>
   </g>
   <g id="text_8">
    <g clip-path="url(#p43d37f6e91)">
     <!-- $3A$ -->
     <g transform="translate(17.1598 59.609219)scale(0.125 -0.125)">
      <use xlink:href="#STIXGeneral-Regular-33" transform="translate(0 0.40625)"/>
      <use xlink:href="#STIXGeneral-Italic-41" transform="translate(49.999985 0.40625)"/>
     </g>
    </g>
   </g>
   <g id="text_9">
    <g clip-path="url(#p43d37f6e91)">
     <!-- 4Ω -->
     <g style="fill: #ff0000" transform="translate(111.285581 59.609219)scale(0.125 -0.125)">
      <use xlink:href="#DejaVuSans-Bold-34"/>
      <use xlink:href="#DejaVuSans-Bold-3a9" x="69.580078"/>
     </g>
    </g>
   </g>
   <g id="text_10">
    <g clip-path="url(#p43d37f6e91)">
     <!-- 6Ω -->
     <g style="fill: #ff0000" transform="translate(203.085581 59.609219)scale(0.125 -0.125)">
      <use xlink:href="#DejaVuSans-Bold-36"/>
      <use xlink:href="#DejaVuSans-Bold-3a9" x="69.580078"/>
     </g>
    </g>
   </g>
   <g id="text_11">
    <g clip-path="url(#p43d37f6e91)">
     <!-- 3Ω -->
     <g transform="translate(294.885581 59.609219)scale(0.125 -0.125)">
      <use xlink:href="#DejaVuSans-Bold-33"/>
      <use xlink:href="#DejaVuSans-Bold-3a9" x="69.580078"/>
     </g>
    </g>
   </g>
   <g id="text_12">
    <g clip-path="url(#p43d37f6e91)">
     <!-- $3A$ -->
     <g transform="translate(399.6598 59.609219)scale(0.125 -0.125)">
      <use xlink:href="#STIXGeneral-Regular-33" transform="translate(0 0.40625)"/>
      <use xlink:href="#STIXGeneral-Italic-41" transform="translate(49.999985 0.40625)"/>
     </g>
    </g>
   </g>
   <g id="text_13">
    <g clip-path="url(#p43d37f6e91)">
     <!-- 4Ω||6Ω -->
     <g style="fill: #ff0000" transform="translate(465.32855 52.464102)scale(0.125 -0.125)">
      <use xlink:href="#DejaVuSans-Bold-34"/>
      <use xlink:href="#DejaVuSans-Bold-3a9" x="69.580078"/>
      <use xlink:href="#DejaVuSans-Bold-7c" x="154.589844"/>
      <use xlink:href="#DejaVuSans-Bold-7c" x="191.113281"/>
      <use xlink:href="#DejaVuSans-Bold-36" x="227.636719"/>
      <use xlink:href="#DejaVuSans-Bold-3a9" x="297.216797"/>
     </g>
    </g>
    <g clip-path="url(#p43d37f6e91)">
     <!-- =2.4Ω -->
     <g style="fill: #ff0000" transform="translate(469.865659 66.809023)scale(0.125 -0.125)">
      <use xlink:href="#DejaVuSans-Bold-3d"/>
      <use xlink:href="#DejaVuSans-Bold-32" x="83.789062"/>
      <use xlink:href="#DejaVuSans-Bold-2e" x="153.369141"/>
      <use xlink:href="#DejaVuSans-Bold-34" x="191.357422"/>
      <use xlink:href="#DejaVuSans-Bold-3a9" x="260.9375"/>
     </g>
    </g>
   </g>
   <g id="text_14">
    <g clip-path="url(#p43d37f6e91)">
     <!-- 3Ω -->
     <g transform="translate(585.585581 59.609219)scale(0.125 -0.125)">
      <use xlink:href="#DejaVuSans-Bold-33"/>
      <use xlink:href="#DejaVuSans-Bold-3a9" x="69.580078"/>
     </g>
    </g>
   </g>
   <g id="line2d_41">
    <path d="M 324.9198 83.7 
L 324.9198 83.7 
" clip-path="url(#p43d37f6e91)" style="fill: none; stroke: #000000; stroke-width: 2; stroke-linecap: round"/>
   </g>
   <g id="patch_12">
    <path d="M 329.5098 83.7 
L 324.9198 92.88 
L 320.3298 83.7 
z
" clip-path="url(#p43d37f6e91)"/>
   </g>
   <g id="text_15">
    <g clip-path="url(#p43d37f6e91)">
     <!-- $I_{O}$ -->
     <g transform="translate(334.0998 91.739219)scale(0.125 -0.125)">
      <defs>
       <path id="STIXGeneral-Italic-49" d="M 2458 4179 
L 2458 4077 
Q 2189 4045 2102 3961 
Q 2016 3878 1933 3584 
L 1165 838 
Q 1069 499 1069 352 
Q 1069 224 1149 179 
Q 1229 134 1510 102 
L 1510 0 
L -51 0 
L -51 102 
Q 218 154 317 237 
Q 416 320 486 582 
L 1254 3405 
Q 1338 3699 1338 3802 
Q 1338 3930 1235 3997 
Q 1133 4064 877 4077 
L 877 4179 
L 2458 4179 
z
" transform="scale(0.015625)"/>
       <path id="STIXGeneral-Italic-4f" d="M 4474 2675 
Q 4474 1990 4106 1363 
Q 3738 736 3149 339 
Q 2477 -115 1779 -115 
Q 1146 -115 765 281 
Q 384 678 384 1382 
Q 384 1965 697 2582 
Q 1011 3200 1517 3642 
Q 2234 4262 3034 4262 
Q 3718 4269 4096 3840 
Q 4474 3411 4474 2675 
z
M 3802 3078 
Q 3802 3533 3581 3792 
Q 3360 4051 2976 4051 
Q 2342 4051 1786 3302 
Q 1446 2842 1251 2259 
Q 1056 1677 1056 1178 
Q 1056 653 1270 374 
Q 1485 96 1888 96 
Q 2477 96 2976 704 
Q 3354 1178 3578 1862 
Q 3802 2547 3802 3078 
z
" transform="scale(0.015625)"/>
      </defs>
      <use xlink:href="#STIXGeneral-Italic-49" transform="translate(0 0.703125)"/>
      <use xlink:href="#STIXGeneral-Italic-4f" transform="translate(33.299988 -12.525)scale(0.7)"/>
     </g>
    </g>
   </g>
   <g id="line2d_42">
    <path d="M 615.6198 83.7 
L 615.6198 83.7 
" clip-path="url(#p43d37f6e91)" style="fill: none; stroke: #000000; stroke-width: 2; stroke-linecap: round"/>
   </g>
   <g id="patch_13">
    <path d="M 620.2098 83.7 
L 615.6198 92.88 
L 611.0298 83.7 
z
" clip-path="url(#p43d37f6e91)"/>
   </g>
   <g id="text_16">
    <g clip-path="url(#p43d37f6e91)">
     <!-- $I_{O}$ -->
     <g transform="translate(624.7998 91.739219)scale(0.125 -0.125)">
      <use xlink:href="#STIXGeneral-Italic-49" transform="translate(0 0.703125)"/>
      <use xlink:href="#STIXGeneral-Italic-4f" transform="translate(33.299988 -12.525)scale(0.7)"/>
     </g>
    </g>
   </g>
   <g id="line2d_43">
    <path d="M 324.9198 83.7 
L 324.9198 83.7 
" clip-path="url(#p43d37f6e91)" style="fill: none; stroke: #000000; stroke-width: 2; stroke-linecap: round"/>
   </g>
   <g id="patch_14">
    <path d="M 329.5098 83.7 
L 324.9198 92.88 
L 320.3298 83.7 
z
" clip-path="url(#p43d37f6e91)"/>
   </g>
   <g id="text_17">
    <g clip-path="url(#p43d37f6e91)">
     <!-- $I_{O}$ -->
     <g transform="translate(334.0998 91.739219)scale(0.125 -0.125)">
      <use xlink:href="#STIXGeneral-Italic-49" transform="translate(0 0.703125)"/>
      <use xlink:href="#STIXGeneral-Italic-4f" transform="translate(33.299988 -12.525)scale(0.7)"/>
     </g>
    </g>
   </g>
   <g id="line2d_44">
    <path d="M 615.6198 83.7 
L 615.6198 83.7 
" clip-path="url(#p43d37f6e91)" style="fill: none; stroke: #000000; stroke-width: 2; stroke-linecap: round"/>
   </g>
   <g id="patch_15">
    <path d="M 620.2098 83.7 
L 615.6198 92.88 
L 611.0298 83.7 
z
" clip-path="url(#p43d37f6e91)"/>
   </g>
   <g id="text_18">
    <g clip-path="url(#p43d37f6e91)">
     <!-- $I_{O}$ -->
     <g transform="translate(624.7998 91.739219)scale(0.125 -0.125)">
      <use xlink:href="#STIXGeneral-Italic-49" transform="translate(0 0.703125)"/>
      <use xlink:href="#STIXGeneral-Italic-4f" transform="translate(33.299988 -12.525)scale(0.7)"/>
     </g>
    </g>
   </g>
  </g>
 </g>
 <defs>
  <clipPath id="p43d37f6e91">
   <rect x="7.2" y="7.2" width="649.1076" height="97.92"/>
  </clipPath>
 </defs>
</svg>
