<?xml version="1.0" encoding="utf-8" standalone="no"?>
<!DOCTYPE svg PUBLIC "-//W3C//DTD SVG 1.1//EN"
  "http://www.w3.org/Graphics/SVG/1.1/DTD/svg11.dtd">
<svg xmlns:xlink="http://www.w3.org/1999/xlink" width="520.779pt" height="148.615pt" viewBox="0 0 520.779 148.615" xmlns="http://www.w3.org/2000/svg" version="1.1">
 <metadata>
  <rdf:RDF xmlns:dc="http://purl.org/dc/elements/1.1/" xmlns:cc="http://creativecommons.org/ns#" xmlns:rdf="http://www.w3.org/1999/02/22-rdf-syntax-ns#">
   <cc:Work>
    <dc:type rdf:resource="http://purl.org/dc/dcmitype/StillImage"/>
    <dc:date>2023-10-21T16:48:12.718720</dc:date>
    <dc:format>image/svg+xml</dc:format>
    <dc:creator>
     <cc:Agent>
      <dc:title>Matplotlib v3.5.2, https://matplotlib.org/</dc:title>
     </cc:Agent>
    </dc:creator>
   </cc:Work>
  </rdf:RDF>
 </metadata>
 <defs>
  <style type="text/css">*{stroke-linejoin: round; stroke-linecap: butt}</style>
 </defs>
 <g id="figure_1">
  <g id="patch_1">
   <path d="M 0 148.615 
L 520.779 148.615 
L 520.779 0 
L 0 0 
L 0 148.615 
z
" style="fill: none"/>
  </g>
  <g id="axes_1">
   <g id="patch_2">
    <path d="M 135.669 107.755 
C 139.726607 107.755 143.618572 106.142895 146.487734 103.273734 
C 149.356895 100.404572 150.969 96.512607 150.969 92.455 
C 150.969 88.397393 149.356895 84.505428 146.487734 81.636266 
C 143.618572 78.767105 139.726607 77.155 135.669 77.155 
C 131.611393 77.155 127.719428 78.767105 124.850266 81.636266 
C 121.981105 84.505428 120.369 88.397393 120.369 92.455 
C 120.369 96.512607 121.981105 100.404572 124.850266 103.273734 
C 127.719428 106.142895 131.611393 107.755 135.669 107.755 
L 135.669 107.755 
z
" clip-path="url(#pb473e93f90)" style="fill: none; stroke: #000000; stroke-width: 2; stroke-linejoin: miter"/>
   </g>
   <g id="patch_3">
    <path d="M 411.069 107.755 
C 415.126607 107.755 419.018572 106.142895 421.887734 103.273734 
C 424.756895 100.404572 426.369 96.512607 426.369 92.455 
C 426.369 88.397393 424.756895 84.505428 421.887734 81.636266 
C 419.018572 78.767105 415.126607 77.155 411.069 77.155 
C 407.011393 77.155 403.119428 78.767105 400.250266 81.636266 
C 397.381105 84.505428 395.769 88.397393 395.769 92.455 
C 395.769 96.512607 397.381105 100.404572 400.250266 103.273734 
C 403.119428 106.142895 407.011393 107.755 411.069 107.755 
L 411.069 107.755 
z
" clip-path="url(#pb473e93f90)" style="fill: none; stroke: #000000; stroke-width: 2; stroke-linejoin: miter"/>
   </g>
   <g id="patch_4">
    <path d="M 135.669 107.755 
C 139.726607 107.755 143.618572 106.142895 146.487734 103.273734 
C 149.356895 100.404572 150.969 96.512607 150.969 92.455 
C 150.969 88.397393 149.356895 84.505428 146.487734 81.636266 
C 143.618572 78.767105 139.726607 77.155 135.669 77.155 
C 131.611393 77.155 127.719428 78.767105 124.850266 81.636266 
C 121.981105 84.505428 120.369 88.397393 120.369 92.455 
C 120.369 96.512607 121.981105 100.404572 124.850266 103.273734 
C 127.719428 106.142895 131.611393 107.755 135.669 107.755 
L 135.669 107.755 
z
" clip-path="url(#pb473e93f90)" style="fill: none; stroke: #000000; stroke-width: 2; stroke-linejoin: miter"/>
   </g>
   <g id="patch_5">
    <path d="M 411.069 107.755 
C 415.126607 107.755 419.018572 106.142895 421.887734 103.273734 
C 424.756895 100.404572 426.369 96.512607 426.369 92.455 
C 426.369 88.397393 424.756895 84.505428 421.887734 81.636266 
C 419.018572 78.767105 415.126607 77.155 411.069 77.155 
C 407.011393 77.155 403.119428 78.767105 400.250266 81.636266 
C 397.381105 84.505428 395.769 88.397393 395.769 92.455 
C 395.769 96.512607 397.381105 100.404572 400.250266 103.273734 
C 403.119428 106.142895 407.011393 107.755 411.069 107.755 
L 411.069 107.755 
z
" clip-path="url(#pb473e93f90)" style="fill: none; stroke: #000000; stroke-width: 2; stroke-linejoin: miter"/>
   </g>
   <g id="line2d_1">
    <path d="M 43.869 138.355 
L 43.869 107.755 
L 36.219 105.205 
L 51.519 100.105 
L 36.219 95.005 
L 51.519 89.905 
L 36.219 84.805 
L 51.519 79.705 
L 43.869 77.155 
L 43.869 46.555 
" clip-path="url(#pb473e93f90)" style="fill: none; stroke: #000000; stroke-width: 2; stroke-linecap: round"/>
   </g>
   <g id="line2d_2">
    <path d="M 43.869 46.555 
L 89.769 46.555 
L 135.669 46.555 
" clip-path="url(#pb473e93f90)" style="fill: none; stroke: #000000; stroke-width: 2; stroke-linecap: round"/>
   </g>
   <g id="line2d_3">
    <path d="M 135.669 46.555 
L 181.569 46.555 
L 227.469 46.555 
" clip-path="url(#pb473e93f90)" style="fill: none; stroke: #000000; stroke-width: 2; stroke-linecap: round"/>
   </g>
   <g id="line2d_4">
    <path d="M 227.469 46.555 
L 264.76275 46.555 
M 281.97525 46.555 
L 319.269 46.555 
" clip-path="url(#pb473e93f90)" style="fill: none; stroke: #000000; stroke-width: 2; stroke-linecap: round"/>
   </g>
   <g id="line2d_5">
    <path d="M 281.97525 58.03 
L 281.97525 35.08 
" clip-path="url(#pb473e93f90)" style="fill: none; stroke: #000000; stroke-width: 2; stroke-linecap: round"/>
   </g>
   <g id="line2d_6">
    <path d="M 276.23775 52.2925 
L 276.23775 40.8175 
" clip-path="url(#pb473e93f90)" style="fill: none; stroke: #000000; stroke-width: 2; stroke-linecap: round"/>
   </g>
   <g id="line2d_7">
    <path d="M 270.50025 58.03 
L 270.50025 35.08 
" clip-path="url(#pb473e93f90)" style="fill: none; stroke: #000000; stroke-width: 2; stroke-linecap: round"/>
   </g>
   <g id="line2d_8">
    <path d="M 264.76275 52.2925 
L 264.76275 40.8175 
" clip-path="url(#pb473e93f90)" style="fill: none; stroke: #000000; stroke-width: 2; stroke-linecap: round"/>
   </g>
   <g id="line2d_9">
    <path d="M 319.269 46.555 
L 365.169 46.555 
L 411.069 46.555 
" clip-path="url(#pb473e93f90)" style="fill: none; stroke: #000000; stroke-width: 2; stroke-linecap: round"/>
   </g>
   <g id="line2d_10">
    <path d="M 411.069 46.555 
L 441.669 46.555 
L 444.219 38.905 
L 449.319 54.205 
L 454.419 38.905 
L 459.519 54.205 
L 464.619 38.905 
L 469.719 54.205 
L 472.269 46.555 
L 502.869 46.555 
" clip-path="url(#pb473e93f90)" style="fill: none; stroke: #000000; stroke-width: 2; stroke-linecap: round"/>
   </g>
   <g id="line2d_11">
    <path d="M 502.869 46.555 
L 502.869 77.155 
L 510.519 79.705 
L 495.219 84.805 
L 510.519 89.905 
L 495.219 95.005 
L 510.519 100.105 
L 495.219 105.205 
L 502.869 107.755 
L 502.869 138.355 
" clip-path="url(#pb473e93f90)" style="fill: none; stroke: #000000; stroke-width: 2; stroke-linecap: round"/>
   </g>
   <g id="line2d_12">
    <path d="M 502.869 138.355 
L 273.369 138.355 
L 43.869 138.355 
" clip-path="url(#pb473e93f90)" style="fill: none; stroke: #000000; stroke-width: 2; stroke-linecap: round"/>
   </g>
   <g id="line2d_13">
    <path d="M 135.669 46.555 
L 135.669 77.155 
L 135.669 77.155 
M 135.669 107.755 
L 135.669 107.755 
L 135.669 138.355 
" clip-path="url(#pb473e93f90)" style="fill: none; stroke: #000000; stroke-width: 2; stroke-linecap: round"/>
   </g>
   <g id="line2d_14">
    <path d="M 135.669 92.455 
L 135.669 100.105 
" clip-path="url(#pb473e93f90)" style="fill: none; stroke: #000000; stroke-width: 2; stroke-linecap: round"/>
   </g>
   <g id="patch_6">
    <path d="M 133.374 92.455 
L 135.669 84.805 
L 137.964 92.455 
z
" clip-path="url(#pb473e93f90)"/>
   </g>
   <g id="line2d_15">
    <path d="M 227.469 46.555 
L 227.469 77.155 
L 235.119 79.705 
L 219.819 84.805 
L 235.119 89.905 
L 219.819 95.005 
L 235.119 100.105 
L 219.819 105.205 
L 227.469 107.755 
L 227.469 138.355 
" clip-path="url(#pb473e93f90)" style="fill: none; stroke: #000000; stroke-width: 2; stroke-linecap: round"/>
   </g>
   <g id="line2d_16">
    <path d="M 319.269 46.555 
L 319.269 77.155 
L 326.919 79.705 
L 311.619 84.805 
L 326.919 89.905 
L 311.619 95.005 
L 326.919 100.105 
L 311.619 105.205 
L 319.269 107.755 
L 319.269 138.355 
" clip-path="url(#pb473e93f90)" style="fill: none; stroke: #000000; stroke-width: 2; stroke-linecap: round"/>
   </g>
   <g id="line2d_17">
    <path d="M 411.069 46.555 
L 411.069 77.155 
L 411.069 77.155 
M 411.069 107.755 
L 411.069 107.755 
L 411.069 138.355 
" clip-path="url(#pb473e93f90)" style="fill: none; stroke: #000000; stroke-width: 2; stroke-linecap: round"/>
   </g>
   <g id="line2d_18">
    <path d="M 411.069 92.455 
L 411.069 100.105 
" clip-path="url(#pb473e93f90)" style="fill: none; stroke: #000000; stroke-width: 2; stroke-linecap: round"/>
   </g>
   <g id="patch_7">
    <path d="M 408.774 92.455 
L 411.069 84.805 
L 413.364 92.455 
z
" clip-path="url(#pb473e93f90)"/>
   </g>
   <g id="line2d_19">
    <path d="M 43.869 138.355 
L 43.869 107.755 
L 36.219 105.205 
L 51.519 100.105 
L 36.219 95.005 
L 51.519 89.905 
L 36.219 84.805 
L 51.519 79.705 
L 43.869 77.155 
L 43.869 46.555 
" clip-path="url(#pb473e93f90)" style="fill: none; stroke: #000000; stroke-width: 2; stroke-linecap: round"/>
   </g>
   <g id="line2d_20">
    <path d="M 43.869 46.555 
L 89.769 46.555 
L 135.669 46.555 
" clip-path="url(#pb473e93f90)" style="fill: none; stroke: #000000; stroke-width: 2; stroke-linecap: round"/>
   </g>
   <g id="line2d_21">
    <path d="M 135.669 46.555 
L 181.569 46.555 
L 227.469 46.555 
" clip-path="url(#pb473e93f90)" style="fill: none; stroke: #000000; stroke-width: 2; stroke-linecap: round"/>
   </g>
   <g id="line2d_22">
    <path d="M 227.469 46.555 
L 264.76275 46.555 
M 281.97525 46.555 
L 319.269 46.555 
" clip-path="url(#pb473e93f90)" style="fill: none; stroke: #000000; stroke-width: 2; stroke-linecap: round"/>
   </g>
   <g id="line2d_23">
    <path d="M 281.97525 58.03 
L 281.97525 35.08 
" clip-path="url(#pb473e93f90)" style="fill: none; stroke: #000000; stroke-width: 2; stroke-linecap: round"/>
   </g>
   <g id="line2d_24">
    <path d="M 276.23775 52.2925 
L 276.23775 40.8175 
" clip-path="url(#pb473e93f90)" style="fill: none; stroke: #000000; stroke-width: 2; stroke-linecap: round"/>
   </g>
   <g id="line2d_25">
    <path d="M 270.50025 58.03 
L 270.50025 35.08 
" clip-path="url(#pb473e93f90)" style="fill: none; stroke: #000000; stroke-width: 2; stroke-linecap: round"/>
   </g>
   <g id="line2d_26">
    <path d="M 264.76275 52.2925 
L 264.76275 40.8175 
" clip-path="url(#pb473e93f90)" style="fill: none; stroke: #000000; stroke-width: 2; stroke-linecap: round"/>
   </g>
   <g id="line2d_27">
    <path d="M 319.269 46.555 
L 365.169 46.555 
L 411.069 46.555 
" clip-path="url(#pb473e93f90)" style="fill: none; stroke: #000000; stroke-width: 2; stroke-linecap: round"/>
   </g>
   <g id="line2d_28">
    <path d="M 411.069 46.555 
L 441.669 46.555 
L 444.219 38.905 
L 449.319 54.205 
L 454.419 38.905 
L 459.519 54.205 
L 464.619 38.905 
L 469.719 54.205 
L 472.269 46.555 
L 502.869 46.555 
" clip-path="url(#pb473e93f90)" style="fill: none; stroke: #000000; stroke-width: 2; stroke-linecap: round"/>
   </g>
   <g id="line2d_29">
    <path d="M 502.869 46.555 
L 502.869 77.155 
L 510.519 79.705 
L 495.219 84.805 
L 510.519 89.905 
L 495.219 95.005 
L 510.519 100.105 
L 495.219 105.205 
L 502.869 107.755 
L 502.869 138.355 
" clip-path="url(#pb473e93f90)" style="fill: none; stroke: #000000; stroke-width: 2; stroke-linecap: round"/>
   </g>
   <g id="line2d_30">
    <path d="M 502.869 138.355 
L 273.369 138.355 
L 43.869 138.355 
" clip-path="url(#pb473e93f90)" style="fill: none; stroke: #000000; stroke-width: 2; stroke-linecap: round"/>
   </g>
   <g id="line2d_31">
    <path d="M 135.669 46.555 
L 135.669 77.155 
L 135.669 77.155 
M 135.669 107.755 
L 135.669 107.755 
L 135.669 138.355 
" clip-path="url(#pb473e93f90)" style="fill: none; stroke: #000000; stroke-width: 2; stroke-linecap: round"/>
   </g>
   <g id="line2d_32">
    <path d="M 135.669 92.455 
L 135.669 100.105 
" clip-path="url(#pb473e93f90)" style="fill: none; stroke: #000000; stroke-width: 2; stroke-linecap: round"/>
   </g>
   <g id="patch_8">
    <path d="M 133.374 92.455 
L 135.669 84.805 
L 137.964 92.455 
z
" clip-path="url(#pb473e93f90)"/>
   </g>
   <g id="line2d_33">
    <path d="M 227.469 46.555 
L 227.469 77.155 
L 235.119 79.705 
L 219.819 84.805 
L 235.119 89.905 
L 219.819 95.005 
L 235.119 100.105 
L 219.819 105.205 
L 227.469 107.755 
L 227.469 138.355 
" clip-path="url(#pb473e93f90)" style="fill: none; stroke: #000000; stroke-width: 2; stroke-linecap: round"/>
   </g>
   <g id="line2d_34">
    <path d="M 319.269 46.555 
L 319.269 77.155 
L 326.919 79.705 
L 311.619 84.805 
L 326.919 89.905 
L 311.619 95.005 
L 326.919 100.105 
L 311.619 105.205 
L 319.269 107.755 
L 319.269 138.355 
" clip-path="url(#pb473e93f90)" style="fill: none; stroke: #000000; stroke-width: 2; stroke-linecap: round"/>
   </g>
   <g id="line2d_35">
    <path d="M 411.069 46.555 
L 411.069 77.155 
L 411.069 77.155 
M 411.069 107.755 
L 411.069 107.755 
L 411.069 138.355 
" clip-path="url(#pb473e93f90)" style="fill: none; stroke: #000000; stroke-width: 2; stroke-linecap: round"/>
   </g>
   <g id="line2d_36">
    <path d="M 411.069 92.455 
L 411.069 100.105 
" clip-path="url(#pb473e93f90)" style="fill: none; stroke: #000000; stroke-width: 2; stroke-linecap: round"/>
   </g>
   <g id="patch_9">
    <path d="M 408.774 92.455 
L 411.069 84.805 
L 413.364 92.455 
z
" clip-path="url(#pb473e93f90)"/>
   </g>
   <g id="text_1">
    <g clip-path="url(#pb473e93f90)">
     <!-- 6Ω -->
     <g transform="translate(13.834781 95.904219)scale(0.125 -0.125)">
      <defs>
       <path id="DejaVuSans-Bold-36" d="M 2316 2303 
Q 2000 2303 1842 2098 
Q 1684 1894 1684 1484 
Q 1684 1075 1842 870 
Q 2000 666 2316 666 
Q 2634 666 2792 870 
Q 2950 1075 2950 1484 
Q 2950 1894 2792 2098 
Q 2634 2303 2316 2303 
z
M 3803 4544 
L 3803 3681 
Q 3506 3822 3243 3889 
Q 2981 3956 2731 3956 
Q 2194 3956 1894 3657 
Q 1594 3359 1544 2772 
Q 1750 2925 1990 3001 
Q 2231 3078 2516 3078 
Q 3231 3078 3670 2659 
Q 4109 2241 4109 1563 
Q 4109 813 3618 361 
Q 3128 -91 2303 -91 
Q 1394 -91 895 523 
Q 397 1138 397 2266 
Q 397 3422 980 4083 
Q 1563 4744 2578 4744 
Q 2900 4744 3203 4694 
Q 3506 4644 3803 4544 
z
" transform="scale(0.015625)"/>
       <path id="DejaVuSans-Bold-3a9" d="M 2719 4750 
Q 3841 4750 4480 4106 
Q 5119 3463 5119 2494 
Q 5119 1406 4306 909 
L 5266 909 
L 5266 0 
L 3125 0 
L 3125 975 
Q 3244 1041 3334 1131 
Q 3875 1678 3875 2466 
Q 3875 3066 3572 3472 
Q 3269 3878 2719 3878 
Q 2169 3878 1866 3472 
Q 1563 3066 1563 2466 
Q 1563 1678 2103 1131 
Q 2194 1041 2313 975 
L 2313 0 
L 172 0 
L 172 909 
L 1131 909 
Q 319 1406 319 2494 
Q 319 3463 958 4106 
Q 1597 4750 2719 4750 
z
" transform="scale(0.015625)"/>
      </defs>
      <use xlink:href="#DejaVuSans-Bold-36"/>
      <use xlink:href="#DejaVuSans-Bold-3a9" x="69.580078"/>
     </g>
    </g>
   </g>
   <g id="text_2">
    <g clip-path="url(#pb473e93f90)">
     <!-- $5V$ -->
     <g transform="translate(266.369 29.420391)scale(0.125 -0.125)">
      <defs>
       <path id="STIXGeneral-Regular-35" d="M 2803 4358 
L 2573 3814 
Q 2534 3731 2400 3731 
L 1158 3731 
L 902 3187 
Q 1606 3053 1920 2896 
Q 2234 2739 2502 2368 
Q 2726 2061 2726 1555 
Q 2726 1094 2576 780 
Q 2426 467 2099 224 
Q 1664 -90 1011 -90 
Q 646 -90 422 19 
Q 198 128 198 307 
Q 198 550 486 550 
Q 717 550 960 352 
Q 1210 147 1414 147 
Q 1747 147 2012 480 
Q 2278 813 2278 1229 
Q 2278 1843 1850 2189 
Q 1293 2637 486 2637 
Q 410 2637 410 2688 
L 416 2720 
L 1114 4237 
L 2438 4237 
Q 2547 4237 2608 4269 
Q 2669 4301 2746 4403 
L 2803 4358 
z
" transform="scale(0.015625)"/>
       <path id="STIXGeneral-Italic-56" d="M 4403 4179 
L 4403 4077 
Q 4198 4070 4045 3821 
L 1658 -115 
L 1536 -115 
L 1011 3104 
Q 902 3776 828 3910 
Q 755 4045 486 4077 
L 486 4179 
L 2022 4179 
L 2022 4077 
Q 1722 4045 1629 3981 
Q 1536 3917 1536 3750 
Q 1536 3686 1542 3654 
L 1958 819 
L 3302 3123 
Q 3616 3661 3616 3859 
Q 3616 4032 3219 4077 
L 3219 4179 
L 4403 4179 
z
" transform="scale(0.015625)"/>
      </defs>
      <use xlink:href="#STIXGeneral-Regular-35" transform="translate(0 0.203125)"/>
      <use xlink:href="#STIXGeneral-Italic-56" transform="translate(49.999985 0.203125)"/>
     </g>
    </g>
   </g>
   <g id="text_3">
    <g clip-path="url(#pb473e93f90)">
     <!-- 1Ω -->
     <g transform="translate(447.306891 33.245391)scale(0.125 -0.125)">
      <defs>
       <path id="DejaVuSans-Bold-31" d="M 750 831 
L 1813 831 
L 1813 3847 
L 722 3622 
L 722 4441 
L 1806 4666 
L 2950 4666 
L 2950 831 
L 4013 831 
L 4013 0 
L 750 0 
L 750 831 
z
" transform="scale(0.015625)"/>
      </defs>
      <use xlink:href="#DejaVuSans-Bold-31"/>
      <use xlink:href="#DejaVuSans-Bold-3a9" x="69.580078"/>
     </g>
    </g>
   </g>
   <g id="text_4">
    <g clip-path="url(#pb473e93f90)">
     <!-- 4Ω -->
     <g transform="translate(472.834781 95.904219)scale(0.125 -0.125)">
      <defs>
       <path id="DejaVuSans-Bold-34" d="M 2356 3675 
L 1038 1722 
L 2356 1722 
L 2356 3675 
z
M 2156 4666 
L 3494 4666 
L 3494 1722 
L 4159 1722 
L 4159 850 
L 3494 850 
L 3494 0 
L 2356 0 
L 2356 850 
L 288 850 
L 288 1881 
L 2156 4666 
z
" transform="scale(0.015625)"/>
      </defs>
      <use xlink:href="#DejaVuSans-Bold-34"/>
      <use xlink:href="#DejaVuSans-Bold-3a9" x="69.580078"/>
     </g>
    </g>
   </g>
   <g id="text_5">
    <g clip-path="url(#pb473e93f90)">
     <!-- 5A -->
     <g transform="translate(98.937906 95.904219)scale(0.125 -0.125)">
      <defs>
       <path id="DejaVuSans-Bold-35" d="M 678 4666 
L 3669 4666 
L 3669 3781 
L 1638 3781 
L 1638 3059 
Q 1775 3097 1914 3117 
Q 2053 3138 2203 3138 
Q 3056 3138 3531 2711 
Q 4006 2284 4006 1522 
Q 4006 766 3489 337 
Q 2972 -91 2053 -91 
Q 1656 -91 1267 -14 
Q 878 63 494 219 
L 494 1166 
Q 875 947 1217 837 
Q 1559 728 1863 728 
Q 2300 728 2551 942 
Q 2803 1156 2803 1522 
Q 2803 1891 2551 2103 
Q 2300 2316 1863 2316 
Q 1603 2316 1309 2248 
Q 1016 2181 678 2041 
L 678 4666 
z
" transform="scale(0.015625)"/>
       <path id="DejaVuSans-Bold-41" d="M 3419 850 
L 1538 850 
L 1241 0 
L 31 0 
L 1759 4666 
L 3194 4666 
L 4922 0 
L 3713 0 
L 3419 850 
z
M 1838 1716 
L 3116 1716 
L 2478 3572 
L 1838 1716 
z
" transform="scale(0.015625)"/>
      </defs>
      <use xlink:href="#DejaVuSans-Bold-35"/>
      <use xlink:href="#DejaVuSans-Bold-41" x="69.580078"/>
     </g>
    </g>
   </g>
   <g id="text_6">
    <g clip-path="url(#pb473e93f90)">
     <!-- 3Ω -->
     <g transform="translate(197.434781 95.904219)scale(0.125 -0.125)">
      <defs>
       <path id="DejaVuSans-Bold-33" d="M 2981 2516 
Q 3453 2394 3698 2092 
Q 3944 1791 3944 1325 
Q 3944 631 3412 270 
Q 2881 -91 1863 -91 
Q 1503 -91 1142 -33 
Q 781 25 428 141 
L 428 1069 
Q 766 900 1098 814 
Q 1431 728 1753 728 
Q 2231 728 2486 893 
Q 2741 1059 2741 1369 
Q 2741 1688 2480 1852 
Q 2219 2016 1709 2016 
L 1228 2016 
L 1228 2791 
L 1734 2791 
Q 2188 2791 2409 2933 
Q 2631 3075 2631 3366 
Q 2631 3634 2415 3781 
Q 2200 3928 1806 3928 
Q 1516 3928 1219 3862 
Q 922 3797 628 3669 
L 628 4550 
Q 984 4650 1334 4700 
Q 1684 4750 2022 4750 
Q 2931 4750 3382 4451 
Q 3834 4153 3834 3553 
Q 3834 3144 3618 2883 
Q 3403 2622 2981 2516 
z
" transform="scale(0.015625)"/>
      </defs>
      <use xlink:href="#DejaVuSans-Bold-33"/>
      <use xlink:href="#DejaVuSans-Bold-3a9" x="69.580078"/>
     </g>
    </g>
   </g>
   <g id="text_7">
    <g clip-path="url(#pb473e93f90)">
     <!-- 7Ω -->
     <g transform="translate(289.234781 95.904219)scale(0.125 -0.125)">
      <defs>
       <path id="DejaVuSans-Bold-37" d="M 428 4666 
L 3944 4666 
L 3944 3988 
L 2125 0 
L 953 0 
L 2675 3781 
L 428 3781 
L 428 4666 
z
" transform="scale(0.015625)"/>
      </defs>
      <use xlink:href="#DejaVuSans-Bold-37"/>
      <use xlink:href="#DejaVuSans-Bold-3a9" x="69.580078"/>
     </g>
    </g>
   </g>
   <g id="text_8">
    <g clip-path="url(#pb473e93f90)">
     <!-- 3A -->
     <g transform="translate(374.337906 95.904219)scale(0.125 -0.125)">
      <use xlink:href="#DejaVuSans-Bold-33"/>
      <use xlink:href="#DejaVuSans-Bold-41" x="69.580078"/>
     </g>
    </g>
   </g>
   <g id="text_9">
    <g clip-path="url(#pb473e93f90)">
     <!-- 6Ω -->
     <g transform="translate(13.834781 95.904219)scale(0.125 -0.125)">
      <use xlink:href="#DejaVuSans-Bold-36"/>
      <use xlink:href="#DejaVuSans-Bold-3a9" x="69.580078"/>
     </g>
    </g>
   </g>
   <g id="text_10">
    <g clip-path="url(#pb473e93f90)">
     <!-- $5V$ -->
     <g transform="translate(266.369 29.420391)scale(0.125 -0.125)">
      <use xlink:href="#STIXGeneral-Regular-35" transform="translate(0 0.203125)"/>
      <use xlink:href="#STIXGeneral-Italic-56" transform="translate(49.999985 0.203125)"/>
     </g>
    </g>
   </g>
   <g id="text_11">
    <g clip-path="url(#pb473e93f90)">
     <!-- 1Ω -->
     <g transform="translate(447.306891 33.245391)scale(0.125 -0.125)">
      <use xlink:href="#DejaVuSans-Bold-31"/>
      <use xlink:href="#DejaVuSans-Bold-3a9" x="69.580078"/>
     </g>
    </g>
   </g>
   <g id="text_12">
    <g clip-path="url(#pb473e93f90)">
     <!-- 4Ω -->
     <g transform="translate(472.834781 95.904219)scale(0.125 -0.125)">
      <use xlink:href="#DejaVuSans-Bold-34"/>
      <use xlink:href="#DejaVuSans-Bold-3a9" x="69.580078"/>
     </g>
    </g>
   </g>
   <g id="text_13">
    <g clip-path="url(#pb473e93f90)">
     <!-- 5A -->
     <g transform="translate(98.937906 95.904219)scale(0.125 -0.125)">
      <use xlink:href="#DejaVuSans-Bold-35"/>
      <use xlink:href="#DejaVuSans-Bold-41" x="69.580078"/>
     </g>
    </g>
   </g>
   <g id="text_14">
    <g clip-path="url(#pb473e93f90)">
     <!-- 3Ω -->
     <g transform="translate(197.434781 95.904219)scale(0.125 -0.125)">
      <use xlink:href="#DejaVuSans-Bold-33"/>
      <use xlink:href="#DejaVuSans-Bold-3a9" x="69.580078"/>
     </g>
    </g>
   </g>
   <g id="text_15">
    <g clip-path="url(#pb473e93f90)">
     <!-- 7Ω -->
     <g transform="translate(289.234781 95.904219)scale(0.125 -0.125)">
      <use xlink:href="#DejaVuSans-Bold-37"/>
      <use xlink:href="#DejaVuSans-Bold-3a9" x="69.580078"/>
     </g>
    </g>
   </g>
   <g id="text_16">
    <g clip-path="url(#pb473e93f90)">
     <!-- 3A -->
     <g transform="translate(374.337906 95.904219)scale(0.125 -0.125)">
      <use xlink:href="#DejaVuSans-Bold-33"/>
      <use xlink:href="#DejaVuSans-Bold-41" x="69.580078"/>
     </g>
    </g>
   </g>
   <g id="line2d_37">
    <path d="M 319.269 119.995 
L 319.269 119.995 
" clip-path="url(#pb473e93f90)" style="fill: none; stroke: #000000; stroke-width: 2; stroke-linecap: round"/>
   </g>
   <g id="patch_10">
    <path d="M 323.859 119.995 
L 319.269 129.175 
L 314.679 119.995 
z
" clip-path="url(#pb473e93f90)"/>
   </g>
   <g id="text_17">
    <g clip-path="url(#pb473e93f90)">
     <!-- $I_{O}$ -->
     <g transform="translate(328.449 128.034219)scale(0.125 -0.125)">
      <defs>
       <path id="STIXGeneral-Italic-49" d="M 2458 4179 
L 2458 4077 
Q 2189 4045 2102 3961 
Q 2016 3878 1933 3584 
L 1165 838 
Q 1069 499 1069 352 
Q 1069 224 1149 179 
Q 1229 134 1510 102 
L 1510 0 
L -51 0 
L -51 102 
Q 218 154 317 237 
Q 416 320 486 582 
L 1254 3405 
Q 1338 3699 1338 3802 
Q 1338 3930 1235 3997 
Q 1133 4064 877 4077 
L 877 4179 
L 2458 4179 
z
" transform="scale(0.015625)"/>
       <path id="STIXGeneral-Italic-4f" d="M 4474 2675 
Q 4474 1990 4106 1363 
Q 3738 736 3149 339 
Q 2477 -115 1779 -115 
Q 1146 -115 765 281 
Q 384 678 384 1382 
Q 384 1965 697 2582 
Q 1011 3200 1517 3642 
Q 2234 4262 3034 4262 
Q 3718 4269 4096 3840 
Q 4474 3411 4474 2675 
z
M 3802 3078 
Q 3802 3533 3581 3792 
Q 3360 4051 2976 4051 
Q 2342 4051 1786 3302 
Q 1446 2842 1251 2259 
Q 1056 1677 1056 1178 
Q 1056 653 1270 374 
Q 1485 96 1888 96 
Q 2477 96 2976 704 
Q 3354 1178 3578 1862 
Q 3802 2547 3802 3078 
z
" transform="scale(0.015625)"/>
      </defs>
      <use xlink:href="#STIXGeneral-Italic-49" transform="translate(0 0.703125)"/>
      <use xlink:href="#STIXGeneral-Italic-4f" transform="translate(33.299988 -12.525)scale(0.7)"/>
     </g>
    </g>
   </g>
   <g id="line2d_38">
    <path d="M 319.269 119.995 
L 319.269 119.995 
" clip-path="url(#pb473e93f90)" style="fill: none; stroke: #000000; stroke-width: 2; stroke-linecap: round"/>
   </g>
   <g id="patch_11">
    <path d="M 323.859 119.995 
L 319.269 129.175 
L 314.679 119.995 
z
" clip-path="url(#pb473e93f90)"/>
   </g>
   <g id="text_18">
    <g clip-path="url(#pb473e93f90)">
     <!-- $I_{O}$ -->
     <g transform="translate(328.449 128.034219)scale(0.125 -0.125)">
      <use xlink:href="#STIXGeneral-Italic-49" transform="translate(0 0.703125)"/>
      <use xlink:href="#STIXGeneral-Italic-4f" transform="translate(33.299988 -12.525)scale(0.7)"/>
     </g>
    </g>
   </g>
  </g>
 </g>
 <defs>
  <clipPath id="pb473e93f90">
   <rect x="7.2" y="7.2" width="506.379" height="134.215"/>
  </clipPath>
 </defs>
</svg>
