<?xml version="1.0" encoding="utf-8" standalone="no"?>
<!DOCTYPE svg PUBLIC "-//W3C//DTD SVG 1.1//EN"
  "http://www.w3.org/Graphics/SVG/1.1/DTD/svg11.dtd">
<svg xmlns:xlink="http://www.w3.org/1999/xlink" width="384.0378pt" height="144.79pt" viewBox="0 0 384.0378 144.79" xmlns="http://www.w3.org/2000/svg" version="1.1">
 <metadata>
  <rdf:RDF xmlns:dc="http://purl.org/dc/elements/1.1/" xmlns:cc="http://creativecommons.org/ns#" xmlns:rdf="http://www.w3.org/1999/02/22-rdf-syntax-ns#">
   <cc:Work>
    <dc:type rdf:resource="http://purl.org/dc/dcmitype/StillImage"/>
    <dc:date>2023-06-05T11:03:59.999474</dc:date>
    <dc:format>image/svg+xml</dc:format>
    <dc:creator>
     <cc:Agent>
      <dc:title>Matplotlib v3.5.2, https://matplotlib.org/</dc:title>
     </cc:Agent>
    </dc:creator>
   </cc:Work>
  </rdf:RDF>
 </metadata>
 <defs>
  <style type="text/css">*{stroke-linejoin: round; stroke-linecap: butt}</style>
 </defs>
 <g id="figure_1">
  <g id="patch_1">
   <path d="M 0 144.79 
L 384.0378 144.79 
L 384.0378 0 
L 0 0 
L 0 144.79 
z
" style="fill: none"/>
  </g>
  <g id="axes_1">
   <g id="patch_2">
    <path d="M 358.4778 103.93 
C 362.535407 103.93 366.427372 102.317895 369.296534 99.448734 
C 372.165695 96.579572 373.7778 92.687607 373.7778 88.63 
C 373.7778 84.572393 372.165695 80.680428 369.296534 77.811266 
C 366.427372 74.942105 362.535407 73.33 358.4778 73.33 
C 354.420193 73.33 350.528228 74.942105 347.659066 77.811266 
C 344.789905 80.680428 343.1778 84.572393 343.1778 88.63 
C 343.1778 92.687607 344.789905 96.579572 347.659066 99.448734 
C 350.528228 102.317895 354.420193 103.93 358.4778 103.93 
L 358.4778 103.93 
z
" clip-path="url(#p1cb1e563cd)" style="fill: none; stroke: #000000; stroke-width: 2; stroke-linejoin: miter"/>
   </g>
   <g id="patch_3">
    <path d="M 358.4778 103.93 
C 362.535407 103.93 366.427372 102.317895 369.296534 99.448734 
C 372.165695 96.579572 373.7778 92.687607 373.7778 88.63 
C 373.7778 84.572393 372.165695 80.680428 369.296534 77.811266 
C 366.427372 74.942105 362.535407 73.33 358.4778 73.33 
C 354.420193 73.33 350.528228 74.942105 347.659066 77.811266 
C 344.789905 80.680428 343.1778 84.572393 343.1778 88.63 
C 343.1778 92.687607 344.789905 96.579572 347.659066 99.448734 
C 350.528228 102.317895 354.420193 103.93 358.4778 103.93 
L 358.4778 103.93 
z
" clip-path="url(#p1cb1e563cd)" style="fill: none; stroke: #000000; stroke-width: 2; stroke-linejoin: miter"/>
   </g>
   <g id="line2d_1">
    <path d="M 52.4778 134.53 
L 52.4778 97.23625 
M 52.4778 80.02375 
L 52.4778 42.73 
" clip-path="url(#p1cb1e563cd)" style="fill: none; stroke: #000000; stroke-width: 2; stroke-linecap: round"/>
   </g>
   <g id="line2d_2">
    <path d="M 41.0028 97.23625 
L 63.9528 97.23625 
" clip-path="url(#p1cb1e563cd)" style="fill: none; stroke: #000000; stroke-width: 2; stroke-linecap: round"/>
   </g>
   <g id="line2d_3">
    <path d="M 46.7403 91.49875 
L 58.2153 91.49875 
" clip-path="url(#p1cb1e563cd)" style="fill: none; stroke: #000000; stroke-width: 2; stroke-linecap: round"/>
   </g>
   <g id="line2d_4">
    <path d="M 41.0028 85.76125 
L 63.9528 85.76125 
" clip-path="url(#p1cb1e563cd)" style="fill: none; stroke: #000000; stroke-width: 2; stroke-linecap: round"/>
   </g>
   <g id="line2d_5">
    <path d="M 46.7403 80.02375 
L 58.2153 80.02375 
" clip-path="url(#p1cb1e563cd)" style="fill: none; stroke: #000000; stroke-width: 2; stroke-linecap: round"/>
   </g>
   <g id="line2d_6">
    <path d="M 52.4778 42.73 
L 67.7778 42.73 
L 70.3278 35.08 
L 75.4278 50.38 
L 80.5278 35.08 
L 85.6278 50.38 
L 90.7278 35.08 
L 95.8278 50.38 
L 98.3778 42.73 
L 113.6778 42.73 
" clip-path="url(#p1cb1e563cd)" style="fill: none; stroke: #000000; stroke-width: 2; stroke-linecap: round"/>
   </g>
   <g id="line2d_7">
    <path d="M 113.6778 42.73 
L 128.9778 42.73 
L 131.5278 35.08 
L 136.6278 50.38 
L 141.7278 35.08 
L 146.8278 50.38 
L 151.9278 35.08 
L 157.0278 50.38 
L 159.5778 42.73 
L 174.8778 42.73 
" clip-path="url(#p1cb1e563cd)" style="fill: none; stroke: #000000; stroke-width: 2; stroke-linecap: round"/>
   </g>
   <g id="line2d_8">
    <path d="M 174.8778 42.73 
L 220.7778 42.73 
L 266.6778 42.73 
" clip-path="url(#p1cb1e563cd)" style="fill: none; stroke: #000000; stroke-width: 2; stroke-linecap: round"/>
   </g>
   <g id="line2d_9">
    <path d="M 266.6778 42.73 
L 312.5778 42.73 
L 358.4778 42.73 
" clip-path="url(#p1cb1e563cd)" style="fill: none; stroke: #000000; stroke-width: 2; stroke-linecap: round"/>
   </g>
   <g id="line2d_10">
    <path d="M 358.4778 42.73 
L 358.4778 73.33 
L 358.4778 73.33 
M 358.4778 103.93 
L 358.4778 103.93 
L 358.4778 134.53 
" clip-path="url(#p1cb1e563cd)" style="fill: none; stroke: #000000; stroke-width: 2; stroke-linecap: round"/>
   </g>
   <g id="line2d_11">
    <path d="M 358.4778 88.63 
L 358.4778 96.28 
" clip-path="url(#p1cb1e563cd)" style="fill: none; stroke: #000000; stroke-width: 2; stroke-linecap: round"/>
   </g>
   <g id="patch_4">
    <path d="M 356.1828 88.63 
L 358.4778 80.98 
L 360.7728 88.63 
z
" clip-path="url(#p1cb1e563cd)"/>
   </g>
   <g id="line2d_12">
    <path d="M 358.4778 134.53 
L 205.4778 134.53 
L 52.4778 134.53 
" clip-path="url(#p1cb1e563cd)" style="fill: none; stroke: #000000; stroke-width: 2; stroke-linecap: round"/>
   </g>
   <g id="line2d_13">
    <path d="M 174.8778 42.73 
L 174.8778 73.33 
L 182.5278 75.88 
L 167.2278 80.98 
L 182.5278 86.08 
L 167.2278 91.18 
L 182.5278 96.28 
L 167.2278 101.38 
L 174.8778 103.93 
L 174.8778 134.53 
" clip-path="url(#p1cb1e563cd)" style="fill: none; stroke: #000000; stroke-width: 2; stroke-linecap: round"/>
   </g>
   <g id="line2d_14">
    <path d="M 266.6778 42.73 
L 266.6778 73.33 
L 274.3278 75.88 
L 259.0278 80.98 
L 274.3278 86.08 
L 259.0278 91.18 
L 274.3278 96.28 
L 259.0278 101.38 
L 266.6778 103.93 
L 266.6778 134.53 
" clip-path="url(#p1cb1e563cd)" style="fill: none; stroke: #000000; stroke-width: 2; stroke-linecap: round"/>
   </g>
   <g id="line2d_15">
    <path d="M 52.4778 134.53 
L 52.4778 97.23625 
M 52.4778 80.02375 
L 52.4778 42.73 
" clip-path="url(#p1cb1e563cd)" style="fill: none; stroke: #000000; stroke-width: 2; stroke-linecap: round"/>
   </g>
   <g id="line2d_16">
    <path d="M 41.0028 97.23625 
L 63.9528 97.23625 
" clip-path="url(#p1cb1e563cd)" style="fill: none; stroke: #000000; stroke-width: 2; stroke-linecap: round"/>
   </g>
   <g id="line2d_17">
    <path d="M 46.7403 91.49875 
L 58.2153 91.49875 
" clip-path="url(#p1cb1e563cd)" style="fill: none; stroke: #000000; stroke-width: 2; stroke-linecap: round"/>
   </g>
   <g id="line2d_18">
    <path d="M 41.0028 85.76125 
L 63.9528 85.76125 
" clip-path="url(#p1cb1e563cd)" style="fill: none; stroke: #000000; stroke-width: 2; stroke-linecap: round"/>
   </g>
   <g id="line2d_19">
    <path d="M 46.7403 80.02375 
L 58.2153 80.02375 
" clip-path="url(#p1cb1e563cd)" style="fill: none; stroke: #000000; stroke-width: 2; stroke-linecap: round"/>
   </g>
   <g id="line2d_20">
    <path d="M 52.4778 42.73 
L 67.7778 42.73 
L 70.3278 35.08 
L 75.4278 50.38 
L 80.5278 35.08 
L 85.6278 50.38 
L 90.7278 35.08 
L 95.8278 50.38 
L 98.3778 42.73 
L 113.6778 42.73 
" clip-path="url(#p1cb1e563cd)" style="fill: none; stroke: #000000; stroke-width: 2; stroke-linecap: round"/>
   </g>
   <g id="line2d_21">
    <path d="M 113.6778 42.73 
L 128.9778 42.73 
L 131.5278 35.08 
L 136.6278 50.38 
L 141.7278 35.08 
L 146.8278 50.38 
L 151.9278 35.08 
L 157.0278 50.38 
L 159.5778 42.73 
L 174.8778 42.73 
" clip-path="url(#p1cb1e563cd)" style="fill: none; stroke: #000000; stroke-width: 2; stroke-linecap: round"/>
   </g>
   <g id="line2d_22">
    <path d="M 174.8778 42.73 
L 220.7778 42.73 
L 266.6778 42.73 
" clip-path="url(#p1cb1e563cd)" style="fill: none; stroke: #000000; stroke-width: 2; stroke-linecap: round"/>
   </g>
   <g id="line2d_23">
    <path d="M 266.6778 42.73 
L 312.5778 42.73 
L 358.4778 42.73 
" clip-path="url(#p1cb1e563cd)" style="fill: none; stroke: #000000; stroke-width: 2; stroke-linecap: round"/>
   </g>
   <g id="line2d_24">
    <path d="M 358.4778 42.73 
L 358.4778 73.33 
L 358.4778 73.33 
M 358.4778 103.93 
L 358.4778 103.93 
L 358.4778 134.53 
" clip-path="url(#p1cb1e563cd)" style="fill: none; stroke: #000000; stroke-width: 2; stroke-linecap: round"/>
   </g>
   <g id="line2d_25">
    <path d="M 358.4778 88.63 
L 358.4778 96.28 
" clip-path="url(#p1cb1e563cd)" style="fill: none; stroke: #000000; stroke-width: 2; stroke-linecap: round"/>
   </g>
   <g id="patch_5">
    <path d="M 356.1828 88.63 
L 358.4778 80.98 
L 360.7728 88.63 
z
" clip-path="url(#p1cb1e563cd)"/>
   </g>
   <g id="line2d_26">
    <path d="M 358.4778 134.53 
L 205.4778 134.53 
L 52.4778 134.53 
" clip-path="url(#p1cb1e563cd)" style="fill: none; stroke: #000000; stroke-width: 2; stroke-linecap: round"/>
   </g>
   <g id="line2d_27">
    <path d="M 174.8778 42.73 
L 174.8778 73.33 
L 182.5278 75.88 
L 167.2278 80.98 
L 182.5278 86.08 
L 167.2278 91.18 
L 182.5278 96.28 
L 167.2278 101.38 
L 174.8778 103.93 
L 174.8778 134.53 
" clip-path="url(#p1cb1e563cd)" style="fill: none; stroke: #000000; stroke-width: 2; stroke-linecap: round"/>
   </g>
   <g id="line2d_28">
    <path d="M 266.6778 42.73 
L 266.6778 73.33 
L 274.3278 75.88 
L 259.0278 80.98 
L 274.3278 86.08 
L 259.0278 91.18 
L 274.3278 96.28 
L 259.0278 101.38 
L 266.6778 103.93 
L 266.6778 134.53 
" clip-path="url(#p1cb1e563cd)" style="fill: none; stroke: #000000; stroke-width: 2; stroke-linecap: round"/>
   </g>
   <g id="text_1">
    <g clip-path="url(#p1cb1e563cd)">
     <!-- 12V -->
     <g transform="translate(10.874441 92.079219)scale(0.125 -0.125)">
      <defs>
       <path id="DejaVuSans-Bold-31" d="M 750 831 
L 1813 831 
L 1813 3847 
L 722 3622 
L 722 4441 
L 1806 4666 
L 2950 4666 
L 2950 831 
L 4013 831 
L 4013 0 
L 750 0 
L 750 831 
z
" transform="scale(0.015625)"/>
       <path id="DejaVuSans-Bold-32" d="M 1844 884 
L 3897 884 
L 3897 0 
L 506 0 
L 506 884 
L 2209 2388 
Q 2438 2594 2547 2791 
Q 2656 2988 2656 3200 
Q 2656 3528 2436 3728 
Q 2216 3928 1850 3928 
Q 1569 3928 1234 3808 
Q 900 3688 519 3450 
L 519 4475 
Q 925 4609 1322 4679 
Q 1719 4750 2100 4750 
Q 2938 4750 3402 4381 
Q 3866 4013 3866 3353 
Q 3866 2972 3669 2642 
Q 3472 2313 2841 1759 
L 1844 884 
z
" transform="scale(0.015625)"/>
       <path id="DejaVuSans-Bold-56" d="M 31 4666 
L 1241 4666 
L 2478 1222 
L 3713 4666 
L 4922 4666 
L 3194 0 
L 1759 0 
L 31 4666 
z
" transform="scale(0.015625)"/>
      </defs>
      <use xlink:href="#DejaVuSans-Bold-31"/>
      <use xlink:href="#DejaVuSans-Bold-32" x="69.580078"/>
      <use xlink:href="#DejaVuSans-Bold-56" x="139.160156"/>
     </g>
    </g>
   </g>
   <g id="text_2">
    <g clip-path="url(#p1cb1e563cd)">
     <!-- 4Ω -->
     <g transform="translate(73.415691 29.420391)scale(0.125 -0.125)">
      <defs>
       <path id="DejaVuSans-Bold-34" d="M 2356 3675 
L 1038 1722 
L 2356 1722 
L 2356 3675 
z
M 2156 4666 
L 3494 4666 
L 3494 1722 
L 4159 1722 
L 4159 850 
L 3494 850 
L 3494 0 
L 2356 0 
L 2356 850 
L 288 850 
L 288 1881 
L 2156 4666 
z
" transform="scale(0.015625)"/>
       <path id="DejaVuSans-Bold-3a9" d="M 2719 4750 
Q 3841 4750 4480 4106 
Q 5119 3463 5119 2494 
Q 5119 1406 4306 909 
L 5266 909 
L 5266 0 
L 3125 0 
L 3125 975 
Q 3244 1041 3334 1131 
Q 3875 1678 3875 2466 
Q 3875 3066 3572 3472 
Q 3269 3878 2719 3878 
Q 2169 3878 1866 3472 
Q 1563 3066 1563 2466 
Q 1563 1678 2103 1131 
Q 2194 1041 2313 975 
L 2313 0 
L 172 0 
L 172 909 
L 1131 909 
Q 319 1406 319 2494 
Q 319 3463 958 4106 
Q 1597 4750 2719 4750 
z
" transform="scale(0.015625)"/>
      </defs>
      <use xlink:href="#DejaVuSans-Bold-34"/>
      <use xlink:href="#DejaVuSans-Bold-3a9" x="69.580078"/>
     </g>
    </g>
   </g>
   <g id="text_3">
    <g clip-path="url(#p1cb1e563cd)">
     <!-- 2Ω -->
     <g transform="translate(134.615691 29.420391)scale(0.125 -0.125)">
      <use xlink:href="#DejaVuSans-Bold-32"/>
      <use xlink:href="#DejaVuSans-Bold-3a9" x="69.580078"/>
     </g>
    </g>
   </g>
   <g id="text_4">
    <g clip-path="url(#p1cb1e563cd)">
     <!-- 4A -->
     <g transform="translate(321.746706 92.079219)scale(0.125 -0.125)">
      <defs>
       <path id="DejaVuSans-Bold-41" d="M 3419 850 
L 1538 850 
L 1241 0 
L 31 0 
L 1759 4666 
L 3194 4666 
L 4922 0 
L 3713 0 
L 3419 850 
z
M 1838 1716 
L 3116 1716 
L 2478 3572 
L 1838 1716 
z
" transform="scale(0.015625)"/>
      </defs>
      <use xlink:href="#DejaVuSans-Bold-34"/>
      <use xlink:href="#DejaVuSans-Bold-41" x="69.580078"/>
     </g>
    </g>
   </g>
   <g id="text_5">
    <g clip-path="url(#p1cb1e563cd)">
     <!-- 8Ω -->
     <g transform="translate(144.843581 92.079219)scale(0.125 -0.125)">
      <defs>
       <path id="DejaVuSans-Bold-38" d="M 2228 2088 
Q 1891 2088 1709 1903 
Q 1528 1719 1528 1375 
Q 1528 1031 1709 848 
Q 1891 666 2228 666 
Q 2563 666 2741 848 
Q 2919 1031 2919 1375 
Q 2919 1722 2741 1905 
Q 2563 2088 2228 2088 
z
M 1350 2484 
Q 925 2613 709 2878 
Q 494 3144 494 3541 
Q 494 4131 934 4440 
Q 1375 4750 2228 4750 
Q 3075 4750 3515 4442 
Q 3956 4134 3956 3541 
Q 3956 3144 3739 2878 
Q 3522 2613 3097 2484 
Q 3572 2353 3814 2058 
Q 4056 1763 4056 1313 
Q 4056 619 3595 264 
Q 3134 -91 2228 -91 
Q 1319 -91 855 264 
Q 391 619 391 1313 
Q 391 1763 633 2058 
Q 875 2353 1350 2484 
z
M 1631 3419 
Q 1631 3141 1786 2991 
Q 1941 2841 2228 2841 
Q 2509 2841 2662 2991 
Q 2816 3141 2816 3419 
Q 2816 3697 2662 3845 
Q 2509 3994 2228 3994 
Q 1941 3994 1786 3844 
Q 1631 3694 1631 3419 
z
" transform="scale(0.015625)"/>
      </defs>
      <use xlink:href="#DejaVuSans-Bold-38"/>
      <use xlink:href="#DejaVuSans-Bold-3a9" x="69.580078"/>
     </g>
    </g>
   </g>
   <g id="text_6">
    <g clip-path="url(#p1cb1e563cd)">
     <!-- + -->
     <g transform="translate(185.5878 69.129219)scale(0.125 -0.125)">
      <defs>
       <path id="DejaVuSans-Bold-2b" d="M 3053 4013 
L 3053 2375 
L 4684 2375 
L 4684 1638 
L 3053 1638 
L 3053 0 
L 2309 0 
L 2309 1638 
L 678 1638 
L 678 2375 
L 2309 2375 
L 2309 4013 
L 3053 4013 
z
" transform="scale(0.015625)"/>
      </defs>
      <use xlink:href="#DejaVuSans-Bold-2b"/>
     </g>
    </g>
   </g>
   <g id="text_7">
    <g clip-path="url(#p1cb1e563cd)">
     <!-- $V_{O}$ -->
     <g transform="translate(185.5878 92.079219)scale(0.125 -0.125)">
      <defs>
       <path id="STIXGeneral-Italic-56" d="M 4403 4179 
L 4403 4077 
Q 4198 4070 4045 3821 
L 1658 -115 
L 1536 -115 
L 1011 3104 
Q 902 3776 828 3910 
Q 755 4045 486 4077 
L 486 4179 
L 2022 4179 
L 2022 4077 
Q 1722 4045 1629 3981 
Q 1536 3917 1536 3750 
Q 1536 3686 1542 3654 
L 1958 819 
L 3302 3123 
Q 3616 3661 3616 3859 
Q 3616 4032 3219 4077 
L 3219 4179 
L 4403 4179 
z
" transform="scale(0.015625)"/>
       <path id="STIXGeneral-Italic-4f" d="M 4474 2675 
Q 4474 1990 4106 1363 
Q 3738 736 3149 339 
Q 2477 -115 1779 -115 
Q 1146 -115 765 281 
Q 384 678 384 1382 
Q 384 1965 697 2582 
Q 1011 3200 1517 3642 
Q 2234 4262 3034 4262 
Q 3718 4269 4096 3840 
Q 4474 3411 4474 2675 
z
M 3802 3078 
Q 3802 3533 3581 3792 
Q 3360 4051 2976 4051 
Q 2342 4051 1786 3302 
Q 1446 2842 1251 2259 
Q 1056 1677 1056 1178 
Q 1056 653 1270 374 
Q 1485 96 1888 96 
Q 2477 96 2976 704 
Q 3354 1178 3578 1862 
Q 3802 2547 3802 3078 
z
" transform="scale(0.015625)"/>
      </defs>
      <use xlink:href="#STIXGeneral-Italic-56" transform="translate(0 0.703125)"/>
      <use xlink:href="#STIXGeneral-Italic-4f" transform="translate(61.099991 -12.525)scale(0.7)"/>
     </g>
    </g>
   </g>
   <g id="text_8">
    <g clip-path="url(#p1cb1e563cd)">
     <!-- - -->
     <g transform="translate(185.5878 115.029219)scale(0.125 -0.125)">
      <defs>
       <path id="DejaVuSans-Bold-2d" d="M 347 2297 
L 2309 2297 
L 2309 1388 
L 347 1388 
L 347 2297 
z
" transform="scale(0.015625)"/>
      </defs>
      <use xlink:href="#DejaVuSans-Bold-2d"/>
     </g>
    </g>
   </g>
   <g id="text_9">
    <g clip-path="url(#p1cb1e563cd)">
     <!-- 3Ω -->
     <g transform="translate(236.643581 92.079219)scale(0.125 -0.125)">
      <defs>
       <path id="DejaVuSans-Bold-33" d="M 2981 2516 
Q 3453 2394 3698 2092 
Q 3944 1791 3944 1325 
Q 3944 631 3412 270 
Q 2881 -91 1863 -91 
Q 1503 -91 1142 -33 
Q 781 25 428 141 
L 428 1069 
Q 766 900 1098 814 
Q 1431 728 1753 728 
Q 2231 728 2486 893 
Q 2741 1059 2741 1369 
Q 2741 1688 2480 1852 
Q 2219 2016 1709 2016 
L 1228 2016 
L 1228 2791 
L 1734 2791 
Q 2188 2791 2409 2933 
Q 2631 3075 2631 3366 
Q 2631 3634 2415 3781 
Q 2200 3928 1806 3928 
Q 1516 3928 1219 3862 
Q 922 3797 628 3669 
L 628 4550 
Q 984 4650 1334 4700 
Q 1684 4750 2022 4750 
Q 2931 4750 3382 4451 
Q 3834 4153 3834 3553 
Q 3834 3144 3618 2883 
Q 3403 2622 2981 2516 
z
" transform="scale(0.015625)"/>
      </defs>
      <use xlink:href="#DejaVuSans-Bold-33"/>
      <use xlink:href="#DejaVuSans-Bold-3a9" x="69.580078"/>
     </g>
    </g>
   </g>
   <g id="text_10">
    <g clip-path="url(#p1cb1e563cd)">
     <!-- 12V -->
     <g transform="translate(10.874441 92.079219)scale(0.125 -0.125)">
      <use xlink:href="#DejaVuSans-Bold-31"/>
      <use xlink:href="#DejaVuSans-Bold-32" x="69.580078"/>
      <use xlink:href="#DejaVuSans-Bold-56" x="139.160156"/>
     </g>
    </g>
   </g>
   <g id="text_11">
    <g clip-path="url(#p1cb1e563cd)">
     <!-- 4Ω -->
     <g transform="translate(73.415691 29.420391)scale(0.125 -0.125)">
      <use xlink:href="#DejaVuSans-Bold-34"/>
      <use xlink:href="#DejaVuSans-Bold-3a9" x="69.580078"/>
     </g>
    </g>
   </g>
   <g id="text_12">
    <g clip-path="url(#p1cb1e563cd)">
     <!-- 2Ω -->
     <g transform="translate(134.615691 29.420391)scale(0.125 -0.125)">
      <use xlink:href="#DejaVuSans-Bold-32"/>
      <use xlink:href="#DejaVuSans-Bold-3a9" x="69.580078"/>
     </g>
    </g>
   </g>
   <g id="text_13">
    <g clip-path="url(#p1cb1e563cd)">
     <!-- 4A -->
     <g transform="translate(321.746706 92.079219)scale(0.125 -0.125)">
      <use xlink:href="#DejaVuSans-Bold-34"/>
      <use xlink:href="#DejaVuSans-Bold-41" x="69.580078"/>
     </g>
    </g>
   </g>
   <g id="text_14">
    <g clip-path="url(#p1cb1e563cd)">
     <!-- 8Ω -->
     <g transform="translate(144.843581 92.079219)scale(0.125 -0.125)">
      <use xlink:href="#DejaVuSans-Bold-38"/>
      <use xlink:href="#DejaVuSans-Bold-3a9" x="69.580078"/>
     </g>
    </g>
   </g>
   <g id="text_15">
    <g clip-path="url(#p1cb1e563cd)">
     <!-- + -->
     <g transform="translate(185.5878 69.129219)scale(0.125 -0.125)">
      <use xlink:href="#DejaVuSans-Bold-2b"/>
     </g>
    </g>
   </g>
   <g id="text_16">
    <g clip-path="url(#p1cb1e563cd)">
     <!-- $V_{O}$ -->
     <g transform="translate(185.5878 92.079219)scale(0.125 -0.125)">
      <use xlink:href="#STIXGeneral-Italic-56" transform="translate(0 0.703125)"/>
      <use xlink:href="#STIXGeneral-Italic-4f" transform="translate(61.099991 -12.525)scale(0.7)"/>
     </g>
    </g>
   </g>
   <g id="text_17">
    <g clip-path="url(#p1cb1e563cd)">
     <!-- - -->
     <g transform="translate(185.5878 115.029219)scale(0.125 -0.125)">
      <use xlink:href="#DejaVuSans-Bold-2d"/>
     </g>
    </g>
   </g>
   <g id="text_18">
    <g clip-path="url(#p1cb1e563cd)">
     <!-- 3Ω -->
     <g transform="translate(236.643581 92.079219)scale(0.125 -0.125)">
      <use xlink:href="#DejaVuSans-Bold-33"/>
      <use xlink:href="#DejaVuSans-Bold-3a9" x="69.580078"/>
     </g>
    </g>
   </g>
  </g>
 </g>
 <defs>
  <clipPath id="p1cb1e563cd">
   <rect x="7.2" y="7.2" width="369.6378" height="130.39"/>
  </clipPath>
 </defs>
</svg>
