<?xml version="1.0" encoding="utf-8" standalone="no"?>
<!DOCTYPE svg PUBLIC "-//W3C//DTD SVG 1.1//EN"
  "http://www.w3.org/Graphics/SVG/1.1/DTD/svg11.dtd">
<svg xmlns:xlink="http://www.w3.org/1999/xlink" width="429.0606pt" height="144.79pt" viewBox="0 0 429.0606 144.79" xmlns="http://www.w3.org/2000/svg" version="1.1">
 <metadata>
  <rdf:RDF xmlns:dc="http://purl.org/dc/elements/1.1/" xmlns:cc="http://creativecommons.org/ns#" xmlns:rdf="http://www.w3.org/1999/02/22-rdf-syntax-ns#">
   <cc:Work>
    <dc:type rdf:resource="http://purl.org/dc/dcmitype/StillImage"/>
    <dc:date>2023-06-28T14:16:18.100332</dc:date>
    <dc:format>image/svg+xml</dc:format>
    <dc:creator>
     <cc:Agent>
      <dc:title>Matplotlib v3.5.2, https://matplotlib.org/</dc:title>
     </cc:Agent>
    </dc:creator>
   </cc:Work>
  </rdf:RDF>
 </metadata>
 <defs>
  <style type="text/css">*{stroke-linejoin: round; stroke-linecap: butt}</style>
 </defs>
 <g id="figure_1">
  <g id="patch_1">
   <path d="M 0 144.79 
L 429.0606 144.79 
L 429.0606 0 
L 0 0 
L 0 144.79 
z
" style="fill: none"/>
  </g>
  <g id="axes_1">
   <g id="patch_2">
    <path d="M 59.8728 103.93 
C 63.930407 103.93 67.822372 102.317895 70.691534 99.448734 
C 73.560695 96.579572 75.1728 92.687607 75.1728 88.63 
C 75.1728 84.572393 73.560695 80.680428 70.691534 77.811266 
C 67.822372 74.942105 63.930407 73.33 59.8728 73.33 
C 55.815193 73.33 51.923228 74.942105 49.054066 77.811266 
C 46.184905 80.680428 44.5728 84.572393 44.5728 88.63 
C 44.5728 92.687607 46.184905 96.579572 49.054066 99.448734 
C 51.923228 102.317895 55.815193 103.93 59.8728 103.93 
L 59.8728 103.93 
z
" clip-path="url(#p5ee677bc52)" style="fill: none; stroke: #000000; stroke-width: 2; stroke-linejoin: miter"/>
   </g>
   <g id="patch_3">
    <path d="M 289.3728 103.93 
C 293.430407 103.93 297.322372 102.317895 300.191534 99.448734 
C 303.060695 96.579572 304.6728 92.687607 304.6728 88.63 
C 304.6728 84.572393 303.060695 80.680428 300.191534 77.811266 
C 297.322372 74.942105 293.430407 73.33 289.3728 73.33 
C 285.315193 73.33 281.423228 74.942105 278.554066 77.811266 
C 275.684905 80.680428 274.0728 84.572393 274.0728 88.63 
C 274.0728 92.687607 275.684905 96.579572 278.554066 99.448734 
C 281.423228 102.317895 285.315193 103.93 289.3728 103.93 
L 289.3728 103.93 
z
" clip-path="url(#p5ee677bc52)" style="fill: none; stroke: #000000; stroke-width: 2; stroke-linejoin: miter"/>
   </g>
   <g id="patch_4">
    <path d="M 59.8728 103.93 
C 63.930407 103.93 67.822372 102.317895 70.691534 99.448734 
C 73.560695 96.579572 75.1728 92.687607 75.1728 88.63 
C 75.1728 84.572393 73.560695 80.680428 70.691534 77.811266 
C 67.822372 74.942105 63.930407 73.33 59.8728 73.33 
C 55.815193 73.33 51.923228 74.942105 49.054066 77.811266 
C 46.184905 80.680428 44.5728 84.572393 44.5728 88.63 
C 44.5728 92.687607 46.184905 96.579572 49.054066 99.448734 
C 51.923228 102.317895 55.815193 103.93 59.8728 103.93 
L 59.8728 103.93 
z
" clip-path="url(#p5ee677bc52)" style="fill: none; stroke: #000000; stroke-width: 2; stroke-linejoin: miter"/>
   </g>
   <g id="patch_5">
    <path d="M 289.3728 103.93 
C 293.430407 103.93 297.322372 102.317895 300.191534 99.448734 
C 303.060695 96.579572 304.6728 92.687607 304.6728 88.63 
C 304.6728 84.572393 303.060695 80.680428 300.191534 77.811266 
C 297.322372 74.942105 293.430407 73.33 289.3728 73.33 
C 285.315193 73.33 281.423228 74.942105 278.554066 77.811266 
C 275.684905 80.680428 274.0728 84.572393 274.0728 88.63 
C 274.0728 92.687607 275.684905 96.579572 278.554066 99.448734 
C 281.423228 102.317895 285.315193 103.93 289.3728 103.93 
L 289.3728 103.93 
z
" clip-path="url(#p5ee677bc52)" style="fill: none; stroke: #000000; stroke-width: 2; stroke-linejoin: miter"/>
   </g>
   <g id="line2d_1">
    <path d="M 59.8728 134.53 
L 59.8728 103.93 
L 59.8728 103.93 
M 59.8728 73.33 
L 59.8728 73.33 
L 59.8728 42.73 
" clip-path="url(#p5ee677bc52)" style="fill: none; stroke: #000000; stroke-width: 2; stroke-linecap: round"/>
   </g>
   <g id="line2d_2">
    <path d="M 62.9328 96.28 
L 56.8128 96.28 
" clip-path="url(#p5ee677bc52)" style="fill: none; stroke: #000000; stroke-width: 2; stroke-linecap: round"/>
   </g>
   <g id="line2d_3">
    <path d="M 59.8728 84.04 
L 59.8728 77.92 
" clip-path="url(#p5ee677bc52)" style="fill: none; stroke: #000000; stroke-width: 2; stroke-linecap: round"/>
   </g>
   <g id="line2d_4">
    <path d="M 62.9328 80.98 
L 56.8128 80.98 
" clip-path="url(#p5ee677bc52)" style="fill: none; stroke: #000000; stroke-width: 2; stroke-linecap: round"/>
   </g>
   <g id="line2d_5">
    <path d="M 59.8728 42.73 
L 90.4728 42.73 
L 93.0228 35.08 
L 98.1228 50.38 
L 103.2228 35.08 
L 108.3228 50.38 
L 113.4228 35.08 
L 118.5228 50.38 
L 121.0728 42.73 
L 151.6728 42.73 
" clip-path="url(#p5ee677bc52)" style="fill: none; stroke: #ffa500; stroke-width: 2; stroke-linecap: round"/>
   </g>
   <g id="line2d_6">
    <path d="M 151.6728 42.73 
L 151.6728 73.33 
L 159.3228 75.88 
L 144.0228 80.98 
L 159.3228 86.08 
L 144.0228 91.18 
L 159.3228 96.28 
L 144.0228 101.38 
L 151.6728 103.93 
L 151.6728 134.53 
" clip-path="url(#p5ee677bc52)" style="fill: none; stroke: #ffa500; stroke-width: 2; stroke-linecap: round"/>
   </g>
   <g id="line2d_7">
    <path d="M 151.6728 134.53 
L 105.7728 134.53 
L 59.8728 134.53 
" clip-path="url(#p5ee677bc52)" style="fill: none; stroke: #000000; stroke-width: 2; stroke-linecap: round"/>
   </g>
   <g id="line2d_8">
    <path d="M 182.2728 88.63 
L 197.5728 88.63 
L 197.5728 88.63 
" clip-path="url(#p5ee677bc52)" style="fill: none; stroke: #ee82ee; stroke-width: 6; stroke-linecap: round"/>
   </g>
   <g id="patch_6">
    <path d="M 197.5728 80.98 
L 212.8728 88.63 
L 197.5728 96.28 
z
" clip-path="url(#p5ee677bc52)" style="fill: #ee82ee"/>
   </g>
   <g id="line2d_9">
    <path d="M 289.3728 134.53 
L 289.3728 103.93 
L 289.3728 103.93 
M 289.3728 73.33 
L 289.3728 73.33 
L 289.3728 42.73 
" clip-path="url(#p5ee677bc52)" style="fill: none; stroke: #000000; stroke-width: 2; stroke-linecap: round"/>
   </g>
   <g id="line2d_10">
    <path d="M 292.4328 96.28 
L 286.3128 96.28 
" clip-path="url(#p5ee677bc52)" style="fill: none; stroke: #000000; stroke-width: 2; stroke-linecap: round"/>
   </g>
   <g id="line2d_11">
    <path d="M 289.3728 84.04 
L 289.3728 77.92 
" clip-path="url(#p5ee677bc52)" style="fill: none; stroke: #000000; stroke-width: 2; stroke-linecap: round"/>
   </g>
   <g id="line2d_12">
    <path d="M 292.4328 80.98 
L 286.3128 80.98 
" clip-path="url(#p5ee677bc52)" style="fill: none; stroke: #000000; stroke-width: 2; stroke-linecap: round"/>
   </g>
   <g id="line2d_13">
    <path d="M 289.3728 42.73 
L 335.2728 42.73 
L 381.1728 42.73 
" clip-path="url(#p5ee677bc52)" style="fill: none; stroke: #000000; stroke-width: 2; stroke-linecap: round"/>
   </g>
   <g id="line2d_14">
    <path d="M 381.1728 42.73 
L 381.1728 73.33 
L 388.8228 75.88 
L 373.5228 80.98 
L 388.8228 86.08 
L 373.5228 91.18 
L 388.8228 96.28 
L 373.5228 101.38 
L 381.1728 103.93 
L 381.1728 134.53 
" clip-path="url(#p5ee677bc52)" style="fill: none; stroke: #ffa500; stroke-width: 2; stroke-linecap: round"/>
   </g>
   <g id="line2d_15">
    <path d="M 381.1728 134.53 
L 335.2728 134.53 
L 289.3728 134.53 
" clip-path="url(#p5ee677bc52)" style="fill: none; stroke: #000000; stroke-width: 2; stroke-linecap: round"/>
   </g>
   <g id="line2d_16">
    <path d="M 59.8728 134.53 
L 59.8728 103.93 
L 59.8728 103.93 
M 59.8728 73.33 
L 59.8728 73.33 
L 59.8728 42.73 
" clip-path="url(#p5ee677bc52)" style="fill: none; stroke: #000000; stroke-width: 2; stroke-linecap: round"/>
   </g>
   <g id="line2d_17">
    <path d="M 62.9328 96.28 
L 56.8128 96.28 
" clip-path="url(#p5ee677bc52)" style="fill: none; stroke: #000000; stroke-width: 2; stroke-linecap: round"/>
   </g>
   <g id="line2d_18">
    <path d="M 59.8728 84.04 
L 59.8728 77.92 
" clip-path="url(#p5ee677bc52)" style="fill: none; stroke: #000000; stroke-width: 2; stroke-linecap: round"/>
   </g>
   <g id="line2d_19">
    <path d="M 62.9328 80.98 
L 56.8128 80.98 
" clip-path="url(#p5ee677bc52)" style="fill: none; stroke: #000000; stroke-width: 2; stroke-linecap: round"/>
   </g>
   <g id="line2d_20">
    <path d="M 59.8728 42.73 
L 90.4728 42.73 
L 93.0228 35.08 
L 98.1228 50.38 
L 103.2228 35.08 
L 108.3228 50.38 
L 113.4228 35.08 
L 118.5228 50.38 
L 121.0728 42.73 
L 151.6728 42.73 
" clip-path="url(#p5ee677bc52)" style="fill: none; stroke: #ffa500; stroke-width: 2; stroke-linecap: round"/>
   </g>
   <g id="line2d_21">
    <path d="M 151.6728 42.73 
L 151.6728 73.33 
L 159.3228 75.88 
L 144.0228 80.98 
L 159.3228 86.08 
L 144.0228 91.18 
L 159.3228 96.28 
L 144.0228 101.38 
L 151.6728 103.93 
L 151.6728 134.53 
" clip-path="url(#p5ee677bc52)" style="fill: none; stroke: #ffa500; stroke-width: 2; stroke-linecap: round"/>
   </g>
   <g id="line2d_22">
    <path d="M 151.6728 134.53 
L 105.7728 134.53 
L 59.8728 134.53 
" clip-path="url(#p5ee677bc52)" style="fill: none; stroke: #000000; stroke-width: 2; stroke-linecap: round"/>
   </g>
   <g id="line2d_23">
    <path d="M 182.2728 88.63 
L 197.5728 88.63 
L 197.5728 88.63 
" clip-path="url(#p5ee677bc52)" style="fill: none; stroke: #ee82ee; stroke-width: 6; stroke-linecap: round"/>
   </g>
   <g id="patch_7">
    <path d="M 197.5728 80.98 
L 212.8728 88.63 
L 197.5728 96.28 
z
" clip-path="url(#p5ee677bc52)" style="fill: #ee82ee"/>
   </g>
   <g id="line2d_24">
    <path d="M 289.3728 134.53 
L 289.3728 103.93 
L 289.3728 103.93 
M 289.3728 73.33 
L 289.3728 73.33 
L 289.3728 42.73 
" clip-path="url(#p5ee677bc52)" style="fill: none; stroke: #000000; stroke-width: 2; stroke-linecap: round"/>
   </g>
   <g id="line2d_25">
    <path d="M 292.4328 96.28 
L 286.3128 96.28 
" clip-path="url(#p5ee677bc52)" style="fill: none; stroke: #000000; stroke-width: 2; stroke-linecap: round"/>
   </g>
   <g id="line2d_26">
    <path d="M 289.3728 84.04 
L 289.3728 77.92 
" clip-path="url(#p5ee677bc52)" style="fill: none; stroke: #000000; stroke-width: 2; stroke-linecap: round"/>
   </g>
   <g id="line2d_27">
    <path d="M 292.4328 80.98 
L 286.3128 80.98 
" clip-path="url(#p5ee677bc52)" style="fill: none; stroke: #000000; stroke-width: 2; stroke-linecap: round"/>
   </g>
   <g id="line2d_28">
    <path d="M 289.3728 42.73 
L 335.2728 42.73 
L 381.1728 42.73 
" clip-path="url(#p5ee677bc52)" style="fill: none; stroke: #000000; stroke-width: 2; stroke-linecap: round"/>
   </g>
   <g id="line2d_29">
    <path d="M 381.1728 42.73 
L 381.1728 73.33 
L 388.8228 75.88 
L 373.5228 80.98 
L 388.8228 86.08 
L 373.5228 91.18 
L 388.8228 96.28 
L 373.5228 101.38 
L 381.1728 103.93 
L 381.1728 134.53 
" clip-path="url(#p5ee677bc52)" style="fill: none; stroke: #ffa500; stroke-width: 2; stroke-linecap: round"/>
   </g>
   <g id="line2d_30">
    <path d="M 381.1728 134.53 
L 335.2728 134.53 
L 289.3728 134.53 
" clip-path="url(#p5ee677bc52)" style="fill: none; stroke: #000000; stroke-width: 2; stroke-linecap: round"/>
   </g>
   <g id="text_1">
    <g clip-path="url(#p5ee677bc52)">
     <!-- 7.2V -->
     <g transform="translate(9.696394 92.079219)scale(0.125 -0.125)">
      <defs>
       <path id="DejaVuSans-Bold-37" d="M 428 4666 
L 3944 4666 
L 3944 3988 
L 2125 0 
L 953 0 
L 2675 3781 
L 428 3781 
L 428 4666 
z
" transform="scale(0.015625)"/>
       <path id="DejaVuSans-Bold-2e" d="M 653 1209 
L 1778 1209 
L 1778 0 
L 653 0 
L 653 1209 
z
" transform="scale(0.015625)"/>
       <path id="DejaVuSans-Bold-32" d="M 1844 884 
L 3897 884 
L 3897 0 
L 506 0 
L 506 884 
L 2209 2388 
Q 2438 2594 2547 2791 
Q 2656 2988 2656 3200 
Q 2656 3528 2436 3728 
Q 2216 3928 1850 3928 
Q 1569 3928 1234 3808 
Q 900 3688 519 3450 
L 519 4475 
Q 925 4609 1322 4679 
Q 1719 4750 2100 4750 
Q 2938 4750 3402 4381 
Q 3866 4013 3866 3353 
Q 3866 2972 3669 2642 
Q 3472 2313 2841 1759 
L 1844 884 
z
" transform="scale(0.015625)"/>
       <path id="DejaVuSans-Bold-56" d="M 31 4666 
L 1241 4666 
L 2478 1222 
L 3713 4666 
L 4922 4666 
L 3194 0 
L 1759 0 
L 31 4666 
z
" transform="scale(0.015625)"/>
      </defs>
      <use xlink:href="#DejaVuSans-Bold-37"/>
      <use xlink:href="#DejaVuSans-Bold-2e" x="69.580078"/>
      <use xlink:href="#DejaVuSans-Bold-32" x="107.568359"/>
      <use xlink:href="#DejaVuSans-Bold-56" x="177.148438"/>
     </g>
    </g>
   </g>
   <g id="text_2">
    <g clip-path="url(#p5ee677bc52)">
     <!-- 2.4Ω -->
     <g style="fill: #ffa500" transform="translate(89.388034 29.420391)scale(0.125 -0.125)">
      <defs>
       <path id="DejaVuSans-Bold-34" d="M 2356 3675 
L 1038 1722 
L 2356 1722 
L 2356 3675 
z
M 2156 4666 
L 3494 4666 
L 3494 1722 
L 4159 1722 
L 4159 850 
L 3494 850 
L 3494 0 
L 2356 0 
L 2356 850 
L 288 850 
L 288 1881 
L 2156 4666 
z
" transform="scale(0.015625)"/>
       <path id="DejaVuSans-Bold-3a9" d="M 2719 4750 
Q 3841 4750 4480 4106 
Q 5119 3463 5119 2494 
Q 5119 1406 4306 909 
L 5266 909 
L 5266 0 
L 3125 0 
L 3125 975 
Q 3244 1041 3334 1131 
Q 3875 1678 3875 2466 
Q 3875 3066 3572 3472 
Q 3269 3878 2719 3878 
Q 2169 3878 1866 3472 
Q 1563 3066 1563 2466 
Q 1563 1678 2103 1131 
Q 2194 1041 2313 975 
L 2313 0 
L 172 0 
L 172 909 
L 1131 909 
Q 319 1406 319 2494 
Q 319 3463 958 4106 
Q 1597 4750 2719 4750 
z
" transform="scale(0.015625)"/>
      </defs>
      <use xlink:href="#DejaVuSans-Bold-32"/>
      <use xlink:href="#DejaVuSans-Bold-2e" x="69.580078"/>
      <use xlink:href="#DejaVuSans-Bold-34" x="107.568359"/>
      <use xlink:href="#DejaVuSans-Bold-3a9" x="177.148438"/>
     </g>
    </g>
   </g>
   <g id="text_3">
    <g clip-path="url(#p5ee677bc52)">
     <!-- 3Ω -->
     <g style="fill: #ffa500" transform="translate(121.638581 92.079219)scale(0.125 -0.125)">
      <defs>
       <path id="DejaVuSans-Bold-33" d="M 2981 2516 
Q 3453 2394 3698 2092 
Q 3944 1791 3944 1325 
Q 3944 631 3412 270 
Q 2881 -91 1863 -91 
Q 1503 -91 1142 -33 
Q 781 25 428 141 
L 428 1069 
Q 766 900 1098 814 
Q 1431 728 1753 728 
Q 2231 728 2486 893 
Q 2741 1059 2741 1369 
Q 2741 1688 2480 1852 
Q 2219 2016 1709 2016 
L 1228 2016 
L 1228 2791 
L 1734 2791 
Q 2188 2791 2409 2933 
Q 2631 3075 2631 3366 
Q 2631 3634 2415 3781 
Q 2200 3928 1806 3928 
Q 1516 3928 1219 3862 
Q 922 3797 628 3669 
L 628 4550 
Q 984 4650 1334 4700 
Q 1684 4750 2022 4750 
Q 2931 4750 3382 4451 
Q 3834 4153 3834 3553 
Q 3834 3144 3618 2883 
Q 3403 2622 2981 2516 
z
" transform="scale(0.015625)"/>
      </defs>
      <use xlink:href="#DejaVuSans-Bold-33"/>
      <use xlink:href="#DejaVuSans-Bold-3a9" x="69.580078"/>
     </g>
    </g>
   </g>
   <g id="text_4">
    <g clip-path="url(#p5ee677bc52)">
     <!-- 7.2V -->
     <g transform="translate(239.196394 92.079219)scale(0.125 -0.125)">
      <use xlink:href="#DejaVuSans-Bold-37"/>
      <use xlink:href="#DejaVuSans-Bold-2e" x="69.580078"/>
      <use xlink:href="#DejaVuSans-Bold-32" x="107.568359"/>
      <use xlink:href="#DejaVuSans-Bold-56" x="177.148438"/>
     </g>
    </g>
   </g>
   <g id="text_5">
    <g clip-path="url(#p5ee677bc52)">
     <!-- 2.4Ω+3Ω -->
     <g style="fill: #ffa500" transform="translate(307.894441 85.080586)scale(0.125 -0.125)">
      <defs>
       <path id="DejaVuSans-Bold-2b" d="M 3053 4013 
L 3053 2375 
L 4684 2375 
L 4684 1638 
L 3053 1638 
L 3053 0 
L 2309 0 
L 2309 1638 
L 678 1638 
L 678 2375 
L 2309 2375 
L 2309 4013 
L 3053 4013 
z
" transform="scale(0.015625)"/>
      </defs>
      <use xlink:href="#DejaVuSans-Bold-32"/>
      <use xlink:href="#DejaVuSans-Bold-2e" x="69.580078"/>
      <use xlink:href="#DejaVuSans-Bold-34" x="107.568359"/>
      <use xlink:href="#DejaVuSans-Bold-3a9" x="177.148438"/>
      <use xlink:href="#DejaVuSans-Bold-2b" x="262.158203"/>
      <use xlink:href="#DejaVuSans-Bold-33" x="345.947266"/>
      <use xlink:href="#DejaVuSans-Bold-3a9" x="415.527344"/>
     </g>
    </g>
    <g clip-path="url(#p5ee677bc52)">
     <!-- =5.4Ω -->
     <g style="fill: #ffa500" transform="translate(327.218659 99.077852)scale(0.125 -0.125)">
      <defs>
       <path id="DejaVuSans-Bold-3d" d="M 678 3084 
L 4684 3084 
L 4684 2350 
L 678 2350 
L 678 3084 
z
M 678 1663 
L 4684 1663 
L 4684 922 
L 678 922 
L 678 1663 
z
" transform="scale(0.015625)"/>
       <path id="DejaVuSans-Bold-35" d="M 678 4666 
L 3669 4666 
L 3669 3781 
L 1638 3781 
L 1638 3059 
Q 1775 3097 1914 3117 
Q 2053 3138 2203 3138 
Q 3056 3138 3531 2711 
Q 4006 2284 4006 1522 
Q 4006 766 3489 337 
Q 2972 -91 2053 -91 
Q 1656 -91 1267 -14 
Q 878 63 494 219 
L 494 1166 
Q 875 947 1217 837 
Q 1559 728 1863 728 
Q 2300 728 2551 942 
Q 2803 1156 2803 1522 
Q 2803 1891 2551 2103 
Q 2300 2316 1863 2316 
Q 1603 2316 1309 2248 
Q 1016 2181 678 2041 
L 678 4666 
z
" transform="scale(0.015625)"/>
      </defs>
      <use xlink:href="#DejaVuSans-Bold-3d"/>
      <use xlink:href="#DejaVuSans-Bold-35" x="83.789062"/>
      <use xlink:href="#DejaVuSans-Bold-2e" x="153.369141"/>
      <use xlink:href="#DejaVuSans-Bold-34" x="191.357422"/>
      <use xlink:href="#DejaVuSans-Bold-3a9" x="260.9375"/>
     </g>
    </g>
   </g>
   <g id="text_6">
    <g clip-path="url(#p5ee677bc52)">
     <!-- 7.2V -->
     <g transform="translate(9.696394 92.079219)scale(0.125 -0.125)">
      <use xlink:href="#DejaVuSans-Bold-37"/>
      <use xlink:href="#DejaVuSans-Bold-2e" x="69.580078"/>
      <use xlink:href="#DejaVuSans-Bold-32" x="107.568359"/>
      <use xlink:href="#DejaVuSans-Bold-56" x="177.148438"/>
     </g>
    </g>
   </g>
   <g id="text_7">
    <g clip-path="url(#p5ee677bc52)">
     <!-- 2.4Ω -->
     <g style="fill: #ffa500" transform="translate(89.388034 29.420391)scale(0.125 -0.125)">
      <use xlink:href="#DejaVuSans-Bold-32"/>
      <use xlink:href="#DejaVuSans-Bold-2e" x="69.580078"/>
      <use xlink:href="#DejaVuSans-Bold-34" x="107.568359"/>
      <use xlink:href="#DejaVuSans-Bold-3a9" x="177.148438"/>
     </g>
    </g>
   </g>
   <g id="text_8">
    <g clip-path="url(#p5ee677bc52)">
     <!-- 3Ω -->
     <g style="fill: #ffa500" transform="translate(121.638581 92.079219)scale(0.125 -0.125)">
      <use xlink:href="#DejaVuSans-Bold-33"/>
      <use xlink:href="#DejaVuSans-Bold-3a9" x="69.580078"/>
     </g>
    </g>
   </g>
   <g id="text_9">
    <g clip-path="url(#p5ee677bc52)">
     <!-- 7.2V -->
     <g transform="translate(239.196394 92.079219)scale(0.125 -0.125)">
      <use xlink:href="#DejaVuSans-Bold-37"/>
      <use xlink:href="#DejaVuSans-Bold-2e" x="69.580078"/>
      <use xlink:href="#DejaVuSans-Bold-32" x="107.568359"/>
      <use xlink:href="#DejaVuSans-Bold-56" x="177.148438"/>
     </g>
    </g>
   </g>
   <g id="text_10">
    <g clip-path="url(#p5ee677bc52)">
     <!-- 2.4Ω+3Ω -->
     <g style="fill: #ffa500" transform="translate(307.894441 85.080586)scale(0.125 -0.125)">
      <use xlink:href="#DejaVuSans-Bold-32"/>
      <use xlink:href="#DejaVuSans-Bold-2e" x="69.580078"/>
      <use xlink:href="#DejaVuSans-Bold-34" x="107.568359"/>
      <use xlink:href="#DejaVuSans-Bold-3a9" x="177.148438"/>
      <use xlink:href="#DejaVuSans-Bold-2b" x="262.158203"/>
      <use xlink:href="#DejaVuSans-Bold-33" x="345.947266"/>
      <use xlink:href="#DejaVuSans-Bold-3a9" x="415.527344"/>
     </g>
    </g>
    <g clip-path="url(#p5ee677bc52)">
     <!-- =5.4Ω -->
     <g style="fill: #ffa500" transform="translate(327.218659 99.077852)scale(0.125 -0.125)">
      <use xlink:href="#DejaVuSans-Bold-3d"/>
      <use xlink:href="#DejaVuSans-Bold-35" x="83.789062"/>
      <use xlink:href="#DejaVuSans-Bold-2e" x="153.369141"/>
      <use xlink:href="#DejaVuSans-Bold-34" x="191.357422"/>
      <use xlink:href="#DejaVuSans-Bold-3a9" x="260.9375"/>
     </g>
    </g>
   </g>
   <g id="line2d_31">
    <path d="M 151.6728 116.17 
L 151.6728 116.17 
" clip-path="url(#p5ee677bc52)" style="fill: none; stroke: #ffa500; stroke-width: 2; stroke-linecap: round"/>
   </g>
   <g id="patch_8">
    <path d="M 156.2628 116.17 
L 151.6728 125.35 
L 147.0828 116.17 
z
" clip-path="url(#p5ee677bc52)" style="fill: #ffa500"/>
   </g>
   <g id="text_11">
    <g clip-path="url(#p5ee677bc52)">
     <!-- $I_{O}$ -->
     <g style="fill: #ffa500" transform="translate(160.8528 124.209219)scale(0.125 -0.125)">
      <defs>
       <path id="STIXGeneral-Italic-49" d="M 2458 4179 
L 2458 4077 
Q 2189 4045 2102 3961 
Q 2016 3878 1933 3584 
L 1165 838 
Q 1069 499 1069 352 
Q 1069 224 1149 179 
Q 1229 134 1510 102 
L 1510 0 
L -51 0 
L -51 102 
Q 218 154 317 237 
Q 416 320 486 582 
L 1254 3405 
Q 1338 3699 1338 3802 
Q 1338 3930 1235 3997 
Q 1133 4064 877 4077 
L 877 4179 
L 2458 4179 
z
" transform="scale(0.015625)"/>
       <path id="STIXGeneral-Italic-4f" d="M 4474 2675 
Q 4474 1990 4106 1363 
Q 3738 736 3149 339 
Q 2477 -115 1779 -115 
Q 1146 -115 765 281 
Q 384 678 384 1382 
Q 384 1965 697 2582 
Q 1011 3200 1517 3642 
Q 2234 4262 3034 4262 
Q 3718 4269 4096 3840 
Q 4474 3411 4474 2675 
z
M 3802 3078 
Q 3802 3533 3581 3792 
Q 3360 4051 2976 4051 
Q 2342 4051 1786 3302 
Q 1446 2842 1251 2259 
Q 1056 1677 1056 1178 
Q 1056 653 1270 374 
Q 1485 96 1888 96 
Q 2477 96 2976 704 
Q 3354 1178 3578 1862 
Q 3802 2547 3802 3078 
z
" transform="scale(0.015625)"/>
      </defs>
      <use xlink:href="#STIXGeneral-Italic-49" transform="translate(0 0.703125)"/>
      <use xlink:href="#STIXGeneral-Italic-4f" transform="translate(33.299988 -12.525)scale(0.7)"/>
     </g>
    </g>
   </g>
   <g id="line2d_32">
    <path d="M 381.1728 116.17 
L 381.1728 116.17 
" clip-path="url(#p5ee677bc52)" style="fill: none; stroke: #ffa500; stroke-width: 2; stroke-linecap: round"/>
   </g>
   <g id="patch_9">
    <path d="M 385.7628 116.17 
L 381.1728 125.35 
L 376.5828 116.17 
z
" clip-path="url(#p5ee677bc52)" style="fill: #ffa500"/>
   </g>
   <g id="text_12">
    <g clip-path="url(#p5ee677bc52)">
     <!-- $I_{O}$ -->
     <g style="fill: #ffa500" transform="translate(390.3528 124.209219)scale(0.125 -0.125)">
      <use xlink:href="#STIXGeneral-Italic-49" transform="translate(0 0.703125)"/>
      <use xlink:href="#STIXGeneral-Italic-4f" transform="translate(33.299988 -12.525)scale(0.7)"/>
     </g>
    </g>
   </g>
   <g id="line2d_33">
    <path d="M 151.6728 116.17 
L 151.6728 116.17 
" clip-path="url(#p5ee677bc52)" style="fill: none; stroke: #ffa500; stroke-width: 2; stroke-linecap: round"/>
   </g>
   <g id="patch_10">
    <path d="M 156.2628 116.17 
L 151.6728 125.35 
L 147.0828 116.17 
z
" clip-path="url(#p5ee677bc52)" style="fill: #ffa500"/>
   </g>
   <g id="text_13">
    <g clip-path="url(#p5ee677bc52)">
     <!-- $I_{O}$ -->
     <g style="fill: #ffa500" transform="translate(160.8528 124.209219)scale(0.125 -0.125)">
      <use xlink:href="#STIXGeneral-Italic-49" transform="translate(0 0.703125)"/>
      <use xlink:href="#STIXGeneral-Italic-4f" transform="translate(33.299988 -12.525)scale(0.7)"/>
     </g>
    </g>
   </g>
   <g id="line2d_34">
    <path d="M 381.1728 116.17 
L 381.1728 116.17 
" clip-path="url(#p5ee677bc52)" style="fill: none; stroke: #ffa500; stroke-width: 2; stroke-linecap: round"/>
   </g>
   <g id="patch_11">
    <path d="M 385.7628 116.17 
L 381.1728 125.35 
L 376.5828 116.17 
z
" clip-path="url(#p5ee677bc52)" style="fill: #ffa500"/>
   </g>
   <g id="text_14">
    <g clip-path="url(#p5ee677bc52)">
     <!-- $I_{O}$ -->
     <g style="fill: #ffa500" transform="translate(390.3528 124.209219)scale(0.125 -0.125)">
      <use xlink:href="#STIXGeneral-Italic-49" transform="translate(0 0.703125)"/>
      <use xlink:href="#STIXGeneral-Italic-4f" transform="translate(33.299988 -12.525)scale(0.7)"/>
     </g>
    </g>
   </g>
  </g>
 </g>
 <defs>
  <clipPath id="p5ee677bc52">
   <rect x="7.2" y="7.2" width="414.6606" height="130.39"/>
  </clipPath>
 </defs>
</svg>
