<?xml version="1.0" encoding="utf-8" standalone="no"?>
<!DOCTYPE svg PUBLIC "-//W3C//DTD SVG 1.1//EN"
  "http://www.w3.org/Graphics/SVG/1.1/DTD/svg11.dtd">
<svg xmlns:xlink="http://www.w3.org/1999/xlink" width="693.2406pt" height="144.79pt" viewBox="0 0 693.2406 144.79" xmlns="http://www.w3.org/2000/svg" version="1.1">
 <metadata>
  <rdf:RDF xmlns:dc="http://purl.org/dc/elements/1.1/" xmlns:cc="http://creativecommons.org/ns#" xmlns:rdf="http://www.w3.org/1999/02/22-rdf-syntax-ns#">
   <cc:Work>
    <dc:type rdf:resource="http://purl.org/dc/dcmitype/StillImage"/>
    <dc:date>2023-05-23T07:59:05.231772</dc:date>
    <dc:format>image/svg+xml</dc:format>
    <dc:creator>
     <cc:Agent>
      <dc:title>Matplotlib v3.5.2, https://matplotlib.org/</dc:title>
     </cc:Agent>
    </dc:creator>
   </cc:Work>
  </rdf:RDF>
 </metadata>
 <defs>
  <style type="text/css">*{stroke-linejoin: round; stroke-linecap: butt}</style>
 </defs>
 <g id="figure_1">
  <g id="patch_1">
   <path d="M -0 144.79 
L 693.2406 144.79 
L 693.2406 0 
L -0 0 
L -0 144.79 
z
" style="fill: none"/>
  </g>
  <g id="axes_1">
   <g id="patch_2">
    <path d="M 56.3028 103.93 
C 60.360407 103.93 64.252372 102.317895 67.121534 99.448734 
C 69.990695 96.579572 71.6028 92.687607 71.6028 88.63 
C 71.6028 84.572393 69.990695 80.680428 67.121534 77.811266 
C 64.252372 74.942105 60.360407 73.33 56.3028 73.33 
C 52.245193 73.33 48.353228 74.942105 45.484066 77.811266 
C 42.614905 80.680428 41.0028 84.572393 41.0028 88.63 
C 41.0028 92.687607 42.614905 96.579572 45.484066 99.448734 
C 48.353228 102.317895 52.245193 103.93 56.3028 103.93 
L 56.3028 103.93 
z
" clip-path="url(#p021d465de5)" style="fill: none; stroke: #9acd32; stroke-width: 2; stroke-linejoin: miter"/>
   </g>
   <g id="patch_3">
    <path d="M 369.9528 103.93 
C 374.010407 103.93 377.902372 102.317895 380.771534 99.448734 
C 383.640695 96.579572 385.2528 92.687607 385.2528 88.63 
C 385.2528 84.572393 383.640695 80.680428 380.771534 77.811266 
C 377.902372 74.942105 374.010407 73.33 369.9528 73.33 
C 365.895193 73.33 362.003228 74.942105 359.134066 77.811266 
C 356.264905 80.680428 354.6528 84.572393 354.6528 88.63 
C 354.6528 92.687607 356.264905 96.579572 359.134066 99.448734 
C 362.003228 102.317895 365.895193 103.93 369.9528 103.93 
L 369.9528 103.93 
z
" clip-path="url(#p021d465de5)" style="fill: none; stroke: #9acd32; stroke-width: 2; stroke-linejoin: miter"/>
   </g>
   <g id="patch_4">
    <path d="M 56.3028 103.93 
C 60.360407 103.93 64.252372 102.317895 67.121534 99.448734 
C 69.990695 96.579572 71.6028 92.687607 71.6028 88.63 
C 71.6028 84.572393 69.990695 80.680428 67.121534 77.811266 
C 64.252372 74.942105 60.360407 73.33 56.3028 73.33 
C 52.245193 73.33 48.353228 74.942105 45.484066 77.811266 
C 42.614905 80.680428 41.0028 84.572393 41.0028 88.63 
C 41.0028 92.687607 42.614905 96.579572 45.484066 99.448734 
C 48.353228 102.317895 52.245193 103.93 56.3028 103.93 
L 56.3028 103.93 
z
" clip-path="url(#p021d465de5)" style="fill: none; stroke: #9acd32; stroke-width: 2; stroke-linejoin: miter"/>
   </g>
   <g id="patch_5">
    <path d="M 369.9528 103.93 
C 374.010407 103.93 377.902372 102.317895 380.771534 99.448734 
C 383.640695 96.579572 385.2528 92.687607 385.2528 88.63 
C 385.2528 84.572393 383.640695 80.680428 380.771534 77.811266 
C 377.902372 74.942105 374.010407 73.33 369.9528 73.33 
C 365.895193 73.33 362.003228 74.942105 359.134066 77.811266 
C 356.264905 80.680428 354.6528 84.572393 354.6528 88.63 
C 354.6528 92.687607 356.264905 96.579572 359.134066 99.448734 
C 362.003228 102.317895 365.895193 103.93 369.9528 103.93 
L 369.9528 103.93 
z
" clip-path="url(#p021d465de5)" style="fill: none; stroke: #9acd32; stroke-width: 2; stroke-linejoin: miter"/>
   </g>
   <g id="line2d_1">
    <path d="M 56.3028 134.53 
L 56.3028 103.93 
L 56.3028 103.93 
M 56.3028 73.33 
L 56.3028 73.33 
L 56.3028 42.73 
" clip-path="url(#p021d465de5)" style="fill: none; stroke: #9acd32; stroke-width: 2; stroke-linecap: round"/>
   </g>
   <g id="line2d_2">
    <path d="M 59.3628 96.28 
L 53.2428 96.28 
" clip-path="url(#p021d465de5)" style="fill: none; stroke: #9acd32; stroke-width: 2; stroke-linecap: round"/>
   </g>
   <g id="line2d_3">
    <path d="M 56.3028 84.04 
L 56.3028 77.92 
" clip-path="url(#p021d465de5)" style="fill: none; stroke: #9acd32; stroke-width: 2; stroke-linecap: round"/>
   </g>
   <g id="line2d_4">
    <path d="M 59.3628 80.98 
L 53.2428 80.98 
" clip-path="url(#p021d465de5)" style="fill: none; stroke: #9acd32; stroke-width: 2; stroke-linecap: round"/>
   </g>
   <g id="line2d_5">
    <path d="M 56.3028 42.73 
L 86.9028 42.73 
L 89.4528 35.08 
L 94.5528 50.38 
L 99.6528 35.08 
L 104.7528 50.38 
L 109.8528 35.08 
L 114.9528 50.38 
L 117.5028 42.73 
L 148.1028 42.73 
" clip-path="url(#p021d465de5)" style="fill: none; stroke: #9acd32; stroke-width: 2; stroke-linecap: round"/>
   </g>
   <g id="line2d_6">
    <path d="M 148.1028 42.73 
L 148.1028 73.33 
L 155.7528 75.88 
L 140.4528 80.98 
L 155.7528 86.08 
L 140.4528 91.18 
L 155.7528 96.28 
L 140.4528 101.38 
L 148.1028 103.93 
L 148.1028 134.53 
" clip-path="url(#p021d465de5)" style="fill: none; stroke: #000000; stroke-width: 2; stroke-linecap: round"/>
   </g>
   <g id="line2d_7">
    <path d="M 148.1028 42.73 
L 194.0028 42.73 
L 239.9028 42.73 
" clip-path="url(#p021d465de5)" style="fill: none; stroke: #000000; stroke-width: 2; stroke-linecap: round"/>
   </g>
   <g id="line2d_8">
    <path d="M 239.9028 42.73 
L 239.9028 73.33 
L 247.5528 75.88 
L 232.2528 80.98 
L 247.5528 86.08 
L 232.2528 91.18 
L 247.5528 96.28 
L 232.2528 101.38 
L 239.9028 103.93 
L 239.9028 134.53 
" clip-path="url(#p021d465de5)" style="fill: none; stroke: #000000; stroke-width: 2; stroke-linecap: round"/>
   </g>
   <g id="line2d_9">
    <path d="M 239.9028 134.53 
L 148.1028 134.53 
L 56.3028 134.53 
" clip-path="url(#p021d465de5)" style="fill: none; stroke: #000000; stroke-width: 2; stroke-linecap: round"/>
   </g>
   <g id="line2d_10">
    <path d="M 270.5028 88.63 
L 285.8028 88.63 
L 285.8028 88.63 
" clip-path="url(#p021d465de5)" style="fill: none; stroke: #ee82ee; stroke-width: 6; stroke-linecap: round"/>
   </g>
   <g id="patch_6">
    <path d="M 285.8028 80.98 
L 301.1028 88.63 
L 285.8028 96.28 
z
" clip-path="url(#p021d465de5)" style="fill: #ee82ee"/>
   </g>
   <g id="line2d_11">
    <path d="M 369.9528 134.53 
L 369.9528 103.93 
L 369.9528 103.93 
M 369.9528 73.33 
L 369.9528 73.33 
L 369.9528 42.73 
" clip-path="url(#p021d465de5)" style="fill: none; stroke: #9acd32; stroke-width: 2; stroke-linecap: round"/>
   </g>
   <g id="line2d_12">
    <path d="M 369.9528 96.28 
L 369.9528 88.63 
" clip-path="url(#p021d465de5)" style="fill: none; stroke: #9acd32; stroke-width: 2; stroke-linecap: round"/>
   </g>
   <g id="patch_7">
    <path d="M 367.6578 88.63 
L 369.9528 80.98 
L 372.2478 88.63 
z
" clip-path="url(#p021d465de5)" style="fill: #9acd32"/>
   </g>
   <g id="line2d_13">
    <path d="M 369.9528 42.73 
L 415.8528 42.73 
L 461.7528 42.73 
" clip-path="url(#p021d465de5)" style="fill: none; stroke: #9acd32; stroke-width: 2; stroke-linecap: round"/>
   </g>
   <g id="line2d_14">
    <path d="M 461.7528 42.73 
L 461.7528 73.33 
L 469.4028 75.88 
L 454.1028 80.98 
L 469.4028 86.08 
L 454.1028 91.18 
L 469.4028 96.28 
L 454.1028 101.38 
L 461.7528 103.93 
L 461.7528 134.53 
" clip-path="url(#p021d465de5)" style="fill: none; stroke: #9acd32; stroke-width: 2; stroke-linecap: round"/>
   </g>
   <g id="line2d_15">
    <path d="M 461.7528 42.73 
L 507.6528 42.73 
L 553.5528 42.73 
" clip-path="url(#p021d465de5)" style="fill: none; stroke: #000000; stroke-width: 2; stroke-linecap: round"/>
   </g>
   <g id="line2d_16">
    <path d="M 553.5528 42.73 
L 553.5528 73.33 
L 561.2028 75.88 
L 545.9028 80.98 
L 561.2028 86.08 
L 545.9028 91.18 
L 561.2028 96.28 
L 545.9028 101.38 
L 553.5528 103.93 
L 553.5528 134.53 
" clip-path="url(#p021d465de5)" style="fill: none; stroke: #000000; stroke-width: 2; stroke-linecap: round"/>
   </g>
   <g id="line2d_17">
    <path d="M 553.5528 42.73 
L 599.4528 42.73 
L 645.3528 42.73 
" clip-path="url(#p021d465de5)" style="fill: none; stroke: #000000; stroke-width: 2; stroke-linecap: round"/>
   </g>
   <g id="line2d_18">
    <path d="M 645.3528 42.73 
L 645.3528 73.33 
L 653.0028 75.88 
L 637.7028 80.98 
L 653.0028 86.08 
L 637.7028 91.18 
L 653.0028 96.28 
L 637.7028 101.38 
L 645.3528 103.93 
L 645.3528 134.53 
" clip-path="url(#p021d465de5)" style="fill: none; stroke: #000000; stroke-width: 2; stroke-linecap: round"/>
   </g>
   <g id="line2d_19">
    <path d="M 645.3528 134.53 
L 553.5528 134.53 
L 461.7528 134.53 
" clip-path="url(#p021d465de5)" style="fill: none; stroke: #000000; stroke-width: 2; stroke-linecap: round"/>
   </g>
   <g id="line2d_20">
    <path d="M 461.7528 134.53 
L 415.8528 134.53 
L 369.9528 134.53 
" clip-path="url(#p021d465de5)" style="fill: none; stroke: #9acd32; stroke-width: 2; stroke-linecap: round"/>
   </g>
   <g id="line2d_21">
    <path d="M 56.3028 134.53 
L 56.3028 103.93 
L 56.3028 103.93 
M 56.3028 73.33 
L 56.3028 73.33 
L 56.3028 42.73 
" clip-path="url(#p021d465de5)" style="fill: none; stroke: #9acd32; stroke-width: 2; stroke-linecap: round"/>
   </g>
   <g id="line2d_22">
    <path d="M 59.3628 96.28 
L 53.2428 96.28 
" clip-path="url(#p021d465de5)" style="fill: none; stroke: #9acd32; stroke-width: 2; stroke-linecap: round"/>
   </g>
   <g id="line2d_23">
    <path d="M 56.3028 84.04 
L 56.3028 77.92 
" clip-path="url(#p021d465de5)" style="fill: none; stroke: #9acd32; stroke-width: 2; stroke-linecap: round"/>
   </g>
   <g id="line2d_24">
    <path d="M 59.3628 80.98 
L 53.2428 80.98 
" clip-path="url(#p021d465de5)" style="fill: none; stroke: #9acd32; stroke-width: 2; stroke-linecap: round"/>
   </g>
   <g id="line2d_25">
    <path d="M 56.3028 42.73 
L 86.9028 42.73 
L 89.4528 35.08 
L 94.5528 50.38 
L 99.6528 35.08 
L 104.7528 50.38 
L 109.8528 35.08 
L 114.9528 50.38 
L 117.5028 42.73 
L 148.1028 42.73 
" clip-path="url(#p021d465de5)" style="fill: none; stroke: #9acd32; stroke-width: 2; stroke-linecap: round"/>
   </g>
   <g id="line2d_26">
    <path d="M 148.1028 42.73 
L 148.1028 73.33 
L 155.7528 75.88 
L 140.4528 80.98 
L 155.7528 86.08 
L 140.4528 91.18 
L 155.7528 96.28 
L 140.4528 101.38 
L 148.1028 103.93 
L 148.1028 134.53 
" clip-path="url(#p021d465de5)" style="fill: none; stroke: #000000; stroke-width: 2; stroke-linecap: round"/>
   </g>
   <g id="line2d_27">
    <path d="M 148.1028 42.73 
L 194.0028 42.73 
L 239.9028 42.73 
" clip-path="url(#p021d465de5)" style="fill: none; stroke: #000000; stroke-width: 2; stroke-linecap: round"/>
   </g>
   <g id="line2d_28">
    <path d="M 239.9028 42.73 
L 239.9028 73.33 
L 247.5528 75.88 
L 232.2528 80.98 
L 247.5528 86.08 
L 232.2528 91.18 
L 247.5528 96.28 
L 232.2528 101.38 
L 239.9028 103.93 
L 239.9028 134.53 
" clip-path="url(#p021d465de5)" style="fill: none; stroke: #000000; stroke-width: 2; stroke-linecap: round"/>
   </g>
   <g id="line2d_29">
    <path d="M 239.9028 134.53 
L 148.1028 134.53 
L 56.3028 134.53 
" clip-path="url(#p021d465de5)" style="fill: none; stroke: #000000; stroke-width: 2; stroke-linecap: round"/>
   </g>
   <g id="line2d_30">
    <path d="M 270.5028 88.63 
L 285.8028 88.63 
L 285.8028 88.63 
" clip-path="url(#p021d465de5)" style="fill: none; stroke: #ee82ee; stroke-width: 6; stroke-linecap: round"/>
   </g>
   <g id="patch_8">
    <path d="M 285.8028 80.98 
L 301.1028 88.63 
L 285.8028 96.28 
z
" clip-path="url(#p021d465de5)" style="fill: #ee82ee"/>
   </g>
   <g id="line2d_31">
    <path d="M 369.9528 134.53 
L 369.9528 103.93 
L 369.9528 103.93 
M 369.9528 73.33 
L 369.9528 73.33 
L 369.9528 42.73 
" clip-path="url(#p021d465de5)" style="fill: none; stroke: #9acd32; stroke-width: 2; stroke-linecap: round"/>
   </g>
   <g id="line2d_32">
    <path d="M 369.9528 96.28 
L 369.9528 88.63 
" clip-path="url(#p021d465de5)" style="fill: none; stroke: #9acd32; stroke-width: 2; stroke-linecap: round"/>
   </g>
   <g id="patch_9">
    <path d="M 367.6578 88.63 
L 369.9528 80.98 
L 372.2478 88.63 
z
" clip-path="url(#p021d465de5)" style="fill: #9acd32"/>
   </g>
   <g id="line2d_33">
    <path d="M 369.9528 42.73 
L 415.8528 42.73 
L 461.7528 42.73 
" clip-path="url(#p021d465de5)" style="fill: none; stroke: #9acd32; stroke-width: 2; stroke-linecap: round"/>
   </g>
   <g id="line2d_34">
    <path d="M 461.7528 42.73 
L 461.7528 73.33 
L 469.4028 75.88 
L 454.1028 80.98 
L 469.4028 86.08 
L 454.1028 91.18 
L 469.4028 96.28 
L 454.1028 101.38 
L 461.7528 103.93 
L 461.7528 134.53 
" clip-path="url(#p021d465de5)" style="fill: none; stroke: #9acd32; stroke-width: 2; stroke-linecap: round"/>
   </g>
   <g id="line2d_35">
    <path d="M 461.7528 42.73 
L 507.6528 42.73 
L 553.5528 42.73 
" clip-path="url(#p021d465de5)" style="fill: none; stroke: #000000; stroke-width: 2; stroke-linecap: round"/>
   </g>
   <g id="line2d_36">
    <path d="M 553.5528 42.73 
L 553.5528 73.33 
L 561.2028 75.88 
L 545.9028 80.98 
L 561.2028 86.08 
L 545.9028 91.18 
L 561.2028 96.28 
L 545.9028 101.38 
L 553.5528 103.93 
L 553.5528 134.53 
" clip-path="url(#p021d465de5)" style="fill: none; stroke: #000000; stroke-width: 2; stroke-linecap: round"/>
   </g>
   <g id="line2d_37">
    <path d="M 553.5528 42.73 
L 599.4528 42.73 
L 645.3528 42.73 
" clip-path="url(#p021d465de5)" style="fill: none; stroke: #000000; stroke-width: 2; stroke-linecap: round"/>
   </g>
   <g id="line2d_38">
    <path d="M 645.3528 42.73 
L 645.3528 73.33 
L 653.0028 75.88 
L 637.7028 80.98 
L 653.0028 86.08 
L 637.7028 91.18 
L 653.0028 96.28 
L 637.7028 101.38 
L 645.3528 103.93 
L 645.3528 134.53 
" clip-path="url(#p021d465de5)" style="fill: none; stroke: #000000; stroke-width: 2; stroke-linecap: round"/>
   </g>
   <g id="line2d_39">
    <path d="M 645.3528 134.53 
L 553.5528 134.53 
L 461.7528 134.53 
" clip-path="url(#p021d465de5)" style="fill: none; stroke: #000000; stroke-width: 2; stroke-linecap: round"/>
   </g>
   <g id="line2d_40">
    <path d="M 461.7528 134.53 
L 415.8528 134.53 
L 369.9528 134.53 
" clip-path="url(#p021d465de5)" style="fill: none; stroke: #9acd32; stroke-width: 2; stroke-linecap: round"/>
   </g>
   <g id="text_1">
    <g clip-path="url(#p021d465de5)">
     <!-- $12V$ -->
     <g style="fill: #9acd32" transform="translate(17.6928 92.079219)scale(0.125 -0.125)">
      <defs>
       <path id="STIXGeneral-Regular-31" d="M 2522 0 
L 755 0 
L 755 96 
Q 1107 115 1235 227 
Q 1363 339 1363 608 
L 1363 3482 
Q 1363 3795 1171 3795 
Q 1082 3795 883 3718 
L 710 3654 
L 710 3744 
L 1856 4326 
L 1914 4307 
L 1914 486 
Q 1914 275 2042 185 
Q 2170 96 2522 96 
L 2522 0 
z
" transform="scale(0.015625)"/>
       <path id="STIXGeneral-Regular-32" d="M 3034 877 
L 2688 0 
L 186 0 
L 186 77 
L 1325 1286 
Q 1773 1754 1965 2144 
Q 2157 2534 2157 2950 
Q 2157 3379 1920 3616 
Q 1683 3853 1267 3853 
Q 922 3853 720 3673 
Q 518 3494 326 3021 
L 192 3053 
Q 301 3648 630 3987 
Q 960 4326 1523 4326 
Q 2054 4326 2380 4006 
Q 2707 3686 2707 3200 
Q 2707 2477 1888 1613 
L 832 486 
L 2330 486 
Q 2541 486 2665 569 
Q 2790 653 2944 915 
L 3034 877 
z
" transform="scale(0.015625)"/>
       <path id="STIXGeneral-Italic-56" d="M 4403 4179 
L 4403 4077 
Q 4198 4070 4045 3821 
L 1658 -115 
L 1536 -115 
L 1011 3104 
Q 902 3776 828 3910 
Q 755 4045 486 4077 
L 486 4179 
L 2022 4179 
L 2022 4077 
Q 1722 4045 1629 3981 
Q 1536 3917 1536 3750 
Q 1536 3686 1542 3654 
L 1958 819 
L 3302 3123 
Q 3616 3661 3616 3859 
Q 3616 4032 3219 4077 
L 3219 4179 
L 4403 4179 
z
" transform="scale(0.015625)"/>
      </defs>
      <use xlink:href="#STIXGeneral-Regular-31" transform="translate(0 0.40625)"/>
      <use xlink:href="#STIXGeneral-Regular-32" transform="translate(49.999985 0.40625)"/>
      <use xlink:href="#STIXGeneral-Italic-56" transform="translate(99.999969 0.40625)"/>
     </g>
    </g>
   </g>
   <g id="text_2">
    <g clip-path="url(#p021d465de5)">
     <!-- 4Ω -->
     <g style="fill: #9acd32" transform="translate(92.540691 29.420391)scale(0.125 -0.125)">
      <defs>
       <path id="DejaVuSans-Bold-34" d="M 2356 3675 
L 1038 1722 
L 2356 1722 
L 2356 3675 
z
M 2156 4666 
L 3494 4666 
L 3494 1722 
L 4159 1722 
L 4159 850 
L 3494 850 
L 3494 0 
L 2356 0 
L 2356 850 
L 288 850 
L 288 1881 
L 2156 4666 
z
" transform="scale(0.015625)"/>
       <path id="DejaVuSans-Bold-3a9" d="M 2719 4750 
Q 3841 4750 4480 4106 
Q 5119 3463 5119 2494 
Q 5119 1406 4306 909 
L 5266 909 
L 5266 0 
L 3125 0 
L 3125 975 
Q 3244 1041 3334 1131 
Q 3875 1678 3875 2466 
Q 3875 3066 3572 3472 
Q 3269 3878 2719 3878 
Q 2169 3878 1866 3472 
Q 1563 3066 1563 2466 
Q 1563 1678 2103 1131 
Q 2194 1041 2313 975 
L 2313 0 
L 172 0 
L 172 909 
L 1131 909 
Q 319 1406 319 2494 
Q 319 3463 958 4106 
Q 1597 4750 2719 4750 
z
" transform="scale(0.015625)"/>
      </defs>
      <use xlink:href="#DejaVuSans-Bold-34"/>
      <use xlink:href="#DejaVuSans-Bold-3a9" x="69.580078"/>
     </g>
    </g>
   </g>
   <g id="text_3">
    <g clip-path="url(#p021d465de5)">
     <!-- 6Ω -->
     <g transform="translate(118.068581 92.079219)scale(0.125 -0.125)">
      <defs>
       <path id="DejaVuSans-Bold-36" d="M 2316 2303 
Q 2000 2303 1842 2098 
Q 1684 1894 1684 1484 
Q 1684 1075 1842 870 
Q 2000 666 2316 666 
Q 2634 666 2792 870 
Q 2950 1075 2950 1484 
Q 2950 1894 2792 2098 
Q 2634 2303 2316 2303 
z
M 3803 4544 
L 3803 3681 
Q 3506 3822 3243 3889 
Q 2981 3956 2731 3956 
Q 2194 3956 1894 3657 
Q 1594 3359 1544 2772 
Q 1750 2925 1990 3001 
Q 2231 3078 2516 3078 
Q 3231 3078 3670 2659 
Q 4109 2241 4109 1563 
Q 4109 813 3618 361 
Q 3128 -91 2303 -91 
Q 1394 -91 895 523 
Q 397 1138 397 2266 
Q 397 3422 980 4083 
Q 1563 4744 2578 4744 
Q 2900 4744 3203 4694 
Q 3506 4644 3803 4544 
z
" transform="scale(0.015625)"/>
      </defs>
      <use xlink:href="#DejaVuSans-Bold-36"/>
      <use xlink:href="#DejaVuSans-Bold-3a9" x="69.580078"/>
     </g>
    </g>
   </g>
   <g id="text_4">
    <g clip-path="url(#p021d465de5)">
     <!-- 3Ω -->
     <g transform="translate(209.868581 92.079219)scale(0.125 -0.125)">
      <defs>
       <path id="DejaVuSans-Bold-33" d="M 2981 2516 
Q 3453 2394 3698 2092 
Q 3944 1791 3944 1325 
Q 3944 631 3412 270 
Q 2881 -91 1863 -91 
Q 1503 -91 1142 -33 
Q 781 25 428 141 
L 428 1069 
Q 766 900 1098 814 
Q 1431 728 1753 728 
Q 2231 728 2486 893 
Q 2741 1059 2741 1369 
Q 2741 1688 2480 1852 
Q 2219 2016 1709 2016 
L 1228 2016 
L 1228 2791 
L 1734 2791 
Q 2188 2791 2409 2933 
Q 2631 3075 2631 3366 
Q 2631 3634 2415 3781 
Q 2200 3928 1806 3928 
Q 1516 3928 1219 3862 
Q 922 3797 628 3669 
L 628 4550 
Q 984 4650 1334 4700 
Q 1684 4750 2022 4750 
Q 2931 4750 3382 4451 
Q 3834 4153 3834 3553 
Q 3834 3144 3618 2883 
Q 3403 2622 2981 2516 
z
" transform="scale(0.015625)"/>
      </defs>
      <use xlink:href="#DejaVuSans-Bold-33"/>
      <use xlink:href="#DejaVuSans-Bold-3a9" x="69.580078"/>
     </g>
    </g>
   </g>
   <g id="text_5">
    <g clip-path="url(#p021d465de5)">
     <!-- $12V/4Ω$ -->
     <g style="fill: #9acd32" transform="translate(312.3428 85.080586)scale(0.125 -0.125)">
      <defs>
       <path id="STIXGeneral-Regular-2f" d="M 1837 4326 
L 378 -90 
L -58 -90 
L 1408 4326 
L 1837 4326 
z
" transform="scale(0.015625)"/>
       <path id="STIXGeneral-Regular-34" d="M 3027 1069 
L 2368 1069 
L 2368 0 
L 1869 0 
L 1869 1069 
L 77 1069 
L 77 1478 
L 2086 4326 
L 2368 4326 
L 2368 1478 
L 3027 1478 
L 3027 1069 
z
M 1869 1478 
L 1869 3674 
L 333 1478 
L 1869 1478 
z
" transform="scale(0.015625)"/>
       <path id="STIXGeneral-Regular-3a9" d="M 4576 0 
L 2746 0 
L 2790 1030 
Q 3187 1126 3440 1574 
Q 3693 2022 3693 2554 
Q 3693 3251 3344 3673 
Q 2995 4096 2380 4096 
Q 1766 4096 1417 3635 
Q 1069 3174 1069 2554 
Q 1069 2054 1315 1600 
Q 1562 1146 1965 1030 
L 2022 0 
L 186 0 
L 186 1094 
L 346 1094 
Q 352 806 438 707 
Q 525 608 742 608 
L 1709 608 
L 1696 845 
Q 1018 1037 678 1446 
Q 339 1856 339 2541 
Q 339 3238 899 3782 
Q 1459 4326 2380 4326 
Q 3302 4326 3862 3804 
Q 4422 3283 4422 2541 
Q 4422 1235 3046 845 
L 3034 608 
L 4019 608 
Q 4397 608 4416 1082 
L 4576 1082 
L 4576 0 
z
" transform="scale(0.015625)"/>
      </defs>
      <use xlink:href="#STIXGeneral-Regular-31" transform="translate(0 0.40625)"/>
      <use xlink:href="#STIXGeneral-Regular-32" transform="translate(49.999985 0.40625)"/>
      <use xlink:href="#STIXGeneral-Italic-56" transform="translate(99.999969 0.40625)"/>
      <use xlink:href="#STIXGeneral-Regular-2f" transform="translate(161.09996 0.40625)"/>
      <use xlink:href="#STIXGeneral-Regular-34" transform="translate(188.899948 0.40625)"/>
      <use xlink:href="#STIXGeneral-Regular-3a9" transform="translate(238.899933 0.40625)"/>
     </g>
    </g>
    <g clip-path="url(#p021d465de5)">
     <!-- $=3A$ -->
     <g style="fill: #9acd32" transform="translate(325.4678 99.077852)scale(0.125 -0.125)">
      <defs>
       <path id="STIXGeneral-Regular-3d" d="M 4077 2048 
L 307 2048 
L 307 2470 
L 4077 2470 
L 4077 2048 
z
M 4077 768 
L 307 768 
L 307 1190 
L 4077 1190 
L 4077 768 
z
" transform="scale(0.015625)"/>
       <path id="STIXGeneral-Regular-33" d="M 390 3264 
L 288 3290 
Q 435 3770 748 4048 
Q 1062 4326 1542 4326 
Q 1990 4326 2265 4083 
Q 2541 3840 2541 3450 
Q 2541 2925 1946 2566 
Q 2298 2413 2477 2227 
Q 2758 1914 2758 1402 
Q 2758 890 2464 506 
Q 2246 211 1840 60 
Q 1434 -90 979 -90 
Q 262 -90 262 275 
Q 262 378 339 442 
Q 416 506 525 506 
Q 685 506 915 339 
Q 1197 141 1466 141 
Q 1818 141 2058 425 
Q 2298 710 2298 1120 
Q 2298 1856 1632 2048 
Q 1434 2112 979 2112 
L 979 2202 
Q 1338 2323 1517 2432 
Q 2035 2726 2035 3290 
Q 2035 3610 1852 3776 
Q 1670 3942 1344 3942 
Q 768 3942 390 3264 
z
" transform="scale(0.015625)"/>
       <path id="STIXGeneral-Italic-41" d="M 3610 0 
L 2042 0 
L 2042 102 
Q 2330 115 2432 192 
Q 2534 269 2534 442 
Q 2534 493 2522 608 
L 2394 1446 
L 986 1446 
L 608 736 
Q 467 474 467 314 
Q 467 122 864 102 
L 864 0 
L -326 0 
L -326 102 
Q -109 147 28 307 
Q 166 467 531 1101 
L 2355 4275 
L 2522 4275 
L 3110 736 
Q 3174 339 3264 230 
Q 3354 122 3610 102 
L 3610 0 
z
M 2362 1677 
L 2074 3360 
L 1120 1677 
L 2362 1677 
z
" transform="scale(0.015625)"/>
      </defs>
      <use xlink:href="#STIXGeneral-Regular-3d" transform="translate(14.439996 0.40625)"/>
      <use xlink:href="#STIXGeneral-Regular-33" transform="translate(97.379977 0.40625)"/>
      <use xlink:href="#STIXGeneral-Italic-41" transform="translate(147.379962 0.40625)"/>
     </g>
    </g>
   </g>
   <g id="text_6">
    <g clip-path="url(#p021d465de5)">
     <!-- 4Ω -->
     <g style="fill: #9acd32" transform="translate(431.718581 92.079219)scale(0.125 -0.125)">
      <use xlink:href="#DejaVuSans-Bold-34"/>
      <use xlink:href="#DejaVuSans-Bold-3a9" x="69.580078"/>
     </g>
    </g>
   </g>
   <g id="text_7">
    <g clip-path="url(#p021d465de5)">
     <!-- 6Ω -->
     <g transform="translate(523.518581 92.079219)scale(0.125 -0.125)">
      <use xlink:href="#DejaVuSans-Bold-36"/>
      <use xlink:href="#DejaVuSans-Bold-3a9" x="69.580078"/>
     </g>
    </g>
   </g>
   <g id="text_8">
    <g clip-path="url(#p021d465de5)">
     <!-- 3Ω -->
     <g transform="translate(615.318581 92.079219)scale(0.125 -0.125)">
      <use xlink:href="#DejaVuSans-Bold-33"/>
      <use xlink:href="#DejaVuSans-Bold-3a9" x="69.580078"/>
     </g>
    </g>
   </g>
   <g id="text_9">
    <g clip-path="url(#p021d465de5)">
     <!-- $12V$ -->
     <g style="fill: #9acd32" transform="translate(17.6928 92.079219)scale(0.125 -0.125)">
      <use xlink:href="#STIXGeneral-Regular-31" transform="translate(0 0.40625)"/>
      <use xlink:href="#STIXGeneral-Regular-32" transform="translate(49.999985 0.40625)"/>
      <use xlink:href="#STIXGeneral-Italic-56" transform="translate(99.999969 0.40625)"/>
     </g>
    </g>
   </g>
   <g id="text_10">
    <g clip-path="url(#p021d465de5)">
     <!-- 4Ω -->
     <g style="fill: #9acd32" transform="translate(92.540691 29.420391)scale(0.125 -0.125)">
      <use xlink:href="#DejaVuSans-Bold-34"/>
      <use xlink:href="#DejaVuSans-Bold-3a9" x="69.580078"/>
     </g>
    </g>
   </g>
   <g id="text_11">
    <g clip-path="url(#p021d465de5)">
     <!-- 6Ω -->
     <g transform="translate(118.068581 92.079219)scale(0.125 -0.125)">
      <use xlink:href="#DejaVuSans-Bold-36"/>
      <use xlink:href="#DejaVuSans-Bold-3a9" x="69.580078"/>
     </g>
    </g>
   </g>
   <g id="text_12">
    <g clip-path="url(#p021d465de5)">
     <!-- 3Ω -->
     <g transform="translate(209.868581 92.079219)scale(0.125 -0.125)">
      <use xlink:href="#DejaVuSans-Bold-33"/>
      <use xlink:href="#DejaVuSans-Bold-3a9" x="69.580078"/>
     </g>
    </g>
   </g>
   <g id="text_13">
    <g clip-path="url(#p021d465de5)">
     <!-- $12V/4Ω$ -->
     <g style="fill: #9acd32" transform="translate(312.3428 85.080586)scale(0.125 -0.125)">
      <use xlink:href="#STIXGeneral-Regular-31" transform="translate(0 0.40625)"/>
      <use xlink:href="#STIXGeneral-Regular-32" transform="translate(49.999985 0.40625)"/>
      <use xlink:href="#STIXGeneral-Italic-56" transform="translate(99.999969 0.40625)"/>
      <use xlink:href="#STIXGeneral-Regular-2f" transform="translate(161.09996 0.40625)"/>
      <use xlink:href="#STIXGeneral-Regular-34" transform="translate(188.899948 0.40625)"/>
      <use xlink:href="#STIXGeneral-Regular-3a9" transform="translate(238.899933 0.40625)"/>
     </g>
    </g>
    <g clip-path="url(#p021d465de5)">
     <!-- $=3A$ -->
     <g style="fill: #9acd32" transform="translate(325.4678 99.077852)scale(0.125 -0.125)">
      <use xlink:href="#STIXGeneral-Regular-3d" transform="translate(14.439996 0.40625)"/>
      <use xlink:href="#STIXGeneral-Regular-33" transform="translate(97.379977 0.40625)"/>
      <use xlink:href="#STIXGeneral-Italic-41" transform="translate(147.379962 0.40625)"/>
     </g>
    </g>
   </g>
   <g id="text_14">
    <g clip-path="url(#p021d465de5)">
     <!-- 4Ω -->
     <g style="fill: #9acd32" transform="translate(431.718581 92.079219)scale(0.125 -0.125)">
      <use xlink:href="#DejaVuSans-Bold-34"/>
      <use xlink:href="#DejaVuSans-Bold-3a9" x="69.580078"/>
     </g>
    </g>
   </g>
   <g id="text_15">
    <g clip-path="url(#p021d465de5)">
     <!-- 6Ω -->
     <g transform="translate(523.518581 92.079219)scale(0.125 -0.125)">
      <use xlink:href="#DejaVuSans-Bold-36"/>
      <use xlink:href="#DejaVuSans-Bold-3a9" x="69.580078"/>
     </g>
    </g>
   </g>
   <g id="text_16">
    <g clip-path="url(#p021d465de5)">
     <!-- 3Ω -->
     <g transform="translate(615.318581 92.079219)scale(0.125 -0.125)">
      <use xlink:href="#DejaVuSans-Bold-33"/>
      <use xlink:href="#DejaVuSans-Bold-3a9" x="69.580078"/>
     </g>
    </g>
   </g>
   <g id="line2d_41">
    <path d="M 239.9028 116.17 
L 239.9028 116.17 
" clip-path="url(#p021d465de5)" style="fill: none; stroke: #000000; stroke-width: 2; stroke-linecap: round"/>
   </g>
   <g id="patch_10">
    <path d="M 244.4928 116.17 
L 239.9028 125.35 
L 235.3128 116.17 
z
" clip-path="url(#p021d465de5)"/>
   </g>
   <g id="text_17">
    <g clip-path="url(#p021d465de5)">
     <!-- $I_{O}$ -->
     <g transform="translate(249.0828 124.209219)scale(0.125 -0.125)">
      <defs>
       <path id="STIXGeneral-Italic-49" d="M 2458 4179 
L 2458 4077 
Q 2189 4045 2102 3961 
Q 2016 3878 1933 3584 
L 1165 838 
Q 1069 499 1069 352 
Q 1069 224 1149 179 
Q 1229 134 1510 102 
L 1510 0 
L -51 0 
L -51 102 
Q 218 154 317 237 
Q 416 320 486 582 
L 1254 3405 
Q 1338 3699 1338 3802 
Q 1338 3930 1235 3997 
Q 1133 4064 877 4077 
L 877 4179 
L 2458 4179 
z
" transform="scale(0.015625)"/>
       <path id="STIXGeneral-Italic-4f" d="M 4474 2675 
Q 4474 1990 4106 1363 
Q 3738 736 3149 339 
Q 2477 -115 1779 -115 
Q 1146 -115 765 281 
Q 384 678 384 1382 
Q 384 1965 697 2582 
Q 1011 3200 1517 3642 
Q 2234 4262 3034 4262 
Q 3718 4269 4096 3840 
Q 4474 3411 4474 2675 
z
M 3802 3078 
Q 3802 3533 3581 3792 
Q 3360 4051 2976 4051 
Q 2342 4051 1786 3302 
Q 1446 2842 1251 2259 
Q 1056 1677 1056 1178 
Q 1056 653 1270 374 
Q 1485 96 1888 96 
Q 2477 96 2976 704 
Q 3354 1178 3578 1862 
Q 3802 2547 3802 3078 
z
" transform="scale(0.015625)"/>
      </defs>
      <use xlink:href="#STIXGeneral-Italic-49" transform="translate(0 0.703125)"/>
      <use xlink:href="#STIXGeneral-Italic-4f" transform="translate(33.299988 -12.525)scale(0.7)"/>
     </g>
    </g>
   </g>
   <g id="line2d_42">
    <path d="M 645.3528 116.17 
L 645.3528 116.17 
" clip-path="url(#p021d465de5)" style="fill: none; stroke: #000000; stroke-width: 2; stroke-linecap: round"/>
   </g>
   <g id="patch_11">
    <path d="M 649.9428 116.17 
L 645.3528 125.35 
L 640.7628 116.17 
z
" clip-path="url(#p021d465de5)"/>
   </g>
   <g id="text_18">
    <g clip-path="url(#p021d465de5)">
     <!-- $I_{O}$ -->
     <g transform="translate(654.5328 124.209219)scale(0.125 -0.125)">
      <use xlink:href="#STIXGeneral-Italic-49" transform="translate(0 0.703125)"/>
      <use xlink:href="#STIXGeneral-Italic-4f" transform="translate(33.299988 -12.525)scale(0.7)"/>
     </g>
    </g>
   </g>
   <g id="line2d_43">
    <path d="M 239.9028 116.17 
L 239.9028 116.17 
" clip-path="url(#p021d465de5)" style="fill: none; stroke: #000000; stroke-width: 2; stroke-linecap: round"/>
   </g>
   <g id="patch_12">
    <path d="M 244.4928 116.17 
L 239.9028 125.35 
L 235.3128 116.17 
z
" clip-path="url(#p021d465de5)"/>
   </g>
   <g id="text_19">
    <g clip-path="url(#p021d465de5)">
     <!-- $I_{O}$ -->
     <g transform="translate(249.0828 124.209219)scale(0.125 -0.125)">
      <use xlink:href="#STIXGeneral-Italic-49" transform="translate(0 0.703125)"/>
      <use xlink:href="#STIXGeneral-Italic-4f" transform="translate(33.299988 -12.525)scale(0.7)"/>
     </g>
    </g>
   </g>
   <g id="line2d_44">
    <path d="M 645.3528 116.17 
L 645.3528 116.17 
" clip-path="url(#p021d465de5)" style="fill: none; stroke: #000000; stroke-width: 2; stroke-linecap: round"/>
   </g>
   <g id="patch_13">
    <path d="M 649.9428 116.17 
L 645.3528 125.35 
L 640.7628 116.17 
z
" clip-path="url(#p021d465de5)"/>
   </g>
   <g id="text_20">
    <g clip-path="url(#p021d465de5)">
     <!-- $I_{O}$ -->
     <g transform="translate(654.5328 124.209219)scale(0.125 -0.125)">
      <use xlink:href="#STIXGeneral-Italic-49" transform="translate(0 0.703125)"/>
      <use xlink:href="#STIXGeneral-Italic-4f" transform="translate(33.299988 -12.525)scale(0.7)"/>
     </g>
    </g>
   </g>
  </g>
 </g>
 <defs>
  <clipPath id="p021d465de5">
   <rect x="7.2" y="7.2" width="678.8406" height="130.39"/>
  </clipPath>
 </defs>
</svg>
