<?xml version="1.0" encoding="utf-8" standalone="no"?>
<!DOCTYPE svg PUBLIC "-//W3C//DTD SVG 1.1//EN"
  "http://www.w3.org/Graphics/SVG/1.1/DTD/svg11.dtd">
<svg xmlns:xlink="http://www.w3.org/1999/xlink" width="256.3134pt" height="178.96pt" viewBox="0 0 256.3134 178.96" xmlns="http://www.w3.org/2000/svg" version="1.1">
 <metadata>
  <rdf:RDF xmlns:dc="http://purl.org/dc/elements/1.1/" xmlns:cc="http://creativecommons.org/ns#" xmlns:rdf="http://www.w3.org/1999/02/22-rdf-syntax-ns#">
   <cc:Work>
    <dc:type rdf:resource="http://purl.org/dc/dcmitype/StillImage"/>
    <dc:date>2023-05-23T08:01:13.638515</dc:date>
    <dc:format>image/svg+xml</dc:format>
    <dc:creator>
     <cc:Agent>
      <dc:title>Matplotlib v3.5.2, https://matplotlib.org/</dc:title>
     </cc:Agent>
    </dc:creator>
   </cc:Work>
  </rdf:RDF>
 </metadata>
 <defs>
  <style type="text/css">*{stroke-linejoin: round; stroke-linecap: butt}</style>
 </defs>
 <g id="figure_1">
  <g id="patch_1">
   <path d="M 0 178.96 
L 256.3134 178.96 
L 256.3134 0 
L 0 0 
L 0 178.96 
z
" style="fill: none"/>
  </g>
  <g id="axes_1">
   <g id="patch_2">
    <path d="M 151.9584 118.21 
C 156.016007 118.21 159.907972 116.597895 162.777134 113.728734 
C 165.646295 110.859572 167.2584 106.967607 167.2584 102.91 
C 167.2584 98.852393 165.646295 94.960428 162.777134 92.091266 
C 159.907972 89.222105 156.016007 87.61 151.9584 87.61 
C 147.900793 87.61 144.008828 89.222105 141.139666 92.091266 
C 138.270505 94.960428 136.6584 98.852393 136.6584 102.91 
C 136.6584 106.967607 138.270505 110.859572 141.139666 113.728734 
C 144.008828 116.597895 147.900793 118.21 151.9584 118.21 
L 151.9584 118.21 
z
" clip-path="url(#p515215f731)" style="fill: none; stroke: #000000; stroke-width: 2; stroke-linejoin: miter"/>
   </g>
   <g id="patch_3">
    <path d="M 151.9584 118.21 
C 156.016007 118.21 159.907972 116.597895 162.777134 113.728734 
C 165.646295 110.859572 167.2584 106.967607 167.2584 102.91 
C 167.2584 98.852393 165.646295 94.960428 162.777134 92.091266 
C 159.907972 89.222105 156.016007 87.61 151.9584 87.61 
C 147.900793 87.61 144.008828 89.222105 141.139666 92.091266 
C 138.270505 94.960428 136.6584 98.852393 136.6584 102.91 
C 136.6584 106.967607 138.270505 110.859572 141.139666 113.728734 
C 144.008828 116.597895 147.900793 118.21 151.9584 118.21 
L 151.9584 118.21 
z
" clip-path="url(#p515215f731)" style="fill: none; stroke: #000000; stroke-width: 2; stroke-linejoin: miter"/>
   </g>
   <g id="line2d_1">
    <path d="M 60.1584 148.81 
L 60.1584 118.21 
L 44.8584 102.91 
L 60.1584 87.61 
L 75.4584 102.91 
L 60.1584 118.21 
M 60.1584 87.61 
L 60.1584 57.01 
" clip-path="url(#p515215f731)" style="fill: none; stroke: #000000; stroke-width: 2; stroke-linecap: round"/>
   </g>
   <g id="line2d_2">
    <path d="M 63.2184 110.56 
L 57.0984 110.56 
" clip-path="url(#p515215f731)" style="fill: none; stroke: #000000; stroke-width: 2; stroke-linecap: round"/>
   </g>
   <g id="line2d_3">
    <path d="M 60.1584 98.32 
L 60.1584 92.2 
" clip-path="url(#p515215f731)" style="fill: none; stroke: #000000; stroke-width: 2; stroke-linecap: round"/>
   </g>
   <g id="line2d_4">
    <path d="M 63.2184 95.26 
L 57.0984 95.26 
" clip-path="url(#p515215f731)" style="fill: none; stroke: #000000; stroke-width: 2; stroke-linecap: round"/>
   </g>
   <g id="line2d_5">
    <path d="M 60.1584 57.01 
L 90.7584 57.01 
L 93.3084 49.36 
L 98.4084 64.66 
L 103.5084 49.36 
L 108.6084 64.66 
L 113.7084 49.36 
L 118.8084 64.66 
L 121.3584 57.01 
L 151.9584 57.01 
" clip-path="url(#p515215f731)" style="fill: none; stroke: #000000; stroke-width: 2; stroke-linecap: round"/>
   </g>
   <g id="line2d_6">
    <path d="M 151.9584 57.01 
L 182.5584 57.01 
L 185.1084 49.36 
L 190.2084 64.66 
L 195.3084 49.36 
L 200.4084 64.66 
L 205.5084 49.36 
L 210.6084 64.66 
L 213.1584 57.01 
L 243.7584 57.01 
" clip-path="url(#p515215f731)" style="fill: none; stroke: #000000; stroke-width: 2; stroke-linecap: round"/>
   </g>
   <g id="line2d_7">
    <path d="M 243.7584 57.01 
L 243.7584 68.485 
L 243.7584 79.96 
" clip-path="url(#p515215f731)" style="fill: none; stroke: #000000; stroke-width: 2; stroke-linecap: round"/>
   </g>
   <g id="line2d_8">
    <path d="M 243.7584 79.96 
L 243.7584 102.91 
L 243.7584 125.86 
" clip-path="url(#p515215f731)" style="fill: none; stroke: #000000; stroke-width: 2; stroke-linecap: round"/>
   </g>
   <g id="line2d_9">
    <path d="M 243.7584 125.86 
L 243.7584 137.335 
L 243.7584 148.81 
" clip-path="url(#p515215f731)" style="fill: none; stroke: #000000; stroke-width: 2; stroke-linecap: round"/>
   </g>
   <g id="line2d_10">
    <path d="M 243.7584 148.81 
L 151.9584 148.81 
L 60.1584 148.81 
" clip-path="url(#p515215f731)" style="fill: none; stroke: #000000; stroke-width: 2; stroke-linecap: round"/>
   </g>
   <g id="line2d_11">
    <path d="M 60.1584 148.81 
L 60.1584 161.05 
L 52.5084 161.05 
L 60.1584 168.7 
L 67.8084 161.05 
L 60.1584 161.05 
" clip-path="url(#p515215f731)" style="fill: none; stroke: #000000; stroke-width: 2; stroke-linecap: round"/>
   </g>
   <g id="line2d_12">
    <path d="M 151.9584 57.01 
L 151.9584 87.61 
L 151.9584 87.61 
M 151.9584 118.21 
L 151.9584 118.21 
L 151.9584 148.81 
" clip-path="url(#p515215f731)" style="fill: none; stroke: #000000; stroke-width: 2; stroke-linecap: round"/>
   </g>
   <g id="line2d_13">
    <path d="M 151.9584 102.91 
L 151.9584 110.56 
" clip-path="url(#p515215f731)" style="fill: none; stroke: #000000; stroke-width: 2; stroke-linecap: round"/>
   </g>
   <g id="patch_4">
    <path d="M 149.6634 102.91 
L 151.9584 95.26 
L 154.2534 102.91 
z
" clip-path="url(#p515215f731)"/>
   </g>
   <g id="line2d_14">
    <path d="M 60.1584 148.81 
L 60.1584 118.21 
L 44.8584 102.91 
L 60.1584 87.61 
L 75.4584 102.91 
L 60.1584 118.21 
M 60.1584 87.61 
L 60.1584 57.01 
" clip-path="url(#p515215f731)" style="fill: none; stroke: #000000; stroke-width: 2; stroke-linecap: round"/>
   </g>
   <g id="line2d_15">
    <path d="M 63.2184 110.56 
L 57.0984 110.56 
" clip-path="url(#p515215f731)" style="fill: none; stroke: #000000; stroke-width: 2; stroke-linecap: round"/>
   </g>
   <g id="line2d_16">
    <path d="M 60.1584 98.32 
L 60.1584 92.2 
" clip-path="url(#p515215f731)" style="fill: none; stroke: #000000; stroke-width: 2; stroke-linecap: round"/>
   </g>
   <g id="line2d_17">
    <path d="M 63.2184 95.26 
L 57.0984 95.26 
" clip-path="url(#p515215f731)" style="fill: none; stroke: #000000; stroke-width: 2; stroke-linecap: round"/>
   </g>
   <g id="line2d_18">
    <path d="M 60.1584 57.01 
L 90.7584 57.01 
L 93.3084 49.36 
L 98.4084 64.66 
L 103.5084 49.36 
L 108.6084 64.66 
L 113.7084 49.36 
L 118.8084 64.66 
L 121.3584 57.01 
L 151.9584 57.01 
" clip-path="url(#p515215f731)" style="fill: none; stroke: #000000; stroke-width: 2; stroke-linecap: round"/>
   </g>
   <g id="line2d_19">
    <path d="M 151.9584 57.01 
L 182.5584 57.01 
L 185.1084 49.36 
L 190.2084 64.66 
L 195.3084 49.36 
L 200.4084 64.66 
L 205.5084 49.36 
L 210.6084 64.66 
L 213.1584 57.01 
L 243.7584 57.01 
" clip-path="url(#p515215f731)" style="fill: none; stroke: #000000; stroke-width: 2; stroke-linecap: round"/>
   </g>
   <g id="line2d_20">
    <path d="M 243.7584 57.01 
L 243.7584 68.485 
L 243.7584 79.96 
" clip-path="url(#p515215f731)" style="fill: none; stroke: #000000; stroke-width: 2; stroke-linecap: round"/>
   </g>
   <g id="line2d_21">
    <path d="M 243.7584 79.96 
L 243.7584 102.91 
L 243.7584 125.86 
" clip-path="url(#p515215f731)" style="fill: none; stroke: #000000; stroke-width: 2; stroke-linecap: round"/>
   </g>
   <g id="line2d_22">
    <path d="M 243.7584 125.86 
L 243.7584 137.335 
L 243.7584 148.81 
" clip-path="url(#p515215f731)" style="fill: none; stroke: #000000; stroke-width: 2; stroke-linecap: round"/>
   </g>
   <g id="line2d_23">
    <path d="M 243.7584 148.81 
L 151.9584 148.81 
L 60.1584 148.81 
" clip-path="url(#p515215f731)" style="fill: none; stroke: #000000; stroke-width: 2; stroke-linecap: round"/>
   </g>
   <g id="line2d_24">
    <path d="M 60.1584 148.81 
L 60.1584 161.05 
L 52.5084 161.05 
L 60.1584 168.7 
L 67.8084 161.05 
L 60.1584 161.05 
" clip-path="url(#p515215f731)" style="fill: none; stroke: #000000; stroke-width: 2; stroke-linecap: round"/>
   </g>
   <g id="line2d_25">
    <path d="M 151.9584 57.01 
L 151.9584 87.61 
L 151.9584 87.61 
M 151.9584 118.21 
L 151.9584 118.21 
L 151.9584 148.81 
" clip-path="url(#p515215f731)" style="fill: none; stroke: #000000; stroke-width: 2; stroke-linecap: round"/>
   </g>
   <g id="line2d_26">
    <path d="M 151.9584 102.91 
L 151.9584 110.56 
" clip-path="url(#p515215f731)" style="fill: none; stroke: #000000; stroke-width: 2; stroke-linecap: round"/>
   </g>
   <g id="patch_5">
    <path d="M 149.6634 102.91 
L 151.9584 95.26 
L 154.2534 102.91 
z
" clip-path="url(#p515215f731)"/>
   </g>
   <g id="text_1">
    <g clip-path="url(#p515215f731)">
     <!-- $V_{S1}$ -->
     <g transform="translate(24.7984 99.360586)scale(0.125 -0.125)">
      <defs>
       <path id="STIXGeneral-Italic-56" d="M 4403 4179 
L 4403 4077 
Q 4198 4070 4045 3821 
L 1658 -115 
L 1536 -115 
L 1011 3104 
Q 902 3776 828 3910 
Q 755 4045 486 4077 
L 486 4179 
L 2022 4179 
L 2022 4077 
Q 1722 4045 1629 3981 
Q 1536 3917 1536 3750 
Q 1536 3686 1542 3654 
L 1958 819 
L 3302 3123 
Q 3616 3661 3616 3859 
Q 3616 4032 3219 4077 
L 3219 4179 
L 4403 4179 
z
" transform="scale(0.015625)"/>
       <path id="STIXGeneral-Italic-53" d="M 3251 4269 
L 2995 2989 
L 2880 3008 
Q 2880 3539 2720 3795 
Q 2560 4051 2118 4051 
Q 1786 4051 1594 3881 
Q 1402 3712 1402 3411 
Q 1402 3168 1504 3005 
Q 1606 2842 2035 2413 
Q 2464 1978 2611 1715 
Q 2758 1453 2758 1133 
Q 2758 589 2390 237 
Q 2022 -115 1466 -115 
Q 1222 -115 800 32 
Q 595 109 499 109 
Q 288 109 224 -96 
L 109 -96 
L 326 1338 
L 454 1325 
Q 442 1267 442 1178 
Q 442 710 701 409 
Q 960 109 1363 109 
Q 1734 109 1968 336 
Q 2202 563 2202 928 
Q 2202 1139 2118 1308 
Q 2035 1478 1818 1715 
L 1568 1984 
Q 1549 2003 1459 2102 
Q 1370 2202 1318 2253 
Q 1030 2560 934 2755 
Q 838 2950 838 3213 
Q 838 3699 1168 3980 
Q 1498 4262 1978 4262 
Q 2310 4262 2522 4173 
Q 2707 4102 2816 4102 
Q 2925 4102 2982 4134 
Q 3040 4166 3104 4269 
L 3251 4269 
z
" transform="scale(0.015625)"/>
       <path id="STIXGeneral-Regular-31" d="M 2522 0 
L 755 0 
L 755 96 
Q 1107 115 1235 227 
Q 1363 339 1363 608 
L 1363 3482 
Q 1363 3795 1171 3795 
Q 1082 3795 883 3718 
L 710 3654 
L 710 3744 
L 1856 4326 
L 1914 4307 
L 1914 486 
Q 1914 275 2042 185 
Q 2170 96 2522 96 
L 2522 0 
z
" transform="scale(0.015625)"/>
      </defs>
      <use xlink:href="#STIXGeneral-Italic-56" transform="translate(0 0.703125)"/>
      <use xlink:href="#STIXGeneral-Italic-53" transform="translate(61.099991 -12.525)scale(0.7)"/>
      <use xlink:href="#STIXGeneral-Regular-31" transform="translate(96.09998 -12.525)scale(0.7)"/>
     </g>
    </g>
    <g clip-path="url(#p515215f731)">
     <!-- $2I_O$ -->
     <g transform="translate(24.4234 113.357852)scale(0.125 -0.125)">
      <defs>
       <path id="STIXGeneral-Regular-32" d="M 3034 877 
L 2688 0 
L 186 0 
L 186 77 
L 1325 1286 
Q 1773 1754 1965 2144 
Q 2157 2534 2157 2950 
Q 2157 3379 1920 3616 
Q 1683 3853 1267 3853 
Q 922 3853 720 3673 
Q 518 3494 326 3021 
L 192 3053 
Q 301 3648 630 3987 
Q 960 4326 1523 4326 
Q 2054 4326 2380 4006 
Q 2707 3686 2707 3200 
Q 2707 2477 1888 1613 
L 832 486 
L 2330 486 
Q 2541 486 2665 569 
Q 2790 653 2944 915 
L 3034 877 
z
" transform="scale(0.015625)"/>
       <path id="STIXGeneral-Italic-49" d="M 2458 4179 
L 2458 4077 
Q 2189 4045 2102 3961 
Q 2016 3878 1933 3584 
L 1165 838 
Q 1069 499 1069 352 
Q 1069 224 1149 179 
Q 1229 134 1510 102 
L 1510 0 
L -51 0 
L -51 102 
Q 218 154 317 237 
Q 416 320 486 582 
L 1254 3405 
Q 1338 3699 1338 3802 
Q 1338 3930 1235 3997 
Q 1133 4064 877 4077 
L 877 4179 
L 2458 4179 
z
" transform="scale(0.015625)"/>
       <path id="STIXGeneral-Italic-4f" d="M 4474 2675 
Q 4474 1990 4106 1363 
Q 3738 736 3149 339 
Q 2477 -115 1779 -115 
Q 1146 -115 765 281 
Q 384 678 384 1382 
Q 384 1965 697 2582 
Q 1011 3200 1517 3642 
Q 2234 4262 3034 4262 
Q 3718 4269 4096 3840 
Q 4474 3411 4474 2675 
z
M 3802 3078 
Q 3802 3533 3581 3792 
Q 3360 4051 2976 4051 
Q 2342 4051 1786 3302 
Q 1446 2842 1251 2259 
Q 1056 1677 1056 1178 
Q 1056 653 1270 374 
Q 1485 96 1888 96 
Q 2477 96 2976 704 
Q 3354 1178 3578 1862 
Q 3802 2547 3802 3078 
z
" transform="scale(0.015625)"/>
      </defs>
      <use xlink:href="#STIXGeneral-Regular-32" transform="translate(0 0.40625)"/>
      <use xlink:href="#STIXGeneral-Italic-49" transform="translate(49.999985 0.40625)"/>
      <use xlink:href="#STIXGeneral-Italic-4f" transform="translate(83.299973 -12.821875)scale(0.7)"/>
     </g>
    </g>
   </g>
   <g id="text_2">
    <g clip-path="url(#p515215f731)">
     <!-- $R_{1}$ -->
     <g transform="translate(99.7459 29.703125)scale(0.125 -0.125)">
      <defs>
       <path id="STIXGeneral-Italic-52" d="M 845 4179 
L 2458 4179 
Q 3078 4179 3420 3936 
Q 3763 3693 3763 3277 
Q 3763 2778 3341 2458 
Q 3091 2266 2502 2131 
L 3072 627 
Q 3181 333 3299 217 
Q 3418 102 3629 102 
L 3629 0 
L 2688 0 
L 1901 2074 
L 1478 2106 
L 1126 806 
Q 1043 512 1043 403 
Q 1043 256 1126 192 
Q 1210 128 1472 102 
L 1472 0 
L -83 0 
L -83 102 
Q 173 134 278 243 
Q 384 352 461 646 
L 1222 3405 
Q 1299 3699 1299 3808 
Q 1299 3923 1210 3987 
Q 1133 4038 845 4077 
L 845 4179 
z
M 1958 3795 
L 1555 2342 
Q 1754 2310 1882 2310 
Q 2451 2310 2771 2566 
Q 3091 2822 3091 3270 
Q 3091 3603 2892 3795 
Q 2694 3987 2323 3987 
Q 2010 3987 1958 3795 
z
" transform="scale(0.015625)"/>
      </defs>
      <use xlink:href="#STIXGeneral-Italic-52" transform="translate(0 0.703125)"/>
      <use xlink:href="#STIXGeneral-Regular-31" transform="translate(61.099991 -12.525)scale(0.7)"/>
     </g>
    </g>
    <g clip-path="url(#p515215f731)">
     <!-- 12立 -->
     <g transform="translate(93.328908 43.700391)scale(0.125 -0.125)">
      <defs>
       <path id="DejaVuSans-31" d="M 794 531 
L 1825 531 
L 1825 4091 
L 703 3866 
L 703 4441 
L 1819 4666 
L 2450 4666 
L 2450 531 
L 3481 531 
L 3481 0 
L 794 0 
L 794 531 
z
" transform="scale(0.015625)"/>
       <path id="DejaVuSans-32" d="M 1228 531 
L 3431 531 
L 3431 0 
L 469 0 
L 469 531 
Q 828 903 1448 1529 
Q 2069 2156 2228 2338 
Q 2531 2678 2651 2914 
Q 2772 3150 2772 3378 
Q 2772 3750 2511 3984 
Q 2250 4219 1831 4219 
Q 1534 4219 1204 4116 
Q 875 4013 500 3803 
L 500 4441 
Q 881 4594 1212 4672 
Q 1544 4750 1819 4750 
Q 2544 4750 2975 4387 
Q 3406 4025 3406 3419 
Q 3406 3131 3298 2873 
Q 3191 2616 2906 2266 
Q 2828 2175 2409 1742 
Q 1991 1309 1228 531 
z
" transform="scale(0.015625)"/>
       <path id="DejaVuSans-3a9" d="M 4647 556 
L 4647 0 
L 2772 0 
L 2772 556 
Q 3325 859 3634 1378 
Q 3944 1897 3944 2528 
Q 3944 3278 3531 3731 
Q 3119 4184 2444 4184 
Q 1769 4184 1355 3729 
Q 941 3275 941 2528 
Q 941 1897 1250 1378 
Q 1563 859 2119 556 
L 2119 0 
L 244 0 
L 244 556 
L 1241 556 
Q 747 991 519 1456 
Q 294 1922 294 2497 
Q 294 3491 894 4106 
Q 1491 4722 2444 4722 
Q 3391 4722 3994 4106 
Q 4594 3494 4594 2528 
Q 4594 1922 4372 1459 
Q 4150 997 3647 556 
L 4647 556 
z
" transform="scale(0.015625)"/>
      </defs>
      <use xlink:href="#DejaVuSans-31"/>
      <use xlink:href="#DejaVuSans-32" x="63.623047"/>
      <use xlink:href="#DejaVuSans-3a9" x="127.246094"/>
     </g>
    </g>
   </g>
   <g id="text_3">
    <g clip-path="url(#p515215f731)">
     <!-- $R_{2}$ -->
     <g transform="translate(191.5459 29.703125)scale(0.125 -0.125)">
      <use xlink:href="#STIXGeneral-Italic-52" transform="translate(0 0.703125)"/>
      <use xlink:href="#STIXGeneral-Regular-32" transform="translate(61.099991 -12.525)scale(0.7)"/>
     </g>
    </g>
    <g clip-path="url(#p515215f731)">
     <!-- 6立 -->
     <g transform="translate(189.10547 43.700391)scale(0.125 -0.125)">
      <defs>
       <path id="DejaVuSans-36" d="M 2113 2584 
Q 1688 2584 1439 2293 
Q 1191 2003 1191 1497 
Q 1191 994 1439 701 
Q 1688 409 2113 409 
Q 2538 409 2786 701 
Q 3034 994 3034 1497 
Q 3034 2003 2786 2293 
Q 2538 2584 2113 2584 
z
M 3366 4563 
L 3366 3988 
Q 3128 4100 2886 4159 
Q 2644 4219 2406 4219 
Q 1781 4219 1451 3797 
Q 1122 3375 1075 2522 
Q 1259 2794 1537 2939 
Q 1816 3084 2150 3084 
Q 2853 3084 3261 2657 
Q 3669 2231 3669 1497 
Q 3669 778 3244 343 
Q 2819 -91 2113 -91 
Q 1303 -91 875 529 
Q 447 1150 447 2328 
Q 447 3434 972 4092 
Q 1497 4750 2381 4750 
Q 2619 4750 2861 4703 
Q 3103 4656 3366 4563 
z
" transform="scale(0.015625)"/>
      </defs>
      <use xlink:href="#DejaVuSans-36"/>
      <use xlink:href="#DejaVuSans-3a9" x="63.623047"/>
     </g>
    </g>
   </g>
   <g id="text_4">
    <g clip-path="url(#p515215f731)">
     <!-- $I_{S}$ -->
     <g transform="translate(124.4734 99.360586)scale(0.125 -0.125)">
      <use xlink:href="#STIXGeneral-Italic-49" transform="translate(0 0.703125)"/>
      <use xlink:href="#STIXGeneral-Italic-53" transform="translate(33.299988 -12.525)scale(0.7)"/>
     </g>
    </g>
    <g clip-path="url(#p515215f731)">
     <!-- 2A -->
     <g transform="translate(117.094494 113.357852)scale(0.125 -0.125)">
      <defs>
       <path id="DejaVuSans-41" d="M 2188 4044 
L 1331 1722 
L 3047 1722 
L 2188 4044 
z
M 1831 4666 
L 2547 4666 
L 4325 0 
L 3669 0 
L 3244 1197 
L 1141 1197 
L 716 0 
L 50 0 
L 1831 4666 
z
" transform="scale(0.015625)"/>
      </defs>
      <use xlink:href="#DejaVuSans-32"/>
      <use xlink:href="#DejaVuSans-41" x="63.623047"/>
     </g>
    </g>
   </g>
   <g id="text_5">
    <g clip-path="url(#p515215f731)">
     <!-- $V_{S1}$ -->
     <g transform="translate(24.7984 99.360586)scale(0.125 -0.125)">
      <use xlink:href="#STIXGeneral-Italic-56" transform="translate(0 0.703125)"/>
      <use xlink:href="#STIXGeneral-Italic-53" transform="translate(61.099991 -12.525)scale(0.7)"/>
      <use xlink:href="#STIXGeneral-Regular-31" transform="translate(96.09998 -12.525)scale(0.7)"/>
     </g>
    </g>
    <g clip-path="url(#p515215f731)">
     <!-- $2I_O$ -->
     <g transform="translate(24.4234 113.357852)scale(0.125 -0.125)">
      <use xlink:href="#STIXGeneral-Regular-32" transform="translate(0 0.40625)"/>
      <use xlink:href="#STIXGeneral-Italic-49" transform="translate(49.999985 0.40625)"/>
      <use xlink:href="#STIXGeneral-Italic-4f" transform="translate(83.299973 -12.821875)scale(0.7)"/>
     </g>
    </g>
   </g>
   <g id="text_6">
    <g clip-path="url(#p515215f731)">
     <!-- $R_{1}$ -->
     <g transform="translate(99.7459 29.703125)scale(0.125 -0.125)">
      <use xlink:href="#STIXGeneral-Italic-52" transform="translate(0 0.703125)"/>
      <use xlink:href="#STIXGeneral-Regular-31" transform="translate(61.099991 -12.525)scale(0.7)"/>
     </g>
    </g>
    <g clip-path="url(#p515215f731)">
     <!-- 12立 -->
     <g transform="translate(93.328908 43.700391)scale(0.125 -0.125)">
      <use xlink:href="#DejaVuSans-31"/>
      <use xlink:href="#DejaVuSans-32" x="63.623047"/>
      <use xlink:href="#DejaVuSans-3a9" x="127.246094"/>
     </g>
    </g>
   </g>
   <g id="text_7">
    <g clip-path="url(#p515215f731)">
     <!-- $R_{2}$ -->
     <g transform="translate(191.5459 29.703125)scale(0.125 -0.125)">
      <use xlink:href="#STIXGeneral-Italic-52" transform="translate(0 0.703125)"/>
      <use xlink:href="#STIXGeneral-Regular-32" transform="translate(61.099991 -12.525)scale(0.7)"/>
     </g>
    </g>
    <g clip-path="url(#p515215f731)">
     <!-- 6立 -->
     <g transform="translate(189.10547 43.700391)scale(0.125 -0.125)">
      <use xlink:href="#DejaVuSans-36"/>
      <use xlink:href="#DejaVuSans-3a9" x="63.623047"/>
     </g>
    </g>
   </g>
   <g id="text_8">
    <g clip-path="url(#p515215f731)">
     <!-- $I_{S}$ -->
     <g transform="translate(124.4734 99.360586)scale(0.125 -0.125)">
      <use xlink:href="#STIXGeneral-Italic-49" transform="translate(0 0.703125)"/>
      <use xlink:href="#STIXGeneral-Italic-53" transform="translate(33.299988 -12.525)scale(0.7)"/>
     </g>
    </g>
    <g clip-path="url(#p515215f731)">
     <!-- 2A -->
     <g transform="translate(117.094494 113.357852)scale(0.125 -0.125)">
      <use xlink:href="#DejaVuSans-32"/>
      <use xlink:href="#DejaVuSans-41" x="63.623047"/>
     </g>
    </g>
   </g>
   <g id="patch_6">
    <path d="M 243.7584 82.255 
C 244.367041 82.255 244.950836 82.013184 245.38121 81.58281 
C 245.811584 81.152436 246.0534 80.568641 246.0534 79.96 
C 246.0534 79.351359 245.811584 78.767564 245.38121 78.33719 
C 244.950836 77.906816 244.367041 77.665 243.7584 77.665 
C 243.149759 77.665 242.565964 77.906816 242.13559 78.33719 
C 241.705216 78.767564 241.4634 79.351359 241.4634 79.96 
C 241.4634 80.568641 241.705216 81.152436 242.13559 81.58281 
C 242.565964 82.013184 243.149759 82.255 243.7584 82.255 
z
" clip-path="url(#p515215f731)" style="stroke: #000000; stroke-width: 2; stroke-linejoin: miter"/>
   </g>
   <g id="patch_7">
    <path d="M 243.7584 128.155 
C 244.367041 128.155 244.950836 127.913184 245.38121 127.48281 
C 245.811584 127.052436 246.0534 126.468641 246.0534 125.86 
C 246.0534 125.251359 245.811584 124.667564 245.38121 124.23719 
C 244.950836 123.806816 244.367041 123.565 243.7584 123.565 
C 243.149759 123.565 242.565964 123.806816 242.13559 124.23719 
C 241.705216 124.667564 241.4634 125.251359 241.4634 125.86 
C 241.4634 126.468641 241.705216 127.052436 242.13559 127.48281 
C 242.565964 127.913184 243.149759 128.155 243.7584 128.155 
z
" clip-path="url(#p515215f731)" style="stroke: #000000; stroke-width: 2; stroke-linejoin: miter"/>
   </g>
   <g id="line2d_27">
    <path d="M 170.3184 57.01 
L 170.3184 57.01 
" clip-path="url(#p515215f731)" style="fill: none; stroke: #000000; stroke-width: 2; stroke-linecap: round"/>
   </g>
   <g id="patch_8">
    <path d="M 170.3184 61.6 
L 161.1384 57.01 
L 170.3184 52.42 
z
" clip-path="url(#p515215f731)"/>
   </g>
   <g id="text_9">
    <g clip-path="url(#p515215f731)">
     <!-- $I_O^{(1)}$ -->
     <g transform="translate(157.6034 44.33)scale(0.125 -0.125)">
      <defs>
       <path id="STIXGeneral-Regular-28" d="M 1946 -1030 
L 1869 -1133 
Q 1126 -710 716 32 
Q 307 774 307 1613 
Q 307 3386 1888 4326 
L 1946 4224 
Q 1293 3667 1075 3126 
Q 858 2586 858 1632 
Q 858 685 1082 96 
Q 1306 -493 1946 -1030 
z
" transform="scale(0.015625)"/>
       <path id="STIXGeneral-Regular-29" d="M 186 4224 
L 262 4326 
Q 992 3891 1408 3148 
Q 1824 2406 1824 1581 
Q 1824 -166 243 -1133 
L 186 -1030 
Q 845 -486 1059 54 
Q 1274 595 1274 1562 
Q 1274 2534 1059 3120 
Q 845 3706 186 4224 
z
" transform="scale(0.015625)"/>
      </defs>
      <use xlink:href="#STIXGeneral-Italic-49" transform="translate(0 0.55625)"/>
      <use xlink:href="#STIXGeneral-Regular-28" transform="translate(43.925769 45.684375)scale(0.7)"/>
      <use xlink:href="#STIXGeneral-Regular-31" transform="translate(67.23576 45.684375)scale(0.7)"/>
      <use xlink:href="#STIXGeneral-Regular-29" transform="translate(102.23575 45.684375)scale(0.7)"/>
      <use xlink:href="#STIXGeneral-Italic-4f" transform="translate(33.299988 -25.9)scale(0.7)"/>
     </g>
    </g>
   </g>
   <g id="patch_9">
    <path d="M 243.7584 82.255 
C 244.367041 82.255 244.950836 82.013184 245.38121 81.58281 
C 245.811584 81.152436 246.0534 80.568641 246.0534 79.96 
C 246.0534 79.351359 245.811584 78.767564 245.38121 78.33719 
C 244.950836 77.906816 244.367041 77.665 243.7584 77.665 
C 243.149759 77.665 242.565964 77.906816 242.13559 78.33719 
C 241.705216 78.767564 241.4634 79.351359 241.4634 79.96 
C 241.4634 80.568641 241.705216 81.152436 242.13559 81.58281 
C 242.565964 82.013184 243.149759 82.255 243.7584 82.255 
z
" clip-path="url(#p515215f731)" style="stroke: #000000; stroke-width: 2; stroke-linejoin: miter"/>
   </g>
   <g id="patch_10">
    <path d="M 243.7584 128.155 
C 244.367041 128.155 244.950836 127.913184 245.38121 127.48281 
C 245.811584 127.052436 246.0534 126.468641 246.0534 125.86 
C 246.0534 125.251359 245.811584 124.667564 245.38121 124.23719 
C 244.950836 123.806816 244.367041 123.565 243.7584 123.565 
C 243.149759 123.565 242.565964 123.806816 242.13559 124.23719 
C 241.705216 124.667564 241.4634 125.251359 241.4634 125.86 
C 241.4634 126.468641 241.705216 127.052436 242.13559 127.48281 
C 242.565964 127.913184 243.149759 128.155 243.7584 128.155 
z
" clip-path="url(#p515215f731)" style="stroke: #000000; stroke-width: 2; stroke-linejoin: miter"/>
   </g>
   <g id="line2d_28">
    <path d="M 170.3184 57.01 
L 170.3184 57.01 
" clip-path="url(#p515215f731)" style="fill: none; stroke: #000000; stroke-width: 2; stroke-linecap: round"/>
   </g>
   <g id="patch_11">
    <path d="M 170.3184 61.6 
L 161.1384 57.01 
L 170.3184 52.42 
z
" clip-path="url(#p515215f731)"/>
   </g>
   <g id="text_10">
    <g clip-path="url(#p515215f731)">
     <!-- $I_O^{(1)}$ -->
     <g transform="translate(157.6034 44.33)scale(0.125 -0.125)">
      <use xlink:href="#STIXGeneral-Italic-49" transform="translate(0 0.55625)"/>
      <use xlink:href="#STIXGeneral-Regular-28" transform="translate(43.925769 45.684375)scale(0.7)"/>
      <use xlink:href="#STIXGeneral-Regular-31" transform="translate(67.23576 45.684375)scale(0.7)"/>
      <use xlink:href="#STIXGeneral-Regular-29" transform="translate(102.23575 45.684375)scale(0.7)"/>
      <use xlink:href="#STIXGeneral-Italic-4f" transform="translate(33.299988 -25.9)scale(0.7)"/>
     </g>
    </g>
   </g>
  </g>
 </g>
 <defs>
  <clipPath id="p515215f731">
   <rect x="7.2" y="7.2" width="241.9134" height="164.56"/>
  </clipPath>
 </defs>
</svg>
