<?xml version="1.0" encoding="utf-8" standalone="no"?>
<!DOCTYPE svg PUBLIC "-//W3C//DTD SVG 1.1//EN"
  "http://www.w3.org/Graphics/SVG/1.1/DTD/svg11.dtd">
<svg xmlns:xlink="http://www.w3.org/1999/xlink" width="257.568pt" height="270.76pt" viewBox="0 0 257.568 270.76" xmlns="http://www.w3.org/2000/svg" version="1.1">
 <metadata>
  <rdf:RDF xmlns:dc="http://purl.org/dc/elements/1.1/" xmlns:cc="http://creativecommons.org/ns#" xmlns:rdf="http://www.w3.org/1999/02/22-rdf-syntax-ns#">
   <cc:Work>
    <dc:type rdf:resource="http://purl.org/dc/dcmitype/StillImage"/>
    <dc:date>2023-06-28T14:18:19.490310</dc:date>
    <dc:format>image/svg+xml</dc:format>
    <dc:creator>
     <cc:Agent>
      <dc:title>Matplotlib v3.5.2, https://matplotlib.org/</dc:title>
     </cc:Agent>
    </dc:creator>
   </cc:Work>
  </rdf:RDF>
 </metadata>
 <defs>
  <style type="text/css">*{stroke-linejoin: round; stroke-linecap: butt}</style>
 </defs>
 <g id="figure_1">
  <g id="patch_1">
   <path d="M 0 270.76 
L 257.568 270.76 
L 257.568 0 
L 0 0 
L 0 270.76 
z
" style="fill: none"/>
  </g>
  <g id="axes_1">
   <g id="patch_2">
    <path d="M 155.61 164.11 
C 159.667607 164.11 163.559572 162.497895 166.428734 159.628734 
C 169.297895 156.759572 170.91 152.867607 170.91 148.81 
C 170.91 144.752393 169.297895 140.860428 166.428734 137.991266 
C 163.559572 135.122105 159.667607 133.51 155.61 133.51 
C 151.552393 133.51 147.660428 135.122105 144.791266 137.991266 
C 141.922105 140.860428 140.31 144.752393 140.31 148.81 
C 140.31 152.867607 141.922105 156.759572 144.791266 159.628734 
C 147.660428 162.497895 151.552393 164.11 155.61 164.11 
L 155.61 164.11 
z
" clip-path="url(#p5774804f1b)" style="fill: none; stroke: #000000; stroke-width: 2; stroke-linejoin: miter"/>
   </g>
   <g id="patch_3">
    <path d="M 155.61 164.11 
C 159.667607 164.11 163.559572 162.497895 166.428734 159.628734 
C 169.297895 156.759572 170.91 152.867607 170.91 148.81 
C 170.91 144.752393 169.297895 140.860428 166.428734 137.991266 
C 163.559572 135.122105 159.667607 133.51 155.61 133.51 
C 151.552393 133.51 147.660428 135.122105 144.791266 137.991266 
C 141.922105 140.860428 140.31 144.752393 140.31 148.81 
C 140.31 152.867607 141.922105 156.759572 144.791266 159.628734 
C 147.660428 162.497895 151.552393 164.11 155.61 164.11 
L 155.61 164.11 
z
" clip-path="url(#p5774804f1b)" style="fill: none; stroke: #000000; stroke-width: 2; stroke-linejoin: miter"/>
   </g>
   <g id="line2d_1">
    <path d="M 17.91 240.61 
L 17.91 229.135 
L 17.91 217.66 
" clip-path="url(#p5774804f1b)" style="fill: none; stroke: #000000; stroke-width: 2; stroke-linecap: round"/>
   </g>
   <g id="line2d_2">
    <path d="M 17.91 217.66 
L 17.91 194.71 
L 17.91 171.76 
" clip-path="url(#p5774804f1b)" style="fill: none; stroke: #000000; stroke-width: 2; stroke-linecap: round"/>
   </g>
   <g id="line2d_3">
    <path d="M 17.91 171.76 
L 17.91 160.285 
L 17.91 148.81 
" clip-path="url(#p5774804f1b)" style="fill: none; stroke: #000000; stroke-width: 2; stroke-linecap: round"/>
   </g>
   <g id="line2d_4">
    <path d="M 17.91 148.81 
L 48.51 148.81 
L 51.06 141.16 
L 56.16 156.46 
L 61.26 141.16 
L 66.36 156.46 
L 71.46 141.16 
L 76.56 156.46 
L 79.11 148.81 
L 109.71 148.81 
" clip-path="url(#p5774804f1b)" style="fill: none; stroke: #000000; stroke-width: 2; stroke-linecap: round"/>
   </g>
   <g id="line2d_5">
    <path d="M 109.71 148.81 
L 140.31 148.81 
L 140.31 148.81 
M 170.91 148.81 
L 170.91 148.81 
L 201.51 148.81 
" clip-path="url(#p5774804f1b)" style="fill: none; stroke: #000000; stroke-width: 2; stroke-linecap: round"/>
   </g>
   <g id="line2d_6">
    <path d="M 147.96 148.81 
L 155.61 148.81 
" clip-path="url(#p5774804f1b)" style="fill: none; stroke: #000000; stroke-width: 2; stroke-linecap: round"/>
   </g>
   <g id="patch_4">
    <path d="M 155.61 146.515 
L 163.26 148.81 
L 155.61 151.105 
z
" clip-path="url(#p5774804f1b)"/>
   </g>
   <g id="line2d_7">
    <path d="M 201.51 148.81 
L 201.51 179.41 
L 209.16 181.96 
L 193.86 187.06 
L 209.16 192.16 
L 193.86 197.26 
L 209.16 202.36 
L 193.86 207.46 
L 201.51 210.01 
L 201.51 240.61 
" clip-path="url(#p5774804f1b)" style="fill: none; stroke: #000000; stroke-width: 2; stroke-linecap: round"/>
   </g>
   <g id="line2d_8">
    <path d="M 201.51 240.61 
L 109.71 240.61 
L 17.91 240.61 
" clip-path="url(#p5774804f1b)" style="fill: none; stroke: #000000; stroke-width: 2; stroke-linecap: round"/>
   </g>
   <g id="line2d_9">
    <path d="M 17.91 240.61 
L 17.91 252.85 
L 10.26 252.85 
L 17.91 260.5 
L 25.56 252.85 
L 17.91 252.85 
" clip-path="url(#p5774804f1b)" style="fill: none; stroke: #000000; stroke-width: 2; stroke-linecap: round"/>
   </g>
   <g id="line2d_10">
    <path d="M 109.71 148.81 
L 109.71 179.41 
L 117.36 181.96 
L 102.06 187.06 
L 117.36 192.16 
L 102.06 197.26 
L 117.36 202.36 
L 102.06 207.46 
L 109.71 210.01 
L 109.71 240.61 
" clip-path="url(#p5774804f1b)" style="fill: none; stroke: #000000; stroke-width: 2; stroke-linecap: round"/>
   </g>
   <g id="line2d_11">
    <path d="M 17.91 148.81 
L 17.91 102.91 
L 17.91 57.01 
" clip-path="url(#p5774804f1b)" style="fill: none; stroke: #000000; stroke-width: 2; stroke-linecap: round"/>
   </g>
   <g id="line2d_12">
    <path d="M 17.91 57.01 
L 48.51 57.01 
L 51.06 49.36 
L 56.16 64.66 
L 61.26 49.36 
L 66.36 64.66 
L 71.46 49.36 
L 76.56 64.66 
L 79.11 57.01 
L 109.71 57.01 
" clip-path="url(#p5774804f1b)" style="fill: none; stroke: #000000; stroke-width: 2; stroke-linecap: round"/>
   </g>
   <g id="line2d_13">
    <path d="M 109.71 57.01 
L 121.185 57.01 
L 132.66 57.01 
" clip-path="url(#p5774804f1b)" style="fill: none; stroke: #000000; stroke-width: 2; stroke-linecap: round"/>
   </g>
   <g id="line2d_14">
    <path d="M 132.66 57.01 
L 155.61 57.01 
L 178.56 57.01 
" clip-path="url(#p5774804f1b)" style="fill: none; stroke: #000000; stroke-width: 2; stroke-linecap: round"/>
   </g>
   <g id="line2d_15">
    <path d="M 178.56 57.01 
L 190.035 57.01 
L 201.51 57.01 
" clip-path="url(#p5774804f1b)" style="fill: none; stroke: #000000; stroke-width: 2; stroke-linecap: round"/>
   </g>
   <g id="line2d_16">
    <path d="M 201.51 57.01 
L 201.51 102.91 
L 201.51 148.81 
" clip-path="url(#p5774804f1b)" style="fill: none; stroke: #000000; stroke-width: 2; stroke-linecap: round"/>
   </g>
   <g id="line2d_17">
    <path d="M 17.91 240.61 
L 17.91 229.135 
L 17.91 217.66 
" clip-path="url(#p5774804f1b)" style="fill: none; stroke: #000000; stroke-width: 2; stroke-linecap: round"/>
   </g>
   <g id="line2d_18">
    <path d="M 17.91 217.66 
L 17.91 194.71 
L 17.91 171.76 
" clip-path="url(#p5774804f1b)" style="fill: none; stroke: #000000; stroke-width: 2; stroke-linecap: round"/>
   </g>
   <g id="line2d_19">
    <path d="M 17.91 171.76 
L 17.91 160.285 
L 17.91 148.81 
" clip-path="url(#p5774804f1b)" style="fill: none; stroke: #000000; stroke-width: 2; stroke-linecap: round"/>
   </g>
   <g id="line2d_20">
    <path d="M 17.91 148.81 
L 48.51 148.81 
L 51.06 141.16 
L 56.16 156.46 
L 61.26 141.16 
L 66.36 156.46 
L 71.46 141.16 
L 76.56 156.46 
L 79.11 148.81 
L 109.71 148.81 
" clip-path="url(#p5774804f1b)" style="fill: none; stroke: #000000; stroke-width: 2; stroke-linecap: round"/>
   </g>
   <g id="line2d_21">
    <path d="M 109.71 148.81 
L 140.31 148.81 
L 140.31 148.81 
M 170.91 148.81 
L 170.91 148.81 
L 201.51 148.81 
" clip-path="url(#p5774804f1b)" style="fill: none; stroke: #000000; stroke-width: 2; stroke-linecap: round"/>
   </g>
   <g id="line2d_22">
    <path d="M 147.96 148.81 
L 155.61 148.81 
" clip-path="url(#p5774804f1b)" style="fill: none; stroke: #000000; stroke-width: 2; stroke-linecap: round"/>
   </g>
   <g id="patch_5">
    <path d="M 155.61 146.515 
L 163.26 148.81 
L 155.61 151.105 
z
" clip-path="url(#p5774804f1b)"/>
   </g>
   <g id="line2d_23">
    <path d="M 201.51 148.81 
L 201.51 179.41 
L 209.16 181.96 
L 193.86 187.06 
L 209.16 192.16 
L 193.86 197.26 
L 209.16 202.36 
L 193.86 207.46 
L 201.51 210.01 
L 201.51 240.61 
" clip-path="url(#p5774804f1b)" style="fill: none; stroke: #000000; stroke-width: 2; stroke-linecap: round"/>
   </g>
   <g id="line2d_24">
    <path d="M 201.51 240.61 
L 109.71 240.61 
L 17.91 240.61 
" clip-path="url(#p5774804f1b)" style="fill: none; stroke: #000000; stroke-width: 2; stroke-linecap: round"/>
   </g>
   <g id="line2d_25">
    <path d="M 17.91 240.61 
L 17.91 252.85 
L 10.26 252.85 
L 17.91 260.5 
L 25.56 252.85 
L 17.91 252.85 
" clip-path="url(#p5774804f1b)" style="fill: none; stroke: #000000; stroke-width: 2; stroke-linecap: round"/>
   </g>
   <g id="line2d_26">
    <path d="M 109.71 148.81 
L 109.71 179.41 
L 117.36 181.96 
L 102.06 187.06 
L 117.36 192.16 
L 102.06 197.26 
L 117.36 202.36 
L 102.06 207.46 
L 109.71 210.01 
L 109.71 240.61 
" clip-path="url(#p5774804f1b)" style="fill: none; stroke: #000000; stroke-width: 2; stroke-linecap: round"/>
   </g>
   <g id="line2d_27">
    <path d="M 17.91 148.81 
L 17.91 102.91 
L 17.91 57.01 
" clip-path="url(#p5774804f1b)" style="fill: none; stroke: #000000; stroke-width: 2; stroke-linecap: round"/>
   </g>
   <g id="line2d_28">
    <path d="M 17.91 57.01 
L 48.51 57.01 
L 51.06 49.36 
L 56.16 64.66 
L 61.26 49.36 
L 66.36 64.66 
L 71.46 49.36 
L 76.56 64.66 
L 79.11 57.01 
L 109.71 57.01 
" clip-path="url(#p5774804f1b)" style="fill: none; stroke: #000000; stroke-width: 2; stroke-linecap: round"/>
   </g>
   <g id="line2d_29">
    <path d="M 109.71 57.01 
L 121.185 57.01 
L 132.66 57.01 
" clip-path="url(#p5774804f1b)" style="fill: none; stroke: #000000; stroke-width: 2; stroke-linecap: round"/>
   </g>
   <g id="line2d_30">
    <path d="M 132.66 57.01 
L 155.61 57.01 
L 178.56 57.01 
" clip-path="url(#p5774804f1b)" style="fill: none; stroke: #000000; stroke-width: 2; stroke-linecap: round"/>
   </g>
   <g id="line2d_31">
    <path d="M 178.56 57.01 
L 190.035 57.01 
L 201.51 57.01 
" clip-path="url(#p5774804f1b)" style="fill: none; stroke: #000000; stroke-width: 2; stroke-linecap: round"/>
   </g>
   <g id="line2d_32">
    <path d="M 201.51 57.01 
L 201.51 102.91 
L 201.51 148.81 
" clip-path="url(#p5774804f1b)" style="fill: none; stroke: #000000; stroke-width: 2; stroke-linecap: round"/>
   </g>
   <g id="text_1">
    <g clip-path="url(#p5774804f1b)">
     <!-- $R_{1}$ -->
     <g transform="translate(57.4975 121.503125)scale(0.125 -0.125)">
      <defs>
       <path id="STIXGeneral-Italic-52" d="M 845 4179 
L 2458 4179 
Q 3078 4179 3420 3936 
Q 3763 3693 3763 3277 
Q 3763 2778 3341 2458 
Q 3091 2266 2502 2131 
L 3072 627 
Q 3181 333 3299 217 
Q 3418 102 3629 102 
L 3629 0 
L 2688 0 
L 1901 2074 
L 1478 2106 
L 1126 806 
Q 1043 512 1043 403 
Q 1043 256 1126 192 
Q 1210 128 1472 102 
L 1472 0 
L -83 0 
L -83 102 
Q 173 134 278 243 
Q 384 352 461 646 
L 1222 3405 
Q 1299 3699 1299 3808 
Q 1299 3923 1210 3987 
Q 1133 4038 845 4077 
L 845 4179 
z
M 1958 3795 
L 1555 2342 
Q 1754 2310 1882 2310 
Q 2451 2310 2771 2566 
Q 3091 2822 3091 3270 
Q 3091 3603 2892 3795 
Q 2694 3987 2323 3987 
Q 2010 3987 1958 3795 
z
" transform="scale(0.015625)"/>
       <path id="STIXGeneral-Regular-31" d="M 2522 0 
L 755 0 
L 755 96 
Q 1107 115 1235 227 
Q 1363 339 1363 608 
L 1363 3482 
Q 1363 3795 1171 3795 
Q 1082 3795 883 3718 
L 710 3654 
L 710 3744 
L 1856 4326 
L 1914 4307 
L 1914 486 
Q 1914 275 2042 185 
Q 2170 96 2522 96 
L 2522 0 
z
" transform="scale(0.015625)"/>
      </defs>
      <use xlink:href="#STIXGeneral-Italic-52" transform="translate(0 0.703125)"/>
      <use xlink:href="#STIXGeneral-Regular-31" transform="translate(61.099991 -12.525)scale(0.7)"/>
     </g>
    </g>
    <g clip-path="url(#p5774804f1b)">
     <!-- 4kΩ -->
     <g transform="translate(51.43793 135.500391)scale(0.125 -0.125)">
      <defs>
       <path id="DejaVuSans-34" d="M 2419 4116 
L 825 1625 
L 2419 1625 
L 2419 4116 
z
M 2253 4666 
L 3047 4666 
L 3047 1625 
L 3713 1625 
L 3713 1100 
L 3047 1100 
L 3047 0 
L 2419 0 
L 2419 1100 
L 313 1100 
L 313 1709 
L 2253 4666 
z
" transform="scale(0.015625)"/>
       <path id="DejaVuSans-6b" d="M 581 4863 
L 1159 4863 
L 1159 1991 
L 2875 3500 
L 3609 3500 
L 1753 1863 
L 3688 0 
L 2938 0 
L 1159 1709 
L 1159 0 
L 581 0 
L 581 4863 
z
" transform="scale(0.015625)"/>
       <path id="DejaVuSans-3a9" d="M 4647 556 
L 4647 0 
L 2772 0 
L 2772 556 
Q 3325 859 3634 1378 
Q 3944 1897 3944 2528 
Q 3944 3278 3531 3731 
Q 3119 4184 2444 4184 
Q 1769 4184 1355 3729 
Q 941 3275 941 2528 
Q 941 1897 1250 1378 
Q 1563 859 2119 556 
L 2119 0 
L 244 0 
L 244 556 
L 1241 556 
Q 747 991 519 1456 
Q 294 1922 294 2497 
Q 294 3491 894 4106 
Q 1491 4722 2444 4722 
Q 3391 4722 3994 4106 
Q 4594 3494 4594 2528 
Q 4594 1922 4372 1459 
Q 4150 997 3647 556 
L 4647 556 
z
" transform="scale(0.015625)"/>
      </defs>
      <use xlink:href="#DejaVuSans-34"/>
      <use xlink:href="#DejaVuSans-6b" x="63.623047"/>
      <use xlink:href="#DejaVuSans-3a9" x="121.533203"/>
     </g>
    </g>
   </g>
   <g id="text_2">
    <g clip-path="url(#p5774804f1b)">
     <!-- $I_{S}$ -->
     <g transform="translate(151.0475 113.853125)scale(0.125 -0.125)">
      <defs>
       <path id="STIXGeneral-Italic-49" d="M 2458 4179 
L 2458 4077 
Q 2189 4045 2102 3961 
Q 2016 3878 1933 3584 
L 1165 838 
Q 1069 499 1069 352 
Q 1069 224 1149 179 
Q 1229 134 1510 102 
L 1510 0 
L -51 0 
L -51 102 
Q 218 154 317 237 
Q 416 320 486 582 
L 1254 3405 
Q 1338 3699 1338 3802 
Q 1338 3930 1235 3997 
Q 1133 4064 877 4077 
L 877 4179 
L 2458 4179 
z
" transform="scale(0.015625)"/>
       <path id="STIXGeneral-Italic-53" d="M 3251 4269 
L 2995 2989 
L 2880 3008 
Q 2880 3539 2720 3795 
Q 2560 4051 2118 4051 
Q 1786 4051 1594 3881 
Q 1402 3712 1402 3411 
Q 1402 3168 1504 3005 
Q 1606 2842 2035 2413 
Q 2464 1978 2611 1715 
Q 2758 1453 2758 1133 
Q 2758 589 2390 237 
Q 2022 -115 1466 -115 
Q 1222 -115 800 32 
Q 595 109 499 109 
Q 288 109 224 -96 
L 109 -96 
L 326 1338 
L 454 1325 
Q 442 1267 442 1178 
Q 442 710 701 409 
Q 960 109 1363 109 
Q 1734 109 1968 336 
Q 2202 563 2202 928 
Q 2202 1139 2118 1308 
Q 2035 1478 1818 1715 
L 1568 1984 
Q 1549 2003 1459 2102 
Q 1370 2202 1318 2253 
Q 1030 2560 934 2755 
Q 838 2950 838 3213 
Q 838 3699 1168 3980 
Q 1498 4262 1978 4262 
Q 2310 4262 2522 4173 
Q 2707 4102 2816 4102 
Q 2925 4102 2982 4134 
Q 3040 4166 3104 4269 
L 3251 4269 
z
" transform="scale(0.015625)"/>
      </defs>
      <use xlink:href="#STIXGeneral-Italic-49" transform="translate(0 0.703125)"/>
      <use xlink:href="#STIXGeneral-Italic-53" transform="translate(33.299988 -12.525)scale(0.7)"/>
     </g>
    </g>
    <g clip-path="url(#p5774804f1b)">
     <!-- 6mA -->
     <g transform="translate(141.270156 127.850391)scale(0.125 -0.125)">
      <defs>
       <path id="DejaVuSans-36" d="M 2113 2584 
Q 1688 2584 1439 2293 
Q 1191 2003 1191 1497 
Q 1191 994 1439 701 
Q 1688 409 2113 409 
Q 2538 409 2786 701 
Q 3034 994 3034 1497 
Q 3034 2003 2786 2293 
Q 2538 2584 2113 2584 
z
M 3366 4563 
L 3366 3988 
Q 3128 4100 2886 4159 
Q 2644 4219 2406 4219 
Q 1781 4219 1451 3797 
Q 1122 3375 1075 2522 
Q 1259 2794 1537 2939 
Q 1816 3084 2150 3084 
Q 2853 3084 3261 2657 
Q 3669 2231 3669 1497 
Q 3669 778 3244 343 
Q 2819 -91 2113 -91 
Q 1303 -91 875 529 
Q 447 1150 447 2328 
Q 447 3434 972 4092 
Q 1497 4750 2381 4750 
Q 2619 4750 2861 4703 
Q 3103 4656 3366 4563 
z
" transform="scale(0.015625)"/>
       <path id="DejaVuSans-6d" d="M 3328 2828 
Q 3544 3216 3844 3400 
Q 4144 3584 4550 3584 
Q 5097 3584 5394 3201 
Q 5691 2819 5691 2113 
L 5691 0 
L 5113 0 
L 5113 2094 
Q 5113 2597 4934 2840 
Q 4756 3084 4391 3084 
Q 3944 3084 3684 2787 
Q 3425 2491 3425 1978 
L 3425 0 
L 2847 0 
L 2847 2094 
Q 2847 2600 2669 2842 
Q 2491 3084 2119 3084 
Q 1678 3084 1418 2786 
Q 1159 2488 1159 1978 
L 1159 0 
L 581 0 
L 581 3500 
L 1159 3500 
L 1159 2956 
Q 1356 3278 1631 3431 
Q 1906 3584 2284 3584 
Q 2666 3584 2933 3390 
Q 3200 3197 3328 2828 
z
" transform="scale(0.015625)"/>
       <path id="DejaVuSans-41" d="M 2188 4044 
L 1331 1722 
L 3047 1722 
L 2188 4044 
z
M 1831 4666 
L 2547 4666 
L 4325 0 
L 3669 0 
L 3244 1197 
L 1141 1197 
L 716 0 
L 50 0 
L 1831 4666 
z
" transform="scale(0.015625)"/>
      </defs>
      <use xlink:href="#DejaVuSans-36"/>
      <use xlink:href="#DejaVuSans-6d" x="63.623047"/>
      <use xlink:href="#DejaVuSans-41" x="161.035156"/>
     </g>
    </g>
   </g>
   <g id="text_3">
    <g clip-path="url(#p5774804f1b)">
     <!-- $R_{3}$ -->
     <g transform="translate(212.22 191.160586)scale(0.125 -0.125)">
      <defs>
       <path id="STIXGeneral-Regular-33" d="M 390 3264 
L 288 3290 
Q 435 3770 748 4048 
Q 1062 4326 1542 4326 
Q 1990 4326 2265 4083 
Q 2541 3840 2541 3450 
Q 2541 2925 1946 2566 
Q 2298 2413 2477 2227 
Q 2758 1914 2758 1402 
Q 2758 890 2464 506 
Q 2246 211 1840 60 
Q 1434 -90 979 -90 
Q 262 -90 262 275 
Q 262 378 339 442 
Q 416 506 525 506 
Q 685 506 915 339 
Q 1197 141 1466 141 
Q 1818 141 2058 425 
Q 2298 710 2298 1120 
Q 2298 1856 1632 2048 
Q 1434 2112 979 2112 
L 979 2202 
Q 1338 2323 1517 2432 
Q 2035 2726 2035 3290 
Q 2035 3610 1852 3776 
Q 1670 3942 1344 3942 
Q 768 3942 390 3264 
z
" transform="scale(0.015625)"/>
      </defs>
      <use xlink:href="#STIXGeneral-Italic-52" transform="translate(0 0.703125)"/>
      <use xlink:href="#STIXGeneral-Regular-33" transform="translate(61.099991 -12.525)scale(0.7)"/>
     </g>
    </g>
    <g clip-path="url(#p5774804f1b)">
     <!-- 4kΩ -->
     <g transform="translate(212.22 205.157852)scale(0.125 -0.125)">
      <use xlink:href="#DejaVuSans-34"/>
      <use xlink:href="#DejaVuSans-6b" x="63.623047"/>
      <use xlink:href="#DejaVuSans-3a9" x="121.533203"/>
     </g>
    </g>
   </g>
   <g id="text_4">
    <g clip-path="url(#p5774804f1b)">
     <!-- $R_{2}$ -->
     <g transform="translate(86.375 191.160586)scale(0.125 -0.125)">
      <defs>
       <path id="STIXGeneral-Regular-32" d="M 3034 877 
L 2688 0 
L 186 0 
L 186 77 
L 1325 1286 
Q 1773 1754 1965 2144 
Q 2157 2534 2157 2950 
Q 2157 3379 1920 3616 
Q 1683 3853 1267 3853 
Q 922 3853 720 3673 
Q 518 3494 326 3021 
L 192 3053 
Q 301 3648 630 3987 
Q 960 4326 1523 4326 
Q 2054 4326 2380 4006 
Q 2707 3686 2707 3200 
Q 2707 2477 1888 1613 
L 832 486 
L 2330 486 
Q 2541 486 2665 569 
Q 2790 653 2944 915 
L 3034 877 
z
" transform="scale(0.015625)"/>
      </defs>
      <use xlink:href="#STIXGeneral-Italic-52" transform="translate(0 0.703125)"/>
      <use xlink:href="#STIXGeneral-Regular-32" transform="translate(61.099991 -12.525)scale(0.7)"/>
     </g>
    </g>
    <g clip-path="url(#p5774804f1b)">
     <!-- 4kΩ -->
     <g transform="translate(74.255859 205.157852)scale(0.125 -0.125)">
      <use xlink:href="#DejaVuSans-34"/>
      <use xlink:href="#DejaVuSans-6b" x="63.623047"/>
      <use xlink:href="#DejaVuSans-3a9" x="121.533203"/>
     </g>
    </g>
   </g>
   <g id="text_5">
    <g clip-path="url(#p5774804f1b)">
     <!-- $R_{4}$ -->
     <g transform="translate(57.4975 29.703125)scale(0.125 -0.125)">
      <defs>
       <path id="STIXGeneral-Regular-34" d="M 3027 1069 
L 2368 1069 
L 2368 0 
L 1869 0 
L 1869 1069 
L 77 1069 
L 77 1478 
L 2086 4326 
L 2368 4326 
L 2368 1478 
L 3027 1478 
L 3027 1069 
z
M 1869 1478 
L 1869 3674 
L 333 1478 
L 1869 1478 
z
" transform="scale(0.015625)"/>
      </defs>
      <use xlink:href="#STIXGeneral-Italic-52" transform="translate(0 0.703125)"/>
      <use xlink:href="#STIXGeneral-Regular-34" transform="translate(61.099991 -12.525)scale(0.7)"/>
     </g>
    </g>
    <g clip-path="url(#p5774804f1b)">
     <!-- 4kΩ -->
     <g transform="translate(51.43793 43.700391)scale(0.125 -0.125)">
      <use xlink:href="#DejaVuSans-34"/>
      <use xlink:href="#DejaVuSans-6b" x="63.623047"/>
      <use xlink:href="#DejaVuSans-3a9" x="121.533203"/>
     </g>
    </g>
   </g>
   <g id="text_6">
    <g clip-path="url(#p5774804f1b)">
     <!-- $R_{1}$ -->
     <g transform="translate(57.4975 121.503125)scale(0.125 -0.125)">
      <use xlink:href="#STIXGeneral-Italic-52" transform="translate(0 0.703125)"/>
      <use xlink:href="#STIXGeneral-Regular-31" transform="translate(61.099991 -12.525)scale(0.7)"/>
     </g>
    </g>
    <g clip-path="url(#p5774804f1b)">
     <!-- 4kΩ -->
     <g transform="translate(51.43793 135.500391)scale(0.125 -0.125)">
      <use xlink:href="#DejaVuSans-34"/>
      <use xlink:href="#DejaVuSans-6b" x="63.623047"/>
      <use xlink:href="#DejaVuSans-3a9" x="121.533203"/>
     </g>
    </g>
   </g>
   <g id="text_7">
    <g clip-path="url(#p5774804f1b)">
     <!-- $I_{S}$ -->
     <g transform="translate(151.0475 113.853125)scale(0.125 -0.125)">
      <use xlink:href="#STIXGeneral-Italic-49" transform="translate(0 0.703125)"/>
      <use xlink:href="#STIXGeneral-Italic-53" transform="translate(33.299988 -12.525)scale(0.7)"/>
     </g>
    </g>
    <g clip-path="url(#p5774804f1b)">
     <!-- 6mA -->
     <g transform="translate(141.270156 127.850391)scale(0.125 -0.125)">
      <use xlink:href="#DejaVuSans-36"/>
      <use xlink:href="#DejaVuSans-6d" x="63.623047"/>
      <use xlink:href="#DejaVuSans-41" x="161.035156"/>
     </g>
    </g>
   </g>
   <g id="text_8">
    <g clip-path="url(#p5774804f1b)">
     <!-- $R_{3}$ -->
     <g transform="translate(212.22 191.160586)scale(0.125 -0.125)">
      <use xlink:href="#STIXGeneral-Italic-52" transform="translate(0 0.703125)"/>
      <use xlink:href="#STIXGeneral-Regular-33" transform="translate(61.099991 -12.525)scale(0.7)"/>
     </g>
    </g>
    <g clip-path="url(#p5774804f1b)">
     <!-- 4kΩ -->
     <g transform="translate(212.22 205.157852)scale(0.125 -0.125)">
      <use xlink:href="#DejaVuSans-34"/>
      <use xlink:href="#DejaVuSans-6b" x="63.623047"/>
      <use xlink:href="#DejaVuSans-3a9" x="121.533203"/>
     </g>
    </g>
   </g>
   <g id="text_9">
    <g clip-path="url(#p5774804f1b)">
     <!-- $R_{2}$ -->
     <g transform="translate(86.375 191.160586)scale(0.125 -0.125)">
      <use xlink:href="#STIXGeneral-Italic-52" transform="translate(0 0.703125)"/>
      <use xlink:href="#STIXGeneral-Regular-32" transform="translate(61.099991 -12.525)scale(0.7)"/>
     </g>
    </g>
    <g clip-path="url(#p5774804f1b)">
     <!-- 4kΩ -->
     <g transform="translate(74.255859 205.157852)scale(0.125 -0.125)">
      <use xlink:href="#DejaVuSans-34"/>
      <use xlink:href="#DejaVuSans-6b" x="63.623047"/>
      <use xlink:href="#DejaVuSans-3a9" x="121.533203"/>
     </g>
    </g>
   </g>
   <g id="text_10">
    <g clip-path="url(#p5774804f1b)">
     <!-- $R_{4}$ -->
     <g transform="translate(57.4975 29.703125)scale(0.125 -0.125)">
      <use xlink:href="#STIXGeneral-Italic-52" transform="translate(0 0.703125)"/>
      <use xlink:href="#STIXGeneral-Regular-34" transform="translate(61.099991 -12.525)scale(0.7)"/>
     </g>
    </g>
    <g clip-path="url(#p5774804f1b)">
     <!-- 4kΩ -->
     <g transform="translate(51.43793 43.700391)scale(0.125 -0.125)">
      <use xlink:href="#DejaVuSans-34"/>
      <use xlink:href="#DejaVuSans-6b" x="63.623047"/>
      <use xlink:href="#DejaVuSans-3a9" x="121.533203"/>
     </g>
    </g>
   </g>
   <g id="patch_6">
    <path d="M 17.91 219.955 
C 18.518641 219.955 19.102436 219.713184 19.53281 219.28281 
C 19.963184 218.852436 20.205 218.268641 20.205 217.66 
C 20.205 217.051359 19.963184 216.467564 19.53281 216.03719 
C 19.102436 215.606816 18.518641 215.365 17.91 215.365 
C 17.301359 215.365 16.717564 215.606816 16.28719 216.03719 
C 15.856816 216.467564 15.615 217.051359 15.615 217.66 
C 15.615 218.268641 15.856816 218.852436 16.28719 219.28281 
C 16.717564 219.713184 17.301359 219.955 17.91 219.955 
z
" clip-path="url(#p5774804f1b)" style="stroke: #000000; stroke-width: 2; stroke-linejoin: miter"/>
   </g>
   <g id="patch_7">
    <path d="M 17.91 174.055 
C 18.518641 174.055 19.102436 173.813184 19.53281 173.38281 
C 19.963184 172.952436 20.205 172.368641 20.205 171.76 
C 20.205 171.151359 19.963184 170.567564 19.53281 170.13719 
C 19.102436 169.706816 18.518641 169.465 17.91 169.465 
C 17.301359 169.465 16.717564 169.706816 16.28719 170.13719 
C 15.856816 170.567564 15.615 171.151359 15.615 171.76 
C 15.615 172.368641 15.856816 172.952436 16.28719 173.38281 
C 16.717564 173.813184 17.301359 174.055 17.91 174.055 
z
" clip-path="url(#p5774804f1b)" style="stroke: #000000; stroke-width: 2; stroke-linejoin: miter"/>
   </g>
   <g id="patch_8">
    <path d="M 132.66 59.305 
C 133.268641 59.305 133.852436 59.063184 134.28281 58.63281 
C 134.713184 58.202436 134.955 57.618641 134.955 57.01 
C 134.955 56.401359 134.713184 55.817564 134.28281 55.38719 
C 133.852436 54.956816 133.268641 54.715 132.66 54.715 
C 132.051359 54.715 131.467564 54.956816 131.03719 55.38719 
C 130.606816 55.817564 130.365 56.401359 130.365 57.01 
C 130.365 57.618641 130.606816 58.202436 131.03719 58.63281 
C 131.467564 59.063184 132.051359 59.305 132.66 59.305 
z
" clip-path="url(#p5774804f1b)" style="stroke: #000000; stroke-width: 2; stroke-linejoin: miter"/>
   </g>
   <g id="patch_9">
    <path d="M 178.56 59.305 
C 179.168641 59.305 179.752436 59.063184 180.18281 58.63281 
C 180.613184 58.202436 180.855 57.618641 180.855 57.01 
C 180.855 56.401359 180.613184 55.817564 180.18281 55.38719 
C 179.752436 54.956816 179.168641 54.715 178.56 54.715 
C 177.951359 54.715 177.367564 54.956816 176.93719 55.38719 
C 176.506816 55.817564 176.265 56.401359 176.265 57.01 
C 176.265 57.618641 176.506816 58.202436 176.93719 58.63281 
C 177.367564 59.063184 177.951359 59.305 178.56 59.305 
z
" clip-path="url(#p5774804f1b)" style="stroke: #000000; stroke-width: 2; stroke-linejoin: miter"/>
   </g>
   <g id="line2d_33">
    <path d="M 91.35 148.81 
L 91.35 148.81 
" clip-path="url(#p5774804f1b)" style="fill: none; stroke: #000000; stroke-width: 2; stroke-linecap: round"/>
   </g>
   <g id="patch_10">
    <path d="M 91.35 144.22 
L 100.53 148.81 
L 91.35 153.4 
z
" clip-path="url(#p5774804f1b)"/>
   </g>
   <g id="text_11">
    <g clip-path="url(#p5774804f1b)">
     <!-- $I_O^{(3)}$ -->
     <g transform="translate(87.815 136.13)scale(0.125 -0.125)">
      <defs>
       <path id="STIXGeneral-Regular-28" d="M 1946 -1030 
L 1869 -1133 
Q 1126 -710 716 32 
Q 307 774 307 1613 
Q 307 3386 1888 4326 
L 1946 4224 
Q 1293 3667 1075 3126 
Q 858 2586 858 1632 
Q 858 685 1082 96 
Q 1306 -493 1946 -1030 
z
" transform="scale(0.015625)"/>
       <path id="STIXGeneral-Regular-29" d="M 186 4224 
L 262 4326 
Q 992 3891 1408 3148 
Q 1824 2406 1824 1581 
Q 1824 -166 243 -1133 
L 186 -1030 
Q 845 -486 1059 54 
Q 1274 595 1274 1562 
Q 1274 2534 1059 3120 
Q 845 3706 186 4224 
z
" transform="scale(0.015625)"/>
       <path id="STIXGeneral-Italic-4f" d="M 4474 2675 
Q 4474 1990 4106 1363 
Q 3738 736 3149 339 
Q 2477 -115 1779 -115 
Q 1146 -115 765 281 
Q 384 678 384 1382 
Q 384 1965 697 2582 
Q 1011 3200 1517 3642 
Q 2234 4262 3034 4262 
Q 3718 4269 4096 3840 
Q 4474 3411 4474 2675 
z
M 3802 3078 
Q 3802 3533 3581 3792 
Q 3360 4051 2976 4051 
Q 2342 4051 1786 3302 
Q 1446 2842 1251 2259 
Q 1056 1677 1056 1178 
Q 1056 653 1270 374 
Q 1485 96 1888 96 
Q 2477 96 2976 704 
Q 3354 1178 3578 1862 
Q 3802 2547 3802 3078 
z
" transform="scale(0.015625)"/>
      </defs>
      <use xlink:href="#STIXGeneral-Italic-49" transform="translate(0 0.55625)"/>
      <use xlink:href="#STIXGeneral-Regular-28" transform="translate(43.925769 45.684375)scale(0.7)"/>
      <use xlink:href="#STIXGeneral-Regular-33" transform="translate(67.23576 45.684375)scale(0.7)"/>
      <use xlink:href="#STIXGeneral-Regular-29" transform="translate(102.23575 45.684375)scale(0.7)"/>
      <use xlink:href="#STIXGeneral-Italic-4f" transform="translate(33.299988 -25.9)scale(0.7)"/>
     </g>
    </g>
   </g>
   <g id="patch_11">
    <path d="M 17.91 219.955 
C 18.518641 219.955 19.102436 219.713184 19.53281 219.28281 
C 19.963184 218.852436 20.205 218.268641 20.205 217.66 
C 20.205 217.051359 19.963184 216.467564 19.53281 216.03719 
C 19.102436 215.606816 18.518641 215.365 17.91 215.365 
C 17.301359 215.365 16.717564 215.606816 16.28719 216.03719 
C 15.856816 216.467564 15.615 217.051359 15.615 217.66 
C 15.615 218.268641 15.856816 218.852436 16.28719 219.28281 
C 16.717564 219.713184 17.301359 219.955 17.91 219.955 
z
" clip-path="url(#p5774804f1b)" style="stroke: #000000; stroke-width: 2; stroke-linejoin: miter"/>
   </g>
   <g id="patch_12">
    <path d="M 17.91 174.055 
C 18.518641 174.055 19.102436 173.813184 19.53281 173.38281 
C 19.963184 172.952436 20.205 172.368641 20.205 171.76 
C 20.205 171.151359 19.963184 170.567564 19.53281 170.13719 
C 19.102436 169.706816 18.518641 169.465 17.91 169.465 
C 17.301359 169.465 16.717564 169.706816 16.28719 170.13719 
C 15.856816 170.567564 15.615 171.151359 15.615 171.76 
C 15.615 172.368641 15.856816 172.952436 16.28719 173.38281 
C 16.717564 173.813184 17.301359 174.055 17.91 174.055 
z
" clip-path="url(#p5774804f1b)" style="stroke: #000000; stroke-width: 2; stroke-linejoin: miter"/>
   </g>
   <g id="patch_13">
    <path d="M 132.66 59.305 
C 133.268641 59.305 133.852436 59.063184 134.28281 58.63281 
C 134.713184 58.202436 134.955 57.618641 134.955 57.01 
C 134.955 56.401359 134.713184 55.817564 134.28281 55.38719 
C 133.852436 54.956816 133.268641 54.715 132.66 54.715 
C 132.051359 54.715 131.467564 54.956816 131.03719 55.38719 
C 130.606816 55.817564 130.365 56.401359 130.365 57.01 
C 130.365 57.618641 130.606816 58.202436 131.03719 58.63281 
C 131.467564 59.063184 132.051359 59.305 132.66 59.305 
z
" clip-path="url(#p5774804f1b)" style="stroke: #000000; stroke-width: 2; stroke-linejoin: miter"/>
   </g>
   <g id="patch_14">
    <path d="M 178.56 59.305 
C 179.168641 59.305 179.752436 59.063184 180.18281 58.63281 
C 180.613184 58.202436 180.855 57.618641 180.855 57.01 
C 180.855 56.401359 180.613184 55.817564 180.18281 55.38719 
C 179.752436 54.956816 179.168641 54.715 178.56 54.715 
C 177.951359 54.715 177.367564 54.956816 176.93719 55.38719 
C 176.506816 55.817564 176.265 56.401359 176.265 57.01 
C 176.265 57.618641 176.506816 58.202436 176.93719 58.63281 
C 177.367564 59.063184 177.951359 59.305 178.56 59.305 
z
" clip-path="url(#p5774804f1b)" style="stroke: #000000; stroke-width: 2; stroke-linejoin: miter"/>
   </g>
   <g id="line2d_34">
    <path d="M 91.35 148.81 
L 91.35 148.81 
" clip-path="url(#p5774804f1b)" style="fill: none; stroke: #000000; stroke-width: 2; stroke-linecap: round"/>
   </g>
   <g id="patch_15">
    <path d="M 91.35 144.22 
L 100.53 148.81 
L 91.35 153.4 
z
" clip-path="url(#p5774804f1b)"/>
   </g>
   <g id="text_12">
    <g clip-path="url(#p5774804f1b)">
     <!-- $I_O^{(3)}$ -->
     <g transform="translate(87.815 136.13)scale(0.125 -0.125)">
      <use xlink:href="#STIXGeneral-Italic-49" transform="translate(0 0.55625)"/>
      <use xlink:href="#STIXGeneral-Regular-28" transform="translate(43.925769 45.684375)scale(0.7)"/>
      <use xlink:href="#STIXGeneral-Regular-33" transform="translate(67.23576 45.684375)scale(0.7)"/>
      <use xlink:href="#STIXGeneral-Regular-29" transform="translate(102.23575 45.684375)scale(0.7)"/>
      <use xlink:href="#STIXGeneral-Italic-4f" transform="translate(33.299988 -25.9)scale(0.7)"/>
     </g>
    </g>
   </g>
  </g>
 </g>
 <defs>
  <clipPath id="p5774804f1b">
   <rect x="7.2" y="7.2" width="243.168" height="256.36"/>
  </clipPath>
 </defs>
</svg>
