<?xml version="1.0" encoding="utf-8" standalone="no"?>
<!DOCTYPE svg PUBLIC "-//W3C//DTD SVG 1.1//EN"
  "http://www.w3.org/Graphics/SVG/1.1/DTD/svg11.dtd">
<svg xmlns:xlink="http://www.w3.org/1999/xlink" width="257.568pt" height="278.41pt" viewBox="0 0 257.568 278.41" xmlns="http://www.w3.org/2000/svg" version="1.1">
 <metadata>
  <rdf:RDF xmlns:dc="http://purl.org/dc/elements/1.1/" xmlns:cc="http://creativecommons.org/ns#" xmlns:rdf="http://www.w3.org/1999/02/22-rdf-syntax-ns#">
   <cc:Work>
    <dc:type rdf:resource="http://purl.org/dc/dcmitype/StillImage"/>
    <dc:date>2023-10-21T16:51:15.531754</dc:date>
    <dc:format>image/svg+xml</dc:format>
    <dc:creator>
     <cc:Agent>
      <dc:title>Matplotlib v3.5.2, https://matplotlib.org/</dc:title>
     </cc:Agent>
    </dc:creator>
   </cc:Work>
  </rdf:RDF>
 </metadata>
 <defs>
  <style type="text/css">*{stroke-linejoin: round; stroke-linecap: butt}</style>
 </defs>
 <g id="figure_1">
  <g id="patch_1">
   <path d="M 0 278.41 
L 257.568 278.41 
L 257.568 0 
L 0 0 
L 0 278.41 
z
" style="fill: none"/>
  </g>
  <g id="axes_1">
   <g id="patch_2">
    <path d="M 155.61 79.96 
C 159.667607 79.96 163.559572 78.347895 166.428734 75.478734 
C 169.297895 72.609572 170.91 68.717607 170.91 64.66 
C 170.91 60.602393 169.297895 56.710428 166.428734 53.841266 
C 163.559572 50.972105 159.667607 49.36 155.61 49.36 
C 151.552393 49.36 147.660428 50.972105 144.791266 53.841266 
C 141.922105 56.710428 140.31 60.602393 140.31 64.66 
C 140.31 68.717607 141.922105 72.609572 144.791266 75.478734 
C 147.660428 78.347895 151.552393 79.96 155.61 79.96 
L 155.61 79.96 
z
" clip-path="url(#p3e8b47382f)" style="fill: none; stroke: #000000; stroke-width: 2; stroke-linejoin: miter"/>
   </g>
   <g id="patch_3">
    <path d="M 155.61 79.96 
C 159.667607 79.96 163.559572 78.347895 166.428734 75.478734 
C 169.297895 72.609572 170.91 68.717607 170.91 64.66 
C 170.91 60.602393 169.297895 56.710428 166.428734 53.841266 
C 163.559572 50.972105 159.667607 49.36 155.61 49.36 
C 151.552393 49.36 147.660428 50.972105 144.791266 53.841266 
C 141.922105 56.710428 140.31 60.602393 140.31 64.66 
C 140.31 68.717607 141.922105 72.609572 144.791266 75.478734 
C 147.660428 78.347895 151.552393 79.96 155.61 79.96 
L 155.61 79.96 
z
" clip-path="url(#p3e8b47382f)" style="fill: none; stroke: #000000; stroke-width: 2; stroke-linejoin: miter"/>
   </g>
   <g id="line2d_1">
    <path d="M 17.91 248.26 
L 17.91 236.785 
L 17.91 225.31 
" clip-path="url(#p3e8b47382f)" style="fill: none; stroke: #000000; stroke-width: 2; stroke-linecap: round"/>
   </g>
   <g id="line2d_2">
    <path d="M 17.91 225.31 
L 17.91 202.36 
L 17.91 179.41 
" clip-path="url(#p3e8b47382f)" style="fill: none; stroke: #000000; stroke-width: 2; stroke-linecap: round"/>
   </g>
   <g id="line2d_3">
    <path d="M 17.91 179.41 
L 17.91 167.935 
L 17.91 156.46 
" clip-path="url(#p3e8b47382f)" style="fill: none; stroke: #000000; stroke-width: 2; stroke-linecap: round"/>
   </g>
   <g id="line2d_4">
    <path d="M 17.91 156.46 
L 48.51 156.46 
L 51.06 148.81 
L 56.16 164.11 
L 61.26 148.81 
L 66.36 164.11 
L 71.46 148.81 
L 76.56 164.11 
L 79.11 156.46 
L 109.71 156.46 
" clip-path="url(#p3e8b47382f)" style="fill: none; stroke: #000000; stroke-width: 2; stroke-linecap: round"/>
   </g>
   <g id="line2d_5">
    <path d="M 109.71 156.46 
L 121.185 156.46 
L 132.66 156.46 
" clip-path="url(#p3e8b47382f)" style="fill: none; stroke: #000000; stroke-width: 2; stroke-linecap: round"/>
   </g>
   <g id="line2d_6">
    <path d="M 178.56 156.46 
L 190.035 156.46 
L 201.51 156.46 
" clip-path="url(#p3e8b47382f)" style="fill: none; stroke: #000000; stroke-width: 2; stroke-linecap: round"/>
   </g>
   <g id="line2d_7">
    <path d="M 201.51 156.46 
L 201.51 187.06 
L 209.16 189.61 
L 193.86 194.71 
L 209.16 199.81 
L 193.86 204.91 
L 209.16 210.01 
L 193.86 215.11 
L 201.51 217.66 
L 201.51 248.26 
" clip-path="url(#p3e8b47382f)" style="fill: none; stroke: #000000; stroke-width: 2; stroke-linecap: round"/>
   </g>
   <g id="line2d_8">
    <path d="M 201.51 248.26 
L 109.71 248.26 
L 17.91 248.26 
" clip-path="url(#p3e8b47382f)" style="fill: none; stroke: #000000; stroke-width: 2; stroke-linecap: round"/>
   </g>
   <g id="line2d_9">
    <path d="M 17.91 248.26 
L 17.91 260.5 
L 10.26 260.5 
L 17.91 268.15 
L 25.56 260.5 
L 17.91 260.5 
" clip-path="url(#p3e8b47382f)" style="fill: none; stroke: #000000; stroke-width: 2; stroke-linecap: round"/>
   </g>
   <g id="line2d_10">
    <path d="M 109.71 156.46 
L 109.71 187.06 
L 117.36 189.61 
L 102.06 194.71 
L 117.36 199.81 
L 102.06 204.91 
L 117.36 210.01 
L 102.06 215.11 
L 109.71 217.66 
L 109.71 248.26 
" clip-path="url(#p3e8b47382f)" style="fill: none; stroke: #000000; stroke-width: 2; stroke-linecap: round"/>
   </g>
   <g id="line2d_11">
    <path d="M 17.91 156.46 
L 17.91 110.56 
L 17.91 64.66 
" clip-path="url(#p3e8b47382f)" style="fill: none; stroke: #000000; stroke-width: 2; stroke-linecap: round"/>
   </g>
   <g id="line2d_12">
    <path d="M 17.91 64.66 
L 48.51 64.66 
L 51.06 57.01 
L 56.16 72.31 
L 61.26 57.01 
L 66.36 72.31 
L 71.46 57.01 
L 76.56 72.31 
L 79.11 64.66 
L 109.71 64.66 
" clip-path="url(#p3e8b47382f)" style="fill: none; stroke: #000000; stroke-width: 2; stroke-linecap: round"/>
   </g>
   <g id="line2d_13">
    <path d="M 109.71 64.66 
L 140.31 64.66 
L 140.31 64.66 
M 170.91 64.66 
L 170.91 64.66 
L 201.51 64.66 
" clip-path="url(#p3e8b47382f)" style="fill: none; stroke: #000000; stroke-width: 2; stroke-linecap: round"/>
   </g>
   <g id="line2d_14">
    <path d="M 163.26 61.6 
L 163.26 67.72 
" clip-path="url(#p3e8b47382f)" style="fill: none; stroke: #000000; stroke-width: 2; stroke-linecap: round"/>
   </g>
   <g id="line2d_15">
    <path d="M 144.9 64.66 
L 151.02 64.66 
" clip-path="url(#p3e8b47382f)" style="fill: none; stroke: #000000; stroke-width: 2; stroke-linecap: round"/>
   </g>
   <g id="line2d_16">
    <path d="M 147.96 61.6 
L 147.96 67.72 
" clip-path="url(#p3e8b47382f)" style="fill: none; stroke: #000000; stroke-width: 2; stroke-linecap: round"/>
   </g>
   <g id="line2d_17">
    <path d="M 201.51 64.66 
L 201.51 110.56 
L 201.51 156.46 
" clip-path="url(#p3e8b47382f)" style="fill: none; stroke: #000000; stroke-width: 2; stroke-linecap: round"/>
   </g>
   <g id="line2d_18">
    <path d="M 17.91 248.26 
L 17.91 236.785 
L 17.91 225.31 
" clip-path="url(#p3e8b47382f)" style="fill: none; stroke: #000000; stroke-width: 2; stroke-linecap: round"/>
   </g>
   <g id="line2d_19">
    <path d="M 17.91 225.31 
L 17.91 202.36 
L 17.91 179.41 
" clip-path="url(#p3e8b47382f)" style="fill: none; stroke: #000000; stroke-width: 2; stroke-linecap: round"/>
   </g>
   <g id="line2d_20">
    <path d="M 17.91 179.41 
L 17.91 167.935 
L 17.91 156.46 
" clip-path="url(#p3e8b47382f)" style="fill: none; stroke: #000000; stroke-width: 2; stroke-linecap: round"/>
   </g>
   <g id="line2d_21">
    <path d="M 17.91 156.46 
L 48.51 156.46 
L 51.06 148.81 
L 56.16 164.11 
L 61.26 148.81 
L 66.36 164.11 
L 71.46 148.81 
L 76.56 164.11 
L 79.11 156.46 
L 109.71 156.46 
" clip-path="url(#p3e8b47382f)" style="fill: none; stroke: #000000; stroke-width: 2; stroke-linecap: round"/>
   </g>
   <g id="line2d_22">
    <path d="M 109.71 156.46 
L 121.185 156.46 
L 132.66 156.46 
" clip-path="url(#p3e8b47382f)" style="fill: none; stroke: #000000; stroke-width: 2; stroke-linecap: round"/>
   </g>
   <g id="line2d_23">
    <path d="M 178.56 156.46 
L 190.035 156.46 
L 201.51 156.46 
" clip-path="url(#p3e8b47382f)" style="fill: none; stroke: #000000; stroke-width: 2; stroke-linecap: round"/>
   </g>
   <g id="line2d_24">
    <path d="M 201.51 156.46 
L 201.51 187.06 
L 209.16 189.61 
L 193.86 194.71 
L 209.16 199.81 
L 193.86 204.91 
L 209.16 210.01 
L 193.86 215.11 
L 201.51 217.66 
L 201.51 248.26 
" clip-path="url(#p3e8b47382f)" style="fill: none; stroke: #000000; stroke-width: 2; stroke-linecap: round"/>
   </g>
   <g id="line2d_25">
    <path d="M 201.51 248.26 
L 109.71 248.26 
L 17.91 248.26 
" clip-path="url(#p3e8b47382f)" style="fill: none; stroke: #000000; stroke-width: 2; stroke-linecap: round"/>
   </g>
   <g id="line2d_26">
    <path d="M 17.91 248.26 
L 17.91 260.5 
L 10.26 260.5 
L 17.91 268.15 
L 25.56 260.5 
L 17.91 260.5 
" clip-path="url(#p3e8b47382f)" style="fill: none; stroke: #000000; stroke-width: 2; stroke-linecap: round"/>
   </g>
   <g id="line2d_27">
    <path d="M 109.71 156.46 
L 109.71 187.06 
L 117.36 189.61 
L 102.06 194.71 
L 117.36 199.81 
L 102.06 204.91 
L 117.36 210.01 
L 102.06 215.11 
L 109.71 217.66 
L 109.71 248.26 
" clip-path="url(#p3e8b47382f)" style="fill: none; stroke: #000000; stroke-width: 2; stroke-linecap: round"/>
   </g>
   <g id="line2d_28">
    <path d="M 17.91 156.46 
L 17.91 110.56 
L 17.91 64.66 
" clip-path="url(#p3e8b47382f)" style="fill: none; stroke: #000000; stroke-width: 2; stroke-linecap: round"/>
   </g>
   <g id="line2d_29">
    <path d="M 17.91 64.66 
L 48.51 64.66 
L 51.06 57.01 
L 56.16 72.31 
L 61.26 57.01 
L 66.36 72.31 
L 71.46 57.01 
L 76.56 72.31 
L 79.11 64.66 
L 109.71 64.66 
" clip-path="url(#p3e8b47382f)" style="fill: none; stroke: #000000; stroke-width: 2; stroke-linecap: round"/>
   </g>
   <g id="line2d_30">
    <path d="M 109.71 64.66 
L 140.31 64.66 
L 140.31 64.66 
M 170.91 64.66 
L 170.91 64.66 
L 201.51 64.66 
" clip-path="url(#p3e8b47382f)" style="fill: none; stroke: #000000; stroke-width: 2; stroke-linecap: round"/>
   </g>
   <g id="line2d_31">
    <path d="M 163.26 61.6 
L 163.26 67.72 
" clip-path="url(#p3e8b47382f)" style="fill: none; stroke: #000000; stroke-width: 2; stroke-linecap: round"/>
   </g>
   <g id="line2d_32">
    <path d="M 144.9 64.66 
L 151.02 64.66 
" clip-path="url(#p3e8b47382f)" style="fill: none; stroke: #000000; stroke-width: 2; stroke-linecap: round"/>
   </g>
   <g id="line2d_33">
    <path d="M 147.96 61.6 
L 147.96 67.72 
" clip-path="url(#p3e8b47382f)" style="fill: none; stroke: #000000; stroke-width: 2; stroke-linecap: round"/>
   </g>
   <g id="line2d_34">
    <path d="M 201.51 64.66 
L 201.51 110.56 
L 201.51 156.46 
" clip-path="url(#p3e8b47382f)" style="fill: none; stroke: #000000; stroke-width: 2; stroke-linecap: round"/>
   </g>
   <g id="text_1">
    <g clip-path="url(#p3e8b47382f)">
     <!-- $R_{1}$ -->
     <g transform="translate(57.4975 129.153125)scale(0.125 -0.125)">
      <defs>
       <path id="STIXGeneral-Italic-52" d="M 845 4179 
L 2458 4179 
Q 3078 4179 3420 3936 
Q 3763 3693 3763 3277 
Q 3763 2778 3341 2458 
Q 3091 2266 2502 2131 
L 3072 627 
Q 3181 333 3299 217 
Q 3418 102 3629 102 
L 3629 0 
L 2688 0 
L 1901 2074 
L 1478 2106 
L 1126 806 
Q 1043 512 1043 403 
Q 1043 256 1126 192 
Q 1210 128 1472 102 
L 1472 0 
L -83 0 
L -83 102 
Q 173 134 278 243 
Q 384 352 461 646 
L 1222 3405 
Q 1299 3699 1299 3808 
Q 1299 3923 1210 3987 
Q 1133 4038 845 4077 
L 845 4179 
z
M 1958 3795 
L 1555 2342 
Q 1754 2310 1882 2310 
Q 2451 2310 2771 2566 
Q 3091 2822 3091 3270 
Q 3091 3603 2892 3795 
Q 2694 3987 2323 3987 
Q 2010 3987 1958 3795 
z
" transform="scale(0.015625)"/>
       <path id="STIXGeneral-Regular-31" d="M 2522 0 
L 755 0 
L 755 96 
Q 1107 115 1235 227 
Q 1363 339 1363 608 
L 1363 3482 
Q 1363 3795 1171 3795 
Q 1082 3795 883 3718 
L 710 3654 
L 710 3744 
L 1856 4326 
L 1914 4307 
L 1914 486 
Q 1914 275 2042 185 
Q 2170 96 2522 96 
L 2522 0 
z
" transform="scale(0.015625)"/>
      </defs>
      <use xlink:href="#STIXGeneral-Italic-52" transform="translate(0 0.703125)"/>
      <use xlink:href="#STIXGeneral-Regular-31" transform="translate(61.099991 -12.525)scale(0.7)"/>
     </g>
    </g>
    <g clip-path="url(#p3e8b47382f)">
     <!-- 4kΩ -->
     <g transform="translate(51.43793 143.150391)scale(0.125 -0.125)">
      <defs>
       <path id="DejaVuSans-34" d="M 2419 4116 
L 825 1625 
L 2419 1625 
L 2419 4116 
z
M 2253 4666 
L 3047 4666 
L 3047 1625 
L 3713 1625 
L 3713 1100 
L 3047 1100 
L 3047 0 
L 2419 0 
L 2419 1100 
L 313 1100 
L 313 1709 
L 2253 4666 
z
" transform="scale(0.015625)"/>
       <path id="DejaVuSans-6b" d="M 581 4863 
L 1159 4863 
L 1159 1991 
L 2875 3500 
L 3609 3500 
L 1753 1863 
L 3688 0 
L 2938 0 
L 1159 1709 
L 1159 0 
L 581 0 
L 581 4863 
z
" transform="scale(0.015625)"/>
       <path id="DejaVuSans-3a9" d="M 4647 556 
L 4647 0 
L 2772 0 
L 2772 556 
Q 3325 859 3634 1378 
Q 3944 1897 3944 2528 
Q 3944 3278 3531 3731 
Q 3119 4184 2444 4184 
Q 1769 4184 1355 3729 
Q 941 3275 941 2528 
Q 941 1897 1250 1378 
Q 1563 859 2119 556 
L 2119 0 
L 244 0 
L 244 556 
L 1241 556 
Q 747 991 519 1456 
Q 294 1922 294 2497 
Q 294 3491 894 4106 
Q 1491 4722 2444 4722 
Q 3391 4722 3994 4106 
Q 4594 3494 4594 2528 
Q 4594 1922 4372 1459 
Q 4150 997 3647 556 
L 4647 556 
z
" transform="scale(0.015625)"/>
      </defs>
      <use xlink:href="#DejaVuSans-34"/>
      <use xlink:href="#DejaVuSans-6b" x="63.623047"/>
      <use xlink:href="#DejaVuSans-3a9" x="121.533203"/>
     </g>
    </g>
   </g>
   <g id="text_2">
    <g clip-path="url(#p3e8b47382f)">
     <!-- $R_{3}$ -->
     <g transform="translate(212.22 198.810586)scale(0.125 -0.125)">
      <defs>
       <path id="STIXGeneral-Regular-33" d="M 390 3264 
L 288 3290 
Q 435 3770 748 4048 
Q 1062 4326 1542 4326 
Q 1990 4326 2265 4083 
Q 2541 3840 2541 3450 
Q 2541 2925 1946 2566 
Q 2298 2413 2477 2227 
Q 2758 1914 2758 1402 
Q 2758 890 2464 506 
Q 2246 211 1840 60 
Q 1434 -90 979 -90 
Q 262 -90 262 275 
Q 262 378 339 442 
Q 416 506 525 506 
Q 685 506 915 339 
Q 1197 141 1466 141 
Q 1818 141 2058 425 
Q 2298 710 2298 1120 
Q 2298 1856 1632 2048 
Q 1434 2112 979 2112 
L 979 2202 
Q 1338 2323 1517 2432 
Q 2035 2726 2035 3290 
Q 2035 3610 1852 3776 
Q 1670 3942 1344 3942 
Q 768 3942 390 3264 
z
" transform="scale(0.015625)"/>
      </defs>
      <use xlink:href="#STIXGeneral-Italic-52" transform="translate(0 0.703125)"/>
      <use xlink:href="#STIXGeneral-Regular-33" transform="translate(61.099991 -12.525)scale(0.7)"/>
     </g>
    </g>
    <g clip-path="url(#p3e8b47382f)">
     <!-- 4kΩ -->
     <g transform="translate(212.22 212.807852)scale(0.125 -0.125)">
      <use xlink:href="#DejaVuSans-34"/>
      <use xlink:href="#DejaVuSans-6b" x="63.623047"/>
      <use xlink:href="#DejaVuSans-3a9" x="121.533203"/>
     </g>
    </g>
   </g>
   <g id="text_3">
    <g clip-path="url(#p3e8b47382f)">
     <!-- $R_{2}$ -->
     <g transform="translate(86.375 198.810586)scale(0.125 -0.125)">
      <defs>
       <path id="STIXGeneral-Regular-32" d="M 3034 877 
L 2688 0 
L 186 0 
L 186 77 
L 1325 1286 
Q 1773 1754 1965 2144 
Q 2157 2534 2157 2950 
Q 2157 3379 1920 3616 
Q 1683 3853 1267 3853 
Q 922 3853 720 3673 
Q 518 3494 326 3021 
L 192 3053 
Q 301 3648 630 3987 
Q 960 4326 1523 4326 
Q 2054 4326 2380 4006 
Q 2707 3686 2707 3200 
Q 2707 2477 1888 1613 
L 832 486 
L 2330 486 
Q 2541 486 2665 569 
Q 2790 653 2944 915 
L 3034 877 
z
" transform="scale(0.015625)"/>
      </defs>
      <use xlink:href="#STIXGeneral-Italic-52" transform="translate(0 0.703125)"/>
      <use xlink:href="#STIXGeneral-Regular-32" transform="translate(61.099991 -12.525)scale(0.7)"/>
     </g>
    </g>
    <g clip-path="url(#p3e8b47382f)">
     <!-- 4kΩ -->
     <g transform="translate(74.255859 212.807852)scale(0.125 -0.125)">
      <use xlink:href="#DejaVuSans-34"/>
      <use xlink:href="#DejaVuSans-6b" x="63.623047"/>
      <use xlink:href="#DejaVuSans-3a9" x="121.533203"/>
     </g>
    </g>
   </g>
   <g id="text_4">
    <g clip-path="url(#p3e8b47382f)">
     <!-- $R_{4}$ -->
     <g transform="translate(57.4975 37.353125)scale(0.125 -0.125)">
      <defs>
       <path id="STIXGeneral-Regular-34" d="M 3027 1069 
L 2368 1069 
L 2368 0 
L 1869 0 
L 1869 1069 
L 77 1069 
L 77 1478 
L 2086 4326 
L 2368 4326 
L 2368 1478 
L 3027 1478 
L 3027 1069 
z
M 1869 1478 
L 1869 3674 
L 333 1478 
L 1869 1478 
z
" transform="scale(0.015625)"/>
      </defs>
      <use xlink:href="#STIXGeneral-Italic-52" transform="translate(0 0.703125)"/>
      <use xlink:href="#STIXGeneral-Regular-34" transform="translate(61.099991 -12.525)scale(0.7)"/>
     </g>
    </g>
    <g clip-path="url(#p3e8b47382f)">
     <!-- 4kΩ -->
     <g transform="translate(51.43793 51.350391)scale(0.125 -0.125)">
      <use xlink:href="#DejaVuSans-34"/>
      <use xlink:href="#DejaVuSans-6b" x="63.623047"/>
      <use xlink:href="#DejaVuSans-3a9" x="121.533203"/>
     </g>
    </g>
   </g>
   <g id="text_5">
    <g clip-path="url(#p3e8b47382f)">
     <!-- $V_{S2}$ -->
     <g transform="translate(147.11 29.703125)scale(0.125 -0.125)">
      <defs>
       <path id="STIXGeneral-Italic-56" d="M 4403 4179 
L 4403 4077 
Q 4198 4070 4045 3821 
L 1658 -115 
L 1536 -115 
L 1011 3104 
Q 902 3776 828 3910 
Q 755 4045 486 4077 
L 486 4179 
L 2022 4179 
L 2022 4077 
Q 1722 4045 1629 3981 
Q 1536 3917 1536 3750 
Q 1536 3686 1542 3654 
L 1958 819 
L 3302 3123 
Q 3616 3661 3616 3859 
Q 3616 4032 3219 4077 
L 3219 4179 
L 4403 4179 
z
" transform="scale(0.015625)"/>
       <path id="STIXGeneral-Italic-53" d="M 3251 4269 
L 2995 2989 
L 2880 3008 
Q 2880 3539 2720 3795 
Q 2560 4051 2118 4051 
Q 1786 4051 1594 3881 
Q 1402 3712 1402 3411 
Q 1402 3168 1504 3005 
Q 1606 2842 2035 2413 
Q 2464 1978 2611 1715 
Q 2758 1453 2758 1133 
Q 2758 589 2390 237 
Q 2022 -115 1466 -115 
Q 1222 -115 800 32 
Q 595 109 499 109 
Q 288 109 224 -96 
L 109 -96 
L 326 1338 
L 454 1325 
Q 442 1267 442 1178 
Q 442 710 701 409 
Q 960 109 1363 109 
Q 1734 109 1968 336 
Q 2202 563 2202 928 
Q 2202 1139 2118 1308 
Q 2035 1478 1818 1715 
L 1568 1984 
Q 1549 2003 1459 2102 
Q 1370 2202 1318 2253 
Q 1030 2560 934 2755 
Q 838 2950 838 3213 
Q 838 3699 1168 3980 
Q 1498 4262 1978 4262 
Q 2310 4262 2522 4173 
Q 2707 4102 2816 4102 
Q 2925 4102 2982 4134 
Q 3040 4166 3104 4269 
L 3251 4269 
z
" transform="scale(0.015625)"/>
      </defs>
      <use xlink:href="#STIXGeneral-Italic-56" transform="translate(0 0.703125)"/>
      <use xlink:href="#STIXGeneral-Italic-53" transform="translate(61.099991 -12.525)scale(0.7)"/>
      <use xlink:href="#STIXGeneral-Regular-32" transform="translate(96.09998 -12.525)scale(0.7)"/>
     </g>
    </g>
    <g clip-path="url(#p3e8b47382f)">
     <!-- 12V -->
     <g transform="translate(143.381484 43.700391)scale(0.125 -0.125)">
      <defs>
       <path id="DejaVuSans-31" d="M 794 531 
L 1825 531 
L 1825 4091 
L 703 3866 
L 703 4441 
L 1819 4666 
L 2450 4666 
L 2450 531 
L 3481 531 
L 3481 0 
L 794 0 
L 794 531 
z
" transform="scale(0.015625)"/>
       <path id="DejaVuSans-32" d="M 1228 531 
L 3431 531 
L 3431 0 
L 469 0 
L 469 531 
Q 828 903 1448 1529 
Q 2069 2156 2228 2338 
Q 2531 2678 2651 2914 
Q 2772 3150 2772 3378 
Q 2772 3750 2511 3984 
Q 2250 4219 1831 4219 
Q 1534 4219 1204 4116 
Q 875 4013 500 3803 
L 500 4441 
Q 881 4594 1212 4672 
Q 1544 4750 1819 4750 
Q 2544 4750 2975 4387 
Q 3406 4025 3406 3419 
Q 3406 3131 3298 2873 
Q 3191 2616 2906 2266 
Q 2828 2175 2409 1742 
Q 1991 1309 1228 531 
z
" transform="scale(0.015625)"/>
       <path id="DejaVuSans-56" d="M 1831 0 
L 50 4666 
L 709 4666 
L 2188 738 
L 3669 4666 
L 4325 4666 
L 2547 0 
L 1831 0 
z
" transform="scale(0.015625)"/>
      </defs>
      <use xlink:href="#DejaVuSans-31"/>
      <use xlink:href="#DejaVuSans-32" x="63.623047"/>
      <use xlink:href="#DejaVuSans-56" x="127.246094"/>
     </g>
    </g>
   </g>
   <g id="text_6">
    <g clip-path="url(#p3e8b47382f)">
     <!-- $R_{1}$ -->
     <g transform="translate(57.4975 129.153125)scale(0.125 -0.125)">
      <use xlink:href="#STIXGeneral-Italic-52" transform="translate(0 0.703125)"/>
      <use xlink:href="#STIXGeneral-Regular-31" transform="translate(61.099991 -12.525)scale(0.7)"/>
     </g>
    </g>
    <g clip-path="url(#p3e8b47382f)">
     <!-- 4kΩ -->
     <g transform="translate(51.43793 143.150391)scale(0.125 -0.125)">
      <use xlink:href="#DejaVuSans-34"/>
      <use xlink:href="#DejaVuSans-6b" x="63.623047"/>
      <use xlink:href="#DejaVuSans-3a9" x="121.533203"/>
     </g>
    </g>
   </g>
   <g id="text_7">
    <g clip-path="url(#p3e8b47382f)">
     <!-- $R_{3}$ -->
     <g transform="translate(212.22 198.810586)scale(0.125 -0.125)">
      <use xlink:href="#STIXGeneral-Italic-52" transform="translate(0 0.703125)"/>
      <use xlink:href="#STIXGeneral-Regular-33" transform="translate(61.099991 -12.525)scale(0.7)"/>
     </g>
    </g>
    <g clip-path="url(#p3e8b47382f)">
     <!-- 4kΩ -->
     <g transform="translate(212.22 212.807852)scale(0.125 -0.125)">
      <use xlink:href="#DejaVuSans-34"/>
      <use xlink:href="#DejaVuSans-6b" x="63.623047"/>
      <use xlink:href="#DejaVuSans-3a9" x="121.533203"/>
     </g>
    </g>
   </g>
   <g id="text_8">
    <g clip-path="url(#p3e8b47382f)">
     <!-- $R_{2}$ -->
     <g transform="translate(86.375 198.810586)scale(0.125 -0.125)">
      <use xlink:href="#STIXGeneral-Italic-52" transform="translate(0 0.703125)"/>
      <use xlink:href="#STIXGeneral-Regular-32" transform="translate(61.099991 -12.525)scale(0.7)"/>
     </g>
    </g>
    <g clip-path="url(#p3e8b47382f)">
     <!-- 4kΩ -->
     <g transform="translate(74.255859 212.807852)scale(0.125 -0.125)">
      <use xlink:href="#DejaVuSans-34"/>
      <use xlink:href="#DejaVuSans-6b" x="63.623047"/>
      <use xlink:href="#DejaVuSans-3a9" x="121.533203"/>
     </g>
    </g>
   </g>
   <g id="text_9">
    <g clip-path="url(#p3e8b47382f)">
     <!-- $R_{4}$ -->
     <g transform="translate(57.4975 37.353125)scale(0.125 -0.125)">
      <use xlink:href="#STIXGeneral-Italic-52" transform="translate(0 0.703125)"/>
      <use xlink:href="#STIXGeneral-Regular-34" transform="translate(61.099991 -12.525)scale(0.7)"/>
     </g>
    </g>
    <g clip-path="url(#p3e8b47382f)">
     <!-- 4kΩ -->
     <g transform="translate(51.43793 51.350391)scale(0.125 -0.125)">
      <use xlink:href="#DejaVuSans-34"/>
      <use xlink:href="#DejaVuSans-6b" x="63.623047"/>
      <use xlink:href="#DejaVuSans-3a9" x="121.533203"/>
     </g>
    </g>
   </g>
   <g id="text_10">
    <g clip-path="url(#p3e8b47382f)">
     <!-- $V_{S2}$ -->
     <g transform="translate(147.11 29.703125)scale(0.125 -0.125)">
      <use xlink:href="#STIXGeneral-Italic-56" transform="translate(0 0.703125)"/>
      <use xlink:href="#STIXGeneral-Italic-53" transform="translate(61.099991 -12.525)scale(0.7)"/>
      <use xlink:href="#STIXGeneral-Regular-32" transform="translate(96.09998 -12.525)scale(0.7)"/>
     </g>
    </g>
    <g clip-path="url(#p3e8b47382f)">
     <!-- 12V -->
     <g transform="translate(143.381484 43.700391)scale(0.125 -0.125)">
      <use xlink:href="#DejaVuSans-31"/>
      <use xlink:href="#DejaVuSans-32" x="63.623047"/>
      <use xlink:href="#DejaVuSans-56" x="127.246094"/>
     </g>
    </g>
   </g>
   <g id="patch_4">
    <path d="M 17.91 227.605 
C 18.518641 227.605 19.102436 227.363184 19.53281 226.93281 
C 19.963184 226.502436 20.205 225.918641 20.205 225.31 
C 20.205 224.701359 19.963184 224.117564 19.53281 223.68719 
C 19.102436 223.256816 18.518641 223.015 17.91 223.015 
C 17.301359 223.015 16.717564 223.256816 16.28719 223.68719 
C 15.856816 224.117564 15.615 224.701359 15.615 225.31 
C 15.615 225.918641 15.856816 226.502436 16.28719 226.93281 
C 16.717564 227.363184 17.301359 227.605 17.91 227.605 
z
" clip-path="url(#p3e8b47382f)" style="stroke: #000000; stroke-width: 2; stroke-linejoin: miter"/>
   </g>
   <g id="patch_5">
    <path d="M 17.91 181.705 
C 18.518641 181.705 19.102436 181.463184 19.53281 181.03281 
C 19.963184 180.602436 20.205 180.018641 20.205 179.41 
C 20.205 178.801359 19.963184 178.217564 19.53281 177.78719 
C 19.102436 177.356816 18.518641 177.115 17.91 177.115 
C 17.301359 177.115 16.717564 177.356816 16.28719 177.78719 
C 15.856816 178.217564 15.615 178.801359 15.615 179.41 
C 15.615 180.018641 15.856816 180.602436 16.28719 181.03281 
C 16.717564 181.463184 17.301359 181.705 17.91 181.705 
z
" clip-path="url(#p3e8b47382f)" style="stroke: #000000; stroke-width: 2; stroke-linejoin: miter"/>
   </g>
   <g id="patch_6">
    <path d="M 132.66 158.755 
C 133.268641 158.755 133.852436 158.513184 134.28281 158.08281 
C 134.713184 157.652436 134.955 157.068641 134.955 156.46 
C 134.955 155.851359 134.713184 155.267564 134.28281 154.83719 
C 133.852436 154.406816 133.268641 154.165 132.66 154.165 
C 132.051359 154.165 131.467564 154.406816 131.03719 154.83719 
C 130.606816 155.267564 130.365 155.851359 130.365 156.46 
C 130.365 157.068641 130.606816 157.652436 131.03719 158.08281 
C 131.467564 158.513184 132.051359 158.755 132.66 158.755 
z
" clip-path="url(#p3e8b47382f)" style="stroke: #000000; stroke-width: 2; stroke-linejoin: miter"/>
   </g>
   <g id="patch_7">
    <path d="M 178.56 158.755 
C 179.168641 158.755 179.752436 158.513184 180.18281 158.08281 
C 180.613184 157.652436 180.855 157.068641 180.855 156.46 
C 180.855 155.851359 180.613184 155.267564 180.18281 154.83719 
C 179.752436 154.406816 179.168641 154.165 178.56 154.165 
C 177.951359 154.165 177.367564 154.406816 176.93719 154.83719 
C 176.506816 155.267564 176.265 155.851359 176.265 156.46 
C 176.265 157.068641 176.506816 157.652436 176.93719 158.08281 
C 177.367564 158.513184 177.951359 158.755 178.56 158.755 
z
" clip-path="url(#p3e8b47382f)" style="stroke: #000000; stroke-width: 2; stroke-linejoin: miter"/>
   </g>
   <g id="line2d_35">
    <path d="M 91.35 156.46 
L 91.35 156.46 
" clip-path="url(#p3e8b47382f)" style="fill: none; stroke: #000000; stroke-width: 2; stroke-linecap: round"/>
   </g>
   <g id="patch_8">
    <path d="M 91.35 151.87 
L 100.53 156.46 
L 91.35 161.05 
z
" clip-path="url(#p3e8b47382f)"/>
   </g>
   <g id="text_11">
    <g clip-path="url(#p3e8b47382f)">
     <!-- $I_O^{(2)}$ -->
     <g transform="translate(87.815 143.78)scale(0.125 -0.125)">
      <defs>
       <path id="STIXGeneral-Italic-49" d="M 2458 4179 
L 2458 4077 
Q 2189 4045 2102 3961 
Q 2016 3878 1933 3584 
L 1165 838 
Q 1069 499 1069 352 
Q 1069 224 1149 179 
Q 1229 134 1510 102 
L 1510 0 
L -51 0 
L -51 102 
Q 218 154 317 237 
Q 416 320 486 582 
L 1254 3405 
Q 1338 3699 1338 3802 
Q 1338 3930 1235 3997 
Q 1133 4064 877 4077 
L 877 4179 
L 2458 4179 
z
" transform="scale(0.015625)"/>
       <path id="STIXGeneral-Regular-28" d="M 1946 -1030 
L 1869 -1133 
Q 1126 -710 716 32 
Q 307 774 307 1613 
Q 307 3386 1888 4326 
L 1946 4224 
Q 1293 3667 1075 3126 
Q 858 2586 858 1632 
Q 858 685 1082 96 
Q 1306 -493 1946 -1030 
z
" transform="scale(0.015625)"/>
       <path id="STIXGeneral-Regular-29" d="M 186 4224 
L 262 4326 
Q 992 3891 1408 3148 
Q 1824 2406 1824 1581 
Q 1824 -166 243 -1133 
L 186 -1030 
Q 845 -486 1059 54 
Q 1274 595 1274 1562 
Q 1274 2534 1059 3120 
Q 845 3706 186 4224 
z
" transform="scale(0.015625)"/>
       <path id="STIXGeneral-Italic-4f" d="M 4474 2675 
Q 4474 1990 4106 1363 
Q 3738 736 3149 339 
Q 2477 -115 1779 -115 
Q 1146 -115 765 281 
Q 384 678 384 1382 
Q 384 1965 697 2582 
Q 1011 3200 1517 3642 
Q 2234 4262 3034 4262 
Q 3718 4269 4096 3840 
Q 4474 3411 4474 2675 
z
M 3802 3078 
Q 3802 3533 3581 3792 
Q 3360 4051 2976 4051 
Q 2342 4051 1786 3302 
Q 1446 2842 1251 2259 
Q 1056 1677 1056 1178 
Q 1056 653 1270 374 
Q 1485 96 1888 96 
Q 2477 96 2976 704 
Q 3354 1178 3578 1862 
Q 3802 2547 3802 3078 
z
" transform="scale(0.015625)"/>
      </defs>
      <use xlink:href="#STIXGeneral-Italic-49" transform="translate(0 0.55625)"/>
      <use xlink:href="#STIXGeneral-Regular-28" transform="translate(43.925769 45.684375)scale(0.7)"/>
      <use xlink:href="#STIXGeneral-Regular-32" transform="translate(67.23576 45.684375)scale(0.7)"/>
      <use xlink:href="#STIXGeneral-Regular-29" transform="translate(102.23575 45.684375)scale(0.7)"/>
      <use xlink:href="#STIXGeneral-Italic-4f" transform="translate(33.299988 -25.9)scale(0.7)"/>
     </g>
    </g>
   </g>
   <g id="patch_9">
    <path d="M 17.91 227.605 
C 18.518641 227.605 19.102436 227.363184 19.53281 226.93281 
C 19.963184 226.502436 20.205 225.918641 20.205 225.31 
C 20.205 224.701359 19.963184 224.117564 19.53281 223.68719 
C 19.102436 223.256816 18.518641 223.015 17.91 223.015 
C 17.301359 223.015 16.717564 223.256816 16.28719 223.68719 
C 15.856816 224.117564 15.615 224.701359 15.615 225.31 
C 15.615 225.918641 15.856816 226.502436 16.28719 226.93281 
C 16.717564 227.363184 17.301359 227.605 17.91 227.605 
z
" clip-path="url(#p3e8b47382f)" style="stroke: #000000; stroke-width: 2; stroke-linejoin: miter"/>
   </g>
   <g id="patch_10">
    <path d="M 17.91 181.705 
C 18.518641 181.705 19.102436 181.463184 19.53281 181.03281 
C 19.963184 180.602436 20.205 180.018641 20.205 179.41 
C 20.205 178.801359 19.963184 178.217564 19.53281 177.78719 
C 19.102436 177.356816 18.518641 177.115 17.91 177.115 
C 17.301359 177.115 16.717564 177.356816 16.28719 177.78719 
C 15.856816 178.217564 15.615 178.801359 15.615 179.41 
C 15.615 180.018641 15.856816 180.602436 16.28719 181.03281 
C 16.717564 181.463184 17.301359 181.705 17.91 181.705 
z
" clip-path="url(#p3e8b47382f)" style="stroke: #000000; stroke-width: 2; stroke-linejoin: miter"/>
   </g>
   <g id="patch_11">
    <path d="M 132.66 158.755 
C 133.268641 158.755 133.852436 158.513184 134.28281 158.08281 
C 134.713184 157.652436 134.955 157.068641 134.955 156.46 
C 134.955 155.851359 134.713184 155.267564 134.28281 154.83719 
C 133.852436 154.406816 133.268641 154.165 132.66 154.165 
C 132.051359 154.165 131.467564 154.406816 131.03719 154.83719 
C 130.606816 155.267564 130.365 155.851359 130.365 156.46 
C 130.365 157.068641 130.606816 157.652436 131.03719 158.08281 
C 131.467564 158.513184 132.051359 158.755 132.66 158.755 
z
" clip-path="url(#p3e8b47382f)" style="stroke: #000000; stroke-width: 2; stroke-linejoin: miter"/>
   </g>
   <g id="patch_12">
    <path d="M 178.56 158.755 
C 179.168641 158.755 179.752436 158.513184 180.18281 158.08281 
C 180.613184 157.652436 180.855 157.068641 180.855 156.46 
C 180.855 155.851359 180.613184 155.267564 180.18281 154.83719 
C 179.752436 154.406816 179.168641 154.165 178.56 154.165 
C 177.951359 154.165 177.367564 154.406816 176.93719 154.83719 
C 176.506816 155.267564 176.265 155.851359 176.265 156.46 
C 176.265 157.068641 176.506816 157.652436 176.93719 158.08281 
C 177.367564 158.513184 177.951359 158.755 178.56 158.755 
z
" clip-path="url(#p3e8b47382f)" style="stroke: #000000; stroke-width: 2; stroke-linejoin: miter"/>
   </g>
   <g id="line2d_36">
    <path d="M 91.35 156.46 
L 91.35 156.46 
" clip-path="url(#p3e8b47382f)" style="fill: none; stroke: #000000; stroke-width: 2; stroke-linecap: round"/>
   </g>
   <g id="patch_13">
    <path d="M 91.35 151.87 
L 100.53 156.46 
L 91.35 161.05 
z
" clip-path="url(#p3e8b47382f)"/>
   </g>
   <g id="text_12">
    <g clip-path="url(#p3e8b47382f)">
     <!-- $I_O^{(2)}$ -->
     <g transform="translate(87.815 143.78)scale(0.125 -0.125)">
      <use xlink:href="#STIXGeneral-Italic-49" transform="translate(0 0.55625)"/>
      <use xlink:href="#STIXGeneral-Regular-28" transform="translate(43.925769 45.684375)scale(0.7)"/>
      <use xlink:href="#STIXGeneral-Regular-32" transform="translate(67.23576 45.684375)scale(0.7)"/>
      <use xlink:href="#STIXGeneral-Regular-29" transform="translate(102.23575 45.684375)scale(0.7)"/>
      <use xlink:href="#STIXGeneral-Italic-4f" transform="translate(33.299988 -25.9)scale(0.7)"/>
     </g>
    </g>
   </g>
  </g>
 </g>
 <defs>
  <clipPath id="p3e8b47382f">
   <rect x="7.2" y="7.2" width="243.168" height="264.01"/>
  </clipPath>
 </defs>
</svg>
