<?xml version="1.0" encoding="utf-8" standalone="no"?>
<!DOCTYPE svg PUBLIC "-//W3C//DTD SVG 1.1//EN"
  "http://www.w3.org/Graphics/SVG/1.1/DTD/svg11.dtd">
<svg xmlns:xlink="http://www.w3.org/1999/xlink" width="252.4884pt" height="178.96pt" viewBox="0 0 252.4884 178.96" xmlns="http://www.w3.org/2000/svg" version="1.1">
 <metadata>
  <rdf:RDF xmlns:dc="http://purl.org/dc/elements/1.1/" xmlns:cc="http://creativecommons.org/ns#" xmlns:rdf="http://www.w3.org/1999/02/22-rdf-syntax-ns#">
   <cc:Work>
    <dc:type rdf:resource="http://purl.org/dc/dcmitype/StillImage"/>
    <dc:date>2023-06-05T11:05:59.116265</dc:date>
    <dc:format>image/svg+xml</dc:format>
    <dc:creator>
     <cc:Agent>
      <dc:title>Matplotlib v3.5.2, https://matplotlib.org/</dc:title>
     </cc:Agent>
    </dc:creator>
   </cc:Work>
  </rdf:RDF>
 </metadata>
 <defs>
  <style type="text/css">*{stroke-linejoin: round; stroke-linecap: butt}</style>
 </defs>
 <g id="figure_1">
  <g id="patch_1">
   <path d="M 0 178.96 
L 252.4884 178.96 
L 252.4884 0 
L 0 0 
L 0 178.96 
z
" style="fill: none"/>
  </g>
  <g id="axes_1">
   <g id="line2d_1">
    <path d="M 56.3334 148.81 
L 56.3334 111.51625 
M 56.3334 94.30375 
L 56.3334 57.01 
" clip-path="url(#pd476d1990d)" style="fill: none; stroke: #000000; stroke-width: 2; stroke-linecap: round"/>
   </g>
   <g id="line2d_2">
    <path d="M 67.8084 94.30375 
L 44.8584 94.30375 
" clip-path="url(#pd476d1990d)" style="fill: none; stroke: #000000; stroke-width: 2; stroke-linecap: round"/>
   </g>
   <g id="line2d_3">
    <path d="M 62.0709 100.04125 
L 50.5959 100.04125 
" clip-path="url(#pd476d1990d)" style="fill: none; stroke: #000000; stroke-width: 2; stroke-linecap: round"/>
   </g>
   <g id="line2d_4">
    <path d="M 67.8084 105.77875 
L 44.8584 105.77875 
" clip-path="url(#pd476d1990d)" style="fill: none; stroke: #000000; stroke-width: 2; stroke-linecap: round"/>
   </g>
   <g id="line2d_5">
    <path d="M 62.0709 111.51625 
L 50.5959 111.51625 
" clip-path="url(#pd476d1990d)" style="fill: none; stroke: #000000; stroke-width: 2; stroke-linecap: round"/>
   </g>
   <g id="line2d_6">
    <path d="M 56.3334 57.01 
L 86.9334 57.01 
L 89.4834 49.36 
L 94.5834 64.66 
L 99.6834 49.36 
L 104.7834 64.66 
L 109.8834 49.36 
L 114.9834 64.66 
L 117.5334 57.01 
L 148.1334 57.01 
" clip-path="url(#pd476d1990d)" style="fill: none; stroke: #000000; stroke-width: 2; stroke-linecap: round"/>
   </g>
   <g id="line2d_7">
    <path d="M 148.1334 57.01 
L 178.7334 57.01 
L 181.2834 49.36 
L 186.3834 64.66 
L 191.4834 49.36 
L 196.5834 64.66 
L 201.6834 49.36 
L 206.7834 64.66 
L 209.3334 57.01 
L 239.9334 57.01 
" clip-path="url(#pd476d1990d)" style="fill: none; stroke: #000000; stroke-width: 2; stroke-linecap: round"/>
   </g>
   <g id="line2d_8">
    <path d="M 239.9334 57.01 
L 239.9334 68.485 
L 239.9334 79.96 
" clip-path="url(#pd476d1990d)" style="fill: none; stroke: #000000; stroke-width: 2; stroke-linecap: round"/>
   </g>
   <g id="line2d_9">
    <path d="M 239.9334 79.96 
L 239.9334 102.91 
L 239.9334 125.86 
" clip-path="url(#pd476d1990d)" style="fill: none; stroke: #000000; stroke-width: 2; stroke-linecap: round"/>
   </g>
   <g id="line2d_10">
    <path d="M 239.9334 125.86 
L 239.9334 137.335 
L 239.9334 148.81 
" clip-path="url(#pd476d1990d)" style="fill: none; stroke: #000000; stroke-width: 2; stroke-linecap: round"/>
   </g>
   <g id="line2d_11">
    <path d="M 239.9334 148.81 
L 148.1334 148.81 
L 56.3334 148.81 
" clip-path="url(#pd476d1990d)" style="fill: none; stroke: #000000; stroke-width: 2; stroke-linecap: round"/>
   </g>
   <g id="line2d_12">
    <path d="M 56.3334 148.81 
L 56.3334 161.05 
L 48.6834 161.05 
L 56.3334 168.7 
L 63.9834 161.05 
L 56.3334 161.05 
" clip-path="url(#pd476d1990d)" style="fill: none; stroke: #000000; stroke-width: 2; stroke-linecap: round"/>
   </g>
   <g id="line2d_13">
    <path d="M 148.1334 57.01 
L 148.1334 87.61 
L 155.7834 90.16 
L 140.4834 95.26 
L 155.7834 100.36 
L 140.4834 105.46 
L 155.7834 110.56 
L 140.4834 115.66 
L 148.1334 118.21 
L 148.1334 148.81 
" clip-path="url(#pd476d1990d)" style="fill: none; stroke: #000000; stroke-width: 2; stroke-linecap: round"/>
   </g>
   <g id="line2d_14">
    <path d="M 56.3334 148.81 
L 56.3334 111.51625 
M 56.3334 94.30375 
L 56.3334 57.01 
" clip-path="url(#pd476d1990d)" style="fill: none; stroke: #000000; stroke-width: 2; stroke-linecap: round"/>
   </g>
   <g id="line2d_15">
    <path d="M 67.8084 94.30375 
L 44.8584 94.30375 
" clip-path="url(#pd476d1990d)" style="fill: none; stroke: #000000; stroke-width: 2; stroke-linecap: round"/>
   </g>
   <g id="line2d_16">
    <path d="M 62.0709 100.04125 
L 50.5959 100.04125 
" clip-path="url(#pd476d1990d)" style="fill: none; stroke: #000000; stroke-width: 2; stroke-linecap: round"/>
   </g>
   <g id="line2d_17">
    <path d="M 67.8084 105.77875 
L 44.8584 105.77875 
" clip-path="url(#pd476d1990d)" style="fill: none; stroke: #000000; stroke-width: 2; stroke-linecap: round"/>
   </g>
   <g id="line2d_18">
    <path d="M 62.0709 111.51625 
L 50.5959 111.51625 
" clip-path="url(#pd476d1990d)" style="fill: none; stroke: #000000; stroke-width: 2; stroke-linecap: round"/>
   </g>
   <g id="line2d_19">
    <path d="M 56.3334 57.01 
L 86.9334 57.01 
L 89.4834 49.36 
L 94.5834 64.66 
L 99.6834 49.36 
L 104.7834 64.66 
L 109.8834 49.36 
L 114.9834 64.66 
L 117.5334 57.01 
L 148.1334 57.01 
" clip-path="url(#pd476d1990d)" style="fill: none; stroke: #000000; stroke-width: 2; stroke-linecap: round"/>
   </g>
   <g id="line2d_20">
    <path d="M 148.1334 57.01 
L 178.7334 57.01 
L 181.2834 49.36 
L 186.3834 64.66 
L 191.4834 49.36 
L 196.5834 64.66 
L 201.6834 49.36 
L 206.7834 64.66 
L 209.3334 57.01 
L 239.9334 57.01 
" clip-path="url(#pd476d1990d)" style="fill: none; stroke: #000000; stroke-width: 2; stroke-linecap: round"/>
   </g>
   <g id="line2d_21">
    <path d="M 239.9334 57.01 
L 239.9334 68.485 
L 239.9334 79.96 
" clip-path="url(#pd476d1990d)" style="fill: none; stroke: #000000; stroke-width: 2; stroke-linecap: round"/>
   </g>
   <g id="line2d_22">
    <path d="M 239.9334 79.96 
L 239.9334 102.91 
L 239.9334 125.86 
" clip-path="url(#pd476d1990d)" style="fill: none; stroke: #000000; stroke-width: 2; stroke-linecap: round"/>
   </g>
   <g id="line2d_23">
    <path d="M 239.9334 125.86 
L 239.9334 137.335 
L 239.9334 148.81 
" clip-path="url(#pd476d1990d)" style="fill: none; stroke: #000000; stroke-width: 2; stroke-linecap: round"/>
   </g>
   <g id="line2d_24">
    <path d="M 239.9334 148.81 
L 148.1334 148.81 
L 56.3334 148.81 
" clip-path="url(#pd476d1990d)" style="fill: none; stroke: #000000; stroke-width: 2; stroke-linecap: round"/>
   </g>
   <g id="line2d_25">
    <path d="M 56.3334 148.81 
L 56.3334 161.05 
L 48.6834 161.05 
L 56.3334 168.7 
L 63.9834 161.05 
L 56.3334 161.05 
" clip-path="url(#pd476d1990d)" style="fill: none; stroke: #000000; stroke-width: 2; stroke-linecap: round"/>
   </g>
   <g id="line2d_26">
    <path d="M 148.1334 57.01 
L 148.1334 87.61 
L 155.7834 90.16 
L 140.4834 95.26 
L 155.7834 100.36 
L 140.4834 105.46 
L 155.7834 110.56 
L 140.4834 115.66 
L 148.1334 118.21 
L 148.1334 148.81 
" clip-path="url(#pd476d1990d)" style="fill: none; stroke: #000000; stroke-width: 2; stroke-linecap: round"/>
   </g>
   <g id="text_1">
    <g clip-path="url(#pd476d1990d)">
     <!-- $V_{S1}$ -->
     <g transform="translate(24.7984 99.360586)scale(0.125 -0.125)">
      <defs>
       <path id="STIXGeneral-Italic-56" d="M 4403 4179 
L 4403 4077 
Q 4198 4070 4045 3821 
L 1658 -115 
L 1536 -115 
L 1011 3104 
Q 902 3776 828 3910 
Q 755 4045 486 4077 
L 486 4179 
L 2022 4179 
L 2022 4077 
Q 1722 4045 1629 3981 
Q 1536 3917 1536 3750 
Q 1536 3686 1542 3654 
L 1958 819 
L 3302 3123 
Q 3616 3661 3616 3859 
Q 3616 4032 3219 4077 
L 3219 4179 
L 4403 4179 
z
" transform="scale(0.015625)"/>
       <path id="STIXGeneral-Italic-53" d="M 3251 4269 
L 2995 2989 
L 2880 3008 
Q 2880 3539 2720 3795 
Q 2560 4051 2118 4051 
Q 1786 4051 1594 3881 
Q 1402 3712 1402 3411 
Q 1402 3168 1504 3005 
Q 1606 2842 2035 2413 
Q 2464 1978 2611 1715 
Q 2758 1453 2758 1133 
Q 2758 589 2390 237 
Q 2022 -115 1466 -115 
Q 1222 -115 800 32 
Q 595 109 499 109 
Q 288 109 224 -96 
L 109 -96 
L 326 1338 
L 454 1325 
Q 442 1267 442 1178 
Q 442 710 701 409 
Q 960 109 1363 109 
Q 1734 109 1968 336 
Q 2202 563 2202 928 
Q 2202 1139 2118 1308 
Q 2035 1478 1818 1715 
L 1568 1984 
Q 1549 2003 1459 2102 
Q 1370 2202 1318 2253 
Q 1030 2560 934 2755 
Q 838 2950 838 3213 
Q 838 3699 1168 3980 
Q 1498 4262 1978 4262 
Q 2310 4262 2522 4173 
Q 2707 4102 2816 4102 
Q 2925 4102 2982 4134 
Q 3040 4166 3104 4269 
L 3251 4269 
z
" transform="scale(0.015625)"/>
       <path id="STIXGeneral-Regular-31" d="M 2522 0 
L 755 0 
L 755 96 
Q 1107 115 1235 227 
Q 1363 339 1363 608 
L 1363 3482 
Q 1363 3795 1171 3795 
Q 1082 3795 883 3718 
L 710 3654 
L 710 3744 
L 1856 4326 
L 1914 4307 
L 1914 486 
Q 1914 275 2042 185 
Q 2170 96 2522 96 
L 2522 0 
z
" transform="scale(0.015625)"/>
      </defs>
      <use xlink:href="#STIXGeneral-Italic-56" transform="translate(0 0.703125)"/>
      <use xlink:href="#STIXGeneral-Italic-53" transform="translate(61.099991 -12.525)scale(0.7)"/>
      <use xlink:href="#STIXGeneral-Regular-31" transform="translate(96.09998 -12.525)scale(0.7)"/>
     </g>
    </g>
    <g clip-path="url(#pd476d1990d)">
     <!-- 30V -->
     <g transform="translate(17.341369 113.357852)scale(0.125 -0.125)">
      <defs>
       <path id="DejaVuSans-33" d="M 2597 2516 
Q 3050 2419 3304 2112 
Q 3559 1806 3559 1356 
Q 3559 666 3084 287 
Q 2609 -91 1734 -91 
Q 1441 -91 1130 -33 
Q 819 25 488 141 
L 488 750 
Q 750 597 1062 519 
Q 1375 441 1716 441 
Q 2309 441 2620 675 
Q 2931 909 2931 1356 
Q 2931 1769 2642 2001 
Q 2353 2234 1838 2234 
L 1294 2234 
L 1294 2753 
L 1863 2753 
Q 2328 2753 2575 2939 
Q 2822 3125 2822 3475 
Q 2822 3834 2567 4026 
Q 2313 4219 1838 4219 
Q 1578 4219 1281 4162 
Q 984 4106 628 3988 
L 628 4550 
Q 988 4650 1302 4700 
Q 1616 4750 1894 4750 
Q 2613 4750 3031 4423 
Q 3450 4097 3450 3541 
Q 3450 3153 3228 2886 
Q 3006 2619 2597 2516 
z
" transform="scale(0.015625)"/>
       <path id="DejaVuSans-30" d="M 2034 4250 
Q 1547 4250 1301 3770 
Q 1056 3291 1056 2328 
Q 1056 1369 1301 889 
Q 1547 409 2034 409 
Q 2525 409 2770 889 
Q 3016 1369 3016 2328 
Q 3016 3291 2770 3770 
Q 2525 4250 2034 4250 
z
M 2034 4750 
Q 2819 4750 3233 4129 
Q 3647 3509 3647 2328 
Q 3647 1150 3233 529 
Q 2819 -91 2034 -91 
Q 1250 -91 836 529 
Q 422 1150 422 2328 
Q 422 3509 836 4129 
Q 1250 4750 2034 4750 
z
" transform="scale(0.015625)"/>
       <path id="DejaVuSans-56" d="M 1831 0 
L 50 4666 
L 709 4666 
L 2188 738 
L 3669 4666 
L 4325 4666 
L 2547 0 
L 1831 0 
z
" transform="scale(0.015625)"/>
      </defs>
      <use xlink:href="#DejaVuSans-33"/>
      <use xlink:href="#DejaVuSans-30" x="63.623047"/>
      <use xlink:href="#DejaVuSans-56" x="127.246094"/>
     </g>
    </g>
   </g>
   <g id="text_2">
    <g clip-path="url(#pd476d1990d)">
     <!-- $R_{1}$ -->
     <g transform="translate(95.9209 29.703125)scale(0.125 -0.125)">
      <defs>
       <path id="STIXGeneral-Italic-52" d="M 845 4179 
L 2458 4179 
Q 3078 4179 3420 3936 
Q 3763 3693 3763 3277 
Q 3763 2778 3341 2458 
Q 3091 2266 2502 2131 
L 3072 627 
Q 3181 333 3299 217 
Q 3418 102 3629 102 
L 3629 0 
L 2688 0 
L 1901 2074 
L 1478 2106 
L 1126 806 
Q 1043 512 1043 403 
Q 1043 256 1126 192 
Q 1210 128 1472 102 
L 1472 0 
L -83 0 
L -83 102 
Q 173 134 278 243 
Q 384 352 461 646 
L 1222 3405 
Q 1299 3699 1299 3808 
Q 1299 3923 1210 3987 
Q 1133 4038 845 4077 
L 845 4179 
z
M 1958 3795 
L 1555 2342 
Q 1754 2310 1882 2310 
Q 2451 2310 2771 2566 
Q 3091 2822 3091 3270 
Q 3091 3603 2892 3795 
Q 2694 3987 2323 3987 
Q 2010 3987 1958 3795 
z
" transform="scale(0.015625)"/>
      </defs>
      <use xlink:href="#STIXGeneral-Italic-52" transform="translate(0 0.703125)"/>
      <use xlink:href="#STIXGeneral-Regular-31" transform="translate(61.099991 -12.525)scale(0.7)"/>
     </g>
    </g>
    <g clip-path="url(#pd476d1990d)">
     <!-- 10Ω -->
     <g transform="translate(89.503908 43.700391)scale(0.125 -0.125)">
      <defs>
       <path id="DejaVuSans-31" d="M 794 531 
L 1825 531 
L 1825 4091 
L 703 3866 
L 703 4441 
L 1819 4666 
L 2450 4666 
L 2450 531 
L 3481 531 
L 3481 0 
L 794 0 
L 794 531 
z
" transform="scale(0.015625)"/>
       <path id="DejaVuSans-3a9" d="M 4647 556 
L 4647 0 
L 2772 0 
L 2772 556 
Q 3325 859 3634 1378 
Q 3944 1897 3944 2528 
Q 3944 3278 3531 3731 
Q 3119 4184 2444 4184 
Q 1769 4184 1355 3729 
Q 941 3275 941 2528 
Q 941 1897 1250 1378 
Q 1563 859 2119 556 
L 2119 0 
L 244 0 
L 244 556 
L 1241 556 
Q 747 991 519 1456 
Q 294 1922 294 2497 
Q 294 3491 894 4106 
Q 1491 4722 2444 4722 
Q 3391 4722 3994 4106 
Q 4594 3494 4594 2528 
Q 4594 1922 4372 1459 
Q 4150 997 3647 556 
L 4647 556 
z
" transform="scale(0.015625)"/>
      </defs>
      <use xlink:href="#DejaVuSans-31"/>
      <use xlink:href="#DejaVuSans-30" x="63.623047"/>
      <use xlink:href="#DejaVuSans-3a9" x="127.246094"/>
     </g>
    </g>
   </g>
   <g id="text_3">
    <g clip-path="url(#pd476d1990d)">
     <!-- $R_{3}$ -->
     <g transform="translate(187.7209 29.703125)scale(0.125 -0.125)">
      <defs>
       <path id="STIXGeneral-Regular-33" d="M 390 3264 
L 288 3290 
Q 435 3770 748 4048 
Q 1062 4326 1542 4326 
Q 1990 4326 2265 4083 
Q 2541 3840 2541 3450 
Q 2541 2925 1946 2566 
Q 2298 2413 2477 2227 
Q 2758 1914 2758 1402 
Q 2758 890 2464 506 
Q 2246 211 1840 60 
Q 1434 -90 979 -90 
Q 262 -90 262 275 
Q 262 378 339 442 
Q 416 506 525 506 
Q 685 506 915 339 
Q 1197 141 1466 141 
Q 1818 141 2058 425 
Q 2298 710 2298 1120 
Q 2298 1856 1632 2048 
Q 1434 2112 979 2112 
L 979 2202 
Q 1338 2323 1517 2432 
Q 2035 2726 2035 3290 
Q 2035 3610 1852 3776 
Q 1670 3942 1344 3942 
Q 768 3942 390 3264 
z
" transform="scale(0.015625)"/>
      </defs>
      <use xlink:href="#STIXGeneral-Italic-52" transform="translate(0 0.703125)"/>
      <use xlink:href="#STIXGeneral-Regular-33" transform="translate(61.099991 -12.525)scale(0.7)"/>
     </g>
    </g>
    <g clip-path="url(#pd476d1990d)">
     <!-- 10Ω -->
     <g transform="translate(181.303908 43.700391)scale(0.125 -0.125)">
      <use xlink:href="#DejaVuSans-31"/>
      <use xlink:href="#DejaVuSans-30" x="63.623047"/>
      <use xlink:href="#DejaVuSans-3a9" x="127.246094"/>
     </g>
    </g>
   </g>
   <g id="text_4">
    <g clip-path="url(#pd476d1990d)">
     <!-- $R_{2}$ -->
     <g transform="translate(124.7984 99.360586)scale(0.125 -0.125)">
      <defs>
       <path id="STIXGeneral-Regular-32" d="M 3034 877 
L 2688 0 
L 186 0 
L 186 77 
L 1325 1286 
Q 1773 1754 1965 2144 
Q 2157 2534 2157 2950 
Q 2157 3379 1920 3616 
Q 1683 3853 1267 3853 
Q 922 3853 720 3673 
Q 518 3494 326 3021 
L 192 3053 
Q 301 3648 630 3987 
Q 960 4326 1523 4326 
Q 2054 4326 2380 4006 
Q 2707 3686 2707 3200 
Q 2707 2477 1888 1613 
L 832 486 
L 2330 486 
Q 2541 486 2665 569 
Q 2790 653 2944 915 
L 3034 877 
z
" transform="scale(0.015625)"/>
      </defs>
      <use xlink:href="#STIXGeneral-Italic-52" transform="translate(0 0.703125)"/>
      <use xlink:href="#STIXGeneral-Regular-32" transform="translate(61.099991 -12.525)scale(0.7)"/>
     </g>
    </g>
    <g clip-path="url(#pd476d1990d)">
     <!-- 10Ω -->
     <g transform="translate(111.964416 113.357852)scale(0.125 -0.125)">
      <use xlink:href="#DejaVuSans-31"/>
      <use xlink:href="#DejaVuSans-30" x="63.623047"/>
      <use xlink:href="#DejaVuSans-3a9" x="127.246094"/>
     </g>
    </g>
   </g>
   <g id="text_5">
    <g clip-path="url(#pd476d1990d)">
     <!-- $V_{S1}$ -->
     <g transform="translate(24.7984 99.360586)scale(0.125 -0.125)">
      <use xlink:href="#STIXGeneral-Italic-56" transform="translate(0 0.703125)"/>
      <use xlink:href="#STIXGeneral-Italic-53" transform="translate(61.099991 -12.525)scale(0.7)"/>
      <use xlink:href="#STIXGeneral-Regular-31" transform="translate(96.09998 -12.525)scale(0.7)"/>
     </g>
    </g>
    <g clip-path="url(#pd476d1990d)">
     <!-- 30V -->
     <g transform="translate(17.341369 113.357852)scale(0.125 -0.125)">
      <use xlink:href="#DejaVuSans-33"/>
      <use xlink:href="#DejaVuSans-30" x="63.623047"/>
      <use xlink:href="#DejaVuSans-56" x="127.246094"/>
     </g>
    </g>
   </g>
   <g id="text_6">
    <g clip-path="url(#pd476d1990d)">
     <!-- $R_{1}$ -->
     <g transform="translate(95.9209 29.703125)scale(0.125 -0.125)">
      <use xlink:href="#STIXGeneral-Italic-52" transform="translate(0 0.703125)"/>
      <use xlink:href="#STIXGeneral-Regular-31" transform="translate(61.099991 -12.525)scale(0.7)"/>
     </g>
    </g>
    <g clip-path="url(#pd476d1990d)">
     <!-- 10Ω -->
     <g transform="translate(89.503908 43.700391)scale(0.125 -0.125)">
      <use xlink:href="#DejaVuSans-31"/>
      <use xlink:href="#DejaVuSans-30" x="63.623047"/>
      <use xlink:href="#DejaVuSans-3a9" x="127.246094"/>
     </g>
    </g>
   </g>
   <g id="text_7">
    <g clip-path="url(#pd476d1990d)">
     <!-- $R_{3}$ -->
     <g transform="translate(187.7209 29.703125)scale(0.125 -0.125)">
      <use xlink:href="#STIXGeneral-Italic-52" transform="translate(0 0.703125)"/>
      <use xlink:href="#STIXGeneral-Regular-33" transform="translate(61.099991 -12.525)scale(0.7)"/>
     </g>
    </g>
    <g clip-path="url(#pd476d1990d)">
     <!-- 10Ω -->
     <g transform="translate(181.303908 43.700391)scale(0.125 -0.125)">
      <use xlink:href="#DejaVuSans-31"/>
      <use xlink:href="#DejaVuSans-30" x="63.623047"/>
      <use xlink:href="#DejaVuSans-3a9" x="127.246094"/>
     </g>
    </g>
   </g>
   <g id="text_8">
    <g clip-path="url(#pd476d1990d)">
     <!-- $R_{2}$ -->
     <g transform="translate(124.7984 99.360586)scale(0.125 -0.125)">
      <use xlink:href="#STIXGeneral-Italic-52" transform="translate(0 0.703125)"/>
      <use xlink:href="#STIXGeneral-Regular-32" transform="translate(61.099991 -12.525)scale(0.7)"/>
     </g>
    </g>
    <g clip-path="url(#pd476d1990d)">
     <!-- 10Ω -->
     <g transform="translate(111.964416 113.357852)scale(0.125 -0.125)">
      <use xlink:href="#DejaVuSans-31"/>
      <use xlink:href="#DejaVuSans-30" x="63.623047"/>
      <use xlink:href="#DejaVuSans-3a9" x="127.246094"/>
     </g>
    </g>
   </g>
   <g id="patch_2">
    <path d="M 239.9334 82.255 
C 240.542041 82.255 241.125836 82.013184 241.55621 81.58281 
C 241.986584 81.152436 242.2284 80.568641 242.2284 79.96 
C 242.2284 79.351359 241.986584 78.767564 241.55621 78.33719 
C 241.125836 77.906816 240.542041 77.665 239.9334 77.665 
C 239.324759 77.665 238.740964 77.906816 238.31059 78.33719 
C 237.880216 78.767564 237.6384 79.351359 237.6384 79.96 
C 237.6384 80.568641 237.880216 81.152436 238.31059 81.58281 
C 238.740964 82.013184 239.324759 82.255 239.9334 82.255 
z
" clip-path="url(#pd476d1990d)" style="stroke: #000000; stroke-width: 2; stroke-linejoin: miter"/>
   </g>
   <g id="patch_3">
    <path d="M 239.9334 128.155 
C 240.542041 128.155 241.125836 127.913184 241.55621 127.48281 
C 241.986584 127.052436 242.2284 126.468641 242.2284 125.86 
C 242.2284 125.251359 241.986584 124.667564 241.55621 124.23719 
C 241.125836 123.806816 240.542041 123.565 239.9334 123.565 
C 239.324759 123.565 238.740964 123.806816 238.31059 124.23719 
C 237.880216 124.667564 237.6384 125.251359 237.6384 125.86 
C 237.6384 126.468641 237.880216 127.052436 238.31059 127.48281 
C 238.740964 127.913184 239.324759 128.155 239.9334 128.155 
z
" clip-path="url(#pd476d1990d)" style="stroke: #000000; stroke-width: 2; stroke-linejoin: miter"/>
   </g>
   <g id="line2d_27">
    <path d="M 148.1334 130.45 
L 148.1334 130.45 
" clip-path="url(#pd476d1990d)" style="fill: none; stroke: #000000; stroke-width: 2; stroke-linecap: round"/>
   </g>
   <g id="patch_4">
    <path d="M 152.7234 130.45 
L 148.1334 139.63 
L 143.5434 130.45 
z
" clip-path="url(#pd476d1990d)"/>
   </g>
   <g id="text_9">
    <g clip-path="url(#pd476d1990d)">
     <!-- $I_O^{(1)}$ -->
     <g transform="translate(122.7034 139.1025)scale(0.125 -0.125)">
      <defs>
       <path id="STIXGeneral-Italic-49" d="M 2458 4179 
L 2458 4077 
Q 2189 4045 2102 3961 
Q 2016 3878 1933 3584 
L 1165 838 
Q 1069 499 1069 352 
Q 1069 224 1149 179 
Q 1229 134 1510 102 
L 1510 0 
L -51 0 
L -51 102 
Q 218 154 317 237 
Q 416 320 486 582 
L 1254 3405 
Q 1338 3699 1338 3802 
Q 1338 3930 1235 3997 
Q 1133 4064 877 4077 
L 877 4179 
L 2458 4179 
z
" transform="scale(0.015625)"/>
       <path id="STIXGeneral-Regular-28" d="M 1946 -1030 
L 1869 -1133 
Q 1126 -710 716 32 
Q 307 774 307 1613 
Q 307 3386 1888 4326 
L 1946 4224 
Q 1293 3667 1075 3126 
Q 858 2586 858 1632 
Q 858 685 1082 96 
Q 1306 -493 1946 -1030 
z
" transform="scale(0.015625)"/>
       <path id="STIXGeneral-Regular-29" d="M 186 4224 
L 262 4326 
Q 992 3891 1408 3148 
Q 1824 2406 1824 1581 
Q 1824 -166 243 -1133 
L 186 -1030 
Q 845 -486 1059 54 
Q 1274 595 1274 1562 
Q 1274 2534 1059 3120 
Q 845 3706 186 4224 
z
" transform="scale(0.015625)"/>
       <path id="STIXGeneral-Italic-4f" d="M 4474 2675 
Q 4474 1990 4106 1363 
Q 3738 736 3149 339 
Q 2477 -115 1779 -115 
Q 1146 -115 765 281 
Q 384 678 384 1382 
Q 384 1965 697 2582 
Q 1011 3200 1517 3642 
Q 2234 4262 3034 4262 
Q 3718 4269 4096 3840 
Q 4474 3411 4474 2675 
z
M 3802 3078 
Q 3802 3533 3581 3792 
Q 3360 4051 2976 4051 
Q 2342 4051 1786 3302 
Q 1446 2842 1251 2259 
Q 1056 1677 1056 1178 
Q 1056 653 1270 374 
Q 1485 96 1888 96 
Q 2477 96 2976 704 
Q 3354 1178 3578 1862 
Q 3802 2547 3802 3078 
z
" transform="scale(0.015625)"/>
      </defs>
      <use xlink:href="#STIXGeneral-Italic-49" transform="translate(0 0.55625)"/>
      <use xlink:href="#STIXGeneral-Regular-28" transform="translate(43.925769 45.684375)scale(0.7)"/>
      <use xlink:href="#STIXGeneral-Regular-31" transform="translate(67.23576 45.684375)scale(0.7)"/>
      <use xlink:href="#STIXGeneral-Regular-29" transform="translate(102.23575 45.684375)scale(0.7)"/>
      <use xlink:href="#STIXGeneral-Italic-4f" transform="translate(33.299988 -25.9)scale(0.7)"/>
     </g>
    </g>
   </g>
   <g id="patch_5">
    <path d="M 148.1334 59.305 
C 148.742041 59.305 149.325836 59.063184 149.75621 58.63281 
C 150.186584 58.202436 150.4284 57.618641 150.4284 57.01 
C 150.4284 56.401359 150.186584 55.817564 149.75621 55.38719 
C 149.325836 54.956816 148.742041 54.715 148.1334 54.715 
C 147.524759 54.715 146.940964 54.956816 146.51059 55.38719 
C 146.080216 55.817564 145.8384 56.401359 145.8384 57.01 
C 145.8384 57.618641 146.080216 58.202436 146.51059 58.63281 
C 146.940964 59.063184 147.524759 59.305 148.1334 59.305 
z
" clip-path="url(#pd476d1990d)" style="fill: #ff0000; stroke: #ff0000; stroke-width: 2; stroke-linejoin: miter"/>
   </g>
   <g id="text_10">
    <g clip-path="url(#pd476d1990d)">
     <!-- $V_A^{(1)}$ -->
     <g style="fill: #ff0000" transform="translate(138.2584 48.28)scale(0.125 -0.125)">
      <defs>
       <path id="STIXGeneral-Italic-41" d="M 3610 0 
L 2042 0 
L 2042 102 
Q 2330 115 2432 192 
Q 2534 269 2534 442 
Q 2534 493 2522 608 
L 2394 1446 
L 986 1446 
L 608 736 
Q 467 474 467 314 
Q 467 122 864 102 
L 864 0 
L -326 0 
L -326 102 
Q -109 147 28 307 
Q 166 467 531 1101 
L 2355 4275 
L 2522 4275 
L 3110 736 
Q 3174 339 3264 230 
Q 3354 122 3610 102 
L 3610 0 
z
M 2362 1677 
L 2074 3360 
L 1120 1677 
L 2362 1677 
z
" transform="scale(0.015625)"/>
      </defs>
      <use xlink:href="#STIXGeneral-Italic-56" transform="translate(0 0.490625)"/>
      <use xlink:href="#STIXGeneral-Regular-28" transform="translate(71.725772 45.684375)scale(0.7)"/>
      <use xlink:href="#STIXGeneral-Regular-31" transform="translate(95.035764 45.684375)scale(0.7)"/>
      <use xlink:href="#STIXGeneral-Regular-29" transform="translate(130.035753 45.684375)scale(0.7)"/>
      <use xlink:href="#STIXGeneral-Italic-41" transform="translate(61.099991 -25.965625)scale(0.7)"/>
     </g>
    </g>
   </g>
   <g id="patch_6">
    <path d="M 239.9334 82.255 
C 240.542041 82.255 241.125836 82.013184 241.55621 81.58281 
C 241.986584 81.152436 242.2284 80.568641 242.2284 79.96 
C 242.2284 79.351359 241.986584 78.767564 241.55621 78.33719 
C 241.125836 77.906816 240.542041 77.665 239.9334 77.665 
C 239.324759 77.665 238.740964 77.906816 238.31059 78.33719 
C 237.880216 78.767564 237.6384 79.351359 237.6384 79.96 
C 237.6384 80.568641 237.880216 81.152436 238.31059 81.58281 
C 238.740964 82.013184 239.324759 82.255 239.9334 82.255 
z
" clip-path="url(#pd476d1990d)" style="stroke: #000000; stroke-width: 2; stroke-linejoin: miter"/>
   </g>
   <g id="patch_7">
    <path d="M 239.9334 128.155 
C 240.542041 128.155 241.125836 127.913184 241.55621 127.48281 
C 241.986584 127.052436 242.2284 126.468641 242.2284 125.86 
C 242.2284 125.251359 241.986584 124.667564 241.55621 124.23719 
C 241.125836 123.806816 240.542041 123.565 239.9334 123.565 
C 239.324759 123.565 238.740964 123.806816 238.31059 124.23719 
C 237.880216 124.667564 237.6384 125.251359 237.6384 125.86 
C 237.6384 126.468641 237.880216 127.052436 238.31059 127.48281 
C 238.740964 127.913184 239.324759 128.155 239.9334 128.155 
z
" clip-path="url(#pd476d1990d)" style="stroke: #000000; stroke-width: 2; stroke-linejoin: miter"/>
   </g>
   <g id="line2d_28">
    <path d="M 148.1334 130.45 
L 148.1334 130.45 
" clip-path="url(#pd476d1990d)" style="fill: none; stroke: #000000; stroke-width: 2; stroke-linecap: round"/>
   </g>
   <g id="patch_8">
    <path d="M 152.7234 130.45 
L 148.1334 139.63 
L 143.5434 130.45 
z
" clip-path="url(#pd476d1990d)"/>
   </g>
   <g id="text_11">
    <g clip-path="url(#pd476d1990d)">
     <!-- $I_O^{(1)}$ -->
     <g transform="translate(122.7034 139.1025)scale(0.125 -0.125)">
      <use xlink:href="#STIXGeneral-Italic-49" transform="translate(0 0.55625)"/>
      <use xlink:href="#STIXGeneral-Regular-28" transform="translate(43.925769 45.684375)scale(0.7)"/>
      <use xlink:href="#STIXGeneral-Regular-31" transform="translate(67.23576 45.684375)scale(0.7)"/>
      <use xlink:href="#STIXGeneral-Regular-29" transform="translate(102.23575 45.684375)scale(0.7)"/>
      <use xlink:href="#STIXGeneral-Italic-4f" transform="translate(33.299988 -25.9)scale(0.7)"/>
     </g>
    </g>
   </g>
   <g id="patch_9">
    <path d="M 148.1334 59.305 
C 148.742041 59.305 149.325836 59.063184 149.75621 58.63281 
C 150.186584 58.202436 150.4284 57.618641 150.4284 57.01 
C 150.4284 56.401359 150.186584 55.817564 149.75621 55.38719 
C 149.325836 54.956816 148.742041 54.715 148.1334 54.715 
C 147.524759 54.715 146.940964 54.956816 146.51059 55.38719 
C 146.080216 55.817564 145.8384 56.401359 145.8384 57.01 
C 145.8384 57.618641 146.080216 58.202436 146.51059 58.63281 
C 146.940964 59.063184 147.524759 59.305 148.1334 59.305 
z
" clip-path="url(#pd476d1990d)" style="fill: #ff0000; stroke: #ff0000; stroke-width: 2; stroke-linejoin: miter"/>
   </g>
   <g id="text_12">
    <g clip-path="url(#pd476d1990d)">
     <!-- $V_A^{(1)}$ -->
     <g style="fill: #ff0000" transform="translate(138.2584 48.28)scale(0.125 -0.125)">
      <use xlink:href="#STIXGeneral-Italic-56" transform="translate(0 0.490625)"/>
      <use xlink:href="#STIXGeneral-Regular-28" transform="translate(71.725772 45.684375)scale(0.7)"/>
      <use xlink:href="#STIXGeneral-Regular-31" transform="translate(95.035764 45.684375)scale(0.7)"/>
      <use xlink:href="#STIXGeneral-Regular-29" transform="translate(130.035753 45.684375)scale(0.7)"/>
      <use xlink:href="#STIXGeneral-Italic-41" transform="translate(61.099991 -25.965625)scale(0.7)"/>
     </g>
    </g>
   </g>
  </g>
 </g>
 <defs>
  <clipPath id="pd476d1990d">
   <rect x="7.2" y="7.2" width="238.0884" height="164.56"/>
  </clipPath>
 </defs>
</svg>
