<?xml version="1.0" encoding="utf-8" standalone="no"?>
<!DOCTYPE svg PUBLIC "-//W3C//DTD SVG 1.1//EN"
  "http://www.w3.org/Graphics/SVG/1.1/DTD/svg11.dtd">
<svg xmlns:xlink="http://www.w3.org/1999/xlink" width="295.9914pt" height="278.41pt" viewBox="0 0 295.9914 278.41" xmlns="http://www.w3.org/2000/svg" version="1.1">
 <metadata>
  <rdf:RDF xmlns:dc="http://purl.org/dc/elements/1.1/" xmlns:cc="http://creativecommons.org/ns#" xmlns:rdf="http://www.w3.org/1999/02/22-rdf-syntax-ns#">
   <cc:Work>
    <dc:type rdf:resource="http://purl.org/dc/dcmitype/StillImage"/>
    <dc:date>2023-03-05T00:20:49.218819</dc:date>
    <dc:format>image/svg+xml</dc:format>
    <dc:creator>
     <cc:Agent>
      <dc:title>Matplotlib v3.5.2, https://matplotlib.org/</dc:title>
     </cc:Agent>
    </dc:creator>
   </cc:Work>
  </rdf:RDF>
 </metadata>
 <defs>
  <style type="text/css">*{stroke-linejoin: round; stroke-linecap: butt}</style>
 </defs>
 <g id="figure_1">
  <g id="patch_1">
   <path d="M 0 278.41 
L 295.9914 278.41 
L 295.9914 0 
L 0 0 
L 0 278.41 
z
" style="fill: none"/>
  </g>
  <g id="axes_1">
   <g id="patch_2">
    <path d="M 194.0334 171.76 
C 198.091007 171.76 201.982972 170.147895 204.852134 167.278734 
C 207.721295 164.409572 209.3334 160.517607 209.3334 156.46 
C 209.3334 152.402393 207.721295 148.510428 204.852134 145.641266 
C 201.982972 142.772105 198.091007 141.16 194.0334 141.16 
C 189.975793 141.16 186.083828 142.772105 183.214666 145.641266 
C 180.345505 148.510428 178.7334 152.402393 178.7334 156.46 
C 178.7334 160.517607 180.345505 164.409572 183.214666 167.278734 
C 186.083828 170.147895 189.975793 171.76 194.0334 171.76 
L 194.0334 171.76 
z
" clip-path="url(#p6a709e1def)" style="fill: none; stroke: #000000; stroke-width: 2; stroke-linejoin: miter"/>
   </g>
   <g id="patch_3">
    <path d="M 194.0334 79.96 
C 198.091007 79.96 201.982972 78.347895 204.852134 75.478734 
C 207.721295 72.609572 209.3334 68.717607 209.3334 64.66 
C 209.3334 60.602393 207.721295 56.710428 204.852134 53.841266 
C 201.982972 50.972105 198.091007 49.36 194.0334 49.36 
C 189.975793 49.36 186.083828 50.972105 183.214666 53.841266 
C 180.345505 56.710428 178.7334 60.602393 178.7334 64.66 
C 178.7334 68.717607 180.345505 72.609572 183.214666 75.478734 
C 186.083828 78.347895 189.975793 79.96 194.0334 79.96 
L 194.0334 79.96 
z
" clip-path="url(#p6a709e1def)" style="fill: none; stroke: #000000; stroke-width: 2; stroke-linejoin: miter"/>
   </g>
   <g id="patch_4">
    <path d="M 194.0334 171.76 
C 198.091007 171.76 201.982972 170.147895 204.852134 167.278734 
C 207.721295 164.409572 209.3334 160.517607 209.3334 156.46 
C 209.3334 152.402393 207.721295 148.510428 204.852134 145.641266 
C 201.982972 142.772105 198.091007 141.16 194.0334 141.16 
C 189.975793 141.16 186.083828 142.772105 183.214666 145.641266 
C 180.345505 148.510428 178.7334 152.402393 178.7334 156.46 
C 178.7334 160.517607 180.345505 164.409572 183.214666 167.278734 
C 186.083828 170.147895 189.975793 171.76 194.0334 171.76 
L 194.0334 171.76 
z
" clip-path="url(#p6a709e1def)" style="fill: none; stroke: #000000; stroke-width: 2; stroke-linejoin: miter"/>
   </g>
   <g id="patch_5">
    <path d="M 194.0334 79.96 
C 198.091007 79.96 201.982972 78.347895 204.852134 75.478734 
C 207.721295 72.609572 209.3334 68.717607 209.3334 64.66 
C 209.3334 60.602393 207.721295 56.710428 204.852134 53.841266 
C 201.982972 50.972105 198.091007 49.36 194.0334 49.36 
C 189.975793 49.36 186.083828 50.972105 183.214666 53.841266 
C 180.345505 56.710428 178.7334 60.602393 178.7334 64.66 
C 178.7334 68.717607 180.345505 72.609572 183.214666 75.478734 
C 186.083828 78.347895 189.975793 79.96 194.0334 79.96 
L 194.0334 79.96 
z
" clip-path="url(#p6a709e1def)" style="fill: none; stroke: #000000; stroke-width: 2; stroke-linejoin: miter"/>
   </g>
   <g id="line2d_1">
    <path d="M 56.3334 248.26 
L 56.3334 210.96625 
M 56.3334 193.75375 
L 56.3334 156.46 
" clip-path="url(#p6a709e1def)" style="fill: none; stroke: #000000; stroke-width: 2; stroke-linecap: round"/>
   </g>
   <g id="line2d_2">
    <path d="M 67.8084 193.75375 
L 44.8584 193.75375 
" clip-path="url(#p6a709e1def)" style="fill: none; stroke: #000000; stroke-width: 2; stroke-linecap: round"/>
   </g>
   <g id="line2d_3">
    <path d="M 62.0709 199.49125 
L 50.5959 199.49125 
" clip-path="url(#p6a709e1def)" style="fill: none; stroke: #000000; stroke-width: 2; stroke-linecap: round"/>
   </g>
   <g id="line2d_4">
    <path d="M 67.8084 205.22875 
L 44.8584 205.22875 
" clip-path="url(#p6a709e1def)" style="fill: none; stroke: #000000; stroke-width: 2; stroke-linecap: round"/>
   </g>
   <g id="line2d_5">
    <path d="M 62.0709 210.96625 
L 50.5959 210.96625 
" clip-path="url(#p6a709e1def)" style="fill: none; stroke: #000000; stroke-width: 2; stroke-linecap: round"/>
   </g>
   <g id="line2d_6">
    <path d="M 56.3334 156.46 
L 86.9334 156.46 
L 89.4834 148.81 
L 94.5834 164.11 
L 99.6834 148.81 
L 104.7834 164.11 
L 109.8834 148.81 
L 114.9834 164.11 
L 117.5334 156.46 
L 148.1334 156.46 
" clip-path="url(#p6a709e1def)" style="fill: none; stroke: #000000; stroke-width: 2; stroke-linecap: round"/>
   </g>
   <g id="line2d_7">
    <path d="M 148.1334 156.46 
L 178.7334 156.46 
L 178.7334 156.46 
M 209.3334 156.46 
L 209.3334 156.46 
L 239.9334 156.46 
" clip-path="url(#p6a709e1def)" style="fill: none; stroke: #000000; stroke-width: 2; stroke-linecap: round"/>
   </g>
   <g id="line2d_8">
    <path d="M 186.3834 156.46 
L 194.0334 156.46 
" clip-path="url(#p6a709e1def)" style="fill: none; stroke: #000000; stroke-width: 2; stroke-linecap: round"/>
   </g>
   <g id="patch_6">
    <path d="M 194.0334 154.165 
L 201.6834 156.46 
L 194.0334 158.755 
z
" clip-path="url(#p6a709e1def)"/>
   </g>
   <g id="line2d_9">
    <path d="M 239.9334 156.46 
L 239.9334 187.06 
L 247.5834 189.61 
L 232.2834 194.71 
L 247.5834 199.81 
L 232.2834 204.91 
L 247.5834 210.01 
L 232.2834 215.11 
L 239.9334 217.66 
L 239.9334 248.26 
" clip-path="url(#p6a709e1def)" style="fill: none; stroke: #000000; stroke-width: 2; stroke-linecap: round"/>
   </g>
   <g id="line2d_10">
    <path d="M 239.9334 248.26 
L 148.1334 248.26 
L 56.3334 248.26 
" clip-path="url(#p6a709e1def)" style="fill: none; stroke: #000000; stroke-width: 2; stroke-linecap: round"/>
   </g>
   <g id="line2d_11">
    <path d="M 56.3334 248.26 
L 56.3334 260.5 
L 48.6834 260.5 
L 56.3334 268.15 
L 63.9834 260.5 
L 56.3334 260.5 
" clip-path="url(#p6a709e1def)" style="fill: none; stroke: #000000; stroke-width: 2; stroke-linecap: round"/>
   </g>
   <g id="line2d_12">
    <path d="M 148.1334 156.46 
L 148.1334 187.06 
L 155.7834 189.61 
L 140.4834 194.71 
L 155.7834 199.81 
L 140.4834 204.91 
L 155.7834 210.01 
L 140.4834 215.11 
L 148.1334 217.66 
L 148.1334 248.26 
" clip-path="url(#p6a709e1def)" style="fill: none; stroke: #000000; stroke-width: 2; stroke-linecap: round"/>
   </g>
   <g id="line2d_13">
    <path d="M 56.3334 156.46 
L 56.3334 110.56 
L 56.3334 64.66 
" clip-path="url(#p6a709e1def)" style="fill: none; stroke: #000000; stroke-width: 2; stroke-linecap: round"/>
   </g>
   <g id="line2d_14">
    <path d="M 56.3334 64.66 
L 86.9334 64.66 
L 89.4834 57.01 
L 94.5834 72.31 
L 99.6834 57.01 
L 104.7834 72.31 
L 109.8834 57.01 
L 114.9834 72.31 
L 117.5334 64.66 
L 148.1334 64.66 
" clip-path="url(#p6a709e1def)" style="fill: none; stroke: #000000; stroke-width: 2; stroke-linecap: round"/>
   </g>
   <g id="line2d_15">
    <path d="M 148.1334 64.66 
L 178.7334 64.66 
L 178.7334 64.66 
M 209.3334 64.66 
L 209.3334 64.66 
L 239.9334 64.66 
" clip-path="url(#p6a709e1def)" style="fill: none; stroke: #000000; stroke-width: 2; stroke-linecap: round"/>
   </g>
   <g id="line2d_16">
    <path d="M 201.6834 61.6 
L 201.6834 67.72 
" clip-path="url(#p6a709e1def)" style="fill: none; stroke: #000000; stroke-width: 2; stroke-linecap: round"/>
   </g>
   <g id="line2d_17">
    <path d="M 183.3234 64.66 
L 189.4434 64.66 
" clip-path="url(#p6a709e1def)" style="fill: none; stroke: #000000; stroke-width: 2; stroke-linecap: round"/>
   </g>
   <g id="line2d_18">
    <path d="M 186.3834 61.6 
L 186.3834 67.72 
" clip-path="url(#p6a709e1def)" style="fill: none; stroke: #000000; stroke-width: 2; stroke-linecap: round"/>
   </g>
   <g id="line2d_19">
    <path d="M 239.9334 64.66 
L 239.9334 110.56 
L 239.9334 156.46 
" clip-path="url(#p6a709e1def)" style="fill: none; stroke: #000000; stroke-width: 2; stroke-linecap: round"/>
   </g>
   <g id="line2d_20">
    <path d="M 56.3334 248.26 
L 56.3334 210.96625 
M 56.3334 193.75375 
L 56.3334 156.46 
" clip-path="url(#p6a709e1def)" style="fill: none; stroke: #000000; stroke-width: 2; stroke-linecap: round"/>
   </g>
   <g id="line2d_21">
    <path d="M 67.8084 193.75375 
L 44.8584 193.75375 
" clip-path="url(#p6a709e1def)" style="fill: none; stroke: #000000; stroke-width: 2; stroke-linecap: round"/>
   </g>
   <g id="line2d_22">
    <path d="M 62.0709 199.49125 
L 50.5959 199.49125 
" clip-path="url(#p6a709e1def)" style="fill: none; stroke: #000000; stroke-width: 2; stroke-linecap: round"/>
   </g>
   <g id="line2d_23">
    <path d="M 67.8084 205.22875 
L 44.8584 205.22875 
" clip-path="url(#p6a709e1def)" style="fill: none; stroke: #000000; stroke-width: 2; stroke-linecap: round"/>
   </g>
   <g id="line2d_24">
    <path d="M 62.0709 210.96625 
L 50.5959 210.96625 
" clip-path="url(#p6a709e1def)" style="fill: none; stroke: #000000; stroke-width: 2; stroke-linecap: round"/>
   </g>
   <g id="line2d_25">
    <path d="M 56.3334 156.46 
L 86.9334 156.46 
L 89.4834 148.81 
L 94.5834 164.11 
L 99.6834 148.81 
L 104.7834 164.11 
L 109.8834 148.81 
L 114.9834 164.11 
L 117.5334 156.46 
L 148.1334 156.46 
" clip-path="url(#p6a709e1def)" style="fill: none; stroke: #000000; stroke-width: 2; stroke-linecap: round"/>
   </g>
   <g id="line2d_26">
    <path d="M 148.1334 156.46 
L 178.7334 156.46 
L 178.7334 156.46 
M 209.3334 156.46 
L 209.3334 156.46 
L 239.9334 156.46 
" clip-path="url(#p6a709e1def)" style="fill: none; stroke: #000000; stroke-width: 2; stroke-linecap: round"/>
   </g>
   <g id="line2d_27">
    <path d="M 186.3834 156.46 
L 194.0334 156.46 
" clip-path="url(#p6a709e1def)" style="fill: none; stroke: #000000; stroke-width: 2; stroke-linecap: round"/>
   </g>
   <g id="patch_7">
    <path d="M 194.0334 154.165 
L 201.6834 156.46 
L 194.0334 158.755 
z
" clip-path="url(#p6a709e1def)"/>
   </g>
   <g id="line2d_28">
    <path d="M 239.9334 156.46 
L 239.9334 187.06 
L 247.5834 189.61 
L 232.2834 194.71 
L 247.5834 199.81 
L 232.2834 204.91 
L 247.5834 210.01 
L 232.2834 215.11 
L 239.9334 217.66 
L 239.9334 248.26 
" clip-path="url(#p6a709e1def)" style="fill: none; stroke: #000000; stroke-width: 2; stroke-linecap: round"/>
   </g>
   <g id="line2d_29">
    <path d="M 239.9334 248.26 
L 148.1334 248.26 
L 56.3334 248.26 
" clip-path="url(#p6a709e1def)" style="fill: none; stroke: #000000; stroke-width: 2; stroke-linecap: round"/>
   </g>
   <g id="line2d_30">
    <path d="M 56.3334 248.26 
L 56.3334 260.5 
L 48.6834 260.5 
L 56.3334 268.15 
L 63.9834 260.5 
L 56.3334 260.5 
" clip-path="url(#p6a709e1def)" style="fill: none; stroke: #000000; stroke-width: 2; stroke-linecap: round"/>
   </g>
   <g id="line2d_31">
    <path d="M 148.1334 156.46 
L 148.1334 187.06 
L 155.7834 189.61 
L 140.4834 194.71 
L 155.7834 199.81 
L 140.4834 204.91 
L 155.7834 210.01 
L 140.4834 215.11 
L 148.1334 217.66 
L 148.1334 248.26 
" clip-path="url(#p6a709e1def)" style="fill: none; stroke: #000000; stroke-width: 2; stroke-linecap: round"/>
   </g>
   <g id="line2d_32">
    <path d="M 56.3334 156.46 
L 56.3334 110.56 
L 56.3334 64.66 
" clip-path="url(#p6a709e1def)" style="fill: none; stroke: #000000; stroke-width: 2; stroke-linecap: round"/>
   </g>
   <g id="line2d_33">
    <path d="M 56.3334 64.66 
L 86.9334 64.66 
L 89.4834 57.01 
L 94.5834 72.31 
L 99.6834 57.01 
L 104.7834 72.31 
L 109.8834 57.01 
L 114.9834 72.31 
L 117.5334 64.66 
L 148.1334 64.66 
" clip-path="url(#p6a709e1def)" style="fill: none; stroke: #000000; stroke-width: 2; stroke-linecap: round"/>
   </g>
   <g id="line2d_34">
    <path d="M 148.1334 64.66 
L 178.7334 64.66 
L 178.7334 64.66 
M 209.3334 64.66 
L 209.3334 64.66 
L 239.9334 64.66 
" clip-path="url(#p6a709e1def)" style="fill: none; stroke: #000000; stroke-width: 2; stroke-linecap: round"/>
   </g>
   <g id="line2d_35">
    <path d="M 201.6834 61.6 
L 201.6834 67.72 
" clip-path="url(#p6a709e1def)" style="fill: none; stroke: #000000; stroke-width: 2; stroke-linecap: round"/>
   </g>
   <g id="line2d_36">
    <path d="M 183.3234 64.66 
L 189.4434 64.66 
" clip-path="url(#p6a709e1def)" style="fill: none; stroke: #000000; stroke-width: 2; stroke-linecap: round"/>
   </g>
   <g id="line2d_37">
    <path d="M 186.3834 61.6 
L 186.3834 67.72 
" clip-path="url(#p6a709e1def)" style="fill: none; stroke: #000000; stroke-width: 2; stroke-linecap: round"/>
   </g>
   <g id="line2d_38">
    <path d="M 239.9334 64.66 
L 239.9334 110.56 
L 239.9334 156.46 
" clip-path="url(#p6a709e1def)" style="fill: none; stroke: #000000; stroke-width: 2; stroke-linecap: round"/>
   </g>
   <g id="text_1">
    <g clip-path="url(#p6a709e1def)">
     <!-- $V_{S1}$ -->
     <g transform="translate(24.7984 198.810586)scale(0.125 -0.125)">
      <defs>
       <path id="STIXGeneral-Italic-56" d="M 4403 4179 
L 4403 4077 
Q 4198 4070 4045 3821 
L 1658 -115 
L 1536 -115 
L 1011 3104 
Q 902 3776 828 3910 
Q 755 4045 486 4077 
L 486 4179 
L 2022 4179 
L 2022 4077 
Q 1722 4045 1629 3981 
Q 1536 3917 1536 3750 
Q 1536 3686 1542 3654 
L 1958 819 
L 3302 3123 
Q 3616 3661 3616 3859 
Q 3616 4032 3219 4077 
L 3219 4179 
L 4403 4179 
z
" transform="scale(0.015625)"/>
       <path id="STIXGeneral-Italic-53" d="M 3251 4269 
L 2995 2989 
L 2880 3008 
Q 2880 3539 2720 3795 
Q 2560 4051 2118 4051 
Q 1786 4051 1594 3881 
Q 1402 3712 1402 3411 
Q 1402 3168 1504 3005 
Q 1606 2842 2035 2413 
Q 2464 1978 2611 1715 
Q 2758 1453 2758 1133 
Q 2758 589 2390 237 
Q 2022 -115 1466 -115 
Q 1222 -115 800 32 
Q 595 109 499 109 
Q 288 109 224 -96 
L 109 -96 
L 326 1338 
L 454 1325 
Q 442 1267 442 1178 
Q 442 710 701 409 
Q 960 109 1363 109 
Q 1734 109 1968 336 
Q 2202 563 2202 928 
Q 2202 1139 2118 1308 
Q 2035 1478 1818 1715 
L 1568 1984 
Q 1549 2003 1459 2102 
Q 1370 2202 1318 2253 
Q 1030 2560 934 2755 
Q 838 2950 838 3213 
Q 838 3699 1168 3980 
Q 1498 4262 1978 4262 
Q 2310 4262 2522 4173 
Q 2707 4102 2816 4102 
Q 2925 4102 2982 4134 
Q 3040 4166 3104 4269 
L 3251 4269 
z
" transform="scale(0.015625)"/>
       <path id="STIXGeneral-Regular-31" d="M 2522 0 
L 755 0 
L 755 96 
Q 1107 115 1235 227 
Q 1363 339 1363 608 
L 1363 3482 
Q 1363 3795 1171 3795 
Q 1082 3795 883 3718 
L 710 3654 
L 710 3744 
L 1856 4326 
L 1914 4307 
L 1914 486 
Q 1914 275 2042 185 
Q 2170 96 2522 96 
L 2522 0 
z
" transform="scale(0.015625)"/>
      </defs>
      <use xlink:href="#STIXGeneral-Italic-56" transform="translate(0 0.703125)"/>
      <use xlink:href="#STIXGeneral-Italic-53" transform="translate(61.099991 -12.525)scale(0.7)"/>
      <use xlink:href="#STIXGeneral-Regular-31" transform="translate(96.09998 -12.525)scale(0.7)"/>
     </g>
    </g>
    <g clip-path="url(#p6a709e1def)">
     <!-- 12V -->
     <g transform="translate(17.341369 212.807852)scale(0.125 -0.125)">
      <defs>
       <path id="DejaVuSans-31" d="M 794 531 
L 1825 531 
L 1825 4091 
L 703 3866 
L 703 4441 
L 1819 4666 
L 2450 4666 
L 2450 531 
L 3481 531 
L 3481 0 
L 794 0 
L 794 531 
z
" transform="scale(0.015625)"/>
       <path id="DejaVuSans-32" d="M 1228 531 
L 3431 531 
L 3431 0 
L 469 0 
L 469 531 
Q 828 903 1448 1529 
Q 2069 2156 2228 2338 
Q 2531 2678 2651 2914 
Q 2772 3150 2772 3378 
Q 2772 3750 2511 3984 
Q 2250 4219 1831 4219 
Q 1534 4219 1204 4116 
Q 875 4013 500 3803 
L 500 4441 
Q 881 4594 1212 4672 
Q 1544 4750 1819 4750 
Q 2544 4750 2975 4387 
Q 3406 4025 3406 3419 
Q 3406 3131 3298 2873 
Q 3191 2616 2906 2266 
Q 2828 2175 2409 1742 
Q 1991 1309 1228 531 
z
" transform="scale(0.015625)"/>
       <path id="DejaVuSans-56" d="M 1831 0 
L 50 4666 
L 709 4666 
L 2188 738 
L 3669 4666 
L 4325 4666 
L 2547 0 
L 1831 0 
z
" transform="scale(0.015625)"/>
      </defs>
      <use xlink:href="#DejaVuSans-31"/>
      <use xlink:href="#DejaVuSans-32" x="63.623047"/>
      <use xlink:href="#DejaVuSans-56" x="127.246094"/>
     </g>
    </g>
   </g>
   <g id="text_2">
    <g clip-path="url(#p6a709e1def)">
     <!-- $R_{1}$ -->
     <g transform="translate(95.9209 129.153125)scale(0.125 -0.125)">
      <defs>
       <path id="STIXGeneral-Italic-52" d="M 845 4179 
L 2458 4179 
Q 3078 4179 3420 3936 
Q 3763 3693 3763 3277 
Q 3763 2778 3341 2458 
Q 3091 2266 2502 2131 
L 3072 627 
Q 3181 333 3299 217 
Q 3418 102 3629 102 
L 3629 0 
L 2688 0 
L 1901 2074 
L 1478 2106 
L 1126 806 
Q 1043 512 1043 403 
Q 1043 256 1126 192 
Q 1210 128 1472 102 
L 1472 0 
L -83 0 
L -83 102 
Q 173 134 278 243 
Q 384 352 461 646 
L 1222 3405 
Q 1299 3699 1299 3808 
Q 1299 3923 1210 3987 
Q 1133 4038 845 4077 
L 845 4179 
z
M 1958 3795 
L 1555 2342 
Q 1754 2310 1882 2310 
Q 2451 2310 2771 2566 
Q 3091 2822 3091 3270 
Q 3091 3603 2892 3795 
Q 2694 3987 2323 3987 
Q 2010 3987 1958 3795 
z
" transform="scale(0.015625)"/>
      </defs>
      <use xlink:href="#STIXGeneral-Italic-52" transform="translate(0 0.703125)"/>
      <use xlink:href="#STIXGeneral-Regular-31" transform="translate(61.099991 -12.525)scale(0.7)"/>
     </g>
    </g>
    <g clip-path="url(#p6a709e1def)">
     <!-- 4kΩ -->
     <g transform="translate(89.86133 143.150391)scale(0.125 -0.125)">
      <defs>
       <path id="DejaVuSans-34" d="M 2419 4116 
L 825 1625 
L 2419 1625 
L 2419 4116 
z
M 2253 4666 
L 3047 4666 
L 3047 1625 
L 3713 1625 
L 3713 1100 
L 3047 1100 
L 3047 0 
L 2419 0 
L 2419 1100 
L 313 1100 
L 313 1709 
L 2253 4666 
z
" transform="scale(0.015625)"/>
       <path id="DejaVuSans-6b" d="M 581 4863 
L 1159 4863 
L 1159 1991 
L 2875 3500 
L 3609 3500 
L 1753 1863 
L 3688 0 
L 2938 0 
L 1159 1709 
L 1159 0 
L 581 0 
L 581 4863 
z
" transform="scale(0.015625)"/>
       <path id="DejaVuSans-3a9" d="M 4647 556 
L 4647 0 
L 2772 0 
L 2772 556 
Q 3325 859 3634 1378 
Q 3944 1897 3944 2528 
Q 3944 3278 3531 3731 
Q 3119 4184 2444 4184 
Q 1769 4184 1355 3729 
Q 941 3275 941 2528 
Q 941 1897 1250 1378 
Q 1563 859 2119 556 
L 2119 0 
L 244 0 
L 244 556 
L 1241 556 
Q 747 991 519 1456 
Q 294 1922 294 2497 
Q 294 3491 894 4106 
Q 1491 4722 2444 4722 
Q 3391 4722 3994 4106 
Q 4594 3494 4594 2528 
Q 4594 1922 4372 1459 
Q 4150 997 3647 556 
L 4647 556 
z
" transform="scale(0.015625)"/>
      </defs>
      <use xlink:href="#DejaVuSans-34"/>
      <use xlink:href="#DejaVuSans-6b" x="63.623047"/>
      <use xlink:href="#DejaVuSans-3a9" x="121.533203"/>
     </g>
    </g>
   </g>
   <g id="text_3">
    <g clip-path="url(#p6a709e1def)">
     <!-- $I_{S}$ -->
     <g transform="translate(189.4709 121.503125)scale(0.125 -0.125)">
      <defs>
       <path id="STIXGeneral-Italic-49" d="M 2458 4179 
L 2458 4077 
Q 2189 4045 2102 3961 
Q 2016 3878 1933 3584 
L 1165 838 
Q 1069 499 1069 352 
Q 1069 224 1149 179 
Q 1229 134 1510 102 
L 1510 0 
L -51 0 
L -51 102 
Q 218 154 317 237 
Q 416 320 486 582 
L 1254 3405 
Q 1338 3699 1338 3802 
Q 1338 3930 1235 3997 
Q 1133 4064 877 4077 
L 877 4179 
L 2458 4179 
z
" transform="scale(0.015625)"/>
      </defs>
      <use xlink:href="#STIXGeneral-Italic-49" transform="translate(0 0.703125)"/>
      <use xlink:href="#STIXGeneral-Italic-53" transform="translate(33.299988 -12.525)scale(0.7)"/>
     </g>
    </g>
    <g clip-path="url(#p6a709e1def)">
     <!-- 6mA -->
     <g transform="translate(179.693556 135.500391)scale(0.125 -0.125)">
      <defs>
       <path id="DejaVuSans-36" d="M 2113 2584 
Q 1688 2584 1439 2293 
Q 1191 2003 1191 1497 
Q 1191 994 1439 701 
Q 1688 409 2113 409 
Q 2538 409 2786 701 
Q 3034 994 3034 1497 
Q 3034 2003 2786 2293 
Q 2538 2584 2113 2584 
z
M 3366 4563 
L 3366 3988 
Q 3128 4100 2886 4159 
Q 2644 4219 2406 4219 
Q 1781 4219 1451 3797 
Q 1122 3375 1075 2522 
Q 1259 2794 1537 2939 
Q 1816 3084 2150 3084 
Q 2853 3084 3261 2657 
Q 3669 2231 3669 1497 
Q 3669 778 3244 343 
Q 2819 -91 2113 -91 
Q 1303 -91 875 529 
Q 447 1150 447 2328 
Q 447 3434 972 4092 
Q 1497 4750 2381 4750 
Q 2619 4750 2861 4703 
Q 3103 4656 3366 4563 
z
" transform="scale(0.015625)"/>
       <path id="DejaVuSans-6d" d="M 3328 2828 
Q 3544 3216 3844 3400 
Q 4144 3584 4550 3584 
Q 5097 3584 5394 3201 
Q 5691 2819 5691 2113 
L 5691 0 
L 5113 0 
L 5113 2094 
Q 5113 2597 4934 2840 
Q 4756 3084 4391 3084 
Q 3944 3084 3684 2787 
Q 3425 2491 3425 1978 
L 3425 0 
L 2847 0 
L 2847 2094 
Q 2847 2600 2669 2842 
Q 2491 3084 2119 3084 
Q 1678 3084 1418 2786 
Q 1159 2488 1159 1978 
L 1159 0 
L 581 0 
L 581 3500 
L 1159 3500 
L 1159 2956 
Q 1356 3278 1631 3431 
Q 1906 3584 2284 3584 
Q 2666 3584 2933 3390 
Q 3200 3197 3328 2828 
z
" transform="scale(0.015625)"/>
       <path id="DejaVuSans-41" d="M 2188 4044 
L 1331 1722 
L 3047 1722 
L 2188 4044 
z
M 1831 4666 
L 2547 4666 
L 4325 0 
L 3669 0 
L 3244 1197 
L 1141 1197 
L 716 0 
L 50 0 
L 1831 4666 
z
" transform="scale(0.015625)"/>
      </defs>
      <use xlink:href="#DejaVuSans-36"/>
      <use xlink:href="#DejaVuSans-6d" x="63.623047"/>
      <use xlink:href="#DejaVuSans-41" x="161.035156"/>
     </g>
    </g>
   </g>
   <g id="text_4">
    <g clip-path="url(#p6a709e1def)">
     <!-- $R_{3}$ -->
     <g transform="translate(250.6434 198.810586)scale(0.125 -0.125)">
      <defs>
       <path id="STIXGeneral-Regular-33" d="M 390 3264 
L 288 3290 
Q 435 3770 748 4048 
Q 1062 4326 1542 4326 
Q 1990 4326 2265 4083 
Q 2541 3840 2541 3450 
Q 2541 2925 1946 2566 
Q 2298 2413 2477 2227 
Q 2758 1914 2758 1402 
Q 2758 890 2464 506 
Q 2246 211 1840 60 
Q 1434 -90 979 -90 
Q 262 -90 262 275 
Q 262 378 339 442 
Q 416 506 525 506 
Q 685 506 915 339 
Q 1197 141 1466 141 
Q 1818 141 2058 425 
Q 2298 710 2298 1120 
Q 2298 1856 1632 2048 
Q 1434 2112 979 2112 
L 979 2202 
Q 1338 2323 1517 2432 
Q 2035 2726 2035 3290 
Q 2035 3610 1852 3776 
Q 1670 3942 1344 3942 
Q 768 3942 390 3264 
z
" transform="scale(0.015625)"/>
      </defs>
      <use xlink:href="#STIXGeneral-Italic-52" transform="translate(0 0.703125)"/>
      <use xlink:href="#STIXGeneral-Regular-33" transform="translate(61.099991 -12.525)scale(0.7)"/>
     </g>
    </g>
    <g clip-path="url(#p6a709e1def)">
     <!-- 4kΩ -->
     <g transform="translate(250.6434 212.807852)scale(0.125 -0.125)">
      <use xlink:href="#DejaVuSans-34"/>
      <use xlink:href="#DejaVuSans-6b" x="63.623047"/>
      <use xlink:href="#DejaVuSans-3a9" x="121.533203"/>
     </g>
    </g>
   </g>
   <g id="text_5">
    <g clip-path="url(#p6a709e1def)">
     <!-- $R_{2}$ -->
     <g transform="translate(124.7984 198.810586)scale(0.125 -0.125)">
      <defs>
       <path id="STIXGeneral-Regular-32" d="M 3034 877 
L 2688 0 
L 186 0 
L 186 77 
L 1325 1286 
Q 1773 1754 1965 2144 
Q 2157 2534 2157 2950 
Q 2157 3379 1920 3616 
Q 1683 3853 1267 3853 
Q 922 3853 720 3673 
Q 518 3494 326 3021 
L 192 3053 
Q 301 3648 630 3987 
Q 960 4326 1523 4326 
Q 2054 4326 2380 4006 
Q 2707 3686 2707 3200 
Q 2707 2477 1888 1613 
L 832 486 
L 2330 486 
Q 2541 486 2665 569 
Q 2790 653 2944 915 
L 3034 877 
z
" transform="scale(0.015625)"/>
      </defs>
      <use xlink:href="#STIXGeneral-Italic-52" transform="translate(0 0.703125)"/>
      <use xlink:href="#STIXGeneral-Regular-32" transform="translate(61.099991 -12.525)scale(0.7)"/>
     </g>
    </g>
    <g clip-path="url(#p6a709e1def)">
     <!-- 4kΩ -->
     <g transform="translate(112.679259 212.807852)scale(0.125 -0.125)">
      <use xlink:href="#DejaVuSans-34"/>
      <use xlink:href="#DejaVuSans-6b" x="63.623047"/>
      <use xlink:href="#DejaVuSans-3a9" x="121.533203"/>
     </g>
    </g>
   </g>
   <g id="text_6">
    <g clip-path="url(#p6a709e1def)">
     <!-- $R_{4}$ -->
     <g transform="translate(95.9209 37.353125)scale(0.125 -0.125)">
      <defs>
       <path id="STIXGeneral-Regular-34" d="M 3027 1069 
L 2368 1069 
L 2368 0 
L 1869 0 
L 1869 1069 
L 77 1069 
L 77 1478 
L 2086 4326 
L 2368 4326 
L 2368 1478 
L 3027 1478 
L 3027 1069 
z
M 1869 1478 
L 1869 3674 
L 333 1478 
L 1869 1478 
z
" transform="scale(0.015625)"/>
      </defs>
      <use xlink:href="#STIXGeneral-Italic-52" transform="translate(0 0.703125)"/>
      <use xlink:href="#STIXGeneral-Regular-34" transform="translate(61.099991 -12.525)scale(0.7)"/>
     </g>
    </g>
    <g clip-path="url(#p6a709e1def)">
     <!-- 4kΩ -->
     <g transform="translate(89.86133 51.350391)scale(0.125 -0.125)">
      <use xlink:href="#DejaVuSans-34"/>
      <use xlink:href="#DejaVuSans-6b" x="63.623047"/>
      <use xlink:href="#DejaVuSans-3a9" x="121.533203"/>
     </g>
    </g>
   </g>
   <g id="text_7">
    <g clip-path="url(#p6a709e1def)">
     <!-- $V_{S2}$ -->
     <g transform="translate(185.5334 29.703125)scale(0.125 -0.125)">
      <use xlink:href="#STIXGeneral-Italic-56" transform="translate(0 0.703125)"/>
      <use xlink:href="#STIXGeneral-Italic-53" transform="translate(61.099991 -12.525)scale(0.7)"/>
      <use xlink:href="#STIXGeneral-Regular-32" transform="translate(96.09998 -12.525)scale(0.7)"/>
     </g>
    </g>
    <g clip-path="url(#p6a709e1def)">
     <!-- 12V -->
     <g transform="translate(181.804884 43.700391)scale(0.125 -0.125)">
      <use xlink:href="#DejaVuSans-31"/>
      <use xlink:href="#DejaVuSans-32" x="63.623047"/>
      <use xlink:href="#DejaVuSans-56" x="127.246094"/>
     </g>
    </g>
   </g>
   <g id="text_8">
    <g clip-path="url(#p6a709e1def)">
     <!-- $V_{S1}$ -->
     <g transform="translate(24.7984 198.810586)scale(0.125 -0.125)">
      <use xlink:href="#STIXGeneral-Italic-56" transform="translate(0 0.703125)"/>
      <use xlink:href="#STIXGeneral-Italic-53" transform="translate(61.099991 -12.525)scale(0.7)"/>
      <use xlink:href="#STIXGeneral-Regular-31" transform="translate(96.09998 -12.525)scale(0.7)"/>
     </g>
    </g>
    <g clip-path="url(#p6a709e1def)">
     <!-- 12V -->
     <g transform="translate(17.341369 212.807852)scale(0.125 -0.125)">
      <use xlink:href="#DejaVuSans-31"/>
      <use xlink:href="#DejaVuSans-32" x="63.623047"/>
      <use xlink:href="#DejaVuSans-56" x="127.246094"/>
     </g>
    </g>
   </g>
   <g id="text_9">
    <g clip-path="url(#p6a709e1def)">
     <!-- $R_{1}$ -->
     <g transform="translate(95.9209 129.153125)scale(0.125 -0.125)">
      <use xlink:href="#STIXGeneral-Italic-52" transform="translate(0 0.703125)"/>
      <use xlink:href="#STIXGeneral-Regular-31" transform="translate(61.099991 -12.525)scale(0.7)"/>
     </g>
    </g>
    <g clip-path="url(#p6a709e1def)">
     <!-- 4kΩ -->
     <g transform="translate(89.86133 143.150391)scale(0.125 -0.125)">
      <use xlink:href="#DejaVuSans-34"/>
      <use xlink:href="#DejaVuSans-6b" x="63.623047"/>
      <use xlink:href="#DejaVuSans-3a9" x="121.533203"/>
     </g>
    </g>
   </g>
   <g id="text_10">
    <g clip-path="url(#p6a709e1def)">
     <!-- $I_{S}$ -->
     <g transform="translate(189.4709 121.503125)scale(0.125 -0.125)">
      <use xlink:href="#STIXGeneral-Italic-49" transform="translate(0 0.703125)"/>
      <use xlink:href="#STIXGeneral-Italic-53" transform="translate(33.299988 -12.525)scale(0.7)"/>
     </g>
    </g>
    <g clip-path="url(#p6a709e1def)">
     <!-- 6mA -->
     <g transform="translate(179.693556 135.500391)scale(0.125 -0.125)">
      <use xlink:href="#DejaVuSans-36"/>
      <use xlink:href="#DejaVuSans-6d" x="63.623047"/>
      <use xlink:href="#DejaVuSans-41" x="161.035156"/>
     </g>
    </g>
   </g>
   <g id="text_11">
    <g clip-path="url(#p6a709e1def)">
     <!-- $R_{3}$ -->
     <g transform="translate(250.6434 198.810586)scale(0.125 -0.125)">
      <use xlink:href="#STIXGeneral-Italic-52" transform="translate(0 0.703125)"/>
      <use xlink:href="#STIXGeneral-Regular-33" transform="translate(61.099991 -12.525)scale(0.7)"/>
     </g>
    </g>
    <g clip-path="url(#p6a709e1def)">
     <!-- 4kΩ -->
     <g transform="translate(250.6434 212.807852)scale(0.125 -0.125)">
      <use xlink:href="#DejaVuSans-34"/>
      <use xlink:href="#DejaVuSans-6b" x="63.623047"/>
      <use xlink:href="#DejaVuSans-3a9" x="121.533203"/>
     </g>
    </g>
   </g>
   <g id="text_12">
    <g clip-path="url(#p6a709e1def)">
     <!-- $R_{2}$ -->
     <g transform="translate(124.7984 198.810586)scale(0.125 -0.125)">
      <use xlink:href="#STIXGeneral-Italic-52" transform="translate(0 0.703125)"/>
      <use xlink:href="#STIXGeneral-Regular-32" transform="translate(61.099991 -12.525)scale(0.7)"/>
     </g>
    </g>
    <g clip-path="url(#p6a709e1def)">
     <!-- 4kΩ -->
     <g transform="translate(112.679259 212.807852)scale(0.125 -0.125)">
      <use xlink:href="#DejaVuSans-34"/>
      <use xlink:href="#DejaVuSans-6b" x="63.623047"/>
      <use xlink:href="#DejaVuSans-3a9" x="121.533203"/>
     </g>
    </g>
   </g>
   <g id="text_13">
    <g clip-path="url(#p6a709e1def)">
     <!-- $R_{4}$ -->
     <g transform="translate(95.9209 37.353125)scale(0.125 -0.125)">
      <use xlink:href="#STIXGeneral-Italic-52" transform="translate(0 0.703125)"/>
      <use xlink:href="#STIXGeneral-Regular-34" transform="translate(61.099991 -12.525)scale(0.7)"/>
     </g>
    </g>
    <g clip-path="url(#p6a709e1def)">
     <!-- 4kΩ -->
     <g transform="translate(89.86133 51.350391)scale(0.125 -0.125)">
      <use xlink:href="#DejaVuSans-34"/>
      <use xlink:href="#DejaVuSans-6b" x="63.623047"/>
      <use xlink:href="#DejaVuSans-3a9" x="121.533203"/>
     </g>
    </g>
   </g>
   <g id="text_14">
    <g clip-path="url(#p6a709e1def)">
     <!-- $V_{S2}$ -->
     <g transform="translate(185.5334 29.703125)scale(0.125 -0.125)">
      <use xlink:href="#STIXGeneral-Italic-56" transform="translate(0 0.703125)"/>
      <use xlink:href="#STIXGeneral-Italic-53" transform="translate(61.099991 -12.525)scale(0.7)"/>
      <use xlink:href="#STIXGeneral-Regular-32" transform="translate(96.09998 -12.525)scale(0.7)"/>
     </g>
    </g>
    <g clip-path="url(#p6a709e1def)">
     <!-- 12V -->
     <g transform="translate(181.804884 43.700391)scale(0.125 -0.125)">
      <use xlink:href="#DejaVuSans-31"/>
      <use xlink:href="#DejaVuSans-32" x="63.623047"/>
      <use xlink:href="#DejaVuSans-56" x="127.246094"/>
     </g>
    </g>
   </g>
   <g id="line2d_39">
    <path d="M 129.7734 156.46 
L 129.7734 156.46 
" clip-path="url(#p6a709e1def)" style="fill: none; stroke: #000000; stroke-width: 2; stroke-linecap: round"/>
   </g>
   <g id="patch_8">
    <path d="M 129.7734 151.87 
L 138.9534 156.46 
L 129.7734 161.05 
z
" clip-path="url(#p6a709e1def)"/>
   </g>
   <g id="text_15">
    <g clip-path="url(#p6a709e1def)">
     <!-- $I_O$ -->
     <g transform="translate(128.8009 144.680391)scale(0.125 -0.125)">
      <defs>
       <path id="STIXGeneral-Italic-4f" d="M 4474 2675 
Q 4474 1990 4106 1363 
Q 3738 736 3149 339 
Q 2477 -115 1779 -115 
Q 1146 -115 765 281 
Q 384 678 384 1382 
Q 384 1965 697 2582 
Q 1011 3200 1517 3642 
Q 2234 4262 3034 4262 
Q 3718 4269 4096 3840 
Q 4474 3411 4474 2675 
z
M 3802 3078 
Q 3802 3533 3581 3792 
Q 3360 4051 2976 4051 
Q 2342 4051 1786 3302 
Q 1446 2842 1251 2259 
Q 1056 1677 1056 1178 
Q 1056 653 1270 374 
Q 1485 96 1888 96 
Q 2477 96 2976 704 
Q 3354 1178 3578 1862 
Q 3802 2547 3802 3078 
z
" transform="scale(0.015625)"/>
      </defs>
      <use xlink:href="#STIXGeneral-Italic-49" transform="translate(0 0.703125)"/>
      <use xlink:href="#STIXGeneral-Italic-4f" transform="translate(33.299988 -12.525)scale(0.7)"/>
     </g>
    </g>
   </g>
   <g id="line2d_40">
    <path d="M 129.7734 156.46 
L 129.7734 156.46 
" clip-path="url(#p6a709e1def)" style="fill: none; stroke: #000000; stroke-width: 2; stroke-linecap: round"/>
   </g>
   <g id="patch_9">
    <path d="M 129.7734 151.87 
L 138.9534 156.46 
L 129.7734 161.05 
z
" clip-path="url(#p6a709e1def)"/>
   </g>
   <g id="text_16">
    <g clip-path="url(#p6a709e1def)">
     <!-- $I_O$ -->
     <g transform="translate(128.8009 144.680391)scale(0.125 -0.125)">
      <use xlink:href="#STIXGeneral-Italic-49" transform="translate(0 0.703125)"/>
      <use xlink:href="#STIXGeneral-Italic-4f" transform="translate(33.299988 -12.525)scale(0.7)"/>
     </g>
    </g>
   </g>
  </g>
 </g>
 <defs>
  <clipPath id="p6a709e1def">
   <rect x="7.2" y="7.2" width="281.5914" height="264.01"/>
  </clipPath>
 </defs>
</svg>
