<?xml version="1.0" encoding="utf-8" standalone="no"?>
<!DOCTYPE svg PUBLIC "-//W3C//DTD SVG 1.1//EN"
  "http://www.w3.org/Graphics/SVG/1.1/DTD/svg11.dtd">
<svg xmlns:xlink="http://www.w3.org/1999/xlink" width="514.71pt" height="147.51pt" viewBox="0 0 514.71 147.51" xmlns="http://www.w3.org/2000/svg" version="1.1">
 <metadata>
  <rdf:RDF xmlns:dc="http://purl.org/dc/elements/1.1/" xmlns:cc="http://creativecommons.org/ns#" xmlns:rdf="http://www.w3.org/1999/02/22-rdf-syntax-ns#">
   <cc:Work>
    <dc:type rdf:resource="http://purl.org/dc/dcmitype/StillImage"/>
    <dc:date>2023-10-21T16:48:02.689497</dc:date>
    <dc:format>image/svg+xml</dc:format>
    <dc:creator>
     <cc:Agent>
      <dc:title>Matplotlib v3.5.2, https://matplotlib.org/</dc:title>
     </cc:Agent>
    </dc:creator>
   </cc:Work>
  </rdf:RDF>
 </metadata>
 <defs>
  <style type="text/css">*{stroke-linejoin: round; stroke-linecap: butt}</style>
 </defs>
 <g id="figure_1">
  <g id="patch_1">
   <path d="M 0 147.51 
L 514.71 147.51 
L 514.71 0 
L 0 0 
L 0 147.51 
z
" style="fill: none"/>
  </g>
  <g id="axes_1">
   <g id="patch_2">
    <path d="M 483.03 85.23 
C 487.087607 85.23 490.979572 83.617895 493.848734 80.748734 
C 496.717895 77.879572 498.33 73.987607 498.33 69.93 
C 498.33 65.872393 496.717895 61.980428 493.848734 59.111266 
C 490.979572 56.242105 487.087607 54.63 483.03 54.63 
C 478.972393 54.63 475.080428 56.242105 472.211266 59.111266 
C 469.342105 61.980428 467.73 65.872393 467.73 69.93 
C 467.73 73.987607 469.342105 77.879572 472.211266 80.748734 
C 475.080428 83.617895 478.972393 85.23 483.03 85.23 
L 483.03 85.23 
z
" clip-path="url(#pa4224e84cf)" style="fill: none; stroke: #000000; stroke-width: 2; stroke-linejoin: miter"/>
   </g>
   <g id="patch_3">
    <path d="M 115.83 85.23 
C 119.887607 85.23 123.779572 83.617895 126.648734 80.748734 
C 129.517895 77.879572 131.13 73.987607 131.13 69.93 
C 131.13 65.872393 129.517895 61.980428 126.648734 59.111266 
C 123.779572 56.242105 119.887607 54.63 115.83 54.63 
C 111.772393 54.63 107.880428 56.242105 105.011266 59.111266 
C 102.142105 61.980428 100.53 65.872393 100.53 69.93 
C 100.53 73.987607 102.142105 77.879572 105.011266 80.748734 
C 107.880428 83.617895 111.772393 85.23 115.83 85.23 
L 115.83 85.23 
z
" clip-path="url(#pa4224e84cf)" style="fill: none; stroke: #000000; stroke-width: 2; stroke-linejoin: miter"/>
   </g>
   <g id="patch_4">
    <path d="M 391.23 85.23 
C 395.287607 85.23 399.179572 83.617895 402.048734 80.748734 
C 404.917895 77.879572 406.53 73.987607 406.53 69.93 
C 406.53 65.872393 404.917895 61.980428 402.048734 59.111266 
C 399.179572 56.242105 395.287607 54.63 391.23 54.63 
C 387.172393 54.63 383.280428 56.242105 380.411266 59.111266 
C 377.542105 61.980428 375.93 65.872393 375.93 69.93 
C 375.93 73.987607 377.542105 77.879572 380.411266 80.748734 
C 383.280428 83.617895 387.172393 85.23 391.23 85.23 
L 391.23 85.23 
z
" clip-path="url(#pa4224e84cf)" style="fill: none; stroke: #000000; stroke-width: 2; stroke-linejoin: miter"/>
   </g>
   <g id="patch_5">
    <path d="M 161.73 131.13 
C 165.787607 131.13 169.679572 129.517895 172.548734 126.648734 
C 175.417895 123.779572 177.03 119.887607 177.03 115.83 
C 177.03 111.772393 175.417895 107.880428 172.548734 105.011266 
C 169.679572 102.142105 165.787607 100.53 161.73 100.53 
C 157.672393 100.53 153.780428 102.142105 150.911266 105.011266 
C 148.042105 107.880428 146.43 111.772393 146.43 115.83 
C 146.43 119.887607 148.042105 123.779572 150.911266 126.648734 
C 153.780428 129.517895 157.672393 131.13 161.73 131.13 
L 161.73 131.13 
z
" clip-path="url(#pa4224e84cf)" style="fill: none; stroke: #000000; stroke-width: 2; stroke-linejoin: miter"/>
   </g>
   <g id="patch_6">
    <path d="M 204.57 137.25 
L 204.71565 137.248844 
L 204.861262 137.245378 
L 205.006802 137.239602 
L 205.152232 137.231518 
L 205.297515 137.221127 
L 205.442614 137.208432 
L 205.587495 137.193437 
L 205.732119 137.176145 
L 205.87645 137.156561 
L 206.020453 137.134689 
L 206.16409 137.110535 
L 206.307326 137.084105 
L 206.450125 137.055406 
L 206.592451 137.024445 
L 206.734267 136.99123 
L 206.875539 136.955769 
L 207.01623 136.918071 
L 207.156305 136.878145 
L 207.295729 136.836003 
L 207.434467 136.791653 
L 207.572484 136.745108 
L 207.709745 136.696378 
L 207.846216 136.645477 
L 207.981861 136.592418 
L 208.116648 136.537212 
L 208.250542 136.479876 
L 208.38351 136.420422 
L 208.515517 136.358866 
L 208.646532 136.295223 
L 208.776519 136.229509 
L 208.905448 136.161742 
L 209.033286 136.091937 
L 209.16 136.020113 
L 209.285558 135.946288 
L 209.40993 135.870479 
L 209.533083 135.792707 
L 209.654986 135.712991 
L 209.77561 135.631351 
L 209.894922 135.547807 
L 210.012895 135.462381 
L 210.129497 135.375094 
L 210.244699 135.285967 
L 210.358473 135.195025 
L 210.47079 135.102288 
L 210.581622 135.007781 
L 210.690939 134.911528 
L 210.798716 134.813552 
L 210.904925 134.713878 
L 211.009539 134.612532 
L 211.112532 134.509539 
L 211.213878 134.404925 
L 211.313552 134.298716 
L 211.411528 134.190939 
L 211.507781 134.081622 
L 211.602288 133.97079 
L 211.695025 133.858473 
L 211.785967 133.744699 
L 211.875094 133.629497 
L 211.962381 133.512895 
L 212.047807 133.394922 
L 212.131351 133.27561 
L 212.212991 133.154986 
L 212.292707 133.033083 
L 212.370479 132.90993 
L 212.446288 132.785558 
L 212.520113 132.66 
L 212.591937 132.533286 
L 212.661742 132.405448 
L 212.729509 132.276519 
L 212.795223 132.146532 
L 212.858866 132.015517 
L 212.920422 131.88351 
L 212.979876 131.750542 
L 213.037212 131.616648 
L 213.092418 131.481861 
L 213.145477 131.346216 
L 213.196378 131.209745 
L 213.245108 131.072484 
L 213.291653 130.934467 
L 213.336003 130.795729 
L 213.378145 130.656305 
L 213.418071 130.51623 
L 213.455769 130.375539 
L 213.49123 130.234267 
L 213.524445 130.092451 
L 213.555406 129.950125 
L 213.584105 129.807326 
L 213.610535 129.66409 
L 213.634689 129.520453 
L 213.656561 129.37645 
L 213.676145 129.232119 
L 213.693437 129.087495 
L 213.708432 128.942614 
L 213.721127 128.797515 
L 213.731518 128.652232 
L 213.739602 128.506802 
L 213.745378 128.361262 
L 213.748844 128.21565 
L 213.75 128.07 
L 213.75 19.44 
L 213.748844 19.29435 
L 213.745378 19.148738 
L 213.739602 19.003198 
L 213.731518 18.857768 
L 213.721127 18.712485 
L 213.708432 18.567386 
L 213.693437 18.422505 
L 213.676145 18.277881 
L 213.656561 18.13355 
L 213.634689 17.989547 
L 213.610535 17.84591 
L 213.584105 17.702674 
L 213.555406 17.559875 
L 213.524445 17.417549 
L 213.49123 17.275733 
L 213.455769 17.134461 
L 213.418071 16.99377 
L 213.378145 16.853695 
L 213.336003 16.714271 
L 213.291653 16.575533 
L 213.245108 16.437516 
L 213.196378 16.300255 
L 213.145477 16.163784 
L 213.092418 16.028139 
L 213.037212 15.893352 
L 212.979876 15.759458 
L 212.920422 15.62649 
L 212.858866 15.494483 
L 212.795223 15.363468 
L 212.729509 15.233481 
L 212.661742 15.104552 
L 212.591937 14.976714 
L 212.520113 14.85 
L 212.446288 14.724442 
L 212.370479 14.60007 
L 212.292707 14.476917 
L 212.212991 14.355014 
L 212.131351 14.23439 
L 212.047807 14.115078 
L 211.962381 13.997105 
L 211.875094 13.880503 
L 211.785967 13.765301 
L 211.695025 13.651527 
L 211.602288 13.53921 
L 211.507781 13.428378 
L 211.411528 13.319061 
L 211.313552 13.211284 
L 211.213878 13.105075 
L 211.112532 13.000461 
L 211.009539 12.897468 
L 210.904925 12.796122 
L 210.798716 12.696448 
L 210.690939 12.598472 
L 210.581622 12.502219 
L 210.47079 12.407712 
L 210.358473 12.314975 
L 210.244699 12.224033 
L 210.129497 12.134906 
L 210.012895 12.047619 
L 209.894922 11.962193 
L 209.77561 11.878649 
L 209.654986 11.797009 
L 209.533083 11.717293 
L 209.40993 11.639521 
L 209.285558 11.563712 
L 209.16 11.489887 
L 209.033286 11.418063 
L 208.905448 11.348258 
L 208.776519 11.280491 
L 208.646532 11.214777 
L 208.515517 11.151134 
L 208.38351 11.089578 
L 208.250542 11.030124 
L 208.116648 10.972788 
L 207.981861 10.917582 
L 207.846216 10.864523 
L 207.709745 10.813622 
L 207.572484 10.764892 
L 207.434467 10.718347 
L 207.295729 10.673997 
L 207.156305 10.631855 
L 207.01623 10.591929 
L 206.875539 10.554231 
L 206.734267 10.51877 
L 206.592451 10.485555 
L 206.450125 10.454594 
L 206.307326 10.425895 
L 206.16409 10.399465 
L 206.020453 10.375311 
L 205.87645 10.353439 
L 205.732119 10.333855 
L 205.587495 10.316563 
L 205.442614 10.301568 
L 205.297515 10.288873 
L 205.152232 10.278482 
L 205.006802 10.270398 
L 204.861262 10.264622 
L 204.71565 10.261156 
L 204.57 10.26 
L 19.44 10.26 
L 19.29435 10.261156 
L 19.148738 10.264622 
L 19.003198 10.270398 
L 18.857768 10.278482 
L 18.712485 10.288873 
L 18.567386 10.301568 
L 18.422505 10.316563 
L 18.277881 10.333855 
L 18.13355 10.353439 
L 17.989547 10.375311 
L 17.84591 10.399465 
L 17.702674 10.425895 
L 17.559875 10.454594 
L 17.417549 10.485555 
L 17.275733 10.51877 
L 17.134461 10.554231 
L 16.99377 10.591929 
L 16.853695 10.631855 
L 16.714271 10.673997 
L 16.575533 10.718347 
L 16.437516 10.764892 
L 16.300255 10.813622 
L 16.163784 10.864523 
L 16.028139 10.917582 
L 15.893352 10.972788 
L 15.759458 11.030124 
L 15.62649 11.089578 
L 15.494483 11.151134 
L 15.363468 11.214777 
L 15.233481 11.280491 
L 15.104552 11.348258 
L 14.976714 11.418063 
L 14.85 11.489887 
L 14.724442 11.563712 
L 14.60007 11.639521 
L 14.476917 11.717293 
L 14.355014 11.797009 
L 14.23439 11.878649 
L 14.115078 11.962193 
L 13.997105 12.047619 
L 13.880503 12.134906 
L 13.765301 12.224033 
L 13.651527 12.314975 
L 13.53921 12.407712 
L 13.428378 12.502219 
L 13.319061 12.598472 
L 13.211284 12.696448 
L 13.105075 12.796122 
L 13.000461 12.897468 
L 12.897468 13.000461 
L 12.796122 13.105075 
L 12.696448 13.211284 
L 12.598472 13.319061 
L 12.502219 13.428378 
L 12.407712 13.53921 
L 12.314975 13.651527 
L 12.224033 13.765301 
L 12.134906 13.880503 
L 12.047619 13.997105 
L 11.962193 14.115078 
L 11.878649 14.23439 
L 11.797009 14.355014 
L 11.717293 14.476917 
L 11.639521 14.60007 
L 11.563712 14.724442 
L 11.489887 14.85 
L 11.418063 14.976714 
L 11.348258 15.104552 
L 11.280491 15.233481 
L 11.214777 15.363468 
L 11.151134 15.494483 
L 11.089578 15.62649 
L 11.030124 15.759458 
L 10.972788 15.893352 
L 10.917582 16.028139 
L 10.864523 16.163784 
L 10.813622 16.300255 
L 10.764892 16.437516 
L 10.718347 16.575533 
L 10.673997 16.714271 
L 10.631855 16.853695 
L 10.591929 16.99377 
L 10.554231 17.134461 
L 10.51877 17.275733 
L 10.485555 17.417549 
L 10.454594 17.559875 
L 10.425895 17.702674 
L 10.399465 17.84591 
L 10.375311 17.989547 
L 10.353439 18.13355 
L 10.333855 18.277881 
L 10.316563 18.422505 
L 10.301568 18.567386 
L 10.288873 18.712485 
L 10.278482 18.857768 
L 10.270398 19.003198 
L 10.264622 19.148738 
L 10.261156 19.29435 
L 10.26 19.44 
L 10.26 128.07 
L 10.261156 128.21565 
L 10.264622 128.361262 
L 10.270398 128.506802 
L 10.278482 128.652232 
L 10.288873 128.797515 
L 10.301568 128.942614 
L 10.316563 129.087495 
L 10.333855 129.232119 
L 10.353439 129.37645 
L 10.375311 129.520453 
L 10.399465 129.66409 
L 10.425895 129.807326 
L 10.454594 129.950125 
L 10.485555 130.092451 
L 10.51877 130.234267 
L 10.554231 130.375539 
L 10.591929 130.51623 
L 10.631855 130.656305 
L 10.673997 130.795729 
L 10.718347 130.934467 
L 10.764892 131.072484 
L 10.813622 131.209745 
L 10.864523 131.346216 
L 10.917582 131.481861 
L 10.972788 131.616648 
L 11.030124 131.750542 
L 11.089578 131.88351 
L 11.151134 132.015517 
L 11.214777 132.146532 
L 11.280491 132.276519 
L 11.348258 132.405448 
L 11.418063 132.533286 
L 11.489887 132.66 
L 11.563712 132.785558 
L 11.639521 132.90993 
L 11.717293 133.033083 
L 11.797009 133.154986 
L 11.878649 133.27561 
L 11.962193 133.394922 
L 12.047619 133.512895 
L 12.134906 133.629497 
L 12.224033 133.744699 
L 12.314975 133.858473 
L 12.407712 133.97079 
L 12.502219 134.081622 
L 12.598472 134.190939 
L 12.696448 134.298716 
L 12.796122 134.404925 
L 12.897468 134.509539 
L 13.000461 134.612532 
L 13.105075 134.713878 
L 13.211284 134.813552 
L 13.319061 134.911528 
L 13.428378 135.007781 
L 13.53921 135.102288 
L 13.651527 135.195025 
L 13.765301 135.285967 
L 13.880503 135.375094 
L 13.997105 135.462381 
L 14.115078 135.547807 
L 14.23439 135.631351 
L 14.355014 135.712991 
L 14.476917 135.792707 
L 14.60007 135.870479 
L 14.724442 135.946288 
L 14.85 136.020113 
L 14.976714 136.091937 
L 15.104552 136.161742 
L 15.233481 136.229509 
L 15.363468 136.295223 
L 15.494483 136.358866 
L 15.62649 136.420422 
L 15.759458 136.479876 
L 15.893352 136.537212 
L 16.028139 136.592418 
L 16.163784 136.645477 
L 16.300255 136.696378 
L 16.437516 136.745108 
L 16.575533 136.791653 
L 16.714271 136.836003 
L 16.853695 136.878145 
L 16.99377 136.918071 
L 17.134461 136.955769 
L 17.275733 136.99123 
L 17.417549 137.024445 
L 17.559875 137.055406 
L 17.702674 137.084105 
L 17.84591 137.110535 
L 17.989547 137.134689 
L 18.13355 137.156561 
L 18.277881 137.176145 
L 18.422505 137.193437 
L 18.567386 137.208432 
L 18.712485 137.221127 
L 18.857768 137.231518 
L 19.003198 137.239602 
L 19.148738 137.245378 
L 19.29435 137.248844 
L 19.44 137.25 
L 204.57 137.25 
z
" clip-path="url(#pa4224e84cf)" style="fill: none; stroke-dasharray: 3.7,1.6; stroke-dashoffset: 0; stroke: #0000ff; stroke-linecap: round"/>
   </g>
   <g id="patch_7">
    <path d="M 495.27 121.95 
L 495.41565 121.948844 
L 495.561262 121.945378 
L 495.706802 121.939602 
L 495.852232 121.931518 
L 495.997515 121.921127 
L 496.142614 121.908432 
L 496.287495 121.893437 
L 496.432119 121.876145 
L 496.57645 121.856561 
L 496.720453 121.834689 
L 496.86409 121.810535 
L 497.007326 121.784105 
L 497.150125 121.755406 
L 497.292451 121.724445 
L 497.434267 121.69123 
L 497.575539 121.655769 
L 497.71623 121.618071 
L 497.856305 121.578145 
L 497.995729 121.536003 
L 498.134467 121.491653 
L 498.272484 121.445108 
L 498.409745 121.396378 
L 498.546216 121.345477 
L 498.681861 121.292418 
L 498.816648 121.237212 
L 498.950542 121.179876 
L 499.08351 121.120422 
L 499.215517 121.058866 
L 499.346532 120.995223 
L 499.476519 120.929509 
L 499.605448 120.861742 
L 499.733286 120.791937 
L 499.86 120.720113 
L 499.985558 120.646288 
L 500.10993 120.570479 
L 500.233083 120.492707 
L 500.354986 120.412991 
L 500.47561 120.331351 
L 500.594922 120.247807 
L 500.712895 120.162381 
L 500.829497 120.075094 
L 500.944699 119.985967 
L 501.058473 119.895025 
L 501.17079 119.802288 
L 501.281622 119.707781 
L 501.390939 119.611528 
L 501.498716 119.513552 
L 501.604925 119.413878 
L 501.709539 119.312532 
L 501.812532 119.209539 
L 501.913878 119.104925 
L 502.013552 118.998716 
L 502.111528 118.890939 
L 502.207781 118.781622 
L 502.302288 118.67079 
L 502.395025 118.558473 
L 502.485967 118.444699 
L 502.575094 118.329497 
L 502.662381 118.212895 
L 502.747807 118.094922 
L 502.831351 117.97561 
L 502.912991 117.854986 
L 502.992707 117.733083 
L 503.070479 117.60993 
L 503.146288 117.485558 
L 503.220113 117.36 
L 503.291937 117.233286 
L 503.361742 117.105448 
L 503.429509 116.976519 
L 503.495223 116.846532 
L 503.558866 116.715517 
L 503.620422 116.58351 
L 503.679876 116.450542 
L 503.737212 116.316648 
L 503.792418 116.181861 
L 503.845477 116.046216 
L 503.896378 115.909745 
L 503.945108 115.772484 
L 503.991653 115.634467 
L 504.036003 115.495729 
L 504.078145 115.356305 
L 504.118071 115.21623 
L 504.155769 115.075539 
L 504.19123 114.934267 
L 504.224445 114.792451 
L 504.255406 114.650125 
L 504.284105 114.507326 
L 504.310535 114.36409 
L 504.334689 114.220453 
L 504.356561 114.07645 
L 504.376145 113.932119 
L 504.393437 113.787495 
L 504.408432 113.642614 
L 504.421127 113.497515 
L 504.431518 113.352232 
L 504.439602 113.206802 
L 504.445378 113.061262 
L 504.448844 112.91565 
L 504.45 112.77 
L 504.45 19.44 
L 504.448844 19.29435 
L 504.445378 19.148738 
L 504.439602 19.003198 
L 504.431518 18.857768 
L 504.421127 18.712485 
L 504.408432 18.567386 
L 504.393437 18.422505 
L 504.376145 18.277881 
L 504.356561 18.13355 
L 504.334689 17.989547 
L 504.310535 17.84591 
L 504.284105 17.702674 
L 504.255406 17.559875 
L 504.224445 17.417549 
L 504.19123 17.275733 
L 504.155769 17.134461 
L 504.118071 16.99377 
L 504.078145 16.853695 
L 504.036003 16.714271 
L 503.991653 16.575533 
L 503.945108 16.437516 
L 503.896378 16.300255 
L 503.845477 16.163784 
L 503.792418 16.028139 
L 503.737212 15.893352 
L 503.679876 15.759458 
L 503.620422 15.62649 
L 503.558866 15.494483 
L 503.495223 15.363468 
L 503.429509 15.233481 
L 503.361742 15.104552 
L 503.291937 14.976714 
L 503.220113 14.85 
L 503.146288 14.724442 
L 503.070479 14.60007 
L 502.992707 14.476917 
L 502.912991 14.355014 
L 502.831351 14.23439 
L 502.747807 14.115078 
L 502.662381 13.997105 
L 502.575094 13.880503 
L 502.485967 13.765301 
L 502.395025 13.651527 
L 502.302288 13.53921 
L 502.207781 13.428378 
L 502.111528 13.319061 
L 502.013552 13.211284 
L 501.913878 13.105075 
L 501.812532 13.000461 
L 501.709539 12.897468 
L 501.604925 12.796122 
L 501.498716 12.696448 
L 501.390939 12.598472 
L 501.281622 12.502219 
L 501.17079 12.407712 
L 501.058473 12.314975 
L 500.944699 12.224033 
L 500.829497 12.134906 
L 500.712895 12.047619 
L 500.594922 11.962193 
L 500.47561 11.878649 
L 500.354986 11.797009 
L 500.233083 11.717293 
L 500.10993 11.639521 
L 499.985558 11.563712 
L 499.86 11.489887 
L 499.733286 11.418063 
L 499.605448 11.348258 
L 499.476519 11.280491 
L 499.346532 11.214777 
L 499.215517 11.151134 
L 499.08351 11.089578 
L 498.950542 11.030124 
L 498.816648 10.972788 
L 498.681861 10.917582 
L 498.546216 10.864523 
L 498.409745 10.813622 
L 498.272484 10.764892 
L 498.134467 10.718347 
L 497.995729 10.673997 
L 497.856305 10.631855 
L 497.71623 10.591929 
L 497.575539 10.554231 
L 497.434267 10.51877 
L 497.292451 10.485555 
L 497.150125 10.454594 
L 497.007326 10.425895 
L 496.86409 10.399465 
L 496.720453 10.375311 
L 496.57645 10.353439 
L 496.432119 10.333855 
L 496.287495 10.316563 
L 496.142614 10.301568 
L 495.997515 10.288873 
L 495.852232 10.278482 
L 495.706802 10.270398 
L 495.561262 10.264622 
L 495.41565 10.261156 
L 495.27 10.26 
L 294.84 10.26 
L 294.69435 10.261156 
L 294.548738 10.264622 
L 294.403198 10.270398 
L 294.257768 10.278482 
L 294.112485 10.288873 
L 293.967386 10.301568 
L 293.822505 10.316563 
L 293.677881 10.333855 
L 293.53355 10.353439 
L 293.389547 10.375311 
L 293.24591 10.399465 
L 293.102674 10.425895 
L 292.959875 10.454594 
L 292.817549 10.485555 
L 292.675733 10.51877 
L 292.534461 10.554231 
L 292.39377 10.591929 
L 292.253695 10.631855 
L 292.114271 10.673997 
L 291.975533 10.718347 
L 291.837516 10.764892 
L 291.700255 10.813622 
L 291.563784 10.864523 
L 291.428139 10.917582 
L 291.293352 10.972788 
L 291.159458 11.030124 
L 291.02649 11.089578 
L 290.894483 11.151134 
L 290.763468 11.214777 
L 290.633481 11.280491 
L 290.504552 11.348258 
L 290.376714 11.418063 
L 290.25 11.489887 
L 290.124442 11.563712 
L 290.00007 11.639521 
L 289.876917 11.717293 
L 289.755014 11.797009 
L 289.63439 11.878649 
L 289.515078 11.962193 
L 289.397105 12.047619 
L 289.280503 12.134906 
L 289.165301 12.224033 
L 289.051527 12.314975 
L 288.93921 12.407712 
L 288.828378 12.502219 
L 288.719061 12.598472 
L 288.611284 12.696448 
L 288.505075 12.796122 
L 288.400461 12.897468 
L 288.297468 13.000461 
L 288.196122 13.105075 
L 288.096448 13.211284 
L 287.998472 13.319061 
L 287.902219 13.428378 
L 287.807712 13.53921 
L 287.714975 13.651527 
L 287.624033 13.765301 
L 287.534906 13.880503 
L 287.447619 13.997105 
L 287.362193 14.115078 
L 287.278649 14.23439 
L 287.197009 14.355014 
L 287.117293 14.476917 
L 287.039521 14.60007 
L 286.963712 14.724442 
L 286.889887 14.85 
L 286.818063 14.976714 
L 286.748258 15.104552 
L 286.680491 15.233481 
L 286.614777 15.363468 
L 286.551134 15.494483 
L 286.489578 15.62649 
L 286.430124 15.759458 
L 286.372788 15.893352 
L 286.317582 16.028139 
L 286.264523 16.163784 
L 286.213622 16.300255 
L 286.164892 16.437516 
L 286.118347 16.575533 
L 286.073997 16.714271 
L 286.031855 16.853695 
L 285.991929 16.99377 
L 285.954231 17.134461 
L 285.91877 17.275733 
L 285.885555 17.417549 
L 285.854594 17.559875 
L 285.825895 17.702674 
L 285.799465 17.84591 
L 285.775311 17.989547 
L 285.753439 18.13355 
L 285.733855 18.277881 
L 285.716563 18.422505 
L 285.701568 18.567386 
L 285.688873 18.712485 
L 285.678482 18.857768 
L 285.670398 19.003198 
L 285.664622 19.148738 
L 285.661156 19.29435 
L 285.66 19.44 
L 285.66 112.77 
L 285.661156 112.91565 
L 285.664622 113.061262 
L 285.670398 113.206802 
L 285.678482 113.352232 
L 285.688873 113.497515 
L 285.701568 113.642614 
L 285.716563 113.787495 
L 285.733855 113.932119 
L 285.753439 114.07645 
L 285.775311 114.220453 
L 285.799465 114.36409 
L 285.825895 114.507326 
L 285.854594 114.650125 
L 285.885555 114.792451 
L 285.91877 114.934267 
L 285.954231 115.075539 
L 285.991929 115.21623 
L 286.031855 115.356305 
L 286.073997 115.495729 
L 286.118347 115.634467 
L 286.164892 115.772484 
L 286.213622 115.909745 
L 286.264523 116.046216 
L 286.317582 116.181861 
L 286.372788 116.316648 
L 286.430124 116.450542 
L 286.489578 116.58351 
L 286.551134 116.715517 
L 286.614777 116.846532 
L 286.680491 116.976519 
L 286.748258 117.105448 
L 286.818063 117.233286 
L 286.889887 117.36 
L 286.963712 117.485558 
L 287.039521 117.60993 
L 287.117293 117.733083 
L 287.197009 117.854986 
L 287.278649 117.97561 
L 287.362193 118.094922 
L 287.447619 118.212895 
L 287.534906 118.329497 
L 287.624033 118.444699 
L 287.714975 118.558473 
L 287.807712 118.67079 
L 287.902219 118.781622 
L 287.998472 118.890939 
L 288.096448 118.998716 
L 288.196122 119.104925 
L 288.297468 119.209539 
L 288.400461 119.312532 
L 288.505075 119.413878 
L 288.611284 119.513552 
L 288.719061 119.611528 
L 288.828378 119.707781 
L 288.93921 119.802288 
L 289.051527 119.895025 
L 289.165301 119.985967 
L 289.280503 120.075094 
L 289.397105 120.162381 
L 289.515078 120.247807 
L 289.63439 120.331351 
L 289.755014 120.412991 
L 289.876917 120.492707 
L 290.00007 120.570479 
L 290.124442 120.646288 
L 290.25 120.720113 
L 290.376714 120.791937 
L 290.504552 120.861742 
L 290.633481 120.929509 
L 290.763468 120.995223 
L 290.894483 121.058866 
L 291.02649 121.120422 
L 291.159458 121.179876 
L 291.293352 121.237212 
L 291.428139 121.292418 
L 291.563784 121.345477 
L 291.700255 121.396378 
L 291.837516 121.445108 
L 291.975533 121.491653 
L 292.114271 121.536003 
L 292.253695 121.578145 
L 292.39377 121.618071 
L 292.534461 121.655769 
L 292.675733 121.69123 
L 292.817549 121.724445 
L 292.959875 121.755406 
L 293.102674 121.784105 
L 293.24591 121.810535 
L 293.389547 121.834689 
L 293.53355 121.856561 
L 293.677881 121.876145 
L 293.822505 121.893437 
L 293.967386 121.908432 
L 294.112485 121.921127 
L 294.257768 121.931518 
L 294.403198 121.939602 
L 294.548738 121.945378 
L 294.69435 121.948844 
L 294.84 121.95 
L 495.27 121.95 
z
" clip-path="url(#pa4224e84cf)" style="fill: none; stroke-dasharray: 3.7,1.6; stroke-dashoffset: 0; stroke: #ff0000; stroke-linecap: round"/>
   </g>
   <g id="patch_8">
    <path d="M 483.03 85.23 
C 487.087607 85.23 490.979572 83.617895 493.848734 80.748734 
C 496.717895 77.879572 498.33 73.987607 498.33 69.93 
C 498.33 65.872393 496.717895 61.980428 493.848734 59.111266 
C 490.979572 56.242105 487.087607 54.63 483.03 54.63 
C 478.972393 54.63 475.080428 56.242105 472.211266 59.111266 
C 469.342105 61.980428 467.73 65.872393 467.73 69.93 
C 467.73 73.987607 469.342105 77.879572 472.211266 80.748734 
C 475.080428 83.617895 478.972393 85.23 483.03 85.23 
L 483.03 85.23 
z
" clip-path="url(#pa4224e84cf)" style="fill: none; stroke: #000000; stroke-width: 2; stroke-linejoin: miter"/>
   </g>
   <g id="patch_9">
    <path d="M 115.83 85.23 
C 119.887607 85.23 123.779572 83.617895 126.648734 80.748734 
C 129.517895 77.879572 131.13 73.987607 131.13 69.93 
C 131.13 65.872393 129.517895 61.980428 126.648734 59.111266 
C 123.779572 56.242105 119.887607 54.63 115.83 54.63 
C 111.772393 54.63 107.880428 56.242105 105.011266 59.111266 
C 102.142105 61.980428 100.53 65.872393 100.53 69.93 
C 100.53 73.987607 102.142105 77.879572 105.011266 80.748734 
C 107.880428 83.617895 111.772393 85.23 115.83 85.23 
L 115.83 85.23 
z
" clip-path="url(#pa4224e84cf)" style="fill: none; stroke: #000000; stroke-width: 2; stroke-linejoin: miter"/>
   </g>
   <g id="patch_10">
    <path d="M 391.23 85.23 
C 395.287607 85.23 399.179572 83.617895 402.048734 80.748734 
C 404.917895 77.879572 406.53 73.987607 406.53 69.93 
C 406.53 65.872393 404.917895 61.980428 402.048734 59.111266 
C 399.179572 56.242105 395.287607 54.63 391.23 54.63 
C 387.172393 54.63 383.280428 56.242105 380.411266 59.111266 
C 377.542105 61.980428 375.93 65.872393 375.93 69.93 
C 375.93 73.987607 377.542105 77.879572 380.411266 80.748734 
C 383.280428 83.617895 387.172393 85.23 391.23 85.23 
L 391.23 85.23 
z
" clip-path="url(#pa4224e84cf)" style="fill: none; stroke: #000000; stroke-width: 2; stroke-linejoin: miter"/>
   </g>
   <g id="patch_11">
    <path d="M 161.73 131.13 
C 165.787607 131.13 169.679572 129.517895 172.548734 126.648734 
C 175.417895 123.779572 177.03 119.887607 177.03 115.83 
C 177.03 111.772393 175.417895 107.880428 172.548734 105.011266 
C 169.679572 102.142105 165.787607 100.53 161.73 100.53 
C 157.672393 100.53 153.780428 102.142105 150.911266 105.011266 
C 148.042105 107.880428 146.43 111.772393 146.43 115.83 
C 146.43 119.887607 148.042105 123.779572 150.911266 126.648734 
C 153.780428 129.517895 157.672393 131.13 161.73 131.13 
L 161.73 131.13 
z
" clip-path="url(#pa4224e84cf)" style="fill: none; stroke: #000000; stroke-width: 2; stroke-linejoin: miter"/>
   </g>
   <g id="patch_12">
    <path d="M 204.57 137.25 
L 204.71565 137.248844 
L 204.861262 137.245378 
L 205.006802 137.239602 
L 205.152232 137.231518 
L 205.297515 137.221127 
L 205.442614 137.208432 
L 205.587495 137.193437 
L 205.732119 137.176145 
L 205.87645 137.156561 
L 206.020453 137.134689 
L 206.16409 137.110535 
L 206.307326 137.084105 
L 206.450125 137.055406 
L 206.592451 137.024445 
L 206.734267 136.99123 
L 206.875539 136.955769 
L 207.01623 136.918071 
L 207.156305 136.878145 
L 207.295729 136.836003 
L 207.434467 136.791653 
L 207.572484 136.745108 
L 207.709745 136.696378 
L 207.846216 136.645477 
L 207.981861 136.592418 
L 208.116648 136.537212 
L 208.250542 136.479876 
L 208.38351 136.420422 
L 208.515517 136.358866 
L 208.646532 136.295223 
L 208.776519 136.229509 
L 208.905448 136.161742 
L 209.033286 136.091937 
L 209.16 136.020113 
L 209.285558 135.946288 
L 209.40993 135.870479 
L 209.533083 135.792707 
L 209.654986 135.712991 
L 209.77561 135.631351 
L 209.894922 135.547807 
L 210.012895 135.462381 
L 210.129497 135.375094 
L 210.244699 135.285967 
L 210.358473 135.195025 
L 210.47079 135.102288 
L 210.581622 135.007781 
L 210.690939 134.911528 
L 210.798716 134.813552 
L 210.904925 134.713878 
L 211.009539 134.612532 
L 211.112532 134.509539 
L 211.213878 134.404925 
L 211.313552 134.298716 
L 211.411528 134.190939 
L 211.507781 134.081622 
L 211.602288 133.97079 
L 211.695025 133.858473 
L 211.785967 133.744699 
L 211.875094 133.629497 
L 211.962381 133.512895 
L 212.047807 133.394922 
L 212.131351 133.27561 
L 212.212991 133.154986 
L 212.292707 133.033083 
L 212.370479 132.90993 
L 212.446288 132.785558 
L 212.520113 132.66 
L 212.591937 132.533286 
L 212.661742 132.405448 
L 212.729509 132.276519 
L 212.795223 132.146532 
L 212.858866 132.015517 
L 212.920422 131.88351 
L 212.979876 131.750542 
L 213.037212 131.616648 
L 213.092418 131.481861 
L 213.145477 131.346216 
L 213.196378 131.209745 
L 213.245108 131.072484 
L 213.291653 130.934467 
L 213.336003 130.795729 
L 213.378145 130.656305 
L 213.418071 130.51623 
L 213.455769 130.375539 
L 213.49123 130.234267 
L 213.524445 130.092451 
L 213.555406 129.950125 
L 213.584105 129.807326 
L 213.610535 129.66409 
L 213.634689 129.520453 
L 213.656561 129.37645 
L 213.676145 129.232119 
L 213.693437 129.087495 
L 213.708432 128.942614 
L 213.721127 128.797515 
L 213.731518 128.652232 
L 213.739602 128.506802 
L 213.745378 128.361262 
L 213.748844 128.21565 
L 213.75 128.07 
L 213.75 19.44 
L 213.748844 19.29435 
L 213.745378 19.148738 
L 213.739602 19.003198 
L 213.731518 18.857768 
L 213.721127 18.712485 
L 213.708432 18.567386 
L 213.693437 18.422505 
L 213.676145 18.277881 
L 213.656561 18.13355 
L 213.634689 17.989547 
L 213.610535 17.84591 
L 213.584105 17.702674 
L 213.555406 17.559875 
L 213.524445 17.417549 
L 213.49123 17.275733 
L 213.455769 17.134461 
L 213.418071 16.99377 
L 213.378145 16.853695 
L 213.336003 16.714271 
L 213.291653 16.575533 
L 213.245108 16.437516 
L 213.196378 16.300255 
L 213.145477 16.163784 
L 213.092418 16.028139 
L 213.037212 15.893352 
L 212.979876 15.759458 
L 212.920422 15.62649 
L 212.858866 15.494483 
L 212.795223 15.363468 
L 212.729509 15.233481 
L 212.661742 15.104552 
L 212.591937 14.976714 
L 212.520113 14.85 
L 212.446288 14.724442 
L 212.370479 14.60007 
L 212.292707 14.476917 
L 212.212991 14.355014 
L 212.131351 14.23439 
L 212.047807 14.115078 
L 211.962381 13.997105 
L 211.875094 13.880503 
L 211.785967 13.765301 
L 211.695025 13.651527 
L 211.602288 13.53921 
L 211.507781 13.428378 
L 211.411528 13.319061 
L 211.313552 13.211284 
L 211.213878 13.105075 
L 211.112532 13.000461 
L 211.009539 12.897468 
L 210.904925 12.796122 
L 210.798716 12.696448 
L 210.690939 12.598472 
L 210.581622 12.502219 
L 210.47079 12.407712 
L 210.358473 12.314975 
L 210.244699 12.224033 
L 210.129497 12.134906 
L 210.012895 12.047619 
L 209.894922 11.962193 
L 209.77561 11.878649 
L 209.654986 11.797009 
L 209.533083 11.717293 
L 209.40993 11.639521 
L 209.285558 11.563712 
L 209.16 11.489887 
L 209.033286 11.418063 
L 208.905448 11.348258 
L 208.776519 11.280491 
L 208.646532 11.214777 
L 208.515517 11.151134 
L 208.38351 11.089578 
L 208.250542 11.030124 
L 208.116648 10.972788 
L 207.981861 10.917582 
L 207.846216 10.864523 
L 207.709745 10.813622 
L 207.572484 10.764892 
L 207.434467 10.718347 
L 207.295729 10.673997 
L 207.156305 10.631855 
L 207.01623 10.591929 
L 206.875539 10.554231 
L 206.734267 10.51877 
L 206.592451 10.485555 
L 206.450125 10.454594 
L 206.307326 10.425895 
L 206.16409 10.399465 
L 206.020453 10.375311 
L 205.87645 10.353439 
L 205.732119 10.333855 
L 205.587495 10.316563 
L 205.442614 10.301568 
L 205.297515 10.288873 
L 205.152232 10.278482 
L 205.006802 10.270398 
L 204.861262 10.264622 
L 204.71565 10.261156 
L 204.57 10.26 
L 19.44 10.26 
L 19.29435 10.261156 
L 19.148738 10.264622 
L 19.003198 10.270398 
L 18.857768 10.278482 
L 18.712485 10.288873 
L 18.567386 10.301568 
L 18.422505 10.316563 
L 18.277881 10.333855 
L 18.13355 10.353439 
L 17.989547 10.375311 
L 17.84591 10.399465 
L 17.702674 10.425895 
L 17.559875 10.454594 
L 17.417549 10.485555 
L 17.275733 10.51877 
L 17.134461 10.554231 
L 16.99377 10.591929 
L 16.853695 10.631855 
L 16.714271 10.673997 
L 16.575533 10.718347 
L 16.437516 10.764892 
L 16.300255 10.813622 
L 16.163784 10.864523 
L 16.028139 10.917582 
L 15.893352 10.972788 
L 15.759458 11.030124 
L 15.62649 11.089578 
L 15.494483 11.151134 
L 15.363468 11.214777 
L 15.233481 11.280491 
L 15.104552 11.348258 
L 14.976714 11.418063 
L 14.85 11.489887 
L 14.724442 11.563712 
L 14.60007 11.639521 
L 14.476917 11.717293 
L 14.355014 11.797009 
L 14.23439 11.878649 
L 14.115078 11.962193 
L 13.997105 12.047619 
L 13.880503 12.134906 
L 13.765301 12.224033 
L 13.651527 12.314975 
L 13.53921 12.407712 
L 13.428378 12.502219 
L 13.319061 12.598472 
L 13.211284 12.696448 
L 13.105075 12.796122 
L 13.000461 12.897468 
L 12.897468 13.000461 
L 12.796122 13.105075 
L 12.696448 13.211284 
L 12.598472 13.319061 
L 12.502219 13.428378 
L 12.407712 13.53921 
L 12.314975 13.651527 
L 12.224033 13.765301 
L 12.134906 13.880503 
L 12.047619 13.997105 
L 11.962193 14.115078 
L 11.878649 14.23439 
L 11.797009 14.355014 
L 11.717293 14.476917 
L 11.639521 14.60007 
L 11.563712 14.724442 
L 11.489887 14.85 
L 11.418063 14.976714 
L 11.348258 15.104552 
L 11.280491 15.233481 
L 11.214777 15.363468 
L 11.151134 15.494483 
L 11.089578 15.62649 
L 11.030124 15.759458 
L 10.972788 15.893352 
L 10.917582 16.028139 
L 10.864523 16.163784 
L 10.813622 16.300255 
L 10.764892 16.437516 
L 10.718347 16.575533 
L 10.673997 16.714271 
L 10.631855 16.853695 
L 10.591929 16.99377 
L 10.554231 17.134461 
L 10.51877 17.275733 
L 10.485555 17.417549 
L 10.454594 17.559875 
L 10.425895 17.702674 
L 10.399465 17.84591 
L 10.375311 17.989547 
L 10.353439 18.13355 
L 10.333855 18.277881 
L 10.316563 18.422505 
L 10.301568 18.567386 
L 10.288873 18.712485 
L 10.278482 18.857768 
L 10.270398 19.003198 
L 10.264622 19.148738 
L 10.261156 19.29435 
L 10.26 19.44 
L 10.26 128.07 
L 10.261156 128.21565 
L 10.264622 128.361262 
L 10.270398 128.506802 
L 10.278482 128.652232 
L 10.288873 128.797515 
L 10.301568 128.942614 
L 10.316563 129.087495 
L 10.333855 129.232119 
L 10.353439 129.37645 
L 10.375311 129.520453 
L 10.399465 129.66409 
L 10.425895 129.807326 
L 10.454594 129.950125 
L 10.485555 130.092451 
L 10.51877 130.234267 
L 10.554231 130.375539 
L 10.591929 130.51623 
L 10.631855 130.656305 
L 10.673997 130.795729 
L 10.718347 130.934467 
L 10.764892 131.072484 
L 10.813622 131.209745 
L 10.864523 131.346216 
L 10.917582 131.481861 
L 10.972788 131.616648 
L 11.030124 131.750542 
L 11.089578 131.88351 
L 11.151134 132.015517 
L 11.214777 132.146532 
L 11.280491 132.276519 
L 11.348258 132.405448 
L 11.418063 132.533286 
L 11.489887 132.66 
L 11.563712 132.785558 
L 11.639521 132.90993 
L 11.717293 133.033083 
L 11.797009 133.154986 
L 11.878649 133.27561 
L 11.962193 133.394922 
L 12.047619 133.512895 
L 12.134906 133.629497 
L 12.224033 133.744699 
L 12.314975 133.858473 
L 12.407712 133.97079 
L 12.502219 134.081622 
L 12.598472 134.190939 
L 12.696448 134.298716 
L 12.796122 134.404925 
L 12.897468 134.509539 
L 13.000461 134.612532 
L 13.105075 134.713878 
L 13.211284 134.813552 
L 13.319061 134.911528 
L 13.428378 135.007781 
L 13.53921 135.102288 
L 13.651527 135.195025 
L 13.765301 135.285967 
L 13.880503 135.375094 
L 13.997105 135.462381 
L 14.115078 135.547807 
L 14.23439 135.631351 
L 14.355014 135.712991 
L 14.476917 135.792707 
L 14.60007 135.870479 
L 14.724442 135.946288 
L 14.85 136.020113 
L 14.976714 136.091937 
L 15.104552 136.161742 
L 15.233481 136.229509 
L 15.363468 136.295223 
L 15.494483 136.358866 
L 15.62649 136.420422 
L 15.759458 136.479876 
L 15.893352 136.537212 
L 16.028139 136.592418 
L 16.163784 136.645477 
L 16.300255 136.696378 
L 16.437516 136.745108 
L 16.575533 136.791653 
L 16.714271 136.836003 
L 16.853695 136.878145 
L 16.99377 136.918071 
L 17.134461 136.955769 
L 17.275733 136.99123 
L 17.417549 137.024445 
L 17.559875 137.055406 
L 17.702674 137.084105 
L 17.84591 137.110535 
L 17.989547 137.134689 
L 18.13355 137.156561 
L 18.277881 137.176145 
L 18.422505 137.193437 
L 18.567386 137.208432 
L 18.712485 137.221127 
L 18.857768 137.231518 
L 19.003198 137.239602 
L 19.148738 137.245378 
L 19.29435 137.248844 
L 19.44 137.25 
L 204.57 137.25 
z
" clip-path="url(#pa4224e84cf)" style="fill: none; stroke-dasharray: 3.7,1.6; stroke-dashoffset: 0; stroke: #0000ff; stroke-linecap: round"/>
   </g>
   <g id="patch_13">
    <path d="M 495.27 121.95 
L 495.41565 121.948844 
L 495.561262 121.945378 
L 495.706802 121.939602 
L 495.852232 121.931518 
L 495.997515 121.921127 
L 496.142614 121.908432 
L 496.287495 121.893437 
L 496.432119 121.876145 
L 496.57645 121.856561 
L 496.720453 121.834689 
L 496.86409 121.810535 
L 497.007326 121.784105 
L 497.150125 121.755406 
L 497.292451 121.724445 
L 497.434267 121.69123 
L 497.575539 121.655769 
L 497.71623 121.618071 
L 497.856305 121.578145 
L 497.995729 121.536003 
L 498.134467 121.491653 
L 498.272484 121.445108 
L 498.409745 121.396378 
L 498.546216 121.345477 
L 498.681861 121.292418 
L 498.816648 121.237212 
L 498.950542 121.179876 
L 499.08351 121.120422 
L 499.215517 121.058866 
L 499.346532 120.995223 
L 499.476519 120.929509 
L 499.605448 120.861742 
L 499.733286 120.791937 
L 499.86 120.720113 
L 499.985558 120.646288 
L 500.10993 120.570479 
L 500.233083 120.492707 
L 500.354986 120.412991 
L 500.47561 120.331351 
L 500.594922 120.247807 
L 500.712895 120.162381 
L 500.829497 120.075094 
L 500.944699 119.985967 
L 501.058473 119.895025 
L 501.17079 119.802288 
L 501.281622 119.707781 
L 501.390939 119.611528 
L 501.498716 119.513552 
L 501.604925 119.413878 
L 501.709539 119.312532 
L 501.812532 119.209539 
L 501.913878 119.104925 
L 502.013552 118.998716 
L 502.111528 118.890939 
L 502.207781 118.781622 
L 502.302288 118.67079 
L 502.395025 118.558473 
L 502.485967 118.444699 
L 502.575094 118.329497 
L 502.662381 118.212895 
L 502.747807 118.094922 
L 502.831351 117.97561 
L 502.912991 117.854986 
L 502.992707 117.733083 
L 503.070479 117.60993 
L 503.146288 117.485558 
L 503.220113 117.36 
L 503.291937 117.233286 
L 503.361742 117.105448 
L 503.429509 116.976519 
L 503.495223 116.846532 
L 503.558866 116.715517 
L 503.620422 116.58351 
L 503.679876 116.450542 
L 503.737212 116.316648 
L 503.792418 116.181861 
L 503.845477 116.046216 
L 503.896378 115.909745 
L 503.945108 115.772484 
L 503.991653 115.634467 
L 504.036003 115.495729 
L 504.078145 115.356305 
L 504.118071 115.21623 
L 504.155769 115.075539 
L 504.19123 114.934267 
L 504.224445 114.792451 
L 504.255406 114.650125 
L 504.284105 114.507326 
L 504.310535 114.36409 
L 504.334689 114.220453 
L 504.356561 114.07645 
L 504.376145 113.932119 
L 504.393437 113.787495 
L 504.408432 113.642614 
L 504.421127 113.497515 
L 504.431518 113.352232 
L 504.439602 113.206802 
L 504.445378 113.061262 
L 504.448844 112.91565 
L 504.45 112.77 
L 504.45 19.44 
L 504.448844 19.29435 
L 504.445378 19.148738 
L 504.439602 19.003198 
L 504.431518 18.857768 
L 504.421127 18.712485 
L 504.408432 18.567386 
L 504.393437 18.422505 
L 504.376145 18.277881 
L 504.356561 18.13355 
L 504.334689 17.989547 
L 504.310535 17.84591 
L 504.284105 17.702674 
L 504.255406 17.559875 
L 504.224445 17.417549 
L 504.19123 17.275733 
L 504.155769 17.134461 
L 504.118071 16.99377 
L 504.078145 16.853695 
L 504.036003 16.714271 
L 503.991653 16.575533 
L 503.945108 16.437516 
L 503.896378 16.300255 
L 503.845477 16.163784 
L 503.792418 16.028139 
L 503.737212 15.893352 
L 503.679876 15.759458 
L 503.620422 15.62649 
L 503.558866 15.494483 
L 503.495223 15.363468 
L 503.429509 15.233481 
L 503.361742 15.104552 
L 503.291937 14.976714 
L 503.220113 14.85 
L 503.146288 14.724442 
L 503.070479 14.60007 
L 502.992707 14.476917 
L 502.912991 14.355014 
L 502.831351 14.23439 
L 502.747807 14.115078 
L 502.662381 13.997105 
L 502.575094 13.880503 
L 502.485967 13.765301 
L 502.395025 13.651527 
L 502.302288 13.53921 
L 502.207781 13.428378 
L 502.111528 13.319061 
L 502.013552 13.211284 
L 501.913878 13.105075 
L 501.812532 13.000461 
L 501.709539 12.897468 
L 501.604925 12.796122 
L 501.498716 12.696448 
L 501.390939 12.598472 
L 501.281622 12.502219 
L 501.17079 12.407712 
L 501.058473 12.314975 
L 500.944699 12.224033 
L 500.829497 12.134906 
L 500.712895 12.047619 
L 500.594922 11.962193 
L 500.47561 11.878649 
L 500.354986 11.797009 
L 500.233083 11.717293 
L 500.10993 11.639521 
L 499.985558 11.563712 
L 499.86 11.489887 
L 499.733286 11.418063 
L 499.605448 11.348258 
L 499.476519 11.280491 
L 499.346532 11.214777 
L 499.215517 11.151134 
L 499.08351 11.089578 
L 498.950542 11.030124 
L 498.816648 10.972788 
L 498.681861 10.917582 
L 498.546216 10.864523 
L 498.409745 10.813622 
L 498.272484 10.764892 
L 498.134467 10.718347 
L 497.995729 10.673997 
L 497.856305 10.631855 
L 497.71623 10.591929 
L 497.575539 10.554231 
L 497.434267 10.51877 
L 497.292451 10.485555 
L 497.150125 10.454594 
L 497.007326 10.425895 
L 496.86409 10.399465 
L 496.720453 10.375311 
L 496.57645 10.353439 
L 496.432119 10.333855 
L 496.287495 10.316563 
L 496.142614 10.301568 
L 495.997515 10.288873 
L 495.852232 10.278482 
L 495.706802 10.270398 
L 495.561262 10.264622 
L 495.41565 10.261156 
L 495.27 10.26 
L 294.84 10.26 
L 294.69435 10.261156 
L 294.548738 10.264622 
L 294.403198 10.270398 
L 294.257768 10.278482 
L 294.112485 10.288873 
L 293.967386 10.301568 
L 293.822505 10.316563 
L 293.677881 10.333855 
L 293.53355 10.353439 
L 293.389547 10.375311 
L 293.24591 10.399465 
L 293.102674 10.425895 
L 292.959875 10.454594 
L 292.817549 10.485555 
L 292.675733 10.51877 
L 292.534461 10.554231 
L 292.39377 10.591929 
L 292.253695 10.631855 
L 292.114271 10.673997 
L 291.975533 10.718347 
L 291.837516 10.764892 
L 291.700255 10.813622 
L 291.563784 10.864523 
L 291.428139 10.917582 
L 291.293352 10.972788 
L 291.159458 11.030124 
L 291.02649 11.089578 
L 290.894483 11.151134 
L 290.763468 11.214777 
L 290.633481 11.280491 
L 290.504552 11.348258 
L 290.376714 11.418063 
L 290.25 11.489887 
L 290.124442 11.563712 
L 290.00007 11.639521 
L 289.876917 11.717293 
L 289.755014 11.797009 
L 289.63439 11.878649 
L 289.515078 11.962193 
L 289.397105 12.047619 
L 289.280503 12.134906 
L 289.165301 12.224033 
L 289.051527 12.314975 
L 288.93921 12.407712 
L 288.828378 12.502219 
L 288.719061 12.598472 
L 288.611284 12.696448 
L 288.505075 12.796122 
L 288.400461 12.897468 
L 288.297468 13.000461 
L 288.196122 13.105075 
L 288.096448 13.211284 
L 287.998472 13.319061 
L 287.902219 13.428378 
L 287.807712 13.53921 
L 287.714975 13.651527 
L 287.624033 13.765301 
L 287.534906 13.880503 
L 287.447619 13.997105 
L 287.362193 14.115078 
L 287.278649 14.23439 
L 287.197009 14.355014 
L 287.117293 14.476917 
L 287.039521 14.60007 
L 286.963712 14.724442 
L 286.889887 14.85 
L 286.818063 14.976714 
L 286.748258 15.104552 
L 286.680491 15.233481 
L 286.614777 15.363468 
L 286.551134 15.494483 
L 286.489578 15.62649 
L 286.430124 15.759458 
L 286.372788 15.893352 
L 286.317582 16.028139 
L 286.264523 16.163784 
L 286.213622 16.300255 
L 286.164892 16.437516 
L 286.118347 16.575533 
L 286.073997 16.714271 
L 286.031855 16.853695 
L 285.991929 16.99377 
L 285.954231 17.134461 
L 285.91877 17.275733 
L 285.885555 17.417549 
L 285.854594 17.559875 
L 285.825895 17.702674 
L 285.799465 17.84591 
L 285.775311 17.989547 
L 285.753439 18.13355 
L 285.733855 18.277881 
L 285.716563 18.422505 
L 285.701568 18.567386 
L 285.688873 18.712485 
L 285.678482 18.857768 
L 285.670398 19.003198 
L 285.664622 19.148738 
L 285.661156 19.29435 
L 285.66 19.44 
L 285.66 112.77 
L 285.661156 112.91565 
L 285.664622 113.061262 
L 285.670398 113.206802 
L 285.678482 113.352232 
L 285.688873 113.497515 
L 285.701568 113.642614 
L 285.716563 113.787495 
L 285.733855 113.932119 
L 285.753439 114.07645 
L 285.775311 114.220453 
L 285.799465 114.36409 
L 285.825895 114.507326 
L 285.854594 114.650125 
L 285.885555 114.792451 
L 285.91877 114.934267 
L 285.954231 115.075539 
L 285.991929 115.21623 
L 286.031855 115.356305 
L 286.073997 115.495729 
L 286.118347 115.634467 
L 286.164892 115.772484 
L 286.213622 115.909745 
L 286.264523 116.046216 
L 286.317582 116.181861 
L 286.372788 116.316648 
L 286.430124 116.450542 
L 286.489578 116.58351 
L 286.551134 116.715517 
L 286.614777 116.846532 
L 286.680491 116.976519 
L 286.748258 117.105448 
L 286.818063 117.233286 
L 286.889887 117.36 
L 286.963712 117.485558 
L 287.039521 117.60993 
L 287.117293 117.733083 
L 287.197009 117.854986 
L 287.278649 117.97561 
L 287.362193 118.094922 
L 287.447619 118.212895 
L 287.534906 118.329497 
L 287.624033 118.444699 
L 287.714975 118.558473 
L 287.807712 118.67079 
L 287.902219 118.781622 
L 287.998472 118.890939 
L 288.096448 118.998716 
L 288.196122 119.104925 
L 288.297468 119.209539 
L 288.400461 119.312532 
L 288.505075 119.413878 
L 288.611284 119.513552 
L 288.719061 119.611528 
L 288.828378 119.707781 
L 288.93921 119.802288 
L 289.051527 119.895025 
L 289.165301 119.985967 
L 289.280503 120.075094 
L 289.397105 120.162381 
L 289.515078 120.247807 
L 289.63439 120.331351 
L 289.755014 120.412991 
L 289.876917 120.492707 
L 290.00007 120.570479 
L 290.124442 120.646288 
L 290.25 120.720113 
L 290.376714 120.791937 
L 290.504552 120.861742 
L 290.633481 120.929509 
L 290.763468 120.995223 
L 290.894483 121.058866 
L 291.02649 121.120422 
L 291.159458 121.179876 
L 291.293352 121.237212 
L 291.428139 121.292418 
L 291.563784 121.345477 
L 291.700255 121.396378 
L 291.837516 121.445108 
L 291.975533 121.491653 
L 292.114271 121.536003 
L 292.253695 121.578145 
L 292.39377 121.618071 
L 292.534461 121.655769 
L 292.675733 121.69123 
L 292.817549 121.724445 
L 292.959875 121.755406 
L 293.102674 121.784105 
L 293.24591 121.810535 
L 293.389547 121.834689 
L 293.53355 121.856561 
L 293.677881 121.876145 
L 293.822505 121.893437 
L 293.967386 121.908432 
L 294.112485 121.921127 
L 294.257768 121.931518 
L 294.403198 121.939602 
L 294.548738 121.945378 
L 294.69435 121.948844 
L 294.84 121.95 
L 495.27 121.95 
z
" clip-path="url(#pa4224e84cf)" style="fill: none; stroke-dasharray: 3.7,1.6; stroke-dashoffset: 0; stroke: #ff0000; stroke-linecap: round"/>
   </g>
   <g id="line2d_1">
    <path d="M 24.03 115.83 
L 24.03 85.23 
L 16.38 82.68 
L 31.68 77.58 
L 16.38 72.48 
L 31.68 67.38 
L 16.38 62.28 
L 31.68 57.18 
L 24.03 54.63 
L 24.03 24.03 
" clip-path="url(#pa4224e84cf)" style="fill: none; stroke: #000000; stroke-width: 2; stroke-linecap: round"/>
   </g>
   <g id="line2d_2">
    <path d="M 24.03 24.03 
L 69.93 24.03 
L 115.83 24.03 
" clip-path="url(#pa4224e84cf)" style="fill: none; stroke: #000000; stroke-width: 2; stroke-linecap: round"/>
   </g>
   <g id="line2d_3">
    <path d="M 115.83 24.03 
L 146.43 24.03 
L 148.98 16.38 
L 154.08 31.68 
L 159.18 16.38 
L 164.28 31.68 
L 169.38 16.38 
L 174.48 31.68 
L 177.03 24.03 
L 207.63 24.03 
" clip-path="url(#pa4224e84cf)" style="fill: none; stroke: #000000; stroke-width: 2; stroke-linecap: round"/>
   </g>
   <g id="line2d_4">
    <path d="M 207.63 24.03 
L 253.53 24.03 
L 299.43 24.03 
" clip-path="url(#pa4224e84cf)" style="fill: none; stroke: #000000; stroke-width: 2; stroke-linecap: round"/>
   </g>
   <g id="line2d_5">
    <path d="M 299.43 24.03 
L 345.33 24.03 
L 391.23 24.03 
" clip-path="url(#pa4224e84cf)" style="fill: none; stroke: #000000; stroke-width: 2; stroke-linecap: round"/>
   </g>
   <g id="line2d_6">
    <path d="M 391.23 24.03 
L 421.83 24.03 
L 424.38 16.38 
L 429.48 31.68 
L 434.58 16.38 
L 439.68 31.68 
L 444.78 16.38 
L 449.88 31.68 
L 452.43 24.03 
L 483.03 24.03 
" clip-path="url(#pa4224e84cf)" style="fill: none; stroke: #000000; stroke-width: 2; stroke-linecap: round"/>
   </g>
   <g id="line2d_7">
    <path d="M 483.03 24.03 
L 483.03 54.63 
L 483.03 54.63 
M 483.03 85.23 
L 483.03 85.23 
L 483.03 115.83 
" clip-path="url(#pa4224e84cf)" style="fill: none; stroke: #000000; stroke-width: 2; stroke-linecap: round"/>
   </g>
   <g id="line2d_8">
    <path d="M 486.09 77.58 
L 479.97 77.58 
" clip-path="url(#pa4224e84cf)" style="fill: none; stroke: #000000; stroke-width: 2; stroke-linecap: round"/>
   </g>
   <g id="line2d_9">
    <path d="M 483.03 59.22 
L 483.03 65.34 
" clip-path="url(#pa4224e84cf)" style="fill: none; stroke: #000000; stroke-width: 2; stroke-linecap: round"/>
   </g>
   <g id="line2d_10">
    <path d="M 486.09 62.28 
L 479.97 62.28 
" clip-path="url(#pa4224e84cf)" style="fill: none; stroke: #000000; stroke-width: 2; stroke-linecap: round"/>
   </g>
   <g id="line2d_11">
    <path d="M 115.83 24.03 
L 115.83 54.63 
L 115.83 54.63 
M 115.83 85.23 
L 115.83 85.23 
L 115.83 115.83 
" clip-path="url(#pa4224e84cf)" style="fill: none; stroke: #000000; stroke-width: 2; stroke-linecap: round"/>
   </g>
   <g id="line2d_12">
    <path d="M 115.83 69.93 
L 115.83 77.58 
" clip-path="url(#pa4224e84cf)" style="fill: none; stroke: #000000; stroke-width: 2; stroke-linecap: round"/>
   </g>
   <g id="patch_14">
    <path d="M 113.535 69.93 
L 115.83 62.28 
L 118.125 69.93 
z
" clip-path="url(#pa4224e84cf)"/>
   </g>
   <g id="line2d_13">
    <path d="M 299.43 24.03 
L 299.43 54.63 
L 307.08 57.18 
L 291.78 62.28 
L 307.08 67.38 
L 291.78 72.48 
L 307.08 77.58 
L 291.78 82.68 
L 299.43 85.23 
L 299.43 115.83 
" clip-path="url(#pa4224e84cf)" style="fill: none; stroke: #000000; stroke-width: 2; stroke-linecap: round"/>
   </g>
   <g id="line2d_14">
    <path d="M 391.23 24.03 
L 391.23 54.63 
L 391.23 54.63 
M 391.23 85.23 
L 391.23 85.23 
L 391.23 115.83 
" clip-path="url(#pa4224e84cf)" style="fill: none; stroke: #000000; stroke-width: 2; stroke-linecap: round"/>
   </g>
   <g id="line2d_15">
    <path d="M 391.23 69.93 
L 391.23 77.58 
" clip-path="url(#pa4224e84cf)" style="fill: none; stroke: #000000; stroke-width: 2; stroke-linecap: round"/>
   </g>
   <g id="patch_15">
    <path d="M 388.935 69.93 
L 391.23 62.28 
L 393.525 69.93 
z
" clip-path="url(#pa4224e84cf)"/>
   </g>
   <g id="line2d_16">
    <path d="M 24.03 115.83 
L 69.93 115.83 
L 115.83 115.83 
" clip-path="url(#pa4224e84cf)" style="fill: none; stroke: #000000; stroke-width: 2; stroke-linecap: round"/>
   </g>
   <g id="line2d_17">
    <path d="M 115.83 115.83 
L 146.43 115.83 
L 146.43 115.83 
M 177.03 115.83 
L 177.03 115.83 
L 207.63 115.83 
" clip-path="url(#pa4224e84cf)" style="fill: none; stroke: #000000; stroke-width: 2; stroke-linecap: round"/>
   </g>
   <g id="line2d_18">
    <path d="M 154.08 118.89 
L 154.08 112.77 
" clip-path="url(#pa4224e84cf)" style="fill: none; stroke: #000000; stroke-width: 2; stroke-linecap: round"/>
   </g>
   <g id="line2d_19">
    <path d="M 166.32 115.83 
L 172.44 115.83 
" clip-path="url(#pa4224e84cf)" style="fill: none; stroke: #000000; stroke-width: 2; stroke-linecap: round"/>
   </g>
   <g id="line2d_20">
    <path d="M 169.38 118.89 
L 169.38 112.77 
" clip-path="url(#pa4224e84cf)" style="fill: none; stroke: #000000; stroke-width: 2; stroke-linecap: round"/>
   </g>
   <g id="line2d_21">
    <path d="M 207.63 115.83 
L 345.33 115.83 
L 483.03 115.83 
" clip-path="url(#pa4224e84cf)" style="fill: none; stroke: #000000; stroke-width: 2; stroke-linecap: round"/>
   </g>
   <g id="line2d_22">
    <path d="M 24.03 115.83 
L 24.03 85.23 
L 16.38 82.68 
L 31.68 77.58 
L 16.38 72.48 
L 31.68 67.38 
L 16.38 62.28 
L 31.68 57.18 
L 24.03 54.63 
L 24.03 24.03 
" clip-path="url(#pa4224e84cf)" style="fill: none; stroke: #000000; stroke-width: 2; stroke-linecap: round"/>
   </g>
   <g id="line2d_23">
    <path d="M 24.03 24.03 
L 69.93 24.03 
L 115.83 24.03 
" clip-path="url(#pa4224e84cf)" style="fill: none; stroke: #000000; stroke-width: 2; stroke-linecap: round"/>
   </g>
   <g id="line2d_24">
    <path d="M 115.83 24.03 
L 146.43 24.03 
L 148.98 16.38 
L 154.08 31.68 
L 159.18 16.38 
L 164.28 31.68 
L 169.38 16.38 
L 174.48 31.68 
L 177.03 24.03 
L 207.63 24.03 
" clip-path="url(#pa4224e84cf)" style="fill: none; stroke: #000000; stroke-width: 2; stroke-linecap: round"/>
   </g>
   <g id="line2d_25">
    <path d="M 207.63 24.03 
L 253.53 24.03 
L 299.43 24.03 
" clip-path="url(#pa4224e84cf)" style="fill: none; stroke: #000000; stroke-width: 2; stroke-linecap: round"/>
   </g>
   <g id="line2d_26">
    <path d="M 299.43 24.03 
L 345.33 24.03 
L 391.23 24.03 
" clip-path="url(#pa4224e84cf)" style="fill: none; stroke: #000000; stroke-width: 2; stroke-linecap: round"/>
   </g>
   <g id="line2d_27">
    <path d="M 391.23 24.03 
L 421.83 24.03 
L 424.38 16.38 
L 429.48 31.68 
L 434.58 16.38 
L 439.68 31.68 
L 444.78 16.38 
L 449.88 31.68 
L 452.43 24.03 
L 483.03 24.03 
" clip-path="url(#pa4224e84cf)" style="fill: none; stroke: #000000; stroke-width: 2; stroke-linecap: round"/>
   </g>
   <g id="line2d_28">
    <path d="M 483.03 24.03 
L 483.03 54.63 
L 483.03 54.63 
M 483.03 85.23 
L 483.03 85.23 
L 483.03 115.83 
" clip-path="url(#pa4224e84cf)" style="fill: none; stroke: #000000; stroke-width: 2; stroke-linecap: round"/>
   </g>
   <g id="line2d_29">
    <path d="M 486.09 77.58 
L 479.97 77.58 
" clip-path="url(#pa4224e84cf)" style="fill: none; stroke: #000000; stroke-width: 2; stroke-linecap: round"/>
   </g>
   <g id="line2d_30">
    <path d="M 483.03 59.22 
L 483.03 65.34 
" clip-path="url(#pa4224e84cf)" style="fill: none; stroke: #000000; stroke-width: 2; stroke-linecap: round"/>
   </g>
   <g id="line2d_31">
    <path d="M 486.09 62.28 
L 479.97 62.28 
" clip-path="url(#pa4224e84cf)" style="fill: none; stroke: #000000; stroke-width: 2; stroke-linecap: round"/>
   </g>
   <g id="line2d_32">
    <path d="M 115.83 24.03 
L 115.83 54.63 
L 115.83 54.63 
M 115.83 85.23 
L 115.83 85.23 
L 115.83 115.83 
" clip-path="url(#pa4224e84cf)" style="fill: none; stroke: #000000; stroke-width: 2; stroke-linecap: round"/>
   </g>
   <g id="line2d_33">
    <path d="M 115.83 69.93 
L 115.83 77.58 
" clip-path="url(#pa4224e84cf)" style="fill: none; stroke: #000000; stroke-width: 2; stroke-linecap: round"/>
   </g>
   <g id="patch_16">
    <path d="M 113.535 69.93 
L 115.83 62.28 
L 118.125 69.93 
z
" clip-path="url(#pa4224e84cf)"/>
   </g>
   <g id="line2d_34">
    <path d="M 299.43 24.03 
L 299.43 54.63 
L 307.08 57.18 
L 291.78 62.28 
L 307.08 67.38 
L 291.78 72.48 
L 307.08 77.58 
L 291.78 82.68 
L 299.43 85.23 
L 299.43 115.83 
" clip-path="url(#pa4224e84cf)" style="fill: none; stroke: #000000; stroke-width: 2; stroke-linecap: round"/>
   </g>
   <g id="line2d_35">
    <path d="M 391.23 24.03 
L 391.23 54.63 
L 391.23 54.63 
M 391.23 85.23 
L 391.23 85.23 
L 391.23 115.83 
" clip-path="url(#pa4224e84cf)" style="fill: none; stroke: #000000; stroke-width: 2; stroke-linecap: round"/>
   </g>
   <g id="line2d_36">
    <path d="M 391.23 69.93 
L 391.23 77.58 
" clip-path="url(#pa4224e84cf)" style="fill: none; stroke: #000000; stroke-width: 2; stroke-linecap: round"/>
   </g>
   <g id="patch_17">
    <path d="M 388.935 69.93 
L 391.23 62.28 
L 393.525 69.93 
z
" clip-path="url(#pa4224e84cf)"/>
   </g>
   <g id="line2d_37">
    <path d="M 24.03 115.83 
L 69.93 115.83 
L 115.83 115.83 
" clip-path="url(#pa4224e84cf)" style="fill: none; stroke: #000000; stroke-width: 2; stroke-linecap: round"/>
   </g>
   <g id="line2d_38">
    <path d="M 115.83 115.83 
L 146.43 115.83 
L 146.43 115.83 
M 177.03 115.83 
L 177.03 115.83 
L 207.63 115.83 
" clip-path="url(#pa4224e84cf)" style="fill: none; stroke: #000000; stroke-width: 2; stroke-linecap: round"/>
   </g>
   <g id="line2d_39">
    <path d="M 154.08 118.89 
L 154.08 112.77 
" clip-path="url(#pa4224e84cf)" style="fill: none; stroke: #000000; stroke-width: 2; stroke-linecap: round"/>
   </g>
   <g id="line2d_40">
    <path d="M 166.32 115.83 
L 172.44 115.83 
" clip-path="url(#pa4224e84cf)" style="fill: none; stroke: #000000; stroke-width: 2; stroke-linecap: round"/>
   </g>
   <g id="line2d_41">
    <path d="M 169.38 118.89 
L 169.38 112.77 
" clip-path="url(#pa4224e84cf)" style="fill: none; stroke: #000000; stroke-width: 2; stroke-linecap: round"/>
   </g>
   <g id="line2d_42">
    <path d="M 207.63 115.83 
L 345.33 115.83 
L 483.03 115.83 
" clip-path="url(#pa4224e84cf)" style="fill: none; stroke: #000000; stroke-width: 2; stroke-linecap: round"/>
   </g>
   <g id="text_1">
    <g clip-path="url(#pa4224e84cf)">
     <!-- 10 -->
     <g transform="translate(34.74 73.379219)scale(0.125 -0.125)">
      <defs>
       <path id="DejaVuSans-31" d="M 794 531 
L 1825 531 
L 1825 4091 
L 703 3866 
L 703 4441 
L 1819 4666 
L 2450 4666 
L 2450 531 
L 3481 531 
L 3481 0 
L 794 0 
L 794 531 
z
" transform="scale(0.015625)"/>
       <path id="DejaVuSans-30" d="M 2034 4250 
Q 1547 4250 1301 3770 
Q 1056 3291 1056 2328 
Q 1056 1369 1301 889 
Q 1547 409 2034 409 
Q 2525 409 2770 889 
Q 3016 1369 3016 2328 
Q 3016 3291 2770 3770 
Q 2525 4250 2034 4250 
z
M 2034 4750 
Q 2819 4750 3233 4129 
Q 3647 3509 3647 2328 
Q 3647 1150 3233 529 
Q 2819 -91 2034 -91 
Q 1250 -91 836 529 
Q 422 1150 422 2328 
Q 422 3509 836 4129 
Q 1250 4750 2034 4750 
z
" transform="scale(0.015625)"/>
       <path id="DejaVuSans-3a9" d="M 4647 556 
L 4647 0 
L 2772 0 
L 2772 556 
Q 3325 859 3634 1378 
Q 3944 1897 3944 2528 
Q 3944 3278 3531 3731 
Q 3119 4184 2444 4184 
Q 1769 4184 1355 3729 
Q 941 3275 941 2528 
Q 941 1897 1250 1378 
Q 1563 859 2119 556 
L 2119 0 
L 244 0 
L 244 556 
L 1241 556 
Q 747 991 519 1456 
Q 294 1922 294 2497 
Q 294 3491 894 4106 
Q 1491 4722 2444 4722 
Q 3391 4722 3994 4106 
Q 4594 3494 4594 2528 
Q 4594 1922 4372 1459 
Q 4150 997 3647 556 
L 4647 556 
z
" transform="scale(0.015625)"/>
      </defs>
      <use xlink:href="#DejaVuSans-31"/>
      <use xlink:href="#DejaVuSans-30" x="63.623047"/>
      <use xlink:href="#DejaVuSans-3a9" x="127.246094"/>
     </g>
    </g>
   </g>
   <g id="text_2">
    <g clip-path="url(#pa4224e84cf)">
     <!-- 18 -->
     <g transform="translate(149.000508 44.238047)scale(0.125 -0.125)">
      <defs>
       <path id="DejaVuSans-38" d="M 2034 2216 
Q 1584 2216 1326 1975 
Q 1069 1734 1069 1313 
Q 1069 891 1326 650 
Q 1584 409 2034 409 
Q 2484 409 2743 651 
Q 3003 894 3003 1313 
Q 3003 1734 2745 1975 
Q 2488 2216 2034 2216 
z
M 1403 2484 
Q 997 2584 770 2862 
Q 544 3141 544 3541 
Q 544 4100 942 4425 
Q 1341 4750 2034 4750 
Q 2731 4750 3128 4425 
Q 3525 4100 3525 3541 
Q 3525 3141 3298 2862 
Q 3072 2584 2669 2484 
Q 3125 2378 3379 2068 
Q 3634 1759 3634 1313 
Q 3634 634 3220 271 
Q 2806 -91 2034 -91 
Q 1263 -91 848 271 
Q 434 634 434 1313 
Q 434 1759 690 2068 
Q 947 2378 1403 2484 
z
M 1172 3481 
Q 1172 3119 1398 2916 
Q 1625 2713 2034 2713 
Q 2441 2713 2670 2916 
Q 2900 3119 2900 3481 
Q 2900 3844 2670 4047 
Q 2441 4250 2034 4250 
Q 1625 4250 1398 4047 
Q 1172 3844 1172 3481 
z
" transform="scale(0.015625)"/>
      </defs>
      <use xlink:href="#DejaVuSans-31"/>
      <use xlink:href="#DejaVuSans-38" x="63.623047"/>
      <use xlink:href="#DejaVuSans-3a9" x="127.246094"/>
     </g>
    </g>
   </g>
   <g id="text_3">
    <g clip-path="url(#pa4224e84cf)">
     <!-- 18 -->
     <g transform="translate(424.400508 44.238047)scale(0.125 -0.125)">
      <use xlink:href="#DejaVuSans-31"/>
      <use xlink:href="#DejaVuSans-38" x="63.623047"/>
      <use xlink:href="#DejaVuSans-3a9" x="127.246094"/>
     </g>
    </g>
   </g>
   <g id="text_4">
    <g clip-path="url(#pa4224e84cf)">
     <!-- 36V -->
     <g transform="translate(440.212969 73.379219)scale(0.125 -0.125)">
      <defs>
       <path id="DejaVuSans-33" d="M 2597 2516 
Q 3050 2419 3304 2112 
Q 3559 1806 3559 1356 
Q 3559 666 3084 287 
Q 2609 -91 1734 -91 
Q 1441 -91 1130 -33 
Q 819 25 488 141 
L 488 750 
Q 750 597 1062 519 
Q 1375 441 1716 441 
Q 2309 441 2620 675 
Q 2931 909 2931 1356 
Q 2931 1769 2642 2001 
Q 2353 2234 1838 2234 
L 1294 2234 
L 1294 2753 
L 1863 2753 
Q 2328 2753 2575 2939 
Q 2822 3125 2822 3475 
Q 2822 3834 2567 4026 
Q 2313 4219 1838 4219 
Q 1578 4219 1281 4162 
Q 984 4106 628 3988 
L 628 4550 
Q 988 4650 1302 4700 
Q 1616 4750 1894 4750 
Q 2613 4750 3031 4423 
Q 3450 4097 3450 3541 
Q 3450 3153 3228 2886 
Q 3006 2619 2597 2516 
z
" transform="scale(0.015625)"/>
       <path id="DejaVuSans-36" d="M 2113 2584 
Q 1688 2584 1439 2293 
Q 1191 2003 1191 1497 
Q 1191 994 1439 701 
Q 1688 409 2113 409 
Q 2538 409 2786 701 
Q 3034 994 3034 1497 
Q 3034 2003 2786 2293 
Q 2538 2584 2113 2584 
z
M 3366 4563 
L 3366 3988 
Q 3128 4100 2886 4159 
Q 2644 4219 2406 4219 
Q 1781 4219 1451 3797 
Q 1122 3375 1075 2522 
Q 1259 2794 1537 2939 
Q 1816 3084 2150 3084 
Q 2853 3084 3261 2657 
Q 3669 2231 3669 1497 
Q 3669 778 3244 343 
Q 2819 -91 2113 -91 
Q 1303 -91 875 529 
Q 447 1150 447 2328 
Q 447 3434 972 4092 
Q 1497 4750 2381 4750 
Q 2619 4750 2861 4703 
Q 3103 4656 3366 4563 
z
" transform="scale(0.015625)"/>
       <path id="DejaVuSans-56" d="M 1831 0 
L 50 4666 
L 709 4666 
L 2188 738 
L 3669 4666 
L 4325 4666 
L 2547 0 
L 1831 0 
z
" transform="scale(0.015625)"/>
      </defs>
      <use xlink:href="#DejaVuSans-33"/>
      <use xlink:href="#DejaVuSans-36" x="63.623047"/>
      <use xlink:href="#DejaVuSans-56" x="127.246094"/>
     </g>
    </g>
   </g>
   <g id="text_5">
    <g clip-path="url(#pa4224e84cf)">
     <!-- 2.2A -->
     <g transform="translate(69.040312 73.379219)scale(0.125 -0.125)">
      <defs>
       <path id="DejaVuSans-32" d="M 1228 531 
L 3431 531 
L 3431 0 
L 469 0 
L 469 531 
Q 828 903 1448 1529 
Q 2069 2156 2228 2338 
Q 2531 2678 2651 2914 
Q 2772 3150 2772 3378 
Q 2772 3750 2511 3984 
Q 2250 4219 1831 4219 
Q 1534 4219 1204 4116 
Q 875 4013 500 3803 
L 500 4441 
Q 881 4594 1212 4672 
Q 1544 4750 1819 4750 
Q 2544 4750 2975 4387 
Q 3406 4025 3406 3419 
Q 3406 3131 3298 2873 
Q 3191 2616 2906 2266 
Q 2828 2175 2409 1742 
Q 1991 1309 1228 531 
z
" transform="scale(0.015625)"/>
       <path id="DejaVuSans-2e" d="M 684 794 
L 1344 794 
L 1344 0 
L 684 0 
L 684 794 
z
" transform="scale(0.015625)"/>
       <path id="DejaVuSans-41" d="M 2188 4044 
L 1331 1722 
L 3047 1722 
L 2188 4044 
z
M 1831 4666 
L 2547 4666 
L 4325 0 
L 3669 0 
L 3244 1197 
L 1141 1197 
L 716 0 
L 50 0 
L 1831 4666 
z
" transform="scale(0.015625)"/>
      </defs>
      <use xlink:href="#DejaVuSans-32"/>
      <use xlink:href="#DejaVuSans-2e" x="63.623047"/>
      <use xlink:href="#DejaVuSans-32" x="95.410156"/>
      <use xlink:href="#DejaVuSans-41" x="159.033203"/>
     </g>
    </g>
   </g>
   <g id="text_6">
    <g clip-path="url(#pa4224e84cf)">
     <!-- 9 -->
     <g transform="translate(310.14 73.379219)scale(0.125 -0.125)">
      <defs>
       <path id="DejaVuSans-39" d="M 703 97 
L 703 672 
Q 941 559 1184 500 
Q 1428 441 1663 441 
Q 2288 441 2617 861 
Q 2947 1281 2994 2138 
Q 2813 1869 2534 1725 
Q 2256 1581 1919 1581 
Q 1219 1581 811 2004 
Q 403 2428 403 3163 
Q 403 3881 828 4315 
Q 1253 4750 1959 4750 
Q 2769 4750 3195 4129 
Q 3622 3509 3622 2328 
Q 3622 1225 3098 567 
Q 2575 -91 1691 -91 
Q 1453 -91 1209 -44 
Q 966 3 703 97 
z
M 1959 2075 
Q 2384 2075 2632 2365 
Q 2881 2656 2881 3163 
Q 2881 3666 2632 3958 
Q 2384 4250 1959 4250 
Q 1534 4250 1286 3958 
Q 1038 3666 1038 3163 
Q 1038 2656 1286 2365 
Q 1534 2075 1959 2075 
z
" transform="scale(0.015625)"/>
      </defs>
      <use xlink:href="#DejaVuSans-39"/>
      <use xlink:href="#DejaVuSans-3a9" x="63.623047"/>
     </g>
    </g>
   </g>
   <g id="text_7">
    <g clip-path="url(#pa4224e84cf)">
     <!-- 2.5A -->
     <g transform="translate(344.440313 73.379219)scale(0.125 -0.125)">
      <defs>
       <path id="DejaVuSans-35" d="M 691 4666 
L 3169 4666 
L 3169 4134 
L 1269 4134 
L 1269 2991 
Q 1406 3038 1543 3061 
Q 1681 3084 1819 3084 
Q 2600 3084 3056 2656 
Q 3513 2228 3513 1497 
Q 3513 744 3044 326 
Q 2575 -91 1722 -91 
Q 1428 -91 1123 -41 
Q 819 9 494 109 
L 494 744 
Q 775 591 1075 516 
Q 1375 441 1709 441 
Q 2250 441 2565 725 
Q 2881 1009 2881 1497 
Q 2881 1984 2565 2268 
Q 2250 2553 1709 2553 
Q 1456 2553 1204 2497 
Q 953 2441 691 2322 
L 691 4666 
z
" transform="scale(0.015625)"/>
      </defs>
      <use xlink:href="#DejaVuSans-32"/>
      <use xlink:href="#DejaVuSans-2e" x="63.623047"/>
      <use xlink:href="#DejaVuSans-35" x="95.410156"/>
      <use xlink:href="#DejaVuSans-41" x="159.033203"/>
     </g>
    </g>
   </g>
   <g id="text_8">
    <g clip-path="url(#pa4224e84cf)">
     <!-- 32V -->
     <g transform="translate(149.501484 94.870391)scale(0.125 -0.125)">
      <use xlink:href="#DejaVuSans-33"/>
      <use xlink:href="#DejaVuSans-32" x="63.623047"/>
      <use xlink:href="#DejaVuSans-56" x="127.246094"/>
     </g>
    </g>
   </g>
   <g id="text_9">
    <g clip-path="url(#pa4224e84cf)">
     <!-- + -->
     <g transform="translate(232.11 50.429219)scale(0.125 -0.125)">
      <defs>
       <path id="DejaVuSans-2b" d="M 2944 4013 
L 2944 2272 
L 4684 2272 
L 4684 1741 
L 2944 1741 
L 2944 0 
L 2419 0 
L 2419 1741 
L 678 1741 
L 678 2272 
L 2419 2272 
L 2419 4013 
L 2944 4013 
z
" transform="scale(0.015625)"/>
      </defs>
      <use xlink:href="#DejaVuSans-2b"/>
     </g>
    </g>
   </g>
   <g id="text_10">
    <g clip-path="url(#pa4224e84cf)">
     <!-- $V_{O}$ -->
     <g transform="translate(232.11 73.379219)scale(0.125 -0.125)">
      <defs>
       <path id="STIXGeneral-Italic-56" d="M 4403 4179 
L 4403 4077 
Q 4198 4070 4045 3821 
L 1658 -115 
L 1536 -115 
L 1011 3104 
Q 902 3776 828 3910 
Q 755 4045 486 4077 
L 486 4179 
L 2022 4179 
L 2022 4077 
Q 1722 4045 1629 3981 
Q 1536 3917 1536 3750 
Q 1536 3686 1542 3654 
L 1958 819 
L 3302 3123 
Q 3616 3661 3616 3859 
Q 3616 4032 3219 4077 
L 3219 4179 
L 4403 4179 
z
" transform="scale(0.015625)"/>
       <path id="STIXGeneral-Italic-4f" d="M 4474 2675 
Q 4474 1990 4106 1363 
Q 3738 736 3149 339 
Q 2477 -115 1779 -115 
Q 1146 -115 765 281 
Q 384 678 384 1382 
Q 384 1965 697 2582 
Q 1011 3200 1517 3642 
Q 2234 4262 3034 4262 
Q 3718 4269 4096 3840 
Q 4474 3411 4474 2675 
z
M 3802 3078 
Q 3802 3533 3581 3792 
Q 3360 4051 2976 4051 
Q 2342 4051 1786 3302 
Q 1446 2842 1251 2259 
Q 1056 1677 1056 1178 
Q 1056 653 1270 374 
Q 1485 96 1888 96 
Q 2477 96 2976 704 
Q 3354 1178 3578 1862 
Q 3802 2547 3802 3078 
z
" transform="scale(0.015625)"/>
      </defs>
      <use xlink:href="#STIXGeneral-Italic-56" transform="translate(0 0.703125)"/>
      <use xlink:href="#STIXGeneral-Italic-4f" transform="translate(61.099991 -12.525)scale(0.7)"/>
     </g>
    </g>
   </g>
   <g id="text_11">
    <g clip-path="url(#pa4224e84cf)">
     <!-- - -->
     <g transform="translate(232.11 96.329219)scale(0.125 -0.125)">
      <defs>
       <path id="DejaVuSans-2d" d="M 313 2009 
L 1997 2009 
L 1997 1497 
L 313 1497 
L 313 2009 
z
" transform="scale(0.015625)"/>
      </defs>
      <use xlink:href="#DejaVuSans-2d"/>
     </g>
    </g>
   </g>
   <g id="text_12">
    <g clip-path="url(#pa4224e84cf)">
     <!-- 10 -->
     <g transform="translate(34.74 73.379219)scale(0.125 -0.125)">
      <use xlink:href="#DejaVuSans-31"/>
      <use xlink:href="#DejaVuSans-30" x="63.623047"/>
      <use xlink:href="#DejaVuSans-3a9" x="127.246094"/>
     </g>
    </g>
   </g>
   <g id="text_13">
    <g clip-path="url(#pa4224e84cf)">
     <!-- 18 -->
     <g transform="translate(149.000508 44.238047)scale(0.125 -0.125)">
      <use xlink:href="#DejaVuSans-31"/>
      <use xlink:href="#DejaVuSans-38" x="63.623047"/>
      <use xlink:href="#DejaVuSans-3a9" x="127.246094"/>
     </g>
    </g>
   </g>
   <g id="text_14">
    <g clip-path="url(#pa4224e84cf)">
     <!-- 18 -->
     <g transform="translate(424.400508 44.238047)scale(0.125 -0.125)">
      <use xlink:href="#DejaVuSans-31"/>
      <use xlink:href="#DejaVuSans-38" x="63.623047"/>
      <use xlink:href="#DejaVuSans-3a9" x="127.246094"/>
     </g>
    </g>
   </g>
   <g id="text_15">
    <g clip-path="url(#pa4224e84cf)">
     <!-- 36V -->
     <g transform="translate(440.212969 73.379219)scale(0.125 -0.125)">
      <use xlink:href="#DejaVuSans-33"/>
      <use xlink:href="#DejaVuSans-36" x="63.623047"/>
      <use xlink:href="#DejaVuSans-56" x="127.246094"/>
     </g>
    </g>
   </g>
   <g id="text_16">
    <g clip-path="url(#pa4224e84cf)">
     <!-- 2.2A -->
     <g transform="translate(69.040312 73.379219)scale(0.125 -0.125)">
      <use xlink:href="#DejaVuSans-32"/>
      <use xlink:href="#DejaVuSans-2e" x="63.623047"/>
      <use xlink:href="#DejaVuSans-32" x="95.410156"/>
      <use xlink:href="#DejaVuSans-41" x="159.033203"/>
     </g>
    </g>
   </g>
   <g id="text_17">
    <g clip-path="url(#pa4224e84cf)">
     <!-- 9 -->
     <g transform="translate(310.14 73.379219)scale(0.125 -0.125)">
      <use xlink:href="#DejaVuSans-39"/>
      <use xlink:href="#DejaVuSans-3a9" x="63.623047"/>
     </g>
    </g>
   </g>
   <g id="text_18">
    <g clip-path="url(#pa4224e84cf)">
     <!-- 2.5A -->
     <g transform="translate(344.440313 73.379219)scale(0.125 -0.125)">
      <use xlink:href="#DejaVuSans-32"/>
      <use xlink:href="#DejaVuSans-2e" x="63.623047"/>
      <use xlink:href="#DejaVuSans-35" x="95.410156"/>
      <use xlink:href="#DejaVuSans-41" x="159.033203"/>
     </g>
    </g>
   </g>
   <g id="text_19">
    <g clip-path="url(#pa4224e84cf)">
     <!-- 32V -->
     <g transform="translate(149.501484 94.870391)scale(0.125 -0.125)">
      <use xlink:href="#DejaVuSans-33"/>
      <use xlink:href="#DejaVuSans-32" x="63.623047"/>
      <use xlink:href="#DejaVuSans-56" x="127.246094"/>
     </g>
    </g>
   </g>
   <g id="text_20">
    <g clip-path="url(#pa4224e84cf)">
     <!-- + -->
     <g transform="translate(232.11 50.429219)scale(0.125 -0.125)">
      <use xlink:href="#DejaVuSans-2b"/>
     </g>
    </g>
   </g>
   <g id="text_21">
    <g clip-path="url(#pa4224e84cf)">
     <!-- $V_{O}$ -->
     <g transform="translate(232.11 73.379219)scale(0.125 -0.125)">
      <use xlink:href="#STIXGeneral-Italic-56" transform="translate(0 0.703125)"/>
      <use xlink:href="#STIXGeneral-Italic-4f" transform="translate(61.099991 -12.525)scale(0.7)"/>
     </g>
    </g>
   </g>
   <g id="text_22">
    <g clip-path="url(#pa4224e84cf)">
     <!-- - -->
     <g transform="translate(232.11 96.329219)scale(0.125 -0.125)">
      <use xlink:href="#DejaVuSans-2d"/>
     </g>
    </g>
   </g>
   <g id="line2d_43">
    <path d="M 244.35 24.03 
L 244.35 24.03 
" clip-path="url(#pa4224e84cf)" style="fill: none; stroke: #000000; stroke-width: 2; stroke-linecap: round"/>
   </g>
   <g id="patch_18">
    <path d="M 244.35 19.44 
L 253.53 24.03 
L 244.35 28.62 
z
" clip-path="url(#pa4224e84cf)"/>
   </g>
   <g id="text_23">
    <g clip-path="url(#pa4224e84cf)">
     <!-- $I_{O}$ -->
     <g transform="translate(243.3775 42.708047)scale(0.125 -0.125)">
      <defs>
       <path id="STIXGeneral-Italic-49" d="M 2458 4179 
L 2458 4077 
Q 2189 4045 2102 3961 
Q 2016 3878 1933 3584 
L 1165 838 
Q 1069 499 1069 352 
Q 1069 224 1149 179 
Q 1229 134 1510 102 
L 1510 0 
L -51 0 
L -51 102 
Q 218 154 317 237 
Q 416 320 486 582 
L 1254 3405 
Q 1338 3699 1338 3802 
Q 1338 3930 1235 3997 
Q 1133 4064 877 4077 
L 877 4179 
L 2458 4179 
z
" transform="scale(0.015625)"/>
      </defs>
      <use xlink:href="#STIXGeneral-Italic-49" transform="translate(0 0.703125)"/>
      <use xlink:href="#STIXGeneral-Italic-4f" transform="translate(33.299988 -12.525)scale(0.7)"/>
     </g>
    </g>
   </g>
   <g id="line2d_44">
    <path d="M 244.35 24.03 
L 244.35 24.03 
" clip-path="url(#pa4224e84cf)" style="fill: none; stroke: #000000; stroke-width: 2; stroke-linecap: round"/>
   </g>
   <g id="patch_19">
    <path d="M 244.35 19.44 
L 253.53 24.03 
L 244.35 28.62 
z
" clip-path="url(#pa4224e84cf)"/>
   </g>
   <g id="text_24">
    <g clip-path="url(#pa4224e84cf)">
     <!-- $I_{O}$ -->
     <g transform="translate(243.3775 42.708047)scale(0.125 -0.125)">
      <use xlink:href="#STIXGeneral-Italic-49" transform="translate(0 0.703125)"/>
      <use xlink:href="#STIXGeneral-Italic-4f" transform="translate(33.299988 -12.525)scale(0.7)"/>
     </g>
    </g>
   </g>
  </g>
 </g>
 <defs>
  <clipPath id="pa4224e84cf">
   <rect x="7.2" y="7.2" width="500.31" height="133.11"/>
  </clipPath>
 </defs>
</svg>
