<?xml version="1.0" encoding="utf-8" standalone="no"?>
<!DOCTYPE svg PUBLIC "-//W3C//DTD SVG 1.1//EN"
  "http://www.w3.org/Graphics/SVG/1.1/DTD/svg11.dtd">
<svg xmlns:xlink="http://www.w3.org/1999/xlink" width="488.2818pt" height="180.49pt" viewBox="0 0 488.2818 180.49" xmlns="http://www.w3.org/2000/svg" version="1.1">
 <metadata>
  <rdf:RDF xmlns:dc="http://purl.org/dc/elements/1.1/" xmlns:cc="http://creativecommons.org/ns#" xmlns:rdf="http://www.w3.org/1999/02/22-rdf-syntax-ns#">
   <cc:Work>
    <dc:type rdf:resource="http://purl.org/dc/dcmitype/StillImage"/>
    <dc:date>2023-03-24T15:53:56.507812</dc:date>
    <dc:format>image/svg+xml</dc:format>
    <dc:creator>
     <cc:Agent>
      <dc:title>Matplotlib v3.5.2, https://matplotlib.org/</dc:title>
     </cc:Agent>
    </dc:creator>
   </cc:Work>
  </rdf:RDF>
 </metadata>
 <defs>
  <style type="text/css">*{stroke-linejoin: round; stroke-linecap: butt}</style>
 </defs>
 <g id="figure_1">
  <g id="patch_1">
   <path d="M 0 180.49 
L 488.2818 180.49 
L 488.2818 0 
L 0 0 
L 0 180.49 
z
" style="fill: none"/>
  </g>
  <g id="axes_1">
   <g id="patch_2">
    <path d="M 115.83 118.21 
C 119.887607 118.21 123.779572 116.597895 126.648734 113.728734 
C 129.517895 110.859572 131.13 106.967607 131.13 102.91 
C 131.13 98.852393 129.517895 94.960428 126.648734 92.091266 
C 123.779572 89.222105 119.887607 87.61 115.83 87.61 
C 111.772393 87.61 107.880428 89.222105 105.011266 92.091266 
C 102.142105 94.960428 100.53 98.852393 100.53 102.91 
C 100.53 106.967607 102.142105 110.859572 105.011266 113.728734 
C 107.880428 116.597895 111.772393 118.21 115.83 118.21 
L 115.83 118.21 
z
" clip-path="url(#p29571aa00e)" style="fill: none; stroke: #000000; stroke-width: 2; stroke-linejoin: miter"/>
   </g>
   <g id="patch_3">
    <path d="M 161.73 164.11 
C 165.787607 164.11 169.679572 162.497895 172.548734 159.628734 
C 175.417895 156.759572 177.03 152.867607 177.03 148.81 
C 177.03 144.752393 175.417895 140.860428 172.548734 137.991266 
C 169.679572 135.122105 165.787607 133.51 161.73 133.51 
C 157.672393 133.51 153.780428 135.122105 150.911266 137.991266 
C 148.042105 140.860428 146.43 144.752393 146.43 148.81 
C 146.43 152.867607 148.042105 156.759572 150.911266 159.628734 
C 153.780428 162.497895 157.672393 164.11 161.73 164.11 
L 161.73 164.11 
z
" clip-path="url(#p29571aa00e)" style="fill: none; stroke: #000000; stroke-width: 2; stroke-linejoin: miter"/>
   </g>
   <g id="patch_4">
    <path d="M 204.57 170.23 
L 204.71565 170.228844 
L 204.861262 170.225378 
L 205.006802 170.219602 
L 205.152232 170.211518 
L 205.297515 170.201127 
L 205.442614 170.188432 
L 205.587495 170.173437 
L 205.732119 170.156145 
L 205.87645 170.136561 
L 206.020453 170.114689 
L 206.16409 170.090535 
L 206.307326 170.064105 
L 206.450125 170.035406 
L 206.592451 170.004445 
L 206.734267 169.97123 
L 206.875539 169.935769 
L 207.01623 169.898071 
L 207.156305 169.858145 
L 207.295729 169.816003 
L 207.434467 169.771653 
L 207.572484 169.725108 
L 207.709745 169.676378 
L 207.846216 169.625477 
L 207.981861 169.572418 
L 208.116648 169.517212 
L 208.250542 169.459876 
L 208.38351 169.400422 
L 208.515517 169.338866 
L 208.646532 169.275223 
L 208.776519 169.209509 
L 208.905448 169.141742 
L 209.033286 169.071937 
L 209.16 169.000113 
L 209.285558 168.926288 
L 209.40993 168.850479 
L 209.533083 168.772707 
L 209.654986 168.692991 
L 209.77561 168.611351 
L 209.894922 168.527807 
L 210.012895 168.442381 
L 210.129497 168.355094 
L 210.244699 168.265967 
L 210.358473 168.175025 
L 210.47079 168.082288 
L 210.581622 167.987781 
L 210.690939 167.891528 
L 210.798716 167.793552 
L 210.904925 167.693878 
L 211.009539 167.592532 
L 211.112532 167.489539 
L 211.213878 167.384925 
L 211.313552 167.278716 
L 211.411528 167.170939 
L 211.507781 167.061622 
L 211.602288 166.95079 
L 211.695025 166.838473 
L 211.785967 166.724699 
L 211.875094 166.609497 
L 211.962381 166.492895 
L 212.047807 166.374922 
L 212.131351 166.25561 
L 212.212991 166.134986 
L 212.292707 166.013083 
L 212.370479 165.88993 
L 212.446288 165.765558 
L 212.520113 165.64 
L 212.591937 165.513286 
L 212.661742 165.385448 
L 212.729509 165.256519 
L 212.795223 165.126532 
L 212.858866 164.995517 
L 212.920422 164.86351 
L 212.979876 164.730542 
L 213.037212 164.596648 
L 213.092418 164.461861 
L 213.145477 164.326216 
L 213.196378 164.189745 
L 213.245108 164.052484 
L 213.291653 163.914467 
L 213.336003 163.775729 
L 213.378145 163.636305 
L 213.418071 163.49623 
L 213.455769 163.355539 
L 213.49123 163.214267 
L 213.524445 163.072451 
L 213.555406 162.930125 
L 213.584105 162.787326 
L 213.610535 162.64409 
L 213.634689 162.500453 
L 213.656561 162.35645 
L 213.676145 162.212119 
L 213.693437 162.067495 
L 213.708432 161.922614 
L 213.721127 161.777515 
L 213.731518 161.632232 
L 213.739602 161.486802 
L 213.745378 161.341262 
L 213.748844 161.19565 
L 213.75 161.05 
L 213.75 52.42 
L 213.748844 52.27435 
L 213.745378 52.128738 
L 213.739602 51.983198 
L 213.731518 51.837768 
L 213.721127 51.692485 
L 213.708432 51.547386 
L 213.693437 51.402505 
L 213.676145 51.257881 
L 213.656561 51.11355 
L 213.634689 50.969547 
L 213.610535 50.82591 
L 213.584105 50.682674 
L 213.555406 50.539875 
L 213.524445 50.397549 
L 213.49123 50.255733 
L 213.455769 50.114461 
L 213.418071 49.97377 
L 213.378145 49.833695 
L 213.336003 49.694271 
L 213.291653 49.555533 
L 213.245108 49.417516 
L 213.196378 49.280255 
L 213.145477 49.143784 
L 213.092418 49.008139 
L 213.037212 48.873352 
L 212.979876 48.739458 
L 212.920422 48.60649 
L 212.858866 48.474483 
L 212.795223 48.343468 
L 212.729509 48.213481 
L 212.661742 48.084552 
L 212.591937 47.956714 
L 212.520113 47.83 
L 212.446288 47.704442 
L 212.370479 47.58007 
L 212.292707 47.456917 
L 212.212991 47.335014 
L 212.131351 47.21439 
L 212.047807 47.095078 
L 211.962381 46.977105 
L 211.875094 46.860503 
L 211.785967 46.745301 
L 211.695025 46.631527 
L 211.602288 46.51921 
L 211.507781 46.408378 
L 211.411528 46.299061 
L 211.313552 46.191284 
L 211.213878 46.085075 
L 211.112532 45.980461 
L 211.009539 45.877468 
L 210.904925 45.776122 
L 210.798716 45.676448 
L 210.690939 45.578472 
L 210.581622 45.482219 
L 210.47079 45.387712 
L 210.358473 45.294975 
L 210.244699 45.204033 
L 210.129497 45.114906 
L 210.012895 45.027619 
L 209.894922 44.942193 
L 209.77561 44.858649 
L 209.654986 44.777009 
L 209.533083 44.697293 
L 209.40993 44.619521 
L 209.285558 44.543712 
L 209.16 44.469887 
L 209.033286 44.398063 
L 208.905448 44.328258 
L 208.776519 44.260491 
L 208.646532 44.194777 
L 208.515517 44.131134 
L 208.38351 44.069578 
L 208.250542 44.010124 
L 208.116648 43.952788 
L 207.981861 43.897582 
L 207.846216 43.844523 
L 207.709745 43.793622 
L 207.572484 43.744892 
L 207.434467 43.698347 
L 207.295729 43.653997 
L 207.156305 43.611855 
L 207.01623 43.571929 
L 206.875539 43.534231 
L 206.734267 43.49877 
L 206.592451 43.465555 
L 206.450125 43.434594 
L 206.307326 43.405895 
L 206.16409 43.379465 
L 206.020453 43.355311 
L 205.87645 43.333439 
L 205.732119 43.313855 
L 205.587495 43.296563 
L 205.442614 43.281568 
L 205.297515 43.268873 
L 205.152232 43.258482 
L 205.006802 43.250398 
L 204.861262 43.244622 
L 204.71565 43.241156 
L 204.57 43.24 
L 19.44 43.24 
L 19.29435 43.241156 
L 19.148738 43.244622 
L 19.003198 43.250398 
L 18.857768 43.258482 
L 18.712485 43.268873 
L 18.567386 43.281568 
L 18.422505 43.296563 
L 18.277881 43.313855 
L 18.13355 43.333439 
L 17.989547 43.355311 
L 17.84591 43.379465 
L 17.702674 43.405895 
L 17.559875 43.434594 
L 17.417549 43.465555 
L 17.275733 43.49877 
L 17.134461 43.534231 
L 16.99377 43.571929 
L 16.853695 43.611855 
L 16.714271 43.653997 
L 16.575533 43.698347 
L 16.437516 43.744892 
L 16.300255 43.793622 
L 16.163784 43.844523 
L 16.028139 43.897582 
L 15.893352 43.952788 
L 15.759458 44.010124 
L 15.62649 44.069578 
L 15.494483 44.131134 
L 15.363468 44.194777 
L 15.233481 44.260491 
L 15.104552 44.328258 
L 14.976714 44.398063 
L 14.85 44.469887 
L 14.724442 44.543712 
L 14.60007 44.619521 
L 14.476917 44.697293 
L 14.355014 44.777009 
L 14.23439 44.858649 
L 14.115078 44.942193 
L 13.997105 45.027619 
L 13.880503 45.114906 
L 13.765301 45.204033 
L 13.651527 45.294975 
L 13.53921 45.387712 
L 13.428378 45.482219 
L 13.319061 45.578472 
L 13.211284 45.676448 
L 13.105075 45.776122 
L 13.000461 45.877468 
L 12.897468 45.980461 
L 12.796122 46.085075 
L 12.696448 46.191284 
L 12.598472 46.299061 
L 12.502219 46.408378 
L 12.407712 46.51921 
L 12.314975 46.631527 
L 12.224033 46.745301 
L 12.134906 46.860503 
L 12.047619 46.977105 
L 11.962193 47.095078 
L 11.878649 47.21439 
L 11.797009 47.335014 
L 11.717293 47.456917 
L 11.639521 47.58007 
L 11.563712 47.704442 
L 11.489887 47.83 
L 11.418063 47.956714 
L 11.348258 48.084552 
L 11.280491 48.213481 
L 11.214777 48.343468 
L 11.151134 48.474483 
L 11.089578 48.60649 
L 11.030124 48.739458 
L 10.972788 48.873352 
L 10.917582 49.008139 
L 10.864523 49.143784 
L 10.813622 49.280255 
L 10.764892 49.417516 
L 10.718347 49.555533 
L 10.673997 49.694271 
L 10.631855 49.833695 
L 10.591929 49.97377 
L 10.554231 50.114461 
L 10.51877 50.255733 
L 10.485555 50.397549 
L 10.454594 50.539875 
L 10.425895 50.682674 
L 10.399465 50.82591 
L 10.375311 50.969547 
L 10.353439 51.11355 
L 10.333855 51.257881 
L 10.316563 51.402505 
L 10.301568 51.547386 
L 10.288873 51.692485 
L 10.278482 51.837768 
L 10.270398 51.983198 
L 10.264622 52.128738 
L 10.261156 52.27435 
L 10.26 52.42 
L 10.26 161.05 
L 10.261156 161.19565 
L 10.264622 161.341262 
L 10.270398 161.486802 
L 10.278482 161.632232 
L 10.288873 161.777515 
L 10.301568 161.922614 
L 10.316563 162.067495 
L 10.333855 162.212119 
L 10.353439 162.35645 
L 10.375311 162.500453 
L 10.399465 162.64409 
L 10.425895 162.787326 
L 10.454594 162.930125 
L 10.485555 163.072451 
L 10.51877 163.214267 
L 10.554231 163.355539 
L 10.591929 163.49623 
L 10.631855 163.636305 
L 10.673997 163.775729 
L 10.718347 163.914467 
L 10.764892 164.052484 
L 10.813622 164.189745 
L 10.864523 164.326216 
L 10.917582 164.461861 
L 10.972788 164.596648 
L 11.030124 164.730542 
L 11.089578 164.86351 
L 11.151134 164.995517 
L 11.214777 165.126532 
L 11.280491 165.256519 
L 11.348258 165.385448 
L 11.418063 165.513286 
L 11.489887 165.64 
L 11.563712 165.765558 
L 11.639521 165.88993 
L 11.717293 166.013083 
L 11.797009 166.134986 
L 11.878649 166.25561 
L 11.962193 166.374922 
L 12.047619 166.492895 
L 12.134906 166.609497 
L 12.224033 166.724699 
L 12.314975 166.838473 
L 12.407712 166.95079 
L 12.502219 167.061622 
L 12.598472 167.170939 
L 12.696448 167.278716 
L 12.796122 167.384925 
L 12.897468 167.489539 
L 13.000461 167.592532 
L 13.105075 167.693878 
L 13.211284 167.793552 
L 13.319061 167.891528 
L 13.428378 167.987781 
L 13.53921 168.082288 
L 13.651527 168.175025 
L 13.765301 168.265967 
L 13.880503 168.355094 
L 13.997105 168.442381 
L 14.115078 168.527807 
L 14.23439 168.611351 
L 14.355014 168.692991 
L 14.476917 168.772707 
L 14.60007 168.850479 
L 14.724442 168.926288 
L 14.85 169.000113 
L 14.976714 169.071937 
L 15.104552 169.141742 
L 15.233481 169.209509 
L 15.363468 169.275223 
L 15.494483 169.338866 
L 15.62649 169.400422 
L 15.759458 169.459876 
L 15.893352 169.517212 
L 16.028139 169.572418 
L 16.163784 169.625477 
L 16.300255 169.676378 
L 16.437516 169.725108 
L 16.575533 169.771653 
L 16.714271 169.816003 
L 16.853695 169.858145 
L 16.99377 169.898071 
L 17.134461 169.935769 
L 17.275733 169.97123 
L 17.417549 170.004445 
L 17.559875 170.035406 
L 17.702674 170.064105 
L 17.84591 170.090535 
L 17.989547 170.114689 
L 18.13355 170.136561 
L 18.277881 170.156145 
L 18.422505 170.173437 
L 18.567386 170.188432 
L 18.712485 170.201127 
L 18.857768 170.211518 
L 19.003198 170.219602 
L 19.148738 170.225378 
L 19.29435 170.228844 
L 19.44 170.23 
L 204.57 170.23 
z
" clip-path="url(#p29571aa00e)" style="fill: none; stroke-dasharray: 3.7,1.6; stroke-dashoffset: 0; stroke: #0000ff; stroke-linecap: round"/>
   </g>
   <g id="patch_5">
    <path d="M 115.83 118.21 
C 119.887607 118.21 123.779572 116.597895 126.648734 113.728734 
C 129.517895 110.859572 131.13 106.967607 131.13 102.91 
C 131.13 98.852393 129.517895 94.960428 126.648734 92.091266 
C 123.779572 89.222105 119.887607 87.61 115.83 87.61 
C 111.772393 87.61 107.880428 89.222105 105.011266 92.091266 
C 102.142105 94.960428 100.53 98.852393 100.53 102.91 
C 100.53 106.967607 102.142105 110.859572 105.011266 113.728734 
C 107.880428 116.597895 111.772393 118.21 115.83 118.21 
L 115.83 118.21 
z
" clip-path="url(#p29571aa00e)" style="fill: none; stroke: #000000; stroke-width: 2; stroke-linejoin: miter"/>
   </g>
   <g id="patch_6">
    <path d="M 161.73 164.11 
C 165.787607 164.11 169.679572 162.497895 172.548734 159.628734 
C 175.417895 156.759572 177.03 152.867607 177.03 148.81 
C 177.03 144.752393 175.417895 140.860428 172.548734 137.991266 
C 169.679572 135.122105 165.787607 133.51 161.73 133.51 
C 157.672393 133.51 153.780428 135.122105 150.911266 137.991266 
C 148.042105 140.860428 146.43 144.752393 146.43 148.81 
C 146.43 152.867607 148.042105 156.759572 150.911266 159.628734 
C 153.780428 162.497895 157.672393 164.11 161.73 164.11 
L 161.73 164.11 
z
" clip-path="url(#p29571aa00e)" style="fill: none; stroke: #000000; stroke-width: 2; stroke-linejoin: miter"/>
   </g>
   <g id="patch_7">
    <path d="M 204.57 170.23 
L 204.71565 170.228844 
L 204.861262 170.225378 
L 205.006802 170.219602 
L 205.152232 170.211518 
L 205.297515 170.201127 
L 205.442614 170.188432 
L 205.587495 170.173437 
L 205.732119 170.156145 
L 205.87645 170.136561 
L 206.020453 170.114689 
L 206.16409 170.090535 
L 206.307326 170.064105 
L 206.450125 170.035406 
L 206.592451 170.004445 
L 206.734267 169.97123 
L 206.875539 169.935769 
L 207.01623 169.898071 
L 207.156305 169.858145 
L 207.295729 169.816003 
L 207.434467 169.771653 
L 207.572484 169.725108 
L 207.709745 169.676378 
L 207.846216 169.625477 
L 207.981861 169.572418 
L 208.116648 169.517212 
L 208.250542 169.459876 
L 208.38351 169.400422 
L 208.515517 169.338866 
L 208.646532 169.275223 
L 208.776519 169.209509 
L 208.905448 169.141742 
L 209.033286 169.071937 
L 209.16 169.000113 
L 209.285558 168.926288 
L 209.40993 168.850479 
L 209.533083 168.772707 
L 209.654986 168.692991 
L 209.77561 168.611351 
L 209.894922 168.527807 
L 210.012895 168.442381 
L 210.129497 168.355094 
L 210.244699 168.265967 
L 210.358473 168.175025 
L 210.47079 168.082288 
L 210.581622 167.987781 
L 210.690939 167.891528 
L 210.798716 167.793552 
L 210.904925 167.693878 
L 211.009539 167.592532 
L 211.112532 167.489539 
L 211.213878 167.384925 
L 211.313552 167.278716 
L 211.411528 167.170939 
L 211.507781 167.061622 
L 211.602288 166.95079 
L 211.695025 166.838473 
L 211.785967 166.724699 
L 211.875094 166.609497 
L 211.962381 166.492895 
L 212.047807 166.374922 
L 212.131351 166.25561 
L 212.212991 166.134986 
L 212.292707 166.013083 
L 212.370479 165.88993 
L 212.446288 165.765558 
L 212.520113 165.64 
L 212.591937 165.513286 
L 212.661742 165.385448 
L 212.729509 165.256519 
L 212.795223 165.126532 
L 212.858866 164.995517 
L 212.920422 164.86351 
L 212.979876 164.730542 
L 213.037212 164.596648 
L 213.092418 164.461861 
L 213.145477 164.326216 
L 213.196378 164.189745 
L 213.245108 164.052484 
L 213.291653 163.914467 
L 213.336003 163.775729 
L 213.378145 163.636305 
L 213.418071 163.49623 
L 213.455769 163.355539 
L 213.49123 163.214267 
L 213.524445 163.072451 
L 213.555406 162.930125 
L 213.584105 162.787326 
L 213.610535 162.64409 
L 213.634689 162.500453 
L 213.656561 162.35645 
L 213.676145 162.212119 
L 213.693437 162.067495 
L 213.708432 161.922614 
L 213.721127 161.777515 
L 213.731518 161.632232 
L 213.739602 161.486802 
L 213.745378 161.341262 
L 213.748844 161.19565 
L 213.75 161.05 
L 213.75 52.42 
L 213.748844 52.27435 
L 213.745378 52.128738 
L 213.739602 51.983198 
L 213.731518 51.837768 
L 213.721127 51.692485 
L 213.708432 51.547386 
L 213.693437 51.402505 
L 213.676145 51.257881 
L 213.656561 51.11355 
L 213.634689 50.969547 
L 213.610535 50.82591 
L 213.584105 50.682674 
L 213.555406 50.539875 
L 213.524445 50.397549 
L 213.49123 50.255733 
L 213.455769 50.114461 
L 213.418071 49.97377 
L 213.378145 49.833695 
L 213.336003 49.694271 
L 213.291653 49.555533 
L 213.245108 49.417516 
L 213.196378 49.280255 
L 213.145477 49.143784 
L 213.092418 49.008139 
L 213.037212 48.873352 
L 212.979876 48.739458 
L 212.920422 48.60649 
L 212.858866 48.474483 
L 212.795223 48.343468 
L 212.729509 48.213481 
L 212.661742 48.084552 
L 212.591937 47.956714 
L 212.520113 47.83 
L 212.446288 47.704442 
L 212.370479 47.58007 
L 212.292707 47.456917 
L 212.212991 47.335014 
L 212.131351 47.21439 
L 212.047807 47.095078 
L 211.962381 46.977105 
L 211.875094 46.860503 
L 211.785967 46.745301 
L 211.695025 46.631527 
L 211.602288 46.51921 
L 211.507781 46.408378 
L 211.411528 46.299061 
L 211.313552 46.191284 
L 211.213878 46.085075 
L 211.112532 45.980461 
L 211.009539 45.877468 
L 210.904925 45.776122 
L 210.798716 45.676448 
L 210.690939 45.578472 
L 210.581622 45.482219 
L 210.47079 45.387712 
L 210.358473 45.294975 
L 210.244699 45.204033 
L 210.129497 45.114906 
L 210.012895 45.027619 
L 209.894922 44.942193 
L 209.77561 44.858649 
L 209.654986 44.777009 
L 209.533083 44.697293 
L 209.40993 44.619521 
L 209.285558 44.543712 
L 209.16 44.469887 
L 209.033286 44.398063 
L 208.905448 44.328258 
L 208.776519 44.260491 
L 208.646532 44.194777 
L 208.515517 44.131134 
L 208.38351 44.069578 
L 208.250542 44.010124 
L 208.116648 43.952788 
L 207.981861 43.897582 
L 207.846216 43.844523 
L 207.709745 43.793622 
L 207.572484 43.744892 
L 207.434467 43.698347 
L 207.295729 43.653997 
L 207.156305 43.611855 
L 207.01623 43.571929 
L 206.875539 43.534231 
L 206.734267 43.49877 
L 206.592451 43.465555 
L 206.450125 43.434594 
L 206.307326 43.405895 
L 206.16409 43.379465 
L 206.020453 43.355311 
L 205.87645 43.333439 
L 205.732119 43.313855 
L 205.587495 43.296563 
L 205.442614 43.281568 
L 205.297515 43.268873 
L 205.152232 43.258482 
L 205.006802 43.250398 
L 204.861262 43.244622 
L 204.71565 43.241156 
L 204.57 43.24 
L 19.44 43.24 
L 19.29435 43.241156 
L 19.148738 43.244622 
L 19.003198 43.250398 
L 18.857768 43.258482 
L 18.712485 43.268873 
L 18.567386 43.281568 
L 18.422505 43.296563 
L 18.277881 43.313855 
L 18.13355 43.333439 
L 17.989547 43.355311 
L 17.84591 43.379465 
L 17.702674 43.405895 
L 17.559875 43.434594 
L 17.417549 43.465555 
L 17.275733 43.49877 
L 17.134461 43.534231 
L 16.99377 43.571929 
L 16.853695 43.611855 
L 16.714271 43.653997 
L 16.575533 43.698347 
L 16.437516 43.744892 
L 16.300255 43.793622 
L 16.163784 43.844523 
L 16.028139 43.897582 
L 15.893352 43.952788 
L 15.759458 44.010124 
L 15.62649 44.069578 
L 15.494483 44.131134 
L 15.363468 44.194777 
L 15.233481 44.260491 
L 15.104552 44.328258 
L 14.976714 44.398063 
L 14.85 44.469887 
L 14.724442 44.543712 
L 14.60007 44.619521 
L 14.476917 44.697293 
L 14.355014 44.777009 
L 14.23439 44.858649 
L 14.115078 44.942193 
L 13.997105 45.027619 
L 13.880503 45.114906 
L 13.765301 45.204033 
L 13.651527 45.294975 
L 13.53921 45.387712 
L 13.428378 45.482219 
L 13.319061 45.578472 
L 13.211284 45.676448 
L 13.105075 45.776122 
L 13.000461 45.877468 
L 12.897468 45.980461 
L 12.796122 46.085075 
L 12.696448 46.191284 
L 12.598472 46.299061 
L 12.502219 46.408378 
L 12.407712 46.51921 
L 12.314975 46.631527 
L 12.224033 46.745301 
L 12.134906 46.860503 
L 12.047619 46.977105 
L 11.962193 47.095078 
L 11.878649 47.21439 
L 11.797009 47.335014 
L 11.717293 47.456917 
L 11.639521 47.58007 
L 11.563712 47.704442 
L 11.489887 47.83 
L 11.418063 47.956714 
L 11.348258 48.084552 
L 11.280491 48.213481 
L 11.214777 48.343468 
L 11.151134 48.474483 
L 11.089578 48.60649 
L 11.030124 48.739458 
L 10.972788 48.873352 
L 10.917582 49.008139 
L 10.864523 49.143784 
L 10.813622 49.280255 
L 10.764892 49.417516 
L 10.718347 49.555533 
L 10.673997 49.694271 
L 10.631855 49.833695 
L 10.591929 49.97377 
L 10.554231 50.114461 
L 10.51877 50.255733 
L 10.485555 50.397549 
L 10.454594 50.539875 
L 10.425895 50.682674 
L 10.399465 50.82591 
L 10.375311 50.969547 
L 10.353439 51.11355 
L 10.333855 51.257881 
L 10.316563 51.402505 
L 10.301568 51.547386 
L 10.288873 51.692485 
L 10.278482 51.837768 
L 10.270398 51.983198 
L 10.264622 52.128738 
L 10.261156 52.27435 
L 10.26 52.42 
L 10.26 161.05 
L 10.261156 161.19565 
L 10.264622 161.341262 
L 10.270398 161.486802 
L 10.278482 161.632232 
L 10.288873 161.777515 
L 10.301568 161.922614 
L 10.316563 162.067495 
L 10.333855 162.212119 
L 10.353439 162.35645 
L 10.375311 162.500453 
L 10.399465 162.64409 
L 10.425895 162.787326 
L 10.454594 162.930125 
L 10.485555 163.072451 
L 10.51877 163.214267 
L 10.554231 163.355539 
L 10.591929 163.49623 
L 10.631855 163.636305 
L 10.673997 163.775729 
L 10.718347 163.914467 
L 10.764892 164.052484 
L 10.813622 164.189745 
L 10.864523 164.326216 
L 10.917582 164.461861 
L 10.972788 164.596648 
L 11.030124 164.730542 
L 11.089578 164.86351 
L 11.151134 164.995517 
L 11.214777 165.126532 
L 11.280491 165.256519 
L 11.348258 165.385448 
L 11.418063 165.513286 
L 11.489887 165.64 
L 11.563712 165.765558 
L 11.639521 165.88993 
L 11.717293 166.013083 
L 11.797009 166.134986 
L 11.878649 166.25561 
L 11.962193 166.374922 
L 12.047619 166.492895 
L 12.134906 166.609497 
L 12.224033 166.724699 
L 12.314975 166.838473 
L 12.407712 166.95079 
L 12.502219 167.061622 
L 12.598472 167.170939 
L 12.696448 167.278716 
L 12.796122 167.384925 
L 12.897468 167.489539 
L 13.000461 167.592532 
L 13.105075 167.693878 
L 13.211284 167.793552 
L 13.319061 167.891528 
L 13.428378 167.987781 
L 13.53921 168.082288 
L 13.651527 168.175025 
L 13.765301 168.265967 
L 13.880503 168.355094 
L 13.997105 168.442381 
L 14.115078 168.527807 
L 14.23439 168.611351 
L 14.355014 168.692991 
L 14.476917 168.772707 
L 14.60007 168.850479 
L 14.724442 168.926288 
L 14.85 169.000113 
L 14.976714 169.071937 
L 15.104552 169.141742 
L 15.233481 169.209509 
L 15.363468 169.275223 
L 15.494483 169.338866 
L 15.62649 169.400422 
L 15.759458 169.459876 
L 15.893352 169.517212 
L 16.028139 169.572418 
L 16.163784 169.625477 
L 16.300255 169.676378 
L 16.437516 169.725108 
L 16.575533 169.771653 
L 16.714271 169.816003 
L 16.853695 169.858145 
L 16.99377 169.898071 
L 17.134461 169.935769 
L 17.275733 169.97123 
L 17.417549 170.004445 
L 17.559875 170.035406 
L 17.702674 170.064105 
L 17.84591 170.090535 
L 17.989547 170.114689 
L 18.13355 170.136561 
L 18.277881 170.156145 
L 18.422505 170.173437 
L 18.567386 170.188432 
L 18.712485 170.201127 
L 18.857768 170.211518 
L 19.003198 170.219602 
L 19.148738 170.225378 
L 19.29435 170.228844 
L 19.44 170.23 
L 204.57 170.23 
z
" clip-path="url(#p29571aa00e)" style="fill: none; stroke-dasharray: 3.7,1.6; stroke-dashoffset: 0; stroke: #0000ff; stroke-linecap: round"/>
   </g>
   <g id="line2d_1">
    <path d="M 24.03 148.81 
L 24.03 118.21 
L 16.38 115.66 
L 31.68 110.56 
L 16.38 105.46 
L 31.68 100.36 
L 16.38 95.26 
L 31.68 90.16 
L 24.03 87.61 
L 24.03 57.01 
" clip-path="url(#p29571aa00e)" style="fill: none; stroke: #000000; stroke-width: 2; stroke-linecap: round"/>
   </g>
   <g id="line2d_2">
    <path d="M 24.03 57.01 
L 69.93 57.01 
L 115.83 57.01 
" clip-path="url(#p29571aa00e)" style="fill: none; stroke: #000000; stroke-width: 2; stroke-linecap: round"/>
   </g>
   <g id="line2d_3">
    <path d="M 115.83 57.01 
L 146.43 57.01 
L 148.98 49.36 
L 154.08 64.66 
L 159.18 49.36 
L 164.28 64.66 
L 169.38 49.36 
L 174.48 64.66 
L 177.03 57.01 
L 207.63 57.01 
" clip-path="url(#p29571aa00e)" style="fill: none; stroke: #000000; stroke-width: 2; stroke-linecap: round"/>
   </g>
   <g id="line2d_4">
    <path d="M 207.63 57.01 
L 222.93 57.01 
L 238.23 57.01 
" clip-path="url(#p29571aa00e)" style="fill: none; stroke: #000000; stroke-width: 2; stroke-linecap: round"/>
   </g>
   <g id="line2d_5">
    <path d="M 115.83 57.01 
L 115.83 87.61 
L 115.83 87.61 
M 115.83 118.21 
L 115.83 118.21 
L 115.83 148.81 
" clip-path="url(#p29571aa00e)" style="fill: none; stroke: #000000; stroke-width: 2; stroke-linecap: round"/>
   </g>
   <g id="line2d_6">
    <path d="M 115.83 102.91 
L 115.83 110.56 
" clip-path="url(#p29571aa00e)" style="fill: none; stroke: #000000; stroke-width: 2; stroke-linecap: round"/>
   </g>
   <g id="patch_8">
    <path d="M 113.535 102.91 
L 115.83 95.26 
L 118.125 102.91 
z
" clip-path="url(#p29571aa00e)"/>
   </g>
   <g id="line2d_7">
    <path d="M 24.03 148.81 
L 69.93 148.81 
L 115.83 148.81 
" clip-path="url(#p29571aa00e)" style="fill: none; stroke: #000000; stroke-width: 2; stroke-linecap: round"/>
   </g>
   <g id="line2d_8">
    <path d="M 115.83 148.81 
L 146.43 148.81 
L 146.43 148.81 
M 177.03 148.81 
L 177.03 148.81 
L 207.63 148.81 
" clip-path="url(#p29571aa00e)" style="fill: none; stroke: #000000; stroke-width: 2; stroke-linecap: round"/>
   </g>
   <g id="line2d_9">
    <path d="M 154.08 151.87 
L 154.08 145.75 
" clip-path="url(#p29571aa00e)" style="fill: none; stroke: #000000; stroke-width: 2; stroke-linecap: round"/>
   </g>
   <g id="line2d_10">
    <path d="M 166.32 148.81 
L 172.44 148.81 
" clip-path="url(#p29571aa00e)" style="fill: none; stroke: #000000; stroke-width: 2; stroke-linecap: round"/>
   </g>
   <g id="line2d_11">
    <path d="M 169.38 151.87 
L 169.38 145.75 
" clip-path="url(#p29571aa00e)" style="fill: none; stroke: #000000; stroke-width: 2; stroke-linecap: round"/>
   </g>
   <g id="line2d_12">
    <path d="M 207.63 148.81 
L 222.93 148.81 
L 238.23 148.81 
" clip-path="url(#p29571aa00e)" style="fill: none; stroke: #000000; stroke-width: 2; stroke-linecap: round"/>
   </g>
   <g id="line2d_13">
    <path d="M 268.83 102.91 
L 284.13 102.91 
L 284.13 102.91 
" clip-path="url(#p29571aa00e)" style="fill: none; stroke: #ee82ee; stroke-width: 6; stroke-linecap: round"/>
   </g>
   <g id="patch_9">
    <path d="M 284.13 95.26 
L 299.43 102.91 
L 284.13 110.56 
z
" clip-path="url(#p29571aa00e)" style="fill: #ee82ee"/>
   </g>
   <g id="line2d_14">
    <path d="M 360.63 148.81 
L 360.63 111.51625 
M 360.63 94.30375 
L 360.63 57.01 
" clip-path="url(#p29571aa00e)" style="fill: none; stroke: #000000; stroke-width: 2; stroke-linecap: round"/>
   </g>
   <g id="line2d_15">
    <path d="M 372.105 94.30375 
L 349.155 94.30375 
" clip-path="url(#p29571aa00e)" style="fill: none; stroke: #000000; stroke-width: 2; stroke-linecap: round"/>
   </g>
   <g id="line2d_16">
    <path d="M 366.3675 100.04125 
L 354.8925 100.04125 
" clip-path="url(#p29571aa00e)" style="fill: none; stroke: #000000; stroke-width: 2; stroke-linecap: round"/>
   </g>
   <g id="line2d_17">
    <path d="M 372.105 105.77875 
L 349.155 105.77875 
" clip-path="url(#p29571aa00e)" style="fill: none; stroke: #000000; stroke-width: 2; stroke-linecap: round"/>
   </g>
   <g id="line2d_18">
    <path d="M 366.3675 111.51625 
L 354.8925 111.51625 
" clip-path="url(#p29571aa00e)" style="fill: none; stroke: #000000; stroke-width: 2; stroke-linecap: round"/>
   </g>
   <g id="line2d_19">
    <path d="M 360.63 57.01 
L 391.23 57.01 
L 393.78 49.36 
L 398.88 64.66 
L 403.98 49.36 
L 409.08 64.66 
L 414.18 49.36 
L 419.28 64.66 
L 421.83 57.01 
L 452.43 57.01 
" clip-path="url(#p29571aa00e)" style="fill: none; stroke: #000000; stroke-width: 2; stroke-linecap: round"/>
   </g>
   <g id="line2d_20">
    <path d="M 360.63 148.81 
L 406.53 148.81 
L 452.43 148.81 
" clip-path="url(#p29571aa00e)" style="fill: none; stroke: #000000; stroke-width: 2; stroke-linecap: round"/>
   </g>
   <g id="line2d_21">
    <path d="M 24.03 148.81 
L 24.03 118.21 
L 16.38 115.66 
L 31.68 110.56 
L 16.38 105.46 
L 31.68 100.36 
L 16.38 95.26 
L 31.68 90.16 
L 24.03 87.61 
L 24.03 57.01 
" clip-path="url(#p29571aa00e)" style="fill: none; stroke: #000000; stroke-width: 2; stroke-linecap: round"/>
   </g>
   <g id="line2d_22">
    <path d="M 24.03 57.01 
L 69.93 57.01 
L 115.83 57.01 
" clip-path="url(#p29571aa00e)" style="fill: none; stroke: #000000; stroke-width: 2; stroke-linecap: round"/>
   </g>
   <g id="line2d_23">
    <path d="M 115.83 57.01 
L 146.43 57.01 
L 148.98 49.36 
L 154.08 64.66 
L 159.18 49.36 
L 164.28 64.66 
L 169.38 49.36 
L 174.48 64.66 
L 177.03 57.01 
L 207.63 57.01 
" clip-path="url(#p29571aa00e)" style="fill: none; stroke: #000000; stroke-width: 2; stroke-linecap: round"/>
   </g>
   <g id="line2d_24">
    <path d="M 207.63 57.01 
L 222.93 57.01 
L 238.23 57.01 
" clip-path="url(#p29571aa00e)" style="fill: none; stroke: #000000; stroke-width: 2; stroke-linecap: round"/>
   </g>
   <g id="line2d_25">
    <path d="M 115.83 57.01 
L 115.83 87.61 
L 115.83 87.61 
M 115.83 118.21 
L 115.83 118.21 
L 115.83 148.81 
" clip-path="url(#p29571aa00e)" style="fill: none; stroke: #000000; stroke-width: 2; stroke-linecap: round"/>
   </g>
   <g id="line2d_26">
    <path d="M 115.83 102.91 
L 115.83 110.56 
" clip-path="url(#p29571aa00e)" style="fill: none; stroke: #000000; stroke-width: 2; stroke-linecap: round"/>
   </g>
   <g id="patch_10">
    <path d="M 113.535 102.91 
L 115.83 95.26 
L 118.125 102.91 
z
" clip-path="url(#p29571aa00e)"/>
   </g>
   <g id="line2d_27">
    <path d="M 24.03 148.81 
L 69.93 148.81 
L 115.83 148.81 
" clip-path="url(#p29571aa00e)" style="fill: none; stroke: #000000; stroke-width: 2; stroke-linecap: round"/>
   </g>
   <g id="line2d_28">
    <path d="M 115.83 148.81 
L 146.43 148.81 
L 146.43 148.81 
M 177.03 148.81 
L 177.03 148.81 
L 207.63 148.81 
" clip-path="url(#p29571aa00e)" style="fill: none; stroke: #000000; stroke-width: 2; stroke-linecap: round"/>
   </g>
   <g id="line2d_29">
    <path d="M 154.08 151.87 
L 154.08 145.75 
" clip-path="url(#p29571aa00e)" style="fill: none; stroke: #000000; stroke-width: 2; stroke-linecap: round"/>
   </g>
   <g id="line2d_30">
    <path d="M 166.32 148.81 
L 172.44 148.81 
" clip-path="url(#p29571aa00e)" style="fill: none; stroke: #000000; stroke-width: 2; stroke-linecap: round"/>
   </g>
   <g id="line2d_31">
    <path d="M 169.38 151.87 
L 169.38 145.75 
" clip-path="url(#p29571aa00e)" style="fill: none; stroke: #000000; stroke-width: 2; stroke-linecap: round"/>
   </g>
   <g id="line2d_32">
    <path d="M 207.63 148.81 
L 222.93 148.81 
L 238.23 148.81 
" clip-path="url(#p29571aa00e)" style="fill: none; stroke: #000000; stroke-width: 2; stroke-linecap: round"/>
   </g>
   <g id="line2d_33">
    <path d="M 268.83 102.91 
L 284.13 102.91 
L 284.13 102.91 
" clip-path="url(#p29571aa00e)" style="fill: none; stroke: #ee82ee; stroke-width: 6; stroke-linecap: round"/>
   </g>
   <g id="patch_11">
    <path d="M 284.13 95.26 
L 299.43 102.91 
L 284.13 110.56 
z
" clip-path="url(#p29571aa00e)" style="fill: #ee82ee"/>
   </g>
   <g id="line2d_34">
    <path d="M 360.63 148.81 
L 360.63 111.51625 
M 360.63 94.30375 
L 360.63 57.01 
" clip-path="url(#p29571aa00e)" style="fill: none; stroke: #000000; stroke-width: 2; stroke-linecap: round"/>
   </g>
   <g id="line2d_35">
    <path d="M 372.105 94.30375 
L 349.155 94.30375 
" clip-path="url(#p29571aa00e)" style="fill: none; stroke: #000000; stroke-width: 2; stroke-linecap: round"/>
   </g>
   <g id="line2d_36">
    <path d="M 366.3675 100.04125 
L 354.8925 100.04125 
" clip-path="url(#p29571aa00e)" style="fill: none; stroke: #000000; stroke-width: 2; stroke-linecap: round"/>
   </g>
   <g id="line2d_37">
    <path d="M 372.105 105.77875 
L 349.155 105.77875 
" clip-path="url(#p29571aa00e)" style="fill: none; stroke: #000000; stroke-width: 2; stroke-linecap: round"/>
   </g>
   <g id="line2d_38">
    <path d="M 366.3675 111.51625 
L 354.8925 111.51625 
" clip-path="url(#p29571aa00e)" style="fill: none; stroke: #000000; stroke-width: 2; stroke-linecap: round"/>
   </g>
   <g id="line2d_39">
    <path d="M 360.63 57.01 
L 391.23 57.01 
L 393.78 49.36 
L 398.88 64.66 
L 403.98 49.36 
L 409.08 64.66 
L 414.18 49.36 
L 419.28 64.66 
L 421.83 57.01 
L 452.43 57.01 
" clip-path="url(#p29571aa00e)" style="fill: none; stroke: #000000; stroke-width: 2; stroke-linecap: round"/>
   </g>
   <g id="line2d_40">
    <path d="M 360.63 148.81 
L 406.53 148.81 
L 452.43 148.81 
" clip-path="url(#p29571aa00e)" style="fill: none; stroke: #000000; stroke-width: 2; stroke-linecap: round"/>
   </g>
   <g id="text_1">
    <g clip-path="url(#p29571aa00e)">
     <!-- 10Ω -->
     <g transform="translate(34.74 106.359219)scale(0.125 -0.125)">
      <defs>
       <path id="DejaVuSans-31" d="M 794 531 
L 1825 531 
L 1825 4091 
L 703 3866 
L 703 4441 
L 1819 4666 
L 2450 4666 
L 2450 531 
L 3481 531 
L 3481 0 
L 794 0 
L 794 531 
z
" transform="scale(0.015625)"/>
       <path id="DejaVuSans-30" d="M 2034 4250 
Q 1547 4250 1301 3770 
Q 1056 3291 1056 2328 
Q 1056 1369 1301 889 
Q 1547 409 2034 409 
Q 2525 409 2770 889 
Q 3016 1369 3016 2328 
Q 3016 3291 2770 3770 
Q 2525 4250 2034 4250 
z
M 2034 4750 
Q 2819 4750 3233 4129 
Q 3647 3509 3647 2328 
Q 3647 1150 3233 529 
Q 2819 -91 2034 -91 
Q 1250 -91 836 529 
Q 422 1150 422 2328 
Q 422 3509 836 4129 
Q 1250 4750 2034 4750 
z
" transform="scale(0.015625)"/>
       <path id="DejaVuSans-3a9" d="M 4647 556 
L 4647 0 
L 2772 0 
L 2772 556 
Q 3325 859 3634 1378 
Q 3944 1897 3944 2528 
Q 3944 3278 3531 3731 
Q 3119 4184 2444 4184 
Q 1769 4184 1355 3729 
Q 941 3275 941 2528 
Q 941 1897 1250 1378 
Q 1563 859 2119 556 
L 2119 0 
L 244 0 
L 244 556 
L 1241 556 
Q 747 991 519 1456 
Q 294 1922 294 2497 
Q 294 3491 894 4106 
Q 1491 4722 2444 4722 
Q 3391 4722 3994 4106 
Q 4594 3494 4594 2528 
Q 4594 1922 4372 1459 
Q 4150 997 3647 556 
L 4647 556 
z
" transform="scale(0.015625)"/>
      </defs>
      <use xlink:href="#DejaVuSans-31"/>
      <use xlink:href="#DejaVuSans-30" x="63.623047"/>
      <use xlink:href="#DejaVuSans-3a9" x="127.246094"/>
     </g>
    </g>
   </g>
   <g id="text_2">
    <g clip-path="url(#p29571aa00e)">
     <!-- 18Ω -->
     <g transform="translate(149.000508 77.218047)scale(0.125 -0.125)">
      <defs>
       <path id="DejaVuSans-38" d="M 2034 2216 
Q 1584 2216 1326 1975 
Q 1069 1734 1069 1313 
Q 1069 891 1326 650 
Q 1584 409 2034 409 
Q 2484 409 2743 651 
Q 3003 894 3003 1313 
Q 3003 1734 2745 1975 
Q 2488 2216 2034 2216 
z
M 1403 2484 
Q 997 2584 770 2862 
Q 544 3141 544 3541 
Q 544 4100 942 4425 
Q 1341 4750 2034 4750 
Q 2731 4750 3128 4425 
Q 3525 4100 3525 3541 
Q 3525 3141 3298 2862 
Q 3072 2584 2669 2484 
Q 3125 2378 3379 2068 
Q 3634 1759 3634 1313 
Q 3634 634 3220 271 
Q 2806 -91 2034 -91 
Q 1263 -91 848 271 
Q 434 634 434 1313 
Q 434 1759 690 2068 
Q 947 2378 1403 2484 
z
M 1172 3481 
Q 1172 3119 1398 2916 
Q 1625 2713 2034 2713 
Q 2441 2713 2670 2916 
Q 2900 3119 2900 3481 
Q 2900 3844 2670 4047 
Q 2441 4250 2034 4250 
Q 1625 4250 1398 4047 
Q 1172 3844 1172 3481 
z
" transform="scale(0.015625)"/>
      </defs>
      <use xlink:href="#DejaVuSans-31"/>
      <use xlink:href="#DejaVuSans-38" x="63.623047"/>
      <use xlink:href="#DejaVuSans-3a9" x="127.246094"/>
     </g>
    </g>
   </g>
   <g id="text_3">
    <g clip-path="url(#p29571aa00e)">
     <!-- 2.2A -->
     <g transform="translate(69.040313 106.359219)scale(0.125 -0.125)">
      <defs>
       <path id="DejaVuSans-32" d="M 1228 531 
L 3431 531 
L 3431 0 
L 469 0 
L 469 531 
Q 828 903 1448 1529 
Q 2069 2156 2228 2338 
Q 2531 2678 2651 2914 
Q 2772 3150 2772 3378 
Q 2772 3750 2511 3984 
Q 2250 4219 1831 4219 
Q 1534 4219 1204 4116 
Q 875 4013 500 3803 
L 500 4441 
Q 881 4594 1212 4672 
Q 1544 4750 1819 4750 
Q 2544 4750 2975 4387 
Q 3406 4025 3406 3419 
Q 3406 3131 3298 2873 
Q 3191 2616 2906 2266 
Q 2828 2175 2409 1742 
Q 1991 1309 1228 531 
z
" transform="scale(0.015625)"/>
       <path id="DejaVuSans-2e" d="M 684 794 
L 1344 794 
L 1344 0 
L 684 0 
L 684 794 
z
" transform="scale(0.015625)"/>
       <path id="DejaVuSans-41" d="M 2188 4044 
L 1331 1722 
L 3047 1722 
L 2188 4044 
z
M 1831 4666 
L 2547 4666 
L 4325 0 
L 3669 0 
L 3244 1197 
L 1141 1197 
L 716 0 
L 50 0 
L 1831 4666 
z
" transform="scale(0.015625)"/>
      </defs>
      <use xlink:href="#DejaVuSans-32"/>
      <use xlink:href="#DejaVuSans-2e" x="63.623047"/>
      <use xlink:href="#DejaVuSans-32" x="95.410156"/>
      <use xlink:href="#DejaVuSans-41" x="159.033203"/>
     </g>
    </g>
   </g>
   <g id="text_4">
    <g clip-path="url(#p29571aa00e)">
     <!-- 32V -->
     <g transform="translate(149.501484 127.850391)scale(0.125 -0.125)">
      <defs>
       <path id="DejaVuSans-33" d="M 2597 2516 
Q 3050 2419 3304 2112 
Q 3559 1806 3559 1356 
Q 3559 666 3084 287 
Q 2609 -91 1734 -91 
Q 1441 -91 1130 -33 
Q 819 25 488 141 
L 488 750 
Q 750 597 1062 519 
Q 1375 441 1716 441 
Q 2309 441 2620 675 
Q 2931 909 2931 1356 
Q 2931 1769 2642 2001 
Q 2353 2234 1838 2234 
L 1294 2234 
L 1294 2753 
L 1863 2753 
Q 2328 2753 2575 2939 
Q 2822 3125 2822 3475 
Q 2822 3834 2567 4026 
Q 2313 4219 1838 4219 
Q 1578 4219 1281 4162 
Q 984 4106 628 3988 
L 628 4550 
Q 988 4650 1302 4700 
Q 1616 4750 1894 4750 
Q 2613 4750 3031 4423 
Q 3450 4097 3450 3541 
Q 3450 3153 3228 2886 
Q 3006 2619 2597 2516 
z
" transform="scale(0.015625)"/>
       <path id="DejaVuSans-56" d="M 1831 0 
L 50 4666 
L 709 4666 
L 2188 738 
L 3669 4666 
L 4325 4666 
L 2547 0 
L 1831 0 
z
" transform="scale(0.015625)"/>
      </defs>
      <use xlink:href="#DejaVuSans-33"/>
      <use xlink:href="#DejaVuSans-32" x="63.623047"/>
      <use xlink:href="#DejaVuSans-56" x="127.246094"/>
     </g>
    </g>
   </g>
   <g id="text_5">
    <g clip-path="url(#p29571aa00e)">
     <!-- + -->
     <g transform="translate(232.11 83.409219)scale(0.125 -0.125)">
      <defs>
       <path id="DejaVuSans-2b" d="M 2944 4013 
L 2944 2272 
L 4684 2272 
L 4684 1741 
L 2944 1741 
L 2944 0 
L 2419 0 
L 2419 1741 
L 678 1741 
L 678 2272 
L 2419 2272 
L 2419 4013 
L 2944 4013 
z
" transform="scale(0.015625)"/>
      </defs>
      <use xlink:href="#DejaVuSans-2b"/>
     </g>
    </g>
   </g>
   <g id="text_6">
    <g clip-path="url(#p29571aa00e)">
     <!-- $V_{O}$ -->
     <g transform="translate(232.11 106.359219)scale(0.125 -0.125)">
      <defs>
       <path id="STIXGeneral-Italic-56" d="M 4403 4179 
L 4403 4077 
Q 4198 4070 4045 3821 
L 1658 -115 
L 1536 -115 
L 1011 3104 
Q 902 3776 828 3910 
Q 755 4045 486 4077 
L 486 4179 
L 2022 4179 
L 2022 4077 
Q 1722 4045 1629 3981 
Q 1536 3917 1536 3750 
Q 1536 3686 1542 3654 
L 1958 819 
L 3302 3123 
Q 3616 3661 3616 3859 
Q 3616 4032 3219 4077 
L 3219 4179 
L 4403 4179 
z
" transform="scale(0.015625)"/>
       <path id="STIXGeneral-Italic-4f" d="M 4474 2675 
Q 4474 1990 4106 1363 
Q 3738 736 3149 339 
Q 2477 -115 1779 -115 
Q 1146 -115 765 281 
Q 384 678 384 1382 
Q 384 1965 697 2582 
Q 1011 3200 1517 3642 
Q 2234 4262 3034 4262 
Q 3718 4269 4096 3840 
Q 4474 3411 4474 2675 
z
M 3802 3078 
Q 3802 3533 3581 3792 
Q 3360 4051 2976 4051 
Q 2342 4051 1786 3302 
Q 1446 2842 1251 2259 
Q 1056 1677 1056 1178 
Q 1056 653 1270 374 
Q 1485 96 1888 96 
Q 2477 96 2976 704 
Q 3354 1178 3578 1862 
Q 3802 2547 3802 3078 
z
" transform="scale(0.015625)"/>
      </defs>
      <use xlink:href="#STIXGeneral-Italic-56" transform="translate(0 0.703125)"/>
      <use xlink:href="#STIXGeneral-Italic-4f" transform="translate(61.099991 -12.525)scale(0.7)"/>
     </g>
    </g>
   </g>
   <g id="text_7">
    <g clip-path="url(#p29571aa00e)">
     <!-- - -->
     <g transform="translate(232.11 129.309219)scale(0.125 -0.125)">
      <defs>
       <path id="DejaVuSans-2d" d="M 313 2009 
L 1997 2009 
L 1997 1497 
L 313 1497 
L 313 2009 
z
" transform="scale(0.015625)"/>
      </defs>
      <use xlink:href="#DejaVuSans-2d"/>
     </g>
    </g>
   </g>
   <g id="text_8">
    <g clip-path="url(#p29571aa00e)">
     <!-- $V_{TH}$ -->
     <g transform="translate(326.72 99.360586)scale(0.125 -0.125)">
      <defs>
       <path id="STIXGeneral-Italic-54" d="M 4051 4179 
L 3770 3130 
L 3661 3142 
Q 3680 3302 3680 3437 
Q 3680 3955 3034 3955 
L 2662 3955 
L 1786 819 
Q 1696 506 1696 397 
Q 1696 250 1766 195 
Q 1837 141 2035 122 
L 2259 102 
L 2259 0 
L 416 0 
L 416 102 
Q 749 134 889 230 
Q 1030 326 1101 582 
L 2016 3955 
Q 1254 3955 988 3817 
Q 723 3680 493 3162 
L 378 3187 
L 646 4179 
L 4051 4179 
z
" transform="scale(0.015625)"/>
       <path id="STIXGeneral-Italic-48" d="M 4922 4179 
L 4922 4077 
Q 4640 4026 4550 3949 
Q 4461 3872 4384 3603 
L 3539 525 
Q 3520 448 3520 371 
Q 3520 237 3616 185 
Q 3712 134 4026 102 
L 4026 0 
L 2272 0 
L 2272 102 
Q 2598 128 2729 237 
Q 2861 346 2925 595 
L 3334 2086 
L 1510 2086 
L 1088 525 
Q 1069 461 1069 384 
Q 1069 243 1149 192 
Q 1229 141 1517 102 
L 1517 0 
L -51 0 
L -51 102 
Q 211 128 310 230 
Q 410 333 499 653 
L 1254 3405 
Q 1331 3699 1331 3814 
Q 1331 3949 1238 3997 
Q 1146 4045 838 4077 
L 838 4179 
L 2573 4179 
L 2573 4077 
Q 2285 4058 2141 3955 
Q 1997 3853 1933 3622 
L 1587 2355 
L 3411 2355 
L 3706 3405 
Q 3795 3738 3795 3808 
Q 3795 3930 3692 3994 
Q 3590 4058 3334 4077 
L 3334 4179 
L 4922 4179 
z
" transform="scale(0.015625)"/>
      </defs>
      <use xlink:href="#STIXGeneral-Italic-56" transform="translate(0 0.703125)"/>
      <use xlink:href="#STIXGeneral-Italic-54" transform="translate(61.099991 -12.525)scale(0.7)"/>
      <use xlink:href="#STIXGeneral-Italic-48" transform="translate(100.019984 -12.525)scale(0.7)"/>
     </g>
    </g>
    <g clip-path="url(#p29571aa00e)">
     <!-- -10V -->
     <g transform="translate(317.128203 113.357852)scale(0.125 -0.125)">
      <use xlink:href="#DejaVuSans-2d"/>
      <use xlink:href="#DejaVuSans-31" x="36.083984"/>
      <use xlink:href="#DejaVuSans-30" x="99.707031"/>
      <use xlink:href="#DejaVuSans-56" x="163.330078"/>
     </g>
    </g>
   </g>
   <g id="text_9">
    <g clip-path="url(#p29571aa00e)">
     <!-- $R_{TH}$ -->
     <g transform="translate(396.8425 29.703125)scale(0.125 -0.125)">
      <defs>
       <path id="STIXGeneral-Italic-52" d="M 845 4179 
L 2458 4179 
Q 3078 4179 3420 3936 
Q 3763 3693 3763 3277 
Q 3763 2778 3341 2458 
Q 3091 2266 2502 2131 
L 3072 627 
Q 3181 333 3299 217 
Q 3418 102 3629 102 
L 3629 0 
L 2688 0 
L 1901 2074 
L 1478 2106 
L 1126 806 
Q 1043 512 1043 403 
Q 1043 256 1126 192 
Q 1210 128 1472 102 
L 1472 0 
L -83 0 
L -83 102 
Q 173 134 278 243 
Q 384 352 461 646 
L 1222 3405 
Q 1299 3699 1299 3808 
Q 1299 3923 1210 3987 
Q 1133 4038 845 4077 
L 845 4179 
z
M 1958 3795 
L 1555 2342 
Q 1754 2310 1882 2310 
Q 2451 2310 2771 2566 
Q 3091 2822 3091 3270 
Q 3091 3603 2892 3795 
Q 2694 3987 2323 3987 
Q 2010 3987 1958 3795 
z
" transform="scale(0.015625)"/>
      </defs>
      <use xlink:href="#STIXGeneral-Italic-52" transform="translate(0 0.703125)"/>
      <use xlink:href="#STIXGeneral-Italic-54" transform="translate(61.099991 -12.525)scale(0.7)"/>
      <use xlink:href="#STIXGeneral-Italic-48" transform="translate(100.019984 -12.525)scale(0.7)"/>
     </g>
    </g>
    <g clip-path="url(#p29571aa00e)">
     <!-- 28Ω -->
     <g transform="translate(393.800508 43.700391)scale(0.125 -0.125)">
      <use xlink:href="#DejaVuSans-32"/>
      <use xlink:href="#DejaVuSans-38" x="63.623047"/>
      <use xlink:href="#DejaVuSans-3a9" x="127.246094"/>
     </g>
    </g>
   </g>
   <g id="text_10">
    <g clip-path="url(#p29571aa00e)">
     <!-- 10Ω -->
     <g transform="translate(34.74 106.359219)scale(0.125 -0.125)">
      <use xlink:href="#DejaVuSans-31"/>
      <use xlink:href="#DejaVuSans-30" x="63.623047"/>
      <use xlink:href="#DejaVuSans-3a9" x="127.246094"/>
     </g>
    </g>
   </g>
   <g id="text_11">
    <g clip-path="url(#p29571aa00e)">
     <!-- 18Ω -->
     <g transform="translate(149.000508 77.218047)scale(0.125 -0.125)">
      <use xlink:href="#DejaVuSans-31"/>
      <use xlink:href="#DejaVuSans-38" x="63.623047"/>
      <use xlink:href="#DejaVuSans-3a9" x="127.246094"/>
     </g>
    </g>
   </g>
   <g id="text_12">
    <g clip-path="url(#p29571aa00e)">
     <!-- 2.2A -->
     <g transform="translate(69.040313 106.359219)scale(0.125 -0.125)">
      <use xlink:href="#DejaVuSans-32"/>
      <use xlink:href="#DejaVuSans-2e" x="63.623047"/>
      <use xlink:href="#DejaVuSans-32" x="95.410156"/>
      <use xlink:href="#DejaVuSans-41" x="159.033203"/>
     </g>
    </g>
   </g>
   <g id="text_13">
    <g clip-path="url(#p29571aa00e)">
     <!-- 32V -->
     <g transform="translate(149.501484 127.850391)scale(0.125 -0.125)">
      <use xlink:href="#DejaVuSans-33"/>
      <use xlink:href="#DejaVuSans-32" x="63.623047"/>
      <use xlink:href="#DejaVuSans-56" x="127.246094"/>
     </g>
    </g>
   </g>
   <g id="text_14">
    <g clip-path="url(#p29571aa00e)">
     <!-- + -->
     <g transform="translate(232.11 83.409219)scale(0.125 -0.125)">
      <use xlink:href="#DejaVuSans-2b"/>
     </g>
    </g>
   </g>
   <g id="text_15">
    <g clip-path="url(#p29571aa00e)">
     <!-- $V_{O}$ -->
     <g transform="translate(232.11 106.359219)scale(0.125 -0.125)">
      <use xlink:href="#STIXGeneral-Italic-56" transform="translate(0 0.703125)"/>
      <use xlink:href="#STIXGeneral-Italic-4f" transform="translate(61.099991 -12.525)scale(0.7)"/>
     </g>
    </g>
   </g>
   <g id="text_16">
    <g clip-path="url(#p29571aa00e)">
     <!-- - -->
     <g transform="translate(232.11 129.309219)scale(0.125 -0.125)">
      <use xlink:href="#DejaVuSans-2d"/>
     </g>
    </g>
   </g>
   <g id="text_17">
    <g clip-path="url(#p29571aa00e)">
     <!-- $V_{TH}$ -->
     <g transform="translate(326.72 99.360586)scale(0.125 -0.125)">
      <use xlink:href="#STIXGeneral-Italic-56" transform="translate(0 0.703125)"/>
      <use xlink:href="#STIXGeneral-Italic-54" transform="translate(61.099991 -12.525)scale(0.7)"/>
      <use xlink:href="#STIXGeneral-Italic-48" transform="translate(100.019984 -12.525)scale(0.7)"/>
     </g>
    </g>
    <g clip-path="url(#p29571aa00e)">
     <!-- -10V -->
     <g transform="translate(317.128203 113.357852)scale(0.125 -0.125)">
      <use xlink:href="#DejaVuSans-2d"/>
      <use xlink:href="#DejaVuSans-31" x="36.083984"/>
      <use xlink:href="#DejaVuSans-30" x="99.707031"/>
      <use xlink:href="#DejaVuSans-56" x="163.330078"/>
     </g>
    </g>
   </g>
   <g id="text_18">
    <g clip-path="url(#p29571aa00e)">
     <!-- $R_{TH}$ -->
     <g transform="translate(396.8425 29.703125)scale(0.125 -0.125)">
      <use xlink:href="#STIXGeneral-Italic-52" transform="translate(0 0.703125)"/>
      <use xlink:href="#STIXGeneral-Italic-54" transform="translate(61.099991 -12.525)scale(0.7)"/>
      <use xlink:href="#STIXGeneral-Italic-48" transform="translate(100.019984 -12.525)scale(0.7)"/>
     </g>
    </g>
    <g clip-path="url(#p29571aa00e)">
     <!-- 28Ω -->
     <g transform="translate(393.800508 43.700391)scale(0.125 -0.125)">
      <use xlink:href="#DejaVuSans-32"/>
      <use xlink:href="#DejaVuSans-38" x="63.623047"/>
      <use xlink:href="#DejaVuSans-3a9" x="127.246094"/>
     </g>
    </g>
   </g>
   <g id="patch_12">
    <path d="M 238.23 59.305 
C 238.838641 59.305 239.422436 59.063184 239.85281 58.63281 
C 240.283184 58.202436 240.525 57.618641 240.525 57.01 
C 240.525 56.401359 240.283184 55.817564 239.85281 55.38719 
C 239.422436 54.956816 238.838641 54.715 238.23 54.715 
C 237.621359 54.715 237.037564 54.956816 236.60719 55.38719 
C 236.176816 55.817564 235.935 56.401359 235.935 57.01 
C 235.935 57.618641 236.176816 58.202436 236.60719 58.63281 
C 237.037564 59.063184 237.621359 59.305 238.23 59.305 
z
" clip-path="url(#p29571aa00e)" style="fill: #ffffff; stroke: #000000; stroke-width: 2; stroke-linejoin: miter"/>
   </g>
   <g id="text_19">
    <g clip-path="url(#p29571aa00e)">
     <!-- A -->
     <g transform="translate(243.585 60.459219)scale(0.125 -0.125)">
      <use xlink:href="#DejaVuSans-41"/>
     </g>
    </g>
   </g>
   <g id="patch_13">
    <path d="M 238.23 151.105 
C 238.838641 151.105 239.422436 150.863184 239.85281 150.43281 
C 240.283184 150.002436 240.525 149.418641 240.525 148.81 
C 240.525 148.201359 240.283184 147.617564 239.85281 147.18719 
C 239.422436 146.756816 238.838641 146.515 238.23 146.515 
C 237.621359 146.515 237.037564 146.756816 236.60719 147.18719 
C 236.176816 147.617564 235.935 148.201359 235.935 148.81 
C 235.935 149.418641 236.176816 150.002436 236.60719 150.43281 
C 237.037564 150.863184 237.621359 151.105 238.23 151.105 
z
" clip-path="url(#p29571aa00e)" style="fill: #ffffff; stroke: #000000; stroke-width: 2; stroke-linejoin: miter"/>
   </g>
   <g id="text_20">
    <g clip-path="url(#p29571aa00e)">
     <!-- B -->
     <g transform="translate(243.585 152.259219)scale(0.125 -0.125)">
      <defs>
       <path id="DejaVuSans-42" d="M 1259 2228 
L 1259 519 
L 2272 519 
Q 2781 519 3026 730 
Q 3272 941 3272 1375 
Q 3272 1813 3026 2020 
Q 2781 2228 2272 2228 
L 1259 2228 
z
M 1259 4147 
L 1259 2741 
L 2194 2741 
Q 2656 2741 2882 2914 
Q 3109 3088 3109 3444 
Q 3109 3797 2882 3972 
Q 2656 4147 2194 4147 
L 1259 4147 
z
M 628 4666 
L 2241 4666 
Q 2963 4666 3353 4366 
Q 3744 4066 3744 3513 
Q 3744 3084 3544 2831 
Q 3344 2578 2956 2516 
Q 3422 2416 3680 2098 
Q 3938 1781 3938 1306 
Q 3938 681 3513 340 
Q 3088 0 2303 0 
L 628 0 
L 628 4666 
z
" transform="scale(0.015625)"/>
      </defs>
      <use xlink:href="#DejaVuSans-42"/>
     </g>
    </g>
   </g>
   <g id="patch_14">
    <path d="M 452.43 59.305 
C 453.038641 59.305 453.622436 59.063184 454.05281 58.63281 
C 454.483184 58.202436 454.725 57.618641 454.725 57.01 
C 454.725 56.401359 454.483184 55.817564 454.05281 55.38719 
C 453.622436 54.956816 453.038641 54.715 452.43 54.715 
C 451.821359 54.715 451.237564 54.956816 450.80719 55.38719 
C 450.376816 55.817564 450.135 56.401359 450.135 57.01 
C 450.135 57.618641 450.376816 58.202436 450.80719 58.63281 
C 451.237564 59.063184 451.821359 59.305 452.43 59.305 
z
" clip-path="url(#p29571aa00e)" style="fill: #ffffff; stroke: #000000; stroke-width: 2; stroke-linejoin: miter"/>
   </g>
   <g id="text_21">
    <g clip-path="url(#p29571aa00e)">
     <!-- A -->
     <g transform="translate(457.785 60.459219)scale(0.125 -0.125)">
      <use xlink:href="#DejaVuSans-41"/>
     </g>
    </g>
   </g>
   <g id="patch_15">
    <path d="M 452.43 151.105 
C 453.038641 151.105 453.622436 150.863184 454.05281 150.43281 
C 454.483184 150.002436 454.725 149.418641 454.725 148.81 
C 454.725 148.201359 454.483184 147.617564 454.05281 147.18719 
C 453.622436 146.756816 453.038641 146.515 452.43 146.515 
C 451.821359 146.515 451.237564 146.756816 450.80719 147.18719 
C 450.376816 147.617564 450.135 148.201359 450.135 148.81 
C 450.135 149.418641 450.376816 150.002436 450.80719 150.43281 
C 451.237564 150.863184 451.821359 151.105 452.43 151.105 
z
" clip-path="url(#p29571aa00e)" style="fill: #ffffff; stroke: #000000; stroke-width: 2; stroke-linejoin: miter"/>
   </g>
   <g id="text_22">
    <g clip-path="url(#p29571aa00e)">
     <!-- B -->
     <g transform="translate(457.785 152.259219)scale(0.125 -0.125)">
      <use xlink:href="#DejaVuSans-42"/>
     </g>
    </g>
   </g>
   <g id="patch_16">
    <path d="M 238.23 59.305 
C 238.838641 59.305 239.422436 59.063184 239.85281 58.63281 
C 240.283184 58.202436 240.525 57.618641 240.525 57.01 
C 240.525 56.401359 240.283184 55.817564 239.85281 55.38719 
C 239.422436 54.956816 238.838641 54.715 238.23 54.715 
C 237.621359 54.715 237.037564 54.956816 236.60719 55.38719 
C 236.176816 55.817564 235.935 56.401359 235.935 57.01 
C 235.935 57.618641 236.176816 58.202436 236.60719 58.63281 
C 237.037564 59.063184 237.621359 59.305 238.23 59.305 
z
" clip-path="url(#p29571aa00e)" style="fill: #ffffff; stroke: #000000; stroke-width: 2; stroke-linejoin: miter"/>
   </g>
   <g id="text_23">
    <g clip-path="url(#p29571aa00e)">
     <!-- A -->
     <g transform="translate(243.585 60.459219)scale(0.125 -0.125)">
      <use xlink:href="#DejaVuSans-41"/>
     </g>
    </g>
   </g>
   <g id="patch_17">
    <path d="M 238.23 151.105 
C 238.838641 151.105 239.422436 150.863184 239.85281 150.43281 
C 240.283184 150.002436 240.525 149.418641 240.525 148.81 
C 240.525 148.201359 240.283184 147.617564 239.85281 147.18719 
C 239.422436 146.756816 238.838641 146.515 238.23 146.515 
C 237.621359 146.515 237.037564 146.756816 236.60719 147.18719 
C 236.176816 147.617564 235.935 148.201359 235.935 148.81 
C 235.935 149.418641 236.176816 150.002436 236.60719 150.43281 
C 237.037564 150.863184 237.621359 151.105 238.23 151.105 
z
" clip-path="url(#p29571aa00e)" style="fill: #ffffff; stroke: #000000; stroke-width: 2; stroke-linejoin: miter"/>
   </g>
   <g id="text_24">
    <g clip-path="url(#p29571aa00e)">
     <!-- B -->
     <g transform="translate(243.585 152.259219)scale(0.125 -0.125)">
      <use xlink:href="#DejaVuSans-42"/>
     </g>
    </g>
   </g>
   <g id="patch_18">
    <path d="M 452.43 59.305 
C 453.038641 59.305 453.622436 59.063184 454.05281 58.63281 
C 454.483184 58.202436 454.725 57.618641 454.725 57.01 
C 454.725 56.401359 454.483184 55.817564 454.05281 55.38719 
C 453.622436 54.956816 453.038641 54.715 452.43 54.715 
C 451.821359 54.715 451.237564 54.956816 450.80719 55.38719 
C 450.376816 55.817564 450.135 56.401359 450.135 57.01 
C 450.135 57.618641 450.376816 58.202436 450.80719 58.63281 
C 451.237564 59.063184 451.821359 59.305 452.43 59.305 
z
" clip-path="url(#p29571aa00e)" style="fill: #ffffff; stroke: #000000; stroke-width: 2; stroke-linejoin: miter"/>
   </g>
   <g id="text_25">
    <g clip-path="url(#p29571aa00e)">
     <!-- A -->
     <g transform="translate(457.785 60.459219)scale(0.125 -0.125)">
      <use xlink:href="#DejaVuSans-41"/>
     </g>
    </g>
   </g>
   <g id="patch_19">
    <path d="M 452.43 151.105 
C 453.038641 151.105 453.622436 150.863184 454.05281 150.43281 
C 454.483184 150.002436 454.725 149.418641 454.725 148.81 
C 454.725 148.201359 454.483184 147.617564 454.05281 147.18719 
C 453.622436 146.756816 453.038641 146.515 452.43 146.515 
C 451.821359 146.515 451.237564 146.756816 450.80719 147.18719 
C 450.376816 147.617564 450.135 148.201359 450.135 148.81 
C 450.135 149.418641 450.376816 150.002436 450.80719 150.43281 
C 451.237564 150.863184 451.821359 151.105 452.43 151.105 
z
" clip-path="url(#p29571aa00e)" style="fill: #ffffff; stroke: #000000; stroke-width: 2; stroke-linejoin: miter"/>
   </g>
   <g id="text_26">
    <g clip-path="url(#p29571aa00e)">
     <!-- B -->
     <g transform="translate(457.785 152.259219)scale(0.125 -0.125)">
      <use xlink:href="#DejaVuSans-42"/>
     </g>
    </g>
   </g>
  </g>
 </g>
 <defs>
  <clipPath id="p29571aa00e">
   <rect x="7.2" y="7.2" width="473.8818" height="166.09"/>
  </clipPath>
 </defs>
</svg>
