<?xml version="1.0" encoding="utf-8" standalone="no"?>
<!DOCTYPE svg PUBLIC "-//W3C//DTD SVG 1.1//EN"
  "http://www.w3.org/Graphics/SVG/1.1/DTD/svg11.dtd">
<svg xmlns:xlink="http://www.w3.org/1999/xlink" width="458.7834pt" height="200.55pt" viewBox="0 0 458.7834 200.55" xmlns="http://www.w3.org/2000/svg" version="1.1">
 <metadata>
  <rdf:RDF xmlns:dc="http://purl.org/dc/elements/1.1/" xmlns:cc="http://creativecommons.org/ns#" xmlns:rdf="http://www.w3.org/1999/02/22-rdf-syntax-ns#">
   <cc:Work>
    <dc:type rdf:resource="http://purl.org/dc/dcmitype/StillImage"/>
    <dc:date>2023-10-30T06:54:50.713998</dc:date>
    <dc:format>image/svg+xml</dc:format>
    <dc:creator>
     <cc:Agent>
      <dc:title>Matplotlib v3.5.2, https://matplotlib.org/</dc:title>
     </cc:Agent>
    </dc:creator>
   </cc:Work>
  </rdf:RDF>
 </metadata>
 <defs>
  <style type="text/css">*{stroke-linejoin: round; stroke-linecap: butt}</style>
 </defs>
 <g id="figure_1">
  <g id="patch_1">
   <path d="M 0 200.55 
L 458.7834 200.55 
L 458.7834 0 
L 0 0 
L 0 200.55 
z
" style="fill: none"/>
  </g>
  <g id="axes_1">
   <g id="line2d_1">
    <path d="M 55.7316 179.41 
L 55.7316 133.51 
L 40.4316 118.21 
L 55.7316 102.91 
L 71.0316 118.21 
L 55.7316 133.51 
M 55.7316 102.91 
L 55.7316 57.01 
" clip-path="url(#pace8bfbb03)" style="fill: none; stroke: #000000; stroke-width: 2; stroke-linecap: round"/>
   </g>
   <g id="line2d_2">
    <path d="M 55.7316 125.86 
L 55.7316 118.21 
" clip-path="url(#pace8bfbb03)" style="fill: none; stroke: #000000; stroke-width: 2; stroke-linecap: round"/>
   </g>
   <g id="patch_2">
    <path d="M 53.4366 118.21 
L 55.7316 110.56 
L 58.0266 118.21 
z
" clip-path="url(#pace8bfbb03)"/>
   </g>
   <g id="line2d_3">
    <path d="M 55.7316 57.01 
L 101.6316 57.01 
L 147.5316 57.01 
" clip-path="url(#pace8bfbb03)" style="fill: none; stroke: #000000; stroke-width: 2; stroke-linecap: round"/>
   </g>
   <g id="line2d_4">
    <path d="M 147.5316 57.01 
L 178.1316 57.01 
L 180.6816 49.36 
L 185.7816 64.66 
L 190.8816 49.36 
L 195.9816 64.66 
L 201.0816 49.36 
L 206.1816 64.66 
L 208.7316 57.01 
L 239.3316 57.01 
" clip-path="url(#pace8bfbb03)" style="fill: none; stroke: #000000; stroke-width: 2; stroke-linecap: round"/>
   </g>
   <g id="line2d_5">
    <path d="M 239.3316 57.01 
L 269.9316 57.01 
L 272.4816 49.36 
L 277.5816 64.66 
L 282.6816 49.36 
L 287.7816 64.66 
L 292.8816 49.36 
L 297.9816 64.66 
L 300.5316 57.01 
L 331.1316 57.01 
" clip-path="url(#pace8bfbb03)" style="fill: none; stroke: #000000; stroke-width: 2; stroke-linecap: round"/>
   </g>
   <g id="line2d_6">
    <path d="M 331.1316 57.01 
L 361.7316 57.01 
L 364.2816 49.36 
L 369.3816 64.66 
L 374.4816 49.36 
L 379.5816 64.66 
L 384.6816 49.36 
L 389.7816 64.66 
L 392.3316 57.01 
L 422.9316 57.01 
" clip-path="url(#pace8bfbb03)" style="fill: none; stroke: #000000; stroke-width: 2; stroke-linecap: round"/>
   </g>
   <g id="line2d_7">
    <path d="M 55.7316 179.41 
L 239.3316 179.41 
L 422.9316 179.41 
" clip-path="url(#pace8bfbb03)" style="fill: none; stroke: #000000; stroke-width: 2; stroke-linecap: round"/>
   </g>
   <g id="line2d_8">
    <path d="M 147.5316 57.01 
L 147.5316 102.91 
L 155.1816 105.46 
L 139.8816 110.56 
L 155.1816 115.66 
L 139.8816 120.76 
L 155.1816 125.86 
L 139.8816 130.96 
L 147.5316 133.51 
L 147.5316 179.41 
" clip-path="url(#pace8bfbb03)" style="fill: none; stroke: #000000; stroke-width: 2; stroke-linecap: round"/>
   </g>
   <g id="line2d_9">
    <path d="M 239.3316 57.01 
L 239.3316 102.91 
L 246.9816 105.46 
L 231.6816 110.56 
L 246.9816 115.66 
L 231.6816 120.76 
L 246.9816 125.86 
L 231.6816 130.96 
L 239.3316 133.51 
L 239.3316 179.41 
" clip-path="url(#pace8bfbb03)" style="fill: none; stroke: #000000; stroke-width: 2; stroke-linecap: round"/>
   </g>
   <g id="line2d_10">
    <path d="M 331.1316 57.01 
L 331.1316 72.31 
L 338.7816 74.86 
L 323.4816 79.96 
L 338.7816 85.06 
L 323.4816 90.16 
L 338.7816 95.26 
L 323.4816 100.36 
L 331.1316 102.91 
L 331.1316 118.21 
" clip-path="url(#pace8bfbb03)" style="fill: none; stroke: #000000; stroke-width: 2; stroke-linecap: round"/>
   </g>
   <g id="line2d_11">
    <path d="M 331.1316 118.21 
L 331.1316 133.51 
L 346.4316 148.81 
L 331.1316 164.11 
L 315.8316 148.81 
L 331.1316 133.51 
M 331.1316 164.11 
L 331.1316 179.41 
" clip-path="url(#pace8bfbb03)" style="fill: none; stroke: #000000; stroke-width: 2; stroke-linecap: round"/>
   </g>
   <g id="line2d_12">
    <path d="M 331.1316 141.16 
L 331.1316 148.81 
" clip-path="url(#pace8bfbb03)" style="fill: none; stroke: #000000; stroke-width: 2; stroke-linecap: round"/>
   </g>
   <g id="patch_3">
    <path d="M 333.4266 148.81 
L 331.1316 156.46 
L 328.8366 148.81 
z
" clip-path="url(#pace8bfbb03)"/>
   </g>
   <g id="line2d_13">
    <path d="M 55.7316 179.41 
L 55.7316 133.51 
L 40.4316 118.21 
L 55.7316 102.91 
L 71.0316 118.21 
L 55.7316 133.51 
M 55.7316 102.91 
L 55.7316 57.01 
" clip-path="url(#pace8bfbb03)" style="fill: none; stroke: #000000; stroke-width: 2; stroke-linecap: round"/>
   </g>
   <g id="line2d_14">
    <path d="M 55.7316 125.86 
L 55.7316 118.21 
" clip-path="url(#pace8bfbb03)" style="fill: none; stroke: #000000; stroke-width: 2; stroke-linecap: round"/>
   </g>
   <g id="patch_4">
    <path d="M 53.4366 118.21 
L 55.7316 110.56 
L 58.0266 118.21 
z
" clip-path="url(#pace8bfbb03)"/>
   </g>
   <g id="line2d_15">
    <path d="M 55.7316 57.01 
L 101.6316 57.01 
L 147.5316 57.01 
" clip-path="url(#pace8bfbb03)" style="fill: none; stroke: #000000; stroke-width: 2; stroke-linecap: round"/>
   </g>
   <g id="line2d_16">
    <path d="M 147.5316 57.01 
L 178.1316 57.01 
L 180.6816 49.36 
L 185.7816 64.66 
L 190.8816 49.36 
L 195.9816 64.66 
L 201.0816 49.36 
L 206.1816 64.66 
L 208.7316 57.01 
L 239.3316 57.01 
" clip-path="url(#pace8bfbb03)" style="fill: none; stroke: #000000; stroke-width: 2; stroke-linecap: round"/>
   </g>
   <g id="line2d_17">
    <path d="M 239.3316 57.01 
L 269.9316 57.01 
L 272.4816 49.36 
L 277.5816 64.66 
L 282.6816 49.36 
L 287.7816 64.66 
L 292.8816 49.36 
L 297.9816 64.66 
L 300.5316 57.01 
L 331.1316 57.01 
" clip-path="url(#pace8bfbb03)" style="fill: none; stroke: #000000; stroke-width: 2; stroke-linecap: round"/>
   </g>
   <g id="line2d_18">
    <path d="M 331.1316 57.01 
L 361.7316 57.01 
L 364.2816 49.36 
L 369.3816 64.66 
L 374.4816 49.36 
L 379.5816 64.66 
L 384.6816 49.36 
L 389.7816 64.66 
L 392.3316 57.01 
L 422.9316 57.01 
" clip-path="url(#pace8bfbb03)" style="fill: none; stroke: #000000; stroke-width: 2; stroke-linecap: round"/>
   </g>
   <g id="line2d_19">
    <path d="M 55.7316 179.41 
L 239.3316 179.41 
L 422.9316 179.41 
" clip-path="url(#pace8bfbb03)" style="fill: none; stroke: #000000; stroke-width: 2; stroke-linecap: round"/>
   </g>
   <g id="line2d_20">
    <path d="M 147.5316 57.01 
L 147.5316 102.91 
L 155.1816 105.46 
L 139.8816 110.56 
L 155.1816 115.66 
L 139.8816 120.76 
L 155.1816 125.86 
L 139.8816 130.96 
L 147.5316 133.51 
L 147.5316 179.41 
" clip-path="url(#pace8bfbb03)" style="fill: none; stroke: #000000; stroke-width: 2; stroke-linecap: round"/>
   </g>
   <g id="line2d_21">
    <path d="M 239.3316 57.01 
L 239.3316 102.91 
L 246.9816 105.46 
L 231.6816 110.56 
L 246.9816 115.66 
L 231.6816 120.76 
L 246.9816 125.86 
L 231.6816 130.96 
L 239.3316 133.51 
L 239.3316 179.41 
" clip-path="url(#pace8bfbb03)" style="fill: none; stroke: #000000; stroke-width: 2; stroke-linecap: round"/>
   </g>
   <g id="line2d_22">
    <path d="M 331.1316 57.01 
L 331.1316 72.31 
L 338.7816 74.86 
L 323.4816 79.96 
L 338.7816 85.06 
L 323.4816 90.16 
L 338.7816 95.26 
L 323.4816 100.36 
L 331.1316 102.91 
L 331.1316 118.21 
" clip-path="url(#pace8bfbb03)" style="fill: none; stroke: #000000; stroke-width: 2; stroke-linecap: round"/>
   </g>
   <g id="line2d_23">
    <path d="M 331.1316 118.21 
L 331.1316 133.51 
L 346.4316 148.81 
L 331.1316 164.11 
L 315.8316 148.81 
L 331.1316 133.51 
M 331.1316 164.11 
L 331.1316 179.41 
" clip-path="url(#pace8bfbb03)" style="fill: none; stroke: #000000; stroke-width: 2; stroke-linecap: round"/>
   </g>
   <g id="line2d_24">
    <path d="M 331.1316 141.16 
L 331.1316 148.81 
" clip-path="url(#pace8bfbb03)" style="fill: none; stroke: #000000; stroke-width: 2; stroke-linecap: round"/>
   </g>
   <g id="patch_5">
    <path d="M 333.4266 148.81 
L 331.1316 156.46 
L 328.8366 148.81 
z
" clip-path="url(#pace8bfbb03)"/>
   </g>
   <g id="text_1">
    <g clip-path="url(#pace8bfbb03)">
     <!-- $I_{S1}$ -->
     <g transform="translate(23.8716 114.660586)scale(0.125 -0.125)">
      <defs>
       <path id="STIXGeneral-Italic-49" d="M 2458 4179 
L 2458 4077 
Q 2189 4045 2102 3961 
Q 2016 3878 1933 3584 
L 1165 838 
Q 1069 499 1069 352 
Q 1069 224 1149 179 
Q 1229 134 1510 102 
L 1510 0 
L -51 0 
L -51 102 
Q 218 154 317 237 
Q 416 320 486 582 
L 1254 3405 
Q 1338 3699 1338 3802 
Q 1338 3930 1235 3997 
Q 1133 4064 877 4077 
L 877 4179 
L 2458 4179 
z
" transform="scale(0.015625)"/>
       <path id="STIXGeneral-Italic-53" d="M 3251 4269 
L 2995 2989 
L 2880 3008 
Q 2880 3539 2720 3795 
Q 2560 4051 2118 4051 
Q 1786 4051 1594 3881 
Q 1402 3712 1402 3411 
Q 1402 3168 1504 3005 
Q 1606 2842 2035 2413 
Q 2464 1978 2611 1715 
Q 2758 1453 2758 1133 
Q 2758 589 2390 237 
Q 2022 -115 1466 -115 
Q 1222 -115 800 32 
Q 595 109 499 109 
Q 288 109 224 -96 
L 109 -96 
L 326 1338 
L 454 1325 
Q 442 1267 442 1178 
Q 442 710 701 409 
Q 960 109 1363 109 
Q 1734 109 1968 336 
Q 2202 563 2202 928 
Q 2202 1139 2118 1308 
Q 2035 1478 1818 1715 
L 1568 1984 
Q 1549 2003 1459 2102 
Q 1370 2202 1318 2253 
Q 1030 2560 934 2755 
Q 838 2950 838 3213 
Q 838 3699 1168 3980 
Q 1498 4262 1978 4262 
Q 2310 4262 2522 4173 
Q 2707 4102 2816 4102 
Q 2925 4102 2982 4134 
Q 3040 4166 3104 4269 
L 3251 4269 
z
" transform="scale(0.015625)"/>
       <path id="STIXGeneral-Regular-31" d="M 2522 0 
L 755 0 
L 755 96 
Q 1107 115 1235 227 
Q 1363 339 1363 608 
L 1363 3482 
Q 1363 3795 1171 3795 
Q 1082 3795 883 3718 
L 710 3654 
L 710 3744 
L 1856 4326 
L 1914 4307 
L 1914 486 
Q 1914 275 2042 185 
Q 2170 96 2522 96 
L 2522 0 
z
" transform="scale(0.015625)"/>
      </defs>
      <use xlink:href="#STIXGeneral-Italic-49" transform="translate(0 0.703125)"/>
      <use xlink:href="#STIXGeneral-Italic-53" transform="translate(33.299988 -12.525)scale(0.7)"/>
      <use xlink:href="#STIXGeneral-Regular-31" transform="translate(68.299977 -12.525)scale(0.7)"/>
     </g>
    </g>
    <g clip-path="url(#pace8bfbb03)">
     <!-- $6I_x$ -->
     <g transform="translate(22.4966 128.657852)scale(0.125 -0.125)">
      <defs>
       <path id="STIXGeneral-Regular-36" d="M 2854 4378 
L 2867 4275 
Q 2112 4154 1606 3664 
Q 1101 3174 973 2451 
Q 1344 2739 1786 2739 
Q 2349 2739 2672 2380 
Q 2995 2022 2995 1402 
Q 2995 774 2669 378 
Q 2291 -90 1651 -90 
Q 870 -90 518 557 
Q 218 1107 218 1786 
Q 218 2835 915 3552 
Q 1312 3962 1731 4131 
Q 2150 4301 2854 4378 
z
M 2419 1203 
Q 2419 2445 1555 2445 
Q 1235 2445 1024 2275 
Q 813 2106 813 1702 
Q 813 954 1046 522 
Q 1280 90 1722 90 
Q 2061 90 2240 394 
Q 2419 698 2419 1203 
z
" transform="scale(0.015625)"/>
       <path id="STIXGeneral-Italic-78" d="M 1555 2272 
L 1632 1907 
Q 1971 2426 2179 2624 
Q 2387 2822 2598 2822 
Q 2714 2822 2787 2755 
Q 2861 2688 2861 2585 
Q 2861 2483 2800 2419 
Q 2739 2355 2643 2355 
Q 2586 2355 2490 2409 
Q 2394 2464 2310 2464 
Q 2125 2464 1683 1690 
Q 1683 1606 1734 1402 
L 1939 544 
Q 2003 282 2131 282 
Q 2234 282 2432 538 
Q 2451 563 2476 598 
Q 2502 634 2521 662 
Q 2541 691 2566 717 
L 2662 659 
Q 2387 230 2227 80 
Q 2067 -70 1882 -70 
Q 1728 -70 1645 26 
Q 1562 122 1504 365 
L 1318 1126 
L 755 365 
Q 557 96 432 13 
Q 307 -70 147 -70 
Q 0 -70 -86 0 
Q -173 70 -173 198 
Q -173 294 -112 361 
Q -51 429 45 429 
Q 122 429 250 358 
Q 346 301 416 301 
Q 525 301 742 614 
L 1267 1357 
L 1088 2150 
Q 1024 2432 969 2509 
Q 915 2586 794 2586 
Q 717 2586 544 2541 
L 429 2509 
L 410 2611 
L 480 2637 
Q 992 2822 1229 2822 
Q 1350 2822 1420 2707 
Q 1491 2592 1555 2272 
z
" transform="scale(0.015625)"/>
      </defs>
      <use xlink:href="#STIXGeneral-Regular-36" transform="translate(0 0.59375)"/>
      <use xlink:href="#STIXGeneral-Italic-49" transform="translate(49.999985 0.59375)"/>
      <use xlink:href="#STIXGeneral-Italic-78" transform="translate(83.299973 -12.634375)scale(0.7)"/>
     </g>
    </g>
   </g>
   <g id="text_2">
    <g clip-path="url(#pace8bfbb03)">
     <!-- $R_{2}$ -->
     <g transform="translate(187.1191 29.703125)scale(0.125 -0.125)">
      <defs>
       <path id="STIXGeneral-Italic-52" d="M 845 4179 
L 2458 4179 
Q 3078 4179 3420 3936 
Q 3763 3693 3763 3277 
Q 3763 2778 3341 2458 
Q 3091 2266 2502 2131 
L 3072 627 
Q 3181 333 3299 217 
Q 3418 102 3629 102 
L 3629 0 
L 2688 0 
L 1901 2074 
L 1478 2106 
L 1126 806 
Q 1043 512 1043 403 
Q 1043 256 1126 192 
Q 1210 128 1472 102 
L 1472 0 
L -83 0 
L -83 102 
Q 173 134 278 243 
Q 384 352 461 646 
L 1222 3405 
Q 1299 3699 1299 3808 
Q 1299 3923 1210 3987 
Q 1133 4038 845 4077 
L 845 4179 
z
M 1958 3795 
L 1555 2342 
Q 1754 2310 1882 2310 
Q 2451 2310 2771 2566 
Q 3091 2822 3091 3270 
Q 3091 3603 2892 3795 
Q 2694 3987 2323 3987 
Q 2010 3987 1958 3795 
z
" transform="scale(0.015625)"/>
       <path id="STIXGeneral-Regular-32" d="M 3034 877 
L 2688 0 
L 186 0 
L 186 77 
L 1325 1286 
Q 1773 1754 1965 2144 
Q 2157 2534 2157 2950 
Q 2157 3379 1920 3616 
Q 1683 3853 1267 3853 
Q 922 3853 720 3673 
Q 518 3494 326 3021 
L 192 3053 
Q 301 3648 630 3987 
Q 960 4326 1523 4326 
Q 2054 4326 2380 4006 
Q 2707 3686 2707 3200 
Q 2707 2477 1888 1613 
L 832 486 
L 2330 486 
Q 2541 486 2665 569 
Q 2790 653 2944 915 
L 3034 877 
z
" transform="scale(0.015625)"/>
      </defs>
      <use xlink:href="#STIXGeneral-Italic-52" transform="translate(0 0.703125)"/>
      <use xlink:href="#STIXGeneral-Regular-32" transform="translate(61.099991 -12.525)scale(0.7)"/>
     </g>
    </g>
    <g clip-path="url(#pace8bfbb03)">
     <!-- 8Ω -->
     <g transform="translate(184.67867 43.700391)scale(0.125 -0.125)">
      <defs>
       <path id="DejaVuSans-38" d="M 2034 2216 
Q 1584 2216 1326 1975 
Q 1069 1734 1069 1313 
Q 1069 891 1326 650 
Q 1584 409 2034 409 
Q 2484 409 2743 651 
Q 3003 894 3003 1313 
Q 3003 1734 2745 1975 
Q 2488 2216 2034 2216 
z
M 1403 2484 
Q 997 2584 770 2862 
Q 544 3141 544 3541 
Q 544 4100 942 4425 
Q 1341 4750 2034 4750 
Q 2731 4750 3128 4425 
Q 3525 4100 3525 3541 
Q 3525 3141 3298 2862 
Q 3072 2584 2669 2484 
Q 3125 2378 3379 2068 
Q 3634 1759 3634 1313 
Q 3634 634 3220 271 
Q 2806 -91 2034 -91 
Q 1263 -91 848 271 
Q 434 634 434 1313 
Q 434 1759 690 2068 
Q 947 2378 1403 2484 
z
M 1172 3481 
Q 1172 3119 1398 2916 
Q 1625 2713 2034 2713 
Q 2441 2713 2670 2916 
Q 2900 3119 2900 3481 
Q 2900 3844 2670 4047 
Q 2441 4250 2034 4250 
Q 1625 4250 1398 4047 
Q 1172 3844 1172 3481 
z
" transform="scale(0.015625)"/>
       <path id="DejaVuSans-3a9" d="M 4647 556 
L 4647 0 
L 2772 0 
L 2772 556 
Q 3325 859 3634 1378 
Q 3944 1897 3944 2528 
Q 3944 3278 3531 3731 
Q 3119 4184 2444 4184 
Q 1769 4184 1355 3729 
Q 941 3275 941 2528 
Q 941 1897 1250 1378 
Q 1563 859 2119 556 
L 2119 0 
L 244 0 
L 244 556 
L 1241 556 
Q 747 991 519 1456 
Q 294 1922 294 2497 
Q 294 3491 894 4106 
Q 1491 4722 2444 4722 
Q 3391 4722 3994 4106 
Q 4594 3494 4594 2528 
Q 4594 1922 4372 1459 
Q 4150 997 3647 556 
L 4647 556 
z
" transform="scale(0.015625)"/>
      </defs>
      <use xlink:href="#DejaVuSans-38"/>
      <use xlink:href="#DejaVuSans-3a9" x="63.623047"/>
     </g>
    </g>
   </g>
   <g id="text_3">
    <g clip-path="url(#pace8bfbb03)">
     <!-- $R_{4}$ -->
     <g transform="translate(278.9191 29.703125)scale(0.125 -0.125)">
      <defs>
       <path id="STIXGeneral-Regular-34" d="M 3027 1069 
L 2368 1069 
L 2368 0 
L 1869 0 
L 1869 1069 
L 77 1069 
L 77 1478 
L 2086 4326 
L 2368 4326 
L 2368 1478 
L 3027 1478 
L 3027 1069 
z
M 1869 1478 
L 1869 3674 
L 333 1478 
L 1869 1478 
z
" transform="scale(0.015625)"/>
      </defs>
      <use xlink:href="#STIXGeneral-Italic-52" transform="translate(0 0.703125)"/>
      <use xlink:href="#STIXGeneral-Regular-34" transform="translate(61.099991 -12.525)scale(0.7)"/>
     </g>
    </g>
    <g clip-path="url(#pace8bfbb03)">
     <!-- 10Ω -->
     <g transform="translate(272.502108 43.700391)scale(0.125 -0.125)">
      <defs>
       <path id="DejaVuSans-31" d="M 794 531 
L 1825 531 
L 1825 4091 
L 703 3866 
L 703 4441 
L 1819 4666 
L 2450 4666 
L 2450 531 
L 3481 531 
L 3481 0 
L 794 0 
L 794 531 
z
" transform="scale(0.015625)"/>
       <path id="DejaVuSans-30" d="M 2034 4250 
Q 1547 4250 1301 3770 
Q 1056 3291 1056 2328 
Q 1056 1369 1301 889 
Q 1547 409 2034 409 
Q 2525 409 2770 889 
Q 3016 1369 3016 2328 
Q 3016 3291 2770 3770 
Q 2525 4250 2034 4250 
z
M 2034 4750 
Q 2819 4750 3233 4129 
Q 3647 3509 3647 2328 
Q 3647 1150 3233 529 
Q 2819 -91 2034 -91 
Q 1250 -91 836 529 
Q 422 1150 422 2328 
Q 422 3509 836 4129 
Q 1250 4750 2034 4750 
z
" transform="scale(0.015625)"/>
      </defs>
      <use xlink:href="#DejaVuSans-31"/>
      <use xlink:href="#DejaVuSans-30" x="63.623047"/>
      <use xlink:href="#DejaVuSans-3a9" x="127.246094"/>
     </g>
    </g>
   </g>
   <g id="text_4">
    <g clip-path="url(#pace8bfbb03)">
     <!-- $R_{6}$ -->
     <g transform="translate(370.7191 29.703125)scale(0.125 -0.125)">
      <use xlink:href="#STIXGeneral-Italic-52" transform="translate(0 0.703125)"/>
      <use xlink:href="#STIXGeneral-Regular-36" transform="translate(61.099991 -12.525)scale(0.7)"/>
     </g>
    </g>
    <g clip-path="url(#pace8bfbb03)">
     <!-- 4Ω -->
     <g transform="translate(368.27867 43.700391)scale(0.125 -0.125)">
      <defs>
       <path id="DejaVuSans-34" d="M 2419 4116 
L 825 1625 
L 2419 1625 
L 2419 4116 
z
M 2253 4666 
L 3047 4666 
L 3047 1625 
L 3713 1625 
L 3713 1100 
L 3047 1100 
L 3047 0 
L 2419 0 
L 2419 1100 
L 313 1100 
L 313 1709 
L 2253 4666 
z
" transform="scale(0.015625)"/>
      </defs>
      <use xlink:href="#DejaVuSans-34"/>
      <use xlink:href="#DejaVuSans-3a9" x="63.623047"/>
     </g>
    </g>
   </g>
   <g id="text_5">
    <g clip-path="url(#pace8bfbb03)">
     <!-- $R_{1}$ -->
     <g transform="translate(124.1966 114.660586)scale(0.125 -0.125)">
      <use xlink:href="#STIXGeneral-Italic-52" transform="translate(0 0.703125)"/>
      <use xlink:href="#STIXGeneral-Regular-31" transform="translate(61.099991 -12.525)scale(0.7)"/>
     </g>
    </g>
    <g clip-path="url(#pace8bfbb03)">
     <!-- 30Ω -->
     <g transform="translate(111.362616 128.657852)scale(0.125 -0.125)">
      <defs>
       <path id="DejaVuSans-33" d="M 2597 2516 
Q 3050 2419 3304 2112 
Q 3559 1806 3559 1356 
Q 3559 666 3084 287 
Q 2609 -91 1734 -91 
Q 1441 -91 1130 -33 
Q 819 25 488 141 
L 488 750 
Q 750 597 1062 519 
Q 1375 441 1716 441 
Q 2309 441 2620 675 
Q 2931 909 2931 1356 
Q 2931 1769 2642 2001 
Q 2353 2234 1838 2234 
L 1294 2234 
L 1294 2753 
L 1863 2753 
Q 2328 2753 2575 2939 
Q 2822 3125 2822 3475 
Q 2822 3834 2567 4026 
Q 2313 4219 1838 4219 
Q 1578 4219 1281 4162 
Q 984 4106 628 3988 
L 628 4550 
Q 988 4650 1302 4700 
Q 1616 4750 1894 4750 
Q 2613 4750 3031 4423 
Q 3450 4097 3450 3541 
Q 3450 3153 3228 2886 
Q 3006 2619 2597 2516 
z
" transform="scale(0.015625)"/>
      </defs>
      <use xlink:href="#DejaVuSans-33"/>
      <use xlink:href="#DejaVuSans-30" x="63.623047"/>
      <use xlink:href="#DejaVuSans-3a9" x="127.246094"/>
     </g>
    </g>
   </g>
   <g id="text_6">
    <g clip-path="url(#pace8bfbb03)">
     <!-- $R_{3}$ -->
     <g transform="translate(215.9966 114.660586)scale(0.125 -0.125)">
      <defs>
       <path id="STIXGeneral-Regular-33" d="M 390 3264 
L 288 3290 
Q 435 3770 748 4048 
Q 1062 4326 1542 4326 
Q 1990 4326 2265 4083 
Q 2541 3840 2541 3450 
Q 2541 2925 1946 2566 
Q 2298 2413 2477 2227 
Q 2758 1914 2758 1402 
Q 2758 890 2464 506 
Q 2246 211 1840 60 
Q 1434 -90 979 -90 
Q 262 -90 262 275 
Q 262 378 339 442 
Q 416 506 525 506 
Q 685 506 915 339 
Q 1197 141 1466 141 
Q 1818 141 2058 425 
Q 2298 710 2298 1120 
Q 2298 1856 1632 2048 
Q 1434 2112 979 2112 
L 979 2202 
Q 1338 2323 1517 2432 
Q 2035 2726 2035 3290 
Q 2035 3610 1852 3776 
Q 1670 3942 1344 3942 
Q 768 3942 390 3264 
z
" transform="scale(0.015625)"/>
      </defs>
      <use xlink:href="#STIXGeneral-Italic-52" transform="translate(0 0.703125)"/>
      <use xlink:href="#STIXGeneral-Regular-33" transform="translate(61.099991 -12.525)scale(0.7)"/>
     </g>
    </g>
    <g clip-path="url(#pace8bfbb03)">
     <!-- 25Ω -->
     <g transform="translate(203.162616 128.657852)scale(0.125 -0.125)">
      <defs>
       <path id="DejaVuSans-32" d="M 1228 531 
L 3431 531 
L 3431 0 
L 469 0 
L 469 531 
Q 828 903 1448 1529 
Q 2069 2156 2228 2338 
Q 2531 2678 2651 2914 
Q 2772 3150 2772 3378 
Q 2772 3750 2511 3984 
Q 2250 4219 1831 4219 
Q 1534 4219 1204 4116 
Q 875 4013 500 3803 
L 500 4441 
Q 881 4594 1212 4672 
Q 1544 4750 1819 4750 
Q 2544 4750 2975 4387 
Q 3406 4025 3406 3419 
Q 3406 3131 3298 2873 
Q 3191 2616 2906 2266 
Q 2828 2175 2409 1742 
Q 1991 1309 1228 531 
z
" transform="scale(0.015625)"/>
       <path id="DejaVuSans-35" d="M 691 4666 
L 3169 4666 
L 3169 4134 
L 1269 4134 
L 1269 2991 
Q 1406 3038 1543 3061 
Q 1681 3084 1819 3084 
Q 2600 3084 3056 2656 
Q 3513 2228 3513 1497 
Q 3513 744 3044 326 
Q 2575 -91 1722 -91 
Q 1428 -91 1123 -41 
Q 819 9 494 109 
L 494 744 
Q 775 591 1075 516 
Q 1375 441 1709 441 
Q 2250 441 2565 725 
Q 2881 1009 2881 1497 
Q 2881 1984 2565 2268 
Q 2250 2553 1709 2553 
Q 1456 2553 1204 2497 
Q 953 2441 691 2322 
L 691 4666 
z
" transform="scale(0.015625)"/>
      </defs>
      <use xlink:href="#DejaVuSans-32"/>
      <use xlink:href="#DejaVuSans-35" x="63.623047"/>
      <use xlink:href="#DejaVuSans-3a9" x="127.246094"/>
     </g>
    </g>
   </g>
   <g id="text_7">
    <g clip-path="url(#pace8bfbb03)">
     <!-- $R_{5}$ -->
     <g transform="translate(341.8416 84.060586)scale(0.125 -0.125)">
      <defs>
       <path id="STIXGeneral-Regular-35" d="M 2803 4358 
L 2573 3814 
Q 2534 3731 2400 3731 
L 1158 3731 
L 902 3187 
Q 1606 3053 1920 2896 
Q 2234 2739 2502 2368 
Q 2726 2061 2726 1555 
Q 2726 1094 2576 780 
Q 2426 467 2099 224 
Q 1664 -90 1011 -90 
Q 646 -90 422 19 
Q 198 128 198 307 
Q 198 550 486 550 
Q 717 550 960 352 
Q 1210 147 1414 147 
Q 1747 147 2012 480 
Q 2278 813 2278 1229 
Q 2278 1843 1850 2189 
Q 1293 2637 486 2637 
Q 410 2637 410 2688 
L 416 2720 
L 1114 4237 
L 2438 4237 
Q 2547 4237 2608 4269 
Q 2669 4301 2746 4403 
L 2803 4358 
z
" transform="scale(0.015625)"/>
      </defs>
      <use xlink:href="#STIXGeneral-Italic-52" transform="translate(0 0.703125)"/>
      <use xlink:href="#STIXGeneral-Regular-35" transform="translate(61.099991 -12.525)scale(0.7)"/>
     </g>
    </g>
    <g clip-path="url(#pace8bfbb03)">
     <!-- 6Ω -->
     <g transform="translate(341.8416 98.057852)scale(0.125 -0.125)">
      <defs>
       <path id="DejaVuSans-36" d="M 2113 2584 
Q 1688 2584 1439 2293 
Q 1191 2003 1191 1497 
Q 1191 994 1439 701 
Q 1688 409 2113 409 
Q 2538 409 2786 701 
Q 3034 994 3034 1497 
Q 3034 2003 2786 2293 
Q 2538 2584 2113 2584 
z
M 3366 4563 
L 3366 3988 
Q 3128 4100 2886 4159 
Q 2644 4219 2406 4219 
Q 1781 4219 1451 3797 
Q 1122 3375 1075 2522 
Q 1259 2794 1537 2939 
Q 1816 3084 2150 3084 
Q 2853 3084 3261 2657 
Q 3669 2231 3669 1497 
Q 3669 778 3244 343 
Q 2819 -91 2113 -91 
Q 1303 -91 875 529 
Q 447 1150 447 2328 
Q 447 3434 972 4092 
Q 1497 4750 2381 4750 
Q 2619 4750 2861 4703 
Q 3103 4656 3366 4563 
z
" transform="scale(0.015625)"/>
      </defs>
      <use xlink:href="#DejaVuSans-36"/>
      <use xlink:href="#DejaVuSans-3a9" x="63.623047"/>
     </g>
    </g>
   </g>
   <g id="text_8">
    <g clip-path="url(#pace8bfbb03)">
     <!-- $I_{S2}$ -->
     <g transform="translate(349.4916 145.260586)scale(0.125 -0.125)">
      <use xlink:href="#STIXGeneral-Italic-49" transform="translate(0 0.703125)"/>
      <use xlink:href="#STIXGeneral-Italic-53" transform="translate(33.299988 -12.525)scale(0.7)"/>
      <use xlink:href="#STIXGeneral-Regular-32" transform="translate(68.299977 -12.525)scale(0.7)"/>
     </g>
    </g>
    <g clip-path="url(#pace8bfbb03)">
     <!-- $10I_x$ -->
     <g transform="translate(349.4916 159.257852)scale(0.125 -0.125)">
      <defs>
       <path id="STIXGeneral-Regular-30" d="M 3046 2112 
Q 3046 1683 2963 1302 
Q 2880 922 2717 602 
Q 2554 282 2266 96 
Q 1978 -90 1600 -90 
Q 1210 -90 915 108 
Q 621 307 461 640 
Q 301 973 227 1350 
Q 154 1728 154 2150 
Q 154 2746 301 3222 
Q 448 3699 790 4012 
Q 1133 4326 1626 4326 
Q 2253 4326 2649 3712 
Q 3046 3098 3046 2112 
z
M 2432 2080 
Q 2432 3091 2217 3625 
Q 2003 4160 1587 4160 
Q 1190 4160 979 3622 
Q 768 3085 768 2106 
Q 768 1120 979 598 
Q 1190 77 1600 77 
Q 2003 77 2217 598 
Q 2432 1120 2432 2080 
z
" transform="scale(0.015625)"/>
      </defs>
      <use xlink:href="#STIXGeneral-Regular-31" transform="translate(0 0.40625)"/>
      <use xlink:href="#STIXGeneral-Regular-30" transform="translate(49.999985 0.40625)"/>
      <use xlink:href="#STIXGeneral-Italic-49" transform="translate(99.999969 0.40625)"/>
      <use xlink:href="#STIXGeneral-Italic-78" transform="translate(133.299957 -12.821875)scale(0.7)"/>
     </g>
    </g>
   </g>
   <g id="text_9">
    <g clip-path="url(#pace8bfbb03)">
     <!-- $I_{S1}$ -->
     <g transform="translate(23.8716 114.660586)scale(0.125 -0.125)">
      <use xlink:href="#STIXGeneral-Italic-49" transform="translate(0 0.703125)"/>
      <use xlink:href="#STIXGeneral-Italic-53" transform="translate(33.299988 -12.525)scale(0.7)"/>
      <use xlink:href="#STIXGeneral-Regular-31" transform="translate(68.299977 -12.525)scale(0.7)"/>
     </g>
    </g>
    <g clip-path="url(#pace8bfbb03)">
     <!-- $6I_x$ -->
     <g transform="translate(22.4966 128.657852)scale(0.125 -0.125)">
      <use xlink:href="#STIXGeneral-Regular-36" transform="translate(0 0.59375)"/>
      <use xlink:href="#STIXGeneral-Italic-49" transform="translate(49.999985 0.59375)"/>
      <use xlink:href="#STIXGeneral-Italic-78" transform="translate(83.299973 -12.634375)scale(0.7)"/>
     </g>
    </g>
   </g>
   <g id="text_10">
    <g clip-path="url(#pace8bfbb03)">
     <!-- $R_{2}$ -->
     <g transform="translate(187.1191 29.703125)scale(0.125 -0.125)">
      <use xlink:href="#STIXGeneral-Italic-52" transform="translate(0 0.703125)"/>
      <use xlink:href="#STIXGeneral-Regular-32" transform="translate(61.099991 -12.525)scale(0.7)"/>
     </g>
    </g>
    <g clip-path="url(#pace8bfbb03)">
     <!-- 8Ω -->
     <g transform="translate(184.67867 43.700391)scale(0.125 -0.125)">
      <use xlink:href="#DejaVuSans-38"/>
      <use xlink:href="#DejaVuSans-3a9" x="63.623047"/>
     </g>
    </g>
   </g>
   <g id="text_11">
    <g clip-path="url(#pace8bfbb03)">
     <!-- $R_{4}$ -->
     <g transform="translate(278.9191 29.703125)scale(0.125 -0.125)">
      <use xlink:href="#STIXGeneral-Italic-52" transform="translate(0 0.703125)"/>
      <use xlink:href="#STIXGeneral-Regular-34" transform="translate(61.099991 -12.525)scale(0.7)"/>
     </g>
    </g>
    <g clip-path="url(#pace8bfbb03)">
     <!-- 10Ω -->
     <g transform="translate(272.502108 43.700391)scale(0.125 -0.125)">
      <use xlink:href="#DejaVuSans-31"/>
      <use xlink:href="#DejaVuSans-30" x="63.623047"/>
      <use xlink:href="#DejaVuSans-3a9" x="127.246094"/>
     </g>
    </g>
   </g>
   <g id="text_12">
    <g clip-path="url(#pace8bfbb03)">
     <!-- $R_{6}$ -->
     <g transform="translate(370.7191 29.703125)scale(0.125 -0.125)">
      <use xlink:href="#STIXGeneral-Italic-52" transform="translate(0 0.703125)"/>
      <use xlink:href="#STIXGeneral-Regular-36" transform="translate(61.099991 -12.525)scale(0.7)"/>
     </g>
    </g>
    <g clip-path="url(#pace8bfbb03)">
     <!-- 4Ω -->
     <g transform="translate(368.27867 43.700391)scale(0.125 -0.125)">
      <use xlink:href="#DejaVuSans-34"/>
      <use xlink:href="#DejaVuSans-3a9" x="63.623047"/>
     </g>
    </g>
   </g>
   <g id="text_13">
    <g clip-path="url(#pace8bfbb03)">
     <!-- $R_{1}$ -->
     <g transform="translate(124.1966 114.660586)scale(0.125 -0.125)">
      <use xlink:href="#STIXGeneral-Italic-52" transform="translate(0 0.703125)"/>
      <use xlink:href="#STIXGeneral-Regular-31" transform="translate(61.099991 -12.525)scale(0.7)"/>
     </g>
    </g>
    <g clip-path="url(#pace8bfbb03)">
     <!-- 30Ω -->
     <g transform="translate(111.362616 128.657852)scale(0.125 -0.125)">
      <use xlink:href="#DejaVuSans-33"/>
      <use xlink:href="#DejaVuSans-30" x="63.623047"/>
      <use xlink:href="#DejaVuSans-3a9" x="127.246094"/>
     </g>
    </g>
   </g>
   <g id="text_14">
    <g clip-path="url(#pace8bfbb03)">
     <!-- $R_{3}$ -->
     <g transform="translate(215.9966 114.660586)scale(0.125 -0.125)">
      <use xlink:href="#STIXGeneral-Italic-52" transform="translate(0 0.703125)"/>
      <use xlink:href="#STIXGeneral-Regular-33" transform="translate(61.099991 -12.525)scale(0.7)"/>
     </g>
    </g>
    <g clip-path="url(#pace8bfbb03)">
     <!-- 25Ω -->
     <g transform="translate(203.162616 128.657852)scale(0.125 -0.125)">
      <use xlink:href="#DejaVuSans-32"/>
      <use xlink:href="#DejaVuSans-35" x="63.623047"/>
      <use xlink:href="#DejaVuSans-3a9" x="127.246094"/>
     </g>
    </g>
   </g>
   <g id="text_15">
    <g clip-path="url(#pace8bfbb03)">
     <!-- $R_{5}$ -->
     <g transform="translate(341.8416 84.060586)scale(0.125 -0.125)">
      <use xlink:href="#STIXGeneral-Italic-52" transform="translate(0 0.703125)"/>
      <use xlink:href="#STIXGeneral-Regular-35" transform="translate(61.099991 -12.525)scale(0.7)"/>
     </g>
    </g>
    <g clip-path="url(#pace8bfbb03)">
     <!-- 6Ω -->
     <g transform="translate(341.8416 98.057852)scale(0.125 -0.125)">
      <use xlink:href="#DejaVuSans-36"/>
      <use xlink:href="#DejaVuSans-3a9" x="63.623047"/>
     </g>
    </g>
   </g>
   <g id="text_16">
    <g clip-path="url(#pace8bfbb03)">
     <!-- $I_{S2}$ -->
     <g transform="translate(349.4916 145.260586)scale(0.125 -0.125)">
      <use xlink:href="#STIXGeneral-Italic-49" transform="translate(0 0.703125)"/>
      <use xlink:href="#STIXGeneral-Italic-53" transform="translate(33.299988 -12.525)scale(0.7)"/>
      <use xlink:href="#STIXGeneral-Regular-32" transform="translate(68.299977 -12.525)scale(0.7)"/>
     </g>
    </g>
    <g clip-path="url(#pace8bfbb03)">
     <!-- $10I_x$ -->
     <g transform="translate(349.4916 159.257852)scale(0.125 -0.125)">
      <use xlink:href="#STIXGeneral-Regular-31" transform="translate(0 0.40625)"/>
      <use xlink:href="#STIXGeneral-Regular-30" transform="translate(49.999985 0.40625)"/>
      <use xlink:href="#STIXGeneral-Italic-49" transform="translate(99.999969 0.40625)"/>
      <use xlink:href="#STIXGeneral-Italic-78" transform="translate(133.299957 -12.821875)scale(0.7)"/>
     </g>
    </g>
   </g>
   <g id="patch_6">
    <path d="M 422.9316 59.305 
C 423.540241 59.305 424.124036 59.063184 424.55441 58.63281 
C 424.984784 58.202436 425.2266 57.618641 425.2266 57.01 
C 425.2266 56.401359 424.984784 55.817564 424.55441 55.38719 
C 424.124036 54.956816 423.540241 54.715 422.9316 54.715 
C 422.322959 54.715 421.739164 54.956816 421.30879 55.38719 
C 420.878416 55.817564 420.6366 56.401359 420.6366 57.01 
C 420.6366 57.618641 420.878416 58.202436 421.30879 58.63281 
C 421.739164 59.063184 422.322959 59.305 422.9316 59.305 
z
" clip-path="url(#pace8bfbb03)" style="fill: #ffffff; stroke: #000000; stroke-width: 2; stroke-linejoin: miter"/>
   </g>
   <g id="text_17">
    <g clip-path="url(#pace8bfbb03)">
     <!-- A -->
     <g transform="translate(428.2866 60.459219)scale(0.125 -0.125)">
      <defs>
       <path id="DejaVuSans-41" d="M 2188 4044 
L 1331 1722 
L 3047 1722 
L 2188 4044 
z
M 1831 4666 
L 2547 4666 
L 4325 0 
L 3669 0 
L 3244 1197 
L 1141 1197 
L 716 0 
L 50 0 
L 1831 4666 
z
" transform="scale(0.015625)"/>
      </defs>
      <use xlink:href="#DejaVuSans-41"/>
     </g>
    </g>
   </g>
   <g id="patch_7">
    <path d="M 422.9316 181.705 
C 423.540241 181.705 424.124036 181.463184 424.55441 181.03281 
C 424.984784 180.602436 425.2266 180.018641 425.2266 179.41 
C 425.2266 178.801359 424.984784 178.217564 424.55441 177.78719 
C 424.124036 177.356816 423.540241 177.115 422.9316 177.115 
C 422.322959 177.115 421.739164 177.356816 421.30879 177.78719 
C 420.878416 178.217564 420.6366 178.801359 420.6366 179.41 
C 420.6366 180.018641 420.878416 180.602436 421.30879 181.03281 
C 421.739164 181.463184 422.322959 181.705 422.9316 181.705 
z
" clip-path="url(#pace8bfbb03)" style="fill: #ffffff; stroke: #000000; stroke-width: 2; stroke-linejoin: miter"/>
   </g>
   <g id="text_18">
    <g clip-path="url(#pace8bfbb03)">
     <!-- B -->
     <g transform="translate(428.2866 182.859219)scale(0.125 -0.125)">
      <defs>
       <path id="DejaVuSans-42" d="M 1259 2228 
L 1259 519 
L 2272 519 
Q 2781 519 3026 730 
Q 3272 941 3272 1375 
Q 3272 1813 3026 2020 
Q 2781 2228 2272 2228 
L 1259 2228 
z
M 1259 4147 
L 1259 2741 
L 2194 2741 
Q 2656 2741 2882 2914 
Q 3109 3088 3109 3444 
Q 3109 3797 2882 3972 
Q 2656 4147 2194 4147 
L 1259 4147 
z
M 628 4666 
L 2241 4666 
Q 2963 4666 3353 4366 
Q 3744 4066 3744 3513 
Q 3744 3084 3544 2831 
Q 3344 2578 2956 2516 
Q 3422 2416 3680 2098 
Q 3938 1781 3938 1306 
Q 3938 681 3513 340 
Q 3088 0 2303 0 
L 628 0 
L 628 4666 
z
" transform="scale(0.015625)"/>
      </defs>
      <use xlink:href="#DejaVuSans-42"/>
     </g>
    </g>
   </g>
   <g id="line2d_25">
    <path d="M 239.3316 148.81 
L 239.3316 148.81 
" clip-path="url(#pace8bfbb03)" style="fill: none; stroke: #000000; stroke-width: 2; stroke-linecap: round"/>
   </g>
   <g id="patch_8">
    <path d="M 243.9216 148.81 
L 239.3316 157.99 
L 234.7416 148.81 
z
" clip-path="url(#pace8bfbb03)"/>
   </g>
   <g id="text_19">
    <g clip-path="url(#pace8bfbb03)">
     <!-- $I_{x}$ -->
     <g transform="translate(221.5266 156.849219)scale(0.125 -0.125)">
      <use xlink:href="#STIXGeneral-Italic-49" transform="translate(0 0.703125)"/>
      <use xlink:href="#STIXGeneral-Italic-78" transform="translate(33.299988 -12.525)scale(0.7)"/>
     </g>
    </g>
   </g>
   <g id="patch_9">
    <path d="M 422.9316 59.305 
C 423.540241 59.305 424.124036 59.063184 424.55441 58.63281 
C 424.984784 58.202436 425.2266 57.618641 425.2266 57.01 
C 425.2266 56.401359 424.984784 55.817564 424.55441 55.38719 
C 424.124036 54.956816 423.540241 54.715 422.9316 54.715 
C 422.322959 54.715 421.739164 54.956816 421.30879 55.38719 
C 420.878416 55.817564 420.6366 56.401359 420.6366 57.01 
C 420.6366 57.618641 420.878416 58.202436 421.30879 58.63281 
C 421.739164 59.063184 422.322959 59.305 422.9316 59.305 
z
" clip-path="url(#pace8bfbb03)" style="fill: #ffffff; stroke: #000000; stroke-width: 2; stroke-linejoin: miter"/>
   </g>
   <g id="text_20">
    <g clip-path="url(#pace8bfbb03)">
     <!-- A -->
     <g transform="translate(428.2866 60.459219)scale(0.125 -0.125)">
      <use xlink:href="#DejaVuSans-41"/>
     </g>
    </g>
   </g>
   <g id="patch_10">
    <path d="M 422.9316 181.705 
C 423.540241 181.705 424.124036 181.463184 424.55441 181.03281 
C 424.984784 180.602436 425.2266 180.018641 425.2266 179.41 
C 425.2266 178.801359 424.984784 178.217564 424.55441 177.78719 
C 424.124036 177.356816 423.540241 177.115 422.9316 177.115 
C 422.322959 177.115 421.739164 177.356816 421.30879 177.78719 
C 420.878416 178.217564 420.6366 178.801359 420.6366 179.41 
C 420.6366 180.018641 420.878416 180.602436 421.30879 181.03281 
C 421.739164 181.463184 422.322959 181.705 422.9316 181.705 
z
" clip-path="url(#pace8bfbb03)" style="fill: #ffffff; stroke: #000000; stroke-width: 2; stroke-linejoin: miter"/>
   </g>
   <g id="text_21">
    <g clip-path="url(#pace8bfbb03)">
     <!-- B -->
     <g transform="translate(428.2866 182.859219)scale(0.125 -0.125)">
      <use xlink:href="#DejaVuSans-42"/>
     </g>
    </g>
   </g>
   <g id="line2d_26">
    <path d="M 239.3316 148.81 
L 239.3316 148.81 
" clip-path="url(#pace8bfbb03)" style="fill: none; stroke: #000000; stroke-width: 2; stroke-linecap: round"/>
   </g>
   <g id="patch_11">
    <path d="M 243.9216 148.81 
L 239.3316 157.99 
L 234.7416 148.81 
z
" clip-path="url(#pace8bfbb03)"/>
   </g>
   <g id="text_22">
    <g clip-path="url(#pace8bfbb03)">
     <!-- $I_{x}$ -->
     <g transform="translate(221.5266 156.849219)scale(0.125 -0.125)">
      <use xlink:href="#STIXGeneral-Italic-49" transform="translate(0 0.703125)"/>
      <use xlink:href="#STIXGeneral-Italic-78" transform="translate(33.299988 -12.525)scale(0.7)"/>
     </g>
    </g>
   </g>
  </g>
 </g>
 <defs>
  <clipPath id="pace8bfbb03">
   <rect x="7.2" y="7.2" width="444.3834" height="186.15"/>
  </clipPath>
 </defs>
</svg>
