<?xml version="1.0" encoding="utf-8" standalone="no"?>
<!DOCTYPE svg PUBLIC "-//W3C//DTD SVG 1.1//EN"
  "http://www.w3.org/Graphics/SVG/1.1/DTD/svg11.dtd">
<svg xmlns:xlink="http://www.w3.org/1999/xlink" width="320.5632pt" height="159.07pt" viewBox="0 0 320.5632 159.07" xmlns="http://www.w3.org/2000/svg" version="1.1">
 <metadata>
  <rdf:RDF xmlns:dc="http://purl.org/dc/elements/1.1/" xmlns:cc="http://creativecommons.org/ns#" xmlns:rdf="http://www.w3.org/1999/02/22-rdf-syntax-ns#">
   <cc:Work>
    <dc:type rdf:resource="http://purl.org/dc/dcmitype/StillImage"/>
    <dc:date>2023-06-27T11:50:01.978871</dc:date>
    <dc:format>image/svg+xml</dc:format>
    <dc:creator>
     <cc:Agent>
      <dc:title>Matplotlib v3.5.2, https://matplotlib.org/</dc:title>
     </cc:Agent>
    </dc:creator>
   </cc:Work>
  </rdf:RDF>
 </metadata>
 <defs>
  <style type="text/css">*{stroke-linejoin: round; stroke-linecap: butt}</style>
 </defs>
 <g id="figure_1">
  <g id="patch_1">
   <path d="M 0 159.07 
L 320.5632 159.07 
L 320.5632 0 
L 0 0 
L 0 159.07 
z
" style="fill: none"/>
  </g>
  <g id="axes_1">
   <g id="patch_2">
    <path d="M 112.311455 98.317697 
C 111.650519 96.391341 110.767381 94.637514 109.699084 93.129784 
C 108.630788 91.622054 107.392484 90.381801 106.036115 89.461051 
C 104.679746 88.540301 103.224546 87.95211 101.731559 87.721153 
C 100.238571 87.490195 98.728966 87.619746 97.266069 88.10437 
C 95.803172 88.588994 94.407727 89.42182 93.13827 90.567912 
C 91.868813 91.714004 90.743345 93.15711 89.809078 94.836695 
C 88.87481 96.51628 88.144991 98.408528 87.650234 100.434061 
C 87.155478 102.459595 86.9028 104.589692 86.9028 106.735 
C 86.9028 108.880308 87.155478 111.010405 87.650234 113.035939 
C 88.144991 115.061472 88.87481 116.95372 89.809078 118.633305 
C 90.743345 120.31289 91.868813 121.755996 93.13827 122.902088 
C 94.407727 124.04818 95.803172 124.881006 97.266069 125.36563 
C 98.728966 125.850254 100.238571 125.979805 101.731559 125.748847 
C 103.224546 125.51789 104.679746 124.929699 106.036115 124.008949 
C 107.392484 123.088199 108.630788 121.847946 109.699084 120.340216 
C 110.767381 118.832486 111.650519 117.078659 112.311455 115.152303 
" clip-path="url(#p2ef7ca729d)" style="fill: none; stroke: #ff0000; stroke-width: 2; stroke-linejoin: miter"/>
   </g>
   <g id="patch_3">
    <path d="M 115.813053 105.461697 
L 110.385362 99.602542 
L 112.432393 98.5992 
L 112.297717 98.32443 
L 112.325193 98.310963 
L 112.45987 98.585732 
L 114.506901 97.582389 
z
" clip-path="url(#p2ef7ca729d)" style="fill: #ff0000; stroke: #ff0000; stroke-linejoin: miter"/>
   </g>
   <g id="patch_4">
    <path d="M 230.699479 91.752884 
C 225.629376 89.518051 219.526149 88.122216 213.093407 87.726296 
C 206.660664 87.330376 200.155486 87.950194 194.327822 89.514295 
C 188.500157 91.078396 183.582903 93.524272 180.142945 96.56995 
C 176.702987 99.615628 174.8778 103.13939 174.8778 106.735 
C 174.8778 110.33061 176.702987 113.854372 180.142945 116.90005 
C 183.582903 119.945728 188.500157 122.391604 194.327822 123.955705 
C 200.155486 125.519806 206.660664 126.139624 213.093407 125.743704 
C 219.526149 125.347784 225.629376 123.951949 230.699479 121.717116 
" clip-path="url(#p2ef7ca729d)" style="fill: none; stroke: #0000ff; stroke-width: 2; stroke-linejoin: miter"/>
   </g>
   <g id="patch_5">
    <path d="M 236.93204 96.697894 
L 229.512748 93.74093 
L 230.929684 91.955062 
L 230.68997 91.764869 
L 230.708989 91.740898 
L 230.948703 91.931091 
L 232.365639 90.145223 
z
" clip-path="url(#p2ef7ca729d)" style="fill: #0000ff; stroke: #0000ff; stroke-linejoin: miter"/>
   </g>
   <g id="patch_6">
    <path d="M 112.311455 98.317697 
C 111.650519 96.391341 110.767381 94.637514 109.699084 93.129784 
C 108.630788 91.622054 107.392484 90.381801 106.036115 89.461051 
C 104.679746 88.540301 103.224546 87.95211 101.731559 87.721153 
C 100.238571 87.490195 98.728966 87.619746 97.266069 88.10437 
C 95.803172 88.588994 94.407727 89.42182 93.13827 90.567912 
C 91.868813 91.714004 90.743345 93.15711 89.809078 94.836695 
C 88.87481 96.51628 88.144991 98.408528 87.650234 100.434061 
C 87.155478 102.459595 86.9028 104.589692 86.9028 106.735 
C 86.9028 108.880308 87.155478 111.010405 87.650234 113.035939 
C 88.144991 115.061472 88.87481 116.95372 89.809078 118.633305 
C 90.743345 120.31289 91.868813 121.755996 93.13827 122.902088 
C 94.407727 124.04818 95.803172 124.881006 97.266069 125.36563 
C 98.728966 125.850254 100.238571 125.979805 101.731559 125.748847 
C 103.224546 125.51789 104.679746 124.929699 106.036115 124.008949 
C 107.392484 123.088199 108.630788 121.847946 109.699084 120.340216 
C 110.767381 118.832486 111.650519 117.078659 112.311455 115.152303 
" clip-path="url(#p2ef7ca729d)" style="fill: none; stroke: #ff0000; stroke-width: 2; stroke-linejoin: miter"/>
   </g>
   <g id="patch_7">
    <path d="M 115.813053 105.461697 
L 110.385362 99.602542 
L 112.432393 98.5992 
L 112.297717 98.32443 
L 112.325193 98.310963 
L 112.45987 98.585732 
L 114.506901 97.582389 
z
" clip-path="url(#p2ef7ca729d)" style="fill: #ff0000; stroke: #ff0000; stroke-linejoin: miter"/>
   </g>
   <g id="patch_8">
    <path d="M 230.699479 91.752884 
C 225.629376 89.518051 219.526149 88.122216 213.093407 87.726296 
C 206.660664 87.330376 200.155486 87.950194 194.327822 89.514295 
C 188.500157 91.078396 183.582903 93.524272 180.142945 96.56995 
C 176.702987 99.615628 174.8778 103.13939 174.8778 106.735 
C 174.8778 110.33061 176.702987 113.854372 180.142945 116.90005 
C 183.582903 119.945728 188.500157 122.391604 194.327822 123.955705 
C 200.155486 125.519806 206.660664 126.139624 213.093407 125.743704 
C 219.526149 125.347784 225.629376 123.951949 230.699479 121.717116 
" clip-path="url(#p2ef7ca729d)" style="fill: none; stroke: #0000ff; stroke-width: 2; stroke-linejoin: miter"/>
   </g>
   <g id="patch_9">
    <path d="M 236.93204 96.697894 
L 229.512748 93.74093 
L 230.929684 91.955062 
L 230.68997 91.764869 
L 230.708989 91.740898 
L 230.948703 91.931091 
L 232.365639 90.145223 
z
" clip-path="url(#p2ef7ca729d)" style="fill: #0000ff; stroke: #0000ff; stroke-linejoin: miter"/>
   </g>
   <g id="line2d_1">
    <path d="M 52.4778 148.81 
L 52.4778 111.51625 
M 52.4778 94.30375 
L 52.4778 57.01 
" clip-path="url(#p2ef7ca729d)" style="fill: none; stroke: #000000; stroke-width: 2; stroke-linecap: round"/>
   </g>
   <g id="line2d_2">
    <path d="M 63.9528 94.30375 
L 41.0028 94.30375 
" clip-path="url(#p2ef7ca729d)" style="fill: none; stroke: #000000; stroke-width: 2; stroke-linecap: round"/>
   </g>
   <g id="line2d_3">
    <path d="M 58.2153 100.04125 
L 46.7403 100.04125 
" clip-path="url(#p2ef7ca729d)" style="fill: none; stroke: #000000; stroke-width: 2; stroke-linecap: round"/>
   </g>
   <g id="line2d_4">
    <path d="M 63.9528 105.77875 
L 41.0028 105.77875 
" clip-path="url(#p2ef7ca729d)" style="fill: none; stroke: #000000; stroke-width: 2; stroke-linecap: round"/>
   </g>
   <g id="line2d_5">
    <path d="M 58.2153 111.51625 
L 46.7403 111.51625 
" clip-path="url(#p2ef7ca729d)" style="fill: none; stroke: #000000; stroke-width: 2; stroke-linecap: round"/>
   </g>
   <g id="line2d_6">
    <path d="M 52.4778 57.01 
L 83.0778 57.01 
L 85.6278 49.36 
L 90.7278 64.66 
L 95.8278 49.36 
L 100.9278 64.66 
L 106.0278 49.36 
L 111.1278 64.66 
L 113.6778 57.01 
L 144.2778 57.01 
" clip-path="url(#p2ef7ca729d)" style="fill: none; stroke: #000000; stroke-width: 2; stroke-linecap: round"/>
   </g>
   <g id="line2d_7">
    <path d="M 144.2778 57.01 
L 174.8778 57.01 
L 177.4278 49.36 
L 182.5278 64.66 
L 187.6278 49.36 
L 192.7278 64.66 
L 197.8278 49.36 
L 202.9278 64.66 
L 205.4778 57.01 
L 236.0778 57.01 
" clip-path="url(#p2ef7ca729d)" style="fill: none; stroke: #000000; stroke-width: 2; stroke-linecap: round"/>
   </g>
   <g id="line2d_8">
    <path d="M 236.0778 57.01 
L 251.3778 57.01 
L 266.6778 57.01 
" clip-path="url(#p2ef7ca729d)" style="fill: none; stroke: #000000; stroke-width: 2; stroke-linecap: round"/>
   </g>
   <g id="line2d_9">
    <path d="M 266.6778 57.01 
L 266.6778 64.66 
L 266.6778 72.31 
" clip-path="url(#p2ef7ca729d)" style="fill: none; stroke: #000000; stroke-width: 2; stroke-linecap: round"/>
   </g>
   <g id="line2d_10">
    <path d="M 266.6778 72.31 
L 266.6778 102.91 
L 266.6778 133.51 
" clip-path="url(#p2ef7ca729d)" style="fill: none; stroke: #000000; stroke-width: 2; stroke-linecap: round"/>
   </g>
   <g id="line2d_11">
    <path d="M 266.6778 133.51 
L 266.6778 141.16 
L 266.6778 148.81 
" clip-path="url(#p2ef7ca729d)" style="fill: none; stroke: #000000; stroke-width: 2; stroke-linecap: round"/>
   </g>
   <g id="line2d_12">
    <path d="M 266.6778 148.81 
L 159.5778 148.81 
L 52.4778 148.81 
" clip-path="url(#p2ef7ca729d)" style="fill: none; stroke: #000000; stroke-width: 2; stroke-linecap: round"/>
   </g>
   <g id="line2d_13">
    <path d="M 144.2778 57.01 
L 144.2778 87.61 
L 151.9278 90.16 
L 136.6278 95.26 
L 151.9278 100.36 
L 136.6278 105.46 
L 151.9278 110.56 
L 136.6278 115.66 
L 144.2778 118.21 
L 144.2778 148.81 
" clip-path="url(#p2ef7ca729d)" style="fill: none; stroke: #000000; stroke-width: 2; stroke-linecap: round"/>
   </g>
   <g id="line2d_14">
    <path d="M 52.4778 148.81 
L 52.4778 111.51625 
M 52.4778 94.30375 
L 52.4778 57.01 
" clip-path="url(#p2ef7ca729d)" style="fill: none; stroke: #000000; stroke-width: 2; stroke-linecap: round"/>
   </g>
   <g id="line2d_15">
    <path d="M 63.9528 94.30375 
L 41.0028 94.30375 
" clip-path="url(#p2ef7ca729d)" style="fill: none; stroke: #000000; stroke-width: 2; stroke-linecap: round"/>
   </g>
   <g id="line2d_16">
    <path d="M 58.2153 100.04125 
L 46.7403 100.04125 
" clip-path="url(#p2ef7ca729d)" style="fill: none; stroke: #000000; stroke-width: 2; stroke-linecap: round"/>
   </g>
   <g id="line2d_17">
    <path d="M 63.9528 105.77875 
L 41.0028 105.77875 
" clip-path="url(#p2ef7ca729d)" style="fill: none; stroke: #000000; stroke-width: 2; stroke-linecap: round"/>
   </g>
   <g id="line2d_18">
    <path d="M 58.2153 111.51625 
L 46.7403 111.51625 
" clip-path="url(#p2ef7ca729d)" style="fill: none; stroke: #000000; stroke-width: 2; stroke-linecap: round"/>
   </g>
   <g id="line2d_19">
    <path d="M 52.4778 57.01 
L 83.0778 57.01 
L 85.6278 49.36 
L 90.7278 64.66 
L 95.8278 49.36 
L 100.9278 64.66 
L 106.0278 49.36 
L 111.1278 64.66 
L 113.6778 57.01 
L 144.2778 57.01 
" clip-path="url(#p2ef7ca729d)" style="fill: none; stroke: #000000; stroke-width: 2; stroke-linecap: round"/>
   </g>
   <g id="line2d_20">
    <path d="M 144.2778 57.01 
L 174.8778 57.01 
L 177.4278 49.36 
L 182.5278 64.66 
L 187.6278 49.36 
L 192.7278 64.66 
L 197.8278 49.36 
L 202.9278 64.66 
L 205.4778 57.01 
L 236.0778 57.01 
" clip-path="url(#p2ef7ca729d)" style="fill: none; stroke: #000000; stroke-width: 2; stroke-linecap: round"/>
   </g>
   <g id="line2d_21">
    <path d="M 236.0778 57.01 
L 251.3778 57.01 
L 266.6778 57.01 
" clip-path="url(#p2ef7ca729d)" style="fill: none; stroke: #000000; stroke-width: 2; stroke-linecap: round"/>
   </g>
   <g id="line2d_22">
    <path d="M 266.6778 57.01 
L 266.6778 64.66 
L 266.6778 72.31 
" clip-path="url(#p2ef7ca729d)" style="fill: none; stroke: #000000; stroke-width: 2; stroke-linecap: round"/>
   </g>
   <g id="line2d_23">
    <path d="M 266.6778 72.31 
L 266.6778 102.91 
L 266.6778 133.51 
" clip-path="url(#p2ef7ca729d)" style="fill: none; stroke: #000000; stroke-width: 2; stroke-linecap: round"/>
   </g>
   <g id="line2d_24">
    <path d="M 266.6778 133.51 
L 266.6778 141.16 
L 266.6778 148.81 
" clip-path="url(#p2ef7ca729d)" style="fill: none; stroke: #000000; stroke-width: 2; stroke-linecap: round"/>
   </g>
   <g id="line2d_25">
    <path d="M 266.6778 148.81 
L 159.5778 148.81 
L 52.4778 148.81 
" clip-path="url(#p2ef7ca729d)" style="fill: none; stroke: #000000; stroke-width: 2; stroke-linecap: round"/>
   </g>
   <g id="line2d_26">
    <path d="M 144.2778 57.01 
L 144.2778 87.61 
L 151.9278 90.16 
L 136.6278 95.26 
L 151.9278 100.36 
L 136.6278 105.46 
L 151.9278 110.56 
L 136.6278 115.66 
L 144.2778 118.21 
L 144.2778 148.81 
" clip-path="url(#p2ef7ca729d)" style="fill: none; stroke: #000000; stroke-width: 2; stroke-linecap: round"/>
   </g>
   <g id="text_1">
    <g clip-path="url(#p2ef7ca729d)">
     <!-- $V_{S}$ -->
     <g transform="translate(25.3178 99.360586)scale(0.125 -0.125)">
      <defs>
       <path id="STIXGeneral-Italic-56" d="M 4403 4179 
L 4403 4077 
Q 4198 4070 4045 3821 
L 1658 -115 
L 1536 -115 
L 1011 3104 
Q 902 3776 828 3910 
Q 755 4045 486 4077 
L 486 4179 
L 2022 4179 
L 2022 4077 
Q 1722 4045 1629 3981 
Q 1536 3917 1536 3750 
Q 1536 3686 1542 3654 
L 1958 819 
L 3302 3123 
Q 3616 3661 3616 3859 
Q 3616 4032 3219 4077 
L 3219 4179 
L 4403 4179 
z
" transform="scale(0.015625)"/>
       <path id="STIXGeneral-Italic-53" d="M 3251 4269 
L 2995 2989 
L 2880 3008 
Q 2880 3539 2720 3795 
Q 2560 4051 2118 4051 
Q 1786 4051 1594 3881 
Q 1402 3712 1402 3411 
Q 1402 3168 1504 3005 
Q 1606 2842 2035 2413 
Q 2464 1978 2611 1715 
Q 2758 1453 2758 1133 
Q 2758 589 2390 237 
Q 2022 -115 1466 -115 
Q 1222 -115 800 32 
Q 595 109 499 109 
Q 288 109 224 -96 
L 109 -96 
L 326 1338 
L 454 1325 
Q 442 1267 442 1178 
Q 442 710 701 409 
Q 960 109 1363 109 
Q 1734 109 1968 336 
Q 2202 563 2202 928 
Q 2202 1139 2118 1308 
Q 2035 1478 1818 1715 
L 1568 1984 
Q 1549 2003 1459 2102 
Q 1370 2202 1318 2253 
Q 1030 2560 934 2755 
Q 838 2950 838 3213 
Q 838 3699 1168 3980 
Q 1498 4262 1978 4262 
Q 2310 4262 2522 4173 
Q 2707 4102 2816 4102 
Q 2925 4102 2982 4134 
Q 3040 4166 3104 4269 
L 3251 4269 
z
" transform="scale(0.015625)"/>
      </defs>
      <use xlink:href="#STIXGeneral-Italic-56" transform="translate(0 0.703125)"/>
      <use xlink:href="#STIXGeneral-Italic-53" transform="translate(61.099991 -12.525)scale(0.7)"/>
     </g>
    </g>
    <g clip-path="url(#p2ef7ca729d)">
     <!-- 12V -->
     <g transform="translate(13.485769 113.357852)scale(0.125 -0.125)">
      <defs>
       <path id="DejaVuSans-31" d="M 794 531 
L 1825 531 
L 1825 4091 
L 703 3866 
L 703 4441 
L 1819 4666 
L 2450 4666 
L 2450 531 
L 3481 531 
L 3481 0 
L 794 0 
L 794 531 
z
" transform="scale(0.015625)"/>
       <path id="DejaVuSans-32" d="M 1228 531 
L 3431 531 
L 3431 0 
L 469 0 
L 469 531 
Q 828 903 1448 1529 
Q 2069 2156 2228 2338 
Q 2531 2678 2651 2914 
Q 2772 3150 2772 3378 
Q 2772 3750 2511 3984 
Q 2250 4219 1831 4219 
Q 1534 4219 1204 4116 
Q 875 4013 500 3803 
L 500 4441 
Q 881 4594 1212 4672 
Q 1544 4750 1819 4750 
Q 2544 4750 2975 4387 
Q 3406 4025 3406 3419 
Q 3406 3131 3298 2873 
Q 3191 2616 2906 2266 
Q 2828 2175 2409 1742 
Q 1991 1309 1228 531 
z
" transform="scale(0.015625)"/>
       <path id="DejaVuSans-56" d="M 1831 0 
L 50 4666 
L 709 4666 
L 2188 738 
L 3669 4666 
L 4325 4666 
L 2547 0 
L 1831 0 
z
" transform="scale(0.015625)"/>
      </defs>
      <use xlink:href="#DejaVuSans-31"/>
      <use xlink:href="#DejaVuSans-32" x="63.623047"/>
      <use xlink:href="#DejaVuSans-56" x="127.246094"/>
     </g>
    </g>
   </g>
   <g id="text_2">
    <g clip-path="url(#p2ef7ca729d)">
     <!-- $R_{1}$ -->
     <g transform="translate(92.0653 29.703125)scale(0.125 -0.125)">
      <defs>
       <path id="STIXGeneral-Italic-52" d="M 845 4179 
L 2458 4179 
Q 3078 4179 3420 3936 
Q 3763 3693 3763 3277 
Q 3763 2778 3341 2458 
Q 3091 2266 2502 2131 
L 3072 627 
Q 3181 333 3299 217 
Q 3418 102 3629 102 
L 3629 0 
L 2688 0 
L 1901 2074 
L 1478 2106 
L 1126 806 
Q 1043 512 1043 403 
Q 1043 256 1126 192 
Q 1210 128 1472 102 
L 1472 0 
L -83 0 
L -83 102 
Q 173 134 278 243 
Q 384 352 461 646 
L 1222 3405 
Q 1299 3699 1299 3808 
Q 1299 3923 1210 3987 
Q 1133 4038 845 4077 
L 845 4179 
z
M 1958 3795 
L 1555 2342 
Q 1754 2310 1882 2310 
Q 2451 2310 2771 2566 
Q 3091 2822 3091 3270 
Q 3091 3603 2892 3795 
Q 2694 3987 2323 3987 
Q 2010 3987 1958 3795 
z
" transform="scale(0.015625)"/>
       <path id="STIXGeneral-Regular-31" d="M 2522 0 
L 755 0 
L 755 96 
Q 1107 115 1235 227 
Q 1363 339 1363 608 
L 1363 3482 
Q 1363 3795 1171 3795 
Q 1082 3795 883 3718 
L 710 3654 
L 710 3744 
L 1856 4326 
L 1914 4307 
L 1914 486 
Q 1914 275 2042 185 
Q 2170 96 2522 96 
L 2522 0 
z
" transform="scale(0.015625)"/>
      </defs>
      <use xlink:href="#STIXGeneral-Italic-52" transform="translate(0 0.703125)"/>
      <use xlink:href="#STIXGeneral-Regular-31" transform="translate(61.099991 -12.525)scale(0.7)"/>
     </g>
    </g>
    <g clip-path="url(#p2ef7ca729d)">
     <!-- 3Ω -->
     <g transform="translate(89.62487 43.700391)scale(0.125 -0.125)">
      <defs>
       <path id="DejaVuSans-33" d="M 2597 2516 
Q 3050 2419 3304 2112 
Q 3559 1806 3559 1356 
Q 3559 666 3084 287 
Q 2609 -91 1734 -91 
Q 1441 -91 1130 -33 
Q 819 25 488 141 
L 488 750 
Q 750 597 1062 519 
Q 1375 441 1716 441 
Q 2309 441 2620 675 
Q 2931 909 2931 1356 
Q 2931 1769 2642 2001 
Q 2353 2234 1838 2234 
L 1294 2234 
L 1294 2753 
L 1863 2753 
Q 2328 2753 2575 2939 
Q 2822 3125 2822 3475 
Q 2822 3834 2567 4026 
Q 2313 4219 1838 4219 
Q 1578 4219 1281 4162 
Q 984 4106 628 3988 
L 628 4550 
Q 988 4650 1302 4700 
Q 1616 4750 1894 4750 
Q 2613 4750 3031 4423 
Q 3450 4097 3450 3541 
Q 3450 3153 3228 2886 
Q 3006 2619 2597 2516 
z
" transform="scale(0.015625)"/>
       <path id="DejaVuSans-3a9" d="M 4647 556 
L 4647 0 
L 2772 0 
L 2772 556 
Q 3325 859 3634 1378 
Q 3944 1897 3944 2528 
Q 3944 3278 3531 3731 
Q 3119 4184 2444 4184 
Q 1769 4184 1355 3729 
Q 941 3275 941 2528 
Q 941 1897 1250 1378 
Q 1563 859 2119 556 
L 2119 0 
L 244 0 
L 244 556 
L 1241 556 
Q 747 991 519 1456 
Q 294 1922 294 2497 
Q 294 3491 894 4106 
Q 1491 4722 2444 4722 
Q 3391 4722 3994 4106 
Q 4594 3494 4594 2528 
Q 4594 1922 4372 1459 
Q 4150 997 3647 556 
L 4647 556 
z
" transform="scale(0.015625)"/>
      </defs>
      <use xlink:href="#DejaVuSans-33"/>
      <use xlink:href="#DejaVuSans-3a9" x="63.623047"/>
     </g>
    </g>
   </g>
   <g id="text_3">
    <g clip-path="url(#p2ef7ca729d)">
     <!-- $R_{3}$ -->
     <g transform="translate(183.8653 29.703125)scale(0.125 -0.125)">
      <defs>
       <path id="STIXGeneral-Regular-33" d="M 390 3264 
L 288 3290 
Q 435 3770 748 4048 
Q 1062 4326 1542 4326 
Q 1990 4326 2265 4083 
Q 2541 3840 2541 3450 
Q 2541 2925 1946 2566 
Q 2298 2413 2477 2227 
Q 2758 1914 2758 1402 
Q 2758 890 2464 506 
Q 2246 211 1840 60 
Q 1434 -90 979 -90 
Q 262 -90 262 275 
Q 262 378 339 442 
Q 416 506 525 506 
Q 685 506 915 339 
Q 1197 141 1466 141 
Q 1818 141 2058 425 
Q 2298 710 2298 1120 
Q 2298 1856 1632 2048 
Q 1434 2112 979 2112 
L 979 2202 
Q 1338 2323 1517 2432 
Q 2035 2726 2035 3290 
Q 2035 3610 1852 3776 
Q 1670 3942 1344 3942 
Q 768 3942 390 3264 
z
" transform="scale(0.015625)"/>
      </defs>
      <use xlink:href="#STIXGeneral-Italic-52" transform="translate(0 0.703125)"/>
      <use xlink:href="#STIXGeneral-Regular-33" transform="translate(61.099991 -12.525)scale(0.7)"/>
     </g>
    </g>
    <g clip-path="url(#p2ef7ca729d)">
     <!-- 5Ω -->
     <g transform="translate(181.42487 43.700391)scale(0.125 -0.125)">
      <defs>
       <path id="DejaVuSans-35" d="M 691 4666 
L 3169 4666 
L 3169 4134 
L 1269 4134 
L 1269 2991 
Q 1406 3038 1543 3061 
Q 1681 3084 1819 3084 
Q 2600 3084 3056 2656 
Q 3513 2228 3513 1497 
Q 3513 744 3044 326 
Q 2575 -91 1722 -91 
Q 1428 -91 1123 -41 
Q 819 9 494 109 
L 494 744 
Q 775 591 1075 516 
Q 1375 441 1709 441 
Q 2250 441 2565 725 
Q 2881 1009 2881 1497 
Q 2881 1984 2565 2268 
Q 2250 2553 1709 2553 
Q 1456 2553 1204 2497 
Q 953 2441 691 2322 
L 691 4666 
z
" transform="scale(0.015625)"/>
      </defs>
      <use xlink:href="#DejaVuSans-35"/>
      <use xlink:href="#DejaVuSans-3a9" x="63.623047"/>
     </g>
    </g>
   </g>
   <g id="text_4">
    <g clip-path="url(#p2ef7ca729d)">
     <!-- $R_{2}$ -->
     <g transform="translate(154.9878 99.360586)scale(0.125 -0.125)">
      <defs>
       <path id="STIXGeneral-Regular-32" d="M 3034 877 
L 2688 0 
L 186 0 
L 186 77 
L 1325 1286 
Q 1773 1754 1965 2144 
Q 2157 2534 2157 2950 
Q 2157 3379 1920 3616 
Q 1683 3853 1267 3853 
Q 922 3853 720 3673 
Q 518 3494 326 3021 
L 192 3053 
Q 301 3648 630 3987 
Q 960 4326 1523 4326 
Q 2054 4326 2380 4006 
Q 2707 3686 2707 3200 
Q 2707 2477 1888 1613 
L 832 486 
L 2330 486 
Q 2541 486 2665 569 
Q 2790 653 2944 915 
L 3034 877 
z
" transform="scale(0.015625)"/>
      </defs>
      <use xlink:href="#STIXGeneral-Italic-52" transform="translate(0 0.703125)"/>
      <use xlink:href="#STIXGeneral-Regular-32" transform="translate(61.099991 -12.525)scale(0.7)"/>
     </g>
    </g>
    <g clip-path="url(#p2ef7ca729d)">
     <!-- 6Ω -->
     <g transform="translate(154.9878 113.357852)scale(0.125 -0.125)">
      <defs>
       <path id="DejaVuSans-36" d="M 2113 2584 
Q 1688 2584 1439 2293 
Q 1191 2003 1191 1497 
Q 1191 994 1439 701 
Q 1688 409 2113 409 
Q 2538 409 2786 701 
Q 3034 994 3034 1497 
Q 3034 2003 2786 2293 
Q 2538 2584 2113 2584 
z
M 3366 4563 
L 3366 3988 
Q 3128 4100 2886 4159 
Q 2644 4219 2406 4219 
Q 1781 4219 1451 3797 
Q 1122 3375 1075 2522 
Q 1259 2794 1537 2939 
Q 1816 3084 2150 3084 
Q 2853 3084 3261 2657 
Q 3669 2231 3669 1497 
Q 3669 778 3244 343 
Q 2819 -91 2113 -91 
Q 1303 -91 875 529 
Q 447 1150 447 2328 
Q 447 3434 972 4092 
Q 1497 4750 2381 4750 
Q 2619 4750 2861 4703 
Q 3103 4656 3366 4563 
z
" transform="scale(0.015625)"/>
      </defs>
      <use xlink:href="#DejaVuSans-36"/>
      <use xlink:href="#DejaVuSans-3a9" x="63.623047"/>
     </g>
    </g>
   </g>
   <g id="text_5">
    <g clip-path="url(#p2ef7ca729d)">
     <!-- $I_1$ -->
     <g style="fill: #ff0000" transform="translate(95.7278 110.184219)scale(0.125 -0.125)">
      <defs>
       <path id="STIXGeneral-Italic-49" d="M 2458 4179 
L 2458 4077 
Q 2189 4045 2102 3961 
Q 2016 3878 1933 3584 
L 1165 838 
Q 1069 499 1069 352 
Q 1069 224 1149 179 
Q 1229 134 1510 102 
L 1510 0 
L -51 0 
L -51 102 
Q 218 154 317 237 
Q 416 320 486 582 
L 1254 3405 
Q 1338 3699 1338 3802 
Q 1338 3930 1235 3997 
Q 1133 4064 877 4077 
L 877 4179 
L 2458 4179 
z
" transform="scale(0.015625)"/>
      </defs>
      <use xlink:href="#STIXGeneral-Italic-49" transform="translate(0 0.703125)"/>
      <use xlink:href="#STIXGeneral-Regular-31" transform="translate(33.299988 -12.525)scale(0.7)"/>
     </g>
    </g>
   </g>
   <g id="text_6">
    <g clip-path="url(#p2ef7ca729d)">
     <!-- $I_2$ -->
     <g style="fill: #0000ff" transform="translate(204.7403 110.184219)scale(0.125 -0.125)">
      <use xlink:href="#STIXGeneral-Italic-49" transform="translate(0 0.703125)"/>
      <use xlink:href="#STIXGeneral-Regular-32" transform="translate(33.299988 -12.525)scale(0.7)"/>
     </g>
    </g>
   </g>
   <g id="text_7">
    <g clip-path="url(#p2ef7ca729d)">
     <!-- $V_{S}$ -->
     <g transform="translate(25.3178 99.360586)scale(0.125 -0.125)">
      <use xlink:href="#STIXGeneral-Italic-56" transform="translate(0 0.703125)"/>
      <use xlink:href="#STIXGeneral-Italic-53" transform="translate(61.099991 -12.525)scale(0.7)"/>
     </g>
    </g>
    <g clip-path="url(#p2ef7ca729d)">
     <!-- 12V -->
     <g transform="translate(13.485769 113.357852)scale(0.125 -0.125)">
      <use xlink:href="#DejaVuSans-31"/>
      <use xlink:href="#DejaVuSans-32" x="63.623047"/>
      <use xlink:href="#DejaVuSans-56" x="127.246094"/>
     </g>
    </g>
   </g>
   <g id="text_8">
    <g clip-path="url(#p2ef7ca729d)">
     <!-- $R_{1}$ -->
     <g transform="translate(92.0653 29.703125)scale(0.125 -0.125)">
      <use xlink:href="#STIXGeneral-Italic-52" transform="translate(0 0.703125)"/>
      <use xlink:href="#STIXGeneral-Regular-31" transform="translate(61.099991 -12.525)scale(0.7)"/>
     </g>
    </g>
    <g clip-path="url(#p2ef7ca729d)">
     <!-- 3Ω -->
     <g transform="translate(89.62487 43.700391)scale(0.125 -0.125)">
      <use xlink:href="#DejaVuSans-33"/>
      <use xlink:href="#DejaVuSans-3a9" x="63.623047"/>
     </g>
    </g>
   </g>
   <g id="text_9">
    <g clip-path="url(#p2ef7ca729d)">
     <!-- $R_{3}$ -->
     <g transform="translate(183.8653 29.703125)scale(0.125 -0.125)">
      <use xlink:href="#STIXGeneral-Italic-52" transform="translate(0 0.703125)"/>
      <use xlink:href="#STIXGeneral-Regular-33" transform="translate(61.099991 -12.525)scale(0.7)"/>
     </g>
    </g>
    <g clip-path="url(#p2ef7ca729d)">
     <!-- 5Ω -->
     <g transform="translate(181.42487 43.700391)scale(0.125 -0.125)">
      <use xlink:href="#DejaVuSans-35"/>
      <use xlink:href="#DejaVuSans-3a9" x="63.623047"/>
     </g>
    </g>
   </g>
   <g id="text_10">
    <g clip-path="url(#p2ef7ca729d)">
     <!-- $R_{2}$ -->
     <g transform="translate(154.9878 99.360586)scale(0.125 -0.125)">
      <use xlink:href="#STIXGeneral-Italic-52" transform="translate(0 0.703125)"/>
      <use xlink:href="#STIXGeneral-Regular-32" transform="translate(61.099991 -12.525)scale(0.7)"/>
     </g>
    </g>
    <g clip-path="url(#p2ef7ca729d)">
     <!-- 6Ω -->
     <g transform="translate(154.9878 113.357852)scale(0.125 -0.125)">
      <use xlink:href="#DejaVuSans-36"/>
      <use xlink:href="#DejaVuSans-3a9" x="63.623047"/>
     </g>
    </g>
   </g>
   <g id="text_11">
    <g clip-path="url(#p2ef7ca729d)">
     <!-- $I_1$ -->
     <g style="fill: #ff0000" transform="translate(95.7278 110.184219)scale(0.125 -0.125)">
      <use xlink:href="#STIXGeneral-Italic-49" transform="translate(0 0.703125)"/>
      <use xlink:href="#STIXGeneral-Regular-31" transform="translate(33.299988 -12.525)scale(0.7)"/>
     </g>
    </g>
   </g>
   <g id="text_12">
    <g clip-path="url(#p2ef7ca729d)">
     <!-- $I_2$ -->
     <g style="fill: #0000ff" transform="translate(204.7403 110.184219)scale(0.125 -0.125)">
      <use xlink:href="#STIXGeneral-Italic-49" transform="translate(0 0.703125)"/>
      <use xlink:href="#STIXGeneral-Regular-32" transform="translate(33.299988 -12.525)scale(0.7)"/>
     </g>
    </g>
   </g>
   <g id="patch_10">
    <path d="M 266.6778 74.605 
C 267.286441 74.605 267.870236 74.363184 268.30061 73.93281 
C 268.730984 73.502436 268.9728 72.918641 268.9728 72.31 
C 268.9728 71.701359 268.730984 71.117564 268.30061 70.68719 
C 267.870236 70.256816 267.286441 70.015 266.6778 70.015 
C 266.069159 70.015 265.485364 70.256816 265.05499 70.68719 
C 264.624616 71.117564 264.3828 71.701359 264.3828 72.31 
C 264.3828 72.918641 264.624616 73.502436 265.05499 73.93281 
C 265.485364 74.363184 266.069159 74.605 266.6778 74.605 
z
" clip-path="url(#p2ef7ca729d)" style="stroke: #000000; stroke-width: 2; stroke-linejoin: miter"/>
   </g>
   <g id="patch_11">
    <path d="M 266.6778 135.805 
C 267.286441 135.805 267.870236 135.563184 268.30061 135.13281 
C 268.730984 134.702436 268.9728 134.118641 268.9728 133.51 
C 268.9728 132.901359 268.730984 132.317564 268.30061 131.88719 
C 267.870236 131.456816 267.286441 131.215 266.6778 131.215 
C 266.069159 131.215 265.485364 131.456816 265.05499 131.88719 
C 264.624616 132.317564 264.3828 132.901359 264.3828 133.51 
C 264.3828 134.118641 264.624616 134.702436 265.05499 135.13281 
C 265.485364 135.563184 266.069159 135.805 266.6778 135.805 
z
" clip-path="url(#p2ef7ca729d)" style="stroke: #000000; stroke-width: 2; stroke-linejoin: miter"/>
   </g>
   <g id="line2d_27">
    <path d="M 266.6778 96.79 
L 266.6778 96.79 
" clip-path="url(#p2ef7ca729d)" style="fill: none; stroke: #000000; stroke-width: 2; stroke-linecap: round"/>
   </g>
   <g id="patch_12">
    <path d="M 271.2678 96.79 
L 266.6778 105.97 
L 262.0878 96.79 
z
" clip-path="url(#p2ef7ca729d)"/>
   </g>
   <g id="text_13">
    <g clip-path="url(#p2ef7ca729d)">
     <!-- $I_{SC}$ -->
     <g transform="translate(275.8578 104.829219)scale(0.125 -0.125)">
      <defs>
       <path id="STIXGeneral-Italic-43" d="M 4410 4250 
L 4173 2970 
L 4058 2989 
Q 3942 4032 3104 4032 
Q 2406 4032 1830 3411 
Q 1491 3053 1315 2541 
Q 1139 2029 1139 1485 
Q 1139 173 2259 173 
Q 2656 173 2985 339 
Q 3315 506 3725 934 
L 3840 838 
Q 3411 333 2998 109 
Q 2586 -115 2093 -115 
Q 1344 -115 883 329 
Q 422 774 422 1555 
Q 422 2214 748 2812 
Q 1075 3411 1619 3795 
Q 2272 4262 3021 4262 
Q 3462 4262 3770 4154 
Q 3898 4109 4032 4109 
Q 4205 4109 4275 4250 
L 4410 4250 
z
" transform="scale(0.015625)"/>
      </defs>
      <use xlink:href="#STIXGeneral-Italic-49" transform="translate(0 0.703125)"/>
      <use xlink:href="#STIXGeneral-Italic-53" transform="translate(33.299988 -12.525)scale(0.7)"/>
      <use xlink:href="#STIXGeneral-Italic-43" transform="translate(68.299977 -12.525)scale(0.7)"/>
     </g>
    </g>
   </g>
   <g id="patch_13">
    <path d="M 266.6778 74.605 
C 267.286441 74.605 267.870236 74.363184 268.30061 73.93281 
C 268.730984 73.502436 268.9728 72.918641 268.9728 72.31 
C 268.9728 71.701359 268.730984 71.117564 268.30061 70.68719 
C 267.870236 70.256816 267.286441 70.015 266.6778 70.015 
C 266.069159 70.015 265.485364 70.256816 265.05499 70.68719 
C 264.624616 71.117564 264.3828 71.701359 264.3828 72.31 
C 264.3828 72.918641 264.624616 73.502436 265.05499 73.93281 
C 265.485364 74.363184 266.069159 74.605 266.6778 74.605 
z
" clip-path="url(#p2ef7ca729d)" style="stroke: #000000; stroke-width: 2; stroke-linejoin: miter"/>
   </g>
   <g id="patch_14">
    <path d="M 266.6778 135.805 
C 267.286441 135.805 267.870236 135.563184 268.30061 135.13281 
C 268.730984 134.702436 268.9728 134.118641 268.9728 133.51 
C 268.9728 132.901359 268.730984 132.317564 268.30061 131.88719 
C 267.870236 131.456816 267.286441 131.215 266.6778 131.215 
C 266.069159 131.215 265.485364 131.456816 265.05499 131.88719 
C 264.624616 132.317564 264.3828 132.901359 264.3828 133.51 
C 264.3828 134.118641 264.624616 134.702436 265.05499 135.13281 
C 265.485364 135.563184 266.069159 135.805 266.6778 135.805 
z
" clip-path="url(#p2ef7ca729d)" style="stroke: #000000; stroke-width: 2; stroke-linejoin: miter"/>
   </g>
   <g id="line2d_28">
    <path d="M 266.6778 96.79 
L 266.6778 96.79 
" clip-path="url(#p2ef7ca729d)" style="fill: none; stroke: #000000; stroke-width: 2; stroke-linecap: round"/>
   </g>
   <g id="patch_15">
    <path d="M 271.2678 96.79 
L 266.6778 105.97 
L 262.0878 96.79 
z
" clip-path="url(#p2ef7ca729d)"/>
   </g>
   <g id="text_14">
    <g clip-path="url(#p2ef7ca729d)">
     <!-- $I_{SC}$ -->
     <g transform="translate(275.8578 104.829219)scale(0.125 -0.125)">
      <use xlink:href="#STIXGeneral-Italic-49" transform="translate(0 0.703125)"/>
      <use xlink:href="#STIXGeneral-Italic-53" transform="translate(33.299988 -12.525)scale(0.7)"/>
      <use xlink:href="#STIXGeneral-Italic-43" transform="translate(68.299977 -12.525)scale(0.7)"/>
     </g>
    </g>
   </g>
  </g>
 </g>
 <defs>
  <clipPath id="p2ef7ca729d">
   <rect x="7.2" y="7.2" width="306.1632" height="144.67"/>
  </clipPath>
 </defs>
</svg>
