<?xml version="1.0" encoding="utf-8" standalone="no"?>
<!DOCTYPE svg PUBLIC "-//W3C//DTD SVG 1.1//EN"
  "http://www.w3.org/Graphics/SVG/1.1/DTD/svg11.dtd">
<svg xmlns:xlink="http://www.w3.org/1999/xlink" width="385.5882pt" height="163.32pt" viewBox="0 0 385.5882 163.32" xmlns="http://www.w3.org/2000/svg" version="1.1">
 <metadata>
  <rdf:RDF xmlns:dc="http://purl.org/dc/elements/1.1/" xmlns:cc="http://creativecommons.org/ns#" xmlns:rdf="http://www.w3.org/1999/02/22-rdf-syntax-ns#">
   <cc:Work>
    <dc:type rdf:resource="http://purl.org/dc/dcmitype/StillImage"/>
    <dc:date>2023-10-21T16:48:00.140201</dc:date>
    <dc:format>image/svg+xml</dc:format>
    <dc:creator>
     <cc:Agent>
      <dc:title>Matplotlib v3.5.2, https://matplotlib.org/</dc:title>
     </cc:Agent>
    </dc:creator>
   </cc:Work>
  </rdf:RDF>
 </metadata>
 <defs>
  <style type="text/css">*{stroke-linejoin: round; stroke-linecap: butt}</style>
 </defs>
 <g id="figure_1">
  <g id="patch_1">
   <path d="M 0 163.32 
L 385.5882 163.32 
L 385.5882 0 
L 0 0 
L 0 163.32 
z
" style="fill: none"/>
  </g>
  <g id="axes_1">
   <g id="patch_2">
    <path d="M 56.3028 111.58 
C 60.360407 111.58 64.252372 109.967895 67.121534 107.098734 
C 69.990695 104.229572 71.6028 100.337607 71.6028 96.28 
C 71.6028 92.222393 69.990695 88.330428 67.121534 85.461266 
C 64.252372 82.592105 60.360407 80.98 56.3028 80.98 
C 52.245193 80.98 48.353228 82.592105 45.484066 85.461266 
C 42.614905 88.330428 41.0028 92.222393 41.0028 96.28 
C 41.0028 100.337607 42.614905 104.229572 45.484066 107.098734 
C 48.353228 109.967895 52.245193 111.58 56.3028 111.58 
L 56.3028 111.58 
z
" clip-path="url(#pd8ae4c2dbf)" style="fill: none; stroke: #000000; stroke-width: 2; stroke-linejoin: miter"/>
   </g>
   <g id="patch_3">
    <path d="M 176.589279 82.836847 
C 167.844281 81.449163 158.18589 80.821925 148.517664 81.013811 
C 138.849438 81.205697 129.482574 82.21053 121.293356 83.934308 
C 113.104139 85.658086 106.356159 88.045324 101.680701 90.872691 
C 97.005244 93.700059 94.5528 96.87655 94.5528 100.105 
C 94.5528 103.33345 97.005244 106.509941 101.680701 109.337309 
C 106.356159 112.164676 113.104139 114.551914 121.293356 116.275692 
C 129.482574 117.99947 138.849438 119.004303 148.517664 119.196189 
C 158.18589 119.388075 167.844281 118.760837 176.589279 117.373153 
" clip-path="url(#pd8ae4c2dbf)" style="fill: none; stroke: #ff0000; stroke-width: 2; stroke-linejoin: miter"/>
   </g>
   <g id="patch_4">
    <path d="M 183.772831 86.256572 
L 175.87911 85.040553 
L 176.858993 82.982189 
L 176.582702 82.850661 
L 176.595855 82.823032 
L 176.872146 82.95456 
L 177.852028 80.896196 
z
" clip-path="url(#pd8ae4c2dbf)" style="fill: #ff0000; stroke: #ff0000; stroke-linejoin: miter"/>
   </g>
   <g id="patch_5">
    <path d="M 305.294083 89.135351 
C 304.13496 87.479952 302.720749 86.018687 301.104162 84.806022 
C 299.487576 83.593357 297.688951 82.644548 295.77533 81.994961 
C 293.861709 81.345374 291.857166 81.003182 289.836417 80.981138 
C 287.815669 80.959094 285.804138 81.257476 283.876802 81.865163 
C 281.949465 82.47285 280.13057 83.382196 278.487914 84.559307 
C 276.845258 85.736418 275.399506 87.166484 274.204547 88.796203 
C 273.009588 90.425921 272.080455 92.234789 271.451781 94.155382 
C 270.823107 96.075975 270.5028 98.084132 270.5028 100.105 
C 270.5028 102.125868 270.823107 104.134025 271.451781 106.054618 
C 272.080455 107.975211 273.009588 109.784079 274.204547 111.413797 
C 275.399506 113.043516 276.845258 114.473582 278.487914 115.650693 
C 280.13057 116.827804 281.949465 117.73715 283.876802 118.344837 
C 285.804138 118.952524 287.815669 119.250906 289.836417 119.228862 
C 291.857166 119.206818 293.861709 118.864626 295.77533 118.215039 
C 297.688951 117.565452 299.487576 116.616643 301.104162 115.403978 
C 302.720749 114.191313 304.13496 112.730048 305.294083 111.074649 
" clip-path="url(#pd8ae4c2dbf)" style="fill: none; stroke: #0000ff; stroke-width: 2; stroke-linejoin: miter"/>
   </g>
   <g id="patch_6">
    <path d="M 309.857457 95.652524 
L 303.589643 90.702369 
L 305.457064 89.394787 
L 305.28155 89.144126 
L 305.306616 89.126575 
L 305.48213 89.377235 
L 307.349551 88.069653 
z
" clip-path="url(#pd8ae4c2dbf)" style="fill: #0000ff; stroke: #0000ff; stroke-linejoin: miter"/>
   </g>
   <g id="patch_7">
    <path d="M 56.3028 111.58 
C 60.360407 111.58 64.252372 109.967895 67.121534 107.098734 
C 69.990695 104.229572 71.6028 100.337607 71.6028 96.28 
C 71.6028 92.222393 69.990695 88.330428 67.121534 85.461266 
C 64.252372 82.592105 60.360407 80.98 56.3028 80.98 
C 52.245193 80.98 48.353228 82.592105 45.484066 85.461266 
C 42.614905 88.330428 41.0028 92.222393 41.0028 96.28 
C 41.0028 100.337607 42.614905 104.229572 45.484066 107.098734 
C 48.353228 109.967895 52.245193 111.58 56.3028 111.58 
L 56.3028 111.58 
z
" clip-path="url(#pd8ae4c2dbf)" style="fill: none; stroke: #000000; stroke-width: 2; stroke-linejoin: miter"/>
   </g>
   <g id="patch_8">
    <path d="M 176.589279 82.836847 
C 167.844281 81.449163 158.18589 80.821925 148.517664 81.013811 
C 138.849438 81.205697 129.482574 82.21053 121.293356 83.934308 
C 113.104139 85.658086 106.356159 88.045324 101.680701 90.872691 
C 97.005244 93.700059 94.5528 96.87655 94.5528 100.105 
C 94.5528 103.33345 97.005244 106.509941 101.680701 109.337309 
C 106.356159 112.164676 113.104139 114.551914 121.293356 116.275692 
C 129.482574 117.99947 138.849438 119.004303 148.517664 119.196189 
C 158.18589 119.388075 167.844281 118.760837 176.589279 117.373153 
" clip-path="url(#pd8ae4c2dbf)" style="fill: none; stroke: #ff0000; stroke-width: 2; stroke-linejoin: miter"/>
   </g>
   <g id="patch_9">
    <path d="M 183.772831 86.256572 
L 175.87911 85.040553 
L 176.858993 82.982189 
L 176.582702 82.850661 
L 176.595855 82.823032 
L 176.872146 82.95456 
L 177.852028 80.896196 
z
" clip-path="url(#pd8ae4c2dbf)" style="fill: #ff0000; stroke: #ff0000; stroke-linejoin: miter"/>
   </g>
   <g id="patch_10">
    <path d="M 305.294083 89.135351 
C 304.13496 87.479952 302.720749 86.018687 301.104162 84.806022 
C 299.487576 83.593357 297.688951 82.644548 295.77533 81.994961 
C 293.861709 81.345374 291.857166 81.003182 289.836417 80.981138 
C 287.815669 80.959094 285.804138 81.257476 283.876802 81.865163 
C 281.949465 82.47285 280.13057 83.382196 278.487914 84.559307 
C 276.845258 85.736418 275.399506 87.166484 274.204547 88.796203 
C 273.009588 90.425921 272.080455 92.234789 271.451781 94.155382 
C 270.823107 96.075975 270.5028 98.084132 270.5028 100.105 
C 270.5028 102.125868 270.823107 104.134025 271.451781 106.054618 
C 272.080455 107.975211 273.009588 109.784079 274.204547 111.413797 
C 275.399506 113.043516 276.845258 114.473582 278.487914 115.650693 
C 280.13057 116.827804 281.949465 117.73715 283.876802 118.344837 
C 285.804138 118.952524 287.815669 119.250906 289.836417 119.228862 
C 291.857166 119.206818 293.861709 118.864626 295.77533 118.215039 
C 297.688951 117.565452 299.487576 116.616643 301.104162 115.403978 
C 302.720749 114.191313 304.13496 112.730048 305.294083 111.074649 
" clip-path="url(#pd8ae4c2dbf)" style="fill: none; stroke: #0000ff; stroke-width: 2; stroke-linejoin: miter"/>
   </g>
   <g id="patch_11">
    <path d="M 309.857457 95.652524 
L 303.589643 90.702369 
L 305.457064 89.394787 
L 305.28155 89.144126 
L 305.306616 89.126575 
L 305.48213 89.377235 
L 307.349551 88.069653 
z
" clip-path="url(#pd8ae4c2dbf)" style="fill: #0000ff; stroke: #0000ff; stroke-linejoin: miter"/>
   </g>
   <g id="line2d_1">
    <path d="M 56.3028 142.18 
L 56.3028 111.58 
L 56.3028 111.58 
M 56.3028 80.98 
L 56.3028 80.98 
L 56.3028 50.38 
" clip-path="url(#pd8ae4c2dbf)" style="fill: none; stroke: #000000; stroke-width: 2; stroke-linecap: round"/>
   </g>
   <g id="line2d_2">
    <path d="M 59.3628 103.93 
L 53.2428 103.93 
" clip-path="url(#pd8ae4c2dbf)" style="fill: none; stroke: #000000; stroke-width: 2; stroke-linecap: round"/>
   </g>
   <g id="line2d_3">
    <path d="M 56.3028 91.69 
L 56.3028 85.57 
" clip-path="url(#pd8ae4c2dbf)" style="fill: none; stroke: #000000; stroke-width: 2; stroke-linecap: round"/>
   </g>
   <g id="line2d_4">
    <path d="M 59.3628 88.63 
L 53.2428 88.63 
" clip-path="url(#pd8ae4c2dbf)" style="fill: none; stroke: #000000; stroke-width: 2; stroke-linecap: round"/>
   </g>
   <g id="line2d_5">
    <path d="M 56.3028 50.38 
L 86.9028 50.38 
L 89.4528 42.73 
L 94.5528 58.03 
L 99.6528 42.73 
L 104.7528 58.03 
L 109.8528 42.73 
L 114.9528 58.03 
L 117.5028 50.38 
L 148.1028 50.38 
" clip-path="url(#pd8ae4c2dbf)" style="fill: none; stroke: #000000; stroke-width: 2; stroke-linecap: round"/>
   </g>
   <g id="line2d_6">
    <path d="M 148.1028 50.38 
L 178.7028 50.38 
L 194.0028 35.08 
L 209.3028 50.38 
L 194.0028 65.68 
L 178.7028 50.38 
M 209.3028 50.38 
L 239.9028 50.38 
" clip-path="url(#pd8ae4c2dbf)" style="fill: none; stroke: #000000; stroke-width: 2; stroke-linecap: round"/>
   </g>
   <g id="line2d_7">
    <path d="M 186.3528 53.44 
L 186.3528 47.32 
" clip-path="url(#pd8ae4c2dbf)" style="fill: none; stroke: #000000; stroke-width: 2; stroke-linecap: round"/>
   </g>
   <g id="line2d_8">
    <path d="M 198.5928 50.38 
L 204.7128 50.38 
" clip-path="url(#pd8ae4c2dbf)" style="fill: none; stroke: #000000; stroke-width: 2; stroke-linecap: round"/>
   </g>
   <g id="line2d_9">
    <path d="M 201.6528 53.44 
L 201.6528 47.32 
" clip-path="url(#pd8ae4c2dbf)" style="fill: none; stroke: #000000; stroke-width: 2; stroke-linecap: round"/>
   </g>
   <g id="line2d_10">
    <path d="M 239.9028 50.38 
L 270.5028 50.38 
L 273.0528 42.73 
L 278.1528 58.03 
L 283.2528 42.73 
L 288.3528 58.03 
L 293.4528 42.73 
L 298.5528 58.03 
L 301.1028 50.38 
L 331.7028 50.38 
" clip-path="url(#pd8ae4c2dbf)" style="fill: none; stroke: #000000; stroke-width: 2; stroke-linecap: round"/>
   </g>
   <g id="line2d_11">
    <path d="M 239.9028 50.38 
L 239.9028 80.98 
L 247.5528 83.53 
L 232.2528 88.63 
L 247.5528 93.73 
L 232.2528 98.83 
L 247.5528 103.93 
L 232.2528 109.03 
L 239.9028 111.58 
L 239.9028 142.18 
" clip-path="url(#pd8ae4c2dbf)" style="fill: none; stroke: #000000; stroke-width: 2; stroke-linecap: round"/>
   </g>
   <g id="line2d_12">
    <path d="M 56.3028 142.18 
L 194.0028 142.18 
L 331.7028 142.18 
" clip-path="url(#pd8ae4c2dbf)" style="fill: none; stroke: #000000; stroke-width: 2; stroke-linecap: round"/>
   </g>
   <g id="line2d_13">
    <path d="M 331.7028 50.38 
L 331.7028 96.28 
L 331.7028 142.18 
" clip-path="url(#pd8ae4c2dbf)" style="fill: none; stroke: #000000; stroke-width: 2; stroke-linecap: round"/>
   </g>
   <g id="line2d_14">
    <path d="M 56.3028 142.18 
L 56.3028 111.58 
L 56.3028 111.58 
M 56.3028 80.98 
L 56.3028 80.98 
L 56.3028 50.38 
" clip-path="url(#pd8ae4c2dbf)" style="fill: none; stroke: #000000; stroke-width: 2; stroke-linecap: round"/>
   </g>
   <g id="line2d_15">
    <path d="M 59.3628 103.93 
L 53.2428 103.93 
" clip-path="url(#pd8ae4c2dbf)" style="fill: none; stroke: #000000; stroke-width: 2; stroke-linecap: round"/>
   </g>
   <g id="line2d_16">
    <path d="M 56.3028 91.69 
L 56.3028 85.57 
" clip-path="url(#pd8ae4c2dbf)" style="fill: none; stroke: #000000; stroke-width: 2; stroke-linecap: round"/>
   </g>
   <g id="line2d_17">
    <path d="M 59.3628 88.63 
L 53.2428 88.63 
" clip-path="url(#pd8ae4c2dbf)" style="fill: none; stroke: #000000; stroke-width: 2; stroke-linecap: round"/>
   </g>
   <g id="line2d_18">
    <path d="M 56.3028 50.38 
L 86.9028 50.38 
L 89.4528 42.73 
L 94.5528 58.03 
L 99.6528 42.73 
L 104.7528 58.03 
L 109.8528 42.73 
L 114.9528 58.03 
L 117.5028 50.38 
L 148.1028 50.38 
" clip-path="url(#pd8ae4c2dbf)" style="fill: none; stroke: #000000; stroke-width: 2; stroke-linecap: round"/>
   </g>
   <g id="line2d_19">
    <path d="M 148.1028 50.38 
L 178.7028 50.38 
L 194.0028 35.08 
L 209.3028 50.38 
L 194.0028 65.68 
L 178.7028 50.38 
M 209.3028 50.38 
L 239.9028 50.38 
" clip-path="url(#pd8ae4c2dbf)" style="fill: none; stroke: #000000; stroke-width: 2; stroke-linecap: round"/>
   </g>
   <g id="line2d_20">
    <path d="M 186.3528 53.44 
L 186.3528 47.32 
" clip-path="url(#pd8ae4c2dbf)" style="fill: none; stroke: #000000; stroke-width: 2; stroke-linecap: round"/>
   </g>
   <g id="line2d_21">
    <path d="M 198.5928 50.38 
L 204.7128 50.38 
" clip-path="url(#pd8ae4c2dbf)" style="fill: none; stroke: #000000; stroke-width: 2; stroke-linecap: round"/>
   </g>
   <g id="line2d_22">
    <path d="M 201.6528 53.44 
L 201.6528 47.32 
" clip-path="url(#pd8ae4c2dbf)" style="fill: none; stroke: #000000; stroke-width: 2; stroke-linecap: round"/>
   </g>
   <g id="line2d_23">
    <path d="M 239.9028 50.38 
L 270.5028 50.38 
L 273.0528 42.73 
L 278.1528 58.03 
L 283.2528 42.73 
L 288.3528 58.03 
L 293.4528 42.73 
L 298.5528 58.03 
L 301.1028 50.38 
L 331.7028 50.38 
" clip-path="url(#pd8ae4c2dbf)" style="fill: none; stroke: #000000; stroke-width: 2; stroke-linecap: round"/>
   </g>
   <g id="line2d_24">
    <path d="M 239.9028 50.38 
L 239.9028 80.98 
L 247.5528 83.53 
L 232.2528 88.63 
L 247.5528 93.73 
L 232.2528 98.83 
L 247.5528 103.93 
L 232.2528 109.03 
L 239.9028 111.58 
L 239.9028 142.18 
" clip-path="url(#pd8ae4c2dbf)" style="fill: none; stroke: #000000; stroke-width: 2; stroke-linecap: round"/>
   </g>
   <g id="line2d_25">
    <path d="M 56.3028 142.18 
L 194.0028 142.18 
L 331.7028 142.18 
" clip-path="url(#pd8ae4c2dbf)" style="fill: none; stroke: #000000; stroke-width: 2; stroke-linecap: round"/>
   </g>
   <g id="line2d_26">
    <path d="M 331.7028 50.38 
L 331.7028 96.28 
L 331.7028 142.18 
" clip-path="url(#pd8ae4c2dbf)" style="fill: none; stroke: #000000; stroke-width: 2; stroke-linecap: round"/>
   </g>
   <g id="text_1">
    <g clip-path="url(#pd8ae4c2dbf)">
     <!-- 12V -->
     <g transform="translate(13.485769 99.729219)scale(0.125 -0.125)">
      <defs>
       <path id="DejaVuSans-31" d="M 794 531 
L 1825 531 
L 1825 4091 
L 703 3866 
L 703 4441 
L 1819 4666 
L 2450 4666 
L 2450 531 
L 3481 531 
L 3481 0 
L 794 0 
L 794 531 
z
" transform="scale(0.015625)"/>
       <path id="DejaVuSans-32" d="M 1228 531 
L 3431 531 
L 3431 0 
L 469 0 
L 469 531 
Q 828 903 1448 1529 
Q 2069 2156 2228 2338 
Q 2531 2678 2651 2914 
Q 2772 3150 2772 3378 
Q 2772 3750 2511 3984 
Q 2250 4219 1831 4219 
Q 1534 4219 1204 4116 
Q 875 4013 500 3803 
L 500 4441 
Q 881 4594 1212 4672 
Q 1544 4750 1819 4750 
Q 2544 4750 2975 4387 
Q 3406 4025 3406 3419 
Q 3406 3131 3298 2873 
Q 3191 2616 2906 2266 
Q 2828 2175 2409 1742 
Q 1991 1309 1228 531 
z
" transform="scale(0.015625)"/>
       <path id="DejaVuSans-56" d="M 1831 0 
L 50 4666 
L 709 4666 
L 2188 738 
L 3669 4666 
L 4325 4666 
L 2547 0 
L 1831 0 
z
" transform="scale(0.015625)"/>
      </defs>
      <use xlink:href="#DejaVuSans-31"/>
      <use xlink:href="#DejaVuSans-32" x="63.623047"/>
      <use xlink:href="#DejaVuSans-56" x="127.246094"/>
     </g>
    </g>
   </g>
   <g id="text_2">
    <g clip-path="url(#pd8ae4c2dbf)">
     <!-- 4Ω -->
     <g transform="translate(93.44987 37.070391)scale(0.125 -0.125)">
      <defs>
       <path id="DejaVuSans-34" d="M 2419 4116 
L 825 1625 
L 2419 1625 
L 2419 4116 
z
M 2253 4666 
L 3047 4666 
L 3047 1625 
L 3713 1625 
L 3713 1100 
L 3047 1100 
L 3047 0 
L 2419 0 
L 2419 1100 
L 313 1100 
L 313 1709 
L 2253 4666 
z
" transform="scale(0.015625)"/>
       <path id="DejaVuSans-3a9" d="M 4647 556 
L 4647 0 
L 2772 0 
L 2772 556 
Q 3325 859 3634 1378 
Q 3944 1897 3944 2528 
Q 3944 3278 3531 3731 
Q 3119 4184 2444 4184 
Q 1769 4184 1355 3729 
Q 941 3275 941 2528 
Q 941 1897 1250 1378 
Q 1563 859 2119 556 
L 2119 0 
L 244 0 
L 244 556 
L 1241 556 
Q 747 991 519 1456 
Q 294 1922 294 2497 
Q 294 3491 894 4106 
Q 1491 4722 2444 4722 
Q 3391 4722 3994 4106 
Q 4594 3494 4594 2528 
Q 4594 1922 4372 1459 
Q 4150 997 3647 556 
L 4647 556 
z
" transform="scale(0.015625)"/>
      </defs>
      <use xlink:href="#DejaVuSans-34"/>
      <use xlink:href="#DejaVuSans-3a9" x="63.623047"/>
     </g>
    </g>
   </g>
   <g id="text_3">
    <g clip-path="url(#pd8ae4c2dbf)">
     <!-- $2I_x$ -->
     <g transform="translate(186.5653 29.420391)scale(0.125 -0.125)">
      <defs>
       <path id="STIXGeneral-Regular-32" d="M 3034 877 
L 2688 0 
L 186 0 
L 186 77 
L 1325 1286 
Q 1773 1754 1965 2144 
Q 2157 2534 2157 2950 
Q 2157 3379 1920 3616 
Q 1683 3853 1267 3853 
Q 922 3853 720 3673 
Q 518 3494 326 3021 
L 192 3053 
Q 301 3648 630 3987 
Q 960 4326 1523 4326 
Q 2054 4326 2380 4006 
Q 2707 3686 2707 3200 
Q 2707 2477 1888 1613 
L 832 486 
L 2330 486 
Q 2541 486 2665 569 
Q 2790 653 2944 915 
L 3034 877 
z
" transform="scale(0.015625)"/>
       <path id="STIXGeneral-Italic-49" d="M 2458 4179 
L 2458 4077 
Q 2189 4045 2102 3961 
Q 2016 3878 1933 3584 
L 1165 838 
Q 1069 499 1069 352 
Q 1069 224 1149 179 
Q 1229 134 1510 102 
L 1510 0 
L -51 0 
L -51 102 
Q 218 154 317 237 
Q 416 320 486 582 
L 1254 3405 
Q 1338 3699 1338 3802 
Q 1338 3930 1235 3997 
Q 1133 4064 877 4077 
L 877 4179 
L 2458 4179 
z
" transform="scale(0.015625)"/>
       <path id="STIXGeneral-Italic-78" d="M 1555 2272 
L 1632 1907 
Q 1971 2426 2179 2624 
Q 2387 2822 2598 2822 
Q 2714 2822 2787 2755 
Q 2861 2688 2861 2585 
Q 2861 2483 2800 2419 
Q 2739 2355 2643 2355 
Q 2586 2355 2490 2409 
Q 2394 2464 2310 2464 
Q 2125 2464 1683 1690 
Q 1683 1606 1734 1402 
L 1939 544 
Q 2003 282 2131 282 
Q 2234 282 2432 538 
Q 2451 563 2476 598 
Q 2502 634 2521 662 
Q 2541 691 2566 717 
L 2662 659 
Q 2387 230 2227 80 
Q 2067 -70 1882 -70 
Q 1728 -70 1645 26 
Q 1562 122 1504 365 
L 1318 1126 
L 755 365 
Q 557 96 432 13 
Q 307 -70 147 -70 
Q 0 -70 -86 0 
Q -173 70 -173 198 
Q -173 294 -112 361 
Q -51 429 45 429 
Q 122 429 250 358 
Q 346 301 416 301 
Q 525 301 742 614 
L 1267 1357 
L 1088 2150 
Q 1024 2432 969 2509 
Q 915 2586 794 2586 
Q 717 2586 544 2541 
L 429 2509 
L 410 2611 
L 480 2637 
Q 992 2822 1229 2822 
Q 1350 2822 1420 2707 
Q 1491 2592 1555 2272 
z
" transform="scale(0.015625)"/>
      </defs>
      <use xlink:href="#STIXGeneral-Regular-32" transform="translate(0 0.40625)"/>
      <use xlink:href="#STIXGeneral-Italic-49" transform="translate(49.999985 0.40625)"/>
      <use xlink:href="#STIXGeneral-Italic-78" transform="translate(83.299973 -12.821875)scale(0.7)"/>
     </g>
    </g>
   </g>
   <g id="text_4">
    <g clip-path="url(#pd8ae4c2dbf)">
     <!-- 3Ω -->
     <g transform="translate(277.04987 37.070391)scale(0.125 -0.125)">
      <defs>
       <path id="DejaVuSans-33" d="M 2597 2516 
Q 3050 2419 3304 2112 
Q 3559 1806 3559 1356 
Q 3559 666 3084 287 
Q 2609 -91 1734 -91 
Q 1441 -91 1130 -33 
Q 819 25 488 141 
L 488 750 
Q 750 597 1062 519 
Q 1375 441 1716 441 
Q 2309 441 2620 675 
Q 2931 909 2931 1356 
Q 2931 1769 2642 2001 
Q 2353 2234 1838 2234 
L 1294 2234 
L 1294 2753 
L 1863 2753 
Q 2328 2753 2575 2939 
Q 2822 3125 2822 3475 
Q 2822 3834 2567 4026 
Q 2313 4219 1838 4219 
Q 1578 4219 1281 4162 
Q 984 4106 628 3988 
L 628 4550 
Q 988 4650 1302 4700 
Q 1616 4750 1894 4750 
Q 2613 4750 3031 4423 
Q 3450 4097 3450 3541 
Q 3450 3153 3228 2886 
Q 3006 2619 2597 2516 
z
" transform="scale(0.015625)"/>
      </defs>
      <use xlink:href="#DejaVuSans-33"/>
      <use xlink:href="#DejaVuSans-3a9" x="63.623047"/>
     </g>
    </g>
   </g>
   <g id="text_5">
    <g clip-path="url(#pd8ae4c2dbf)">
     <!-- 6Ω -->
     <g transform="translate(250.6128 99.729219)scale(0.125 -0.125)">
      <defs>
       <path id="DejaVuSans-36" d="M 2113 2584 
Q 1688 2584 1439 2293 
Q 1191 2003 1191 1497 
Q 1191 994 1439 701 
Q 1688 409 2113 409 
Q 2538 409 2786 701 
Q 3034 994 3034 1497 
Q 3034 2003 2786 2293 
Q 2538 2584 2113 2584 
z
M 3366 4563 
L 3366 3988 
Q 3128 4100 2886 4159 
Q 2644 4219 2406 4219 
Q 1781 4219 1451 3797 
Q 1122 3375 1075 2522 
Q 1259 2794 1537 2939 
Q 1816 3084 2150 3084 
Q 2853 3084 3261 2657 
Q 3669 2231 3669 1497 
Q 3669 778 3244 343 
Q 2819 -91 2113 -91 
Q 1303 -91 875 529 
Q 447 1150 447 2328 
Q 447 3434 972 4092 
Q 1497 4750 2381 4750 
Q 2619 4750 2861 4703 
Q 3103 4656 3366 4563 
z
" transform="scale(0.015625)"/>
      </defs>
      <use xlink:href="#DejaVuSans-36"/>
      <use xlink:href="#DejaVuSans-3a9" x="63.623047"/>
     </g>
    </g>
   </g>
   <g id="text_6">
    <g clip-path="url(#pd8ae4c2dbf)">
     <!-- $I_1$ -->
     <g style="fill: #ff0000" transform="translate(147.3653 103.554219)scale(0.125 -0.125)">
      <defs>
       <path id="STIXGeneral-Regular-31" d="M 2522 0 
L 755 0 
L 755 96 
Q 1107 115 1235 227 
Q 1363 339 1363 608 
L 1363 3482 
Q 1363 3795 1171 3795 
Q 1082 3795 883 3718 
L 710 3654 
L 710 3744 
L 1856 4326 
L 1914 4307 
L 1914 486 
Q 1914 275 2042 185 
Q 2170 96 2522 96 
L 2522 0 
z
" transform="scale(0.015625)"/>
      </defs>
      <use xlink:href="#STIXGeneral-Italic-49" transform="translate(0 0.703125)"/>
      <use xlink:href="#STIXGeneral-Regular-31" transform="translate(33.299988 -12.525)scale(0.7)"/>
     </g>
    </g>
   </g>
   <g id="text_7">
    <g clip-path="url(#pd8ae4c2dbf)">
     <!-- $I_2$ -->
     <g style="fill: #0000ff" transform="translate(285.0653 103.554219)scale(0.125 -0.125)">
      <use xlink:href="#STIXGeneral-Italic-49" transform="translate(0 0.703125)"/>
      <use xlink:href="#STIXGeneral-Regular-32" transform="translate(33.299988 -12.525)scale(0.7)"/>
     </g>
    </g>
   </g>
   <g id="text_8">
    <g clip-path="url(#pd8ae4c2dbf)">
     <!-- 12V -->
     <g transform="translate(13.485769 99.729219)scale(0.125 -0.125)">
      <use xlink:href="#DejaVuSans-31"/>
      <use xlink:href="#DejaVuSans-32" x="63.623047"/>
      <use xlink:href="#DejaVuSans-56" x="127.246094"/>
     </g>
    </g>
   </g>
   <g id="text_9">
    <g clip-path="url(#pd8ae4c2dbf)">
     <!-- 4Ω -->
     <g transform="translate(93.44987 37.070391)scale(0.125 -0.125)">
      <use xlink:href="#DejaVuSans-34"/>
      <use xlink:href="#DejaVuSans-3a9" x="63.623047"/>
     </g>
    </g>
   </g>
   <g id="text_10">
    <g clip-path="url(#pd8ae4c2dbf)">
     <!-- $2I_x$ -->
     <g transform="translate(186.5653 29.420391)scale(0.125 -0.125)">
      <use xlink:href="#STIXGeneral-Regular-32" transform="translate(0 0.40625)"/>
      <use xlink:href="#STIXGeneral-Italic-49" transform="translate(49.999985 0.40625)"/>
      <use xlink:href="#STIXGeneral-Italic-78" transform="translate(83.299973 -12.821875)scale(0.7)"/>
     </g>
    </g>
   </g>
   <g id="text_11">
    <g clip-path="url(#pd8ae4c2dbf)">
     <!-- 3Ω -->
     <g transform="translate(277.04987 37.070391)scale(0.125 -0.125)">
      <use xlink:href="#DejaVuSans-33"/>
      <use xlink:href="#DejaVuSans-3a9" x="63.623047"/>
     </g>
    </g>
   </g>
   <g id="text_12">
    <g clip-path="url(#pd8ae4c2dbf)">
     <!-- 6Ω -->
     <g transform="translate(250.6128 99.729219)scale(0.125 -0.125)">
      <use xlink:href="#DejaVuSans-36"/>
      <use xlink:href="#DejaVuSans-3a9" x="63.623047"/>
     </g>
    </g>
   </g>
   <g id="text_13">
    <g clip-path="url(#pd8ae4c2dbf)">
     <!-- $I_1$ -->
     <g style="fill: #ff0000" transform="translate(147.3653 103.554219)scale(0.125 -0.125)">
      <use xlink:href="#STIXGeneral-Italic-49" transform="translate(0 0.703125)"/>
      <use xlink:href="#STIXGeneral-Regular-31" transform="translate(33.299988 -12.525)scale(0.7)"/>
     </g>
    </g>
   </g>
   <g id="text_14">
    <g clip-path="url(#pd8ae4c2dbf)">
     <!-- $I_2$ -->
     <g style="fill: #0000ff" transform="translate(285.0653 103.554219)scale(0.125 -0.125)">
      <use xlink:href="#STIXGeneral-Italic-49" transform="translate(0 0.703125)"/>
      <use xlink:href="#STIXGeneral-Regular-32" transform="translate(33.299988 -12.525)scale(0.7)"/>
     </g>
    </g>
   </g>
   <g id="patch_12">
    <path d="M 331.7028 52.675 
C 332.311441 52.675 332.895236 52.433184 333.32561 52.00281 
C 333.755984 51.572436 333.9978 50.988641 333.9978 50.38 
C 333.9978 49.771359 333.755984 49.187564 333.32561 48.75719 
C 332.895236 48.326816 332.311441 48.085 331.7028 48.085 
C 331.094159 48.085 330.510364 48.326816 330.07999 48.75719 
C 329.649616 49.187564 329.4078 49.771359 329.4078 50.38 
C 329.4078 50.988641 329.649616 51.572436 330.07999 52.00281 
C 330.510364 52.433184 331.094159 52.675 331.7028 52.675 
z
" clip-path="url(#pd8ae4c2dbf)" style="fill: #ffffff; stroke: #000000; stroke-width: 2; stroke-linejoin: miter"/>
   </g>
   <g id="text_15">
    <g clip-path="url(#pd8ae4c2dbf)">
     <!-- A -->
     <g transform="translate(337.0578 53.829219)scale(0.125 -0.125)">
      <defs>
       <path id="DejaVuSans-41" d="M 2188 4044 
L 1331 1722 
L 3047 1722 
L 2188 4044 
z
M 1831 4666 
L 2547 4666 
L 4325 0 
L 3669 0 
L 3244 1197 
L 1141 1197 
L 716 0 
L 50 0 
L 1831 4666 
z
" transform="scale(0.015625)"/>
      </defs>
      <use xlink:href="#DejaVuSans-41"/>
     </g>
    </g>
   </g>
   <g id="patch_13">
    <path d="M 331.7028 144.475 
C 332.311441 144.475 332.895236 144.233184 333.32561 143.80281 
C 333.755984 143.372436 333.9978 142.788641 333.9978 142.18 
C 333.9978 141.571359 333.755984 140.987564 333.32561 140.55719 
C 332.895236 140.126816 332.311441 139.885 331.7028 139.885 
C 331.094159 139.885 330.510364 140.126816 330.07999 140.55719 
C 329.649616 140.987564 329.4078 141.571359 329.4078 142.18 
C 329.4078 142.788641 329.649616 143.372436 330.07999 143.80281 
C 330.510364 144.233184 331.094159 144.475 331.7028 144.475 
z
" clip-path="url(#pd8ae4c2dbf)" style="fill: #ffffff; stroke: #000000; stroke-width: 2; stroke-linejoin: miter"/>
   </g>
   <g id="text_16">
    <g clip-path="url(#pd8ae4c2dbf)">
     <!-- B -->
     <g transform="translate(337.0578 145.629219)scale(0.125 -0.125)">
      <defs>
       <path id="DejaVuSans-42" d="M 1259 2228 
L 1259 519 
L 2272 519 
Q 2781 519 3026 730 
Q 3272 941 3272 1375 
Q 3272 1813 3026 2020 
Q 2781 2228 2272 2228 
L 1259 2228 
z
M 1259 4147 
L 1259 2741 
L 2194 2741 
Q 2656 2741 2882 2914 
Q 3109 3088 3109 3444 
Q 3109 3797 2882 3972 
Q 2656 4147 2194 4147 
L 1259 4147 
z
M 628 4666 
L 2241 4666 
Q 2963 4666 3353 4366 
Q 3744 4066 3744 3513 
Q 3744 3084 3544 2831 
Q 3344 2578 2956 2516 
Q 3422 2416 3680 2098 
Q 3938 1781 3938 1306 
Q 3938 681 3513 340 
Q 3088 0 2303 0 
L 628 0 
L 628 4666 
z
" transform="scale(0.015625)"/>
      </defs>
      <use xlink:href="#DejaVuSans-42"/>
     </g>
    </g>
   </g>
   <g id="line2d_27">
    <path d="M 239.9028 123.82 
L 239.9028 123.82 
" clip-path="url(#pd8ae4c2dbf)" style="fill: none; stroke: #000000; stroke-width: 2; stroke-linecap: round"/>
   </g>
   <g id="patch_14">
    <path d="M 244.4928 123.82 
L 239.9028 133 
L 235.3128 123.82 
z
" clip-path="url(#pd8ae4c2dbf)"/>
   </g>
   <g id="text_17">
    <g clip-path="url(#pd8ae4c2dbf)">
     <!-- $I_{x}$ -->
     <g transform="translate(249.0828 131.859219)scale(0.125 -0.125)">
      <use xlink:href="#STIXGeneral-Italic-49" transform="translate(0 0.703125)"/>
      <use xlink:href="#STIXGeneral-Italic-78" transform="translate(33.299988 -12.525)scale(0.7)"/>
     </g>
    </g>
   </g>
   <g id="line2d_28">
    <path d="M 331.7028 96.28 
L 331.7028 96.28 
" clip-path="url(#pd8ae4c2dbf)" style="fill: none; stroke: #000000; stroke-width: 2; stroke-linecap: round"/>
   </g>
   <g id="patch_15">
    <path d="M 336.2928 96.28 
L 331.7028 105.46 
L 327.1128 96.28 
z
" clip-path="url(#pd8ae4c2dbf)"/>
   </g>
   <g id="text_18">
    <g clip-path="url(#pd8ae4c2dbf)">
     <!-- $I_{SC}$ -->
     <g transform="translate(340.8828 104.319219)scale(0.125 -0.125)">
      <defs>
       <path id="STIXGeneral-Italic-53" d="M 3251 4269 
L 2995 2989 
L 2880 3008 
Q 2880 3539 2720 3795 
Q 2560 4051 2118 4051 
Q 1786 4051 1594 3881 
Q 1402 3712 1402 3411 
Q 1402 3168 1504 3005 
Q 1606 2842 2035 2413 
Q 2464 1978 2611 1715 
Q 2758 1453 2758 1133 
Q 2758 589 2390 237 
Q 2022 -115 1466 -115 
Q 1222 -115 800 32 
Q 595 109 499 109 
Q 288 109 224 -96 
L 109 -96 
L 326 1338 
L 454 1325 
Q 442 1267 442 1178 
Q 442 710 701 409 
Q 960 109 1363 109 
Q 1734 109 1968 336 
Q 2202 563 2202 928 
Q 2202 1139 2118 1308 
Q 2035 1478 1818 1715 
L 1568 1984 
Q 1549 2003 1459 2102 
Q 1370 2202 1318 2253 
Q 1030 2560 934 2755 
Q 838 2950 838 3213 
Q 838 3699 1168 3980 
Q 1498 4262 1978 4262 
Q 2310 4262 2522 4173 
Q 2707 4102 2816 4102 
Q 2925 4102 2982 4134 
Q 3040 4166 3104 4269 
L 3251 4269 
z
" transform="scale(0.015625)"/>
       <path id="STIXGeneral-Italic-43" d="M 4410 4250 
L 4173 2970 
L 4058 2989 
Q 3942 4032 3104 4032 
Q 2406 4032 1830 3411 
Q 1491 3053 1315 2541 
Q 1139 2029 1139 1485 
Q 1139 173 2259 173 
Q 2656 173 2985 339 
Q 3315 506 3725 934 
L 3840 838 
Q 3411 333 2998 109 
Q 2586 -115 2093 -115 
Q 1344 -115 883 329 
Q 422 774 422 1555 
Q 422 2214 748 2812 
Q 1075 3411 1619 3795 
Q 2272 4262 3021 4262 
Q 3462 4262 3770 4154 
Q 3898 4109 4032 4109 
Q 4205 4109 4275 4250 
L 4410 4250 
z
" transform="scale(0.015625)"/>
      </defs>
      <use xlink:href="#STIXGeneral-Italic-49" transform="translate(0 0.703125)"/>
      <use xlink:href="#STIXGeneral-Italic-53" transform="translate(33.299988 -12.525)scale(0.7)"/>
      <use xlink:href="#STIXGeneral-Italic-43" transform="translate(68.299977 -12.525)scale(0.7)"/>
     </g>
    </g>
   </g>
   <g id="patch_16">
    <path d="M 331.7028 52.675 
C 332.311441 52.675 332.895236 52.433184 333.32561 52.00281 
C 333.755984 51.572436 333.9978 50.988641 333.9978 50.38 
C 333.9978 49.771359 333.755984 49.187564 333.32561 48.75719 
C 332.895236 48.326816 332.311441 48.085 331.7028 48.085 
C 331.094159 48.085 330.510364 48.326816 330.07999 48.75719 
C 329.649616 49.187564 329.4078 49.771359 329.4078 50.38 
C 329.4078 50.988641 329.649616 51.572436 330.07999 52.00281 
C 330.510364 52.433184 331.094159 52.675 331.7028 52.675 
z
" clip-path="url(#pd8ae4c2dbf)" style="fill: #ffffff; stroke: #000000; stroke-width: 2; stroke-linejoin: miter"/>
   </g>
   <g id="text_19">
    <g clip-path="url(#pd8ae4c2dbf)">
     <!-- A -->
     <g transform="translate(337.0578 53.829219)scale(0.125 -0.125)">
      <use xlink:href="#DejaVuSans-41"/>
     </g>
    </g>
   </g>
   <g id="patch_17">
    <path d="M 331.7028 144.475 
C 332.311441 144.475 332.895236 144.233184 333.32561 143.80281 
C 333.755984 143.372436 333.9978 142.788641 333.9978 142.18 
C 333.9978 141.571359 333.755984 140.987564 333.32561 140.55719 
C 332.895236 140.126816 332.311441 139.885 331.7028 139.885 
C 331.094159 139.885 330.510364 140.126816 330.07999 140.55719 
C 329.649616 140.987564 329.4078 141.571359 329.4078 142.18 
C 329.4078 142.788641 329.649616 143.372436 330.07999 143.80281 
C 330.510364 144.233184 331.094159 144.475 331.7028 144.475 
z
" clip-path="url(#pd8ae4c2dbf)" style="fill: #ffffff; stroke: #000000; stroke-width: 2; stroke-linejoin: miter"/>
   </g>
   <g id="text_20">
    <g clip-path="url(#pd8ae4c2dbf)">
     <!-- B -->
     <g transform="translate(337.0578 145.629219)scale(0.125 -0.125)">
      <use xlink:href="#DejaVuSans-42"/>
     </g>
    </g>
   </g>
   <g id="line2d_29">
    <path d="M 239.9028 123.82 
L 239.9028 123.82 
" clip-path="url(#pd8ae4c2dbf)" style="fill: none; stroke: #000000; stroke-width: 2; stroke-linecap: round"/>
   </g>
   <g id="patch_18">
    <path d="M 244.4928 123.82 
L 239.9028 133 
L 235.3128 123.82 
z
" clip-path="url(#pd8ae4c2dbf)"/>
   </g>
   <g id="text_21">
    <g clip-path="url(#pd8ae4c2dbf)">
     <!-- $I_{x}$ -->
     <g transform="translate(249.0828 131.859219)scale(0.125 -0.125)">
      <use xlink:href="#STIXGeneral-Italic-49" transform="translate(0 0.703125)"/>
      <use xlink:href="#STIXGeneral-Italic-78" transform="translate(33.299988 -12.525)scale(0.7)"/>
     </g>
    </g>
   </g>
   <g id="line2d_30">
    <path d="M 331.7028 96.28 
L 331.7028 96.28 
" clip-path="url(#pd8ae4c2dbf)" style="fill: none; stroke: #000000; stroke-width: 2; stroke-linecap: round"/>
   </g>
   <g id="patch_19">
    <path d="M 336.2928 96.28 
L 331.7028 105.46 
L 327.1128 96.28 
z
" clip-path="url(#pd8ae4c2dbf)"/>
   </g>
   <g id="text_22">
    <g clip-path="url(#pd8ae4c2dbf)">
     <!-- $I_{SC}$ -->
     <g transform="translate(340.8828 104.319219)scale(0.125 -0.125)">
      <use xlink:href="#STIXGeneral-Italic-49" transform="translate(0 0.703125)"/>
      <use xlink:href="#STIXGeneral-Italic-53" transform="translate(33.299988 -12.525)scale(0.7)"/>
      <use xlink:href="#STIXGeneral-Italic-43" transform="translate(68.299977 -12.525)scale(0.7)"/>
     </g>
    </g>
   </g>
  </g>
 </g>
 <defs>
  <clipPath id="pd8ae4c2dbf">
   <rect x="7.2" y="7.2" width="371.1882" height="148.92"/>
  </clipPath>
 </defs>
</svg>
