<?xml version="1.0" encoding="utf-8" standalone="no"?>
<!DOCTYPE svg PUBLIC "-//W3C//DTD SVG 1.1//EN"
  "http://www.w3.org/Graphics/SVG/1.1/DTD/svg11.dtd">
<svg xmlns:xlink="http://www.w3.org/1999/xlink" width="387.8322pt" height="155.67pt" viewBox="0 0 387.8322 155.67" xmlns="http://www.w3.org/2000/svg" version="1.1">
 <metadata>
  <rdf:RDF xmlns:dc="http://purl.org/dc/elements/1.1/" xmlns:cc="http://creativecommons.org/ns#" xmlns:rdf="http://www.w3.org/1999/02/22-rdf-syntax-ns#">
   <cc:Work>
    <dc:type rdf:resource="http://purl.org/dc/dcmitype/StillImage"/>
    <dc:date>2023-05-23T15:10:31.296121</dc:date>
    <dc:format>image/svg+xml</dc:format>
    <dc:creator>
     <cc:Agent>
      <dc:title>Matplotlib v3.5.2, https://matplotlib.org/</dc:title>
     </cc:Agent>
    </dc:creator>
   </cc:Work>
  </rdf:RDF>
 </metadata>
 <defs>
  <style type="text/css">*{stroke-linejoin: round; stroke-linecap: butt}</style>
 </defs>
 <g id="figure_1">
  <g id="patch_1">
   <path d="M 0 155.67 
L 387.8322 155.67 
L 387.8322 0 
L 0 0 
L 0 155.67 
z
" style="fill: none"/>
  </g>
  <g id="axes_1">
   <g id="patch_2">
    <path d="M 116.7786 103.93 
C 120.836207 103.93 124.728172 102.317895 127.597334 99.448734 
C 130.466495 96.579572 132.0786 92.687607 132.0786 88.63 
C 132.0786 84.572393 130.466495 80.680428 127.597334 77.811266 
C 124.728172 74.942105 120.836207 73.33 116.7786 73.33 
C 112.720993 73.33 108.829028 74.942105 105.959866 77.811266 
C 103.090705 80.680428 101.4786 84.572393 101.4786 88.63 
C 101.4786 92.687607 103.090705 96.579572 105.959866 99.448734 
C 108.829028 102.317895 112.720993 103.93 116.7786 103.93 
L 116.7786 103.93 
z
" clip-path="url(#p48fa34f326)" style="fill: none; stroke: #000000; stroke-width: 2; stroke-linejoin: miter"/>
   </g>
   <g id="patch_3">
    <path d="M 170.3286 42.73 
C 170.3286 41.715936 169.925335 40.742368 169.208283 40.025317 
C 168.491232 39.308265 167.517664 38.905 166.5036 38.905 
C 165.489536 38.905 164.515968 39.308265 163.798917 40.025317 
C 163.081865 40.742368 162.6786 41.715936 162.6786 42.73 
" clip-path="url(#p48fa34f326)" style="fill: none; stroke: #000000; stroke-width: 2; stroke-linejoin: miter"/>
   </g>
   <g id="patch_4">
    <path d="M 177.9786 42.73 
C 177.9786 41.715936 177.575335 40.742368 176.858283 40.025317 
C 176.141232 39.308265 175.167664 38.905 174.1536 38.905 
C 173.139536 38.905 172.165968 39.308265 171.448917 40.025317 
C 170.731865 40.742368 170.3286 41.715936 170.3286 42.73 
" clip-path="url(#p48fa34f326)" style="fill: none; stroke: #000000; stroke-width: 2; stroke-linejoin: miter"/>
   </g>
   <g id="patch_5">
    <path d="M 185.6286 42.73 
C 185.6286 41.715936 185.225335 40.742368 184.508283 40.025317 
C 183.791232 39.308265 182.817664 38.905 181.8036 38.905 
C 180.789536 38.905 179.815968 39.308265 179.098917 40.025317 
C 178.381865 40.742368 177.9786 41.715936 177.9786 42.73 
" clip-path="url(#p48fa34f326)" style="fill: none; stroke: #000000; stroke-width: 2; stroke-linejoin: miter"/>
   </g>
   <g id="patch_6">
    <path d="M 193.2786 42.73 
C 193.2786 41.715936 192.875335 40.742368 192.158283 40.025317 
C 191.441232 39.308265 190.467664 38.905 189.4536 38.905 
C 188.439536 38.905 187.465968 39.308265 186.748917 40.025317 
C 186.031865 40.742368 185.6286 41.715936 185.6286 42.73 
" clip-path="url(#p48fa34f326)" style="fill: none; stroke: #000000; stroke-width: 2; stroke-linejoin: miter"/>
   </g>
   <g id="patch_7">
    <path d="M 116.7786 103.93 
C 120.836207 103.93 124.728172 102.317895 127.597334 99.448734 
C 130.466495 96.579572 132.0786 92.687607 132.0786 88.63 
C 132.0786 84.572393 130.466495 80.680428 127.597334 77.811266 
C 124.728172 74.942105 120.836207 73.33 116.7786 73.33 
C 112.720993 73.33 108.829028 74.942105 105.959866 77.811266 
C 103.090705 80.680428 101.4786 84.572393 101.4786 88.63 
C 101.4786 92.687607 103.090705 96.579572 105.959866 99.448734 
C 108.829028 102.317895 112.720993 103.93 116.7786 103.93 
L 116.7786 103.93 
z
" clip-path="url(#p48fa34f326)" style="fill: none; stroke: #000000; stroke-width: 2; stroke-linejoin: miter"/>
   </g>
   <g id="patch_8">
    <path d="M 170.3286 42.73 
C 170.3286 41.715936 169.925335 40.742368 169.208283 40.025317 
C 168.491232 39.308265 167.517664 38.905 166.5036 38.905 
C 165.489536 38.905 164.515968 39.308265 163.798917 40.025317 
C 163.081865 40.742368 162.6786 41.715936 162.6786 42.73 
" clip-path="url(#p48fa34f326)" style="fill: none; stroke: #000000; stroke-width: 2; stroke-linejoin: miter"/>
   </g>
   <g id="patch_9">
    <path d="M 177.9786 42.73 
C 177.9786 41.715936 177.575335 40.742368 176.858283 40.025317 
C 176.141232 39.308265 175.167664 38.905 174.1536 38.905 
C 173.139536 38.905 172.165968 39.308265 171.448917 40.025317 
C 170.731865 40.742368 170.3286 41.715936 170.3286 42.73 
" clip-path="url(#p48fa34f326)" style="fill: none; stroke: #000000; stroke-width: 2; stroke-linejoin: miter"/>
   </g>
   <g id="patch_10">
    <path d="M 185.6286 42.73 
C 185.6286 41.715936 185.225335 40.742368 184.508283 40.025317 
C 183.791232 39.308265 182.817664 38.905 181.8036 38.905 
C 180.789536 38.905 179.815968 39.308265 179.098917 40.025317 
C 178.381865 40.742368 177.9786 41.715936 177.9786 42.73 
" clip-path="url(#p48fa34f326)" style="fill: none; stroke: #000000; stroke-width: 2; stroke-linejoin: miter"/>
   </g>
   <g id="patch_11">
    <path d="M 193.2786 42.73 
C 193.2786 41.715936 192.875335 40.742368 192.158283 40.025317 
C 191.441232 39.308265 190.467664 38.905 189.4536 38.905 
C 188.439536 38.905 187.465968 39.308265 186.748917 40.025317 
C 186.031865 40.742368 185.6286 41.715936 185.6286 42.73 
" clip-path="url(#p48fa34f326)" style="fill: none; stroke: #000000; stroke-width: 2; stroke-linejoin: miter"/>
   </g>
   <g id="line2d_1">
    <path d="M 116.7786 134.53 
L 116.7786 103.93 
L 116.7786 103.93 
M 116.7786 73.33 
L 116.7786 73.33 
L 116.7786 42.73 
" clip-path="url(#p48fa34f326)" style="fill: none; stroke: #000000; stroke-width: 2; stroke-linecap: round"/>
   </g>
   <g id="line2d_2">
    <path d="M 119.8386 96.28 
L 113.7186 96.28 
" clip-path="url(#p48fa34f326)" style="fill: none; stroke: #000000; stroke-width: 2; stroke-linecap: round"/>
   </g>
   <g id="line2d_3">
    <path d="M 116.7786 84.04 
L 116.7786 77.92 
" clip-path="url(#p48fa34f326)" style="fill: none; stroke: #000000; stroke-width: 2; stroke-linecap: round"/>
   </g>
   <g id="line2d_4">
    <path d="M 119.8386 80.98 
L 113.7186 80.98 
" clip-path="url(#p48fa34f326)" style="fill: none; stroke: #000000; stroke-width: 2; stroke-linecap: round"/>
   </g>
   <g id="line2d_5">
    <path d="M 116.7786 42.73 
L 162.6786 42.73 
M 193.2786 42.73 
L 239.1786 42.73 
" clip-path="url(#p48fa34f326)" style="fill: none; stroke: #000000; stroke-width: 2; stroke-linecap: round"/>
   </g>
   <g id="line2d_6">
    <path d="M 239.1786 42.73 
L 269.7786 42.73 
L 272.3286 35.08 
L 277.4286 50.38 
L 282.5286 35.08 
L 287.6286 50.38 
L 292.7286 35.08 
L 297.8286 50.38 
L 300.3786 42.73 
L 330.9786 42.73 
" clip-path="url(#p48fa34f326)" style="fill: none; stroke: #000000; stroke-width: 2; stroke-linecap: round"/>
   </g>
   <g id="line2d_7">
    <path d="M 239.1786 42.73 
L 239.1786 85.876 
M 246.8286 85.876 
L 231.5286 85.876 
M 246.8286 91.384 
L 231.5286 91.384 
M 239.1786 91.384 
L 239.1786 134.53 
" clip-path="url(#p48fa34f326)" style="fill: none; stroke: #000000; stroke-width: 2; stroke-linecap: round"/>
   </g>
   <g id="line2d_8">
    <path d="M 239.1786 134.53 
L 285.0786 134.53 
L 330.9786 134.53 
" clip-path="url(#p48fa34f326)" style="fill: none; stroke: #000000; stroke-width: 2; stroke-linecap: round"/>
   </g>
   <g id="line2d_9">
    <path d="M 239.1786 134.53 
L 177.9786 134.53 
L 116.7786 134.53 
" clip-path="url(#p48fa34f326)" style="fill: none; stroke: #000000; stroke-width: 2; stroke-linecap: round"/>
   </g>
   <g id="line2d_10">
    <path d="M 116.7786 134.53 
L 116.7786 103.93 
L 116.7786 103.93 
M 116.7786 73.33 
L 116.7786 73.33 
L 116.7786 42.73 
" clip-path="url(#p48fa34f326)" style="fill: none; stroke: #000000; stroke-width: 2; stroke-linecap: round"/>
   </g>
   <g id="line2d_11">
    <path d="M 119.8386 96.28 
L 113.7186 96.28 
" clip-path="url(#p48fa34f326)" style="fill: none; stroke: #000000; stroke-width: 2; stroke-linecap: round"/>
   </g>
   <g id="line2d_12">
    <path d="M 116.7786 84.04 
L 116.7786 77.92 
" clip-path="url(#p48fa34f326)" style="fill: none; stroke: #000000; stroke-width: 2; stroke-linecap: round"/>
   </g>
   <g id="line2d_13">
    <path d="M 119.8386 80.98 
L 113.7186 80.98 
" clip-path="url(#p48fa34f326)" style="fill: none; stroke: #000000; stroke-width: 2; stroke-linecap: round"/>
   </g>
   <g id="line2d_14">
    <path d="M 116.7786 42.73 
L 162.6786 42.73 
M 193.2786 42.73 
L 239.1786 42.73 
" clip-path="url(#p48fa34f326)" style="fill: none; stroke: #000000; stroke-width: 2; stroke-linecap: round"/>
   </g>
   <g id="line2d_15">
    <path d="M 239.1786 42.73 
L 269.7786 42.73 
L 272.3286 35.08 
L 277.4286 50.38 
L 282.5286 35.08 
L 287.6286 50.38 
L 292.7286 35.08 
L 297.8286 50.38 
L 300.3786 42.73 
L 330.9786 42.73 
" clip-path="url(#p48fa34f326)" style="fill: none; stroke: #000000; stroke-width: 2; stroke-linecap: round"/>
   </g>
   <g id="line2d_16">
    <path d="M 239.1786 42.73 
L 239.1786 85.876 
M 246.8286 85.876 
L 231.5286 85.876 
M 246.8286 91.384 
L 231.5286 91.384 
M 239.1786 91.384 
L 239.1786 134.53 
" clip-path="url(#p48fa34f326)" style="fill: none; stroke: #000000; stroke-width: 2; stroke-linecap: round"/>
   </g>
   <g id="line2d_17">
    <path d="M 239.1786 134.53 
L 285.0786 134.53 
L 330.9786 134.53 
" clip-path="url(#p48fa34f326)" style="fill: none; stroke: #000000; stroke-width: 2; stroke-linecap: round"/>
   </g>
   <g id="line2d_18">
    <path d="M 239.1786 134.53 
L 177.9786 134.53 
L 116.7786 134.53 
" clip-path="url(#p48fa34f326)" style="fill: none; stroke: #000000; stroke-width: 2; stroke-linecap: round"/>
   </g>
   <g id="text_1">
    <g clip-path="url(#p48fa34f326)">
     <!-- $v_S(t)$ -->
     <g transform="translate(76.0436 85.080586)scale(0.125 -0.125)">
      <defs>
       <path id="STIXGeneral-Italic-76" d="M 1325 448 
L 1523 653 
Q 1869 1005 2134 1456 
Q 2400 1907 2400 2131 
Q 2400 2208 2285 2317 
Q 2125 2458 2125 2605 
Q 2125 2701 2195 2761 
Q 2266 2822 2368 2822 
Q 2522 2822 2624 2704 
Q 2726 2586 2726 2445 
Q 2726 2074 2323 1453 
Q 1971 909 1562 474 
Q 1504 416 1421 326 
Q 1338 237 1299 192 
Q 1261 147 1200 86 
Q 1139 26 1110 -3 
Q 1082 -32 1043 -64 
Q 1005 -96 979 -105 
Q 954 -115 928 -115 
Q 870 -115 870 58 
L 870 211 
Q 870 1094 717 1990 
Q 653 2355 579 2470 
Q 506 2586 326 2586 
Q 198 2586 128 2579 
L 128 2662 
Q 480 2720 845 2797 
Q 915 2822 973 2822 
Q 1011 2822 1033 2739 
Q 1056 2656 1165 2093 
Q 1280 1510 1325 448 
z
" transform="scale(0.015625)"/>
       <path id="STIXGeneral-Italic-53" d="M 3251 4269 
L 2995 2989 
L 2880 3008 
Q 2880 3539 2720 3795 
Q 2560 4051 2118 4051 
Q 1786 4051 1594 3881 
Q 1402 3712 1402 3411 
Q 1402 3168 1504 3005 
Q 1606 2842 2035 2413 
Q 2464 1978 2611 1715 
Q 2758 1453 2758 1133 
Q 2758 589 2390 237 
Q 2022 -115 1466 -115 
Q 1222 -115 800 32 
Q 595 109 499 109 
Q 288 109 224 -96 
L 109 -96 
L 326 1338 
L 454 1325 
Q 442 1267 442 1178 
Q 442 710 701 409 
Q 960 109 1363 109 
Q 1734 109 1968 336 
Q 2202 563 2202 928 
Q 2202 1139 2118 1308 
Q 2035 1478 1818 1715 
L 1568 1984 
Q 1549 2003 1459 2102 
Q 1370 2202 1318 2253 
Q 1030 2560 934 2755 
Q 838 2950 838 3213 
Q 838 3699 1168 3980 
Q 1498 4262 1978 4262 
Q 2310 4262 2522 4173 
Q 2707 4102 2816 4102 
Q 2925 4102 2982 4134 
Q 3040 4166 3104 4269 
L 3251 4269 
z
" transform="scale(0.015625)"/>
       <path id="STIXGeneral-Regular-28" d="M 1946 -1030 
L 1869 -1133 
Q 1126 -710 716 32 
Q 307 774 307 1613 
Q 307 3386 1888 4326 
L 1946 4224 
Q 1293 3667 1075 3126 
Q 858 2586 858 1632 
Q 858 685 1082 96 
Q 1306 -493 1946 -1030 
z
" transform="scale(0.015625)"/>
       <path id="STIXGeneral-Italic-74" d="M 1894 2739 
L 1862 2534 
L 1325 2534 
L 768 435 
Q 755 384 755 346 
Q 755 243 851 243 
Q 928 243 1030 342 
Q 1133 442 1370 749 
L 1453 704 
Q 1158 256 969 93 
Q 781 -70 538 -70 
Q 243 -70 243 166 
Q 243 230 346 640 
L 845 2534 
L 365 2534 
L 358 2573 
Q 358 2688 570 2733 
Q 730 2771 992 2979 
Q 1254 3187 1421 3437 
Q 1459 3494 1510 3494 
Q 1568 3494 1568 3443 
Q 1568 3411 1562 3398 
L 1382 2739 
L 1894 2739 
z
" transform="scale(0.015625)"/>
       <path id="STIXGeneral-Regular-29" d="M 186 4224 
L 262 4326 
Q 992 3891 1408 3148 
Q 1824 2406 1824 1581 
Q 1824 -166 243 -1133 
L 186 -1030 
Q 845 -486 1059 54 
Q 1274 595 1274 1562 
Q 1274 2534 1059 3120 
Q 845 3706 186 4224 
z
" transform="scale(0.015625)"/>
      </defs>
      <use xlink:href="#STIXGeneral-Italic-76" transform="translate(0 0.40625)"/>
      <use xlink:href="#STIXGeneral-Italic-53" transform="translate(44.399994 -12.821875)scale(0.7)"/>
      <use xlink:href="#STIXGeneral-Regular-28" transform="translate(83.809358 0.40625)"/>
      <use xlink:href="#STIXGeneral-Italic-74" transform="translate(117.109346 0.40625)"/>
      <use xlink:href="#STIXGeneral-Regular-29" transform="translate(144.909334 0.40625)"/>
     </g>
    </g>
    <g clip-path="url(#p48fa34f326)">
     <!-- $50 \angle 30^\circ$ V -->
     <g transform="translate(45.9186 99.077852)scale(0.125 -0.125)">
      <defs>
       <path id="STIXGeneral-Regular-35" d="M 2803 4358 
L 2573 3814 
Q 2534 3731 2400 3731 
L 1158 3731 
L 902 3187 
Q 1606 3053 1920 2896 
Q 2234 2739 2502 2368 
Q 2726 2061 2726 1555 
Q 2726 1094 2576 780 
Q 2426 467 2099 224 
Q 1664 -90 1011 -90 
Q 646 -90 422 19 
Q 198 128 198 307 
Q 198 550 486 550 
Q 717 550 960 352 
Q 1210 147 1414 147 
Q 1747 147 2012 480 
Q 2278 813 2278 1229 
Q 2278 1843 1850 2189 
Q 1293 2637 486 2637 
Q 410 2637 410 2688 
L 416 2720 
L 1114 4237 
L 2438 4237 
Q 2547 4237 2608 4269 
Q 2669 4301 2746 4403 
L 2803 4358 
z
" transform="scale(0.015625)"/>
       <path id="STIXGeneral-Regular-30" d="M 3046 2112 
Q 3046 1683 2963 1302 
Q 2880 922 2717 602 
Q 2554 282 2266 96 
Q 1978 -90 1600 -90 
Q 1210 -90 915 108 
Q 621 307 461 640 
Q 301 973 227 1350 
Q 154 1728 154 2150 
Q 154 2746 301 3222 
Q 448 3699 790 4012 
Q 1133 4326 1626 4326 
Q 2253 4326 2649 3712 
Q 3046 3098 3046 2112 
z
M 2432 2080 
Q 2432 3091 2217 3625 
Q 2003 4160 1587 4160 
Q 1190 4160 979 3622 
Q 768 3085 768 2106 
Q 768 1120 979 598 
Q 1190 77 1600 77 
Q 2003 77 2217 598 
Q 2432 1120 2432 2080 
z
" transform="scale(0.015625)"/>
       <path id="STIXGeneral-Regular-2220" d="M 4115 0 
L 147 0 
L 3642 3501 
L 3962 3232 
L 1165 422 
L 4115 422 
L 4115 0 
z
" transform="scale(0.015625)"/>
       <path id="STIXGeneral-Regular-33" d="M 390 3264 
L 288 3290 
Q 435 3770 748 4048 
Q 1062 4326 1542 4326 
Q 1990 4326 2265 4083 
Q 2541 3840 2541 3450 
Q 2541 2925 1946 2566 
Q 2298 2413 2477 2227 
Q 2758 1914 2758 1402 
Q 2758 890 2464 506 
Q 2246 211 1840 60 
Q 1434 -90 979 -90 
Q 262 -90 262 275 
Q 262 378 339 442 
Q 416 506 525 506 
Q 685 506 915 339 
Q 1197 141 1466 141 
Q 1818 141 2058 425 
Q 2298 710 2298 1120 
Q 2298 1856 1632 2048 
Q 1434 2112 979 2112 
L 979 2202 
Q 1338 2323 1517 2432 
Q 2035 2726 2035 3290 
Q 2035 3610 1852 3776 
Q 1670 3942 1344 3942 
Q 768 3942 390 3264 
z
" transform="scale(0.015625)"/>
       <path id="STIXGeneral-Regular-2218" d="M 1734 2224 
Q 1984 1971 1984 1612 
Q 1984 1254 1731 1001 
Q 1478 749 1120 749 
Q 755 749 505 1001 
Q 256 1254 256 1626 
Q 256 1984 509 2230 
Q 762 2477 1133 2477 
Q 1485 2477 1734 2224 
z
M 1434 1299 
Q 1562 1427 1562 1612 
Q 1562 1798 1434 1926 
Q 1306 2054 1133 2054 
Q 934 2054 806 1929 
Q 678 1805 678 1626 
Q 678 1427 803 1299 
Q 928 1171 1120 1171 
Q 1306 1171 1434 1299 
z
" transform="scale(0.015625)"/>
       <path id="DejaVuSans-20" transform="scale(0.015625)"/>
       <path id="DejaVuSans-56" d="M 1831 0 
L 50 4666 
L 709 4666 
L 2188 738 
L 3669 4666 
L 4325 4666 
L 2547 0 
L 1831 0 
z
" transform="scale(0.015625)"/>
      </defs>
      <use xlink:href="#STIXGeneral-Regular-35" transform="translate(0 0.09375)"/>
      <use xlink:href="#STIXGeneral-Regular-30" transform="translate(49.999985 0.09375)"/>
      <use xlink:href="#STIXGeneral-Regular-2220" transform="translate(99.999969 0.09375)"/>
      <use xlink:href="#STIXGeneral-Regular-33" transform="translate(168.499954 0.09375)"/>
      <use xlink:href="#STIXGeneral-Regular-30" transform="translate(218.499939 0.09375)"/>
      <use xlink:href="#STIXGeneral-Regular-2218" transform="translate(280.151202 35.36875)scale(0.7)"/>
      <use xlink:href="#DejaVuSans-20" transform="translate(319.168564 0.09375)"/>
      <use xlink:href="#DejaVuSans-56" transform="translate(350.955674 0.09375)"/>
     </g>
    </g>
   </g>
   <g id="text_2">
    <g clip-path="url(#p48fa34f326)">
     <!-- + -->
     <g transform="translate(152.341295 33.24541)scale(0.125 -0.125)">
      <defs>
       <path id="DejaVuSans-2b" d="M 2944 4013 
L 2944 2272 
L 4684 2272 
L 4684 1741 
L 2944 1741 
L 2944 0 
L 2419 0 
L 2419 1741 
L 678 1741 
L 678 2272 
L 2419 2272 
L 2419 4013 
L 2944 4013 
z
" transform="scale(0.015625)"/>
      </defs>
      <use xlink:href="#DejaVuSans-2b"/>
     </g>
    </g>
   </g>
   <g id="text_3">
    <g clip-path="url(#p48fa34f326)">
     <!-- - -->
     <g transform="translate(196.123717 33.24541)scale(0.125 -0.125)">
      <defs>
       <path id="DejaVuSans-2d" d="M 313 2009 
L 1997 2009 
L 1997 1497 
L 313 1497 
L 313 2009 
z
" transform="scale(0.015625)"/>
      </defs>
      <use xlink:href="#DejaVuSans-2d"/>
     </g>
    </g>
   </g>
   <g id="text_4">
    <g clip-path="url(#p48fa34f326)">
     <!-- $100 \angle 30^\circ$ V -->
     <g transform="translate(148.6036 55.288047)scale(0.125 -0.125)">
      <defs>
       <path id="STIXGeneral-Regular-31" d="M 2522 0 
L 755 0 
L 755 96 
Q 1107 115 1235 227 
Q 1363 339 1363 608 
L 1363 3482 
Q 1363 3795 1171 3795 
Q 1082 3795 883 3718 
L 710 3654 
L 710 3744 
L 1856 4326 
L 1914 4307 
L 1914 486 
Q 1914 275 2042 185 
Q 2170 96 2522 96 
L 2522 0 
z
" transform="scale(0.015625)"/>
      </defs>
      <use xlink:href="#STIXGeneral-Regular-31" transform="translate(0 0.09375)"/>
      <use xlink:href="#STIXGeneral-Regular-30" transform="translate(49.999985 0.09375)"/>
      <use xlink:href="#STIXGeneral-Regular-30" transform="translate(99.999969 0.09375)"/>
      <use xlink:href="#STIXGeneral-Regular-2220" transform="translate(149.999954 0.09375)"/>
      <use xlink:href="#STIXGeneral-Regular-33" transform="translate(218.499939 0.09375)"/>
      <use xlink:href="#STIXGeneral-Regular-30" transform="translate(268.499924 0.09375)"/>
      <use xlink:href="#STIXGeneral-Regular-2218" transform="translate(330.151187 35.36875)scale(0.7)"/>
      <use xlink:href="#DejaVuSans-20" transform="translate(369.168549 0.09375)"/>
      <use xlink:href="#DejaVuSans-56" transform="translate(400.955658 0.09375)"/>
     </g>
    </g>
   </g>
   <g id="patch_12">
    <path d="M 330.9786 45.025 
C 331.587241 45.025 332.171036 44.783184 332.60141 44.35281 
C 333.031784 43.922436 333.2736 43.338641 333.2736 42.73 
C 333.2736 42.121359 333.031784 41.537564 332.60141 41.10719 
C 332.171036 40.676816 331.587241 40.435 330.9786 40.435 
C 330.369959 40.435 329.786164 40.676816 329.35579 41.10719 
C 328.925416 41.537564 328.6836 42.121359 328.6836 42.73 
C 328.6836 43.338641 328.925416 43.922436 329.35579 44.35281 
C 329.786164 44.783184 330.369959 45.025 330.9786 45.025 
z
" clip-path="url(#p48fa34f326)" style="stroke: #000000; stroke-width: 2; stroke-linejoin: miter"/>
   </g>
   <g id="text_5">
    <g clip-path="url(#p48fa34f326)">
     <!-- + -->
     <g transform="translate(265.306295 29.420391)scale(0.125 -0.125)">
      <use xlink:href="#DejaVuSans-2b"/>
     </g>
    </g>
   </g>
   <g id="text_6">
    <g clip-path="url(#p48fa34f326)">
     <!-- - -->
     <g transform="translate(299.653717 29.420391)scale(0.125 -0.125)">
      <use xlink:href="#DejaVuSans-2d"/>
     </g>
    </g>
   </g>
   <g id="text_7">
    <g clip-path="url(#p48fa34f326)">
     <!-- $0 \angle 0^\circ$ V -->
     <g transform="translate(266.2261 62.938047)scale(0.125 -0.125)">
      <use xlink:href="#STIXGeneral-Regular-30" transform="translate(0 0.09375)"/>
      <use xlink:href="#STIXGeneral-Regular-2220" transform="translate(49.999985 0.09375)"/>
      <use xlink:href="#STIXGeneral-Regular-30" transform="translate(118.499969 0.09375)"/>
      <use xlink:href="#STIXGeneral-Regular-2218" transform="translate(180.151233 35.36875)scale(0.7)"/>
      <use xlink:href="#DejaVuSans-20" transform="translate(219.168595 0.09375)"/>
      <use xlink:href="#DejaVuSans-56" transform="translate(250.955704 0.09375)"/>
     </g>
    </g>
   </g>
   <g id="text_8">
    <g clip-path="url(#p48fa34f326)">
     <!-- A -->
     <g transform="translate(336.3336 46.179219)scale(0.125 -0.125)">
      <defs>
       <path id="DejaVuSans-41" d="M 2188 4044 
L 1331 1722 
L 3047 1722 
L 2188 4044 
z
M 1831 4666 
L 2547 4666 
L 4325 0 
L 3669 0 
L 3244 1197 
L 1141 1197 
L 716 0 
L 50 0 
L 1831 4666 
z
" transform="scale(0.015625)"/>
      </defs>
      <use xlink:href="#DejaVuSans-41"/>
     </g>
    </g>
   </g>
   <g id="text_9">
    <g clip-path="url(#p48fa34f326)">
     <!-- $50 \angle 150^\circ$ V -->
     <g transform="translate(169.7186 92.079219)scale(0.125 -0.125)">
      <use xlink:href="#STIXGeneral-Regular-35" transform="translate(0 0.09375)"/>
      <use xlink:href="#STIXGeneral-Regular-30" transform="translate(49.999985 0.09375)"/>
      <use xlink:href="#STIXGeneral-Regular-2220" transform="translate(99.999969 0.09375)"/>
      <use xlink:href="#STIXGeneral-Regular-31" transform="translate(168.499954 0.09375)"/>
      <use xlink:href="#STIXGeneral-Regular-35" transform="translate(218.499939 0.09375)"/>
      <use xlink:href="#STIXGeneral-Regular-30" transform="translate(268.499924 0.09375)"/>
      <use xlink:href="#STIXGeneral-Regular-2218" transform="translate(330.151187 35.36875)scale(0.7)"/>
      <use xlink:href="#DejaVuSans-20" transform="translate(369.168549 0.09375)"/>
      <use xlink:href="#DejaVuSans-56" transform="translate(400.955658 0.09375)"/>
     </g>
    </g>
   </g>
   <g id="text_10">
    <g clip-path="url(#p48fa34f326)">
     <!-- + -->
     <g transform="translate(338.6286 69.129219)scale(0.125 -0.125)">
      <use xlink:href="#DejaVuSans-2b"/>
     </g>
    </g>
   </g>
   <g id="text_11">
    <g clip-path="url(#p48fa34f326)">
     <!-- $v_{OC}$ -->
     <g transform="translate(338.6286 92.079219)scale(0.125 -0.125)">
      <defs>
       <path id="STIXGeneral-Italic-4f" d="M 4474 2675 
Q 4474 1990 4106 1363 
Q 3738 736 3149 339 
Q 2477 -115 1779 -115 
Q 1146 -115 765 281 
Q 384 678 384 1382 
Q 384 1965 697 2582 
Q 1011 3200 1517 3642 
Q 2234 4262 3034 4262 
Q 3718 4269 4096 3840 
Q 4474 3411 4474 2675 
z
M 3802 3078 
Q 3802 3533 3581 3792 
Q 3360 4051 2976 4051 
Q 2342 4051 1786 3302 
Q 1446 2842 1251 2259 
Q 1056 1677 1056 1178 
Q 1056 653 1270 374 
Q 1485 96 1888 96 
Q 2477 96 2976 704 
Q 3354 1178 3578 1862 
Q 3802 2547 3802 3078 
z
" transform="scale(0.015625)"/>
       <path id="STIXGeneral-Italic-43" d="M 4410 4250 
L 4173 2970 
L 4058 2989 
Q 3942 4032 3104 4032 
Q 2406 4032 1830 3411 
Q 1491 3053 1315 2541 
Q 1139 2029 1139 1485 
Q 1139 173 2259 173 
Q 2656 173 2985 339 
Q 3315 506 3725 934 
L 3840 838 
Q 3411 333 2998 109 
Q 2586 -115 2093 -115 
Q 1344 -115 883 329 
Q 422 774 422 1555 
Q 422 2214 748 2812 
Q 1075 3411 1619 3795 
Q 2272 4262 3021 4262 
Q 3462 4262 3770 4154 
Q 3898 4109 4032 4109 
Q 4205 4109 4275 4250 
L 4410 4250 
z
" transform="scale(0.015625)"/>
      </defs>
      <use xlink:href="#STIXGeneral-Italic-76" transform="translate(0 0.90625)"/>
      <use xlink:href="#STIXGeneral-Italic-4f" transform="translate(44.399994 -12.321875)scale(0.7)"/>
      <use xlink:href="#STIXGeneral-Italic-43" transform="translate(94.939981 -12.321875)scale(0.7)"/>
     </g>
    </g>
   </g>
   <g id="text_12">
    <g clip-path="url(#p48fa34f326)">
     <!-- - -->
     <g transform="translate(338.6286 115.029219)scale(0.125 -0.125)">
      <use xlink:href="#DejaVuSans-2d"/>
     </g>
    </g>
   </g>
   <g id="text_13">
    <g clip-path="url(#p48fa34f326)">
     <!-- + -->
     <g transform="translate(249.8886 76.779219)scale(0.125 -0.125)">
      <use xlink:href="#DejaVuSans-2b"/>
     </g>
    </g>
   </g>
   <g id="text_14">
    <g clip-path="url(#p48fa34f326)">
     <!-- - -->
     <g transform="translate(249.8886 107.379219)scale(0.125 -0.125)">
      <use xlink:href="#DejaVuSans-2d"/>
     </g>
    </g>
   </g>
   <g id="patch_13">
    <path d="M 330.9786 136.825 
C 331.587241 136.825 332.171036 136.583184 332.60141 136.15281 
C 333.031784 135.722436 333.2736 135.138641 333.2736 134.53 
C 333.2736 133.921359 333.031784 133.337564 332.60141 132.90719 
C 332.171036 132.476816 331.587241 132.235 330.9786 132.235 
C 330.369959 132.235 329.786164 132.476816 329.35579 132.90719 
C 328.925416 133.337564 328.6836 133.921359 328.6836 134.53 
C 328.6836 135.138641 328.925416 135.722436 329.35579 136.15281 
C 329.786164 136.583184 330.369959 136.825 330.9786 136.825 
z
" clip-path="url(#p48fa34f326)" style="stroke: #000000; stroke-width: 2; stroke-linejoin: miter"/>
   </g>
   <g id="text_15">
    <g clip-path="url(#p48fa34f326)">
     <!-- B -->
     <g transform="translate(336.3336 137.979219)scale(0.125 -0.125)">
      <defs>
       <path id="DejaVuSans-42" d="M 1259 2228 
L 1259 519 
L 2272 519 
Q 2781 519 3026 730 
Q 3272 941 3272 1375 
Q 3272 1813 3026 2020 
Q 2781 2228 2272 2228 
L 1259 2228 
z
M 1259 4147 
L 1259 2741 
L 2194 2741 
Q 2656 2741 2882 2914 
Q 3109 3088 3109 3444 
Q 3109 3797 2882 3972 
Q 2656 4147 2194 4147 
L 1259 4147 
z
M 628 4666 
L 2241 4666 
Q 2963 4666 3353 4366 
Q 3744 4066 3744 3513 
Q 3744 3084 3544 2831 
Q 3344 2578 2956 2516 
Q 3422 2416 3680 2098 
Q 3938 1781 3938 1306 
Q 3938 681 3513 340 
Q 3088 0 2303 0 
L 628 0 
L 628 4666 
z
" transform="scale(0.015625)"/>
      </defs>
      <use xlink:href="#DejaVuSans-42"/>
     </g>
    </g>
   </g>
   <g id="text_16">
    <g clip-path="url(#p48fa34f326)">
     <!-- $v_S(t)$ -->
     <g transform="translate(76.0436 85.080586)scale(0.125 -0.125)">
      <use xlink:href="#STIXGeneral-Italic-76" transform="translate(0 0.40625)"/>
      <use xlink:href="#STIXGeneral-Italic-53" transform="translate(44.399994 -12.821875)scale(0.7)"/>
      <use xlink:href="#STIXGeneral-Regular-28" transform="translate(83.809358 0.40625)"/>
      <use xlink:href="#STIXGeneral-Italic-74" transform="translate(117.109346 0.40625)"/>
      <use xlink:href="#STIXGeneral-Regular-29" transform="translate(144.909334 0.40625)"/>
     </g>
    </g>
    <g clip-path="url(#p48fa34f326)">
     <!-- $50 \angle 30^\circ$ V -->
     <g transform="translate(45.9186 99.077852)scale(0.125 -0.125)">
      <use xlink:href="#STIXGeneral-Regular-35" transform="translate(0 0.09375)"/>
      <use xlink:href="#STIXGeneral-Regular-30" transform="translate(49.999985 0.09375)"/>
      <use xlink:href="#STIXGeneral-Regular-2220" transform="translate(99.999969 0.09375)"/>
      <use xlink:href="#STIXGeneral-Regular-33" transform="translate(168.499954 0.09375)"/>
      <use xlink:href="#STIXGeneral-Regular-30" transform="translate(218.499939 0.09375)"/>
      <use xlink:href="#STIXGeneral-Regular-2218" transform="translate(280.151202 35.36875)scale(0.7)"/>
      <use xlink:href="#DejaVuSans-20" transform="translate(319.168564 0.09375)"/>
      <use xlink:href="#DejaVuSans-56" transform="translate(350.955674 0.09375)"/>
     </g>
    </g>
   </g>
   <g id="text_17">
    <g clip-path="url(#p48fa34f326)">
     <!-- + -->
     <g transform="translate(152.341295 33.24541)scale(0.125 -0.125)">
      <use xlink:href="#DejaVuSans-2b"/>
     </g>
    </g>
   </g>
   <g id="text_18">
    <g clip-path="url(#p48fa34f326)">
     <!-- - -->
     <g transform="translate(196.123717 33.24541)scale(0.125 -0.125)">
      <use xlink:href="#DejaVuSans-2d"/>
     </g>
    </g>
   </g>
   <g id="text_19">
    <g clip-path="url(#p48fa34f326)">
     <!-- $100 \angle 30^\circ$ V -->
     <g transform="translate(148.6036 55.288047)scale(0.125 -0.125)">
      <use xlink:href="#STIXGeneral-Regular-31" transform="translate(0 0.09375)"/>
      <use xlink:href="#STIXGeneral-Regular-30" transform="translate(49.999985 0.09375)"/>
      <use xlink:href="#STIXGeneral-Regular-30" transform="translate(99.999969 0.09375)"/>
      <use xlink:href="#STIXGeneral-Regular-2220" transform="translate(149.999954 0.09375)"/>
      <use xlink:href="#STIXGeneral-Regular-33" transform="translate(218.499939 0.09375)"/>
      <use xlink:href="#STIXGeneral-Regular-30" transform="translate(268.499924 0.09375)"/>
      <use xlink:href="#STIXGeneral-Regular-2218" transform="translate(330.151187 35.36875)scale(0.7)"/>
      <use xlink:href="#DejaVuSans-20" transform="translate(369.168549 0.09375)"/>
      <use xlink:href="#DejaVuSans-56" transform="translate(400.955658 0.09375)"/>
     </g>
    </g>
   </g>
   <g id="patch_14">
    <path d="M 330.9786 45.025 
C 331.587241 45.025 332.171036 44.783184 332.60141 44.35281 
C 333.031784 43.922436 333.2736 43.338641 333.2736 42.73 
C 333.2736 42.121359 333.031784 41.537564 332.60141 41.10719 
C 332.171036 40.676816 331.587241 40.435 330.9786 40.435 
C 330.369959 40.435 329.786164 40.676816 329.35579 41.10719 
C 328.925416 41.537564 328.6836 42.121359 328.6836 42.73 
C 328.6836 43.338641 328.925416 43.922436 329.35579 44.35281 
C 329.786164 44.783184 330.369959 45.025 330.9786 45.025 
z
" clip-path="url(#p48fa34f326)" style="stroke: #000000; stroke-width: 2; stroke-linejoin: miter"/>
   </g>
   <g id="text_20">
    <g clip-path="url(#p48fa34f326)">
     <!-- + -->
     <g transform="translate(265.306295 29.420391)scale(0.125 -0.125)">
      <use xlink:href="#DejaVuSans-2b"/>
     </g>
    </g>
   </g>
   <g id="text_21">
    <g clip-path="url(#p48fa34f326)">
     <!-- - -->
     <g transform="translate(299.653717 29.420391)scale(0.125 -0.125)">
      <use xlink:href="#DejaVuSans-2d"/>
     </g>
    </g>
   </g>
   <g id="text_22">
    <g clip-path="url(#p48fa34f326)">
     <!-- $0 \angle 0^\circ$ V -->
     <g transform="translate(266.2261 62.938047)scale(0.125 -0.125)">
      <use xlink:href="#STIXGeneral-Regular-30" transform="translate(0 0.09375)"/>
      <use xlink:href="#STIXGeneral-Regular-2220" transform="translate(49.999985 0.09375)"/>
      <use xlink:href="#STIXGeneral-Regular-30" transform="translate(118.499969 0.09375)"/>
      <use xlink:href="#STIXGeneral-Regular-2218" transform="translate(180.151233 35.36875)scale(0.7)"/>
      <use xlink:href="#DejaVuSans-20" transform="translate(219.168595 0.09375)"/>
      <use xlink:href="#DejaVuSans-56" transform="translate(250.955704 0.09375)"/>
     </g>
    </g>
   </g>
   <g id="text_23">
    <g clip-path="url(#p48fa34f326)">
     <!-- A -->
     <g transform="translate(336.3336 46.179219)scale(0.125 -0.125)">
      <use xlink:href="#DejaVuSans-41"/>
     </g>
    </g>
   </g>
   <g id="text_24">
    <g clip-path="url(#p48fa34f326)">
     <!-- $50 \angle 150^\circ$ V -->
     <g transform="translate(169.7186 92.079219)scale(0.125 -0.125)">
      <use xlink:href="#STIXGeneral-Regular-35" transform="translate(0 0.09375)"/>
      <use xlink:href="#STIXGeneral-Regular-30" transform="translate(49.999985 0.09375)"/>
      <use xlink:href="#STIXGeneral-Regular-2220" transform="translate(99.999969 0.09375)"/>
      <use xlink:href="#STIXGeneral-Regular-31" transform="translate(168.499954 0.09375)"/>
      <use xlink:href="#STIXGeneral-Regular-35" transform="translate(218.499939 0.09375)"/>
      <use xlink:href="#STIXGeneral-Regular-30" transform="translate(268.499924 0.09375)"/>
      <use xlink:href="#STIXGeneral-Regular-2218" transform="translate(330.151187 35.36875)scale(0.7)"/>
      <use xlink:href="#DejaVuSans-20" transform="translate(369.168549 0.09375)"/>
      <use xlink:href="#DejaVuSans-56" transform="translate(400.955658 0.09375)"/>
     </g>
    </g>
   </g>
   <g id="text_25">
    <g clip-path="url(#p48fa34f326)">
     <!-- + -->
     <g transform="translate(338.6286 69.129219)scale(0.125 -0.125)">
      <use xlink:href="#DejaVuSans-2b"/>
     </g>
    </g>
   </g>
   <g id="text_26">
    <g clip-path="url(#p48fa34f326)">
     <!-- $v_{OC}$ -->
     <g transform="translate(338.6286 92.079219)scale(0.125 -0.125)">
      <use xlink:href="#STIXGeneral-Italic-76" transform="translate(0 0.90625)"/>
      <use xlink:href="#STIXGeneral-Italic-4f" transform="translate(44.399994 -12.321875)scale(0.7)"/>
      <use xlink:href="#STIXGeneral-Italic-43" transform="translate(94.939981 -12.321875)scale(0.7)"/>
     </g>
    </g>
   </g>
   <g id="text_27">
    <g clip-path="url(#p48fa34f326)">
     <!-- - -->
     <g transform="translate(338.6286 115.029219)scale(0.125 -0.125)">
      <use xlink:href="#DejaVuSans-2d"/>
     </g>
    </g>
   </g>
   <g id="text_28">
    <g clip-path="url(#p48fa34f326)">
     <!-- + -->
     <g transform="translate(249.8886 76.779219)scale(0.125 -0.125)">
      <use xlink:href="#DejaVuSans-2b"/>
     </g>
    </g>
   </g>
   <g id="text_29">
    <g clip-path="url(#p48fa34f326)">
     <!-- - -->
     <g transform="translate(249.8886 107.379219)scale(0.125 -0.125)">
      <use xlink:href="#DejaVuSans-2d"/>
     </g>
    </g>
   </g>
   <g id="patch_15">
    <path d="M 330.9786 136.825 
C 331.587241 136.825 332.171036 136.583184 332.60141 136.15281 
C 333.031784 135.722436 333.2736 135.138641 333.2736 134.53 
C 333.2736 133.921359 333.031784 133.337564 332.60141 132.90719 
C 332.171036 132.476816 331.587241 132.235 330.9786 132.235 
C 330.369959 132.235 329.786164 132.476816 329.35579 132.90719 
C 328.925416 133.337564 328.6836 133.921359 328.6836 134.53 
C 328.6836 135.138641 328.925416 135.722436 329.35579 136.15281 
C 329.786164 136.583184 330.369959 136.825 330.9786 136.825 
z
" clip-path="url(#p48fa34f326)" style="stroke: #000000; stroke-width: 2; stroke-linejoin: miter"/>
   </g>
   <g id="text_30">
    <g clip-path="url(#p48fa34f326)">
     <!-- B -->
     <g transform="translate(336.3336 137.979219)scale(0.125 -0.125)">
      <use xlink:href="#DejaVuSans-42"/>
     </g>
    </g>
   </g>
  </g>
 </g>
 <defs>
  <clipPath id="p48fa34f326">
   <rect x="7.2" y="7.2" width="373.4322" height="141.27"/>
  </clipPath>
 </defs>
</svg>
