<?xml version="1.0" encoding="utf-8" standalone="no"?>
<!DOCTYPE svg PUBLIC "-//W3C//DTD SVG 1.1//EN"
  "http://www.w3.org/Graphics/SVG/1.1/DTD/svg11.dtd">
<svg xmlns:xlink="http://www.w3.org/1999/xlink" width="485.9868pt" height="169.95pt" viewBox="0 0 485.9868 169.95" xmlns="http://www.w3.org/2000/svg" version="1.1">
 <metadata>
  <rdf:RDF xmlns:dc="http://purl.org/dc/elements/1.1/" xmlns:cc="http://creativecommons.org/ns#" xmlns:rdf="http://www.w3.org/1999/02/22-rdf-syntax-ns#">
   <cc:Work>
    <dc:type rdf:resource="http://purl.org/dc/dcmitype/StillImage"/>
    <dc:date>2023-06-28T14:16:10.372384</dc:date>
    <dc:format>image/svg+xml</dc:format>
    <dc:creator>
     <cc:Agent>
      <dc:title>Matplotlib v3.5.2, https://matplotlib.org/</dc:title>
     </cc:Agent>
    </dc:creator>
   </cc:Work>
  </rdf:RDF>
 </metadata>
 <defs>
  <style type="text/css">*{stroke-linejoin: round; stroke-linecap: butt}</style>
 </defs>
 <g id="figure_1">
  <g id="patch_1">
   <path d="M 0 169.95 
L 485.9868 169.95 
L 485.9868 0 
L 0 0 
L 0 169.95 
z
" style="fill: none"/>
  </g>
  <g id="axes_1">
   <g id="patch_2">
    <path d="M 250.0518 118.21 
C 254.109407 118.21 258.001372 116.597895 260.870534 113.728734 
C 263.739695 110.859572 265.3518 106.967607 265.3518 102.91 
C 265.3518 98.852393 263.739695 94.960428 260.870534 92.091266 
C 258.001372 89.222105 254.109407 87.61 250.0518 87.61 
C 245.994193 87.61 242.102228 89.222105 239.233066 92.091266 
C 236.363905 94.960428 234.7518 98.852393 234.7518 102.91 
C 234.7518 106.967607 236.363905 110.859572 239.233066 113.728734 
C 242.102228 116.597895 245.994193 118.21 250.0518 118.21 
L 250.0518 118.21 
z
" clip-path="url(#p9a7ed19f07)" style="fill: none; stroke: #000000; stroke-width: 2; stroke-linejoin: miter"/>
   </g>
   <g id="patch_3">
    <path d="M 158.2518 118.21 
C 162.309407 118.21 166.201372 116.597895 169.070534 113.728734 
C 171.939695 110.859572 173.5518 106.967607 173.5518 102.91 
C 173.5518 98.852393 171.939695 94.960428 169.070534 92.091266 
C 166.201372 89.222105 162.309407 87.61 158.2518 87.61 
C 154.194193 87.61 150.302228 89.222105 147.433066 92.091266 
C 144.563905 94.960428 142.9518 98.852393 142.9518 102.91 
C 142.9518 106.967607 144.563905 110.859572 147.433066 113.728734 
C 150.302228 116.597895 154.194193 118.21 158.2518 118.21 
L 158.2518 118.21 
z
" clip-path="url(#p9a7ed19f07)" style="fill: none; stroke: #000000; stroke-width: 2; stroke-linejoin: miter"/>
   </g>
   <g id="patch_4">
    <path d="M 262.2918 154.93 
L 262.43745 154.928844 
L 262.583062 154.925378 
L 262.728602 154.919602 
L 262.874032 154.911518 
L 263.019315 154.901127 
L 263.164414 154.888432 
L 263.309295 154.873437 
L 263.453919 154.856145 
L 263.59825 154.836561 
L 263.742253 154.814689 
L 263.88589 154.790535 
L 264.029126 154.764105 
L 264.171925 154.735406 
L 264.314251 154.704445 
L 264.456067 154.67123 
L 264.597339 154.635769 
L 264.73803 154.598071 
L 264.878105 154.558145 
L 265.017529 154.516003 
L 265.156267 154.471653 
L 265.294284 154.425108 
L 265.431545 154.376378 
L 265.568016 154.325477 
L 265.703661 154.272418 
L 265.838448 154.217212 
L 265.972342 154.159876 
L 266.10531 154.100422 
L 266.237317 154.038866 
L 266.368332 153.975223 
L 266.498319 153.909509 
L 266.627248 153.841742 
L 266.755086 153.771937 
L 266.8818 153.700113 
L 267.007358 153.626288 
L 267.13173 153.550479 
L 267.254883 153.472707 
L 267.376786 153.392991 
L 267.49741 153.311351 
L 267.616722 153.227807 
L 267.734695 153.142381 
L 267.851297 153.055094 
L 267.966499 152.965967 
L 268.080273 152.875025 
L 268.19259 152.782288 
L 268.303422 152.687781 
L 268.412739 152.591528 
L 268.520516 152.493552 
L 268.626725 152.393878 
L 268.731339 152.292532 
L 268.834332 152.189539 
L 268.935678 152.084925 
L 269.035352 151.978716 
L 269.133328 151.870939 
L 269.229581 151.761622 
L 269.324088 151.65079 
L 269.416825 151.538473 
L 269.507767 151.424699 
L 269.596894 151.309497 
L 269.684181 151.192895 
L 269.769607 151.074922 
L 269.853151 150.95561 
L 269.934791 150.834986 
L 270.014507 150.713083 
L 270.092279 150.58993 
L 270.168088 150.465558 
L 270.241913 150.34 
L 270.313737 150.213286 
L 270.383542 150.085448 
L 270.451309 149.956519 
L 270.517023 149.826532 
L 270.580666 149.695517 
L 270.642222 149.56351 
L 270.701676 149.430542 
L 270.759012 149.296648 
L 270.814218 149.161861 
L 270.867277 149.026216 
L 270.918178 148.889745 
L 270.966908 148.752484 
L 271.013453 148.614467 
L 271.057803 148.475729 
L 271.099945 148.336305 
L 271.139871 148.19623 
L 271.177569 148.055539 
L 271.21303 147.914267 
L 271.246245 147.772451 
L 271.277206 147.630125 
L 271.305905 147.487326 
L 271.332335 147.34409 
L 271.356489 147.200453 
L 271.378361 147.05645 
L 271.397945 146.912119 
L 271.415237 146.767495 
L 271.430232 146.622614 
L 271.442927 146.477515 
L 271.453318 146.332232 
L 271.461402 146.186802 
L 271.467178 146.041262 
L 271.470644 145.89565 
L 271.4718 145.75 
L 271.4718 52.42 
L 271.470644 52.27435 
L 271.467178 52.128738 
L 271.461402 51.983198 
L 271.453318 51.837768 
L 271.442927 51.692485 
L 271.430232 51.547386 
L 271.415237 51.402505 
L 271.397945 51.257881 
L 271.378361 51.11355 
L 271.356489 50.969547 
L 271.332335 50.82591 
L 271.305905 50.682674 
L 271.277206 50.539875 
L 271.246245 50.397549 
L 271.21303 50.255733 
L 271.177569 50.114461 
L 271.139871 49.97377 
L 271.099945 49.833695 
L 271.057803 49.694271 
L 271.013453 49.555533 
L 270.966908 49.417516 
L 270.918178 49.280255 
L 270.867277 49.143784 
L 270.814218 49.008139 
L 270.759012 48.873352 
L 270.701676 48.739458 
L 270.642222 48.60649 
L 270.580666 48.474483 
L 270.517023 48.343468 
L 270.451309 48.213481 
L 270.383542 48.084552 
L 270.313737 47.956714 
L 270.241913 47.83 
L 270.168088 47.704442 
L 270.092279 47.58007 
L 270.014507 47.456917 
L 269.934791 47.335014 
L 269.853151 47.21439 
L 269.769607 47.095078 
L 269.684181 46.977105 
L 269.596894 46.860503 
L 269.507767 46.745301 
L 269.416825 46.631527 
L 269.324088 46.51921 
L 269.229581 46.408378 
L 269.133328 46.299061 
L 269.035352 46.191284 
L 268.935678 46.085075 
L 268.834332 45.980461 
L 268.731339 45.877468 
L 268.626725 45.776122 
L 268.520516 45.676448 
L 268.412739 45.578472 
L 268.303422 45.482219 
L 268.19259 45.387712 
L 268.080273 45.294975 
L 267.966499 45.204033 
L 267.851297 45.114906 
L 267.734695 45.027619 
L 267.616722 44.942193 
L 267.49741 44.858649 
L 267.376786 44.777009 
L 267.254883 44.697293 
L 267.13173 44.619521 
L 267.007358 44.543712 
L 266.8818 44.469887 
L 266.755086 44.398063 
L 266.627248 44.328258 
L 266.498319 44.260491 
L 266.368332 44.194777 
L 266.237317 44.131134 
L 266.10531 44.069578 
L 265.972342 44.010124 
L 265.838448 43.952788 
L 265.703661 43.897582 
L 265.568016 43.844523 
L 265.431545 43.793622 
L 265.294284 43.744892 
L 265.156267 43.698347 
L 265.017529 43.653997 
L 264.878105 43.611855 
L 264.73803 43.571929 
L 264.597339 43.534231 
L 264.456067 43.49877 
L 264.314251 43.465555 
L 264.171925 43.434594 
L 264.029126 43.405895 
L 263.88589 43.379465 
L 263.742253 43.355311 
L 263.59825 43.333439 
L 263.453919 43.313855 
L 263.309295 43.296563 
L 263.164414 43.281568 
L 263.019315 43.268873 
L 262.874032 43.258482 
L 262.728602 43.250398 
L 262.583062 43.244622 
L 262.43745 43.241156 
L 262.2918 43.24 
L 61.8618 43.24 
L 61.71615 43.241156 
L 61.570538 43.244622 
L 61.424998 43.250398 
L 61.279568 43.258482 
L 61.134285 43.268873 
L 60.989186 43.281568 
L 60.844305 43.296563 
L 60.699681 43.313855 
L 60.55535 43.333439 
L 60.411347 43.355311 
L 60.26771 43.379465 
L 60.124474 43.405895 
L 59.981675 43.434594 
L 59.839349 43.465555 
L 59.697533 43.49877 
L 59.556261 43.534231 
L 59.41557 43.571929 
L 59.275495 43.611855 
L 59.136071 43.653997 
L 58.997333 43.698347 
L 58.859316 43.744892 
L 58.722055 43.793622 
L 58.585584 43.844523 
L 58.449939 43.897582 
L 58.315152 43.952788 
L 58.181258 44.010124 
L 58.04829 44.069578 
L 57.916283 44.131134 
L 57.785268 44.194777 
L 57.655281 44.260491 
L 57.526352 44.328258 
L 57.398514 44.398063 
L 57.2718 44.469887 
L 57.146242 44.543712 
L 57.02187 44.619521 
L 56.898717 44.697293 
L 56.776814 44.777009 
L 56.65619 44.858649 
L 56.536878 44.942193 
L 56.418905 45.027619 
L 56.302303 45.114906 
L 56.187101 45.204033 
L 56.073327 45.294975 
L 55.96101 45.387712 
L 55.850178 45.482219 
L 55.740861 45.578472 
L 55.633084 45.676448 
L 55.526875 45.776122 
L 55.422261 45.877468 
L 55.319268 45.980461 
L 55.217922 46.085075 
L 55.118248 46.191284 
L 55.020272 46.299061 
L 54.924019 46.408378 
L 54.829512 46.51921 
L 54.736775 46.631527 
L 54.645833 46.745301 
L 54.556706 46.860503 
L 54.469419 46.977105 
L 54.383993 47.095078 
L 54.300449 47.21439 
L 54.218809 47.335014 
L 54.139093 47.456917 
L 54.061321 47.58007 
L 53.985512 47.704442 
L 53.911687 47.83 
L 53.839863 47.956714 
L 53.770058 48.084552 
L 53.702291 48.213481 
L 53.636577 48.343468 
L 53.572934 48.474483 
L 53.511378 48.60649 
L 53.451924 48.739458 
L 53.394588 48.873352 
L 53.339382 49.008139 
L 53.286323 49.143784 
L 53.235422 49.280255 
L 53.186692 49.417516 
L 53.140147 49.555533 
L 53.095797 49.694271 
L 53.053655 49.833695 
L 53.013729 49.97377 
L 52.976031 50.114461 
L 52.94057 50.255733 
L 52.907355 50.397549 
L 52.876394 50.539875 
L 52.847695 50.682674 
L 52.821265 50.82591 
L 52.797111 50.969547 
L 52.775239 51.11355 
L 52.755655 51.257881 
L 52.738363 51.402505 
L 52.723368 51.547386 
L 52.710673 51.692485 
L 52.700282 51.837768 
L 52.692198 51.983198 
L 52.686422 52.128738 
L 52.682956 52.27435 
L 52.6818 52.42 
L 52.6818 145.75 
L 52.682956 145.89565 
L 52.686422 146.041262 
L 52.692198 146.186802 
L 52.700282 146.332232 
L 52.710673 146.477515 
L 52.723368 146.622614 
L 52.738363 146.767495 
L 52.755655 146.912119 
L 52.775239 147.05645 
L 52.797111 147.200453 
L 52.821265 147.34409 
L 52.847695 147.487326 
L 52.876394 147.630125 
L 52.907355 147.772451 
L 52.94057 147.914267 
L 52.976031 148.055539 
L 53.013729 148.19623 
L 53.053655 148.336305 
L 53.095797 148.475729 
L 53.140147 148.614467 
L 53.186692 148.752484 
L 53.235422 148.889745 
L 53.286323 149.026216 
L 53.339382 149.161861 
L 53.394588 149.296648 
L 53.451924 149.430542 
L 53.511378 149.56351 
L 53.572934 149.695517 
L 53.636577 149.826532 
L 53.702291 149.956519 
L 53.770058 150.085448 
L 53.839863 150.213286 
L 53.911687 150.34 
L 53.985512 150.465558 
L 54.061321 150.58993 
L 54.139093 150.713083 
L 54.218809 150.834986 
L 54.300449 150.95561 
L 54.383993 151.074922 
L 54.469419 151.192895 
L 54.556706 151.309497 
L 54.645833 151.424699 
L 54.736775 151.538473 
L 54.829512 151.65079 
L 54.924019 151.761622 
L 55.020272 151.870939 
L 55.118248 151.978716 
L 55.217922 152.084925 
L 55.319268 152.189539 
L 55.422261 152.292532 
L 55.526875 152.393878 
L 55.633084 152.493552 
L 55.740861 152.591528 
L 55.850178 152.687781 
L 55.96101 152.782288 
L 56.073327 152.875025 
L 56.187101 152.965967 
L 56.302303 153.055094 
L 56.418905 153.142381 
L 56.536878 153.227807 
L 56.65619 153.311351 
L 56.776814 153.392991 
L 56.898717 153.472707 
L 57.02187 153.550479 
L 57.146242 153.626288 
L 57.2718 153.700113 
L 57.398514 153.771937 
L 57.526352 153.841742 
L 57.655281 153.909509 
L 57.785268 153.975223 
L 57.916283 154.038866 
L 58.04829 154.100422 
L 58.181258 154.159876 
L 58.315152 154.217212 
L 58.449939 154.272418 
L 58.585584 154.325477 
L 58.722055 154.376378 
L 58.859316 154.425108 
L 58.997333 154.471653 
L 59.136071 154.516003 
L 59.275495 154.558145 
L 59.41557 154.598071 
L 59.556261 154.635769 
L 59.697533 154.67123 
L 59.839349 154.704445 
L 59.981675 154.735406 
L 60.124474 154.764105 
L 60.26771 154.790535 
L 60.411347 154.814689 
L 60.55535 154.836561 
L 60.699681 154.856145 
L 60.844305 154.873437 
L 60.989186 154.888432 
L 61.134285 154.901127 
L 61.279568 154.911518 
L 61.424998 154.919602 
L 61.570538 154.925378 
L 61.71615 154.928844 
L 61.8618 154.93 
L 262.2918 154.93 
z
" clip-path="url(#p9a7ed19f07)" style="fill: none; stroke-dasharray: 3.7,1.6; stroke-dashoffset: 0; stroke: #ff0000; stroke-linecap: round"/>
   </g>
   <g id="patch_5">
    <path d="M 250.0518 118.21 
C 254.109407 118.21 258.001372 116.597895 260.870534 113.728734 
C 263.739695 110.859572 265.3518 106.967607 265.3518 102.91 
C 265.3518 98.852393 263.739695 94.960428 260.870534 92.091266 
C 258.001372 89.222105 254.109407 87.61 250.0518 87.61 
C 245.994193 87.61 242.102228 89.222105 239.233066 92.091266 
C 236.363905 94.960428 234.7518 98.852393 234.7518 102.91 
C 234.7518 106.967607 236.363905 110.859572 239.233066 113.728734 
C 242.102228 116.597895 245.994193 118.21 250.0518 118.21 
L 250.0518 118.21 
z
" clip-path="url(#p9a7ed19f07)" style="fill: none; stroke: #000000; stroke-width: 2; stroke-linejoin: miter"/>
   </g>
   <g id="patch_6">
    <path d="M 158.2518 118.21 
C 162.309407 118.21 166.201372 116.597895 169.070534 113.728734 
C 171.939695 110.859572 173.5518 106.967607 173.5518 102.91 
C 173.5518 98.852393 171.939695 94.960428 169.070534 92.091266 
C 166.201372 89.222105 162.309407 87.61 158.2518 87.61 
C 154.194193 87.61 150.302228 89.222105 147.433066 92.091266 
C 144.563905 94.960428 142.9518 98.852393 142.9518 102.91 
C 142.9518 106.967607 144.563905 110.859572 147.433066 113.728734 
C 150.302228 116.597895 154.194193 118.21 158.2518 118.21 
L 158.2518 118.21 
z
" clip-path="url(#p9a7ed19f07)" style="fill: none; stroke: #000000; stroke-width: 2; stroke-linejoin: miter"/>
   </g>
   <g id="patch_7">
    <path d="M 262.2918 154.93 
L 262.43745 154.928844 
L 262.583062 154.925378 
L 262.728602 154.919602 
L 262.874032 154.911518 
L 263.019315 154.901127 
L 263.164414 154.888432 
L 263.309295 154.873437 
L 263.453919 154.856145 
L 263.59825 154.836561 
L 263.742253 154.814689 
L 263.88589 154.790535 
L 264.029126 154.764105 
L 264.171925 154.735406 
L 264.314251 154.704445 
L 264.456067 154.67123 
L 264.597339 154.635769 
L 264.73803 154.598071 
L 264.878105 154.558145 
L 265.017529 154.516003 
L 265.156267 154.471653 
L 265.294284 154.425108 
L 265.431545 154.376378 
L 265.568016 154.325477 
L 265.703661 154.272418 
L 265.838448 154.217212 
L 265.972342 154.159876 
L 266.10531 154.100422 
L 266.237317 154.038866 
L 266.368332 153.975223 
L 266.498319 153.909509 
L 266.627248 153.841742 
L 266.755086 153.771937 
L 266.8818 153.700113 
L 267.007358 153.626288 
L 267.13173 153.550479 
L 267.254883 153.472707 
L 267.376786 153.392991 
L 267.49741 153.311351 
L 267.616722 153.227807 
L 267.734695 153.142381 
L 267.851297 153.055094 
L 267.966499 152.965967 
L 268.080273 152.875025 
L 268.19259 152.782288 
L 268.303422 152.687781 
L 268.412739 152.591528 
L 268.520516 152.493552 
L 268.626725 152.393878 
L 268.731339 152.292532 
L 268.834332 152.189539 
L 268.935678 152.084925 
L 269.035352 151.978716 
L 269.133328 151.870939 
L 269.229581 151.761622 
L 269.324088 151.65079 
L 269.416825 151.538473 
L 269.507767 151.424699 
L 269.596894 151.309497 
L 269.684181 151.192895 
L 269.769607 151.074922 
L 269.853151 150.95561 
L 269.934791 150.834986 
L 270.014507 150.713083 
L 270.092279 150.58993 
L 270.168088 150.465558 
L 270.241913 150.34 
L 270.313737 150.213286 
L 270.383542 150.085448 
L 270.451309 149.956519 
L 270.517023 149.826532 
L 270.580666 149.695517 
L 270.642222 149.56351 
L 270.701676 149.430542 
L 270.759012 149.296648 
L 270.814218 149.161861 
L 270.867277 149.026216 
L 270.918178 148.889745 
L 270.966908 148.752484 
L 271.013453 148.614467 
L 271.057803 148.475729 
L 271.099945 148.336305 
L 271.139871 148.19623 
L 271.177569 148.055539 
L 271.21303 147.914267 
L 271.246245 147.772451 
L 271.277206 147.630125 
L 271.305905 147.487326 
L 271.332335 147.34409 
L 271.356489 147.200453 
L 271.378361 147.05645 
L 271.397945 146.912119 
L 271.415237 146.767495 
L 271.430232 146.622614 
L 271.442927 146.477515 
L 271.453318 146.332232 
L 271.461402 146.186802 
L 271.467178 146.041262 
L 271.470644 145.89565 
L 271.4718 145.75 
L 271.4718 52.42 
L 271.470644 52.27435 
L 271.467178 52.128738 
L 271.461402 51.983198 
L 271.453318 51.837768 
L 271.442927 51.692485 
L 271.430232 51.547386 
L 271.415237 51.402505 
L 271.397945 51.257881 
L 271.378361 51.11355 
L 271.356489 50.969547 
L 271.332335 50.82591 
L 271.305905 50.682674 
L 271.277206 50.539875 
L 271.246245 50.397549 
L 271.21303 50.255733 
L 271.177569 50.114461 
L 271.139871 49.97377 
L 271.099945 49.833695 
L 271.057803 49.694271 
L 271.013453 49.555533 
L 270.966908 49.417516 
L 270.918178 49.280255 
L 270.867277 49.143784 
L 270.814218 49.008139 
L 270.759012 48.873352 
L 270.701676 48.739458 
L 270.642222 48.60649 
L 270.580666 48.474483 
L 270.517023 48.343468 
L 270.451309 48.213481 
L 270.383542 48.084552 
L 270.313737 47.956714 
L 270.241913 47.83 
L 270.168088 47.704442 
L 270.092279 47.58007 
L 270.014507 47.456917 
L 269.934791 47.335014 
L 269.853151 47.21439 
L 269.769607 47.095078 
L 269.684181 46.977105 
L 269.596894 46.860503 
L 269.507767 46.745301 
L 269.416825 46.631527 
L 269.324088 46.51921 
L 269.229581 46.408378 
L 269.133328 46.299061 
L 269.035352 46.191284 
L 268.935678 46.085075 
L 268.834332 45.980461 
L 268.731339 45.877468 
L 268.626725 45.776122 
L 268.520516 45.676448 
L 268.412739 45.578472 
L 268.303422 45.482219 
L 268.19259 45.387712 
L 268.080273 45.294975 
L 267.966499 45.204033 
L 267.851297 45.114906 
L 267.734695 45.027619 
L 267.616722 44.942193 
L 267.49741 44.858649 
L 267.376786 44.777009 
L 267.254883 44.697293 
L 267.13173 44.619521 
L 267.007358 44.543712 
L 266.8818 44.469887 
L 266.755086 44.398063 
L 266.627248 44.328258 
L 266.498319 44.260491 
L 266.368332 44.194777 
L 266.237317 44.131134 
L 266.10531 44.069578 
L 265.972342 44.010124 
L 265.838448 43.952788 
L 265.703661 43.897582 
L 265.568016 43.844523 
L 265.431545 43.793622 
L 265.294284 43.744892 
L 265.156267 43.698347 
L 265.017529 43.653997 
L 264.878105 43.611855 
L 264.73803 43.571929 
L 264.597339 43.534231 
L 264.456067 43.49877 
L 264.314251 43.465555 
L 264.171925 43.434594 
L 264.029126 43.405895 
L 263.88589 43.379465 
L 263.742253 43.355311 
L 263.59825 43.333439 
L 263.453919 43.313855 
L 263.309295 43.296563 
L 263.164414 43.281568 
L 263.019315 43.268873 
L 262.874032 43.258482 
L 262.728602 43.250398 
L 262.583062 43.244622 
L 262.43745 43.241156 
L 262.2918 43.24 
L 61.8618 43.24 
L 61.71615 43.241156 
L 61.570538 43.244622 
L 61.424998 43.250398 
L 61.279568 43.258482 
L 61.134285 43.268873 
L 60.989186 43.281568 
L 60.844305 43.296563 
L 60.699681 43.313855 
L 60.55535 43.333439 
L 60.411347 43.355311 
L 60.26771 43.379465 
L 60.124474 43.405895 
L 59.981675 43.434594 
L 59.839349 43.465555 
L 59.697533 43.49877 
L 59.556261 43.534231 
L 59.41557 43.571929 
L 59.275495 43.611855 
L 59.136071 43.653997 
L 58.997333 43.698347 
L 58.859316 43.744892 
L 58.722055 43.793622 
L 58.585584 43.844523 
L 58.449939 43.897582 
L 58.315152 43.952788 
L 58.181258 44.010124 
L 58.04829 44.069578 
L 57.916283 44.131134 
L 57.785268 44.194777 
L 57.655281 44.260491 
L 57.526352 44.328258 
L 57.398514 44.398063 
L 57.2718 44.469887 
L 57.146242 44.543712 
L 57.02187 44.619521 
L 56.898717 44.697293 
L 56.776814 44.777009 
L 56.65619 44.858649 
L 56.536878 44.942193 
L 56.418905 45.027619 
L 56.302303 45.114906 
L 56.187101 45.204033 
L 56.073327 45.294975 
L 55.96101 45.387712 
L 55.850178 45.482219 
L 55.740861 45.578472 
L 55.633084 45.676448 
L 55.526875 45.776122 
L 55.422261 45.877468 
L 55.319268 45.980461 
L 55.217922 46.085075 
L 55.118248 46.191284 
L 55.020272 46.299061 
L 54.924019 46.408378 
L 54.829512 46.51921 
L 54.736775 46.631527 
L 54.645833 46.745301 
L 54.556706 46.860503 
L 54.469419 46.977105 
L 54.383993 47.095078 
L 54.300449 47.21439 
L 54.218809 47.335014 
L 54.139093 47.456917 
L 54.061321 47.58007 
L 53.985512 47.704442 
L 53.911687 47.83 
L 53.839863 47.956714 
L 53.770058 48.084552 
L 53.702291 48.213481 
L 53.636577 48.343468 
L 53.572934 48.474483 
L 53.511378 48.60649 
L 53.451924 48.739458 
L 53.394588 48.873352 
L 53.339382 49.008139 
L 53.286323 49.143784 
L 53.235422 49.280255 
L 53.186692 49.417516 
L 53.140147 49.555533 
L 53.095797 49.694271 
L 53.053655 49.833695 
L 53.013729 49.97377 
L 52.976031 50.114461 
L 52.94057 50.255733 
L 52.907355 50.397549 
L 52.876394 50.539875 
L 52.847695 50.682674 
L 52.821265 50.82591 
L 52.797111 50.969547 
L 52.775239 51.11355 
L 52.755655 51.257881 
L 52.738363 51.402505 
L 52.723368 51.547386 
L 52.710673 51.692485 
L 52.700282 51.837768 
L 52.692198 51.983198 
L 52.686422 52.128738 
L 52.682956 52.27435 
L 52.6818 52.42 
L 52.6818 145.75 
L 52.682956 145.89565 
L 52.686422 146.041262 
L 52.692198 146.186802 
L 52.700282 146.332232 
L 52.710673 146.477515 
L 52.723368 146.622614 
L 52.738363 146.767495 
L 52.755655 146.912119 
L 52.775239 147.05645 
L 52.797111 147.200453 
L 52.821265 147.34409 
L 52.847695 147.487326 
L 52.876394 147.630125 
L 52.907355 147.772451 
L 52.94057 147.914267 
L 52.976031 148.055539 
L 53.013729 148.19623 
L 53.053655 148.336305 
L 53.095797 148.475729 
L 53.140147 148.614467 
L 53.186692 148.752484 
L 53.235422 148.889745 
L 53.286323 149.026216 
L 53.339382 149.161861 
L 53.394588 149.296648 
L 53.451924 149.430542 
L 53.511378 149.56351 
L 53.572934 149.695517 
L 53.636577 149.826532 
L 53.702291 149.956519 
L 53.770058 150.085448 
L 53.839863 150.213286 
L 53.911687 150.34 
L 53.985512 150.465558 
L 54.061321 150.58993 
L 54.139093 150.713083 
L 54.218809 150.834986 
L 54.300449 150.95561 
L 54.383993 151.074922 
L 54.469419 151.192895 
L 54.556706 151.309497 
L 54.645833 151.424699 
L 54.736775 151.538473 
L 54.829512 151.65079 
L 54.924019 151.761622 
L 55.020272 151.870939 
L 55.118248 151.978716 
L 55.217922 152.084925 
L 55.319268 152.189539 
L 55.422261 152.292532 
L 55.526875 152.393878 
L 55.633084 152.493552 
L 55.740861 152.591528 
L 55.850178 152.687781 
L 55.96101 152.782288 
L 56.073327 152.875025 
L 56.187101 152.965967 
L 56.302303 153.055094 
L 56.418905 153.142381 
L 56.536878 153.227807 
L 56.65619 153.311351 
L 56.776814 153.392991 
L 56.898717 153.472707 
L 57.02187 153.550479 
L 57.146242 153.626288 
L 57.2718 153.700113 
L 57.398514 153.771937 
L 57.526352 153.841742 
L 57.655281 153.909509 
L 57.785268 153.975223 
L 57.916283 154.038866 
L 58.04829 154.100422 
L 58.181258 154.159876 
L 58.315152 154.217212 
L 58.449939 154.272418 
L 58.585584 154.325477 
L 58.722055 154.376378 
L 58.859316 154.425108 
L 58.997333 154.471653 
L 59.136071 154.516003 
L 59.275495 154.558145 
L 59.41557 154.598071 
L 59.556261 154.635769 
L 59.697533 154.67123 
L 59.839349 154.704445 
L 59.981675 154.735406 
L 60.124474 154.764105 
L 60.26771 154.790535 
L 60.411347 154.814689 
L 60.55535 154.836561 
L 60.699681 154.856145 
L 60.844305 154.873437 
L 60.989186 154.888432 
L 61.134285 154.901127 
L 61.279568 154.911518 
L 61.424998 154.919602 
L 61.570538 154.925378 
L 61.71615 154.928844 
L 61.8618 154.93 
L 262.2918 154.93 
z
" clip-path="url(#p9a7ed19f07)" style="fill: none; stroke-dasharray: 3.7,1.6; stroke-dashoffset: 0; stroke: #ff0000; stroke-linecap: round"/>
   </g>
   <g id="line2d_1">
    <path d="M 35.8518 57.01 
L 51.1518 57.01 
L 66.4518 57.01 
" clip-path="url(#p9a7ed19f07)" style="fill: none; stroke: #000000; stroke-width: 2; stroke-linecap: round"/>
   </g>
   <g id="line2d_2">
    <path d="M 66.4518 57.01 
L 112.3518 57.01 
L 158.2518 57.01 
" clip-path="url(#p9a7ed19f07)" style="fill: none; stroke: #000000; stroke-width: 2; stroke-linecap: round"/>
   </g>
   <g id="line2d_3">
    <path d="M 158.2518 57.01 
L 188.8518 57.01 
L 191.4018 49.36 
L 196.5018 64.66 
L 201.6018 49.36 
L 206.7018 64.66 
L 211.8018 49.36 
L 216.9018 64.66 
L 219.4518 57.01 
L 250.0518 57.01 
" clip-path="url(#p9a7ed19f07)" style="fill: none; stroke: #000000; stroke-width: 2; stroke-linecap: round"/>
   </g>
   <g id="line2d_4">
    <path d="M 250.0518 57.01 
L 250.0518 87.61 
L 250.0518 87.61 
M 250.0518 118.21 
L 250.0518 118.21 
L 250.0518 148.81 
" clip-path="url(#p9a7ed19f07)" style="fill: none; stroke: #000000; stroke-width: 2; stroke-linecap: round"/>
   </g>
   <g id="line2d_5">
    <path d="M 253.1118 110.56 
L 246.9918 110.56 
" clip-path="url(#p9a7ed19f07)" style="fill: none; stroke: #000000; stroke-width: 2; stroke-linecap: round"/>
   </g>
   <g id="line2d_6">
    <path d="M 250.0518 92.2 
L 250.0518 98.32 
" clip-path="url(#p9a7ed19f07)" style="fill: none; stroke: #000000; stroke-width: 2; stroke-linecap: round"/>
   </g>
   <g id="line2d_7">
    <path d="M 253.1118 95.26 
L 246.9918 95.26 
" clip-path="url(#p9a7ed19f07)" style="fill: none; stroke: #000000; stroke-width: 2; stroke-linecap: round"/>
   </g>
   <g id="line2d_8">
    <path d="M 66.4518 57.01 
L 66.4518 87.61 
L 74.1018 90.16 
L 58.8018 95.26 
L 74.1018 100.36 
L 58.8018 105.46 
L 74.1018 110.56 
L 58.8018 115.66 
L 66.4518 118.21 
L 66.4518 148.81 
" clip-path="url(#p9a7ed19f07)" style="fill: none; stroke: #000000; stroke-width: 2; stroke-linecap: round"/>
   </g>
   <g id="line2d_9">
    <path d="M 158.2518 57.01 
L 158.2518 87.61 
L 158.2518 87.61 
M 158.2518 118.21 
L 158.2518 118.21 
L 158.2518 148.81 
" clip-path="url(#p9a7ed19f07)" style="fill: none; stroke: #000000; stroke-width: 2; stroke-linecap: round"/>
   </g>
   <g id="line2d_10">
    <path d="M 158.2518 102.91 
L 158.2518 110.56 
" clip-path="url(#p9a7ed19f07)" style="fill: none; stroke: #000000; stroke-width: 2; stroke-linecap: round"/>
   </g>
   <g id="patch_8">
    <path d="M 155.9568 102.91 
L 158.2518 95.26 
L 160.5468 102.91 
z
" clip-path="url(#p9a7ed19f07)"/>
   </g>
   <g id="line2d_11">
    <path d="M 29.7318 148.81 
L 139.8918 148.81 
L 250.0518 148.81 
" clip-path="url(#p9a7ed19f07)" style="fill: none; stroke: #000000; stroke-width: 2; stroke-linecap: round"/>
   </g>
   <g id="line2d_12">
    <path d="M 295.9518 102.91 
L 311.2518 102.91 
L 311.2518 102.91 
" clip-path="url(#p9a7ed19f07)" style="fill: none; stroke: #ee82ee; stroke-width: 6; stroke-linecap: round"/>
   </g>
   <g id="patch_9">
    <path d="M 311.2518 95.26 
L 326.5518 102.91 
L 311.2518 110.56 
z
" clip-path="url(#p9a7ed19f07)" style="fill: #ee82ee"/>
   </g>
   <g id="line2d_13">
    <path d="M 372.4518 148.81 
L 418.3518 148.81 
L 464.2518 148.81 
" clip-path="url(#p9a7ed19f07)" style="fill: none; stroke: #000000; stroke-width: 2; stroke-linecap: round"/>
   </g>
   <g id="line2d_14">
    <path d="M 464.2518 148.81 
L 464.2518 111.51625 
M 464.2518 94.30375 
L 464.2518 57.01 
" clip-path="url(#p9a7ed19f07)" style="fill: none; stroke: #000000; stroke-width: 2; stroke-linecap: round"/>
   </g>
   <g id="line2d_15">
    <path d="M 475.7268 94.30375 
L 452.7768 94.30375 
" clip-path="url(#p9a7ed19f07)" style="fill: none; stroke: #000000; stroke-width: 2; stroke-linecap: round"/>
   </g>
   <g id="line2d_16">
    <path d="M 469.9893 100.04125 
L 458.5143 100.04125 
" clip-path="url(#p9a7ed19f07)" style="fill: none; stroke: #000000; stroke-width: 2; stroke-linecap: round"/>
   </g>
   <g id="line2d_17">
    <path d="M 475.7268 105.77875 
L 452.7768 105.77875 
" clip-path="url(#p9a7ed19f07)" style="fill: none; stroke: #000000; stroke-width: 2; stroke-linecap: round"/>
   </g>
   <g id="line2d_18">
    <path d="M 469.9893 111.51625 
L 458.5143 111.51625 
" clip-path="url(#p9a7ed19f07)" style="fill: none; stroke: #000000; stroke-width: 2; stroke-linecap: round"/>
   </g>
   <g id="line2d_19">
    <path d="M 464.2518 57.01 
L 433.6518 57.01 
L 431.1018 64.66 
L 426.0018 49.36 
L 420.9018 64.66 
L 415.8018 49.36 
L 410.7018 64.66 
L 405.6018 49.36 
L 403.0518 57.01 
L 372.4518 57.01 
" clip-path="url(#p9a7ed19f07)" style="fill: none; stroke: #000000; stroke-width: 2; stroke-linecap: round"/>
   </g>
   <g id="line2d_20">
    <path d="M 35.8518 57.01 
L 51.1518 57.01 
L 66.4518 57.01 
" clip-path="url(#p9a7ed19f07)" style="fill: none; stroke: #000000; stroke-width: 2; stroke-linecap: round"/>
   </g>
   <g id="line2d_21">
    <path d="M 66.4518 57.01 
L 112.3518 57.01 
L 158.2518 57.01 
" clip-path="url(#p9a7ed19f07)" style="fill: none; stroke: #000000; stroke-width: 2; stroke-linecap: round"/>
   </g>
   <g id="line2d_22">
    <path d="M 158.2518 57.01 
L 188.8518 57.01 
L 191.4018 49.36 
L 196.5018 64.66 
L 201.6018 49.36 
L 206.7018 64.66 
L 211.8018 49.36 
L 216.9018 64.66 
L 219.4518 57.01 
L 250.0518 57.01 
" clip-path="url(#p9a7ed19f07)" style="fill: none; stroke: #000000; stroke-width: 2; stroke-linecap: round"/>
   </g>
   <g id="line2d_23">
    <path d="M 250.0518 57.01 
L 250.0518 87.61 
L 250.0518 87.61 
M 250.0518 118.21 
L 250.0518 118.21 
L 250.0518 148.81 
" clip-path="url(#p9a7ed19f07)" style="fill: none; stroke: #000000; stroke-width: 2; stroke-linecap: round"/>
   </g>
   <g id="line2d_24">
    <path d="M 253.1118 110.56 
L 246.9918 110.56 
" clip-path="url(#p9a7ed19f07)" style="fill: none; stroke: #000000; stroke-width: 2; stroke-linecap: round"/>
   </g>
   <g id="line2d_25">
    <path d="M 250.0518 92.2 
L 250.0518 98.32 
" clip-path="url(#p9a7ed19f07)" style="fill: none; stroke: #000000; stroke-width: 2; stroke-linecap: round"/>
   </g>
   <g id="line2d_26">
    <path d="M 253.1118 95.26 
L 246.9918 95.26 
" clip-path="url(#p9a7ed19f07)" style="fill: none; stroke: #000000; stroke-width: 2; stroke-linecap: round"/>
   </g>
   <g id="line2d_27">
    <path d="M 66.4518 57.01 
L 66.4518 87.61 
L 74.1018 90.16 
L 58.8018 95.26 
L 74.1018 100.36 
L 58.8018 105.46 
L 74.1018 110.56 
L 58.8018 115.66 
L 66.4518 118.21 
L 66.4518 148.81 
" clip-path="url(#p9a7ed19f07)" style="fill: none; stroke: #000000; stroke-width: 2; stroke-linecap: round"/>
   </g>
   <g id="line2d_28">
    <path d="M 158.2518 57.01 
L 158.2518 87.61 
L 158.2518 87.61 
M 158.2518 118.21 
L 158.2518 118.21 
L 158.2518 148.81 
" clip-path="url(#p9a7ed19f07)" style="fill: none; stroke: #000000; stroke-width: 2; stroke-linecap: round"/>
   </g>
   <g id="line2d_29">
    <path d="M 158.2518 102.91 
L 158.2518 110.56 
" clip-path="url(#p9a7ed19f07)" style="fill: none; stroke: #000000; stroke-width: 2; stroke-linecap: round"/>
   </g>
   <g id="patch_10">
    <path d="M 155.9568 102.91 
L 158.2518 95.26 
L 160.5468 102.91 
z
" clip-path="url(#p9a7ed19f07)"/>
   </g>
   <g id="line2d_30">
    <path d="M 29.7318 148.81 
L 139.8918 148.81 
L 250.0518 148.81 
" clip-path="url(#p9a7ed19f07)" style="fill: none; stroke: #000000; stroke-width: 2; stroke-linecap: round"/>
   </g>
   <g id="line2d_31">
    <path d="M 295.9518 102.91 
L 311.2518 102.91 
L 311.2518 102.91 
" clip-path="url(#p9a7ed19f07)" style="fill: none; stroke: #ee82ee; stroke-width: 6; stroke-linecap: round"/>
   </g>
   <g id="patch_11">
    <path d="M 311.2518 95.26 
L 326.5518 102.91 
L 311.2518 110.56 
z
" clip-path="url(#p9a7ed19f07)" style="fill: #ee82ee"/>
   </g>
   <g id="line2d_32">
    <path d="M 372.4518 148.81 
L 418.3518 148.81 
L 464.2518 148.81 
" clip-path="url(#p9a7ed19f07)" style="fill: none; stroke: #000000; stroke-width: 2; stroke-linecap: round"/>
   </g>
   <g id="line2d_33">
    <path d="M 464.2518 148.81 
L 464.2518 111.51625 
M 464.2518 94.30375 
L 464.2518 57.01 
" clip-path="url(#p9a7ed19f07)" style="fill: none; stroke: #000000; stroke-width: 2; stroke-linecap: round"/>
   </g>
   <g id="line2d_34">
    <path d="M 475.7268 94.30375 
L 452.7768 94.30375 
" clip-path="url(#p9a7ed19f07)" style="fill: none; stroke: #000000; stroke-width: 2; stroke-linecap: round"/>
   </g>
   <g id="line2d_35">
    <path d="M 469.9893 100.04125 
L 458.5143 100.04125 
" clip-path="url(#p9a7ed19f07)" style="fill: none; stroke: #000000; stroke-width: 2; stroke-linecap: round"/>
   </g>
   <g id="line2d_36">
    <path d="M 475.7268 105.77875 
L 452.7768 105.77875 
" clip-path="url(#p9a7ed19f07)" style="fill: none; stroke: #000000; stroke-width: 2; stroke-linecap: round"/>
   </g>
   <g id="line2d_37">
    <path d="M 469.9893 111.51625 
L 458.5143 111.51625 
" clip-path="url(#p9a7ed19f07)" style="fill: none; stroke: #000000; stroke-width: 2; stroke-linecap: round"/>
   </g>
   <g id="line2d_38">
    <path d="M 464.2518 57.01 
L 433.6518 57.01 
L 431.1018 64.66 
L 426.0018 49.36 
L 420.9018 64.66 
L 415.8018 49.36 
L 410.7018 64.66 
L 405.6018 49.36 
L 403.0518 57.01 
L 372.4518 57.01 
" clip-path="url(#p9a7ed19f07)" style="fill: none; stroke: #000000; stroke-width: 2; stroke-linecap: round"/>
   </g>
   <g id="text_1">
    <g clip-path="url(#p9a7ed19f07)">
     <!-- 18Ω -->
     <g transform="translate(191.422308 77.218047)scale(0.125 -0.125)">
      <defs>
       <path id="DejaVuSans-31" d="M 794 531 
L 1825 531 
L 1825 4091 
L 703 3866 
L 703 4441 
L 1819 4666 
L 2450 4666 
L 2450 531 
L 3481 531 
L 3481 0 
L 794 0 
L 794 531 
z
" transform="scale(0.015625)"/>
       <path id="DejaVuSans-38" d="M 2034 2216 
Q 1584 2216 1326 1975 
Q 1069 1734 1069 1313 
Q 1069 891 1326 650 
Q 1584 409 2034 409 
Q 2484 409 2743 651 
Q 3003 894 3003 1313 
Q 3003 1734 2745 1975 
Q 2488 2216 2034 2216 
z
M 1403 2484 
Q 997 2584 770 2862 
Q 544 3141 544 3541 
Q 544 4100 942 4425 
Q 1341 4750 2034 4750 
Q 2731 4750 3128 4425 
Q 3525 4100 3525 3541 
Q 3525 3141 3298 2862 
Q 3072 2584 2669 2484 
Q 3125 2378 3379 2068 
Q 3634 1759 3634 1313 
Q 3634 634 3220 271 
Q 2806 -91 2034 -91 
Q 1263 -91 848 271 
Q 434 634 434 1313 
Q 434 1759 690 2068 
Q 947 2378 1403 2484 
z
M 1172 3481 
Q 1172 3119 1398 2916 
Q 1625 2713 2034 2713 
Q 2441 2713 2670 2916 
Q 2900 3119 2900 3481 
Q 2900 3844 2670 4047 
Q 2441 4250 2034 4250 
Q 1625 4250 1398 4047 
Q 1172 3844 1172 3481 
z
" transform="scale(0.015625)"/>
       <path id="DejaVuSans-3a9" d="M 4647 556 
L 4647 0 
L 2772 0 
L 2772 556 
Q 3325 859 3634 1378 
Q 3944 1897 3944 2528 
Q 3944 3278 3531 3731 
Q 3119 4184 2444 4184 
Q 1769 4184 1355 3729 
Q 941 3275 941 2528 
Q 941 1897 1250 1378 
Q 1563 859 2119 556 
L 2119 0 
L 244 0 
L 244 556 
L 1241 556 
Q 747 991 519 1456 
Q 294 1922 294 2497 
Q 294 3491 894 4106 
Q 1491 4722 2444 4722 
Q 3391 4722 3994 4106 
Q 4594 3494 4594 2528 
Q 4594 1922 4372 1459 
Q 4150 997 3647 556 
L 4647 556 
z
" transform="scale(0.015625)"/>
      </defs>
      <use xlink:href="#DejaVuSans-31"/>
      <use xlink:href="#DejaVuSans-38" x="63.623047"/>
      <use xlink:href="#DejaVuSans-3a9" x="127.246094"/>
     </g>
    </g>
   </g>
   <g id="text_2">
    <g clip-path="url(#p9a7ed19f07)">
     <!-- 36V -->
     <g transform="translate(207.234769 106.359219)scale(0.125 -0.125)">
      <defs>
       <path id="DejaVuSans-33" d="M 2597 2516 
Q 3050 2419 3304 2112 
Q 3559 1806 3559 1356 
Q 3559 666 3084 287 
Q 2609 -91 1734 -91 
Q 1441 -91 1130 -33 
Q 819 25 488 141 
L 488 750 
Q 750 597 1062 519 
Q 1375 441 1716 441 
Q 2309 441 2620 675 
Q 2931 909 2931 1356 
Q 2931 1769 2642 2001 
Q 2353 2234 1838 2234 
L 1294 2234 
L 1294 2753 
L 1863 2753 
Q 2328 2753 2575 2939 
Q 2822 3125 2822 3475 
Q 2822 3834 2567 4026 
Q 2313 4219 1838 4219 
Q 1578 4219 1281 4162 
Q 984 4106 628 3988 
L 628 4550 
Q 988 4650 1302 4700 
Q 1616 4750 1894 4750 
Q 2613 4750 3031 4423 
Q 3450 4097 3450 3541 
Q 3450 3153 3228 2886 
Q 3006 2619 2597 2516 
z
" transform="scale(0.015625)"/>
       <path id="DejaVuSans-36" d="M 2113 2584 
Q 1688 2584 1439 2293 
Q 1191 2003 1191 1497 
Q 1191 994 1439 701 
Q 1688 409 2113 409 
Q 2538 409 2786 701 
Q 3034 994 3034 1497 
Q 3034 2003 2786 2293 
Q 2538 2584 2113 2584 
z
M 3366 4563 
L 3366 3988 
Q 3128 4100 2886 4159 
Q 2644 4219 2406 4219 
Q 1781 4219 1451 3797 
Q 1122 3375 1075 2522 
Q 1259 2794 1537 2939 
Q 1816 3084 2150 3084 
Q 2853 3084 3261 2657 
Q 3669 2231 3669 1497 
Q 3669 778 3244 343 
Q 2819 -91 2113 -91 
Q 1303 -91 875 529 
Q 447 1150 447 2328 
Q 447 3434 972 4092 
Q 1497 4750 2381 4750 
Q 2619 4750 2861 4703 
Q 3103 4656 3366 4563 
z
" transform="scale(0.015625)"/>
       <path id="DejaVuSans-56" d="M 1831 0 
L 50 4666 
L 709 4666 
L 2188 738 
L 3669 4666 
L 4325 4666 
L 2547 0 
L 1831 0 
z
" transform="scale(0.015625)"/>
      </defs>
      <use xlink:href="#DejaVuSans-33"/>
      <use xlink:href="#DejaVuSans-36" x="63.623047"/>
      <use xlink:href="#DejaVuSans-56" x="127.246094"/>
     </g>
    </g>
   </g>
   <g id="text_3">
    <g clip-path="url(#p9a7ed19f07)">
     <!-- 9Ω -->
     <g transform="translate(77.1618 106.359219)scale(0.125 -0.125)">
      <defs>
       <path id="DejaVuSans-39" d="M 703 97 
L 703 672 
Q 941 559 1184 500 
Q 1428 441 1663 441 
Q 2288 441 2617 861 
Q 2947 1281 2994 2138 
Q 2813 1869 2534 1725 
Q 2256 1581 1919 1581 
Q 1219 1581 811 2004 
Q 403 2428 403 3163 
Q 403 3881 828 4315 
Q 1253 4750 1959 4750 
Q 2769 4750 3195 4129 
Q 3622 3509 3622 2328 
Q 3622 1225 3098 567 
Q 2575 -91 1691 -91 
Q 1453 -91 1209 -44 
Q 966 3 703 97 
z
M 1959 2075 
Q 2384 2075 2632 2365 
Q 2881 2656 2881 3163 
Q 2881 3666 2632 3958 
Q 2384 4250 1959 4250 
Q 1534 4250 1286 3958 
Q 1038 3666 1038 3163 
Q 1038 2656 1286 2365 
Q 1534 2075 1959 2075 
z
" transform="scale(0.015625)"/>
      </defs>
      <use xlink:href="#DejaVuSans-39"/>
      <use xlink:href="#DejaVuSans-3a9" x="63.623047"/>
     </g>
    </g>
   </g>
   <g id="text_4">
    <g clip-path="url(#p9a7ed19f07)">
     <!-- 2.5A -->
     <g transform="translate(111.462113 106.359219)scale(0.125 -0.125)">
      <defs>
       <path id="DejaVuSans-32" d="M 1228 531 
L 3431 531 
L 3431 0 
L 469 0 
L 469 531 
Q 828 903 1448 1529 
Q 2069 2156 2228 2338 
Q 2531 2678 2651 2914 
Q 2772 3150 2772 3378 
Q 2772 3750 2511 3984 
Q 2250 4219 1831 4219 
Q 1534 4219 1204 4116 
Q 875 4013 500 3803 
L 500 4441 
Q 881 4594 1212 4672 
Q 1544 4750 1819 4750 
Q 2544 4750 2975 4387 
Q 3406 4025 3406 3419 
Q 3406 3131 3298 2873 
Q 3191 2616 2906 2266 
Q 2828 2175 2409 1742 
Q 1991 1309 1228 531 
z
" transform="scale(0.015625)"/>
       <path id="DejaVuSans-2e" d="M 684 794 
L 1344 794 
L 1344 0 
L 684 0 
L 684 794 
z
" transform="scale(0.015625)"/>
       <path id="DejaVuSans-35" d="M 691 4666 
L 3169 4666 
L 3169 4134 
L 1269 4134 
L 1269 2991 
Q 1406 3038 1543 3061 
Q 1681 3084 1819 3084 
Q 2600 3084 3056 2656 
Q 3513 2228 3513 1497 
Q 3513 744 3044 326 
Q 2575 -91 1722 -91 
Q 1428 -91 1123 -41 
Q 819 9 494 109 
L 494 744 
Q 775 591 1075 516 
Q 1375 441 1709 441 
Q 2250 441 2565 725 
Q 2881 1009 2881 1497 
Q 2881 1984 2565 2268 
Q 2250 2553 1709 2553 
Q 1456 2553 1204 2497 
Q 953 2441 691 2322 
L 691 4666 
z
" transform="scale(0.015625)"/>
       <path id="DejaVuSans-41" d="M 2188 4044 
L 1331 1722 
L 3047 1722 
L 2188 4044 
z
M 1831 4666 
L 2547 4666 
L 4325 0 
L 3669 0 
L 3244 1197 
L 1141 1197 
L 716 0 
L 50 0 
L 1831 4666 
z
" transform="scale(0.015625)"/>
      </defs>
      <use xlink:href="#DejaVuSans-32"/>
      <use xlink:href="#DejaVuSans-2e" x="63.623047"/>
      <use xlink:href="#DejaVuSans-35" x="95.410156"/>
      <use xlink:href="#DejaVuSans-41" x="159.033203"/>
     </g>
    </g>
   </g>
   <g id="text_5">
    <g clip-path="url(#p9a7ed19f07)">
     <!-- + -->
     <g transform="translate(29.7318 83.409219)scale(0.125 -0.125)">
      <defs>
       <path id="DejaVuSans-2b" d="M 2944 4013 
L 2944 2272 
L 4684 2272 
L 4684 1741 
L 2944 1741 
L 2944 0 
L 2419 0 
L 2419 1741 
L 678 1741 
L 678 2272 
L 2419 2272 
L 2419 4013 
L 2944 4013 
z
" transform="scale(0.015625)"/>
      </defs>
      <use xlink:href="#DejaVuSans-2b"/>
     </g>
    </g>
   </g>
   <g id="text_6">
    <g clip-path="url(#p9a7ed19f07)">
     <!-- $V_{O}$ -->
     <g transform="translate(29.7318 106.359219)scale(0.125 -0.125)">
      <defs>
       <path id="STIXGeneral-Italic-56" d="M 4403 4179 
L 4403 4077 
Q 4198 4070 4045 3821 
L 1658 -115 
L 1536 -115 
L 1011 3104 
Q 902 3776 828 3910 
Q 755 4045 486 4077 
L 486 4179 
L 2022 4179 
L 2022 4077 
Q 1722 4045 1629 3981 
Q 1536 3917 1536 3750 
Q 1536 3686 1542 3654 
L 1958 819 
L 3302 3123 
Q 3616 3661 3616 3859 
Q 3616 4032 3219 4077 
L 3219 4179 
L 4403 4179 
z
" transform="scale(0.015625)"/>
       <path id="STIXGeneral-Italic-4f" d="M 4474 2675 
Q 4474 1990 4106 1363 
Q 3738 736 3149 339 
Q 2477 -115 1779 -115 
Q 1146 -115 765 281 
Q 384 678 384 1382 
Q 384 1965 697 2582 
Q 1011 3200 1517 3642 
Q 2234 4262 3034 4262 
Q 3718 4269 4096 3840 
Q 4474 3411 4474 2675 
z
M 3802 3078 
Q 3802 3533 3581 3792 
Q 3360 4051 2976 4051 
Q 2342 4051 1786 3302 
Q 1446 2842 1251 2259 
Q 1056 1677 1056 1178 
Q 1056 653 1270 374 
Q 1485 96 1888 96 
Q 2477 96 2976 704 
Q 3354 1178 3578 1862 
Q 3802 2547 3802 3078 
z
" transform="scale(0.015625)"/>
      </defs>
      <use xlink:href="#STIXGeneral-Italic-56" transform="translate(0 0.703125)"/>
      <use xlink:href="#STIXGeneral-Italic-4f" transform="translate(61.099991 -12.525)scale(0.7)"/>
     </g>
    </g>
   </g>
   <g id="text_7">
    <g clip-path="url(#p9a7ed19f07)">
     <!-- - -->
     <g transform="translate(29.7318 129.309219)scale(0.125 -0.125)">
      <defs>
       <path id="DejaVuSans-2d" d="M 313 2009 
L 1997 2009 
L 1997 1497 
L 313 1497 
L 313 2009 
z
" transform="scale(0.015625)"/>
      </defs>
      <use xlink:href="#DejaVuSans-2d"/>
     </g>
    </g>
   </g>
   <g id="text_8">
    <g clip-path="url(#p9a7ed19f07)">
     <!-- $V_{TH}$ -->
     <g transform="translate(430.3418 99.360586)scale(0.125 -0.125)">
      <defs>
       <path id="STIXGeneral-Italic-54" d="M 4051 4179 
L 3770 3130 
L 3661 3142 
Q 3680 3302 3680 3437 
Q 3680 3955 3034 3955 
L 2662 3955 
L 1786 819 
Q 1696 506 1696 397 
Q 1696 250 1766 195 
Q 1837 141 2035 122 
L 2259 102 
L 2259 0 
L 416 0 
L 416 102 
Q 749 134 889 230 
Q 1030 326 1101 582 
L 2016 3955 
Q 1254 3955 988 3817 
Q 723 3680 493 3162 
L 378 3187 
L 646 4179 
L 4051 4179 
z
" transform="scale(0.015625)"/>
       <path id="STIXGeneral-Italic-48" d="M 4922 4179 
L 4922 4077 
Q 4640 4026 4550 3949 
Q 4461 3872 4384 3603 
L 3539 525 
Q 3520 448 3520 371 
Q 3520 237 3616 185 
Q 3712 134 4026 102 
L 4026 0 
L 2272 0 
L 2272 102 
Q 2598 128 2729 237 
Q 2861 346 2925 595 
L 3334 2086 
L 1510 2086 
L 1088 525 
Q 1069 461 1069 384 
Q 1069 243 1149 192 
Q 1229 141 1517 102 
L 1517 0 
L -51 0 
L -51 102 
Q 211 128 310 230 
Q 410 333 499 653 
L 1254 3405 
Q 1331 3699 1331 3814 
Q 1331 3949 1238 3997 
Q 1146 4045 838 4077 
L 838 4179 
L 2573 4179 
L 2573 4077 
Q 2285 4058 2141 3955 
Q 1997 3853 1933 3622 
L 1587 2355 
L 3411 2355 
L 3706 3405 
Q 3795 3738 3795 3808 
Q 3795 3930 3692 3994 
Q 3590 4058 3334 4077 
L 3334 4179 
L 4922 4179 
z
" transform="scale(0.015625)"/>
      </defs>
      <use xlink:href="#STIXGeneral-Italic-56" transform="translate(0 0.703125)"/>
      <use xlink:href="#STIXGeneral-Italic-54" transform="translate(61.099991 -12.525)scale(0.7)"/>
      <use xlink:href="#STIXGeneral-Italic-48" transform="translate(100.019984 -12.525)scale(0.7)"/>
     </g>
    </g>
    <g clip-path="url(#p9a7ed19f07)">
     <!-- 27V -->
     <g transform="translate(425.259769 113.357852)scale(0.125 -0.125)">
      <defs>
       <path id="DejaVuSans-37" d="M 525 4666 
L 3525 4666 
L 3525 4397 
L 1831 0 
L 1172 0 
L 2766 4134 
L 525 4134 
L 525 4666 
z
" transform="scale(0.015625)"/>
      </defs>
      <use xlink:href="#DejaVuSans-32"/>
      <use xlink:href="#DejaVuSans-37" x="63.623047"/>
      <use xlink:href="#DejaVuSans-56" x="127.246094"/>
     </g>
    </g>
   </g>
   <g id="text_9">
    <g clip-path="url(#p9a7ed19f07)">
     <!-- $R_{TH}$ -->
     <g transform="translate(408.6643 29.703125)scale(0.125 -0.125)">
      <defs>
       <path id="STIXGeneral-Italic-52" d="M 845 4179 
L 2458 4179 
Q 3078 4179 3420 3936 
Q 3763 3693 3763 3277 
Q 3763 2778 3341 2458 
Q 3091 2266 2502 2131 
L 3072 627 
Q 3181 333 3299 217 
Q 3418 102 3629 102 
L 3629 0 
L 2688 0 
L 1901 2074 
L 1478 2106 
L 1126 806 
Q 1043 512 1043 403 
Q 1043 256 1126 192 
Q 1210 128 1472 102 
L 1472 0 
L -83 0 
L -83 102 
Q 173 134 278 243 
Q 384 352 461 646 
L 1222 3405 
Q 1299 3699 1299 3808 
Q 1299 3923 1210 3987 
Q 1133 4038 845 4077 
L 845 4179 
z
M 1958 3795 
L 1555 2342 
Q 1754 2310 1882 2310 
Q 2451 2310 2771 2566 
Q 3091 2822 3091 3270 
Q 3091 3603 2892 3795 
Q 2694 3987 2323 3987 
Q 2010 3987 1958 3795 
z
" transform="scale(0.015625)"/>
      </defs>
      <use xlink:href="#STIXGeneral-Italic-52" transform="translate(0 0.703125)"/>
      <use xlink:href="#STIXGeneral-Italic-54" transform="translate(61.099991 -12.525)scale(0.7)"/>
      <use xlink:href="#STIXGeneral-Italic-48" transform="translate(100.019984 -12.525)scale(0.7)"/>
     </g>
    </g>
    <g clip-path="url(#p9a7ed19f07)">
     <!-- 6Ω -->
     <g transform="translate(409.59887 43.700391)scale(0.125 -0.125)">
      <use xlink:href="#DejaVuSans-36"/>
      <use xlink:href="#DejaVuSans-3a9" x="63.623047"/>
     </g>
    </g>
   </g>
   <g id="text_10">
    <g clip-path="url(#p9a7ed19f07)">
     <!-- 18Ω -->
     <g transform="translate(191.422308 77.218047)scale(0.125 -0.125)">
      <use xlink:href="#DejaVuSans-31"/>
      <use xlink:href="#DejaVuSans-38" x="63.623047"/>
      <use xlink:href="#DejaVuSans-3a9" x="127.246094"/>
     </g>
    </g>
   </g>
   <g id="text_11">
    <g clip-path="url(#p9a7ed19f07)">
     <!-- 36V -->
     <g transform="translate(207.234769 106.359219)scale(0.125 -0.125)">
      <use xlink:href="#DejaVuSans-33"/>
      <use xlink:href="#DejaVuSans-36" x="63.623047"/>
      <use xlink:href="#DejaVuSans-56" x="127.246094"/>
     </g>
    </g>
   </g>
   <g id="text_12">
    <g clip-path="url(#p9a7ed19f07)">
     <!-- 9Ω -->
     <g transform="translate(77.1618 106.359219)scale(0.125 -0.125)">
      <use xlink:href="#DejaVuSans-39"/>
      <use xlink:href="#DejaVuSans-3a9" x="63.623047"/>
     </g>
    </g>
   </g>
   <g id="text_13">
    <g clip-path="url(#p9a7ed19f07)">
     <!-- 2.5A -->
     <g transform="translate(111.462113 106.359219)scale(0.125 -0.125)">
      <use xlink:href="#DejaVuSans-32"/>
      <use xlink:href="#DejaVuSans-2e" x="63.623047"/>
      <use xlink:href="#DejaVuSans-35" x="95.410156"/>
      <use xlink:href="#DejaVuSans-41" x="159.033203"/>
     </g>
    </g>
   </g>
   <g id="text_14">
    <g clip-path="url(#p9a7ed19f07)">
     <!-- + -->
     <g transform="translate(29.7318 83.409219)scale(0.125 -0.125)">
      <use xlink:href="#DejaVuSans-2b"/>
     </g>
    </g>
   </g>
   <g id="text_15">
    <g clip-path="url(#p9a7ed19f07)">
     <!-- $V_{O}$ -->
     <g transform="translate(29.7318 106.359219)scale(0.125 -0.125)">
      <use xlink:href="#STIXGeneral-Italic-56" transform="translate(0 0.703125)"/>
      <use xlink:href="#STIXGeneral-Italic-4f" transform="translate(61.099991 -12.525)scale(0.7)"/>
     </g>
    </g>
   </g>
   <g id="text_16">
    <g clip-path="url(#p9a7ed19f07)">
     <!-- - -->
     <g transform="translate(29.7318 129.309219)scale(0.125 -0.125)">
      <use xlink:href="#DejaVuSans-2d"/>
     </g>
    </g>
   </g>
   <g id="text_17">
    <g clip-path="url(#p9a7ed19f07)">
     <!-- $V_{TH}$ -->
     <g transform="translate(430.3418 99.360586)scale(0.125 -0.125)">
      <use xlink:href="#STIXGeneral-Italic-56" transform="translate(0 0.703125)"/>
      <use xlink:href="#STIXGeneral-Italic-54" transform="translate(61.099991 -12.525)scale(0.7)"/>
      <use xlink:href="#STIXGeneral-Italic-48" transform="translate(100.019984 -12.525)scale(0.7)"/>
     </g>
    </g>
    <g clip-path="url(#p9a7ed19f07)">
     <!-- 27V -->
     <g transform="translate(425.259769 113.357852)scale(0.125 -0.125)">
      <use xlink:href="#DejaVuSans-32"/>
      <use xlink:href="#DejaVuSans-37" x="63.623047"/>
      <use xlink:href="#DejaVuSans-56" x="127.246094"/>
     </g>
    </g>
   </g>
   <g id="text_18">
    <g clip-path="url(#p9a7ed19f07)">
     <!-- $R_{TH}$ -->
     <g transform="translate(408.6643 29.703125)scale(0.125 -0.125)">
      <use xlink:href="#STIXGeneral-Italic-52" transform="translate(0 0.703125)"/>
      <use xlink:href="#STIXGeneral-Italic-54" transform="translate(61.099991 -12.525)scale(0.7)"/>
      <use xlink:href="#STIXGeneral-Italic-48" transform="translate(100.019984 -12.525)scale(0.7)"/>
     </g>
    </g>
    <g clip-path="url(#p9a7ed19f07)">
     <!-- 6Ω -->
     <g transform="translate(409.59887 43.700391)scale(0.125 -0.125)">
      <use xlink:href="#DejaVuSans-36"/>
      <use xlink:href="#DejaVuSans-3a9" x="63.623047"/>
     </g>
    </g>
   </g>
   <g id="patch_12">
    <path d="M 35.8518 59.305 
C 36.460441 59.305 37.044236 59.063184 37.47461 58.63281 
C 37.904984 58.202436 38.1468 57.618641 38.1468 57.01 
C 38.1468 56.401359 37.904984 55.817564 37.47461 55.38719 
C 37.044236 54.956816 36.460441 54.715 35.8518 54.715 
C 35.243159 54.715 34.659364 54.956816 34.22899 55.38719 
C 33.798616 55.817564 33.5568 56.401359 33.5568 57.01 
C 33.5568 57.618641 33.798616 58.202436 34.22899 58.63281 
C 34.659364 59.063184 35.243159 59.305 35.8518 59.305 
z
" clip-path="url(#p9a7ed19f07)" style="fill: #ffffff; stroke: #000000; stroke-width: 2; stroke-linejoin: miter"/>
   </g>
   <g id="text_19">
    <g clip-path="url(#p9a7ed19f07)">
     <!-- A -->
     <g transform="translate(21.946019 60.459219)scale(0.125 -0.125)">
      <use xlink:href="#DejaVuSans-41"/>
     </g>
    </g>
   </g>
   <g id="patch_13">
    <path d="M 29.7318 151.105 
C 30.340441 151.105 30.924236 150.863184 31.35461 150.43281 
C 31.784984 150.002436 32.0268 149.418641 32.0268 148.81 
C 32.0268 148.201359 31.784984 147.617564 31.35461 147.18719 
C 30.924236 146.756816 30.340441 146.515 29.7318 146.515 
C 29.123159 146.515 28.539364 146.756816 28.10899 147.18719 
C 27.678616 147.617564 27.4368 148.201359 27.4368 148.81 
C 27.4368 149.418641 27.678616 150.002436 28.10899 150.43281 
C 28.539364 150.863184 29.123159 151.105 29.7318 151.105 
z
" clip-path="url(#p9a7ed19f07)" style="fill: #ffffff; stroke: #000000; stroke-width: 2; stroke-linejoin: miter"/>
   </g>
   <g id="text_20">
    <g clip-path="url(#p9a7ed19f07)">
     <!-- B -->
     <g transform="translate(15.800628 152.259219)scale(0.125 -0.125)">
      <defs>
       <path id="DejaVuSans-42" d="M 1259 2228 
L 1259 519 
L 2272 519 
Q 2781 519 3026 730 
Q 3272 941 3272 1375 
Q 3272 1813 3026 2020 
Q 2781 2228 2272 2228 
L 1259 2228 
z
M 1259 4147 
L 1259 2741 
L 2194 2741 
Q 2656 2741 2882 2914 
Q 3109 3088 3109 3444 
Q 3109 3797 2882 3972 
Q 2656 4147 2194 4147 
L 1259 4147 
z
M 628 4666 
L 2241 4666 
Q 2963 4666 3353 4366 
Q 3744 4066 3744 3513 
Q 3744 3084 3544 2831 
Q 3344 2578 2956 2516 
Q 3422 2416 3680 2098 
Q 3938 1781 3938 1306 
Q 3938 681 3513 340 
Q 3088 0 2303 0 
L 628 0 
L 628 4666 
z
" transform="scale(0.015625)"/>
      </defs>
      <use xlink:href="#DejaVuSans-42"/>
     </g>
    </g>
   </g>
   <g id="patch_14">
    <path d="M 372.4518 59.305 
C 373.060441 59.305 373.644236 59.063184 374.07461 58.63281 
C 374.504984 58.202436 374.7468 57.618641 374.7468 57.01 
C 374.7468 56.401359 374.504984 55.817564 374.07461 55.38719 
C 373.644236 54.956816 373.060441 54.715 372.4518 54.715 
C 371.843159 54.715 371.259364 54.956816 370.82899 55.38719 
C 370.398616 55.817564 370.1568 56.401359 370.1568 57.01 
C 370.1568 57.618641 370.398616 58.202436 370.82899 58.63281 
C 371.259364 59.063184 371.843159 59.305 372.4518 59.305 
z
" clip-path="url(#p9a7ed19f07)" style="fill: #ffffff; stroke: #000000; stroke-width: 2; stroke-linejoin: miter"/>
   </g>
   <g id="text_21">
    <g clip-path="url(#p9a7ed19f07)">
     <!-- A -->
     <g transform="translate(358.546019 60.459219)scale(0.125 -0.125)">
      <use xlink:href="#DejaVuSans-41"/>
     </g>
    </g>
   </g>
   <g id="patch_15">
    <path d="M 372.4518 151.105 
C 373.060441 151.105 373.644236 150.863184 374.07461 150.43281 
C 374.504984 150.002436 374.7468 149.418641 374.7468 148.81 
C 374.7468 148.201359 374.504984 147.617564 374.07461 147.18719 
C 373.644236 146.756816 373.060441 146.515 372.4518 146.515 
C 371.843159 146.515 371.259364 146.756816 370.82899 147.18719 
C 370.398616 147.617564 370.1568 148.201359 370.1568 148.81 
C 370.1568 149.418641 370.398616 150.002436 370.82899 150.43281 
C 371.259364 150.863184 371.843159 151.105 372.4518 151.105 
z
" clip-path="url(#p9a7ed19f07)" style="fill: #ffffff; stroke: #000000; stroke-width: 2; stroke-linejoin: miter"/>
   </g>
   <g id="text_22">
    <g clip-path="url(#p9a7ed19f07)">
     <!-- B -->
     <g transform="translate(358.520628 152.259219)scale(0.125 -0.125)">
      <use xlink:href="#DejaVuSans-42"/>
     </g>
    </g>
   </g>
   <g id="patch_16">
    <path d="M 35.8518 59.305 
C 36.460441 59.305 37.044236 59.063184 37.47461 58.63281 
C 37.904984 58.202436 38.1468 57.618641 38.1468 57.01 
C 38.1468 56.401359 37.904984 55.817564 37.47461 55.38719 
C 37.044236 54.956816 36.460441 54.715 35.8518 54.715 
C 35.243159 54.715 34.659364 54.956816 34.22899 55.38719 
C 33.798616 55.817564 33.5568 56.401359 33.5568 57.01 
C 33.5568 57.618641 33.798616 58.202436 34.22899 58.63281 
C 34.659364 59.063184 35.243159 59.305 35.8518 59.305 
z
" clip-path="url(#p9a7ed19f07)" style="fill: #ffffff; stroke: #000000; stroke-width: 2; stroke-linejoin: miter"/>
   </g>
   <g id="text_23">
    <g clip-path="url(#p9a7ed19f07)">
     <!-- A -->
     <g transform="translate(21.946019 60.459219)scale(0.125 -0.125)">
      <use xlink:href="#DejaVuSans-41"/>
     </g>
    </g>
   </g>
   <g id="patch_17">
    <path d="M 29.7318 151.105 
C 30.340441 151.105 30.924236 150.863184 31.35461 150.43281 
C 31.784984 150.002436 32.0268 149.418641 32.0268 148.81 
C 32.0268 148.201359 31.784984 147.617564 31.35461 147.18719 
C 30.924236 146.756816 30.340441 146.515 29.7318 146.515 
C 29.123159 146.515 28.539364 146.756816 28.10899 147.18719 
C 27.678616 147.617564 27.4368 148.201359 27.4368 148.81 
C 27.4368 149.418641 27.678616 150.002436 28.10899 150.43281 
C 28.539364 150.863184 29.123159 151.105 29.7318 151.105 
z
" clip-path="url(#p9a7ed19f07)" style="fill: #ffffff; stroke: #000000; stroke-width: 2; stroke-linejoin: miter"/>
   </g>
   <g id="text_24">
    <g clip-path="url(#p9a7ed19f07)">
     <!-- B -->
     <g transform="translate(15.800628 152.259219)scale(0.125 -0.125)">
      <use xlink:href="#DejaVuSans-42"/>
     </g>
    </g>
   </g>
   <g id="patch_18">
    <path d="M 372.4518 59.305 
C 373.060441 59.305 373.644236 59.063184 374.07461 58.63281 
C 374.504984 58.202436 374.7468 57.618641 374.7468 57.01 
C 374.7468 56.401359 374.504984 55.817564 374.07461 55.38719 
C 373.644236 54.956816 373.060441 54.715 372.4518 54.715 
C 371.843159 54.715 371.259364 54.956816 370.82899 55.38719 
C 370.398616 55.817564 370.1568 56.401359 370.1568 57.01 
C 370.1568 57.618641 370.398616 58.202436 370.82899 58.63281 
C 371.259364 59.063184 371.843159 59.305 372.4518 59.305 
z
" clip-path="url(#p9a7ed19f07)" style="fill: #ffffff; stroke: #000000; stroke-width: 2; stroke-linejoin: miter"/>
   </g>
   <g id="text_25">
    <g clip-path="url(#p9a7ed19f07)">
     <!-- A -->
     <g transform="translate(358.546019 60.459219)scale(0.125 -0.125)">
      <use xlink:href="#DejaVuSans-41"/>
     </g>
    </g>
   </g>
   <g id="patch_19">
    <path d="M 372.4518 151.105 
C 373.060441 151.105 373.644236 150.863184 374.07461 150.43281 
C 374.504984 150.002436 374.7468 149.418641 374.7468 148.81 
C 374.7468 148.201359 374.504984 147.617564 374.07461 147.18719 
C 373.644236 146.756816 373.060441 146.515 372.4518 146.515 
C 371.843159 146.515 371.259364 146.756816 370.82899 147.18719 
C 370.398616 147.617564 370.1568 148.201359 370.1568 148.81 
C 370.1568 149.418641 370.398616 150.002436 370.82899 150.43281 
C 371.259364 150.863184 371.843159 151.105 372.4518 151.105 
z
" clip-path="url(#p9a7ed19f07)" style="fill: #ffffff; stroke: #000000; stroke-width: 2; stroke-linejoin: miter"/>
   </g>
   <g id="text_26">
    <g clip-path="url(#p9a7ed19f07)">
     <!-- B -->
     <g transform="translate(358.520628 152.259219)scale(0.125 -0.125)">
      <use xlink:href="#DejaVuSans-42"/>
     </g>
    </g>
   </g>
  </g>
 </g>
 <defs>
  <clipPath id="p9a7ed19f07">
   <rect x="7.2" y="7.2" width="471.5868" height="155.55"/>
  </clipPath>
 </defs>
</svg>
