<?xml version="1.0" encoding="utf-8" standalone="no"?>
<!DOCTYPE svg PUBLIC "-//W3C//DTD SVG 1.1//EN"
  "http://www.w3.org/Graphics/SVG/1.1/DTD/svg11.dtd">
<svg xmlns:xlink="http://www.w3.org/1999/xlink" width="183.9852pt" height="169.95pt" viewBox="0 0 183.9852 169.95" xmlns="http://www.w3.org/2000/svg" version="1.1">
 <metadata>
  <rdf:RDF xmlns:dc="http://purl.org/dc/elements/1.1/" xmlns:cc="http://creativecommons.org/ns#" xmlns:rdf="http://www.w3.org/1999/02/22-rdf-syntax-ns#">
   <cc:Work>
    <dc:type rdf:resource="http://purl.org/dc/dcmitype/StillImage"/>
    <dc:date>2023-03-16T22:05:23.466952</dc:date>
    <dc:format>image/svg+xml</dc:format>
    <dc:creator>
     <cc:Agent>
      <dc:title>Matplotlib v3.5.2, https://matplotlib.org/</dc:title>
     </cc:Agent>
    </dc:creator>
   </cc:Work>
  </rdf:RDF>
 </metadata>
 <defs>
  <style type="text/css">*{stroke-linejoin: round; stroke-linecap: butt}</style>
 </defs>
 <g id="figure_1">
  <g id="patch_1">
   <path d="M 0 169.95 
L 183.9852 169.95 
L 183.9852 0 
L 0 0 
L 0 169.95 
z
" style="fill: none"/>
  </g>
  <g id="axes_1">
   <g id="line2d_1">
    <path d="M 56.3334 148.81 
L 56.3334 111.51625 
M 56.3334 94.30375 
L 56.3334 57.01 
" clip-path="url(#pba5e9caf90)" style="fill: none; stroke: #000000; stroke-width: 2; stroke-linecap: round"/>
   </g>
   <g id="line2d_2">
    <path d="M 67.8084 94.30375 
L 44.8584 94.30375 
" clip-path="url(#pba5e9caf90)" style="fill: none; stroke: #000000; stroke-width: 2; stroke-linecap: round"/>
   </g>
   <g id="line2d_3">
    <path d="M 62.0709 100.04125 
L 50.5959 100.04125 
" clip-path="url(#pba5e9caf90)" style="fill: none; stroke: #000000; stroke-width: 2; stroke-linecap: round"/>
   </g>
   <g id="line2d_4">
    <path d="M 67.8084 105.77875 
L 44.8584 105.77875 
" clip-path="url(#pba5e9caf90)" style="fill: none; stroke: #000000; stroke-width: 2; stroke-linecap: round"/>
   </g>
   <g id="line2d_5">
    <path d="M 62.0709 111.51625 
L 50.5959 111.51625 
" clip-path="url(#pba5e9caf90)" style="fill: none; stroke: #000000; stroke-width: 2; stroke-linecap: round"/>
   </g>
   <g id="line2d_6">
    <path d="M 56.3334 57.01 
L 86.9334 57.01 
L 89.4834 49.36 
L 94.5834 64.66 
L 99.6834 49.36 
L 104.7834 64.66 
L 109.8834 49.36 
L 114.9834 64.66 
L 117.5334 57.01 
L 148.1334 57.01 
" clip-path="url(#pba5e9caf90)" style="fill: none; stroke: #000000; stroke-width: 2; stroke-linecap: round"/>
   </g>
   <g id="line2d_7">
    <path d="M 56.3334 148.81 
L 102.2334 148.81 
L 148.1334 148.81 
" clip-path="url(#pba5e9caf90)" style="fill: none; stroke: #000000; stroke-width: 2; stroke-linecap: round"/>
   </g>
   <g id="line2d_8">
    <path d="M 56.3334 148.81 
L 56.3334 111.51625 
M 56.3334 94.30375 
L 56.3334 57.01 
" clip-path="url(#pba5e9caf90)" style="fill: none; stroke: #000000; stroke-width: 2; stroke-linecap: round"/>
   </g>
   <g id="line2d_9">
    <path d="M 67.8084 94.30375 
L 44.8584 94.30375 
" clip-path="url(#pba5e9caf90)" style="fill: none; stroke: #000000; stroke-width: 2; stroke-linecap: round"/>
   </g>
   <g id="line2d_10">
    <path d="M 62.0709 100.04125 
L 50.5959 100.04125 
" clip-path="url(#pba5e9caf90)" style="fill: none; stroke: #000000; stroke-width: 2; stroke-linecap: round"/>
   </g>
   <g id="line2d_11">
    <path d="M 67.8084 105.77875 
L 44.8584 105.77875 
" clip-path="url(#pba5e9caf90)" style="fill: none; stroke: #000000; stroke-width: 2; stroke-linecap: round"/>
   </g>
   <g id="line2d_12">
    <path d="M 62.0709 111.51625 
L 50.5959 111.51625 
" clip-path="url(#pba5e9caf90)" style="fill: none; stroke: #000000; stroke-width: 2; stroke-linecap: round"/>
   </g>
   <g id="line2d_13">
    <path d="M 56.3334 57.01 
L 86.9334 57.01 
L 89.4834 49.36 
L 94.5834 64.66 
L 99.6834 49.36 
L 104.7834 64.66 
L 109.8834 49.36 
L 114.9834 64.66 
L 117.5334 57.01 
L 148.1334 57.01 
" clip-path="url(#pba5e9caf90)" style="fill: none; stroke: #000000; stroke-width: 2; stroke-linecap: round"/>
   </g>
   <g id="line2d_14">
    <path d="M 56.3334 148.81 
L 102.2334 148.81 
L 148.1334 148.81 
" clip-path="url(#pba5e9caf90)" style="fill: none; stroke: #000000; stroke-width: 2; stroke-linecap: round"/>
   </g>
   <g id="text_1">
    <g clip-path="url(#pba5e9caf90)">
     <!-- $V_{TH}$ -->
     <g transform="translate(22.4234 99.360586)scale(0.125 -0.125)">
      <defs>
       <path id="STIXGeneral-Italic-56" d="M 4403 4179 
L 4403 4077 
Q 4198 4070 4045 3821 
L 1658 -115 
L 1536 -115 
L 1011 3104 
Q 902 3776 828 3910 
Q 755 4045 486 4077 
L 486 4179 
L 2022 4179 
L 2022 4077 
Q 1722 4045 1629 3981 
Q 1536 3917 1536 3750 
Q 1536 3686 1542 3654 
L 1958 819 
L 3302 3123 
Q 3616 3661 3616 3859 
Q 3616 4032 3219 4077 
L 3219 4179 
L 4403 4179 
z
" transform="scale(0.015625)"/>
       <path id="STIXGeneral-Italic-54" d="M 4051 4179 
L 3770 3130 
L 3661 3142 
Q 3680 3302 3680 3437 
Q 3680 3955 3034 3955 
L 2662 3955 
L 1786 819 
Q 1696 506 1696 397 
Q 1696 250 1766 195 
Q 1837 141 2035 122 
L 2259 102 
L 2259 0 
L 416 0 
L 416 102 
Q 749 134 889 230 
Q 1030 326 1101 582 
L 2016 3955 
Q 1254 3955 988 3817 
Q 723 3680 493 3162 
L 378 3187 
L 646 4179 
L 4051 4179 
z
" transform="scale(0.015625)"/>
       <path id="STIXGeneral-Italic-48" d="M 4922 4179 
L 4922 4077 
Q 4640 4026 4550 3949 
Q 4461 3872 4384 3603 
L 3539 525 
Q 3520 448 3520 371 
Q 3520 237 3616 185 
Q 3712 134 4026 102 
L 4026 0 
L 2272 0 
L 2272 102 
Q 2598 128 2729 237 
Q 2861 346 2925 595 
L 3334 2086 
L 1510 2086 
L 1088 525 
Q 1069 461 1069 384 
Q 1069 243 1149 192 
Q 1229 141 1517 102 
L 1517 0 
L -51 0 
L -51 102 
Q 211 128 310 230 
Q 410 333 499 653 
L 1254 3405 
Q 1331 3699 1331 3814 
Q 1331 3949 1238 3997 
Q 1146 4045 838 4077 
L 838 4179 
L 2573 4179 
L 2573 4077 
Q 2285 4058 2141 3955 
Q 1997 3853 1933 3622 
L 1587 2355 
L 3411 2355 
L 3706 3405 
Q 3795 3738 3795 3808 
Q 3795 3930 3692 3994 
Q 3590 4058 3334 4077 
L 3334 4179 
L 4922 4179 
z
" transform="scale(0.015625)"/>
      </defs>
      <use xlink:href="#STIXGeneral-Italic-56" transform="translate(0 0.703125)"/>
      <use xlink:href="#STIXGeneral-Italic-54" transform="translate(61.099991 -12.525)scale(0.7)"/>
      <use xlink:href="#STIXGeneral-Italic-48" transform="translate(100.019984 -12.525)scale(0.7)"/>
     </g>
    </g>
    <g clip-path="url(#pba5e9caf90)">
     <!-- 9V -->
     <g transform="translate(25.294494 113.357852)scale(0.125 -0.125)">
      <defs>
       <path id="DejaVuSans-39" d="M 703 97 
L 703 672 
Q 941 559 1184 500 
Q 1428 441 1663 441 
Q 2288 441 2617 861 
Q 2947 1281 2994 2138 
Q 2813 1869 2534 1725 
Q 2256 1581 1919 1581 
Q 1219 1581 811 2004 
Q 403 2428 403 3163 
Q 403 3881 828 4315 
Q 1253 4750 1959 4750 
Q 2769 4750 3195 4129 
Q 3622 3509 3622 2328 
Q 3622 1225 3098 567 
Q 2575 -91 1691 -91 
Q 1453 -91 1209 -44 
Q 966 3 703 97 
z
M 1959 2075 
Q 2384 2075 2632 2365 
Q 2881 2656 2881 3163 
Q 2881 3666 2632 3958 
Q 2384 4250 1959 4250 
Q 1534 4250 1286 3958 
Q 1038 3666 1038 3163 
Q 1038 2656 1286 2365 
Q 1534 2075 1959 2075 
z
" transform="scale(0.015625)"/>
       <path id="DejaVuSans-56" d="M 1831 0 
L 50 4666 
L 709 4666 
L 2188 738 
L 3669 4666 
L 4325 4666 
L 2547 0 
L 1831 0 
z
" transform="scale(0.015625)"/>
      </defs>
      <use xlink:href="#DejaVuSans-39"/>
      <use xlink:href="#DejaVuSans-56" x="63.623047"/>
     </g>
    </g>
   </g>
   <g id="text_2">
    <g clip-path="url(#pba5e9caf90)">
     <!-- $R_{TH}$ -->
     <g transform="translate(92.5459 29.703125)scale(0.125 -0.125)">
      <defs>
       <path id="STIXGeneral-Italic-52" d="M 845 4179 
L 2458 4179 
Q 3078 4179 3420 3936 
Q 3763 3693 3763 3277 
Q 3763 2778 3341 2458 
Q 3091 2266 2502 2131 
L 3072 627 
Q 3181 333 3299 217 
Q 3418 102 3629 102 
L 3629 0 
L 2688 0 
L 1901 2074 
L 1478 2106 
L 1126 806 
Q 1043 512 1043 403 
Q 1043 256 1126 192 
Q 1210 128 1472 102 
L 1472 0 
L -83 0 
L -83 102 
Q 173 134 278 243 
Q 384 352 461 646 
L 1222 3405 
Q 1299 3699 1299 3808 
Q 1299 3923 1210 3987 
Q 1133 4038 845 4077 
L 845 4179 
z
M 1958 3795 
L 1555 2342 
Q 1754 2310 1882 2310 
Q 2451 2310 2771 2566 
Q 3091 2822 3091 3270 
Q 3091 3603 2892 3795 
Q 2694 3987 2323 3987 
Q 2010 3987 1958 3795 
z
" transform="scale(0.015625)"/>
      </defs>
      <use xlink:href="#STIXGeneral-Italic-52" transform="translate(0 0.703125)"/>
      <use xlink:href="#STIXGeneral-Italic-54" transform="translate(61.099991 -12.525)scale(0.7)"/>
      <use xlink:href="#STIXGeneral-Italic-48" transform="translate(100.019984 -12.525)scale(0.7)"/>
     </g>
    </g>
    <g clip-path="url(#pba5e9caf90)">
     <!-- 6Ω -->
     <g transform="translate(93.48047 43.700391)scale(0.125 -0.125)">
      <defs>
       <path id="DejaVuSans-36" d="M 2113 2584 
Q 1688 2584 1439 2293 
Q 1191 2003 1191 1497 
Q 1191 994 1439 701 
Q 1688 409 2113 409 
Q 2538 409 2786 701 
Q 3034 994 3034 1497 
Q 3034 2003 2786 2293 
Q 2538 2584 2113 2584 
z
M 3366 4563 
L 3366 3988 
Q 3128 4100 2886 4159 
Q 2644 4219 2406 4219 
Q 1781 4219 1451 3797 
Q 1122 3375 1075 2522 
Q 1259 2794 1537 2939 
Q 1816 3084 2150 3084 
Q 2853 3084 3261 2657 
Q 3669 2231 3669 1497 
Q 3669 778 3244 343 
Q 2819 -91 2113 -91 
Q 1303 -91 875 529 
Q 447 1150 447 2328 
Q 447 3434 972 4092 
Q 1497 4750 2381 4750 
Q 2619 4750 2861 4703 
Q 3103 4656 3366 4563 
z
" transform="scale(0.015625)"/>
       <path id="DejaVuSans-3a9" d="M 4647 556 
L 4647 0 
L 2772 0 
L 2772 556 
Q 3325 859 3634 1378 
Q 3944 1897 3944 2528 
Q 3944 3278 3531 3731 
Q 3119 4184 2444 4184 
Q 1769 4184 1355 3729 
Q 941 3275 941 2528 
Q 941 1897 1250 1378 
Q 1563 859 2119 556 
L 2119 0 
L 244 0 
L 244 556 
L 1241 556 
Q 747 991 519 1456 
Q 294 1922 294 2497 
Q 294 3491 894 4106 
Q 1491 4722 2444 4722 
Q 3391 4722 3994 4106 
Q 4594 3494 4594 2528 
Q 4594 1922 4372 1459 
Q 4150 997 3647 556 
L 4647 556 
z
" transform="scale(0.015625)"/>
      </defs>
      <use xlink:href="#DejaVuSans-36"/>
      <use xlink:href="#DejaVuSans-3a9" x="63.623047"/>
     </g>
    </g>
   </g>
   <g id="text_3">
    <g clip-path="url(#pba5e9caf90)">
     <!-- $V_{TH}$ -->
     <g transform="translate(22.4234 99.360586)scale(0.125 -0.125)">
      <use xlink:href="#STIXGeneral-Italic-56" transform="translate(0 0.703125)"/>
      <use xlink:href="#STIXGeneral-Italic-54" transform="translate(61.099991 -12.525)scale(0.7)"/>
      <use xlink:href="#STIXGeneral-Italic-48" transform="translate(100.019984 -12.525)scale(0.7)"/>
     </g>
    </g>
    <g clip-path="url(#pba5e9caf90)">
     <!-- 9V -->
     <g transform="translate(25.294494 113.357852)scale(0.125 -0.125)">
      <use xlink:href="#DejaVuSans-39"/>
      <use xlink:href="#DejaVuSans-56" x="63.623047"/>
     </g>
    </g>
   </g>
   <g id="text_4">
    <g clip-path="url(#pba5e9caf90)">
     <!-- $R_{TH}$ -->
     <g transform="translate(92.5459 29.703125)scale(0.125 -0.125)">
      <use xlink:href="#STIXGeneral-Italic-52" transform="translate(0 0.703125)"/>
      <use xlink:href="#STIXGeneral-Italic-54" transform="translate(61.099991 -12.525)scale(0.7)"/>
      <use xlink:href="#STIXGeneral-Italic-48" transform="translate(100.019984 -12.525)scale(0.7)"/>
     </g>
    </g>
    <g clip-path="url(#pba5e9caf90)">
     <!-- 6Ω -->
     <g transform="translate(93.48047 43.700391)scale(0.125 -0.125)">
      <use xlink:href="#DejaVuSans-36"/>
      <use xlink:href="#DejaVuSans-3a9" x="63.623047"/>
     </g>
    </g>
   </g>
   <g id="patch_2">
    <path d="M 148.1334 59.305 
C 148.742041 59.305 149.325836 59.063184 149.75621 58.63281 
C 150.186584 58.202436 150.4284 57.618641 150.4284 57.01 
C 150.4284 56.401359 150.186584 55.817564 149.75621 55.38719 
C 149.325836 54.956816 148.742041 54.715 148.1334 54.715 
C 147.524759 54.715 146.940964 54.956816 146.51059 55.38719 
C 146.080216 55.817564 145.8384 56.401359 145.8384 57.01 
C 145.8384 57.618641 146.080216 58.202436 146.51059 58.63281 
C 146.940964 59.063184 147.524759 59.305 148.1334 59.305 
z
" clip-path="url(#pba5e9caf90)" style="fill: #ffffff; stroke: #000000; stroke-width: 2; stroke-linejoin: miter"/>
   </g>
   <g id="text_5">
    <g clip-path="url(#pba5e9caf90)">
     <!-- A -->
     <g transform="translate(153.4884 60.459219)scale(0.125 -0.125)">
      <defs>
       <path id="DejaVuSans-41" d="M 2188 4044 
L 1331 1722 
L 3047 1722 
L 2188 4044 
z
M 1831 4666 
L 2547 4666 
L 4325 0 
L 3669 0 
L 3244 1197 
L 1141 1197 
L 716 0 
L 50 0 
L 1831 4666 
z
" transform="scale(0.015625)"/>
      </defs>
      <use xlink:href="#DejaVuSans-41"/>
     </g>
    </g>
   </g>
   <g id="patch_3">
    <path d="M 148.1334 151.105 
C 148.742041 151.105 149.325836 150.863184 149.75621 150.43281 
C 150.186584 150.002436 150.4284 149.418641 150.4284 148.81 
C 150.4284 148.201359 150.186584 147.617564 149.75621 147.18719 
C 149.325836 146.756816 148.742041 146.515 148.1334 146.515 
C 147.524759 146.515 146.940964 146.756816 146.51059 147.18719 
C 146.080216 147.617564 145.8384 148.201359 145.8384 148.81 
C 145.8384 149.418641 146.080216 150.002436 146.51059 150.43281 
C 146.940964 150.863184 147.524759 151.105 148.1334 151.105 
z
" clip-path="url(#pba5e9caf90)" style="fill: #ffffff; stroke: #000000; stroke-width: 2; stroke-linejoin: miter"/>
   </g>
   <g id="text_6">
    <g clip-path="url(#pba5e9caf90)">
     <!-- B -->
     <g transform="translate(153.4884 152.259219)scale(0.125 -0.125)">
      <defs>
       <path id="DejaVuSans-42" d="M 1259 2228 
L 1259 519 
L 2272 519 
Q 2781 519 3026 730 
Q 3272 941 3272 1375 
Q 3272 1813 3026 2020 
Q 2781 2228 2272 2228 
L 1259 2228 
z
M 1259 4147 
L 1259 2741 
L 2194 2741 
Q 2656 2741 2882 2914 
Q 3109 3088 3109 3444 
Q 3109 3797 2882 3972 
Q 2656 4147 2194 4147 
L 1259 4147 
z
M 628 4666 
L 2241 4666 
Q 2963 4666 3353 4366 
Q 3744 4066 3744 3513 
Q 3744 3084 3544 2831 
Q 3344 2578 2956 2516 
Q 3422 2416 3680 2098 
Q 3938 1781 3938 1306 
Q 3938 681 3513 340 
Q 3088 0 2303 0 
L 628 0 
L 628 4666 
z
" transform="scale(0.015625)"/>
      </defs>
      <use xlink:href="#DejaVuSans-42"/>
     </g>
    </g>
   </g>
   <g id="patch_4">
    <path d="M 148.1334 59.305 
C 148.742041 59.305 149.325836 59.063184 149.75621 58.63281 
C 150.186584 58.202436 150.4284 57.618641 150.4284 57.01 
C 150.4284 56.401359 150.186584 55.817564 149.75621 55.38719 
C 149.325836 54.956816 148.742041 54.715 148.1334 54.715 
C 147.524759 54.715 146.940964 54.956816 146.51059 55.38719 
C 146.080216 55.817564 145.8384 56.401359 145.8384 57.01 
C 145.8384 57.618641 146.080216 58.202436 146.51059 58.63281 
C 146.940964 59.063184 147.524759 59.305 148.1334 59.305 
z
" clip-path="url(#pba5e9caf90)" style="fill: #ffffff; stroke: #000000; stroke-width: 2; stroke-linejoin: miter"/>
   </g>
   <g id="text_7">
    <g clip-path="url(#pba5e9caf90)">
     <!-- A -->
     <g transform="translate(153.4884 60.459219)scale(0.125 -0.125)">
      <use xlink:href="#DejaVuSans-41"/>
     </g>
    </g>
   </g>
   <g id="patch_5">
    <path d="M 148.1334 151.105 
C 148.742041 151.105 149.325836 150.863184 149.75621 150.43281 
C 150.186584 150.002436 150.4284 149.418641 150.4284 148.81 
C 150.4284 148.201359 150.186584 147.617564 149.75621 147.18719 
C 149.325836 146.756816 148.742041 146.515 148.1334 146.515 
C 147.524759 146.515 146.940964 146.756816 146.51059 147.18719 
C 146.080216 147.617564 145.8384 148.201359 145.8384 148.81 
C 145.8384 149.418641 146.080216 150.002436 146.51059 150.43281 
C 146.940964 150.863184 147.524759 151.105 148.1334 151.105 
z
" clip-path="url(#pba5e9caf90)" style="fill: #ffffff; stroke: #000000; stroke-width: 2; stroke-linejoin: miter"/>
   </g>
   <g id="text_8">
    <g clip-path="url(#pba5e9caf90)">
     <!-- B -->
     <g transform="translate(153.4884 152.259219)scale(0.125 -0.125)">
      <use xlink:href="#DejaVuSans-42"/>
     </g>
    </g>
   </g>
  </g>
 </g>
 <defs>
  <clipPath id="pba5e9caf90">
   <rect x="7.2" y="7.2" width="169.5852" height="155.55"/>
  </clipPath>
 </defs>
</svg>
