<?xml version="1.0" encoding="utf-8" standalone="no"?>
<!DOCTYPE svg PUBLIC "-//W3C//DTD SVG 1.1//EN"
  "http://www.w3.org/Graphics/SVG/1.1/DTD/svg11.dtd">
<svg xmlns:xlink="http://www.w3.org/1999/xlink" width="388.23pt" height="241.01pt" viewBox="0 0 388.23 241.01" xmlns="http://www.w3.org/2000/svg" version="1.1">
 <metadata>
  <rdf:RDF xmlns:dc="http://purl.org/dc/elements/1.1/" xmlns:cc="http://creativecommons.org/ns#" xmlns:rdf="http://www.w3.org/1999/02/22-rdf-syntax-ns#">
   <cc:Work>
    <dc:type rdf:resource="http://purl.org/dc/dcmitype/StillImage"/>
    <dc:date>2023-10-30T06:54:40.139893</dc:date>
    <dc:format>image/svg+xml</dc:format>
    <dc:creator>
     <cc:Agent>
      <dc:title>Matplotlib v3.5.2, https://matplotlib.org/</dc:title>
     </cc:Agent>
    </dc:creator>
   </cc:Work>
  </rdf:RDF>
 </metadata>
 <defs>
  <style type="text/css">*{stroke-linejoin: round; stroke-linecap: butt}</style>
 </defs>
 <g id="figure_1">
  <g id="patch_1">
   <path d="M 0 241.01 
L 388.23 241.01 
L 388.23 0 
L 0 0 
L 0 241.01 
z
" style="fill: none"/>
  </g>
  <g id="axes_1">
   <g id="line2d_1">
    <path d="M 72.5106 195.56 
L 164.3106 195.56 
L 164.3106 42.56 
L 72.5106 42.56 
L 72.5106 195.56 
" clip-path="url(#p4e2bf05100)" style="fill: none; stroke: #000000; stroke-width: 2; stroke-linecap: round"/>
   </g>
   <g id="line2d_2">
    <path d="M 72.5106 119.06 
L 57.2106 119.06 
" clip-path="url(#p4e2bf05100)" style="fill: none; stroke: #000000; stroke-width: 2; stroke-linecap: round"/>
   </g>
   <g id="line2d_3">
    <path d="M 118.4106 195.56 
L 118.4106 210.86 
" clip-path="url(#p4e2bf05100)" style="fill: none; stroke: #000000; stroke-width: 2; stroke-linecap: round"/>
   </g>
   <g id="line2d_4">
    <path d="M 118.4106 210.86 
L 118.4106 223.1 
L 110.7606 223.1 
L 118.4106 230.75 
L 126.0606 223.1 
L 118.4106 223.1 
" clip-path="url(#p4e2bf05100)" style="fill: none; stroke: #000000; stroke-width: 2; stroke-linecap: round"/>
   </g>
   <g id="line2d_5">
    <path d="M 118.4106 210.86 
L 118.4106 180.26 
L 110.7606 177.71 
L 126.0606 172.61 
L 110.7606 167.51 
L 126.0606 162.41 
L 110.7606 157.31 
L 126.0606 152.21 
L 118.4106 149.66 
L 118.4106 119.06 
" clip-path="url(#p4e2bf05100)" style="fill: none; stroke: #000000; stroke-width: 2; stroke-linecap: round"/>
   </g>
   <g id="line2d_6">
    <path d="M 118.4106 119.06 
L 87.8106 119.06 
L 57.2106 119.06 
" clip-path="url(#p4e2bf05100)" style="fill: none; stroke: #000000; stroke-width: 2; stroke-linecap: round"/>
   </g>
   <g id="line2d_7">
    <path d="M 302.0106 27.26 
L 302.0106 57.86 
L 309.6606 60.41 
L 294.3606 65.51 
L 309.6606 70.61 
L 294.3606 75.71 
L 309.6606 80.81 
L 294.3606 85.91 
L 302.0106 88.46 
L 302.0106 119.06 
" clip-path="url(#p4e2bf05100)" style="fill: none; stroke: #000000; stroke-width: 2; stroke-linecap: round"/>
   </g>
   <g id="line2d_8">
    <path d="M 302.0106 119.06 
L 302.0106 149.66 
L 309.6606 152.21 
L 294.3606 157.31 
L 309.6606 162.41 
L 294.3606 167.51 
L 309.6606 172.61 
L 294.3606 177.71 
L 302.0106 180.26 
L 302.0106 210.86 
" clip-path="url(#p4e2bf05100)" style="fill: none; stroke: #000000; stroke-width: 2; stroke-linecap: round"/>
   </g>
   <g id="line2d_9">
    <path d="M 302.0106 210.86 
L 302.0106 223.1 
L 294.3606 223.1 
L 302.0106 230.75 
L 309.6606 223.1 
L 302.0106 223.1 
" clip-path="url(#p4e2bf05100)" style="fill: none; stroke: #000000; stroke-width: 2; stroke-linecap: round"/>
   </g>
   <g id="line2d_10">
    <path d="M 302.0106 119.06 
L 313.4856 119.06 
L 324.9606 119.06 
" clip-path="url(#p4e2bf05100)" style="fill: none; stroke: #000000; stroke-width: 2; stroke-linecap: round"/>
   </g>
   <g id="line2d_11">
    <path d="M 72.5106 195.56 
L 164.3106 195.56 
L 164.3106 42.56 
L 72.5106 42.56 
L 72.5106 195.56 
" clip-path="url(#p4e2bf05100)" style="fill: none; stroke: #000000; stroke-width: 2; stroke-linecap: round"/>
   </g>
   <g id="line2d_12">
    <path d="M 72.5106 119.06 
L 57.2106 119.06 
" clip-path="url(#p4e2bf05100)" style="fill: none; stroke: #000000; stroke-width: 2; stroke-linecap: round"/>
   </g>
   <g id="line2d_13">
    <path d="M 118.4106 195.56 
L 118.4106 210.86 
" clip-path="url(#p4e2bf05100)" style="fill: none; stroke: #000000; stroke-width: 2; stroke-linecap: round"/>
   </g>
   <g id="line2d_14">
    <path d="M 118.4106 210.86 
L 118.4106 223.1 
L 110.7606 223.1 
L 118.4106 230.75 
L 126.0606 223.1 
L 118.4106 223.1 
" clip-path="url(#p4e2bf05100)" style="fill: none; stroke: #000000; stroke-width: 2; stroke-linecap: round"/>
   </g>
   <g id="line2d_15">
    <path d="M 118.4106 210.86 
L 118.4106 180.26 
L 110.7606 177.71 
L 126.0606 172.61 
L 110.7606 167.51 
L 126.0606 162.41 
L 110.7606 157.31 
L 126.0606 152.21 
L 118.4106 149.66 
L 118.4106 119.06 
" clip-path="url(#p4e2bf05100)" style="fill: none; stroke: #000000; stroke-width: 2; stroke-linecap: round"/>
   </g>
   <g id="line2d_16">
    <path d="M 118.4106 119.06 
L 87.8106 119.06 
L 57.2106 119.06 
" clip-path="url(#p4e2bf05100)" style="fill: none; stroke: #000000; stroke-width: 2; stroke-linecap: round"/>
   </g>
   <g id="line2d_17">
    <path d="M 302.0106 27.26 
L 302.0106 57.86 
L 309.6606 60.41 
L 294.3606 65.51 
L 309.6606 70.61 
L 294.3606 75.71 
L 309.6606 80.81 
L 294.3606 85.91 
L 302.0106 88.46 
L 302.0106 119.06 
" clip-path="url(#p4e2bf05100)" style="fill: none; stroke: #000000; stroke-width: 2; stroke-linecap: round"/>
   </g>
   <g id="line2d_18">
    <path d="M 302.0106 119.06 
L 302.0106 149.66 
L 309.6606 152.21 
L 294.3606 157.31 
L 309.6606 162.41 
L 294.3606 167.51 
L 309.6606 172.61 
L 294.3606 177.71 
L 302.0106 180.26 
L 302.0106 210.86 
" clip-path="url(#p4e2bf05100)" style="fill: none; stroke: #000000; stroke-width: 2; stroke-linecap: round"/>
   </g>
   <g id="line2d_19">
    <path d="M 302.0106 210.86 
L 302.0106 223.1 
L 294.3606 223.1 
L 302.0106 230.75 
L 309.6606 223.1 
L 302.0106 223.1 
" clip-path="url(#p4e2bf05100)" style="fill: none; stroke: #000000; stroke-width: 2; stroke-linecap: round"/>
   </g>
   <g id="line2d_20">
    <path d="M 302.0106 119.06 
L 313.4856 119.06 
L 324.9606 119.06 
" clip-path="url(#p4e2bf05100)" style="fill: none; stroke: #000000; stroke-width: 2; stroke-linecap: round"/>
   </g>
   <g id="text_1">
    <g clip-path="url(#p4e2bf05100)">
     <!-- Analog -->
     <g transform="translate(10.961147 118.570586)scale(0.125 -0.125)">
      <defs>
       <path id="DejaVuSans-41" d="M 2188 4044 
L 1331 1722 
L 3047 1722 
L 2188 4044 
z
M 1831 4666 
L 2547 4666 
L 4325 0 
L 3669 0 
L 3244 1197 
L 1141 1197 
L 716 0 
L 50 0 
L 1831 4666 
z
" transform="scale(0.015625)"/>
       <path id="DejaVuSans-6e" d="M 3513 2113 
L 3513 0 
L 2938 0 
L 2938 2094 
Q 2938 2591 2744 2837 
Q 2550 3084 2163 3084 
Q 1697 3084 1428 2787 
Q 1159 2491 1159 1978 
L 1159 0 
L 581 0 
L 581 3500 
L 1159 3500 
L 1159 2956 
Q 1366 3272 1645 3428 
Q 1925 3584 2291 3584 
Q 2894 3584 3203 3211 
Q 3513 2838 3513 2113 
z
" transform="scale(0.015625)"/>
       <path id="DejaVuSans-61" d="M 2194 1759 
Q 1497 1759 1228 1600 
Q 959 1441 959 1056 
Q 959 750 1161 570 
Q 1363 391 1709 391 
Q 2188 391 2477 730 
Q 2766 1069 2766 1631 
L 2766 1759 
L 2194 1759 
z
M 3341 1997 
L 3341 0 
L 2766 0 
L 2766 531 
Q 2569 213 2275 61 
Q 1981 -91 1556 -91 
Q 1019 -91 701 211 
Q 384 513 384 1019 
Q 384 1609 779 1909 
Q 1175 2209 1959 2209 
L 2766 2209 
L 2766 2266 
Q 2766 2663 2505 2880 
Q 2244 3097 1772 3097 
Q 1472 3097 1187 3025 
Q 903 2953 641 2809 
L 641 3341 
Q 956 3463 1253 3523 
Q 1550 3584 1831 3584 
Q 2591 3584 2966 3190 
Q 3341 2797 3341 1997 
z
" transform="scale(0.015625)"/>
       <path id="DejaVuSans-6c" d="M 603 4863 
L 1178 4863 
L 1178 0 
L 603 0 
L 603 4863 
z
" transform="scale(0.015625)"/>
       <path id="DejaVuSans-6f" d="M 1959 3097 
Q 1497 3097 1228 2736 
Q 959 2375 959 1747 
Q 959 1119 1226 758 
Q 1494 397 1959 397 
Q 2419 397 2687 759 
Q 2956 1122 2956 1747 
Q 2956 2369 2687 2733 
Q 2419 3097 1959 3097 
z
M 1959 3584 
Q 2709 3584 3137 3096 
Q 3566 2609 3566 1747 
Q 3566 888 3137 398 
Q 2709 -91 1959 -91 
Q 1206 -91 779 398 
Q 353 888 353 1747 
Q 353 2609 779 3096 
Q 1206 3584 1959 3584 
z
" transform="scale(0.015625)"/>
       <path id="DejaVuSans-67" d="M 2906 1791 
Q 2906 2416 2648 2759 
Q 2391 3103 1925 3103 
Q 1463 3103 1205 2759 
Q 947 2416 947 1791 
Q 947 1169 1205 825 
Q 1463 481 1925 481 
Q 2391 481 2648 825 
Q 2906 1169 2906 1791 
z
M 3481 434 
Q 3481 -459 3084 -895 
Q 2688 -1331 1869 -1331 
Q 1566 -1331 1297 -1286 
Q 1028 -1241 775 -1147 
L 775 -588 
Q 1028 -725 1275 -790 
Q 1522 -856 1778 -856 
Q 2344 -856 2625 -561 
Q 2906 -266 2906 331 
L 2906 616 
Q 2728 306 2450 153 
Q 2172 0 1784 0 
Q 1141 0 747 490 
Q 353 981 353 1791 
Q 353 2603 747 3093 
Q 1141 3584 1784 3584 
Q 2172 3584 2450 3431 
Q 2728 3278 2906 2969 
L 2906 3500 
L 3481 3500 
L 3481 434 
z
" transform="scale(0.015625)"/>
      </defs>
      <use xlink:href="#DejaVuSans-41"/>
      <use xlink:href="#DejaVuSans-6e" x="68.408203"/>
      <use xlink:href="#DejaVuSans-61" x="131.787109"/>
      <use xlink:href="#DejaVuSans-6c" x="193.066406"/>
      <use xlink:href="#DejaVuSans-6f" x="220.849609"/>
      <use xlink:href="#DejaVuSans-67" x="282.03125"/>
     </g>
    </g>
    <g clip-path="url(#p4e2bf05100)">
     <!-- Input -->
     <g transform="translate(21.783413 132.567852)scale(0.125 -0.125)">
      <defs>
       <path id="DejaVuSans-49" d="M 628 4666 
L 1259 4666 
L 1259 0 
L 628 0 
L 628 4666 
z
" transform="scale(0.015625)"/>
       <path id="DejaVuSans-70" d="M 1159 525 
L 1159 -1331 
L 581 -1331 
L 581 3500 
L 1159 3500 
L 1159 2969 
Q 1341 3281 1617 3432 
Q 1894 3584 2278 3584 
Q 2916 3584 3314 3078 
Q 3713 2572 3713 1747 
Q 3713 922 3314 415 
Q 2916 -91 2278 -91 
Q 1894 -91 1617 61 
Q 1341 213 1159 525 
z
M 3116 1747 
Q 3116 2381 2855 2742 
Q 2594 3103 2138 3103 
Q 1681 3103 1420 2742 
Q 1159 2381 1159 1747 
Q 1159 1113 1420 752 
Q 1681 391 2138 391 
Q 2594 391 2855 752 
Q 3116 1113 3116 1747 
z
" transform="scale(0.015625)"/>
       <path id="DejaVuSans-75" d="M 544 1381 
L 544 3500 
L 1119 3500 
L 1119 1403 
Q 1119 906 1312 657 
Q 1506 409 1894 409 
Q 2359 409 2629 706 
Q 2900 1003 2900 1516 
L 2900 3500 
L 3475 3500 
L 3475 0 
L 2900 0 
L 2900 538 
Q 2691 219 2414 64 
Q 2138 -91 1772 -91 
Q 1169 -91 856 284 
Q 544 659 544 1381 
z
M 1991 3584 
L 1991 3584 
z
" transform="scale(0.015625)"/>
       <path id="DejaVuSans-74" d="M 1172 4494 
L 1172 3500 
L 2356 3500 
L 2356 3053 
L 1172 3053 
L 1172 1153 
Q 1172 725 1289 603 
Q 1406 481 1766 481 
L 2356 481 
L 2356 0 
L 1766 0 
Q 1100 0 847 248 
Q 594 497 594 1153 
L 594 3053 
L 172 3053 
L 172 3500 
L 594 3500 
L 594 4494 
L 1172 4494 
z
" transform="scale(0.015625)"/>
      </defs>
      <use xlink:href="#DejaVuSans-49"/>
      <use xlink:href="#DejaVuSans-6e" x="29.492188"/>
      <use xlink:href="#DejaVuSans-70" x="92.871094"/>
      <use xlink:href="#DejaVuSans-75" x="156.347656"/>
      <use xlink:href="#DejaVuSans-74" x="219.726562"/>
     </g>
    </g>
   </g>
   <g id="text_2">
    <g clip-path="url(#p4e2bf05100)">
     <!-- Microcontroller -->
     <g transform="translate(68.719741 39.960391)scale(0.125 -0.125)">
      <defs>
       <path id="DejaVuSans-4d" d="M 628 4666 
L 1569 4666 
L 2759 1491 
L 3956 4666 
L 4897 4666 
L 4897 0 
L 4281 0 
L 4281 4097 
L 3078 897 
L 2444 897 
L 1241 4097 
L 1241 0 
L 628 0 
L 628 4666 
z
" transform="scale(0.015625)"/>
       <path id="DejaVuSans-69" d="M 603 3500 
L 1178 3500 
L 1178 0 
L 603 0 
L 603 3500 
z
M 603 4863 
L 1178 4863 
L 1178 4134 
L 603 4134 
L 603 4863 
z
" transform="scale(0.015625)"/>
       <path id="DejaVuSans-63" d="M 3122 3366 
L 3122 2828 
Q 2878 2963 2633 3030 
Q 2388 3097 2138 3097 
Q 1578 3097 1268 2742 
Q 959 2388 959 1747 
Q 959 1106 1268 751 
Q 1578 397 2138 397 
Q 2388 397 2633 464 
Q 2878 531 3122 666 
L 3122 134 
Q 2881 22 2623 -34 
Q 2366 -91 2075 -91 
Q 1284 -91 818 406 
Q 353 903 353 1747 
Q 353 2603 823 3093 
Q 1294 3584 2113 3584 
Q 2378 3584 2631 3529 
Q 2884 3475 3122 3366 
z
" transform="scale(0.015625)"/>
       <path id="DejaVuSans-72" d="M 2631 2963 
Q 2534 3019 2420 3045 
Q 2306 3072 2169 3072 
Q 1681 3072 1420 2755 
Q 1159 2438 1159 1844 
L 1159 0 
L 581 0 
L 581 3500 
L 1159 3500 
L 1159 2956 
Q 1341 3275 1631 3429 
Q 1922 3584 2338 3584 
Q 2397 3584 2469 3576 
Q 2541 3569 2628 3553 
L 2631 2963 
z
" transform="scale(0.015625)"/>
       <path id="DejaVuSans-65" d="M 3597 1894 
L 3597 1613 
L 953 1613 
Q 991 1019 1311 708 
Q 1631 397 2203 397 
Q 2534 397 2845 478 
Q 3156 559 3463 722 
L 3463 178 
Q 3153 47 2828 -22 
Q 2503 -91 2169 -91 
Q 1331 -91 842 396 
Q 353 884 353 1716 
Q 353 2575 817 3079 
Q 1281 3584 2069 3584 
Q 2775 3584 3186 3129 
Q 3597 2675 3597 1894 
z
M 3022 2063 
Q 3016 2534 2758 2815 
Q 2500 3097 2075 3097 
Q 1594 3097 1305 2825 
Q 1016 2553 972 2059 
L 3022 2063 
z
" transform="scale(0.015625)"/>
      </defs>
      <use xlink:href="#DejaVuSans-4d"/>
      <use xlink:href="#DejaVuSans-69" x="86.279297"/>
      <use xlink:href="#DejaVuSans-63" x="114.0625"/>
      <use xlink:href="#DejaVuSans-72" x="169.042969"/>
      <use xlink:href="#DejaVuSans-6f" x="207.90625"/>
      <use xlink:href="#DejaVuSans-63" x="269.087891"/>
      <use xlink:href="#DejaVuSans-6f" x="324.068359"/>
      <use xlink:href="#DejaVuSans-6e" x="385.25"/>
      <use xlink:href="#DejaVuSans-74" x="448.628906"/>
      <use xlink:href="#DejaVuSans-72" x="487.837891"/>
      <use xlink:href="#DejaVuSans-6f" x="526.701172"/>
      <use xlink:href="#DejaVuSans-6c" x="587.882812"/>
      <use xlink:href="#DejaVuSans-6c" x="615.666016"/>
      <use xlink:href="#DejaVuSans-65" x="643.449219"/>
      <use xlink:href="#DejaVuSans-72" x="704.972656"/>
     </g>
    </g>
   </g>
   <g id="text_3">
    <g clip-path="url(#p4e2bf05100)">
     <!-- $R_{1}$ -->
     <g transform="translate(278.6756 69.610586)scale(0.125 -0.125)">
      <defs>
       <path id="STIXGeneral-Italic-52" d="M 845 4179 
L 2458 4179 
Q 3078 4179 3420 3936 
Q 3763 3693 3763 3277 
Q 3763 2778 3341 2458 
Q 3091 2266 2502 2131 
L 3072 627 
Q 3181 333 3299 217 
Q 3418 102 3629 102 
L 3629 0 
L 2688 0 
L 1901 2074 
L 1478 2106 
L 1126 806 
Q 1043 512 1043 403 
Q 1043 256 1126 192 
Q 1210 128 1472 102 
L 1472 0 
L -83 0 
L -83 102 
Q 173 134 278 243 
Q 384 352 461 646 
L 1222 3405 
Q 1299 3699 1299 3808 
Q 1299 3923 1210 3987 
Q 1133 4038 845 4077 
L 845 4179 
z
M 1958 3795 
L 1555 2342 
Q 1754 2310 1882 2310 
Q 2451 2310 2771 2566 
Q 3091 2822 3091 3270 
Q 3091 3603 2892 3795 
Q 2694 3987 2323 3987 
Q 2010 3987 1958 3795 
z
" transform="scale(0.015625)"/>
       <path id="STIXGeneral-Regular-31" d="M 2522 0 
L 755 0 
L 755 96 
Q 1107 115 1235 227 
Q 1363 339 1363 608 
L 1363 3482 
Q 1363 3795 1171 3795 
Q 1082 3795 883 3718 
L 710 3654 
L 710 3744 
L 1856 4326 
L 1914 4307 
L 1914 486 
Q 1914 275 2042 185 
Q 2170 96 2522 96 
L 2522 0 
z
" transform="scale(0.015625)"/>
      </defs>
      <use xlink:href="#STIXGeneral-Italic-52" transform="translate(0 0.703125)"/>
      <use xlink:href="#STIXGeneral-Regular-31" transform="translate(61.099991 -12.525)scale(0.7)"/>
     </g>
    </g>
    <g clip-path="url(#p4e2bf05100)">
     <!-- 42k立 -->
     <g transform="translate(258.603334 83.607852)scale(0.125 -0.125)">
      <defs>
       <path id="DejaVuSans-34" d="M 2419 4116 
L 825 1625 
L 2419 1625 
L 2419 4116 
z
M 2253 4666 
L 3047 4666 
L 3047 1625 
L 3713 1625 
L 3713 1100 
L 3047 1100 
L 3047 0 
L 2419 0 
L 2419 1100 
L 313 1100 
L 313 1709 
L 2253 4666 
z
" transform="scale(0.015625)"/>
       <path id="DejaVuSans-32" d="M 1228 531 
L 3431 531 
L 3431 0 
L 469 0 
L 469 531 
Q 828 903 1448 1529 
Q 2069 2156 2228 2338 
Q 2531 2678 2651 2914 
Q 2772 3150 2772 3378 
Q 2772 3750 2511 3984 
Q 2250 4219 1831 4219 
Q 1534 4219 1204 4116 
Q 875 4013 500 3803 
L 500 4441 
Q 881 4594 1212 4672 
Q 1544 4750 1819 4750 
Q 2544 4750 2975 4387 
Q 3406 4025 3406 3419 
Q 3406 3131 3298 2873 
Q 3191 2616 2906 2266 
Q 2828 2175 2409 1742 
Q 1991 1309 1228 531 
z
" transform="scale(0.015625)"/>
       <path id="DejaVuSans-6b" d="M 581 4863 
L 1159 4863 
L 1159 1991 
L 2875 3500 
L 3609 3500 
L 1753 1863 
L 3688 0 
L 2938 0 
L 1159 1709 
L 1159 0 
L 581 0 
L 581 4863 
z
" transform="scale(0.015625)"/>
       <path id="DejaVuSans-3a9" d="M 4647 556 
L 4647 0 
L 2772 0 
L 2772 556 
Q 3325 859 3634 1378 
Q 3944 1897 3944 2528 
Q 3944 3278 3531 3731 
Q 3119 4184 2444 4184 
Q 1769 4184 1355 3729 
Q 941 3275 941 2528 
Q 941 1897 1250 1378 
Q 1563 859 2119 556 
L 2119 0 
L 244 0 
L 244 556 
L 1241 556 
Q 747 991 519 1456 
Q 294 1922 294 2497 
Q 294 3491 894 4106 
Q 1491 4722 2444 4722 
Q 3391 4722 3994 4106 
Q 4594 3494 4594 2528 
Q 4594 1922 4372 1459 
Q 4150 997 3647 556 
L 4647 556 
z
" transform="scale(0.015625)"/>
      </defs>
      <use xlink:href="#DejaVuSans-34"/>
      <use xlink:href="#DejaVuSans-32" x="63.623047"/>
      <use xlink:href="#DejaVuSans-6b" x="127.246094"/>
      <use xlink:href="#DejaVuSans-3a9" x="185.15625"/>
     </g>
    </g>
   </g>
   <g id="text_4">
    <g clip-path="url(#p4e2bf05100)">
     <!-- $R_{2}$ -->
     <g transform="translate(278.6756 161.410586)scale(0.125 -0.125)">
      <defs>
       <path id="STIXGeneral-Regular-32" d="M 3034 877 
L 2688 0 
L 186 0 
L 186 77 
L 1325 1286 
Q 1773 1754 1965 2144 
Q 2157 2534 2157 2950 
Q 2157 3379 1920 3616 
Q 1683 3853 1267 3853 
Q 922 3853 720 3673 
Q 518 3494 326 3021 
L 192 3053 
Q 301 3648 630 3987 
Q 960 4326 1523 4326 
Q 2054 4326 2380 4006 
Q 2707 3686 2707 3200 
Q 2707 2477 1888 1613 
L 832 486 
L 2330 486 
Q 2541 486 2665 569 
Q 2790 653 2944 915 
L 3034 877 
z
" transform="scale(0.015625)"/>
      </defs>
      <use xlink:href="#STIXGeneral-Italic-52" transform="translate(0 0.703125)"/>
      <use xlink:href="#STIXGeneral-Regular-32" transform="translate(61.099991 -12.525)scale(0.7)"/>
     </g>
    </g>
    <g clip-path="url(#p4e2bf05100)">
     <!-- 42k立 -->
     <g transform="translate(258.603334 175.407852)scale(0.125 -0.125)">
      <use xlink:href="#DejaVuSans-34"/>
      <use xlink:href="#DejaVuSans-32" x="63.623047"/>
      <use xlink:href="#DejaVuSans-6b" x="127.246094"/>
      <use xlink:href="#DejaVuSans-3a9" x="185.15625"/>
     </g>
    </g>
   </g>
   <g id="text_5">
    <g clip-path="url(#p4e2bf05100)">
     <!-- Analog -->
     <g transform="translate(10.961147 118.570586)scale(0.125 -0.125)">
      <use xlink:href="#DejaVuSans-41"/>
      <use xlink:href="#DejaVuSans-6e" x="68.408203"/>
      <use xlink:href="#DejaVuSans-61" x="131.787109"/>
      <use xlink:href="#DejaVuSans-6c" x="193.066406"/>
      <use xlink:href="#DejaVuSans-6f" x="220.849609"/>
      <use xlink:href="#DejaVuSans-67" x="282.03125"/>
     </g>
    </g>
    <g clip-path="url(#p4e2bf05100)">
     <!-- Input -->
     <g transform="translate(21.783413 132.567852)scale(0.125 -0.125)">
      <use xlink:href="#DejaVuSans-49"/>
      <use xlink:href="#DejaVuSans-6e" x="29.492188"/>
      <use xlink:href="#DejaVuSans-70" x="92.871094"/>
      <use xlink:href="#DejaVuSans-75" x="156.347656"/>
      <use xlink:href="#DejaVuSans-74" x="219.726562"/>
     </g>
    </g>
   </g>
   <g id="text_6">
    <g clip-path="url(#p4e2bf05100)">
     <!-- Microcontroller -->
     <g transform="translate(68.719741 39.960391)scale(0.125 -0.125)">
      <use xlink:href="#DejaVuSans-4d"/>
      <use xlink:href="#DejaVuSans-69" x="86.279297"/>
      <use xlink:href="#DejaVuSans-63" x="114.0625"/>
      <use xlink:href="#DejaVuSans-72" x="169.042969"/>
      <use xlink:href="#DejaVuSans-6f" x="207.90625"/>
      <use xlink:href="#DejaVuSans-63" x="269.087891"/>
      <use xlink:href="#DejaVuSans-6f" x="324.068359"/>
      <use xlink:href="#DejaVuSans-6e" x="385.25"/>
      <use xlink:href="#DejaVuSans-74" x="448.628906"/>
      <use xlink:href="#DejaVuSans-72" x="487.837891"/>
      <use xlink:href="#DejaVuSans-6f" x="526.701172"/>
      <use xlink:href="#DejaVuSans-6c" x="587.882812"/>
      <use xlink:href="#DejaVuSans-6c" x="615.666016"/>
      <use xlink:href="#DejaVuSans-65" x="643.449219"/>
      <use xlink:href="#DejaVuSans-72" x="704.972656"/>
     </g>
    </g>
   </g>
   <g id="text_7">
    <g clip-path="url(#p4e2bf05100)">
     <!-- $R_{1}$ -->
     <g transform="translate(278.6756 69.610586)scale(0.125 -0.125)">
      <use xlink:href="#STIXGeneral-Italic-52" transform="translate(0 0.703125)"/>
      <use xlink:href="#STIXGeneral-Regular-31" transform="translate(61.099991 -12.525)scale(0.7)"/>
     </g>
    </g>
    <g clip-path="url(#p4e2bf05100)">
     <!-- 42k立 -->
     <g transform="translate(258.603334 83.607852)scale(0.125 -0.125)">
      <use xlink:href="#DejaVuSans-34"/>
      <use xlink:href="#DejaVuSans-32" x="63.623047"/>
      <use xlink:href="#DejaVuSans-6b" x="127.246094"/>
      <use xlink:href="#DejaVuSans-3a9" x="185.15625"/>
     </g>
    </g>
   </g>
   <g id="text_8">
    <g clip-path="url(#p4e2bf05100)">
     <!-- $R_{2}$ -->
     <g transform="translate(278.6756 161.410586)scale(0.125 -0.125)">
      <use xlink:href="#STIXGeneral-Italic-52" transform="translate(0 0.703125)"/>
      <use xlink:href="#STIXGeneral-Regular-32" transform="translate(61.099991 -12.525)scale(0.7)"/>
     </g>
    </g>
    <g clip-path="url(#p4e2bf05100)">
     <!-- 42k立 -->
     <g transform="translate(258.603334 175.407852)scale(0.125 -0.125)">
      <use xlink:href="#DejaVuSans-34"/>
      <use xlink:href="#DejaVuSans-32" x="63.623047"/>
      <use xlink:href="#DejaVuSans-6b" x="127.246094"/>
      <use xlink:href="#DejaVuSans-3a9" x="185.15625"/>
     </g>
    </g>
   </g>
   <g id="patch_2">
    <path d="M 302.0106 29.555 
C 302.619241 29.555 303.203036 29.313184 303.63341 28.88281 
C 304.063784 28.452436 304.3056 27.868641 304.3056 27.26 
C 304.3056 26.651359 304.063784 26.067564 303.63341 25.63719 
C 303.203036 25.206816 302.619241 24.965 302.0106 24.965 
C 301.401959 24.965 300.818164 25.206816 300.38779 25.63719 
C 299.957416 26.067564 299.7156 26.651359 299.7156 27.26 
C 299.7156 27.868641 299.957416 28.452436 300.38779 28.88281 
C 300.818164 29.313184 301.401959 29.555 302.0106 29.555 
z
" clip-path="url(#p4e2bf05100)" style="fill: #ffffff; stroke: #000000; stroke-width: 2; stroke-linejoin: miter"/>
   </g>
   <g id="text_9">
    <g clip-path="url(#p4e2bf05100)">
     <!-- $+12V$ -->
     <g transform="translate(307.3656 30.709219)scale(0.125 -0.125)">
      <defs>
       <path id="STIXGeneral-Regular-2b" d="M 4070 1408 
L 2400 1408 
L 2400 -262 
L 1978 -262 
L 1978 1408 
L 307 1408 
L 307 1830 
L 1978 1830 
L 1978 3501 
L 2400 3501 
L 2400 1830 
L 4070 1830 
L 4070 1408 
z
" transform="scale(0.015625)"/>
       <path id="STIXGeneral-Italic-56" d="M 4403 4179 
L 4403 4077 
Q 4198 4070 4045 3821 
L 1658 -115 
L 1536 -115 
L 1011 3104 
Q 902 3776 828 3910 
Q 755 4045 486 4077 
L 486 4179 
L 2022 4179 
L 2022 4077 
Q 1722 4045 1629 3981 
Q 1536 3917 1536 3750 
Q 1536 3686 1542 3654 
L 1958 819 
L 3302 3123 
Q 3616 3661 3616 3859 
Q 3616 4032 3219 4077 
L 3219 4179 
L 4403 4179 
z
" transform="scale(0.015625)"/>
      </defs>
      <use xlink:href="#STIXGeneral-Regular-2b" transform="translate(0 0.40625)"/>
      <use xlink:href="#STIXGeneral-Regular-31" transform="translate(68.499985 0.40625)"/>
      <use xlink:href="#STIXGeneral-Regular-32" transform="translate(118.499969 0.40625)"/>
      <use xlink:href="#STIXGeneral-Italic-56" transform="translate(168.499954 0.40625)"/>
     </g>
    </g>
   </g>
   <g id="patch_3">
    <path d="M 324.9606 121.355 
C 325.569241 121.355 326.153036 121.113184 326.58341 120.68281 
C 327.013784 120.252436 327.2556 119.668641 327.2556 119.06 
C 327.2556 118.451359 327.013784 117.867564 326.58341 117.43719 
C 326.153036 117.006816 325.569241 116.765 324.9606 116.765 
C 324.351959 116.765 323.768164 117.006816 323.33779 117.43719 
C 322.907416 117.867564 322.6656 118.451359 322.6656 119.06 
C 322.6656 119.668641 322.907416 120.252436 323.33779 120.68281 
C 323.768164 121.113184 324.351959 121.355 324.9606 121.355 
z
" clip-path="url(#p4e2bf05100)" style="fill: #ffffff; stroke: #000000; stroke-width: 2; stroke-linejoin: miter"/>
   </g>
   <g id="text_10">
    <g clip-path="url(#p4e2bf05100)">
     <!-- $V_{OUT}$ -->
     <g transform="translate(330.3156 122.509219)scale(0.125 -0.125)">
      <defs>
       <path id="STIXGeneral-Italic-4f" d="M 4474 2675 
Q 4474 1990 4106 1363 
Q 3738 736 3149 339 
Q 2477 -115 1779 -115 
Q 1146 -115 765 281 
Q 384 678 384 1382 
Q 384 1965 697 2582 
Q 1011 3200 1517 3642 
Q 2234 4262 3034 4262 
Q 3718 4269 4096 3840 
Q 4474 3411 4474 2675 
z
M 3802 3078 
Q 3802 3533 3581 3792 
Q 3360 4051 2976 4051 
Q 2342 4051 1786 3302 
Q 1446 2842 1251 2259 
Q 1056 1677 1056 1178 
Q 1056 653 1270 374 
Q 1485 96 1888 96 
Q 2477 96 2976 704 
Q 3354 1178 3578 1862 
Q 3802 2547 3802 3078 
z
" transform="scale(0.015625)"/>
       <path id="STIXGeneral-Italic-55" d="M 4896 4179 
L 4896 4077 
Q 4762 4045 4694 4016 
Q 4627 3987 4563 3945 
Q 4499 3904 4451 3789 
Q 4403 3674 4358 3539 
Q 4314 3405 4230 3123 
L 3699 1299 
Q 3482 557 3078 218 
Q 2694 -115 2067 -115 
Q 1440 -115 1046 179 
Q 653 474 653 934 
Q 653 1286 934 2317 
L 1267 3526 
Q 1325 3731 1325 3814 
Q 1325 3942 1213 4006 
Q 1101 4070 813 4077 
L 813 4179 
L 2554 4179 
L 2554 4077 
Q 2227 4045 2102 3936 
Q 1978 3827 1888 3494 
L 1485 2048 
Q 1229 1146 1229 902 
Q 1229 563 1481 355 
Q 1734 147 2112 147 
Q 2650 147 2976 492 
Q 3302 838 3520 1632 
L 3930 3123 
Q 4077 3667 4077 3782 
Q 4077 3923 3981 3987 
Q 3885 4051 3629 4077 
L 3629 4179 
L 4896 4179 
z
" transform="scale(0.015625)"/>
       <path id="STIXGeneral-Italic-54" d="M 4051 4179 
L 3770 3130 
L 3661 3142 
Q 3680 3302 3680 3437 
Q 3680 3955 3034 3955 
L 2662 3955 
L 1786 819 
Q 1696 506 1696 397 
Q 1696 250 1766 195 
Q 1837 141 2035 122 
L 2259 102 
L 2259 0 
L 416 0 
L 416 102 
Q 749 134 889 230 
Q 1030 326 1101 582 
L 2016 3955 
Q 1254 3955 988 3817 
Q 723 3680 493 3162 
L 378 3187 
L 646 4179 
L 4051 4179 
z
" transform="scale(0.015625)"/>
      </defs>
      <use xlink:href="#STIXGeneral-Italic-56" transform="translate(0 0.703125)"/>
      <use xlink:href="#STIXGeneral-Italic-4f" transform="translate(61.099991 -12.525)scale(0.7)"/>
      <use xlink:href="#STIXGeneral-Italic-55" transform="translate(111.639978 -12.525)scale(0.7)"/>
      <use xlink:href="#STIXGeneral-Italic-54" transform="translate(162.179965 -12.525)scale(0.7)"/>
     </g>
    </g>
   </g>
   <g id="patch_4">
    <path d="M 302.0106 29.555 
C 302.619241 29.555 303.203036 29.313184 303.63341 28.88281 
C 304.063784 28.452436 304.3056 27.868641 304.3056 27.26 
C 304.3056 26.651359 304.063784 26.067564 303.63341 25.63719 
C 303.203036 25.206816 302.619241 24.965 302.0106 24.965 
C 301.401959 24.965 300.818164 25.206816 300.38779 25.63719 
C 299.957416 26.067564 299.7156 26.651359 299.7156 27.26 
C 299.7156 27.868641 299.957416 28.452436 300.38779 28.88281 
C 300.818164 29.313184 301.401959 29.555 302.0106 29.555 
z
" clip-path="url(#p4e2bf05100)" style="fill: #ffffff; stroke: #000000; stroke-width: 2; stroke-linejoin: miter"/>
   </g>
   <g id="text_11">
    <g clip-path="url(#p4e2bf05100)">
     <!-- $+12V$ -->
     <g transform="translate(307.3656 30.709219)scale(0.125 -0.125)">
      <use xlink:href="#STIXGeneral-Regular-2b" transform="translate(0 0.40625)"/>
      <use xlink:href="#STIXGeneral-Regular-31" transform="translate(68.499985 0.40625)"/>
      <use xlink:href="#STIXGeneral-Regular-32" transform="translate(118.499969 0.40625)"/>
      <use xlink:href="#STIXGeneral-Italic-56" transform="translate(168.499954 0.40625)"/>
     </g>
    </g>
   </g>
   <g id="patch_5">
    <path d="M 324.9606 121.355 
C 325.569241 121.355 326.153036 121.113184 326.58341 120.68281 
C 327.013784 120.252436 327.2556 119.668641 327.2556 119.06 
C 327.2556 118.451359 327.013784 117.867564 326.58341 117.43719 
C 326.153036 117.006816 325.569241 116.765 324.9606 116.765 
C 324.351959 116.765 323.768164 117.006816 323.33779 117.43719 
C 322.907416 117.867564 322.6656 118.451359 322.6656 119.06 
C 322.6656 119.668641 322.907416 120.252436 323.33779 120.68281 
C 323.768164 121.113184 324.351959 121.355 324.9606 121.355 
z
" clip-path="url(#p4e2bf05100)" style="fill: #ffffff; stroke: #000000; stroke-width: 2; stroke-linejoin: miter"/>
   </g>
   <g id="text_12">
    <g clip-path="url(#p4e2bf05100)">
     <!-- $V_{OUT}$ -->
     <g transform="translate(330.3156 122.509219)scale(0.125 -0.125)">
      <use xlink:href="#STIXGeneral-Italic-56" transform="translate(0 0.703125)"/>
      <use xlink:href="#STIXGeneral-Italic-4f" transform="translate(61.099991 -12.525)scale(0.7)"/>
      <use xlink:href="#STIXGeneral-Italic-55" transform="translate(111.639978 -12.525)scale(0.7)"/>
      <use xlink:href="#STIXGeneral-Italic-54" transform="translate(162.179965 -12.525)scale(0.7)"/>
     </g>
    </g>
   </g>
  </g>
 </g>
 <defs>
  <clipPath id="p4e2bf05100">
   <rect x="7.2" y="7.2" width="373.83" height="226.61"/>
  </clipPath>
 </defs>
</svg>
