<?xml version="1.0" encoding="utf-8" standalone="no"?>
<!DOCTYPE svg PUBLIC "-//W3C//DTD SVG 1.1//EN"
  "http://www.w3.org/Graphics/SVG/1.1/DTD/svg11.dtd">
<svg xmlns:xlink="http://www.w3.org/1999/xlink" width="285.21pt" height="149.38pt" viewBox="0 0 285.21 149.38" xmlns="http://www.w3.org/2000/svg" version="1.1">
 <metadata>
  <rdf:RDF xmlns:dc="http://purl.org/dc/elements/1.1/" xmlns:cc="http://creativecommons.org/ns#" xmlns:rdf="http://www.w3.org/1999/02/22-rdf-syntax-ns#">
   <cc:Work>
    <dc:type rdf:resource="http://purl.org/dc/dcmitype/StillImage"/>
    <dc:date>2023-06-27T11:50:08.239797</dc:date>
    <dc:format>image/svg+xml</dc:format>
    <dc:creator>
     <cc:Agent>
      <dc:title>Matplotlib v3.5.2, https://matplotlib.org/</dc:title>
     </cc:Agent>
    </dc:creator>
   </cc:Work>
  </rdf:RDF>
 </metadata>
 <defs>
  <style type="text/css">*{stroke-linejoin: round; stroke-linecap: butt}</style>
 </defs>
 <g id="figure_1">
  <g id="patch_1">
   <path d="M 0 149.38 
L 285.21 149.38 
L 285.21 0 
L 0 0 
L 0 149.38 
z
" style="fill: none"/>
  </g>
  <g id="axes_1">
   <g id="patch_2">
    <path d="M 116.595 139.12 
L 116.74065 139.118844 
L 116.886262 139.115378 
L 117.031802 139.109602 
L 117.177232 139.101518 
L 117.322515 139.091127 
L 117.467614 139.078432 
L 117.612495 139.063437 
L 117.757119 139.046145 
L 117.90145 139.026561 
L 118.045453 139.004689 
L 118.18909 138.980535 
L 118.332326 138.954105 
L 118.475125 138.925406 
L 118.617451 138.894445 
L 118.759267 138.86123 
L 118.900539 138.825769 
L 119.04123 138.788071 
L 119.181305 138.748145 
L 119.320729 138.706003 
L 119.459467 138.661653 
L 119.597484 138.615108 
L 119.734745 138.566378 
L 119.871216 138.515477 
L 120.006861 138.462418 
L 120.141648 138.407212 
L 120.275542 138.349876 
L 120.40851 138.290422 
L 120.540517 138.228866 
L 120.671532 138.165223 
L 120.801519 138.099509 
L 120.930448 138.031742 
L 121.058286 137.961937 
L 121.185 137.890113 
L 121.310558 137.816288 
L 121.43493 137.740479 
L 121.558083 137.662707 
L 121.679986 137.582991 
L 121.80061 137.501351 
L 121.919922 137.417807 
L 122.037895 137.332381 
L 122.154497 137.245094 
L 122.269699 137.155967 
L 122.383473 137.065025 
L 122.49579 136.972288 
L 122.606622 136.877781 
L 122.715939 136.781528 
L 122.823716 136.683552 
L 122.929925 136.583878 
L 123.034539 136.482532 
L 123.137532 136.379539 
L 123.238878 136.274925 
L 123.338552 136.168716 
L 123.436528 136.060939 
L 123.532781 135.951622 
L 123.627288 135.84079 
L 123.720025 135.728473 
L 123.810967 135.614699 
L 123.900094 135.499497 
L 123.987381 135.382895 
L 124.072807 135.264922 
L 124.156351 135.14561 
L 124.237991 135.024986 
L 124.317707 134.903083 
L 124.395479 134.77993 
L 124.471288 134.655558 
L 124.545113 134.53 
L 124.616937 134.403286 
L 124.686742 134.275448 
L 124.754509 134.146519 
L 124.820223 134.016532 
L 124.883866 133.885517 
L 124.945422 133.75351 
L 125.004876 133.620542 
L 125.062212 133.486648 
L 125.117418 133.351861 
L 125.170477 133.216216 
L 125.221378 133.079745 
L 125.270108 132.942484 
L 125.316653 132.804467 
L 125.361003 132.665729 
L 125.403145 132.526305 
L 125.443071 132.38623 
L 125.480769 132.245539 
L 125.51623 132.104267 
L 125.549445 131.962451 
L 125.580406 131.820125 
L 125.609105 131.677326 
L 125.635535 131.53409 
L 125.659689 131.390453 
L 125.681561 131.24645 
L 125.701145 131.102119 
L 125.718437 130.957495 
L 125.733432 130.812614 
L 125.746127 130.667515 
L 125.756518 130.522232 
L 125.764602 130.376802 
L 125.770378 130.231262 
L 125.773844 130.08565 
L 125.775 129.94 
L 125.775 36.61 
L 125.773844 36.46435 
L 125.770378 36.318738 
L 125.764602 36.173198 
L 125.756518 36.027768 
L 125.746127 35.882485 
L 125.733432 35.737386 
L 125.718437 35.592505 
L 125.701145 35.447881 
L 125.681561 35.30355 
L 125.659689 35.159547 
L 125.635535 35.01591 
L 125.609105 34.872674 
L 125.580406 34.729875 
L 125.549445 34.587549 
L 125.51623 34.445733 
L 125.480769 34.304461 
L 125.443071 34.16377 
L 125.403145 34.023695 
L 125.361003 33.884271 
L 125.316653 33.745533 
L 125.270108 33.607516 
L 125.221378 33.470255 
L 125.170477 33.333784 
L 125.117418 33.198139 
L 125.062212 33.063352 
L 125.004876 32.929458 
L 124.945422 32.79649 
L 124.883866 32.664483 
L 124.820223 32.533468 
L 124.754509 32.403481 
L 124.686742 32.274552 
L 124.616937 32.146714 
L 124.545113 32.02 
L 124.471288 31.894442 
L 124.395479 31.77007 
L 124.317707 31.646917 
L 124.237991 31.525014 
L 124.156351 31.40439 
L 124.072807 31.285078 
L 123.987381 31.167105 
L 123.900094 31.050503 
L 123.810967 30.935301 
L 123.720025 30.821527 
L 123.627288 30.70921 
L 123.532781 30.598378 
L 123.436528 30.489061 
L 123.338552 30.381284 
L 123.238878 30.275075 
L 123.137532 30.170461 
L 123.034539 30.067468 
L 122.929925 29.966122 
L 122.823716 29.866448 
L 122.715939 29.768472 
L 122.606622 29.672219 
L 122.49579 29.577712 
L 122.383473 29.484975 
L 122.269699 29.394033 
L 122.154497 29.304906 
L 122.037895 29.217619 
L 121.919922 29.132193 
L 121.80061 29.048649 
L 121.679986 28.967009 
L 121.558083 28.887293 
L 121.43493 28.809521 
L 121.310558 28.733712 
L 121.185 28.659887 
L 121.058286 28.588063 
L 120.930448 28.518258 
L 120.801519 28.450491 
L 120.671532 28.384777 
L 120.540517 28.321134 
L 120.40851 28.259578 
L 120.275542 28.200124 
L 120.141648 28.142788 
L 120.006861 28.087582 
L 119.871216 28.034523 
L 119.734745 27.983622 
L 119.597484 27.934892 
L 119.459467 27.888347 
L 119.320729 27.843997 
L 119.181305 27.801855 
L 119.04123 27.761929 
L 118.900539 27.724231 
L 118.759267 27.68877 
L 118.617451 27.655555 
L 118.475125 27.624594 
L 118.332326 27.595895 
L 118.18909 27.569465 
L 118.045453 27.545311 
L 117.90145 27.523439 
L 117.757119 27.503855 
L 117.612495 27.486563 
L 117.467614 27.471568 
L 117.322515 27.458873 
L 117.177232 27.448482 
L 117.031802 27.440398 
L 116.886262 27.434622 
L 116.74065 27.431156 
L 116.595 27.43 
L 19.44 27.43 
L 19.29435 27.431156 
L 19.148738 27.434622 
L 19.003198 27.440398 
L 18.857768 27.448482 
L 18.712485 27.458873 
L 18.567386 27.471568 
L 18.422505 27.486563 
L 18.277881 27.503855 
L 18.13355 27.523439 
L 17.989547 27.545311 
L 17.84591 27.569465 
L 17.702674 27.595895 
L 17.559875 27.624594 
L 17.417549 27.655555 
L 17.275733 27.68877 
L 17.134461 27.724231 
L 16.99377 27.761929 
L 16.853695 27.801855 
L 16.714271 27.843997 
L 16.575533 27.888347 
L 16.437516 27.934892 
L 16.300255 27.983622 
L 16.163784 28.034523 
L 16.028139 28.087582 
L 15.893352 28.142788 
L 15.759458 28.200124 
L 15.62649 28.259578 
L 15.494483 28.321134 
L 15.363468 28.384777 
L 15.233481 28.450491 
L 15.104552 28.518258 
L 14.976714 28.588063 
L 14.85 28.659887 
L 14.724442 28.733712 
L 14.60007 28.809521 
L 14.476917 28.887293 
L 14.355014 28.967009 
L 14.23439 29.048649 
L 14.115078 29.132193 
L 13.997105 29.217619 
L 13.880503 29.304906 
L 13.765301 29.394033 
L 13.651527 29.484975 
L 13.53921 29.577712 
L 13.428378 29.672219 
L 13.319061 29.768472 
L 13.211284 29.866448 
L 13.105075 29.966122 
L 13.000461 30.067468 
L 12.897468 30.170461 
L 12.796122 30.275075 
L 12.696448 30.381284 
L 12.598472 30.489061 
L 12.502219 30.598378 
L 12.407712 30.70921 
L 12.314975 30.821527 
L 12.224033 30.935301 
L 12.134906 31.050503 
L 12.047619 31.167105 
L 11.962193 31.285078 
L 11.878649 31.40439 
L 11.797009 31.525014 
L 11.717293 31.646917 
L 11.639521 31.77007 
L 11.563712 31.894442 
L 11.489887 32.02 
L 11.418063 32.146714 
L 11.348258 32.274552 
L 11.280491 32.403481 
L 11.214777 32.533468 
L 11.151134 32.664483 
L 11.089578 32.79649 
L 11.030124 32.929458 
L 10.972788 33.063352 
L 10.917582 33.198139 
L 10.864523 33.333784 
L 10.813622 33.470255 
L 10.764892 33.607516 
L 10.718347 33.745533 
L 10.673997 33.884271 
L 10.631855 34.023695 
L 10.591929 34.16377 
L 10.554231 34.304461 
L 10.51877 34.445733 
L 10.485555 34.587549 
L 10.454594 34.729875 
L 10.425895 34.872674 
L 10.399465 35.01591 
L 10.375311 35.159547 
L 10.353439 35.30355 
L 10.333855 35.447881 
L 10.316563 35.592505 
L 10.301568 35.737386 
L 10.288873 35.882485 
L 10.278482 36.027768 
L 10.270398 36.173198 
L 10.264622 36.318738 
L 10.261156 36.46435 
L 10.26 36.61 
L 10.26 129.94 
L 10.261156 130.08565 
L 10.264622 130.231262 
L 10.270398 130.376802 
L 10.278482 130.522232 
L 10.288873 130.667515 
L 10.301568 130.812614 
L 10.316563 130.957495 
L 10.333855 131.102119 
L 10.353439 131.24645 
L 10.375311 131.390453 
L 10.399465 131.53409 
L 10.425895 131.677326 
L 10.454594 131.820125 
L 10.485555 131.962451 
L 10.51877 132.104267 
L 10.554231 132.245539 
L 10.591929 132.38623 
L 10.631855 132.526305 
L 10.673997 132.665729 
L 10.718347 132.804467 
L 10.764892 132.942484 
L 10.813622 133.079745 
L 10.864523 133.216216 
L 10.917582 133.351861 
L 10.972788 133.486648 
L 11.030124 133.620542 
L 11.089578 133.75351 
L 11.151134 133.885517 
L 11.214777 134.016532 
L 11.280491 134.146519 
L 11.348258 134.275448 
L 11.418063 134.403286 
L 11.489887 134.53 
L 11.563712 134.655558 
L 11.639521 134.77993 
L 11.717293 134.903083 
L 11.797009 135.024986 
L 11.878649 135.14561 
L 11.962193 135.264922 
L 12.047619 135.382895 
L 12.134906 135.499497 
L 12.224033 135.614699 
L 12.314975 135.728473 
L 12.407712 135.84079 
L 12.502219 135.951622 
L 12.598472 136.060939 
L 12.696448 136.168716 
L 12.796122 136.274925 
L 12.897468 136.379539 
L 13.000461 136.482532 
L 13.105075 136.583878 
L 13.211284 136.683552 
L 13.319061 136.781528 
L 13.428378 136.877781 
L 13.53921 136.972288 
L 13.651527 137.065025 
L 13.765301 137.155967 
L 13.880503 137.245094 
L 13.997105 137.332381 
L 14.115078 137.417807 
L 14.23439 137.501351 
L 14.355014 137.582991 
L 14.476917 137.662707 
L 14.60007 137.740479 
L 14.724442 137.816288 
L 14.85 137.890113 
L 14.976714 137.961937 
L 15.104552 138.031742 
L 15.233481 138.099509 
L 15.363468 138.165223 
L 15.494483 138.228866 
L 15.62649 138.290422 
L 15.759458 138.349876 
L 15.893352 138.407212 
L 16.028139 138.462418 
L 16.163784 138.515477 
L 16.300255 138.566378 
L 16.437516 138.615108 
L 16.575533 138.661653 
L 16.714271 138.706003 
L 16.853695 138.748145 
L 16.99377 138.788071 
L 17.134461 138.825769 
L 17.275733 138.86123 
L 17.417549 138.894445 
L 17.559875 138.925406 
L 17.702674 138.954105 
L 17.84591 138.980535 
L 17.989547 139.004689 
L 18.13355 139.026561 
L 18.277881 139.046145 
L 18.422505 139.063437 
L 18.567386 139.078432 
L 18.712485 139.091127 
L 18.857768 139.101518 
L 19.003198 139.109602 
L 19.148738 139.115378 
L 19.29435 139.118844 
L 19.44 139.12 
L 116.595 139.12 
z
" clip-path="url(#p610c3e99c3)" style="fill: none; stroke-dasharray: 3.7,1.6; stroke-dashoffset: 0; stroke: #0000ff; stroke-linecap: round"/>
   </g>
   <g id="patch_3">
    <path d="M 265.77 139.12 
L 265.91565 139.118844 
L 266.061262 139.115378 
L 266.206802 139.109602 
L 266.352232 139.101518 
L 266.497515 139.091127 
L 266.642614 139.078432 
L 266.787495 139.063437 
L 266.932119 139.046145 
L 267.07645 139.026561 
L 267.220453 139.004689 
L 267.36409 138.980535 
L 267.507326 138.954105 
L 267.650125 138.925406 
L 267.792451 138.894445 
L 267.934267 138.86123 
L 268.075539 138.825769 
L 268.21623 138.788071 
L 268.356305 138.748145 
L 268.495729 138.706003 
L 268.634467 138.661653 
L 268.772484 138.615108 
L 268.909745 138.566378 
L 269.046216 138.515477 
L 269.181861 138.462418 
L 269.316648 138.407212 
L 269.450542 138.349876 
L 269.58351 138.290422 
L 269.715517 138.228866 
L 269.846532 138.165223 
L 269.976519 138.099509 
L 270.105448 138.031742 
L 270.233286 137.961937 
L 270.36 137.890113 
L 270.485558 137.816288 
L 270.60993 137.740479 
L 270.733083 137.662707 
L 270.854986 137.582991 
L 270.97561 137.501351 
L 271.094922 137.417807 
L 271.212895 137.332381 
L 271.329497 137.245094 
L 271.444699 137.155967 
L 271.558473 137.065025 
L 271.67079 136.972288 
L 271.781622 136.877781 
L 271.890939 136.781528 
L 271.998716 136.683552 
L 272.104925 136.583878 
L 272.209539 136.482532 
L 272.312532 136.379539 
L 272.413878 136.274925 
L 272.513552 136.168716 
L 272.611528 136.060939 
L 272.707781 135.951622 
L 272.802288 135.84079 
L 272.895025 135.728473 
L 272.985967 135.614699 
L 273.075094 135.499497 
L 273.162381 135.382895 
L 273.247807 135.264922 
L 273.331351 135.14561 
L 273.412991 135.024986 
L 273.492707 134.903083 
L 273.570479 134.77993 
L 273.646288 134.655558 
L 273.720113 134.53 
L 273.791937 134.403286 
L 273.861742 134.275448 
L 273.929509 134.146519 
L 273.995223 134.016532 
L 274.058866 133.885517 
L 274.120422 133.75351 
L 274.179876 133.620542 
L 274.237212 133.486648 
L 274.292418 133.351861 
L 274.345477 133.216216 
L 274.396378 133.079745 
L 274.445108 132.942484 
L 274.491653 132.804467 
L 274.536003 132.665729 
L 274.578145 132.526305 
L 274.618071 132.38623 
L 274.655769 132.245539 
L 274.69123 132.104267 
L 274.724445 131.962451 
L 274.755406 131.820125 
L 274.784105 131.677326 
L 274.810535 131.53409 
L 274.834689 131.390453 
L 274.856561 131.24645 
L 274.876145 131.102119 
L 274.893437 130.957495 
L 274.908432 130.812614 
L 274.921127 130.667515 
L 274.931518 130.522232 
L 274.939602 130.376802 
L 274.945378 130.231262 
L 274.948844 130.08565 
L 274.95 129.94 
L 274.95 36.61 
L 274.948844 36.46435 
L 274.945378 36.318738 
L 274.939602 36.173198 
L 274.931518 36.027768 
L 274.921127 35.882485 
L 274.908432 35.737386 
L 274.893437 35.592505 
L 274.876145 35.447881 
L 274.856561 35.30355 
L 274.834689 35.159547 
L 274.810535 35.01591 
L 274.784105 34.872674 
L 274.755406 34.729875 
L 274.724445 34.587549 
L 274.69123 34.445733 
L 274.655769 34.304461 
L 274.618071 34.16377 
L 274.578145 34.023695 
L 274.536003 33.884271 
L 274.491653 33.745533 
L 274.445108 33.607516 
L 274.396378 33.470255 
L 274.345477 33.333784 
L 274.292418 33.198139 
L 274.237212 33.063352 
L 274.179876 32.929458 
L 274.120422 32.79649 
L 274.058866 32.664483 
L 273.995223 32.533468 
L 273.929509 32.403481 
L 273.861742 32.274552 
L 273.791937 32.146714 
L 273.720113 32.02 
L 273.646288 31.894442 
L 273.570479 31.77007 
L 273.492707 31.646917 
L 273.412991 31.525014 
L 273.331351 31.40439 
L 273.247807 31.285078 
L 273.162381 31.167105 
L 273.075094 31.050503 
L 272.985967 30.935301 
L 272.895025 30.821527 
L 272.802288 30.70921 
L 272.707781 30.598378 
L 272.611528 30.489061 
L 272.513552 30.381284 
L 272.413878 30.275075 
L 272.312532 30.170461 
L 272.209539 30.067468 
L 272.104925 29.966122 
L 271.998716 29.866448 
L 271.890939 29.768472 
L 271.781622 29.672219 
L 271.67079 29.577712 
L 271.558473 29.484975 
L 271.444699 29.394033 
L 271.329497 29.304906 
L 271.212895 29.217619 
L 271.094922 29.132193 
L 270.97561 29.048649 
L 270.854986 28.967009 
L 270.733083 28.887293 
L 270.60993 28.809521 
L 270.485558 28.733712 
L 270.36 28.659887 
L 270.233286 28.588063 
L 270.105448 28.518258 
L 269.976519 28.450491 
L 269.846532 28.384777 
L 269.715517 28.321134 
L 269.58351 28.259578 
L 269.450542 28.200124 
L 269.316648 28.142788 
L 269.181861 28.087582 
L 269.046216 28.034523 
L 268.909745 27.983622 
L 268.772484 27.934892 
L 268.634467 27.888347 
L 268.495729 27.843997 
L 268.356305 27.801855 
L 268.21623 27.761929 
L 268.075539 27.724231 
L 267.934267 27.68877 
L 267.792451 27.655555 
L 267.650125 27.624594 
L 267.507326 27.595895 
L 267.36409 27.569465 
L 267.220453 27.545311 
L 267.07645 27.523439 
L 266.932119 27.503855 
L 266.787495 27.486563 
L 266.642614 27.471568 
L 266.497515 27.458873 
L 266.352232 27.448482 
L 266.206802 27.440398 
L 266.061262 27.434622 
L 265.91565 27.431156 
L 265.77 27.43 
L 168.615 27.43 
L 168.46935 27.431156 
L 168.323738 27.434622 
L 168.178198 27.440398 
L 168.032768 27.448482 
L 167.887485 27.458873 
L 167.742386 27.471568 
L 167.597505 27.486563 
L 167.452881 27.503855 
L 167.30855 27.523439 
L 167.164547 27.545311 
L 167.02091 27.569465 
L 166.877674 27.595895 
L 166.734875 27.624594 
L 166.592549 27.655555 
L 166.450733 27.68877 
L 166.309461 27.724231 
L 166.16877 27.761929 
L 166.028695 27.801855 
L 165.889271 27.843997 
L 165.750533 27.888347 
L 165.612516 27.934892 
L 165.475255 27.983622 
L 165.338784 28.034523 
L 165.203139 28.087582 
L 165.068352 28.142788 
L 164.934458 28.200124 
L 164.80149 28.259578 
L 164.669483 28.321134 
L 164.538468 28.384777 
L 164.408481 28.450491 
L 164.279552 28.518258 
L 164.151714 28.588063 
L 164.025 28.659887 
L 163.899442 28.733712 
L 163.77507 28.809521 
L 163.651917 28.887293 
L 163.530014 28.967009 
L 163.40939 29.048649 
L 163.290078 29.132193 
L 163.172105 29.217619 
L 163.055503 29.304906 
L 162.940301 29.394033 
L 162.826527 29.484975 
L 162.71421 29.577712 
L 162.603378 29.672219 
L 162.494061 29.768472 
L 162.386284 29.866448 
L 162.280075 29.966122 
L 162.175461 30.067468 
L 162.072468 30.170461 
L 161.971122 30.275075 
L 161.871448 30.381284 
L 161.773472 30.489061 
L 161.677219 30.598378 
L 161.582712 30.70921 
L 161.489975 30.821527 
L 161.399033 30.935301 
L 161.309906 31.050503 
L 161.222619 31.167105 
L 161.137193 31.285078 
L 161.053649 31.40439 
L 160.972009 31.525014 
L 160.892293 31.646917 
L 160.814521 31.77007 
L 160.738712 31.894442 
L 160.664887 32.02 
L 160.593063 32.146714 
L 160.523258 32.274552 
L 160.455491 32.403481 
L 160.389777 32.533468 
L 160.326134 32.664483 
L 160.264578 32.79649 
L 160.205124 32.929458 
L 160.147788 33.063352 
L 160.092582 33.198139 
L 160.039523 33.333784 
L 159.988622 33.470255 
L 159.939892 33.607516 
L 159.893347 33.745533 
L 159.848997 33.884271 
L 159.806855 34.023695 
L 159.766929 34.16377 
L 159.729231 34.304461 
L 159.69377 34.445733 
L 159.660555 34.587549 
L 159.629594 34.729875 
L 159.600895 34.872674 
L 159.574465 35.01591 
L 159.550311 35.159547 
L 159.528439 35.30355 
L 159.508855 35.447881 
L 159.491563 35.592505 
L 159.476568 35.737386 
L 159.463873 35.882485 
L 159.453482 36.027768 
L 159.445398 36.173198 
L 159.439622 36.318738 
L 159.436156 36.46435 
L 159.435 36.61 
L 159.435 129.94 
L 159.436156 130.08565 
L 159.439622 130.231262 
L 159.445398 130.376802 
L 159.453482 130.522232 
L 159.463873 130.667515 
L 159.476568 130.812614 
L 159.491563 130.957495 
L 159.508855 131.102119 
L 159.528439 131.24645 
L 159.550311 131.390453 
L 159.574465 131.53409 
L 159.600895 131.677326 
L 159.629594 131.820125 
L 159.660555 131.962451 
L 159.69377 132.104267 
L 159.729231 132.245539 
L 159.766929 132.38623 
L 159.806855 132.526305 
L 159.848997 132.665729 
L 159.893347 132.804467 
L 159.939892 132.942484 
L 159.988622 133.079745 
L 160.039523 133.216216 
L 160.092582 133.351861 
L 160.147788 133.486648 
L 160.205124 133.620542 
L 160.264578 133.75351 
L 160.326134 133.885517 
L 160.389777 134.016532 
L 160.455491 134.146519 
L 160.523258 134.275448 
L 160.593063 134.403286 
L 160.664887 134.53 
L 160.738712 134.655558 
L 160.814521 134.77993 
L 160.892293 134.903083 
L 160.972009 135.024986 
L 161.053649 135.14561 
L 161.137193 135.264922 
L 161.222619 135.382895 
L 161.309906 135.499497 
L 161.399033 135.614699 
L 161.489975 135.728473 
L 161.582712 135.84079 
L 161.677219 135.951622 
L 161.773472 136.060939 
L 161.871448 136.168716 
L 161.971122 136.274925 
L 162.072468 136.379539 
L 162.175461 136.482532 
L 162.280075 136.583878 
L 162.386284 136.683552 
L 162.494061 136.781528 
L 162.603378 136.877781 
L 162.71421 136.972288 
L 162.826527 137.065025 
L 162.940301 137.155967 
L 163.055503 137.245094 
L 163.172105 137.332381 
L 163.290078 137.417807 
L 163.40939 137.501351 
L 163.530014 137.582991 
L 163.651917 137.662707 
L 163.77507 137.740479 
L 163.899442 137.816288 
L 164.025 137.890113 
L 164.151714 137.961937 
L 164.279552 138.031742 
L 164.408481 138.099509 
L 164.538468 138.165223 
L 164.669483 138.228866 
L 164.80149 138.290422 
L 164.934458 138.349876 
L 165.068352 138.407212 
L 165.203139 138.462418 
L 165.338784 138.515477 
L 165.475255 138.566378 
L 165.612516 138.615108 
L 165.750533 138.661653 
L 165.889271 138.706003 
L 166.028695 138.748145 
L 166.16877 138.788071 
L 166.309461 138.825769 
L 166.450733 138.86123 
L 166.592549 138.894445 
L 166.734875 138.925406 
L 166.877674 138.954105 
L 167.02091 138.980535 
L 167.164547 139.004689 
L 167.30855 139.026561 
L 167.452881 139.046145 
L 167.597505 139.063437 
L 167.742386 139.078432 
L 167.887485 139.091127 
L 168.032768 139.101518 
L 168.178198 139.109602 
L 168.323738 139.115378 
L 168.46935 139.118844 
L 168.615 139.12 
L 265.77 139.12 
z
" clip-path="url(#p610c3e99c3)" style="fill: none; stroke-dasharray: 3.7,1.6; stroke-dashoffset: 0; stroke: #ff0000; stroke-linecap: round"/>
   </g>
   <g id="patch_4">
    <path d="M 116.595 139.12 
L 116.74065 139.118844 
L 116.886262 139.115378 
L 117.031802 139.109602 
L 117.177232 139.101518 
L 117.322515 139.091127 
L 117.467614 139.078432 
L 117.612495 139.063437 
L 117.757119 139.046145 
L 117.90145 139.026561 
L 118.045453 139.004689 
L 118.18909 138.980535 
L 118.332326 138.954105 
L 118.475125 138.925406 
L 118.617451 138.894445 
L 118.759267 138.86123 
L 118.900539 138.825769 
L 119.04123 138.788071 
L 119.181305 138.748145 
L 119.320729 138.706003 
L 119.459467 138.661653 
L 119.597484 138.615108 
L 119.734745 138.566378 
L 119.871216 138.515477 
L 120.006861 138.462418 
L 120.141648 138.407212 
L 120.275542 138.349876 
L 120.40851 138.290422 
L 120.540517 138.228866 
L 120.671532 138.165223 
L 120.801519 138.099509 
L 120.930448 138.031742 
L 121.058286 137.961937 
L 121.185 137.890113 
L 121.310558 137.816288 
L 121.43493 137.740479 
L 121.558083 137.662707 
L 121.679986 137.582991 
L 121.80061 137.501351 
L 121.919922 137.417807 
L 122.037895 137.332381 
L 122.154497 137.245094 
L 122.269699 137.155967 
L 122.383473 137.065025 
L 122.49579 136.972288 
L 122.606622 136.877781 
L 122.715939 136.781528 
L 122.823716 136.683552 
L 122.929925 136.583878 
L 123.034539 136.482532 
L 123.137532 136.379539 
L 123.238878 136.274925 
L 123.338552 136.168716 
L 123.436528 136.060939 
L 123.532781 135.951622 
L 123.627288 135.84079 
L 123.720025 135.728473 
L 123.810967 135.614699 
L 123.900094 135.499497 
L 123.987381 135.382895 
L 124.072807 135.264922 
L 124.156351 135.14561 
L 124.237991 135.024986 
L 124.317707 134.903083 
L 124.395479 134.77993 
L 124.471288 134.655558 
L 124.545113 134.53 
L 124.616937 134.403286 
L 124.686742 134.275448 
L 124.754509 134.146519 
L 124.820223 134.016532 
L 124.883866 133.885517 
L 124.945422 133.75351 
L 125.004876 133.620542 
L 125.062212 133.486648 
L 125.117418 133.351861 
L 125.170477 133.216216 
L 125.221378 133.079745 
L 125.270108 132.942484 
L 125.316653 132.804467 
L 125.361003 132.665729 
L 125.403145 132.526305 
L 125.443071 132.38623 
L 125.480769 132.245539 
L 125.51623 132.104267 
L 125.549445 131.962451 
L 125.580406 131.820125 
L 125.609105 131.677326 
L 125.635535 131.53409 
L 125.659689 131.390453 
L 125.681561 131.24645 
L 125.701145 131.102119 
L 125.718437 130.957495 
L 125.733432 130.812614 
L 125.746127 130.667515 
L 125.756518 130.522232 
L 125.764602 130.376802 
L 125.770378 130.231262 
L 125.773844 130.08565 
L 125.775 129.94 
L 125.775 36.61 
L 125.773844 36.46435 
L 125.770378 36.318738 
L 125.764602 36.173198 
L 125.756518 36.027768 
L 125.746127 35.882485 
L 125.733432 35.737386 
L 125.718437 35.592505 
L 125.701145 35.447881 
L 125.681561 35.30355 
L 125.659689 35.159547 
L 125.635535 35.01591 
L 125.609105 34.872674 
L 125.580406 34.729875 
L 125.549445 34.587549 
L 125.51623 34.445733 
L 125.480769 34.304461 
L 125.443071 34.16377 
L 125.403145 34.023695 
L 125.361003 33.884271 
L 125.316653 33.745533 
L 125.270108 33.607516 
L 125.221378 33.470255 
L 125.170477 33.333784 
L 125.117418 33.198139 
L 125.062212 33.063352 
L 125.004876 32.929458 
L 124.945422 32.79649 
L 124.883866 32.664483 
L 124.820223 32.533468 
L 124.754509 32.403481 
L 124.686742 32.274552 
L 124.616937 32.146714 
L 124.545113 32.02 
L 124.471288 31.894442 
L 124.395479 31.77007 
L 124.317707 31.646917 
L 124.237991 31.525014 
L 124.156351 31.40439 
L 124.072807 31.285078 
L 123.987381 31.167105 
L 123.900094 31.050503 
L 123.810967 30.935301 
L 123.720025 30.821527 
L 123.627288 30.70921 
L 123.532781 30.598378 
L 123.436528 30.489061 
L 123.338552 30.381284 
L 123.238878 30.275075 
L 123.137532 30.170461 
L 123.034539 30.067468 
L 122.929925 29.966122 
L 122.823716 29.866448 
L 122.715939 29.768472 
L 122.606622 29.672219 
L 122.49579 29.577712 
L 122.383473 29.484975 
L 122.269699 29.394033 
L 122.154497 29.304906 
L 122.037895 29.217619 
L 121.919922 29.132193 
L 121.80061 29.048649 
L 121.679986 28.967009 
L 121.558083 28.887293 
L 121.43493 28.809521 
L 121.310558 28.733712 
L 121.185 28.659887 
L 121.058286 28.588063 
L 120.930448 28.518258 
L 120.801519 28.450491 
L 120.671532 28.384777 
L 120.540517 28.321134 
L 120.40851 28.259578 
L 120.275542 28.200124 
L 120.141648 28.142788 
L 120.006861 28.087582 
L 119.871216 28.034523 
L 119.734745 27.983622 
L 119.597484 27.934892 
L 119.459467 27.888347 
L 119.320729 27.843997 
L 119.181305 27.801855 
L 119.04123 27.761929 
L 118.900539 27.724231 
L 118.759267 27.68877 
L 118.617451 27.655555 
L 118.475125 27.624594 
L 118.332326 27.595895 
L 118.18909 27.569465 
L 118.045453 27.545311 
L 117.90145 27.523439 
L 117.757119 27.503855 
L 117.612495 27.486563 
L 117.467614 27.471568 
L 117.322515 27.458873 
L 117.177232 27.448482 
L 117.031802 27.440398 
L 116.886262 27.434622 
L 116.74065 27.431156 
L 116.595 27.43 
L 19.44 27.43 
L 19.29435 27.431156 
L 19.148738 27.434622 
L 19.003198 27.440398 
L 18.857768 27.448482 
L 18.712485 27.458873 
L 18.567386 27.471568 
L 18.422505 27.486563 
L 18.277881 27.503855 
L 18.13355 27.523439 
L 17.989547 27.545311 
L 17.84591 27.569465 
L 17.702674 27.595895 
L 17.559875 27.624594 
L 17.417549 27.655555 
L 17.275733 27.68877 
L 17.134461 27.724231 
L 16.99377 27.761929 
L 16.853695 27.801855 
L 16.714271 27.843997 
L 16.575533 27.888347 
L 16.437516 27.934892 
L 16.300255 27.983622 
L 16.163784 28.034523 
L 16.028139 28.087582 
L 15.893352 28.142788 
L 15.759458 28.200124 
L 15.62649 28.259578 
L 15.494483 28.321134 
L 15.363468 28.384777 
L 15.233481 28.450491 
L 15.104552 28.518258 
L 14.976714 28.588063 
L 14.85 28.659887 
L 14.724442 28.733712 
L 14.60007 28.809521 
L 14.476917 28.887293 
L 14.355014 28.967009 
L 14.23439 29.048649 
L 14.115078 29.132193 
L 13.997105 29.217619 
L 13.880503 29.304906 
L 13.765301 29.394033 
L 13.651527 29.484975 
L 13.53921 29.577712 
L 13.428378 29.672219 
L 13.319061 29.768472 
L 13.211284 29.866448 
L 13.105075 29.966122 
L 13.000461 30.067468 
L 12.897468 30.170461 
L 12.796122 30.275075 
L 12.696448 30.381284 
L 12.598472 30.489061 
L 12.502219 30.598378 
L 12.407712 30.70921 
L 12.314975 30.821527 
L 12.224033 30.935301 
L 12.134906 31.050503 
L 12.047619 31.167105 
L 11.962193 31.285078 
L 11.878649 31.40439 
L 11.797009 31.525014 
L 11.717293 31.646917 
L 11.639521 31.77007 
L 11.563712 31.894442 
L 11.489887 32.02 
L 11.418063 32.146714 
L 11.348258 32.274552 
L 11.280491 32.403481 
L 11.214777 32.533468 
L 11.151134 32.664483 
L 11.089578 32.79649 
L 11.030124 32.929458 
L 10.972788 33.063352 
L 10.917582 33.198139 
L 10.864523 33.333784 
L 10.813622 33.470255 
L 10.764892 33.607516 
L 10.718347 33.745533 
L 10.673997 33.884271 
L 10.631855 34.023695 
L 10.591929 34.16377 
L 10.554231 34.304461 
L 10.51877 34.445733 
L 10.485555 34.587549 
L 10.454594 34.729875 
L 10.425895 34.872674 
L 10.399465 35.01591 
L 10.375311 35.159547 
L 10.353439 35.30355 
L 10.333855 35.447881 
L 10.316563 35.592505 
L 10.301568 35.737386 
L 10.288873 35.882485 
L 10.278482 36.027768 
L 10.270398 36.173198 
L 10.264622 36.318738 
L 10.261156 36.46435 
L 10.26 36.61 
L 10.26 129.94 
L 10.261156 130.08565 
L 10.264622 130.231262 
L 10.270398 130.376802 
L 10.278482 130.522232 
L 10.288873 130.667515 
L 10.301568 130.812614 
L 10.316563 130.957495 
L 10.333855 131.102119 
L 10.353439 131.24645 
L 10.375311 131.390453 
L 10.399465 131.53409 
L 10.425895 131.677326 
L 10.454594 131.820125 
L 10.485555 131.962451 
L 10.51877 132.104267 
L 10.554231 132.245539 
L 10.591929 132.38623 
L 10.631855 132.526305 
L 10.673997 132.665729 
L 10.718347 132.804467 
L 10.764892 132.942484 
L 10.813622 133.079745 
L 10.864523 133.216216 
L 10.917582 133.351861 
L 10.972788 133.486648 
L 11.030124 133.620542 
L 11.089578 133.75351 
L 11.151134 133.885517 
L 11.214777 134.016532 
L 11.280491 134.146519 
L 11.348258 134.275448 
L 11.418063 134.403286 
L 11.489887 134.53 
L 11.563712 134.655558 
L 11.639521 134.77993 
L 11.717293 134.903083 
L 11.797009 135.024986 
L 11.878649 135.14561 
L 11.962193 135.264922 
L 12.047619 135.382895 
L 12.134906 135.499497 
L 12.224033 135.614699 
L 12.314975 135.728473 
L 12.407712 135.84079 
L 12.502219 135.951622 
L 12.598472 136.060939 
L 12.696448 136.168716 
L 12.796122 136.274925 
L 12.897468 136.379539 
L 13.000461 136.482532 
L 13.105075 136.583878 
L 13.211284 136.683552 
L 13.319061 136.781528 
L 13.428378 136.877781 
L 13.53921 136.972288 
L 13.651527 137.065025 
L 13.765301 137.155967 
L 13.880503 137.245094 
L 13.997105 137.332381 
L 14.115078 137.417807 
L 14.23439 137.501351 
L 14.355014 137.582991 
L 14.476917 137.662707 
L 14.60007 137.740479 
L 14.724442 137.816288 
L 14.85 137.890113 
L 14.976714 137.961937 
L 15.104552 138.031742 
L 15.233481 138.099509 
L 15.363468 138.165223 
L 15.494483 138.228866 
L 15.62649 138.290422 
L 15.759458 138.349876 
L 15.893352 138.407212 
L 16.028139 138.462418 
L 16.163784 138.515477 
L 16.300255 138.566378 
L 16.437516 138.615108 
L 16.575533 138.661653 
L 16.714271 138.706003 
L 16.853695 138.748145 
L 16.99377 138.788071 
L 17.134461 138.825769 
L 17.275733 138.86123 
L 17.417549 138.894445 
L 17.559875 138.925406 
L 17.702674 138.954105 
L 17.84591 138.980535 
L 17.989547 139.004689 
L 18.13355 139.026561 
L 18.277881 139.046145 
L 18.422505 139.063437 
L 18.567386 139.078432 
L 18.712485 139.091127 
L 18.857768 139.101518 
L 19.003198 139.109602 
L 19.148738 139.115378 
L 19.29435 139.118844 
L 19.44 139.12 
L 116.595 139.12 
z
" clip-path="url(#p610c3e99c3)" style="fill: none; stroke-dasharray: 3.7,1.6; stroke-dashoffset: 0; stroke: #0000ff; stroke-linecap: round"/>
   </g>
   <g id="patch_5">
    <path d="M 265.77 139.12 
L 265.91565 139.118844 
L 266.061262 139.115378 
L 266.206802 139.109602 
L 266.352232 139.101518 
L 266.497515 139.091127 
L 266.642614 139.078432 
L 266.787495 139.063437 
L 266.932119 139.046145 
L 267.07645 139.026561 
L 267.220453 139.004689 
L 267.36409 138.980535 
L 267.507326 138.954105 
L 267.650125 138.925406 
L 267.792451 138.894445 
L 267.934267 138.86123 
L 268.075539 138.825769 
L 268.21623 138.788071 
L 268.356305 138.748145 
L 268.495729 138.706003 
L 268.634467 138.661653 
L 268.772484 138.615108 
L 268.909745 138.566378 
L 269.046216 138.515477 
L 269.181861 138.462418 
L 269.316648 138.407212 
L 269.450542 138.349876 
L 269.58351 138.290422 
L 269.715517 138.228866 
L 269.846532 138.165223 
L 269.976519 138.099509 
L 270.105448 138.031742 
L 270.233286 137.961937 
L 270.36 137.890113 
L 270.485558 137.816288 
L 270.60993 137.740479 
L 270.733083 137.662707 
L 270.854986 137.582991 
L 270.97561 137.501351 
L 271.094922 137.417807 
L 271.212895 137.332381 
L 271.329497 137.245094 
L 271.444699 137.155967 
L 271.558473 137.065025 
L 271.67079 136.972288 
L 271.781622 136.877781 
L 271.890939 136.781528 
L 271.998716 136.683552 
L 272.104925 136.583878 
L 272.209539 136.482532 
L 272.312532 136.379539 
L 272.413878 136.274925 
L 272.513552 136.168716 
L 272.611528 136.060939 
L 272.707781 135.951622 
L 272.802288 135.84079 
L 272.895025 135.728473 
L 272.985967 135.614699 
L 273.075094 135.499497 
L 273.162381 135.382895 
L 273.247807 135.264922 
L 273.331351 135.14561 
L 273.412991 135.024986 
L 273.492707 134.903083 
L 273.570479 134.77993 
L 273.646288 134.655558 
L 273.720113 134.53 
L 273.791937 134.403286 
L 273.861742 134.275448 
L 273.929509 134.146519 
L 273.995223 134.016532 
L 274.058866 133.885517 
L 274.120422 133.75351 
L 274.179876 133.620542 
L 274.237212 133.486648 
L 274.292418 133.351861 
L 274.345477 133.216216 
L 274.396378 133.079745 
L 274.445108 132.942484 
L 274.491653 132.804467 
L 274.536003 132.665729 
L 274.578145 132.526305 
L 274.618071 132.38623 
L 274.655769 132.245539 
L 274.69123 132.104267 
L 274.724445 131.962451 
L 274.755406 131.820125 
L 274.784105 131.677326 
L 274.810535 131.53409 
L 274.834689 131.390453 
L 274.856561 131.24645 
L 274.876145 131.102119 
L 274.893437 130.957495 
L 274.908432 130.812614 
L 274.921127 130.667515 
L 274.931518 130.522232 
L 274.939602 130.376802 
L 274.945378 130.231262 
L 274.948844 130.08565 
L 274.95 129.94 
L 274.95 36.61 
L 274.948844 36.46435 
L 274.945378 36.318738 
L 274.939602 36.173198 
L 274.931518 36.027768 
L 274.921127 35.882485 
L 274.908432 35.737386 
L 274.893437 35.592505 
L 274.876145 35.447881 
L 274.856561 35.30355 
L 274.834689 35.159547 
L 274.810535 35.01591 
L 274.784105 34.872674 
L 274.755406 34.729875 
L 274.724445 34.587549 
L 274.69123 34.445733 
L 274.655769 34.304461 
L 274.618071 34.16377 
L 274.578145 34.023695 
L 274.536003 33.884271 
L 274.491653 33.745533 
L 274.445108 33.607516 
L 274.396378 33.470255 
L 274.345477 33.333784 
L 274.292418 33.198139 
L 274.237212 33.063352 
L 274.179876 32.929458 
L 274.120422 32.79649 
L 274.058866 32.664483 
L 273.995223 32.533468 
L 273.929509 32.403481 
L 273.861742 32.274552 
L 273.791937 32.146714 
L 273.720113 32.02 
L 273.646288 31.894442 
L 273.570479 31.77007 
L 273.492707 31.646917 
L 273.412991 31.525014 
L 273.331351 31.40439 
L 273.247807 31.285078 
L 273.162381 31.167105 
L 273.075094 31.050503 
L 272.985967 30.935301 
L 272.895025 30.821527 
L 272.802288 30.70921 
L 272.707781 30.598378 
L 272.611528 30.489061 
L 272.513552 30.381284 
L 272.413878 30.275075 
L 272.312532 30.170461 
L 272.209539 30.067468 
L 272.104925 29.966122 
L 271.998716 29.866448 
L 271.890939 29.768472 
L 271.781622 29.672219 
L 271.67079 29.577712 
L 271.558473 29.484975 
L 271.444699 29.394033 
L 271.329497 29.304906 
L 271.212895 29.217619 
L 271.094922 29.132193 
L 270.97561 29.048649 
L 270.854986 28.967009 
L 270.733083 28.887293 
L 270.60993 28.809521 
L 270.485558 28.733712 
L 270.36 28.659887 
L 270.233286 28.588063 
L 270.105448 28.518258 
L 269.976519 28.450491 
L 269.846532 28.384777 
L 269.715517 28.321134 
L 269.58351 28.259578 
L 269.450542 28.200124 
L 269.316648 28.142788 
L 269.181861 28.087582 
L 269.046216 28.034523 
L 268.909745 27.983622 
L 268.772484 27.934892 
L 268.634467 27.888347 
L 268.495729 27.843997 
L 268.356305 27.801855 
L 268.21623 27.761929 
L 268.075539 27.724231 
L 267.934267 27.68877 
L 267.792451 27.655555 
L 267.650125 27.624594 
L 267.507326 27.595895 
L 267.36409 27.569465 
L 267.220453 27.545311 
L 267.07645 27.523439 
L 266.932119 27.503855 
L 266.787495 27.486563 
L 266.642614 27.471568 
L 266.497515 27.458873 
L 266.352232 27.448482 
L 266.206802 27.440398 
L 266.061262 27.434622 
L 265.91565 27.431156 
L 265.77 27.43 
L 168.615 27.43 
L 168.46935 27.431156 
L 168.323738 27.434622 
L 168.178198 27.440398 
L 168.032768 27.448482 
L 167.887485 27.458873 
L 167.742386 27.471568 
L 167.597505 27.486563 
L 167.452881 27.503855 
L 167.30855 27.523439 
L 167.164547 27.545311 
L 167.02091 27.569465 
L 166.877674 27.595895 
L 166.734875 27.624594 
L 166.592549 27.655555 
L 166.450733 27.68877 
L 166.309461 27.724231 
L 166.16877 27.761929 
L 166.028695 27.801855 
L 165.889271 27.843997 
L 165.750533 27.888347 
L 165.612516 27.934892 
L 165.475255 27.983622 
L 165.338784 28.034523 
L 165.203139 28.087582 
L 165.068352 28.142788 
L 164.934458 28.200124 
L 164.80149 28.259578 
L 164.669483 28.321134 
L 164.538468 28.384777 
L 164.408481 28.450491 
L 164.279552 28.518258 
L 164.151714 28.588063 
L 164.025 28.659887 
L 163.899442 28.733712 
L 163.77507 28.809521 
L 163.651917 28.887293 
L 163.530014 28.967009 
L 163.40939 29.048649 
L 163.290078 29.132193 
L 163.172105 29.217619 
L 163.055503 29.304906 
L 162.940301 29.394033 
L 162.826527 29.484975 
L 162.71421 29.577712 
L 162.603378 29.672219 
L 162.494061 29.768472 
L 162.386284 29.866448 
L 162.280075 29.966122 
L 162.175461 30.067468 
L 162.072468 30.170461 
L 161.971122 30.275075 
L 161.871448 30.381284 
L 161.773472 30.489061 
L 161.677219 30.598378 
L 161.582712 30.70921 
L 161.489975 30.821527 
L 161.399033 30.935301 
L 161.309906 31.050503 
L 161.222619 31.167105 
L 161.137193 31.285078 
L 161.053649 31.40439 
L 160.972009 31.525014 
L 160.892293 31.646917 
L 160.814521 31.77007 
L 160.738712 31.894442 
L 160.664887 32.02 
L 160.593063 32.146714 
L 160.523258 32.274552 
L 160.455491 32.403481 
L 160.389777 32.533468 
L 160.326134 32.664483 
L 160.264578 32.79649 
L 160.205124 32.929458 
L 160.147788 33.063352 
L 160.092582 33.198139 
L 160.039523 33.333784 
L 159.988622 33.470255 
L 159.939892 33.607516 
L 159.893347 33.745533 
L 159.848997 33.884271 
L 159.806855 34.023695 
L 159.766929 34.16377 
L 159.729231 34.304461 
L 159.69377 34.445733 
L 159.660555 34.587549 
L 159.629594 34.729875 
L 159.600895 34.872674 
L 159.574465 35.01591 
L 159.550311 35.159547 
L 159.528439 35.30355 
L 159.508855 35.447881 
L 159.491563 35.592505 
L 159.476568 35.737386 
L 159.463873 35.882485 
L 159.453482 36.027768 
L 159.445398 36.173198 
L 159.439622 36.318738 
L 159.436156 36.46435 
L 159.435 36.61 
L 159.435 129.94 
L 159.436156 130.08565 
L 159.439622 130.231262 
L 159.445398 130.376802 
L 159.453482 130.522232 
L 159.463873 130.667515 
L 159.476568 130.812614 
L 159.491563 130.957495 
L 159.508855 131.102119 
L 159.528439 131.24645 
L 159.550311 131.390453 
L 159.574465 131.53409 
L 159.600895 131.677326 
L 159.629594 131.820125 
L 159.660555 131.962451 
L 159.69377 132.104267 
L 159.729231 132.245539 
L 159.766929 132.38623 
L 159.806855 132.526305 
L 159.848997 132.665729 
L 159.893347 132.804467 
L 159.939892 132.942484 
L 159.988622 133.079745 
L 160.039523 133.216216 
L 160.092582 133.351861 
L 160.147788 133.486648 
L 160.205124 133.620542 
L 160.264578 133.75351 
L 160.326134 133.885517 
L 160.389777 134.016532 
L 160.455491 134.146519 
L 160.523258 134.275448 
L 160.593063 134.403286 
L 160.664887 134.53 
L 160.738712 134.655558 
L 160.814521 134.77993 
L 160.892293 134.903083 
L 160.972009 135.024986 
L 161.053649 135.14561 
L 161.137193 135.264922 
L 161.222619 135.382895 
L 161.309906 135.499497 
L 161.399033 135.614699 
L 161.489975 135.728473 
L 161.582712 135.84079 
L 161.677219 135.951622 
L 161.773472 136.060939 
L 161.871448 136.168716 
L 161.971122 136.274925 
L 162.072468 136.379539 
L 162.175461 136.482532 
L 162.280075 136.583878 
L 162.386284 136.683552 
L 162.494061 136.781528 
L 162.603378 136.877781 
L 162.71421 136.972288 
L 162.826527 137.065025 
L 162.940301 137.155967 
L 163.055503 137.245094 
L 163.172105 137.332381 
L 163.290078 137.417807 
L 163.40939 137.501351 
L 163.530014 137.582991 
L 163.651917 137.662707 
L 163.77507 137.740479 
L 163.899442 137.816288 
L 164.025 137.890113 
L 164.151714 137.961937 
L 164.279552 138.031742 
L 164.408481 138.099509 
L 164.538468 138.165223 
L 164.669483 138.228866 
L 164.80149 138.290422 
L 164.934458 138.349876 
L 165.068352 138.407212 
L 165.203139 138.462418 
L 165.338784 138.515477 
L 165.475255 138.566378 
L 165.612516 138.615108 
L 165.750533 138.661653 
L 165.889271 138.706003 
L 166.028695 138.748145 
L 166.16877 138.788071 
L 166.309461 138.825769 
L 166.450733 138.86123 
L 166.592549 138.894445 
L 166.734875 138.925406 
L 166.877674 138.954105 
L 167.02091 138.980535 
L 167.164547 139.004689 
L 167.30855 139.026561 
L 167.452881 139.046145 
L 167.597505 139.063437 
L 167.742386 139.078432 
L 167.887485 139.091127 
L 168.032768 139.101518 
L 168.178198 139.109602 
L 168.323738 139.115378 
L 168.46935 139.118844 
L 168.615 139.12 
L 265.77 139.12 
z
" clip-path="url(#p610c3e99c3)" style="fill: none; stroke-dasharray: 3.7,1.6; stroke-dashoffset: 0; stroke: #ff0000; stroke-linecap: round"/>
   </g>
   <g id="line2d_1">
    <path d="M 27.855 133 
L 27.855 95.70625 
M 27.855 78.49375 
L 27.855 41.2 
" clip-path="url(#p610c3e99c3)" style="fill: none; stroke: #000000; stroke-width: 2; stroke-linecap: round"/>
   </g>
   <g id="line2d_2">
    <path d="M 39.33 78.49375 
L 16.38 78.49375 
" clip-path="url(#p610c3e99c3)" style="fill: none; stroke: #000000; stroke-width: 2; stroke-linecap: round"/>
   </g>
   <g id="line2d_3">
    <path d="M 33.5925 84.23125 
L 22.1175 84.23125 
" clip-path="url(#p610c3e99c3)" style="fill: none; stroke: #000000; stroke-width: 2; stroke-linecap: round"/>
   </g>
   <g id="line2d_4">
    <path d="M 39.33 89.96875 
L 16.38 89.96875 
" clip-path="url(#p610c3e99c3)" style="fill: none; stroke: #000000; stroke-width: 2; stroke-linecap: round"/>
   </g>
   <g id="line2d_5">
    <path d="M 33.5925 95.70625 
L 22.1175 95.70625 
" clip-path="url(#p610c3e99c3)" style="fill: none; stroke: #000000; stroke-width: 2; stroke-linecap: round"/>
   </g>
   <g id="line2d_6">
    <path d="M 27.855 41.2 
L 58.455 41.2 
L 61.005 33.55 
L 66.105 48.85 
L 71.205 33.55 
L 76.305 48.85 
L 81.405 33.55 
L 86.505 48.85 
L 89.055 41.2 
L 119.655 41.2 
" clip-path="url(#p610c3e99c3)" style="fill: none; stroke: #000000; stroke-width: 2; stroke-linecap: round"/>
   </g>
   <g id="line2d_7">
    <path d="M 119.655 41.2 
L 142.605 41.2 
L 165.555 41.2 
" clip-path="url(#p610c3e99c3)" style="fill: none; stroke: #000000; stroke-width: 2; stroke-linecap: round"/>
   </g>
   <g id="line2d_8">
    <path d="M 27.855 133 
L 73.755 133 
L 119.655 133 
" clip-path="url(#p610c3e99c3)" style="fill: none; stroke: #000000; stroke-width: 2; stroke-linecap: round"/>
   </g>
   <g id="line2d_9">
    <path d="M 119.655 133 
L 142.605 133 
L 165.555 133 
" clip-path="url(#p610c3e99c3)" style="fill: none; stroke: #000000; stroke-width: 2; stroke-linecap: round"/>
   </g>
   <g id="line2d_10">
    <path d="M 165.555 133 
L 211.455 133 
L 257.355 133 
" clip-path="url(#p610c3e99c3)" style="fill: none; stroke: #000000; stroke-width: 2; stroke-linecap: round"/>
   </g>
   <g id="line2d_11">
    <path d="M 257.355 133 
L 257.355 95.70625 
M 257.355 78.49375 
L 257.355 41.2 
" clip-path="url(#p610c3e99c3)" style="fill: none; stroke: #000000; stroke-width: 2; stroke-linecap: round"/>
   </g>
   <g id="line2d_12">
    <path d="M 268.83 78.49375 
L 245.88 78.49375 
" clip-path="url(#p610c3e99c3)" style="fill: none; stroke: #000000; stroke-width: 2; stroke-linecap: round"/>
   </g>
   <g id="line2d_13">
    <path d="M 263.0925 84.23125 
L 251.6175 84.23125 
" clip-path="url(#p610c3e99c3)" style="fill: none; stroke: #000000; stroke-width: 2; stroke-linecap: round"/>
   </g>
   <g id="line2d_14">
    <path d="M 268.83 89.96875 
L 245.88 89.96875 
" clip-path="url(#p610c3e99c3)" style="fill: none; stroke: #000000; stroke-width: 2; stroke-linecap: round"/>
   </g>
   <g id="line2d_15">
    <path d="M 263.0925 95.70625 
L 251.6175 95.70625 
" clip-path="url(#p610c3e99c3)" style="fill: none; stroke: #000000; stroke-width: 2; stroke-linecap: round"/>
   </g>
   <g id="line2d_16">
    <path d="M 257.355 41.2 
L 226.755 41.2 
L 224.205 48.85 
L 219.105 33.55 
L 214.005 48.85 
L 208.905 33.55 
L 203.805 48.85 
L 198.705 33.55 
L 196.155 41.2 
L 165.555 41.2 
" clip-path="url(#p610c3e99c3)" style="fill: none; stroke: #000000; stroke-width: 2; stroke-linecap: round"/>
   </g>
   <g id="line2d_17">
    <path d="M 27.855 133 
L 27.855 95.70625 
M 27.855 78.49375 
L 27.855 41.2 
" clip-path="url(#p610c3e99c3)" style="fill: none; stroke: #000000; stroke-width: 2; stroke-linecap: round"/>
   </g>
   <g id="line2d_18">
    <path d="M 39.33 78.49375 
L 16.38 78.49375 
" clip-path="url(#p610c3e99c3)" style="fill: none; stroke: #000000; stroke-width: 2; stroke-linecap: round"/>
   </g>
   <g id="line2d_19">
    <path d="M 33.5925 84.23125 
L 22.1175 84.23125 
" clip-path="url(#p610c3e99c3)" style="fill: none; stroke: #000000; stroke-width: 2; stroke-linecap: round"/>
   </g>
   <g id="line2d_20">
    <path d="M 39.33 89.96875 
L 16.38 89.96875 
" clip-path="url(#p610c3e99c3)" style="fill: none; stroke: #000000; stroke-width: 2; stroke-linecap: round"/>
   </g>
   <g id="line2d_21">
    <path d="M 33.5925 95.70625 
L 22.1175 95.70625 
" clip-path="url(#p610c3e99c3)" style="fill: none; stroke: #000000; stroke-width: 2; stroke-linecap: round"/>
   </g>
   <g id="line2d_22">
    <path d="M 27.855 41.2 
L 58.455 41.2 
L 61.005 33.55 
L 66.105 48.85 
L 71.205 33.55 
L 76.305 48.85 
L 81.405 33.55 
L 86.505 48.85 
L 89.055 41.2 
L 119.655 41.2 
" clip-path="url(#p610c3e99c3)" style="fill: none; stroke: #000000; stroke-width: 2; stroke-linecap: round"/>
   </g>
   <g id="line2d_23">
    <path d="M 119.655 41.2 
L 142.605 41.2 
L 165.555 41.2 
" clip-path="url(#p610c3e99c3)" style="fill: none; stroke: #000000; stroke-width: 2; stroke-linecap: round"/>
   </g>
   <g id="line2d_24">
    <path d="M 27.855 133 
L 73.755 133 
L 119.655 133 
" clip-path="url(#p610c3e99c3)" style="fill: none; stroke: #000000; stroke-width: 2; stroke-linecap: round"/>
   </g>
   <g id="line2d_25">
    <path d="M 119.655 133 
L 142.605 133 
L 165.555 133 
" clip-path="url(#p610c3e99c3)" style="fill: none; stroke: #000000; stroke-width: 2; stroke-linecap: round"/>
   </g>
   <g id="line2d_26">
    <path d="M 165.555 133 
L 211.455 133 
L 257.355 133 
" clip-path="url(#p610c3e99c3)" style="fill: none; stroke: #000000; stroke-width: 2; stroke-linecap: round"/>
   </g>
   <g id="line2d_27">
    <path d="M 257.355 133 
L 257.355 95.70625 
M 257.355 78.49375 
L 257.355 41.2 
" clip-path="url(#p610c3e99c3)" style="fill: none; stroke: #000000; stroke-width: 2; stroke-linecap: round"/>
   </g>
   <g id="line2d_28">
    <path d="M 268.83 78.49375 
L 245.88 78.49375 
" clip-path="url(#p610c3e99c3)" style="fill: none; stroke: #000000; stroke-width: 2; stroke-linecap: round"/>
   </g>
   <g id="line2d_29">
    <path d="M 263.0925 84.23125 
L 251.6175 84.23125 
" clip-path="url(#p610c3e99c3)" style="fill: none; stroke: #000000; stroke-width: 2; stroke-linecap: round"/>
   </g>
   <g id="line2d_30">
    <path d="M 268.83 89.96875 
L 245.88 89.96875 
" clip-path="url(#p610c3e99c3)" style="fill: none; stroke: #000000; stroke-width: 2; stroke-linecap: round"/>
   </g>
   <g id="line2d_31">
    <path d="M 263.0925 95.70625 
L 251.6175 95.70625 
" clip-path="url(#p610c3e99c3)" style="fill: none; stroke: #000000; stroke-width: 2; stroke-linecap: round"/>
   </g>
   <g id="line2d_32">
    <path d="M 257.355 41.2 
L 226.755 41.2 
L 224.205 48.85 
L 219.105 33.55 
L 214.005 48.85 
L 208.905 33.55 
L 203.805 48.85 
L 198.705 33.55 
L 196.155 41.2 
L 165.555 41.2 
" clip-path="url(#p610c3e99c3)" style="fill: none; stroke: #000000; stroke-width: 2; stroke-linecap: round"/>
   </g>
   <g id="text_1">
    <g clip-path="url(#p610c3e99c3)">
     <!-- -10V -->
     <g transform="translate(42.39 90.549219)scale(0.125 -0.125)">
      <defs>
       <path id="DejaVuSans-2d" d="M 313 2009 
L 1997 2009 
L 1997 1497 
L 313 1497 
L 313 2009 
z
" transform="scale(0.015625)"/>
       <path id="DejaVuSans-31" d="M 794 531 
L 1825 531 
L 1825 4091 
L 703 3866 
L 703 4441 
L 1819 4666 
L 2450 4666 
L 2450 531 
L 3481 531 
L 3481 0 
L 794 0 
L 794 531 
z
" transform="scale(0.015625)"/>
       <path id="DejaVuSans-30" d="M 2034 4250 
Q 1547 4250 1301 3770 
Q 1056 3291 1056 2328 
Q 1056 1369 1301 889 
Q 1547 409 2034 409 
Q 2525 409 2770 889 
Q 3016 1369 3016 2328 
Q 3016 3291 2770 3770 
Q 2525 4250 2034 4250 
z
M 2034 4750 
Q 2819 4750 3233 4129 
Q 3647 3509 3647 2328 
Q 3647 1150 3233 529 
Q 2819 -91 2034 -91 
Q 1250 -91 836 529 
Q 422 1150 422 2328 
Q 422 3509 836 4129 
Q 1250 4750 2034 4750 
z
" transform="scale(0.015625)"/>
       <path id="DejaVuSans-56" d="M 1831 0 
L 50 4666 
L 709 4666 
L 2188 738 
L 3669 4666 
L 4325 4666 
L 2547 0 
L 1831 0 
z
" transform="scale(0.015625)"/>
      </defs>
      <use xlink:href="#DejaVuSans-2d"/>
      <use xlink:href="#DejaVuSans-31" x="36.083984"/>
      <use xlink:href="#DejaVuSans-30" x="99.707031"/>
      <use xlink:href="#DejaVuSans-56" x="163.330078"/>
     </g>
    </g>
   </g>
   <g id="text_2">
    <g clip-path="url(#p610c3e99c3)">
     <!-- 28Ω -->
     <g transform="translate(61.025508 61.408047)scale(0.125 -0.125)">
      <defs>
       <path id="DejaVuSans-32" d="M 1228 531 
L 3431 531 
L 3431 0 
L 469 0 
L 469 531 
Q 828 903 1448 1529 
Q 2069 2156 2228 2338 
Q 2531 2678 2651 2914 
Q 2772 3150 2772 3378 
Q 2772 3750 2511 3984 
Q 2250 4219 1831 4219 
Q 1534 4219 1204 4116 
Q 875 4013 500 3803 
L 500 4441 
Q 881 4594 1212 4672 
Q 1544 4750 1819 4750 
Q 2544 4750 2975 4387 
Q 3406 4025 3406 3419 
Q 3406 3131 3298 2873 
Q 3191 2616 2906 2266 
Q 2828 2175 2409 1742 
Q 1991 1309 1228 531 
z
" transform="scale(0.015625)"/>
       <path id="DejaVuSans-38" d="M 2034 2216 
Q 1584 2216 1326 1975 
Q 1069 1734 1069 1313 
Q 1069 891 1326 650 
Q 1584 409 2034 409 
Q 2484 409 2743 651 
Q 3003 894 3003 1313 
Q 3003 1734 2745 1975 
Q 2488 2216 2034 2216 
z
M 1403 2484 
Q 997 2584 770 2862 
Q 544 3141 544 3541 
Q 544 4100 942 4425 
Q 1341 4750 2034 4750 
Q 2731 4750 3128 4425 
Q 3525 4100 3525 3541 
Q 3525 3141 3298 2862 
Q 3072 2584 2669 2484 
Q 3125 2378 3379 2068 
Q 3634 1759 3634 1313 
Q 3634 634 3220 271 
Q 2806 -91 2034 -91 
Q 1263 -91 848 271 
Q 434 634 434 1313 
Q 434 1759 690 2068 
Q 947 2378 1403 2484 
z
M 1172 3481 
Q 1172 3119 1398 2916 
Q 1625 2713 2034 2713 
Q 2441 2713 2670 2916 
Q 2900 3119 2900 3481 
Q 2900 3844 2670 4047 
Q 2441 4250 2034 4250 
Q 1625 4250 1398 4047 
Q 1172 3844 1172 3481 
z
" transform="scale(0.015625)"/>
       <path id="DejaVuSans-3a9" d="M 4647 556 
L 4647 0 
L 2772 0 
L 2772 556 
Q 3325 859 3634 1378 
Q 3944 1897 3944 2528 
Q 3944 3278 3531 3731 
Q 3119 4184 2444 4184 
Q 1769 4184 1355 3729 
Q 941 3275 941 2528 
Q 941 1897 1250 1378 
Q 1563 859 2119 556 
L 2119 0 
L 244 0 
L 244 556 
L 1241 556 
Q 747 991 519 1456 
Q 294 1922 294 2497 
Q 294 3491 894 4106 
Q 1491 4722 2444 4722 
Q 3391 4722 3994 4106 
Q 4594 3494 4594 2528 
Q 4594 1922 4372 1459 
Q 4150 997 3647 556 
L 4647 556 
z
" transform="scale(0.015625)"/>
      </defs>
      <use xlink:href="#DejaVuSans-32"/>
      <use xlink:href="#DejaVuSans-38" x="63.623047"/>
      <use xlink:href="#DejaVuSans-3a9" x="127.246094"/>
     </g>
    </g>
   </g>
   <g id="text_3">
    <g clip-path="url(#p610c3e99c3)">
     <!-- 27V -->
     <g transform="translate(218.362969 90.549219)scale(0.125 -0.125)">
      <defs>
       <path id="DejaVuSans-37" d="M 525 4666 
L 3525 4666 
L 3525 4397 
L 1831 0 
L 1172 0 
L 2766 4134 
L 525 4134 
L 525 4666 
z
" transform="scale(0.015625)"/>
      </defs>
      <use xlink:href="#DejaVuSans-32"/>
      <use xlink:href="#DejaVuSans-37" x="63.623047"/>
      <use xlink:href="#DejaVuSans-56" x="127.246094"/>
     </g>
    </g>
   </g>
   <g id="text_4">
    <g clip-path="url(#p610c3e99c3)">
     <!-- 6Ω -->
     <g transform="translate(202.70207 61.408047)scale(0.125 -0.125)">
      <defs>
       <path id="DejaVuSans-36" d="M 2113 2584 
Q 1688 2584 1439 2293 
Q 1191 2003 1191 1497 
Q 1191 994 1439 701 
Q 1688 409 2113 409 
Q 2538 409 2786 701 
Q 3034 994 3034 1497 
Q 3034 2003 2786 2293 
Q 2538 2584 2113 2584 
z
M 3366 4563 
L 3366 3988 
Q 3128 4100 2886 4159 
Q 2644 4219 2406 4219 
Q 1781 4219 1451 3797 
Q 1122 3375 1075 2522 
Q 1259 2794 1537 2939 
Q 1816 3084 2150 3084 
Q 2853 3084 3261 2657 
Q 3669 2231 3669 1497 
Q 3669 778 3244 343 
Q 2819 -91 2113 -91 
Q 1303 -91 875 529 
Q 447 1150 447 2328 
Q 447 3434 972 4092 
Q 1497 4750 2381 4750 
Q 2619 4750 2861 4703 
Q 3103 4656 3366 4563 
z
" transform="scale(0.015625)"/>
      </defs>
      <use xlink:href="#DejaVuSans-36"/>
      <use xlink:href="#DejaVuSans-3a9" x="63.623047"/>
     </g>
    </g>
   </g>
   <g id="text_5">
    <g clip-path="url(#p610c3e99c3)">
     <!-- + -->
     <g transform="translate(138.015 67.599219)scale(0.125 -0.125)">
      <defs>
       <path id="DejaVuSans-2b" d="M 2944 4013 
L 2944 2272 
L 4684 2272 
L 4684 1741 
L 2944 1741 
L 2944 0 
L 2419 0 
L 2419 1741 
L 678 1741 
L 678 2272 
L 2419 2272 
L 2419 4013 
L 2944 4013 
z
" transform="scale(0.015625)"/>
      </defs>
      <use xlink:href="#DejaVuSans-2b"/>
     </g>
    </g>
   </g>
   <g id="text_6">
    <g clip-path="url(#p610c3e99c3)">
     <!-- $V_{O}$ -->
     <g transform="translate(138.015 90.549219)scale(0.125 -0.125)">
      <defs>
       <path id="STIXGeneral-Italic-56" d="M 4403 4179 
L 4403 4077 
Q 4198 4070 4045 3821 
L 1658 -115 
L 1536 -115 
L 1011 3104 
Q 902 3776 828 3910 
Q 755 4045 486 4077 
L 486 4179 
L 2022 4179 
L 2022 4077 
Q 1722 4045 1629 3981 
Q 1536 3917 1536 3750 
Q 1536 3686 1542 3654 
L 1958 819 
L 3302 3123 
Q 3616 3661 3616 3859 
Q 3616 4032 3219 4077 
L 3219 4179 
L 4403 4179 
z
" transform="scale(0.015625)"/>
       <path id="STIXGeneral-Italic-4f" d="M 4474 2675 
Q 4474 1990 4106 1363 
Q 3738 736 3149 339 
Q 2477 -115 1779 -115 
Q 1146 -115 765 281 
Q 384 678 384 1382 
Q 384 1965 697 2582 
Q 1011 3200 1517 3642 
Q 2234 4262 3034 4262 
Q 3718 4269 4096 3840 
Q 4474 3411 4474 2675 
z
M 3802 3078 
Q 3802 3533 3581 3792 
Q 3360 4051 2976 4051 
Q 2342 4051 1786 3302 
Q 1446 2842 1251 2259 
Q 1056 1677 1056 1178 
Q 1056 653 1270 374 
Q 1485 96 1888 96 
Q 2477 96 2976 704 
Q 3354 1178 3578 1862 
Q 3802 2547 3802 3078 
z
" transform="scale(0.015625)"/>
      </defs>
      <use xlink:href="#STIXGeneral-Italic-56" transform="translate(0 0.703125)"/>
      <use xlink:href="#STIXGeneral-Italic-4f" transform="translate(61.099991 -12.525)scale(0.7)"/>
     </g>
    </g>
   </g>
   <g id="text_7">
    <g clip-path="url(#p610c3e99c3)">
     <!-- - -->
     <g transform="translate(138.015 113.499219)scale(0.125 -0.125)">
      <use xlink:href="#DejaVuSans-2d"/>
     </g>
    </g>
   </g>
   <g id="text_8">
    <g clip-path="url(#p610c3e99c3)">
     <!-- -10V -->
     <g transform="translate(42.39 90.549219)scale(0.125 -0.125)">
      <use xlink:href="#DejaVuSans-2d"/>
      <use xlink:href="#DejaVuSans-31" x="36.083984"/>
      <use xlink:href="#DejaVuSans-30" x="99.707031"/>
      <use xlink:href="#DejaVuSans-56" x="163.330078"/>
     </g>
    </g>
   </g>
   <g id="text_9">
    <g clip-path="url(#p610c3e99c3)">
     <!-- 28Ω -->
     <g transform="translate(61.025508 61.408047)scale(0.125 -0.125)">
      <use xlink:href="#DejaVuSans-32"/>
      <use xlink:href="#DejaVuSans-38" x="63.623047"/>
      <use xlink:href="#DejaVuSans-3a9" x="127.246094"/>
     </g>
    </g>
   </g>
   <g id="text_10">
    <g clip-path="url(#p610c3e99c3)">
     <!-- 27V -->
     <g transform="translate(218.362969 90.549219)scale(0.125 -0.125)">
      <use xlink:href="#DejaVuSans-32"/>
      <use xlink:href="#DejaVuSans-37" x="63.623047"/>
      <use xlink:href="#DejaVuSans-56" x="127.246094"/>
     </g>
    </g>
   </g>
   <g id="text_11">
    <g clip-path="url(#p610c3e99c3)">
     <!-- 6Ω -->
     <g transform="translate(202.70207 61.408047)scale(0.125 -0.125)">
      <use xlink:href="#DejaVuSans-36"/>
      <use xlink:href="#DejaVuSans-3a9" x="63.623047"/>
     </g>
    </g>
   </g>
   <g id="text_12">
    <g clip-path="url(#p610c3e99c3)">
     <!-- + -->
     <g transform="translate(138.015 67.599219)scale(0.125 -0.125)">
      <use xlink:href="#DejaVuSans-2b"/>
     </g>
    </g>
   </g>
   <g id="text_13">
    <g clip-path="url(#p610c3e99c3)">
     <!-- $V_{O}$ -->
     <g transform="translate(138.015 90.549219)scale(0.125 -0.125)">
      <use xlink:href="#STIXGeneral-Italic-56" transform="translate(0 0.703125)"/>
      <use xlink:href="#STIXGeneral-Italic-4f" transform="translate(61.099991 -12.525)scale(0.7)"/>
     </g>
    </g>
   </g>
   <g id="text_14">
    <g clip-path="url(#p610c3e99c3)">
     <!-- - -->
     <g transform="translate(138.015 113.499219)scale(0.125 -0.125)">
      <use xlink:href="#DejaVuSans-2d"/>
     </g>
    </g>
   </g>
   <g id="line2d_33">
    <path d="M 139.545 41.2 
L 139.545 41.2 
" clip-path="url(#p610c3e99c3)" style="fill: none; stroke: #000000; stroke-width: 2; stroke-linecap: round"/>
   </g>
   <g id="patch_6">
    <path d="M 139.545 36.61 
L 148.725 41.2 
L 139.545 45.79 
z
" clip-path="url(#p610c3e99c3)"/>
   </g>
   <g id="text_15">
    <g clip-path="url(#p610c3e99c3)">
     <!-- $I_{O}$ -->
     <g transform="translate(138.5725 29.420391)scale(0.125 -0.125)">
      <defs>
       <path id="STIXGeneral-Italic-49" d="M 2458 4179 
L 2458 4077 
Q 2189 4045 2102 3961 
Q 2016 3878 1933 3584 
L 1165 838 
Q 1069 499 1069 352 
Q 1069 224 1149 179 
Q 1229 134 1510 102 
L 1510 0 
L -51 0 
L -51 102 
Q 218 154 317 237 
Q 416 320 486 582 
L 1254 3405 
Q 1338 3699 1338 3802 
Q 1338 3930 1235 3997 
Q 1133 4064 877 4077 
L 877 4179 
L 2458 4179 
z
" transform="scale(0.015625)"/>
      </defs>
      <use xlink:href="#STIXGeneral-Italic-49" transform="translate(0 0.703125)"/>
      <use xlink:href="#STIXGeneral-Italic-4f" transform="translate(33.299988 -12.525)scale(0.7)"/>
     </g>
    </g>
   </g>
   <g id="line2d_34">
    <path d="M 139.545 41.2 
L 139.545 41.2 
" clip-path="url(#p610c3e99c3)" style="fill: none; stroke: #000000; stroke-width: 2; stroke-linecap: round"/>
   </g>
   <g id="patch_7">
    <path d="M 139.545 36.61 
L 148.725 41.2 
L 139.545 45.79 
z
" clip-path="url(#p610c3e99c3)"/>
   </g>
   <g id="text_16">
    <g clip-path="url(#p610c3e99c3)">
     <!-- $I_{O}$ -->
     <g transform="translate(138.5725 29.420391)scale(0.125 -0.125)">
      <use xlink:href="#STIXGeneral-Italic-49" transform="translate(0 0.703125)"/>
      <use xlink:href="#STIXGeneral-Italic-4f" transform="translate(33.299988 -12.525)scale(0.7)"/>
     </g>
    </g>
   </g>
  </g>
 </g>
 <defs>
  <clipPath id="p610c3e99c3">
   <rect x="7.2" y="7.2" width="270.81" height="134.98"/>
  </clipPath>
 </defs>
</svg>
