<?xml version="1.0" encoding="utf-8" standalone="no"?>
<!DOCTYPE svg PUBLIC "-//W3C//DTD SVG 1.1//EN"
  "http://www.w3.org/Graphics/SVG/1.1/DTD/svg11.dtd">
<svg xmlns:xlink="http://www.w3.org/1999/xlink" width="279.5745pt" height="155.5pt" viewBox="0 0 279.5745 155.5" xmlns="http://www.w3.org/2000/svg" version="1.1">
 <metadata>
  <rdf:RDF xmlns:dc="http://purl.org/dc/elements/1.1/" xmlns:cc="http://creativecommons.org/ns#" xmlns:rdf="http://www.w3.org/1999/02/22-rdf-syntax-ns#">
   <cc:Work>
    <dc:type rdf:resource="http://purl.org/dc/dcmitype/StillImage"/>
    <dc:date>2023-03-06T18:30:30.892456</dc:date>
    <dc:format>image/svg+xml</dc:format>
    <dc:creator>
     <cc:Agent>
      <dc:title>Matplotlib v3.5.2, https://matplotlib.org/</dc:title>
     </cc:Agent>
    </dc:creator>
   </cc:Work>
  </rdf:RDF>
 </metadata>
 <defs>
  <style type="text/css">*{stroke-linejoin: round; stroke-linecap: butt}</style>
 </defs>
 <g id="figure_1">
  <g id="patch_1">
   <path d="M 0 155.5 
L 279.5745 155.5 
L 279.5745 0 
L 0 0 
L 0 155.5 
z
" style="fill: none"/>
  </g>
  <g id="axes_1">
   <g id="patch_2">
    <path d="M 116.7225 145.24 
L 116.86815 145.238844 
L 117.013762 145.235378 
L 117.159302 145.229602 
L 117.304732 145.221518 
L 117.450015 145.211127 
L 117.595114 145.198432 
L 117.739995 145.183437 
L 117.884619 145.166145 
L 118.02895 145.146561 
L 118.172953 145.124689 
L 118.31659 145.100535 
L 118.459826 145.074105 
L 118.602625 145.045406 
L 118.744951 145.014445 
L 118.886767 144.98123 
L 119.028039 144.945769 
L 119.16873 144.908071 
L 119.308805 144.868145 
L 119.448229 144.826003 
L 119.586967 144.781653 
L 119.724984 144.735108 
L 119.862245 144.686378 
L 119.998716 144.635477 
L 120.134361 144.582418 
L 120.269148 144.527212 
L 120.403042 144.469876 
L 120.53601 144.410422 
L 120.668017 144.348866 
L 120.799032 144.285223 
L 120.929019 144.219509 
L 121.057948 144.151742 
L 121.185786 144.081937 
L 121.3125 144.010113 
L 121.438058 143.936288 
L 121.56243 143.860479 
L 121.685583 143.782707 
L 121.807486 143.702991 
L 121.92811 143.621351 
L 122.047422 143.537807 
L 122.165395 143.452381 
L 122.281997 143.365094 
L 122.397199 143.275967 
L 122.510973 143.185025 
L 122.62329 143.092288 
L 122.734122 142.997781 
L 122.843439 142.901528 
L 122.951216 142.803552 
L 123.057425 142.703878 
L 123.162039 142.602532 
L 123.265032 142.499539 
L 123.366378 142.394925 
L 123.466052 142.288716 
L 123.564028 142.180939 
L 123.660281 142.071622 
L 123.754788 141.96079 
L 123.847525 141.848473 
L 123.938467 141.734699 
L 124.027594 141.619497 
L 124.114881 141.502895 
L 124.200307 141.384922 
L 124.283851 141.26561 
L 124.365491 141.144986 
L 124.445207 141.023083 
L 124.522979 140.89993 
L 124.598788 140.775558 
L 124.672613 140.65 
L 124.744437 140.523286 
L 124.814242 140.395448 
L 124.882009 140.266519 
L 124.947723 140.136532 
L 125.011366 140.005517 
L 125.072922 139.87351 
L 125.132376 139.740542 
L 125.189712 139.606648 
L 125.244918 139.471861 
L 125.297977 139.336216 
L 125.348878 139.199745 
L 125.397608 139.062484 
L 125.444153 138.924467 
L 125.488503 138.785729 
L 125.530645 138.646305 
L 125.570571 138.50623 
L 125.608269 138.365539 
L 125.64373 138.224267 
L 125.676945 138.082451 
L 125.707906 137.940125 
L 125.736605 137.797326 
L 125.763035 137.65409 
L 125.787189 137.510453 
L 125.809061 137.36645 
L 125.828645 137.222119 
L 125.845937 137.077495 
L 125.860932 136.932614 
L 125.873627 136.787515 
L 125.884018 136.642232 
L 125.892102 136.496802 
L 125.897878 136.351262 
L 125.901344 136.20565 
L 125.9025 136.06 
L 125.9025 42.73 
L 125.901344 42.58435 
L 125.897878 42.438738 
L 125.892102 42.293198 
L 125.884018 42.147768 
L 125.873627 42.002485 
L 125.860932 41.857386 
L 125.845937 41.712505 
L 125.828645 41.567881 
L 125.809061 41.42355 
L 125.787189 41.279547 
L 125.763035 41.13591 
L 125.736605 40.992674 
L 125.707906 40.849875 
L 125.676945 40.707549 
L 125.64373 40.565733 
L 125.608269 40.424461 
L 125.570571 40.28377 
L 125.530645 40.143695 
L 125.488503 40.004271 
L 125.444153 39.865533 
L 125.397608 39.727516 
L 125.348878 39.590255 
L 125.297977 39.453784 
L 125.244918 39.318139 
L 125.189712 39.183352 
L 125.132376 39.049458 
L 125.072922 38.91649 
L 125.011366 38.784483 
L 124.947723 38.653468 
L 124.882009 38.523481 
L 124.814242 38.394552 
L 124.744437 38.266714 
L 124.672613 38.14 
L 124.598788 38.014442 
L 124.522979 37.89007 
L 124.445207 37.766917 
L 124.365491 37.645014 
L 124.283851 37.52439 
L 124.200307 37.405078 
L 124.114881 37.287105 
L 124.027594 37.170503 
L 123.938467 37.055301 
L 123.847525 36.941527 
L 123.754788 36.82921 
L 123.660281 36.718378 
L 123.564028 36.609061 
L 123.466052 36.501284 
L 123.366378 36.395075 
L 123.265032 36.290461 
L 123.162039 36.187468 
L 123.057425 36.086122 
L 122.951216 35.986448 
L 122.843439 35.888472 
L 122.734122 35.792219 
L 122.62329 35.697712 
L 122.510973 35.604975 
L 122.397199 35.514033 
L 122.281997 35.424906 
L 122.165395 35.337619 
L 122.047422 35.252193 
L 121.92811 35.168649 
L 121.807486 35.087009 
L 121.685583 35.007293 
L 121.56243 34.929521 
L 121.438058 34.853712 
L 121.3125 34.779887 
L 121.185786 34.708063 
L 121.057948 34.638258 
L 120.929019 34.570491 
L 120.799032 34.504777 
L 120.668017 34.441134 
L 120.53601 34.379578 
L 120.403042 34.320124 
L 120.269148 34.262788 
L 120.134361 34.207582 
L 119.998716 34.154523 
L 119.862245 34.103622 
L 119.724984 34.054892 
L 119.586967 34.008347 
L 119.448229 33.963997 
L 119.308805 33.921855 
L 119.16873 33.881929 
L 119.028039 33.844231 
L 118.886767 33.80877 
L 118.744951 33.775555 
L 118.602625 33.744594 
L 118.459826 33.715895 
L 118.31659 33.689465 
L 118.172953 33.665311 
L 118.02895 33.643439 
L 117.884619 33.623855 
L 117.739995 33.606563 
L 117.595114 33.591568 
L 117.450015 33.578873 
L 117.304732 33.568482 
L 117.159302 33.560398 
L 117.013762 33.554622 
L 116.86815 33.551156 
L 116.7225 33.55 
L 19.5675 33.55 
L 19.42185 33.551156 
L 19.276238 33.554622 
L 19.130698 33.560398 
L 18.985268 33.568482 
L 18.839985 33.578873 
L 18.694886 33.591568 
L 18.550005 33.606563 
L 18.405381 33.623855 
L 18.26105 33.643439 
L 18.117047 33.665311 
L 17.97341 33.689465 
L 17.830174 33.715895 
L 17.687375 33.744594 
L 17.545049 33.775555 
L 17.403233 33.80877 
L 17.261961 33.844231 
L 17.12127 33.881929 
L 16.981195 33.921855 
L 16.841771 33.963997 
L 16.703033 34.008347 
L 16.565016 34.054892 
L 16.427755 34.103622 
L 16.291284 34.154523 
L 16.155639 34.207582 
L 16.020852 34.262788 
L 15.886958 34.320124 
L 15.75399 34.379578 
L 15.621983 34.441134 
L 15.490968 34.504777 
L 15.360981 34.570491 
L 15.232052 34.638258 
L 15.104214 34.708063 
L 14.9775 34.779887 
L 14.851942 34.853712 
L 14.72757 34.929521 
L 14.604417 35.007293 
L 14.482514 35.087009 
L 14.36189 35.168649 
L 14.242578 35.252193 
L 14.124605 35.337619 
L 14.008003 35.424906 
L 13.892801 35.514033 
L 13.779027 35.604975 
L 13.66671 35.697712 
L 13.555878 35.792219 
L 13.446561 35.888472 
L 13.338784 35.986448 
L 13.232575 36.086122 
L 13.127961 36.187468 
L 13.024968 36.290461 
L 12.923622 36.395075 
L 12.823948 36.501284 
L 12.725972 36.609061 
L 12.629719 36.718378 
L 12.535212 36.82921 
L 12.442475 36.941527 
L 12.351533 37.055301 
L 12.262406 37.170503 
L 12.175119 37.287105 
L 12.089693 37.405078 
L 12.006149 37.52439 
L 11.924509 37.645014 
L 11.844793 37.766917 
L 11.767021 37.89007 
L 11.691212 38.014442 
L 11.617387 38.14 
L 11.545563 38.266714 
L 11.475758 38.394552 
L 11.407991 38.523481 
L 11.342277 38.653468 
L 11.278634 38.784483 
L 11.217078 38.91649 
L 11.157624 39.049458 
L 11.100288 39.183352 
L 11.045082 39.318139 
L 10.992023 39.453784 
L 10.941122 39.590255 
L 10.892392 39.727516 
L 10.845847 39.865533 
L 10.801497 40.004271 
L 10.759355 40.143695 
L 10.719429 40.28377 
L 10.681731 40.424461 
L 10.64627 40.565733 
L 10.613055 40.707549 
L 10.582094 40.849875 
L 10.553395 40.992674 
L 10.526965 41.13591 
L 10.502811 41.279547 
L 10.480939 41.42355 
L 10.461355 41.567881 
L 10.444063 41.712505 
L 10.429068 41.857386 
L 10.416373 42.002485 
L 10.405982 42.147768 
L 10.397898 42.293198 
L 10.392122 42.438738 
L 10.388656 42.58435 
L 10.3875 42.73 
L 10.3875 136.06 
L 10.388656 136.20565 
L 10.392122 136.351262 
L 10.397898 136.496802 
L 10.405982 136.642232 
L 10.416373 136.787515 
L 10.429068 136.932614 
L 10.444063 137.077495 
L 10.461355 137.222119 
L 10.480939 137.36645 
L 10.502811 137.510453 
L 10.526965 137.65409 
L 10.553395 137.797326 
L 10.582094 137.940125 
L 10.613055 138.082451 
L 10.64627 138.224267 
L 10.681731 138.365539 
L 10.719429 138.50623 
L 10.759355 138.646305 
L 10.801497 138.785729 
L 10.845847 138.924467 
L 10.892392 139.062484 
L 10.941122 139.199745 
L 10.992023 139.336216 
L 11.045082 139.471861 
L 11.100288 139.606648 
L 11.157624 139.740542 
L 11.217078 139.87351 
L 11.278634 140.005517 
L 11.342277 140.136532 
L 11.407991 140.266519 
L 11.475758 140.395448 
L 11.545563 140.523286 
L 11.617387 140.65 
L 11.691212 140.775558 
L 11.767021 140.89993 
L 11.844793 141.023083 
L 11.924509 141.144986 
L 12.006149 141.26561 
L 12.089693 141.384922 
L 12.175119 141.502895 
L 12.262406 141.619497 
L 12.351533 141.734699 
L 12.442475 141.848473 
L 12.535212 141.96079 
L 12.629719 142.071622 
L 12.725972 142.180939 
L 12.823948 142.288716 
L 12.923622 142.394925 
L 13.024968 142.499539 
L 13.127961 142.602532 
L 13.232575 142.703878 
L 13.338784 142.803552 
L 13.446561 142.901528 
L 13.555878 142.997781 
L 13.66671 143.092288 
L 13.779027 143.185025 
L 13.892801 143.275967 
L 14.008003 143.365094 
L 14.124605 143.452381 
L 14.242578 143.537807 
L 14.36189 143.621351 
L 14.482514 143.702991 
L 14.604417 143.782707 
L 14.72757 143.860479 
L 14.851942 143.936288 
L 14.9775 144.010113 
L 15.104214 144.081937 
L 15.232052 144.151742 
L 15.360981 144.219509 
L 15.490968 144.285223 
L 15.621983 144.348866 
L 15.75399 144.410422 
L 15.886958 144.469876 
L 16.020852 144.527212 
L 16.155639 144.582418 
L 16.291284 144.635477 
L 16.427755 144.686378 
L 16.565016 144.735108 
L 16.703033 144.781653 
L 16.841771 144.826003 
L 16.981195 144.868145 
L 17.12127 144.908071 
L 17.261961 144.945769 
L 17.403233 144.98123 
L 17.545049 145.014445 
L 17.687375 145.045406 
L 17.830174 145.074105 
L 17.97341 145.100535 
L 18.117047 145.124689 
L 18.26105 145.146561 
L 18.405381 145.166145 
L 18.550005 145.183437 
L 18.694886 145.198432 
L 18.839985 145.211127 
L 18.985268 145.221518 
L 19.130698 145.229602 
L 19.276238 145.235378 
L 19.42185 145.238844 
L 19.5675 145.24 
L 116.7225 145.24 
z
" clip-path="url(#p3a79686c66)" style="fill: none; stroke-dasharray: 3.7,1.6; stroke-dashoffset: 0; stroke: #0000ff; stroke-linecap: round"/>
   </g>
   <g id="patch_3">
    <path d="M 184.8075 93.22 
C 215.4075 93.22 192.4575 62.62 226.8825 62.62 
" clip-path="url(#p3a79686c66)" style="fill: none; stroke-dasharray: 7.4,3.2; stroke-dashoffset: 0; stroke: #0000ff; stroke-width: 2; stroke-linejoin: miter; stroke-linecap: round"/>
   </g>
   <g id="patch_4">
    <path d="M 188.6325 96.28 
L 180.9825 93.22 
L 188.6325 90.16 
z
" clip-path="url(#p3a79686c66)" style="fill: #0000ff"/>
   </g>
   <g id="patch_5">
    <path d="M 116.7225 145.24 
L 116.86815 145.238844 
L 117.013762 145.235378 
L 117.159302 145.229602 
L 117.304732 145.221518 
L 117.450015 145.211127 
L 117.595114 145.198432 
L 117.739995 145.183437 
L 117.884619 145.166145 
L 118.02895 145.146561 
L 118.172953 145.124689 
L 118.31659 145.100535 
L 118.459826 145.074105 
L 118.602625 145.045406 
L 118.744951 145.014445 
L 118.886767 144.98123 
L 119.028039 144.945769 
L 119.16873 144.908071 
L 119.308805 144.868145 
L 119.448229 144.826003 
L 119.586967 144.781653 
L 119.724984 144.735108 
L 119.862245 144.686378 
L 119.998716 144.635477 
L 120.134361 144.582418 
L 120.269148 144.527212 
L 120.403042 144.469876 
L 120.53601 144.410422 
L 120.668017 144.348866 
L 120.799032 144.285223 
L 120.929019 144.219509 
L 121.057948 144.151742 
L 121.185786 144.081937 
L 121.3125 144.010113 
L 121.438058 143.936288 
L 121.56243 143.860479 
L 121.685583 143.782707 
L 121.807486 143.702991 
L 121.92811 143.621351 
L 122.047422 143.537807 
L 122.165395 143.452381 
L 122.281997 143.365094 
L 122.397199 143.275967 
L 122.510973 143.185025 
L 122.62329 143.092288 
L 122.734122 142.997781 
L 122.843439 142.901528 
L 122.951216 142.803552 
L 123.057425 142.703878 
L 123.162039 142.602532 
L 123.265032 142.499539 
L 123.366378 142.394925 
L 123.466052 142.288716 
L 123.564028 142.180939 
L 123.660281 142.071622 
L 123.754788 141.96079 
L 123.847525 141.848473 
L 123.938467 141.734699 
L 124.027594 141.619497 
L 124.114881 141.502895 
L 124.200307 141.384922 
L 124.283851 141.26561 
L 124.365491 141.144986 
L 124.445207 141.023083 
L 124.522979 140.89993 
L 124.598788 140.775558 
L 124.672613 140.65 
L 124.744437 140.523286 
L 124.814242 140.395448 
L 124.882009 140.266519 
L 124.947723 140.136532 
L 125.011366 140.005517 
L 125.072922 139.87351 
L 125.132376 139.740542 
L 125.189712 139.606648 
L 125.244918 139.471861 
L 125.297977 139.336216 
L 125.348878 139.199745 
L 125.397608 139.062484 
L 125.444153 138.924467 
L 125.488503 138.785729 
L 125.530645 138.646305 
L 125.570571 138.50623 
L 125.608269 138.365539 
L 125.64373 138.224267 
L 125.676945 138.082451 
L 125.707906 137.940125 
L 125.736605 137.797326 
L 125.763035 137.65409 
L 125.787189 137.510453 
L 125.809061 137.36645 
L 125.828645 137.222119 
L 125.845937 137.077495 
L 125.860932 136.932614 
L 125.873627 136.787515 
L 125.884018 136.642232 
L 125.892102 136.496802 
L 125.897878 136.351262 
L 125.901344 136.20565 
L 125.9025 136.06 
L 125.9025 42.73 
L 125.901344 42.58435 
L 125.897878 42.438738 
L 125.892102 42.293198 
L 125.884018 42.147768 
L 125.873627 42.002485 
L 125.860932 41.857386 
L 125.845937 41.712505 
L 125.828645 41.567881 
L 125.809061 41.42355 
L 125.787189 41.279547 
L 125.763035 41.13591 
L 125.736605 40.992674 
L 125.707906 40.849875 
L 125.676945 40.707549 
L 125.64373 40.565733 
L 125.608269 40.424461 
L 125.570571 40.28377 
L 125.530645 40.143695 
L 125.488503 40.004271 
L 125.444153 39.865533 
L 125.397608 39.727516 
L 125.348878 39.590255 
L 125.297977 39.453784 
L 125.244918 39.318139 
L 125.189712 39.183352 
L 125.132376 39.049458 
L 125.072922 38.91649 
L 125.011366 38.784483 
L 124.947723 38.653468 
L 124.882009 38.523481 
L 124.814242 38.394552 
L 124.744437 38.266714 
L 124.672613 38.14 
L 124.598788 38.014442 
L 124.522979 37.89007 
L 124.445207 37.766917 
L 124.365491 37.645014 
L 124.283851 37.52439 
L 124.200307 37.405078 
L 124.114881 37.287105 
L 124.027594 37.170503 
L 123.938467 37.055301 
L 123.847525 36.941527 
L 123.754788 36.82921 
L 123.660281 36.718378 
L 123.564028 36.609061 
L 123.466052 36.501284 
L 123.366378 36.395075 
L 123.265032 36.290461 
L 123.162039 36.187468 
L 123.057425 36.086122 
L 122.951216 35.986448 
L 122.843439 35.888472 
L 122.734122 35.792219 
L 122.62329 35.697712 
L 122.510973 35.604975 
L 122.397199 35.514033 
L 122.281997 35.424906 
L 122.165395 35.337619 
L 122.047422 35.252193 
L 121.92811 35.168649 
L 121.807486 35.087009 
L 121.685583 35.007293 
L 121.56243 34.929521 
L 121.438058 34.853712 
L 121.3125 34.779887 
L 121.185786 34.708063 
L 121.057948 34.638258 
L 120.929019 34.570491 
L 120.799032 34.504777 
L 120.668017 34.441134 
L 120.53601 34.379578 
L 120.403042 34.320124 
L 120.269148 34.262788 
L 120.134361 34.207582 
L 119.998716 34.154523 
L 119.862245 34.103622 
L 119.724984 34.054892 
L 119.586967 34.008347 
L 119.448229 33.963997 
L 119.308805 33.921855 
L 119.16873 33.881929 
L 119.028039 33.844231 
L 118.886767 33.80877 
L 118.744951 33.775555 
L 118.602625 33.744594 
L 118.459826 33.715895 
L 118.31659 33.689465 
L 118.172953 33.665311 
L 118.02895 33.643439 
L 117.884619 33.623855 
L 117.739995 33.606563 
L 117.595114 33.591568 
L 117.450015 33.578873 
L 117.304732 33.568482 
L 117.159302 33.560398 
L 117.013762 33.554622 
L 116.86815 33.551156 
L 116.7225 33.55 
L 19.5675 33.55 
L 19.42185 33.551156 
L 19.276238 33.554622 
L 19.130698 33.560398 
L 18.985268 33.568482 
L 18.839985 33.578873 
L 18.694886 33.591568 
L 18.550005 33.606563 
L 18.405381 33.623855 
L 18.26105 33.643439 
L 18.117047 33.665311 
L 17.97341 33.689465 
L 17.830174 33.715895 
L 17.687375 33.744594 
L 17.545049 33.775555 
L 17.403233 33.80877 
L 17.261961 33.844231 
L 17.12127 33.881929 
L 16.981195 33.921855 
L 16.841771 33.963997 
L 16.703033 34.008347 
L 16.565016 34.054892 
L 16.427755 34.103622 
L 16.291284 34.154523 
L 16.155639 34.207582 
L 16.020852 34.262788 
L 15.886958 34.320124 
L 15.75399 34.379578 
L 15.621983 34.441134 
L 15.490968 34.504777 
L 15.360981 34.570491 
L 15.232052 34.638258 
L 15.104214 34.708063 
L 14.9775 34.779887 
L 14.851942 34.853712 
L 14.72757 34.929521 
L 14.604417 35.007293 
L 14.482514 35.087009 
L 14.36189 35.168649 
L 14.242578 35.252193 
L 14.124605 35.337619 
L 14.008003 35.424906 
L 13.892801 35.514033 
L 13.779027 35.604975 
L 13.66671 35.697712 
L 13.555878 35.792219 
L 13.446561 35.888472 
L 13.338784 35.986448 
L 13.232575 36.086122 
L 13.127961 36.187468 
L 13.024968 36.290461 
L 12.923622 36.395075 
L 12.823948 36.501284 
L 12.725972 36.609061 
L 12.629719 36.718378 
L 12.535212 36.82921 
L 12.442475 36.941527 
L 12.351533 37.055301 
L 12.262406 37.170503 
L 12.175119 37.287105 
L 12.089693 37.405078 
L 12.006149 37.52439 
L 11.924509 37.645014 
L 11.844793 37.766917 
L 11.767021 37.89007 
L 11.691212 38.014442 
L 11.617387 38.14 
L 11.545563 38.266714 
L 11.475758 38.394552 
L 11.407991 38.523481 
L 11.342277 38.653468 
L 11.278634 38.784483 
L 11.217078 38.91649 
L 11.157624 39.049458 
L 11.100288 39.183352 
L 11.045082 39.318139 
L 10.992023 39.453784 
L 10.941122 39.590255 
L 10.892392 39.727516 
L 10.845847 39.865533 
L 10.801497 40.004271 
L 10.759355 40.143695 
L 10.719429 40.28377 
L 10.681731 40.424461 
L 10.64627 40.565733 
L 10.613055 40.707549 
L 10.582094 40.849875 
L 10.553395 40.992674 
L 10.526965 41.13591 
L 10.502811 41.279547 
L 10.480939 41.42355 
L 10.461355 41.567881 
L 10.444063 41.712505 
L 10.429068 41.857386 
L 10.416373 42.002485 
L 10.405982 42.147768 
L 10.397898 42.293198 
L 10.392122 42.438738 
L 10.388656 42.58435 
L 10.3875 42.73 
L 10.3875 136.06 
L 10.388656 136.20565 
L 10.392122 136.351262 
L 10.397898 136.496802 
L 10.405982 136.642232 
L 10.416373 136.787515 
L 10.429068 136.932614 
L 10.444063 137.077495 
L 10.461355 137.222119 
L 10.480939 137.36645 
L 10.502811 137.510453 
L 10.526965 137.65409 
L 10.553395 137.797326 
L 10.582094 137.940125 
L 10.613055 138.082451 
L 10.64627 138.224267 
L 10.681731 138.365539 
L 10.719429 138.50623 
L 10.759355 138.646305 
L 10.801497 138.785729 
L 10.845847 138.924467 
L 10.892392 139.062484 
L 10.941122 139.199745 
L 10.992023 139.336216 
L 11.045082 139.471861 
L 11.100288 139.606648 
L 11.157624 139.740542 
L 11.217078 139.87351 
L 11.278634 140.005517 
L 11.342277 140.136532 
L 11.407991 140.266519 
L 11.475758 140.395448 
L 11.545563 140.523286 
L 11.617387 140.65 
L 11.691212 140.775558 
L 11.767021 140.89993 
L 11.844793 141.023083 
L 11.924509 141.144986 
L 12.006149 141.26561 
L 12.089693 141.384922 
L 12.175119 141.502895 
L 12.262406 141.619497 
L 12.351533 141.734699 
L 12.442475 141.848473 
L 12.535212 141.96079 
L 12.629719 142.071622 
L 12.725972 142.180939 
L 12.823948 142.288716 
L 12.923622 142.394925 
L 13.024968 142.499539 
L 13.127961 142.602532 
L 13.232575 142.703878 
L 13.338784 142.803552 
L 13.446561 142.901528 
L 13.555878 142.997781 
L 13.66671 143.092288 
L 13.779027 143.185025 
L 13.892801 143.275967 
L 14.008003 143.365094 
L 14.124605 143.452381 
L 14.242578 143.537807 
L 14.36189 143.621351 
L 14.482514 143.702991 
L 14.604417 143.782707 
L 14.72757 143.860479 
L 14.851942 143.936288 
L 14.9775 144.010113 
L 15.104214 144.081937 
L 15.232052 144.151742 
L 15.360981 144.219509 
L 15.490968 144.285223 
L 15.621983 144.348866 
L 15.75399 144.410422 
L 15.886958 144.469876 
L 16.020852 144.527212 
L 16.155639 144.582418 
L 16.291284 144.635477 
L 16.427755 144.686378 
L 16.565016 144.735108 
L 16.703033 144.781653 
L 16.841771 144.826003 
L 16.981195 144.868145 
L 17.12127 144.908071 
L 17.261961 144.945769 
L 17.403233 144.98123 
L 17.545049 145.014445 
L 17.687375 145.045406 
L 17.830174 145.074105 
L 17.97341 145.100535 
L 18.117047 145.124689 
L 18.26105 145.146561 
L 18.405381 145.166145 
L 18.550005 145.183437 
L 18.694886 145.198432 
L 18.839985 145.211127 
L 18.985268 145.221518 
L 19.130698 145.229602 
L 19.276238 145.235378 
L 19.42185 145.238844 
L 19.5675 145.24 
L 116.7225 145.24 
z
" clip-path="url(#p3a79686c66)" style="fill: none; stroke-dasharray: 3.7,1.6; stroke-dashoffset: 0; stroke: #0000ff; stroke-linecap: round"/>
   </g>
   <g id="patch_6">
    <path d="M 184.8075 93.22 
C 215.4075 93.22 192.4575 62.62 226.8825 62.62 
" clip-path="url(#p3a79686c66)" style="fill: none; stroke-dasharray: 7.4,3.2; stroke-dashoffset: 0; stroke: #0000ff; stroke-width: 2; stroke-linejoin: miter; stroke-linecap: round"/>
   </g>
   <g id="patch_7">
    <path d="M 188.6325 96.28 
L 180.9825 93.22 
L 188.6325 90.16 
z
" clip-path="url(#p3a79686c66)" style="fill: #0000ff"/>
   </g>
   <g id="line2d_1">
    <path d="M 27.9825 139.12 
L 27.9825 101.82625 
M 27.9825 84.61375 
L 27.9825 47.32 
" clip-path="url(#p3a79686c66)" style="fill: none; stroke: #000000; stroke-width: 2; stroke-linecap: round"/>
   </g>
   <g id="line2d_2">
    <path d="M 39.4575 84.61375 
L 16.5075 84.61375 
" clip-path="url(#p3a79686c66)" style="fill: none; stroke: #000000; stroke-width: 2; stroke-linecap: round"/>
   </g>
   <g id="line2d_3">
    <path d="M 33.72 90.35125 
L 22.245 90.35125 
" clip-path="url(#p3a79686c66)" style="fill: none; stroke: #000000; stroke-width: 2; stroke-linecap: round"/>
   </g>
   <g id="line2d_4">
    <path d="M 39.4575 96.08875 
L 16.5075 96.08875 
" clip-path="url(#p3a79686c66)" style="fill: none; stroke: #000000; stroke-width: 2; stroke-linecap: round"/>
   </g>
   <g id="line2d_5">
    <path d="M 33.72 101.82625 
L 22.245 101.82625 
" clip-path="url(#p3a79686c66)" style="fill: none; stroke: #000000; stroke-width: 2; stroke-linecap: round"/>
   </g>
   <g id="line2d_6">
    <path d="M 27.9825 47.32 
L 58.5825 47.32 
L 61.1325 39.67 
L 66.2325 54.97 
L 71.3325 39.67 
L 76.4325 54.97 
L 81.5325 39.67 
L 86.6325 54.97 
L 89.1825 47.32 
L 119.7825 47.32 
" clip-path="url(#p3a79686c66)" style="fill: none; stroke: #000000; stroke-width: 2; stroke-linecap: round"/>
   </g>
   <g id="line2d_7">
    <path d="M 119.7825 47.32 
L 135.0825 47.32 
L 150.3825 47.32 
" clip-path="url(#p3a79686c66)" style="fill: none; stroke: #000000; stroke-width: 2; stroke-linecap: round"/>
   </g>
   <g id="line2d_8">
    <path d="M 150.3825 47.32 
L 150.3825 77.92 
L 158.0325 80.47 
L 142.7325 85.57 
L 158.0325 90.67 
L 142.7325 95.77 
L 158.0325 100.87 
L 142.7325 105.97 
L 150.3825 108.52 
L 150.3825 139.12 
" clip-path="url(#p3a79686c66)" style="fill: none; stroke: #000000; stroke-width: 2; stroke-linecap: round"/>
   </g>
   <g id="line2d_9">
    <path d="M 150.3825 139.12 
L 89.1825 139.12 
L 27.9825 139.12 
" clip-path="url(#p3a79686c66)" style="fill: none; stroke: #000000; stroke-width: 2; stroke-linecap: round"/>
   </g>
   <g id="line2d_10">
    <path d="M 27.9825 139.12 
L 27.9825 101.82625 
M 27.9825 84.61375 
L 27.9825 47.32 
" clip-path="url(#p3a79686c66)" style="fill: none; stroke: #000000; stroke-width: 2; stroke-linecap: round"/>
   </g>
   <g id="line2d_11">
    <path d="M 39.4575 84.61375 
L 16.5075 84.61375 
" clip-path="url(#p3a79686c66)" style="fill: none; stroke: #000000; stroke-width: 2; stroke-linecap: round"/>
   </g>
   <g id="line2d_12">
    <path d="M 33.72 90.35125 
L 22.245 90.35125 
" clip-path="url(#p3a79686c66)" style="fill: none; stroke: #000000; stroke-width: 2; stroke-linecap: round"/>
   </g>
   <g id="line2d_13">
    <path d="M 39.4575 96.08875 
L 16.5075 96.08875 
" clip-path="url(#p3a79686c66)" style="fill: none; stroke: #000000; stroke-width: 2; stroke-linecap: round"/>
   </g>
   <g id="line2d_14">
    <path d="M 33.72 101.82625 
L 22.245 101.82625 
" clip-path="url(#p3a79686c66)" style="fill: none; stroke: #000000; stroke-width: 2; stroke-linecap: round"/>
   </g>
   <g id="line2d_15">
    <path d="M 27.9825 47.32 
L 58.5825 47.32 
L 61.1325 39.67 
L 66.2325 54.97 
L 71.3325 39.67 
L 76.4325 54.97 
L 81.5325 39.67 
L 86.6325 54.97 
L 89.1825 47.32 
L 119.7825 47.32 
" clip-path="url(#p3a79686c66)" style="fill: none; stroke: #000000; stroke-width: 2; stroke-linecap: round"/>
   </g>
   <g id="line2d_16">
    <path d="M 119.7825 47.32 
L 135.0825 47.32 
L 150.3825 47.32 
" clip-path="url(#p3a79686c66)" style="fill: none; stroke: #000000; stroke-width: 2; stroke-linecap: round"/>
   </g>
   <g id="line2d_17">
    <path d="M 150.3825 47.32 
L 150.3825 77.92 
L 158.0325 80.47 
L 142.7325 85.57 
L 158.0325 90.67 
L 142.7325 95.77 
L 158.0325 100.87 
L 142.7325 105.97 
L 150.3825 108.52 
L 150.3825 139.12 
" clip-path="url(#p3a79686c66)" style="fill: none; stroke: #000000; stroke-width: 2; stroke-linecap: round"/>
   </g>
   <g id="line2d_18">
    <path d="M 150.3825 139.12 
L 89.1825 139.12 
L 27.9825 139.12 
" clip-path="url(#p3a79686c66)" style="fill: none; stroke: #000000; stroke-width: 2; stroke-linecap: round"/>
   </g>
   <g id="text_1">
    <g clip-path="url(#p3a79686c66)">
     <!-- $V_{TH}$ -->
     <g transform="translate(42.5175 96.669219)scale(0.125 -0.125)">
      <defs>
       <path id="STIXGeneral-Italic-56" d="M 4403 4179 
L 4403 4077 
Q 4198 4070 4045 3821 
L 1658 -115 
L 1536 -115 
L 1011 3104 
Q 902 3776 828 3910 
Q 755 4045 486 4077 
L 486 4179 
L 2022 4179 
L 2022 4077 
Q 1722 4045 1629 3981 
Q 1536 3917 1536 3750 
Q 1536 3686 1542 3654 
L 1958 819 
L 3302 3123 
Q 3616 3661 3616 3859 
Q 3616 4032 3219 4077 
L 3219 4179 
L 4403 4179 
z
" transform="scale(0.015625)"/>
       <path id="STIXGeneral-Italic-54" d="M 4051 4179 
L 3770 3130 
L 3661 3142 
Q 3680 3302 3680 3437 
Q 3680 3955 3034 3955 
L 2662 3955 
L 1786 819 
Q 1696 506 1696 397 
Q 1696 250 1766 195 
Q 1837 141 2035 122 
L 2259 102 
L 2259 0 
L 416 0 
L 416 102 
Q 749 134 889 230 
Q 1030 326 1101 582 
L 2016 3955 
Q 1254 3955 988 3817 
Q 723 3680 493 3162 
L 378 3187 
L 646 4179 
L 4051 4179 
z
" transform="scale(0.015625)"/>
       <path id="STIXGeneral-Italic-48" d="M 4922 4179 
L 4922 4077 
Q 4640 4026 4550 3949 
Q 4461 3872 4384 3603 
L 3539 525 
Q 3520 448 3520 371 
Q 3520 237 3616 185 
Q 3712 134 4026 102 
L 4026 0 
L 2272 0 
L 2272 102 
Q 2598 128 2729 237 
Q 2861 346 2925 595 
L 3334 2086 
L 1510 2086 
L 1088 525 
Q 1069 461 1069 384 
Q 1069 243 1149 192 
Q 1229 141 1517 102 
L 1517 0 
L -51 0 
L -51 102 
Q 211 128 310 230 
Q 410 333 499 653 
L 1254 3405 
Q 1331 3699 1331 3814 
Q 1331 3949 1238 3997 
Q 1146 4045 838 4077 
L 838 4179 
L 2573 4179 
L 2573 4077 
Q 2285 4058 2141 3955 
Q 1997 3853 1933 3622 
L 1587 2355 
L 3411 2355 
L 3706 3405 
Q 3795 3738 3795 3808 
Q 3795 3930 3692 3994 
Q 3590 4058 3334 4077 
L 3334 4179 
L 4922 4179 
z
" transform="scale(0.015625)"/>
      </defs>
      <use xlink:href="#STIXGeneral-Italic-56" transform="translate(0 0.703125)"/>
      <use xlink:href="#STIXGeneral-Italic-54" transform="translate(61.099991 -12.525)scale(0.7)"/>
      <use xlink:href="#STIXGeneral-Italic-48" transform="translate(100.019984 -12.525)scale(0.7)"/>
     </g>
    </g>
   </g>
   <g id="text_2">
    <g clip-path="url(#p3a79686c66)">
     <!-- $R_{TH}$ -->
     <g transform="translate(64.195 67.528047)scale(0.125 -0.125)">
      <defs>
       <path id="STIXGeneral-Italic-52" d="M 845 4179 
L 2458 4179 
Q 3078 4179 3420 3936 
Q 3763 3693 3763 3277 
Q 3763 2778 3341 2458 
Q 3091 2266 2502 2131 
L 3072 627 
Q 3181 333 3299 217 
Q 3418 102 3629 102 
L 3629 0 
L 2688 0 
L 1901 2074 
L 1478 2106 
L 1126 806 
Q 1043 512 1043 403 
Q 1043 256 1126 192 
Q 1210 128 1472 102 
L 1472 0 
L -83 0 
L -83 102 
Q 173 134 278 243 
Q 384 352 461 646 
L 1222 3405 
Q 1299 3699 1299 3808 
Q 1299 3923 1210 3987 
Q 1133 4038 845 4077 
L 845 4179 
z
M 1958 3795 
L 1555 2342 
Q 1754 2310 1882 2310 
Q 2451 2310 2771 2566 
Q 3091 2822 3091 3270 
Q 3091 3603 2892 3795 
Q 2694 3987 2323 3987 
Q 2010 3987 1958 3795 
z
" transform="scale(0.015625)"/>
      </defs>
      <use xlink:href="#STIXGeneral-Italic-52" transform="translate(0 0.703125)"/>
      <use xlink:href="#STIXGeneral-Italic-54" transform="translate(61.099991 -12.525)scale(0.7)"/>
      <use xlink:href="#STIXGeneral-Italic-48" transform="translate(100.019984 -12.525)scale(0.7)"/>
     </g>
    </g>
   </g>
   <g id="text_3">
    <g clip-path="url(#p3a79686c66)">
     <!-- $R_{L}$ -->
     <g transform="translate(161.0925 96.669219)scale(0.125 -0.125)">
      <defs>
       <path id="STIXGeneral-Italic-4c" d="M 3578 1152 
L 3206 0 
L -51 0 
L -51 102 
Q 218 128 301 211 
Q 384 294 474 602 
L 1254 3405 
Q 1325 3642 1325 3802 
Q 1325 3942 1225 4000 
Q 1126 4058 832 4077 
L 832 4179 
L 2579 4179 
L 2579 4077 
Q 2285 4058 2147 3955 
Q 2010 3853 1933 3584 
L 1165 838 
Q 1101 595 1101 493 
Q 1101 346 1241 288 
Q 1382 230 1773 230 
Q 2266 230 2480 275 
Q 2694 320 2925 474 
Q 3187 646 3450 1190 
L 3578 1152 
z
" transform="scale(0.015625)"/>
      </defs>
      <use xlink:href="#STIXGeneral-Italic-52" transform="translate(0 0.703125)"/>
      <use xlink:href="#STIXGeneral-Italic-4c" transform="translate(61.099991 -12.525)scale(0.7)"/>
     </g>
    </g>
   </g>
   <g id="text_4">
    <g clip-path="url(#p3a79686c66)">
     <!-- Thevenin Equivalent -->
     <g style="fill: #0000ff" transform="translate(6.872305 29.420391)scale(0.125 -0.125)">
      <defs>
       <path id="DejaVuSans-54" d="M -19 4666 
L 3928 4666 
L 3928 4134 
L 2272 4134 
L 2272 0 
L 1638 0 
L 1638 4134 
L -19 4134 
L -19 4666 
z
" transform="scale(0.015625)"/>
       <path id="DejaVuSans-68" d="M 3513 2113 
L 3513 0 
L 2938 0 
L 2938 2094 
Q 2938 2591 2744 2837 
Q 2550 3084 2163 3084 
Q 1697 3084 1428 2787 
Q 1159 2491 1159 1978 
L 1159 0 
L 581 0 
L 581 4863 
L 1159 4863 
L 1159 2956 
Q 1366 3272 1645 3428 
Q 1925 3584 2291 3584 
Q 2894 3584 3203 3211 
Q 3513 2838 3513 2113 
z
" transform="scale(0.015625)"/>
       <path id="DejaVuSans-65" d="M 3597 1894 
L 3597 1613 
L 953 1613 
Q 991 1019 1311 708 
Q 1631 397 2203 397 
Q 2534 397 2845 478 
Q 3156 559 3463 722 
L 3463 178 
Q 3153 47 2828 -22 
Q 2503 -91 2169 -91 
Q 1331 -91 842 396 
Q 353 884 353 1716 
Q 353 2575 817 3079 
Q 1281 3584 2069 3584 
Q 2775 3584 3186 3129 
Q 3597 2675 3597 1894 
z
M 3022 2063 
Q 3016 2534 2758 2815 
Q 2500 3097 2075 3097 
Q 1594 3097 1305 2825 
Q 1016 2553 972 2059 
L 3022 2063 
z
" transform="scale(0.015625)"/>
       <path id="DejaVuSans-76" d="M 191 3500 
L 800 3500 
L 1894 563 
L 2988 3500 
L 3597 3500 
L 2284 0 
L 1503 0 
L 191 3500 
z
" transform="scale(0.015625)"/>
       <path id="DejaVuSans-6e" d="M 3513 2113 
L 3513 0 
L 2938 0 
L 2938 2094 
Q 2938 2591 2744 2837 
Q 2550 3084 2163 3084 
Q 1697 3084 1428 2787 
Q 1159 2491 1159 1978 
L 1159 0 
L 581 0 
L 581 3500 
L 1159 3500 
L 1159 2956 
Q 1366 3272 1645 3428 
Q 1925 3584 2291 3584 
Q 2894 3584 3203 3211 
Q 3513 2838 3513 2113 
z
" transform="scale(0.015625)"/>
       <path id="DejaVuSans-69" d="M 603 3500 
L 1178 3500 
L 1178 0 
L 603 0 
L 603 3500 
z
M 603 4863 
L 1178 4863 
L 1178 4134 
L 603 4134 
L 603 4863 
z
" transform="scale(0.015625)"/>
       <path id="DejaVuSans-20" transform="scale(0.015625)"/>
       <path id="DejaVuSans-45" d="M 628 4666 
L 3578 4666 
L 3578 4134 
L 1259 4134 
L 1259 2753 
L 3481 2753 
L 3481 2222 
L 1259 2222 
L 1259 531 
L 3634 531 
L 3634 0 
L 628 0 
L 628 4666 
z
" transform="scale(0.015625)"/>
       <path id="DejaVuSans-71" d="M 947 1747 
Q 947 1113 1208 752 
Q 1469 391 1925 391 
Q 2381 391 2643 752 
Q 2906 1113 2906 1747 
Q 2906 2381 2643 2742 
Q 2381 3103 1925 3103 
Q 1469 3103 1208 2742 
Q 947 2381 947 1747 
z
M 2906 525 
Q 2725 213 2448 61 
Q 2172 -91 1784 -91 
Q 1150 -91 751 415 
Q 353 922 353 1747 
Q 353 2572 751 3078 
Q 1150 3584 1784 3584 
Q 2172 3584 2448 3432 
Q 2725 3281 2906 2969 
L 2906 3500 
L 3481 3500 
L 3481 -1331 
L 2906 -1331 
L 2906 525 
z
" transform="scale(0.015625)"/>
       <path id="DejaVuSans-75" d="M 544 1381 
L 544 3500 
L 1119 3500 
L 1119 1403 
Q 1119 906 1312 657 
Q 1506 409 1894 409 
Q 2359 409 2629 706 
Q 2900 1003 2900 1516 
L 2900 3500 
L 3475 3500 
L 3475 0 
L 2900 0 
L 2900 538 
Q 2691 219 2414 64 
Q 2138 -91 1772 -91 
Q 1169 -91 856 284 
Q 544 659 544 1381 
z
M 1991 3584 
L 1991 3584 
z
" transform="scale(0.015625)"/>
       <path id="DejaVuSans-61" d="M 2194 1759 
Q 1497 1759 1228 1600 
Q 959 1441 959 1056 
Q 959 750 1161 570 
Q 1363 391 1709 391 
Q 2188 391 2477 730 
Q 2766 1069 2766 1631 
L 2766 1759 
L 2194 1759 
z
M 3341 1997 
L 3341 0 
L 2766 0 
L 2766 531 
Q 2569 213 2275 61 
Q 1981 -91 1556 -91 
Q 1019 -91 701 211 
Q 384 513 384 1019 
Q 384 1609 779 1909 
Q 1175 2209 1959 2209 
L 2766 2209 
L 2766 2266 
Q 2766 2663 2505 2880 
Q 2244 3097 1772 3097 
Q 1472 3097 1187 3025 
Q 903 2953 641 2809 
L 641 3341 
Q 956 3463 1253 3523 
Q 1550 3584 1831 3584 
Q 2591 3584 2966 3190 
Q 3341 2797 3341 1997 
z
" transform="scale(0.015625)"/>
       <path id="DejaVuSans-6c" d="M 603 4863 
L 1178 4863 
L 1178 0 
L 603 0 
L 603 4863 
z
" transform="scale(0.015625)"/>
       <path id="DejaVuSans-74" d="M 1172 4494 
L 1172 3500 
L 2356 3500 
L 2356 3053 
L 1172 3053 
L 1172 1153 
Q 1172 725 1289 603 
Q 1406 481 1766 481 
L 2356 481 
L 2356 0 
L 1766 0 
Q 1100 0 847 248 
Q 594 497 594 1153 
L 594 3053 
L 172 3053 
L 172 3500 
L 594 3500 
L 594 4494 
L 1172 4494 
z
" transform="scale(0.015625)"/>
      </defs>
      <use xlink:href="#DejaVuSans-54"/>
      <use xlink:href="#DejaVuSans-68" x="61.083984"/>
      <use xlink:href="#DejaVuSans-65" x="124.462891"/>
      <use xlink:href="#DejaVuSans-76" x="185.986328"/>
      <use xlink:href="#DejaVuSans-65" x="245.166016"/>
      <use xlink:href="#DejaVuSans-6e" x="306.689453"/>
      <use xlink:href="#DejaVuSans-69" x="370.068359"/>
      <use xlink:href="#DejaVuSans-6e" x="397.851562"/>
      <use xlink:href="#DejaVuSans-20" x="461.230469"/>
      <use xlink:href="#DejaVuSans-45" x="493.017578"/>
      <use xlink:href="#DejaVuSans-71" x="556.201172"/>
      <use xlink:href="#DejaVuSans-75" x="619.677734"/>
      <use xlink:href="#DejaVuSans-69" x="683.056641"/>
      <use xlink:href="#DejaVuSans-76" x="710.839844"/>
      <use xlink:href="#DejaVuSans-61" x="770.019531"/>
      <use xlink:href="#DejaVuSans-6c" x="831.298828"/>
      <use xlink:href="#DejaVuSans-65" x="859.082031"/>
      <use xlink:href="#DejaVuSans-6e" x="920.605469"/>
      <use xlink:href="#DejaVuSans-74" x="983.984375"/>
     </g>
    </g>
   </g>
   <g id="text_5">
    <g clip-path="url(#p3a79686c66)">
     <!-- Load -->
     <g style="fill: #0000ff" transform="translate(229.9425 66.069219)scale(0.125 -0.125)">
      <defs>
       <path id="DejaVuSans-4c" d="M 628 4666 
L 1259 4666 
L 1259 531 
L 3531 531 
L 3531 0 
L 628 0 
L 628 4666 
z
" transform="scale(0.015625)"/>
       <path id="DejaVuSans-6f" d="M 1959 3097 
Q 1497 3097 1228 2736 
Q 959 2375 959 1747 
Q 959 1119 1226 758 
Q 1494 397 1959 397 
Q 2419 397 2687 759 
Q 2956 1122 2956 1747 
Q 2956 2369 2687 2733 
Q 2419 3097 1959 3097 
z
M 1959 3584 
Q 2709 3584 3137 3096 
Q 3566 2609 3566 1747 
Q 3566 888 3137 398 
Q 2709 -91 1959 -91 
Q 1206 -91 779 398 
Q 353 888 353 1747 
Q 353 2609 779 3096 
Q 1206 3584 1959 3584 
z
" transform="scale(0.015625)"/>
       <path id="DejaVuSans-64" d="M 2906 2969 
L 2906 4863 
L 3481 4863 
L 3481 0 
L 2906 0 
L 2906 525 
Q 2725 213 2448 61 
Q 2172 -91 1784 -91 
Q 1150 -91 751 415 
Q 353 922 353 1747 
Q 353 2572 751 3078 
Q 1150 3584 1784 3584 
Q 2172 3584 2448 3432 
Q 2725 3281 2906 2969 
z
M 947 1747 
Q 947 1113 1208 752 
Q 1469 391 1925 391 
Q 2381 391 2643 752 
Q 2906 1113 2906 1747 
Q 2906 2381 2643 2742 
Q 2381 3103 1925 3103 
Q 1469 3103 1208 2742 
Q 947 2381 947 1747 
z
" transform="scale(0.015625)"/>
      </defs>
      <use xlink:href="#DejaVuSans-4c"/>
      <use xlink:href="#DejaVuSans-6f" x="53.962891"/>
      <use xlink:href="#DejaVuSans-61" x="115.144531"/>
      <use xlink:href="#DejaVuSans-64" x="176.423828"/>
     </g>
    </g>
   </g>
   <g id="text_6">
    <g clip-path="url(#p3a79686c66)">
     <!-- $V_{TH}$ -->
     <g transform="translate(42.5175 96.669219)scale(0.125 -0.125)">
      <use xlink:href="#STIXGeneral-Italic-56" transform="translate(0 0.703125)"/>
      <use xlink:href="#STIXGeneral-Italic-54" transform="translate(61.099991 -12.525)scale(0.7)"/>
      <use xlink:href="#STIXGeneral-Italic-48" transform="translate(100.019984 -12.525)scale(0.7)"/>
     </g>
    </g>
   </g>
   <g id="text_7">
    <g clip-path="url(#p3a79686c66)">
     <!-- $R_{TH}$ -->
     <g transform="translate(64.195 67.528047)scale(0.125 -0.125)">
      <use xlink:href="#STIXGeneral-Italic-52" transform="translate(0 0.703125)"/>
      <use xlink:href="#STIXGeneral-Italic-54" transform="translate(61.099991 -12.525)scale(0.7)"/>
      <use xlink:href="#STIXGeneral-Italic-48" transform="translate(100.019984 -12.525)scale(0.7)"/>
     </g>
    </g>
   </g>
   <g id="text_8">
    <g clip-path="url(#p3a79686c66)">
     <!-- $R_{L}$ -->
     <g transform="translate(161.0925 96.669219)scale(0.125 -0.125)">
      <use xlink:href="#STIXGeneral-Italic-52" transform="translate(0 0.703125)"/>
      <use xlink:href="#STIXGeneral-Italic-4c" transform="translate(61.099991 -12.525)scale(0.7)"/>
     </g>
    </g>
   </g>
   <g id="text_9">
    <g clip-path="url(#p3a79686c66)">
     <!-- Thevenin Equivalent -->
     <g style="fill: #0000ff" transform="translate(6.872305 29.420391)scale(0.125 -0.125)">
      <use xlink:href="#DejaVuSans-54"/>
      <use xlink:href="#DejaVuSans-68" x="61.083984"/>
      <use xlink:href="#DejaVuSans-65" x="124.462891"/>
      <use xlink:href="#DejaVuSans-76" x="185.986328"/>
      <use xlink:href="#DejaVuSans-65" x="245.166016"/>
      <use xlink:href="#DejaVuSans-6e" x="306.689453"/>
      <use xlink:href="#DejaVuSans-69" x="370.068359"/>
      <use xlink:href="#DejaVuSans-6e" x="397.851562"/>
      <use xlink:href="#DejaVuSans-20" x="461.230469"/>
      <use xlink:href="#DejaVuSans-45" x="493.017578"/>
      <use xlink:href="#DejaVuSans-71" x="556.201172"/>
      <use xlink:href="#DejaVuSans-75" x="619.677734"/>
      <use xlink:href="#DejaVuSans-69" x="683.056641"/>
      <use xlink:href="#DejaVuSans-76" x="710.839844"/>
      <use xlink:href="#DejaVuSans-61" x="770.019531"/>
      <use xlink:href="#DejaVuSans-6c" x="831.298828"/>
      <use xlink:href="#DejaVuSans-65" x="859.082031"/>
      <use xlink:href="#DejaVuSans-6e" x="920.605469"/>
      <use xlink:href="#DejaVuSans-74" x="983.984375"/>
     </g>
    </g>
   </g>
   <g id="text_10">
    <g clip-path="url(#p3a79686c66)">
     <!-- Load -->
     <g style="fill: #0000ff" transform="translate(229.9425 66.069219)scale(0.125 -0.125)">
      <use xlink:href="#DejaVuSans-4c"/>
      <use xlink:href="#DejaVuSans-6f" x="53.962891"/>
      <use xlink:href="#DejaVuSans-61" x="115.144531"/>
      <use xlink:href="#DejaVuSans-64" x="176.423828"/>
     </g>
    </g>
   </g>
  </g>
 </g>
 <defs>
  <clipPath id="p3a79686c66">
   <rect x="7.2" y="7.2" width="265.1745" height="141.1"/>
  </clipPath>
 </defs>
</svg>
