<?xml version="1.0" encoding="utf-8" standalone="no"?>
<!DOCTYPE svg PUBLIC "-//W3C//DTD SVG 1.1//EN"
  "http://www.w3.org/Graphics/SVG/1.1/DTD/svg11.dtd">
<svg xmlns:xlink="http://www.w3.org/1999/xlink" width="413.4036pt" height="147.085pt" viewBox="0 0 413.4036 147.085" xmlns="http://www.w3.org/2000/svg" version="1.1">
 <metadata>
  <rdf:RDF xmlns:dc="http://purl.org/dc/elements/1.1/" xmlns:cc="http://creativecommons.org/ns#" xmlns:rdf="http://www.w3.org/1999/02/22-rdf-syntax-ns#">
   <cc:Work>
    <dc:type rdf:resource="http://purl.org/dc/dcmitype/StillImage"/>
    <dc:date>2023-10-30T06:55:03.187638</dc:date>
    <dc:format>image/svg+xml</dc:format>
    <dc:creator>
     <cc:Agent>
      <dc:title>Matplotlib v3.5.2, https://matplotlib.org/</dc:title>
     </cc:Agent>
    </dc:creator>
   </cc:Work>
  </rdf:RDF>
 </metadata>
 <defs>
  <style type="text/css">*{stroke-linejoin: round; stroke-linecap: butt}</style>
 </defs>
 <g id="figure_1">
  <g id="patch_1">
   <path d="M 0 147.085 
L 413.4036 147.085 
L 413.4036 0 
L 0 0 
L 0 147.085 
z
" style="fill: none"/>
  </g>
  <g id="axes_1">
   <g id="patch_2">
    <path d="M 48.9486 103.93 
C 53.006207 103.93 56.898172 102.317895 59.767334 99.448734 
C 62.636495 96.579572 64.2486 92.687607 64.2486 88.63 
C 64.2486 84.572393 62.636495 80.680428 59.767334 77.811266 
C 56.898172 74.942105 53.006207 73.33 48.9486 73.33 
C 44.890993 73.33 40.999028 74.942105 38.129866 77.811266 
C 35.260705 80.680428 33.6486 84.572393 33.6486 88.63 
C 33.6486 92.687607 35.260705 96.579572 38.129866 99.448734 
C 40.999028 102.317895 44.890993 103.93 48.9486 103.93 
L 48.9486 103.93 
z
" clip-path="url(#p34efb22d57)" style="fill: none; stroke: #000000; stroke-width: 2; stroke-linejoin: miter"/>
   </g>
   <g id="patch_3">
    <path d="M 48.9486 103.93 
C 53.006207 103.93 56.898172 102.317895 59.767334 99.448734 
C 62.636495 96.579572 64.2486 92.687607 64.2486 88.63 
C 64.2486 84.572393 62.636495 80.680428 59.767334 77.811266 
C 56.898172 74.942105 53.006207 73.33 48.9486 73.33 
C 44.890993 73.33 40.999028 74.942105 38.129866 77.811266 
C 35.260705 80.680428 33.6486 84.572393 33.6486 88.63 
C 33.6486 92.687607 35.260705 96.579572 38.129866 99.448734 
C 40.999028 102.317895 44.890993 103.93 48.9486 103.93 
L 48.9486 103.93 
z
" clip-path="url(#p34efb22d57)" style="fill: none; stroke: #000000; stroke-width: 2; stroke-linejoin: miter"/>
   </g>
   <g id="line2d_1">
    <path d="M 48.9486 134.53 
L 48.9486 103.93 
L 48.9486 103.93 
M 48.9486 73.33 
L 48.9486 73.33 
L 48.9486 42.73 
" clip-path="url(#p34efb22d57)" style="fill: none; stroke: #000000; stroke-width: 2; stroke-linecap: round"/>
   </g>
   <g id="line2d_2">
    <path d="M 48.9486 96.28 
L 48.9486 88.63 
" clip-path="url(#p34efb22d57)" style="fill: none; stroke: #000000; stroke-width: 2; stroke-linecap: round"/>
   </g>
   <g id="patch_4">
    <path d="M 46.6536 88.63 
L 48.9486 80.98 
L 51.2436 88.63 
z
" clip-path="url(#p34efb22d57)"/>
   </g>
   <g id="line2d_3">
    <path d="M 48.9486 42.73 
L 79.5486 42.73 
L 110.1486 42.73 
" clip-path="url(#p34efb22d57)" style="fill: none; stroke: #000000; stroke-width: 2; stroke-linecap: round"/>
   </g>
   <g id="line2d_4">
    <path d="M 110.1486 42.73 
L 110.1486 73.33 
L 117.7986 75.88 
L 102.4986 80.98 
L 117.7986 86.08 
L 102.4986 91.18 
L 117.7986 96.28 
L 102.4986 101.38 
L 110.1486 103.93 
L 110.1486 134.53 
" clip-path="url(#p34efb22d57)" style="fill: none; stroke: #000000; stroke-width: 2; stroke-linecap: round"/>
   </g>
   <g id="line2d_5">
    <path d="M 110.1486 42.73 
L 140.7486 42.73 
L 171.3486 42.73 
" clip-path="url(#p34efb22d57)" style="fill: none; stroke: #000000; stroke-width: 2; stroke-linecap: round"/>
   </g>
   <g id="line2d_6">
    <path d="M 171.3486 134.53 
L 110.1486 134.53 
L 48.9486 134.53 
" clip-path="url(#p34efb22d57)" style="fill: none; stroke: #000000; stroke-width: 2; stroke-linecap: round"/>
   </g>
   <g id="line2d_7">
    <path d="M 194.2986 88.63 
L 224.8986 88.63 
L 240.1986 88.63 
" clip-path="url(#p34efb22d57)" style="fill: none; stroke: #ee82ee; stroke-width: 6; stroke-linecap: round"/>
   </g>
   <g id="patch_5">
    <path d="M 240.1986 80.98 
L 255.4986 88.63 
L 240.1986 96.28 
z
" clip-path="url(#p34efb22d57)" style="fill: #ee82ee"/>
   </g>
   <g id="line2d_8">
    <path d="M 309.0486 134.53 
L 309.0486 97.23625 
M 309.0486 80.02375 
L 309.0486 42.73 
" clip-path="url(#p34efb22d57)" style="fill: none; stroke: #000000; stroke-width: 2; stroke-linecap: round"/>
   </g>
   <g id="line2d_9">
    <path d="M 320.5236 80.02375 
L 297.5736 80.02375 
" clip-path="url(#p34efb22d57)" style="fill: none; stroke: #000000; stroke-width: 2; stroke-linecap: round"/>
   </g>
   <g id="line2d_10">
    <path d="M 314.7861 85.76125 
L 303.3111 85.76125 
" clip-path="url(#p34efb22d57)" style="fill: none; stroke: #000000; stroke-width: 2; stroke-linecap: round"/>
   </g>
   <g id="line2d_11">
    <path d="M 320.5236 91.49875 
L 297.5736 91.49875 
" clip-path="url(#p34efb22d57)" style="fill: none; stroke: #000000; stroke-width: 2; stroke-linecap: round"/>
   </g>
   <g id="line2d_12">
    <path d="M 314.7861 97.23625 
L 303.3111 97.23625 
" clip-path="url(#p34efb22d57)" style="fill: none; stroke: #000000; stroke-width: 2; stroke-linecap: round"/>
   </g>
   <g id="line2d_13">
    <path d="M 309.0486 42.73 
L 339.6486 42.73 
L 342.1986 35.08 
L 347.2986 50.38 
L 352.3986 35.08 
L 357.4986 50.38 
L 362.5986 35.08 
L 367.6986 50.38 
L 370.2486 42.73 
L 400.8486 42.73 
" clip-path="url(#p34efb22d57)" style="fill: none; stroke: #000000; stroke-width: 2; stroke-linecap: round"/>
   </g>
   <g id="line2d_14">
    <path d="M 400.8486 134.53 
L 354.9486 134.53 
L 309.0486 134.53 
" clip-path="url(#p34efb22d57)" style="fill: none; stroke: #000000; stroke-width: 2; stroke-linecap: round"/>
   </g>
   <g id="line2d_15">
    <path d="M 48.9486 134.53 
L 48.9486 103.93 
L 48.9486 103.93 
M 48.9486 73.33 
L 48.9486 73.33 
L 48.9486 42.73 
" clip-path="url(#p34efb22d57)" style="fill: none; stroke: #000000; stroke-width: 2; stroke-linecap: round"/>
   </g>
   <g id="line2d_16">
    <path d="M 48.9486 96.28 
L 48.9486 88.63 
" clip-path="url(#p34efb22d57)" style="fill: none; stroke: #000000; stroke-width: 2; stroke-linecap: round"/>
   </g>
   <g id="patch_6">
    <path d="M 46.6536 88.63 
L 48.9486 80.98 
L 51.2436 88.63 
z
" clip-path="url(#p34efb22d57)"/>
   </g>
   <g id="line2d_17">
    <path d="M 48.9486 42.73 
L 79.5486 42.73 
L 110.1486 42.73 
" clip-path="url(#p34efb22d57)" style="fill: none; stroke: #000000; stroke-width: 2; stroke-linecap: round"/>
   </g>
   <g id="line2d_18">
    <path d="M 110.1486 42.73 
L 110.1486 73.33 
L 117.7986 75.88 
L 102.4986 80.98 
L 117.7986 86.08 
L 102.4986 91.18 
L 117.7986 96.28 
L 102.4986 101.38 
L 110.1486 103.93 
L 110.1486 134.53 
" clip-path="url(#p34efb22d57)" style="fill: none; stroke: #000000; stroke-width: 2; stroke-linecap: round"/>
   </g>
   <g id="line2d_19">
    <path d="M 110.1486 42.73 
L 140.7486 42.73 
L 171.3486 42.73 
" clip-path="url(#p34efb22d57)" style="fill: none; stroke: #000000; stroke-width: 2; stroke-linecap: round"/>
   </g>
   <g id="line2d_20">
    <path d="M 171.3486 134.53 
L 110.1486 134.53 
L 48.9486 134.53 
" clip-path="url(#p34efb22d57)" style="fill: none; stroke: #000000; stroke-width: 2; stroke-linecap: round"/>
   </g>
   <g id="line2d_21">
    <path d="M 194.2986 88.63 
L 224.8986 88.63 
L 240.1986 88.63 
" clip-path="url(#p34efb22d57)" style="fill: none; stroke: #ee82ee; stroke-width: 6; stroke-linecap: round"/>
   </g>
   <g id="patch_7">
    <path d="M 240.1986 80.98 
L 255.4986 88.63 
L 240.1986 96.28 
z
" clip-path="url(#p34efb22d57)" style="fill: #ee82ee"/>
   </g>
   <g id="line2d_22">
    <path d="M 309.0486 134.53 
L 309.0486 97.23625 
M 309.0486 80.02375 
L 309.0486 42.73 
" clip-path="url(#p34efb22d57)" style="fill: none; stroke: #000000; stroke-width: 2; stroke-linecap: round"/>
   </g>
   <g id="line2d_23">
    <path d="M 320.5236 80.02375 
L 297.5736 80.02375 
" clip-path="url(#p34efb22d57)" style="fill: none; stroke: #000000; stroke-width: 2; stroke-linecap: round"/>
   </g>
   <g id="line2d_24">
    <path d="M 314.7861 85.76125 
L 303.3111 85.76125 
" clip-path="url(#p34efb22d57)" style="fill: none; stroke: #000000; stroke-width: 2; stroke-linecap: round"/>
   </g>
   <g id="line2d_25">
    <path d="M 320.5236 91.49875 
L 297.5736 91.49875 
" clip-path="url(#p34efb22d57)" style="fill: none; stroke: #000000; stroke-width: 2; stroke-linecap: round"/>
   </g>
   <g id="line2d_26">
    <path d="M 314.7861 97.23625 
L 303.3111 97.23625 
" clip-path="url(#p34efb22d57)" style="fill: none; stroke: #000000; stroke-width: 2; stroke-linecap: round"/>
   </g>
   <g id="line2d_27">
    <path d="M 309.0486 42.73 
L 339.6486 42.73 
L 342.1986 35.08 
L 347.2986 50.38 
L 352.3986 35.08 
L 357.4986 50.38 
L 362.5986 35.08 
L 367.6986 50.38 
L 370.2486 42.73 
L 400.8486 42.73 
" clip-path="url(#p34efb22d57)" style="fill: none; stroke: #000000; stroke-width: 2; stroke-linecap: round"/>
   </g>
   <g id="line2d_28">
    <path d="M 400.8486 134.53 
L 354.9486 134.53 
L 309.0486 134.53 
" clip-path="url(#p34efb22d57)" style="fill: none; stroke: #000000; stroke-width: 2; stroke-linecap: round"/>
   </g>
   <g id="text_1">
    <g clip-path="url(#p34efb22d57)">
     <!-- $I_N$ -->
     <g transform="translate(19.9636 92.079219)scale(0.125 -0.125)">
      <defs>
       <path id="STIXGeneral-Italic-49" d="M 2458 4179 
L 2458 4077 
Q 2189 4045 2102 3961 
Q 2016 3878 1933 3584 
L 1165 838 
Q 1069 499 1069 352 
Q 1069 224 1149 179 
Q 1229 134 1510 102 
L 1510 0 
L -51 0 
L -51 102 
Q 218 154 317 237 
Q 416 320 486 582 
L 1254 3405 
Q 1338 3699 1338 3802 
Q 1338 3930 1235 3997 
Q 1133 4064 877 4077 
L 877 4179 
L 2458 4179 
z
" transform="scale(0.015625)"/>
       <path id="STIXGeneral-Italic-4e" d="M 4653 4179 
L 4653 4077 
Q 4480 4038 4413 4016 
Q 4346 3994 4266 3882 
Q 4186 3770 4144 3635 
Q 4102 3501 4000 3149 
L 3066 -96 
L 2950 -96 
L 1478 3424 
L 749 723 
Q 691 525 691 378 
Q 691 243 790 182 
Q 890 122 1139 102 
L 1139 0 
L -128 0 
L -128 102 
Q 147 141 262 304 
Q 378 467 550 1075 
L 1299 3731 
Q 1152 4077 749 4077 
L 749 4179 
L 1773 4179 
L 3098 986 
L 3776 3469 
Q 3827 3648 3827 3750 
Q 3827 3923 3740 3987 
Q 3654 4051 3386 4077 
L 3386 4179 
L 4653 4179 
z
" transform="scale(0.015625)"/>
      </defs>
      <use xlink:href="#STIXGeneral-Italic-49" transform="translate(0 0.703125)"/>
      <use xlink:href="#STIXGeneral-Italic-4e" transform="translate(33.299988 -12.525)scale(0.7)"/>
     </g>
    </g>
   </g>
   <g id="text_2">
    <g clip-path="url(#p34efb22d57)">
     <!-- $R_{N}$ -->
     <g transform="translate(85.3136 92.079219)scale(0.125 -0.125)">
      <defs>
       <path id="STIXGeneral-Italic-52" d="M 845 4179 
L 2458 4179 
Q 3078 4179 3420 3936 
Q 3763 3693 3763 3277 
Q 3763 2778 3341 2458 
Q 3091 2266 2502 2131 
L 3072 627 
Q 3181 333 3299 217 
Q 3418 102 3629 102 
L 3629 0 
L 2688 0 
L 1901 2074 
L 1478 2106 
L 1126 806 
Q 1043 512 1043 403 
Q 1043 256 1126 192 
Q 1210 128 1472 102 
L 1472 0 
L -83 0 
L -83 102 
Q 173 134 278 243 
Q 384 352 461 646 
L 1222 3405 
Q 1299 3699 1299 3808 
Q 1299 3923 1210 3987 
Q 1133 4038 845 4077 
L 845 4179 
z
M 1958 3795 
L 1555 2342 
Q 1754 2310 1882 2310 
Q 2451 2310 2771 2566 
Q 3091 2822 3091 3270 
Q 3091 3603 2892 3795 
Q 2694 3987 2323 3987 
Q 2010 3987 1958 3795 
z
" transform="scale(0.015625)"/>
      </defs>
      <use xlink:href="#STIXGeneral-Italic-52" transform="translate(0 0.703125)"/>
      <use xlink:href="#STIXGeneral-Italic-4e" transform="translate(61.099991 -12.525)scale(0.7)"/>
     </g>
    </g>
   </g>
   <g id="text_3">
    <g clip-path="url(#p34efb22d57)">
     <!-- converts to -->
     <g style="fill: #ee82ee" transform="translate(184.890788 67.670391)scale(0.125 -0.125)">
      <defs>
       <path id="DejaVuSans-Bold-63" d="M 3366 3391 
L 3366 2478 
Q 3138 2634 2908 2709 
Q 2678 2784 2431 2784 
Q 1963 2784 1702 2511 
Q 1441 2238 1441 1747 
Q 1441 1256 1702 982 
Q 1963 709 2431 709 
Q 2694 709 2930 787 
Q 3166 866 3366 1019 
L 3366 103 
Q 3103 6 2833 -42 
Q 2563 -91 2291 -91 
Q 1344 -91 809 395 
Q 275 881 275 1747 
Q 275 2613 809 3098 
Q 1344 3584 2291 3584 
Q 2566 3584 2833 3536 
Q 3100 3488 3366 3391 
z
" transform="scale(0.015625)"/>
       <path id="DejaVuSans-Bold-6f" d="M 2203 2784 
Q 1831 2784 1636 2517 
Q 1441 2250 1441 1747 
Q 1441 1244 1636 976 
Q 1831 709 2203 709 
Q 2569 709 2762 976 
Q 2956 1244 2956 1747 
Q 2956 2250 2762 2517 
Q 2569 2784 2203 2784 
z
M 2203 3584 
Q 3106 3584 3614 3096 
Q 4122 2609 4122 1747 
Q 4122 884 3614 396 
Q 3106 -91 2203 -91 
Q 1297 -91 786 396 
Q 275 884 275 1747 
Q 275 2609 786 3096 
Q 1297 3584 2203 3584 
z
" transform="scale(0.015625)"/>
       <path id="DejaVuSans-Bold-6e" d="M 4056 2131 
L 4056 0 
L 2931 0 
L 2931 347 
L 2931 1631 
Q 2931 2084 2911 2256 
Q 2891 2428 2841 2509 
Q 2775 2619 2662 2680 
Q 2550 2741 2406 2741 
Q 2056 2741 1856 2470 
Q 1656 2200 1656 1722 
L 1656 0 
L 538 0 
L 538 3500 
L 1656 3500 
L 1656 2988 
Q 1909 3294 2193 3439 
Q 2478 3584 2822 3584 
Q 3428 3584 3742 3212 
Q 4056 2841 4056 2131 
z
" transform="scale(0.015625)"/>
       <path id="DejaVuSans-Bold-76" d="M 97 3500 
L 1216 3500 
L 2088 1081 
L 2956 3500 
L 4078 3500 
L 2700 0 
L 1472 0 
L 97 3500 
z
" transform="scale(0.015625)"/>
       <path id="DejaVuSans-Bold-65" d="M 4031 1759 
L 4031 1441 
L 1416 1441 
Q 1456 1047 1700 850 
Q 1944 653 2381 653 
Q 2734 653 3104 758 
Q 3475 863 3866 1075 
L 3866 213 
Q 3469 63 3072 -14 
Q 2675 -91 2278 -91 
Q 1328 -91 801 392 
Q 275 875 275 1747 
Q 275 2603 792 3093 
Q 1309 3584 2216 3584 
Q 3041 3584 3536 3087 
Q 4031 2591 4031 1759 
z
M 2881 2131 
Q 2881 2450 2695 2645 
Q 2509 2841 2209 2841 
Q 1884 2841 1681 2658 
Q 1478 2475 1428 2131 
L 2881 2131 
z
" transform="scale(0.015625)"/>
       <path id="DejaVuSans-Bold-72" d="M 3138 2547 
Q 2991 2616 2845 2648 
Q 2700 2681 2553 2681 
Q 2122 2681 1889 2404 
Q 1656 2128 1656 1613 
L 1656 0 
L 538 0 
L 538 3500 
L 1656 3500 
L 1656 2925 
Q 1872 3269 2151 3426 
Q 2431 3584 2822 3584 
Q 2878 3584 2943 3579 
Q 3009 3575 3134 3559 
L 3138 2547 
z
" transform="scale(0.015625)"/>
       <path id="DejaVuSans-Bold-74" d="M 1759 4494 
L 1759 3500 
L 2913 3500 
L 2913 2700 
L 1759 2700 
L 1759 1216 
Q 1759 972 1856 886 
Q 1953 800 2241 800 
L 2816 800 
L 2816 0 
L 1856 0 
Q 1194 0 917 276 
Q 641 553 641 1216 
L 641 2700 
L 84 2700 
L 84 3500 
L 641 3500 
L 641 4494 
L 1759 4494 
z
" transform="scale(0.015625)"/>
       <path id="DejaVuSans-Bold-73" d="M 3272 3391 
L 3272 2541 
Q 2913 2691 2578 2766 
Q 2244 2841 1947 2841 
Q 1628 2841 1473 2761 
Q 1319 2681 1319 2516 
Q 1319 2381 1436 2309 
Q 1553 2238 1856 2203 
L 2053 2175 
Q 2913 2066 3209 1816 
Q 3506 1566 3506 1031 
Q 3506 472 3093 190 
Q 2681 -91 1863 -91 
Q 1516 -91 1145 -36 
Q 775 19 384 128 
L 384 978 
Q 719 816 1070 734 
Q 1422 653 1784 653 
Q 2113 653 2278 743 
Q 2444 834 2444 1013 
Q 2444 1163 2330 1236 
Q 2216 1309 1875 1350 
L 1678 1375 
Q 931 1469 631 1722 
Q 331 1975 331 2491 
Q 331 3047 712 3315 
Q 1094 3584 1881 3584 
Q 2191 3584 2531 3537 
Q 2872 3491 3272 3391 
z
" transform="scale(0.015625)"/>
       <path id="DejaVuSans-Bold-20" transform="scale(0.015625)"/>
      </defs>
      <use xlink:href="#DejaVuSans-Bold-63"/>
      <use xlink:href="#DejaVuSans-Bold-6f" x="59.277344"/>
      <use xlink:href="#DejaVuSans-Bold-6e" x="127.978516"/>
      <use xlink:href="#DejaVuSans-Bold-76" x="199.169922"/>
      <use xlink:href="#DejaVuSans-Bold-65" x="264.355469"/>
      <use xlink:href="#DejaVuSans-Bold-72" x="332.177734"/>
      <use xlink:href="#DejaVuSans-Bold-74" x="381.494141"/>
      <use xlink:href="#DejaVuSans-Bold-73" x="429.296875"/>
      <use xlink:href="#DejaVuSans-Bold-20" x="488.818359"/>
      <use xlink:href="#DejaVuSans-Bold-74" x="523.632812"/>
      <use xlink:href="#DejaVuSans-Bold-6f" x="571.435547"/>
     </g>
    </g>
   </g>
   <g id="text_4">
    <g clip-path="url(#p34efb22d57)">
     <!-- $I_NR_N$ -->
     <g transform="translate(269.8886 92.079219)scale(0.125 -0.125)">
      <use xlink:href="#STIXGeneral-Italic-49" transform="translate(0 0.703125)"/>
      <use xlink:href="#STIXGeneral-Italic-4e" transform="translate(33.299988 -12.525)scale(0.7)"/>
      <use xlink:href="#STIXGeneral-Italic-52" transform="translate(84.399361 0.703125)"/>
      <use xlink:href="#STIXGeneral-Italic-4e" transform="translate(145.499352 -12.525)scale(0.7)"/>
     </g>
    </g>
   </g>
   <g id="text_5">
    <g clip-path="url(#p34efb22d57)">
     <!-- $R_{N}$ -->
     <g transform="translate(347.8861 29.420391)scale(0.125 -0.125)">
      <use xlink:href="#STIXGeneral-Italic-52" transform="translate(0 0.703125)"/>
      <use xlink:href="#STIXGeneral-Italic-4e" transform="translate(61.099991 -12.525)scale(0.7)"/>
     </g>
    </g>
   </g>
   <g id="text_6">
    <g clip-path="url(#p34efb22d57)">
     <!-- $I_N$ -->
     <g transform="translate(19.9636 92.079219)scale(0.125 -0.125)">
      <use xlink:href="#STIXGeneral-Italic-49" transform="translate(0 0.703125)"/>
      <use xlink:href="#STIXGeneral-Italic-4e" transform="translate(33.299988 -12.525)scale(0.7)"/>
     </g>
    </g>
   </g>
   <g id="text_7">
    <g clip-path="url(#p34efb22d57)">
     <!-- $R_{N}$ -->
     <g transform="translate(85.3136 92.079219)scale(0.125 -0.125)">
      <use xlink:href="#STIXGeneral-Italic-52" transform="translate(0 0.703125)"/>
      <use xlink:href="#STIXGeneral-Italic-4e" transform="translate(61.099991 -12.525)scale(0.7)"/>
     </g>
    </g>
   </g>
   <g id="text_8">
    <g clip-path="url(#p34efb22d57)">
     <!-- converts to -->
     <g style="fill: #ee82ee" transform="translate(184.890788 67.670391)scale(0.125 -0.125)">
      <use xlink:href="#DejaVuSans-Bold-63"/>
      <use xlink:href="#DejaVuSans-Bold-6f" x="59.277344"/>
      <use xlink:href="#DejaVuSans-Bold-6e" x="127.978516"/>
      <use xlink:href="#DejaVuSans-Bold-76" x="199.169922"/>
      <use xlink:href="#DejaVuSans-Bold-65" x="264.355469"/>
      <use xlink:href="#DejaVuSans-Bold-72" x="332.177734"/>
      <use xlink:href="#DejaVuSans-Bold-74" x="381.494141"/>
      <use xlink:href="#DejaVuSans-Bold-73" x="429.296875"/>
      <use xlink:href="#DejaVuSans-Bold-20" x="488.818359"/>
      <use xlink:href="#DejaVuSans-Bold-74" x="523.632812"/>
      <use xlink:href="#DejaVuSans-Bold-6f" x="571.435547"/>
     </g>
    </g>
   </g>
   <g id="text_9">
    <g clip-path="url(#p34efb22d57)">
     <!-- $I_NR_N$ -->
     <g transform="translate(269.8886 92.079219)scale(0.125 -0.125)">
      <use xlink:href="#STIXGeneral-Italic-49" transform="translate(0 0.703125)"/>
      <use xlink:href="#STIXGeneral-Italic-4e" transform="translate(33.299988 -12.525)scale(0.7)"/>
      <use xlink:href="#STIXGeneral-Italic-52" transform="translate(84.399361 0.703125)"/>
      <use xlink:href="#STIXGeneral-Italic-4e" transform="translate(145.499352 -12.525)scale(0.7)"/>
     </g>
    </g>
   </g>
   <g id="text_10">
    <g clip-path="url(#p34efb22d57)">
     <!-- $R_{N}$ -->
     <g transform="translate(347.8861 29.420391)scale(0.125 -0.125)">
      <use xlink:href="#STIXGeneral-Italic-52" transform="translate(0 0.703125)"/>
      <use xlink:href="#STIXGeneral-Italic-4e" transform="translate(61.099991 -12.525)scale(0.7)"/>
     </g>
    </g>
   </g>
   <g id="patch_8">
    <path d="M 171.3486 45.025 
C 171.957241 45.025 172.541036 44.783184 172.97141 44.35281 
C 173.401784 43.922436 173.6436 43.338641 173.6436 42.73 
C 173.6436 42.121359 173.401784 41.537564 172.97141 41.10719 
C 172.541036 40.676816 171.957241 40.435 171.3486 40.435 
C 170.739959 40.435 170.156164 40.676816 169.72579 41.10719 
C 169.295416 41.537564 169.0536 42.121359 169.0536 42.73 
C 169.0536 43.338641 169.295416 43.922436 169.72579 44.35281 
C 170.156164 44.783184 170.739959 45.025 171.3486 45.025 
z
" clip-path="url(#p34efb22d57)" style="fill: #ffffff; stroke: #000000; stroke-width: 2; stroke-linejoin: miter"/>
   </g>
   <g id="patch_9">
    <path d="M 171.3486 136.825 
C 171.957241 136.825 172.541036 136.583184 172.97141 136.15281 
C 173.401784 135.722436 173.6436 135.138641 173.6436 134.53 
C 173.6436 133.921359 173.401784 133.337564 172.97141 132.90719 
C 172.541036 132.476816 171.957241 132.235 171.3486 132.235 
C 170.739959 132.235 170.156164 132.476816 169.72579 132.90719 
C 169.295416 133.337564 169.0536 133.921359 169.0536 134.53 
C 169.0536 135.138641 169.295416 135.722436 169.72579 136.15281 
C 170.156164 136.583184 170.739959 136.825 171.3486 136.825 
z
" clip-path="url(#p34efb22d57)" style="fill: #ffffff; stroke: #000000; stroke-width: 2; stroke-linejoin: miter"/>
   </g>
   <g id="patch_10">
    <path d="M 400.8486 45.025 
C 401.457241 45.025 402.041036 44.783184 402.47141 44.35281 
C 402.901784 43.922436 403.1436 43.338641 403.1436 42.73 
C 403.1436 42.121359 402.901784 41.537564 402.47141 41.10719 
C 402.041036 40.676816 401.457241 40.435 400.8486 40.435 
C 400.239959 40.435 399.656164 40.676816 399.22579 41.10719 
C 398.795416 41.537564 398.5536 42.121359 398.5536 42.73 
C 398.5536 43.338641 398.795416 43.922436 399.22579 44.35281 
C 399.656164 44.783184 400.239959 45.025 400.8486 45.025 
z
" clip-path="url(#p34efb22d57)" style="fill: #ffffff; stroke: #000000; stroke-width: 2; stroke-linejoin: miter"/>
   </g>
   <g id="patch_11">
    <path d="M 400.8486 136.825 
C 401.457241 136.825 402.041036 136.583184 402.47141 136.15281 
C 402.901784 135.722436 403.1436 135.138641 403.1436 134.53 
C 403.1436 133.921359 402.901784 133.337564 402.47141 132.90719 
C 402.041036 132.476816 401.457241 132.235 400.8486 132.235 
C 400.239959 132.235 399.656164 132.476816 399.22579 132.90719 
C 398.795416 133.337564 398.5536 133.921359 398.5536 134.53 
C 398.5536 135.138641 398.795416 135.722436 399.22579 136.15281 
C 399.656164 136.583184 400.239959 136.825 400.8486 136.825 
z
" clip-path="url(#p34efb22d57)" style="fill: #ffffff; stroke: #000000; stroke-width: 2; stroke-linejoin: miter"/>
   </g>
   <g id="patch_12">
    <path d="M 171.3486 45.025 
C 171.957241 45.025 172.541036 44.783184 172.97141 44.35281 
C 173.401784 43.922436 173.6436 43.338641 173.6436 42.73 
C 173.6436 42.121359 173.401784 41.537564 172.97141 41.10719 
C 172.541036 40.676816 171.957241 40.435 171.3486 40.435 
C 170.739959 40.435 170.156164 40.676816 169.72579 41.10719 
C 169.295416 41.537564 169.0536 42.121359 169.0536 42.73 
C 169.0536 43.338641 169.295416 43.922436 169.72579 44.35281 
C 170.156164 44.783184 170.739959 45.025 171.3486 45.025 
z
" clip-path="url(#p34efb22d57)" style="fill: #ffffff; stroke: #000000; stroke-width: 2; stroke-linejoin: miter"/>
   </g>
   <g id="patch_13">
    <path d="M 171.3486 136.825 
C 171.957241 136.825 172.541036 136.583184 172.97141 136.15281 
C 173.401784 135.722436 173.6436 135.138641 173.6436 134.53 
C 173.6436 133.921359 173.401784 133.337564 172.97141 132.90719 
C 172.541036 132.476816 171.957241 132.235 171.3486 132.235 
C 170.739959 132.235 170.156164 132.476816 169.72579 132.90719 
C 169.295416 133.337564 169.0536 133.921359 169.0536 134.53 
C 169.0536 135.138641 169.295416 135.722436 169.72579 136.15281 
C 170.156164 136.583184 170.739959 136.825 171.3486 136.825 
z
" clip-path="url(#p34efb22d57)" style="fill: #ffffff; stroke: #000000; stroke-width: 2; stroke-linejoin: miter"/>
   </g>
   <g id="patch_14">
    <path d="M 400.8486 45.025 
C 401.457241 45.025 402.041036 44.783184 402.47141 44.35281 
C 402.901784 43.922436 403.1436 43.338641 403.1436 42.73 
C 403.1436 42.121359 402.901784 41.537564 402.47141 41.10719 
C 402.041036 40.676816 401.457241 40.435 400.8486 40.435 
C 400.239959 40.435 399.656164 40.676816 399.22579 41.10719 
C 398.795416 41.537564 398.5536 42.121359 398.5536 42.73 
C 398.5536 43.338641 398.795416 43.922436 399.22579 44.35281 
C 399.656164 44.783184 400.239959 45.025 400.8486 45.025 
z
" clip-path="url(#p34efb22d57)" style="fill: #ffffff; stroke: #000000; stroke-width: 2; stroke-linejoin: miter"/>
   </g>
   <g id="patch_15">
    <path d="M 400.8486 136.825 
C 401.457241 136.825 402.041036 136.583184 402.47141 136.15281 
C 402.901784 135.722436 403.1436 135.138641 403.1436 134.53 
C 403.1436 133.921359 402.901784 133.337564 402.47141 132.90719 
C 402.041036 132.476816 401.457241 132.235 400.8486 132.235 
C 400.239959 132.235 399.656164 132.476816 399.22579 132.90719 
C 398.795416 133.337564 398.5536 133.921359 398.5536 134.53 
C 398.5536 135.138641 398.795416 135.722436 399.22579 136.15281 
C 399.656164 136.583184 400.239959 136.825 400.8486 136.825 
z
" clip-path="url(#p34efb22d57)" style="fill: #ffffff; stroke: #000000; stroke-width: 2; stroke-linejoin: miter"/>
   </g>
  </g>
 </g>
 <defs>
  <clipPath id="p34efb22d57">
   <rect x="7.2" y="7.2" width="399.0036" height="132.685"/>
  </clipPath>
 </defs>
</svg>
