<?xml version="1.0" encoding="utf-8" standalone="no"?>
<!DOCTYPE svg PUBLIC "-//W3C//DTD SVG 1.1//EN"
  "http://www.w3.org/Graphics/SVG/1.1/DTD/svg11.dtd">
<svg xmlns:xlink="http://www.w3.org/1999/xlink" width="264.6pt" height="257.347656pt" viewBox="0 0 264.6 257.347656" xmlns="http://www.w3.org/2000/svg" version="1.1">
 <metadata>
  <rdf:RDF xmlns:dc="http://purl.org/dc/elements/1.1/" xmlns:cc="http://creativecommons.org/ns#" xmlns:rdf="http://www.w3.org/1999/02/22-rdf-syntax-ns#">
   <cc:Work>
    <dc:type rdf:resource="http://purl.org/dc/dcmitype/StillImage"/>
    <dc:date>2024-03-15T17:19:54.715599</dc:date>
    <dc:format>image/svg+xml</dc:format>
    <dc:creator>
     <cc:Agent>
      <dc:title>Matplotlib v3.8.2, https://matplotlib.org/</dc:title>
     </cc:Agent>
    </dc:creator>
   </cc:Work>
  </rdf:RDF>
 </metadata>
 <defs>
  <style type="text/css">*{stroke-linejoin: round; stroke-linecap: butt}</style>
 </defs>
 <g id="figure_1">
  <g id="patch_1">
   <path d="M 0 257.347656 
L 264.6 257.347656 
L 264.6 0 
L 0 0 
L 0 257.347656 
z
" style="fill: none"/>
  </g>
  <g id="axes_1">
   <g id="patch_2">
    <path d="M 101.450492 176.787507 
C 99.941352 173.853938 98.032577 171.226719 95.799293 169.009255 
C 93.56601 166.791791 91.037907 165.01356 88.314488 163.74455 
C 85.591068 162.475541 82.708537 161.732623 79.780346 161.545037 
C 76.852156 161.357452 73.917233 161.727692 71.091092 162.641186 
C 68.264951 163.55468 65.585162 164.999283 63.157199 166.918139 
C 60.729236 168.836995 58.585375 171.204594 56.809996 173.92775 
C 55.034617 176.650907 53.651322 179.69342 52.714554 182.93554 
C 51.777786 186.17766 51.3 189.576287 51.3 192.997656 
C 51.3 196.419025 51.777786 199.817652 52.714554 203.059772 
C 53.651322 206.301893 55.034617 209.344406 56.809996 212.067562 
C 58.585375 214.790719 60.729236 217.158318 63.157199 219.077173 
C 65.585162 220.996029 68.264951 222.440633 71.091092 223.354127 
C 73.917233 224.26762 76.852156 224.637861 79.780346 224.450275 
C 82.708537 224.262689 85.591068 223.519772 88.314488 222.250762 
C 91.037907 220.981753 93.56601 219.203522 95.799293 216.986057 
C 98.032577 214.768593 99.941352 212.141374 101.450492 209.207805 
" clip-path="url(#pe76b5eed52)" style="fill: none; stroke: #0000ff; stroke-width: 2; stroke-linejoin: miter"/>
   </g>
   <g id="patch_3">
    <path d="M 106.267222 184.813011 
L 99.320702 178.485622 
L 101.620317 177.105443 
L 101.435058 176.79677 
L 101.465926 176.778244 
L 101.651184 177.086918 
L 103.9508 175.706739 
z
" clip-path="url(#pe76b5eed52)" style="fill: #0000ff; stroke: #0000ff; stroke-linejoin: miter"/>
   </g>
   <g id="patch_4">
    <path d="M 209.450492 176.787507 
C 207.941352 173.853938 206.032577 171.226719 203.799293 169.009255 
C 201.56601 166.791791 199.037907 165.01356 196.314488 163.74455 
C 193.591068 162.475541 190.708537 161.732623 187.780346 161.545037 
C 184.852156 161.357452 181.917233 161.727692 179.091092 162.641186 
C 176.264951 163.55468 173.585162 164.999283 171.157199 166.918139 
C 168.729236 168.836995 166.585375 171.204594 164.809996 173.92775 
C 163.034617 176.650907 161.651322 179.69342 160.714554 182.93554 
C 159.777786 186.17766 159.3 189.576287 159.3 192.997656 
C 159.3 196.419025 159.777786 199.817652 160.714554 203.059772 
C 161.651322 206.301893 163.034617 209.344406 164.809996 212.067562 
C 166.585375 214.790719 168.729236 217.158318 171.157199 219.077173 
C 173.585162 220.996029 176.264951 222.440633 179.091092 223.354127 
C 181.917233 224.26762 184.852156 224.637861 187.780346 224.450275 
C 190.708537 224.262689 193.591068 223.519772 196.314488 222.250762 
C 199.037907 220.981753 201.56601 219.203522 203.799293 216.986057 
C 206.032577 214.768593 207.941352 212.141374 209.450492 209.207805 
" clip-path="url(#pe76b5eed52)" style="fill: none; stroke: #ff0000; stroke-width: 2; stroke-linejoin: miter"/>
   </g>
   <g id="patch_5">
    <path d="M 214.267222 184.813011 
L 207.320702 178.485622 
L 209.620317 177.105443 
L 209.435058 176.79677 
L 209.465926 176.778244 
L 209.651184 177.086918 
L 211.9508 175.706739 
z
" clip-path="url(#pe76b5eed52)" style="fill: #ff0000; stroke: #ff0000; stroke-linejoin: miter"/>
   </g>
   <g id="patch_6">
    <path d="M 167.743859 55.679599 
C 154.055561 53.920197 139.123297 53.207208 124.290644 53.604785 
C 109.457991 54.002363 95.183574 55.498214 82.751777 57.957744 
C 70.319981 60.417275 60.115197 63.764437 53.055631 67.698059 
C 45.996065 71.63168 42.3 76.030134 42.3 80.497656 
C 42.3 84.965178 45.996065 89.363632 53.055631 93.297254 
C 60.115197 97.230876 70.319981 100.578037 82.751777 103.037568 
C 95.183574 105.497099 109.457991 106.99295 124.290644 107.390527 
C 139.123297 107.788105 154.055561 107.075116 167.743859 105.315713 
" clip-path="url(#pe76b5eed52)" style="fill: none; stroke: #008000; stroke-width: 2; stroke-linejoin: miter"/>
   </g>
   <g id="patch_7">
    <path d="M 176.347452 59.36576 
L 167.01145 58.30318 
L 168.067677 55.83792 
L 167.73677 55.696145 
L 167.750948 55.663054 
L 168.081855 55.804829 
L 169.138082 53.339569 
z
" clip-path="url(#pe76b5eed52)" style="fill: #008000; stroke: #008000; stroke-linejoin: miter"/>
   </g>
   <g id="line2d_1">
    <path d="M 24.3 242.497656 
L 24.3 206.497656 
L 15.3 206.497656 
L 15.3 170.497656 
L 33.3 170.497656 
L 33.3 206.497656 
L 24.3 206.497656 
M 24.3 170.497656 
L 24.3 134.497656 
" clip-path="url(#pe76b5eed52)" style="fill: none; stroke: #000000; stroke-width: 2; stroke-linecap: round"/>
   </g>
   <g id="line2d_2">
    <path d="M 24.3 134.497656 
L 60.3 134.497656 
L 60.3 125.497656 
L 96.3 125.497656 
L 96.3 143.497656 
L 60.3 143.497656 
L 60.3 134.497656 
M 96.3 134.497656 
L 132.3 134.497656 
" clip-path="url(#pe76b5eed52)" style="fill: none; stroke: #000000; stroke-width: 2; stroke-linecap: round"/>
   </g>
   <g id="line2d_3">
    <path d="M 132.3 134.497656 
L 168.3 134.497656 
L 168.3 125.497656 
L 204.3 125.497656 
L 204.3 143.497656 
L 168.3 143.497656 
L 168.3 134.497656 
M 204.3 134.497656 
L 240.3 134.497656 
" clip-path="url(#pe76b5eed52)" style="fill: none; stroke: #000000; stroke-width: 2; stroke-linecap: round"/>
   </g>
   <g id="line2d_4">
    <path d="M 240.3 134.497656 
L 240.3 170.497656 
L 249.3 170.497656 
L 249.3 206.497656 
L 231.3 206.497656 
L 231.3 170.497656 
L 240.3 170.497656 
M 240.3 206.497656 
L 240.3 242.497656 
" clip-path="url(#pe76b5eed52)" style="fill: none; stroke: #000000; stroke-width: 2; stroke-linecap: round"/>
   </g>
   <g id="line2d_5">
    <path d="M 132.3 134.497656 
L 132.3 170.497656 
L 141.3 170.497656 
L 141.3 206.497656 
L 123.3 206.497656 
L 123.3 170.497656 
L 132.3 170.497656 
M 132.3 206.497656 
L 132.3 242.497656 
" clip-path="url(#pe76b5eed52)" style="fill: none; stroke: #000000; stroke-width: 2; stroke-linecap: round"/>
   </g>
   <g id="line2d_6">
    <path d="M 24.3 242.497656 
L 132.3 242.497656 
L 240.3 242.497656 
" clip-path="url(#pe76b5eed52)" style="fill: none; stroke: #000000; stroke-width: 2; stroke-linecap: round"/>
   </g>
   <g id="line2d_7">
    <path d="M 24.3 134.497656 
L 24.3 80.497656 
L 24.3 26.497656 
" clip-path="url(#pe76b5eed52)" style="fill: none; stroke: #000000; stroke-width: 2; stroke-linecap: round"/>
   </g>
   <g id="line2d_8">
    <path d="M 24.3 26.497656 
L 51.3 26.497656 
L 78.3 26.497656 
" clip-path="url(#pe76b5eed52)" style="fill: none; stroke: #000000; stroke-width: 2; stroke-linecap: round"/>
   </g>
   <g id="line2d_9">
    <path d="M 78.3 26.497656 
L 114.3 26.497656 
L 114.3 17.497656 
L 150.3 17.497656 
L 150.3 35.497656 
L 114.3 35.497656 
L 114.3 26.497656 
M 150.3 26.497656 
L 186.3 26.497656 
" clip-path="url(#pe76b5eed52)" style="fill: none; stroke: #000000; stroke-width: 2; stroke-linecap: round"/>
   </g>
   <g id="line2d_10">
    <path d="M 186.3 26.497656 
L 213.3 26.497656 
L 240.3 26.497656 
" clip-path="url(#pe76b5eed52)" style="fill: none; stroke: #000000; stroke-width: 2; stroke-linecap: round"/>
   </g>
   <g id="line2d_11">
    <path d="M 240.3 26.497656 
L 240.3 80.497656 
L 240.3 134.497656 
" clip-path="url(#pe76b5eed52)" style="fill: none; stroke: #000000; stroke-width: 2; stroke-linecap: round"/>
   </g>
   <g id="text_1">
    <!-- $I_1$ -->
    <g style="fill: #0000ff" transform="translate(73.7375 196.446875) scale(0.125 -0.125)">
     <defs>
      <path id="STIXGeneral-Italic-49" d="M 2458 4179 
L 2458 4077 
Q 2189 4045 2102 3961 
Q 2016 3878 1933 3584 
L 1165 838 
Q 1069 499 1069 352 
Q 1069 224 1149 179 
Q 1229 134 1510 102 
L 1510 0 
L -51 0 
L -51 102 
Q 218 154 317 237 
Q 416 320 486 582 
L 1254 3405 
Q 1338 3699 1338 3802 
Q 1338 3930 1235 3997 
Q 1133 4064 877 4077 
L 877 4179 
L 2458 4179 
z
" transform="scale(0.015625)"/>
      <path id="STIXGeneral-Regular-31" d="M 2522 0 
L 755 0 
L 755 96 
Q 1107 115 1235 227 
Q 1363 339 1363 608 
L 1363 3482 
Q 1363 3795 1171 3795 
Q 1082 3795 883 3718 
L 710 3654 
L 710 3744 
L 1856 4326 
L 1914 4307 
L 1914 486 
Q 1914 275 2042 185 
Q 2170 96 2522 96 
L 2522 0 
z
" transform="scale(0.015625)"/>
     </defs>
     <use xlink:href="#STIXGeneral-Italic-49" transform="translate(0 0.703125)"/>
     <use xlink:href="#STIXGeneral-Regular-31" transform="translate(33.299988 -12.525) scale(0.7)"/>
    </g>
   </g>
   <g id="text_2">
    <!-- $I_2$ -->
    <g style="fill: #ff0000" transform="translate(181.7375 196.446875) scale(0.125 -0.125)">
     <defs>
      <path id="STIXGeneral-Regular-32" d="M 3034 877 
L 2688 0 
L 186 0 
L 186 77 
L 1325 1286 
Q 1773 1754 1965 2144 
Q 2157 2534 2157 2950 
Q 2157 3379 1920 3616 
Q 1683 3853 1267 3853 
Q 922 3853 720 3673 
Q 518 3494 326 3021 
L 192 3053 
Q 301 3648 630 3987 
Q 960 4326 1523 4326 
Q 2054 4326 2380 4006 
Q 2707 3686 2707 3200 
Q 2707 2477 1888 1613 
L 832 486 
L 2330 486 
Q 2541 486 2665 569 
Q 2790 653 2944 915 
L 3034 877 
z
" transform="scale(0.015625)"/>
     </defs>
     <use xlink:href="#STIXGeneral-Italic-49" transform="translate(0 0.703125)"/>
     <use xlink:href="#STIXGeneral-Regular-32" transform="translate(33.299988 -12.525) scale(0.7)"/>
    </g>
   </g>
   <g id="text_3">
    <!-- $I_3$ -->
    <g style="fill: #008000" transform="translate(127.7375 83.946875) scale(0.125 -0.125)">
     <defs>
      <path id="STIXGeneral-Regular-33" d="M 390 3264 
L 288 3290 
Q 435 3770 748 4048 
Q 1062 4326 1542 4326 
Q 1990 4326 2265 4083 
Q 2541 3840 2541 3450 
Q 2541 2925 1946 2566 
Q 2298 2413 2477 2227 
Q 2758 1914 2758 1402 
Q 2758 890 2464 506 
Q 2246 211 1840 60 
Q 1434 -90 979 -90 
Q 262 -90 262 275 
Q 262 378 339 442 
Q 416 506 525 506 
Q 685 506 915 339 
Q 1197 141 1466 141 
Q 1818 141 2058 425 
Q 2298 710 2298 1120 
Q 2298 1856 1632 2048 
Q 1434 2112 979 2112 
L 979 2202 
Q 1338 2323 1517 2432 
Q 2035 2726 2035 3290 
Q 2035 3610 1852 3776 
Q 1670 3942 1344 3942 
Q 768 3942 390 3264 
z
" transform="scale(0.015625)"/>
     </defs>
     <use xlink:href="#STIXGeneral-Italic-49" transform="translate(0 0.703125)"/>
     <use xlink:href="#STIXGeneral-Regular-33" transform="translate(33.299988 -12.525) scale(0.7)"/>
    </g>
   </g>
   <g id="line2d_12">
    <path d="M 24.3 228.097656 
L 24.3 228.097656 
" clip-path="url(#pe76b5eed52)" style="fill: none; stroke: #000000; stroke-width: 2; stroke-linecap: round"/>
   </g>
   <g id="patch_8">
    <path d="M 18.9 228.097656 
L 24.3 217.297656 
L 29.7 228.097656 
z
" clip-path="url(#pe76b5eed52)"/>
   </g>
   <g id="text_4">
    <!-- $I_a$ -->
    <g transform="translate(4.375 226.146875) scale(0.125 -0.125)">
     <defs>
      <path id="STIXGeneral-Italic-61" d="M 2963 710 
L 3046 640 
Q 2688 205 2518 70 
Q 2349 -64 2157 -64 
Q 1901 -64 1901 198 
Q 1901 358 2048 934 
Q 1690 397 1389 163 
Q 1088 -70 749 -70 
Q 467 -70 288 125 
Q 109 320 109 672 
Q 109 1158 387 1664 
Q 666 2170 1094 2496 
Q 1523 2822 1939 2822 
Q 2368 2822 2451 2451 
L 2522 2758 
L 2541 2778 
L 2931 2822 
L 2976 2803 
Q 2970 2778 2938 2669 
Q 2368 595 2368 346 
Q 2368 262 2458 262 
Q 2554 262 2790 525 
L 2963 710 
z
M 2336 2310 
Q 2336 2477 2240 2579 
Q 2144 2682 1978 2682 
Q 1542 2682 1139 2093 
Q 928 1779 787 1395 
Q 646 1011 646 717 
Q 646 243 1030 243 
Q 1408 243 1843 870 
Q 2336 1581 2336 2310 
z
" transform="scale(0.015625)"/>
     </defs>
     <use xlink:href="#STIXGeneral-Italic-49" transform="translate(0 0.703125)"/>
     <use xlink:href="#STIXGeneral-Italic-61" transform="translate(33.299988 -12.525) scale(0.7)"/>
    </g>
   </g>
   <g id="line2d_13">
    <path d="M 38.7 134.497656 
L 38.7 134.497656 
" clip-path="url(#pe76b5eed52)" style="fill: none; stroke: #000000; stroke-width: 2; stroke-linecap: round"/>
   </g>
   <g id="patch_9">
    <path d="M 38.7 129.097656 
L 49.5 134.497656 
L 38.7 139.897656 
z
" clip-path="url(#pe76b5eed52)"/>
   </g>
   <g id="text_5">
    <!-- $I_b$ -->
    <g transform="translate(39.5375 121.098047) scale(0.125 -0.125)">
     <defs>
      <path id="STIXGeneral-Italic-62" d="M 1043 1856 
L 1050 1856 
Q 1370 2387 1654 2604 
Q 1939 2822 2285 2822 
Q 2618 2822 2822 2617 
Q 3027 2413 3027 2054 
Q 3027 1562 2726 1062 
Q 2426 563 1942 246 
Q 1459 -70 979 -70 
Q 685 -70 416 32 
Q 147 134 147 269 
L 147 307 
L 1056 3654 
Q 1114 3885 1114 3955 
Q 1114 4058 1053 4080 
Q 992 4102 704 4115 
L 704 4224 
Q 1184 4282 1683 4371 
L 1715 4339 
L 1581 3814 
L 1043 1856 
z
M 2483 1958 
Q 2483 2509 2035 2509 
Q 1594 2509 1158 1773 
Q 954 1427 826 1008 
Q 698 589 698 294 
Q 698 77 992 77 
Q 1414 77 1779 454 
Q 2074 762 2278 1187 
Q 2483 1613 2483 1958 
z
" transform="scale(0.015625)"/>
     </defs>
     <use xlink:href="#STIXGeneral-Italic-49" transform="translate(0 0.703125)"/>
     <use xlink:href="#STIXGeneral-Italic-62" transform="translate(33.299988 -12.525) scale(0.7)"/>
    </g>
   </g>
   <g id="line2d_14">
    <path d="M 157.5 134.497656 
L 157.5 134.497656 
" clip-path="url(#pe76b5eed52)" style="fill: none; stroke: #000000; stroke-width: 2; stroke-linecap: round"/>
   </g>
   <g id="patch_10">
    <path d="M 157.5 139.897656 
L 146.7 134.497656 
L 157.5 129.097656 
z
" clip-path="url(#pe76b5eed52)"/>
   </g>
   <g id="text_6">
    <!-- $I_c$ -->
    <g transform="translate(147.7875 121.098047) scale(0.125 -0.125)">
     <defs>
      <path id="STIXGeneral-Italic-63" d="M 2240 685 
L 2342 621 
Q 2048 250 1769 90 
Q 1491 -70 1133 -70 
Q 678 -70 435 179 
Q 192 429 192 915 
Q 192 1344 409 1744 
Q 627 2144 979 2432 
Q 1472 2822 2048 2822 
Q 2342 2822 2531 2675 
Q 2720 2528 2720 2304 
Q 2720 2176 2630 2086 
Q 2541 1997 2413 1997 
Q 2285 1997 2224 2070 
Q 2163 2144 2163 2253 
Q 2163 2310 2211 2403 
Q 2259 2496 2259 2560 
Q 2259 2688 2022 2688 
Q 1619 2688 1325 2381 
Q 742 1766 742 890 
Q 742 544 889 352 
Q 1037 160 1312 160 
Q 1562 160 1766 281 
Q 1971 403 2240 685 
z
" transform="scale(0.015625)"/>
     </defs>
     <use xlink:href="#STIXGeneral-Italic-49" transform="translate(0 0.703125)"/>
     <use xlink:href="#STIXGeneral-Italic-63" transform="translate(33.299988 -12.525) scale(0.7)"/>
    </g>
   </g>
   <g id="line2d_15">
    <path d="M 240.3 148.897656 
L 240.3 148.897656 
" clip-path="url(#pe76b5eed52)" style="fill: none; stroke: #000000; stroke-width: 2; stroke-linecap: round"/>
   </g>
   <g id="patch_11">
    <path d="M 245.7 148.897656 
L 240.3 159.697656 
L 234.9 148.897656 
z
" clip-path="url(#pe76b5eed52)"/>
   </g>
   <g id="text_7">
    <!-- $I_d$ -->
    <g transform="translate(220.375 157.746875) scale(0.125 -0.125)">
     <defs>
      <path id="STIXGeneral-Italic-64" d="M 3334 4371 
L 3373 4333 
L 3123 3360 
L 2739 1958 
Q 2323 429 2323 384 
Q 2323 256 2438 256 
Q 2522 256 2614 336 
Q 2707 416 2963 710 
L 3040 646 
Q 2547 -83 2099 -83 
Q 1978 -83 1907 -6 
Q 1837 70 1837 205 
Q 1837 397 1920 774 
Q 1645 307 1379 118 
Q 1114 -70 781 -70 
Q 461 -70 278 125 
Q 96 320 96 678 
Q 96 1440 713 2131 
Q 1331 2822 1965 2822 
Q 2163 2822 2256 2732 
Q 2349 2643 2381 2451 
L 2387 2451 
L 2675 3494 
Q 2765 3808 2765 3949 
Q 2765 4051 2694 4076 
Q 2624 4102 2355 4115 
L 2355 4224 
Q 2848 4269 3334 4371 
z
M 2278 2310 
Q 2278 2477 2185 2576 
Q 2093 2675 1978 2675 
Q 1677 2675 1395 2381 
Q 1075 2042 864 1571 
Q 653 1101 653 704 
Q 653 486 752 361 
Q 851 237 1024 237 
Q 1312 237 1606 550 
Q 1901 864 2089 1350 
Q 2278 1837 2278 2310 
z
" transform="scale(0.015625)"/>
     </defs>
     <use xlink:href="#STIXGeneral-Italic-49" transform="translate(0 0.703125)"/>
     <use xlink:href="#STIXGeneral-Italic-64" transform="translate(33.299988 -12.525) scale(0.7)"/>
    </g>
   </g>
   <g id="line2d_16">
    <path d="M 132.3 148.897656 
L 132.3 148.897656 
" clip-path="url(#pe76b5eed52)" style="fill: none; stroke: #000000; stroke-width: 2; stroke-linecap: round"/>
   </g>
   <g id="patch_12">
    <path d="M 137.7 148.897656 
L 132.3 159.697656 
L 126.9 148.897656 
z
" clip-path="url(#pe76b5eed52)"/>
   </g>
   <g id="text_8">
    <!-- $I_e$ -->
    <g transform="translate(112.875 157.746875) scale(0.125 -0.125)">
     <defs>
      <path id="STIXGeneral-Italic-65" d="M 2291 698 
L 2368 621 
Q 1805 -70 1062 -70 
Q 672 -70 435 170 
Q 198 410 198 806 
Q 198 1555 796 2188 
Q 1395 2822 2112 2822 
Q 2362 2822 2499 2707 
Q 2637 2592 2637 2387 
Q 2637 1965 2147 1632 
Q 1658 1299 819 1190 
Q 755 1062 755 800 
Q 755 538 918 378 
Q 1082 218 1350 218 
Q 1562 218 1754 317 
Q 1946 416 2291 698 
z
M 973 1613 
L 864 1331 
Q 1581 1504 1894 1805 
Q 2214 2112 2214 2426 
Q 2214 2675 1990 2675 
Q 1722 2675 1430 2364 
Q 1139 2054 973 1613 
z
" transform="scale(0.015625)"/>
     </defs>
     <use xlink:href="#STIXGeneral-Italic-49" transform="translate(0 0.703125)"/>
     <use xlink:href="#STIXGeneral-Italic-65" transform="translate(33.299988 -12.525) scale(0.7)"/>
    </g>
   </g>
   <g id="line2d_17">
    <path d="M 92.7 26.497656 
L 92.7 26.497656 
" clip-path="url(#pe76b5eed52)" style="fill: none; stroke: #000000; stroke-width: 2; stroke-linecap: round"/>
   </g>
   <g id="patch_13">
    <path d="M 92.7 21.097656 
L 103.5 26.497656 
L 92.7 31.897656 
z
" clip-path="url(#pe76b5eed52)"/>
   </g>
   <g id="text_9">
    <!-- $I_f$ -->
    <g transform="translate(94.475 12.197656) scale(0.125 -0.125)">
     <defs>
      <path id="STIXGeneral-Italic-66" d="M 262 2739 
L 858 2739 
Q 1107 3546 1318 3846 
Q 1664 4339 2163 4339 
Q 2400 4339 2557 4227 
Q 2714 4115 2714 3942 
Q 2714 3834 2634 3750 
Q 2554 3667 2445 3667 
Q 2355 3667 2281 3737 
Q 2208 3808 2208 3917 
Q 2208 3981 2240 4038 
Q 2272 4096 2272 4115 
Q 2272 4198 2131 4198 
Q 1862 4198 1676 3849 
Q 1491 3501 1350 2739 
L 2035 2739 
L 1997 2534 
L 1306 2534 
L 845 486 
Q 435 -1325 -435 -1325 
Q -653 -1325 -797 -1213 
Q -941 -1101 -941 -934 
Q -941 -826 -870 -746 
Q -800 -666 -698 -666 
Q -589 -666 -521 -733 
Q -454 -800 -454 -902 
Q -454 -947 -483 -1001 
Q -512 -1056 -512 -1088 
Q -512 -1190 -384 -1190 
Q 13 -1190 237 -154 
L 800 2534 
L 218 2534 
L 262 2739 
z
" transform="scale(0.015625)"/>
     </defs>
     <use xlink:href="#STIXGeneral-Italic-49" transform="translate(0 0.703125)"/>
     <use xlink:href="#STIXGeneral-Italic-66" transform="translate(33.299988 -12.525) scale(0.7)"/>
    </g>
   </g>
  </g>
 </g>
 <defs>
  <clipPath id="pe76b5eed52">
   <rect x="3.6" y="6.247656" width="257.4" height="247.5"/>
  </clipPath>
 </defs>
</svg>
