<?xml version="1.0" encoding="utf-8" standalone="no"?>
<!DOCTYPE svg PUBLIC "-//W3C//DTD SVG 1.1//EN"
  "http://www.w3.org/Graphics/SVG/1.1/DTD/svg11.dtd">
<svg xmlns:xlink="http://www.w3.org/1999/xlink" width="240.0648pt" height="235.06pt" viewBox="0 0 240.0648 235.06" xmlns="http://www.w3.org/2000/svg" version="1.1">
 <metadata>
  <rdf:RDF xmlns:dc="http://purl.org/dc/elements/1.1/" xmlns:cc="http://creativecommons.org/ns#" xmlns:rdf="http://www.w3.org/1999/02/22-rdf-syntax-ns#">
   <cc:Work>
    <dc:type rdf:resource="http://purl.org/dc/dcmitype/StillImage"/>
    <dc:date>2023-02-11T10:10:38.113447</dc:date>
    <dc:format>image/svg+xml</dc:format>
    <dc:creator>
     <cc:Agent>
      <dc:title>Matplotlib v3.5.2, https://matplotlib.org/</dc:title>
     </cc:Agent>
    </dc:creator>
   </cc:Work>
  </rdf:RDF>
 </metadata>
 <defs>
  <style type="text/css">*{stroke-linejoin: round; stroke-linecap: butt}</style>
 </defs>
 <g id="figure_1">
  <g id="patch_1">
   <path d="M 0 235.06 
L 240.0648 235.06 
L 240.0648 0 
L 0 0 
L 0 235.06 
z
" style="fill: none"/>
  </g>
  <g id="axes_1">
   <g id="patch_2">
    <path d="M 104.132718 168.946373 
C 102.849949 166.452839 101.22749 164.219704 99.329199 162.334859 
C 97.430908 160.450014 95.282021 158.938518 92.967115 157.85986 
C 90.652208 156.781202 88.202057 156.149722 85.713094 155.990274 
C 83.224132 155.830826 80.729448 156.14553 78.327228 156.922 
C 75.925008 157.69847 73.647188 158.926383 71.583419 160.55741 
C 69.519651 162.188438 67.697369 164.200897 66.188297 166.51558 
C 64.679225 168.830263 63.503423 171.416399 62.707171 174.172201 
C 61.910918 176.928004 61.5048 179.816837 61.5048 182.725 
C 61.5048 185.633163 61.910918 188.521996 62.707171 191.277799 
C 63.503423 194.033601 64.679225 196.619737 66.188297 198.93442 
C 67.697369 201.249103 69.519651 203.261562 71.583419 204.89259 
C 73.647188 206.523617 75.925008 207.75153 78.327228 208.528 
C 80.729448 209.30447 83.224132 209.619174 85.713094 209.459726 
C 88.202057 209.300278 90.652208 208.668798 92.967115 207.59014 
C 95.282021 206.511482 97.430908 204.999986 99.329199 203.115141 
C 101.22749 201.230296 102.849949 198.997161 104.132718 196.503627 
" clip-path="url(#paec0e3c346)" style="fill: none; stroke: #0000ff; stroke-width: 2; stroke-linejoin: miter"/>
   </g>
   <g id="patch_3">
    <path d="M 108.226939 175.768052 
L 102.322396 170.389771 
L 104.27707 169.216619 
L 104.1196 168.954247 
L 104.145837 168.9385 
L 104.303307 169.200872 
L 106.25798 168.02772 
z
" clip-path="url(#paec0e3c346)" style="fill: #0000ff; stroke: #0000ff; stroke-linejoin: miter"/>
   </g>
   <g id="patch_4">
    <path d="M 195.932718 168.946373 
C 194.649949 166.452839 193.02749 164.219704 191.129199 162.334859 
C 189.230908 160.450014 187.082021 158.938518 184.767115 157.85986 
C 182.452208 156.781202 180.002057 156.149722 177.513094 155.990274 
C 175.024132 155.830826 172.529448 156.14553 170.127228 156.922 
C 167.725008 157.69847 165.447188 158.926383 163.383419 160.55741 
C 161.319651 162.188438 159.497369 164.200897 157.988297 166.51558 
C 156.479225 168.830263 155.303423 171.416399 154.507171 174.172201 
C 153.710918 176.928004 153.3048 179.816837 153.3048 182.725 
C 153.3048 185.633163 153.710918 188.521996 154.507171 191.277799 
C 155.303423 194.033601 156.479225 196.619737 157.988297 198.93442 
C 159.497369 201.249103 161.319651 203.261562 163.383419 204.89259 
C 165.447188 206.523617 167.725008 207.75153 170.127228 208.528 
C 172.529448 209.30447 175.024132 209.619174 177.513094 209.459726 
C 180.002057 209.300278 182.452208 208.668798 184.767115 207.59014 
C 187.082021 206.511482 189.230908 204.999986 191.129199 203.115141 
C 193.02749 201.230296 194.649949 198.997161 195.932718 196.503627 
" clip-path="url(#paec0e3c346)" style="fill: none; stroke: #ff0000; stroke-width: 2; stroke-linejoin: miter"/>
   </g>
   <g id="patch_5">
    <path d="M 200.026939 175.768052 
L 194.122396 170.389771 
L 196.07707 169.216619 
L 195.9196 168.954247 
L 195.945837 168.9385 
L 196.103307 169.200872 
L 198.05798 168.02772 
z
" clip-path="url(#paec0e3c346)" style="fill: #ff0000; stroke: #ff0000; stroke-linejoin: miter"/>
   </g>
   <g id="patch_6">
    <path d="M 160.48208 66.004651 
C 148.847027 64.509159 136.154603 63.903119 123.546847 64.24106 
C 110.939092 64.579 98.805838 65.850474 88.238811 67.941075 
C 77.671784 70.031676 68.997717 72.876764 62.997086 76.220342 
C 56.996455 79.563921 53.8548 83.302606 53.8548 87.1 
C 53.8548 90.897394 56.996455 94.636079 62.997086 97.979658 
C 68.997717 101.323236 77.671784 104.168324 88.238811 106.258925 
C 98.805838 108.349526 110.939092 109.621 123.546847 109.95894 
C 136.154603 110.296881 148.847027 109.690841 160.48208 108.195349 
" clip-path="url(#paec0e3c346)" style="fill: none; stroke: #008000; stroke-width: 2; stroke-linejoin: miter"/>
   </g>
   <g id="patch_7">
    <path d="M 167.795134 69.137889 
L 159.859533 68.234695 
L 160.757326 66.139224 
L 160.476055 66.018715 
L 160.488105 65.990588 
L 160.769377 66.111097 
L 161.66717 64.015626 
z
" clip-path="url(#paec0e3c346)" style="fill: #008000; stroke: #008000; stroke-linejoin: miter"/>
   </g>
   <g id="patch_8">
    <path d="M 104.132718 168.946373 
C 102.849949 166.452839 101.22749 164.219704 99.329199 162.334859 
C 97.430908 160.450014 95.282021 158.938518 92.967115 157.85986 
C 90.652208 156.781202 88.202057 156.149722 85.713094 155.990274 
C 83.224132 155.830826 80.729448 156.14553 78.327228 156.922 
C 75.925008 157.69847 73.647188 158.926383 71.583419 160.55741 
C 69.519651 162.188438 67.697369 164.200897 66.188297 166.51558 
C 64.679225 168.830263 63.503423 171.416399 62.707171 174.172201 
C 61.910918 176.928004 61.5048 179.816837 61.5048 182.725 
C 61.5048 185.633163 61.910918 188.521996 62.707171 191.277799 
C 63.503423 194.033601 64.679225 196.619737 66.188297 198.93442 
C 67.697369 201.249103 69.519651 203.261562 71.583419 204.89259 
C 73.647188 206.523617 75.925008 207.75153 78.327228 208.528 
C 80.729448 209.30447 83.224132 209.619174 85.713094 209.459726 
C 88.202057 209.300278 90.652208 208.668798 92.967115 207.59014 
C 95.282021 206.511482 97.430908 204.999986 99.329199 203.115141 
C 101.22749 201.230296 102.849949 198.997161 104.132718 196.503627 
" clip-path="url(#paec0e3c346)" style="fill: none; stroke: #0000ff; stroke-width: 2; stroke-linejoin: miter"/>
   </g>
   <g id="patch_9">
    <path d="M 108.226939 175.768052 
L 102.322396 170.389771 
L 104.27707 169.216619 
L 104.1196 168.954247 
L 104.145837 168.9385 
L 104.303307 169.200872 
L 106.25798 168.02772 
z
" clip-path="url(#paec0e3c346)" style="fill: #0000ff; stroke: #0000ff; stroke-linejoin: miter"/>
   </g>
   <g id="patch_10">
    <path d="M 195.932718 168.946373 
C 194.649949 166.452839 193.02749 164.219704 191.129199 162.334859 
C 189.230908 160.450014 187.082021 158.938518 184.767115 157.85986 
C 182.452208 156.781202 180.002057 156.149722 177.513094 155.990274 
C 175.024132 155.830826 172.529448 156.14553 170.127228 156.922 
C 167.725008 157.69847 165.447188 158.926383 163.383419 160.55741 
C 161.319651 162.188438 159.497369 164.200897 157.988297 166.51558 
C 156.479225 168.830263 155.303423 171.416399 154.507171 174.172201 
C 153.710918 176.928004 153.3048 179.816837 153.3048 182.725 
C 153.3048 185.633163 153.710918 188.521996 154.507171 191.277799 
C 155.303423 194.033601 156.479225 196.619737 157.988297 198.93442 
C 159.497369 201.249103 161.319651 203.261562 163.383419 204.89259 
C 165.447188 206.523617 167.725008 207.75153 170.127228 208.528 
C 172.529448 209.30447 175.024132 209.619174 177.513094 209.459726 
C 180.002057 209.300278 182.452208 208.668798 184.767115 207.59014 
C 187.082021 206.511482 189.230908 204.999986 191.129199 203.115141 
C 193.02749 201.230296 194.649949 198.997161 195.932718 196.503627 
" clip-path="url(#paec0e3c346)" style="fill: none; stroke: #ff0000; stroke-width: 2; stroke-linejoin: miter"/>
   </g>
   <g id="patch_11">
    <path d="M 200.026939 175.768052 
L 194.122396 170.389771 
L 196.07707 169.216619 
L 195.9196 168.954247 
L 195.945837 168.9385 
L 196.103307 169.200872 
L 198.05798 168.02772 
z
" clip-path="url(#paec0e3c346)" style="fill: #ff0000; stroke: #ff0000; stroke-linejoin: miter"/>
   </g>
   <g id="patch_12">
    <path d="M 160.48208 66.004651 
C 148.847027 64.509159 136.154603 63.903119 123.546847 64.24106 
C 110.939092 64.579 98.805838 65.850474 88.238811 67.941075 
C 77.671784 70.031676 68.997717 72.876764 62.997086 76.220342 
C 56.996455 79.563921 53.8548 83.302606 53.8548 87.1 
C 53.8548 90.897394 56.996455 94.636079 62.997086 97.979658 
C 68.997717 101.323236 77.671784 104.168324 88.238811 106.258925 
C 98.805838 108.349526 110.939092 109.621 123.546847 109.95894 
C 136.154603 110.296881 148.847027 109.690841 160.48208 108.195349 
" clip-path="url(#paec0e3c346)" style="fill: none; stroke: #008000; stroke-width: 2; stroke-linejoin: miter"/>
   </g>
   <g id="patch_13">
    <path d="M 167.795134 69.137889 
L 159.859533 68.234695 
L 160.757326 66.139224 
L 160.476055 66.018715 
L 160.488105 65.990588 
L 160.769377 66.111097 
L 161.66717 64.015626 
z
" clip-path="url(#paec0e3c346)" style="fill: #008000; stroke: #008000; stroke-linejoin: miter"/>
   </g>
   <g id="line2d_1">
    <path d="M 38.5548 224.8 
L 38.5548 194.2 
L 30.9048 194.2 
L 30.9048 163.6 
L 46.2048 163.6 
L 46.2048 194.2 
L 38.5548 194.2 
M 38.5548 163.6 
L 38.5548 133 
" clip-path="url(#paec0e3c346)" style="fill: none; stroke: #000000; stroke-width: 2; stroke-linecap: round"/>
   </g>
   <g id="line2d_2">
    <path d="M 38.5548 133 
L 69.1548 133 
L 69.1548 125.35 
L 99.7548 125.35 
L 99.7548 140.65 
L 69.1548 140.65 
L 69.1548 133 
M 99.7548 133 
L 130.3548 133 
" clip-path="url(#paec0e3c346)" style="fill: none; stroke: #000000; stroke-width: 2; stroke-linecap: round"/>
   </g>
   <g id="line2d_3">
    <path d="M 130.3548 133 
L 160.9548 133 
L 160.9548 125.35 
L 191.5548 125.35 
L 191.5548 140.65 
L 160.9548 140.65 
L 160.9548 133 
M 191.5548 133 
L 222.1548 133 
" clip-path="url(#paec0e3c346)" style="fill: none; stroke: #000000; stroke-width: 2; stroke-linecap: round"/>
   </g>
   <g id="line2d_4">
    <path d="M 222.1548 133 
L 222.1548 163.6 
L 229.8048 163.6 
L 229.8048 194.2 
L 214.5048 194.2 
L 214.5048 163.6 
L 222.1548 163.6 
M 222.1548 194.2 
L 222.1548 224.8 
" clip-path="url(#paec0e3c346)" style="fill: none; stroke: #000000; stroke-width: 2; stroke-linecap: round"/>
   </g>
   <g id="line2d_5">
    <path d="M 130.3548 133 
L 130.3548 163.6 
L 138.0048 163.6 
L 138.0048 194.2 
L 122.7048 194.2 
L 122.7048 163.6 
L 130.3548 163.6 
M 130.3548 194.2 
L 130.3548 224.8 
" clip-path="url(#paec0e3c346)" style="fill: none; stroke: #000000; stroke-width: 2; stroke-linecap: round"/>
   </g>
   <g id="line2d_6">
    <path d="M 38.5548 224.8 
L 130.3548 224.8 
L 222.1548 224.8 
" clip-path="url(#paec0e3c346)" style="fill: none; stroke: #000000; stroke-width: 2; stroke-linecap: round"/>
   </g>
   <g id="line2d_7">
    <path d="M 38.5548 133 
L 38.5548 87.1 
L 38.5548 41.2 
" clip-path="url(#paec0e3c346)" style="fill: none; stroke: #000000; stroke-width: 2; stroke-linecap: round"/>
   </g>
   <g id="line2d_8">
    <path d="M 38.5548 41.2 
L 61.5048 41.2 
L 84.4548 41.2 
" clip-path="url(#paec0e3c346)" style="fill: none; stroke: #000000; stroke-width: 2; stroke-linecap: round"/>
   </g>
   <g id="line2d_9">
    <path d="M 84.4548 41.2 
L 115.0548 41.2 
L 115.0548 33.55 
L 145.6548 33.55 
L 145.6548 48.85 
L 115.0548 48.85 
L 115.0548 41.2 
M 145.6548 41.2 
L 176.2548 41.2 
" clip-path="url(#paec0e3c346)" style="fill: none; stroke: #000000; stroke-width: 2; stroke-linecap: round"/>
   </g>
   <g id="line2d_10">
    <path d="M 176.2548 41.2 
L 199.2048 41.2 
L 222.1548 41.2 
" clip-path="url(#paec0e3c346)" style="fill: none; stroke: #000000; stroke-width: 2; stroke-linecap: round"/>
   </g>
   <g id="line2d_11">
    <path d="M 222.1548 41.2 
L 222.1548 87.1 
L 222.1548 133 
" clip-path="url(#paec0e3c346)" style="fill: none; stroke: #000000; stroke-width: 2; stroke-linecap: round"/>
   </g>
   <g id="line2d_12">
    <path d="M 38.5548 224.8 
L 38.5548 194.2 
L 30.9048 194.2 
L 30.9048 163.6 
L 46.2048 163.6 
L 46.2048 194.2 
L 38.5548 194.2 
M 38.5548 163.6 
L 38.5548 133 
" clip-path="url(#paec0e3c346)" style="fill: none; stroke: #000000; stroke-width: 2; stroke-linecap: round"/>
   </g>
   <g id="line2d_13">
    <path d="M 38.5548 133 
L 69.1548 133 
L 69.1548 125.35 
L 99.7548 125.35 
L 99.7548 140.65 
L 69.1548 140.65 
L 69.1548 133 
M 99.7548 133 
L 130.3548 133 
" clip-path="url(#paec0e3c346)" style="fill: none; stroke: #000000; stroke-width: 2; stroke-linecap: round"/>
   </g>
   <g id="line2d_14">
    <path d="M 130.3548 133 
L 160.9548 133 
L 160.9548 125.35 
L 191.5548 125.35 
L 191.5548 140.65 
L 160.9548 140.65 
L 160.9548 133 
M 191.5548 133 
L 222.1548 133 
" clip-path="url(#paec0e3c346)" style="fill: none; stroke: #000000; stroke-width: 2; stroke-linecap: round"/>
   </g>
   <g id="line2d_15">
    <path d="M 222.1548 133 
L 222.1548 163.6 
L 229.8048 163.6 
L 229.8048 194.2 
L 214.5048 194.2 
L 214.5048 163.6 
L 222.1548 163.6 
M 222.1548 194.2 
L 222.1548 224.8 
" clip-path="url(#paec0e3c346)" style="fill: none; stroke: #000000; stroke-width: 2; stroke-linecap: round"/>
   </g>
   <g id="line2d_16">
    <path d="M 130.3548 133 
L 130.3548 163.6 
L 138.0048 163.6 
L 138.0048 194.2 
L 122.7048 194.2 
L 122.7048 163.6 
L 130.3548 163.6 
M 130.3548 194.2 
L 130.3548 224.8 
" clip-path="url(#paec0e3c346)" style="fill: none; stroke: #000000; stroke-width: 2; stroke-linecap: round"/>
   </g>
   <g id="line2d_17">
    <path d="M 38.5548 224.8 
L 130.3548 224.8 
L 222.1548 224.8 
" clip-path="url(#paec0e3c346)" style="fill: none; stroke: #000000; stroke-width: 2; stroke-linecap: round"/>
   </g>
   <g id="line2d_18">
    <path d="M 38.5548 133 
L 38.5548 87.1 
L 38.5548 41.2 
" clip-path="url(#paec0e3c346)" style="fill: none; stroke: #000000; stroke-width: 2; stroke-linecap: round"/>
   </g>
   <g id="line2d_19">
    <path d="M 38.5548 41.2 
L 61.5048 41.2 
L 84.4548 41.2 
" clip-path="url(#paec0e3c346)" style="fill: none; stroke: #000000; stroke-width: 2; stroke-linecap: round"/>
   </g>
   <g id="line2d_20">
    <path d="M 84.4548 41.2 
L 115.0548 41.2 
L 115.0548 33.55 
L 145.6548 33.55 
L 145.6548 48.85 
L 115.0548 48.85 
L 115.0548 41.2 
M 145.6548 41.2 
L 176.2548 41.2 
" clip-path="url(#paec0e3c346)" style="fill: none; stroke: #000000; stroke-width: 2; stroke-linecap: round"/>
   </g>
   <g id="line2d_21">
    <path d="M 176.2548 41.2 
L 199.2048 41.2 
L 222.1548 41.2 
" clip-path="url(#paec0e3c346)" style="fill: none; stroke: #000000; stroke-width: 2; stroke-linecap: round"/>
   </g>
   <g id="line2d_22">
    <path d="M 222.1548 41.2 
L 222.1548 87.1 
L 222.1548 133 
" clip-path="url(#paec0e3c346)" style="fill: none; stroke: #000000; stroke-width: 2; stroke-linecap: round"/>
   </g>
   <g id="text_1">
    <g clip-path="url(#paec0e3c346)">
     <!-- $I_1$ -->
     <g style="fill: #0000ff" transform="translate(79.8923 186.174219)scale(0.125 -0.125)">
      <defs>
       <path id="STIXGeneral-Italic-49" d="M 2458 4179 
L 2458 4077 
Q 2189 4045 2102 3961 
Q 2016 3878 1933 3584 
L 1165 838 
Q 1069 499 1069 352 
Q 1069 224 1149 179 
Q 1229 134 1510 102 
L 1510 0 
L -51 0 
L -51 102 
Q 218 154 317 237 
Q 416 320 486 582 
L 1254 3405 
Q 1338 3699 1338 3802 
Q 1338 3930 1235 3997 
Q 1133 4064 877 4077 
L 877 4179 
L 2458 4179 
z
" transform="scale(0.015625)"/>
       <path id="STIXGeneral-Regular-31" d="M 2522 0 
L 755 0 
L 755 96 
Q 1107 115 1235 227 
Q 1363 339 1363 608 
L 1363 3482 
Q 1363 3795 1171 3795 
Q 1082 3795 883 3718 
L 710 3654 
L 710 3744 
L 1856 4326 
L 1914 4307 
L 1914 486 
Q 1914 275 2042 185 
Q 2170 96 2522 96 
L 2522 0 
z
" transform="scale(0.015625)"/>
      </defs>
      <use xlink:href="#STIXGeneral-Italic-49" transform="translate(0 0.703125)"/>
      <use xlink:href="#STIXGeneral-Regular-31" transform="translate(33.299988 -12.525)scale(0.7)"/>
     </g>
    </g>
   </g>
   <g id="text_2">
    <g clip-path="url(#paec0e3c346)">
     <!-- $I_2$ -->
     <g style="fill: #ff0000" transform="translate(171.6923 186.174219)scale(0.125 -0.125)">
      <defs>
       <path id="STIXGeneral-Regular-32" d="M 3034 877 
L 2688 0 
L 186 0 
L 186 77 
L 1325 1286 
Q 1773 1754 1965 2144 
Q 2157 2534 2157 2950 
Q 2157 3379 1920 3616 
Q 1683 3853 1267 3853 
Q 922 3853 720 3673 
Q 518 3494 326 3021 
L 192 3053 
Q 301 3648 630 3987 
Q 960 4326 1523 4326 
Q 2054 4326 2380 4006 
Q 2707 3686 2707 3200 
Q 2707 2477 1888 1613 
L 832 486 
L 2330 486 
Q 2541 486 2665 569 
Q 2790 653 2944 915 
L 3034 877 
z
" transform="scale(0.015625)"/>
      </defs>
      <use xlink:href="#STIXGeneral-Italic-49" transform="translate(0 0.703125)"/>
      <use xlink:href="#STIXGeneral-Regular-32" transform="translate(33.299988 -12.525)scale(0.7)"/>
     </g>
    </g>
   </g>
   <g id="text_3">
    <g clip-path="url(#paec0e3c346)">
     <!-- $I_3$ -->
     <g style="fill: #008000" transform="translate(125.7923 90.549219)scale(0.125 -0.125)">
      <defs>
       <path id="STIXGeneral-Regular-33" d="M 390 3264 
L 288 3290 
Q 435 3770 748 4048 
Q 1062 4326 1542 4326 
Q 1990 4326 2265 4083 
Q 2541 3840 2541 3450 
Q 2541 2925 1946 2566 
Q 2298 2413 2477 2227 
Q 2758 1914 2758 1402 
Q 2758 890 2464 506 
Q 2246 211 1840 60 
Q 1434 -90 979 -90 
Q 262 -90 262 275 
Q 262 378 339 442 
Q 416 506 525 506 
Q 685 506 915 339 
Q 1197 141 1466 141 
Q 1818 141 2058 425 
Q 2298 710 2298 1120 
Q 2298 1856 1632 2048 
Q 1434 2112 979 2112 
L 979 2202 
Q 1338 2323 1517 2432 
Q 2035 2726 2035 3290 
Q 2035 3610 1852 3776 
Q 1670 3942 1344 3942 
Q 768 3942 390 3264 
z
" transform="scale(0.015625)"/>
      </defs>
      <use xlink:href="#STIXGeneral-Italic-49" transform="translate(0 0.703125)"/>
      <use xlink:href="#STIXGeneral-Regular-33" transform="translate(33.299988 -12.525)scale(0.7)"/>
     </g>
    </g>
   </g>
   <g id="text_4">
    <g clip-path="url(#paec0e3c346)">
     <!-- $I_1$ -->
     <g style="fill: #0000ff" transform="translate(79.8923 186.174219)scale(0.125 -0.125)">
      <use xlink:href="#STIXGeneral-Italic-49" transform="translate(0 0.703125)"/>
      <use xlink:href="#STIXGeneral-Regular-31" transform="translate(33.299988 -12.525)scale(0.7)"/>
     </g>
    </g>
   </g>
   <g id="text_5">
    <g clip-path="url(#paec0e3c346)">
     <!-- $I_2$ -->
     <g style="fill: #ff0000" transform="translate(171.6923 186.174219)scale(0.125 -0.125)">
      <use xlink:href="#STIXGeneral-Italic-49" transform="translate(0 0.703125)"/>
      <use xlink:href="#STIXGeneral-Regular-32" transform="translate(33.299988 -12.525)scale(0.7)"/>
     </g>
    </g>
   </g>
   <g id="text_6">
    <g clip-path="url(#paec0e3c346)">
     <!-- $I_3$ -->
     <g style="fill: #008000" transform="translate(125.7923 90.549219)scale(0.125 -0.125)">
      <use xlink:href="#STIXGeneral-Italic-49" transform="translate(0 0.703125)"/>
      <use xlink:href="#STIXGeneral-Regular-33" transform="translate(33.299988 -12.525)scale(0.7)"/>
     </g>
    </g>
   </g>
   <g id="line2d_23">
    <path d="M 38.5548 212.56 
L 38.5548 212.56 
" clip-path="url(#paec0e3c346)" style="fill: none; stroke: #000000; stroke-width: 2; stroke-linecap: round"/>
   </g>
   <g id="patch_14">
    <path d="M 33.9648 212.56 
L 38.5548 203.38 
L 43.1448 212.56 
z
" clip-path="url(#paec0e3c346)"/>
   </g>
   <g id="text_7">
    <g clip-path="url(#paec0e3c346)">
     <!-- $I_a$ -->
     <g transform="translate(20.2498 211.419219)scale(0.125 -0.125)">
      <defs>
       <path id="STIXGeneral-Italic-61" d="M 2963 710 
L 3046 640 
Q 2688 205 2518 70 
Q 2349 -64 2157 -64 
Q 1901 -64 1901 198 
Q 1901 358 2048 934 
Q 1690 397 1389 163 
Q 1088 -70 749 -70 
Q 467 -70 288 125 
Q 109 320 109 672 
Q 109 1158 387 1664 
Q 666 2170 1094 2496 
Q 1523 2822 1939 2822 
Q 2368 2822 2451 2451 
L 2522 2758 
L 2541 2778 
L 2931 2822 
L 2976 2803 
Q 2970 2778 2938 2669 
Q 2368 595 2368 346 
Q 2368 262 2458 262 
Q 2554 262 2790 525 
L 2963 710 
z
M 2336 2310 
Q 2336 2477 2240 2579 
Q 2144 2682 1978 2682 
Q 1542 2682 1139 2093 
Q 928 1779 787 1395 
Q 646 1011 646 717 
Q 646 243 1030 243 
Q 1408 243 1843 870 
Q 2336 1581 2336 2310 
z
" transform="scale(0.015625)"/>
      </defs>
      <use xlink:href="#STIXGeneral-Italic-49" transform="translate(0 0.703125)"/>
      <use xlink:href="#STIXGeneral-Italic-61" transform="translate(33.299988 -12.525)scale(0.7)"/>
     </g>
    </g>
   </g>
   <g id="line2d_24">
    <path d="M 50.7948 133 
L 50.7948 133 
" clip-path="url(#paec0e3c346)" style="fill: none; stroke: #000000; stroke-width: 2; stroke-linecap: round"/>
   </g>
   <g id="patch_15">
    <path d="M 50.7948 128.41 
L 59.9748 133 
L 50.7948 137.59 
z
" clip-path="url(#paec0e3c346)"/>
   </g>
   <g id="text_8">
    <g clip-path="url(#paec0e3c346)">
     <!-- $I_b$ -->
     <g transform="translate(50.8223 121.220391)scale(0.125 -0.125)">
      <defs>
       <path id="STIXGeneral-Italic-62" d="M 1043 1856 
L 1050 1856 
Q 1370 2387 1654 2604 
Q 1939 2822 2285 2822 
Q 2618 2822 2822 2617 
Q 3027 2413 3027 2054 
Q 3027 1562 2726 1062 
Q 2426 563 1942 246 
Q 1459 -70 979 -70 
Q 685 -70 416 32 
Q 147 134 147 269 
L 147 307 
L 1056 3654 
Q 1114 3885 1114 3955 
Q 1114 4058 1053 4080 
Q 992 4102 704 4115 
L 704 4224 
Q 1184 4282 1683 4371 
L 1715 4339 
L 1581 3814 
L 1043 1856 
z
M 2483 1958 
Q 2483 2509 2035 2509 
Q 1594 2509 1158 1773 
Q 954 1427 826 1008 
Q 698 589 698 294 
Q 698 77 992 77 
Q 1414 77 1779 454 
Q 2074 762 2278 1187 
Q 2483 1613 2483 1958 
z
" transform="scale(0.015625)"/>
      </defs>
      <use xlink:href="#STIXGeneral-Italic-49" transform="translate(0 0.703125)"/>
      <use xlink:href="#STIXGeneral-Italic-62" transform="translate(33.299988 -12.525)scale(0.7)"/>
     </g>
    </g>
   </g>
   <g id="line2d_25">
    <path d="M 151.7748 133 
L 151.7748 133 
" clip-path="url(#paec0e3c346)" style="fill: none; stroke: #000000; stroke-width: 2; stroke-linecap: round"/>
   </g>
   <g id="patch_16">
    <path d="M 151.7748 137.59 
L 142.5948 133 
L 151.7748 128.41 
z
" clip-path="url(#paec0e3c346)"/>
   </g>
   <g id="text_9">
    <g clip-path="url(#paec0e3c346)">
     <!-- $I_c$ -->
     <g transform="translate(142.8723 121.220391)scale(0.125 -0.125)">
      <defs>
       <path id="STIXGeneral-Italic-63" d="M 2240 685 
L 2342 621 
Q 2048 250 1769 90 
Q 1491 -70 1133 -70 
Q 678 -70 435 179 
Q 192 429 192 915 
Q 192 1344 409 1744 
Q 627 2144 979 2432 
Q 1472 2822 2048 2822 
Q 2342 2822 2531 2675 
Q 2720 2528 2720 2304 
Q 2720 2176 2630 2086 
Q 2541 1997 2413 1997 
Q 2285 1997 2224 2070 
Q 2163 2144 2163 2253 
Q 2163 2310 2211 2403 
Q 2259 2496 2259 2560 
Q 2259 2688 2022 2688 
Q 1619 2688 1325 2381 
Q 742 1766 742 890 
Q 742 544 889 352 
Q 1037 160 1312 160 
Q 1562 160 1766 281 
Q 1971 403 2240 685 
z
" transform="scale(0.015625)"/>
      </defs>
      <use xlink:href="#STIXGeneral-Italic-49" transform="translate(0 0.703125)"/>
      <use xlink:href="#STIXGeneral-Italic-63" transform="translate(33.299988 -12.525)scale(0.7)"/>
     </g>
    </g>
   </g>
   <g id="line2d_26">
    <path d="M 222.1548 145.24 
L 222.1548 145.24 
" clip-path="url(#paec0e3c346)" style="fill: none; stroke: #000000; stroke-width: 2; stroke-linecap: round"/>
   </g>
   <g id="patch_17">
    <path d="M 226.7448 145.24 
L 222.1548 154.42 
L 217.5648 145.24 
z
" clip-path="url(#paec0e3c346)"/>
   </g>
   <g id="text_10">
    <g clip-path="url(#paec0e3c346)">
     <!-- $I_d$ -->
     <g transform="translate(203.8498 153.279219)scale(0.125 -0.125)">
      <defs>
       <path id="STIXGeneral-Italic-64" d="M 3334 4371 
L 3373 4333 
L 3123 3360 
L 2739 1958 
Q 2323 429 2323 384 
Q 2323 256 2438 256 
Q 2522 256 2614 336 
Q 2707 416 2963 710 
L 3040 646 
Q 2547 -83 2099 -83 
Q 1978 -83 1907 -6 
Q 1837 70 1837 205 
Q 1837 397 1920 774 
Q 1645 307 1379 118 
Q 1114 -70 781 -70 
Q 461 -70 278 125 
Q 96 320 96 678 
Q 96 1440 713 2131 
Q 1331 2822 1965 2822 
Q 2163 2822 2256 2732 
Q 2349 2643 2381 2451 
L 2387 2451 
L 2675 3494 
Q 2765 3808 2765 3949 
Q 2765 4051 2694 4076 
Q 2624 4102 2355 4115 
L 2355 4224 
Q 2848 4269 3334 4371 
z
M 2278 2310 
Q 2278 2477 2185 2576 
Q 2093 2675 1978 2675 
Q 1677 2675 1395 2381 
Q 1075 2042 864 1571 
Q 653 1101 653 704 
Q 653 486 752 361 
Q 851 237 1024 237 
Q 1312 237 1606 550 
Q 1901 864 2089 1350 
Q 2278 1837 2278 2310 
z
" transform="scale(0.015625)"/>
      </defs>
      <use xlink:href="#STIXGeneral-Italic-49" transform="translate(0 0.703125)"/>
      <use xlink:href="#STIXGeneral-Italic-64" transform="translate(33.299988 -12.525)scale(0.7)"/>
     </g>
    </g>
   </g>
   <g id="line2d_27">
    <path d="M 130.3548 145.24 
L 130.3548 145.24 
" clip-path="url(#paec0e3c346)" style="fill: none; stroke: #000000; stroke-width: 2; stroke-linecap: round"/>
   </g>
   <g id="patch_18">
    <path d="M 134.9448 145.24 
L 130.3548 154.42 
L 125.7648 145.24 
z
" clip-path="url(#paec0e3c346)"/>
   </g>
   <g id="text_11">
    <g clip-path="url(#paec0e3c346)">
     <!-- $I_e$ -->
     <g transform="translate(112.5498 153.279219)scale(0.125 -0.125)">
      <defs>
       <path id="STIXGeneral-Italic-65" d="M 2291 698 
L 2368 621 
Q 1805 -70 1062 -70 
Q 672 -70 435 170 
Q 198 410 198 806 
Q 198 1555 796 2188 
Q 1395 2822 2112 2822 
Q 2362 2822 2499 2707 
Q 2637 2592 2637 2387 
Q 2637 1965 2147 1632 
Q 1658 1299 819 1190 
Q 755 1062 755 800 
Q 755 538 918 378 
Q 1082 218 1350 218 
Q 1562 218 1754 317 
Q 1946 416 2291 698 
z
M 973 1613 
L 864 1331 
Q 1581 1504 1894 1805 
Q 2214 2112 2214 2426 
Q 2214 2675 1990 2675 
Q 1722 2675 1430 2364 
Q 1139 2054 973 1613 
z
" transform="scale(0.015625)"/>
      </defs>
      <use xlink:href="#STIXGeneral-Italic-49" transform="translate(0 0.703125)"/>
      <use xlink:href="#STIXGeneral-Italic-65" transform="translate(33.299988 -12.525)scale(0.7)"/>
     </g>
    </g>
   </g>
   <g id="line2d_28">
    <path d="M 96.6948 41.2 
L 96.6948 41.2 
" clip-path="url(#paec0e3c346)" style="fill: none; stroke: #000000; stroke-width: 2; stroke-linecap: round"/>
   </g>
   <g id="patch_19">
    <path d="M 96.6948 36.61 
L 105.8748 41.2 
L 96.6948 45.79 
z
" clip-path="url(#paec0e3c346)"/>
   </g>
   <g id="text_12">
    <g clip-path="url(#paec0e3c346)">
     <!-- $I_f$ -->
     <g transform="translate(97.6598 28.52)scale(0.125 -0.125)">
      <defs>
       <path id="STIXGeneral-Italic-66" d="M 262 2739 
L 858 2739 
Q 1107 3546 1318 3846 
Q 1664 4339 2163 4339 
Q 2400 4339 2557 4227 
Q 2714 4115 2714 3942 
Q 2714 3834 2634 3750 
Q 2554 3667 2445 3667 
Q 2355 3667 2281 3737 
Q 2208 3808 2208 3917 
Q 2208 3981 2240 4038 
Q 2272 4096 2272 4115 
Q 2272 4198 2131 4198 
Q 1862 4198 1676 3849 
Q 1491 3501 1350 2739 
L 2035 2739 
L 1997 2534 
L 1306 2534 
L 845 486 
Q 435 -1325 -435 -1325 
Q -653 -1325 -797 -1213 
Q -941 -1101 -941 -934 
Q -941 -826 -870 -746 
Q -800 -666 -698 -666 
Q -589 -666 -521 -733 
Q -454 -800 -454 -902 
Q -454 -947 -483 -1001 
Q -512 -1056 -512 -1088 
Q -512 -1190 -384 -1190 
Q 13 -1190 237 -154 
L 800 2534 
L 218 2534 
L 262 2739 
z
" transform="scale(0.015625)"/>
      </defs>
      <use xlink:href="#STIXGeneral-Italic-49" transform="translate(0 0.703125)"/>
      <use xlink:href="#STIXGeneral-Italic-66" transform="translate(33.299988 -12.525)scale(0.7)"/>
     </g>
    </g>
   </g>
   <g id="line2d_29">
    <path d="M 38.5548 212.56 
L 38.5548 212.56 
" clip-path="url(#paec0e3c346)" style="fill: none; stroke: #000000; stroke-width: 2; stroke-linecap: round"/>
   </g>
   <g id="patch_20">
    <path d="M 33.9648 212.56 
L 38.5548 203.38 
L 43.1448 212.56 
z
" clip-path="url(#paec0e3c346)"/>
   </g>
   <g id="text_13">
    <g clip-path="url(#paec0e3c346)">
     <!-- $I_a$ -->
     <g transform="translate(20.2498 211.419219)scale(0.125 -0.125)">
      <use xlink:href="#STIXGeneral-Italic-49" transform="translate(0 0.703125)"/>
      <use xlink:href="#STIXGeneral-Italic-61" transform="translate(33.299988 -12.525)scale(0.7)"/>
     </g>
    </g>
   </g>
   <g id="line2d_30">
    <path d="M 50.7948 133 
L 50.7948 133 
" clip-path="url(#paec0e3c346)" style="fill: none; stroke: #000000; stroke-width: 2; stroke-linecap: round"/>
   </g>
   <g id="patch_21">
    <path d="M 50.7948 128.41 
L 59.9748 133 
L 50.7948 137.59 
z
" clip-path="url(#paec0e3c346)"/>
   </g>
   <g id="text_14">
    <g clip-path="url(#paec0e3c346)">
     <!-- $I_b$ -->
     <g transform="translate(50.8223 121.220391)scale(0.125 -0.125)">
      <use xlink:href="#STIXGeneral-Italic-49" transform="translate(0 0.703125)"/>
      <use xlink:href="#STIXGeneral-Italic-62" transform="translate(33.299988 -12.525)scale(0.7)"/>
     </g>
    </g>
   </g>
   <g id="line2d_31">
    <path d="M 151.7748 133 
L 151.7748 133 
" clip-path="url(#paec0e3c346)" style="fill: none; stroke: #000000; stroke-width: 2; stroke-linecap: round"/>
   </g>
   <g id="patch_22">
    <path d="M 151.7748 137.59 
L 142.5948 133 
L 151.7748 128.41 
z
" clip-path="url(#paec0e3c346)"/>
   </g>
   <g id="text_15">
    <g clip-path="url(#paec0e3c346)">
     <!-- $I_c$ -->
     <g transform="translate(142.8723 121.220391)scale(0.125 -0.125)">
      <use xlink:href="#STIXGeneral-Italic-49" transform="translate(0 0.703125)"/>
      <use xlink:href="#STIXGeneral-Italic-63" transform="translate(33.299988 -12.525)scale(0.7)"/>
     </g>
    </g>
   </g>
   <g id="line2d_32">
    <path d="M 222.1548 145.24 
L 222.1548 145.24 
" clip-path="url(#paec0e3c346)" style="fill: none; stroke: #000000; stroke-width: 2; stroke-linecap: round"/>
   </g>
   <g id="patch_23">
    <path d="M 226.7448 145.24 
L 222.1548 154.42 
L 217.5648 145.24 
z
" clip-path="url(#paec0e3c346)"/>
   </g>
   <g id="text_16">
    <g clip-path="url(#paec0e3c346)">
     <!-- $I_d$ -->
     <g transform="translate(203.8498 153.279219)scale(0.125 -0.125)">
      <use xlink:href="#STIXGeneral-Italic-49" transform="translate(0 0.703125)"/>
      <use xlink:href="#STIXGeneral-Italic-64" transform="translate(33.299988 -12.525)scale(0.7)"/>
     </g>
    </g>
   </g>
   <g id="line2d_33">
    <path d="M 130.3548 145.24 
L 130.3548 145.24 
" clip-path="url(#paec0e3c346)" style="fill: none; stroke: #000000; stroke-width: 2; stroke-linecap: round"/>
   </g>
   <g id="patch_24">
    <path d="M 134.9448 145.24 
L 130.3548 154.42 
L 125.7648 145.24 
z
" clip-path="url(#paec0e3c346)"/>
   </g>
   <g id="text_17">
    <g clip-path="url(#paec0e3c346)">
     <!-- $I_e$ -->
     <g transform="translate(112.5498 153.279219)scale(0.125 -0.125)">
      <use xlink:href="#STIXGeneral-Italic-49" transform="translate(0 0.703125)"/>
      <use xlink:href="#STIXGeneral-Italic-65" transform="translate(33.299988 -12.525)scale(0.7)"/>
     </g>
    </g>
   </g>
   <g id="line2d_34">
    <path d="M 96.6948 41.2 
L 96.6948 41.2 
" clip-path="url(#paec0e3c346)" style="fill: none; stroke: #000000; stroke-width: 2; stroke-linecap: round"/>
   </g>
   <g id="patch_25">
    <path d="M 96.6948 36.61 
L 105.8748 41.2 
L 96.6948 45.79 
z
" clip-path="url(#paec0e3c346)"/>
   </g>
   <g id="text_18">
    <g clip-path="url(#paec0e3c346)">
     <!-- $I_f$ -->
     <g transform="translate(97.6598 28.52)scale(0.125 -0.125)">
      <use xlink:href="#STIXGeneral-Italic-49" transform="translate(0 0.703125)"/>
      <use xlink:href="#STIXGeneral-Italic-66" transform="translate(33.299988 -12.525)scale(0.7)"/>
     </g>
    </g>
   </g>
  </g>
 </g>
 <defs>
  <clipPath id="paec0e3c346">
   <rect x="7.2" y="7.2" width="225.6648" height="220.66"/>
  </clipPath>
 </defs>
</svg>
