<?xml version="1.0" encoding="utf-8" standalone="no"?>
<!DOCTYPE svg PUBLIC "-//W3C//DTD SVG 1.1//EN"
  "http://www.w3.org/Graphics/SVG/1.1/DTD/svg11.dtd">
<svg xmlns:xlink="http://www.w3.org/1999/xlink" width="223.969181pt" height="159.07pt" viewBox="0 0 223.969181 159.07" xmlns="http://www.w3.org/2000/svg" version="1.1">
 <metadata>
  <rdf:RDF xmlns:dc="http://purl.org/dc/elements/1.1/" xmlns:cc="http://creativecommons.org/ns#" xmlns:rdf="http://www.w3.org/1999/02/22-rdf-syntax-ns#">
   <cc:Work>
    <dc:type rdf:resource="http://purl.org/dc/dcmitype/StillImage"/>
    <dc:date>2023-03-16T22:07:46.490227</dc:date>
    <dc:format>image/svg+xml</dc:format>
    <dc:creator>
     <cc:Agent>
      <dc:title>Matplotlib v3.5.2, https://matplotlib.org/</dc:title>
     </cc:Agent>
    </dc:creator>
   </cc:Work>
  </rdf:RDF>
 </metadata>
 <defs>
  <style type="text/css">*{stroke-linejoin: round; stroke-linecap: butt}</style>
 </defs>
 <g id="figure_1">
  <g id="patch_1">
   <path d="M 0 159.07 
L 223.969181 159.07 
L 223.969181 0 
L 0 0 
L 0 159.07 
z
" style="fill: none"/>
  </g>
  <g id="axes_1">
   <g id="patch_2">
    <path d="M 61.8006 118.21 
C 65.858207 118.21 69.750172 116.597895 72.619334 113.728734 
C 75.488495 110.859572 77.1006 106.967607 77.1006 102.91 
C 77.1006 98.852393 75.488495 94.960428 72.619334 92.091266 
C 69.750172 89.222105 65.858207 87.61 61.8006 87.61 
C 57.742993 87.61 53.851028 89.222105 50.981866 92.091266 
C 48.112705 94.960428 46.5006 98.852393 46.5006 102.91 
C 46.5006 106.967607 48.112705 110.859572 50.981866 113.728734 
C 53.851028 116.597895 57.742993 118.21 61.8006 118.21 
L 61.8006 118.21 
z
" clip-path="url(#p5a61ed20e9)" style="fill: none; stroke: #000000; stroke-width: 2; stroke-linejoin: miter"/>
   </g>
   <g id="patch_3">
    <path d="M 153.6006 95.26 
C 154.614664 95.26 155.588232 94.856735 156.305283 94.139683 
C 157.022335 93.422632 157.4256 92.449064 157.4256 91.435 
C 157.4256 90.420936 157.022335 89.447368 156.305283 88.730317 
C 155.588232 88.013265 154.614664 87.61 153.6006 87.61 
" clip-path="url(#p5a61ed20e9)" style="fill: none; stroke: #000000; stroke-width: 2; stroke-linejoin: miter"/>
   </g>
   <g id="patch_4">
    <path d="M 153.6006 102.91 
C 154.614664 102.91 155.588232 102.506735 156.305283 101.789683 
C 157.022335 101.072632 157.4256 100.099064 157.4256 99.085 
C 157.4256 98.070936 157.022335 97.097368 156.305283 96.380317 
C 155.588232 95.663265 154.614664 95.26 153.6006 95.26 
" clip-path="url(#p5a61ed20e9)" style="fill: none; stroke: #000000; stroke-width: 2; stroke-linejoin: miter"/>
   </g>
   <g id="patch_5">
    <path d="M 153.6006 110.56 
C 154.614664 110.56 155.588232 110.156735 156.305283 109.439683 
C 157.022335 108.722632 157.4256 107.749064 157.4256 106.735 
C 157.4256 105.720936 157.022335 104.747368 156.305283 104.030317 
C 155.588232 103.313265 154.614664 102.91 153.6006 102.91 
" clip-path="url(#p5a61ed20e9)" style="fill: none; stroke: #000000; stroke-width: 2; stroke-linejoin: miter"/>
   </g>
   <g id="patch_6">
    <path d="M 153.6006 118.21 
C 154.614664 118.21 155.588232 117.806735 156.305283 117.089683 
C 157.022335 116.372632 157.4256 115.399064 157.4256 114.385 
C 157.4256 113.370936 157.022335 112.397368 156.305283 111.680317 
C 155.588232 110.963265 154.614664 110.56 153.6006 110.56 
" clip-path="url(#p5a61ed20e9)" style="fill: none; stroke: #000000; stroke-width: 2; stroke-linejoin: miter"/>
   </g>
   <g id="patch_7">
    <path d="M 61.8006 118.21 
C 65.858207 118.21 69.750172 116.597895 72.619334 113.728734 
C 75.488495 110.859572 77.1006 106.967607 77.1006 102.91 
C 77.1006 98.852393 75.488495 94.960428 72.619334 92.091266 
C 69.750172 89.222105 65.858207 87.61 61.8006 87.61 
C 57.742993 87.61 53.851028 89.222105 50.981866 92.091266 
C 48.112705 94.960428 46.5006 98.852393 46.5006 102.91 
C 46.5006 106.967607 48.112705 110.859572 50.981866 113.728734 
C 53.851028 116.597895 57.742993 118.21 61.8006 118.21 
L 61.8006 118.21 
z
" clip-path="url(#p5a61ed20e9)" style="fill: none; stroke: #000000; stroke-width: 2; stroke-linejoin: miter"/>
   </g>
   <g id="patch_8">
    <path d="M 153.6006 95.26 
C 154.614664 95.26 155.588232 94.856735 156.305283 94.139683 
C 157.022335 93.422632 157.4256 92.449064 157.4256 91.435 
C 157.4256 90.420936 157.022335 89.447368 156.305283 88.730317 
C 155.588232 88.013265 154.614664 87.61 153.6006 87.61 
" clip-path="url(#p5a61ed20e9)" style="fill: none; stroke: #000000; stroke-width: 2; stroke-linejoin: miter"/>
   </g>
   <g id="patch_9">
    <path d="M 153.6006 102.91 
C 154.614664 102.91 155.588232 102.506735 156.305283 101.789683 
C 157.022335 101.072632 157.4256 100.099064 157.4256 99.085 
C 157.4256 98.070936 157.022335 97.097368 156.305283 96.380317 
C 155.588232 95.663265 154.614664 95.26 153.6006 95.26 
" clip-path="url(#p5a61ed20e9)" style="fill: none; stroke: #000000; stroke-width: 2; stroke-linejoin: miter"/>
   </g>
   <g id="patch_10">
    <path d="M 153.6006 110.56 
C 154.614664 110.56 155.588232 110.156735 156.305283 109.439683 
C 157.022335 108.722632 157.4256 107.749064 157.4256 106.735 
C 157.4256 105.720936 157.022335 104.747368 156.305283 104.030317 
C 155.588232 103.313265 154.614664 102.91 153.6006 102.91 
" clip-path="url(#p5a61ed20e9)" style="fill: none; stroke: #000000; stroke-width: 2; stroke-linejoin: miter"/>
   </g>
   <g id="patch_11">
    <path d="M 153.6006 118.21 
C 154.614664 118.21 155.588232 117.806735 156.305283 117.089683 
C 157.022335 116.372632 157.4256 115.399064 157.4256 114.385 
C 157.4256 113.370936 157.022335 112.397368 156.305283 111.680317 
C 155.588232 110.963265 154.614664 110.56 153.6006 110.56 
" clip-path="url(#p5a61ed20e9)" style="fill: none; stroke: #000000; stroke-width: 2; stroke-linejoin: miter"/>
   </g>
   <g id="line2d_1">
    <path d="M 61.8006 148.81 
L 61.8006 118.21 
L 61.8006 118.21 
M 61.8006 87.61 
L 61.8006 87.61 
L 61.8006 57.01 
" clip-path="url(#p5a61ed20e9)" style="fill: none; stroke: #000000; stroke-width: 2; stroke-linecap: round"/>
   </g>
   <g id="line2d_2">
    <path d="M 64.8606 110.56 
L 58.7406 110.56 
" clip-path="url(#p5a61ed20e9)" style="fill: none; stroke: #000000; stroke-width: 2; stroke-linecap: round"/>
   </g>
   <g id="line2d_3">
    <path d="M 61.8006 98.32 
L 61.8006 92.2 
" clip-path="url(#p5a61ed20e9)" style="fill: none; stroke: #000000; stroke-width: 2; stroke-linecap: round"/>
   </g>
   <g id="line2d_4">
    <path d="M 64.8606 95.26 
L 58.7406 95.26 
" clip-path="url(#p5a61ed20e9)" style="fill: none; stroke: #000000; stroke-width: 2; stroke-linecap: round"/>
   </g>
   <g id="line2d_5">
    <path d="M 61.8006 57.01 
L 92.4006 57.01 
L 94.9506 49.36 
L 100.0506 64.66 
L 105.1506 49.36 
L 110.2506 64.66 
L 115.3506 49.36 
L 120.4506 64.66 
L 123.0006 57.01 
L 153.6006 57.01 
" clip-path="url(#p5a61ed20e9)" style="fill: none; stroke: #000000; stroke-width: 2; stroke-linecap: round"/>
   </g>
   <g id="line2d_6">
    <path d="M 153.6006 57.01 
L 153.6006 87.61 
M 153.6006 118.21 
L 153.6006 148.81 
" clip-path="url(#p5a61ed20e9)" style="fill: none; stroke: #000000; stroke-width: 2; stroke-linecap: round"/>
   </g>
   <g id="line2d_7">
    <path d="M 153.6006 148.81 
L 107.7006 148.81 
L 61.8006 148.81 
" clip-path="url(#p5a61ed20e9)" style="fill: none; stroke: #000000; stroke-width: 2; stroke-linecap: round"/>
   </g>
   <g id="line2d_8">
    <path d="M 61.8006 148.81 
L 61.8006 118.21 
L 61.8006 118.21 
M 61.8006 87.61 
L 61.8006 87.61 
L 61.8006 57.01 
" clip-path="url(#p5a61ed20e9)" style="fill: none; stroke: #000000; stroke-width: 2; stroke-linecap: round"/>
   </g>
   <g id="line2d_9">
    <path d="M 64.8606 110.56 
L 58.7406 110.56 
" clip-path="url(#p5a61ed20e9)" style="fill: none; stroke: #000000; stroke-width: 2; stroke-linecap: round"/>
   </g>
   <g id="line2d_10">
    <path d="M 61.8006 98.32 
L 61.8006 92.2 
" clip-path="url(#p5a61ed20e9)" style="fill: none; stroke: #000000; stroke-width: 2; stroke-linecap: round"/>
   </g>
   <g id="line2d_11">
    <path d="M 64.8606 95.26 
L 58.7406 95.26 
" clip-path="url(#p5a61ed20e9)" style="fill: none; stroke: #000000; stroke-width: 2; stroke-linecap: round"/>
   </g>
   <g id="line2d_12">
    <path d="M 61.8006 57.01 
L 92.4006 57.01 
L 94.9506 49.36 
L 100.0506 64.66 
L 105.1506 49.36 
L 110.2506 64.66 
L 115.3506 49.36 
L 120.4506 64.66 
L 123.0006 57.01 
L 153.6006 57.01 
" clip-path="url(#p5a61ed20e9)" style="fill: none; stroke: #000000; stroke-width: 2; stroke-linecap: round"/>
   </g>
   <g id="line2d_13">
    <path d="M 153.6006 57.01 
L 153.6006 87.61 
M 153.6006 118.21 
L 153.6006 148.81 
" clip-path="url(#p5a61ed20e9)" style="fill: none; stroke: #000000; stroke-width: 2; stroke-linecap: round"/>
   </g>
   <g id="line2d_14">
    <path d="M 153.6006 148.81 
L 107.7006 148.81 
L 61.8006 148.81 
" clip-path="url(#p5a61ed20e9)" style="fill: none; stroke: #000000; stroke-width: 2; stroke-linecap: round"/>
   </g>
   <g id="text_1">
    <g clip-path="url(#p5a61ed20e9)">
     <!-- $v_I(t)$ -->
     <g transform="translate(22.5656 106.359219)scale(0.125 -0.125)">
      <defs>
       <path id="STIXGeneral-Italic-76" d="M 1325 448 
L 1523 653 
Q 1869 1005 2134 1456 
Q 2400 1907 2400 2131 
Q 2400 2208 2285 2317 
Q 2125 2458 2125 2605 
Q 2125 2701 2195 2761 
Q 2266 2822 2368 2822 
Q 2522 2822 2624 2704 
Q 2726 2586 2726 2445 
Q 2726 2074 2323 1453 
Q 1971 909 1562 474 
Q 1504 416 1421 326 
Q 1338 237 1299 192 
Q 1261 147 1200 86 
Q 1139 26 1110 -3 
Q 1082 -32 1043 -64 
Q 1005 -96 979 -105 
Q 954 -115 928 -115 
Q 870 -115 870 58 
L 870 211 
Q 870 1094 717 1990 
Q 653 2355 579 2470 
Q 506 2586 326 2586 
Q 198 2586 128 2579 
L 128 2662 
Q 480 2720 845 2797 
Q 915 2822 973 2822 
Q 1011 2822 1033 2739 
Q 1056 2656 1165 2093 
Q 1280 1510 1325 448 
z
" transform="scale(0.015625)"/>
       <path id="STIXGeneral-Italic-49" d="M 2458 4179 
L 2458 4077 
Q 2189 4045 2102 3961 
Q 2016 3878 1933 3584 
L 1165 838 
Q 1069 499 1069 352 
Q 1069 224 1149 179 
Q 1229 134 1510 102 
L 1510 0 
L -51 0 
L -51 102 
Q 218 154 317 237 
Q 416 320 486 582 
L 1254 3405 
Q 1338 3699 1338 3802 
Q 1338 3930 1235 3997 
Q 1133 4064 877 4077 
L 877 4179 
L 2458 4179 
z
" transform="scale(0.015625)"/>
       <path id="STIXGeneral-Regular-28" d="M 1946 -1030 
L 1869 -1133 
Q 1126 -710 716 32 
Q 307 774 307 1613 
Q 307 3386 1888 4326 
L 1946 4224 
Q 1293 3667 1075 3126 
Q 858 2586 858 1632 
Q 858 685 1082 96 
Q 1306 -493 1946 -1030 
z
" transform="scale(0.015625)"/>
       <path id="STIXGeneral-Italic-74" d="M 1894 2739 
L 1862 2534 
L 1325 2534 
L 768 435 
Q 755 384 755 346 
Q 755 243 851 243 
Q 928 243 1030 342 
Q 1133 442 1370 749 
L 1453 704 
Q 1158 256 969 93 
Q 781 -70 538 -70 
Q 243 -70 243 166 
Q 243 230 346 640 
L 845 2534 
L 365 2534 
L 358 2573 
Q 358 2688 570 2733 
Q 730 2771 992 2979 
Q 1254 3187 1421 3437 
Q 1459 3494 1510 3494 
Q 1568 3494 1568 3443 
Q 1568 3411 1562 3398 
L 1382 2739 
L 1894 2739 
z
" transform="scale(0.015625)"/>
       <path id="STIXGeneral-Regular-29" d="M 186 4224 
L 262 4326 
Q 992 3891 1408 3148 
Q 1824 2406 1824 1581 
Q 1824 -166 243 -1133 
L 186 -1030 
Q 845 -486 1059 54 
Q 1274 595 1274 1562 
Q 1274 2534 1059 3120 
Q 845 3706 186 4224 
z
" transform="scale(0.015625)"/>
      </defs>
      <use xlink:href="#STIXGeneral-Italic-76" transform="translate(0 0.40625)"/>
      <use xlink:href="#STIXGeneral-Italic-49" transform="translate(44.399994 -12.821875)scale(0.7)"/>
      <use xlink:href="#STIXGeneral-Regular-28" transform="translate(72.11936 0.40625)"/>
      <use xlink:href="#STIXGeneral-Italic-74" transform="translate(105.419348 0.40625)"/>
      <use xlink:href="#STIXGeneral-Regular-29" transform="translate(133.219336 0.40625)"/>
     </g>
    </g>
   </g>
   <g id="text_2">
    <g clip-path="url(#p5a61ed20e9)">
     <!-- $R$ -->
     <g transform="translate(103.8256 29.703125)scale(0.125 -0.125)">
      <defs>
       <path id="STIXGeneral-Italic-52" d="M 845 4179 
L 2458 4179 
Q 3078 4179 3420 3936 
Q 3763 3693 3763 3277 
Q 3763 2778 3341 2458 
Q 3091 2266 2502 2131 
L 3072 627 
Q 3181 333 3299 217 
Q 3418 102 3629 102 
L 3629 0 
L 2688 0 
L 1901 2074 
L 1478 2106 
L 1126 806 
Q 1043 512 1043 403 
Q 1043 256 1126 192 
Q 1210 128 1472 102 
L 1472 0 
L -83 0 
L -83 102 
Q 173 134 278 243 
Q 384 352 461 646 
L 1222 3405 
Q 1299 3699 1299 3808 
Q 1299 3923 1210 3987 
Q 1133 4038 845 4077 
L 845 4179 
z
M 1958 3795 
L 1555 2342 
Q 1754 2310 1882 2310 
Q 2451 2310 2771 2566 
Q 3091 2822 3091 3270 
Q 3091 3603 2892 3795 
Q 2694 3987 2323 3987 
Q 2010 3987 1958 3795 
z
" transform="scale(0.015625)"/>
      </defs>
      <use xlink:href="#STIXGeneral-Italic-52" transform="translate(0 0.703125)"/>
     </g>
    </g>
    <g clip-path="url(#p5a61ed20e9)">
     <!-- $1~k\Omega$ -->
     <g transform="translate(95.6381 43.700391)scale(0.125 -0.125)">
      <defs>
       <path id="STIXGeneral-Regular-31" d="M 2522 0 
L 755 0 
L 755 96 
Q 1107 115 1235 227 
Q 1363 339 1363 608 
L 1363 3482 
Q 1363 3795 1171 3795 
Q 1082 3795 883 3718 
L 710 3654 
L 710 3744 
L 1856 4326 
L 1914 4307 
L 1914 486 
Q 1914 275 2042 185 
Q 2170 96 2522 96 
L 2522 0 
z
" transform="scale(0.015625)"/>
       <path id="STIXGeneral-Italic-6b" d="M 2950 2739 
L 2950 2637 
Q 2720 2624 2464 2448 
Q 2208 2272 1510 1651 
L 1747 1088 
Q 2099 262 2266 262 
Q 2400 262 2554 531 
Q 2586 582 2650 698 
L 2746 627 
Q 2522 224 2374 77 
Q 2227 -70 2035 -70 
Q 1894 -70 1782 42 
Q 1670 154 1517 454 
Q 1325 826 1133 1357 
L 877 1152 
L 570 0 
L 90 0 
L 992 3379 
Q 1082 3699 1107 3942 
Q 1088 4096 781 4096 
L 666 4096 
L 666 4198 
Q 1146 4256 1670 4371 
L 1709 4333 
L 941 1414 
L 1216 1626 
Q 2131 2330 2131 2522 
Q 2131 2637 1894 2637 
L 1805 2637 
L 1805 2739 
L 2950 2739 
z
" transform="scale(0.015625)"/>
       <path id="STIXGeneral-Regular-3a9" d="M 4576 0 
L 2746 0 
L 2790 1030 
Q 3187 1126 3440 1574 
Q 3693 2022 3693 2554 
Q 3693 3251 3344 3673 
Q 2995 4096 2380 4096 
Q 1766 4096 1417 3635 
Q 1069 3174 1069 2554 
Q 1069 2054 1315 1600 
Q 1562 1146 1965 1030 
L 2022 0 
L 186 0 
L 186 1094 
L 346 1094 
Q 352 806 438 707 
Q 525 608 742 608 
L 1709 608 
L 1696 845 
Q 1018 1037 678 1446 
Q 339 1856 339 2541 
Q 339 3238 899 3782 
Q 1459 4326 2380 4326 
Q 3302 4326 3862 3804 
Q 4422 3283 4422 2541 
Q 4422 1235 3046 845 
L 3034 608 
L 4019 608 
Q 4397 608 4416 1082 
L 4576 1082 
L 4576 0 
z
" transform="scale(0.015625)"/>
      </defs>
      <use xlink:href="#STIXGeneral-Regular-31" transform="translate(0 0.703125)"/>
      <use xlink:href="#STIXGeneral-Italic-6b" transform="translate(74.066405 0.703125)"/>
      <use xlink:href="#STIXGeneral-Regular-3a9" transform="translate(118.466399 0.703125)"/>
     </g>
    </g>
   </g>
   <g id="text_3">
    <g clip-path="url(#p5a61ed20e9)">
     <!-- $L$ -->
     <g transform="translate(160.485581 99.360586)scale(0.125 -0.125)">
      <defs>
       <path id="STIXGeneral-Italic-4c" d="M 3578 1152 
L 3206 0 
L -51 0 
L -51 102 
Q 218 128 301 211 
Q 384 294 474 602 
L 1254 3405 
Q 1325 3642 1325 3802 
Q 1325 3942 1225 4000 
Q 1126 4058 832 4077 
L 832 4179 
L 2579 4179 
L 2579 4077 
Q 2285 4058 2147 3955 
Q 2010 3853 1933 3584 
L 1165 838 
Q 1101 595 1101 493 
Q 1101 346 1241 288 
Q 1382 230 1773 230 
Q 2266 230 2480 275 
Q 2694 320 2925 474 
Q 3187 646 3450 1190 
L 3578 1152 
z
" transform="scale(0.015625)"/>
      </defs>
      <use xlink:href="#STIXGeneral-Italic-4c" transform="translate(0 0.703125)"/>
     </g>
    </g>
    <g clip-path="url(#p5a61ed20e9)">
     <!-- $100 mH$ -->
     <g transform="translate(160.485581 113.357852)scale(0.125 -0.125)">
      <defs>
       <path id="STIXGeneral-Regular-30" d="M 3046 2112 
Q 3046 1683 2963 1302 
Q 2880 922 2717 602 
Q 2554 282 2266 96 
Q 1978 -90 1600 -90 
Q 1210 -90 915 108 
Q 621 307 461 640 
Q 301 973 227 1350 
Q 154 1728 154 2150 
Q 154 2746 301 3222 
Q 448 3699 790 4012 
Q 1133 4326 1626 4326 
Q 2253 4326 2649 3712 
Q 3046 3098 3046 2112 
z
M 2432 2080 
Q 2432 3091 2217 3625 
Q 2003 4160 1587 4160 
Q 1190 4160 979 3622 
Q 768 3085 768 2106 
Q 768 1120 979 598 
Q 1190 77 1600 77 
Q 2003 77 2217 598 
Q 2432 1120 2432 2080 
z
" transform="scale(0.015625)"/>
       <path id="STIXGeneral-Italic-6d" d="M 4506 672 
L 4474 627 
Q 3981 -58 3552 -58 
Q 3296 -58 3296 237 
Q 3296 333 3379 659 
L 3750 2112 
Q 3795 2291 3795 2355 
Q 3795 2413 3756 2451 
Q 3718 2490 3667 2490 
Q 3366 2490 2829 1741 
Q 2592 1408 2457 1072 
Q 2323 736 2138 0 
L 1658 0 
L 1830 595 
Q 2266 2099 2266 2330 
Q 2266 2490 2125 2490 
Q 1965 2490 1702 2237 
Q 1440 1984 1171 1574 
Q 1011 1325 899 1043 
Q 787 762 557 0 
L 77 0 
L 352 922 
Q 704 2093 704 2381 
Q 704 2522 442 2522 
L 282 2522 
L 282 2624 
L 1318 2822 
L 1338 2810 
L 966 1472 
Q 1798 2822 2374 2822 
Q 2560 2822 2659 2720 
Q 2758 2618 2758 2438 
Q 2758 2195 2502 1466 
Q 2842 2003 3069 2275 
Q 3296 2547 3526 2694 
Q 3731 2822 3930 2822 
Q 4102 2822 4201 2710 
Q 4301 2598 4301 2419 
Q 4301 2336 4282 2240 
L 3846 634 
Q 3782 390 3782 346 
Q 3782 243 3859 243 
Q 4000 243 4275 582 
L 4410 749 
L 4506 672 
z
" transform="scale(0.015625)"/>
       <path id="STIXGeneral-Italic-48" d="M 4922 4179 
L 4922 4077 
Q 4640 4026 4550 3949 
Q 4461 3872 4384 3603 
L 3539 525 
Q 3520 448 3520 371 
Q 3520 237 3616 185 
Q 3712 134 4026 102 
L 4026 0 
L 2272 0 
L 2272 102 
Q 2598 128 2729 237 
Q 2861 346 2925 595 
L 3334 2086 
L 1510 2086 
L 1088 525 
Q 1069 461 1069 384 
Q 1069 243 1149 192 
Q 1229 141 1517 102 
L 1517 0 
L -51 0 
L -51 102 
Q 211 128 310 230 
Q 410 333 499 653 
L 1254 3405 
Q 1331 3699 1331 3814 
Q 1331 3949 1238 3997 
Q 1146 4045 838 4077 
L 838 4179 
L 2573 4179 
L 2573 4077 
Q 2285 4058 2141 3955 
Q 1997 3853 1933 3622 
L 1587 2355 
L 3411 2355 
L 3706 3405 
Q 3795 3738 3795 3808 
Q 3795 3930 3692 3994 
Q 3590 4058 3334 4077 
L 3334 4179 
L 4922 4179 
z
" transform="scale(0.015625)"/>
      </defs>
      <use xlink:href="#STIXGeneral-Regular-31" transform="translate(0 0.40625)"/>
      <use xlink:href="#STIXGeneral-Regular-30" transform="translate(49.999985 0.40625)"/>
      <use xlink:href="#STIXGeneral-Regular-30" transform="translate(99.999969 0.40625)"/>
      <use xlink:href="#STIXGeneral-Italic-6d" transform="translate(149.999954 0.40625)"/>
      <use xlink:href="#STIXGeneral-Italic-48" transform="translate(222.199936 0.40625)"/>
     </g>
    </g>
   </g>
   <g id="text_4">
    <g clip-path="url(#p5a61ed20e9)">
     <!-- + -->
     <g transform="translate(140.065991 83.409219)scale(0.125 -0.125)">
      <defs>
       <path id="DejaVuSans-2b" d="M 2944 4013 
L 2944 2272 
L 4684 2272 
L 4684 1741 
L 2944 1741 
L 2944 0 
L 2419 0 
L 2419 1741 
L 678 1741 
L 678 2272 
L 2419 2272 
L 2419 4013 
L 2944 4013 
z
" transform="scale(0.015625)"/>
      </defs>
      <use xlink:href="#DejaVuSans-2b"/>
     </g>
    </g>
   </g>
   <g id="text_5">
    <g clip-path="url(#p5a61ed20e9)">
     <!-- $v_O(t)$ -->
     <g transform="translate(126.2906 106.359219)scale(0.125 -0.125)">
      <defs>
       <path id="STIXGeneral-Italic-4f" d="M 4474 2675 
Q 4474 1990 4106 1363 
Q 3738 736 3149 339 
Q 2477 -115 1779 -115 
Q 1146 -115 765 281 
Q 384 678 384 1382 
Q 384 1965 697 2582 
Q 1011 3200 1517 3642 
Q 2234 4262 3034 4262 
Q 3718 4269 4096 3840 
Q 4474 3411 4474 2675 
z
M 3802 3078 
Q 3802 3533 3581 3792 
Q 3360 4051 2976 4051 
Q 2342 4051 1786 3302 
Q 1446 2842 1251 2259 
Q 1056 1677 1056 1178 
Q 1056 653 1270 374 
Q 1485 96 1888 96 
Q 2477 96 2976 704 
Q 3354 1178 3578 1862 
Q 3802 2547 3802 3078 
z
" transform="scale(0.015625)"/>
      </defs>
      <use xlink:href="#STIXGeneral-Italic-76" transform="translate(0 0.40625)"/>
      <use xlink:href="#STIXGeneral-Italic-4f" transform="translate(44.399994 -12.821875)scale(0.7)"/>
      <use xlink:href="#STIXGeneral-Regular-28" transform="translate(99.349356 0.40625)"/>
      <use xlink:href="#STIXGeneral-Italic-74" transform="translate(132.649344 0.40625)"/>
      <use xlink:href="#STIXGeneral-Regular-29" transform="translate(160.449332 0.40625)"/>
     </g>
    </g>
   </g>
   <g id="text_6">
    <g clip-path="url(#p5a61ed20e9)">
     <!-- - -->
     <g transform="translate(146.030834 129.309219)scale(0.125 -0.125)">
      <defs>
       <path id="DejaVuSans-2d" d="M 313 2009 
L 1997 2009 
L 1997 1497 
L 313 1497 
L 313 2009 
z
" transform="scale(0.015625)"/>
      </defs>
      <use xlink:href="#DejaVuSans-2d"/>
     </g>
    </g>
   </g>
   <g id="text_7">
    <g clip-path="url(#p5a61ed20e9)">
     <!-- $v_I(t)$ -->
     <g transform="translate(22.5656 106.359219)scale(0.125 -0.125)">
      <use xlink:href="#STIXGeneral-Italic-76" transform="translate(0 0.40625)"/>
      <use xlink:href="#STIXGeneral-Italic-49" transform="translate(44.399994 -12.821875)scale(0.7)"/>
      <use xlink:href="#STIXGeneral-Regular-28" transform="translate(72.11936 0.40625)"/>
      <use xlink:href="#STIXGeneral-Italic-74" transform="translate(105.419348 0.40625)"/>
      <use xlink:href="#STIXGeneral-Regular-29" transform="translate(133.219336 0.40625)"/>
     </g>
    </g>
   </g>
   <g id="text_8">
    <g clip-path="url(#p5a61ed20e9)">
     <!-- $R$ -->
     <g transform="translate(103.8256 29.703125)scale(0.125 -0.125)">
      <use xlink:href="#STIXGeneral-Italic-52" transform="translate(0 0.703125)"/>
     </g>
    </g>
    <g clip-path="url(#p5a61ed20e9)">
     <!-- $1~k\Omega$ -->
     <g transform="translate(95.6381 43.700391)scale(0.125 -0.125)">
      <use xlink:href="#STIXGeneral-Regular-31" transform="translate(0 0.703125)"/>
      <use xlink:href="#STIXGeneral-Italic-6b" transform="translate(74.066405 0.703125)"/>
      <use xlink:href="#STIXGeneral-Regular-3a9" transform="translate(118.466399 0.703125)"/>
     </g>
    </g>
   </g>
   <g id="text_9">
    <g clip-path="url(#p5a61ed20e9)">
     <!-- $L$ -->
     <g transform="translate(160.485581 99.360586)scale(0.125 -0.125)">
      <use xlink:href="#STIXGeneral-Italic-4c" transform="translate(0 0.703125)"/>
     </g>
    </g>
    <g clip-path="url(#p5a61ed20e9)">
     <!-- $100 mH$ -->
     <g transform="translate(160.485581 113.357852)scale(0.125 -0.125)">
      <use xlink:href="#STIXGeneral-Regular-31" transform="translate(0 0.40625)"/>
      <use xlink:href="#STIXGeneral-Regular-30" transform="translate(49.999985 0.40625)"/>
      <use xlink:href="#STIXGeneral-Regular-30" transform="translate(99.999969 0.40625)"/>
      <use xlink:href="#STIXGeneral-Italic-6d" transform="translate(149.999954 0.40625)"/>
      <use xlink:href="#STIXGeneral-Italic-48" transform="translate(222.199936 0.40625)"/>
     </g>
    </g>
   </g>
   <g id="text_10">
    <g clip-path="url(#p5a61ed20e9)">
     <!-- + -->
     <g transform="translate(140.065991 83.409219)scale(0.125 -0.125)">
      <use xlink:href="#DejaVuSans-2b"/>
     </g>
    </g>
   </g>
   <g id="text_11">
    <g clip-path="url(#p5a61ed20e9)">
     <!-- $v_O(t)$ -->
     <g transform="translate(126.2906 106.359219)scale(0.125 -0.125)">
      <use xlink:href="#STIXGeneral-Italic-76" transform="translate(0 0.40625)"/>
      <use xlink:href="#STIXGeneral-Italic-4f" transform="translate(44.399994 -12.821875)scale(0.7)"/>
      <use xlink:href="#STIXGeneral-Regular-28" transform="translate(99.349356 0.40625)"/>
      <use xlink:href="#STIXGeneral-Italic-74" transform="translate(132.649344 0.40625)"/>
      <use xlink:href="#STIXGeneral-Regular-29" transform="translate(160.449332 0.40625)"/>
     </g>
    </g>
   </g>
   <g id="text_12">
    <g clip-path="url(#p5a61ed20e9)">
     <!-- - -->
     <g transform="translate(146.030834 129.309219)scale(0.125 -0.125)">
      <use xlink:href="#DejaVuSans-2d"/>
     </g>
    </g>
   </g>
  </g>
 </g>
 <defs>
  <clipPath id="p5a61ed20e9">
   <rect x="7.2" y="7.2" width="209.569181" height="144.67"/>
  </clipPath>
 </defs>
</svg>
