<?xml version="1.0" encoding="utf-8" standalone="no"?>
<!DOCTYPE svg PUBLIC "-//W3C//DTD SVG 1.1//EN"
  "http://www.w3.org/Graphics/SVG/1.1/DTD/svg11.dtd">
<svg xmlns:xlink="http://www.w3.org/1999/xlink" width="339.8208pt" height="186.61pt" viewBox="0 0 339.8208 186.61" xmlns="http://www.w3.org/2000/svg" version="1.1">
 <metadata>
  <rdf:RDF xmlns:dc="http://purl.org/dc/elements/1.1/" xmlns:cc="http://creativecommons.org/ns#" xmlns:rdf="http://www.w3.org/1999/02/22-rdf-syntax-ns#">
   <cc:Work>
    <dc:type rdf:resource="http://purl.org/dc/dcmitype/StillImage"/>
    <dc:date>2023-06-28T14:17:54.015520</dc:date>
    <dc:format>image/svg+xml</dc:format>
    <dc:creator>
     <cc:Agent>
      <dc:title>Matplotlib v3.5.2, https://matplotlib.org/</dc:title>
     </cc:Agent>
    </dc:creator>
   </cc:Work>
  </rdf:RDF>
 </metadata>
 <defs>
  <style type="text/css">*{stroke-linejoin: round; stroke-linecap: butt}</style>
 </defs>
 <g id="figure_1">
  <g id="patch_1">
   <path d="M 0 186.61 
L 339.8208 186.61 
L 339.8208 0 
L 0 0 
L 0 186.61 
z
" style="fill: none"/>
  </g>
  <g id="axes_1">
   <g id="patch_2">
    <path d="M 184.2108 79.96 
C 188.268407 79.96 192.160372 78.347895 195.029534 75.478734 
C 197.898695 72.609572 199.5108 68.717607 199.5108 64.66 
C 199.5108 60.602393 197.898695 56.710428 195.029534 53.841266 
C 192.160372 50.972105 188.268407 49.36 184.2108 49.36 
C 180.153193 49.36 176.261228 50.972105 173.392066 53.841266 
C 170.522905 56.710428 168.9108 60.602393 168.9108 64.66 
C 168.9108 68.717607 170.522905 72.609572 173.392066 75.478734 
C 176.261228 78.347895 180.153193 79.96 184.2108 79.96 
L 184.2108 79.96 
z
" clip-path="url(#p362d796e1f)" style="fill: none; stroke: #000000; stroke-width: 2; stroke-linejoin: miter"/>
   </g>
   <g id="patch_3">
    <path d="M 184.2108 79.96 
C 188.268407 79.96 192.160372 78.347895 195.029534 75.478734 
C 197.898695 72.609572 199.5108 68.717607 199.5108 64.66 
C 199.5108 60.602393 197.898695 56.710428 195.029534 53.841266 
C 192.160372 50.972105 188.268407 49.36 184.2108 49.36 
C 180.153193 49.36 176.261228 50.972105 173.392066 53.841266 
C 170.522905 56.710428 168.9108 60.602393 168.9108 64.66 
C 168.9108 68.717607 170.522905 72.609572 173.392066 75.478734 
C 176.261228 78.347895 180.153193 79.96 184.2108 79.96 
L 184.2108 79.96 
z
" clip-path="url(#p362d796e1f)" style="fill: none; stroke: #000000; stroke-width: 2; stroke-linejoin: miter"/>
   </g>
   <g id="line2d_1">
    <path d="M 46.5108 156.46 
L 46.5108 168.7 
L 38.8608 168.7 
L 46.5108 176.35 
L 54.1608 168.7 
L 46.5108 168.7 
" clip-path="url(#p362d796e1f)" style="fill: none; stroke: #000000; stroke-width: 2; stroke-linecap: round"/>
   </g>
   <g id="line2d_2">
    <path d="M 46.5108 156.46 
L 46.5108 125.86 
L 38.8608 123.31 
L 54.1608 118.21 
L 38.8608 113.11 
L 54.1608 108.01 
L 38.8608 102.91 
L 54.1608 97.81 
L 46.5108 95.26 
L 46.5108 64.66 
" clip-path="url(#p362d796e1f)" style="fill: none; stroke: #000000; stroke-width: 2; stroke-linecap: round"/>
   </g>
   <g id="line2d_3">
    <path d="M 46.5108 64.66 
L 77.1108 64.66 
L 79.6608 57.01 
L 84.7608 72.31 
L 89.8608 57.01 
L 94.9608 72.31 
L 100.0608 57.01 
L 105.1608 72.31 
L 107.7108 64.66 
L 138.3108 64.66 
" clip-path="url(#p362d796e1f)" style="fill: none; stroke: #000000; stroke-width: 2; stroke-linecap: round"/>
   </g>
   <g id="line2d_4">
    <path d="M 138.3108 64.66 
L 138.3108 95.26 
L 145.9608 97.81 
L 130.6608 102.91 
L 145.9608 108.01 
L 130.6608 113.11 
L 145.9608 118.21 
L 130.6608 123.31 
L 138.3108 125.86 
L 138.3108 156.46 
" clip-path="url(#p362d796e1f)" style="fill: none; stroke: #000000; stroke-width: 2; stroke-linecap: round"/>
   </g>
   <g id="line2d_5">
    <path d="M 138.3108 64.66 
L 168.9108 64.66 
L 168.9108 64.66 
M 199.5108 64.66 
L 199.5108 64.66 
L 230.1108 64.66 
" clip-path="url(#p362d796e1f)" style="fill: none; stroke: #000000; stroke-width: 2; stroke-linecap: round"/>
   </g>
   <g id="line2d_6">
    <path d="M 191.8608 61.6 
L 191.8608 67.72 
" clip-path="url(#p362d796e1f)" style="fill: none; stroke: #000000; stroke-width: 2; stroke-linecap: round"/>
   </g>
   <g id="line2d_7">
    <path d="M 173.5008 64.66 
L 179.6208 64.66 
" clip-path="url(#p362d796e1f)" style="fill: none; stroke: #000000; stroke-width: 2; stroke-linecap: round"/>
   </g>
   <g id="line2d_8">
    <path d="M 176.5608 61.6 
L 176.5608 67.72 
" clip-path="url(#p362d796e1f)" style="fill: none; stroke: #000000; stroke-width: 2; stroke-linecap: round"/>
   </g>
   <g id="line2d_9">
    <path d="M 230.1108 64.66 
L 230.1108 95.26 
L 237.7608 97.81 
L 222.4608 102.91 
L 237.7608 108.01 
L 222.4608 113.11 
L 237.7608 118.21 
L 222.4608 123.31 
L 230.1108 125.86 
L 230.1108 156.46 
" clip-path="url(#p362d796e1f)" style="fill: none; stroke: #000000; stroke-width: 2; stroke-linecap: round"/>
   </g>
   <g id="line2d_10">
    <path d="M 230.1108 64.66 
L 260.7108 64.66 
L 263.2608 57.01 
L 268.3608 72.31 
L 273.4608 57.01 
L 278.5608 72.31 
L 283.6608 57.01 
L 288.7608 72.31 
L 291.3108 64.66 
L 321.9108 64.66 
" clip-path="url(#p362d796e1f)" style="fill: none; stroke: #000000; stroke-width: 2; stroke-linecap: round"/>
   </g>
   <g id="line2d_11">
    <path d="M 321.9108 64.66 
L 321.9108 95.26 
L 329.5608 97.81 
L 314.2608 102.91 
L 329.5608 108.01 
L 314.2608 113.11 
L 329.5608 118.21 
L 314.2608 123.31 
L 321.9108 125.86 
L 321.9108 156.46 
" clip-path="url(#p362d796e1f)" style="fill: none; stroke: #000000; stroke-width: 2; stroke-linecap: round"/>
   </g>
   <g id="line2d_12">
    <path d="M 321.9108 156.46 
L 184.2108 156.46 
L 46.5108 156.46 
" clip-path="url(#p362d796e1f)" style="fill: none; stroke: #000000; stroke-width: 2; stroke-linecap: round"/>
   </g>
   <g id="line2d_13">
    <path d="M 46.5108 156.46 
L 46.5108 168.7 
L 38.8608 168.7 
L 46.5108 176.35 
L 54.1608 168.7 
L 46.5108 168.7 
" clip-path="url(#p362d796e1f)" style="fill: none; stroke: #000000; stroke-width: 2; stroke-linecap: round"/>
   </g>
   <g id="line2d_14">
    <path d="M 46.5108 156.46 
L 46.5108 125.86 
L 38.8608 123.31 
L 54.1608 118.21 
L 38.8608 113.11 
L 54.1608 108.01 
L 38.8608 102.91 
L 54.1608 97.81 
L 46.5108 95.26 
L 46.5108 64.66 
" clip-path="url(#p362d796e1f)" style="fill: none; stroke: #000000; stroke-width: 2; stroke-linecap: round"/>
   </g>
   <g id="line2d_15">
    <path d="M 46.5108 64.66 
L 77.1108 64.66 
L 79.6608 57.01 
L 84.7608 72.31 
L 89.8608 57.01 
L 94.9608 72.31 
L 100.0608 57.01 
L 105.1608 72.31 
L 107.7108 64.66 
L 138.3108 64.66 
" clip-path="url(#p362d796e1f)" style="fill: none; stroke: #000000; stroke-width: 2; stroke-linecap: round"/>
   </g>
   <g id="line2d_16">
    <path d="M 138.3108 64.66 
L 138.3108 95.26 
L 145.9608 97.81 
L 130.6608 102.91 
L 145.9608 108.01 
L 130.6608 113.11 
L 145.9608 118.21 
L 130.6608 123.31 
L 138.3108 125.86 
L 138.3108 156.46 
" clip-path="url(#p362d796e1f)" style="fill: none; stroke: #000000; stroke-width: 2; stroke-linecap: round"/>
   </g>
   <g id="line2d_17">
    <path d="M 138.3108 64.66 
L 168.9108 64.66 
L 168.9108 64.66 
M 199.5108 64.66 
L 199.5108 64.66 
L 230.1108 64.66 
" clip-path="url(#p362d796e1f)" style="fill: none; stroke: #000000; stroke-width: 2; stroke-linecap: round"/>
   </g>
   <g id="line2d_18">
    <path d="M 191.8608 61.6 
L 191.8608 67.72 
" clip-path="url(#p362d796e1f)" style="fill: none; stroke: #000000; stroke-width: 2; stroke-linecap: round"/>
   </g>
   <g id="line2d_19">
    <path d="M 173.5008 64.66 
L 179.6208 64.66 
" clip-path="url(#p362d796e1f)" style="fill: none; stroke: #000000; stroke-width: 2; stroke-linecap: round"/>
   </g>
   <g id="line2d_20">
    <path d="M 176.5608 61.6 
L 176.5608 67.72 
" clip-path="url(#p362d796e1f)" style="fill: none; stroke: #000000; stroke-width: 2; stroke-linecap: round"/>
   </g>
   <g id="line2d_21">
    <path d="M 230.1108 64.66 
L 230.1108 95.26 
L 237.7608 97.81 
L 222.4608 102.91 
L 237.7608 108.01 
L 222.4608 113.11 
L 237.7608 118.21 
L 222.4608 123.31 
L 230.1108 125.86 
L 230.1108 156.46 
" clip-path="url(#p362d796e1f)" style="fill: none; stroke: #000000; stroke-width: 2; stroke-linecap: round"/>
   </g>
   <g id="line2d_22">
    <path d="M 230.1108 64.66 
L 260.7108 64.66 
L 263.2608 57.01 
L 268.3608 72.31 
L 273.4608 57.01 
L 278.5608 72.31 
L 283.6608 57.01 
L 288.7608 72.31 
L 291.3108 64.66 
L 321.9108 64.66 
" clip-path="url(#p362d796e1f)" style="fill: none; stroke: #000000; stroke-width: 2; stroke-linecap: round"/>
   </g>
   <g id="line2d_23">
    <path d="M 321.9108 64.66 
L 321.9108 95.26 
L 329.5608 97.81 
L 314.2608 102.91 
L 329.5608 108.01 
L 314.2608 113.11 
L 329.5608 118.21 
L 314.2608 123.31 
L 321.9108 125.86 
L 321.9108 156.46 
" clip-path="url(#p362d796e1f)" style="fill: none; stroke: #000000; stroke-width: 2; stroke-linecap: round"/>
   </g>
   <g id="line2d_24">
    <path d="M 321.9108 156.46 
L 184.2108 156.46 
L 46.5108 156.46 
" clip-path="url(#p362d796e1f)" style="fill: none; stroke: #000000; stroke-width: 2; stroke-linecap: round"/>
   </g>
   <g id="text_1">
    <g clip-path="url(#p362d796e1f)">
     <!-- $R_1$ -->
     <g transform="translate(23.1758 107.010586)scale(0.125 -0.125)">
      <defs>
       <path id="STIXGeneral-Italic-52" d="M 845 4179 
L 2458 4179 
Q 3078 4179 3420 3936 
Q 3763 3693 3763 3277 
Q 3763 2778 3341 2458 
Q 3091 2266 2502 2131 
L 3072 627 
Q 3181 333 3299 217 
Q 3418 102 3629 102 
L 3629 0 
L 2688 0 
L 1901 2074 
L 1478 2106 
L 1126 806 
Q 1043 512 1043 403 
Q 1043 256 1126 192 
Q 1210 128 1472 102 
L 1472 0 
L -83 0 
L -83 102 
Q 173 134 278 243 
Q 384 352 461 646 
L 1222 3405 
Q 1299 3699 1299 3808 
Q 1299 3923 1210 3987 
Q 1133 4038 845 4077 
L 845 4179 
z
M 1958 3795 
L 1555 2342 
Q 1754 2310 1882 2310 
Q 2451 2310 2771 2566 
Q 3091 2822 3091 3270 
Q 3091 3603 2892 3795 
Q 2694 3987 2323 3987 
Q 2010 3987 1958 3795 
z
" transform="scale(0.015625)"/>
       <path id="STIXGeneral-Regular-31" d="M 2522 0 
L 755 0 
L 755 96 
Q 1107 115 1235 227 
Q 1363 339 1363 608 
L 1363 3482 
Q 1363 3795 1171 3795 
Q 1082 3795 883 3718 
L 710 3654 
L 710 3744 
L 1856 4326 
L 1914 4307 
L 1914 486 
Q 1914 275 2042 185 
Q 2170 96 2522 96 
L 2522 0 
z
" transform="scale(0.015625)"/>
      </defs>
      <use xlink:href="#STIXGeneral-Italic-52" transform="translate(0 0.703125)"/>
      <use xlink:href="#STIXGeneral-Regular-31" transform="translate(61.099991 -12.525)scale(0.7)"/>
     </g>
    </g>
    <g clip-path="url(#p362d796e1f)">
     <!--  3$\Omega$ -->
     <g transform="translate(14.5508 121.007852)scale(0.125 -0.125)">
      <defs>
       <path id="DejaVuSans-20" transform="scale(0.015625)"/>
       <path id="DejaVuSans-33" d="M 2597 2516 
Q 3050 2419 3304 2112 
Q 3559 1806 3559 1356 
Q 3559 666 3084 287 
Q 2609 -91 1734 -91 
Q 1441 -91 1130 -33 
Q 819 25 488 141 
L 488 750 
Q 750 597 1062 519 
Q 1375 441 1716 441 
Q 2309 441 2620 675 
Q 2931 909 2931 1356 
Q 2931 1769 2642 2001 
Q 2353 2234 1838 2234 
L 1294 2234 
L 1294 2753 
L 1863 2753 
Q 2328 2753 2575 2939 
Q 2822 3125 2822 3475 
Q 2822 3834 2567 4026 
Q 2313 4219 1838 4219 
Q 1578 4219 1281 4162 
Q 984 4106 628 3988 
L 628 4550 
Q 988 4650 1302 4700 
Q 1616 4750 1894 4750 
Q 2613 4750 3031 4423 
Q 3450 4097 3450 3541 
Q 3450 3153 3228 2886 
Q 3006 2619 2597 2516 
z
" transform="scale(0.015625)"/>
       <path id="STIXGeneral-Regular-3a9" d="M 4576 0 
L 2746 0 
L 2790 1030 
Q 3187 1126 3440 1574 
Q 3693 2022 3693 2554 
Q 3693 3251 3344 3673 
Q 2995 4096 2380 4096 
Q 1766 4096 1417 3635 
Q 1069 3174 1069 2554 
Q 1069 2054 1315 1600 
Q 1562 1146 1965 1030 
L 2022 0 
L 186 0 
L 186 1094 
L 346 1094 
Q 352 806 438 707 
Q 525 608 742 608 
L 1709 608 
L 1696 845 
Q 1018 1037 678 1446 
Q 339 1856 339 2541 
Q 339 3238 899 3782 
Q 1459 4326 2380 4326 
Q 3302 4326 3862 3804 
Q 4422 3283 4422 2541 
Q 4422 1235 3046 845 
L 3034 608 
L 4019 608 
Q 4397 608 4416 1082 
L 4576 1082 
L 4576 0 
z
" transform="scale(0.015625)"/>
      </defs>
      <use xlink:href="#DejaVuSans-20" transform="translate(0 0.78125)"/>
      <use xlink:href="#DejaVuSans-33" transform="translate(31.787109 0.78125)"/>
      <use xlink:href="#STIXGeneral-Regular-3a9" transform="translate(95.410156 0.78125)"/>
     </g>
    </g>
   </g>
   <g id="text_2">
    <g clip-path="url(#p362d796e1f)">
     <!-- $R_2$ -->
     <g transform="translate(86.0983 37.353125)scale(0.125 -0.125)">
      <defs>
       <path id="STIXGeneral-Regular-32" d="M 3034 877 
L 2688 0 
L 186 0 
L 186 77 
L 1325 1286 
Q 1773 1754 1965 2144 
Q 2157 2534 2157 2950 
Q 2157 3379 1920 3616 
Q 1683 3853 1267 3853 
Q 922 3853 720 3673 
Q 518 3494 326 3021 
L 192 3053 
Q 301 3648 630 3987 
Q 960 4326 1523 4326 
Q 2054 4326 2380 4006 
Q 2707 3686 2707 3200 
Q 2707 2477 1888 1613 
L 832 486 
L 2330 486 
Q 2541 486 2665 569 
Q 2790 653 2944 915 
L 3034 877 
z
" transform="scale(0.015625)"/>
      </defs>
      <use xlink:href="#STIXGeneral-Italic-52" transform="translate(0 0.703125)"/>
      <use xlink:href="#STIXGeneral-Regular-32" transform="translate(61.099991 -12.525)scale(0.7)"/>
     </g>
    </g>
    <g clip-path="url(#p362d796e1f)">
     <!--  6$\Omega$ -->
     <g transform="translate(81.7858 51.350391)scale(0.125 -0.125)">
      <defs>
       <path id="DejaVuSans-36" d="M 2113 2584 
Q 1688 2584 1439 2293 
Q 1191 2003 1191 1497 
Q 1191 994 1439 701 
Q 1688 409 2113 409 
Q 2538 409 2786 701 
Q 3034 994 3034 1497 
Q 3034 2003 2786 2293 
Q 2538 2584 2113 2584 
z
M 3366 4563 
L 3366 3988 
Q 3128 4100 2886 4159 
Q 2644 4219 2406 4219 
Q 1781 4219 1451 3797 
Q 1122 3375 1075 2522 
Q 1259 2794 1537 2939 
Q 1816 3084 2150 3084 
Q 2853 3084 3261 2657 
Q 3669 2231 3669 1497 
Q 3669 778 3244 343 
Q 2819 -91 2113 -91 
Q 1303 -91 875 529 
Q 447 1150 447 2328 
Q 447 3434 972 4092 
Q 1497 4750 2381 4750 
Q 2619 4750 2861 4703 
Q 3103 4656 3366 4563 
z
" transform="scale(0.015625)"/>
      </defs>
      <use xlink:href="#DejaVuSans-20" transform="translate(0 0.78125)"/>
      <use xlink:href="#DejaVuSans-36" transform="translate(31.787109 0.78125)"/>
      <use xlink:href="#STIXGeneral-Regular-3a9" transform="translate(95.410156 0.78125)"/>
     </g>
    </g>
   </g>
   <g id="text_3">
    <g clip-path="url(#p362d796e1f)">
     <!-- $R_3$ -->
     <g transform="translate(114.9758 107.010586)scale(0.125 -0.125)">
      <defs>
       <path id="STIXGeneral-Regular-33" d="M 390 3264 
L 288 3290 
Q 435 3770 748 4048 
Q 1062 4326 1542 4326 
Q 1990 4326 2265 4083 
Q 2541 3840 2541 3450 
Q 2541 2925 1946 2566 
Q 2298 2413 2477 2227 
Q 2758 1914 2758 1402 
Q 2758 890 2464 506 
Q 2246 211 1840 60 
Q 1434 -90 979 -90 
Q 262 -90 262 275 
Q 262 378 339 442 
Q 416 506 525 506 
Q 685 506 915 339 
Q 1197 141 1466 141 
Q 1818 141 2058 425 
Q 2298 710 2298 1120 
Q 2298 1856 1632 2048 
Q 1434 2112 979 2112 
L 979 2202 
Q 1338 2323 1517 2432 
Q 2035 2726 2035 3290 
Q 2035 3610 1852 3776 
Q 1670 3942 1344 3942 
Q 768 3942 390 3264 
z
" transform="scale(0.015625)"/>
      </defs>
      <use xlink:href="#STIXGeneral-Italic-52" transform="translate(0 0.703125)"/>
      <use xlink:href="#STIXGeneral-Regular-33" transform="translate(61.099991 -12.525)scale(0.7)"/>
     </g>
    </g>
    <g clip-path="url(#p362d796e1f)">
     <!--  12$\Omega$ -->
     <g transform="translate(98.3508 121.007852)scale(0.125 -0.125)">
      <defs>
       <path id="DejaVuSans-31" d="M 794 531 
L 1825 531 
L 1825 4091 
L 703 3866 
L 703 4441 
L 1819 4666 
L 2450 4666 
L 2450 531 
L 3481 531 
L 3481 0 
L 794 0 
L 794 531 
z
" transform="scale(0.015625)"/>
       <path id="DejaVuSans-32" d="M 1228 531 
L 3431 531 
L 3431 0 
L 469 0 
L 469 531 
Q 828 903 1448 1529 
Q 2069 2156 2228 2338 
Q 2531 2678 2651 2914 
Q 2772 3150 2772 3378 
Q 2772 3750 2511 3984 
Q 2250 4219 1831 4219 
Q 1534 4219 1204 4116 
Q 875 4013 500 3803 
L 500 4441 
Q 881 4594 1212 4672 
Q 1544 4750 1819 4750 
Q 2544 4750 2975 4387 
Q 3406 4025 3406 3419 
Q 3406 3131 3298 2873 
Q 3191 2616 2906 2266 
Q 2828 2175 2409 1742 
Q 1991 1309 1228 531 
z
" transform="scale(0.015625)"/>
      </defs>
      <use xlink:href="#DejaVuSans-20" transform="translate(0 0.78125)"/>
      <use xlink:href="#DejaVuSans-31" transform="translate(31.787109 0.78125)"/>
      <use xlink:href="#DejaVuSans-32" transform="translate(95.410156 0.78125)"/>
      <use xlink:href="#STIXGeneral-Regular-3a9" transform="translate(159.033203 0.78125)"/>
     </g>
    </g>
   </g>
   <g id="text_4">
    <g clip-path="url(#p362d796e1f)">
     <!-- $V_S$ -->
     <g transform="translate(177.8983 29.703125)scale(0.125 -0.125)">
      <defs>
       <path id="STIXGeneral-Italic-56" d="M 4403 4179 
L 4403 4077 
Q 4198 4070 4045 3821 
L 1658 -115 
L 1536 -115 
L 1011 3104 
Q 902 3776 828 3910 
Q 755 4045 486 4077 
L 486 4179 
L 2022 4179 
L 2022 4077 
Q 1722 4045 1629 3981 
Q 1536 3917 1536 3750 
Q 1536 3686 1542 3654 
L 1958 819 
L 3302 3123 
Q 3616 3661 3616 3859 
Q 3616 4032 3219 4077 
L 3219 4179 
L 4403 4179 
z
" transform="scale(0.015625)"/>
       <path id="STIXGeneral-Italic-53" d="M 3251 4269 
L 2995 2989 
L 2880 3008 
Q 2880 3539 2720 3795 
Q 2560 4051 2118 4051 
Q 1786 4051 1594 3881 
Q 1402 3712 1402 3411 
Q 1402 3168 1504 3005 
Q 1606 2842 2035 2413 
Q 2464 1978 2611 1715 
Q 2758 1453 2758 1133 
Q 2758 589 2390 237 
Q 2022 -115 1466 -115 
Q 1222 -115 800 32 
Q 595 109 499 109 
Q 288 109 224 -96 
L 109 -96 
L 326 1338 
L 454 1325 
Q 442 1267 442 1178 
Q 442 710 701 409 
Q 960 109 1363 109 
Q 1734 109 1968 336 
Q 2202 563 2202 928 
Q 2202 1139 2118 1308 
Q 2035 1478 1818 1715 
L 1568 1984 
Q 1549 2003 1459 2102 
Q 1370 2202 1318 2253 
Q 1030 2560 934 2755 
Q 838 2950 838 3213 
Q 838 3699 1168 3980 
Q 1498 4262 1978 4262 
Q 2310 4262 2522 4173 
Q 2707 4102 2816 4102 
Q 2925 4102 2982 4134 
Q 3040 4166 3104 4269 
L 3251 4269 
z
" transform="scale(0.015625)"/>
      </defs>
      <use xlink:href="#STIXGeneral-Italic-56" transform="translate(0 0.703125)"/>
      <use xlink:href="#STIXGeneral-Italic-53" transform="translate(61.099991 -12.525)scale(0.7)"/>
     </g>
    </g>
    <g clip-path="url(#p362d796e1f)">
     <!-- 8$~V$ -->
     <g transform="translate(174.8983 43.700391)scale(0.125 -0.125)">
      <defs>
       <path id="DejaVuSans-38" d="M 2034 2216 
Q 1584 2216 1326 1975 
Q 1069 1734 1069 1313 
Q 1069 891 1326 650 
Q 1584 409 2034 409 
Q 2484 409 2743 651 
Q 3003 894 3003 1313 
Q 3003 1734 2745 1975 
Q 2488 2216 2034 2216 
z
M 1403 2484 
Q 997 2584 770 2862 
Q 544 3141 544 3541 
Q 544 4100 942 4425 
Q 1341 4750 2034 4750 
Q 2731 4750 3128 4425 
Q 3525 4100 3525 3541 
Q 3525 3141 3298 2862 
Q 3072 2584 2669 2484 
Q 3125 2378 3379 2068 
Q 3634 1759 3634 1313 
Q 3634 634 3220 271 
Q 2806 -91 2034 -91 
Q 1263 -91 848 271 
Q 434 634 434 1313 
Q 434 1759 690 2068 
Q 947 2378 1403 2484 
z
M 1172 3481 
Q 1172 3119 1398 2916 
Q 1625 2713 2034 2713 
Q 2441 2713 2670 2916 
Q 2900 3119 2900 3481 
Q 2900 3844 2670 4047 
Q 2441 4250 2034 4250 
Q 1625 4250 1398 4047 
Q 1172 3844 1172 3481 
z
" transform="scale(0.015625)"/>
      </defs>
      <use xlink:href="#DejaVuSans-38" transform="translate(0 0.78125)"/>
      <use xlink:href="#STIXGeneral-Italic-56" transform="translate(87.689467 0.78125)"/>
     </g>
    </g>
   </g>
   <g id="text_5">
    <g clip-path="url(#p362d796e1f)">
     <!-- $R_4$ -->
     <g transform="translate(206.7758 107.010586)scale(0.125 -0.125)">
      <defs>
       <path id="STIXGeneral-Regular-34" d="M 3027 1069 
L 2368 1069 
L 2368 0 
L 1869 0 
L 1869 1069 
L 77 1069 
L 77 1478 
L 2086 4326 
L 2368 4326 
L 2368 1478 
L 3027 1478 
L 3027 1069 
z
M 1869 1478 
L 1869 3674 
L 333 1478 
L 1869 1478 
z
" transform="scale(0.015625)"/>
      </defs>
      <use xlink:href="#STIXGeneral-Italic-52" transform="translate(0 0.703125)"/>
      <use xlink:href="#STIXGeneral-Regular-34" transform="translate(61.099991 -12.525)scale(0.7)"/>
     </g>
    </g>
    <g clip-path="url(#p362d796e1f)">
     <!--  4$\Omega$ -->
     <g transform="translate(198.1508 121.007852)scale(0.125 -0.125)">
      <defs>
       <path id="DejaVuSans-34" d="M 2419 4116 
L 825 1625 
L 2419 1625 
L 2419 4116 
z
M 2253 4666 
L 3047 4666 
L 3047 1625 
L 3713 1625 
L 3713 1100 
L 3047 1100 
L 3047 0 
L 2419 0 
L 2419 1100 
L 313 1100 
L 313 1709 
L 2253 4666 
z
" transform="scale(0.015625)"/>
      </defs>
      <use xlink:href="#DejaVuSans-20" transform="translate(0 0.09375)"/>
      <use xlink:href="#DejaVuSans-34" transform="translate(31.787109 0.09375)"/>
      <use xlink:href="#STIXGeneral-Regular-3a9" transform="translate(95.410156 0.09375)"/>
     </g>
    </g>
   </g>
   <g id="text_6">
    <g clip-path="url(#p362d796e1f)">
     <!-- $R_5$ -->
     <g transform="translate(269.6983 37.353125)scale(0.125 -0.125)">
      <defs>
       <path id="STIXGeneral-Regular-35" d="M 2803 4358 
L 2573 3814 
Q 2534 3731 2400 3731 
L 1158 3731 
L 902 3187 
Q 1606 3053 1920 2896 
Q 2234 2739 2502 2368 
Q 2726 2061 2726 1555 
Q 2726 1094 2576 780 
Q 2426 467 2099 224 
Q 1664 -90 1011 -90 
Q 646 -90 422 19 
Q 198 128 198 307 
Q 198 550 486 550 
Q 717 550 960 352 
Q 1210 147 1414 147 
Q 1747 147 2012 480 
Q 2278 813 2278 1229 
Q 2278 1843 1850 2189 
Q 1293 2637 486 2637 
Q 410 2637 410 2688 
L 416 2720 
L 1114 4237 
L 2438 4237 
Q 2547 4237 2608 4269 
Q 2669 4301 2746 4403 
L 2803 4358 
z
" transform="scale(0.015625)"/>
      </defs>
      <use xlink:href="#STIXGeneral-Italic-52" transform="translate(0 0.703125)"/>
      <use xlink:href="#STIXGeneral-Regular-35" transform="translate(61.099991 -12.525)scale(0.7)"/>
     </g>
    </g>
    <g clip-path="url(#p362d796e1f)">
     <!--  8$\Omega$ -->
     <g transform="translate(265.3858 51.350391)scale(0.125 -0.125)">
      <use xlink:href="#DejaVuSans-20" transform="translate(0 0.78125)"/>
      <use xlink:href="#DejaVuSans-38" transform="translate(31.787109 0.78125)"/>
      <use xlink:href="#STIXGeneral-Regular-3a9" transform="translate(95.410156 0.78125)"/>
     </g>
    </g>
   </g>
   <g id="text_7">
    <g clip-path="url(#p362d796e1f)">
     <!-- $R_6$ -->
     <g transform="translate(298.5758 107.010586)scale(0.125 -0.125)">
      <defs>
       <path id="STIXGeneral-Regular-36" d="M 2854 4378 
L 2867 4275 
Q 2112 4154 1606 3664 
Q 1101 3174 973 2451 
Q 1344 2739 1786 2739 
Q 2349 2739 2672 2380 
Q 2995 2022 2995 1402 
Q 2995 774 2669 378 
Q 2291 -90 1651 -90 
Q 870 -90 518 557 
Q 218 1107 218 1786 
Q 218 2835 915 3552 
Q 1312 3962 1731 4131 
Q 2150 4301 2854 4378 
z
M 2419 1203 
Q 2419 2445 1555 2445 
Q 1235 2445 1024 2275 
Q 813 2106 813 1702 
Q 813 954 1046 522 
Q 1280 90 1722 90 
Q 2061 90 2240 394 
Q 2419 698 2419 1203 
z
" transform="scale(0.015625)"/>
      </defs>
      <use xlink:href="#STIXGeneral-Italic-52" transform="translate(0 0.703125)"/>
      <use xlink:href="#STIXGeneral-Regular-36" transform="translate(61.099991 -12.525)scale(0.7)"/>
     </g>
    </g>
    <g clip-path="url(#p362d796e1f)">
     <!--  5$\Omega$ -->
     <g transform="translate(289.9508 121.007852)scale(0.125 -0.125)">
      <defs>
       <path id="DejaVuSans-35" d="M 691 4666 
L 3169 4666 
L 3169 4134 
L 1269 4134 
L 1269 2991 
Q 1406 3038 1543 3061 
Q 1681 3084 1819 3084 
Q 2600 3084 3056 2656 
Q 3513 2228 3513 1497 
Q 3513 744 3044 326 
Q 2575 -91 1722 -91 
Q 1428 -91 1123 -41 
Q 819 9 494 109 
L 494 744 
Q 775 591 1075 516 
Q 1375 441 1709 441 
Q 2250 441 2565 725 
Q 2881 1009 2881 1497 
Q 2881 1984 2565 2268 
Q 2250 2553 1709 2553 
Q 1456 2553 1204 2497 
Q 953 2441 691 2322 
L 691 4666 
z
" transform="scale(0.015625)"/>
      </defs>
      <use xlink:href="#DejaVuSans-20" transform="translate(0 0.09375)"/>
      <use xlink:href="#DejaVuSans-35" transform="translate(31.787109 0.09375)"/>
      <use xlink:href="#STIXGeneral-Regular-3a9" transform="translate(95.410156 0.09375)"/>
     </g>
    </g>
   </g>
   <g id="text_8">
    <g clip-path="url(#p362d796e1f)">
     <!-- $R_1$ -->
     <g transform="translate(23.1758 107.010586)scale(0.125 -0.125)">
      <use xlink:href="#STIXGeneral-Italic-52" transform="translate(0 0.703125)"/>
      <use xlink:href="#STIXGeneral-Regular-31" transform="translate(61.099991 -12.525)scale(0.7)"/>
     </g>
    </g>
    <g clip-path="url(#p362d796e1f)">
     <!--  3$\Omega$ -->
     <g transform="translate(14.5508 121.007852)scale(0.125 -0.125)">
      <use xlink:href="#DejaVuSans-20" transform="translate(0 0.78125)"/>
      <use xlink:href="#DejaVuSans-33" transform="translate(31.787109 0.78125)"/>
      <use xlink:href="#STIXGeneral-Regular-3a9" transform="translate(95.410156 0.78125)"/>
     </g>
    </g>
   </g>
   <g id="text_9">
    <g clip-path="url(#p362d796e1f)">
     <!-- $R_2$ -->
     <g transform="translate(86.0983 37.353125)scale(0.125 -0.125)">
      <use xlink:href="#STIXGeneral-Italic-52" transform="translate(0 0.703125)"/>
      <use xlink:href="#STIXGeneral-Regular-32" transform="translate(61.099991 -12.525)scale(0.7)"/>
     </g>
    </g>
    <g clip-path="url(#p362d796e1f)">
     <!--  6$\Omega$ -->
     <g transform="translate(81.7858 51.350391)scale(0.125 -0.125)">
      <use xlink:href="#DejaVuSans-20" transform="translate(0 0.78125)"/>
      <use xlink:href="#DejaVuSans-36" transform="translate(31.787109 0.78125)"/>
      <use xlink:href="#STIXGeneral-Regular-3a9" transform="translate(95.410156 0.78125)"/>
     </g>
    </g>
   </g>
   <g id="text_10">
    <g clip-path="url(#p362d796e1f)">
     <!-- $R_3$ -->
     <g transform="translate(114.9758 107.010586)scale(0.125 -0.125)">
      <use xlink:href="#STIXGeneral-Italic-52" transform="translate(0 0.703125)"/>
      <use xlink:href="#STIXGeneral-Regular-33" transform="translate(61.099991 -12.525)scale(0.7)"/>
     </g>
    </g>
    <g clip-path="url(#p362d796e1f)">
     <!--  12$\Omega$ -->
     <g transform="translate(98.3508 121.007852)scale(0.125 -0.125)">
      <use xlink:href="#DejaVuSans-20" transform="translate(0 0.78125)"/>
      <use xlink:href="#DejaVuSans-31" transform="translate(31.787109 0.78125)"/>
      <use xlink:href="#DejaVuSans-32" transform="translate(95.410156 0.78125)"/>
      <use xlink:href="#STIXGeneral-Regular-3a9" transform="translate(159.033203 0.78125)"/>
     </g>
    </g>
   </g>
   <g id="text_11">
    <g clip-path="url(#p362d796e1f)">
     <!-- $V_S$ -->
     <g transform="translate(177.8983 29.703125)scale(0.125 -0.125)">
      <use xlink:href="#STIXGeneral-Italic-56" transform="translate(0 0.703125)"/>
      <use xlink:href="#STIXGeneral-Italic-53" transform="translate(61.099991 -12.525)scale(0.7)"/>
     </g>
    </g>
    <g clip-path="url(#p362d796e1f)">
     <!-- 8$~V$ -->
     <g transform="translate(174.8983 43.700391)scale(0.125 -0.125)">
      <use xlink:href="#DejaVuSans-38" transform="translate(0 0.78125)"/>
      <use xlink:href="#STIXGeneral-Italic-56" transform="translate(87.689467 0.78125)"/>
     </g>
    </g>
   </g>
   <g id="text_12">
    <g clip-path="url(#p362d796e1f)">
     <!-- $R_4$ -->
     <g transform="translate(206.7758 107.010586)scale(0.125 -0.125)">
      <use xlink:href="#STIXGeneral-Italic-52" transform="translate(0 0.703125)"/>
      <use xlink:href="#STIXGeneral-Regular-34" transform="translate(61.099991 -12.525)scale(0.7)"/>
     </g>
    </g>
    <g clip-path="url(#p362d796e1f)">
     <!--  4$\Omega$ -->
     <g transform="translate(198.1508 121.007852)scale(0.125 -0.125)">
      <use xlink:href="#DejaVuSans-20" transform="translate(0 0.09375)"/>
      <use xlink:href="#DejaVuSans-34" transform="translate(31.787109 0.09375)"/>
      <use xlink:href="#STIXGeneral-Regular-3a9" transform="translate(95.410156 0.09375)"/>
     </g>
    </g>
   </g>
   <g id="text_13">
    <g clip-path="url(#p362d796e1f)">
     <!-- $R_5$ -->
     <g transform="translate(269.6983 37.353125)scale(0.125 -0.125)">
      <use xlink:href="#STIXGeneral-Italic-52" transform="translate(0 0.703125)"/>
      <use xlink:href="#STIXGeneral-Regular-35" transform="translate(61.099991 -12.525)scale(0.7)"/>
     </g>
    </g>
    <g clip-path="url(#p362d796e1f)">
     <!--  8$\Omega$ -->
     <g transform="translate(265.3858 51.350391)scale(0.125 -0.125)">
      <use xlink:href="#DejaVuSans-20" transform="translate(0 0.78125)"/>
      <use xlink:href="#DejaVuSans-38" transform="translate(31.787109 0.78125)"/>
      <use xlink:href="#STIXGeneral-Regular-3a9" transform="translate(95.410156 0.78125)"/>
     </g>
    </g>
   </g>
   <g id="text_14">
    <g clip-path="url(#p362d796e1f)">
     <!-- $R_6$ -->
     <g transform="translate(298.5758 107.010586)scale(0.125 -0.125)">
      <use xlink:href="#STIXGeneral-Italic-52" transform="translate(0 0.703125)"/>
      <use xlink:href="#STIXGeneral-Regular-36" transform="translate(61.099991 -12.525)scale(0.7)"/>
     </g>
    </g>
    <g clip-path="url(#p362d796e1f)">
     <!--  5$\Omega$ -->
     <g transform="translate(289.9508 121.007852)scale(0.125 -0.125)">
      <use xlink:href="#DejaVuSans-20" transform="translate(0 0.09375)"/>
      <use xlink:href="#DejaVuSans-35" transform="translate(31.787109 0.09375)"/>
      <use xlink:href="#STIXGeneral-Regular-3a9" transform="translate(95.410156 0.09375)"/>
     </g>
    </g>
   </g>
   <g id="line2d_25">
    <path d="M 147.4908 64.66 
L 147.4908 64.66 
" clip-path="url(#p362d796e1f)" style="fill: none; stroke: #000000; stroke-width: 2; stroke-linecap: round"/>
   </g>
   <g id="patch_4">
    <path d="M 147.4908 60.07 
L 156.6708 64.66 
L 147.4908 69.25 
z
" clip-path="url(#p362d796e1f)"/>
   </g>
   <g id="text_15">
    <g clip-path="url(#p362d796e1f)">
     <!-- $I_O$ -->
     <g transform="translate(146.5183 52.880391)scale(0.125 -0.125)">
      <defs>
       <path id="STIXGeneral-Italic-49" d="M 2458 4179 
L 2458 4077 
Q 2189 4045 2102 3961 
Q 2016 3878 1933 3584 
L 1165 838 
Q 1069 499 1069 352 
Q 1069 224 1149 179 
Q 1229 134 1510 102 
L 1510 0 
L -51 0 
L -51 102 
Q 218 154 317 237 
Q 416 320 486 582 
L 1254 3405 
Q 1338 3699 1338 3802 
Q 1338 3930 1235 3997 
Q 1133 4064 877 4077 
L 877 4179 
L 2458 4179 
z
" transform="scale(0.015625)"/>
       <path id="STIXGeneral-Italic-4f" d="M 4474 2675 
Q 4474 1990 4106 1363 
Q 3738 736 3149 339 
Q 2477 -115 1779 -115 
Q 1146 -115 765 281 
Q 384 678 384 1382 
Q 384 1965 697 2582 
Q 1011 3200 1517 3642 
Q 2234 4262 3034 4262 
Q 3718 4269 4096 3840 
Q 4474 3411 4474 2675 
z
M 3802 3078 
Q 3802 3533 3581 3792 
Q 3360 4051 2976 4051 
Q 2342 4051 1786 3302 
Q 1446 2842 1251 2259 
Q 1056 1677 1056 1178 
Q 1056 653 1270 374 
Q 1485 96 1888 96 
Q 2477 96 2976 704 
Q 3354 1178 3578 1862 
Q 3802 2547 3802 3078 
z
" transform="scale(0.015625)"/>
      </defs>
      <use xlink:href="#STIXGeneral-Italic-49" transform="translate(0 0.703125)"/>
      <use xlink:href="#STIXGeneral-Italic-4f" transform="translate(33.299988 -12.525)scale(0.7)"/>
     </g>
    </g>
   </g>
   <g id="line2d_26">
    <path d="M 147.4908 64.66 
L 147.4908 64.66 
" clip-path="url(#p362d796e1f)" style="fill: none; stroke: #000000; stroke-width: 2; stroke-linecap: round"/>
   </g>
   <g id="patch_5">
    <path d="M 147.4908 60.07 
L 156.6708 64.66 
L 147.4908 69.25 
z
" clip-path="url(#p362d796e1f)"/>
   </g>
   <g id="text_16">
    <g clip-path="url(#p362d796e1f)">
     <!-- $I_O$ -->
     <g transform="translate(146.5183 52.880391)scale(0.125 -0.125)">
      <use xlink:href="#STIXGeneral-Italic-49" transform="translate(0 0.703125)"/>
      <use xlink:href="#STIXGeneral-Italic-4f" transform="translate(33.299988 -12.525)scale(0.7)"/>
     </g>
    </g>
   </g>
  </g>
 </g>
 <defs>
  <clipPath id="p362d796e1f">
   <rect x="7.2" y="7.2" width="325.4208" height="172.21"/>
  </clipPath>
 </defs>
</svg>
