<?xml version="1.0" encoding="utf-8" standalone="no"?>
<!DOCTYPE svg PUBLIC "-//W3C//DTD SVG 1.1//EN"
  "http://www.w3.org/Graphics/SVG/1.1/DTD/svg11.dtd">
<svg xmlns:xlink="http://www.w3.org/1999/xlink" width="348.4092pt" height="215.17pt" viewBox="0 0 348.4092 215.17" xmlns="http://www.w3.org/2000/svg" version="1.1">
 <metadata>
  <rdf:RDF xmlns:dc="http://purl.org/dc/elements/1.1/" xmlns:cc="http://creativecommons.org/ns#" xmlns:rdf="http://www.w3.org/1999/02/22-rdf-syntax-ns#">
   <cc:Work>
    <dc:type rdf:resource="http://purl.org/dc/dcmitype/StillImage"/>
    <dc:date>2023-03-02T16:43:27.757244</dc:date>
    <dc:format>image/svg+xml</dc:format>
    <dc:creator>
     <cc:Agent>
      <dc:title>Matplotlib v3.5.2, https://matplotlib.org/</dc:title>
     </cc:Agent>
    </dc:creator>
   </cc:Work>
  </rdf:RDF>
 </metadata>
 <defs>
  <style type="text/css">*{stroke-linejoin: round; stroke-linecap: butt}</style>
 </defs>
 <g id="figure_1">
  <g id="patch_1">
   <path d="M 0 215.17 
L 348.4092 215.17 
L 348.4092 0 
L 0 0 
L 0 215.17 
z
" style="fill: none"/>
  </g>
  <g id="axes_1">
   <g id="patch_2">
    <path d="M 184.2108 108.52 
C 188.268407 108.52 192.160372 106.907895 195.029534 104.038734 
C 197.898695 101.169572 199.5108 97.277607 199.5108 93.22 
C 199.5108 89.162393 197.898695 85.270428 195.029534 82.401266 
C 192.160372 79.532105 188.268407 77.92 184.2108 77.92 
C 180.153193 77.92 176.261228 79.532105 173.392066 82.401266 
C 170.522905 85.270428 168.9108 89.162393 168.9108 93.22 
C 168.9108 97.277607 170.522905 101.169572 173.392066 104.038734 
C 176.261228 106.907895 180.153193 108.52 184.2108 108.52 
L 184.2108 108.52 
z
" clip-path="url(#pd7a80195c5)" style="fill: none; stroke: #000000; stroke-width: 2; stroke-linejoin: miter"/>
   </g>
   <g id="patch_3">
    <path d="M 184.2108 108.52 
C 188.268407 108.52 192.160372 106.907895 195.029534 104.038734 
C 197.898695 101.169572 199.5108 97.277607 199.5108 93.22 
C 199.5108 89.162393 197.898695 85.270428 195.029534 82.401266 
C 192.160372 79.532105 188.268407 77.92 184.2108 77.92 
C 180.153193 77.92 176.261228 79.532105 173.392066 82.401266 
C 170.522905 85.270428 168.9108 89.162393 168.9108 93.22 
C 168.9108 97.277607 170.522905 101.169572 173.392066 104.038734 
C 176.261228 106.907895 180.153193 108.52 184.2108 108.52 
L 184.2108 108.52 
z
" clip-path="url(#pd7a80195c5)" style="fill: none; stroke: #000000; stroke-width: 2; stroke-linejoin: miter"/>
   </g>
   <g id="line2d_1">
    <path d="M 46.5108 185.02 
L 46.5108 197.26 
L 38.8608 197.26 
L 46.5108 204.91 
L 54.1608 197.26 
L 46.5108 197.26 
" clip-path="url(#pd7a80195c5)" style="fill: none; stroke: #000000; stroke-width: 2; stroke-linecap: round"/>
   </g>
   <g id="line2d_2">
    <path d="M 46.5108 185.02 
L 46.5108 154.42 
L 38.8608 151.87 
L 54.1608 146.77 
L 38.8608 141.67 
L 54.1608 136.57 
L 38.8608 131.47 
L 54.1608 126.37 
L 46.5108 123.82 
L 46.5108 93.22 
" clip-path="url(#pd7a80195c5)" style="fill: none; stroke: #000000; stroke-width: 2; stroke-linecap: round"/>
   </g>
   <g id="line2d_3">
    <path d="M 46.5108 93.22 
L 77.1108 93.22 
L 79.6608 85.57 
L 84.7608 100.87 
L 89.8608 85.57 
L 94.9608 100.87 
L 100.0608 85.57 
L 105.1608 100.87 
L 107.7108 93.22 
L 138.3108 93.22 
" clip-path="url(#pd7a80195c5)" style="fill: none; stroke: #000000; stroke-width: 2; stroke-linecap: round"/>
   </g>
   <g id="line2d_4">
    <path d="M 138.3108 93.22 
L 138.3108 123.82 
L 145.9608 126.37 
L 130.6608 131.47 
L 145.9608 136.57 
L 130.6608 141.67 
L 145.9608 146.77 
L 130.6608 151.87 
L 138.3108 154.42 
L 138.3108 185.02 
" clip-path="url(#pd7a80195c5)" style="fill: none; stroke: #000000; stroke-width: 2; stroke-linecap: round"/>
   </g>
   <g id="line2d_5">
    <path d="M 138.3108 93.22 
L 168.9108 93.22 
L 168.9108 93.22 
M 199.5108 93.22 
L 199.5108 93.22 
L 230.1108 93.22 
" clip-path="url(#pd7a80195c5)" style="fill: none; stroke: #000000; stroke-width: 2; stroke-linecap: round"/>
   </g>
   <g id="line2d_6">
    <path d="M 191.8608 90.16 
L 191.8608 96.28 
" clip-path="url(#pd7a80195c5)" style="fill: none; stroke: #000000; stroke-width: 2; stroke-linecap: round"/>
   </g>
   <g id="line2d_7">
    <path d="M 173.5008 93.22 
L 179.6208 93.22 
" clip-path="url(#pd7a80195c5)" style="fill: none; stroke: #000000; stroke-width: 2; stroke-linecap: round"/>
   </g>
   <g id="line2d_8">
    <path d="M 176.5608 90.16 
L 176.5608 96.28 
" clip-path="url(#pd7a80195c5)" style="fill: none; stroke: #000000; stroke-width: 2; stroke-linecap: round"/>
   </g>
   <g id="line2d_9">
    <path d="M 230.1108 93.22 
L 260.7108 93.22 
L 263.2608 85.57 
L 268.3608 100.87 
L 273.4608 85.57 
L 278.5608 100.87 
L 283.6608 85.57 
L 288.7608 100.87 
L 291.3108 93.22 
L 321.9108 93.22 
" clip-path="url(#pd7a80195c5)" style="fill: none; stroke: #000000; stroke-width: 2; stroke-linecap: round"/>
   </g>
   <g id="line2d_10">
    <path d="M 321.9108 93.22 
L 321.9108 123.82 
L 329.5608 126.37 
L 314.2608 131.47 
L 329.5608 136.57 
L 314.2608 141.67 
L 329.5608 146.77 
L 314.2608 151.87 
L 321.9108 154.42 
L 321.9108 185.02 
" clip-path="url(#pd7a80195c5)" style="fill: none; stroke: #000000; stroke-width: 2; stroke-linecap: round"/>
   </g>
   <g id="line2d_11">
    <path d="M 321.9108 185.02 
L 184.2108 185.02 
L 46.5108 185.02 
" clip-path="url(#pd7a80195c5)" style="fill: none; stroke: #000000; stroke-width: 2; stroke-linecap: round"/>
   </g>
   <g id="line2d_12">
    <path d="M 61.8108 123.82 
L 61.8108 139.12 
L 61.8108 146.77 
" clip-path="url(#pd7a80195c5)" style="fill: none; stroke: #0000ff; stroke-width: 2; stroke-linecap: round"/>
   </g>
   <g id="patch_4">
    <path d="M 64.1058 146.77 
L 61.8108 154.42 
L 59.5158 146.77 
z
" clip-path="url(#pd7a80195c5)" style="fill: #0000ff"/>
   </g>
   <g id="line2d_13">
    <path d="M 77.1108 108.52 
L 92.4108 108.52 
L 100.0608 108.52 
" clip-path="url(#pd7a80195c5)" style="fill: none; stroke: #0000ff; stroke-width: 2; stroke-linecap: round"/>
   </g>
   <g id="patch_5">
    <path d="M 100.0608 106.225 
L 107.7108 108.52 
L 100.0608 110.815 
z
" clip-path="url(#pd7a80195c5)" style="fill: #0000ff"/>
   </g>
   <g id="line2d_14">
    <path d="M 153.6108 123.82 
L 153.6108 139.12 
L 153.6108 146.77 
" clip-path="url(#pd7a80195c5)" style="fill: none; stroke: #0000ff; stroke-width: 2; stroke-linecap: round"/>
   </g>
   <g id="patch_6">
    <path d="M 155.9058 146.77 
L 153.6108 154.42 
L 151.3158 146.77 
z
" clip-path="url(#pd7a80195c5)" style="fill: #0000ff"/>
   </g>
   <g id="line2d_15">
    <path d="M 260.7108 108.52 
L 276.0108 108.52 
L 283.6608 108.52 
" clip-path="url(#pd7a80195c5)" style="fill: none; stroke: #0000ff; stroke-width: 2; stroke-linecap: round"/>
   </g>
   <g id="patch_7">
    <path d="M 283.6608 106.225 
L 291.3108 108.52 
L 283.6608 110.815 
z
" clip-path="url(#pd7a80195c5)" style="fill: #0000ff"/>
   </g>
   <g id="line2d_16">
    <path d="M 337.2108 123.82 
L 337.2108 139.12 
L 337.2108 146.77 
" clip-path="url(#pd7a80195c5)" style="fill: none; stroke: #0000ff; stroke-width: 2; stroke-linecap: round"/>
   </g>
   <g id="patch_8">
    <path d="M 339.5058 146.77 
L 337.2108 154.42 
L 334.9158 146.77 
z
" clip-path="url(#pd7a80195c5)" style="fill: #0000ff"/>
   </g>
   <g id="line2d_17">
    <path d="M 123.0108 111.58 
L 184.2108 111.58 
L 245.4108 111.58 
" clip-path="url(#pd7a80195c5)" style="fill: none; stroke: #ffa500; stroke-width: 2; stroke-linecap: round"/>
   </g>
   <g id="line2d_18">
    <path d="M 245.4108 111.58 
L 245.4108 73.33 
L 245.4108 35.08 
" clip-path="url(#pd7a80195c5)" style="fill: none; stroke: #ffa500; stroke-width: 2; stroke-linecap: round"/>
   </g>
   <g id="line2d_19">
    <path d="M 245.4108 35.08 
L 184.2108 35.08 
L 123.0108 35.08 
" clip-path="url(#pd7a80195c5)" style="fill: none; stroke: #ffa500; stroke-width: 2; stroke-linecap: round"/>
   </g>
   <g id="line2d_20">
    <path d="M 123.0108 35.08 
L 123.0108 73.33 
L 123.0108 111.58 
" clip-path="url(#pd7a80195c5)" style="fill: none; stroke: #ffa500; stroke-width: 2; stroke-linecap: round"/>
   </g>
   <g id="line2d_21">
    <path d="M 46.5108 185.02 
L 46.5108 197.26 
L 38.8608 197.26 
L 46.5108 204.91 
L 54.1608 197.26 
L 46.5108 197.26 
" clip-path="url(#pd7a80195c5)" style="fill: none; stroke: #000000; stroke-width: 2; stroke-linecap: round"/>
   </g>
   <g id="line2d_22">
    <path d="M 46.5108 185.02 
L 46.5108 154.42 
L 38.8608 151.87 
L 54.1608 146.77 
L 38.8608 141.67 
L 54.1608 136.57 
L 38.8608 131.47 
L 54.1608 126.37 
L 46.5108 123.82 
L 46.5108 93.22 
" clip-path="url(#pd7a80195c5)" style="fill: none; stroke: #000000; stroke-width: 2; stroke-linecap: round"/>
   </g>
   <g id="line2d_23">
    <path d="M 46.5108 93.22 
L 77.1108 93.22 
L 79.6608 85.57 
L 84.7608 100.87 
L 89.8608 85.57 
L 94.9608 100.87 
L 100.0608 85.57 
L 105.1608 100.87 
L 107.7108 93.22 
L 138.3108 93.22 
" clip-path="url(#pd7a80195c5)" style="fill: none; stroke: #000000; stroke-width: 2; stroke-linecap: round"/>
   </g>
   <g id="line2d_24">
    <path d="M 138.3108 93.22 
L 138.3108 123.82 
L 145.9608 126.37 
L 130.6608 131.47 
L 145.9608 136.57 
L 130.6608 141.67 
L 145.9608 146.77 
L 130.6608 151.87 
L 138.3108 154.42 
L 138.3108 185.02 
" clip-path="url(#pd7a80195c5)" style="fill: none; stroke: #000000; stroke-width: 2; stroke-linecap: round"/>
   </g>
   <g id="line2d_25">
    <path d="M 138.3108 93.22 
L 168.9108 93.22 
L 168.9108 93.22 
M 199.5108 93.22 
L 199.5108 93.22 
L 230.1108 93.22 
" clip-path="url(#pd7a80195c5)" style="fill: none; stroke: #000000; stroke-width: 2; stroke-linecap: round"/>
   </g>
   <g id="line2d_26">
    <path d="M 191.8608 90.16 
L 191.8608 96.28 
" clip-path="url(#pd7a80195c5)" style="fill: none; stroke: #000000; stroke-width: 2; stroke-linecap: round"/>
   </g>
   <g id="line2d_27">
    <path d="M 173.5008 93.22 
L 179.6208 93.22 
" clip-path="url(#pd7a80195c5)" style="fill: none; stroke: #000000; stroke-width: 2; stroke-linecap: round"/>
   </g>
   <g id="line2d_28">
    <path d="M 176.5608 90.16 
L 176.5608 96.28 
" clip-path="url(#pd7a80195c5)" style="fill: none; stroke: #000000; stroke-width: 2; stroke-linecap: round"/>
   </g>
   <g id="line2d_29">
    <path d="M 230.1108 93.22 
L 260.7108 93.22 
L 263.2608 85.57 
L 268.3608 100.87 
L 273.4608 85.57 
L 278.5608 100.87 
L 283.6608 85.57 
L 288.7608 100.87 
L 291.3108 93.22 
L 321.9108 93.22 
" clip-path="url(#pd7a80195c5)" style="fill: none; stroke: #000000; stroke-width: 2; stroke-linecap: round"/>
   </g>
   <g id="line2d_30">
    <path d="M 321.9108 93.22 
L 321.9108 123.82 
L 329.5608 126.37 
L 314.2608 131.47 
L 329.5608 136.57 
L 314.2608 141.67 
L 329.5608 146.77 
L 314.2608 151.87 
L 321.9108 154.42 
L 321.9108 185.02 
" clip-path="url(#pd7a80195c5)" style="fill: none; stroke: #000000; stroke-width: 2; stroke-linecap: round"/>
   </g>
   <g id="line2d_31">
    <path d="M 321.9108 185.02 
L 184.2108 185.02 
L 46.5108 185.02 
" clip-path="url(#pd7a80195c5)" style="fill: none; stroke: #000000; stroke-width: 2; stroke-linecap: round"/>
   </g>
   <g id="line2d_32">
    <path d="M 61.8108 123.82 
L 61.8108 139.12 
L 61.8108 146.77 
" clip-path="url(#pd7a80195c5)" style="fill: none; stroke: #0000ff; stroke-width: 2; stroke-linecap: round"/>
   </g>
   <g id="patch_9">
    <path d="M 64.1058 146.77 
L 61.8108 154.42 
L 59.5158 146.77 
z
" clip-path="url(#pd7a80195c5)" style="fill: #0000ff"/>
   </g>
   <g id="line2d_33">
    <path d="M 77.1108 108.52 
L 92.4108 108.52 
L 100.0608 108.52 
" clip-path="url(#pd7a80195c5)" style="fill: none; stroke: #0000ff; stroke-width: 2; stroke-linecap: round"/>
   </g>
   <g id="patch_10">
    <path d="M 100.0608 106.225 
L 107.7108 108.52 
L 100.0608 110.815 
z
" clip-path="url(#pd7a80195c5)" style="fill: #0000ff"/>
   </g>
   <g id="line2d_34">
    <path d="M 153.6108 123.82 
L 153.6108 139.12 
L 153.6108 146.77 
" clip-path="url(#pd7a80195c5)" style="fill: none; stroke: #0000ff; stroke-width: 2; stroke-linecap: round"/>
   </g>
   <g id="patch_11">
    <path d="M 155.9058 146.77 
L 153.6108 154.42 
L 151.3158 146.77 
z
" clip-path="url(#pd7a80195c5)" style="fill: #0000ff"/>
   </g>
   <g id="line2d_35">
    <path d="M 260.7108 108.52 
L 276.0108 108.52 
L 283.6608 108.52 
" clip-path="url(#pd7a80195c5)" style="fill: none; stroke: #0000ff; stroke-width: 2; stroke-linecap: round"/>
   </g>
   <g id="patch_12">
    <path d="M 283.6608 106.225 
L 291.3108 108.52 
L 283.6608 110.815 
z
" clip-path="url(#pd7a80195c5)" style="fill: #0000ff"/>
   </g>
   <g id="line2d_36">
    <path d="M 337.2108 123.82 
L 337.2108 139.12 
L 337.2108 146.77 
" clip-path="url(#pd7a80195c5)" style="fill: none; stroke: #0000ff; stroke-width: 2; stroke-linecap: round"/>
   </g>
   <g id="patch_13">
    <path d="M 339.5058 146.77 
L 337.2108 154.42 
L 334.9158 146.77 
z
" clip-path="url(#pd7a80195c5)" style="fill: #0000ff"/>
   </g>
   <g id="line2d_37">
    <path d="M 123.0108 111.58 
L 184.2108 111.58 
L 245.4108 111.58 
" clip-path="url(#pd7a80195c5)" style="fill: none; stroke: #ffa500; stroke-width: 2; stroke-linecap: round"/>
   </g>
   <g id="line2d_38">
    <path d="M 245.4108 111.58 
L 245.4108 73.33 
L 245.4108 35.08 
" clip-path="url(#pd7a80195c5)" style="fill: none; stroke: #ffa500; stroke-width: 2; stroke-linecap: round"/>
   </g>
   <g id="line2d_39">
    <path d="M 245.4108 35.08 
L 184.2108 35.08 
L 123.0108 35.08 
" clip-path="url(#pd7a80195c5)" style="fill: none; stroke: #ffa500; stroke-width: 2; stroke-linecap: round"/>
   </g>
   <g id="line2d_40">
    <path d="M 123.0108 35.08 
L 123.0108 73.33 
L 123.0108 111.58 
" clip-path="url(#pd7a80195c5)" style="fill: none; stroke: #ffa500; stroke-width: 2; stroke-linecap: round"/>
   </g>
   <g id="text_1">
    <g clip-path="url(#pd7a80195c5)">
     <!-- $R_1$ -->
     <g transform="translate(23.1758 135.570586)scale(0.125 -0.125)">
      <defs>
       <path id="STIXGeneral-Italic-52" d="M 845 4179 
L 2458 4179 
Q 3078 4179 3420 3936 
Q 3763 3693 3763 3277 
Q 3763 2778 3341 2458 
Q 3091 2266 2502 2131 
L 3072 627 
Q 3181 333 3299 217 
Q 3418 102 3629 102 
L 3629 0 
L 2688 0 
L 1901 2074 
L 1478 2106 
L 1126 806 
Q 1043 512 1043 403 
Q 1043 256 1126 192 
Q 1210 128 1472 102 
L 1472 0 
L -83 0 
L -83 102 
Q 173 134 278 243 
Q 384 352 461 646 
L 1222 3405 
Q 1299 3699 1299 3808 
Q 1299 3923 1210 3987 
Q 1133 4038 845 4077 
L 845 4179 
z
M 1958 3795 
L 1555 2342 
Q 1754 2310 1882 2310 
Q 2451 2310 2771 2566 
Q 3091 2822 3091 3270 
Q 3091 3603 2892 3795 
Q 2694 3987 2323 3987 
Q 2010 3987 1958 3795 
z
" transform="scale(0.015625)"/>
       <path id="STIXGeneral-Regular-31" d="M 2522 0 
L 755 0 
L 755 96 
Q 1107 115 1235 227 
Q 1363 339 1363 608 
L 1363 3482 
Q 1363 3795 1171 3795 
Q 1082 3795 883 3718 
L 710 3654 
L 710 3744 
L 1856 4326 
L 1914 4307 
L 1914 486 
Q 1914 275 2042 185 
Q 2170 96 2522 96 
L 2522 0 
z
" transform="scale(0.015625)"/>
      </defs>
      <use xlink:href="#STIXGeneral-Italic-52" transform="translate(0 0.703125)"/>
      <use xlink:href="#STIXGeneral-Regular-31" transform="translate(61.099991 -12.525)scale(0.7)"/>
     </g>
    </g>
    <g clip-path="url(#pd7a80195c5)">
     <!--  3$\Omega$ -->
     <g transform="translate(14.5508 149.567852)scale(0.125 -0.125)">
      <defs>
       <path id="DejaVuSans-20" transform="scale(0.015625)"/>
       <path id="DejaVuSans-33" d="M 2597 2516 
Q 3050 2419 3304 2112 
Q 3559 1806 3559 1356 
Q 3559 666 3084 287 
Q 2609 -91 1734 -91 
Q 1441 -91 1130 -33 
Q 819 25 488 141 
L 488 750 
Q 750 597 1062 519 
Q 1375 441 1716 441 
Q 2309 441 2620 675 
Q 2931 909 2931 1356 
Q 2931 1769 2642 2001 
Q 2353 2234 1838 2234 
L 1294 2234 
L 1294 2753 
L 1863 2753 
Q 2328 2753 2575 2939 
Q 2822 3125 2822 3475 
Q 2822 3834 2567 4026 
Q 2313 4219 1838 4219 
Q 1578 4219 1281 4162 
Q 984 4106 628 3988 
L 628 4550 
Q 988 4650 1302 4700 
Q 1616 4750 1894 4750 
Q 2613 4750 3031 4423 
Q 3450 4097 3450 3541 
Q 3450 3153 3228 2886 
Q 3006 2619 2597 2516 
z
" transform="scale(0.015625)"/>
       <path id="STIXGeneral-Regular-3a9" d="M 4576 0 
L 2746 0 
L 2790 1030 
Q 3187 1126 3440 1574 
Q 3693 2022 3693 2554 
Q 3693 3251 3344 3673 
Q 2995 4096 2380 4096 
Q 1766 4096 1417 3635 
Q 1069 3174 1069 2554 
Q 1069 2054 1315 1600 
Q 1562 1146 1965 1030 
L 2022 0 
L 186 0 
L 186 1094 
L 346 1094 
Q 352 806 438 707 
Q 525 608 742 608 
L 1709 608 
L 1696 845 
Q 1018 1037 678 1446 
Q 339 1856 339 2541 
Q 339 3238 899 3782 
Q 1459 4326 2380 4326 
Q 3302 4326 3862 3804 
Q 4422 3283 4422 2541 
Q 4422 1235 3046 845 
L 3034 608 
L 4019 608 
Q 4397 608 4416 1082 
L 4576 1082 
L 4576 0 
z
" transform="scale(0.015625)"/>
      </defs>
      <use xlink:href="#DejaVuSans-20" transform="translate(0 0.78125)"/>
      <use xlink:href="#DejaVuSans-33" transform="translate(31.787109 0.78125)"/>
      <use xlink:href="#STIXGeneral-Regular-3a9" transform="translate(95.410156 0.78125)"/>
     </g>
    </g>
   </g>
   <g id="text_2">
    <g clip-path="url(#pd7a80195c5)">
     <!-- $R_2$ -->
     <g transform="translate(86.0983 65.913125)scale(0.125 -0.125)">
      <defs>
       <path id="STIXGeneral-Regular-32" d="M 3034 877 
L 2688 0 
L 186 0 
L 186 77 
L 1325 1286 
Q 1773 1754 1965 2144 
Q 2157 2534 2157 2950 
Q 2157 3379 1920 3616 
Q 1683 3853 1267 3853 
Q 922 3853 720 3673 
Q 518 3494 326 3021 
L 192 3053 
Q 301 3648 630 3987 
Q 960 4326 1523 4326 
Q 2054 4326 2380 4006 
Q 2707 3686 2707 3200 
Q 2707 2477 1888 1613 
L 832 486 
L 2330 486 
Q 2541 486 2665 569 
Q 2790 653 2944 915 
L 3034 877 
z
" transform="scale(0.015625)"/>
      </defs>
      <use xlink:href="#STIXGeneral-Italic-52" transform="translate(0 0.703125)"/>
      <use xlink:href="#STIXGeneral-Regular-32" transform="translate(61.099991 -12.525)scale(0.7)"/>
     </g>
    </g>
    <g clip-path="url(#pd7a80195c5)">
     <!--  6$\Omega$ -->
     <g transform="translate(81.7858 79.910391)scale(0.125 -0.125)">
      <defs>
       <path id="DejaVuSans-36" d="M 2113 2584 
Q 1688 2584 1439 2293 
Q 1191 2003 1191 1497 
Q 1191 994 1439 701 
Q 1688 409 2113 409 
Q 2538 409 2786 701 
Q 3034 994 3034 1497 
Q 3034 2003 2786 2293 
Q 2538 2584 2113 2584 
z
M 3366 4563 
L 3366 3988 
Q 3128 4100 2886 4159 
Q 2644 4219 2406 4219 
Q 1781 4219 1451 3797 
Q 1122 3375 1075 2522 
Q 1259 2794 1537 2939 
Q 1816 3084 2150 3084 
Q 2853 3084 3261 2657 
Q 3669 2231 3669 1497 
Q 3669 778 3244 343 
Q 2819 -91 2113 -91 
Q 1303 -91 875 529 
Q 447 1150 447 2328 
Q 447 3434 972 4092 
Q 1497 4750 2381 4750 
Q 2619 4750 2861 4703 
Q 3103 4656 3366 4563 
z
" transform="scale(0.015625)"/>
      </defs>
      <use xlink:href="#DejaVuSans-20" transform="translate(0 0.78125)"/>
      <use xlink:href="#DejaVuSans-36" transform="translate(31.787109 0.78125)"/>
      <use xlink:href="#STIXGeneral-Regular-3a9" transform="translate(95.410156 0.78125)"/>
     </g>
    </g>
   </g>
   <g id="text_3">
    <g clip-path="url(#pd7a80195c5)">
     <!-- $R_3$ -->
     <g transform="translate(114.9758 135.570586)scale(0.125 -0.125)">
      <defs>
       <path id="STIXGeneral-Regular-33" d="M 390 3264 
L 288 3290 
Q 435 3770 748 4048 
Q 1062 4326 1542 4326 
Q 1990 4326 2265 4083 
Q 2541 3840 2541 3450 
Q 2541 2925 1946 2566 
Q 2298 2413 2477 2227 
Q 2758 1914 2758 1402 
Q 2758 890 2464 506 
Q 2246 211 1840 60 
Q 1434 -90 979 -90 
Q 262 -90 262 275 
Q 262 378 339 442 
Q 416 506 525 506 
Q 685 506 915 339 
Q 1197 141 1466 141 
Q 1818 141 2058 425 
Q 2298 710 2298 1120 
Q 2298 1856 1632 2048 
Q 1434 2112 979 2112 
L 979 2202 
Q 1338 2323 1517 2432 
Q 2035 2726 2035 3290 
Q 2035 3610 1852 3776 
Q 1670 3942 1344 3942 
Q 768 3942 390 3264 
z
" transform="scale(0.015625)"/>
      </defs>
      <use xlink:href="#STIXGeneral-Italic-52" transform="translate(0 0.703125)"/>
      <use xlink:href="#STIXGeneral-Regular-33" transform="translate(61.099991 -12.525)scale(0.7)"/>
     </g>
    </g>
    <g clip-path="url(#pd7a80195c5)">
     <!--  12$\Omega$ -->
     <g transform="translate(98.3508 149.567852)scale(0.125 -0.125)">
      <defs>
       <path id="DejaVuSans-31" d="M 794 531 
L 1825 531 
L 1825 4091 
L 703 3866 
L 703 4441 
L 1819 4666 
L 2450 4666 
L 2450 531 
L 3481 531 
L 3481 0 
L 794 0 
L 794 531 
z
" transform="scale(0.015625)"/>
       <path id="DejaVuSans-32" d="M 1228 531 
L 3431 531 
L 3431 0 
L 469 0 
L 469 531 
Q 828 903 1448 1529 
Q 2069 2156 2228 2338 
Q 2531 2678 2651 2914 
Q 2772 3150 2772 3378 
Q 2772 3750 2511 3984 
Q 2250 4219 1831 4219 
Q 1534 4219 1204 4116 
Q 875 4013 500 3803 
L 500 4441 
Q 881 4594 1212 4672 
Q 1544 4750 1819 4750 
Q 2544 4750 2975 4387 
Q 3406 4025 3406 3419 
Q 3406 3131 3298 2873 
Q 3191 2616 2906 2266 
Q 2828 2175 2409 1742 
Q 1991 1309 1228 531 
z
" transform="scale(0.015625)"/>
      </defs>
      <use xlink:href="#DejaVuSans-20" transform="translate(0 0.78125)"/>
      <use xlink:href="#DejaVuSans-31" transform="translate(31.787109 0.78125)"/>
      <use xlink:href="#DejaVuSans-32" transform="translate(95.410156 0.78125)"/>
      <use xlink:href="#STIXGeneral-Regular-3a9" transform="translate(159.033203 0.78125)"/>
     </g>
    </g>
   </g>
   <g id="text_4">
    <g clip-path="url(#pd7a80195c5)">
     <!-- + -->
     <g transform="translate(227.286191 119.619219)scale(0.125 -0.125)">
      <defs>
       <path id="DejaVuSans-2b" d="M 2944 4013 
L 2944 2272 
L 4684 2272 
L 4684 1741 
L 2944 1741 
L 2944 0 
L 2419 0 
L 2419 1741 
L 678 1741 
L 678 2272 
L 2419 2272 
L 2419 4013 
L 2944 4013 
z
" transform="scale(0.015625)"/>
      </defs>
      <use xlink:href="#DejaVuSans-2b"/>
     </g>
    </g>
   </g>
   <g id="text_5">
    <g clip-path="url(#pd7a80195c5)">
     <!-- $V_O$ -->
     <g transform="translate(223.1358 142.569219)scale(0.125 -0.125)">
      <defs>
       <path id="STIXGeneral-Italic-56" d="M 4403 4179 
L 4403 4077 
Q 4198 4070 4045 3821 
L 1658 -115 
L 1536 -115 
L 1011 3104 
Q 902 3776 828 3910 
Q 755 4045 486 4077 
L 486 4179 
L 2022 4179 
L 2022 4077 
Q 1722 4045 1629 3981 
Q 1536 3917 1536 3750 
Q 1536 3686 1542 3654 
L 1958 819 
L 3302 3123 
Q 3616 3661 3616 3859 
Q 3616 4032 3219 4077 
L 3219 4179 
L 4403 4179 
z
" transform="scale(0.015625)"/>
       <path id="STIXGeneral-Italic-4f" d="M 4474 2675 
Q 4474 1990 4106 1363 
Q 3738 736 3149 339 
Q 2477 -115 1779 -115 
Q 1146 -115 765 281 
Q 384 678 384 1382 
Q 384 1965 697 2582 
Q 1011 3200 1517 3642 
Q 2234 4262 3034 4262 
Q 3718 4269 4096 3840 
Q 4474 3411 4474 2675 
z
M 3802 3078 
Q 3802 3533 3581 3792 
Q 3360 4051 2976 4051 
Q 2342 4051 1786 3302 
Q 1446 2842 1251 2259 
Q 1056 1677 1056 1178 
Q 1056 653 1270 374 
Q 1485 96 1888 96 
Q 2477 96 2976 704 
Q 3354 1178 3578 1862 
Q 3802 2547 3802 3078 
z
" transform="scale(0.015625)"/>
      </defs>
      <use xlink:href="#STIXGeneral-Italic-56" transform="translate(0 0.703125)"/>
      <use xlink:href="#STIXGeneral-Italic-4f" transform="translate(61.099991 -12.525)scale(0.7)"/>
     </g>
    </g>
   </g>
   <g id="text_6">
    <g clip-path="url(#pd7a80195c5)">
     <!-- - -->
     <g transform="translate(233.251034 165.519219)scale(0.125 -0.125)">
      <defs>
       <path id="DejaVuSans-2d" d="M 313 2009 
L 1997 2009 
L 1997 1497 
L 313 1497 
L 313 2009 
z
" transform="scale(0.015625)"/>
      </defs>
      <use xlink:href="#DejaVuSans-2d"/>
     </g>
    </g>
   </g>
   <g id="text_7">
    <g clip-path="url(#pd7a80195c5)">
     <!-- $V_S$ -->
     <g transform="translate(177.8983 58.263125)scale(0.125 -0.125)">
      <defs>
       <path id="STIXGeneral-Italic-53" d="M 3251 4269 
L 2995 2989 
L 2880 3008 
Q 2880 3539 2720 3795 
Q 2560 4051 2118 4051 
Q 1786 4051 1594 3881 
Q 1402 3712 1402 3411 
Q 1402 3168 1504 3005 
Q 1606 2842 2035 2413 
Q 2464 1978 2611 1715 
Q 2758 1453 2758 1133 
Q 2758 589 2390 237 
Q 2022 -115 1466 -115 
Q 1222 -115 800 32 
Q 595 109 499 109 
Q 288 109 224 -96 
L 109 -96 
L 326 1338 
L 454 1325 
Q 442 1267 442 1178 
Q 442 710 701 409 
Q 960 109 1363 109 
Q 1734 109 1968 336 
Q 2202 563 2202 928 
Q 2202 1139 2118 1308 
Q 2035 1478 1818 1715 
L 1568 1984 
Q 1549 2003 1459 2102 
Q 1370 2202 1318 2253 
Q 1030 2560 934 2755 
Q 838 2950 838 3213 
Q 838 3699 1168 3980 
Q 1498 4262 1978 4262 
Q 2310 4262 2522 4173 
Q 2707 4102 2816 4102 
Q 2925 4102 2982 4134 
Q 3040 4166 3104 4269 
L 3251 4269 
z
" transform="scale(0.015625)"/>
      </defs>
      <use xlink:href="#STIXGeneral-Italic-56" transform="translate(0 0.703125)"/>
      <use xlink:href="#STIXGeneral-Italic-53" transform="translate(61.099991 -12.525)scale(0.7)"/>
     </g>
    </g>
    <g clip-path="url(#pd7a80195c5)">
     <!-- 8$~V$ -->
     <g transform="translate(174.8983 72.260391)scale(0.125 -0.125)">
      <defs>
       <path id="DejaVuSans-38" d="M 2034 2216 
Q 1584 2216 1326 1975 
Q 1069 1734 1069 1313 
Q 1069 891 1326 650 
Q 1584 409 2034 409 
Q 2484 409 2743 651 
Q 3003 894 3003 1313 
Q 3003 1734 2745 1975 
Q 2488 2216 2034 2216 
z
M 1403 2484 
Q 997 2584 770 2862 
Q 544 3141 544 3541 
Q 544 4100 942 4425 
Q 1341 4750 2034 4750 
Q 2731 4750 3128 4425 
Q 3525 4100 3525 3541 
Q 3525 3141 3298 2862 
Q 3072 2584 2669 2484 
Q 3125 2378 3379 2068 
Q 3634 1759 3634 1313 
Q 3634 634 3220 271 
Q 2806 -91 2034 -91 
Q 1263 -91 848 271 
Q 434 634 434 1313 
Q 434 1759 690 2068 
Q 947 2378 1403 2484 
z
M 1172 3481 
Q 1172 3119 1398 2916 
Q 1625 2713 2034 2713 
Q 2441 2713 2670 2916 
Q 2900 3119 2900 3481 
Q 2900 3844 2670 4047 
Q 2441 4250 2034 4250 
Q 1625 4250 1398 4047 
Q 1172 3844 1172 3481 
z
" transform="scale(0.015625)"/>
      </defs>
      <use xlink:href="#DejaVuSans-38" transform="translate(0 0.78125)"/>
      <use xlink:href="#STIXGeneral-Italic-56" transform="translate(87.689467 0.78125)"/>
     </g>
    </g>
   </g>
   <g id="text_8">
    <g clip-path="url(#pd7a80195c5)">
     <!-- $R_4$ -->
     <g transform="translate(269.6983 65.913125)scale(0.125 -0.125)">
      <defs>
       <path id="STIXGeneral-Regular-34" d="M 3027 1069 
L 2368 1069 
L 2368 0 
L 1869 0 
L 1869 1069 
L 77 1069 
L 77 1478 
L 2086 4326 
L 2368 4326 
L 2368 1478 
L 3027 1478 
L 3027 1069 
z
M 1869 1478 
L 1869 3674 
L 333 1478 
L 1869 1478 
z
" transform="scale(0.015625)"/>
      </defs>
      <use xlink:href="#STIXGeneral-Italic-52" transform="translate(0 0.703125)"/>
      <use xlink:href="#STIXGeneral-Regular-34" transform="translate(61.099991 -12.525)scale(0.7)"/>
     </g>
    </g>
    <g clip-path="url(#pd7a80195c5)">
     <!--  8$\Omega$ -->
     <g transform="translate(265.3858 79.910391)scale(0.125 -0.125)">
      <use xlink:href="#DejaVuSans-20" transform="translate(0 0.78125)"/>
      <use xlink:href="#DejaVuSans-38" transform="translate(31.787109 0.78125)"/>
      <use xlink:href="#STIXGeneral-Regular-3a9" transform="translate(95.410156 0.78125)"/>
     </g>
    </g>
   </g>
   <g id="text_9">
    <g clip-path="url(#pd7a80195c5)">
     <!-- $R_5$ -->
     <g transform="translate(298.5758 135.570586)scale(0.125 -0.125)">
      <defs>
       <path id="STIXGeneral-Regular-35" d="M 2803 4358 
L 2573 3814 
Q 2534 3731 2400 3731 
L 1158 3731 
L 902 3187 
Q 1606 3053 1920 2896 
Q 2234 2739 2502 2368 
Q 2726 2061 2726 1555 
Q 2726 1094 2576 780 
Q 2426 467 2099 224 
Q 1664 -90 1011 -90 
Q 646 -90 422 19 
Q 198 128 198 307 
Q 198 550 486 550 
Q 717 550 960 352 
Q 1210 147 1414 147 
Q 1747 147 2012 480 
Q 2278 813 2278 1229 
Q 2278 1843 1850 2189 
Q 1293 2637 486 2637 
Q 410 2637 410 2688 
L 416 2720 
L 1114 4237 
L 2438 4237 
Q 2547 4237 2608 4269 
Q 2669 4301 2746 4403 
L 2803 4358 
z
" transform="scale(0.015625)"/>
      </defs>
      <use xlink:href="#STIXGeneral-Italic-52" transform="translate(0 0.703125)"/>
      <use xlink:href="#STIXGeneral-Regular-35" transform="translate(61.099991 -12.525)scale(0.7)"/>
     </g>
    </g>
    <g clip-path="url(#pd7a80195c5)">
     <!--  5$\Omega$ -->
     <g transform="translate(289.9508 149.567852)scale(0.125 -0.125)">
      <defs>
       <path id="DejaVuSans-35" d="M 691 4666 
L 3169 4666 
L 3169 4134 
L 1269 4134 
L 1269 2991 
Q 1406 3038 1543 3061 
Q 1681 3084 1819 3084 
Q 2600 3084 3056 2656 
Q 3513 2228 3513 1497 
Q 3513 744 3044 326 
Q 2575 -91 1722 -91 
Q 1428 -91 1123 -41 
Q 819 9 494 109 
L 494 744 
Q 775 591 1075 516 
Q 1375 441 1709 441 
Q 2250 441 2565 725 
Q 2881 1009 2881 1497 
Q 2881 1984 2565 2268 
Q 2250 2553 1709 2553 
Q 1456 2553 1204 2497 
Q 953 2441 691 2322 
L 691 4666 
z
" transform="scale(0.015625)"/>
      </defs>
      <use xlink:href="#DejaVuSans-20" transform="translate(0 0.09375)"/>
      <use xlink:href="#DejaVuSans-35" transform="translate(31.787109 0.09375)"/>
      <use xlink:href="#STIXGeneral-Regular-3a9" transform="translate(95.410156 0.09375)"/>
     </g>
    </g>
   </g>
   <g id="text_10">
    <g clip-path="url(#pd7a80195c5)">
     <!-- Super Node -->
     <g style="fill: #ffa500" transform="translate(147.599472 29.420391)scale(0.125 -0.125)">
      <defs>
       <path id="DejaVuSans-53" d="M 3425 4513 
L 3425 3897 
Q 3066 4069 2747 4153 
Q 2428 4238 2131 4238 
Q 1616 4238 1336 4038 
Q 1056 3838 1056 3469 
Q 1056 3159 1242 3001 
Q 1428 2844 1947 2747 
L 2328 2669 
Q 3034 2534 3370 2195 
Q 3706 1856 3706 1288 
Q 3706 609 3251 259 
Q 2797 -91 1919 -91 
Q 1588 -91 1214 -16 
Q 841 59 441 206 
L 441 856 
Q 825 641 1194 531 
Q 1563 422 1919 422 
Q 2459 422 2753 634 
Q 3047 847 3047 1241 
Q 3047 1584 2836 1778 
Q 2625 1972 2144 2069 
L 1759 2144 
Q 1053 2284 737 2584 
Q 422 2884 422 3419 
Q 422 4038 858 4394 
Q 1294 4750 2059 4750 
Q 2388 4750 2728 4690 
Q 3069 4631 3425 4513 
z
" transform="scale(0.015625)"/>
       <path id="DejaVuSans-75" d="M 544 1381 
L 544 3500 
L 1119 3500 
L 1119 1403 
Q 1119 906 1312 657 
Q 1506 409 1894 409 
Q 2359 409 2629 706 
Q 2900 1003 2900 1516 
L 2900 3500 
L 3475 3500 
L 3475 0 
L 2900 0 
L 2900 538 
Q 2691 219 2414 64 
Q 2138 -91 1772 -91 
Q 1169 -91 856 284 
Q 544 659 544 1381 
z
M 1991 3584 
L 1991 3584 
z
" transform="scale(0.015625)"/>
       <path id="DejaVuSans-70" d="M 1159 525 
L 1159 -1331 
L 581 -1331 
L 581 3500 
L 1159 3500 
L 1159 2969 
Q 1341 3281 1617 3432 
Q 1894 3584 2278 3584 
Q 2916 3584 3314 3078 
Q 3713 2572 3713 1747 
Q 3713 922 3314 415 
Q 2916 -91 2278 -91 
Q 1894 -91 1617 61 
Q 1341 213 1159 525 
z
M 3116 1747 
Q 3116 2381 2855 2742 
Q 2594 3103 2138 3103 
Q 1681 3103 1420 2742 
Q 1159 2381 1159 1747 
Q 1159 1113 1420 752 
Q 1681 391 2138 391 
Q 2594 391 2855 752 
Q 3116 1113 3116 1747 
z
" transform="scale(0.015625)"/>
       <path id="DejaVuSans-65" d="M 3597 1894 
L 3597 1613 
L 953 1613 
Q 991 1019 1311 708 
Q 1631 397 2203 397 
Q 2534 397 2845 478 
Q 3156 559 3463 722 
L 3463 178 
Q 3153 47 2828 -22 
Q 2503 -91 2169 -91 
Q 1331 -91 842 396 
Q 353 884 353 1716 
Q 353 2575 817 3079 
Q 1281 3584 2069 3584 
Q 2775 3584 3186 3129 
Q 3597 2675 3597 1894 
z
M 3022 2063 
Q 3016 2534 2758 2815 
Q 2500 3097 2075 3097 
Q 1594 3097 1305 2825 
Q 1016 2553 972 2059 
L 3022 2063 
z
" transform="scale(0.015625)"/>
       <path id="DejaVuSans-72" d="M 2631 2963 
Q 2534 3019 2420 3045 
Q 2306 3072 2169 3072 
Q 1681 3072 1420 2755 
Q 1159 2438 1159 1844 
L 1159 0 
L 581 0 
L 581 3500 
L 1159 3500 
L 1159 2956 
Q 1341 3275 1631 3429 
Q 1922 3584 2338 3584 
Q 2397 3584 2469 3576 
Q 2541 3569 2628 3553 
L 2631 2963 
z
" transform="scale(0.015625)"/>
       <path id="DejaVuSans-4e" d="M 628 4666 
L 1478 4666 
L 3547 763 
L 3547 4666 
L 4159 4666 
L 4159 0 
L 3309 0 
L 1241 3903 
L 1241 0 
L 628 0 
L 628 4666 
z
" transform="scale(0.015625)"/>
       <path id="DejaVuSans-6f" d="M 1959 3097 
Q 1497 3097 1228 2736 
Q 959 2375 959 1747 
Q 959 1119 1226 758 
Q 1494 397 1959 397 
Q 2419 397 2687 759 
Q 2956 1122 2956 1747 
Q 2956 2369 2687 2733 
Q 2419 3097 1959 3097 
z
M 1959 3584 
Q 2709 3584 3137 3096 
Q 3566 2609 3566 1747 
Q 3566 888 3137 398 
Q 2709 -91 1959 -91 
Q 1206 -91 779 398 
Q 353 888 353 1747 
Q 353 2609 779 3096 
Q 1206 3584 1959 3584 
z
" transform="scale(0.015625)"/>
       <path id="DejaVuSans-64" d="M 2906 2969 
L 2906 4863 
L 3481 4863 
L 3481 0 
L 2906 0 
L 2906 525 
Q 2725 213 2448 61 
Q 2172 -91 1784 -91 
Q 1150 -91 751 415 
Q 353 922 353 1747 
Q 353 2572 751 3078 
Q 1150 3584 1784 3584 
Q 2172 3584 2448 3432 
Q 2725 3281 2906 2969 
z
M 947 1747 
Q 947 1113 1208 752 
Q 1469 391 1925 391 
Q 2381 391 2643 752 
Q 2906 1113 2906 1747 
Q 2906 2381 2643 2742 
Q 2381 3103 1925 3103 
Q 1469 3103 1208 2742 
Q 947 2381 947 1747 
z
" transform="scale(0.015625)"/>
      </defs>
      <use xlink:href="#DejaVuSans-53"/>
      <use xlink:href="#DejaVuSans-75" x="63.476562"/>
      <use xlink:href="#DejaVuSans-70" x="126.855469"/>
      <use xlink:href="#DejaVuSans-65" x="190.332031"/>
      <use xlink:href="#DejaVuSans-72" x="251.855469"/>
      <use xlink:href="#DejaVuSans-20" x="292.96875"/>
      <use xlink:href="#DejaVuSans-4e" x="324.755859"/>
      <use xlink:href="#DejaVuSans-6f" x="399.560547"/>
      <use xlink:href="#DejaVuSans-64" x="460.742188"/>
      <use xlink:href="#DejaVuSans-65" x="524.21875"/>
     </g>
    </g>
   </g>
   <g id="text_11">
    <g clip-path="url(#pd7a80195c5)">
     <!-- $R_1$ -->
     <g transform="translate(23.1758 135.570586)scale(0.125 -0.125)">
      <use xlink:href="#STIXGeneral-Italic-52" transform="translate(0 0.703125)"/>
      <use xlink:href="#STIXGeneral-Regular-31" transform="translate(61.099991 -12.525)scale(0.7)"/>
     </g>
    </g>
    <g clip-path="url(#pd7a80195c5)">
     <!--  3$\Omega$ -->
     <g transform="translate(14.5508 149.567852)scale(0.125 -0.125)">
      <use xlink:href="#DejaVuSans-20" transform="translate(0 0.78125)"/>
      <use xlink:href="#DejaVuSans-33" transform="translate(31.787109 0.78125)"/>
      <use xlink:href="#STIXGeneral-Regular-3a9" transform="translate(95.410156 0.78125)"/>
     </g>
    </g>
   </g>
   <g id="text_12">
    <g clip-path="url(#pd7a80195c5)">
     <!-- $R_2$ -->
     <g transform="translate(86.0983 65.913125)scale(0.125 -0.125)">
      <use xlink:href="#STIXGeneral-Italic-52" transform="translate(0 0.703125)"/>
      <use xlink:href="#STIXGeneral-Regular-32" transform="translate(61.099991 -12.525)scale(0.7)"/>
     </g>
    </g>
    <g clip-path="url(#pd7a80195c5)">
     <!--  6$\Omega$ -->
     <g transform="translate(81.7858 79.910391)scale(0.125 -0.125)">
      <use xlink:href="#DejaVuSans-20" transform="translate(0 0.78125)"/>
      <use xlink:href="#DejaVuSans-36" transform="translate(31.787109 0.78125)"/>
      <use xlink:href="#STIXGeneral-Regular-3a9" transform="translate(95.410156 0.78125)"/>
     </g>
    </g>
   </g>
   <g id="text_13">
    <g clip-path="url(#pd7a80195c5)">
     <!-- $R_3$ -->
     <g transform="translate(114.9758 135.570586)scale(0.125 -0.125)">
      <use xlink:href="#STIXGeneral-Italic-52" transform="translate(0 0.703125)"/>
      <use xlink:href="#STIXGeneral-Regular-33" transform="translate(61.099991 -12.525)scale(0.7)"/>
     </g>
    </g>
    <g clip-path="url(#pd7a80195c5)">
     <!--  12$\Omega$ -->
     <g transform="translate(98.3508 149.567852)scale(0.125 -0.125)">
      <use xlink:href="#DejaVuSans-20" transform="translate(0 0.78125)"/>
      <use xlink:href="#DejaVuSans-31" transform="translate(31.787109 0.78125)"/>
      <use xlink:href="#DejaVuSans-32" transform="translate(95.410156 0.78125)"/>
      <use xlink:href="#STIXGeneral-Regular-3a9" transform="translate(159.033203 0.78125)"/>
     </g>
    </g>
   </g>
   <g id="text_14">
    <g clip-path="url(#pd7a80195c5)">
     <!-- + -->
     <g transform="translate(227.286191 119.619219)scale(0.125 -0.125)">
      <use xlink:href="#DejaVuSans-2b"/>
     </g>
    </g>
   </g>
   <g id="text_15">
    <g clip-path="url(#pd7a80195c5)">
     <!-- $V_O$ -->
     <g transform="translate(223.1358 142.569219)scale(0.125 -0.125)">
      <use xlink:href="#STIXGeneral-Italic-56" transform="translate(0 0.703125)"/>
      <use xlink:href="#STIXGeneral-Italic-4f" transform="translate(61.099991 -12.525)scale(0.7)"/>
     </g>
    </g>
   </g>
   <g id="text_16">
    <g clip-path="url(#pd7a80195c5)">
     <!-- - -->
     <g transform="translate(233.251034 165.519219)scale(0.125 -0.125)">
      <use xlink:href="#DejaVuSans-2d"/>
     </g>
    </g>
   </g>
   <g id="text_17">
    <g clip-path="url(#pd7a80195c5)">
     <!-- $V_S$ -->
     <g transform="translate(177.8983 58.263125)scale(0.125 -0.125)">
      <use xlink:href="#STIXGeneral-Italic-56" transform="translate(0 0.703125)"/>
      <use xlink:href="#STIXGeneral-Italic-53" transform="translate(61.099991 -12.525)scale(0.7)"/>
     </g>
    </g>
    <g clip-path="url(#pd7a80195c5)">
     <!-- 8$~V$ -->
     <g transform="translate(174.8983 72.260391)scale(0.125 -0.125)">
      <use xlink:href="#DejaVuSans-38" transform="translate(0 0.78125)"/>
      <use xlink:href="#STIXGeneral-Italic-56" transform="translate(87.689467 0.78125)"/>
     </g>
    </g>
   </g>
   <g id="text_18">
    <g clip-path="url(#pd7a80195c5)">
     <!-- $R_4$ -->
     <g transform="translate(269.6983 65.913125)scale(0.125 -0.125)">
      <use xlink:href="#STIXGeneral-Italic-52" transform="translate(0 0.703125)"/>
      <use xlink:href="#STIXGeneral-Regular-34" transform="translate(61.099991 -12.525)scale(0.7)"/>
     </g>
    </g>
    <g clip-path="url(#pd7a80195c5)">
     <!--  8$\Omega$ -->
     <g transform="translate(265.3858 79.910391)scale(0.125 -0.125)">
      <use xlink:href="#DejaVuSans-20" transform="translate(0 0.78125)"/>
      <use xlink:href="#DejaVuSans-38" transform="translate(31.787109 0.78125)"/>
      <use xlink:href="#STIXGeneral-Regular-3a9" transform="translate(95.410156 0.78125)"/>
     </g>
    </g>
   </g>
   <g id="text_19">
    <g clip-path="url(#pd7a80195c5)">
     <!-- $R_5$ -->
     <g transform="translate(298.5758 135.570586)scale(0.125 -0.125)">
      <use xlink:href="#STIXGeneral-Italic-52" transform="translate(0 0.703125)"/>
      <use xlink:href="#STIXGeneral-Regular-35" transform="translate(61.099991 -12.525)scale(0.7)"/>
     </g>
    </g>
    <g clip-path="url(#pd7a80195c5)">
     <!--  5$\Omega$ -->
     <g transform="translate(289.9508 149.567852)scale(0.125 -0.125)">
      <use xlink:href="#DejaVuSans-20" transform="translate(0 0.09375)"/>
      <use xlink:href="#DejaVuSans-35" transform="translate(31.787109 0.09375)"/>
      <use xlink:href="#STIXGeneral-Regular-3a9" transform="translate(95.410156 0.09375)"/>
     </g>
    </g>
   </g>
   <g id="text_20">
    <g clip-path="url(#pd7a80195c5)">
     <!-- Super Node -->
     <g style="fill: #ffa500" transform="translate(147.599472 29.420391)scale(0.125 -0.125)">
      <use xlink:href="#DejaVuSans-53"/>
      <use xlink:href="#DejaVuSans-75" x="63.476562"/>
      <use xlink:href="#DejaVuSans-70" x="126.855469"/>
      <use xlink:href="#DejaVuSans-65" x="190.332031"/>
      <use xlink:href="#DejaVuSans-72" x="251.855469"/>
      <use xlink:href="#DejaVuSans-20" x="292.96875"/>
      <use xlink:href="#DejaVuSans-4e" x="324.755859"/>
      <use xlink:href="#DejaVuSans-6f" x="399.560547"/>
      <use xlink:href="#DejaVuSans-64" x="460.742188"/>
      <use xlink:href="#DejaVuSans-65" x="524.21875"/>
     </g>
    </g>
   </g>
   <g id="patch_14">
    <path d="M 46.5108 95.515 
C 47.119441 95.515 47.703236 95.273184 48.13361 94.84281 
C 48.563984 94.412436 48.8058 93.828641 48.8058 93.22 
C 48.8058 92.611359 48.563984 92.027564 48.13361 91.59719 
C 47.703236 91.166816 47.119441 90.925 46.5108 90.925 
C 45.902159 90.925 45.318364 91.166816 44.88799 91.59719 
C 44.457616 92.027564 44.2158 92.611359 44.2158 93.22 
C 44.2158 93.828641 44.457616 94.412436 44.88799 94.84281 
C 45.318364 95.273184 45.902159 95.515 46.5108 95.515 
z
" clip-path="url(#pd7a80195c5)" style="fill: #ff0000; stroke: #ff0000; stroke-width: 2; stroke-linejoin: miter"/>
   </g>
   <g id="text_21">
    <g clip-path="url(#pd7a80195c5)">
     <!-- A -->
     <g transform="translate(42.235409 85.265391)scale(0.125 -0.125)">
      <defs>
       <path id="DejaVuSans-41" d="M 2188 4044 
L 1331 1722 
L 3047 1722 
L 2188 4044 
z
M 1831 4666 
L 2547 4666 
L 4325 0 
L 3669 0 
L 3244 1197 
L 1141 1197 
L 716 0 
L 50 0 
L 1831 4666 
z
" transform="scale(0.015625)"/>
      </defs>
      <use xlink:href="#DejaVuSans-41"/>
     </g>
    </g>
   </g>
   <g id="patch_15">
    <path d="M 138.3108 95.515 
C 138.919441 95.515 139.503236 95.273184 139.93361 94.84281 
C 140.363984 94.412436 140.6058 93.828641 140.6058 93.22 
C 140.6058 92.611359 140.363984 92.027564 139.93361 91.59719 
C 139.503236 91.166816 138.919441 90.925 138.3108 90.925 
C 137.702159 90.925 137.118364 91.166816 136.68799 91.59719 
C 136.257616 92.027564 136.0158 92.611359 136.0158 93.22 
C 136.0158 93.828641 136.257616 94.412436 136.68799 94.84281 
C 137.118364 95.273184 137.702159 95.515 138.3108 95.515 
z
" clip-path="url(#pd7a80195c5)" style="fill: #ff0000; stroke: #ff0000; stroke-width: 2; stroke-linejoin: miter"/>
   </g>
   <g id="text_22">
    <g clip-path="url(#pd7a80195c5)">
     <!-- B -->
     <g transform="translate(134.022714 85.265391)scale(0.125 -0.125)">
      <defs>
       <path id="DejaVuSans-42" d="M 1259 2228 
L 1259 519 
L 2272 519 
Q 2781 519 3026 730 
Q 3272 941 3272 1375 
Q 3272 1813 3026 2020 
Q 2781 2228 2272 2228 
L 1259 2228 
z
M 1259 4147 
L 1259 2741 
L 2194 2741 
Q 2656 2741 2882 2914 
Q 3109 3088 3109 3444 
Q 3109 3797 2882 3972 
Q 2656 4147 2194 4147 
L 1259 4147 
z
M 628 4666 
L 2241 4666 
Q 2963 4666 3353 4366 
Q 3744 4066 3744 3513 
Q 3744 3084 3544 2831 
Q 3344 2578 2956 2516 
Q 3422 2416 3680 2098 
Q 3938 1781 3938 1306 
Q 3938 681 3513 340 
Q 3088 0 2303 0 
L 628 0 
L 628 4666 
z
" transform="scale(0.015625)"/>
      </defs>
      <use xlink:href="#DejaVuSans-42"/>
     </g>
    </g>
   </g>
   <g id="patch_16">
    <path d="M 230.1108 95.515 
C 230.719441 95.515 231.303236 95.273184 231.73361 94.84281 
C 232.163984 94.412436 232.4058 93.828641 232.4058 93.22 
C 232.4058 92.611359 232.163984 92.027564 231.73361 91.59719 
C 231.303236 91.166816 230.719441 90.925 230.1108 90.925 
C 229.502159 90.925 228.918364 91.166816 228.48799 91.59719 
C 228.057616 92.027564 227.8158 92.611359 227.8158 93.22 
C 227.8158 93.828641 228.057616 94.412436 228.48799 94.84281 
C 228.918364 95.273184 229.502159 95.515 230.1108 95.515 
z
" clip-path="url(#pd7a80195c5)" style="fill: #ff0000; stroke: #ff0000; stroke-width: 2; stroke-linejoin: miter"/>
   </g>
   <g id="text_23">
    <g clip-path="url(#pd7a80195c5)">
     <!-- C -->
     <g transform="translate(225.746542 85.265391)scale(0.125 -0.125)">
      <defs>
       <path id="DejaVuSans-43" d="M 4122 4306 
L 4122 3641 
Q 3803 3938 3442 4084 
Q 3081 4231 2675 4231 
Q 1875 4231 1450 3742 
Q 1025 3253 1025 2328 
Q 1025 1406 1450 917 
Q 1875 428 2675 428 
Q 3081 428 3442 575 
Q 3803 722 4122 1019 
L 4122 359 
Q 3791 134 3420 21 
Q 3050 -91 2638 -91 
Q 1578 -91 968 557 
Q 359 1206 359 2328 
Q 359 3453 968 4101 
Q 1578 4750 2638 4750 
Q 3056 4750 3426 4639 
Q 3797 4528 4122 4306 
z
" transform="scale(0.015625)"/>
      </defs>
      <use xlink:href="#DejaVuSans-43"/>
     </g>
    </g>
   </g>
   <g id="patch_17">
    <path d="M 321.9108 95.515 
C 322.519441 95.515 323.103236 95.273184 323.53361 94.84281 
C 323.963984 94.412436 324.2058 93.828641 324.2058 93.22 
C 324.2058 92.611359 323.963984 92.027564 323.53361 91.59719 
C 323.103236 91.166816 322.519441 90.925 321.9108 90.925 
C 321.302159 90.925 320.718364 91.166816 320.28799 91.59719 
C 319.857616 92.027564 319.6158 92.611359 319.6158 93.22 
C 319.6158 93.828641 319.857616 94.412436 320.28799 94.84281 
C 320.718364 95.273184 321.302159 95.515 321.9108 95.515 
z
" clip-path="url(#pd7a80195c5)" style="fill: #ff0000; stroke: #ff0000; stroke-width: 2; stroke-linejoin: miter"/>
   </g>
   <g id="text_24">
    <g clip-path="url(#pd7a80195c5)">
     <!-- D -->
     <g transform="translate(317.0983 85.265391)scale(0.125 -0.125)">
      <defs>
       <path id="DejaVuSans-44" d="M 1259 4147 
L 1259 519 
L 2022 519 
Q 2988 519 3436 956 
Q 3884 1394 3884 2338 
Q 3884 3275 3436 3711 
Q 2988 4147 2022 4147 
L 1259 4147 
z
M 628 4666 
L 1925 4666 
Q 3281 4666 3915 4102 
Q 4550 3538 4550 2338 
Q 4550 1131 3912 565 
Q 3275 0 1925 0 
L 628 0 
L 628 4666 
z
" transform="scale(0.015625)"/>
      </defs>
      <use xlink:href="#DejaVuSans-44"/>
     </g>
    </g>
   </g>
   <g id="patch_18">
    <path d="M 46.5108 95.515 
C 47.119441 95.515 47.703236 95.273184 48.13361 94.84281 
C 48.563984 94.412436 48.8058 93.828641 48.8058 93.22 
C 48.8058 92.611359 48.563984 92.027564 48.13361 91.59719 
C 47.703236 91.166816 47.119441 90.925 46.5108 90.925 
C 45.902159 90.925 45.318364 91.166816 44.88799 91.59719 
C 44.457616 92.027564 44.2158 92.611359 44.2158 93.22 
C 44.2158 93.828641 44.457616 94.412436 44.88799 94.84281 
C 45.318364 95.273184 45.902159 95.515 46.5108 95.515 
z
" clip-path="url(#pd7a80195c5)" style="fill: #ff0000; stroke: #ff0000; stroke-width: 2; stroke-linejoin: miter"/>
   </g>
   <g id="text_25">
    <g clip-path="url(#pd7a80195c5)">
     <!-- A -->
     <g transform="translate(42.235409 85.265391)scale(0.125 -0.125)">
      <use xlink:href="#DejaVuSans-41"/>
     </g>
    </g>
   </g>
   <g id="patch_19">
    <path d="M 138.3108 95.515 
C 138.919441 95.515 139.503236 95.273184 139.93361 94.84281 
C 140.363984 94.412436 140.6058 93.828641 140.6058 93.22 
C 140.6058 92.611359 140.363984 92.027564 139.93361 91.59719 
C 139.503236 91.166816 138.919441 90.925 138.3108 90.925 
C 137.702159 90.925 137.118364 91.166816 136.68799 91.59719 
C 136.257616 92.027564 136.0158 92.611359 136.0158 93.22 
C 136.0158 93.828641 136.257616 94.412436 136.68799 94.84281 
C 137.118364 95.273184 137.702159 95.515 138.3108 95.515 
z
" clip-path="url(#pd7a80195c5)" style="fill: #ff0000; stroke: #ff0000; stroke-width: 2; stroke-linejoin: miter"/>
   </g>
   <g id="text_26">
    <g clip-path="url(#pd7a80195c5)">
     <!-- B -->
     <g transform="translate(134.022714 85.265391)scale(0.125 -0.125)">
      <use xlink:href="#DejaVuSans-42"/>
     </g>
    </g>
   </g>
   <g id="patch_20">
    <path d="M 230.1108 95.515 
C 230.719441 95.515 231.303236 95.273184 231.73361 94.84281 
C 232.163984 94.412436 232.4058 93.828641 232.4058 93.22 
C 232.4058 92.611359 232.163984 92.027564 231.73361 91.59719 
C 231.303236 91.166816 230.719441 90.925 230.1108 90.925 
C 229.502159 90.925 228.918364 91.166816 228.48799 91.59719 
C 228.057616 92.027564 227.8158 92.611359 227.8158 93.22 
C 227.8158 93.828641 228.057616 94.412436 228.48799 94.84281 
C 228.918364 95.273184 229.502159 95.515 230.1108 95.515 
z
" clip-path="url(#pd7a80195c5)" style="fill: #ff0000; stroke: #ff0000; stroke-width: 2; stroke-linejoin: miter"/>
   </g>
   <g id="text_27">
    <g clip-path="url(#pd7a80195c5)">
     <!-- C -->
     <g transform="translate(225.746542 85.265391)scale(0.125 -0.125)">
      <use xlink:href="#DejaVuSans-43"/>
     </g>
    </g>
   </g>
   <g id="patch_21">
    <path d="M 321.9108 95.515 
C 322.519441 95.515 323.103236 95.273184 323.53361 94.84281 
C 323.963984 94.412436 324.2058 93.828641 324.2058 93.22 
C 324.2058 92.611359 323.963984 92.027564 323.53361 91.59719 
C 323.103236 91.166816 322.519441 90.925 321.9108 90.925 
C 321.302159 90.925 320.718364 91.166816 320.28799 91.59719 
C 319.857616 92.027564 319.6158 92.611359 319.6158 93.22 
C 319.6158 93.828641 319.857616 94.412436 320.28799 94.84281 
C 320.718364 95.273184 321.302159 95.515 321.9108 95.515 
z
" clip-path="url(#pd7a80195c5)" style="fill: #ff0000; stroke: #ff0000; stroke-width: 2; stroke-linejoin: miter"/>
   </g>
   <g id="text_28">
    <g clip-path="url(#pd7a80195c5)">
     <!-- D -->
     <g transform="translate(317.0983 85.265391)scale(0.125 -0.125)">
      <use xlink:href="#DejaVuSans-44"/>
     </g>
    </g>
   </g>
  </g>
 </g>
 <defs>
  <clipPath id="pd7a80195c5">
   <rect x="7.2" y="7.2" width="334.0092" height="200.77"/>
  </clipPath>
 </defs>
</svg>
