<?xml version="1.0" encoding="utf-8" standalone="no"?>
<!DOCTYPE svg PUBLIC "-//W3C//DTD SVG 1.1//EN"
  "http://www.w3.org/Graphics/SVG/1.1/DTD/svg11.dtd">
<svg xmlns:xlink="http://www.w3.org/1999/xlink" width="205.879064pt" height="206.33pt" viewBox="0 0 205.879064 206.33" xmlns="http://www.w3.org/2000/svg" version="1.1">
 <metadata>
  <rdf:RDF xmlns:dc="http://purl.org/dc/elements/1.1/" xmlns:cc="http://creativecommons.org/ns#" xmlns:rdf="http://www.w3.org/1999/02/22-rdf-syntax-ns#">
   <cc:Work>
    <dc:type rdf:resource="http://purl.org/dc/dcmitype/StillImage"/>
    <dc:date>2023-06-05T11:28:49.675058</dc:date>
    <dc:format>image/svg+xml</dc:format>
    <dc:creator>
     <cc:Agent>
      <dc:title>Matplotlib v3.5.2, https://matplotlib.org/</dc:title>
     </cc:Agent>
    </dc:creator>
   </cc:Work>
  </rdf:RDF>
 </metadata>
 <defs>
  <style type="text/css">*{stroke-linejoin: round; stroke-linecap: butt}</style>
 </defs>
 <g id="figure_1">
  <g id="patch_1">
   <path d="M 0 206.33 
L 205.879064 206.33 
L 205.879064 0 
L 0 0 
L 0 206.33 
z
" style="fill: none"/>
  </g>
  <g id="axes_1">
   <g id="line2d_1">
    <path d="M 20.3784 37.375 
L 46.878777 52.675 
L 52.912142 47.324906 
L 49.678872 63.125094 
L 61.745601 52.424906 
L 58.512331 68.225094 
L 70.57906 57.524906 
L 67.34579 73.325094 
L 73.379155 67.975 
L 99.879532 83.275 
" clip-path="url(#pe77f2bfe5b)" style="fill: none; stroke: #000000; stroke-width: 2; stroke-linecap: round"/>
   </g>
   <g id="line2d_2">
    <path d="M 99.879532 83.275 
L 126.379909 67.975 
L 124.763274 60.074906 
L 136.830004 70.775094 
L 133.596733 54.974906 
L 145.663463 65.675094 
L 142.430192 49.874906 
L 154.496922 60.575094 
L 152.880287 52.675 
L 179.380664 37.375 
" clip-path="url(#pe77f2bfe5b)" style="fill: none; stroke: #000000; stroke-width: 2; stroke-linecap: round"/>
   </g>
   <g id="line2d_3">
    <path d="M 99.879532 83.275 
L 99.879532 113.875 
L 107.529532 116.425 
L 92.229532 121.525 
L 107.529532 126.625 
L 92.229532 131.725 
L 107.529532 136.825 
L 92.229532 141.925 
L 99.879532 144.475 
L 99.879532 175.075 
" clip-path="url(#pe77f2bfe5b)" style="fill: none; stroke: #000000; stroke-width: 2; stroke-linecap: round"/>
   </g>
   <g id="line2d_4">
    <path d="M 20.3784 37.375 
L 46.878777 52.675 
L 52.912142 47.324906 
L 49.678872 63.125094 
L 61.745601 52.424906 
L 58.512331 68.225094 
L 70.57906 57.524906 
L 67.34579 73.325094 
L 73.379155 67.975 
L 99.879532 83.275 
" clip-path="url(#pe77f2bfe5b)" style="fill: none; stroke: #000000; stroke-width: 2; stroke-linecap: round"/>
   </g>
   <g id="line2d_5">
    <path d="M 99.879532 83.275 
L 126.379909 67.975 
L 124.763274 60.074906 
L 136.830004 70.775094 
L 133.596733 54.974906 
L 145.663463 65.675094 
L 142.430192 49.874906 
L 154.496922 60.575094 
L 152.880287 52.675 
L 179.380664 37.375 
" clip-path="url(#pe77f2bfe5b)" style="fill: none; stroke: #000000; stroke-width: 2; stroke-linecap: round"/>
   </g>
   <g id="line2d_6">
    <path d="M 99.879532 83.275 
L 99.879532 113.875 
L 107.529532 116.425 
L 92.229532 121.525 
L 107.529532 126.625 
L 92.229532 131.725 
L 107.529532 136.825 
L 92.229532 141.925 
L 99.879532 144.475 
L 99.879532 175.075 
" clip-path="url(#pe77f2bfe5b)" style="fill: none; stroke: #000000; stroke-width: 2; stroke-linecap: round"/>
   </g>
   <g id="text_1">
    <g clip-path="url(#pe77f2bfe5b)">
     <!-- $R_a$ -->
     <g transform="translate(65.483966 48.450259)scale(0.125 -0.125)">
      <defs>
       <path id="STIXGeneral-Italic-52" d="M 845 4179 
L 2458 4179 
Q 3078 4179 3420 3936 
Q 3763 3693 3763 3277 
Q 3763 2778 3341 2458 
Q 3091 2266 2502 2131 
L 3072 627 
Q 3181 333 3299 217 
Q 3418 102 3629 102 
L 3629 0 
L 2688 0 
L 1901 2074 
L 1478 2106 
L 1126 806 
Q 1043 512 1043 403 
Q 1043 256 1126 192 
Q 1210 128 1472 102 
L 1472 0 
L -83 0 
L -83 102 
Q 173 134 278 243 
Q 384 352 461 646 
L 1222 3405 
Q 1299 3699 1299 3808 
Q 1299 3923 1210 3987 
Q 1133 4038 845 4077 
L 845 4179 
z
M 1958 3795 
L 1555 2342 
Q 1754 2310 1882 2310 
Q 2451 2310 2771 2566 
Q 3091 2822 3091 3270 
Q 3091 3603 2892 3795 
Q 2694 3987 2323 3987 
Q 2010 3987 1958 3795 
z
" transform="scale(0.015625)"/>
       <path id="STIXGeneral-Italic-61" d="M 2963 710 
L 3046 640 
Q 2688 205 2518 70 
Q 2349 -64 2157 -64 
Q 1901 -64 1901 198 
Q 1901 358 2048 934 
Q 1690 397 1389 163 
Q 1088 -70 749 -70 
Q 467 -70 288 125 
Q 109 320 109 672 
Q 109 1158 387 1664 
Q 666 2170 1094 2496 
Q 1523 2822 1939 2822 
Q 2368 2822 2451 2451 
L 2522 2758 
L 2541 2778 
L 2931 2822 
L 2976 2803 
Q 2970 2778 2938 2669 
Q 2368 595 2368 346 
Q 2368 262 2458 262 
Q 2554 262 2790 525 
L 2963 710 
z
M 2336 2310 
Q 2336 2477 2240 2579 
Q 2144 2682 1978 2682 
Q 1542 2682 1139 2093 
Q 928 1779 787 1395 
Q 646 1011 646 717 
Q 646 243 1030 243 
Q 1408 243 1843 870 
Q 2336 1581 2336 2310 
z
" transform="scale(0.015625)"/>
      </defs>
      <use xlink:href="#STIXGeneral-Italic-52" transform="translate(0 0.703125)"/>
      <use xlink:href="#STIXGeneral-Italic-61" transform="translate(61.099991 -12.525)scale(0.7)"/>
     </g>
    </g>
   </g>
   <g id="text_2">
    <g clip-path="url(#pe77f2bfe5b)">
     <!-- $R_b$ -->
     <g transform="translate(121.650098 48.450259)scale(0.125 -0.125)">
      <defs>
       <path id="STIXGeneral-Italic-62" d="M 1043 1856 
L 1050 1856 
Q 1370 2387 1654 2604 
Q 1939 2822 2285 2822 
Q 2618 2822 2822 2617 
Q 3027 2413 3027 2054 
Q 3027 1562 2726 1062 
Q 2426 563 1942 246 
Q 1459 -70 979 -70 
Q 685 -70 416 32 
Q 147 134 147 269 
L 147 307 
L 1056 3654 
Q 1114 3885 1114 3955 
Q 1114 4058 1053 4080 
Q 992 4102 704 4115 
L 704 4224 
Q 1184 4282 1683 4371 
L 1715 4339 
L 1581 3814 
L 1043 1856 
z
M 2483 1958 
Q 2483 2509 2035 2509 
Q 1594 2509 1158 1773 
Q 954 1427 826 1008 
Q 698 589 698 294 
Q 698 77 992 77 
Q 1414 77 1779 454 
Q 2074 762 2278 1187 
Q 2483 1613 2483 1958 
z
" transform="scale(0.015625)"/>
      </defs>
      <use xlink:href="#STIXGeneral-Italic-52" transform="translate(0 0.703125)"/>
      <use xlink:href="#STIXGeneral-Italic-62" transform="translate(61.099991 -12.525)scale(0.7)"/>
     </g>
    </g>
   </g>
   <g id="text_3">
    <g clip-path="url(#pe77f2bfe5b)">
     <!-- $R_c$ -->
     <g transform="translate(77.044532 132.624219)scale(0.125 -0.125)">
      <defs>
       <path id="STIXGeneral-Italic-63" d="M 2240 685 
L 2342 621 
Q 2048 250 1769 90 
Q 1491 -70 1133 -70 
Q 678 -70 435 179 
Q 192 429 192 915 
Q 192 1344 409 1744 
Q 627 2144 979 2432 
Q 1472 2822 2048 2822 
Q 2342 2822 2531 2675 
Q 2720 2528 2720 2304 
Q 2720 2176 2630 2086 
Q 2541 1997 2413 1997 
Q 2285 1997 2224 2070 
Q 2163 2144 2163 2253 
Q 2163 2310 2211 2403 
Q 2259 2496 2259 2560 
Q 2259 2688 2022 2688 
Q 1619 2688 1325 2381 
Q 742 1766 742 890 
Q 742 544 889 352 
Q 1037 160 1312 160 
Q 1562 160 1766 281 
Q 1971 403 2240 685 
z
" transform="scale(0.015625)"/>
      </defs>
      <use xlink:href="#STIXGeneral-Italic-52" transform="translate(0 0.703125)"/>
      <use xlink:href="#STIXGeneral-Italic-63" transform="translate(61.099991 -12.525)scale(0.7)"/>
     </g>
    </g>
   </g>
   <g id="text_4">
    <g clip-path="url(#pe77f2bfe5b)">
     <!-- $R_a$ -->
     <g transform="translate(65.483966 48.450259)scale(0.125 -0.125)">
      <use xlink:href="#STIXGeneral-Italic-52" transform="translate(0 0.703125)"/>
      <use xlink:href="#STIXGeneral-Italic-61" transform="translate(61.099991 -12.525)scale(0.7)"/>
     </g>
    </g>
   </g>
   <g id="text_5">
    <g clip-path="url(#pe77f2bfe5b)">
     <!-- $R_b$ -->
     <g transform="translate(121.650098 48.450259)scale(0.125 -0.125)">
      <use xlink:href="#STIXGeneral-Italic-52" transform="translate(0 0.703125)"/>
      <use xlink:href="#STIXGeneral-Italic-62" transform="translate(61.099991 -12.525)scale(0.7)"/>
     </g>
    </g>
   </g>
   <g id="text_6">
    <g clip-path="url(#pe77f2bfe5b)">
     <!-- $R_c$ -->
     <g transform="translate(77.044532 132.624219)scale(0.125 -0.125)">
      <use xlink:href="#STIXGeneral-Italic-52" transform="translate(0 0.703125)"/>
      <use xlink:href="#STIXGeneral-Italic-63" transform="translate(61.099991 -12.525)scale(0.7)"/>
     </g>
    </g>
   </g>
   <g id="patch_2">
    <path d="M 20.3784 39.67 
C 20.987041 39.67 21.570836 39.428184 22.00121 38.99781 
C 22.431584 38.567436 22.6734 37.983641 22.6734 37.375 
C 22.6734 36.766359 22.431584 36.182564 22.00121 35.75219 
C 21.570836 35.321816 20.987041 35.08 20.3784 35.08 
C 19.769759 35.08 19.185964 35.321816 18.75559 35.75219 
C 18.325216 36.182564 18.0834 36.766359 18.0834 37.375 
C 18.0834 37.983641 18.325216 38.567436 18.75559 38.99781 
C 19.185964 39.428184 19.769759 39.67 20.3784 39.67 
z
" clip-path="url(#pe77f2bfe5b)" style="stroke: #000000; stroke-width: 2; stroke-linejoin: miter"/>
   </g>
   <g id="text_7">
    <g clip-path="url(#pe77f2bfe5b)">
     <!-- A -->
     <g transform="translate(16.103009 29.420391)scale(0.125 -0.125)">
      <defs>
       <path id="DejaVuSans-41" d="M 2188 4044 
L 1331 1722 
L 3047 1722 
L 2188 4044 
z
M 1831 4666 
L 2547 4666 
L 4325 0 
L 3669 0 
L 3244 1197 
L 1141 1197 
L 716 0 
L 50 0 
L 1831 4666 
z
" transform="scale(0.015625)"/>
      </defs>
      <use xlink:href="#DejaVuSans-41"/>
     </g>
    </g>
   </g>
   <g id="patch_3">
    <path d="M 179.380664 39.67 
C 179.989305 39.67 180.5731 39.428184 181.003474 38.99781 
C 181.433848 38.567436 181.675664 37.983641 181.675664 37.375 
C 181.675664 36.766359 181.433848 36.182564 181.003474 35.75219 
C 180.5731 35.321816 179.989305 35.08 179.380664 35.08 
C 178.772023 35.08 178.188228 35.321816 177.757854 35.75219 
C 177.32748 36.182564 177.085664 36.766359 177.085664 37.375 
C 177.085664 37.983641 177.32748 38.567436 177.757854 38.99781 
C 178.188228 39.428184 178.772023 39.67 179.380664 39.67 
z
" clip-path="url(#pe77f2bfe5b)" style="stroke: #000000; stroke-width: 2; stroke-linejoin: miter"/>
   </g>
   <g id="text_8">
    <g clip-path="url(#pe77f2bfe5b)">
     <!-- B -->
     <g transform="translate(175.092578 29.420391)scale(0.125 -0.125)">
      <defs>
       <path id="DejaVuSans-42" d="M 1259 2228 
L 1259 519 
L 2272 519 
Q 2781 519 3026 730 
Q 3272 941 3272 1375 
Q 3272 1813 3026 2020 
Q 2781 2228 2272 2228 
L 1259 2228 
z
M 1259 4147 
L 1259 2741 
L 2194 2741 
Q 2656 2741 2882 2914 
Q 3109 3088 3109 3444 
Q 3109 3797 2882 3972 
Q 2656 4147 2194 4147 
L 1259 4147 
z
M 628 4666 
L 2241 4666 
Q 2963 4666 3353 4366 
Q 3744 4066 3744 3513 
Q 3744 3084 3544 2831 
Q 3344 2578 2956 2516 
Q 3422 2416 3680 2098 
Q 3938 1781 3938 1306 
Q 3938 681 3513 340 
Q 3088 0 2303 0 
L 628 0 
L 628 4666 
z
" transform="scale(0.015625)"/>
      </defs>
      <use xlink:href="#DejaVuSans-42"/>
     </g>
    </g>
   </g>
   <g id="patch_4">
    <path d="M 99.879532 177.37 
C 100.488173 177.37 101.071968 177.128184 101.502342 176.69781 
C 101.932716 176.267436 102.174532 175.683641 102.174532 175.075 
C 102.174532 174.466359 101.932716 173.882564 101.502342 173.45219 
C 101.071968 173.021816 100.488173 172.78 99.879532 172.78 
C 99.270891 172.78 98.687096 173.021816 98.256722 173.45219 
C 97.826348 173.882564 97.584532 174.466359 97.584532 175.075 
C 97.584532 175.683641 97.826348 176.267436 98.256722 176.69781 
C 98.687096 177.128184 99.270891 177.37 99.879532 177.37 
z
" clip-path="url(#pe77f2bfe5b)" style="stroke: #000000; stroke-width: 2; stroke-linejoin: miter"/>
   </g>
   <g id="text_9">
    <g clip-path="url(#pe77f2bfe5b)">
     <!-- C -->
     <g transform="translate(95.515274 189.928047)scale(0.125 -0.125)">
      <defs>
       <path id="DejaVuSans-43" d="M 4122 4306 
L 4122 3641 
Q 3803 3938 3442 4084 
Q 3081 4231 2675 4231 
Q 1875 4231 1450 3742 
Q 1025 3253 1025 2328 
Q 1025 1406 1450 917 
Q 1875 428 2675 428 
Q 3081 428 3442 575 
Q 3803 722 4122 1019 
L 4122 359 
Q 3791 134 3420 21 
Q 3050 -91 2638 -91 
Q 1578 -91 968 557 
Q 359 1206 359 2328 
Q 359 3453 968 4101 
Q 1578 4750 2638 4750 
Q 3056 4750 3426 4639 
Q 3797 4528 4122 4306 
z
" transform="scale(0.015625)"/>
      </defs>
      <use xlink:href="#DejaVuSans-43"/>
     </g>
    </g>
   </g>
   <g id="patch_5">
    <path d="M 20.3784 39.67 
C 20.987041 39.67 21.570836 39.428184 22.00121 38.99781 
C 22.431584 38.567436 22.6734 37.983641 22.6734 37.375 
C 22.6734 36.766359 22.431584 36.182564 22.00121 35.75219 
C 21.570836 35.321816 20.987041 35.08 20.3784 35.08 
C 19.769759 35.08 19.185964 35.321816 18.75559 35.75219 
C 18.325216 36.182564 18.0834 36.766359 18.0834 37.375 
C 18.0834 37.983641 18.325216 38.567436 18.75559 38.99781 
C 19.185964 39.428184 19.769759 39.67 20.3784 39.67 
z
" clip-path="url(#pe77f2bfe5b)" style="stroke: #000000; stroke-width: 2; stroke-linejoin: miter"/>
   </g>
   <g id="text_10">
    <g clip-path="url(#pe77f2bfe5b)">
     <!-- A -->
     <g transform="translate(16.103009 29.420391)scale(0.125 -0.125)">
      <use xlink:href="#DejaVuSans-41"/>
     </g>
    </g>
   </g>
   <g id="patch_6">
    <path d="M 179.380664 39.67 
C 179.989305 39.67 180.5731 39.428184 181.003474 38.99781 
C 181.433848 38.567436 181.675664 37.983641 181.675664 37.375 
C 181.675664 36.766359 181.433848 36.182564 181.003474 35.75219 
C 180.5731 35.321816 179.989305 35.08 179.380664 35.08 
C 178.772023 35.08 178.188228 35.321816 177.757854 35.75219 
C 177.32748 36.182564 177.085664 36.766359 177.085664 37.375 
C 177.085664 37.983641 177.32748 38.567436 177.757854 38.99781 
C 178.188228 39.428184 178.772023 39.67 179.380664 39.67 
z
" clip-path="url(#pe77f2bfe5b)" style="stroke: #000000; stroke-width: 2; stroke-linejoin: miter"/>
   </g>
   <g id="text_11">
    <g clip-path="url(#pe77f2bfe5b)">
     <!-- B -->
     <g transform="translate(175.092578 29.420391)scale(0.125 -0.125)">
      <use xlink:href="#DejaVuSans-42"/>
     </g>
    </g>
   </g>
   <g id="patch_7">
    <path d="M 99.879532 177.37 
C 100.488173 177.37 101.071968 177.128184 101.502342 176.69781 
C 101.932716 176.267436 102.174532 175.683641 102.174532 175.075 
C 102.174532 174.466359 101.932716 173.882564 101.502342 173.45219 
C 101.071968 173.021816 100.488173 172.78 99.879532 172.78 
C 99.270891 172.78 98.687096 173.021816 98.256722 173.45219 
C 97.826348 173.882564 97.584532 174.466359 97.584532 175.075 
C 97.584532 175.683641 97.826348 176.267436 98.256722 176.69781 
C 98.687096 177.128184 99.270891 177.37 99.879532 177.37 
z
" clip-path="url(#pe77f2bfe5b)" style="stroke: #000000; stroke-width: 2; stroke-linejoin: miter"/>
   </g>
   <g id="text_12">
    <g clip-path="url(#pe77f2bfe5b)">
     <!-- C -->
     <g transform="translate(95.515274 189.928047)scale(0.125 -0.125)">
      <use xlink:href="#DejaVuSans-43"/>
     </g>
    </g>
   </g>
  </g>
 </g>
 <defs>
  <clipPath id="pe77f2bfe5b">
   <rect x="7.2" y="7.2" width="191.479064" height="191.93"/>
  </clipPath>
 </defs>
</svg>
